<?xml version="1.0" encoding="utf-8"?>
<!-- Generator: Adobe Illustrator 28.2.0, SVG Export Plug-In . SVG Version: 6.00 Build 0)  -->
<svg version="1.1" xmlns="http://www.w3.org/2000/svg" xmlns:xlink="http://www.w3.org/1999/xlink" x="0px" y="0px"
	 viewBox="0 0 512 512" style="enable-background:new 0 0 512 512;" xml:space="preserve">
<style type="text/css">
	.st0{display:none;}
	.st1{fill:#FFFFFF;}
	.st2{font-family:'MyriadPro-Regular';}
	.st3{font-size:253.3241px;}
</style>
<g id="Layer_1" class="st0">
</g>
<g id="Layer_2">
	<path class="st1" d="M256.44,59.51L0,254.25c0,0,29.76,32.38,31.07,32.38c1.31,0,225.37-164.1,225.37-164.1l224.49,164.1
		L512,258.19L256.44,59.51z"/>
	<polygon class="st1" points="432.44,251.19 432.44,452.49 466.49,452.49 469.63,278.37 	"/>
	<polygon class="st1" points="81.15,247.66 81.15,448.96 47.11,448.96 43.96,274.85 	"/>
	<text transform="matrix(1 0 0 1 159.2718 412.2509)" class="st1 st2 st3">%</text>
	<path class="st1" d="M81.83,192.11c0,0-1.09-87.74,0-87.74s51.86,0,51.86,0v48.36L81.83,192.11z"/>
</g>
</svg>
