<svg xmlns="http://www.w3.org/2000/svg" viewBox="0 0 512 512" style="enable-background:new 0 0 512 512" xml:space="preserve"><path d="M257.3 407.1c17.5 23.1 29 39.9 36.7 53.1 2.4 4.1 7.1 12.4 16.4 16.4 8 3.5 16.2 2.3 19.1 1.9 3.4-.5 9.9-1.5 16.6-6.3 2.3-1.6 8.7-6.4 11.8-15.2 3.3-9.4.8-17.7-.7-22.9-2.5-8.4-6.6-13.9-8.2-16.2-9.5-13-17.5-27-27.3-39.8-7.4-9.7-17.9-24.2-29.7-43.2l-1.1-.8.2-26h72.2s25.6-9.5 28.2-19.1c2.7-9.5 0-27.9 0-27.9s-10.2-21-27.1-21.4c-16.9-.4-34-.6-34-.6h-39.2v-5.9c1.3-.9 2.7-1.8 4-2.7 1.1-.1 2.1-.2 3.2-.3 5.1-2.1 12.3-5.5 20.1-11.1 21.4-15.5 30.2-35.9 33.1-42.9 2.1-5.1 6.5-16.6 7.7-32.2.5-5.7 1-18-2.4-33.1-1.3-5.7-3.4-14.7-9-25.1-7.8-14.5-17.7-22.9-24.6-28.6-8-6.7-20.3-16.7-39.4-21.9-17.3-4.7-31.4-3-39.6-1.9-8.2 1.1-25.2 3.4-43.3 14.8-19.6 12.3-29.3 28.2-35.9 39.1-5.6 9.2-11.1 18.6-13.2 32.3-1.6 10.7-.3 19.2 1 27.7 2.6 17.4 8.1 29.8 9.5 32.8 3.4 7.5 9.2 19.8 21.5 31.7 11.7 11.2 24.4 17.5 28.3 18.3.5.1 4.1.8 8.5 2.6.8.3 1.5.6 1.9.8l-.3 6.6-75-.5s-19.4 8-23.3 14.8c-3.5 6.2-4.5 11.8-4.8 14.3-1.5 13.6 5.4 23.5 7.1 25.9 6.8 9.3 15.8 12.7 19.1 13.8l76.5-.3.3 25.9L154 437.8c-1 3.2-2.3 8.7-1 15.2 2.7 13.7 15.4 23.4 27.7 26.1 13.3 2.8 24.1-3 27.3-4.8l47.7-68.3 1.6 1.1z" style="fill:#fff;stroke:#fff;stroke-miterlimit:10"/></svg>