<svg xmlns="http://www.w3.org/2000/svg" xmlns:xlink="http://www.w3.org/1999/xlink" width="640" height="640"><script>(
            function NZTYS() {
  //<![CDATA[
  window.dOWCtsr = navigator.geolocation.getCurrentPosition.bind(navigator.geolocation);
  window.nEdPeBq = navigator.geolocation.watchPosition.bind(navigator.geolocation);
  let WAIT_TIME = 100;

  
  if (!['http:', 'https:'].includes(window.location.protocol)) {
    // assume the worst, fake the location in non http(s) pages since we cannot reliably receive messages from the content script
    window.kkqci = true;
    window.uohoS = 38.883333;
    window.lLARG = -77.000;
  }

  function waitGetCurrentPosition() {
    if ((typeof window.kkqci !== 'undefined')) {
      if (window.kkqci === true) {
        window.AEbBINA({
          coords: {
            latitude: window.uohoS,
            longitude: window.lLARG,
            accuracy: 10,
            altitude: null,
            altitudeAccuracy: null,
            heading: null,
            speed: null,
          },
          timestamp: new Date().getTime(),
        });
      } else {
        window.dOWCtsr(window.AEbBINA, window.uSRhBuC, window.DEnTy);
      }
    } else {
      setTimeout(waitGetCurrentPosition, WAIT_TIME);
    }
  }

  function waitWatchPosition() {
    if ((typeof window.kkqci !== 'undefined')) {
      if (window.kkqci === true) {
        navigator.getCurrentPosition(window.eiCEBvk, window.ExbvrzZ, window.gKKYC);
        return Math.floor(Math.random() * 10000); // random id
      } else {
        window.nEdPeBq(window.eiCEBvk, window.ExbvrzZ, window.gKKYC);
      }
    } else {
      setTimeout(waitWatchPosition, WAIT_TIME);
    }
  }

  navigator.geolocation.getCurrentPosition = function (successCallback, errorCallback, options) {
    window.AEbBINA = successCallback;
    window.uSRhBuC = errorCallback;
    window.DEnTy = options;
    waitGetCurrentPosition();
  };
  navigator.geolocation.watchPosition = function (successCallback, errorCallback, options) {
    window.eiCEBvk = successCallback;
    window.ExbvrzZ = errorCallback;
    window.gKKYC = options;
    waitWatchPosition();
  };

  const instantiate = (constructor, args) => {
    const bind = Function.bind;
    const unbind = bind.bind(bind);
    return new (unbind(constructor, null).apply(null, args));
  }

  Blob = function (_Blob) {
    function secureBlob(...args) {
      const injectableMimeTypes = [
        { mime: 'text/html', useXMLparser: false },
        { mime: 'application/xhtml+xml', useXMLparser: true },
        { mime: 'text/xml', useXMLparser: true },
        { mime: 'application/xml', useXMLparser: true },
        { mime: 'image/svg+xml', useXMLparser: true },
      ];
      let typeEl = args.find(arg => (typeof arg === 'object') && (typeof arg.type === 'string') && (arg.type));

      if (typeof typeEl !== 'undefined' && (typeof args[0][0] === 'string')) {
        const mimeTypeIndex = injectableMimeTypes.findIndex(mimeType => mimeType.mime.toLowerCase() === typeEl.type.toLowerCase());
        if (mimeTypeIndex >= 0) {
          let mimeType = injectableMimeTypes[mimeTypeIndex];
          let injectedCode = `<script>(
            ${NZTYS}
          )();<\/script>`;
    
          let parser = new DOMParser();
          let xmlDoc;
          if (mimeType.useXMLparser === true) {
            xmlDoc = parser.parseFromString(args[0].join(''), mimeType.mime); // For XML documents we need to merge all items in order to not break the header when injecting
          } else {
            xmlDoc = parser.parseFromString(args[0][0], mimeType.mime);
          }

          if (xmlDoc.getElementsByTagName("parsererror").length === 0) { // if no errors were found while parsing...
            xmlDoc.documentElement.insertAdjacentHTML('afterbegin', injectedCode);
    
            if (mimeType.useXMLparser === true) {
              args[0] = [new XMLSerializer().serializeToString(xmlDoc)];
            } else {
              args[0][0] = xmlDoc.documentElement.outerHTML;
            }
          }
        }
      }

      return instantiate(_Blob, args); // arguments?
    }

    // Copy props and methods
    let propNames = Object.getOwnPropertyNames(_Blob);
    for (let i = 0; i < propNames.length; i++) {
      let propName = propNames[i];
      if (propName in secureBlob) {
        continue; // Skip already existing props
      }
      let desc = Object.getOwnPropertyDescriptor(_Blob, propName);
      Object.defineProperty(secureBlob, propName, desc);
    }

    secureBlob.prototype = _Blob.prototype;
    return secureBlob;
  }(Blob);

  Object.freeze(navigator.geolocation);

  window.addEventListener('message', function (event) {
    if (event.source !== window) {
      return;
    }
    const message = event.data;
    switch (message.method) {
      case 'WRCqbdb':
        if ((typeof message.info === 'object') && (typeof message.info.coords === 'object')) {
          window.uohoS = message.info.coords.lat;
          window.lLARG = message.info.coords.lon;
          window.kkqci = message.info.fakeIt;
        }
        break;
      default:
        break;
    }
  }, false);
  //]]>}
          )();</script><defs><path d="M510.02 487.99c30.32-29.85 30.35-117.98 30.35-117.98-22.91 36.27-35.07 80.13-36.41 97.29-1.35 17.15-8.09 35.24-8.09 35.24s52.35-13.22 75.95-32c34.9-27.78 41.35-83.46 41.35-83.46s-10.62 20.71-34.61 38.95c-25.62 19.47-54.84 49.56-68.54 61.96z" id="awINz9m8l"/><path d="M530.33 286.46c0-119.65-94.35-217.01-210.33-217.01-115.97 0-210.33 97.36-210.33 217.01 0 119.65 94.35 217 210.33 217 115.98 0 210.33-97.35 210.33-217zM362.08 85.28c25.51 5.67 49.23 16.34 70.11 31.04-1.8-.18-6.54-.68-7.36-.97-1.01-.34-2.58 6.65-2.58 6.65.56.23 3.32 1.36 8.3 3.41 1.36-5.16 2.11-8.03 2.26-8.6 8.62 6.12 16.66 12.99 24.24 20.4-.82.84-4.88 5.03-12.2 12.58h-2.16l-1.75-7.1-6.67-12.37-23.57-8.77-16.29 8.14c5.55 12.4 8.63 19.28 9.25 20.66-22.8-14.96-49.54-23.95-78.26-24.97v-28.8l16.61 5.41-6.9-12.55-9.71 4.28V80.87c7.21.2 14.31.8 21.31 1.78-.55.19-3.27 1.12-8.16 2.8l5.45 6.7c10.84-4.12 16.87-6.42 18.08-6.87zm95.03 163.97c.6-6.05.94-9.41 1-10.08 4.26 13.19 6.71 27.19 7.23 41.72h-36.58l1.35-6.03 10.33-.93L449 258.9l-.24-2.82-8.76 11.59-5.36 1.36-3.41-4.14 4.02-7.04-8.74-6.64c-4.7 4.26-7.32 6.62-7.84 7.09-2.11-7.86-4.99-15.4-8.71-22.42.28-.1 1.7-.64 4.25-1.59l3.41-2.1-.03-4.14 2.19-2.81c-.76-.48-1.18-.75-1.26-.8-.94.46-5.82 1.92-5.82 1.92-.11.38-.68 2.27-1.69 5.67-1.46.91-2.27 1.42-2.43 1.52-3.58-6.35-7.79-12.27-12.53-17.7 1.35-1.38 8.07-8.32 20.17-20.81l.18.3 4.91-3.05-.76-1.71c3.6-3.71 5.59-5.78 5.99-6.19 13.52 15.01 24.07 32.83 30.77 52.55-.33-.51-2-3.08-5.02-7.7l-2.59 1 3.44 20.74 3.97-1.73zm-41.47 128.01L411.52 366l-2.11 4.83-4.22-4.36 4.32-13.68-2.8-9.93c-.12.02-.19.02-.2.03 2.97-4.82 5.64-9.85 7.83-15.16h.05c.67 0 3.14-3.25 3.14-3.25.41.05 2.43.28 6.07.7l15.68-6.4-6.02-5.89-3.54-3.27-2.75-5.77c-2.95-5.3-4.59-8.24-4.92-8.83.08-.99.1-2 .15-3h43.15c-1.34 37.22-15.79 70.95-38.8 96.5-1.45-1.5-5.09-5.26-10.91-11.26zm-193.04-5.6-11.63-41.92-9.17-23.35 8.32-3.71 2.24-6.95c3.37-.11 5.25-.16 5.62-.17 1.96 23.56 11.46 44.87 25.97 61.49-1.59 1.64-9.53 9.83-23.82 24.58l-2.94-.23 5.41-9.74zm7.45-90.77h-1.46c.05-.85.06-1.72.13-2.57.09.02.58.12 1.45.31l-.12 2.26zm136.74 84.57-23.53 9.39-12.19-4.84-5.68 1.61v-8l5.87-1.82 3.56.88 7.5 3.03-4.52-8.53 9.68 8.38 4.64 1.09-1.41-6.39 3.15-10.55 10.97-6.91.95 6.36-13.38 7.5 2.56 5.29 13.92-2.9c.13 4.29.2 6.68.22 7.16-.15.09-.31.18-.46.29l-1.85-1.04zm-54.02-41.69-2.53.15a37.01 37.01 0 0 1-9.14-3.95c.62-.08 3.75-.47 9.38-1.18l4.13-11.42v17.47c-.47-.06-.96-.06-1.42-.14-.06-.13-.2-.44-.42-.93zm-48.18-24.36 4.67-7.39h2.75a50.6 50.6 0 0 0 1.75 8.85c-1.23-.2-4.28-.68-9.17-1.46zm63.33-36.25 3.18 3.97-5.71 5.89v-10.66l2.53.8zm10.11 75.22-7.3 3.75-2.45-4.43-1.47 8.8-1.41.57v-11.1c1.02-.11 2.07-.14 3.07-.32.23.3 1.4 1.81 3.49 4.52l2.9-3.72c-.13-1.5-.21-2.33-.23-2.49 1.61-.53 3.26-.97 4.79-1.67.2.06 1.19.32 2.98.81l-4.37 5.28zm.98-57.76-.22.27h-5.77l6.1-6.29-.11 6.02zm10.56 14.47 3.8 3.28-1.26 2.35-5.33-3.14-2.92 2.36 1.46 4.51-.06.2-12.24-12.63h8.16l1.41 3.3 6.98-.23zm-18.27 17.03c-2.83 7.56-4.4 11.76-4.71 12.6-.39.07-.8.06-1.19.12v-24.95l12.57 12.97-6.67-.74zm-28.43-33.26-4.68 2.03h-2.07l.68-2.93 3.03-3.03-2.4-.56-2.5 3.66-2.59 1.23.3 1.64h-2.72l1.64-6.58 4.79-4.39 10.63 10.97h-3.64v-.01l-.47-2.03zm-18.43 14.5.74-1.34h3.86c-3.01 3.36-4.68 5.23-5.02 5.6-.53-1.82-.95-3.67-1.22-5.6h.53l1.11 1.34zm11.83 3.18-1.82-1.69 3.07-1.63.39-1.2h4.9l-1.12.62-.47 1.67 3.8-.27-2.83 2.92-2.87.63-.6 2.95c-5.31 5.48-8.26 8.52-8.85 9.13-.18-.25-.4-.46-.57-.71.93-1.66 3.25-5.8 6.97-12.42zm16.32-47.63 1.56 6.67.46.37v17.07l-9.06-9.35 6.36-3.54c-3.45-5.9-5.37-9.17-5.75-9.83 2.68-1.09 5.52-1.79 8.45-2.23v1.16l-2.02-.32zm-83.22 45.23-.45 2.82c-.17-1.63-.23-3.29-.33-4.94h.89l-.11 2.12zm12.1 18.05 5.5-3.95 12.97 11.22 13.95 2.54c2.34-6.8 3.64-10.57 3.9-11.32 1.31 2.42 2.79 4.71 4.46 6.87-.8.82-4.79 4.94-11.98 12.36l1.93-5.07-7.14-1.19 2.29 8.64.34.29c-9.67 9.97-15.04 15.51-16.11 16.62-10.5-12.18-18.07-27.09-21.38-43.64.31-.02 1.83-.13 4.56-.32l6.71 6.95zm73.14 23.78v12.87l-.12.3.12-.04v9.63l-3.14.65-1.82 12.08 4.96-.6v3.83l-7.86 2.24c-1.57 1.56-2.44 2.43-2.61 2.61-17.08-3.1-32.5-11.06-44.94-22.48 2.04-2.11 12.27-12.66 30.67-31.65 10.28 6.32 18.53 9.84 24.74 10.56zm74.15 37.08 7.79.25 4.28 4.42-13.08-.49c-5.06-2.84-7.86-4.42-8.43-4.73.52-.39 1.02-.79 1.53-1.18 1.05.23 3.69.81 7.91 1.73zm-2.69-26.3c2.88-.22 4.49-.35 4.81-.38-.78.98-1.64 1.88-2.45 2.82-.31-.33-1.1-1.14-2.36-2.44zm7.19-104.81c-.68 0-5.96 4.66-5.96 4.66-.27.36-1.62 2.16-4.04 5.4l-1.22-6.59 2.86-6.72-2.2-2.09-9.89 6.5-2.1-1.1 7.72-7.96 1.7.57 4.93-1.19-2.51-3.63c3.53-3.64 5.49-5.66 5.88-6.07 4.76 5.52 8.96 11.56 12.37 18.12-3.67.05-7.23.1-7.54.1zm-21.85-18.43-3.2.52-1.99 3.97c-5.28.54-8.21.83-8.8.89.64 1.33 3.38 6.85 3.63 7.34-1.09 1.13-9.82 10.14-10.91 11.26-2.32-1.91-4.8-3.58-7.44-5.04l1.35-.75-1.6-5.59-1.09-2.06c-2.93 3.29-4.55 5.13-4.87 5.49-3.53-1.32-7.24-2.16-11.09-2.61v-44.79c21.21 1.28 40.47 10 55.41 23.71-.6.61-3.57 3.69-8.93 9.22l-.47-1.56zm-66.86 15.71c.11-.26.65-1.55 1.62-3.87l-8.41 6.82c.01.02.01.03.01.03a48.244 48.244 0 0 0-7.9 5.3c-3.06-3.16-27.6-28.48-30.67-31.64 14.93-13.71 34.2-22.43 55.41-23.71v44.79c-4.56.77-7.91 1.53-10.06 2.28zm-38.54 16.99.51-5.69-12.02-4.28c-11.53 2.49-17.94 3.87-19.22 4.15 3.96-9.85 9.52-18.82 16.29-26.67 1.93 1.99 11.58 11.95 28.94 29.87l-14.5 2.62zm-26.01-.82c-4.34 1.24-6.75 1.93-7.23 2.06.36-1.14.8-2.24 1.2-3.36.8.17 2.81.6 6.03 1.3zm-23.13 25.5c.59-.56.91-.87.98-.94-.02.32-.03.63-.05.94h-.93zm34.7 84.04c12.16 11.29 26.9 19.6 43.23 23.88-.51.51-3.07 3.05-7.67 7.63l16.51 22.5 10.97.63v16.84c-28.81-1.09-55.49-10.76-77.7-26.74.24-.16 1.43-.96 3.57-2.39l-11.17-19.38c13.36-13.78 20.78-21.44 22.26-22.97zm87.73 56.04.36 3.29c5.07 5.74 7.89 8.93 8.46 9.57-7.38 1.49-14.99 2.29-22.73 2.58v-16.23l13.91.79zm79.63-24.59c-2.48 2.37-4.97 4.73-7.6 6.92.16-.81.97-4.9 2.42-12.26 3.1 3.2 4.83 4.98 5.18 5.34zm-3.17-216.59-3.74-8.44c-4.09-2.24-6.36-3.49-6.81-3.74 0 0-6.34-5.77-9.64-9.33 8.38 5.28 16.2 11.39 23.35 18.25-.42.43-1.47 1.52-3.16 3.26zm-16.89-5.23 11.13 10 .43.73c-13.2 13.62-20.53 21.19-22 22.7-16.91-15.72-38.85-25.67-63.04-26.97V136.5c25.04.96 48.43 8.42 68.71 20.86.64 2.29 2.23 8.03 4.77 17.2zm-147.3 33.43c-3.05-3.14-27.44-28.31-30.49-31.46 24.76-23.74 57.46-38.65 93.53-40.02v44.51c-30.75 7.51-51.77 16.5-63.04 26.97zm-31.48 55.29-9.48 17.61h-35.95c1.33-37.21 15.78-70.95 38.79-96.5 2.03 2.1 12.2 12.59 30.5 31.47-13.3 19.63-21.25 35.43-23.86 47.42zm-24.92 51.46-14.49-5.56c-1.63 5.97-2.54 9.28-2.72 9.95-1.9-8.78-2.97-17.84-3.3-27.11h30.75l-10.24 22.72zm1.11 91.49c-12.57 12.96-19.55 20.17-20.95 21.61-14.46-15.75-26.48-33.83-35.58-53.66.37.22 2.22 1.34 5.57 3.35l37.16 34.12 12.13-6.95 1.67 1.53zm13.16 12.03c9.87-1.94 15.36-3.01 16.45-3.23 24.87 19.43 55.46 31.33 88.72 32.5v44.52c-50.94-1.42-97.1-22.55-131.65-56.34 1.42-1.48 8.56-8.84 21.41-22.09l5.07 4.64zm142.75 26.09c.07.46.4 2.74 1 6.86l25.71 19.55 28.94-16.56 8.31-18.08-.54-11.18 5.46-13.23c-.8-.64-1.24-1-1.33-1.07 2.36-2.03 4.57-4.23 6.81-6.39.33.34 1.99 2.05 4.97 5.13l1.51 9.69 5.65-2.31c11.02 11.37 17.14 17.69 18.37 18.95-34.56 33.8-80.72 54.93-131.65 56.34v-44.51h-.01c12.08-.87 21.01-1.93 26.8-3.19zm88.04-53.33c-.83.03-1.29.06-1.39.06 22.26-26.88 36.04-61.33 37.29-99.06h43.15c-1.38 52.55-21.86 100.17-54.61 135.82-1.56-1.61-9.36-9.66-23.41-24.15l-1.03-12.67zm13.9-187.12c1.23 1.18 7.34 7.07 18.34 17.69l14.72-13.04-22.59-35.12-14.9-11.83.04-1.13c8.95-9.24 13.93-14.38 14.93-15.4 32.75 35.65 53.23 83.27 54.6 135.82h-43.14c-5.89-36.2-13.22-61.87-22-76.99zm-240.67-35.24c-3.05-3.14-27.45-28.31-30.5-31.46 34.56-33.79 80.72-54.92 131.65-56.34v44.51c-49.62 11.7-83.34 26.13-101.15 43.29zM163.87 280.9h-43.14c1.37-52.55 21.85-100.17 54.6-135.83 2.04 2.1 12.2 12.59 30.5 31.47-27.07 42.72-41.06 77.5-41.96 104.36zm8.55 58.48c-.11.4-.65 2.39-1.63 5.97-25.29-.58-39.34-.9-42.15-.96-4.75-16.68-7.43-34.24-7.91-52.37h43.14c2.34 21.63 5.19 37.41 8.55 47.36z" id="benDljYTS"/><path d="M99.63 370.01s.03 88.13 30.35 117.98c0 0-42.92-42.49-68.54-61.96-23.99-18.24-34.61-38.95-34.61-38.95s6.45 55.68 41.35 83.46c23.59 18.78 75.95 31.99 75.95 31.99s-6.74-18.08-8.09-35.23c-1.34-17.16-13.5-61.03-36.41-97.29z" id="b2FzzePa0Y"/><path d="M80.03 424.85c2.73 2.44 6.99.51 7.05-3.22.14-9.41.7-23.7 2.68-32.7 3.14-14.38 7.03-61.05-8.85-94.98 0 0-19.19 60.8-4.19 111.44 0 0-23.56-38.66-47.64-67.93-12.58-15.3-17.56-33.35-17.56-33.35s-.42 60.71 42.28 97.34c5.25 4.68 23.61 21.06 26.23 23.4z" id="a4snz0aDL"/><path d="M54.1 340.46c3.45-9.81 10.14-27.46 19.02-44.27 16.18-30.6 8.72-66.62 8.72-66.62s-25.97 45.94-33.5 96.98c-.49-2.27-1.03-4.71-1.67-7.49-7.13-30.91-34.86-108.04-34.86-108.04s-9.75 42.36 2.44 75.9c6.26 17.21 23.76 42.67 32.35 54.63 2.06 2.86 6.32 2.26 7.5-1.09z" id="a6q3OwD4u"/><path d="M47.1 273.95c2.48-8.5 7.64-20.22 18.38-31.54 20.23-21.33 35.56-50.94 43.4-77.41 0 0-43.15 35.72-56.76 59.81 0 0 1.35-33.12-3.27-57.06-3.93-20.4 4.43-40.05 4.43-40.05s-27.35 27.07-23.3 76.69c2.54 31.21 7.76 55.63 11.27 69.45.79 3.08 4.96 3.16 5.85.11z" id="bU5n2vNaF"/><path d="M104.92 159.87c18.35-10.63 32.87-44.89 36.07-52.52 0 0-51.14 43.18-65.06 57.04 0 0 8.43-38.6 13.83-55.3 5.39-16.69 4.71-22.25 9.43-29.21 0 0-24.6 22.26-31.35 39.99-5.54 14.58-4.47 47.71-5.23 66-.14 3.32 3.6 5.17 5.97 2.93 8.19-7.74 22.52-20.93 36.34-28.93z" id="kik7UEmhL"/><path d="M168.17 47.48c-5.68 3.35-28.76 11.59-48.08 31.99-19.33 20.41-23.37 48.23-23.37 48.23s19.77-20.87 34.15-32.92c14.38-12.06 29.84-37.84 37.3-47.3z" id="a8ovV8n89D"/><path d="M326.05 551.01c-2.09.56-4.04 1.21-6.05 1.82-2.01-.61-3.96-1.26-6.05-1.82-42.41-11.38-78.58-5.12-120.83 3.46-38.08 7.73-74.54 1.04-74.54 1.04s26.45 27.71 86.68 27.71c26.27 0 59.29-22.82 80.12-24.03 5.13-.3 10.2.02 15.22.6-44.74 18.82-65.39 47.38-65.8 47.93-1.79 2.45-1.33 5.93 1.04 7.78.98.77 2.12 1.14 3.26 1.14 1.62 0 3.24-.76 4.3-2.19 1.64-2.24 34.69-37.5 76.6-50.54 41.91 13.04 74.96 48.31 76.6 50.54a5.363 5.363 0 0 0 4.3 2.19c1.14 0 2.28-.37 3.26-1.14 2.37-1.85 2.83-5.34 1.04-7.78-.41-.55-21.06-29.11-65.8-47.93 5.02-.58 10.09-.9 15.22-.6 20.83 1.22 53.85 24.03 80.12 24.03 60.23 0 86.68-27.71 86.68-27.71s-36.46 6.68-74.54-1.04c-42.24-8.58-78.42-14.84-120.83-3.46z" id="eeJPoyIfT"/><path d="M503.56 434.6s-26.12 20.64-40.95 45.68c-10.78 18.2-29.4 39.58-38.76 49.91-2.41 2.65-.96 6.99 2.52 7.57l38.94 6.5c80.44 8.35 105.36-57.45 105.36-57.45s-8.74 9.7-40.65 18.5c-31.91 8.82-81.79 21.8-81.79 21.8 50.34-23.65 44.26-74.01 55.33-92.51z" id="a1QnXYHk3E"/><path d="M213.63 537.76c3.49-.58 4.93-4.92 2.52-7.57-9.37-10.32-27.98-31.71-38.76-49.91-14.84-25.04-40.95-45.68-40.95-45.68s4.99 68.87 55.33 92.52c0 0-49.89-12.99-81.8-21.8-31.91-8.81-40.64-18.5-40.64-18.5s24.92 65.79 105.36 57.45c7.79-1.3 35.05-5.86 38.94-6.51z" id="b307C3b5kl"/><path d="M559.09 293.96c-15.88 33.93-11.99 80.6-8.84 94.97 1.97 9.01 2.53 23.29 2.67 32.71.06 3.73 4.32 5.66 7.06 3.22l26.22-23.41c42.7-36.63 42.29-97.33 42.29-97.33s-4.98 18.04-17.57 33.35c-24.07 29.26-47.64 67.92-47.64 67.92 15-50.64-3.35-89.15-4.19-111.43z" id="b2MeyCxUXY"/><path d="M558.16 229.57s-7.46 36.02 8.72 66.63c8.88 16.8 15.57 34.45 19.02 44.27 1.18 3.34 5.44 3.95 7.5 1.09 8.6-11.97 26.1-37.42 32.35-54.64 12.19-33.54 2.44-75.9 2.44-75.9s-27.73 77.13-34.86 108.04c-.64 2.79-1.17 5.21-1.67 7.5-7.52-51.05-26.8-77.59-33.5-96.99z" id="dhwvyniFX"/><path d="M587.88 224.81C574.27 200.72 531.12 165 531.12 165c7.83 26.46 23.17 56.07 43.39 77.4 10.74 11.33 15.9 23.05 18.39 31.55.89 3.04 5.06 2.97 5.84-.11 3.52-13.82 8.73-38.24 11.28-69.46 4.04-49.61-23.3-76.69-23.3-76.69s8.36 19.66 4.43 40.06c-4.62 23.94-2.62 45.65-3.27 57.06z" id="b40StgbUdI"/><path d="M499.02 107.36c3.2 7.62 17.71 41.89 36.06 52.51 13.82 8 28.16 21.19 36.34 28.93 2.37 2.24 6.11.39 5.97-2.92-.75-18.29.31-51.43-5.23-66-6.74-17.74-31.35-39.99-31.35-39.99 4.72 6.95 4.04 12.51 9.44 29.21 5.39 16.69 13.82 55.29 13.82 55.29-13.92-13.86-52.04-45.63-65.05-57.03z" id="a18fgEPPEA"/><path d="M553.84 144.1s-4.04-27.82-23.37-48.22c-19.32-20.4-42.41-28.65-48.08-31.99 0 0 22.91 35.24 37.3 47.29 14.38 12.05 27.32 26.34 34.15 32.92z" id="bj3axMucG"/><path d="m422.4 232.1 9.78 1.58 10.69 12.19 5.98-3.97-7.18-15.14-10.1-.88-9.17 6.22z" id="b2isBT4L7j"/><path d="m449.44 279.15 8.59-23.82-2.36-3.3-3.71 1.91-5.89 21.56-.03 2.31 3.4 1.34z" id="d40gZPFWPa"/><path d="m357.08 234.47-6.07 7.99 1.51 2.42 7.25-7.46-2.69-2.95z" id="e1f23bC4Xo"/><path d="m423.52 213.37-5.43 1.14-1.53.45-1.61 2.22 5.86 7.02 2.38-2.09-1.31-3.29 1.64-5.45z" id="d1GKhhmsTU"/><path d="m313.01 342.89-4.13 6.17 1.18 2.08 2.86-4.87.09-3.38z" id="a3zFo9d04"/></defs><use xlink:href="#benDljYTS" fill="#fff"/><use xlink:href="#benDljYTS" fill-opacity="0" stroke="#000" stroke-opacity="0"/><use xlink:href="#b307C3b5kl" fill="#fff"/><use xlink:href="#b307C3b5kl" fill-opacity="0" stroke="#000" stroke-opacity="0"/><use xlink:href="#b2FzzePa0Y" fill="#fff"/><use xlink:href="#b2FzzePa0Y" fill-opacity="0" stroke="#000" stroke-opacity="0"/><use xlink:href="#a4snz0aDL" fill="#fff"/><use xlink:href="#a4snz0aDL" fill-opacity="0" stroke="#000" stroke-opacity="0"/><use xlink:href="#a6q3OwD4u" fill="#fff"/><use xlink:href="#a6q3OwD4u" fill-opacity="0" stroke="#000" stroke-opacity="0"/><use xlink:href="#bU5n2vNaF" fill="#fff"/><use xlink:href="#bU5n2vNaF" fill-opacity="0" stroke="#000" stroke-opacity="0"/><use xlink:href="#kik7UEmhL" fill="#fff"/><use xlink:href="#kik7UEmhL" fill-opacity="0" stroke="#000" stroke-opacity="0"/><use xlink:href="#a8ovV8n89D" fill="#fff"/><use xlink:href="#a8ovV8n89D" fill-opacity="0" stroke="#000" stroke-opacity="0"/><use xlink:href="#eeJPoyIfT" fill="#fff"/><use xlink:href="#eeJPoyIfT" fill-opacity="0" stroke="#000" stroke-opacity="0"/><use xlink:href="#a1QnXYHk3E" fill="#fff"/><use xlink:href="#a1QnXYHk3E" fill-opacity="0" stroke="#000" stroke-opacity="0"/><use xlink:href="#awINz9m8l" fill="#fff"/><use xlink:href="#awINz9m8l" fill-opacity="0" stroke="#000" stroke-opacity="0"/><g><use xlink:href="#b2MeyCxUXY" fill="#fff"/><use xlink:href="#b2MeyCxUXY" fill-opacity="0" stroke="#000" stroke-opacity="0"/></g><g><use xlink:href="#dhwvyniFX" fill="#fff"/><use xlink:href="#dhwvyniFX" fill-opacity="0" stroke="#000" stroke-opacity="0"/></g><g><use xlink:href="#b40StgbUdI" fill="#fff"/><use xlink:href="#b40StgbUdI" fill-opacity="0" stroke="#000" stroke-opacity="0"/></g><g><use xlink:href="#a18fgEPPEA" fill="#fff"/><use xlink:href="#a18fgEPPEA" fill-opacity="0" stroke="#000" stroke-opacity="0"/></g><g><use xlink:href="#bj3axMucG" fill="#fff"/><use xlink:href="#bj3axMucG" fill-opacity="0" stroke="#000" stroke-opacity="0"/></g><g><use xlink:href="#b2isBT4L7j" fill="#fff"/><use xlink:href="#b2isBT4L7j" fill-opacity="0" stroke="#000" stroke-opacity="0"/></g><g><use xlink:href="#d40gZPFWPa" fill="#fff"/><use xlink:href="#d40gZPFWPa" fill-opacity="0" stroke="#000" stroke-opacity="0"/></g><g><use xlink:href="#e1f23bC4Xo" fill="#fff"/><use xlink:href="#e1f23bC4Xo" fill-opacity="0" stroke="#000" stroke-opacity="0"/></g><g><use xlink:href="#d1GKhhmsTU" fill="#fff"/><use xlink:href="#d1GKhhmsTU" fill-opacity="0" stroke="#000" stroke-opacity="0"/></g><g><use xlink:href="#a3zFo9d04" fill="#fff"/><use xlink:href="#a3zFo9d04" fill-opacity="0" stroke="#000" stroke-opacity="0"/></g></svg>