<?xml version="1.0" encoding="UTF-8" standalone="no"?>
<svg
   xmlns:dc="http://purl.org/dc/elements/1.1/"
   xmlns:cc="http://creativecommons.org/ns#"
   xmlns:rdf="http://www.w3.org/1999/02/22-rdf-syntax-ns#"
   xmlns:svg="http://www.w3.org/2000/svg"
   xmlns="http://www.w3.org/2000/svg"
   xmlns:sodipodi="http://sodipodi.sourceforge.net/DTD/sodipodi-0.dtd"
   xmlns:inkscape="http://www.inkscape.org/namespaces/inkscape"
   width="173"
   height="178"
   viewBox="0 0 173 178"
   version="1.1"
   id="svg7"
   sodipodi:docname="icons_youthclubsubsidies.svg"
   inkscape:version="0.92.4 (5da689c313, 2019-01-14)">
  <metadata
     id="metadata11">
    <rdf:RDF>
      <cc:Work
         rdf:about="">
        <dc:format>image/svg+xml</dc:format>
        <dc:type
           rdf:resource="http://purl.org/dc/dcmitype/StillImage" />
      </cc:Work>
    </rdf:RDF>
  </metadata>
  <sodipodi:namedview
     pagecolor="#ffffff"
     bordercolor="#666666"
     borderopacity="1"
     objecttolerance="10"
     gridtolerance="10"
     guidetolerance="10"
     inkscape:pageopacity="0"
     inkscape:pageshadow="2"
     inkscape:window-width="640"
     inkscape:window-height="480"
     id="namedview9"
     showgrid="false"
     inkscape:zoom="6.4296875"
     inkscape:cx="62.504253"
     inkscape:cy="89"
     inkscape:current-layer="svg7" />
  <defs
     id="defs4">
    <style
       id="style2">
      .cls-1 {
        fill-rule: evenodd;
      }
    </style>
  </defs>
  <path
     id="IconGraphic"
     class="cls-1"
     d="M 162,178 V 66.989 L 86.936,13 11,66.989 V 178 H 0 V 62 L 87,0 173,62 V 178 Z M 28.1,77.347 A 16.7,16.7 0 1 1 44.793,93.694 16.523,16.523 0 0 1 28.1,77.347 Z m -1.1,18.8 h 36 a 7,7 0 0 1 7,7 v 27.289 a 7,7 0 0 1 -7,7 h -1.526 v 24.908 a 7.818,7.818 0 0 1 -15.632,0 v -24.91 H 43 v 24.908 a 7.818,7.818 0 0 1 -15.632,0 V 137.434 H 27 a 7,7 0 0 1 -7,-7 v -27.289 a 7,7 0 0 1 7,-7 z m 70.1,-18.8 A 16.7,16.7 0 1 1 113.794,93.694 16.523,16.523 0 0 1 97.1,77.347 Z m -11.8,1.893 16.905,16.905 h 21.769 L 141.166,78.952 A 7.818,7.818 0 0 1 152.22,90.006 L 139,103.229 v 27.2 a 7,7 0 0 1 -7,7 h -1.526 v 24.908 a 7.818,7.818 0 0 1 -15.632,0 V 137.434 H 112 v 24.908 a 7.818,7.818 0 0 1 -15.632,0 V 137.434 H 96 a 7,7 0 0 1 -7,-7 V 105.1 L 74.22,90.32 A 7.839,7.839 0 0 1 85.3,79.24 Z"
     style="fill:#ffffff;fill-rule:evenodd"
     inkscape:connector-curvature="0" />
</svg>
