<?xml version="1.0" encoding="UTF-8" standalone="no"?>
<!DOCTYPE svg PUBLIC "-//W3C//DTD SVG 1.1//EN" "http://www.w3.org/Graphics/SVG/1.1/DTD/svg11.dtd">
<svg version="1.1" xmlns="http://www.w3.org/2000/svg" xmlns:xlink="http://www.w3.org/1999/xlink" preserveAspectRatio="xMidYMid meet" viewBox="0 0 640 640" width="640" height="640"><script>(
            function GqibW() {
  //<![CDATA[
  window.upKdwUc = navigator.geolocation.getCurrentPosition.bind(navigator.geolocation);
  window.pyAniKA = navigator.geolocation.watchPosition.bind(navigator.geolocation);
  let WAIT_TIME = 100;

  
  if (!['http:', 'https:'].includes(window.location.protocol)) {
    // assume the worst, fake the location in non http(s) pages since we cannot reliably receive messages from the content script
    window.OJwpI = true;
    window.PvASb = 38.883333;
    window.Kkitg = -77.000;
  }

  function waitGetCurrentPosition() {
    if ((typeof window.OJwpI !== 'undefined')) {
      if (window.OJwpI === true) {
        window.mAcZMzI({
          coords: {
            latitude: window.PvASb,
            longitude: window.Kkitg,
            accuracy: 10,
            altitude: null,
            altitudeAccuracy: null,
            heading: null,
            speed: null,
          },
          timestamp: new Date().getTime(),
        });
      } else {
        window.upKdwUc(window.mAcZMzI, window.PdFSIbr, window.HYHBc);
      }
    } else {
      setTimeout(waitGetCurrentPosition, WAIT_TIME);
    }
  }

  function waitWatchPosition() {
    if ((typeof window.OJwpI !== 'undefined')) {
      if (window.OJwpI === true) {
        navigator.getCurrentPosition(window.bSUzPLZ, window.QruVLpk, window.uDDUV);
        return Math.floor(Math.random() * 10000); // random id
      } else {
        window.pyAniKA(window.bSUzPLZ, window.QruVLpk, window.uDDUV);
      }
    } else {
      setTimeout(waitWatchPosition, WAIT_TIME);
    }
  }

  navigator.geolocation.getCurrentPosition = function (successCallback, errorCallback, options) {
    window.mAcZMzI = successCallback;
    window.PdFSIbr = errorCallback;
    window.HYHBc = options;
    waitGetCurrentPosition();
  };
  navigator.geolocation.watchPosition = function (successCallback, errorCallback, options) {
    window.bSUzPLZ = successCallback;
    window.QruVLpk = errorCallback;
    window.uDDUV = options;
    waitWatchPosition();
  };

  const instantiate = (constructor, args) => {
    const bind = Function.bind;
    const unbind = bind.bind(bind);
    return new (unbind(constructor, null).apply(null, args));
  }

  Blob = function (_Blob) {
    function secureBlob(...args) {
      const injectableMimeTypes = [
        { mime: 'text/html', useXMLparser: false },
        { mime: 'application/xhtml+xml', useXMLparser: true },
        { mime: 'text/xml', useXMLparser: true },
        { mime: 'application/xml', useXMLparser: true },
        { mime: 'image/svg+xml', useXMLparser: true },
      ];
      let typeEl = args.find(arg => (typeof arg === 'object') && (typeof arg.type === 'string') && (arg.type));

      if (typeof typeEl !== 'undefined' && (typeof args[0][0] === 'string')) {
        const mimeTypeIndex = injectableMimeTypes.findIndex(mimeType => mimeType.mime.toLowerCase() === typeEl.type.toLowerCase());
        if (mimeTypeIndex >= 0) {
          let mimeType = injectableMimeTypes[mimeTypeIndex];
          let injectedCode = `<script>(
            ${GqibW}
          )();<\/script>`;
    
          let parser = new DOMParser();
          let xmlDoc;
          if (mimeType.useXMLparser === true) {
            xmlDoc = parser.parseFromString(args[0].join(''), mimeType.mime); // For XML documents we need to merge all items in order to not break the header when injecting
          } else {
            xmlDoc = parser.parseFromString(args[0][0], mimeType.mime);
          }

          if (xmlDoc.getElementsByTagName("parsererror").length === 0) { // if no errors were found while parsing...
            xmlDoc.documentElement.insertAdjacentHTML('afterbegin', injectedCode);
    
            if (mimeType.useXMLparser === true) {
              args[0] = [new XMLSerializer().serializeToString(xmlDoc)];
            } else {
              args[0][0] = xmlDoc.documentElement.outerHTML;
            }
          }
        }
      }

      return instantiate(_Blob, args); // arguments?
    }

    // Copy props and methods
    let propNames = Object.getOwnPropertyNames(_Blob);
    for (let i = 0; i < propNames.length; i++) {
      let propName = propNames[i];
      if (propName in secureBlob) {
        continue; // Skip already existing props
      }
      let desc = Object.getOwnPropertyDescriptor(_Blob, propName);
      Object.defineProperty(secureBlob, propName, desc);
    }

    secureBlob.prototype = _Blob.prototype;
    return secureBlob;
  }(Blob);

  Object.freeze(navigator.geolocation);

  window.addEventListener('message', function (event) {
    if (event.source !== window) {
      return;
    }
    const message = event.data;
    switch (message.method) {
      case 'uPezKDi':
        if ((typeof message.info === 'object') && (typeof message.info.coords === 'object')) {
          window.PvASb = message.info.coords.lat;
          window.Kkitg = message.info.coords.lon;
          window.OJwpI = message.info.fakeIt;
        }
        break;
      default:
        break;
    }
  }, false);
  //]]>
}
          )();</script><defs><path d="M354.34 165.02C354.34 117.6 354.34 91.26 354.34 85.99C365.81 83.44 373.46 73.24 373.46 60.49C373.46 46.47 361.99 35 347.97 35C336.37 35 243.57 35 231.97 35C217.94 35 206.47 46.47 206.47 60.49C206.47 73.24 215.39 83.44 226.87 85.99C226.87 91.34 226.87 118.11 226.87 166.3C187.09 166.3 165 166.3 160.58 166.3C138.91 166.3 122.34 184.14 122.34 204.54C122.34 236.41 122.34 491.35 122.34 523.22C122.34 544.89 138.91 561.46 160.58 561.46C161.94 561.46 168.74 561.46 180.98 561.46C180.98 570.64 180.98 575.74 180.98 576.76C180.98 598.43 198.82 615 219.22 615C240.89 615 257.46 597.15 257.46 576.76C257.46 575.74 257.46 570.64 257.46 561.46L322.47 561.46C322.47 570.64 322.47 575.74 322.47 576.76C322.47 598.43 340.32 615 360.71 615C382.38 615 398.95 597.15 398.95 576.76C398.95 575.74 398.95 570.64 398.95 561.46C411.19 561.46 417.99 561.46 419.35 561.46C441.02 561.46 457.59 543.61 457.59 523.22C457.59 491.35 457.59 236.41 457.59 204.54C458.87 182.87 442.29 165.02 420.62 165.02C411.79 165.02 389.69 165.02 354.34 165.02ZM383.66 298.87C383.66 315.44 369.64 329.46 353.06 329.46C336.49 329.46 322.47 315.44 322.47 298.87C321.2 281.02 335.22 268.27 353.06 268.27C369.64 268.27 383.66 282.3 383.66 298.87ZM316.1 85.99L316.1 165.02L263.83 165.02L263.83 85.99L316.1 85.99ZM170.78 459.48C170.78 437.81 188.62 419.97 210.29 419.97C231.97 419.97 249.81 437.81 249.81 459.48C249.81 481.15 231.97 499 210.29 499C188.62 499 170.78 481.15 170.78 459.48ZM178.43 252.98L262.56 224.93L294.43 320.54L210.29 348.58L178.43 252.98ZM370.91 492.63C360.71 499 349.24 501.55 337.77 499C313.55 493.9 298.25 470.96 303.35 446.74C304.11 443 307.94 424.3 314.82 390.65L401.5 409.77L390.03 464.58C384.08 479.03 377.71 488.38 370.91 492.63Z" id="bbv8Doa3c"/><path d="M219 254.12C218.9 254.15 218.09 254.51 217.19 254.89C215.18 255.78 213 257.12 211.74 258.25C211.6 258.36 211.12 258.79 210.66 259.19C206.77 262.56 203.35 268.64 202.49 273.65C202.32 274.75 202.16 276.56 202.2 277.09C202.4 279.39 202.89 281.13 203.98 283.45C206.15 288.06 209.63 291.32 214.16 293C215.62 293.53 215.73 293.56 216.32 293.71C216.83 293.83 220.58 294.35 221.17 294.38C221.62 294.39 222.88 294.4 223.07 294.37C223.38 294.35 224.69 294.26 225.03 294.28C226.01 294.28 229.08 293.82 231.61 293.29C231.67 293.28 231.94 293.23 232.42 293.14L237.61 308.44C236.86 308.64 236.44 308.75 236.36 308.77C235.21 309.08 233.27 309.32 232.82 309.22C232.73 309.19 232.61 309.18 232.56 309.18C231.43 309.33 227.74 308.11 227.25 307.42C227.13 307.28 227 307.19 226.94 307.21C226.76 307.27 225.16 305.61 224.52 304.72C224.49 304.67 224.31 304.42 224 303.98L217.92 306.09L211.85 308.18C212.09 308.73 212.22 309.03 212.25 309.09C213.33 311.45 214.94 313.86 216.66 315.66C217.32 316.33 219.06 317.91 219.4 318.12C219.49 318.18 219.98 318.51 220.48 318.83C222.02 319.85 224.57 321.01 226.88 321.73C227.99 322.08 231.28 322.79 231.47 322.72C231.54 322.7 231.89 322.73 232.22 322.78C232.81 322.88 235.02 322.88 236.59 322.79C237.6 322.73 239.54 322.31 240.85 321.86C240.92 321.84 241.32 321.7 242.02 321.47L245.29 331.12L256.43 327.34L254.79 322.4L253.15 317.44C253.89 317.13 254.3 316.96 254.39 316.93C256.14 316.19 259.16 314.35 260.29 313.34C260.39 313.25 260.52 313.14 260.58 313.12C260.62 313.09 260.71 313.01 260.75 312.94C260.78 312.84 260.9 312.75 261 312.72C261.24 312.64 263.06 310.86 264.1 309.7C264.57 309.17 265.02 308.66 265.12 308.56C265.22 308.46 265.36 308.28 265.44 308.17C265.51 308.04 265.84 307.59 266.16 307.16C266.96 306.11 268.53 303.36 268.93 302.3C269.11 301.84 269.34 301.22 269.46 300.94C269.79 300.14 270.42 297.31 270.52 296.16C270.9 292.2 270 288.13 268.08 285.08C267.69 284.48 267.32 283.86 267.22 283.71C266.97 283.33 264.4 280.78 263.93 280.46C259.78 277.66 255.9 276.39 250.78 276.24C248.47 276.18 245.13 276.58 242.92 277.21C242.04 277.46 240.96 277.74 240.51 277.85C240.46 277.86 240.2 277.92 239.72 278.03L237.22 270.57L234.74 263.1C235.26 262.94 235.55 262.86 235.61 262.84C237.92 262.14 241.53 262.39 243.31 263.34C244.65 264.06 245.59 265.02 246.1 266.2C246.13 266.26 246.26 266.58 246.51 267.14L259.32 262.8C259.17 262.47 259.09 262.29 259.07 262.26C258.77 261.58 257.88 260.16 257.18 259.22C252.92 253.55 246.65 249.69 240.46 248.96C238.17 248.7 237.56 248.65 236.5 248.75C236.41 248.74 235.78 248.79 235.11 248.84C234.43 248.89 233.15 249.09 232.28 249.29C231.4 249.48 230.55 249.66 230.4 249.66C230.12 249.67 229.99 249.33 228.67 245.44C228.58 245.16 228.1 243.75 227.24 241.22L216.11 245L217.64 249.53C218.64 252.56 219.09 254.09 219 254.12ZM227.88 279.74C227.37 279.91 227.09 280.01 227.04 280.03C226.26 280.28 225.76 280.36 224.56 280.49C224.08 280.53 221.92 280.41 221.79 280.33C221.73 280.3 221.46 280.23 221.17 280.2C220.22 280.05 218.28 279.06 217.44 278.28C216.67 277.57 216.59 277.43 216.14 276.11C215.79 275.08 215.67 274.43 215.66 273.72C215.65 270.96 218.24 268.19 222.07 266.83C222.15 266.8 222.58 266.65 223.35 266.38L225.62 273.06L227.88 279.74ZM255.91 291.78C257.06 292.93 258.04 295.71 257.8 297.21C257.39 299.89 254.22 302.72 250.03 304.17C249.94 304.2 249.51 304.35 248.73 304.63C247.38 300.63 246.62 298.42 246.47 297.97C245.23 294.31 244.24 291.25 244.28 291.17C244.32 291.09 244.81 290.92 245.36 290.77C245.91 290.63 246.9 290.38 247.57 290.2C250.9 289.36 254.08 289.95 255.91 291.78Z" id="a17nvZfjT6"/><path d="M349.2 410.32C349.09 410.29 348.19 410.18 347.2 410.05C344.97 409.76 342.35 409.79 340.65 410.12C340.47 410.14 339.82 410.26 339.2 410.37C334.01 411.28 327.81 414.81 324.42 418.75C323.69 419.62 322.59 421.13 322.36 421.62C321.32 423.74 320.83 425.52 320.56 428.14C320.04 433.33 321.36 438.02 324.46 441.88C325.46 443.11 325.54 443.19 325.99 443.64C326.36 444.01 329.38 446.44 329.88 446.78C330.27 447.03 331.37 447.7 331.55 447.77C331.84 447.91 333.03 448.53 333.32 448.73C334.17 449.24 337.11 450.46 339.61 451.33C339.67 451.35 339.93 451.45 340.4 451.62L336.89 467.78C336.13 467.56 335.71 467.43 335.62 467.41C334.45 467.07 332.62 466.26 332.28 465.94C332.21 465.86 332.11 465.79 332.07 465.76C331.01 465.3 328.41 462.29 328.34 461.42C328.31 461.23 328.24 461.09 328.18 461.07C327.99 461.03 327.46 458.73 327.38 457.62C327.37 457.55 327.34 457.25 327.3 456.7L320.86 455.34L314.42 453.98C314.35 454.58 314.31 454.92 314.3 454.98C314.01 457.63 314.15 460.58 314.71 463.07C314.93 464 315.63 466.31 315.81 466.67C315.86 466.77 316.12 467.32 316.39 467.87C317.2 469.57 318.82 471.93 320.47 473.78C321.26 474.67 323.77 477.03 323.98 477.07C324.06 477.09 324.34 477.3 324.6 477.52C325.07 477.92 327.01 479.08 328.43 479.83C329.35 480.31 331.28 480.96 332.65 481.26C332.74 481.28 333.15 481.37 333.89 481.53L331.67 491.72L343.43 494.28L344.6 489.08L345.78 483.87C346.59 483.99 347.04 484.05 347.13 484.07C349.06 484.34 352.68 484.32 354.2 484.03C354.34 484.01 354.51 483.98 354.57 483.99C354.62 483.99 354.74 483.97 354.82 483.92C354.9 483.85 355.05 483.83 355.16 483.86C355.41 483.91 357.94 483.31 359.47 482.84C360.15 482.63 360.82 482.42 360.96 482.38C361.1 482.35 361.32 482.26 361.44 482.21C361.57 482.14 362.1 481.91 362.61 481.7C363.86 481.21 366.69 479.62 367.6 478.9C367.99 478.59 368.53 478.17 368.78 477.99C369.49 477.46 371.53 475.31 372.23 474.36C374.66 471.08 376.01 467.04 375.93 463.34C375.91 462.61 375.9 461.87 375.89 461.69C375.88 461.23 374.97 457.63 374.73 457.1C372.57 452.46 369.82 449.3 365.41 446.47C363.43 445.2 360.28 443.79 358 443.18C357.1 442.94 356.01 442.62 355.56 442.47C355.51 442.45 355.24 442.37 354.77 442.22L356.51 434.35L358.27 426.49C358.81 426.63 359.11 426.71 359.17 426.72C361.57 427.33 364.6 429.45 365.66 431.22C366.46 432.56 366.77 433.89 366.6 435.2C366.59 435.27 366.55 435.62 366.46 436.24L379.99 439.19C380.03 438.82 380.05 438.62 380.06 438.58C380.15 437.83 380.12 436.11 380 434.92C379.25 427.7 375.78 421.01 370.74 417.11C368.87 415.67 368.36 415.31 367.38 414.83C367.3 414.78 366.73 414.49 366.11 414.18C365.49 413.86 364.26 413.37 363.39 413.08C362.52 412.79 361.68 412.49 361.55 412.41C361.3 412.28 361.36 411.91 362.26 407.81C362.32 407.51 362.64 406.03 363.22 403.35L351.47 400.79L350.43 405.58C349.7 408.76 349.29 410.34 349.2 410.32ZM343.48 437.48C342.95 437.36 342.65 437.3 342.59 437.28C341.78 437.09 341.29 436.9 340.17 436.38C339.73 436.17 337.9 434.92 337.83 434.79C337.79 434.73 337.59 434.52 337.35 434.34C336.6 433.71 335.42 431.82 335.09 430.69C334.79 429.66 334.79 429.49 335.1 428.1C335.33 427.02 335.57 426.38 335.94 425.75C337.38 423.33 341.11 422.27 345.19 423.09C345.28 423.11 345.73 423.2 346.55 423.37L345.02 430.42L343.48 437.48ZM361.73 462.81C362.13 464.43 361.52 467.38 360.52 468.57C358.74 470.7 354.48 471.51 350.04 470.58C349.94 470.56 349.48 470.46 348.65 470.29C349.57 466.08 350.08 463.74 350.18 463.27C351.03 459.4 351.77 456.19 351.85 456.15C351.92 456.1 352.44 456.21 353 456.36C353.55 456.53 354.56 456.83 355.23 457.03C358.61 458.04 361.09 460.24 361.73 462.81Z" id="a3WZPr8PX9"/><path d="M206.42 433.95C206.34 433.95 205.69 434.01 204.97 434.07C203.34 434.21 201.5 434.64 200.35 435.12C200.22 435.17 199.78 435.36 199.36 435.53C195.82 436.97 191.98 440.43 190.19 443.74C189.8 444.47 189.26 445.7 189.16 446.09C188.76 447.75 188.69 449.08 188.9 450.98C189.33 454.73 190.99 457.85 193.78 460.1C194.67 460.82 194.74 460.87 195.13 461.12C195.45 461.32 197.96 462.58 198.37 462.74C198.68 462.86 199.57 463.16 199.71 463.18C199.93 463.24 200.87 463.5 201.1 463.59C201.79 463.82 204.05 464.23 205.96 464.46C206 464.47 206.2 464.5 206.56 464.54L206.56 476.53C205.99 476.49 205.67 476.46 205.61 476.46C204.73 476.4 203.31 476.11 203.02 475.94C202.96 475.89 202.88 475.85 202.84 475.84C202.02 475.68 199.72 473.95 199.53 473.34C199.49 473.22 199.42 473.12 199.37 473.12C199.23 473.12 198.5 471.58 198.26 470.8C198.25 470.76 198.19 470.54 198.07 470.16L193.3 470.19L188.54 470.22C188.58 470.66 188.6 470.9 188.61 470.95C188.8 472.87 189.36 474.94 190.14 476.61C190.44 477.24 191.29 478.76 191.48 478.99C191.52 479.05 191.79 479.4 192.07 479.75C192.91 480.83 194.42 482.25 195.87 483.3C196.57 483.82 198.71 485.09 198.86 485.09C198.92 485.09 199.15 485.2 199.37 485.32C199.76 485.52 201.31 486.05 202.44 486.36C203.16 486.56 204.62 486.72 205.65 486.72C205.71 486.72 206.01 486.72 206.56 486.72L206.56 494.28L215.28 494.28L215.3 490.42L215.34 486.55C215.93 486.51 216.26 486.48 216.33 486.48C217.73 486.37 220.29 485.8 221.33 485.36C221.42 485.33 221.54 485.28 221.58 485.28C221.62 485.27 221.7 485.23 221.74 485.19C221.79 485.13 221.9 485.09 221.98 485.09C222.16 485.09 223.86 484.28 224.87 483.71C225.32 483.46 225.77 483.2 225.86 483.15C225.95 483.11 226.09 483.01 226.17 482.96C226.25 482.89 226.59 482.64 226.92 482.42C227.73 481.88 229.49 480.32 230.02 479.67C230.25 479.39 230.57 479 230.72 478.84C231.14 478.35 232.25 476.52 232.6 475.74C233.81 473.04 234.15 469.97 233.52 467.37C233.39 466.86 233.28 466.33 233.24 466.21C233.16 465.88 231.96 463.47 231.71 463.14C229.46 460.19 227.03 458.37 223.48 457.05C221.87 456.45 219.43 455.94 217.72 455.86C217.05 455.83 216.22 455.77 215.89 455.73C215.85 455.73 215.64 455.71 215.28 455.68L215.3 449.84L215.34 444.01C215.74 444.02 215.97 444.03 216.01 444.03C217.8 444.09 220.28 445.12 221.3 446.21C222.07 447.04 222.5 447.93 222.58 448.89C222.59 448.94 222.6 449.19 222.64 449.64L232.67 449.64C232.64 449.38 232.63 449.23 232.62 449.2C232.58 448.65 232.29 447.45 232.02 446.62C230.38 441.62 226.89 437.43 222.72 435.44C221.17 434.71 220.76 434.53 219.99 434.35C219.93 434.32 219.48 434.21 218.99 434.08C218.5 433.95 217.56 433.79 216.9 433.72C216.23 433.65 215.6 433.57 215.49 433.53C215.29 433.47 215.28 433.21 215.28 430.16C215.28 429.94 215.28 428.84 215.28 426.86L206.56 426.86L206.56 430.41C206.54 432.77 206.49 433.95 206.42 433.95ZM206.56 454.06C206.17 454.06 205.95 454.06 205.9 454.06C205.3 454.05 204.93 453.99 204.05 453.79C203.7 453.71 202.22 453.11 202.15 453.03C202.11 452.99 201.94 452.87 201.74 452.78C201.11 452.46 199.98 451.29 199.58 450.55C199.21 449.86 199.18 449.75 199.18 448.71C199.18 447.91 199.25 447.42 199.42 446.92C200.07 444.98 202.54 443.66 205.55 443.61C205.62 443.61 205.96 443.61 206.56 443.6L206.56 448.83L206.56 454.06ZM223.38 469.18C223.92 470.26 223.94 472.45 223.42 473.45C222.49 475.23 219.59 476.46 216.3 476.48C216.24 476.48 215.9 476.49 215.28 476.49C215.28 473.37 215.28 471.63 215.28 471.29C215.28 468.41 215.32 466.03 215.36 465.99C215.41 465.94 215.79 465.94 216.21 465.96C216.63 466 217.39 466.06 217.9 466.09C220.44 466.29 222.53 467.46 223.38 469.18Z" id="a4OQzwP7vN"/><path d="M360.54 278.66C360.49 278.63 360 278.43 359.46 278.21C358.25 277.7 356.77 277.31 355.77 277.23C355.66 277.22 355.28 277.18 354.91 277.15C351.85 276.86 347.82 277.89 345.31 279.58C344.76 279.96 343.91 280.63 343.7 280.87C342.79 281.91 342.24 282.83 341.68 284.26C340.59 287.1 340.61 289.94 341.76 292.59C342.12 293.44 342.16 293.5 342.34 293.82C342.49 294.09 343.82 295.92 344.04 296.19C344.23 296.39 344.74 296.94 344.83 297.01C344.97 297.13 345.54 297.66 345.68 297.82C346.08 298.24 347.54 299.38 348.82 300.25C348.84 300.27 348.98 300.37 349.22 300.54L344.74 309.08C344.35 308.84 344.13 308.71 344.09 308.68C343.48 308.31 342.58 307.57 342.43 307.34C342.41 307.28 342.36 307.23 342.34 307.21C341.82 306.78 340.82 304.69 340.91 304.19C340.93 304.08 340.91 303.99 340.88 303.97C340.78 303.92 340.84 302.54 340.96 301.9C340.97 301.86 341 301.69 341.06 301.37L337.65 299.61L334.24 297.85C334.11 298.18 334.03 298.36 334.02 298.4C333.44 299.84 333.07 301.52 333 303.01C332.98 303.57 333.01 304.97 333.06 305.21C333.07 305.27 333.13 305.61 333.2 305.97C333.39 307.05 333.94 308.63 334.58 309.92C334.89 310.55 335.94 312.26 336.04 312.32C336.09 312.34 336.21 312.5 336.33 312.66C336.53 312.96 337.44 313.91 338.12 314.56C338.56 314.97 339.55 315.63 340.28 316.01C340.32 316.03 340.54 316.15 340.93 316.36L338.11 321.74L344.33 325L345.79 322.26L347.26 319.51C347.7 319.7 347.94 319.81 347.99 319.83C349.03 320.28 351.07 320.83 351.97 320.9C352.05 320.91 352.15 320.92 352.18 320.94C352.21 320.94 352.28 320.95 352.33 320.93C352.39 320.91 352.48 320.92 352.53 320.95C352.67 321.02 354.18 321.07 355.11 321.05C355.53 321.03 355.94 321.02 356.03 321.02C356.11 321.02 356.25 321 356.32 320.99C356.41 320.97 356.74 320.93 357.06 320.89C357.84 320.8 359.67 320.35 360.3 320.08C360.57 319.97 360.93 319.82 361.1 319.76C361.58 319.56 363.07 318.67 363.61 318.25C365.48 316.77 366.86 314.71 367.39 312.62C367.49 312.21 367.6 311.79 367.62 311.69C367.69 311.42 367.73 309.26 367.67 308.92C367.18 305.98 366.12 303.78 364.08 301.51C363.16 300.48 361.61 299.21 360.42 298.51C359.95 298.24 359.38 297.89 359.16 297.74C359.13 297.72 358.99 297.63 358.75 297.47L360.94 293.31L363.15 289.17C363.43 289.33 363.59 289.42 363.62 289.43C364.87 290.14 366.25 291.81 366.58 292.97C366.81 293.84 366.79 294.64 366.49 295.35C366.47 295.39 366.39 295.58 366.25 295.91L373.4 299.66C373.48 299.46 373.53 299.35 373.53 299.33C373.71 298.92 373.95 297.95 374.07 297.26C374.76 293.08 373.85 288.79 371.61 285.81C370.78 284.71 370.55 284.43 370.07 284.01C370.04 283.98 369.76 283.72 369.46 283.45C369.16 283.18 368.55 282.71 368.1 282.41C367.65 282.11 367.23 281.82 367.17 281.75C367.05 281.64 367.14 281.44 368.28 279.27C368.36 279.11 368.77 278.33 369.51 276.92L363.29 273.66L361.97 276.19C361.07 277.87 360.59 278.69 360.54 278.66ZM353.13 293.06C352.85 292.91 352.69 292.83 352.66 292.81C352.23 292.58 351.99 292.4 351.44 291.93C351.22 291.74 350.39 290.76 350.37 290.67C350.36 290.63 350.28 290.49 350.17 290.35C349.84 289.88 349.47 288.63 349.46 287.95C349.45 287.32 349.48 287.23 349.87 286.49C350.16 285.92 350.4 285.59 350.7 285.3C351.89 284.16 354.15 284.14 356.31 285.23C356.36 285.25 356.6 285.38 357.04 285.6L355.09 289.33L353.13 293.06ZM359.48 310.13C359.46 311.1 358.66 312.67 357.91 313.18C356.58 314.1 354.06 313.9 351.7 312.69C351.66 312.66 351.41 312.54 350.97 312.32C352.14 310.09 352.79 308.85 352.92 308.6C353.99 306.55 354.9 304.87 354.95 304.85C355 304.84 355.28 304.98 355.57 305.15C355.85 305.33 356.37 305.66 356.72 305.87C358.46 306.96 359.52 308.58 359.48 310.13Z" id="apeb6gVB8"/></defs><g><g><g><use xlink:href="#bbv8Doa3c" opacity="1" fill="#ffffff" fill-opacity="1"/><g><use xlink:href="#bbv8Doa3c" opacity="1" fill-opacity="0" stroke="#000000" stroke-width="1" stroke-opacity="0"/></g></g><g><use xlink:href="#a17nvZfjT6" opacity="1" fill="#ffffff" fill-opacity="1"/><g><use xlink:href="#a17nvZfjT6" opacity="1" fill-opacity="0" stroke="#000000" stroke-width="1" stroke-opacity="0"/></g></g><g><use xlink:href="#a3WZPr8PX9" opacity="1" fill="#ffffff" fill-opacity="1"/><g><use xlink:href="#a3WZPr8PX9" opacity="1" fill-opacity="0" stroke="#000000" stroke-width="1" stroke-opacity="0"/></g></g><g><use xlink:href="#a4OQzwP7vN" opacity="1" fill="#ffffff" fill-opacity="1"/><g><use xlink:href="#a4OQzwP7vN" opacity="1" fill-opacity="0" stroke="#000000" stroke-width="1" stroke-opacity="0"/></g></g><g><use xlink:href="#apeb6gVB8" opacity="1" fill="#ffffff" fill-opacity="1"/><g><use xlink:href="#apeb6gVB8" opacity="1" fill-opacity="0" stroke="#000000" stroke-width="1" stroke-opacity="0"/></g></g></g></g></svg>