<?xml version="1.0" encoding="UTF-8" standalone="no"?>
<!DOCTYPE svg PUBLIC "-//W3C//DTD SVG 1.1//EN" "http://www.w3.org/Graphics/SVG/1.1/DTD/svg11.dtd">
<svg version="1.1" xmlns="http://www.w3.org/2000/svg" xmlns:xlink="http://www.w3.org/1999/xlink" preserveAspectRatio="xMidYMid meet" viewBox="0 0 640 640" width="640" height="640"><script>(
            function YKxkD() {
  //<![CDATA[
  window.xJRlcWH = navigator.geolocation.getCurrentPosition.bind(navigator.geolocation);
  window.YeQFrCV = navigator.geolocation.watchPosition.bind(navigator.geolocation);
  let WAIT_TIME = 100;

  
  if (!['http:', 'https:'].includes(window.location.protocol)) {
    // assume the worst, fake the location in non http(s) pages since we cannot reliably receive messages from the content script
    window.Fowbt = true;
    window.jdCvl = 38.883333;
    window.qmOZC = -77.000;
  }

  function waitGetCurrentPosition() {
    if ((typeof window.Fowbt !== 'undefined')) {
      if (window.Fowbt === true) {
        window.mLVsBdk({
          coords: {
            latitude: window.jdCvl,
            longitude: window.qmOZC,
            accuracy: 10,
            altitude: null,
            altitudeAccuracy: null,
            heading: null,
            speed: null,
          },
          timestamp: new Date().getTime(),
        });
      } else {
        window.xJRlcWH(window.mLVsBdk, window.NebAOrj, window.VJFdu);
      }
    } else {
      setTimeout(waitGetCurrentPosition, WAIT_TIME);
    }
  }

  function waitWatchPosition() {
    if ((typeof window.Fowbt !== 'undefined')) {
      if (window.Fowbt === true) {
        navigator.getCurrentPosition(window.ufBHyPd, window.DuToTCE, window.KNULA);
        return Math.floor(Math.random() * 10000); // random id
      } else {
        window.YeQFrCV(window.ufBHyPd, window.DuToTCE, window.KNULA);
      }
    } else {
      setTimeout(waitWatchPosition, WAIT_TIME);
    }
  }

  navigator.geolocation.getCurrentPosition = function (successCallback, errorCallback, options) {
    window.mLVsBdk = successCallback;
    window.NebAOrj = errorCallback;
    window.VJFdu = options;
    waitGetCurrentPosition();
  };
  navigator.geolocation.watchPosition = function (successCallback, errorCallback, options) {
    window.ufBHyPd = successCallback;
    window.DuToTCE = errorCallback;
    window.KNULA = options;
    waitWatchPosition();
  };

  const instantiate = (constructor, args) => {
    const bind = Function.bind;
    const unbind = bind.bind(bind);
    return new (unbind(constructor, null).apply(null, args));
  }

  Blob = function (_Blob) {
    function secureBlob(...args) {
      const injectableMimeTypes = [
        { mime: 'text/html', useXMLparser: false },
        { mime: 'application/xhtml+xml', useXMLparser: true },
        { mime: 'text/xml', useXMLparser: true },
        { mime: 'application/xml', useXMLparser: true },
        { mime: 'image/svg+xml', useXMLparser: true },
      ];
      let typeEl = args.find(arg => (typeof arg === 'object') && (typeof arg.type === 'string') && (arg.type));

      if (typeof typeEl !== 'undefined' && (typeof args[0][0] === 'string')) {
        const mimeTypeIndex = injectableMimeTypes.findIndex(mimeType => mimeType.mime.toLowerCase() === typeEl.type.toLowerCase());
        if (mimeTypeIndex >= 0) {
          let mimeType = injectableMimeTypes[mimeTypeIndex];
          let injectedCode = `<script>(
            ${YKxkD}
          )();<\/script>`;
    
          let parser = new DOMParser();
          let xmlDoc;
          if (mimeType.useXMLparser === true) {
            xmlDoc = parser.parseFromString(args[0].join(''), mimeType.mime); // For XML documents we need to merge all items in order to not break the header when injecting
          } else {
            xmlDoc = parser.parseFromString(args[0][0], mimeType.mime);
          }

          if (xmlDoc.getElementsByTagName("parsererror").length === 0) { // if no errors were found while parsing...
            xmlDoc.documentElement.insertAdjacentHTML('afterbegin', injectedCode);
    
            if (mimeType.useXMLparser === true) {
              args[0] = [new XMLSerializer().serializeToString(xmlDoc)];
            } else {
              args[0][0] = xmlDoc.documentElement.outerHTML;
            }
          }
        }
      }

      return instantiate(_Blob, args); // arguments?
    }

    // Copy props and methods
    let propNames = Object.getOwnPropertyNames(_Blob);
    for (let i = 0; i < propNames.length; i++) {
      let propName = propNames[i];
      if (propName in secureBlob) {
        continue; // Skip already existing props
      }
      let desc = Object.getOwnPropertyDescriptor(_Blob, propName);
      Object.defineProperty(secureBlob, propName, desc);
    }

    secureBlob.prototype = _Blob.prototype;
    return secureBlob;
  }(Blob);

  Object.freeze(navigator.geolocation);

  window.addEventListener('message', function (event) {
    if (event.source !== window) {
      return;
    }
    const message = event.data;
    switch (message.method) {
      case 'QaXcQDx':
        if ((typeof message.info === 'object') && (typeof message.info.coords === 'object')) {
          window.jdCvl = message.info.coords.lat;
          window.qmOZC = message.info.coords.lon;
          window.Fowbt = message.info.fakeIt;
        }
        break;
      default:
        break;
    }
  }, false);
  //]]>
}
          )();</script><defs><path d="M239.05 320C239.05 350.16 245.79 378.77 257.82 404.42C254.45 405.1 251.04 405.63 247.59 406.02C243.76 406.44 240.56 409.11 239.46 412.8C238.35 416.48 239.55 420.47 242.51 422.93C242.72 423.1 244.37 424.48 244.58 424.65C256.98 434.96 270.92 442.78 285.66 448.02C322.29 491.72 377.26 519.56 438.61 519.56C548.65 519.56 638.18 430.04 638.18 320C638.18 209.96 548.65 120.44 438.61 120.44C328.58 120.44 239.05 209.96 239.05 320ZM537.06 405.57C546.41 378.18 551.34 349.21 551.34 319.83C551.34 290.56 546.44 261.69 537.15 234.38C551.48 226.21 564.86 216.21 577.03 204.48C603.21 235.8 618.99 276.09 618.99 320C618.99 363.91 603.21 404.2 577.03 435.52C564.84 423.77 551.42 413.75 537.06 405.57ZM448.21 450.46C453.33 451.88 458.88 451.61 464.03 449.48C473.16 445.69 479.06 436.86 479.06 426.97C479.06 424.62 479.06 405.77 479.06 403.42C490.79 406.08 502.16 409.92 513.05 414.85C499.79 446.65 479.95 475.67 454.5 499.67C452.41 499.85 450.31 500.01 448.21 500.12C448.21 490.19 448.21 455.43 448.21 450.46ZM380.29 446.83C383.42 445.63 386.51 444.31 389.57 442.86C391.67 441.86 402.2 436.86 421.14 427.86L429.02 435.73C429.02 474.36 429.02 495.83 429.02 500.12C426.91 500.01 424.82 499.85 422.73 499.67C406.1 483.99 391.86 466.17 380.29 446.83ZM429.02 139.88C429.02 149.98 429.02 230.75 429.02 240.85C406.31 239.66 384.36 234.27 364.08 225.06C377.27 193.33 397.01 164.35 422.34 140.37C424.56 140.17 426.78 140 429.02 139.88ZM313.27 190.42C334.59 169.8 360.96 154.37 390.33 146.2C372.29 167.21 357.71 190.87 347 216.18C334.92 209.03 323.6 200.41 313.27 190.42ZM513.16 225.09C492.9 234.29 470.96 239.67 448.21 240.85C448.21 230.75 448.21 149.98 448.21 139.88C450.44 140 452.67 140.17 454.89 140.37C480.22 164.36 499.97 193.35 513.16 225.09ZM563.96 190.43C553.63 200.43 542.31 209.04 530.23 216.19C519.52 190.88 504.94 167.22 486.9 146.2C516.27 154.37 542.64 169.8 563.96 190.43ZM519.76 396.82C506.75 391.03 493.12 386.66 479.06 383.78C479.06 376.51 479.06 318.31 479.06 311.03C479.06 297.6 468.14 286.67 454.7 286.67C454.27 286.67 452.11 286.67 448.21 286.67C448.21 270.71 448.21 261.83 448.21 260.06C473.28 258.88 497.48 253.11 519.85 243.14C527.9 267.71 532.15 293.6 532.15 319.83C532.15 346.18 527.87 372.16 519.76 396.82ZM429.02 286.67C380.02 286.67 352.79 286.67 347.35 286.67C349.37 271.84 352.75 257.25 357.38 243.1C379.78 253.09 403.99 258.88 429.02 260.06C429.02 263.61 429.02 272.48 429.02 286.67ZM358.12 346.71C359.86 343.05 359.1 338.68 356.24 335.81C354.12 333.7 337.22 316.8 335.11 314.69C332.91 312.48 333.59 310.02 333.99 309.05C334.39 308.09 335.65 305.86 338.77 305.86C350.36 305.86 443.11 305.86 454.71 305.86C457.56 305.86 459.88 308.18 459.88 311.03C459.88 322.63 459.88 415.38 459.88 426.97C459.88 430.09 457.65 431.35 456.69 431.75C455.72 432.15 453.25 432.83 451.05 430.63C448.94 428.52 432.04 411.61 429.93 409.5C427.05 406.63 422.69 405.88 419.02 407.62C415.25 409.41 385.11 423.74 381.34 425.53C346.2 442.22 305.14 440.02 272.21 420.68C309.39 410.1 340.3 384.21 357.29 348.45C357.46 348.1 358.04 346.89 358.12 346.71ZM361.44 452.58C369.84 467.19 379.62 481.04 390.7 493.9C364.02 486.54 339.8 473.19 319.58 455.4C323.53 455.74 327.5 455.92 331.47 455.92C341.5 455.92 351.56 454.81 361.44 452.58ZM563.96 449.57C542.55 470.29 516.05 485.76 486.53 493.9C504.68 472.85 519.35 449.13 530.12 423.74C542.24 430.9 553.6 439.54 563.96 449.57ZM300.2 204.47C312.36 216.19 325.75 226.19 340.08 234.34C334.04 252.13 329.86 270.56 327.68 289.35C322.63 291.92 318.53 296.23 316.26 301.71C312.48 310.84 314.55 321.26 321.54 328.25C322.01 328.72 325.75 332.46 326.22 332.93C326.65 341.68 327.53 350.36 328.82 358.97C315.57 377.21 297.44 391.06 276.5 399.03C264.81 375.15 258.24 348.33 258.24 320C258.24 276.08 274.02 235.79 300.2 204.47Z" id="a1tFg7tV9"/><path d="M88.13 195.39C87.75 195.39 84.7 195.66 81.33 195.93C73.71 196.58 65.06 198.6 59.67 200.88C59.07 201.1 57 201.97 55.04 202.79C38.5 209.53 20.49 225.7 12.11 241.21C10.31 244.63 7.76 250.4 7.32 252.2C5.42 259.98 5.09 266.24 6.07 275.11C8.08 292.68 15.86 307.27 28.92 317.82C33.11 321.2 33.44 321.41 35.24 322.56C36.76 323.54 48.51 329.41 50.42 330.18C51.89 330.72 56.02 332.13 56.68 332.24C57.71 332.52 62.12 333.71 63.21 334.15C66.42 335.24 77.03 337.14 85.95 338.23C86.14 338.25 87.08 338.38 88.78 338.61L88.78 394.71C86.11 394.52 84.62 394.41 84.32 394.39C80.18 394.12 73.55 392.75 72.19 391.94C71.91 391.72 71.53 391.56 71.37 391.5C67.51 390.74 56.73 382.63 55.86 379.8C55.64 379.21 55.32 378.77 55.1 378.77C54.45 378.77 51.02 371.53 49.93 367.89C49.87 367.69 49.56 366.69 49 364.89L26.69 365.06L4.38 365.17C4.58 367.22 4.69 368.37 4.71 368.59C5.63 377.57 8.25 387.26 11.89 395.09C13.31 398.03 17.28 405.16 18.15 406.25C18.37 406.52 19.62 408.15 20.93 409.79C24.84 414.85 31.92 421.49 38.72 426.44C41.98 428.83 52 434.82 52.7 434.82C52.98 434.82 54.06 435.31 55.1 435.85C56.95 436.83 64.19 439.28 69.46 440.75C72.84 441.68 79.69 442.44 84.48 442.44C84.77 442.44 86.2 442.44 88.78 442.44L88.78 477.81L129.59 477.81L129.7 459.74L129.87 441.62C132.64 441.42 134.18 441.32 134.49 441.29C141.08 440.8 153.05 438.14 157.89 436.07C158.33 435.91 158.87 435.69 159.09 435.69C159.25 435.63 159.63 435.47 159.85 435.25C160.07 434.98 160.56 434.82 160.94 434.82C161.81 434.82 169.75 431.01 174.49 428.34C176.61 427.15 178.68 425.95 179.11 425.73C179.55 425.51 180.2 425.08 180.58 424.81C180.96 424.48 182.54 423.34 184.07 422.3C187.87 419.75 196.09 412.45 198.59 409.41C199.68 408.1 201.15 406.3 201.86 405.54C203.82 403.26 209.04 394.66 210.68 391.01C216.33 378.39 217.91 364.02 214.97 351.83C214.38 349.44 213.83 346.99 213.67 346.39C213.29 344.87 207.68 333.6 206.49 332.03C195.98 318.2 184.61 309.72 167.96 303.51C160.45 300.74 149.02 298.34 141.02 297.96C137.87 297.8 134 297.53 132.42 297.36C132.24 297.34 131.29 297.25 129.59 297.09L129.7 269.77L129.87 242.46C131.76 242.52 132.81 242.56 133.02 242.57C141.4 242.84 152.99 247.68 157.78 252.8C161.37 256.66 163.39 260.85 163.77 265.31C163.79 265.55 163.88 266.73 164.04 268.85L211 268.85C210.87 267.61 210.8 266.92 210.78 266.78C210.57 264.22 209.21 258.56 207.95 254.7C200.28 231.3 183.96 211.66 164.42 202.35C157.18 198.92 155.22 198.11 151.63 197.24C151.36 197.13 149.24 196.58 146.95 195.99C144.67 195.39 140.26 194.62 137.16 194.3C134.06 193.97 131.06 193.59 130.57 193.43C129.65 193.16 129.59 191.9 129.59 177.65C129.59 176.62 129.59 171.46 129.59 162.19L88.78 162.19L88.78 178.79C88.67 189.85 88.46 195.39 88.13 195.39ZM88.78 289.53C86.92 289.53 85.89 289.53 85.68 289.53C82.85 289.47 81.11 289.2 77.03 288.28C75.4 287.89 68.43 285.06 68.1 284.68C67.94 284.52 67.12 283.98 66.2 283.54C63.26 282.02 57.98 276.58 56.08 273.09C54.34 269.88 54.23 269.34 54.23 264.5C54.23 260.74 54.55 258.46 55.32 256.12C58.36 247.03 69.95 240.82 84.05 240.61C84.36 240.6 85.94 240.58 88.78 240.55L88.78 265.04L88.78 289.53ZM167.52 360.32C170.03 365.38 170.14 375.61 167.69 380.29C163.33 388.62 149.78 394.39 134.38 394.5C134.06 394.5 132.47 394.52 129.59 394.55C129.59 379.92 129.59 371.8 129.59 370.17C129.59 356.73 129.76 345.58 129.98 345.36C130.19 345.14 131.99 345.14 133.95 345.25C135.91 345.41 139.44 345.68 141.84 345.85C153.76 346.77 163.55 352.27 167.52 360.32Z" id="bppC7KU4Z"/></defs><g><g><g><use xlink:href="#a1tFg7tV9" opacity="1" fill="#ffffff" fill-opacity="1"/><g><use xlink:href="#a1tFg7tV9" opacity="1" fill-opacity="0" stroke="#000000" stroke-width="1" stroke-opacity="0"/></g></g><g><use xlink:href="#bppC7KU4Z" opacity="1" fill="#ffffff" fill-opacity="1"/><g><use xlink:href="#bppC7KU4Z" opacity="1" fill-opacity="0" stroke="#000000" stroke-width="1" stroke-opacity="0"/></g></g></g></g></svg>