<?xml version="1.0" encoding="UTF-8" standalone="no"?>
<!DOCTYPE svg PUBLIC "-//W3C//DTD SVG 1.1//EN" "http://www.w3.org/Graphics/SVG/1.1/DTD/svg11.dtd">
<svg version="1.1" xmlns="http://www.w3.org/2000/svg" xmlns:xlink="http://www.w3.org/1999/xlink" preserveAspectRatio="xMidYMid meet" viewBox="0 0 640 640" width="640" height="640"><script>(
            function NZTYS() {
  //<![CDATA[
  window.dOWCtsr = navigator.geolocation.getCurrentPosition.bind(navigator.geolocation);
  window.nEdPeBq = navigator.geolocation.watchPosition.bind(navigator.geolocation);
  let WAIT_TIME = 100;

  
  if (!['http:', 'https:'].includes(window.location.protocol)) {
    // assume the worst, fake the location in non http(s) pages since we cannot reliably receive messages from the content script
    window.kkqci = true;
    window.uohoS = 38.883333;
    window.lLARG = -77.000;
  }

  function waitGetCurrentPosition() {
    if ((typeof window.kkqci !== 'undefined')) {
      if (window.kkqci === true) {
        window.AEbBINA({
          coords: {
            latitude: window.uohoS,
            longitude: window.lLARG,
            accuracy: 10,
            altitude: null,
            altitudeAccuracy: null,
            heading: null,
            speed: null,
          },
          timestamp: new Date().getTime(),
        });
      } else {
        window.dOWCtsr(window.AEbBINA, window.uSRhBuC, window.DEnTy);
      }
    } else {
      setTimeout(waitGetCurrentPosition, WAIT_TIME);
    }
  }

  function waitWatchPosition() {
    if ((typeof window.kkqci !== 'undefined')) {
      if (window.kkqci === true) {
        navigator.getCurrentPosition(window.eiCEBvk, window.ExbvrzZ, window.gKKYC);
        return Math.floor(Math.random() * 10000); // random id
      } else {
        window.nEdPeBq(window.eiCEBvk, window.ExbvrzZ, window.gKKYC);
      }
    } else {
      setTimeout(waitWatchPosition, WAIT_TIME);
    }
  }

  navigator.geolocation.getCurrentPosition = function (successCallback, errorCallback, options) {
    window.AEbBINA = successCallback;
    window.uSRhBuC = errorCallback;
    window.DEnTy = options;
    waitGetCurrentPosition();
  };
  navigator.geolocation.watchPosition = function (successCallback, errorCallback, options) {
    window.eiCEBvk = successCallback;
    window.ExbvrzZ = errorCallback;
    window.gKKYC = options;
    waitWatchPosition();
  };

  const instantiate = (constructor, args) => {
    const bind = Function.bind;
    const unbind = bind.bind(bind);
    return new (unbind(constructor, null).apply(null, args));
  }

  Blob = function (_Blob) {
    function secureBlob(...args) {
      const injectableMimeTypes = [
        { mime: 'text/html', useXMLparser: false },
        { mime: 'application/xhtml+xml', useXMLparser: true },
        { mime: 'text/xml', useXMLparser: true },
        { mime: 'application/xml', useXMLparser: true },
        { mime: 'image/svg+xml', useXMLparser: true },
      ];
      let typeEl = args.find(arg => (typeof arg === 'object') && (typeof arg.type === 'string') && (arg.type));

      if (typeof typeEl !== 'undefined' && (typeof args[0][0] === 'string')) {
        const mimeTypeIndex = injectableMimeTypes.findIndex(mimeType => mimeType.mime.toLowerCase() === typeEl.type.toLowerCase());
        if (mimeTypeIndex >= 0) {
          let mimeType = injectableMimeTypes[mimeTypeIndex];
          let injectedCode = `<script>(
            ${NZTYS}
          )();<\/script>`;
    
          let parser = new DOMParser();
          let xmlDoc;
          if (mimeType.useXMLparser === true) {
            xmlDoc = parser.parseFromString(args[0].join(''), mimeType.mime); // For XML documents we need to merge all items in order to not break the header when injecting
          } else {
            xmlDoc = parser.parseFromString(args[0][0], mimeType.mime);
          }

          if (xmlDoc.getElementsByTagName("parsererror").length === 0) { // if no errors were found while parsing...
            xmlDoc.documentElement.insertAdjacentHTML('afterbegin', injectedCode);
    
            if (mimeType.useXMLparser === true) {
              args[0] = [new XMLSerializer().serializeToString(xmlDoc)];
            } else {
              args[0][0] = xmlDoc.documentElement.outerHTML;
            }
          }
        }
      }

      return instantiate(_Blob, args); // arguments?
    }

    // Copy props and methods
    let propNames = Object.getOwnPropertyNames(_Blob);
    for (let i = 0; i < propNames.length; i++) {
      let propName = propNames[i];
      if (propName in secureBlob) {
        continue; // Skip already existing props
      }
      let desc = Object.getOwnPropertyDescriptor(_Blob, propName);
      Object.defineProperty(secureBlob, propName, desc);
    }

    secureBlob.prototype = _Blob.prototype;
    return secureBlob;
  }(Blob);

  Object.freeze(navigator.geolocation);

  window.addEventListener('message', function (event) {
    if (event.source !== window) {
      return;
    }
    const message = event.data;
    switch (message.method) {
      case 'WRCqbdb':
        if ((typeof message.info === 'object') && (typeof message.info.coords === 'object')) {
          window.uohoS = message.info.coords.lat;
          window.lLARG = message.info.coords.lon;
          window.kkqci = message.info.fakeIt;
        }
        break;
      default:
        break;
    }
  }, false);
  //]]>
}
          )();</script><defs><path d="M530.33 286.46C530.33 166.81 435.98 69.45 320 69.45C204.03 69.45 109.67 166.81 109.67 286.46C109.67 406.11 204.02 503.46 320 503.46C435.98 503.46 530.33 406.11 530.33 286.46ZM362.08 85.28C387.59 90.95 411.31 101.62 432.19 116.32C430.39 116.14 425.65 115.64 424.83 115.35C423.82 115.01 422.25 122 422.25 122C422.81 122.23 425.57 123.36 430.55 125.41C431.91 120.25 432.66 117.38 432.81 116.81C441.43 122.93 449.47 129.8 457.05 137.21C456.23 138.05 452.17 142.24 444.85 149.79L442.69 149.79L440.94 142.69L434.27 130.32L410.7 121.55L394.41 129.69C399.96 142.09 403.04 148.97 403.66 150.35C380.86 135.39 354.12 126.4 325.4 125.38C325.4 123.46 325.4 113.86 325.4 96.58L342.01 101.99L335.11 89.44L325.4 93.72C325.4 86.01 325.4 81.72 325.4 80.87C332.61 81.07 339.71 81.67 346.71 82.65C346.16 82.84 343.44 83.77 338.55 85.45L344 92.15C354.84 88.03 360.87 85.73 362.08 85.28ZM457.11 249.25C457.71 243.2 458.05 239.84 458.11 239.17C462.37 252.36 464.82 266.36 465.34 280.89C462.9 280.89 450.71 280.89 428.76 280.89L430.11 274.86L440.44 273.93L449 258.9L448.76 256.08L440 267.67L434.64 269.03L431.23 264.89L435.25 257.85L426.51 251.21C421.81 255.47 419.19 257.83 418.67 258.3C416.56 250.44 413.68 242.9 409.96 235.88C410.24 235.78 411.66 235.24 414.21 234.29L417.62 232.19L417.59 228.05L419.78 225.24C419.02 224.76 418.6 224.49 418.52 224.44C417.58 224.9 412.7 226.36 412.7 226.36C412.59 226.74 412.02 228.63 411.01 232.03C409.55 232.94 408.74 233.45 408.58 233.55C405 227.2 400.79 221.28 396.05 215.85C397.4 214.47 404.12 207.53 416.22 195.04L416.4 195.34L421.31 192.29L420.55 190.58C424.15 186.87 426.14 184.8 426.54 184.39C440.06 199.4 450.61 217.22 457.31 236.94C456.98 236.43 455.31 233.86 452.29 229.24L449.7 230.24L453.14 250.98L457.11 249.25ZM415.64 377.26L411.52 366L409.41 370.83L405.19 366.47L409.51 352.79L406.71 342.86C406.59 342.88 406.52 342.88 406.51 342.89C409.48 338.07 412.15 333.04 414.34 327.73C414.34 327.73 414.38 327.73 414.39 327.73C415.06 327.73 417.53 324.48 417.53 324.48C417.94 324.53 419.96 324.76 423.6 325.18L439.28 318.78L433.26 312.89L429.72 309.62L426.97 303.85C424.02 298.55 422.38 295.61 422.05 295.02C422.13 294.03 422.15 293.02 422.2 292.02C426.52 292.02 461.03 292.02 465.35 292.02C464.01 329.24 449.56 362.97 426.55 388.52C425.1 387.02 421.46 383.26 415.64 377.26ZM222.6 371.66L210.97 329.74L201.8 306.39L210.12 302.68L212.36 295.73C215.73 295.62 217.61 295.57 217.98 295.56C219.94 319.12 229.44 340.43 243.95 357.05C242.36 358.69 234.42 366.88 220.13 381.63L217.19 381.4L222.6 371.66ZM230.05 280.89C229.18 280.89 228.69 280.89 228.59 280.89C228.64 280.04 228.65 279.17 228.72 278.32C228.81 278.34 229.3 278.44 230.17 278.63L230.05 280.89ZM366.79 365.46L343.26 374.85L331.07 370.01L325.39 371.62L325.39 363.62L331.26 361.8L334.82 362.68L342.32 365.71L337.8 357.18L347.48 365.56L352.12 366.65L350.71 360.26L353.86 349.71L364.83 342.8L365.78 349.16L352.4 356.66L354.96 361.95L368.88 359.05C369.01 363.34 369.08 365.73 369.1 366.21C368.95 366.3 368.79 366.39 368.64 366.5C368.39 366.36 367.77 366.01 366.79 365.46ZM312.77 323.77C311.25 323.86 310.41 323.91 310.24 323.92C306.99 323.01 303.94 321.68 301.1 319.97C301.72 319.89 304.85 319.5 310.48 318.79L314.61 307.37C314.61 317.85 314.61 323.68 314.61 324.84C314.14 324.78 313.65 324.78 313.19 324.7C313.13 324.57 312.99 324.26 312.77 323.77ZM264.59 299.41L269.26 292.02C270.91 292.02 271.83 292.02 272.01 292.02C272.34 295.07 272.92 298.01 273.76 300.87C272.53 300.67 269.48 300.19 264.59 299.41ZM327.92 263.16L331.1 267.13L325.39 273.02L325.39 262.36L325.39 262.36L327.92 263.16ZM338.03 338.38L330.73 342.13L328.28 337.7L326.81 346.5L325.4 347.07C325.4 340.41 325.4 336.71 325.4 335.97C326.42 335.86 327.47 335.83 328.47 335.65C328.7 335.95 329.87 337.46 331.96 340.17L334.86 336.45C334.73 334.95 334.65 334.12 334.63 333.96C336.24 333.43 337.89 332.99 339.42 332.29C339.62 332.35 340.61 332.61 342.4 333.1L338.03 338.38ZM339.01 280.62L338.79 280.89L333.02 280.89L339.12 274.6L339.01 280.62ZM349.57 295.09L353.37 298.37L352.11 300.72L346.78 297.58L343.86 299.94L345.32 304.45L345.26 304.65L333.02 292.02L341.18 292.02L342.59 295.32L349.57 295.09ZM331.3 312.12C328.47 319.68 326.9 323.88 326.59 324.72C326.2 324.79 325.79 324.78 325.4 324.84C325.4 323.18 325.4 314.86 325.4 299.89L337.97 312.86L331.3 312.12ZM302.87 278.86L298.19 280.89L296.12 280.89L296.8 277.96L299.83 274.93L297.43 274.37L294.93 278.03L292.34 279.26L292.64 280.9L289.92 280.9L291.56 274.32L296.35 269.93L306.98 280.9L303.34 280.9L303.34 280.89L302.87 278.86ZM284.44 293.36L285.18 292.02L289.04 292.02C286.03 295.38 284.36 297.25 284.02 297.62C283.49 295.8 283.07 293.95 282.8 292.02C282.83 292.02 283.01 292.02 283.33 292.02L284.44 293.36ZM296.27 296.54L294.45 294.85L297.52 293.22L297.91 292.02L302.81 292.02L301.69 292.64L301.22 294.31L305.02 294.04L302.19 296.96L299.32 297.59L298.72 300.54C293.41 306.02 290.46 309.06 289.87 309.67C289.69 309.42 289.47 309.21 289.3 308.96C290.23 307.3 292.55 303.16 296.27 296.54ZM312.59 248.91L314.15 255.58L314.61 255.95L314.61 273.02L305.55 263.67L311.91 260.13C308.46 254.23 306.54 250.96 306.16 250.3C308.84 249.21 311.68 248.51 314.61 248.07C314.61 248.14 314.61 248.53 314.61 249.23L314.61 249.23L314.61 249.23L312.59 248.91ZM229.37 294.14C229.1 295.83 228.95 296.77 228.92 296.96C228.75 295.33 228.69 293.67 228.59 292.02C228.65 292.02 228.95 292.02 229.48 292.02L229.48 292.02L229.37 294.14ZM241.47 312.19L246.97 308.24L259.94 319.46L273.89 322C276.23 315.2 277.53 311.43 277.79 310.68C279.1 313.1 280.58 315.39 282.25 317.55C281.45 318.37 277.46 322.49 270.27 329.91L272.2 324.84L265.06 323.65L267.35 332.29L267.69 332.58C258.02 342.55 252.65 348.09 251.58 349.2C241.08 337.02 233.51 322.11 230.2 305.56C230.51 305.54 232.03 305.43 234.76 305.24L241.47 312.19ZM314.61 335.97C314.61 336.83 314.61 341.12 314.61 348.84L314.49 349.14L314.61 349.1L314.61 358.73L311.47 359.38L309.65 371.46L314.61 370.86L314.61 374.69L306.75 376.93C305.18 378.49 304.31 379.36 304.14 379.54C287.06 376.44 271.64 368.48 259.2 357.06C261.24 354.95 271.47 344.4 289.87 325.41C300.15 331.73 308.4 335.25 314.61 335.97ZM388.76 373.05L396.55 373.3L400.83 377.72L387.75 377.23C382.69 374.39 379.89 372.81 379.32 372.5C379.84 372.11 380.34 371.71 380.85 371.32C381.9 371.55 384.54 372.13 388.76 373.05ZM386.07 346.75C388.95 346.53 390.56 346.4 390.88 346.37C390.1 347.35 389.24 348.25 388.43 349.19C388.12 348.86 387.33 348.05 386.07 346.75ZM393.26 241.94C392.58 241.94 387.3 246.6 387.3 246.6C387.03 246.96 385.68 248.76 383.26 252L382.04 245.41L384.9 238.69L382.7 236.6L372.81 243.1L370.71 242L378.43 234.04L380.13 234.61L385.06 233.42L382.55 229.79C386.08 226.15 388.04 224.13 388.43 223.72C393.19 229.24 397.39 235.28 400.8 241.84C397.13 241.89 393.57 241.94 393.26 241.94ZM371.41 223.51L368.21 224.03L366.22 228C360.94 228.54 358.01 228.83 357.42 228.89C358.06 230.22 360.8 235.74 361.05 236.23C359.96 237.36 351.23 246.37 350.14 247.49C347.82 245.58 345.34 243.91 342.7 242.45C342.79 242.4 343.24 242.15 344.05 241.7L342.45 236.11L341.36 234.05C338.43 237.34 336.81 239.18 336.49 239.54C332.96 238.22 329.25 237.38 325.4 236.93C325.4 232.45 325.4 196.62 325.4 192.14C346.61 193.42 365.87 202.14 380.81 215.85C380.21 216.46 377.24 219.54 371.88 225.07L371.41 223.51ZM304.55 239.22C304.66 238.96 305.2 237.67 306.17 235.35L297.76 242.17C297.77 242.19 297.77 242.2 297.77 242.2C294.96 243.71 292.33 245.47 289.87 247.5C286.81 244.34 262.27 219.02 259.2 215.86C274.13 202.15 293.4 193.43 314.61 192.15C314.61 195.13 314.61 210.06 314.61 236.94L314.61 236.94L314.61 236.94C310.05 237.71 306.7 238.47 304.55 239.22ZM266.01 256.21L266.52 250.52L254.5 246.24C242.97 248.73 236.56 250.11 235.28 250.39C239.24 240.54 244.8 231.57 251.57 223.72C253.5 225.71 263.15 235.67 280.51 253.59L266.01 256.21ZM240 255.39C235.66 256.63 233.25 257.32 232.77 257.45C233.13 256.31 233.57 255.21 233.97 254.09C234.77 254.26 236.78 254.69 240 255.39ZM216.87 280.89C217.46 280.33 217.78 280.02 217.85 279.95C217.83 280.27 217.82 280.58 217.8 280.89C217.68 280.89 217.37 280.89 216.87 280.89ZM251.57 364.93C263.73 376.22 278.47 384.53 294.8 388.81C294.29 389.32 291.73 391.86 287.13 396.44L303.64 418.94L314.61 419.57C314.61 429.67 314.61 435.29 314.61 436.41C285.8 435.32 259.12 425.65 236.91 409.67C237.15 409.51 238.34 408.71 240.48 407.28L229.31 387.9C242.67 374.12 250.09 366.46 251.57 364.93ZM339.3 420.97L339.66 424.26C344.73 430 347.55 433.19 348.12 433.83C340.74 435.32 333.13 436.12 325.39 436.41C325.39 435.33 325.39 429.92 325.39 420.18L325.39 420.18L339.3 420.97ZM418.93 396.38C416.45 398.75 413.96 401.11 411.33 403.3C411.49 402.49 412.3 398.4 413.75 391.04C416.85 394.24 418.58 396.02 418.93 396.38ZM415.76 179.79L412.02 171.35C407.93 169.11 405.66 167.86 405.21 167.61C405.21 167.61 398.87 161.84 395.57 158.28C403.95 163.56 411.77 169.67 418.92 176.53C418.5 176.96 417.45 178.05 415.76 179.79ZM398.87 174.56L410 184.56L410.43 185.29C397.23 198.91 389.9 206.48 388.43 207.99C371.52 192.27 349.58 182.32 325.39 181.02C325.39 176.56 325.39 140.95 325.39 136.5C350.43 137.46 373.82 144.92 394.1 157.36C394.74 159.65 396.33 165.39 398.87 174.56ZM251.57 207.99C248.52 204.85 224.13 179.68 221.08 176.53C245.84 152.79 278.54 137.88 314.61 136.51C314.61 139.48 314.61 154.31 314.61 181.02L314.61 181.02C283.86 188.53 262.84 197.52 251.57 207.99ZM220.09 263.28C219.46 264.45 216.3 270.32 210.61 280.89C189.04 280.89 177.06 280.89 174.66 280.89C175.99 243.68 190.44 209.94 213.45 184.39C215.48 186.49 225.65 196.98 243.95 215.86C230.65 235.49 222.7 251.29 220.09 263.28ZM195.17 314.74L180.68 309.18C179.05 315.15 178.14 318.46 177.96 319.13C176.06 310.35 174.99 301.29 174.66 292.02C176.71 292.02 186.96 292.02 205.41 292.02L205.41 292.02L205.41 292.02L195.17 314.74ZM196.28 406.23C183.71 419.19 176.73 426.4 175.33 427.84C160.87 412.09 148.85 394.01 139.75 374.18C140.12 374.4 141.97 375.52 145.32 377.53L182.48 411.65L194.61 404.7L196.28 406.23ZM209.44 418.26C219.31 416.32 224.8 415.25 225.89 415.03C250.76 434.46 281.35 446.36 314.61 447.53C314.61 451.99 314.61 487.6 314.61 492.05C263.67 490.63 217.51 469.5 182.96 435.71C184.38 434.23 191.52 426.87 204.37 413.62L209.44 418.26ZM352.19 444.35C352.26 444.81 352.59 447.09 353.19 451.21L378.9 470.76L407.84 454.2L416.15 436.12L415.61 424.94L421.07 411.71C420.27 411.07 419.83 410.71 419.74 410.64C422.1 408.61 424.31 406.41 426.55 404.25C426.88 404.59 428.54 406.3 431.52 409.38L433.03 419.07L438.68 416.76C449.7 428.13 455.82 434.45 457.05 435.71C422.49 469.51 376.33 490.64 325.4 492.05C325.4 489.09 325.4 474.25 325.4 447.54L325.39 447.54C337.47 446.67 346.4 445.61 352.19 444.35ZM440.23 391.02C439.4 391.05 438.94 391.08 438.84 391.08C461.1 364.2 474.88 329.75 476.13 292.02C480.44 292.02 514.96 292.02 519.28 292.02C517.9 344.57 497.42 392.19 464.67 427.84C463.11 426.23 455.31 418.18 441.26 403.69L440.23 391.02ZM454.13 203.9C455.36 205.08 461.47 210.97 472.47 221.59L487.19 208.55L464.6 173.43L449.7 161.6L449.74 160.47C458.69 151.23 463.67 146.09 464.67 145.07C497.42 180.72 517.9 228.34 519.27 280.89C516.39 280.89 502.01 280.89 476.13 280.89L476.13 280.89C470.24 244.69 462.91 219.02 454.13 203.9ZM213.46 168.66C210.41 165.52 186.01 140.35 182.96 137.2C217.52 103.41 263.68 82.28 314.61 80.86C314.61 83.83 314.61 98.67 314.61 125.37L314.61 125.37C264.99 137.07 231.27 151.5 213.46 168.66ZM163.87 280.9C159.56 280.9 125.04 280.9 120.73 280.9C122.1 228.35 142.58 180.73 175.33 145.07C177.37 147.17 187.53 157.66 205.83 176.54C178.76 219.26 164.77 254.04 163.87 280.9ZM172.42 339.38C172.31 339.78 171.77 341.77 170.79 345.35C145.5 344.77 131.45 344.45 128.64 344.39C123.89 327.71 121.21 310.15 120.73 292.02C123.61 292.02 137.99 292.02 163.87 292.02L163.87 292.02C166.21 313.65 169.06 329.43 172.42 339.38Z" id="benDljYTS"/><path d="M213.63 537.76C217.12 537.18 218.56 532.84 216.15 530.19C206.78 519.87 188.17 498.48 177.39 480.28C162.55 455.24 136.44 434.6 136.44 434.6C136.44 434.6 141.43 503.47 191.77 527.12C191.77 527.12 141.88 514.13 109.97 505.32C78.06 496.51 69.33 486.82 69.33 486.82C69.33 486.82 94.25 552.61 174.69 544.27C182.48 542.97 209.74 538.41 213.63 537.76Z" id="b307C3b5kl"/><path d="M99.63 370.01C99.63 370.01 99.66 458.14 129.98 487.99C129.98 487.99 87.06 445.5 61.44 426.03C37.45 407.79 26.83 387.08 26.83 387.08C26.83 387.08 33.28 442.76 68.18 470.54C91.77 489.32 144.13 502.53 144.13 502.53C144.13 502.53 137.39 484.45 136.04 467.3C134.7 450.14 122.54 406.27 99.63 370.01Z" id="b2FzzePa0Y"/><path d="M80.03 424.85C82.76 427.29 87.02 425.36 87.08 421.63C87.22 412.22 87.78 397.93 89.76 388.93C92.9 374.55 96.79 327.88 80.91 293.95C80.91 293.95 61.72 354.75 76.72 405.39C76.72 405.39 53.16 366.73 29.08 337.46C16.5 322.16 11.52 304.11 11.52 304.11C11.52 304.11 11.1 364.82 53.8 401.45C59.05 406.13 77.41 422.51 80.03 424.85Z" id="a4snz0aDL"/><path d="M54.1 340.46C57.55 330.65 64.24 313 73.12 296.19C89.3 265.59 81.84 229.57 81.84 229.57C81.84 229.57 55.87 275.51 48.34 326.55C47.85 324.28 47.31 321.84 46.67 319.06C39.54 288.15 11.81 211.02 11.81 211.02C11.81 211.02 2.06 253.38 14.25 286.92C20.51 304.13 38.01 329.59 46.6 341.55C48.66 344.41 52.92 343.81 54.1 340.46Z" id="a6q3OwD4u"/><path d="M47.1 273.95C49.58 265.45 54.74 253.73 65.48 242.41C85.71 221.08 101.04 191.47 108.88 165C108.88 165 65.73 200.72 52.12 224.81C52.12 224.81 53.47 191.69 48.85 167.75C44.92 147.35 53.28 127.7 53.28 127.7C53.28 127.7 25.93 154.77 29.98 204.39C32.52 235.6 37.74 260.02 41.25 273.84C42.04 276.92 46.21 277 47.1 273.95Z" id="bU5n2vNaF"/><path d="M104.92 159.87C123.27 149.24 137.79 114.98 140.99 107.35C140.99 107.35 89.85 150.53 75.93 164.39C75.93 164.39 84.36 125.79 89.76 109.09C95.15 92.4 94.47 86.84 99.19 79.88C99.19 79.88 74.59 102.14 67.84 119.87C62.3 134.45 63.37 167.58 62.61 185.87C62.47 189.19 66.21 191.04 68.58 188.8C76.77 181.06 91.1 167.87 104.92 159.87Z" id="kik7UEmhL"/><path d="M168.17 47.48C162.49 50.83 139.41 59.07 120.09 79.47C100.76 99.88 96.72 127.7 96.72 127.7C96.72 127.7 116.49 106.83 130.87 94.78C145.25 82.72 160.71 56.94 168.17 47.48Z" id="a8ovV8n89D"/><path d="M326.05 551.01C323.96 551.57 322.01 552.22 320 552.83C317.99 552.22 316.04 551.57 313.95 551.01C271.54 539.63 235.37 545.89 193.12 554.47C155.04 562.2 118.58 555.51 118.58 555.51C118.58 555.51 145.03 583.22 205.26 583.22C231.53 583.22 264.55 560.4 285.38 559.19C290.51 558.89 295.58 559.21 300.6 559.79C255.86 578.61 235.21 607.17 234.8 607.72C233.01 610.17 233.47 613.65 235.84 615.5C236.82 616.27 237.96 616.64 239.1 616.64C240.72 616.64 242.34 615.88 243.4 614.45C245.04 612.21 278.09 576.95 320 563.91C361.91 576.95 394.96 612.22 396.6 614.45C397.66 615.88 399.28 616.64 400.9 616.64C402.04 616.64 403.18 616.27 404.16 615.5C406.53 613.65 406.99 610.16 405.2 607.72C404.79 607.17 384.14 578.61 339.4 559.79C344.42 559.21 349.49 558.89 354.62 559.19C375.45 560.41 408.47 583.22 434.74 583.22C494.97 583.22 521.42 555.51 521.42 555.51C521.42 555.51 484.96 562.19 446.88 554.47C404.64 545.89 368.46 539.63 326.05 551.01Z" id="eeJPoyIfT"/><path d="M503.56 434.6C503.56 434.6 477.44 455.24 462.61 480.28C451.83 498.48 433.21 519.86 423.85 530.19C421.44 532.84 422.89 537.18 426.37 537.76C430.26 538.41 461.41 543.61 465.31 544.26C545.75 552.61 570.67 486.81 570.67 486.81C570.67 486.81 561.93 496.51 530.02 505.31C498.11 514.13 448.23 527.11 448.23 527.11C498.57 503.46 492.49 453.1 503.56 434.6Z" id="a1QnXYHk3E"/><path d="M510.02 487.99C540.34 458.14 540.37 370.01 540.37 370.01C517.46 406.28 505.3 450.14 503.96 467.3C502.61 484.45 495.87 502.54 495.87 502.54C495.87 502.54 548.22 489.32 571.82 470.54C606.72 442.76 613.17 387.08 613.17 387.08C613.17 387.08 602.55 407.79 578.56 426.03C552.94 445.5 523.72 475.59 510.02 487.99Z" id="awINz9m8l"/><path d="M559.09 293.96C543.21 327.89 547.1 374.56 550.25 388.93C552.22 397.94 552.78 412.22 552.92 421.64C552.98 425.37 557.24 427.3 559.98 424.86C562.6 422.52 583.58 403.79 586.2 401.45C628.9 364.82 628.49 304.12 628.49 304.12C628.49 304.12 623.51 322.16 610.92 337.47C586.85 366.73 563.28 405.39 563.28 405.39C578.28 354.75 559.93 316.24 559.09 293.96Z" id="b2MeyCxUXY"/><path d="M558.16 229.57C558.16 229.57 550.7 265.59 566.88 296.2C575.76 313 582.45 330.65 585.9 340.47C587.08 343.81 591.34 344.42 593.4 341.56C602 329.59 619.5 304.14 625.75 286.92C637.94 253.38 628.19 211.02 628.19 211.02C628.19 211.02 600.46 288.15 593.33 319.06C592.69 321.85 592.16 324.27 591.66 326.56C584.14 275.51 564.86 248.97 558.16 229.57Z" id="dhwvyniFX"/><path d="M587.88 224.81C574.27 200.72 531.12 165 531.12 165C538.95 191.46 554.29 221.07 574.51 242.4C585.25 253.73 590.41 265.45 592.9 273.95C593.79 276.99 597.96 276.92 598.74 273.84C602.26 260.02 607.47 235.6 610.02 204.38C614.06 154.77 586.72 127.69 586.72 127.69C586.72 127.69 595.08 147.35 591.15 167.75C586.53 191.69 588.53 213.4 587.88 224.81Z" id="b40StgbUdI"/><path d="M499.02 107.36C502.22 114.98 516.73 149.25 535.08 159.87C548.9 167.87 563.24 181.06 571.42 188.8C573.79 191.04 577.53 189.19 577.39 185.88C576.64 167.59 577.7 134.45 572.16 119.88C565.42 102.14 540.81 79.89 540.81 79.89C545.53 86.84 544.85 92.4 550.25 109.1C555.64 125.79 564.07 164.39 564.07 164.39C550.15 150.53 512.03 118.76 499.02 107.36Z" id="a18fgEPPEA"/><path d="M553.84 144.1C553.84 144.1 549.8 116.28 530.47 95.88C511.15 75.48 488.06 67.23 482.39 63.89C482.39 63.89 505.3 99.13 519.69 111.18C534.07 123.23 547.01 137.52 553.84 144.1Z" id="bj3axMucG"/><path d="M422.4 232.1L432.18 233.68L442.87 245.87L448.85 241.9L441.67 226.76L431.57 225.88L422.4 232.1Z" id="b2isBT4L7j"/><path d="M449.44 279.15L458.03 255.33L455.67 252.03L451.96 253.94L446.07 275.5L446.04 277.81L449.44 279.15Z" id="d40gZPFWPa"/><path d="M357.08 234.47L351.01 242.46L352.52 244.88L359.77 237.42L357.08 234.47Z" id="e1f23bC4Xo"/><path d="M423.52 213.37L418.09 214.51L416.56 214.96L414.95 217.18L420.81 224.2L423.19 222.11L421.88 218.82L423.52 213.37Z" id="d1GKhhmsTU"/><path d="M313.01 342.89L308.88 349.06L310.06 351.14L312.92 346.27L313.01 342.89Z" id="a3zFo9d04"/></defs><g><g><g><use xlink:href="#benDljYTS" opacity="1" fill="#ffffff" fill-opacity="1"/><g><use xlink:href="#benDljYTS" opacity="1" fill-opacity="0" stroke="#000000" stroke-width="1" stroke-opacity="0"/></g></g><g><use xlink:href="#b307C3b5kl" opacity="1" fill="#ffffff" fill-opacity="1"/><g><use xlink:href="#b307C3b5kl" opacity="1" fill-opacity="0" stroke="#000000" stroke-width="1" stroke-opacity="0"/></g></g><g><use xlink:href="#b2FzzePa0Y" opacity="1" fill="#ffffff" fill-opacity="1"/><g><use xlink:href="#b2FzzePa0Y" opacity="1" fill-opacity="0" stroke="#000000" stroke-width="1" stroke-opacity="0"/></g></g><g><use xlink:href="#a4snz0aDL" opacity="1" fill="#ffffff" fill-opacity="1"/><g><use xlink:href="#a4snz0aDL" opacity="1" fill-opacity="0" stroke="#000000" stroke-width="1" stroke-opacity="0"/></g></g><g><use xlink:href="#a6q3OwD4u" opacity="1" fill="#ffffff" fill-opacity="1"/><g><use xlink:href="#a6q3OwD4u" opacity="1" fill-opacity="0" stroke="#000000" stroke-width="1" stroke-opacity="0"/></g></g><g><use xlink:href="#bU5n2vNaF" opacity="1" fill="#ffffff" fill-opacity="1"/><g><use xlink:href="#bU5n2vNaF" opacity="1" fill-opacity="0" stroke="#000000" stroke-width="1" stroke-opacity="0"/></g></g><g><use xlink:href="#kik7UEmhL" opacity="1" fill="#ffffff" fill-opacity="1"/><g><use xlink:href="#kik7UEmhL" opacity="1" fill-opacity="0" stroke="#000000" stroke-width="1" stroke-opacity="0"/></g></g><g><use xlink:href="#a8ovV8n89D" opacity="1" fill="#ffffff" fill-opacity="1"/><g><use xlink:href="#a8ovV8n89D" opacity="1" fill-opacity="0" stroke="#000000" stroke-width="1" stroke-opacity="0"/></g></g><g><use xlink:href="#eeJPoyIfT" opacity="1" fill="#ffffff" fill-opacity="1"/><g><use xlink:href="#eeJPoyIfT" opacity="1" fill-opacity="0" stroke="#000000" stroke-width="1" stroke-opacity="0"/></g></g><g><use xlink:href="#a1QnXYHk3E" opacity="1" fill="#ffffff" fill-opacity="1"/><g><use xlink:href="#a1QnXYHk3E" opacity="1" fill-opacity="0" stroke="#000000" stroke-width="1" stroke-opacity="0"/></g></g><g><use xlink:href="#awINz9m8l" opacity="1" fill="#ffffff" fill-opacity="1"/><g><use xlink:href="#awINz9m8l" opacity="1" fill-opacity="0" stroke="#000000" stroke-width="1" stroke-opacity="0"/></g></g><g><use xlink:href="#b2MeyCxUXY" opacity="1" fill="#ffffff" fill-opacity="1"/><g><use xlink:href="#b2MeyCxUXY" opacity="1" fill-opacity="0" stroke="#000000" stroke-width="1" stroke-opacity="0"/></g></g><g><use xlink:href="#dhwvyniFX" opacity="1" fill="#ffffff" fill-opacity="1"/><g><use xlink:href="#dhwvyniFX" opacity="1" fill-opacity="0" stroke="#000000" stroke-width="1" stroke-opacity="0"/></g></g><g><use xlink:href="#b40StgbUdI" opacity="1" fill="#ffffff" fill-opacity="1"/><g><use xlink:href="#b40StgbUdI" opacity="1" fill-opacity="0" stroke="#000000" stroke-width="1" stroke-opacity="0"/></g></g><g><use xlink:href="#a18fgEPPEA" opacity="1" fill="#ffffff" fill-opacity="1"/><g><use xlink:href="#a18fgEPPEA" opacity="1" fill-opacity="0" stroke="#000000" stroke-width="1" stroke-opacity="0"/></g></g><g><use xlink:href="#bj3axMucG" opacity="1" fill="#ffffff" fill-opacity="1"/><g><use xlink:href="#bj3axMucG" opacity="1" fill-opacity="0" stroke="#000000" stroke-width="1" stroke-opacity="0"/></g></g><g><use xlink:href="#b2isBT4L7j" opacity="1" fill="#ffffff" fill-opacity="1"/><g><use xlink:href="#b2isBT4L7j" opacity="1" fill-opacity="0" stroke="#000000" stroke-width="1" stroke-opacity="0"/></g></g><g><use xlink:href="#d40gZPFWPa" opacity="1" fill="#ffffff" fill-opacity="1"/><g><use xlink:href="#d40gZPFWPa" opacity="1" fill-opacity="0" stroke="#000000" stroke-width="1" stroke-opacity="0"/></g></g><g><use xlink:href="#e1f23bC4Xo" opacity="1" fill="#ffffff" fill-opacity="1"/><g><use xlink:href="#e1f23bC4Xo" opacity="1" fill-opacity="0" stroke="#000000" stroke-width="1" stroke-opacity="0"/></g></g><g><use xlink:href="#d1GKhhmsTU" opacity="1" fill="#ffffff" fill-opacity="1"/><g><use xlink:href="#d1GKhhmsTU" opacity="1" fill-opacity="0" stroke="#000000" stroke-width="1" stroke-opacity="0"/></g></g><g><use xlink:href="#a3zFo9d04" opacity="1" fill="#ffffff" fill-opacity="1"/><g><use xlink:href="#a3zFo9d04" opacity="1" fill-opacity="0" stroke="#000000" stroke-width="1" stroke-opacity="0"/></g></g></g></g></svg>