<svg xmlns="http://www.w3.org/2000/svg" width="173" height="178"><path d="M162 178V66.989L86.936 13 11 66.989V178H0V62L87 0l86 62v116zM28.1 77.347a16.7 16.7 0 1 1 16.693 16.347A16.523 16.523 0 0 1 28.1 77.347zm-1.1 18.8h36a7 7 0 0 1 7 7v27.289a7 7 0 0 1-7 7h-1.526v24.908a7.818 7.818 0 0 1-15.632 0v-24.91H43v24.908a7.818 7.818 0 0 1-15.632 0v-24.908H27a7 7 0 0 1-7-7v-27.289a7 7 0 0 1 7-7zm70.1-18.8a16.7 16.7 0 1 1 16.694 16.347A16.523 16.523 0 0 1 97.1 77.347zM85.3 79.24l16.905 16.905h21.769l17.192-17.193a7.818 7.818 0 0 1 11.054 11.054L139 103.229v27.2a7 7 0 0 1-7 7h-1.526v24.908a7.818 7.818 0 0 1-15.632 0v-24.903H112v24.908a7.818 7.818 0 0 1-15.632 0v-24.908H96a7 7 0 0 1-7-7V105.1L74.22 90.32A7.839 7.839 0 0 1 85.3 79.24z" style="fill:#fff;fill-rule:evenodd"/></svg>