<?xml version="1.0" encoding="utf-8"?>
<!-- Generator: Adobe Illustrator 27.3.1, SVG Export Plug-In . SVG Version: 6.00 Build 0)  -->
<svg version="1.1"
	 id="svg7" xmlns:sodipodi="http://sodipodi.sourceforge.net/DTD/sodipodi-0.dtd" xmlns:svg="http://www.w3.org/2000/svg" xmlns:inkscape="http://www.inkscape.org/namespaces/inkscape" xmlns:rdf="http://www.w3.org/1999/02/22-rdf-syntax-ns#" xmlns:dc="http://purl.org/dc/elements/1.1/" xmlns:cc="http://creativecommons.org/ns#" sodipodi:docname="icons_salestax.svg"
	 xmlns="http://www.w3.org/2000/svg" xmlns:xlink="http://www.w3.org/1999/xlink" x="0px" y="0px" viewBox="0 0 134 197"
	 style="enable-background:new 0 0 134 197;" xml:space="preserve">
<style type="text/css">
	.st0{fill:#FFFFFF;}
</style>
<sodipodi:namedview  bordercolor="#666666" borderopacity="1" gridtolerance="10" guidetolerance="10" id="namedview9" inkscape:current-layer="svg7" inkscape:cx="42.504253" inkscape:cy="98" inkscape:pageopacity="0" inkscape:pageshadow="2" inkscape:window-height="480" inkscape:window-width="640" inkscape:zoom="6.4296875" objecttolerance="10" pagecolor="#ffffff" showgrid="false">
	</sodipodi:namedview>
<g>
	<path class="st0" d="M20.1,127.5l-18.9-58h8.1l9,28.6c2.5,7.8,4.6,14.9,6.2,21.7h0.2c1.6-6.7,4-14,6.6-21.6l9.8-28.6h8l-20.7,58
		H20.1z"/>
	<path class="st0" d="M59.9,109.2l-6,18.2h-7.7l19.7-58h9l19.8,58h-8l-6.2-18.2H59.9z M78.9,103.4l-5.7-16.7
		c-1.3-3.8-2.1-7.2-3-10.6H70c-0.9,3.4-1.8,7-2.9,10.5l-5.7,16.8H78.9z"/>
	<path class="st0" d="M107.5,75.9H89.9v-6.4h42.9v6.4h-17.7v51.6h-7.6V75.9z"/>
</g>
</svg>
