<?xml version="1.0" encoding="utf-8"?>
<!-- Generator: Adobe Illustrator 28.2.0, SVG Export Plug-In . SVG Version: 6.00 Build 0)  -->
<svg version="1.1" id="Layer_1" xmlns="http://www.w3.org/2000/svg" xmlns:xlink="http://www.w3.org/1999/xlink" x="0px" y="0px"
	 viewBox="0 0 512 512" style="enable-background:new 0 0 512 512;" xml:space="preserve">
<style type="text/css">
	.st0{fill:#FFFFFF;}
</style>
<path class="st0" d="M269.51,0l-0.7,55.82h-1.54v44.88h-6.31v54.41h-6.45v95.64h-7.29v84.42h-6.73v74.05h-5.89
	c0,0,1.12,79.38,0,79.38s-16.55,0-16.55,0v3.93h-46c0,0-0.28,19.07,0,19.35c0.28,0.28,167.73,0,167.73,0v-14.58h-14.58v-8.98h-18.23
	v-59.74h-7.01v-68.16h-4.77V278.8h-7.57l0.28-92.28h-6.73v-43.47h-3.65v-32.82h-2.8l0.53-54.41h-1.24l-1-55.82H269.51z"/>
</svg>
