<svg xmlns="http://www.w3.org/2000/svg" width="400" height="400"><g fill-rule="evenodd"><path d="M196.739 69.009c-.066.107-.292.149-.503.094-.21-.055-.411-.015-.446.09-.035.105-.368.212-.739.238-.371.027-.675.129-.676.227 0 .098-.135.127-.299.063-.165-.063-.329-.042-.365.047-.071.174-2.669 1.53-2.669 1.392 0-.11-1.207.929-2.949 2.538-.775.716-1.343 1.305-1.262 1.309.082.004-.073.191-.344.417-.27.225-.411.412-.312.416.098.004.009.136-.199.293-.208.158-.367.366-.354.463.041.284-.886 2.154-1.068 2.154-.091 0-.112.141-.046.313.066.171.019.312-.104.312s-.17.141-.104.313c.066.171.032.312-.076.312-.107 0-.194.164-.193.365.004.96-.087 1.525-.233 1.436-.088-.055-.124.277-.08.738.044.46-.041 1.061-.188 1.336-.217.407-.217.593 0 1 .147.275.232.876.188 1.336-.044.461-.008.793.08.738.144-.089.192.167.247 1.332.01.201.097.423.194.494.097.071.191.375.208.677.018.301.087.548.155.548.225 0 .614 1.069.473 1.298-.08.128-.043.165.086.085.216-.133.598.614.5.976-.025.095.05.113.167.04.195-.121.307.16.233.585-.016.095.057.119.162.054.206-.128.543.472.459.816-.027.115.005.153.072.086.145-.144 2.72 2.343 2.661 2.57-.022.086.03.135.116.109.278-.085 1.934 1.013 1.772 1.176-.087.086-.062.125.055.087.281-.092 1.975.675 1.975.893 0 .094.152.112.337.041.298-.114.325.061.232 1.517-.057.905-.169 3.191-.247 5.08-.078 1.889-.206 3.483-.284 3.542-.078.059-.148.811-.156 1.67-.007.859-.068 2.594-.135 3.854-.066 1.261-.13 2.93-.142 3.71-.012.781-.097 1.372-.19 1.315-.093-.058-.13.629-.083 1.525.049.943-.001 1.682-.12 1.756-.12.074-.16.694-.096 1.488.096 1.201.069 1.346-.233 1.23-.2-.077-.341-.027-.341.121 0 .17-.303.227-.937.177-.516-.041-.938.008-.938.11 0 .102-.375.135-.833.074-.482-.065-.834-.026-.834.092 0 .113-.257.184-.573.159-.315-.025-.738.025-.94.112a1.416 1.416 0 0 1-.782.049c-.255-.067-.362-.025-.28.109.087.139-.099.182-.52.121-.36-.053-.655-.008-.655.1 0 .108-.234.152-.52.097-.287-.055-.521-.008-.521.104 0 .112-.235.159-.521.104-.287-.054-.521-.035-.521.044 0 .208-3.14.856-3.392.7-.118-.073-.154-.035-.081.083.145.235-1.031.548-1.34.357-.103-.064-.187-.006-.187.127 0 .134-.141.189-.312.123-.172-.066-.313-.018-.313.107 0 .124-.188.177-.417.117-.263-.069-.366-.027-.28.112.088.142-.024.18-.312.104-.247-.064-.449-.022-.449.094 0 .116-.141.157-.313.091-.172-.066-.312-.041-.312.055 0 .162-1.716.75-2.188.75a.465.465 0 0 0-.331.167c-.068.091-.325.181-.573.2-.247.019-.45.118-.45.22 0 .103-.141.133-.312.067-.172-.066-.313-.037-.313.065 0 .177-1.329.729-1.771.736a.458.458 0 0 0-.312.135c-.216.273-2.972 1.421-3.149 1.312-.102-.063-.185-.026-.185.081 0 .208-1.247.796-1.51.712-.086-.027-.156.05-.156.171 0 .122-.094.163-.209.092-.114-.071-.208-.024-.208.104s-.094.175-.208.105c-.115-.071-.209-.024-.209.104s-.084.181-.186.117c-.103-.063-.244.035-.314.218-.076.196-.261.282-.45.21-.177-.068-.271-.042-.209.058.113.182-1.1.789-1.393.696-.086-.027-.156.042-.156.154 0 .111-.281.348-.625.526-.344.178-.625.274-.625.214 0-.061-.191.081-.424.314-.234.234-.515.369-.625.3-.111-.068-.201-.035-.201.073 0 .241-1.035.939-1.391.939-.141 0-.209.078-.15.174.1.162-.215.261-.61.193-.094-.017-.112.066-.04.184.121.195-.159.306-.585.233-.094-.017-.124.046-.067.139.128.206-1.759 1.432-2.053 1.334-.114-.038-.138 0-.053.086.183.183-1.309 1.256-1.613 1.16-.115-.036-.139.004-.054.09.085.085-.035.288-.268.451-.421.295-2.281-.975-2.126-1.452.028-.089-.02-.138-.109-.109-.265.086-1.295-.817-1.134-.996.082-.09.04-.102-.093-.026-.139.079-.575-.241-1.019-.748-.427-.488-.65-.699-.495-.47.173.257.004.177-.44-.207-1.115-.964-1.166-1.015-.825-.832.185.1.242.091.139-.021-.096-.104-.238-.19-.317-.19-.079 0-.47-.267-.868-.594-.399-.327-.584-.523-.412-.435.184.093.241.081.139-.031-.096-.104-.239-.19-.318-.19-.079 0-.469-.267-.868-.594-.398-.327-.592-.523-.432-.436.201.107.243.077.136-.097-.087-.14-.207-.205-.269-.144-.158.159-1.201-.698-1.201-.987 0-.133-.126-.242-.28-.242-.154 0-.516-.281-.804-.625-.288-.344-.448-.484-.356-.312.093.172-.164.031-.571-.313-.406-.344-.692-.71-.634-.813.058-.104.006-.127-.116-.052-.122.076-.478-.168-.792-.541-.313-.372-.627-.677-.696-.677-.069 0-.1-.077-.069-.172.032-.094-.031-.117-.139-.05-.108.067-.448-.184-.756-.557-.307-.374-.495-.539-.418-.367.077.172-.258-.109-.743-.625-.486-.516-.806-.797-.712-.625.144.262-.321-.096-1.455-1.123-.127-.114-.087-.122.104-.02.185.1.241.091.139-.022-.096-.104-.239-.189-.318-.189-.257 0-1.269-.878-1.168-1.014.053-.073.034-.085-.043-.027-.2.15-.902-.533-.902-.879 0-.161.07-.249.156-.196.086.053.171-.149.189-.45.018-.3.13-.579.249-.618.119-.04.164-.207.101-.371-.063-.165-.034-.3.064-.3.098-.001.206-.49.24-1.088.034-.597.128-1.136.209-1.197.212-.16.18-3.757-.034-3.756-.099 0-.138-.281-.088-.625.051-.344.003-.625-.105-.625s-.147-.187-.087-.417c.06-.229.039-.416-.045-.416-.205 0-.653-1.479-.515-1.701.059-.096.019-.174-.088-.174-.18 0-.733-1.088-.684-1.346.012-.062-.17-.304-.403-.537-.233-.233-.359-.538-.279-.677.08-.139.071-.186-.02-.104-.161.146-1.49-1.481-1.416-1.734.048-.166-1.103-1.267-1.331-1.272-.335-.009-.901-.514-.747-.668.085-.086.061-.125-.054-.087-.274.09-1.77-.843-1.77-1.105 0-.112-.094-.145-.209-.074-.114.07-.208.023-.208-.105s-.086-.179-.192-.114c-.105.065-.328-.019-.496-.186-.167-.168-.362-.247-.433-.176-.071.071-.129.014-.129-.126 0-.141-.08-.206-.178-.146-.211.131-1.489-.322-1.489-.528 0-.079-.202-.09-.449-.026-.275.072-.399.036-.319-.093.08-.129-.068-.173-.384-.113-.291.056-.514.001-.514-.128 0-.124-.141-.172-.313-.106-.172.066-.476.055-.677-.025-.302-.121-2.186-.127-5.729-.021-.315.01-.573.099-.573.198s-.183.133-.407.074c-.223-.058-.434-.041-.468.038-.079.183-3.337 1.38-3.568 1.311-.094-.028-.121.029-.061.128.115.184-1.299.981-1.605.905-.095-.023-.119.044-.054.149.12.193-.459.543-.78.472-.094-.021-.14.034-.101.123.098.224-2.294 2.521-2.467 2.368-.076-.068-.078-.016-.002.116.075.131-.135.53-.467.885-.332.356-.571.646-.531.646.092 0-1.403 3.191-1.561 3.334-.064.057-.142.432-.175.833-.032.401-.14.757-.238.791-.099.034-.132.244-.074.466.058.222.037.569-.046.771-.191.461-.185 3.158.008 3.652.079.202.096.549.038.771-.058.222-.016.434.093.47.108.036.216.415.238.842.022.427.102.777.176.778.173.001.628 1.286.5 1.413-.052.053.042.233.21.4.167.168.242.405.166.528-.079.128-.041.164.087.085.212-.131.517.422.409.743-.027.081.096.268.274.416.509.425 1.968 2.319 1.968 2.556.001.118.1.214.221.214.343 0 1.545 1.082 1.383 1.244-.08.08-.051.114.063.077.268-.088 1.771.839 1.771 1.092 0 .105.07.169.156.141.25-.079 1.511.5 1.511.694 0 .097.128.127.285.067.157-.061.416.02.575.179.159.159.406.251.548.203.142-.047.259-.008.259.088.001.095.351.191.778.214.427.022.807.134.846.249.038.114.203.156.368.093.164-.063.463-.052.664.026.413.159 4.782.193 5.26.041.952-.304 2.339-.549 2.511-.443.108.067.197.013.197-.121s.145-.187.324-.119c.177.068.272.042.21-.058-.062-.1.067-.229.286-.286.442-.116 1.589.912 1.319 1.182-.088.087-.019.128.153.09.172-.039.289.047.26.191-.028.143.023.237.113.208.207-.065 2.78 2.663 2.642 2.801-.055.055.111.28.369.499l.47.398-.406-.521c-.223-.286.34.27 1.25 1.236.911.967 1.656 1.857 1.656 1.979 0 .123.094.225.209.228.245.006 2.955 2.807 2.715 2.807-.089 0-.048.138.091.306.14.168.321.285.403.26.196-.059 2.54 2.47 2.409 2.6-.055.055.111.28.37.498.466.396.468.395.157-.024-.172-.233.297.231 1.042 1.03.745.8 1.328 1.536 1.297 1.636-.032.101.026.132.129.068.178-.11 2.324 2.188 2.324 2.488 0 .282-1.213 1.523-1.352 1.383-.078-.077-.111-.047-.073.068.1.308-.563 1.168-.763.988-.094-.085-.108-.046-.031.088.077.135-.197.601-.613 1.042-.414.439-.737.798-.718.798.019 0-.028.164-.104.364-.077.199-.226.31-.331.244-.106-.065-.166-.038-.135.059.095.295-1.584 2.747-1.792 2.618-.107-.066-.141-.034-.075.072.16.259-.778 1.788-.975 1.591-.086-.086-.137-.062-.114.052.097.48-.021.746-.268.604-.143-.082-.194-.076-.112.014.181.202-.393 1.361-.674 1.361a.202.202 0 0 1-.203-.201c0-.111-.141-.148-.313-.082-.172.066-.312.026-.312-.088 0-.114-.118-.203-.261-.198-.713.027-1.003-.073-.865-.296.086-.14.057-.185-.068-.107-.277.171-1.515-.253-1.515-.519 0-.11-.086-.146-.192-.081-.177.109-1.23-.253-1.474-.507a.51.51 0 0 0-.313-.111c-.456-.007-2.396-.772-2.396-.945 0-.102-.14-.131-.312-.065s-.313.019-.313-.104-.128-.175-.285-.115c-.157.061-.427-.032-.601-.205-.173-.173-.357-.271-.409-.219-.141.14-1.413-.336-1.413-.529 0-.091-.117-.152-.26-.137-.442.047-2.448-.72-2.448-.936 0-.113-.083-.153-.185-.09-.252.156-1.482-.291-1.482-.539 0-.11-.083-.149-.184-.086-.232.143-1.483-.281-1.483-.504 0-.09-.117-.16-.26-.155-.669.025-1.003-.073-.887-.262.073-.118-.011-.153-.196-.081-.178.068-.323.023-.323-.101 0-.123-.129-.174-.286-.114-.157.06-.416-.02-.575-.18-.159-.159-.405-.25-.547-.202-.143.047-.259-.013-.259-.133 0-.121-.137-.167-.304-.103-.391.15-.597-.637-.497-1.895.041-.518.002-.966-.087-.996-.09-.03-.184-.35-.21-.712-.026-.361-.086-.619-.134-.572-.104.103-.897-1.581-.911-1.935-.005-.138-.078-.209-.162-.158-.162.101-.495-.519-.431-.804.021-.095-.035-.139-.123-.098-.22.1-1.701-1.455-1.54-1.616.071-.071.034-.104-.08-.075-.371.096-1.345-.489-1.21-.726.072-.127.062-.168-.023-.093-.084.076-.665-.088-1.289-.364-.625-.276-1.274-.502-1.442-.502-.169 0-.307-.078-.307-.173 0-.094-.295-.129-.655-.076-.36.053-.603.013-.54-.088.062-.101-.619-.184-1.513-.184-.895 0-1.576.083-1.513.184.062.101-.181.141-.541.088-.36-.053-.655-.008-.655.099 0 .107-.134.143-.299.079-.164-.063-.328-.029-.364.076-.036.105-.3.217-.587.249-.286.032-.568.121-.627.198-.058.076-.245.17-.416.208a1.11 1.11 0 0 0-.518.318c-.115.137-.35.277-.522.312-.172.035-.436.229-.587.432-.151.202-.377.305-.501.228-.125-.077-.181-.055-.125.049.056.103-.228.516-.632.917s-.655.598-.558.437c.12-.2.099-.245-.068-.142-.134.083-.197.226-.14.319.057.092-.106.393-.362.669-.255.276-.489.592-.519.703-.189.7-.309.931-.48.931-.107 0-.177.07-.156.156.08.317-.289 1.926-.422 1.844-.075-.047-.137.834-.137 1.958 0 1.149.081 1.993.186 1.928.103-.063.139.134.081.437-.058.304-.017.552.091.552s.159.115.112.256a.543.543 0 0 0 .094.469c.42.499 1.577 2.604 1.356 2.468-.133-.083.224.316.794.886.569.57 1.082 1.043 1.14 1.05.382.049.811.363.712.523-.065.105-.041.167.053.137.304-.097 1.525.503 1.409.691-.062.1.033.126.211.058s.323-.031.323.083.117.201.26.192c.47-.028 2.032.321 2.032.453 0 .072.844.13 1.875.13 1.031 0 1.875-.081 1.875-.181 0-.099.231-.136.513-.082.283.054.541.021.573-.074.033-.094.294-.198.58-.23.287-.032.568-.116.625-.186.247-.304 1.838-.987 1.987-.853.09.081.096.03.014-.113-.137-.238.109-.359.567-.28.094.017.115-.061.046-.173-.069-.112.061-.303.289-.425.475-.254 5.301 1.989 5.073 2.358-.068.109-.022.136.103.059.306-.189 1.728.507 1.568.767-.07.114-.042.153.063.089.265-.164 1.54.399 1.54.68 0 .127.087.178.192.113.105-.066.328.018.496.186.167.167.362.246.433.175.071-.071.129-.004.129.149s.059.219.13.148c.177-.177 7.995 3.774 7.995 4.04 0 .117.094.154.209.083.114-.071.208-.024.208.104s.094.175.208.104c.115-.071.209-.024.209.104s.093.175.208.105c.115-.071.208-.024.208.104s.094.175.209.104c.114-.071.208-.03.208.092 0 .121.07.202.156.179.397-.105 1.008.291 1.037.671.018.231-.055.367-.162.302-.106-.066-.137.026-.069.203.068.178.023.324-.1.324s-.17.14-.104.312c.066.172.019.313-.104.313s-.175.128-.115.285c.061.157-.02.416-.179.575-.159.159-.251.406-.203.548.047.142-.021.258-.152.258s-.187.083-.124.185c.115.186-.263 1.499-.488 1.69-.067.058-.132.222-.143.365l-.052.689c-.02.267-.122.373-.272.281-.143-.089-.184-.058-.101.077.145.234-.284 2.129-.483 2.131-.062 0-.131.343-.152.761-.022.418-.116.816-.209.885-.093.068-.17.264-.172.436-.009.701-.357 2.5-.485 2.502-.075.001-.161.493-.19 1.094-.03.6-.128 1.117-.218 1.147-.091.031-.127.382-.08.781.046.4-.006.726-.118.726-.111 0-.157.233-.103.518.054.284.028.683-.059.885a2.788 2.788 0 0 0-.18.785c-.02.389-.168.417-2.262.417-1.232 0-2.239.074-2.239.164 0 .158-.891.195-5.553.234-1.164.01-2.065.1-2.003.2.062.101-.834.143-2.014.096-1.17-.047-1.956-.016-1.747.069.359.146-2.05.244-5.975.242-.974 0-1.818.07-1.876.156-.566.841-5.031.078-4.693-.802.058-.152.014-.22-.1-.15-.113.07-.206.05-.206-.046 0-.095-.322-.663-.717-1.262-.394-.599-.668-1.089-.609-1.089.06 0-.178-.241-.528-.535-.35-.295-.615-.646-.589-.782.026-.135-.062-.225-.196-.199-.134.026-.524-.272-.866-.662-.342-.39-.66-.671-.706-.625-.045.046-.385-.192-.754-.53-.369-.337-.72-.606-.779-.597-.302.042-1.318-.519-1.221-.675.061-.1-.049-.12-.246-.045-.261.101-.311.064-.186-.138.104-.17.089-.226-.04-.147-.243.15-1.521-.288-1.521-.521 0-.086-.141-.102-.312-.036-.172.066-.313.032-.313-.075s-.164-.195-.365-.194c-1.03.005-1.522-.093-1.407-.278.07-.114.005-.161-.144-.105-.149.055-1.256.024-2.459-.069-1.203-.094-2.238-.096-2.3-.006-.061.09-.647.19-1.3.223-.654.032-1.189.14-1.19.239-.001.099-.189.132-.418.072-.229-.06-.417-.014-.417.102 0 .116-.135.159-.299.096-.165-.063-.329-.05-.365.03-.093.207-3.781 2.014-3.987 1.955-.094-.028-.127.023-.073.111.054.089-.142.342-.436.562-.324.243-.466.284-.362.104.209-.359.238-.389-1.199 1.196-.64.705-1.226 1.221-1.301 1.145-.076-.075-.108-.043-.072.072.093.297-.976 1.798-1.154 1.619-.082-.082-.081.028.002.244.106.277.077.347-.099.239-.137-.085-.224-.077-.194.017.079.249-.483 1.526-.671 1.526-.088 0-.156.118-.151.261.025.653-.071 1.004-.245.897-.103-.064-.139.071-.079.3.06.23.027.417-.072.418-.099 0-.208.395-.241.878s-.127.928-.208.989c-.193.145-.193 4.453 0 4.598.081.061.175.506.208.989s.142.878.241.878c.099.001.132.188.072.418-.06.229-.024.364.079.3.174-.107.27.244.245.897-.005.143.063.261.151.261.188 0 .75 1.277.671 1.526-.03.094.057.102.194.017.176-.108.205-.038.099.239-.083.216-.084.326-.002.244.178-.179 1.247 1.322 1.154 1.62-.036.114-.004.146.072.071.075-.076.661.44 1.301 1.145 1.437 1.585 1.408 1.555 1.199 1.196-.104-.18.038-.139.362.104.294.22.49.473.436.562-.054.088-.021.139.073.111.206-.059 3.894 1.748 3.987 1.955.036.08.2.093.365.03.164-.063.299-.02.299.096s.187.162.417.102c.229-.06.417-.027.418.072.001.099.536.207 1.19.239.653.033 1.239.133 1.3.223.062.09 1.097.088 2.3-.006 1.203-.093 2.31-.124 2.459-.069.149.056.214.009.144-.105-.115-.185.377-.283 1.407-.278.201.001.365-.087.365-.194 0-.107.141-.141.313-.075.171.066.312.05.312-.036 0-.233 1.278-.671 1.521-.521.129.079.144.023.04-.147-.125-.202-.075-.239.186-.138.197.075.307.055.246-.045-.097-.156.919-.717 1.221-.675.059.009.41-.26.779-.597.369-.338.709-.576.754-.53.046.046.364-.235.706-.625.342-.39.732-.688.866-.662.134.026.222-.064.196-.199-.026-.136.239-.487.589-.782.35-.294.588-.535.528-.535-.059 0 .215-.49.609-1.089.395-.599.717-1.167.717-1.262 0-.096.093-.116.206-.046.114.07.158.002.1-.15-.338-.88 4.127-1.643 4.693-.802.058.086.902.156 1.876.156 3.925-.002 6.334.096 5.975.242-.209.085.577.116 1.747.069 1.18-.047 2.076-.005 2.014.096-.062.1.839.19 2.003.2 4.662.039 5.553.076 5.553.234 0 .09 1.007.165 2.239.165 2.094 0 2.242.027 2.262.416.013.229.093.582.18.785.087.202.113.601.059.885-.054.285-.008.518.103.518.112 0 .164.328.117.729-.046.401.001.729.105.729.105 0 .149.281.099.625-.051.344-.003.625.105.625s.151.234.097.521c-.055.286-.008.521.103.521.112 0 .163.276.113.614-.049.337-.005.561.099.497.103-.064.166.105.139.376-.027.27.026.666.118.879.091.213.175.649.187.969.011.32.091.539.177.486.137-.084.241.566.212 1.335-.005.143.085.26.2.26s.161.188.101.417c-.06.229-.036.417.054.417.204 0 .645 1.683.502 1.914-.057.093.005.169.139.169s.189.141.123.313c-.066.171-.019.312.104.312s.17.141.104.313c-.066.171-.019.312.104.312.124 0 .171.141.105.313-.066.171-.039.312.061.312.234 0 .67 1.24.52 1.482-.063.102-.005.185.129.185s.187.145.119.323c-.071.185-.036.269.082.196.188-.116.286.218.262.887-.006.143.058.26.142.26.228 0 .658 1.045.521 1.266-.065.106-.037.193.063.193.244 0 .921 1.439.782 1.663-.06.097-.026.208.075.246.273.104 1.487 2.603 1.337 2.753-.071.071-.026.129.1.129.231 0 .588.79.501 1.11-.025.094.039.119.143.054.188-.116.799 1.089.704 1.388-.027.086.035.157.138.157.224 0 1.121 1.45 1.127 1.823.003.143.072.26.155.26.204 0 .892 1.072.892 1.391 0 .141.078.209.173.15.162-.1.262.215.194.61-.017.094.066.112.183.04.195-.121.307.159.233.585-.016.094.066.112.184.04.195-.121.307.159.233.585-.017.094.056.118.162.053.205-.127.542.472.459.817-.028.114.015.143.094.064.197-.197 1.965 2.172 1.817 2.434-.065.116-.042.14.052.055.2-.18.863.68.763.988-.038.115-.005.145.073.068.139-.14 1.352 1.101 1.352 1.383 0 .342-2.159 2.591-2.371 2.47-.128-.073-.165-.058-.082.034.152.169-2.066 2.712-2.365 2.712-.089 0-.278.117-.422.261-.143.143-.184.26-.092.26.093 0-.374.586-1.037 1.302-.663.716-1.278 1.302-1.366 1.302-.089 0-.278.117-.421.261-.143.143-.18.26-.082.26.25 0-2.444 2.801-2.699 2.807-.115.003-.209.105-.209.228 0 .122-.745 1.012-1.656 1.979-.91.966-1.473 1.522-1.25 1.236l.406-.521-.47.398c-.258.219-.424.444-.369.499.145.145-2.44 2.865-2.657 2.796-.099-.032-.131.024-.07.122.237.383-1.455 1.76-1.771 1.443-.161-.16-.408-.253-.55-.205-.142.047-.259-.021-.259-.152s-.089-.183-.197-.116c-.172.106-1.559-.139-2.511-.443-.478-.152-4.847-.118-5.26.041-.201.078-.5.089-.664.026-.165-.063-.33-.021-.368.093-.039.115-.419.227-.846.249-.427.023-.777.119-.778.214 0 .096-.117.135-.259.088-.142-.048-.389.044-.548.203-.159.159-.418.24-.575.179-.157-.06-.285-.013-.285.105s-.094.156-.209.085c-.114-.071-.208-.036-.208.078 0 .207-.801.562-1.094.484-.086-.022-.156.045-.156.15 0 .253-1.503 1.18-1.771 1.092-.114-.037-.143-.003-.063.077.163.164-1.077 1.273-1.333 1.192-.092-.029-.143.019-.114.106.048.147-1.147 1.707-1.979 2.583-.201.211-.351.407-.334.436.122.209-.315.967-.495.856-.128-.079-.166-.043-.087.085.076.123.001.36-.166.528-.168.167-.262.347-.21.4.128.127-.327 1.412-.5 1.413-.074.001-.154.351-.176.778-.022.427-.13.806-.238.842-.109.036-.151.248-.093.47.058.222.041.569-.038.771-.193.494-.199 3.191-.008 3.652.083.202.104.549.046.771-.058.222-.025.432.074.466.098.034.206.39.238.791.033.401.111.776.175.833.158.143 1.653 3.334 1.561 3.334-.04 0 .199.29.531.646.332.355.542.754.467.885-.076.132-.074.184.002.116.173-.153 2.565 2.144 2.467 2.368-.039.089.007.144.101.123.321-.071.9.279.78.472-.065.105-.041.172.054.149.306-.076 1.72.721 1.605.905-.06.099-.033.156.061.128.231-.069 3.489 1.128 3.568 1.311.034.079.245.096.468.038.224-.059.407-.025.407.074s.258.188.573.198c3.543.106 5.427.1 5.729-.021.201-.08.505-.091.677-.025.172.066.313.018.313-.106 0-.129.223-.184.514-.128.316.06.464.016.384-.113-.08-.129.044-.165.319-.093.247.064.449.053.449-.026 0-.206 1.278-.659 1.489-.528.098.06.178-.005.178-.146 0-.14.058-.197.129-.126.071.071.266-.008.433-.176.168-.167.391-.251.496-.186.106.065.192.014.192-.114s.094-.175.208-.104c.115.07.209.037.209-.075 0-.262 1.496-1.195 1.771-1.105.114.038.138-.001.053-.087-.154-.153.664-.851.907-.773.147.047 1.297-1.116 1.208-1.222-.133-.161 1.226-1.817 1.379-1.679.091.082.1.035.02-.104s.046-.444.279-.677c.233-.233.415-.475.403-.537-.049-.258.504-1.346.684-1.346.107 0 .147-.078.088-.174-.138-.222.31-1.701.515-1.701.084 0 .105-.187.045-.416-.06-.229-.021-.417.087-.417s.156-.281.105-.625c-.05-.344-.011-.625.088-.625.214.001.246-3.596.034-3.756-.081-.061-.175-.6-.209-1.197-.034-.598-.142-1.087-.24-1.088-.098 0-.127-.135-.064-.3.063-.164.018-.331-.101-.371-.119-.039-.231-.318-.249-.618-.018-.301-.103-.503-.189-.45-.086.053-.156-.035-.156-.196 0-.346.702-1.029.902-.879.077.058.096.046.043-.027-.101-.136.911-1.014 1.168-1.014.079 0 .222-.085.318-.189.102-.113.046-.122-.139-.022-.191.102-.231.094-.104-.02 1.134-1.027 1.599-1.385 1.455-1.123-.094.172.226-.109.712-.625.485-.516.814-.797.729-.625-.085.172.248-.109.738-.625.491-.516.775-.75.631-.521-.143.229.089.018.515-.47.427-.487.877-.824.999-.749.122.076.175.053.117-.051-.058-.103.228-.469.634-.813.407-.344.664-.485.571-.313-.092.172.068.032.356-.312s.65-.625.804-.625c.154 0 .28-.109.28-.242 0-.251 1.061-1.177 1.225-1.07.052.034.173-.024.268-.128.103-.112.046-.124-.139-.031-.172.088.014-.108.412-.435.399-.327.789-.594.868-.594.079 0 .222-.086.318-.19.102-.112.045-.124-.139-.031-.172.088.013-.108.412-.435.398-.327.789-.594.868-.594.079 0 .221-.086.317-.19.103-.112.046-.121-.139-.021-.341.183-.29.132.825-.832.444-.384.613-.464.44-.207-.155.229.068.018.495-.47.444-.507.88-.827 1.019-.748.133.076.175.064.093-.026-.161-.179.869-1.082 1.134-.996.089.029.137-.02.109-.109-.155-.477 1.705-1.747 2.126-1.452.233.163.353.366.268.451-.085.086-.061.126.054.09.304-.096 1.796.977 1.613 1.16-.085.086-.061.124.053.086.294-.098 2.181 1.128 2.053 1.334-.057.093-.027.156.067.139.426-.073.706.038.585.233-.072.118-.054.201.04.184.395-.068.71.031.61.193-.059.096.009.174.15.174.356 0 1.391.698 1.391.939 0 .108.09.141.201.073.11-.069.391.066.625.3.233.233.424.375.424.314 0-.06.281.036.625.214s.625.43.625.561c0 .131.058.179.13.108.177-.178 1.745.64 1.745.91 0 .119.094.159.208.088.115-.071.209-.024.209.104s.086.18.191.115c.106-.066.329.018.496.186.168.167.363.246.434.175.071-.071.129-.019.129.114 0 .134.07.221.156.194.263-.084 1.51.504 1.51.712 0 .107.083.144.185.081.177-.109 2.933 1.039 3.149 1.312a.458.458 0 0 0 .312.135c.442.007 1.771.559 1.771.736 0 .102.141.131.313.065.171-.066.312-.036.312.067 0 .102.203.201.45.22.248.019.505.109.573.2a.465.465 0 0 0 .331.167c.472 0 2.188.588 2.188.75 0 .096.14.121.312.055s.313-.025.313.091c0 .116.202.158.449.094.247-.065.397-.033.333.071s.166.2.51.212c.345.013.687.107.761.209.074.102.298.193.499.202 1.053.05 1.215.1 1.074.328-.086.138-.058.184.065.108.252-.156 3.392.492 3.392.7 0 .079.234.098.521.044.286-.055.521-.008.521.104 0 .112.234.159.521.104.286-.055.52-.011.52.097s.295.153.655.1c.421-.061.607-.018.52.121-.082.134.025.176.28.109.228-.06.58-.037.782.049.202.087.625.137.94.112.316-.025.573.046.573.159 0 .118.352.157.834.092.458-.061.833-.028.833.074s.422.151.938.11c.634-.05.937.007.937.177 0 .148.141.198.341.121.302-.116.329.029.233 1.23-.064.794-.024 1.414.096 1.488.119.074.169.813.12 1.756-.047.896-.01 1.583.083 1.525.093-.057.178.534.19 1.315.012.78.076 2.449.142 3.71.067 1.26.128 2.995.135 3.854.008.859.078 1.611.156 1.67.078.059.206 1.653.284 3.542.078 1.889.19 4.175.247 5.08.093 1.456.066 1.631-.232 1.517-.185-.071-.337-.053-.337.041 0 .218-1.694.985-1.975.893-.117-.038-.142.001-.055.087.162.163-1.494 1.261-1.772 1.176-.086-.026-.138.023-.116.109.059.227-2.516 2.714-2.661 2.57-.067-.067-.099-.029-.072.086.084.344-.253.944-.459.816-.105-.065-.178-.041-.162.054.074.425-.038.706-.233.585-.117-.073-.192-.055-.167.04.098.362-.284 1.109-.5.976-.129-.08-.166-.043-.086.085.141.229-.248 1.298-.473 1.298-.068 0-.137.247-.155.548-.017.302-.111.606-.208.677-.097.071-.184.293-.194.494-.055 1.165-.103 1.421-.247 1.332-.088-.055-.124.277-.08.738.044.46-.041 1.061-.188 1.336-.217.407-.217.593 0 1 .147.275.232.876.188 1.336-.044.461-.008.793.08.738.146-.089.237.476.233 1.436-.001.201.086.365.193.365.108 0 .142.141.076.313-.066.171-.019.312.104.312s.17.141.104.313c-.066.171-.045.312.046.312.165 0 1.075 1.788 1.114 2.188.011.114.17.322.353.462.183.139.252.256.154.26-.099.004.042.191.312.416.271.226.426.413.344.417-.081.004.487.593 1.262 1.309 1.603 1.481 3.053 2.741 3.053 2.654 0-.032.212.009.472.091.264.084.41.249.332.375-.08.129-.043.166.087.086.249-.154 1.713.472 1.713.732 0 .09.141.11.313.044.171-.066.312-.04.312.058.001.098.305.2.676.227.371.026.705.138.742.248.037.111.197.151.356.09a.714.714 0 0 1 .557.055c.147.091.584.138.971.104.387-.033.655.018.595.114-.059.096.719.174 1.728.174s1.787-.078 1.728-.174c-.06-.096.207-.153.592-.127.386.025.86-.022 1.055-.105.195-.083.445-.096.556-.028.11.068.232.028.271-.09.04-.118.376-.235.747-.261.371-.027.675-.129.676-.227 0-.098.141-.124.313-.058.171.066.312.046.312-.044 0-.26 1.464-.886 1.713-.732.13.08.167.043.087-.086-.107-.173.626-.61.847-.504.065.031 1.419-1.146 3.01-2.616.775-.716 1.343-1.305 1.262-1.309-.082-.004.073-.191.344-.417.27-.225.411-.412.312-.416-.098-.004-.009-.136.199-.293.208-.158.367-.366.354-.463-.041-.284.886-2.154 1.068-2.154.091 0 .112-.141.046-.312-.066-.172-.019-.313.104-.313s.17-.141.104-.312c-.066-.172-.032-.313.076-.313.107 0 .194-.164.193-.365-.004-.96.087-1.525.233-1.436.088.055.124-.277.08-.738-.044-.46.041-1.061.188-1.336.217-.407.217-.593 0-1-.147-.275-.232-.876-.188-1.336.044-.461.008-.793-.08-.738-.144.089-.192-.167-.247-1.332-.01-.201-.097-.423-.194-.494-.097-.071-.191-.375-.208-.677-.018-.301-.087-.548-.155-.548-.225 0-.614-1.069-.473-1.298.08-.128.043-.165-.086-.085-.216.133-.598-.614-.5-.976.025-.095-.05-.113-.167-.04-.195.121-.307-.16-.233-.585.016-.095-.057-.119-.162-.054-.206.128-.543-.472-.459-.816.027-.115-.005-.153-.072-.086-.145.144-2.72-2.343-2.661-2.57.022-.086-.03-.135-.116-.109-.278.085-1.934-1.013-1.772-1.176.087-.086.062-.125-.055-.087-.281.092-1.975-.675-1.975-.893 0-.094-.152-.112-.337-.041-.298.114-.325-.061-.232-1.517.057-.905.169-3.191.247-5.08.078-1.889.206-3.483.284-3.542.078-.059.148-.811.156-1.67.007-.859.068-2.594.135-3.854.066-1.261.13-2.93.142-3.71.012-.781.097-1.372.19-1.315.093.058.13-.629.083-1.525-.049-.943.001-1.682.12-1.756.12-.074.16-.694.096-1.488-.096-1.201-.069-1.346.233-1.23.2.077.341.027.341-.121 0-.17.303-.227.938-.177.515.041.937-.008.937-.11 0-.102.375-.135.833-.074.482.065.834.026.834-.092 0-.113.257-.184.573-.159.315.025.738-.025.94-.112.202-.086.554-.109.782-.049.255.067.362.025.28-.109-.087-.139.099-.182.52-.121.36.053.655.008.655-.1 0-.108.234-.152.521-.097.286.055.52.008.52-.104 0-.112.235-.159.521-.104.287.054.521.035.521-.044 0-.208 3.14-.856 3.392-.7.123.076.151.03.065-.108-.141-.228.021-.278 1.074-.328.201-.009.425-.1.499-.202.074-.102.416-.196.761-.209.344-.012.574-.108.51-.212-.064-.104.086-.136.333-.071.247.064.449.022.449-.094 0-.116.141-.157.313-.091.172.066.312.041.312-.055 0-.162 1.716-.75 2.188-.75a.465.465 0 0 0 .331-.167c.068-.091.325-.181.573-.2.247-.019.45-.118.45-.22 0-.103.141-.133.313-.067.171.066.312.037.312-.065 0-.177 1.329-.729 1.771-.736a.458.458 0 0 0 .312-.135c.216-.273 2.972-1.421 3.149-1.312.102.063.185.026.185-.081 0-.208 1.247-.796 1.51-.712.086.027.156-.06.156-.194 0-.133.058-.185.129-.114.071.071.266-.008.434-.175.167-.168.39-.252.496-.186.105.065.191.013.191-.115s.094-.175.209-.104c.114.071.208.031.208-.088 0-.27 1.568-1.088 1.745-.91.072.071.13.023.13-.108s.281-.383.625-.561c.344-.178.625-.274.625-.214 0 .061.191-.081.424-.314.234-.234.515-.369.625-.3.111.068.201.035.201-.073 0-.241 1.035-.939 1.391-.939.141 0 .209-.078.15-.174-.1-.162.215-.261.61-.193.094.017.112-.066.04-.184-.121-.195.159-.306.585-.233.094.017.124-.046.067-.139-.128-.206 1.759-1.432 2.053-1.334.114.038.138 0 .053-.086-.183-.183 1.309-1.256 1.614-1.16.114.036.138-.004.053-.09-.085-.085.035-.288.268-.451.421-.295 2.281.975 2.126 1.452-.028.089.02.138.109.109.265-.086 1.295.817 1.134.996-.082.09-.04.102.093.026.139-.079.575.241 1.019.748.427.488.65.699.495.47-.173-.257-.004-.177.44.207 1.115.964 1.166 1.015.825.832-.185-.1-.242-.091-.139.021.096.104.236.191.313.193.333.007 1.464 1.02 1.348 1.208-.07.114-.043.156.06.092.104-.063.517.169.918.516.401.348.597.558.437.468-.202-.113-.244-.085-.136.09.087.14.207.205.269.144.158-.159 1.201.698 1.201.987 0 .133.126.242.28.242.154 0 .516.281.804.625.288.344.448.484.356.312-.093-.172.164-.031.571.313.406.344.692.71.634.813-.058.104-.005.127.117.051.122-.075.572.262.999.749.426.488.646.699.486.47-.159-.229.094-.088.563.313.468.401.805.814.749.917-.057.104-.002.126.121.05s.524.215.892.645c.367.431.594.643.505.471-.136-.262.321.089 1.465 1.123.126.114.086.122-.105.02-.185-.1-.241-.091-.139.022.096.104.239.189.318.189.257 0 1.269.878 1.168 1.014-.053.073-.034.085.043.027.2-.15.902.533.902.879 0 .161-.07.249-.156.196-.086-.053-.171.149-.189.45-.018.3-.13.579-.249.618-.119.04-.164.207-.101.371.063.165.02.299-.097.299-.116 0-.162.188-.102.417.06.229.013.417-.104.417-.117 0-.164.186-.105.413.06.228.044.579-.035.781-.213.549-.245 4.014-.036 4.014.099 0 .138.281.088.625-.051.344-.003.625.105.625s.147.188.087.417c-.06.229-.039.416.045.416.205 0 .653 1.479.515 1.701-.059.096-.002.174.126.174s.175.094.104.209c-.071.114-.036.208.078.208.173 0 .569.827.473.99-.017.028.161.243.394.476.233.233.359.538.279.677-.08.139-.071.186.02.104.153-.138 1.512 1.518 1.379 1.679-.089.106 1.061 1.269 1.208 1.222.243-.078 1.061.62.907.773-.085.086-.061.125.054.087.274-.09 1.77.843 1.77 1.105 0 .112.094.145.209.075.114-.071.208-.024.208.104s.086.179.192.114c.105-.065.328.019.496.186.167.168.362.247.433.176.071-.071.129-.014.129.126 0 .141.08.206.178.146.211-.131 1.489.322 1.489.528 0 .079.202.09.449.026.275-.072.399-.036.319.093-.08.129.068.173.384.113.291-.056.514-.001.514.128 0 .124.141.172.313.106.172-.066.476-.055.677.025.302.121 2.186.127 5.729.021.315-.01.573-.099.573-.198s.183-.133.407-.074c.223.058.434.041.468-.038.079-.183 3.337-1.38 3.568-1.311.094.028.121-.029.061-.128-.115-.184 1.299-.981 1.605-.905.095.023.119-.044.054-.149-.12-.193.459-.543.78-.472.094.021.14-.034.101-.123-.095-.217 2.293-2.525 2.45-2.368.068.068.095.03.059-.085-.106-.339.712-1.551.954-1.413.122.069.16.056.084-.028-.122-.137 1.186-3.189 1.481-3.455.064-.057.142-.432.175-.833.032-.401.14-.757.238-.791.099-.034.132-.244.074-.466a1.427 1.427 0 0 1 .046-.771c.191-.461.185-3.158-.008-3.652a1.467 1.467 0 0 1-.038-.771c.058-.222.016-.434-.093-.47-.108-.036-.216-.415-.238-.842-.022-.427-.102-.777-.176-.778-.173-.001-.628-1.286-.5-1.413.052-.053-.042-.233-.21-.4-.167-.168-.242-.405-.166-.528.079-.128.041-.164-.087-.085-.195.121-.44-.27-.468-.746-.005-.083-.285-.452-.622-.821-.337-.37-.578-.706-.536-.748.042-.042-.56-.675-1.338-1.405-.778-.731-1.354-1.389-1.28-1.463.074-.074.04-.104-.074-.067-.268.088-1.771-.839-1.771-1.092 0-.105-.07-.172-.156-.15-.293.078-1.094-.277-1.094-.484 0-.114-.094-.149-.208-.078-.115.071-.209.033-.209-.085 0-.118-.128-.165-.285-.105-.157.061-.416-.02-.575-.179-.159-.159-.406-.251-.548-.203-.142.047-.259.008-.259-.088-.001-.095-.351-.191-.778-.214-.427-.022-.807-.134-.846-.249-.038-.114-.203-.156-.368-.093-.164.063-.463.052-.664-.026-.413-.159-4.782-.193-5.26-.041-.952.304-2.339.549-2.511.443-.108-.067-.197-.015-.197.116s-.117.199-.259.152c-.142-.048-.389.044-.548.203-.318.318-1.593-.642-1.358-1.022.062-.1-.012-.156-.164-.124-.151.031-.252-.06-.223-.204.028-.143-.023-.237-.113-.208-.207.065-2.78-2.663-2.642-2.801.055-.055-.111-.28-.369-.499l-.47-.398.406.521c.223.286-.34-.27-1.25-1.236-.911-.967-1.656-1.857-1.656-1.979 0-.123-.094-.225-.208-.228-.256-.006-2.95-2.807-2.7-2.807.098 0 .061-.117-.082-.26-.143-.144-.332-.261-.421-.261-.088 0-.703-.586-1.366-1.302-.663-.716-1.13-1.302-1.037-1.302.092 0 .051-.117-.092-.26-.144-.144-.333-.261-.422-.261-.299 0-2.517-2.543-2.365-2.712.083-.092.046-.107-.082-.034-.212.121-2.371-2.128-2.371-2.47 0-.282 1.213-1.523 1.352-1.383.078.077.111.047.073-.068-.1-.308.563-1.168.763-.988.094.085.116.059.049-.059s.067-.446.297-.729c.231-.283.349-.375.263-.203-.091.184-.077.241.034.139.104-.095.202-.259.216-.364.014-.105.038-.291.052-.412.014-.121.134-.154.267-.072.14.087.184.058.104-.071-.074-.12.133-.506.462-.858.328-.351.561-.674.518-.718-.044-.043.152-.327.434-.632.282-.304.447-.556.366-.56-.08-.004.036-.144.259-.312.222-.169.316-.309.208-.313-.108-.004-.046-.121.137-.26.334-.255.396-.378.396-.787 0-.122.108-.154.241-.072.146.09.184.057.096-.085-.079-.128.024-.408.228-.622.205-.214.401-.522.436-.685.035-.162.217-.412.404-.555.188-.143.274-.261.192-.261-.082 0-.004-.281.174-.625.178-.343.42-.625.538-.625.119 0 .158-.093.087-.208-.071-.115-.024-.208.104-.208s.175-.094.104-.209c-.071-.114-.029-.208.092-.208s.197-.075.169-.167c-.102-.325.952-2.316 1.158-2.189.12.074.143.023.054-.121-.227-.366.248-.83.722-.706.225.058.409.186.409.284 0 .098.141.124.313.058.172-.066.312-.019.312.104s.141.17.313.104c.172-.066.312-.025.312.091 0 .116.202.158.45.094.334-.088.406-.048.28.156-.113.183-.088.223.076.122.232-.144 2.306.423 2.528.69.057.069.221.135.364.147l.69.052c.236.017.385.101.333.187-.053.086.186.167.53.18.345.013.687.106.761.208.074.102.369.211.655.243.286.032.549.14.583.239.034.099.26.128.501.065.326-.085.396-.044.271.158-.111.18-.088.223.067.128.277-.172 1.911.277 1.911.524 0 .093.141.115.313.049.172-.066.312-.019.312.105 0 .123.141.17.313.104.172-.066.312-.025.312.091 0 .116.202.158.45.094.287-.076.4-.038.312.104-.087.139.017.181.28.112.229-.06.417-.027.417.072 0 .099.255.195.566.213.312.018.599.13.639.249.039.119.206.164.371.101.164-.063.299-.02.299.097 0 .116.202.158.449.093.288-.075.4-.038.312.104-.088.142.025.18.313.105.288-.076.4-.038.312.104-.086.139.017.181.28.112.242-.063.417-.006.417.136 0 .135.083.194.184.131.187-.115 1.499.264 1.691.488.057.068.245.123.417.123s.299.163.284.362c-.016.199.054.311.156.248.157-.097.264.837.257 2.254-.001.201.087.365.194.365.107 0 .133.161.057.358-.075.197-.071.293.009.212.08-.08.366.33.635.911.269.58.7 1.352.958 1.714.259.362.47.753.47.867 0 .115.141.213.313.218.172.005.289.122.26.26-.028.138.066.228.209.199.143-.028.237.065.208.209-.029.143.018.237.104.21.272-.088 1.098.6.936.779-.085.094-.041.106.098.026s.436.038.66.262c.224.224.462.352.528.285.067-.067.122-.007.122.134 0 .14.086.202.192.137.105-.065.316 0 .468.144.153.144.371.267.486.273.71.037 1.748.378 1.647.541-.069.112.102.138.407.062.289-.073.632-.067.762.013.267.166 2.853.193 3.33.035.826-.273 2.18-.522 2.331-.429.093.057.169-.005.169-.139 0-.133.14-.189.312-.123s.313.024.313-.094.085-.161.19-.096.222.03.261-.076c.038-.107.202-.225.365-.262.162-.037.47-.235.684-.44.215-.205.495-.307.623-.228.133.082.175.05.098-.075-.126-.204.322-.516.8-.557a.24.24 0 0 0 .213-.226c.002-.115.275-.49.607-.833.331-.344.525-.485.43-.313-.102.186-.094.242.018.139.104-.096.198-.236.208-.313.053-.413.363-.85.53-.747.105.065.178.041.161-.053-.072-.42.037-.707.226-.59.116.072.154-.007.088-.18-.065-.169.053-.483.263-.698.209-.214.394-.526.41-.693.028-.293.45-2.064.643-2.698.154-.508.126-2.366-.042-2.761-.085-.2-.1-.505-.034-.677.066-.172.018-.312-.107-.312-.124 0-.177-.188-.117-.417.069-.263.027-.367-.112-.28-.142.088-.18-.025-.104-.313.064-.247.032-.397-.072-.332-.104.064-.189-.012-.189-.169 0-.156-.318-.813-.706-1.458-.389-.646-.67-1.226-.625-1.29.045-.064.035-.086-.021-.049-.056.037-.696-.502-1.423-1.198-.727-.696-1.454-1.294-1.617-1.329-.162-.035-.404-.205-.537-.378-.132-.173-.296-.309-.364-.301-.489.055-.756-.014-.659-.171.063-.102-.002-.181-.144-.176-.652.024-1.002-.072-.895-.245.064-.104-.071-.14-.3-.08-.229.06-.417.008-.417-.117 0-.124-.136-.174-.303-.11-.166.064-.403.054-.526-.022-.339-.21-4.379-.238-4.379-.031 0 .1-.235.136-.521.081-.287-.054-.521-.033-.521.047 0 .168-1.64.732-2.029.699-.142-.013-.197.076-.122.198.086.138.003.169-.221.083-.198-.076-.305-.052-.24.053.117.19-.667.555-.997.466-.095-.026-.128.026-.074.115.054.089-.142.341-.435.561-.34.255-.478.293-.38.105.085-.163-.048-.039-.296.276-.439.56-1.039.774-1.039.372 0-.111-.156-.142-.347-.069-.232.089-.297.053-.198-.109.095-.153.041-.199-.147-.127-.163.062-.438-.028-.611-.201-.173-.173-.372-.256-.443-.186-.071.071-.129.015-.129-.126 0-.14-.088-.201-.194-.135-.237.146-1.681-.517-1.681-.772 0-.1-.087-.128-.193-.062-.24.148-1.266-.303-1.266-.557 0-.103-.087-.134-.194-.068-.236.146-1.681-.516-1.681-.771 0-.1-.086-.128-.192-.063-.241.149-1.266-.302-1.266-.557 0-.103-.087-.133-.194-.067-.236.146-1.681-.517-1.681-.771 0-.1-.087-.129-.193-.063-.23.142-1.265-.298-1.265-.538 0-.093-.156-.109-.347-.036-.252.097-.3.058-.176-.142.109-.177.09-.226-.055-.137-.254.157-1.297-.26-1.297-.519 0-.092-.156-.108-.347-.035-.252.097-.3.058-.176-.143.107-.174.089-.226-.049-.14-.295.182-1.561-.365-1.359-.587.088-.097.052-.115-.079-.039-.311.177-1.996-.574-1.791-.799.085-.094.047-.11-.084-.035-.3.171-1.594-.355-1.386-.563.085-.085-.023-.086-.239-.003-.253.097-.344.073-.256-.07.076-.123-.013-.207-.201-.191-.2.017-.368-.162-.413-.441-.042-.257-.006-.469.079-.469s.165-.291.178-.647c.013-.355.107-.707.208-.781.102-.073.212-.462.245-.863.032-.401.15-.761.261-.799.112-.038.154-.148.095-.244-.118-.191.526-3.372.717-3.54.064-.058.147-.573.184-1.146.037-.573.135-1.067.218-1.097.084-.031.112-.395.064-.81-.061-.517-.016-.709.143-.611.159.098.192-.053.106-.486-.07-.346-.055-.796.033-1 .087-.204.168-.559.181-.788.02-.389.168-.416 2.262-.416 1.232 0 2.239-.075 2.239-.165 0-.158.891-.195 5.553-.234 1.164-.01 2.065-.1 2.003-.2-.062-.101.834-.143 2.014-.096 1.17.047 1.956.016 1.747-.069-.359-.146 2.05-.244 5.975-.242.974 0 1.817-.068 1.875-.152.057-.084 1.013-.186 2.125-.227 2.118-.077 2.453.032 2.512.818.018.238.107.388.198.331.09-.056.165-.024.165.072 0 .095.322.663.717 1.262.394.599.668 1.089.609 1.089-.06 0 .178.241.528.535.35.295.615.646.589.782-.026.135.062.225.196.199.134-.026.524.272.866.662.342.39.66.671.706.625.045-.046.385.192.754.53.369.337.72.606.779.597.302-.042 1.318.519 1.221.675-.061.1.049.12.246.045.24-.093.308-.059.208.104-.095.153-.041.2.147.127.163-.062.427.017.586.176.159.159.405.25.547.203.143-.048.259.005.259.116 0 .112.117.194.26.182.608-.047 2.226.337 2.123.505-.062.1.009.137.158.081.149-.055 1.256-.024 2.459.069 1.203.094 2.238.096 2.3.006.061-.09.647-.19 1.3-.223.654-.032 1.189-.14 1.19-.239.001-.099.189-.132.418-.072.23.06.417.014.417-.102 0-.116.135-.159.299-.096.165.063.329.05.365-.03.093-.207 3.781-2.014 3.987-1.955.094.028.127-.023.073-.111-.054-.089.142-.342.436-.562.324-.243.466-.284.362-.104-.209.359-.238.389 1.199-1.196.64-.705 1.226-1.221 1.301-1.145.076.075.108.043.072-.071-.093-.298.976-1.799 1.154-1.62.082.082.081-.028-.002-.244-.106-.277-.077-.347.099-.239.137.085.224.077.194-.017-.088-.275.492-1.526.707-1.526.107 0 .147-.079.088-.174-.125-.201.301-1.701.482-1.702.067 0 .149-.395.182-.878s.127-.928.208-.989c.193-.145.193-4.453 0-4.598-.081-.061-.175-.506-.208-.989s-.115-.878-.182-.878c-.181-.001-.607-1.501-.482-1.702.059-.095.019-.174-.088-.174-.215 0-.795-1.251-.707-1.526.03-.094-.057-.102-.194-.017-.176.108-.205.038-.099-.239.083-.216.084-.326.002-.244-.178.179-1.247-1.322-1.154-1.619.036-.115.004-.147-.072-.072-.075.076-.661-.44-1.301-1.145-1.437-1.585-1.408-1.555-1.199-1.196.104.18-.038.139-.362-.104-.294-.22-.49-.473-.436-.562.054-.088.021-.139-.073-.111-.206.059-3.894-1.748-3.987-1.955-.036-.08-.2-.093-.365-.03-.164.063-.299.02-.299-.096s-.187-.162-.417-.102c-.229.06-.417.027-.418-.072-.001-.099-.536-.207-1.19-.239-.653-.033-1.239-.133-1.3-.223-.062-.09-1.097-.088-2.3.006-1.203.093-2.31.124-2.459.069-.149-.056-.22-.019-.158.081.103.168-1.515.552-2.123.505-.143-.012-.26.07-.26.182 0 .111-.116.164-.259.116-.142-.047-.388.044-.547.203-.159.159-.423.238-.586.176-.188-.073-.242-.026-.147.127.1.163.032.197-.208.104-.197-.075-.307-.055-.246.045.097.156-.919.717-1.221.675-.059-.009-.41.26-.779.597-.369.338-.709.576-.754.53-.046-.046-.364.235-.706.625-.342.39-.732.688-.866.662-.134-.026-.222.064-.196.199.026.136-.239.487-.589.782-.35.294-.588.535-.528.535.059 0-.215.49-.609 1.089-.395.599-.717 1.167-.717 1.262 0 .096-.075.128-.165.072-.091-.057-.18.093-.198.331-.059.786-.394.895-2.512.818-1.112-.041-2.068-.143-2.125-.227-.058-.084-.901-.152-1.875-.152-3.925.002-6.334-.096-5.975-.242.209-.085-.577-.116-1.747-.069-1.18.047-2.076.005-2.014-.096.062-.1-.839-.19-2.003-.2-4.662-.039-5.553-.076-5.553-.234 0-.09-1.007-.164-2.239-.164-2.094 0-2.242-.028-2.262-.417a2.788 2.788 0 0 0-.18-.785c-.087-.202-.113-.601-.059-.885.054-.285.008-.518-.103-.518-.112 0-.164-.328-.117-.729.046-.401-.001-.729-.105-.729-.105 0-.149-.281-.099-.625.051-.344.003-.625-.105-.625s-.151-.234-.097-.521c.055-.286.008-.521-.103-.521-.112 0-.163-.276-.113-.614.049-.337.005-.561-.099-.497-.103.064-.166-.105-.139-.376.027-.27-.026-.666-.118-.879-.091-.213-.175-.649-.187-.969-.011-.32-.091-.539-.177-.486-.137.084-.241-.566-.212-1.335.005-.143-.085-.26-.2-.26s-.161-.188-.101-.417c.06-.229.036-.417-.054-.417-.204 0-.645-1.683-.502-1.914.057-.093-.005-.169-.139-.169s-.189-.141-.123-.312c.066-.172.019-.313-.104-.313s-.17-.141-.104-.312c.066-.172.019-.313-.104-.313-.124 0-.171-.141-.105-.312.066-.172.039-.313-.061-.313-.234 0-.67-1.24-.52-1.482.063-.102.005-.185-.129-.185s-.187-.145-.119-.323c.071-.185.036-.269-.082-.196-.188.116-.286-.218-.262-.887.006-.143-.058-.26-.142-.26-.228 0-.658-1.045-.521-1.266.065-.106.037-.193-.063-.193-.244 0-.921-1.439-.782-1.663.06-.097.026-.208-.076-.246-.299-.113-2.103-3.86-1.943-4.037.08-.089.04-.101-.09-.027-.226.129-.86-1.028-.751-1.37.027-.086-.035-.157-.138-.157-.224 0-1.121-1.45-1.127-1.823-.003-.143-.071-.26-.151-.26-.203 0-1.312-1.706-1.312-2.018 0-.14-.079-.207-.174-.148-.162.1-.262-.215-.193-.61.016-.094-.066-.112-.184-.04-.195.121-.307-.159-.233-.585.017-.094-.056-.118-.162-.053-.205.127-.542-.472-.459-.817.028-.114-.015-.143-.094-.064-.197.197-1.965-2.172-1.817-2.434.065-.116.042-.14-.052-.055-.2.18-.863-.68-.763-.988.038-.115.005-.145-.073-.068-.139.14-1.352-1.101-1.352-1.383 0-.342 2.159-2.591 2.371-2.47.128.073.165.058.082-.034-.161-.178 2.107-2.743 2.358-2.667.082.025.263-.092.403-.26.139-.168.185-.306.102-.306-.084 0 .391-.586 1.055-1.302.665-.716 1.275-1.282 1.357-1.257.082.025.263-.092.403-.26.139-.168.18-.306.091-.306-.24 0 2.47-2.801 2.716-2.807.114-.003.208-.105.208-.228 0-.122.745-1.012 1.656-1.979.91-.966 1.473-1.522 1.25-1.236l-.406.521.47-.398c.258-.219.424-.444.369-.499-.161-.161 2.453-2.861 2.694-2.784.119.038.145-.002.056-.091-.274-.274 1.294-1.713 1.739-1.597.218.057.346.186.284.286-.062.1.033.126.21.058.179-.068.324-.015.324.119s.089.188.197.121c.172-.106 1.559.139 2.511.443.478.152 4.847.118 5.26-.041.201-.078.5-.089.664-.026.165.063.33.021.368-.093.039-.115.419-.227.846-.249.427-.023.777-.119.778-.214 0-.096.117-.135.259-.088.142.048.389-.044.548-.203.159-.159.418-.24.575-.179.157.06.285.03.285-.067 0-.194 1.261-.773 1.511-.694.086.028.156-.036.156-.141 0-.253 1.503-1.18 1.771-1.092.114.037.148.007.074-.067-.074-.074.502-.732 1.28-1.463.778-.73 1.38-1.363 1.338-1.405-.042-.042.199-.378.536-.748.337-.369.617-.738.622-.821.028-.476.273-.867.468-.746.128.079.166.043.087-.085-.076-.123-.001-.36.166-.528.168-.167.262-.347.21-.4-.128-.127.327-1.412.5-1.413.074-.001.154-.351.176-.778.022-.427.13-.806.238-.842.109-.036.151-.248.093-.47a1.467 1.467 0 0 1 .038-.771c.193-.494.199-3.191.008-3.652a1.427 1.427 0 0 1-.046-.771c.058-.222.025-.432-.074-.466-.098-.034-.206-.39-.238-.791-.033-.401-.111-.776-.175-.833-.158-.143-1.653-3.334-1.561-3.334.04 0-.199-.29-.531-.646-.332-.355-.542-.754-.467-.885.076-.132.074-.184-.002-.116-.173.153-2.565-2.144-2.467-2.368.039-.089-.007-.144-.101-.123-.321.071-.9-.279-.78-.472.065-.105.041-.172-.054-.149-.306.076-1.72-.721-1.605-.905.06-.099.033-.156-.061-.128-.231.069-3.489-1.128-3.568-1.311-.034-.079-.245-.096-.468-.038-.224.059-.407.025-.407-.074s-.258-.188-.573-.198c-3.543-.106-5.427-.1-5.729.021-.201.08-.505.091-.677.025-.172-.066-.313-.018-.313.106 0 .129-.223.184-.514.128-.316-.06-.464-.016-.384.113.08.129-.044.165-.319.093-.247-.064-.449-.053-.449.026 0 .206-1.278.659-1.489.528-.098-.06-.178.005-.178.146 0 .14-.058.197-.129.126-.071-.071-.266.008-.433.176-.168.167-.391.251-.496.186-.106-.065-.192-.014-.192.114s-.094.175-.208.105c-.115-.071-.209-.038-.209.074 0 .262-1.496 1.195-1.77 1.105-.115-.038-.139.001-.054.087.154.153-.664.851-.907.773-.153-.049-1.276 1.099-1.246 1.275.046.271-1.186 1.766-1.341 1.626-.091-.082-.1-.035-.02.104s-.046.444-.279.677c-.233.233-.411.448-.394.476.096.163-.3.99-.473.99-.114 0-.149.094-.078.208.071.115.024.209-.104.209s-.185.078-.126.174c.138.222-.31 1.701-.515 1.701-.084 0-.105.187-.045.416.06.23.021.417-.087.417s-.156.281-.105.625c.05.344.011.625-.088.625-.209 0-.177 3.465.036 4.014.079.202.095.553.035.781-.059.227-.012.413.105.413.117 0 .164.188.104.417-.06.229-.014.417.102.417.117 0 .16.134.097.299-.063.164-.018.331.101.371.119.039.231.318.249.618.018.301.103.503.189.45.086-.053.156.035.156.196 0 .399-.718 1.02-.954.827-.106-.087-.125-.074-.043.027.139.171-.797 1.066-1.116 1.066-.079 0-.222.085-.318.189-.102.113-.046.122.139.022.191-.102.231-.094.105.02-1.144 1.034-1.601 1.385-1.465 1.123.089-.172-.138.04-.505.471-.368.43-.769.721-.892.645-.123-.076-.178-.054-.121.05.056.103-.281.516-.749.917-.469.401-.722.542-.563.313.16-.229-.06-.018-.486.47-.427.487-.877.824-.999.749-.122-.076-.175-.053-.117.051.058.103-.228.469-.634.813-.407.344-.664.485-.571.313.092-.172-.068-.032-.356.312s-.65.625-.804.625c-.154 0-.28.109-.28.242 0 .251-1.061 1.177-1.225 1.07-.052-.034-.173.024-.268.128-.103.112-.046.122.139.024.172-.09-.016.119-.417.467-.401.347-.814.579-.918.516-.103-.064-.13-.022-.06.092.116.188-1.015 1.201-1.348 1.208-.077.002-.217.089-.313.193-.103.112-.046.121.139.021.341-.183.29-.132-.825.832-.444.384-.613.464-.44.207.155-.229-.068-.018-.495.47-.444.507-.88.827-1.019.748-.133-.076-.175-.064-.093.026.161.179-.869 1.082-1.134.996-.089-.029-.137.02-.109.109.029.088-.346.521-.833.962l-.886.801-.729-.556c-.401-.306-.729-.651-.729-.766 0-.116-.084-.158-.187-.095-.103.064-.482-.16-.843-.497-.361-.337-.676-.599-.699-.582-.156.118-1.348-.796-1.248-.957.069-.111.038-.148-.069-.082-.212.131-2.423-1.184-2.261-1.346.054-.054-.018-.101-.161-.104-.373-.006-1.823-.903-1.823-1.127 0-.103-.071-.165-.157-.138-.299.095-1.504-.516-1.388-.704.065-.104.031-.163-.075-.132-.341.102-3.572-1.571-3.442-1.782.069-.112.024-.141-.101-.064-.257.159-2.129-.688-2.129-.963 0-.098-.094-.121-.208-.05-.115.071-.209.024-.209-.104s-.091-.177-.202-.108c-.222.137-1.464-.438-1.464-.678 0-.269 1.1-3.482 1.229-3.589.068-.058.135-.253.148-.434.031-.439 1.984-6.308 2.143-6.441.069-.058.152-.339.184-.625.032-.287.144-.551.248-.587.105-.036.134-.215.064-.397-.107-.278-.006-.312.624-.21.413.067.781.037.816-.066.036-.104.509-.214 1.053-.246.544-.031.989-.107.99-.167.002-.201 1.307-.609 1.522-.476.129.08.144.023.039-.146-.125-.202-.075-.239.187-.139.197.076.305.052.24-.054-.117-.189.666-.555.997-.465.094.025.112-.05.04-.167-.073-.118-.033-.225.088-.24.122-.014.307-.037.412-.052.105-.014.269-.111.365-.215.103-.114.047-.117-.139-.009-.172.099.109-.238.625-.749.515-.512 1.01-.899 1.099-.861.088.037.144-.009.123-.103-.072-.321.279-.9.471-.78.106.065.171.041.146-.054-.09-.33.276-1.114.465-.997.105.065.14-.015.077-.178-.062-.164.009-.426.159-.584.15-.158.282-.405.293-.548l.052-.689c.017-.236.124-.372.237-.302.118.073.153-.011.082-.196-.068-.178-.059-.487.021-.688.08-.2.145-.927.145-1.614 0-.688-.065-1.415-.145-1.615-.08-.201-.091-.505-.025-.677.066-.172.019-.313-.104-.313s-.17-.14-.104-.312c.066-.172.048-.313-.04-.313s-.279-.327-.423-.727c-.145-.4-.581-1.2-.97-1.777-.388-.577-.617-.994-.508-.927.539.333.092-.113-.731-.729-.511-.383-.871-.799-.8-.925.071-.125.055-.16-.036-.077-.092.082-.427-.035-.744-.262-.318-.226-1.054-.631-1.634-.9-.581-.269-1.002-.544-.936-.61.067-.066-.091-.065-.349.002-.259.068-.417.038-.353-.066.149-.241-.206-.279-3.437-.362-1.581-.041-2.656.011-2.656.128 0 .109-.188.149-.417.089-.23-.06-.365-.024-.3.079.064.104-.006.189-.156.189-.15.001-.883.289-1.627.641-.745.353-1.393.625-1.44.606-.047-.018-.17.117-.273.302-.103.184-.278.279-.389.211-.11-.068-.178-.047-.15.048.076.26-1.438 1.723-1.617 1.562-.086-.077-.096-.035-.023.094.074.129-.116.504-.421.833-.306.33-.529.627-.496.66.11.112-.448 1.293-.61 1.293-.088 0-.156.118-.15.261.026.716-.074 1.211-.227 1.117-.094-.058-.128.184-.076.538.052.354.011.592-.09.53-.101-.063-.184.571-.184 1.408s.083 1.471.184 1.409c.101-.062.142.176.09.53-.057.388-.014.594.109.518.12-.074.155.058.086.323-.065.248-.023.45.093.45.117 0 .158.14.092.312s-.048.313.04.313c.132 0 1.101 1.761 1.06 1.928-.007.028.416.518.939 1.088 1.027 1.118 1.117 1.373.65 1.84-.166.166-.244.36-.174.431.071.071.023.129-.107.129-.135 0-.179.149-.104.347.097.252.058.3-.142.176-.178-.11-.226-.09-.136.057.159.257-.688 2.129-.963 2.129-.099 0-.121.093-.05.208.07.115.032.208-.086.208s-.154.156-.081.347c.097.252.058.3-.143.176-.177-.109-.226-.09-.136.056.161.259-.477 1.713-.751 1.713-.1 0-.129.086-.064.192.065.105-.019.328-.186.496-.167.167-.246.362-.176.433.071.071.023.129-.107.129-.135 0-.179.149-.104.347.097.251.058.3-.142.176-.178-.11-.226-.09-.136.056.159.257-.688 2.129-.963 2.129-.099 0-.121.094-.05.209.07.114.023.208-.105.208s-.175.094-.104.208c.071.115.024.209-.104.209s-.175.093-.104.208c.071.115-.064.208-.3.208s-.43-.07-.43-.156c-.001-.086-.351-.174-.778-.197-.427-.022-.806-.129-.842-.238-.036-.109-.249-.15-.473-.091-.223.058-.406.01-.406-.107 0-.117-.188-.164-.417-.104-.229.06-.417.017-.417-.095s-.234-.159-.52-.104c-.287.054-.521.008-.521-.104 0-.113-.235-.159-.521-.105-.287.055-.521.004-.521-.113s-.187-.164-.417-.104c-.229.06-.416.02-.416-.088s-.295-.153-.655-.1c-.36.052-.602.011-.538-.092.064-.104-.459-.201-1.162-.218-.703-.016-1.305-.109-1.337-.206-.033-.097-.504-.147-1.048-.112-.727.048-.907.009-.677-.149.223-.153-.001-.178-.781-.086-.803.093-1.094.058-1.094-.132 0-.155-.138-.207-.341-.129-.302.116-.329-.029-.233-1.23.064-.794.024-1.414-.096-1.488-.119-.074-.169-.813-.12-1.756.047-.896.01-1.583-.083-1.525-.093.057-.178-.534-.19-1.315-.012-.78-.076-2.449-.142-3.71-.067-1.26-.128-2.995-.135-3.854-.008-.859-.078-1.611-.156-1.67-.078-.059-.206-1.653-.284-3.542-.078-1.889-.19-4.175-.247-5.08-.093-1.456-.066-1.631.232-1.517.185.071.337.053.337-.041 0-.218 1.694-.985 1.975-.893.117.038.142-.001.055-.087-.162-.163 1.494-1.261 1.772-1.176.086.026.138-.023.116-.109-.059-.227 2.516-2.714 2.661-2.57.067.067.099.029.072-.086-.084-.344.253-.944.459-.816.105.065.178.041.162-.054-.074-.425.038-.706.233-.585.117.073.192.055.167-.04-.098-.362.284-1.109.5-.976.129.08.166.043.086-.085-.141-.229.248-1.298.473-1.298.068 0 .138-.255.156-.567.018-.311.125-.597.238-.635.113-.037.158-.251.099-.475-.058-.223-.015-.406.097-.406.113 0 .157-.249.099-.552-.059-.306-.021-.5.085-.434.107.066.155-.247.11-.72-.044-.46.041-1.061.188-1.336.217-.407.217-.593 0-1-.147-.275-.232-.876-.188-1.336.044-.461.008-.793-.08-.738-.146.089-.237-.476-.233-1.436.001-.201-.086-.365-.193-.365-.108 0-.142-.141-.076-.312.066-.172.019-.313-.104-.313s-.17-.141-.104-.312c.066-.172.045-.313-.046-.313-.165 0-1.075-1.788-1.114-2.187-.011-.115-.17-.323-.353-.463-.183-.139-.252-.256-.154-.26.099-.004-.042-.191-.312-.416-.271-.226-.426-.413-.344-.417.081-.004-.487-.593-1.262-1.309-1.742-1.609-2.949-2.648-2.949-2.538 0 .138-2.598-1.218-2.669-1.392-.036-.089-.2-.11-.365-.047-.164.064-.299.035-.299-.063-.001-.098-.305-.2-.676-.227-.371-.026-.705-.138-.742-.248-.037-.111-.197-.151-.356-.09a.703.703 0 0 1-.56-.064c-.373-.241-6.404-.259-6.552-.02m-10.906 74.497c0 .094.295.129.655.076.497-.073.614-.032.489.172-.11.178-.084.218.078.118.302-.187 1.695.25 1.695.531 0 .113.095.146.212.074.249-.154 1.663.67 1.663.969 0 .112.096.144.214.071.118-.072.875.529 1.683 1.336.807.808 1.408 1.565 1.336 1.683-.073.118-.036.214.083.214.247 0 .945 1.248.7 1.253-.089.002-.044.078.101.17.786.499 1.842 7.119 1.135 7.119-.107 0-.149.234-.095.521.061.316.004.52-.145.52-.135 0-.19.09-.122.199.193.312-.117 1.273-.361 1.122-.125-.077-.157-.035-.074.098.185.3-.613 1.903-1.195 2.401-.246.211-.321.317-.165.235.192-.101.169.025-.075.397-.197.3-.455.484-.575.41-.12-.074-.16-.041-.09.072.242.392-2.813 2.902-3.223 2.649-.096-.059-.174-.002-.174.126s-.093.175-.208.104c-.115-.071-.208-.014-.208.126 0 .141-.058.198-.129.127-.071-.071-.271.012-.444.185s-.443.266-.6.205c-.157-.06-.286-.008-.286.117 0 .124-.187.177-.416.117-.229-.06-.417-.013-.417.104 0 .117-.234.168-.521.114-.286-.055-.521-.007-.521.107 0 .26-4.149.086-4.343-.182-.075-.103-.37-.213-.657-.245-.286-.032-.552-.15-.59-.262-.039-.112-.156-.15-.261-.086-.917.567-6.664-4.664-6.109-5.562.06-.098.005-.178-.123-.178s-.175-.093-.104-.208c.071-.115.038-.208-.072-.208-.248 0-.695-1.23-.538-1.483.062-.101.003-.184-.131-.184-.143 0-.2-.175-.136-.417.06-.229.037-.372-.052-.318-.177.11-.421-1.587-.424-2.951-.001-.48.077-.921.172-.98.096-.059.13-.406.076-.771-.059-.407-.017-.615.109-.536.125.077.165-.088.102-.418-.071-.373-.029-.5.132-.4.145.089.194.036.128-.136-.139-.361.465-1.823.753-1.823.12 0 .16-.094.089-.208-.071-.115-.024-.209.104-.209s.181-.084.117-.188c-.151-.244 1.505-2.434 1.785-2.359.117.032.158-.03.092-.137-.15-.243 2.351-2.15 2.61-1.991.103.064.188.002.188-.139 0-.14.058-.197.129-.126.071.071.27-.013.443-.186.174-.173.444-.265.601-.205.157.061.285.023.285-.084 0-.247 1.618-.69 1.995-.545.156.06.339.019.407-.09.15-.244 3.223-.269 3.223-.027m65.411 20.666c.759-.012 2.714.597 2.714.846 0 .118.094.157.209.086.114-.071.208-.024.208.104s.094.175.208.105c.115-.071.209-.024.209.104s.093.175.208.104c.115-.071.208-.024.208.104s.102.17.227.093c.124-.077.706.363 1.294.977.587.615.931.924.763.687-.167-.237.043-.053.468.408.425.461.737.874.694.917-.043.043.105.261.329.485.224.223.351.497.283.607-.068.111-.039.201.065.201.296 0 .943 1.6.764 1.889-.098.159-.074.206.063.121.247-.152.583 1.383.376 1.718a.244.244 0 0 0 .088.332c.253.157.286 2.119.038 2.273-.096.059-.13.406-.076.771.059.407.017.614-.109.536-.122-.075-.169.07-.114.354.051.268-.051.625-.229.802-.176.177-.269.372-.206.435.512.513-3.709 5.614-4.329 5.231-.142-.088-.189-.062-.112.063.184.299-2.221 1.348-2.685 1.171-.271-.104-.323-.069-.199.132.129.208.036.249-.383.169-.303-.058-.551-.038-.551.045 0 .083-.844.154-1.875.158-1.032.004-1.875-.064-1.875-.151s-.249-.11-.552-.052c-.355.067-.504.027-.417-.114.083-.134-.014-.18-.25-.118a.804.804 0 0 1-.677-.176c-.161-.152-.445-.288-.632-.301-.502-.037-2.467-1.395-3.306-2.285-.401-.426-.589-.693-.418-.595.171.098-.04-.172-.469-.601-.712-.712-.874-1.002-.804-1.442.014-.086-.061-.157-.166-.157-.269 0-.925-1.794-.757-2.067.077-.123.029-.224-.104-.224-.158 0-.196-.19-.108-.539.087-.349.059-.491-.082-.404-.144.089-.217-.5-.217-1.753 0-1.19.082-1.888.221-1.888.121 0 .162-.095.09-.211-.164-.265.439-2.377.785-2.75a1.5 1.5 0 0 0 .324-.585c.317-1.495 4.846-5.397 5.671-4.886.111.068.201.014.201-.119 0-.134.141-.189.313-.123.171.066.312.018.312-.107 0-.124.188-.177.417-.117.229.06.368.03.307-.068-.126-.204 1.582-.387 2.505-.268.344.045.857.077 1.14.073m-28.171 11.4c.043.131.201.191.351.133.15-.057.414.038.587.211s.38.248.46.168c.081-.08.271.024.423.232.152.208.332.372.4.365.067-.008.211-.014.319-.014.738 0 4.182 4.072 3.871 4.576-.074.118-.029.215.099.215s.175.094.105.209c-.071.114-.02.208.114.208s.187.145.119.323c-.081.21-.041.272.114.176.163-.1.201-.004.121.302-.064.247-.021.449.096.449s.168.237.113.526c-.056.289-.02.576.08.637.257.159.227 2.795-.032 2.795-.123 0-.157.221-.082.521.075.299.041.521-.081.521-.116 0-.158.202-.094.449.088.335.048.406-.155.281-.189-.117-.224-.089-.112.093.207.334-.714 2.332-.995 2.158-.115-.071-.149-.032-.075.086.558.904-4.849 5.01-6.01 4.565-.17-.065-.309-.017-.309.107 0 .129-.224.183-.521.127-.286-.055-.521-.019-.521.08 0 .098-.586.178-1.302.176-.952-.003-1.218-.061-.989-.216.225-.154.095-.176-.469-.078-.48.083-.781.053-.781-.077 0-.117-.174-.167-.386-.111-.212.055-.529-.043-.704-.218-.176-.175-.365-.273-.421-.217-.185.185-1.188-.386-1.055-.601.072-.116.034-.15-.084-.077-1.311.809-5.627-5.733-5.212-7.901.052-.276.006-.501-.104-.501-.252 0 .021-2.575.283-2.674.102-.038.133-.154.07-.256-.182-.294.359-1.863.592-1.718.118.072.146.025.064-.107-.183-.297.2-1.063.783-1.565.245-.211.304-.312.132-.225-.209.106-.176-.009.098-.346.956-1.174 1.435-1.629 1.606-1.524.1.062.156.006.124-.125-.074-.307 2.553-1.919 2.905-1.784.147.057.267.002.267-.121 0-.124.141-.171.313-.105.171.066.312.036.312-.067 0-.442 5.426-.501 5.573-.061m-46.327 14.777c1.076.347 3.196 2.155 2.965 2.529-.069.112.025.261.208.331.189.073.281.261.213.439-.065.17-.018.31.105.31s.17.141.104.313c-.066.172-.038.312.061.312.1 0 .181.703.181 1.563 0 .859-.081 1.562-.181 1.562-.099 0-.127.141-.061.313.066.172.019.312-.104.312s-.172.137-.108.304c.065.168-.119.539-.413.833-.292.291-.471.53-.399.53.242 0-.867 1.064-1.549 1.486-.372.23-.765.364-.871.298-.107-.066-.231-.01-.276.125-.097.29-3.496.449-3.496.164 0-.102-.141-.131-.312-.065-.172.066-.313.011-.313-.123s-.108-.176-.24-.095c-.132.082-.366-.024-.521-.235-.154-.212-.283-.296-.286-.189-.003.108-.261-.088-.573-.437-.312-.348-.521-.531-.463-.406.057.124-.112-.013-.376-.305-.679-.749-1.341-2.08-1.208-2.426.062-.16.021-.292-.09-.292s-.201-.661-.201-1.471c0-.826.082-1.419.189-1.354.103.065.147-.047.095-.248-.263-1.03 2.496-4.011 3.782-4.085.284-.016.517-.094.517-.172 0-.441 2.008-.342 3.621.179M151.563 215.4c1.01.444 2.258 1.782 2.585 2.771.266.809.194 3.247-.103 3.462a.776.776 0 0 0-.248.413c-.11.533-.72 1.282-.935 1.149-.124-.076-.156-.035-.076.096.078.126-.048.332-.28.456-.233.124-.423.158-.423.075 0-.084-.117.003-.26.192-.493.651-3.49.927-3.49.321 0-.106-.099-.132-.22-.057-.698.432-2.934-2.032-3.012-3.32-.023-.382-.094-.778-.157-.88-.178-.288.197-2.035.454-2.12.126-.043.177-.163.112-.267-.065-.105-.019-.191.103-.191.121 0 .197-.081.168-.181-.028-.099.14-.357.375-.573.234-.215.305-.31.156-.21s-.27.127-.27.06c0-.221 1.523-1.164 1.701-1.054.096.059.174-.002.174-.135 0-.134.14-.189.312-.123s.313.034.313-.07c0-.329 2.15-.196 3.021.186m30.312 10.232c.859.112 1.592.291 1.628.399.036.107.2.144.365.081.164-.063.299-.014.299.109s.14.17.312.104c.172-.066.313-.01.313.123 0 .134.09.187.2.119.445-.274 4.561 2.341 4.435 2.819-.029.108.065.174.208.145.144-.028.237.065.209.209-.029.143.033.237.138.208.213-.058 2.087 2.26 2.126 2.629.014.13.014.306 0 .392-.014.086.075.156.196.156.121 0 .163.094.092.208-.071.115-.024.209.104.209s.175.093.104.208c-.071.115-.024.208.104.208s.175.094.105.209c-.071.114-.02.208.114.208.133 0 .189.141.123.313-.066.171-.019.312.104.312s.17.141.104.313c-.066.171-.036.312.067.312.276 0 .675 2.156.516 2.789-.085.342-.05.544.095.544.14 0 .229.431.227 1.094-.002.799-.059 1.01-.211.781-.147-.22-.17-.059-.078.547.075.501.041.914-.082.99-.116.072-.162.318-.102.547.06.229.027.417-.072.417-.099 0-.191.286-.203.634-.062 1.738-4.932 8.543-5.62 7.855-.067-.067-.304.061-.528.285-.224.224-.498.351-.608.283-.11-.068-.201-.036-.201.071 0 .253-2.038 1.132-2.28.983-.101-.063-.22-.007-.263.124-.044.131-.472.238-.95.238-.479 0-.821.081-.76.18.061.099-.293.189-.786.2-2.175.05-3.612-.04-3.676-.231-.038-.113-.296-.148-.573-.079-.317.08-.503.036-.503-.117 0-.133-.09-.188-.199-.12-.285.176-1.279-.107-1.143-.327.062-.101-.032-.127-.21-.059s-.323.015-.323-.119-.094-.185-.209-.114c-.114.071-.208.032-.208-.085 0-.118-.156-.155-.347-.082-.251.097-.3.058-.176-.142.108-.176.09-.226-.051-.139-.314.194-.909-.073-.747-.335.075-.121.045-.163-.066-.095-.282.175-1.36-.569-1.167-.805.087-.105.075-.125-.027-.042-.258.21-1.413-.652-1.243-.927.078-.127.042-.165-.083-.088-.375.231-2.695-2.762-2.396-3.091.087-.096.056-.116-.067-.046-.259.147-1.199-1.655-1.017-1.949.066-.107.011-.195-.123-.195s-.189-.141-.123-.312c.066-.172.019-.313-.104-.313s-.173-.135-.109-.299c.063-.165.012-.333-.113-.375-.126-.042-.238-.517-.249-1.055-.012-.539-.091-.979-.177-.979s-.157-.85-.157-1.888c0-1.327.069-1.845.231-1.744.154.095.185-.001.093-.291-.167-.527.073-1.948.305-1.804.091.056.113-.1.048-.347-.08-.306-.041-.403.121-.302.155.095.196.034.115-.176-.068-.178-.015-.323.119-.323s.189-.087.124-.193c-.149-.24.302-1.266.557-1.266.103 0 .135-.084.072-.186-.347-.561 3.76-5.225 4.304-4.889.125.078.166.044.092-.076-.172-.278 2.698-1.798 3.019-1.599.14.086.183.057.105-.07-.151-.245.81-.554 1.122-.361.109.067.198.012.198-.122 0-.143.175-.2.417-.136.236.061.364.022.295-.09-.072-.116.228-.177.723-.148.465.027.911-.015.99-.095.195-.194 1.114-.172 2.992.071m50.417 1.464c0 .1.133.131.297.068.378-.144 2.203.652 2.203.962 0 .127.082.181.183.119.232-.144 2.146 1.526 2.006 1.752-.057.092.032.22.198.284.406.155 1.207 1.757 1.026 2.05-.084.135-.051.176.079.096.287-.178.674 1.596.674 3.092 0 .618-.085 1.176-.188 1.24-.104.064-.14.304-.08.533.06.229.027.416-.072.416-.099.001-.195.253-.213.562-.018.309-.2.684-.404.833-.205.15-.305.272-.223.272.082 0 .015.259-.148.576-.385.744-2.574 2.817-2.817 2.666-.102-.063-.243.035-.314.218-.075.196-.26.282-.449.21-.184-.071-.267-.035-.194.082.116.189-.218.287-.887.262-.143-.005-.261.085-.261.2s-.231.165-.514.111c-.314-.06-.464-.016-.385.112.206.334-3.034.033-4.049-.376-.487-.196-.885-.445-.885-.554 0-.109-.082-.148-.182-.086-.709.439-4.329-3.736-3.876-4.47.068-.11.033-.201-.079-.201-.25 0-.655-1.809-.655-2.927 0-.453.078-.823.173-.823.094 0 .129-.295.076-.655-.062-.421-.019-.606.121-.52.131.081.177-.018.116-.252a.8.8 0 0 1 .175-.677c.152-.161.286-.409.298-.552.049-.614.096-.694.324-.553.134.083.184.058.113-.057-.36-.583 3.047-3.787 3.743-3.52.153.058.278.005.278-.118s.145-.168.323-.1c.21.081.272.04.176-.115-.1-.162-.004-.201.302-.121.247.065.449.041.449-.052 0-.094.797-.17 1.771-.17.974 0 1.771.082 1.771.183" fill="#fcfcfc"/><path d="M199.427 68.691c.315.048.831.048 1.146 0 .315-.048.057-.087-.573-.087s-.888.039-.573.087m-11.413 4.903-1.243 1.302 1.302-1.244c.716-.684 1.302-1.269 1.302-1.302 0-.154-.206.034-1.361 1.244m23.757-.052c.68.687 1.284 1.25 1.341 1.25.057 0-.453-.563-1.133-1.25-.68-.688-1.284-1.25-1.341-1.25-.057 0 .453.562 1.133 1.25m-26.458 3.541c-.178.344-.277.625-.22.625.058 0 .25-.281.428-.625.178-.343.276-.625.219-.625-.057 0-.25.282-.427.625m29.166 0c.178.344.37.625.428.625.057 0-.042-.281-.219-.625-.178-.343-.371-.625-.428-.625-.057 0 .041.282.219.625m-30.889 5.625c0 .401.043.565.095.365a1.691 1.691 0 0 0 0-.729c-.052-.201-.095-.037-.095.364m32.708 0c0 .401.043.565.096.365a1.723 1.723 0 0 0 0-.729c-.053-.201-.096-.037-.096.364m-28.277 12.5c.564.573 1.073 1.042 1.13 1.042.057 0-.358-.469-.922-1.042-.564-.573-1.073-1.041-1.13-1.041-.057 0 .358.468.922 1.041m23.742.052-1.034 1.094 1.094-1.034c1.016-.96 1.189-1.153 1.034-1.153-.033 0-.525.492-1.094 1.093m23.604 2.387c.259.05.634.048.833-.004.2-.052-.012-.093-.471-.09-.458.002-.621.045-.362.094m-41.56 2.561c0 .516.04.727.09.469.05-.258.05-.68 0-.937-.05-.258-.09-.047-.09.468m12.291 0c0 .516.041.727.091.469.049-.258.049-.68 0-.937-.05-.258-.091-.047-.091.468m-93.335 2.441c.317.048.786.047 1.042-.002.256-.05-.003-.089-.576-.087-.573.001-.782.042-.466.089m173.542 0c.317.048.785.047 1.042-.002.256-.05-.003-.089-.576-.087-.573.001-.783.042-.466.089m-92.701 1.101c0 .63.039.888.087.573a4.578 4.578 0 0 0 0-1.146c-.048-.315-.087-.057-.087.573m12.708 0c0 .63.039.888.087.573a4.578 4.578 0 0 0 0-1.146c-.048-.315-.087-.057-.087.573m-80.27 3.646c.622.63 1.178 1.146 1.235 1.146.058 0-.405-.516-1.027-1.146-.622-.63-1.178-1.146-1.236-1.146-.057 0 .405.516 1.028 1.146m147.701.052-1.139 1.198 1.198-1.139c.659-.626 1.198-1.165 1.198-1.198 0-.154-.199.026-1.257 1.139m-171.451-.052c-.506.515-.874.937-.816.937.057 0 .518-.422 1.024-.937.506-.516.873-.938.816-.938-.057 0-.518.422-1.024.938m91.098-.104c0 .515.041.726.09.468.05-.257.05-.679 0-.937-.049-.258-.09-.047-.09.469m13.125 0c0 .515.041.726.09.468.05-.257.05-.679 0-.937-.049-.258-.09-.047-.09.469m90.976.052c.864.92 1.051 1.085 1.051.929 0-.034-.446-.479-.99-.99l-.989-.929.928.99m-73.276.989c0 .401.043.565.095.365a1.691 1.691 0 0 0 0-.729c-.052-.201-.095-.037-.095.364m22.717.209c0 .515.04.726.09.468.05-.257.05-.679 0-.937s-.09-.047-.09.469m-53.747 2.396c.001.572.042.782.089.465a3.731 3.731 0 0 0-.002-1.041c-.05-.257-.089.003-.087.576m13.541 0c.002.572.042.782.09.465.048-.316.047-.785-.003-1.041-.049-.257-.088.003-.087.576m-13.753 3.229c0 .515.041.726.091.468a3.005 3.005 0 0 0 0-.937c-.05-.258-.091-.047-.091.469m13.959 0c0 .515.04.726.09.468.05-.257.05-.679 0-.937s-.09-.047-.09.469m-76.239 3.854c.001.802.039 1.105.084.672a7.789 7.789 0 0 0-.002-1.458c-.046-.37-.083-.016-.082.786m62.078-.313c0 .631.039.888.087.573.047-.315.047-.83 0-1.146-.048-.315-.087-.057-.087.573m14.375 0c0 .631.039.888.087.573.047-.315.047-.83 0-1.146-.048-.315-.087-.057-.087.573m62.091.417c0 .859.036 1.211.081.781a9.053 9.053 0 0 0 0-1.562c-.045-.43-.081-.078-.081.781m-171.476.104c.002.459.045.621.095.362s.048-.634-.005-.833c-.052-.199-.092.013-.09.471m204.375 0c.002.459.045.621.095.362s.048-.634-.005-.833c-.052-.199-.092.013-.09.471m-109.583 3.334c.002.458.045.621.094.362.05-.259.048-.634-.004-.834-.052-.199-.093.013-.09.472m14.791 0c.003.458.045.621.095.362s.048-.634-.004-.834c-.052-.199-.093.013-.091.472m-15 3.333c.003.458.045.621.095.362s.048-.634-.004-.833c-.052-.2-.093.013-.091.471m15.209 0c.002.458.045.621.094.362.05-.259.048-.634-.004-.833-.052-.2-.093.013-.09.471m-18.282.937-.625.159.56.025c.309.014.619-.069.69-.184.071-.114.1-.197.064-.183-.035.013-.345.096-.689.183m-86.979 3.23c.622.63 1.178 1.145 1.235 1.145.058 0-.405-.515-1.027-1.145-.622-.631-1.178-1.146-1.236-1.146-.057 0 .405.515 1.028 1.146m195.201.052-1.139 1.198 1.198-1.139c1.113-1.058 1.293-1.257 1.139-1.257-.033 0-.572.539-1.198 1.198m-162.701-.091c0 .035.304.34.677.677l.677.612-.612-.678c-.57-.631-.742-.772-.742-.611m-13.334 4.414c.389.401.754.729.811.729.058 0-.214-.328-.602-.729-.389-.402-.754-.73-.811-.73-.058 0 .214.328.602.73m156.761.156-.823.885.885-.823c.824-.766.981-.948.824-.948-.034 0-.433.399-.886.886m-153.948 2.864c.447.459.86.834.918.834.057 0-.262-.375-.71-.834-.447-.458-.86-.833-.918-.833-.057 0 .262.375.71.833m151.24.052-.823.886.885-.824c.823-.766.981-.947.823-.947-.034 0-.432.398-.885.885m-148.323 3.073c.447.459.86.834.917.834.058 0-.262-.375-.709-.834-.448-.458-.861-.833-.918-.833-.057 0 .262.375.71.833m145.312.105c-.506.515-.873.937-.816.937.057 0 .518-.422 1.024-.937.506-.516.874-.938.816-.938-.057 0-.518.422-1.024.938m-142.3 3.072c.863.92 1.05 1.086 1.05.929 0-.033-.445-.479-.99-.989l-.989-.929.929.989m139.383.053c-.506.515-.873.937-.816.937.058 0 .519-.422 1.025-.937.506-.516.873-.938.816-.938-.058 0-.519.422-1.025.938m-86.508.668c.259.05.634.048.834-.005.199-.052-.013-.092-.471-.09-.459.002-.622.045-.363.095m1.56-.004c.201.052.529.052.73 0 .2-.052.036-.095-.365-.095-.401 0-.565.043-.365.095m-85.937 1.462c.258.049.68.049.937 0 .258-.05.047-.091-.468-.091-.516 0-.727.041-.469.091m34.531 1.103c.564.573 1.073 1.041 1.13 1.041.058 0-.357-.468-.921-1.041-.565-.573-1.073-1.042-1.131-1.042-.057 0 .358.469.922 1.042m133.119.26-1.244 1.302 1.302-1.243c1.21-1.155 1.398-1.361 1.244-1.361-.033 0-.618.586-1.302 1.302m-74.056.469c.388.401.753.729.811.729.057 0-.214-.328-.603-.729-.389-.401-.754-.729-.811-.729-.057 0 .214.328.603.729m-55.938 2.604c.564.573 1.073 1.042 1.13 1.042.058 0-.357-.469-.921-1.042-.565-.573-1.073-1.042-1.131-1.042-.057 0 .358.469.922 1.042m127.076.052-1.034 1.094 1.094-1.034c.601-.569 1.093-1.061 1.093-1.094 0-.155-.193.018-1.153 1.034m-153.618 4.653c.012.334.101.842.198 1.128.12.352.138.182.057-.52-.135-1.172-.286-1.532-.255-.608m62.539 1.441c.002.573.042.782.09.466.048-.317.047-.786-.003-1.042-.049-.256-.088.003-.087.576m-81.101 6.875c.389.401.754.729.811.729.057 0-.214-.328-.603-.729-.388-.401-.753-.729-.811-.729-.057 0 .214.328.603.729m101.136 1.614-.823.886.885-.824c.823-.766.981-.947.823-.947-.034 0-.432.398-.885.885m-94.001 1.558c.43.045 1.133.045 1.563 0 .43-.045.078-.081-.781-.081-.86 0-1.211.036-.782.081m143.793 1.776-.824.885.886-.823c.823-.766.981-.948.823-.948-.034 0-.432.399-.885.886m-59.492.01c.092.092.815.137 1.605.102l1.438-.064-1.605-.102c-.883-.057-1.53-.028-1.438.064m-61.835 2.724c.214.191 1.441.755 1.441.662 0-.12-1.155-.74-1.379-.74-.082 0-.11.035-.062.078m139.831 5.13c0 .516.04.727.09.469.05-.258.05-.68 0-.937-.05-.258-.09-.047-.09.468m-47.674 2.969-.612.677.677-.612c.631-.57.773-.742.612-.742-.036 0-.341.305-.677.677m29.075 4.844c.389.401.754.729.811.729.058 0-.214-.328-.602-.729-.389-.401-.754-.729-.811-.729-.058 0 .214.328.602.729m-163.591 1.293c.259.05.634.048.833-.004.2-.052-.012-.093-.471-.091-.458.003-.621.045-.362.095m242.292 0c.259.05.634.048.833-.004.199-.052-.013-.093-.471-.091-.458.003-.621.045-.362.095m-90.303 1.415c.001.688.04.944.087.569a5.605 5.605 0 0 0-.002-1.25c-.048-.313-.086-.006-.085.681m-159.283.223c-.808.439-.716.59.104.173.785-.4.924-.503.66-.492-.105.005-.449.149-.764.319m256.736-.249c.214.191 1.441.755 1.441.662 0-.12-1.155-.74-1.379-.74-.082 0-.11.035-.062.078m-237.413 3.464c.68.687 1.284 1.25 1.341 1.25.057 0-.453-.563-1.133-1.25-.68-.688-1.284-1.25-1.341-1.25-.057 0 .453.562 1.133 1.25m218.743.052-1.243 1.302 1.302-1.244c.716-.684 1.302-1.269 1.302-1.302 0-.154-.206.034-1.361 1.244m-242.389-.156c-.506.515-.873.937-.816.937.057 0 .518-.422 1.024-.937.506-.516.874-.938.816-.938-.057 0-.518.422-1.024.938m266.033-.053c.863.92 1.05 1.086 1.05.929 0-.033-.445-.479-.989-.989l-.99-.929.929.989m-213.581 3.849c.374.047.937.046 1.25-.002.313-.047.006-.085-.681-.084-.688.001-.944.04-.569.086m160.208 0c.374.047.937.046 1.25-.002.313-.047.007-.085-.681-.084-.687.001-.943.04-.569.086m-163.962.205c.258.049.68.049.937 0 .258-.05.047-.091-.468-.091-.516 0-.727.041-.469.091m167.917 0c.257.049.679.049.937 0 .258-.05.047-.091-.469-.091-.515 0-.726.041-.468.091m-171.667.208c.258.05.68.05.937 0 .258-.05.047-.09-.468-.09-.516 0-.727.04-.469.09m175.417 0c.257.05.679.05.937 0s.047-.09-.469-.09c-.515 0-.726.04-.468.09m-179.58.212c.374.047.937.046 1.25-.002.313-.047.007-.085-.681-.084-.687.001-.943.04-.569.086m183.542 0c.374.047.937.046 1.25-.002.313-.047.006-.085-.681-.084-.688.001-.944.04-.569.086m-187.4.207c.315.048.831.048 1.146 0 .315-.048.057-.087-.573-.087s-.888.039-.573.087m191.25 0c.315.048.831.048 1.146 0 .315-.048.057-.087-.573-.087s-.888.039-.573.087m-194.896.206c.258.05.68.05.938 0 .258-.05.047-.09-.469-.09s-.727.04-.469.09m198.75 0c.258.05.68.05.938 0 .258-.05.047-.09-.469-.09s-.727.04-.469.09m-202.393.211c.317.048.786.046 1.042-.003s-.003-.089-.576-.087c-.573.001-.782.042-.466.09m206.042 0c.317.048.785.046 1.042-.003.256-.049-.003-.089-.576-.087-.573.001-.783.042-.466.09m-82.605 2.081c.259.05.634.048.834-.004.199-.052-.013-.093-.471-.091-.459.003-.622.045-.363.095m-157.606 2.665c.003.459.045.621.095.362s.048-.634-.004-.833c-.052-.199-.093.013-.091.471M337.536 200c0 1.05.048 1.861.106 1.802.058-.058.106-.869.106-1.802s-.048-1.744-.106-1.802c-.058-.059-.106.752-.106 1.802m-275.192 1.146c.003.458.045.621.095.362s.048-.634-.004-.833c-.052-.2-.093.013-.091.471m34.169 4.837c.317.048.786.046 1.042-.003s-.003-.089-.576-.087c-.573.001-.782.042-.466.09m206.042 0c.317.048.785.046 1.042-.003.256-.049-.003-.089-.576-.087-.573.001-.783.042-.466.09m-202.399.206c.258.049.68.049.938 0 .258-.05.047-.091-.469-.091s-.727.041-.469.091m198.75 0c.258.049.68.049.938 0 .258-.05.047-.091-.469-.091s-.727.041-.469.091m-195.104.21c.315.048.831.048 1.146 0 .315-.048.057-.087-.573-.087s-.888.039-.573.087m191.25 0c.315.048.831.048 1.146 0 .315-.048.057-.087-.573-.087s-.888.039-.573.087m-187.392.21c.374.047.937.046 1.25-.002.313-.047.007-.085-.681-.084-.687.001-.943.04-.569.086m183.542 0c.374.047.937.046 1.25-.002.313-.047.006-.085-.681-.084-.688.001-.944.04-.569.086m-179.379.205c.258.049.68.049.937 0 .258-.05.047-.091-.468-.091-.516 0-.727.041-.469.091m175.417 0c.257.049.679.049.937 0 .258-.05.047-.091-.469-.091-.515 0-.726.041-.468.091m-171.667.208c.258.05.68.05.937 0 .258-.05.047-.09-.468-.09-.516 0-.727.04-.469.09m167.917 0c.257.05.679.05.937 0s.047-.09-.469-.09c-.515 0-.726.04-.468.09m-164.163.212c.374.047.937.046 1.25-.002.313-.047.006-.085-.681-.084-.688.001-.944.04-.569.086m160.208 0c.374.047.937.046 1.25-.002.313-.047.007-.085-.681-.084-.687.001-.943.04-.569.086m-189.021 3.651-1.243 1.303 1.302-1.244c1.209-1.155 1.397-1.361 1.243-1.361-.032 0-.618.586-1.302 1.302m218.757-.052c.68.688 1.284 1.25 1.341 1.25.057 0-.453-.562-1.133-1.25-.68-.687-1.284-1.25-1.341-1.25-.057 0 .453.563 1.133 1.25m-242.405.052c.864.92 1.051 1.086 1.051.929 0-.033-.446-.479-.99-.989l-.989-.929.928.989m266.051.053c-.506.515-.874.937-.816.937.057 0 .518-.422 1.024-.937.506-.516.873-.938.816-.938-.057 0-.518.422-1.024.938m-262.292 2.706c0 .142 1.276.775 1.371.68.045-.046-.245-.239-.644-.429-.4-.191-.727-.304-.727-.251m257.917.314c-.401.22-.655.403-.563.408.221.012 1.396-.599 1.396-.726 0-.136-.012-.131-.833.318m-250.05 1.814c.259.05.634.048.833-.004.2-.052-.012-.093-.471-.09-.458.002-.621.045-.362.094m242.292 0c.259.05.634.048.833-.004.199-.052-.013-.093-.471-.09-.458.002-.621.045-.362.094m-168.492.127c0 .035.304.34.677.677l.677.612-.612-.678c-.57-.631-.742-.772-.742-.611m27.239 9.665c.258.049.68.049.938 0 .258-.05.047-.091-.469-.091s-.727.041-.469.091m5.486.973c.213.193 1.858.961 1.858.867 0-.118-1.572-.946-1.797-.946-.081 0-.108.036-.061.079m51.233 2.734c.389.401.754.729.811.729.057 0-.214-.328-.603-.729-.388-.401-.753-.729-.811-.729-.057 0 .214.328.603.729m-66.25.417c-.506.515-.873.937-.816.937.057 0 .518-.422 1.024-.937.506-.516.874-.938.816-.938-.057 0-.518.422-1.024.938m142.708.416c.389.401.754.729.811.729.058 0-.214-.328-.602-.729-.389-.401-.754-.729-.811-.729-.058 0 .214.328.602.729m-42.5 2.813c-.233.458-.378.833-.321.833.058 0 .296-.375.53-.833.233-.459.378-.834.321-.834-.058 0-.296.375-.53.834m-31.41 1.875c0 .401.043.565.096.364.052-.2.052-.528 0-.729-.053-.2-.096-.036-.096.365m-72.912 4.062c.002.459.045.621.095.362s.048-.634-.005-.833c-.052-.199-.092.013-.09.471m.004 1.979c0 .516.041.727.09.469.05-.258.05-.68 0-.937-.049-.258-.09-.047-.09.468m58.693.521c.389.401.754.729.811.729.058 0-.214-.328-.602-.729-.389-.401-.754-.729-.811-.729-.058 0 .214.328.602.729m4.928 2.448c.053.086.508.156 1.01.156s.956-.07 1.009-.156c.053-.086-.401-.156-1.009-.156-.608 0-1.063.07-1.01.156m-39.212 5.625-.611.677.677-.612c.372-.336.677-.641.677-.677 0-.161-.172-.019-.743.612m113.506-.319c.317.048.785.046 1.042-.003.256-.049-.003-.089-.576-.087-.573.001-.783.042-.466.09m-167.459 1.569-1.033 1.094 1.093-1.034c1.017-.961 1.19-1.154 1.034-1.154-.033 0-.525.493-1.094 1.094m126.883-.26c.448.458.861.833.918.833.057 0-.262-.375-.709-.833-.448-.459-.861-.834-.918-.834-.058 0 .262.375.709.834m-129.798 3.385-1.243 1.302 1.302-1.243c.716-.684 1.302-1.27 1.302-1.302 0-.154-.206.034-1.361 1.243m132.923-.052c.68.688 1.284 1.25 1.341 1.25.058 0-.452-.562-1.132-1.25-.681-.687-1.284-1.25-1.342-1.25-.057 0 .453.563 1.133 1.25m-86.719.352c.201.052.529.052.73 0 .2-.052.036-.095-.365-.095-.401 0-.565.043-.365.095m-49.427 3.086c-.506.515-.873.937-.816.937.058 0 .519-.422 1.025-.937.506-.516.873-.938.816-.938-.058 0-.519.422-1.025.938m139.367-.053c.863.92 1.05 1.086 1.05.929 0-.033-.445-.479-.99-.989l-.989-.929.929.989m2.916 3.125c.864.92 1.051 1.086 1.051.929 0-.033-.446-.479-.99-.989l-.989-.929.928.989m-145.313.209-.824.885.886-.823c.823-.766.981-.948.823-.948-.034 0-.432.399-.885.886m-3.011 3.177c-.506.515-.874.937-.816.937.057 0 .518-.422 1.024-.937.506-.516.873-.938.816-.938-.057 0-.518.422-1.024.938m151.354-.104c.447.458.86.833.918.833.057 0-.262-.375-.71-.833-.447-.459-.86-.834-.918-.834-.057 0 .262.375.71.834m-154.074 3.073-.718.781.781-.718c.728-.668.877-.845.718-.845-.034 0-.386.352-.781.782m156.886-.052c.389.401.754.729.811.729.058 0-.214-.328-.602-.729-.389-.402-.754-.73-.811-.73-.058 0 .214.328.602.73m-162.864-.378c.2.053.528.053.729 0 .2-.052.036-.095-.365-.095-.401 0-.565.043-.364.095m168.333 0c.201.053.529.053.729 0 .201-.052.037-.095-.364-.095-.401 0-.565.043-.365.095m-181.517 4.805-1.139 1.198 1.198-1.139c1.113-1.058 1.293-1.257 1.138-1.257-.032 0-.571.539-1.197 1.198m33.014-.521-.611.677.677-.612c.372-.337.677-.641.677-.677 0-.161-.172-.019-.743.612m162.201.469c.622.63 1.178 1.145 1.236 1.145.057 0-.405-.515-1.028-1.145-.622-.631-1.178-1.146-1.235-1.146-.058 0 .405.515 1.027 1.146m-108.75 3.101c0 .044.276.121.614.17.338.05.567.014.509-.08-.104-.167-1.123-.249-1.123-.09m21.377.09c-.058.094.171.13.509.08.338-.049.614-.126.614-.17 0-.159-1.019-.077-1.123.09m-17.783.975c.003.459.045.621.095.362s.048-.634-.004-.833c-.052-.199-.093.013-.091.471m15.209 0c.002.459.045.621.094.362.05-.259.048-.634-.004-.833-.052-.199-.093.013-.09.471m-15 3.334c.002.458.045.621.094.362.05-.259.048-.634-.004-.834-.052-.199-.093.013-.09.472m14.791 0c.003.458.045.621.095.362s.048-.634-.004-.834c-.052-.199-.093.013-.091.472m61.893 3.437c0 .859.036 1.211.081.781a9.053 9.053 0 0 0 0-1.562c-.045-.43-.081-.078-.081.781m-138.544.104c.001.802.039 1.105.084.673a7.799 7.799 0 0 0-.002-1.459c-.046-.37-.083-.016-.082.786m-32.932-.208c.002.458.045.621.095.362s.048-.634-.005-.833c-.052-.2-.092.013-.09.471m204.375 0c.002.458.045.621.095.362s.048-.634-.005-.833c-.052-.2-.092.013-.09.471m-109.365.521c0 .63.039.888.087.573a4.675 4.675 0 0 0 0-1.146c-.048-.315-.087-.058-.087.573m14.375 0c0 .63.039.888.087.573a4.675 4.675 0 0 0 0-1.146c-.048-.315-.087-.058-.087.573m-14.173 3.541c0 .516.041.727.091.469.049-.258.049-.68 0-.937-.05-.258-.091-.047-.091.468m13.959 0c0 .516.04.727.09.469.05-.258.05-.68 0-.937-.05-.258-.09-.047-.09.468m-13.747 3.23c.001.572.042.782.089.465a3.731 3.731 0 0 0-.002-1.041c-.05-.257-.089.003-.087.576m13.541 0c.002.572.042.782.09.465.048-.316.047-.785-.003-1.041-.049-.257-.088.003-.087.576m-80.691 3.593-1.139 1.198 1.198-1.139c.659-.626 1.198-1.165 1.198-1.197 0-.155-.2.025-1.257 1.138m147.715-.052c.622.63 1.178 1.146 1.236 1.146.057 0-.405-.516-1.028-1.146-.622-.63-1.178-1.146-1.235-1.146-.058 0 .405.516 1.027 1.146m-171.467-.052c.511.544.956.99.99.99.156 0-.009-.187-.929-1.051l-.99-.928.929.989m195.217.052c-.506.516-.873.938-.816.938.057 0 .518-.422 1.024-.938.506-.515.874-.937.816-.937-.057 0-.518.422-1.024.937m-104.11.104c0 .516.041.727.09.469.05-.258.05-.68 0-.937-.049-.258-.09-.047-.09.468m13.125 0c0 .516.041.727.09.469.05-.258.05-.68 0-.937-.049-.258-.09-.047-.09.468m-12.911 3.542c0 .63.039.888.087.573a4.578 4.578 0 0 0 0-1.146c-.048-.315-.087-.057-.087.573m12.708 0c0 .63.039.888.087.573a4.578 4.578 0 0 0 0-1.146c-.048-.315-.087-.057-.087.573m-93.549 1.191c.317.048.786.047 1.042-.003.256-.049-.003-.088-.576-.087-.573.002-.782.042-.466.09m173.542 0c.317.048.785.047 1.042-.003.256-.049-.003-.088-.576-.087-.573.002-.783.042-.466.09m-92.498 2.351c0 .515.04.726.09.468.05-.257.05-.679 0-.937s-.09-.047-.09.469m12.291 0c0 .515.041.726.091.468a3.005 3.005 0 0 0 0-.937c-.05-.258-.091-.047-.091.469m-18.085 5.052-1.034 1.094 1.094-1.034c1.016-.961 1.189-1.154 1.034-1.154-.033 0-.525.492-1.094 1.094m23.758-.052c.564.573 1.073 1.041 1.13 1.041.057 0-.358-.468-.922-1.041-.564-.573-1.073-1.042-1.13-1.042-.057 0 .358.469.922 1.042m-28.181 12.5c0 .401.043.565.095.364.053-.2.053-.528 0-.729-.052-.2-.095-.036-.095.365m32.708 0c0 .401.043.565.096.364.052-.2.052-.528 0-.729-.053-.2-.096-.036-.096.365m-30.985 5.625c.177.343.37.625.427.625.057 0-.041-.282-.219-.625-.178-.344-.37-.625-.428-.625-.057 0 .042.281.22.625m29.166 0c-.178.343-.276.625-.219.625.057 0 .25-.282.428-.625.177-.344.276-.625.219-.625-.058 0-.25.281-.428.625m-26.562 3.437c.622.63 1.178 1.146 1.235 1.146.058 0-.405-.516-1.027-1.146-.622-.63-1.178-1.146-1.236-1.146-.057 0 .405.516 1.028 1.146m23.951.052-1.139 1.198 1.198-1.139c1.113-1.057 1.293-1.257 1.139-1.257-.033 0-.572.539-1.198 1.198m-12.545 4.995a6.66 6.66 0 0 0 1.354 0c.372-.047.068-.084-.677-.084-.745 0-1.049.037-.677.084" fill="#ececec"/><path d="M193.452 105.327c-.076.306-.099.596-.05.645.049.049.152-.161.229-.466.077-.305.099-.595.05-.644-.049-.05-.152.16-.229.465m12.827-.327c0 .172.081.5.179.729.113.263.179.301.179.104 0-.172-.08-.5-.179-.729-.113-.262-.179-.301-.179-.104m-92.474 28.899c.317.048.785.047 1.042-.002.256-.05-.003-.089-.576-.087-.573.001-.783.042-.466.089m171.458 0c.317.048.786.047 1.042-.002.256-.05-.003-.089-.576-.087-.573.001-.782.042-.466.089m-162.971.383c0 .064.293.415.651.781l.651.666-.572-.781c-.548-.75-.73-.916-.73-.666m154.591.77-.488.677.657-.612c.696-.648.757-.742.487-.742-.093 0-.388.305-.656.677m-151.289 2.821c.257.361.575.723.707.804.131.082.029-.147-.228-.508s-.575-.723-.707-.804c-.132-.082-.029.147.228.508m148.752-.217c-.661.798-.899 1.168-.658 1.024.266-.16 1.192-1.388 1.046-1.388-.047 0-.222.164-.388.364m-145.836 3.342c.257.361.576.723.707.804.132.082.03-.147-.227-.508s-.576-.723-.707-.804c-.132-.082-.03.147.227.508m142.502.304c-.337.48-.368.591-.107.382.371-.298.859-1.059.679-1.059-.054 0-.311.305-.572.677m-2.886 2.968c-.269.286-.436.573-.372.637.065.064.321-.17.571-.52.549-.772.463-.822-.199-.117m-136.459.054c0 .115.14.325.312.468.174.144.313.167.313.051 0-.115-.141-.325-.313-.468-.174-.145-.312-.167-.312-.051m44.506 2.15c-.303.239-.658.637-.789.886-.145.275.101.125.626-.381.475-.458.865-.857.865-.885 0-.126-.189-.024-.702.38m-41.411 1.182c.261.373.518.677.572.677.18 0-.308-.76-.679-1.058-.261-.21-.23-.099.107.381m-43.511.364c-.681.725-.444.783.268.066.32-.322.5-.586.401-.586-.099 0-.401.234-.669.52m173.518-.051c-.245.466-.244.466.201.072.496-.441.542-.541.246-.541-.111 0-.312.211-.447.469m-126.852 3.073c.244.343.492.625.549.625.057 0-.096-.282-.341-.625-.245-.344-.492-.625-.549-.625-.057 0 .096.281.341.625m123.958 0c-.245.343-.398.625-.341.625.057 0 .305-.282.549-.625.245-.344.398-.625.341-.625-.057 0-.304.281-.549.625m-173.493 4.166c0 .401.043.565.095.365a1.723 1.723 0 0 0 0-.729c-.052-.201-.095-.037-.095.364m21.413-.086c.002.219.098.539.215.711.154.229.173.144.071-.312-.171-.766-.29-.932-.286-.399m65.751 8.532c.19.291.542.634.782.763.281.15.181-.037-.284-.53-.847-.898-.973-.956-.498-.233m63.465 11.659c.002.458.045.621.095.362s.048-.634-.005-.834c-.052-.199-.092.013-.09.472m-159.41 8.929c.047.041.368.137.712.214.456.102.54.083.312-.071-.281-.191-1.233-.324-1.024-.143m239.774.143c-.228.154-.144.173.313.071.766-.171.932-.29.399-.286a1.51 1.51 0 0 0-.712.215m-109.44.412c-.076.284-.13.75-.12 1.036.013.374.073.29.211-.298.211-.902.13-1.564-.091-.738m-35.912 5.159c-.137.087.114.158.56.158.446 0 .698-.071.561-.158a1.228 1.228 0 0 0-.561-.158c-.172 0-.424.071-.56.158m-68.085 3.586c-.568.144-.577.16-.105.169a2.73 2.73 0 0 0 .938-.169c.514-.221.034-.221-.833 0m187.291-.01c.4.181 1.516.299 1.337.141-.048-.042-.462-.133-.92-.203-.581-.088-.707-.07-.417.062m-187.795 12.795c.048.042.462.133.92.203.581.088.707.07.417-.062-.4-.181-1.516-.299-1.337-.141m187.795.141c-.29.132-.164.15.417.062.458-.07.872-.161.92-.203.179-.158-.937-.04-1.337.141M80 215.625c-.429.137-.447.17-.104.184.229.01.557-.073.729-.184.365-.236.112-.236-.625 0m239.375-.01c.172.117.492.213.712.215.533.004.367-.115-.399-.286-.457-.102-.541-.083-.313.071m-170.087 9.032c.202.113.508.113.762 0 .349-.156.29-.189-.338-.189-.565 0-.674.049-.424.189m154.722 2.163c.201.053.529.053.73 0 .2-.052.036-.095-.365-.095-.401 0-.565.043-.365.095m8.837 18.659c-.21.219-.342.439-.294.487.049.049.259-.1.468-.331.489-.541.33-.683-.174-.156m-51.089 3.35c.321.42.625.764.677.764.144 0-.757-1.218-1.024-1.383-.13-.081.026.198.347.619m-123.841.139c-.245.344-.398.625-.341.625.057 0 .304-.281.549-.625.245-.343.398-.625.341-.625-.057 0-.305.282-.549.625m32.708 1.771c.143.172.353.313.468.313.116 0 .093-.139-.051-.313-.143-.172-.353-.312-.468-.312-.116 0-.094.138.051.312m-35.729 1.354c-.208.23-.272.417-.144.417.128 0 .334-.187.456-.417.123-.229.188-.416.144-.416-.043 0-.249.187-.456.416m129.896 0c.122.23.328.417.456.417s.064-.187-.144-.417c-.207-.229-.413-.416-.456-.416-.044 0 .021.187.144.416m-132.917 3.23c-.147.177-.221.369-.164.426.058.058.225-.041.372-.218.148-.178.221-.37.164-.427-.057-.057-.225.041-.372.219m135.833-.141c0 .095.251.399.558.677l.558.505-.468-.677c-.472-.683-.648-.82-.648-.505m-138.779 3.318c-.661.797-.898 1.167-.657 1.023.266-.16 1.191-1.388 1.045-1.388-.047 0-.222.164-.388.365m142.083.208c.261.372.518.677.572.677.18 0-.308-.761-.679-1.059-.261-.209-.23-.098.107.382m-144.999 2.917c-.661.797-.899 1.167-.658 1.023.266-.16 1.191-1.388 1.046-1.388-.048 0-.222.164-.388.365m147.914.216c.257.361.575.723.707.804.132.082.029-.147-.228-.508s-.575-.723-.707-.804c-.131-.082-.029.147.228.508m3.055 3.227c.317.433.62.743.673.689.054-.053-.205-.407-.575-.787l-.674-.689.576.787m-154.273.045c-.269.286-.436.573-.371.637.064.065.321-.169.57-.52.55-.771.464-.822-.199-.117m-8.904 1.088c.317.048.785.047 1.042-.003.256-.049-.003-.088-.576-.087-.573.002-.783.042-.466.09m171.458 0c.317.048.786.047 1.042-.003.256-.049-.003-.088-.576-.087-.573.002-.782.042-.466.09m-91.9 27.976c0 .172.08.5.179.729.113.262.179.301.179.104 0-.172-.081-.5-.179-.729-.113-.263-.179-.301-.179-.104m13.006.327c-.077.305-.099.595-.05.644.049.05.152-.16.229-.465.076-.306.099-.596.05-.645-.049-.049-.152.161-.229.466" fill="#f4f4f4"/></g></svg>