<?xml version="1.0" encoding="utf-8"?>
<!-- Generator: Adobe Illustrator 26.0.1, SVG Export Plug-In . SVG Version: 6.00 Build 0)  -->
<svg version="1.1" xmlns="http://www.w3.org/2000/svg" xmlns:xlink="http://www.w3.org/1999/xlink" x="0px" y="0px"
	 viewBox="0 0 1000 1000" style="enable-background:new 0 0 1000 1000;" xml:space="preserve">
<style type="text/css">
	.st0{display:none;}
	.st1{display:inline;stroke:#000000;stroke-miterlimit:10;}
	.st2{display:inline;fill:#FFFFFF;stroke:#000000;stroke-miterlimit:10;}
	.st3{fill:#FFFFFF;}
</style>
<g id="Layer_1" class="st0">
	<rect class="st1" width="1000" height="1000"/>
</g>
<g id="Layer_2" class="st0">
	<polyline class="st2" points="476.96,99.33 212.19,780.49 145.39,751.65 402.72,77.14 	"/>
	<path class="st2" d="M594.03,899.29c4.95-6.66,259.81-687.82,259.81-687.82L478.31,100.71l-265.83,679.5L594.03,899.29z"/>
</g>
<g id="Layer_3">
	<path class="st3" d="M434.75,119.71L218.6,763.99l518.75,174.04l216.16-644.29L434.75,119.71z M712.8,571.92l-47.11,140.42
		c-2.25,7.87-11.67,12.06-19.18,9.54l-83.99-28.18l-13.9,41.42c-2.7,8.05-11.28,11.8-19.18,9.54c-7.87-2.25-12.06-11.67-9.54-19.18
		l13.9-41.42l-103.08-34.58c-8.05-2.7-11.8-11.28-9.54-19.18c2.25-7.87,11.67-12.06,19.18-9.54l103.08,34.58l39.61-118.08
		l-110.42-37.04c-7.87-2.25-12.06-11.67-9.54-19.18l51.71-154.14c2.7-8.05,11.28-11.8,19.18-9.54c3.25,0.93,5.86,3.09,7.64,5.83
		l101.79,34.15l12.42-37.02c2.7-8.05,11.28-11.8,19.18-9.54c7.87,2.25,12.06,11.67,9.54,19.18l-12.42,37.02l85.46,28.67
		c8.05,2.7,11.8,11.28,9.54,19.18c-2.25,7.87-11.67,12.06-19.18,9.54l-85.46-28.67l-41.09,122.48l85.46,28.67
		c8.05,2.7,11.8,11.28,9.54,19.18C715.75,568.34,714.46,570.32,712.8,571.92z"/>
	
		<rect x="500.61" y="380.54" transform="matrix(0.3181 -0.9481 0.9481 0.3181 -23.3779 829.8943)" class="st3" width="129.19" height="101.32"/>
	
		<rect x="564.51" y="580.9" transform="matrix(0.3181 -0.9481 0.9481 0.3181 -158.1342 1015.4048)" class="st3" width="124.54" height="73.45"/>
	
		<rect x="-46.44" y="400.66" transform="matrix(0.3181 -0.9481 0.9481 0.3181 -208.2588 571.8043)" class="st3" width="679.58" height="60.02"/>
</g>
</svg>
