<svg xmlns="http://www.w3.org/2000/svg" width="400" height="400"><g fill-rule="evenodd"><path d="M157.1 45.465c.293.118.5.926.5 1.953 0 2.911-1.528 3.782-6.64 3.782-2.397 0-2.573.065-3.139 1.159-.587 1.136-3.309 2.441-5.092 2.441-.494 0-.729.297-.729.92 0 1.176-.709 1.88-1.893 1.88-.539 0-1.023.295-1.148.7-.446 1.442-.876 1.904-2.101 2.255-1.069.307-1.258.55-1.258 1.625 0 .876-.411 1.713-1.341 2.728-1.206 1.316-1.368 1.779-1.603 4.578-.48 5.718-1.764 8.336-3.932 8.018-.637-.094-1.286.024-1.442.263-.155.238-.386-.737-.513-2.167-.127-1.43-.262 6.623-.3 17.895l-.069 20.496-15.5.104-15.5.105v240.4h209.2V114.2l-15.5-.105-15.5-.104-.032-19.296c-.017-10.612-.107-19.114-.201-18.892-.264.629-3.641.203-4.283-.541-.929-1.078-1.484-3.223-1.484-5.741 0-2-.152-2.5-.996-3.283-1.071-.992-2.204-3.34-2.204-4.567 0-.508-.423-.877-1.288-1.125-.964-.276-1.38-.689-1.652-1.636-.294-1.026-.599-1.29-1.599-1.389-.988-.097-1.305-.364-1.581-1.334-.298-1.044-.629-1.281-2.377-1.696-2.081-.494-3.503-1.432-3.503-2.31 0-.715-.957-.981-3.533-.983-2.559-.003-4.985-.57-5.58-1.305-.593-.732-.849-4.232-.326-4.449.242-.099-19.091-.181-42.961-.181-23.87 0-43.175.091-42.9.202m11.7 25.287c.67.183 1.126.698 1.383 1.56l.382 1.288h59.012l.334-1.288c.708-2.731 8.764-2.445 11.16.396.479.568 1.463 1.226 2.187 1.463 1.04.339 1.385.725 1.648 1.842.203.866.673 1.564 1.211 1.8 2.004.882 2.075 1.52 2.198 19.987.064 9.46.021 17.581-.094 18.047-.472 1.907-5.482 1.508-5.824-.463l-.205-1.184-43.696-.102-43.696-.102V89.365l-1.278-.382c-2.844-.852-2.478-10.054.461-11.574.851-.44 1.217-.923 1.217-1.605 0-1.043 1.002-1.804 2.374-1.804.454 0 .826-.25.826-.556 0-2.213 6.235-3.827 10.4-2.692" fill="#fcfcfc"/><path d="M142.2 46.8c-.254 1.501-.355 1.6-1.635 1.6-1.326 0-1.365.046-1.365 1.6v1.6H136v3.6h1.705c1.377 0 1.781-.171 2.1-.888.25-.563.905-.991 1.789-1.169.766-.154 1.802-.756 2.302-1.336.558-.649 1.948-1.394 3.606-1.932L150.2 49l.122-1.9.122-1.9h-7.974l-.27 1.6m107.4.122c0 1.921.324 2.194 3.904 3.283.937.286 2.338 1.076 3.114 1.757.775.681 1.858 1.238 2.406 1.238.694 0 1.111.303 1.376 1 .319.838.641 1 1.99 1H264v-3.6h-3.2V50c0-1.557-.037-1.6-1.376-1.6-1.301 0-1.382-.081-1.5-1.5l-.124-1.5-4.1-.114-4.1-.114v1.75m-116.8 8.029c0 .083.305.398.677.7.383.311.554.344.394.078-.176-.294.059-.537.623-.646.662-.127.556-.189-.394-.229-.715-.029-1.3.014-1.3.097m133.909.555c-.102.389-.046 1.064.125 1.5.236.605.316.437.338-.706.03-1.607-.164-1.939-.463-.794M129.6 59.4c0 1.332-.068 1.4-1.392 1.4-1.712 0-1.893.523-1.727 5.001L126.6 69l1.637.12 1.637.12.863-2.256c.475-1.24.863-2.6.863-3.022 0-.422.45-1.159 1-1.637.778-.676 1-1.253 1-2.597V58h-4v1.4m136.8.2c0 1.095.267 1.867.845 2.445.464.464 1.016 1.468 1.227 2.23 1.094 3.963 1.814 4.983 3.424 4.849L273.4 69v-8l-1.5-.124c-1.419-.118-1.5-.199-1.5-1.5V58h-4v1.6M165.121 72.38c-2.023.393-2.721 1.077-2.721 2.669V76.4h8v-1.557c0-1.469-1.969-3.04-3.508-2.797a92.17 92.17 0 0 0-1.771.334m66.669.144c-1.787.576-2.19 1.041-2.19 2.525V76.4h6.4v3.2h3.2v1.6c0 1.561.034 1.6 1.395 1.6h1.396l.104 15.7.105 15.7 1.521.743c3.156 1.542 3.141 1.62 3.001-15.725-.125-15.384-.229-16.419-1.735-17.312-.273-.162-.609-.882-.748-1.6-.311-1.611-3.827-5.506-4.969-5.506-.445 0-1.375-.476-2.067-1.059-1.481-1.246-3.745-1.755-5.413-1.217m-74.987 5.536c-.662.913-1.203 1.785-1.203 1.938 0 .153-.445.795-.989 1.428-2.453 2.855-1.462 7.574 1.59 7.574h1.599l.117-3.1.117-3.1h2.766v-6.4h-1.397c-1.179 0-1.586.26-2.6 1.66" fill="#363636"/><path d="M150.322 47.1 150.2 49l-2.698.875c-1.658.538-3.048 1.283-3.606 1.932-.5.58-1.536 1.182-2.302 1.336-.904.182-1.535.602-1.794 1.197-.348.797-.66.906-2.4.838-3.252-.126-3.88-.033-3.547.522.204.34.084.324-.376-.049-.612-.497-.677-.411-.677.9 0 .797.18 1.449.4 1.449.906 0 .43 3.429-.6 4.325-.55.478-1 1.215-1 1.637 0 .422-.391 1.788-.869 3.037l-.869 2.271-1.748-.139-1.748-.139.117 2.204.117 2.204 1.6.2c2.392.299 3.106-.864 4.24-6.902.377-2.004.738-2.854 1.398-3.286.49-.321 1.098-1.211 1.351-1.979.253-.767.805-1.504 1.225-1.638.421-.133 1.125-.748 1.565-1.366.44-.618 1.347-1.35 2.016-1.627.687-.284 1.315-.9 1.444-1.414.162-.648.621-.985 1.583-1.166.745-.14 1.585-.576 1.867-.97.917-1.285 2.452-1.995 6.02-2.789 4.149-.922 4.563-1.205 4.758-3.247.165-1.725-.369-2.016-3.695-2.016h-1.528l-.122 1.9m94.653-1.628c-.72.143-.796.374-.6 1.831.262 1.939.92 2.383 4.625 3.115 3.89.768 4.834 1.145 5.914 2.356.563.632 1.553 1.265 2.199 1.407.706.155 1.356.653 1.626 1.245.247.542.941 1.208 1.542 1.48 1.535.694 4.457 3.706 4.757 4.904.139.552.688 1.346 1.222 1.766.724.569 1.121 1.507 1.566 3.693 1.062 5.23 1.839 6.303 4.352 6.009l1.422-.166v-4.133l-1.596.152c-1.717.164-2.409-.788-3.532-4.856-.211-.762-.763-1.766-1.227-2.23-.9-.9-1.227-4.045-.421-4.045.233 0 .296-.206.14-.458-.155-.251-.267-.984-.249-1.627.026-.937-.074-1.081-.505-.723-.34.282-.628.303-.78.057-.137-.223-1.177-.293-2.424-.165-2.081.215-2.203.176-2.585-.829-.285-.75-.689-1.055-1.397-1.055-.548 0-1.631-.557-2.406-1.238-.776-.681-2.177-1.471-3.114-1.757-3.574-1.087-3.904-1.363-3.904-3.269V45.2l-1.9.054c-1.045.03-2.271.129-2.725.218M165.2 71.003c-.33.079-1.268.253-2.084.386-.919.149-1.971.731-2.759 1.526-.701.707-1.825 1.478-2.498 1.715-.81.284-1.555 1.029-2.201 2.2-.537.973-1.123 1.828-1.302 1.898-2.113.833-3.036 8.229-1.212 9.707 1.433 1.161 1.677.924.764-.743-.985-1.798-.764-4.484.502-6.092.433-.55 1.373-1.9 2.089-3 1.288-1.98 1.324-2.001 3.601-2.12l2.3-.12v-1.331c0-2.31 3.41-3.62 6.29-2.417 1.719.718 1.967.585 1.02-.546-.681-.814-3.137-1.393-4.51-1.063m66.567.218c-.681.203-1.429.797-1.671 1.328-.427.938-.412.948.633.437 2.234-1.091 4.391-.88 6.271.614.831.66 1.863 1.2 2.294 1.2 1.118 0 4.638 3.919 4.945 5.506.139.718.475 1.438.748 1.6 1.506.893 1.61 1.928 1.735 17.312.139 17.209.16 17.095-2.879 15.826-1.518-.634-1.773-.448-.942.689.831 1.135 3.253 1.313 4.254.312.831-.831.845-1.098.843-16.545-.003-16.634-.155-18.26-1.818-19.35-.539-.353-.98-.954-.98-1.336 0-1.247-2.221-3.812-3.993-4.611-.944-.425-2.218-1.275-2.831-1.888-.769-.769-1.527-1.117-2.445-1.12-.732-.003-1.691-.081-2.131-.173-.44-.093-1.355-.003-2.033.199" fill="#d4d4d4"/><path d="M155.009 45.47c.68.136.785.412.66 1.731-.194 2.024-.632 2.347-4.366 3.21-3.476.803-2.869 1.003 1.097.363 3.745-.604 4.4-1.138 4.4-3.583 0-1.991 0-1.991-1.3-1.937-.768.033-.969.121-.491.216m88.204 1.43c.021 2.815 1.071 3.476 6.557 4.128 1.636.194 2.627.547 3.2 1.14 1.188 1.228 2.885 2.236 3.716 2.207.541-.02.485-.117-.232-.404-.52-.209-1.287-.814-1.706-1.346-.808-1.028-1.9-1.447-5.748-2.207-3.705-.732-4.363-1.176-4.625-3.115-.196-1.457-.12-1.688.6-1.831.508-.1.324-.184-.475-.218-1.273-.053-1.3-.019-1.287 1.646m-96.824 4.98c-.544.374-1.224 1.004-1.512 1.4-.287.396-.812.72-1.166.72-.355 0-.53.114-.39.254.434.434 2.556-.665 3.646-1.888 1.162-1.304.915-1.513-.578-.486m-4.941 3.469c-.139.555-.744 1.159-1.453 1.453-.669.277-1.576 1.009-2.016 1.627-.44.618-1.144 1.233-1.565 1.366-.42.134-.972.871-1.225 1.638-.253.768-.894 1.68-1.425 2.027-.53.348-.964.804-.964 1.013 0 .884 2.453-1.44 2.671-2.53.152-.759.651-1.392 1.403-1.781.642-.332 1.31-.989 1.484-1.46.174-.471.903-1.053 1.62-1.295 1.201-.404 2.972-3.007 2.046-3.007-.185 0-.444.427-.576.949m117.025.536c.076.392.745.999 1.488 1.35.742.351 1.599 1.114 1.905 1.696.305.582 1 1.171 1.544 1.307.545.137.99.439.99.672 0 .233.103.321.228.195.283-.282-3.295-3.905-3.857-3.905-.224 0-.864-.456-1.421-1.014-.806-.806-.986-.867-.877-.301m6.352 6.366c-.014.468.274 1.098.64 1.4.365.302 1.012 1.089 1.437 1.749l.772 1.2-.265-1.182c-.146-.65-.626-1.435-1.066-1.743-.44-.308-.956-.946-1.146-1.418l-.346-.857-.026.851m2.809 5.429c-.057 1.829.785 5.037 1.591 6.061.721.917 3.975 1.737 3.975 1.002 0-.153.115-.578.256-.946.212-.551.019-.655-1.1-.592-.746.042-1.577.058-1.847.036-.804-.067-1.845-2.007-2.359-4.399-.282-1.307-.497-1.792-.516-1.162m-135.574.76c-.19 3.302-1.713 5.405-3.789 5.234-1.465-.12-1.524-.079-1.4 1 .209 1.828 2.735 1.859 3.853.047 1.033-1.673 1.792-4.655 1.568-6.161-.165-1.109-.175-1.114-.232-.12m28.879 3.132c-.914.415-1.773 1.106-1.91 1.536-.137.431-.827.947-1.538 1.15-.927.265-1.492.794-2.002 1.872-.391.827-.984 1.608-1.317 1.736-.845.325-2.178 3.076-2.14 4.418.033 1.166.146 1.01.523-.715.124-.567.68-1.521 1.235-2.12.555-.599 1.422-1.832 1.927-2.739.588-1.057 1.357-1.805 2.142-2.08.673-.237 1.797-1.008 2.498-1.715.788-.795 1.84-1.377 2.759-1.526 2.572-.42 2.726-.495 1.084-.534-.88-.021-2.348.302-3.261.717m69.761-.34c-.385.224-.697.624-.694.888.005.344.099.334.334-.037.181-.284.853-.674 1.494-.866.803-.24.917-.355.366-.37-.44-.013-1.115.161-1.5.385m5.056-.054c1.35.187 2.217.573 2.8 1.247.464.536 1.637 1.33 2.606 1.764 1.816.813 4.038 3.357 4.038 4.625 0 .382.445.986.989 1.342.544.357 1.173 1.232 1.398 1.946l.41 1.298-.184-1.566c-.119-1.014-.6-2.001-1.362-2.8-.648-.679-1.447-1.889-1.776-2.69-.44-1.072-.961-1.576-1.977-1.912-.759-.25-1.812-.917-2.339-1.482-1.411-1.51-2.903-2.157-4.839-2.097l-1.72.054 1.956.271M248.182 99.4c0 8.58.053 12.033.118 7.674.064-4.36.064-11.38-.001-15.6-.064-4.221-.117-.654-.117 7.926m-96.136-12.349c-.025.468.269 1.098.654 1.4.609.477.64.471.243-.051-.251-.33-.545-.96-.654-1.4-.186-.76-.199-.757-.243.051m90.366 28.4c-.018.66 1.079 1.458 1.675 1.218.33-.132.271-.217-.167-.237-.374-.018-.864-.347-1.088-.732-.224-.385-.413-.497-.42-.249" fill="#dcdcdc"/></g></svg>