<?xml version="1.0" encoding="utf-8"?>
<!-- Generator: Adobe Illustrator 28.2.0, SVG Export Plug-In . SVG Version: 6.00 Build 0)  -->
<svg version="1.1" id="Layer_2" xmlns="http://www.w3.org/2000/svg" xmlns:xlink="http://www.w3.org/1999/xlink" x="0px" y="0px"
	 viewBox="0 0 512 512" style="enable-background:new 0 0 512 512;" xml:space="preserve">
<style type="text/css">
	.st0{fill:#FFFFFF;}
</style>
<path class="st0" d="M130.74,41.6l6.1-8.25c0,0,21.52-15.42,24.39-15.78c2.87-0.36,54.15-13.27,54.15-13.27L275.98,0
	c0,0,49.13,2.87,50.92,2.87c1.79,0,40.88,8.61,45.9,10.04c5.02,1.43,38.01,16.85,38.01,16.85l8.25,14.34l-7.89,20.08L389.3,81.05
	l-38.73,12.91c0,0-52,8.61-54.87,8.61c-2.87,0-74.23-4.66-74.23-4.66l-41.6-10.04l-28.69-14.34l-15.42-13.63L130.74,41.6z"/>
<path class="st0" d="M138.81,85.35V175l-8.07,1.79v8.97l4.03,16.14c0,0,9.59,10.76,14.25,12.19c4.66,1.43,32.99,16.14,32.99,16.14
	s47.7,9.68,49.13,9.68s38.01,2.15,43.75,2.15c5.74,0,51.28-3.94,51.28-3.94S374.6,227,376.39,227s30.48-17.57,30.48-17.57
	l12.19-16.85v-8.97l-2.15-5.74l-1.79-2.51l-3.59-1.08l-0.72-88.94l-6.46,3.23l-15.42,5.74l-30.84,10.4l-44.47,6.1
	c0,0-47.7,2.51-50.21,2.51s-38.37-3.23-40.52-3.23c-2.15,0-38.73-6.1-38.73-6.1l-26.54-7.17L138.81,85.35z"/>
<path class="st0" d="M158.04,231.4l7.26,10.09l9.14,18.02l4.17,11.3l3.09,17.08c0,0-0.94,8.47-0.94,9.01
	c0,0.54-2.15,11.7-2.56,12.51s-4.84,10.35-4.84,10.35l-7.4,10.22l-5.51,4.44l-1.08,0.81l-4.98-2.15l-5.11,2.15l-3.09,2.82
	c0,0-0.94,6.32-1.08,6.72s4.57,5.92,4.57,5.92l13.72,8.2c0,0,16.27,6.99,18.29,6.99c2.02,0,25.15,6.46,25.15,6.46
	s13.18,2.96,19.9,2.96c6.72,0,21.52,2.69,23.13,2.69s27.97,0,27.97,0l38.46-1.34c0,0,31.74-5.65,32.54-5.65
	c0.81,0,24.48-7.8,24.48-7.8l19.37-7.8l16.41-12.1l9.95-16.68v-12.64l-6.99-2.96L411,221.17l-17.75,8.88l-24.21,8.88
	c0,0-38.19,8.34-39,8.61c-0.81,0.27-44.65,2.69-44.65,2.69l-38.19-0.81c0,0-24.21-1.88-25.28-1.88c-1.08,0-28.24-4.03-28.24-4.03
	l-21.79-6.99L158.04,231.4z"/>
<path class="st0" d="M129.26,218.89l-8.74,10.76l-9.68,12.42l-9.68,17.57c0,0-6.32,16.81-6.32,17.21s-2.15,13.85-2.15,13.85
	s1.48,11.97,1.88,13.04c0.4,1.08,8.07,14.25,8.07,14.25s10.62,8.34,11.03,8.47c0.4,0.13,10.49,3.36,10.49,3.36h11.3l12.91-5.51
	l7.67-7.26c0,0,6.46-10.62,6.72-11.16c0.27-0.54,4.03-14.66,4.03-14.66l-2.42-14.39l-6.59-17.21l-10.62-16.94l-9.82-13.85
	L129.26,218.89z"/>
<path class="st0" d="M138.45,357.72v86.96l-3.77,1.08l-4.95,6.46c0,0,1.91,9.68,2.08,10.22c0.18,0.54,6.81,12.55,7.89,13.45
	c1.08,0.9,13.81,11.65,13.81,11.65s18.11,8.25,19.01,8.61s34.25,10.04,35.5,10.4s40.88,5.2,43.21,5.38c2.33,0.18,49.13,0,49.13,0
	l48.59-7.35l33.35-11.3c0,0,21.16-10.76,21.7-11.12c0.54-0.36,12.73-15.78,12.73-15.78l2.33-11.48l-1.43-6.81l-1.97-2.33l-4.84-1.26
	l0.18-85.89l-4.84,3.94c0,0-5.02,1.43-5.74,2.15s-16.14,6.81-16.14,6.81l-12.55,3.59l-13.27,4.66l-20.08,3.05l-30.48,4.12
	c0,0-29.41,0.9-29.94,1.08c-0.54,0.18-38.91-1.61-39.45-1.61s-24.39-2.33-25.1-2.33s-28.51-6.1-28.51-6.1s-16.85-5.56-18.11-5.56
	c-1.26,0-18.11-8.07-18.11-8.07L138.45,357.72z"/>
</svg>
