<svg xmlns="http://www.w3.org/2000/svg" width="400" height="433.898"><g fill-rule="evenodd"><path d="M330.204 37.994c-.155.25-.697.613-1.205.807-.509.193-1.611 1.397-2.45 2.675-.84 1.278-1.854 2.565-2.255 2.859-.4.294-1 1.214-1.333 2.045-.332.831-1.04 1.71-1.572 1.952s-1.239 1.091-1.571 1.886c-.396.948-1.015 1.601-1.797 1.897-.823.31-1.272.809-1.447 1.605-.16.727-.745 1.444-1.582 1.938-.73.431-1.508 1.301-1.729 1.933-.22.632-1.138 1.865-2.039 2.739-.9.874-1.828 2.136-2.061 2.803-.232.668-.856 1.498-1.385 1.844-.529.347-1.258 1.205-1.622 1.907-.769 1.488-1.527 2.316-2.119 2.316-.232 0-.792.727-1.245 1.616-.454.889-1.239 1.774-1.746 1.966-.507.193-1.154.912-1.438 1.598-.284.686-1.302 1.939-2.262 2.784-.96.845-1.746 1.838-1.746 2.206 0 .368-.652 1.336-1.449 2.15-.797.814-1.612 1.939-1.811 2.501-.2.561-.898 1.336-1.551 1.722-.654.386-1.189 1.039-1.189 1.451 0 .807-1.763 2.406-2.654 2.406-.3 0-.546.366-.546.814 0 .447-.765 1.634-1.7 2.637a438.68 438.68 0 0 0-2.549 2.753l-.848.93.848.227c.467.126 4.761.231 9.543.234 9.407.005 11.733.344 13.217 1.923l.889.946.11 54.171.109 54.171 24.491-.103L355 208.2l.2-54.439c.16-43.415.304-54.563.712-55.055.969-1.168 3.916-1.506 13.165-1.512 9.479-.006 10.684-.175 9.524-1.336-.362-.362-.823-.658-1.025-.658-.201 0-.847-.765-1.434-1.7-.588-.935-1.892-2.562-2.898-3.615-1.006-1.054-1.997-2.215-2.202-2.581-.204-.366-.863-1.078-1.463-1.583-.601-.505-1.197-1.338-1.326-1.851-.128-.513-.681-1.137-1.227-1.385-.546-.249-1.346-1.135-1.776-1.969-.431-.834-1.156-1.741-1.611-2.016-.456-.275-1.085-1.085-1.399-1.8-.314-.715-1.193-1.938-1.952-2.717-.76-.779-1.66-1.955-2.001-2.614-.34-.658-1.061-1.434-1.602-1.723-.541-.29-1.372-1.218-1.847-2.063-.475-.846-1.207-1.646-1.627-1.78-.42-.133-1.089-.941-1.487-1.795-.398-.854-1.125-1.74-1.615-1.968-.49-.228-1.21-1.029-1.6-1.779-.82-1.578-3.376-4.95-5.504-7.261-.811-.88-1.816-2.185-2.234-2.9-.417-.715-1.011-1.3-1.319-1.3-.611 0-1.85-1.662-1.855-2.486-.001-.283-.533-.816-1.182-1.185-.649-.37-1.449-1.315-1.777-2.1-.329-.786-.782-1.429-1.007-1.429-.225 0-1.025-.914-1.778-2.031-.839-1.247-1.476-1.855-1.649-1.575M83.897 50.96c.169 1.505.073 1.828-.661 2.221-1.259.673-5.164 1.873-7.229 2.219-1.268.214-2.145.68-3 1.598-.664.713-1.873 1.511-2.688 1.774-.814.262-1.589.817-1.72 1.232-.132.415-.56.857-.952.981-1.21.384-5.498 4.755-5.782 5.894-.148.593-.798 1.39-1.443 1.772-1.029.608-1.23 1.042-1.626 3.521-.926 5.782-1.905 7.428-4.419 7.428-2.051 0-1.965-.99-1.972 22.9l-.005 21.1H18.8v260.8h226.8V123.6H212V78.994l-1.7.135c-2.508.2-3.365-.896-4.183-5.351-.526-2.867-.862-3.742-1.779-4.639-.622-.608-1.422-1.833-1.778-2.722-.356-.889-.78-1.617-.942-1.617-.489 0-2.018-1.462-2.018-1.928 0-.239-.634-.735-1.408-1.103-.774-.367-1.76-1.162-2.19-1.766-.43-.605-1.299-1.202-1.93-1.329-.631-.126-1.773-.855-2.538-1.62-.918-.918-1.925-1.479-2.962-1.649-6.271-1.031-9.176-3.209-7.627-5.716.237-.384-10.164-.489-48.472-.489H83.698l.199 1.76m14.976 26.695c.37.189.787.704.927 1.145.251.791.6.8 32.298.8h32.044l1.045-1.252c1.814-2.173 8.477-1.519 9.108.893.109.417.544.759.968.759 2.227 0 5.132 2.582 5.803 5.157.137.527.808 1.457 1.492 2.067l1.242 1.11.114 18.333c.115 18.332.115 18.333-.744 19.033-1.472 1.2-3.841.635-4.794-1.144l-.511-.956H83.2V96.487l-1.014-.255c-2.32-.582-2.483-7.103-.244-9.745.693-.818 1.708-2.334 2.256-3.368.826-1.559 1.241-1.928 2.422-2.149.84-.158 1.674-.647 2.031-1.191 1.607-2.454 7.275-3.631 10.222-2.124m50.7 75.507c.73 1.025.827 1.748.827 6.141 0 6.543-.577 7.632-4.143 7.818l-2.316.121.136 1.879.137 1.879 6.693.11 6.693.109v3.181h13.554l.123 1.7.123 1.7 3.3.116 3.3.116v3.168h6.754l.123 1.7c.119 1.639.175 1.704 1.575 1.821 1.364.114 1.471.224 1.752 1.8.453 2.542.487 3.079.196 3.079-.454 0-.293 1.197.167 1.242 1.912.187 3.033.141 3.033-.126 0-.174.72-.316 1.6-.316h1.6v7.6h1.754c1.413 0 1.877-.188 2.386-.965 1.065-1.626 4.088-1.699 5.115-.125.535.821.141 22.971-.421 23.649-.644.776-59.017 1-60.451.232-3.062-1.639-1.415-4.661 2.933-5.382l1.516-.251-.116-3.279-.116-3.279-1.7-.123-1.7-.123V194.8h-1.538c-.998 0-1.777.264-2.22.754-1.147 1.267-4.077 1.848-9.154 1.815-5.931-.038-6.821-.509-7.009-3.709l-.121-2.06h-1.779c-.978 0-1.758.135-1.732.3.344 2.177-.054 2.854-1.747 2.977L117 195v23.2l1.678.122c.965.07 2.187-.142 2.88-.5 2.213-1.145 4.042-.322 4.042 1.818 0 .822.291 1.258 1.1 1.651.954.464 1.076.719.916 1.922-.101.763-.191 2.287-.2 3.387l-.016 2 4.961.113c4.401.1 5.055.027 5.8-.645 2.275-2.054 4.239-1.13 4.239 1.994V232h5.154l.123 1.7c.119 1.65.167 1.704 1.623 1.824 1.512.125 1.805.657 1.53 2.776-.048.366.846.5 3.329.5h3.395l.123 1.7.123 1.7 3.3.116 3.3.116v3.168h6.8l.047 1.3c.026.715.026 1.435 0 1.6-.026.165 2.193.3 4.93.3h4.977l.123 1.7c.142 1.969 1.186 2.288 5.135 1.57 2.03-.368 2.069-.357 2.449.732.428 1.228 1.523 1.598 4.727 1.598 2.895 0 3.447.845 2.182 3.34-.832 1.642-.962 2.394-.862 4.996l.117 3.064 1.688.123c1.677.122 1.687.133 1.687 1.7 0 1.573.004 1.577 1.6 1.577h1.6v13.6h1.773c1.422 0 1.823-.158 2.027-.8.551-1.736 3.692-2.286 5.086-.892 1.153 1.153 1.144 16.269-.01 17.163-1.721 1.333-4.279.834-5.076-.99-.336-.769-.656-.897-2-.798l-1.6.117-.11 6.676-.109 6.677-1.491.123-1.49.124-.118 3.192c-.066 1.755.066 3.555.291 4 1.157 2.279 1.202 2.892.276 3.762l-.898.843-2.009-1.001c-1.701-.848-2.463-.983-4.975-.881l-2.967.119-.063 1.183c-.035.651-.08 1.408-.1 1.683-.023.311-.643.5-1.637.5h-1.6v3.2h-1.6c-1.656 0-1.686.037-1.768 2.2-.034.886-.26 1.231-.867 1.318-.663.096-.788.345-.648 1.295.449 3.065-.923 4.378-3.498 3.348-.891-.356-1.619-.808-1.619-1.004 0-1.633-1.86-.157-1.945 1.543-.202 4.075-3.073 4.21-3.335.156l-.12-1.856-2.5-.119-2.5-.119v3.638h-5.426l.103 1.748c.128 2.196-.865 3.388-2.082 2.498-.54-.395-.754-1.065-.767-2.397l-.016-1.849H150.8v1.578c0 1.315.179 1.666 1.07 2.1 2.088 1.018 2.227 4.345.219 5.227-1.662.73-1.676.802-1.683 8.566l-.006 7.271-1.054.829c-1.022.804-1.492.829-15.418.829h-14.364l-.982-.982c-1.179-1.179-1.24-2.465-.182-3.818.685-.876.783-1.656.791-6.277l.009-5.277-1.858-.524c-3.362-.95-4.621-5.571-1.634-5.995.753-.107.892-.377.892-1.727v-1.6l-4.9-.112-4.9-.113V333.6h-6.582c-6.362 0-6.632.034-8.056 1-2.516 1.707-4.083.854-4.226-2.3-.069-1.536-.224-1.9-.811-1.9-.593 0-.725-.329-.725-1.8v-1.8h-6.768l-.116-3.3-.116-3.3-1.4-.007c-1.331-.006-1.41-.085-1.6-1.6L76.2 317l-3.278-.116-3.278-.116-.122-1.684-.122-1.684-3.6-.42c-6.082-.708-6.75-2.155-4.428-9.58.857-2.741 1.007-2.905 2.829-3.083l1.599-.157.046-1.845.045-1.846-1.445.061c-1.279.054-1.469.2-1.646 1.265-.262 1.578-3.582 1.996-5.233.659-1.325-1.073-1.531-15.746-.241-17.172 1.403-1.551 4.408-1.235 5.08.534l.374.984h27.21c22.916 0 27.21-.087 27.21-.554 0-1.49 3.511-2.384 5.024-1.279s1.158 29.275-.399 31.652c-.406.619-.622 1.606-.548 2.502l.123 1.479h26v-36.8l-4 .001c-2.2 0-4.54.09-5.2.2-1.047.174-1.214.071-1.312-.801-.321-2.863-.241-2.8-3.496-2.8H130.4V269.305l-3.4-.046c-1.948-.027-3.4.118-3.4.339 0 .212-.734.76-1.632 1.218l-1.631.833-.957-1.033c-1.127-1.216-.994-3.177.292-4.303.586-.513.747-1.07.635-2.2-.168-1.707.674-1.509-7.007-1.652l-3.3-.061v-3.2h-5.053c-4.413 0-5.222.105-6.394.829-1.603.991-2.847.732-3.197-.663-.265-1.056.501-3.366 1.116-3.366.205 0 .319-.765.251-1.7l-.123-1.7-3.277-.116-3.277-.116-.123-1.484c-.116-1.394-.226-1.506-1.823-1.841-1.645-.345-1.7-.407-1.7-1.9 0-1.53-.014-1.543-1.576-1.543-1.532 0-1.579-.042-1.7-1.5-.12-1.456-.174-1.504-1.824-1.623l-1.7-.123V238.8h-3.2v-3.2h-6.8v-6.8h-1.776c-1.763 0-1.777-.011-1.9-1.5-.12-1.451-.183-1.508-1.924-1.74-2.094-.279-2.037-.422.2-.503l1.6-.058.115-3.252.116-3.252-1.516-.012c-1.27-.01-1.645.193-2.32 1.253-1.039 1.631-3.36 1.981-4.479.675-.853-.994-1.471-18.254-.708-19.779 1.005-2.011 4.238-2.121 5.341-.182.534.94.92 1.145 2.151 1.147l1.5.003v-6.754l1.7-.123 1.7-.123.116-3.284.116-3.284 3.284-.116 3.284-.116.124-1.5c.121-1.458.168-1.5 1.7-1.5H79.6v-3.6H90V178h3.2v-3.6h13.6v-3.2h5.8c5.239 0 5.804-.068 5.846-.7.045-.667.056-.667.23 0 .208.796 1.133.933 1.566.232.194-.315.071-.384-.376-.213-.366.141-.666.082-.666-.132 0-.213.231-.387.513-.387.711 0 .813-1.977.116-2.244-.453-.174-.574-1.547-.609-6.928-.051-7.753.074-8.086 2.739-7.288.982.295 5.219.46 11.769.46h10.236l1-1c1.449-1.45 3.513-1.377 4.609.162M305.905 266.5c.057 15.235-.039 38.116-.214 50.847l-.319 23.147-1.092.939c-1.812 1.558-3.803 1.838-12.239 1.721-7.643-.107-10.441.128-10.441.878 0 .202.147.368.326.368.18 0 .712.685 1.183 1.523.47.838 1.325 1.774 1.9 2.082.605.324 1.138 1.028 1.267 1.677.123.615.368 1.118.543 1.118.698 0 2.781 2.117 2.781 2.825 0 .419.491 1.009 1.106 1.326.623.323 1.422 1.288 1.829 2.211.398.901.892 1.638 1.099 1.638.207 0 .986.945 1.731 2.1.746 1.155 1.989 2.707 2.764 3.448.775.742 1.508 1.746 1.63 2.232.122.485.669 1.087 1.215 1.335.546.249 1.364 1.18 1.818 2.069.453.889 1.026 1.616 1.272 1.616.572 0 1.393 1.044 2.122 2.7.315.715.75 1.3.965 1.3.373 0 2.849 3.374 2.849 3.882 0 .133.706.846 1.569 1.585.892.763 1.683 1.859 1.832 2.538.171.776.51 1.195.969 1.195.901 0 1.892 1.096 2.236 2.474.171.688.67 1.214 1.388 1.464.769.268 1.266.831 1.583 1.794.255.771.895 1.685 1.422 2.031.528.345 1.242 1.215 1.587 1.933.345.717 1.431 2.161 2.414 3.209.983 1.048 1.89 2.312 2.015 2.811.156.621.783 1.105 2 1.543 1.898.682 1.962.653 2.946-1.315.29-.581.937-1.275 1.438-1.543.5-.268 1.068-1.038 1.261-1.711.222-.773.814-1.455 1.612-1.856.792-.398 1.387-1.08 1.6-1.834.221-.782.787-1.409 1.626-1.8a3.22 3.22 0 0 0 1.734-1.927c.246-.729.852-1.511 1.346-1.736.494-.225 1.548-1.518 2.343-2.873.795-1.355 1.811-2.689 2.257-2.964.446-.275 1.074-1.13 1.396-1.899.321-.77 1.016-1.596 1.544-1.837.528-.24 1.264-1.125 1.635-1.966.454-1.029 1.063-1.665 1.861-1.943.716-.25 1.19-.699 1.195-1.134.011-.872 1.139-2.317 2.061-2.639.368-.128.973-.873 1.344-1.655.371-.782 1.328-1.996 2.127-2.697.799-.701 1.767-1.979 2.152-2.839.386-.86 1.054-1.657 1.487-1.77.451-.118.981-.796 1.244-1.594.263-.796.965-1.697 1.644-2.11.652-.397 1.489-1.328 1.859-2.069.37-.741 1.078-1.526 1.573-1.743.495-.217.9-.607.9-.866 0-.26.819-1.342 1.82-2.405 1.001-1.064 2.301-2.78 2.89-3.815.589-1.034 1.48-2.1 1.98-2.367 2.529-1.354 1.246-1.552-10.032-1.552h-10.941l-1.057-.98-1.057-.979.264-51.421.265-51.42H305.8l.105 27.7m-171.099 6.6c.018.877.782 1.459.788.6.003-.495-.174-.9-.394-.9-.22 0-.397.135-.394.3" fill="#fbfbfb"/><path d="M324.7 32.287c-.985.149-1.1.33-1.1 1.74 0 1.569-.005 1.573-1.6 1.573h-1.6v5.2h1.751c1.813 0 2.477-.458 3.249-2.24.22-.508 1.03-1.343 1.8-1.855 1.146-.762 1.424-1.218 1.53-2.513.071-.87.341-1.716.6-1.881.482-.306-2.659-.323-4.63-.024m7 .145c.455.265.7.896.7 1.802 0 2.283.98 3.366 3.046 3.366h1.754v-2.55c0-2.536-.007-2.551-1.25-2.8-2.119-.424-5.073-.297-4.25.182m8.7 11.746c0 1.546.144 1.847 1.1 2.305.67.321 1.272 1.057 1.54 1.883.242.746 1.009 1.824 1.704 2.395.695.572 1.262 1.236 1.26 1.477-.007.83 1.4 1.679 3.096 1.868l1.7.189V49.2h-1.577c-1.569 0-1.578-.008-1.7-1.7-.122-1.692-.131-1.701-1.823-1.823-1.692-.122-1.7-.131-1.7-1.7V42.4h-3.6v1.778m-26.598 1.753c-.111.111-.202.892-.202 1.736 0 1.515-.018 1.533-1.557 1.533-1.642 0-2.043.434-2.043 2.209 0 .801-.226.961-1.5 1.067l-1.5.124-.119 2.5-.119 2.5h1.757c1.915 0 2.8-.667 3.216-2.423.153-.648.722-1.234 1.553-1.6 1.099-.483 1.345-.837 1.512-2.177.175-1.397.342-1.616 1.321-1.729 2.023-.232 1.452-3.822-.619-3.892-.824-.027-1.589.041-1.7.152M69.6 50.8c0 1.38-.124 1.606-.9 1.643-2.586.122-2.5.055-2.5 1.928 0 2.766 3.411 3.402 4.534.845.299-.684.838-1.216 1.228-1.216 2.547 0 4.359-1.217 4.503-3.025l.141-1.775H69.6v1.6m118.332.129c.143 1.806.504 2.038 5.134 3.293.256.07.708.633 1.004 1.252 1.141 2.389 4.445 1.478 4.253-1.173-.122-1.693-.131-1.702-1.823-1.824-1.692-.122-1.7-.131-1.7-1.7V49.2h-7.006l.138 1.729M354.4 61.021c0 1.585.089 1.736 1.1 1.852.982.113 1.121.32 1.3 1.924.165 1.48.398 1.891 1.326 2.334.619.295 1.22.837 1.336 1.203.51 1.612 1.144 2.502 1.922 2.698.478.12 1.183.93 1.644 1.889.76 1.582.916 1.686 2.69 1.801l1.882.122V69.6h-3.2V66h-1.576c-1.532 0-1.579-.042-1.7-1.5-.12-1.456-.174-1.504-1.824-1.623l-1.7-.123V59.4l-1.6-.053-1.6-.052v1.726M300.188 64.3c.012 1.481-.01 1.502-1.688 1.623l-1.7.123V69.6h-3.6v4.8h1.738c1.91 0 2.896-.744 3.126-2.359.133-.936.612-1.36 2.036-1.8.532-.164.7-.651.7-2.028 0-1.805.006-1.813 1.4-1.813 1.393 0 1.4-.01 1.4-1.8v-1.8h-3.424l.012 1.5m-244.186.977c-.001.51-.421.707-1.702.8l-1.7.123-.114 3.404-.114 3.404 1.786-.142c2.652-.211 4-4.137 2.444-7.12-.378-.726-.598-.898-.6-.469m151.414 1.098c-.312.504.067 3.362.675 5.09.394 1.122.642 1.281 2.191 1.404l1.746.139-.114-3.404-.114-3.404-2.064-.12c-1.136-.065-2.18.067-2.32.295M94.6 79.149c-1.078.229-1.213.428-1.323 1.953l-.123 1.698H100v-1.581c0-2.073-1.919-2.808-5.4-2.07m72.4-.157c-.22.076-.895.247-1.5.381-.975.215-1.1.423-1.1 1.835V82.8h6.8v3.6h1.6c1.477 0 1.6.084 1.606 1.1.016 2.851 4.383 3.149 4.837.33.244-1.512-.828-3.424-1.925-3.433-.175-.001-.634-.557-1.02-1.235-.676-1.189-.786-1.228-3.059-1.097l-2.358.135.205-1.259c.162-.99.047-1.303-.54-1.47-1.325-.375-3.135-.62-3.546-.479m204.069.897c-1.126 1.821-.573 3.859 1.131 4.171.536.099.978.707 1.339 1.846.389 1.228.804 1.765 1.5 1.94.645.161 1.219.821 1.739 1.997.754 1.705.831 1.757 2.6 1.757h1.822v-5.2H378v-3.2h-3.6v-1.722c0-1.72-.001-1.722-1.568-1.814-.862-.051-1.655.05-1.763.225m-87.602 3.578c-.147.146-.267.866-.267 1.6 0 1.313-.027 1.333-1.8 1.333h-1.8V88c0 1.426-.105 1.6-.967 1.6-1.97 0-2.233.335-2.233 2.843V94.8h1.738c1.836 0 3.062-.857 3.062-2.14 0-.372.495-.896 1.1-1.164 1.381-.61 2.071-1.453 2.087-2.547.015-.966.645-1.595 1.813-1.81.872-.16 1.219-1.412.826-2.98-.239-.948-2.804-1.448-3.559-.692m-195.265.83c-1.89.193-2.851 1.094-3.211 3.01-.173.922-.581 1.542-1.199 1.824-1.103.503-1.639 3.024-1.197 5.637.273 1.621.287 1.632 2.04 1.632H86.4v-6.8H90v-2.8c0-1.54-.045-2.77-.1-2.733-.055.037-.819.141-1.698.23m89.83 22.616c-.025 13.029.078 16.752.468 16.894.275.099 1.13.229 1.9.287l1.4.106.118-14.8c.145-18.26.151-18.2-1.909-18.2-.86 0-1.632-.221-1.744-.5-.111-.275-.216 7.021-.233 16.213m95.035-10.246c-.147.146-.267 1.676-.267 3.4v3.133h27.585l.243-.968c.629-2.508.986-2.422-10.484-2.539l-10.446-.106-1.811-1.594c-1.735-1.527-3.997-2.15-4.82-1.326M384.4 98.36c0 .61-3.39.89-14.167 1.17-7.823.204-10.409.394-10.536.777-.201.604-1.122 1.567-1.682 1.757-.262.089-.436 18.356-.507 53.254l-.108 53.118 1.8-.118 1.8-.118.101-52.5.102-52.5H384.8v-2.6c0-1.43-.09-2.6-.2-2.6-.11 0-.2.162-.2.36M144.157 159.2c0 2.97.063 4.185.14 2.7a63.146 63.146 0 0 0 0-5.4c-.077-1.485-.14-.27-.14 2.7m156.103 7.073c-.15.15-.264 9.69-.253 21.2l.02 20.927H304l-.005-20.3c-.003-11.165-.114-20.705-.247-21.2-.24-.896-2.765-1.35-3.488-.627m-170.275 25.909c.266.321.378.755.248.964-.578.936.276 1.654 1.968 1.654 1.709 0 1.716-.006 1.868-1.6l.152-1.6h-2.359c-2.021 0-2.29.084-1.877.582m69.715 5.704c-1.212.154-1.3.268-1.3 1.701v1.537l1.7-.217c2.066-.264 1.853-.081 1.988-1.713.122-1.481-.095-1.6-2.388-1.308m-140.753 3.508c-.463 1.207.412 7.205 1.053 7.217.33.005.81.142 1.066.302.256.161.547.066.647-.211.1-.276.314.34.476 1.37.358 2.282.225 2.526-1.438 2.653-1.62.123-1.438-.248-1.607 3.275L59 219l1.4-.106c2.519-.19 2.4.248 2.4-8.863v-8.393l-1.5-.417c-1.949-.541-2.083-.531-2.353.173m141.609 15.798c-1.431.578-1.457 1.488-.052 1.769 1.488.297 1.952-.062 1.636-1.268-.255-.976-.341-1.003-1.584-.501m156.845 56.57c-.434 69.842-.439 66.56.109 67.108.38.38 3.222.543 11.2.643 5.879.073 11.14.294 11.69.491.55.198 1.63.408 2.4.469.77.06 1.532.294 1.694.518.162.225.297-.986.3-2.691l.006-3.1h-23.6l-.048-48.1c-.027-26.455-.052-48.505-.055-49-.004-.542-.263-.916-.652-.94a73.364 73.364 0 0 1-1.736-.137l-1.092-.099-.216 34.838M58.637 289.463c-.33 8.222-.24 8.51 2.391 7.649l1.572-.515.109-6.849c.122-7.614.229-7.327-2.749-7.343l-1.04-.005-.283 7.063m147.263-6.796c-.632.173-.7.854-.7 6.975 0 7.424-.083 7.181 2.494 7.298L209 297v-14.4l-1.2-.063c-.66-.034-1.515.024-1.9.13M116.876 293.5c.041 5.885.141 9.626.222 8.314.17-2.755.574-3.414 2.094-3.414 1.337 0 1.608-1.731 1.608-10.259V282.8h-4l.076 10.7M63.5 309.882a5.661 5.661 0 0 0 1.8 0c.495-.095.09-.173-.9-.173s-1.395.078-.9.173M272.884 340.5l.116 3.3 1.523.126c2.174.179 4.636-2.476 4.661-5.026l.016-1.7h-6.432l.116 3.3m17.289-2.4c.092.495.181 1.305.197 1.8.03.886.112.9 5.248.9h5.218l-.27-1.5c-.149-.825-.348-1.635-.442-1.8-.509-.893-10.121-.313-9.951.6m-173.703 3.981c-.352 1.383-.328 1.829.126 2.285.955.958 1.868-.168 1.724-2.128-.173-2.352-1.268-2.445-1.85-.157m33.405-1.423c-.563.563-.29 3.362.352 3.608.971.372 1.322-.319 1.034-2.033-.255-1.512-.813-2.147-1.386-1.575m126.605 7.419.12 2.523 1.5.124c1.458.121 1.5.168 1.5 1.7V354h3.6v3.2h1.8c1.446 0 1.801-.138 1.805-.7.003-.385.112-1.095.241-1.578.194-.723-.018-.983-1.205-1.479-1.121-.468-1.441-.829-1.441-1.623 0-1.074-1.245-2.62-2.11-2.62-.281 0-.866-.765-1.3-1.7-.752-1.618-.883-1.706-2.71-1.823l-1.919-.122.119 2.522M144.072 352.1l-.072 5.1h-10.2c-8.278 0-10.2.101-10.2.538 0 .747-1.187 1.704-2.5 2.016-.736.175-1.1.52-1.1 1.043 0 .875 26.735 1.473 27.934.625 1.468-1.037-.362-3.823-2.51-3.821l-1.224.001.126-3.301c.07-1.816.057-4.201-.028-5.301-.084-1.1-.186.295-.226 3.1m233.365-2.538c-.316.351-.691 1.106-.834 1.678-.161.645-.739 1.252-1.523 1.6-.961.426-1.347.923-1.616 2.079-.29 1.25-.563 1.561-1.543 1.757-2.623.524-2.015 4.124.697 4.124h1.782v-3.6h3.6V354h3.2v-5.077h-1.594c-.952 0-1.825.257-2.169.639m-6.637 12.409c0 .425-.272 1.044-.604 1.376-.539.539-.524.598.138.548.66-.05 1.301-2.695.654-2.695-.103 0-.188.347-.188.771M290 365v2.6h3.2v3.2h3.6v3.6h1.782c2.484 0 3.381-3.713.983-4.069-.963-.143-1.393-.74-1.748-2.429-.162-.77-.647-1.271-1.624-1.679-.766-.32-1.393-.868-1.393-1.217 0-1.551-1.233-2.606-3.046-2.606H290v2.6m72.507 4.493c-1.772.159-2.907 1.178-2.907 2.609 0 .398-.315.82-.7.939-1.467.454-1.855.857-2.279 2.368-.323 1.151-.697 1.62-1.429 1.793-.872.206-.992.449-.992 2.016V381l1.7.123 1.7.123V377.6h3.6v-3.2h3.2v-2.6c0-1.43-.045-2.569-.1-2.53-.055.038-.862.139-1.793.223m-59.275 10.557c-.062 3.628.269 4.35 1.995 4.35 1.511 0 1.528.018 1.65 1.7.119 1.65.167 1.704 1.623 1.824 1.274.106 1.5.266 1.5 1.067 0 1.828.387 2.209 2.243 2.209 1.87 0 1.785.119 1.924-2.667.018-.368-.507-.967-1.167-1.333-.779-.431-1.271-1.072-1.403-1.826-.13-.743-.666-1.452-1.487-1.968-.706-.443-1.401-1.166-1.543-1.606-.515-1.591-1.836-2.6-3.403-2.6-.824 0-1.588-.225-1.699-.5-.111-.275-.216.333-.233 1.35m43.681 6.906c-.457.526-.943 1.308-1.08 1.739-.136.431-.69.985-1.23 1.231-.539.246-1.239 1.065-1.555 1.821-.321.769-1.075 1.613-1.711 1.917-.98.467-1.154.805-1.259 2.439-.121 1.878-.136 1.897-1.523 1.897-1.401 0-1.401 0-1.278 1.7.123 1.696.127 1.7 1.723 1.7.987 0 1.619-.192 1.65-.5.028-.275.073-1.04.1-1.7.047-1.125.15-1.2 1.65-1.2 1.596 0 1.6-.004 1.6-1.577 0-1.569.008-1.578 1.7-1.7 1.692-.122 1.701-.131 1.823-1.823.122-1.692.131-1.7 1.7-1.7h1.577V386h-1.528c-1.112 0-1.754.26-2.359.956M316.8 398.179c0 3.062.214 3.421 2.043 3.421 1.55 0 1.557.007 1.557 1.6v1.6h3.2v3.2h4.846l-.123-1.699c-.11-1.525-.277-1.772-1.623-2.403-1.105-.519-1.5-.951-1.5-1.639 0-.961-1.105-2.259-1.923-2.259-.254 0-.833-.729-1.287-1.619-.903-1.771-1.007-1.835-3.49-2.145l-1.7-.212v2.155" fill="#303030"/><path d="M329.901 33.393c.333 1.742-.254 2.967-1.928 4.024-.886.559-1.719 1.324-1.852 1.7-.592 1.682-1.817 2.483-3.794 2.483h-1.934l.103 2.286c.091 2.009.007 2.305-.696 2.446-1.011.203-1.386.781-1.394 2.148-.004.759-.421 1.396-1.406 2.147-.77.587-1.4 1.308-1.4 1.602 0 .293-.765 1.324-1.7 2.289-.935.965-2.023 2.234-2.419 2.819-.616.911-1.002 1.063-2.7 1.063-1.089 0-1.981.18-1.981.4 0 1.795 5.086-.193 5.973-2.335.265-.638.92-1.361 1.457-1.606.537-.245 1.27-1.061 1.629-1.814.359-.754 1.066-1.591 1.571-1.861.504-.27 1.139-1.052 1.41-1.737.272-.686 1.019-1.778 1.661-2.428.992-1.003 1.146-1.438 1.03-2.9-.134-1.688-.114-1.719 1.112-1.719 1.517 0 3.075-1.154 3.746-2.773.273-.66.823-1.304 1.221-1.43 1.856-.589 2.789-1.811 2.846-3.726l.057-1.871.255 2.107c.258 2.131 2.219 4.708 4.111 5.402.374.138.876.98 1.116 1.871.248.922.845 1.89 1.383 2.242.52.341 1.054 1.053 1.187 1.581.133.529.851 1.426 1.596 1.994.745.569 1.565 1.543 1.823 2.165.258.622.922 1.374 1.477 1.67.554.297 1.281 1.086 1.616 1.754.817 1.628 2.087 2.594 3.423 2.605 1.035.008 1.1.115 1.1 1.797 0 1.52.179 1.92 1.192 2.669.655.485 1.393 1.492 1.64 2.239.25.758.868 1.549 1.4 1.791.524.239 1.071.807 1.216 1.263.144.456 1.003 1.604 1.907 2.552 2.702 2.831 4.563 4.997 5.853 6.813.67.943 1.64 1.875 2.155 2.071.649.247 1.02.797 1.206 1.787.173.922.686 1.74 1.445 2.301.648.479 1.286 1.243 1.418 1.698.237.817 1.136 1.858 4.731 5.476 1.011 1.017 1.837 1.997 1.837 2.178 0 .626 2.151 2.574 2.842 2.574 1.495 0 1.958.469 1.958 1.981 0 2.913-.294 2.992-11.941 3.219-9.442.184-11.144.368-12.15 1.314-.257.241-.465 108.686-.209 108.686.165 0 .302-23.625.304-52.5.003-28.875.118-53.188.257-54.028.45-2.722.982-2.857 11.72-2.977 12.48-.14 12.819-.254 12.819-4.31V92.52l-1.546.155c-1.384.138-1.677-.004-2.803-1.36-1.92-2.314-4.095-4.751-5.72-6.413-.808-.826-1.528-1.938-1.6-2.472-.078-.577-.616-1.242-1.331-1.644-1.249-.702-1.283-.826-.89-3.286l.24-1.5h-1.499c-1.706 0-2.354-.421-3.699-2.403-.938-1.382-1.691-2.244-5.052-5.779-.935-.983-1.7-2.007-1.7-2.275 0-.267-.63-1.063-1.4-1.769-1.022-.936-1.4-1.616-1.4-2.52 0-.981-.204-1.29-.98-1.485-.86-.216-.996-.499-1.1-2.307l-.12-2.062-1.683-.122c-1.329-.097-1.903-.391-2.726-1.4-1.213-1.487-3.363-3.959-5.491-6.314-.825-.913-1.5-1.919-1.5-2.235 0-.316-.56-1.085-1.244-1.71-1.108-1.012-1.227-1.336-1.097-2.977l.147-1.842h-1.536c-2.293 0-4.27-2.133-4.27-4.607 0-1.482-.129-1.793-.745-1.793-.577 0-.701.223-.554.993M78.4 50.922c0 1.638-.105 1.822-1.3 2.293-3.439 1.353-4.989 2.153-5.985 3.088-.597.56-1.759 1.128-2.583 1.262-1.167.189-1.551.463-1.74 1.239-.183.754-.479.978-1.217.922-5.053-.385-5.902-.218-5.808 1.141.044.623-.077 1.133-.267 1.133s-.065.4.277.889c.982 1.401.799 3.316-.4 4.189-.663.483-1.16 1.374-1.414 2.534-.836 3.813-1.78 5.188-3.565 5.188-1.331 0-1.598.134-1.598.8 0 .663.267.8 1.56.8 1.883 0 2.854-1.33 3.686-5.051.357-1.595.939-2.794 1.838-3.79.724-.801 1.317-1.884 1.319-2.407.001-.631.394-1.175 1.167-1.615.648-.368 1.223-1.073 1.297-1.588.099-.69.529-1.037 1.681-1.359.851-.238 1.777-.746 2.057-1.129s1.428-1.155 2.552-1.715C71.081 57.187 72 56.555 72 56.344c0-.212.675-.654 1.5-.982 6.229-2.482 6.1-2.398 6.1-3.956 0-.773.01-1.541.021-1.706.012-.165-.258-.358-.6-.429-.488-.102-.621.252-.621 1.651m106.4.088c0 1.607.123 1.856 1.1 2.224.605.228 1.593.659 2.196.958.603.298 1.619.658 2.258.798.64.14 1.497.625 1.905 1.076.407.451 1.641 1.276 2.741 1.834 1.1.557 2.225 1.333 2.5 1.725.276.391 1.057.834 1.738.983.894.197 1.388.634 1.783 1.581.301.72.9 1.402 1.332 1.515.49.128.94.77 1.201 1.713.229.829.843 1.975 1.364 2.545.521.571 1.164 1.848 1.429 2.838 1.123 4.199 2.045 5.6 3.688 5.6.824 0 1.589.225 1.7.5.111.275.216-.085.233-.8.031-1.274-.003-1.3-1.725-1.3h-1.758l-.987-2.5c-.543-1.375-1.104-2.99-1.247-3.588-.143-.599-.618-1.28-1.056-1.515-.803-.429-1.238-4.397-.482-4.397.687 0 .164-2.171-.691-2.862-1.043-.846-1.803-.976-1.387-.238.221.391.169.395-.238.019a1.047 1.047 0 0 0-1.158-.163c-1.274.637-2.845.286-3.362-.751-.349-.701-.939-1.067-2.001-1.239-.905-.147-1.961-.71-2.645-1.41-.627-.641-2.105-1.501-3.285-1.912-3.452-1.201-3.946-1.633-3.946-3.453 0-1.148-.167-1.591-.6-1.591-.445 0-.6.468-.6 1.81m120.155 8.663c-.116.187-.406.219-.646.071-.284-.176-.357.03-.209.593.124.475.082.863-.093.863-.41 0-.31 1.324.123 1.642 1.15.844.76 3.532-.632 4.353-.944.557-1.481 1.219-1.642 2.025-.161.807-.698 1.468-1.648 2.028-.774.457-1.408 1.059-1.408 1.338 0 1.386-1.62 2.573-3.713 2.72l-2.087.146 2.271.074c2.359.077 3.47-.651 4.12-2.698.123-.389.642-.897 1.153-1.13.511-.233 1.216-1.027 1.567-1.766.35-.739 1.173-1.739 1.828-2.224.663-.49 1.311-1.425 1.461-2.108.148-.675.713-1.518 1.255-1.873 1.089-.713 1.302-4.038.245-3.827-.275.055-.5-.05-.5-.233 0-.437-1.174-.432-1.445.006m-14.502 17.086c-.544.344-.534.596.2 5.359.218 1.413.149 1.551-.988 1.98-.922.348-1.306.812-1.559 1.882-.224.95-.755 1.685-1.605 2.22-.699.44-1.277 1.049-1.286 1.353-.008.304-.6 1.114-1.315 1.8a26.915 26.915 0 0 0-2.42 2.747c-1.031 1.38-1.279 1.5-3.1 1.5-1.089 0-1.98.18-1.98.4 0 .22.796.4 1.769.4 1.835 0 4.231-1.466 4.231-2.588 0-.284.63-.998 1.4-1.585.77-.587 1.4-1.32 1.4-1.629 0-.308.72-1.139 1.6-1.846.88-.707 1.6-1.533 1.6-1.835 0-.302.72-1.254 1.6-2.117 1.149-1.126 1.6-1.9 1.6-2.745 0-.958.232-1.258 1.251-1.613 1.132-.395 1.227-.554 1-1.689-.138-.689-.251-1.501-.251-1.803 0-.622-2.251-.759-3.147-.191M94.2 77.972c-2.79.474-3.4 1.02-3.4 3.042 0 .982.18 1.786.4 1.786.22 0 .4-.698.4-1.551 0-2.603 3.84-4.006 6.866-2.509.832.412 1.405.576 1.274.364-.299-.485-2.742-1.521-3.427-1.454-.282.028-1.233.172-2.113.322m72.3.224c-.715.311-1.3.655-1.3.765 0 .11.556-.033 1.236-.319 1.863-.784 5-.102 6.392 1.388.601.644 1.463 1.17 1.915 1.17 1.247 0 5.098 3.962 5.458 5.616.165.761.706 1.792 1.201 2.29 1.345 1.353 1.398 2.082 1.398 19.33 0 17.715.054 17.373-2.597 16.365-.577-.219-.95-.239-.83-.044.547.884 2.336.88 3.279-.006l.948-.89-.017-13.031c-.023-16.783-.34-20.921-1.714-22.366-.557-.585-1.142-1.59-1.301-2.234-.369-1.488-4.275-5.43-5.382-5.43-.457 0-1.322-.537-1.922-1.194-.867-.949-4.533-2.296-5.419-1.99-.025.008-.63.27-1.345.58m-81.21 5.402c-.501.634-1.178 1.794-1.506 2.578-.327.783-.734 1.424-.903 1.424-1.494 0-2.362 6.541-1.016 7.651.602.496.621.465.2-.325-.916-1.72-.583-4.763.681-6.212.63-.723 1.273-1.72 1.428-2.216.608-1.95 2.196-3.298 3.885-3.298.957 0 1.49-.159 1.341-.4-.557-.901-3.17-.393-4.11.798M279.2 97.715c1.671.821 2.518.9 11.8 1.09 5.5.112 10.322.359 10.715.548 2.107 1.014 2.061.349 2.387 34.647.166 17.49.445 41.34.621 53 .23 15.222.278 6.482.17-31-.09-31.38-.305-53.015-.538-54.243-.58-3.054-.766-3.104-12.555-3.349-8.664-.18-10.132-.302-10.989-.908-.544-.385-1.534-.693-2.2-.685-1.177.014-1.16.039.589.9m-133 55.37c-1.562.376-1.406.786.284.751l1.716-.036V165l-1.8.125c-2.616.182-3.015.875-.503.875 3.033 0 3.303-.557 3.303-6.827 0-6.005-.354-6.724-3-6.088m-20.59 40.381c.165 1.086.589 2.09 1.013 2.4 1.174.858 7.561.698 10.577-.266 1.377-.44 2.751-.8 3.052-.8.583 0 .69-.83.296-2.3-.209-.781-.506-.9-2.237-.9h-1.995l.158 1.656c.22 2.308-1.251 2.943-6.041 2.609-3.714-.26-4.017-.468-4.027-2.765-.004-.985-.19-1.5-.543-1.5-.412 0-.471.431-.253 1.866m74.49 3.53c-1.776.772-1.643 1.03.2.385 2.573-.901 3.047-.028 2.298 4.228-.328 1.865-.597 4.046-.597 4.847-.001 1.587-2.758 2.721-2.829 1.164-.02-.439-.129-.386-.372.18-.473 1.1-.473 4.269 0 5 .213.33.391.411.394.18.015-1.07 2.806-.114 2.812.964.003.581.28 1.844.615 2.807.731 2.099-.06 3.573-1.605 2.991-.449-.169-13.506-.406-29.016-.525-29.178-.225-31.086-.35-26.843-1.765.747-.248 1.623-.856 1.948-1.351.698-1.061-2.836.64-3.802 1.831-1.667 2.056-1.531 2.066 28.859 2.096 15.421.016 28.398.175 28.838.355 1.09.445 3.133-1.388 2.618-2.349-1.271-2.375-1.339-10.697-.152-18.49.373-2.447-1.076-3.543-3.366-2.548m-141.652 3.356c-.601.601-.969 15.017-.483 18.934.102.828 1.671 1.11 3.026.544 1.871-.782 1.806-1.074-.091-.412-2.496.872-2.544.701-2.614-9.312-.073-10.483.422-11.562 4.053-8.845.602.451.606.434.042-.188-1.063-1.173-3.107-1.547-3.933-.721m79.668 30.015c-.569.42-.441 1.633.171 1.633.386 0 .511-.229.351-.645-.167-.435-.073-.577.291-.438.296.114.538-.016.538-.288 0-.514-.8-.669-1.351-.262m165.893 42.606c-.027 38.109.137 35.551-2.266 35.36l-1.743-.139v14.407c0 13.747.035 14.428.764 14.884.42.262.892 1.057 1.047 1.767.508 2.313.043 2.409-11.011 2.273-9.767-.121-9.806-.118-11.6.864-1.516.83-1.662 1.007-.924 1.123.482.076 1.376-.189 1.987-.587.995-.65 2.126-.725 10.979-.725 13.282 0 11.924 2.001 12.348-18.2.183-8.713.474-14.74.754-15.597.585-1.795.656-69.032.072-69.393-.243-.15-.392 12.248-.407 33.963m51.863 16.651c-.164 32.142-.119 51.114.123 51.566.664 1.242 1.561 1.351 12.405 1.518 11.949.185 11.829.154 12.065 3.12l.141 1.772h-1.522c-1.53 0-3.484 1.454-3.484 2.591 0 .262-.72 1.054-1.6 1.761-.88.707-1.6 1.526-1.6 1.819 0 .294-.647 1.028-1.438 1.631-.791.603-1.61 1.59-1.82 2.192-.21.603-.804 1.288-1.319 1.523-.586.267-1.151 1.076-1.506 2.155-.346 1.052-.92 1.885-1.466 2.128-.78.348-.882.66-.79 2.4l.107 2-1.763.127c-1.8.129-3.274 1.208-3.772 2.76-.125.392-.766 1.072-1.423 1.511-.657.439-1.401 1.298-1.655 1.91-.253.612-.981 1.483-1.616 1.936-.636.452-1.4 1.407-1.699 2.122-.299.715-1.002 1.661-1.564 2.102-.713.561-1.059 1.266-1.148 2.341-.109 1.311-.298 1.583-1.28 1.844-1.411.374-2.905 1.725-3.198 2.889-.119.476-.781 1.199-1.47 1.606-.689.407-1.429 1.246-1.644 1.863-.215.618-1.014 1.544-1.774 2.056-.76.513-1.488 1.34-1.617 1.837-.129.498-.744 1.268-1.368 1.712-.624.444-1.361 1.436-1.639 2.205-.278.768-.917 1.667-1.422 1.997-.964.632-1.409 4.582-.516 4.582.22 0 .401-.135.403-.3.002-.165.437-.501.967-.747.779-.361.924-.341.754.1-.119.312.047.547.387.547.327 0 .69-.36.805-.801.115-.44.046-.699-.153-.576-.2.123-.363.049-.363-.166 0-.215.225-.473.5-.574.4-.146.4-.289 0-.713-.964-1.022-.616-3.903.616-5.093.614-.592 1.377-1.595 1.696-2.229.318-.634.961-1.326 1.428-1.539.467-.213 1.139-.995 1.493-1.737.354-.743 1.021-1.581 1.481-1.861.461-.281 1.456-1.366 2.211-2.411 1.299-1.796 1.475-1.9 3.23-1.9h1.856l-.235-1.988c-.221-1.868-.17-2.019.844-2.503.792-.377 1.114-.863 1.206-1.819.087-.903.499-1.579 1.34-2.197.668-.491 1.553-1.555 1.967-2.364.415-.809 1.072-1.572 1.46-1.695.389-.124 1.181-1.009 1.76-1.968.943-1.561 1.251-1.772 2.925-2.001 1.029-.141 2.135-.521 2.458-.844.323-.323.834-.492 1.135-.377.301.116.669.015.816-.223.148-.239.436-.33.641-.204.522.323.464-2.105-.087-3.628-.636-1.759-.171-3.316 1.085-3.631.712-.179 1.083-.605 1.249-1.433.136-.679.815-1.635 1.6-2.252.75-.59 1.634-1.633 1.964-2.318.33-.684 1.036-1.443 1.569-1.686.534-.243 1.23-1.063 1.547-1.823.682-1.633 1.67-2.246 3.619-2.246h1.426v-1.93c0-3.771-.206-3.836-12.931-4.07-5.978-.11-11.087-.341-11.354-.514-.913-.592-.94-2.987-.604-52.486.185-27.28.221-49.741.079-49.914-.142-.173-.375 22.569-.518 50.538m-235.243-23.271c-.12.195-.324 1.016-.452 1.825l-.234 1.471 1.728-.125c2.738-.197 2.787-3.499.053-3.518-.482-.003-.975.153-1.095.347M58.42 281.58c-1.11 1.11-1.276 15.107-.191 16.191.804.804 2.595.808 3.595.007.75-.601.746-.608-.098-.2-3.284 1.587-3.726.66-3.726-7.809 0-8.42.653-9.808 3.6-7.652.533.39.533.369 0-.196-1.049-1.11-2.278-1.243-3.18-.341m149.309-.474c-.479.078-1.086.401-1.349.718-.407.491-.266.488.95-.021 2.397-1.001 2.67-.181 2.67 8.024 0 8.099-.256 8.745-3.006 7.596-1.233-.515-1.409-.523-1.015-.049.811.978 2.772 1.194 3.648.402.709-.642.773-1.291.773-7.864 0-8.368-.252-9.2-2.671-8.806m-89.153.681c-.942.713-.577.779.812.146 2.279-1.039 2.733 3.759 1.823 19.273-.445 7.586-.447 7.594-2.479 7.594-1.545 0-1.58.031-1.457 1.3.11 1.148 2.494 1.815 3.403.951 1.457-1.383 2.313-27.52.949-28.951-.995-1.043-1.955-1.142-3.051-.313M62.419 305.75c-1.726 4.539-1.267 5.904 1.943 5.778l1.838-.072-1.898-.15c-3.261-.257-3.123-4.506.147-4.506 1.388 0 1.551-.105 1.551-1 0-1.465-3.027-1.507-3.581-.05m27.448 24.917c-.903.903-.247 3.333.9 3.333 2.268 0 2.966-.945 2.19-2.967-.244-.636-2.548-.909-3.09-.366m85.21.033c-.515.905-.219 2.974.321 2.241.3-.407.398-.795.217-.86-.182-.066-.238-.471-.126-.9.199-.762-.072-1.079-.412-.481m-55.803 11.591c-.061 1.709-.246 2.203-1.018 2.709-1.789 1.172-3.293-.684-2.307-2.848.62-1.361.565-1.655-.136-.728-1.264 1.671-.328 4.576 1.474 4.576 1.568 0 2.368-1.305 2.211-3.603l-.15-2.197-.074 2.091m25.511-1.482c-1.7 1.051-.458 3.991 1.685 3.991h1.572l-.121-2.1c-.121-2.106-1.471-2.92-3.136-1.891m7.194 1.917c.4 1.395-.134 2.474-1.225 2.474-2.216 0-2.355.384-2.344 6.514.005 3.127.191 6.475.414 7.439.774 3.359 1.182 3.273-14.947 3.152-12.821-.096-14.027-.163-14.431-.805-.592-.938.021-1.899 1.784-2.799 1.3-.664 1.317-.7.34-.7-2.092-.002-3.524 2.788-2.141 4.17.952.953 28.606.95 29.397-.002.4-.482.499-2.419.418-8.182l-.106-7.551 1.331-.556c2.166-.905 3.003-3.17 1.512-4.091-.181-.113-.182.309-.002.937m126.103 1.967c1.539.122 2.073.383 2.926 1.428 1.968 2.412 3.993 4.707 5.464 6.192.893.902 1.523 1.958 1.6 2.684.092.857.454 1.353 1.278 1.746 1.111.53 1.141.621.896 2.703l-.253 2.154h1.773c1.511 0 1.911.182 2.704 1.229.511.676 1.695 2.01 2.63 2.964.935.955 1.7 2.017 1.7 2.361 0 .344.533.901 1.185 1.238.835.432 1.311 1.081 1.611 2.194.291 1.079.772 1.753 1.515 2.124.599.299 1.067.711 1.04.917-.027.205-.164 1.138-.305 2.073l-.255 1.7h1.776c1.892 0 2.649.497 3.622 2.378.314.607 1.026 1.402 1.582 1.766.557.365 1.305 1.229 1.663 1.921.357.691 1.158 1.684 1.778 2.207.621.522 1.241 1.46 1.378 2.084.15.682.659 1.32 1.278 1.602.96.438 1.017.615.848 2.655l-.182 2.187h1.703c1.437 0 1.847.193 2.633 1.24.511.683 1.695 2.026 2.63 2.985.935.96 1.7 2.008 1.7 2.33 0 .322.765 1.006 1.7 1.52 1.588.874 1.708 1.061 1.822 2.83.154 2.395.878 2.497.878.124 0-1.833-.94-3.039-2.84-3.642-.425-.135-1.031-.862-1.346-1.615-.315-.754-1.028-1.578-1.586-1.832-.557-.254-1.119-.795-1.248-1.203-.362-1.141-2.147-3.099-3.428-3.762-.851-.44-1.152-.886-1.152-1.71 0-.727-.431-1.525-1.237-2.29-.68-.646-1.577-1.837-1.993-2.646-.416-.809-1.078-1.573-1.471-1.698-.393-.124-1.066-.88-1.496-1.678-.43-.799-1.192-1.721-1.693-2.049-.501-.328-1.299-1.288-1.774-2.132-.578-1.029-1.37-1.739-2.4-2.151-1.01-.404-1.536-.869-1.536-1.358 0-1.465-.857-3.161-1.82-3.599-.539-.246-.98-.784-.98-1.197 0-.799-1.698-2.867-2.354-2.867-.216 0-.519-.4-.674-.889-.156-.49-1.023-1.652-1.927-2.583-.905-.932-2.158-2.331-2.784-3.111-.833-1.035-1.452-1.417-2.3-1.417-1.124 0-1.161-.062-1.161-1.973 0-1.726-.147-2.077-1.176-2.81-.647-.461-1.295-1.238-1.44-1.727-.146-.49-.831-1.462-1.524-2.161-.693-.7-1.919-2.05-2.724-3-4.356-5.145-3.822-4.736-6.077-4.657l-2.059.072 1.882.149" fill="#949494"/><path d="M328.724 34.062c-.105 1.449-.339 1.855-1.524 2.643-.77.512-1.58 1.347-1.8 1.855-.772 1.782-1.436 2.24-3.249 2.24-.963 0-1.751.18-1.751.4 0 1.749 5.015-.077 5.721-2.083.133-.376.966-1.141 1.852-1.7 1.623-1.025 2.206-2.168 1.96-3.845-.244-1.667-1.077-1.329-1.209.49m2.476.097c0 2.562 1.957 4.641 4.367 4.641 1.185 0 1.633-.165 1.633-.6 0-.442-.462-.6-1.754-.6-2.056 0-2.911-.936-3.119-3.413-.19-2.276-1.127-2.299-1.127-.028m5.894 4.881c-.757.757-.296 3.74.676 4.377.534.35 1.146 1.14 1.361 1.757.215.617.993 1.777 1.73 2.578 1.685 1.834 3.98 4.471 5.315 6.108 1.158 1.42 4.769 2.187 4.533.963-.07-.364-.717-.643-1.711-.738-1.596-.152-3.001-1.019-2.994-1.847.002-.241-.565-.905-1.26-1.477-.695-.571-1.462-1.649-1.704-2.395-.273-.84-.87-1.563-1.571-1.898-1.126-.539-1.129-.551-.94-3.706.105-1.741.072-3.238-.072-3.327-.605-.374-3.093-.666-3.363-.395m-19.678 4.001c-.526.526-.594 1.17-.377 3.569l.266 2.927-1.153.131c-1.015.116-1.176.323-1.352 1.732-.167 1.34-.413 1.694-1.512 2.177-.831.366-1.4.952-1.553 1.6-.415 1.75-1.302 2.423-3.197 2.423-.956 0-1.738.18-1.738.4 0 .99 3.942.431 4.681-.663.396-.585 1.484-1.854 2.419-2.819.935-.965 1.7-1.996 1.7-2.289 0-.294.63-1.015 1.4-1.602.905-.69 1.4-1.403 1.4-2.015 0-1.477.417-2.212 1.255-2.212.986 0 1.301-.844.971-2.603-.298-1.587-1.982-1.984-3.21-.756M76.667 49.467c-.147.146-.267.939-.267 1.762 0 1.516-2.009 2.771-4.438 2.771-.388 0-.93.532-1.228 1.205-.655 1.479-1.457 1.765-3.42 1.22-.833-.231-2.189-.422-3.014-.423L62.8 56v1.8c0 1.953-.232 1.805 3.082 1.967.412.02.775-.362.917-.963.184-.778.563-1.049 1.733-1.239.824-.134 1.986-.702 2.583-1.262.996-.935 2.546-1.735 5.985-3.088 1.191-.469 1.3-.659 1.3-2.264 0-1.694-.821-2.397-1.733-1.484M186 50.763c0 1.851.481 2.276 3.946 3.481 1.18.411 2.658 1.271 3.285 1.912.686.702 1.74 1.263 2.652 1.411 1.103.179 1.648.529 2.014 1.293.484 1.01 1.017 1.133 3.403.784.165-.024.3-.761.3-1.636 0-1.976-1.025-2.37-4.195-1.609-2.33.559-2.876.392-3.424-1.048-.203-.534-.597-1.035-.875-1.113-4.776-1.338-5.062-1.516-5.187-3.214-.179-2.445-1.919-2.682-1.919-.261m164.8 6.994c0 1.54.123 1.787 1 2.007.797.2 1 .502 1 1.49 0 .904.378 1.584 1.4 2.52.77.706 1.4 1.502 1.4 1.769 0 .268.765 1.292 1.7 2.275 3.361 3.535 4.114 4.397 5.052 5.779 1.349 1.987 1.993 2.403 3.724 2.403 2.366 0 2.051-1.122-.358-1.278-1.774-.115-1.93-.219-2.69-1.801-.461-.959-1.166-1.769-1.644-1.889-.778-.196-1.412-1.086-1.922-2.698-.116-.366-.717-.908-1.336-1.203-.928-.443-1.161-.854-1.326-2.334-.179-1.604-.318-1.811-1.3-1.924-1.096-.126-1.1-.139-1.1-3.257 0-3.4-.145-3.616-2.433-3.616-1.112 0-1.167.082-1.167 1.757M204 59.502c0 .22.27.624.6.898.335.278.6.321.6.098 0-.22-.27-.624-.6-.898-.335-.278-.6-.321-.6-.098m99.8.031c-.346.346-.217 1.667.163 1.667.199 0 .261-.388.137-.863-.148-.563-.075-.769.209-.593.24.148.53.116.646-.071.221-.358-.812-.483-1.155-.14M59.213 62.662c-.008.288-.586.416-1.537.34-1.575-.127-2.144 1.89-.887 3.147 1.614 1.614-.242 6.563-2.524 6.73-1.642.119-1.666.143-1.734 1.721-.038.88.021 1.285.13.9.145-.514.615-.7 1.766-.7 1.752 0 2.705-1.398 3.536-5.188.254-1.16.751-2.051 1.414-2.534 1.182-.86 1.391-2.838.436-4.102-.323-.427-.593-.568-.6-.314M204.4 64.805c0 1.554.167 2.056.795 2.392.438.235.913.916 1.056 1.515.143.598.704 2.213 1.247 3.588l.987 2.5h1.785c2.564 0 2.476-1.731-.097-1.919-1.424-.105-1.683-.279-2.082-1.4-.867-2.44-1.026-5.054-.324-5.324.348-.133.633-.504.633-.823 0-.32-.141-.494-.314-.387-.173.107-.315-.153-.315-.576 0-.424.172-.771.381-.771 1.18 0-.394-.51-1.929-.625l-1.823-.136v1.966m99.2-.205c0 1.79-.007 1.8-1.4 1.8-1.394 0-1.4.008-1.4 1.813 0 1.377-.168 1.864-.7 2.028-1.424.44-1.903.864-2.036 1.8-.23 1.615-1.216 2.359-3.126 2.359-.956 0-1.738.18-1.738.4 0 .22.887.4 1.971.4 1.99 0 3.629-1.181 3.629-2.614 0-.279.634-.881 1.408-1.338.95-.56 1.487-1.221 1.648-2.028.159-.794.694-1.466 1.592-1.995 1.375-.812 1.618-1.59 1.1-3.525-.406-1.516-.948-1.002-.948.9m63.866 12.098c-.798 1.309-.413 3.456.734 4.094.717.4 1.253 1.059 1.331 1.638.072.534.792 1.646 1.6 2.472 1.625 1.661 3.804 4.104 5.71 6.401 1.07 1.289 1.451 1.488 2.672 1.395 2.22-.171 2.133-1.098-.102-1.098-1.808 0-1.876-.045-2.633-1.757-.52-1.176-1.094-1.836-1.739-1.997-.696-.175-1.11-.712-1.5-1.944-.39-1.232-.78-1.736-1.41-1.826-1.514-.216-1.866-1.031-1.367-3.168.809-3.466.516-4.374-1.437-4.449-.921-.035-1.758.072-1.859.239M94.457 78.43c-2.33.458-2.857.978-2.857 2.819 0 2.38 1.503 2.256 1.677-.138.143-1.96 2.099-2.742 4.913-1.965.776.214 1.41.305 1.41.201 0-.237-2.665-1.362-3.087-1.303-.172.024-1.097.198-2.056.386m72.086.176c-1.098.462-1.064.48.857.47 3.174-.017 3.93.366 3.686 1.865l-.205 1.259 2.358-.135c2.274-.131 2.382-.092 3.059 1.101.386.68 1.001 1.333 1.366 1.451 1.654.534 2.275 3.806.917 4.832-1.044.788-.253 1.751 1.437 1.751 2.049 0 2.045-.046 1.9 18.2l-.118 14.8-1.6-.083-1.6-.083 1.314.59c2.967 1.332 2.886 1.785 2.886-16.188 0-17.248-.053-17.977-1.398-19.33-.495-.498-1.036-1.529-1.201-2.29-.36-1.654-4.211-5.616-5.458-5.616-.452 0-1.314-.526-1.915-1.17-1.356-1.452-4.517-2.168-6.285-1.424M286.671 79.9c-.199.339-.042 2.673.349 5.197.223 1.436.15 1.732-.478 1.928-1.452.455-1.945.873-2.142 1.818-.291 1.394-.858 2.112-2.1 2.657-.635.278-1.1.799-1.1 1.229 0 1.209-1.304 2.071-3.131 2.071-.918 0-1.669.18-1.669.4 0 1.247 3.969.388 5.08-1.1a26.915 26.915 0 0 1 2.42-2.747c.715-.686 1.307-1.496 1.315-1.8.009-.304.587-.913 1.286-1.353.85-.535 1.381-1.27 1.605-2.22.249-1.055.639-1.535 1.515-1.865 1.279-.483 1.619-2.146.765-3.741-.418-.782-3.317-1.151-3.715-.474M88.2 83.128c-1.815.145-3.094 1.149-3.84 3.012-.278.693-1.013 1.851-1.633 2.574-1.303 1.519-1.554 4.717-.507 6.486.581.981.587.971.341-.503-.419-2.507.149-5.073 1.231-5.566.613-.28 1.026-.901 1.195-1.8.383-2.043 1.327-2.931 3.114-2.931 1.005 0 1.605-.21 1.761-.617.302-.788.252-.808-1.662-.655m293 11.797c0 3.664-.543 3.832-12.819 3.97-10.738.12-11.27.255-11.72 2.977-.392 2.376-.308 106.528.087 106.528.767 0 .843-4.948.848-54.673.004-51.32.009-51.675.804-51.927.44-.14.803-.377.806-.527.031-1.367.695-1.471 11.079-1.738 14.767-.379 14.499-.309 14.509-3.792.007-2.231-.291-2.543-2.427-2.543-1.109 0-1.167.086-1.167 1.725M278.159 98.21l1.559 1.377 10.441.106 10.441.107-.145 1.6c-.08.88-.217 15.821-.305 33.203l-.159 31.604 1.748-.14c2.37-.188 2.249-1.369 2.256 22.033.003 13.794.138 20.3.421 20.3.286 0 .347-6.789.193-21.7-.124-11.935-.356-35.83-.517-53.1-.315-33.864-.271-33.234-2.377-34.247-.393-.189-5.215-.436-10.715-.548-9.315-.191-10.129-.267-11.878-1.105-2.567-1.23-2.796-1.109-.963.51M145.1 153.867c-.617.169-.701.766-.705 5.062-.003 2.679-.104 5.237-.224 5.684-.205.762-.083.8 1.905.6L148.2 165v-11.2l-1.2-.063c-.66-.034-1.515.024-1.9.13M126.406 193.1c.01 2.297.313 2.505 4.027 2.765 4.806.335 6.261-.298 6.039-2.632-.229-2.396-2.197-2.341-2.396.067-.123 1.483-.143 1.5-1.857 1.5-1.71 0-2.567-.714-1.986-1.654.456-.737-.739-1.546-2.282-1.546-1.527 0-1.551.024-1.545 1.5m74.094 4.164c-1.721.475-1.671.895.069.568 1.606-.301 1.917.039 1.579 1.727-.206 1.033-.436 1.241-1.365 1.241-2.286 0-2.385.176-2.355 4.143.019 2.415.145 3.385.372 2.857.243-.566.352-.619.372-.18.071 1.557 2.828.423 2.829-1.164 0-.801.269-2.982.597-4.847.718-4.079.273-5-2.098-4.345M58.733 200.68c-.671.81-.616 17.898.061 18.713.326.393.782.443 1.681.185 1.858-.532 1.912-.852.121-.707L59 219l.144-3c.169-3.523-.013-3.152 1.607-3.275 1.663-.127 1.796-.371 1.438-2.653-.162-1.03-.376-1.646-.476-1.37-.1.277-.391.372-.647.211-.256-.16-.736-.297-1.066-.302-.46-.009-.682-.834-.951-3.54-.413-4.149-.225-4.523 1.969-3.917.944.261 1.366.27 1.121.025-.844-.844-2.872-1.141-3.406-.499m139.673 13.02-.006 1.5h-50.708l-.648.989c-.357.544-1.232 1.141-1.946 1.326-.714.185-1.298.594-1.298.91 0 .492 4.055.606 28.2.792 15.51.119 28.567.356 29.016.525 1.545.582 2.336-.892 1.605-2.991-.335-.963-.612-2.226-.615-2.807-.006-1.078-2.797-2.034-2.812-.964-.003.231-.181.15-.394-.18-.288-.446-.389-.216-.394.9m3.734 3.993c.316 1.206-.148 1.565-1.636 1.268-1.405-.281-1.379-1.191.052-1.769 1.243-.502 1.329-.475 1.584.501m98.044 21.607c-.105.275-.144 15.89-.087 34.7l.103 34.2 1.649.121c1.211.088 1.714-.047 1.891-.51.178-.462.375-49.947.269-67.511l-.009-1.5h-1.813c-1.081 0-1.889.202-2.003.5m56.161 34.4c-.249 59.841-.209 66.996.374 67.58.39.391 3.237.57 11.469.72 12.554.229 13.012.358 13.012 3.67 0 1.424.081 1.53 1.167 1.53 3.328 0 3.737-4.468.433-4.727-.77-.061-1.85-.271-2.4-.469-.55-.197-5.811-.418-11.69-.491-7.978-.1-10.82-.263-11.2-.643-.548-.548-.543 2.78-.109-67.17.185-29.843.135-34.9-.347-34.9-.479 0-.585 5.228-.709 34.9m-297.722 8.275c-.806.891-.934 14.754-.143 15.545.725.725 2.515.576 3.576-.298l.944-.779-1.765.599c-2.863.971-2.933.767-2.596-7.624l.285-7.108 1.76.198c1.482.167 1.646.121 1.038-.292-1.291-.879-2.442-.968-3.099-.241m148.377-.03-1.6.727 1.8-.036 1.8-.036V297l-1.6-.067-1.6-.067 1.346.587c2.578 1.124 2.854.382 2.854-7.671 0-8.37-.271-9.077-3-7.837m-88.4.269-1.2.55 1.7.018 1.7.018v5.341c0 8.528-.271 10.259-1.608 10.259-1.747 0-1.946.651-2.144 7.02-.102 3.289-.098 5.395.009 4.68.18-1.207.304-1.3 1.726-1.3 1.085 0 1.609-.202 1.798-.694.406-1.058.994-12.364.994-19.106 0-7.391-.277-8.021-2.975-6.786m-56.197 25.778c-.884 2.134-.28 3.208 1.805 3.208 2.45 0 2.527-1.088.092-1.307l-1.7-.153 1.7-.07c1.663-.068 1.7-.101 1.7-1.47 0-1.997-2.789-2.158-3.597-.208M279.2 338.93c0 1.346-.23 1.946-1.037 2.7-2.153 2.014-1.935 2.474.514 1.086L281 341.4l9.676.127c10.873.142 11.572.015 11.164-2.026-.252-1.263-.905-2.301-1.447-2.301-.17 0-.152.675.04 1.5.191.825.352 1.635.357 1.8.006.165-2.33.3-5.19.3h-5.2l-.05-1c-.028-.55-.095-1.18-.15-1.4a8.326 8.326 0 0 1-.15-.8c-.031-.244-2.15-.4-5.45-.4h-5.4v1.73m-160.869 3.193c.165 2.067-.748 3.232-1.748 2.231-.447-.446-.489-.887-.187-1.939.499-1.74.263-2.005-.387-.436-.991 2.392.385 4.241 2.247 3.021 1.074-.704 1.447-4.6.441-4.6-.347 0-.46.533-.366 1.723m29.606.476.137 2.201h-1.557c-.856 0-1.744-.187-1.973-.416-.287-.287-.404 1.684-.38 6.398l.036 6.813 1.224.002c2.149.005 3.977 2.789 2.51 3.825-1.219.862-27.934.248-27.934-.642 0-.566.345-.869 1.18-1.036 1.098-.22 2.754-1.546 2.384-1.911-.306-.303-3.709 1.563-4.136 2.267-1.216 2.007-.662 2.092 14.449 2.205 16.129.121 15.721.207 14.947-3.152-.223-.964-.409-4.312-.414-7.439-.011-6.13.128-6.514 2.344-6.514 1.108 0 1.625-1.077 1.211-2.521-.522-1.82-.86-1.858-.705-.079.121 1.38.03 1.6-.66 1.6-.688 0-.8-.267-.8-1.901 0-1.76-.074-1.9-1-1.9-.962 0-.995.083-.863 2.2m128.463 2.579c0 .208.855.433 1.9.5 1.804.116 1.94.208 2.69 1.822.434.935 1.019 1.7 1.3 1.7.865 0 2.11 1.546 2.11 2.62 0 .794.32 1.155 1.441 1.623 1.19.497 1.399.755 1.201 1.479-1.178 4.318-.754 5.86 1.615 5.872 2.09.01 2.588-3.147.643-4.075-.774-.37-1.138-.879-1.228-1.722-.077-.726-.707-1.782-1.6-2.684-1.474-1.488-3.49-3.773-5.482-6.213-1.051-1.288-4.59-1.998-4.59-.922m101.063 3.275c-.406.236-.996 1.046-1.312 1.801-.315.755-1.009 1.572-1.543 1.815-.533.243-1.239 1.002-1.569 1.686-.33.685-1.214 1.728-1.964 2.318-.785.617-1.464 1.573-1.6 2.252-.166.828-.537 1.254-1.249 1.433-2.477.622-1.823 4.327.734 4.157 1.305-.086 1.684-.256 1.521-.681-.119-.311-.047-.46.161-.332.222.138.313-.452.221-1.434-.397-4.223-.363-4.383.998-4.74 1.029-.27 1.324-.605 1.608-1.829.264-1.139.654-1.635 1.622-2.064.842-.373 1.355-.935 1.514-1.658.33-1.503 1.339-2.266 2.971-2.247.756.008 1.446-.197 1.533-.457.201-.604-2.615-.62-3.646-.02M290 362c0 .22.789.4 1.754.4 1.813 0 3.046 1.055 3.046 2.606 0 .349.627.897 1.393 1.217.977.408 1.462.909 1.624 1.679.353 1.682.771 2.258 1.821 2.514.863.21.949.416.832 2.009-.38 5.199-.439 4.961 1.283 5.102 2.503.206 3.56-2.781 1.358-3.837-.751-.361-1.221-1.014-1.515-2.104-.3-1.113-.776-1.762-1.611-2.194-.652-.337-1.185-.894-1.185-1.238s-.765-1.406-1.7-2.361c-.935-.954-2.119-2.288-2.63-2.964-.937-1.238-4.47-1.893-4.47-.829m71.674 6.691c-1.065.131-1.538.514-2.4 1.941-.591.978-1.392 1.878-1.781 2.002-.388.123-1.045.886-1.46 1.695-.414.809-1.299 1.873-1.967 2.364-.841.618-1.253 1.294-1.34 2.197-.094.975-.413 1.442-1.262 1.846-.882.421-1.085.736-.906 1.403.127.474.234 1.176.237 1.561.004.523.333.698 1.305.694 2.161-.01 2.348-.331 2.218-3.802-.115-3.052-.09-3.147.874-3.382.729-.178 1.107-.655 1.429-1.801.424-1.511.812-1.914 2.279-2.368.385-.119.7-.541.7-.939 0-1.435 1.133-2.451 2.876-2.579.914-.068 1.736-.348 1.826-.623.166-.503-.079-.523-2.628-.209M303.6 378.8c0 .22.689.4 1.53.4 1.603 0 2.917.995 3.437 2.6.142.44.837 1.163 1.543 1.606.821.516 1.357 1.225 1.487 1.968.131.75.628 1.401 1.403 1.837 1.072.603 1.182.841 1.035 2.232-.445 4.185-.303 5.153.765 5.218.55.033 1.225.078 1.5.1.275.021.5.309.5.639s.045.607.1.615l1.7.222c2.371.308 2.492.384 3.39 2.144.454.89 1.065 1.619 1.356 1.619.787 0 1.854 1.34 1.854 2.328 0 .609.446 1.075 1.5 1.57 1.346.631 1.513.878 1.623 2.403.086 1.187.303 1.699.722 1.699 1.551 0 .494-3.713-1.345-4.725-.935-.514-1.7-1.198-1.7-1.52 0-.322-.765-1.37-1.7-2.33-.935-.959-2.119-2.302-2.63-2.985-.786-1.047-1.196-1.24-2.633-1.24h-1.703l.182-2.187c.169-2.04.112-2.217-.848-2.655-.619-.282-1.128-.92-1.278-1.602-.137-.624-.757-1.562-1.378-2.084-.62-.523-1.421-1.516-1.778-2.207-.358-.692-1.106-1.556-1.663-1.921-.556-.364-1.268-1.159-1.582-1.766-.972-1.879-1.731-2.378-3.618-2.378-.974 0-1.771.18-1.771.4m42.225 8.3c-.755 1.045-1.75 2.13-2.211 2.411-.46.28-1.127 1.118-1.481 1.861-.354.742-1.026 1.524-1.493 1.737-.467.213-1.11.905-1.428 1.539-.319.634-1.092 1.646-1.718 2.25-1.131 1.091-1.561 4.903-.52 4.608.206-.058.328-.871.27-1.806-.104-1.698-.103-1.7 1.304-1.7 1.396 0 1.409-.017 1.53-1.897.105-1.634.279-1.972 1.259-2.439.636-.304 1.39-1.148 1.711-1.917.316-.756 1.016-1.575 1.555-1.821.54-.246 1.094-.8 1.23-1.231.527-1.658 1.85-2.695 3.439-2.695.84 0 1.528-.18 1.528-.4 0-1.445-3.639-.348-4.975 1.5M334.8 404.233c-.944.524-.952.556-.143.561.472.003.961-.264 1.088-.594.126-.33.191-.582.142-.561a58.99 58.99 0 0 0-1.087.594" fill="#747474"/><path d="M330.456 34.471c-.057 1.915-.99 3.137-2.846 3.726-.398.126-.948.77-1.221 1.43-.671 1.619-2.229 2.773-3.746 2.773-1.226 0-1.246.031-1.112 1.719.116 1.462-.038 1.897-1.03 2.9-.642.65-1.389 1.742-1.661 2.428-.271.685-.906 1.467-1.41 1.737-.505.27-1.212 1.107-1.571 1.861-.359.753-1.092 1.569-1.629 1.814-.537.245-1.192.968-1.457 1.606-.747 1.805-2.213 2.735-4.307 2.735-1.42 0-1.719.107-1.346.48.883.883.588 3.357-.485 4.06-.531.348-1.087 1.185-1.235 1.86-.15.683-.798 1.618-1.461 2.108-.655.485-1.478 1.485-1.828 2.224-.351.739-1.056 1.533-1.567 1.766-.511.233-1.03.741-1.153 1.13-.63 1.986-1.778 2.772-4.047 2.772-1.905 0-2.17.093-1.992.7.869 2.961.78 3.696-.507 4.144-1.013.353-1.245.654-1.245 1.611 0 .845-.451 1.619-1.6 2.745-.88.863-1.6 1.815-1.6 2.117 0 .302-.72 1.128-1.6 1.835-.88.707-1.6 1.538-1.6 1.846 0 .309-.63 1.042-1.4 1.629-.77.587-1.4 1.301-1.4 1.585 0 1.12-2.4 2.586-4.331 2.644l-1.869.057 2.046.249c1.125.138 2.367.517 2.76.844.574.477 2.689.635 10.755.802 11.751.244 11.982.303 12.618 3.266.263 1.231.421 9.548.421 22.246.001 34.786.516 84.48.876 84.48.19 0 .295-24.132.234-54.168l-.11-54.168-.889-.946c-1.484-1.579-3.81-1.918-13.217-1.923-4.782-.003-9.076-.108-9.543-.234l-.848-.227.848-.93a438.68 438.68 0 0 1 2.549-2.753c.935-1.003 1.7-2.19 1.7-2.637 0-.448.246-.814.546-.814.891 0 2.654-1.599 2.654-2.406 0-.412.535-1.065 1.189-1.451.653-.386 1.351-1.161 1.551-1.722.199-.562 1.014-1.687 1.811-2.501.797-.814 1.449-1.782 1.449-2.15 0-.368.786-1.361 1.746-2.206s1.978-2.098 2.262-2.784c.284-.686.931-1.405 1.438-1.598.507-.192 1.292-1.077 1.746-1.966.453-.889 1.013-1.616 1.245-1.616.592 0 1.35-.828 2.119-2.316.364-.702 1.093-1.56 1.622-1.907.529-.346 1.153-1.176 1.385-1.844.233-.667 1.161-1.929 2.061-2.803.901-.874 1.819-2.107 2.039-2.739.221-.632.999-1.502 1.729-1.933.837-.494 1.422-1.211 1.582-1.938.175-.796.624-1.295 1.447-1.605.782-.296 1.401-.949 1.797-1.897.332-.795 1.039-1.644 1.571-1.886s1.24-1.121 1.572-1.952c.333-.831.933-1.751 1.333-2.045.401-.294 1.415-1.581 2.255-2.859.839-1.278 1.941-2.482 2.45-2.675.508-.194 1.05-.557 1.205-.807.173-.28.81.328 1.649 1.575.753 1.117 1.553 2.031 1.778 2.031.225 0 .678.643 1.007 1.429.328.785 1.128 1.73 1.777 2.1.649.369 1.181.902 1.182 1.185.005.824 1.244 2.486 1.855 2.486.308 0 .902.585 1.319 1.3.418.715 1.423 2.02 2.234 2.9 2.128 2.311 4.684 5.683 5.504 7.261.39.75 1.11 1.551 1.6 1.779.49.228 1.217 1.114 1.615 1.968.398.854 1.067 1.662 1.487 1.795.42.134 1.152.934 1.627 1.78.475.845 1.306 1.773 1.847 2.063.541.289 1.262 1.065 1.602 1.723.341.659 1.241 1.835 2.001 2.614.759.779 1.638 2.002 1.952 2.717.314.715.943 1.525 1.399 1.8.455.275 1.18 1.182 1.611 2.016.43.834 1.23 1.72 1.776 1.969.546.248 1.099.872 1.227 1.385.129.513.725 1.346 1.326 1.851.6.505 1.259 1.217 1.463 1.583.205.366 1.196 1.527 2.202 2.581 1.006 1.053 2.31 2.68 2.898 3.615.587.935 1.233 1.7 1.434 1.7.202 0 .663.296 1.025.658 1.16 1.161-.045 1.33-9.524 1.336-9.249.006-12.196.344-13.165 1.512-.655.79-1.165 109.778-.512 109.561.263-.088.471-18.73.608-54.3.114-29.792.249-54.206.3-54.253 1.015-.947 2.707-1.13 12.151-1.314 11.647-.227 11.941-.306 11.941-3.219 0-1.512-.463-1.981-1.958-1.981-.691 0-2.842-1.948-2.842-2.574 0-.181-.826-1.161-1.837-2.178-3.595-3.618-4.494-4.659-4.731-5.476-.132-.455-.77-1.219-1.418-1.698a3.705 3.705 0 0 1-1.445-2.301c-.186-.99-.557-1.54-1.206-1.787-.515-.196-1.485-1.128-2.155-2.071-1.29-1.816-3.151-3.982-5.853-6.813-.904-.948-1.763-2.096-1.907-2.552-.145-.456-.692-1.024-1.216-1.263-.532-.242-1.15-1.033-1.4-1.791-.247-.747-.985-1.754-1.64-2.239-1.013-.749-1.192-1.149-1.192-2.669 0-1.682-.065-1.789-1.1-1.797-1.336-.011-2.606-.977-3.423-2.605-.335-.668-1.062-1.457-1.616-1.754-.555-.296-1.219-1.048-1.477-1.67-.258-.622-1.078-1.596-1.823-2.165-.745-.568-1.463-1.465-1.596-1.994-.133-.528-.667-1.24-1.187-1.581-.538-.352-1.135-1.32-1.383-2.242-.24-.891-.742-1.733-1.116-1.871-1.892-.694-3.853-3.271-4.111-5.402l-.255-2.107-.057 1.871M79.647 49.5c.026.165.026.978 0 1.806-.052 1.671.112 1.562-6.147 4.056-.825.328-1.5.77-1.5.982 0 .211-.919.843-2.043 1.402-1.124.56-2.272 1.332-2.552 1.715-.28.383-1.206.891-2.057 1.129-1.152.322-1.582.669-1.681 1.359-.074.515-.649 1.22-1.297 1.588-.773.44-1.166.984-1.167 1.615-.002.523-.595 1.606-1.319 2.407-.899.996-1.481 2.195-1.838 3.79-.884 3.95-1.824 5.149-3.906 4.984l-1.74-.139.046 2.403c.026 1.322.129 2.088.23 1.703.133-.51.59-.7 1.684-.7 2.533 0 3.508-1.633 4.436-7.428.396-2.479.597-2.913 1.626-3.521.645-.382 1.295-1.179 1.443-1.772.284-1.139 4.572-5.51 5.782-5.894.392-.124.82-.566.952-.981.131-.415.906-.97 1.72-1.232.815-.263 2.024-1.061 2.688-1.774.855-.918 1.732-1.384 3-1.598 2.032-.341 5.964-1.542 7.181-2.194.815-.436 1.084-2.031.569-3.373-.25-.651-4.211-.972-4.11-.333m101.298.189c-1.549 2.507 1.356 4.685 7.627 5.716 1.037.17 2.044.731 2.962 1.649.765.765 1.907 1.494 2.538 1.62.631.127 1.5.724 1.93 1.329.43.604 1.416 1.399 2.19 1.766.774.368 1.408.864 1.408 1.103 0 .466 1.529 1.928 2.018 1.928.162 0 .586.728.942 1.617s1.156 2.114 1.778 2.722c.917.897 1.253 1.772 1.779 4.639.778 4.238 1.636 5.422 3.929 5.422 1.716 0 2.134-.427 1.784-1.823-.206-.822-.487-.977-1.769-.977-1.672 0-2.585-1.377-3.714-5.6-.265-.99-.908-2.267-1.429-2.838-.521-.57-1.135-1.716-1.364-2.545-.261-.943-.711-1.585-1.201-1.713-.432-.113-1.031-.795-1.332-1.515-.395-.947-.889-1.384-1.783-1.581-.681-.149-1.462-.592-1.738-.983-.275-.392-1.4-1.168-2.5-1.725-1.1-.558-2.334-1.383-2.741-1.834-.408-.451-1.265-.936-1.905-1.076-.639-.14-1.655-.5-2.258-.798a29.055 29.055 0 0 0-2.196-.958c-.977-.368-1.1-.617-1.1-2.224V49.2h-1.776c-.977 0-1.913.22-2.079.489M93.792 77.19c-2.566.289-4.161 1.092-5.141 2.589-.357.544-1.191 1.033-2.031 1.191-1.181.221-1.596.59-2.422 2.149-.548 1.034-1.582 2.573-2.297 3.418-2.279 2.692-1.81 9.863.645 9.863.216 0 .002-.417-.476-.926-1.487-1.583-.85-7.874.798-7.874.162 0 .652-.765 1.089-1.7 1.479-3.163 2.148-3.645 4.651-3.351l2.192.258v-1.793c0-2.788 4.443-4.326 7.699-2.665 1.402.714 1.457.716 1.089.029-.353-.66-1.175-1.058-2.788-1.35-.33-.06-1.684.013-3.008.162m73.191-.049c-.988.183-1.706.763-2.263 1.826-.416.794-.401.801.323.161 2.155-1.909 6.259-1.671 8.221.478.6.657 1.465 1.194 1.922 1.194 1.107 0 5.013 3.942 5.382 5.43.159.644.744 1.649 1.301 2.234 1.374 1.445 1.691 5.583 1.714 22.366l.017 13.031-.926.869c-1.136 1.067-1.311 1.071-3.186.066-1.46-.782-1.487-.783-1.015-.028 1.008 1.615 3.301 2.07 4.697.932.859-.7.859-.701.744-19.033l-.114-18.333-1.242-1.11c-.684-.61-1.355-1.54-1.492-2.067-.677-2.6-3.578-5.157-5.85-5.157-.449 0-.816-.242-.816-.538 0-1.54-4.328-2.894-7.417-2.321m-21.694 75.482c-.489.342-.889.814-.889 1.049 0 .284.166.295.5.032 3.021-2.379 4.3-.752 4.3 5.469 0 6.233-.281 6.827-3.223 6.827-1.519 0-1.977.144-1.977.62 0 1.376 4.436.584 5.486-.979 1.321-1.964 1.381-10.662.087-12.479-.955-1.34-2.807-1.574-4.284-.539m-25.653 1.133c-.611.737-.561 13.736.054 13.941.234.078 1.164.043 2.068-.078l1.642-.219.109-6.658.11-6.657-1.269-.443c-1.661-.578-2.156-.558-2.714.114M188 188.133c0 .807.156 1.467.348 1.467.191 0 .281-.57.2-1.267-.211-1.807-.548-1.931-.548-.2m3.6 2.667c0 .22.72.4 1.6.4.88 0 1.6-.18 1.6-.4 0-.22-.72-.4-1.6-.4-.88 0-1.6.18-1.6.4m-67.522 2.826c.189 3.238 1.063 3.705 7.01 3.743 5.077.033 8.007-.548 9.154-1.815.917-1.013.242-1.003-3.042.046-3.035.97-9.403 1.125-10.589.257-.437-.319-.838-1.261-.976-2.294-.377-2.813-1.722-2.759-1.557.063m76.048 2.377c-.48.193-1.058.696-1.282 1.116-.402.75-.383.75 1.112.011 3.293-1.63 3.787-.419 2.987 7.323-.638 6.166-.37 11.628.665 13.562.524.98-1.502 2.819-2.608 2.368-.44-.18-13.386-.339-28.769-.355-25.006-.025-28.043-.096-28.673-.666-1-.905-.546-1.653 1.692-2.787 2.281-1.156 2.444-1.44.65-1.131-4.152.714-5.696 3.753-2.717 5.347 1.434.768 59.807.544 60.451-.232.562-.678.956-22.828.421-23.649-.726-1.112-2.439-1.507-3.929-.907m-141.8 3.359c-1.624.81-1.736 1.629-1.526 11.15.173 7.85.293 9.173.896 9.876.879 1.025 3.142 1.089 3.981.112 1.194-1.39 1.295-1.829.272-1.183-3.766 2.38-4.065 1.722-4.146-9.126-.083-10.928.626-12.382 4.531-9.308.607.478.608.442.017-.476-.754-1.17-2.739-1.686-4.025-1.045m63.177 18.465c-1.88 1.02-1.506 3.699.563 4.03.844.135 1.548.357 1.565.494.016.137.117.609.223 1.049.106.44.212 1.025.236 1.3.027.306.642.5 1.589.5 1.62 0 1.817-.215 2.007-2.184.092-.952-.102-1.29-.986-1.722-.809-.395-1.1-.833-1.1-1.654 0-2.13-1.934-2.986-4.097-1.813m-58.94 7.433c-.088.143.649.324 1.638.403 1.077.085 1.799-.025 1.799-.276 0-.447-3.167-.564-3.437-.127m77.237 1.826c-2.018.488-3.267 3.274-1.987 4.43.173.156.201-.031.063-.416s-.122-.714.037-.731c.158-.016.572-.086.92-.154.349-.069.634.108.634.392 0 .284-.242.424-.538.31-.337-.129-.459 0-.326.345.129.337.91.583 2.004.632l1.793.079v-1.924c0-1.701-.872-3.412-1.631-3.203-.093.026-.529.134-.969.24m164.913 45.604c.086 25.702-.005 34.346-.374 35.71-.309 1.142-.589 6.92-.766 15.8-.397 19.962.947 18-12.331 18-8.724 0-9.994.081-10.942.7-.589.385-1.483.703-1.986.706-.503.003-1.184.181-1.514.394-.43.278-.018.389 1.459.394 2.24.007 1.752-.374 6.077 4.735.805.95 2.031 2.3 2.724 3 .693.699 1.378 1.671 1.524 2.161.145.489.793 1.266 1.44 1.727 1.029.733 1.176 1.084 1.176 2.81 0 1.911.037 1.973 1.161 1.973.848 0 1.467.382 2.3 1.417.626.78 1.879 2.179 2.784 3.111.904.931 1.771 2.093 1.927 2.583.155.489.458.889.674.889.656 0 2.354 2.068 2.354 2.867 0 .413.441.951.98 1.197.963.438 1.82 2.134 1.82 3.599 0 .489.526.954 1.536 1.358 1.03.412 1.822 1.122 2.4 2.151.475.844 1.273 1.804 1.774 2.132.501.328 1.263 1.25 1.693 2.049.43.798 1.103 1.554 1.496 1.678.393.125 1.055.889 1.471 1.698.416.809 1.313 2 1.993 2.646.806.765 1.237 1.563 1.237 2.29 0 .824.301 1.27 1.152 1.71 1.281.663 3.066 2.621 3.428 3.762.129.408.691.949 1.248 1.203.558.254 1.271 1.078 1.586 1.832.315.753.921 1.48 1.346 1.615 1.874.595 2.84 1.813 2.84 3.581 0 1.626.059 1.712 1.2 1.744.66.019 1.2-.133 1.2-.339 0-.205.268-.373.596-.373.39 0 .567-.344.512-1-.045-.55-.223-1-.395-1-.831 0-.305-3.987.603-4.582.505-.33 1.144-1.229 1.422-1.997.278-.769 1.015-1.761 1.639-2.205.624-.444 1.239-1.214 1.368-1.712.129-.497.857-1.324 1.617-1.837.76-.512 1.559-1.438 1.774-2.056.215-.617.955-1.456 1.644-1.863.689-.407 1.351-1.13 1.47-1.606.293-1.164 1.787-2.515 3.198-2.889.982-.261 1.171-.533 1.28-1.844.089-1.075.435-1.78 1.148-2.341.562-.441 1.265-1.387 1.564-2.102.299-.715 1.063-1.67 1.699-2.122.635-.453 1.363-1.324 1.616-1.936.254-.612.998-1.471 1.655-1.91.657-.439 1.298-1.119 1.423-1.511.498-1.552 1.972-2.631 3.772-2.76l1.763-.127-.107-2c-.092-1.74.01-2.052.79-2.4.546-.243 1.12-1.076 1.466-2.128.355-1.079.92-1.888 1.506-2.155.515-.235 1.109-.92 1.319-1.523.21-.602 1.029-1.589 1.82-2.192.791-.603 1.438-1.337 1.438-1.631 0-.293.72-1.112 1.6-1.819.88-.707 1.6-1.499 1.6-1.761 0-1.14 1.954-2.591 3.491-2.591h1.53l-.154-1.7c-.283-3.126-.184-3.097-10.629-3.124-10.187-.026-12.902-.302-13.699-1.392-.434-.594-.482-9.776-.267-51.653.197-38.65.148-50.931-.206-50.931-.35 0-.466 6.452-.466 25.9-.001 14.245-.12 37.356-.266 51.359l-.264 25.458 1.123 1.042 1.124 1.041h10.941c11.278 0 12.561.198 10.032 1.552-.5.267-1.391 1.333-1.98 2.367-.589 1.035-1.889 2.751-2.89 3.815-1.001 1.063-1.82 2.145-1.82 2.405 0 .259-.405.649-.9.866-.495.217-1.203 1.002-1.573 1.743-.37.741-1.207 1.672-1.859 2.069-.679.413-1.381 1.314-1.644 2.11-.263.798-.793 1.476-1.244 1.594-.433.113-1.101.91-1.487 1.77-.385.86-1.353 2.138-2.152 2.839-.799.701-1.756 1.915-2.127 2.697-.371.782-.976 1.527-1.344 1.655-.922.322-2.05 1.767-2.061 2.639-.005.435-.479.884-1.195 1.134-.798.278-1.407.914-1.861 1.943-.371.841-1.107 1.726-1.635 1.966-.528.241-1.223 1.067-1.544 1.837-.322.769-.95 1.624-1.396 1.899-.446.275-1.462 1.609-2.257 2.964-.795 1.355-1.849 2.648-2.343 2.873-.494.225-1.1 1.007-1.346 1.736a3.22 3.22 0 0 1-1.734 1.927c-.839.391-1.405 1.018-1.626 1.8-.213.754-.808 1.436-1.6 1.834-.798.401-1.39 1.083-1.612 1.856-.193.673-.761 1.443-1.261 1.711-.501.268-1.148.962-1.438 1.543-.984 1.968-1.048 1.997-2.946 1.315-1.217-.438-1.844-.922-2-1.543-.125-.499-1.032-1.763-2.015-2.811-.983-1.048-2.069-2.492-2.414-3.209-.345-.718-1.059-1.588-1.587-1.933-.527-.346-1.167-1.26-1.422-2.031-.317-.963-.814-1.526-1.583-1.794-.718-.25-1.217-.776-1.388-1.464-.344-1.378-1.335-2.474-2.236-2.474-.459 0-.798-.419-.969-1.195-.149-.679-.94-1.775-1.832-2.538-.863-.739-1.569-1.452-1.569-1.585 0-.508-2.476-3.882-2.849-3.882-.215 0-.65-.585-.965-1.3-.729-1.656-1.55-2.7-2.122-2.7-.246 0-.819-.727-1.272-1.616-.454-.889-1.272-1.82-1.818-2.069-.546-.248-1.093-.85-1.215-1.335-.122-.486-.855-1.49-1.63-2.232-.775-.741-2.018-2.293-2.764-3.448-.745-1.155-1.524-2.1-1.731-2.1-.207 0-.701-.737-1.099-1.638-.407-.923-1.206-1.888-1.829-2.211-.615-.317-1.106-.907-1.106-1.326 0-.708-2.083-2.825-2.781-2.825-.175 0-.42-.503-.543-1.118-.129-.649-.662-1.353-1.267-1.677-.575-.308-1.43-1.244-1.9-2.082-.471-.838-1.003-1.523-1.183-1.523-.179 0-.326-.166-.326-.368 0-.75 2.798-.985 10.441-.878 8.436.117 10.427-.163 12.239-1.721l1.092-.939.317-23.041c.51-37.112.253-78.415-.489-78.558-.53-.102-.587 3.827-.487 33.795M187.4 251.862c-2.788.59-2.654.48-2.523 2.051.068.821.347 1.509.623 1.537.275.028.995.073 1.6.101.979.046 1.103.208 1.131 1.484.041 1.861.583 2.151 4.025 2.159l2.855.006.807-1.7c1.072-2.26.441-3.1-2.33-3.1-3.243 0-4.298-.366-4.744-1.645-.221-.635-.457-1.134-.523-1.109-.067.026-.481.123-.921.216m-91.229 4.424c-.746.746-1.108 2.251-.787 3.265.734 2.31 4.749.635 4.537-1.892-.14-1.675-2.562-2.561-3.75-1.373m23.134 10.214c-.942 1.2-.908 3.055.075 4.116l.957 1.033 1.631-.833c2.122-1.082 2.064-1.456-.199-1.276l-1.832.146.237-1.49c.13-.819.335-1.648.455-1.843.34-.55-.883-.415-1.324.147m11.095 8.1v1.8h2.957c3.205 0 3.443.167 3.443 2.409 0 1.435.213 1.54 2.26 1.109 2.694-.567 2.428-3.125-.387-3.722-1.092-.231-1.786-.563-1.6-.766.189-.206-.011-.246-.473-.093-.753.249-.758.232-.085-.291.741-.577.779-1.43.085-1.94-.696-.511-1-.334-1.014.594l-.014.9-.533-.961c-.389-.702-.592-.81-.754-.4-.151.383-.232.402-.253.061-.021-.321-.676-.5-1.832-.5h-1.8v1.8m-72.047 5.949c-2.309 1.151-2.966 16.142-.786 17.906 1.61 1.302 4.99.919 5.162-.584l.13-1.13-.83.83c-.984.984-2.915 1.086-3.8.2-1.085-1.084-.919-15.081.191-16.191.936-.936 2.053-.77 3.455.512l.874.8-.223-.852c-.255-.977-.513-1.177-2.094-1.631-.719-.206-1.49-.154-2.079.14m149.047-.09c-1.168.317-2.2 1.295-2.2 2.087 0 .216.405.027.9-.421 3.376-3.055 4.3-1.418 4.3 7.613 0 8.852-1.073 10.657-4.5 7.569-.385-.347-.7-.451-.7-.231 0 1.521 3.084 2.474 4.775 1.475l1.225-.723.073-7.014c.092-8.798.094-8.766-.681-9.623-.841-.929-1.719-1.13-3.192-.732m-89.394.723c-1.227.942-.809 1.545.457.659 1.253-.878 2.15-.804 3.164.259 1.383 1.452.506 27.5-.976 28.982-.058.059-.964.139-2.013.178l-1.907.072.222 2.403c.251 2.705.573 3.05 2.858 3.059l1.61.006-.148-1.556c-.096-1.009.092-1.925.537-2.603 1.57-2.396 1.938-30.56.414-31.674-1.084-.791-3.038-.692-4.218.215M63.801 300.33c-1.916.228-4.338 7.331-3.54 10.383.443 1.692 5.739 3.064 5.739 1.487 0-.441-.46-.6-1.738-.6-2.815 0-3.341-.897-2.394-4.077l.751-2.523 1.691-.123 1.69-.123v-2.31c0-1.596-.155-2.302-.5-2.284-.275.015-1.039.091-1.699.17m131.342 16.97c-.355 3.119-.349 3.136 1.387 3.914 2.88 1.289 4.268-1.222 2.163-3.914-.215-.275-1.089-.5-1.942-.5-.944 0-1.573.196-1.608.5M87.962 330.572c-1.565 1.564 1.167 5.486 3.227 4.633 2.174-.901 2.259-1.535.175-1.3l-1.854.209.148-1.857c.138-1.739-.755-2.626-1.696-1.685m87.363.874c-.347.737-.313.848.2.651.531-.204.523-.101-.053.722-.926 1.321-.887 1.408.947 2.142 2.55 1.02 3.859-.178 3.512-3.213-.179-1.571-3.892-1.814-4.606-.302m-5.788 4.107c.279 4.068 3.051 4.107 3.328.047l.123-1.8-1.794-.118-1.794-.118.137 1.989m-13.296 2.324c-.68 2.159.905 4.658 2.206 3.481 1.312-1.188.833-3.931-.713-4.081-.938-.091-1.324.064-1.493.6m-36.641 4.72c0 2.244-.827 3.403-2.427 3.403-1.486 0-2.78-3.454-1.573-4.2.598-.37.482-1-.184-1-.336 0-.79.687-1.067 1.614-.645 2.15.332 3.556 2.993 4.308l1.858.524-.009 5.277c-.008 4.621-.106 5.401-.791 6.277-1.058 1.353-.997 2.639.182 3.818l.982.982h14.364c13.926 0 14.396-.025 15.418-.829l1.054-.829.006-7.271c.007-7.666.065-7.998 1.494-8.444 1.765-.551 2.201-3.782.68-5.044-.919-.762-1.054-.254-.322 1.213.808 1.619.473 2.312-1.616 3.351l-1.503.748.106 7.521c.08 5.739-.019 7.671-.419 8.153-.791.952-28.445.955-29.397.002-1.403-1.402.049-4.164 2.197-4.177 2.024-.013 2.037-.073 1.901-9.034l-.127-8.359-1.9-.081-1.9-.081v2.158" fill="#b0b0b0"/></g></svg>