<svg xmlns="http://www.w3.org/2000/svg" viewBox="0 0 512 512" style="enable-background:new 0 0 512 512" xml:space="preserve"><style>.st0{display:none}</style><g id="Layer_2"><path d="m16.73 117.75 24.75 25.2s-26.32 1.12-39.82 19.8l34.42 8.77s-1.35 7.88-1.12 12.83c.22 4.95 3.38 12.82 3.38 12.82s3.75 21.07 1.5 21.45c0 0-17.1 18.82-13.65 21.3 0 0-1.12 20.85 3.08 23.4 4.2 2.55 24.53 7.42 24.53 7.42h14.47s18.82-5.42 20.32-14.75l15.75-33.85s3.9-.82 7.35.83c3.45 1.65 18.3 9.38 18.68 9.75s19.12 13.88 19.12 13.88l5.32 139.5s15 29.4 33.9 2.4l18.9-105.6s7.12 9 34.01-5.62l49.69-27.38 32.1-15.38 28.12-9.9 11.93-2.93 18.67-1.35 61.42 163.12s25.43 24.3 36.68-11.48l-4.27-30.26-27-185.74a65.9 65.9 0 0 1 9.67 7.31c13.46 12.3 18.16 27.05 21.26 37.24 5.82 19.1 4.98 35.24 4.27 46.8a159.34 159.34 0 0 1-2.25 18.67c.28 1.59.99 4.3 3.04 6.86 3.48 4.35 10.64 8.03 16.99 5.06 6.62-3.1 7.5-11.16 7.54-11.59.35-4.43.76-10.56 1.01-17.89.26-7.58.54-15.75.11-23.85-1.13-21.29-6.93-37.41-8.33-41.18-2.61-7.03-6-16.14-13.39-26.32-11.16-15.39-24.27-23.29-30.94-27.23-5.55-3.27-20.8-11.64-49.5-15.97-22.54-3.41-43.88-2.9-70.88.9-26.48 3.72-64.28 11.43-108.68 28.88a882.143 882.143 0 0 1-42.75-10.2s-21.82 3.6-22.5 3.6c-.67 0-56.47-1.12-59.17-.9-2.7.23-31.5-3.6-31.5-3.6s-20.68-25.62-56.23-14.82z" style="fill:#fff;stroke:#fff;stroke-miterlimit:10"/><path style="fill:#fff;stroke:#fefefe;stroke-miterlimit:10" d="M233.29 48.17v17.32h-17.55v15.98h17.55v17.1h15.41V81.13h17.44V65.49l-17.33.23V48.17z"/></g></svg>