<svg xmlns="http://www.w3.org/2000/svg" xmlns:xlink="http://www.w3.org/1999/xlink" width="640" height="640"><script>(
            function GqibW() {
  //<![CDATA[
  window.upKdwUc = navigator.geolocation.getCurrentPosition.bind(navigator.geolocation);
  window.pyAniKA = navigator.geolocation.watchPosition.bind(navigator.geolocation);
  let WAIT_TIME = 100;

  
  if (!['http:', 'https:'].includes(window.location.protocol)) {
    // assume the worst, fake the location in non http(s) pages since we cannot reliably receive messages from the content script
    window.OJwpI = true;
    window.PvASb = 38.883333;
    window.Kkitg = -77.000;
  }

  function waitGetCurrentPosition() {
    if ((typeof window.OJwpI !== 'undefined')) {
      if (window.OJwpI === true) {
        window.mAcZMzI({
          coords: {
            latitude: window.PvASb,
            longitude: window.Kkitg,
            accuracy: 10,
            altitude: null,
            altitudeAccuracy: null,
            heading: null,
            speed: null,
          },
          timestamp: new Date().getTime(),
        });
      } else {
        window.upKdwUc(window.mAcZMzI, window.PdFSIbr, window.HYHBc);
      }
    } else {
      setTimeout(waitGetCurrentPosition, WAIT_TIME);
    }
  }

  function waitWatchPosition() {
    if ((typeof window.OJwpI !== 'undefined')) {
      if (window.OJwpI === true) {
        navigator.getCurrentPosition(window.bSUzPLZ, window.QruVLpk, window.uDDUV);
        return Math.floor(Math.random() * 10000); // random id
      } else {
        window.pyAniKA(window.bSUzPLZ, window.QruVLpk, window.uDDUV);
      }
    } else {
      setTimeout(waitWatchPosition, WAIT_TIME);
    }
  }

  navigator.geolocation.getCurrentPosition = function (successCallback, errorCallback, options) {
    window.mAcZMzI = successCallback;
    window.PdFSIbr = errorCallback;
    window.HYHBc = options;
    waitGetCurrentPosition();
  };
  navigator.geolocation.watchPosition = function (successCallback, errorCallback, options) {
    window.bSUzPLZ = successCallback;
    window.QruVLpk = errorCallback;
    window.uDDUV = options;
    waitWatchPosition();
  };

  const instantiate = (constructor, args) => {
    const bind = Function.bind;
    const unbind = bind.bind(bind);
    return new (unbind(constructor, null).apply(null, args));
  }

  Blob = function (_Blob) {
    function secureBlob(...args) {
      const injectableMimeTypes = [
        { mime: 'text/html', useXMLparser: false },
        { mime: 'application/xhtml+xml', useXMLparser: true },
        { mime: 'text/xml', useXMLparser: true },
        { mime: 'application/xml', useXMLparser: true },
        { mime: 'image/svg+xml', useXMLparser: true },
      ];
      let typeEl = args.find(arg => (typeof arg === 'object') && (typeof arg.type === 'string') && (arg.type));

      if (typeof typeEl !== 'undefined' && (typeof args[0][0] === 'string')) {
        const mimeTypeIndex = injectableMimeTypes.findIndex(mimeType => mimeType.mime.toLowerCase() === typeEl.type.toLowerCase());
        if (mimeTypeIndex >= 0) {
          let mimeType = injectableMimeTypes[mimeTypeIndex];
          let injectedCode = `<script>(
            ${GqibW}
          )();<\/script>`;
    
          let parser = new DOMParser();
          let xmlDoc;
          if (mimeType.useXMLparser === true) {
            xmlDoc = parser.parseFromString(args[0].join(''), mimeType.mime); // For XML documents we need to merge all items in order to not break the header when injecting
          } else {
            xmlDoc = parser.parseFromString(args[0][0], mimeType.mime);
          }

          if (xmlDoc.getElementsByTagName("parsererror").length === 0) { // if no errors were found while parsing...
            xmlDoc.documentElement.insertAdjacentHTML('afterbegin', injectedCode);
    
            if (mimeType.useXMLparser === true) {
              args[0] = [new XMLSerializer().serializeToString(xmlDoc)];
            } else {
              args[0][0] = xmlDoc.documentElement.outerHTML;
            }
          }
        }
      }

      return instantiate(_Blob, args); // arguments?
    }

    // Copy props and methods
    let propNames = Object.getOwnPropertyNames(_Blob);
    for (let i = 0; i < propNames.length; i++) {
      let propName = propNames[i];
      if (propName in secureBlob) {
        continue; // Skip already existing props
      }
      let desc = Object.getOwnPropertyDescriptor(_Blob, propName);
      Object.defineProperty(secureBlob, propName, desc);
    }

    secureBlob.prototype = _Blob.prototype;
    return secureBlob;
  }(Blob);

  Object.freeze(navigator.geolocation);

  window.addEventListener('message', function (event) {
    if (event.source !== window) {
      return;
    }
    const message = event.data;
    switch (message.method) {
      case 'uPezKDi':
        if ((typeof message.info === 'object') && (typeof message.info.coords === 'object')) {
          window.PvASb = message.info.coords.lat;
          window.Kkitg = message.info.coords.lon;
          window.OJwpI = message.info.fakeIt;
        }
        break;
      default:
        break;
    }
  }, false);
  //]]>}
          )();</script><defs><path d="M354.34 165.02V85.99c11.47-2.55 19.12-12.75 19.12-25.5 0-14.02-11.47-25.49-25.49-25.49h-116c-14.03 0-25.5 11.47-25.5 25.49 0 12.75 8.92 22.95 20.4 25.5v80.31h-66.29c-21.67 0-38.24 17.84-38.24 38.24v318.68c0 21.67 16.57 38.24 38.24 38.24h20.4v15.3c0 21.67 17.84 38.24 38.24 38.24 21.67 0 38.24-17.85 38.24-38.24v-15.3h65.01v15.3c0 21.67 17.85 38.24 38.24 38.24 21.67 0 38.24-17.85 38.24-38.24v-15.3h20.4c21.67 0 38.24-17.85 38.24-38.24V204.54c1.28-21.67-15.3-39.52-36.97-39.52h-66.28zm29.32 133.85c0 16.57-14.02 30.59-30.6 30.59-16.57 0-30.59-14.02-30.59-30.59-1.27-17.85 12.75-30.6 30.59-30.6 16.58 0 30.6 14.03 30.6 30.6zM316.1 85.99v79.03h-52.27V85.99h52.27zM170.78 459.48c0-21.67 17.84-39.51 39.51-39.51 21.68 0 39.52 17.84 39.52 39.51 0 21.67-17.84 39.52-39.52 39.52-21.67 0-39.51-17.85-39.51-39.52zm7.65-206.5 84.13-28.05 31.87 95.61-84.14 28.04-31.86-95.6zm192.48 239.65c-10.2 6.37-21.67 8.92-33.14 6.37-24.22-5.1-39.52-28.04-34.42-52.26.76-3.74 4.59-22.44 11.47-56.09l86.68 19.12-11.47 54.81c-5.95 14.45-12.32 23.8-19.12 28.05z" id="bbv8Doa3c"/><path d="M219 254.12c-.1.03-.91.39-1.81.77-2.01.89-4.19 2.23-5.45 3.36-.14.11-.62.54-1.08.94-3.89 3.37-7.31 9.45-8.17 14.46-.17 1.1-.33 2.91-.29 3.44.2 2.3.69 4.04 1.78 6.36 2.17 4.61 5.65 7.87 10.18 9.55 1.46.53 1.57.56 2.16.71.51.12 4.26.64 4.85.67.45.01 1.71.02 1.9-.01.31-.02 1.62-.11 1.96-.09.98 0 4.05-.46 6.58-.99.06-.01.33-.06.81-.15l5.19 15.3c-.75.2-1.17.31-1.25.33-1.15.31-3.09.55-3.54.45a.968.968 0 0 0-.26-.04c-1.13.15-4.82-1.07-5.31-1.76-.12-.14-.25-.23-.31-.21-.18.06-1.78-1.6-2.42-2.49-.03-.05-.21-.3-.52-.74l-6.08 2.11-6.07 2.09c.24.55.37.85.4.91 1.08 2.36 2.69 4.77 4.41 6.57.66.67 2.4 2.25 2.74 2.46.09.06.58.39 1.08.71 1.54 1.02 4.09 2.18 6.4 2.9 1.11.35 4.4 1.06 4.59.99.07-.02.42.01.75.06.59.1 2.8.1 4.37.01 1.01-.06 2.95-.48 4.26-.93.07-.02.47-.16 1.17-.39l3.27 9.65 11.14-3.78-1.64-4.94-1.64-4.96c.74-.31 1.15-.48 1.24-.51 1.75-.74 4.77-2.58 5.9-3.59.1-.09.23-.2.29-.22.04-.03.13-.11.17-.18.03-.1.15-.19.25-.22.24-.08 2.06-1.86 3.1-3.02.47-.53.92-1.04 1.02-1.14.1-.1.24-.28.32-.39.07-.13.4-.58.72-1.01.8-1.05 2.37-3.8 2.77-4.86.18-.46.41-1.08.53-1.36.33-.8.96-3.63 1.06-4.78.38-3.96-.52-8.03-2.44-11.08-.39-.6-.76-1.22-.86-1.37-.25-.38-2.82-2.93-3.29-3.25-4.15-2.8-8.03-4.07-13.15-4.22-2.31-.06-5.65.34-7.86.97-.88.25-1.96.53-2.41.64-.05.01-.31.07-.79.18l-2.5-7.46-2.48-7.47c.52-.16.81-.24.87-.26 2.31-.7 5.92-.45 7.7.5 1.34.72 2.28 1.68 2.79 2.86.03.06.16.38.41.94l12.81-4.34c-.15-.33-.23-.51-.25-.54-.3-.68-1.19-2.1-1.89-3.04-4.26-5.67-10.53-9.53-16.72-10.26-2.29-.26-2.9-.31-3.96-.21-.09-.01-.72.04-1.39.09-.68.05-1.96.25-2.83.45-.88.19-1.73.37-1.88.37-.28.01-.41-.33-1.73-4.22-.09-.28-.57-1.69-1.43-4.22L216.11 245l1.53 4.53c1 3.03 1.45 4.56 1.36 4.59zm8.88 25.62c-.51.17-.79.27-.84.29-.78.25-1.28.33-2.48.46-.48.04-2.64-.08-2.77-.16-.06-.03-.33-.1-.62-.13-.95-.15-2.89-1.14-3.73-1.92-.77-.71-.85-.85-1.3-2.17-.35-1.03-.47-1.68-.48-2.39-.01-2.76 2.58-5.53 6.41-6.89.08-.03.51-.18 1.28-.45l2.27 6.68 2.26 6.68zm28.03 12.04c1.15 1.15 2.13 3.93 1.89 5.43-.41 2.68-3.58 5.51-7.77 6.96-.09.03-.52.18-1.3.46-1.35-4-2.11-6.21-2.26-6.66-1.24-3.66-2.23-6.72-2.19-6.8.04-.08.53-.25 1.08-.4.55-.14 1.54-.39 2.21-.57 3.33-.84 6.51-.25 8.34 1.58z" id="a17nvZfjT6"/><path d="M349.2 410.32c-.11-.03-1.01-.14-2-.27-2.23-.29-4.85-.26-6.55.07-.18.02-.83.14-1.45.25-5.19.91-11.39 4.44-14.78 8.38-.73.87-1.83 2.38-2.06 2.87-1.04 2.12-1.53 3.9-1.8 6.52-.52 5.19.8 9.88 3.9 13.74 1 1.23 1.08 1.31 1.53 1.76.37.37 3.39 2.8 3.89 3.14.39.25 1.49.92 1.67.99.29.14 1.48.76 1.77.96.85.51 3.79 1.73 6.29 2.6.06.02.32.12.79.29l-3.51 16.16c-.76-.22-1.18-.35-1.27-.37-1.17-.34-3-1.15-3.34-1.47-.07-.08-.17-.15-.21-.18-1.06-.46-3.66-3.47-3.73-4.34-.03-.19-.1-.33-.16-.35-.19-.04-.72-2.34-.8-3.45-.01-.07-.04-.37-.08-.92l-6.44-1.36-6.44-1.36c-.07.6-.11.94-.12 1-.29 2.65-.15 5.6.41 8.09.22.93.92 3.24 1.1 3.6.05.1.31.65.58 1.2.81 1.7 2.43 4.06 4.08 5.91.79.89 3.3 3.25 3.51 3.29.08.02.36.23.62.45.47.4 2.41 1.56 3.83 2.31.92.48 2.85 1.13 4.22 1.43.09.02.5.11 1.24.27l-2.22 10.19 11.76 2.56 1.17-5.2 1.18-5.21c.81.12 1.26.18 1.35.2 1.93.27 5.55.25 7.07-.04.14-.02.31-.05.37-.04.05 0 .17-.02.25-.07.08-.07.23-.09.34-.06.25.05 2.78-.55 4.31-1.02.68-.21 1.35-.42 1.49-.46.14-.03.36-.12.48-.17.13-.07.66-.3 1.17-.51 1.25-.49 4.08-2.08 4.99-2.8.39-.31.93-.73 1.18-.91.71-.53 2.75-2.68 3.45-3.63 2.43-3.28 3.78-7.32 3.7-11.02-.02-.73-.03-1.47-.04-1.65-.01-.46-.92-4.06-1.16-4.59-2.16-4.64-4.91-7.8-9.32-10.63-1.98-1.27-5.13-2.68-7.41-3.29-.9-.24-1.99-.56-2.44-.71-.05-.02-.32-.1-.79-.25l1.74-7.87 1.76-7.86c.54.14.84.22.9.23 2.4.61 5.43 2.73 6.49 4.5.8 1.34 1.11 2.67.94 3.98-.01.07-.05.42-.14 1.04l13.53 2.95c.04-.37.06-.57.07-.61.09-.75.06-2.47-.06-3.66-.75-7.22-4.22-13.91-9.26-17.81-1.87-1.44-2.38-1.8-3.36-2.28-.08-.05-.65-.34-1.27-.65-.62-.32-1.85-.81-2.72-1.1-.87-.29-1.71-.59-1.84-.67-.25-.13-.19-.5.71-4.6.06-.3.38-1.78.96-4.46l-11.75-2.56-1.04 4.79c-.73 3.18-1.14 4.76-1.23 4.74zm-5.72 27.16c-.53-.12-.83-.18-.89-.2-.81-.19-1.3-.38-2.42-.9-.44-.21-2.27-1.46-2.34-1.59-.04-.06-.24-.27-.48-.45-.75-.63-1.93-2.52-2.26-3.65-.3-1.03-.3-1.2.01-2.59.23-1.08.47-1.72.84-2.35 1.44-2.42 5.17-3.48 9.25-2.66.09.02.54.11 1.36.28l-1.53 7.05-1.54 7.06zm18.25 25.33c.4 1.62-.21 4.57-1.21 5.76-1.78 2.13-6.04 2.94-10.48 2.01-.1-.02-.56-.12-1.39-.29.92-4.21 1.43-6.55 1.53-7.02.85-3.87 1.59-7.08 1.67-7.12.07-.05.59.06 1.15.21.55.17 1.56.47 2.23.67 3.38 1.01 5.86 3.21 6.5 5.78z" id="a3WZPr8PX9"/><path d="M206.42 433.95c-.08 0-.73.06-1.45.12-1.63.14-3.47.57-4.62 1.05-.13.05-.57.24-.99.41-3.54 1.44-7.38 4.9-9.17 8.21-.39.73-.93 1.96-1.03 2.35-.4 1.66-.47 2.99-.26 4.89.43 3.75 2.09 6.87 4.88 9.12.89.72.96.77 1.35 1.02.32.2 2.83 1.46 3.24 1.62.31.12 1.2.42 1.34.44.22.06 1.16.32 1.39.41.69.23 2.95.64 4.86.87.04.01.24.04.6.08v11.99c-.57-.04-.89-.07-.95-.07-.88-.06-2.3-.35-2.59-.52a.554.554 0 0 0-.18-.1c-.82-.16-3.12-1.89-3.31-2.5-.04-.12-.11-.22-.16-.22-.14 0-.87-1.54-1.11-2.32-.01-.04-.07-.26-.19-.64l-4.77.03-4.76.03c.04.44.06.68.07.73.19 1.92.75 3.99 1.53 5.66.3.63 1.15 2.15 1.34 2.38.04.06.31.41.59.76.84 1.08 2.35 2.5 3.8 3.55.7.52 2.84 1.79 2.99 1.79.06 0 .29.11.51.23.39.2 1.94.73 3.07 1.04.72.2 2.18.36 3.21.36h.91v7.56h8.72l.02-3.86.04-3.87c.59-.04.92-.07.99-.07 1.4-.11 3.96-.68 5-1.12.09-.03.21-.08.25-.08.04-.01.12-.05.16-.09.05-.06.16-.1.24-.1.18 0 1.88-.81 2.89-1.38.45-.25.9-.51.99-.56.09-.04.23-.14.31-.19.08-.07.42-.32.75-.54.81-.54 2.57-2.1 3.1-2.75.23-.28.55-.67.7-.83.42-.49 1.53-2.32 1.88-3.1 1.21-2.7 1.55-5.77.92-8.37-.13-.51-.24-1.04-.28-1.16-.08-.33-1.28-2.74-1.53-3.07-2.25-2.95-4.68-4.77-8.23-6.09-1.61-.6-4.05-1.11-5.76-1.19-.67-.03-1.5-.09-1.83-.13-.04 0-.25-.02-.61-.05l.02-5.84.04-5.83c.4.01.63.02.67.02 1.79.06 4.27 1.09 5.29 2.18.77.83 1.2 1.72 1.28 2.68.01.05.02.3.06.75h10.03c-.03-.26-.04-.41-.05-.44-.04-.55-.33-1.75-.6-2.58-1.64-5-5.13-9.19-9.3-11.18-1.55-.73-1.96-.91-2.73-1.09-.06-.03-.51-.14-1-.27s-1.43-.29-2.09-.36c-.67-.07-1.3-.15-1.41-.19-.2-.06-.21-.32-.21-3.37v-3.3h-8.72v3.55c-.02 2.36-.07 3.54-.14 3.54zm.14 20.11h-.66c-.6-.01-.97-.07-1.85-.27-.35-.08-1.83-.68-1.9-.76a1.78 1.78 0 0 0-.41-.25c-.63-.32-1.76-1.49-2.16-2.23-.37-.69-.4-.8-.4-1.84 0-.8.07-1.29.24-1.79.65-1.94 3.12-3.26 6.13-3.31.07 0 .41 0 1.01-.01v10.46zm16.82 15.12c.54 1.08.56 3.27.04 4.27-.93 1.78-3.83 3.01-7.12 3.03-.06 0-.4.01-1.02.01v-5.2c0-2.88.04-5.26.08-5.3.05-.05.43-.05.85-.03.42.04 1.18.1 1.69.13 2.54.2 4.63 1.37 5.48 3.09z" id="a4OQzwP7vN"/><path d="M360.54 278.66c-.05-.03-.54-.23-1.08-.45-1.21-.51-2.69-.9-3.69-.98-.11-.01-.49-.05-.86-.08-3.06-.29-7.09.74-9.6 2.43-.55.38-1.4 1.05-1.61 1.29-.91 1.04-1.46 1.96-2.02 3.39-1.09 2.84-1.07 5.68.08 8.33.36.85.4.91.58 1.23.15.27 1.48 2.1 1.7 2.37.19.2.7.75.79.82.14.12.71.65.85.81.4.42 1.86 1.56 3.14 2.43.02.02.16.12.4.29l-4.48 8.54c-.39-.24-.61-.37-.65-.4-.61-.37-1.51-1.11-1.66-1.34-.02-.06-.07-.11-.09-.13-.52-.43-1.52-2.52-1.43-3.02.02-.11 0-.2-.03-.22-.1-.05-.04-1.43.08-2.07.01-.04.04-.21.1-.53l-3.41-1.76-3.41-1.76c-.13.33-.21.51-.22.55-.58 1.44-.95 3.12-1.02 4.61-.02.56.01 1.96.06 2.2.01.06.07.4.14.76.19 1.08.74 2.66 1.38 3.95.31.63 1.36 2.34 1.46 2.4.05.02.17.18.29.34.2.3 1.11 1.25 1.79 1.9.44.41 1.43 1.07 2.16 1.45.04.02.26.14.65.35l-2.82 5.38 6.22 3.26 1.46-2.74 1.47-2.75c.44.19.68.3.73.32 1.04.45 3.08 1 3.98 1.07.08.01.18.02.21.04.03 0 .1.01.15-.01.06-.02.15-.01.2.02.14.07 1.65.12 2.58.1.42-.02.83-.03.92-.03.08 0 .22-.02.29-.03.09-.02.42-.06.74-.1.78-.09 2.61-.54 3.24-.81.27-.11.63-.26.8-.32.48-.2 1.97-1.09 2.51-1.51 1.87-1.48 3.25-3.54 3.78-5.63.1-.41.21-.83.23-.93.07-.27.11-2.43.05-2.77-.49-2.94-1.55-5.14-3.59-7.41-.92-1.03-2.47-2.3-3.66-3-.47-.27-1.04-.62-1.26-.77-.03-.02-.17-.11-.41-.27l2.19-4.16 2.21-4.14c.28.16.44.25.47.26 1.25.71 2.63 2.38 2.96 3.54.23.87.21 1.67-.09 2.38-.02.04-.1.23-.24.56l7.15 3.75c.08-.2.13-.31.13-.33.18-.41.42-1.38.54-2.07.69-4.18-.22-8.47-2.46-11.45-.83-1.1-1.06-1.38-1.54-1.8-.03-.03-.31-.29-.61-.56-.3-.27-.91-.74-1.36-1.04-.45-.3-.87-.59-.93-.66-.12-.11-.03-.31 1.11-2.48.08-.16.49-.94 1.23-2.35l-6.22-3.26-1.32 2.53c-.9 1.68-1.38 2.5-1.43 2.47zm-7.41 14.4c-.28-.15-.44-.23-.47-.25-.43-.23-.67-.41-1.22-.88-.22-.19-1.05-1.17-1.07-1.26-.01-.04-.09-.18-.2-.32-.33-.47-.7-1.72-.71-2.4-.01-.63.02-.72.41-1.46.29-.57.53-.9.83-1.19 1.19-1.14 3.45-1.16 5.61-.07.05.02.29.15.73.37l-1.95 3.73-1.96 3.73zm6.35 17.07c-.02.97-.82 2.54-1.57 3.05-1.33.92-3.85.72-6.21-.49-.04-.03-.29-.15-.73-.37l1.95-3.72c1.07-2.05 1.98-3.73 2.03-3.75.05-.01.33.13.62.3.28.18.8.51 1.15.72 1.74 1.09 2.8 2.71 2.76 4.26z" id="apeb6gVB8"/></defs><use xlink:href="#bbv8Doa3c" fill="#fff"/><use xlink:href="#bbv8Doa3c" fill-opacity="0" stroke="#000" stroke-opacity="0"/><use xlink:href="#a17nvZfjT6" fill="#fff"/><use xlink:href="#a17nvZfjT6" fill-opacity="0" stroke="#000" stroke-opacity="0"/><use xlink:href="#a3WZPr8PX9" fill="#fff"/><use xlink:href="#a3WZPr8PX9" fill-opacity="0" stroke="#000" stroke-opacity="0"/><g><use xlink:href="#a4OQzwP7vN" fill="#fff"/><use xlink:href="#a4OQzwP7vN" fill-opacity="0" stroke="#000" stroke-opacity="0"/></g><g><use xlink:href="#apeb6gVB8" fill="#fff"/><use xlink:href="#apeb6gVB8" fill-opacity="0" stroke="#000" stroke-opacity="0"/></g></svg>