<?xml version="1.0" encoding="utf-8"?>
<!-- Generator: Adobe Illustrator 26.0.1, SVG Export Plug-In . SVG Version: 6.00 Build 0)  -->
<svg version="1.1" id="Layer_1" xmlns="http://www.w3.org/2000/svg" xmlns:xlink="http://www.w3.org/1999/xlink" x="0px" y="0px"
	 viewBox="0 0 512 512" style="enable-background:new 0 0 512 512;" xml:space="preserve">
<style type="text/css">
	.st0{display:none;}
	.st1{fill:#FFFFFF;stroke:#FFFFFF;stroke-miterlimit:10;}
</style>
<g id="Layer_1_00000170276325102575529060000016635997030691942824_" class="st0">
	
		<image style="display:inline;overflow:visible;enable-background:new    ;" width="512" height="512" xlink:href="258EB6C7.png"  transform="matrix(1 0 0 1 -5.1679 0)">
	</image>
</g>
<g id="Layer_3">
</g>
<g id="Layer_2_00000049198981397657998740000004636217148363268526_">
	<path class="st1" d="M257.3,407.1c17.5,23.1,29,39.9,36.7,53.1c2.4,4.1,7.1,12.4,16.4,16.4c8,3.5,16.2,2.3,19.1,1.9
		c3.4-0.5,9.9-1.5,16.6-6.3c2.3-1.6,8.7-6.4,11.8-15.2c3.3-9.4,0.8-17.7-0.7-22.9c-2.5-8.4-6.6-13.9-8.2-16.2
		c-9.5-13-17.5-27-27.3-39.8c-7.4-9.7-17.9-24.2-29.7-43.2l-1.1-0.8l0.2-26h72.2c0,0,25.6-9.5,28.2-19.1c2.7-9.5,0-27.9,0-27.9
		s-10.2-21-27.1-21.4c-16.9-0.4-34-0.6-34-0.6h-39.2v-5.9c1.3-0.9,2.7-1.8,4-2.7c1.1-0.1,2.1-0.2,3.2-0.3
		c5.1-2.1,12.3-5.5,20.1-11.1c21.4-15.5,30.2-35.9,33.1-42.9c2.1-5.1,6.5-16.6,7.7-32.2c0.5-5.7,1-18-2.4-33.1
		c-1.3-5.7-3.4-14.7-9-25.1c-7.8-14.5-17.7-22.9-24.6-28.6c-8-6.7-20.3-16.7-39.4-21.9c-17.3-4.7-31.4-3-39.6-1.9
		c-8.2,1.1-25.2,3.4-43.3,14.8c-19.6,12.3-29.3,28.2-35.9,39.1c-5.6,9.2-11.1,18.6-13.2,32.3c-1.6,10.7-0.3,19.2,1,27.7
		c2.6,17.4,8.1,29.8,9.5,32.8c3.4,7.5,9.2,19.8,21.5,31.7c11.7,11.2,24.4,17.5,28.3,18.3c0.5,0.1,4.1,0.8,8.5,2.6
		c0.8,0.3,1.5,0.6,1.9,0.8l-0.3,6.6l-75-0.5c0,0-19.4,8-23.3,14.8c-3.5,6.2-4.5,11.8-4.8,14.3c-1.5,13.6,5.4,23.5,7.1,25.9
		c6.8,9.3,15.8,12.7,19.1,13.8l76.5-0.3l0.3,25.9l-68.2,103.8c-1,3.2-2.3,8.7-1,15.2c2.7,13.7,15.4,23.4,27.7,26.1
		c13.3,2.8,24.1-3,27.3-4.8l47.7-68.3L257.3,407.1z"/>
</g>
</svg>
