<svg id="svg" version="1.1" xmlns="http://www.w3.org/2000/svg" xmlns:xlink="http://www.w3.org/1999/xlink" width="400" height="400" viewBox="0, 0, 400,400"><g id="svgg"><path id="path0" d="M157.100 45.465 C 157.393 45.583,157.600 46.391,157.600 47.418 C 157.600 50.329,156.072 51.200,150.960 51.200 C 148.563 51.200,148.387 51.265,147.821 52.359 C 147.234 53.495,144.512 54.800,142.729 54.800 C 142.235 54.800,142.000 55.097,142.000 55.720 C 142.000 56.896,141.291 57.600,140.107 57.600 C 139.568 57.600,139.084 57.895,138.959 58.300 C 138.513 59.742,138.083 60.204,136.858 60.555 C 135.789 60.862,135.600 61.105,135.600 62.180 C 135.600 63.056,135.189 63.893,134.259 64.908 C 133.053 66.224,132.891 66.687,132.656 69.486 C 132.176 75.204,130.892 77.822,128.724 77.504 C 128.087 77.410,127.438 77.528,127.282 77.767 C 127.127 78.005,126.896 77.030,126.769 75.600 C 126.642 74.170,126.507 82.223,126.469 93.495 L 126.400 113.991 110.900 114.095 L 95.400 114.200 95.400 234.400 L 95.400 354.600 200.000 354.600 L 304.600 354.600 304.600 234.400 L 304.600 114.200 289.100 114.095 L 273.600 113.991 273.568 94.695 C 273.551 84.083,273.461 75.581,273.367 75.803 C 273.103 76.432,269.726 76.006,269.084 75.262 C 268.155 74.184,267.600 72.039,267.600 69.521 C 267.600 67.521,267.448 67.021,266.604 66.238 C 265.533 65.246,264.400 62.898,264.400 61.671 C 264.400 61.163,263.977 60.794,263.112 60.546 C 262.148 60.270,261.732 59.857,261.460 58.910 C 261.166 57.884,260.861 57.620,259.861 57.521 C 258.873 57.424,258.556 57.157,258.280 56.187 C 257.982 55.143,257.651 54.906,255.903 54.491 C 253.822 53.997,252.400 53.059,252.400 52.181 C 252.400 51.466,251.443 51.200,248.867 51.198 C 246.308 51.195,243.882 50.628,243.287 49.893 C 242.694 49.161,242.438 45.661,242.961 45.444 C 243.203 45.345,223.870 45.263,200.000 45.263 C 176.130 45.263,156.825 45.354,157.100 45.465 M168.800 70.752 C 169.470 70.935,169.926 71.450,170.183 72.312 L 170.565 73.600 200.071 73.600 L 229.577 73.600 229.911 72.312 C 230.619 69.581,238.675 69.867,241.071 72.708 C 241.550 73.276,242.534 73.934,243.258 74.171 C 244.298 74.510,244.643 74.896,244.906 76.013 C 245.109 76.879,245.579 77.577,246.117 77.813 C 248.121 78.695,248.192 79.333,248.315 97.800 C 248.379 107.260,248.336 115.381,248.221 115.847 C 247.749 117.754,242.739 117.355,242.397 115.384 L 242.192 114.200 198.496 114.098 L 154.800 113.996 154.800 101.681 L 154.800 89.365 153.522 88.983 C 150.678 88.131,151.044 78.929,153.983 77.409 C 154.834 76.969,155.200 76.486,155.200 75.804 C 155.200 74.761,156.202 74.000,157.574 74.000 C 158.028 74.000,158.400 73.750,158.400 73.444 C 158.400 71.231,164.635 69.617,168.800 70.752 " stroke="none" fill="#fcfcfc" fill-rule="evenodd"></path><path id="path1" d="M142.200 46.800 C 141.946 48.301,141.845 48.400,140.565 48.400 C 139.239 48.400,139.200 48.446,139.200 50.000 L 139.200 51.600 137.600 51.600 L 136.000 51.600 136.000 53.400 L 136.000 55.200 137.705 55.200 C 139.082 55.200,139.486 55.029,139.805 54.312 C 140.055 53.749,140.710 53.321,141.594 53.143 C 142.360 52.989,143.396 52.387,143.896 51.807 C 144.454 51.158,145.844 50.413,147.502 49.875 L 150.200 49.000 150.322 47.100 L 150.444 45.200 146.457 45.200 L 142.470 45.200 142.200 46.800 M249.600 46.922 C 249.600 48.843,249.924 49.116,253.504 50.205 C 254.441 50.491,255.842 51.281,256.618 51.962 C 257.393 52.643,258.476 53.200,259.024 53.200 C 259.718 53.200,260.135 53.503,260.400 54.200 C 260.719 55.038,261.041 55.200,262.390 55.200 L 264.000 55.200 264.000 53.400 L 264.000 51.600 262.400 51.600 L 260.800 51.600 260.800 50.000 C 260.800 48.443,260.763 48.400,259.424 48.400 C 258.123 48.400,258.042 48.319,257.924 46.900 L 257.800 45.400 253.700 45.286 L 249.600 45.172 249.600 46.922 M132.800 54.951 C 132.800 55.034,133.105 55.349,133.477 55.651 C 133.860 55.962,134.031 55.995,133.871 55.729 C 133.695 55.435,133.930 55.192,134.494 55.083 C 135.156 54.956,135.050 54.894,134.100 54.854 C 133.385 54.825,132.800 54.868,132.800 54.951 M266.709 55.506 C 266.607 55.895,266.663 56.570,266.834 57.006 C 267.070 57.611,267.150 57.443,267.172 56.300 C 267.202 54.693,267.008 54.361,266.709 55.506 M129.600 59.400 C 129.600 60.732,129.532 60.800,128.208 60.800 C 126.496 60.800,126.315 61.323,126.481 65.801 L 126.600 69.000 128.237 69.120 L 129.874 69.240 130.737 66.984 C 131.212 65.744,131.600 64.384,131.600 63.962 C 131.600 63.540,132.050 62.803,132.600 62.325 C 133.378 61.649,133.600 61.072,133.600 59.728 L 133.600 58.000 131.600 58.000 L 129.600 58.000 129.600 59.400 M266.400 59.600 C 266.400 60.695,266.667 61.467,267.245 62.045 C 267.709 62.509,268.261 63.513,268.472 64.275 C 269.566 68.238,270.286 69.258,271.896 69.124 L 273.400 69.000 273.400 65.000 L 273.400 61.000 271.900 60.876 C 270.481 60.758,270.400 60.677,270.400 59.376 L 270.400 58.000 268.400 58.000 L 266.400 58.000 266.400 59.600 M165.121 72.380 C 163.098 72.773,162.400 73.457,162.400 75.049 L 162.400 76.400 166.400 76.400 L 170.400 76.400 170.400 74.843 C 170.400 73.374,168.431 71.803,166.892 72.046 C 166.731 72.071,165.934 72.221,165.121 72.380 M231.790 72.524 C 230.003 73.100,229.600 73.565,229.600 75.049 L 229.600 76.400 232.800 76.400 L 236.000 76.400 236.000 78.000 L 236.000 79.600 237.600 79.600 L 239.200 79.600 239.200 81.200 C 239.200 82.761,239.234 82.800,240.595 82.800 L 241.991 82.800 242.095 98.500 L 242.200 114.200 243.721 114.943 C 246.877 116.485,246.862 116.563,246.722 99.218 C 246.597 83.834,246.493 82.799,244.987 81.906 C 244.714 81.744,244.378 81.024,244.239 80.306 C 243.928 78.695,240.412 74.800,239.270 74.800 C 238.825 74.800,237.895 74.324,237.203 73.741 C 235.722 72.495,233.458 71.986,231.790 72.524 M156.803 78.060 C 156.141 78.973,155.600 79.845,155.600 79.998 C 155.600 80.151,155.155 80.793,154.611 81.426 C 152.158 84.281,153.149 89.000,156.201 89.000 L 157.800 89.000 157.917 85.900 L 158.034 82.800 159.417 82.800 L 160.800 82.800 160.800 79.600 L 160.800 76.400 159.403 76.400 C 158.224 76.400,157.817 76.660,156.803 78.060 " stroke="none" fill="#363636" fill-rule="evenodd"></path><path id="path2" d="M150.322 47.100 L 150.200 49.000 147.502 49.875 C 145.844 50.413,144.454 51.158,143.896 51.807 C 143.396 52.387,142.360 52.989,141.594 53.143 C 140.690 53.325,140.059 53.745,139.800 54.340 C 139.452 55.137,139.140 55.246,137.400 55.178 C 134.148 55.052,133.520 55.145,133.853 55.700 C 134.057 56.040,133.937 56.024,133.477 55.651 C 132.865 55.154,132.800 55.240,132.800 56.551 C 132.800 57.348,132.980 58.000,133.200 58.000 C 134.106 58.000,133.630 61.429,132.600 62.325 C 132.050 62.803,131.600 63.540,131.600 63.962 C 131.600 64.384,131.209 65.750,130.731 66.999 L 129.862 69.270 128.114 69.131 L 126.366 68.992 126.483 71.196 L 126.600 73.400 128.200 73.600 C 130.592 73.899,131.306 72.736,132.440 66.698 C 132.817 64.694,133.178 63.844,133.838 63.412 C 134.328 63.091,134.936 62.201,135.189 61.433 C 135.442 60.666,135.994 59.929,136.414 59.795 C 136.835 59.662,137.539 59.047,137.979 58.429 C 138.419 57.811,139.326 57.079,139.995 56.802 C 140.682 56.518,141.310 55.902,141.439 55.388 C 141.601 54.740,142.060 54.403,143.022 54.222 C 143.767 54.082,144.607 53.646,144.889 53.252 C 145.806 51.967,147.341 51.257,150.909 50.463 C 155.058 49.541,155.472 49.258,155.667 47.216 C 155.832 45.491,155.298 45.200,151.972 45.200 L 150.444 45.200 150.322 47.100 M244.975 45.472 C 244.255 45.615,244.179 45.846,244.375 47.303 C 244.637 49.242,245.295 49.686,249.000 50.418 C 252.890 51.186,253.834 51.563,254.914 52.774 C 255.477 53.406,256.467 54.039,257.113 54.181 C 257.819 54.336,258.469 54.834,258.739 55.426 C 258.986 55.968,259.680 56.634,260.281 56.906 C 261.816 57.600,264.738 60.612,265.038 61.810 C 265.177 62.362,265.726 63.156,266.260 63.576 C 266.984 64.145,267.381 65.083,267.826 67.269 C 268.888 72.499,269.665 73.572,272.178 73.278 L 273.600 73.112 273.600 71.046 L 273.600 68.979 272.004 69.131 C 270.287 69.295,269.595 68.343,268.472 64.275 C 268.261 63.513,267.709 62.509,267.245 62.045 C 266.345 61.145,266.018 58.000,266.824 58.000 C 267.057 58.000,267.120 57.794,266.964 57.542 C 266.809 57.291,266.697 56.558,266.715 55.915 C 266.741 54.978,266.641 54.834,266.210 55.192 C 265.870 55.474,265.582 55.495,265.430 55.249 C 265.293 55.026,264.253 54.956,263.006 55.084 C 260.925 55.299,260.803 55.260,260.421 54.255 C 260.136 53.505,259.732 53.200,259.024 53.200 C 258.476 53.200,257.393 52.643,256.618 51.962 C 255.842 51.281,254.441 50.491,253.504 50.205 C 249.930 49.118,249.600 48.842,249.600 46.936 L 249.600 45.200 247.700 45.254 C 246.655 45.284,245.429 45.383,244.975 45.472 M165.200 71.003 C 164.870 71.082,163.932 71.256,163.116 71.389 C 162.197 71.538,161.145 72.120,160.357 72.915 C 159.656 73.622,158.532 74.393,157.859 74.630 C 157.049 74.914,156.304 75.659,155.658 76.830 C 155.121 77.803,154.535 78.658,154.356 78.728 C 152.243 79.561,151.320 86.957,153.144 88.435 C 154.577 89.596,154.821 89.359,153.908 87.692 C 152.923 85.894,153.144 83.208,154.410 81.600 C 154.843 81.050,155.783 79.700,156.499 78.600 C 157.787 76.620,157.823 76.599,160.100 76.480 L 162.400 76.360 162.400 75.029 C 162.400 72.719,165.810 71.409,168.690 72.612 C 170.409 73.330,170.657 73.197,169.710 72.066 C 169.029 71.252,166.573 70.673,165.200 71.003 M231.767 71.221 C 231.086 71.424,230.338 72.018,230.096 72.549 C 229.669 73.487,229.684 73.497,230.729 72.986 C 232.963 71.895,235.120 72.106,237.000 73.600 C 237.831 74.260,238.863 74.800,239.294 74.800 C 240.412 74.800,243.932 78.719,244.239 80.306 C 244.378 81.024,244.714 81.744,244.987 81.906 C 246.493 82.799,246.597 83.834,246.722 99.218 C 246.861 116.427,246.882 116.313,243.843 115.044 C 242.325 114.410,242.070 114.596,242.901 115.733 C 243.732 116.868,246.154 117.046,247.155 116.045 C 247.986 115.214,248.000 114.947,247.998 99.500 C 247.995 82.866,247.843 81.240,246.180 80.150 C 245.641 79.797,245.200 79.196,245.200 78.814 C 245.200 77.567,242.979 75.002,241.207 74.203 C 240.263 73.778,238.989 72.928,238.376 72.315 C 237.607 71.546,236.849 71.198,235.931 71.195 C 235.199 71.192,234.240 71.114,233.800 71.022 C 233.360 70.929,232.445 71.019,231.767 71.221 " stroke="none" fill="#d4d4d4" fill-rule="evenodd"></path><path id="path3" d="M155.009 45.470 C 155.689 45.606,155.794 45.882,155.669 47.201 C 155.475 49.225,155.037 49.548,151.303 50.411 C 147.827 51.214,148.434 51.414,152.400 50.774 C 156.145 50.170,156.800 49.636,156.800 47.191 C 156.800 45.200,156.800 45.200,155.500 45.254 C 154.732 45.287,154.531 45.375,155.009 45.470 M243.213 46.900 C 243.234 49.715,244.284 50.376,249.770 51.028 C 251.406 51.222,252.397 51.575,252.970 52.168 C 254.158 53.396,255.855 54.404,256.686 54.375 C 257.227 54.355,257.171 54.258,256.454 53.971 C 255.934 53.762,255.167 53.157,254.748 52.625 C 253.940 51.597,252.848 51.178,249.000 50.418 C 245.295 49.686,244.637 49.242,244.375 47.303 C 244.179 45.846,244.255 45.615,244.975 45.472 C 245.483 45.372,245.299 45.288,244.500 45.254 C 243.227 45.201,243.200 45.235,243.213 46.900 M146.389 51.880 C 145.845 52.254,145.165 52.884,144.877 53.280 C 144.590 53.676,144.065 54.000,143.711 54.000 C 143.356 54.000,143.181 54.114,143.321 54.254 C 143.755 54.688,145.877 53.589,146.967 52.366 C 148.129 51.062,147.882 50.853,146.389 51.880 M141.448 55.349 C 141.309 55.904,140.704 56.508,139.995 56.802 C 139.326 57.079,138.419 57.811,137.979 58.429 C 137.539 59.047,136.835 59.662,136.414 59.795 C 135.994 59.929,135.442 60.666,135.189 61.433 C 134.936 62.201,134.295 63.113,133.764 63.460 C 133.234 63.808,132.800 64.264,132.800 64.473 C 132.800 65.357,135.253 63.033,135.471 61.943 C 135.623 61.184,136.122 60.551,136.874 60.162 C 137.516 59.830,138.184 59.173,138.358 58.702 C 138.532 58.231,139.261 57.649,139.978 57.407 C 141.179 57.003,142.950 54.400,142.024 54.400 C 141.839 54.400,141.580 54.827,141.448 55.349 M258.473 55.885 C 258.549 56.277,259.218 56.884,259.961 57.235 C 260.703 57.586,261.560 58.349,261.866 58.931 C 262.171 59.513,262.866 60.102,263.410 60.238 C 263.955 60.375,264.400 60.677,264.400 60.910 C 264.400 61.143,264.503 61.231,264.628 61.105 C 264.911 60.823,261.333 57.200,260.771 57.200 C 260.547 57.200,259.907 56.744,259.350 56.186 C 258.544 55.380,258.364 55.319,258.473 55.885 M264.825 62.251 C 264.811 62.719,265.099 63.349,265.465 63.651 C 265.830 63.953,266.477 64.740,266.902 65.400 L 267.674 66.600 267.409 65.418 C 267.263 64.768,266.783 63.983,266.343 63.675 C 265.903 63.367,265.387 62.729,265.197 62.257 L 264.851 61.400 264.825 62.251 M267.634 67.680 C 267.577 69.509,268.419 72.717,269.225 73.741 C 269.946 74.658,273.200 75.478,273.200 74.743 C 273.200 74.590,273.315 74.165,273.456 73.797 C 273.668 73.246,273.475 73.142,272.356 73.205 C 271.610 73.247,270.779 73.263,270.509 73.241 C 269.705 73.174,268.664 71.234,268.150 68.842 C 267.868 67.535,267.653 67.050,267.634 67.680 M132.060 68.440 C 131.870 71.742,130.347 73.845,128.271 73.674 C 126.806 73.554,126.747 73.595,126.871 74.674 C 127.080 76.502,129.606 76.533,130.724 74.721 C 131.757 73.048,132.516 70.066,132.292 68.560 C 132.127 67.451,132.117 67.446,132.060 68.440 M160.939 71.572 C 160.025 71.987,159.166 72.678,159.029 73.108 C 158.892 73.539,158.202 74.055,157.491 74.258 C 156.564 74.523,155.999 75.052,155.489 76.130 C 155.098 76.957,154.505 77.738,154.172 77.866 C 153.327 78.191,151.994 80.942,152.032 82.284 C 152.065 83.450,152.178 83.294,152.555 81.569 C 152.679 81.002,153.235 80.048,153.790 79.449 C 154.345 78.850,155.212 77.617,155.717 76.710 C 156.305 75.653,157.074 74.905,157.859 74.630 C 158.532 74.393,159.656 73.622,160.357 72.915 C 161.145 72.120,162.197 71.538,163.116 71.389 C 165.688 70.969,165.842 70.894,164.200 70.855 C 163.320 70.834,161.852 71.157,160.939 71.572 M230.700 71.232 C 230.315 71.456,230.003 71.856,230.006 72.120 C 230.011 72.464,230.105 72.454,230.340 72.083 C 230.521 71.799,231.193 71.409,231.834 71.217 C 232.637 70.977,232.751 70.862,232.200 70.847 C 231.760 70.834,231.085 71.008,230.700 71.232 M235.756 71.178 C 237.106 71.365,237.973 71.751,238.556 72.425 C 239.020 72.961,240.193 73.755,241.162 74.189 C 242.978 75.002,245.200 77.546,245.200 78.814 C 245.200 79.196,245.645 79.800,246.189 80.156 C 246.733 80.513,247.362 81.388,247.587 82.102 L 247.997 83.400 247.813 81.834 C 247.694 80.820,247.213 79.833,246.451 79.034 C 245.803 78.355,245.004 77.145,244.675 76.344 C 244.235 75.272,243.714 74.768,242.698 74.432 C 241.939 74.182,240.886 73.515,240.359 72.950 C 238.948 71.440,237.456 70.793,235.520 70.853 L 233.800 70.907 235.756 71.178 M248.182 99.400 C 248.182 107.980,248.235 111.433,248.300 107.074 C 248.364 102.714,248.364 95.694,248.299 91.474 C 248.235 87.253,248.182 90.820,248.182 99.400 M152.046 87.051 C 152.021 87.519,152.315 88.149,152.700 88.451 C 153.309 88.928,153.340 88.922,152.943 88.400 C 152.692 88.070,152.398 87.440,152.289 87.000 C 152.103 86.240,152.090 86.243,152.046 87.051 M242.412 115.451 C 242.394 116.111,243.491 116.909,244.087 116.669 C 244.417 116.537,244.358 116.452,243.920 116.432 C 243.546 116.414,243.056 116.085,242.832 115.700 C 242.608 115.315,242.419 115.203,242.412 115.451 " stroke="none" fill="#dcdcdc" fill-rule="evenodd"></path><path id="path4" d="" stroke="none" fill="#100ecf0" fill-rule="evenodd"></path></g></svg>