<?xml version="1.0" encoding="utf-8"?>
<!-- Generator: Adobe Illustrator 28.2.0, SVG Export Plug-In . SVG Version: 6.00 Build 0)  -->
<svg version="1.1" id="Layer_2" xmlns="http://www.w3.org/2000/svg" xmlns:xlink="http://www.w3.org/1999/xlink" x="0px" y="0px"
	 viewBox="0 0 512 512" style="enable-background:new 0 0 512 512;" xml:space="preserve">
<style type="text/css">
	.st0{fill:#FFFFFF;}
</style>
<polygon class="st0" points="78,211 256,65.67 434.67,211 404.33,211 256.33,88.67 107.67,211 "/>
<path class="st0" d="M83.33,448.67c1,0.33,347,0,347,0s0.33-12.67,0-12.67c-0.33,0-346.33-2.33-347-1.33
	C82.67,435.67,83.33,448.67,83.33,448.67z"/>
<path class="st0" d="M85.33,421.67c1.33,0,345.15,0,345.15,0v12.75H85.33V421.67z"/>
<polygon class="st0" points="101,408.67 101,421.67 415.33,421.67 415.33,410.33 "/>
<rect x="120.33" y="396" class="st0" width="275.33" height="12.67"/>
<polygon class="st0" points="189.67,394.67 127,394.67 127,378.33 136.33,377 140.33,365.67 139.67,231.67 134.33,219 125,219 
	125,203.33 191.33,203.33 191.33,219 183,219.67 177.67,232 178,366.67 182.33,378 191.33,377.67 "/>
<polygon class="st0" points="120.11,203.33 394.09,202.53 256.33,88.67 "/>
<polygon class="st0" points="285.61,394.67 222.94,394.67 222.94,378.33 232.28,377 236.28,365.67 235.61,231.67 230.28,219 
	220.94,219 220.94,203.33 287.28,203.33 287.28,219 278.94,219.67 273.61,232 273.94,366.67 278.28,378 287.28,377.67 "/>
<polygon class="st0" points="382.06,394.67 319.39,394.67 319.39,378.33 328.72,377 332.72,365.67 332.06,231.67 326.72,219 
	317.39,219 317.39,203.33 383.72,203.33 383.72,219 375.39,219.67 370.06,232 370.39,366.67 374.72,378 383.72,377.67 "/>
</svg>
