<svg xmlns="http://www.w3.org/2000/svg" xmlns:xlink="http://www.w3.org/1999/xlink" version="1.0" width="608.185" height="663.76"><defs><radialGradient cx="794.008" cy="737.082" r="45.835" fx="794.008" fy="737.082" id="i" xlink:href="#a" gradientUnits="userSpaceOnUse"/><radialGradient cx="794.008" cy="737.082" r="45.835" fx="794.008" fy="737.082" id="q" xlink:href="#a" gradientUnits="userSpaceOnUse"/><radialGradient cx="788.302" cy="446.713" r="36.092" fx="788.302" fy="446.713" id="c" xlink:href="#a" gradientUnits="userSpaceOnUse"/><radialGradient cx="806.957" cy="484.633" r="34.342" fx="806.957" fy="484.633" id="d" xlink:href="#a" gradientUnits="userSpaceOnUse"/><radialGradient cx="823.238" cy="539.816" r="24.937" fx="823.238" fy="539.816" id="e" xlink:href="#a" gradientUnits="userSpaceOnUse"/><radialGradient cx="834.836" cy="601.97" r="25.971" fx="834.836" fy="601.97" id="f" xlink:href="#a" gradientUnits="userSpaceOnUse"/><radialGradient cx="832.049" cy="646.859" r="32.386" fx="832.049" fy="646.859" id="g" xlink:href="#a" gradientUnits="userSpaceOnUse"/><radialGradient cx="817.7" cy="697.844" r="43.914" fx="817.7" fy="697.844" id="h" xlink:href="#a" gradientUnits="userSpaceOnUse"/><radialGradient cx="772.802" cy="412.848" r="30.342" fx="772.802" fy="412.848" id="b" xlink:href="#a" gradientUnits="userSpaceOnUse"/><radialGradient cx="772.802" cy="412.848" r="30.342" fx="772.802" fy="412.848" id="j" xlink:href="#a" gradientUnits="userSpaceOnUse"/><radialGradient cx="788.302" cy="446.713" r="36.092" fx="788.302" fy="446.713" id="k" xlink:href="#a" gradientUnits="userSpaceOnUse"/><radialGradient cx="806.957" cy="484.633" r="34.342" fx="806.957" fy="484.633" id="l" xlink:href="#a" gradientUnits="userSpaceOnUse"/><radialGradient cx="823.238" cy="539.816" r="24.937" fx="823.238" fy="539.816" id="m" xlink:href="#a" gradientUnits="userSpaceOnUse"/><radialGradient cx="834.836" cy="601.97" r="25.971" fx="834.836" fy="601.97" id="n" xlink:href="#a" gradientUnits="userSpaceOnUse"/><radialGradient cx="832.049" cy="646.859" r="32.386" fx="832.049" fy="646.859" id="o" xlink:href="#a" gradientUnits="userSpaceOnUse"/><radialGradient cx="817.7" cy="697.844" r="43.914" fx="817.7" fy="697.844" id="p" xlink:href="#a" gradientUnits="userSpaceOnUse"/><linearGradient id="a"><stop style="stop-color:#a49528;stop-opacity:1" offset="0"/><stop style="stop-color:#a49528;stop-opacity:0" offset="1"/></linearGradient></defs><path d="M394.25 277.021s26.42 32.035 22 65c-6.618 49.352-29.5 58-37.5 116-5.81 42.128-1 72-1 72l56.5-41.541s47-198.834-4.5-256.459c-24.5 32.875-35.5 45-35.5 45z" style="fill:green;fill-opacity:1;stroke:none"/><g style="stroke:#000;stroke-width:1;stroke-linejoin:round"><path d="M558.5 473.862c51.125 74.75 1 257.5 1 257.5l49.5-35.5s-.5-40.5 10-66.5 21.5-34.5 21.5-91c0-48.068-51.5-110-51.5-110s-8.125 10.75-30.5 45.5z" style="fill:#000;stroke:none" transform="matrix(-1 0 0 1 731 -239.84)"/><path d="M524 516.862s26.42 32.035 22 65c-6.618 49.352-29.5 58-37.5 116-5.81 42.128-1 72-1 72l56.5-41.541s47-198.834-4.5-256.459c-24.5 32.875-35.5 45-35.5 45z" style="fill:green;fill-opacity:1;stroke:none" transform="matrix(-1 0 0 1 731 -239.84)"/><path d="M556 506.862s27.682 25.762 23.707 63.636c-3.914 37.293-31.379 79.071-36.707 119.864-5.385 41.225-.269 53.475-.269 53.475l36.401-26.586S570 671.362 596 621.362c21.267-40.898 20-75.5 11.5-100.5s-25.5-43-25.5-43l-26 29z" style="fill:#fff;stroke:none" transform="matrix(-1 0 0 1 731 -239.84)"/><path d="M526 522.362c46.875-7.625 63.5 1 63.5 1s6.5-34.875 1-97.5c-5.5 5.375-20 25-20 25s-49.875 53.625-44.5 71.5z" style="fill:#c00;fill-opacity:1;stroke:none" transform="matrix(-1 0 0 1 731 -239.84)"/><path d="M455.035 614.967c1.593 5.222 5.886 9.307 10.542 6.157 3.46-2.34-5.411 5.128-9.935-6.296-3.4-8.586-1.92-2.848-.607.14z" style="fill:#fff" transform="matrix(-1 0 0 1 731 -239.84)"/><path d="M593.594 418.688 406.25 646.78l17 20.375 31.844-36.875s8.024-1.886 10.719-4.312c2.94-4.737 5.499-9.1 7.608-13.486-.581-2.76-.37-14.235-.945-16.014 13.692-17.566 37.816-48.088 99.993-128.063 2.802-4.182.812-15.781.812-15.781l24.469-29.781-4.156-4.156zM470.888 598.427c.813 1.74.799 11.758.776 13.982-1.083 3.113-4.335 7.926-7.351 12.31-3.192 2.637-7.182 3.223-9.157 3.343l.188-9.156s4.967-6.912 15.544-20.48z" style="fill:#fff" transform="matrix(-1 0 0 1 731 -239.84)"/><path d="m406.253 646.763 16.904 20.36s-9.1 19.424-7.907 44.99c-1.875 4.232-2.07 4.198-4.248 8.625-15.69 3.7-31.611 43.7-63.502 101.624-30.012-29.74-32.663-31.52-31.5-41.5.901-7.736 8.98-17.572 46.25-69.75 13.743-7.892 17.012-8.181 27.33-18.66 7.098-7.207 9.293-10.837 12.419-22.612 3.126-11.775 4.254-23.077 4.254-23.077z" style="fill:#76601d" transform="matrix(-1 0 0 1 731 -239.84)"/><g style="fill:red;stroke:none"><path d="m466.5 328.862-26.921-28.427-34.968 17.61 18.717-34.388-27.554-27.815 38.49 7.175 17.938-34.8 5.07 38.822 38.64 6.306-35.355 16.819 5.943 38.698z" transform="matrix(.01605 .12863 .13068 -.0158 90.474 266.216)" style="fill:#c00;fill-opacity:1;stroke:none"/><path d="M922.228 260.348c-60.074.762-108.625 49.777-108.625 110.031 0 60.73 49.303 110 110.032 110 18.651 0 36.228-4.642 51.625-12.844a99.134 99.134 0 0 1-16.125 1.313c-54.362 0-98.469-44.107-98.469-98.469 0-54.362 44.107-98.5 98.469-98.5 5.5 0 10.9.476 16.156 1.344-15.405-8.214-32.99-12.875-51.656-12.875-.475 0-.933-.006-1.407 0z" style="fill:#c00;fill-opacity:1;stroke:none" transform="matrix(0 .12036 .12036 0 89.844 201.43)"/></g></g><path d="m365.772 164.144-25.04-34.454-39.68 14.458 24.515-34.841-25.797-33.874 40.191 12.921L363.7 52.961l.324 42.827 40.467 12-39.99 13.547 1.272 42.81z" style="fill:#c00;fill-opacity:1;stroke:none"/><path d="M294.344.003c-60.075.761-108.625 49.776-108.625 110.03 0 60.73 49.302 110 110.03 110 18.652 0 36.23-4.64 51.626-12.843a99.134 99.134 0 0 1-16.125 1.313c-54.362 0-98.469-44.107-98.469-98.47 0-54.361 44.107-98.5 98.469-98.5 5.5 0 10.9.476 16.156 1.345C332.001 4.664 314.416.003 295.75.003c-.475 0-.933-.006-1.406 0z" style="fill:#c00;fill-opacity:1;stroke:none"/><path d="M428.75 234.021c51.125 74.75 1 257.5 1 257.5l49.5-35.5s-.5-40.5 10-66.5 21.5-34.5 21.5-91c0-48.068-51.5-110-51.5-110s-8.125 10.75-30.5 45.5z" style="fill:#000;stroke:none"/><path d="M426.25 267.021s27.682 25.762 23.707 63.636c-3.914 37.293-31.379 79.071-36.707 119.864-5.385 41.225-.269 53.475-.269 53.475l36.4-26.586s-9.131-45.889 16.869-95.889c21.267-40.899 20-75.5 11.5-100.5s-25.5-43-25.5-43l-26 29z" style="fill:#fff;stroke:none"/><path d="M396.25 282.521c46.875-7.625 63.5 1 63.5 1s6.5-34.875 1-97.5c-5.5 5.375-20 25-20 25s-49.875 53.625-44.5 71.5z" style="fill:#c00;fill-opacity:1;stroke:none"/><path d="M325.285 375.126c1.593 5.222 5.886 9.307 10.542 6.157 3.46-2.34-5.411 5.127-9.936-6.296-3.4-8.586-1.92-2.848-.606.14z" style="fill:#fff;stroke:#000;stroke-width:1;stroke-linejoin:round"/><path d="M463.844 178.846 276.5 406.94l17 20.375 31.844-36.875s8.024-1.886 10.718-4.312c2.94-4.737 5.5-9.1 7.609-13.486-.582-2.76-.37-14.235-.945-16.014 13.692-17.566 37.816-48.088 99.993-128.063 2.802-4.183.812-15.781.812-15.781L468 183.003l-4.156-4.157zm-122.706 179.74c.812 1.74.799 11.758.776 13.982-1.083 3.113-4.335 7.926-7.352 12.31-3.191 2.637-7.182 3.223-9.156 3.343l.188-9.156s4.967-6.912 15.544-20.48z" style="fill:#fff;stroke:#000;stroke-width:1;stroke-linejoin:round"/><path d="m276.503 406.922 16.904 20.36s-9.1 19.424-7.907 44.99c-1.875 4.232-2.07 4.198-4.248 8.625-15.69 3.7-31.611 43.7-63.502 101.624-30.012-29.74-32.663-31.52-31.5-41.5.901-7.736 8.98-17.572 46.25-69.75 13.743-7.892 17.012-8.181 27.33-18.66 7.097-7.207 9.293-10.837 12.419-22.612 3.125-11.775 4.254-23.077 4.254-23.077z" style="fill:#76601d;stroke:#000;stroke-width:1;stroke-linejoin:round"/><g style="fill:#c00;fill-opacity:1;stroke:none;stroke-width:1;stroke-linejoin:round"><path d="m466.5 328.862-26.921-28.427-34.968 17.61 18.717-34.388-27.554-27.815 38.49 7.175 17.938-34.8 5.07 38.822 38.64 6.306-35.355 16.819 5.943 38.698z" transform="matrix(-.01605 .12863 -.13068 -.0158 510.776 266.216)" style="fill:#c00;fill-opacity:1;stroke:none"/><path d="M922.228 260.348c-60.074.762-108.625 49.777-108.625 110.031 0 60.73 49.303 110 110.032 110 18.651 0 36.228-4.642 51.625-12.844a99.134 99.134 0 0 1-16.125 1.313c-54.362 0-98.469-44.107-98.469-98.469 0-54.362 44.107-98.5 98.469-98.5 5.5 0 10.9.476 16.156 1.344-15.405-8.214-32.99-12.875-51.656-12.875-.475 0-.933-.006-1.407 0z" style="fill:#c00;fill-opacity:1;stroke:none" transform="rotate(90 154.984 356.416) scale(.12036)"/></g><g style="fill:red;stroke:#000;stroke-width:1;stroke-linejoin:round"><path d="M504.126 609.32s35.152-27.54 51.944-22.838c.672 32.017 13.098 39.518 30.003 55.527-32.13-5.486-66.313 26.842-88.664 28.435-17.03 1.214-18.92-4.646-31.57-17.24 1.68-15.282 38.287-43.885 38.287-43.885z" style="fill:#c00;fill-opacity:1" transform="translate(-19.75 -20.25)"/><path d="M523.605 629.47s4.455 12.655-24.055 27.102c-11.218 5.685-27.155 6.238-18.01 11.493-6.432-2.223-14.358-14.638-14.358-14.638l56.423-23.957zM141.947 609.32s-35.152-27.54-51.945-22.838C89.331 618.499 76.904 626 60 642.009c32.13-5.486 66.313 26.842 88.664 28.435 17.03 1.214 18.92-4.646 31.57-17.24-1.68-15.282-38.287-43.885-38.287-43.885z" style="fill:#c00;fill-opacity:1" transform="translate(-19.75 -20.25)"/><path d="M122.468 629.47s-4.455 12.655 24.055 27.102c11.218 5.685 27.155 6.238 18.01 11.493 6.432-2.223 14.358-14.638 14.358-14.638l-56.423-23.957z" style="fill:#c00;fill-opacity:1" transform="translate(-19.75 -20.25)"/><path d="M147.594 583.752c-1.826.19-3.345 2.26-5.563 8.063-4.041 10.574-19.094 36.281-19.094 36.281s-1.569 2.882.094 7.563a3.082 3.082 0 0 1-.094-.657v-.03c.005-.033.025-.095.032-.126v-.031c.004-.024.026-.066.03-.094.002-.007 0-.024 0-.03.003-.007-.001-.027 0-.032l.032-.063.031-.062a.65.65 0 0 1 .031-.031c.014-.016.047-.046.063-.063l.031-.031c.012-.008.05-.024.063-.031l.062-.031.094-.032c.023-.004.069.002.094 0 .514-.03 1.434.324 2.937 1.313 0 0 90.851 48.579 188.719 47.875 2.624-.019 5.25-.066 7.875-.156 2.625.09 5.25.137 7.875.156 97.867.704 188.719-47.875 188.719-47.875 1.352-.89 2.244-1.266 2.78-1.313.06-.004.138-.004.188 0 .017.002.047-.003.063 0 .026.007.074.025.093.032l.063.03.062.032.032.031c.02.02.046.042.062.063l.031.03.032.063.03.063c.003.005-.001.025 0 .031.01.039.026.088.032.125v.031c.006.032.026.093.031.125v.032a3.114 3.114 0 0 1-.094.656c1.676-4.694.094-7.563.094-7.563s-15.052-25.706-19.094-36.281c-2.385-6.243-3.946-8.152-5.968-8.062-1.524.067-3.32 1.28-5.907 2.593-35.72 18.136-78.02 35.513-141.093 41.563a476.165 476.165 0 0 1-18.032 1.375c-2.333.134-4.674.236-7.03.281-.197.004-.398-.003-.595 0-.59.009-1.19.027-1.78.031-.395.003-.794 0-1.188 0-.58-.004-1.17-.022-1.75-.031-.198-.002-.396.002-.594 0-2.357-.045-4.73-.147-7.063-.281-6.2-.358-12.197-.815-18.03-1.375-63.062-6.052-105.379-23.429-141.095-41.563-2.585-1.313-4.382-2.526-5.906-2.593-.142-.006-.268-.015-.406 0z" style="fill:#c00;fill-opacity:1" transform="translate(-19.75 -20.25)"/></g><path d="M445.406 602.188c-1.019-.016-1.916.143-2.656.437-1.51.6-2.544 1.57-3.156 2.906-.423.925-.631 2.009-.625 3.25.714-.401 1.415-.768 2.156-1.062a11.684 11.684 0 0 1 3.812-.813c1.19-.052 2.576.079 4.157.375 1.27.236 2.875.63 4.812 1.188l-15.656 6.219-.531-1.594c-.527-1.57-1.327-2.882-2.407-3.938-.955-.931-2.22-1.75-3.812-2.468l-.094 3.906c1.36.763 2.48 1.584 3.375 2.437.784.746 1.386 1.513 1.813 2.313l-.438.187 1.156 2.813c-.033.97-.291 2.055-.718 3.281a18.012 18.012 0 0 1-3.344 5.813c-1.652 1.905-3.448 3.176-5.344 3.812-.859.288-1.832.506-2.969.656-1.116.16-2.207.303-3.25.438l-.093 1.031c1.186.047 2.393.083 3.593.125 1.419.052 2.616.05 3.594-.031a14.497 14.497 0 0 0 3.469-.687c1.111-.373 2.327-1.357 3.687-3 1.435-1.718 2.521-3.552 3.22-5.5.795-2.186.927-4.104.405-5.72l23.282-9.25-1.532-3.78-1.28.53c-.677.118-2.209-.27-4.595-1.155-3.072-1.134-5.272-1.86-6.562-2.188-1.298-.325-2.45-.516-3.469-.531zm-56.156.5-.844 3.687 4.188.969.906-3.75-4.25-.906zm-4.656 3.437-.782 3.719 4.157.937.843-3.75-4.218-.906zm9 4.625c-.323.669-.57 1.285-.72 1.875-.177.727-.199 1.33-.062 1.844.033.12.179.448.407.937.242.486.406.763.468.875-2.221 1.855-3.982 3.808-5.25 5.844-1.271 2.022-1.721 3.702-1.375 5 .097.363.757.503 1.97.438 1.222-.084 2.7-.35 4.437-.813.77-.205 1.43-.659 2-1.312.57-.654.96-1.44 1.187-2.407.962 2.089 1.948 3.746 2.938 4.97 1.326 1.634 2.538 2.29 3.625 2l1.468-.407v.031l.907-.281.843-.219v-.031l11.032-3.281-1.625-5.5c-.795-2.666-1.565-4.499-2.313-5.532-.497-.683-1.484-1.552-2.969-2.593l-.656 4.187c1.485.879 2.461 1.597 2.938 2.156.696.804 1.317 2.077 1.843 3.844L403.5 625.72l-1.344.344c-.498.133-1.206-.524-2.094-1.969-.576-.946-1.331-2.426-2.28-4.469l-1.72-3.719a81.998 81.998 0 0 1-1.28-2.562c-.386-.835-.787-1.698-1.188-2.594zm-69.25 6.094-1.72 3.281 3.095 1.625 1.687-3.312-3.062-1.594zm-5.094 1.937-1.625 3.313 3.031 1.625 1.563-3.344-2.97-1.594zm75.5 0 1.094 2.344c-.562 1.169-1.313 1.883-2.22 2.125-.739.198-1.306.307-1.75.344-.442.037-.865.02-1.218-.031.292-.968.753-1.8 1.375-2.5.618-.715 1.53-1.463 2.719-2.281zm-29.125.125.562 4.532c2.36.24 4.223 1.297 5.594 3.187 1.104 1.515 1.914 3.634 2.469 6.375l-8.875 1.813c-.643.13-1.18.124-1.594-.031-.5-.186-.892-.594-1.187-1.188l-.532.125c-.053.6-.066 1.138-.03 1.625.034.487.1 1.012.218 1.594.14.689.615 1.228 1.406 1.594a4.08 4.08 0 0 0 2.531.28l10.282-2.093-.813-4c-.75-3.706-1.803-6.601-3.156-8.719-1.68-2.625-3.962-4.328-6.875-5.093zm-10.063 6.625-1.156 4.063c1.369 1.05 2.25 1.888 2.656 2.5.595.88 1.033 2.214 1.344 4.031l-9.531 1.625c-.17-1.084-.752-2.427-1.813-4.031-.81-1.215-1.867-2.582-3.156-4.063-1.004.389-2.07 1.122-3.187 2.188a15.028 15.028 0 0 0-3 4.031c-.56 1.101-1.224 1.984-2 2.656-1.003.862-2.216 1.403-3.625 1.594l-1.532.219-.406-4.063c-.21-2.177-.723-4.023-1.531-5.562-1.02-1.942-2.32-2.84-3.906-2.688-1.385.134-2.475 1.056-3.282 2.782-.715 1.529-1.001 3.117-.843 4.75.18 1.866 1.198 3.114 3.062 3.718.826.266 2.6.464 5.313.594-.771.31-1.48.513-2.157.656-.662.127-1.504.251-2.468.344l-5.813.563-.062-1.469c-.081-1.654-.498-3.129-1.25-4.438-.667-1.156-1.663-2.282-3-3.406l-1.157 3.719c1.102 1.104 1.963 2.186 2.594 3.25.51.86.859 1.709 1.063 2.531l-.375.031.312 3.157c-.29.952-.823 1.96-1.594 3.062a18.08 18.08 0 0 1-4.812 4.688c-2.107 1.385-4.159 2.121-6.156 2.218-.906.045-1.929-.023-3.063-.187-1.118-.149-2.21-.285-3.25-.438l-.344.938c1.129.367 2.262.758 3.407 1.125 1.35.435 2.505.719 3.468.906 1.264.251 2.455.365 3.532.313 1.17-.057 2.619-.695 4.375-1.907 1.847-1.263 3.361-2.72 4.562-4.406 1.377-1.913 2.053-3.752 1.969-5.469v-.125l10.344-1v.094l3.625-.469c1.796-.243 3.127-.643 4-1.187.885-.562 1.72-1.467 2.468-2.688 1.274.79 2.675 1.35 4.25 1.688 1.364.288 2.588.39 3.625.25l2.407-.344v-.062l11.312-1.938-.937-5.656c-.47-2.741-1.038-4.667-1.657-5.781-.411-.738-1.276-1.695-2.625-2.907zm58.875 4-.718 3.688 4.187.875.813-3.781-4.282-.782zm-90.156 2.657c.902-.087 1.718.426 2.469 1.531.385.575.803 1.478 1.281 2.687-1.63.017-2.645-.027-3.094-.125-1.267-.285-1.98-1.036-2.093-2.218a1.728 1.728 0 0 1 .343-1.25 1.518 1.518 0 0 1 1.094-.625zm18.875.906a13.84 13.84 0 0 1 1.719 2.062c.535.81.99 1.63 1.312 2.5L346 638c-.913.014-1.913-.158-3-.5-1.072-.343-1.923-.784-2.563-1.312.36-.837.704-1.441 1-1.813.442-.58 1.001-.994 1.72-1.281zm66.75 0-.687 3.75 4.187.812.75-3.78-4.25-.782zm-52.594 10.094-1.156 3.593 4.094 1.344 1.219-3.625-4.157-1.312zm-4.906 3-1.156 3.656 4.094 1.312 1.156-3.656-4.094-1.312z" style="fill:#000;stroke:none"/><g style="fill:#dada12;stroke:#000;stroke-width:1;stroke-linejoin:round"><path d="M546.394 207.287c-.718-1.337-4.494 3.945-6.1 2.597-9.744-15.902-12.039-21.19-25.187-31.978-5.014-4.114-18.434-7.314-29.397-24.936 14.604 2.537 30.724 17.22 30.724 17.22s-16.641-19.485-22.688-34.281c26.84 15.613 28.195 31.076 32.897 39.441 6.417 11.418 8.439 14.979 19.751 31.937z"/><path d="M567.644 247.78c-.718-1.337-4.494 4.944-6.1 3.597-7.244-16.402-10.307-21.84-21.687-34.478-12.955-14.388-33.245-7.958-44.397-40.937 30 12.137 46.616 30.7 46.616 30.7s-13.94-23.464-3.762-44.485c13.487 31.02 8.95 24.188 12.949 50 2.39 15.433 8.069 18.145 16.381 35.602z"/><path d="M584.548 295.692c-.717-1.337-6.493 4.445-8.1 3.098-5.244-15.402-3.13-25.598-13.687-38.478-13.893-16.95-43.245-23.458-46.896-49.937 31 8.137 48.115 36.7 48.115 36.7s-12.939-29.964 3.239-56.485c13.486 31.02-.551 41.688 5.448 68.5 3.41 15.24 6.57 21.145 11.881 36.602z"/><path d="M583.734 363.788c-.718-1.337-6.994 1.445-8.6.097.256-14.902 6.104-35.028 1.313-50.978-6.893-22.95-31.245-28.457-34.896-54.936 31 8.137 38.115 36.7 38.115 36.7s-8.439-32.464 7.739-58.986c6.986 30.02 3.703 49.94-1.052 77-2.59 14.74-2.931 36.645-2.619 51.103z"/><path d="M570.517 427.038c-.717-1.337-5.993-.055-7.6-1.403 1.256-13.402 6.77-30.94 8.813-44.478 3.674-24.344-22.245-55.457-19.396-83.936 30.5 18.637 27.115 64.2 27.115 64.2s-2.439-30.964 24.239-62.486c2.986 34.02-12.859 54.986-23.052 80.5-5.09 12.74-8.93 34.145-10.119 47.603z"/><path d="M548.014 473.176c-.718-1.337-3.493.445-5.1-.902 7.756-10.403 9.27-19.44 13.813-32.478 8.101-23.25-11.745-71.458-1.396-98.937 23.5 22.637 11.615 82.2 11.615 82.2s6.561-38.964 40.739-77.485c-.514 46.519-26.573 72.15-41.052 95.5-7.59 12.24-9.931 23.145-18.619 32.102z"/><path d="M520.955 520.4c-.718-1.337-2.312-1.625-3.919-2.972 7.757-10.402 13.705-20.918 18.248-33.956 8.1-23.25-5.267-31.408 13.135-87.864 7.377 35.646-2.62 75.561-2.62 75.561s15.428-24.184 59.065-60.932c-16.772 48.589-44.414 56.606-62.63 77.173-10.842 12.24-12.592 24.032-21.28 32.99z"/><path d="M495.34 553.418c-.717-1.336-2.31-1.92-3.918-3.267 7.757-10.402 7.43-10.268 16.179-20.95 13.717-16.746 2.94-30.68 25.342-88.137 5.629 44.307-13.645 77.313-13.645 77.313s11.29-19.75 63.795-51.769c-27.118 46.815-50.326 45.078-68.543 65.645-10.841 12.24-10.522 12.208-19.21 21.165z"/><g style="stroke:none"><path d="M803.144 447.127c-.718-1.337-4.494 3.945-6.1 2.598-9.744-15.902-12.039-21.19-25.187-31.978-5.014-4.114-18.434-7.314-29.396-24.937 14.603 2.537 30.723 17.221 30.723 17.221s-16.641-19.485-22.688-34.282c26.84 15.614 28.196 31.076 32.897 39.442 6.417 11.418 8.439 14.979 19.751 31.936z" style="fill:url(#b)" transform="translate(-256.75 -239.84)"/><path d="M824.394 487.62c-.718-1.337-4.494 4.945-6.1 3.597-7.244-16.402-10.307-21.839-21.687-34.477-12.955-14.388-33.245-7.958-44.396-40.937 30 12.137 46.615 30.7 46.615 30.7s-13.939-23.464-3.761-44.485c13.486 31.019 8.949 24.188 12.948 50 2.39 15.432 8.069 18.145 16.381 35.602z" style="fill:url(#c)" transform="translate(-256.75 -239.84)"/><path d="M841.299 535.533c-.718-1.337-6.494 4.445-8.101 3.097-5.244-15.402-3.13-25.598-13.686-38.477-13.894-16.95-43.246-23.458-46.897-49.937 31 8.137 48.116 36.7 48.116 36.7s-12.94-29.964 3.238-56.485c13.486 31.019-.55 41.688 5.448 68.5 3.41 15.24 6.57 21.145 11.882 36.602z" style="fill:url(#d)" transform="translate(-256.75 -239.84)"/><path d="M840.484 603.629c-.718-1.337-6.993 1.445-8.6.097.256-14.902 6.104-35.028 1.313-50.978-6.893-22.95-31.245-28.458-34.896-54.936 31 8.137 38.115 36.7 38.115 36.7s-8.439-32.465 7.739-58.986c6.986 30.02 3.703 49.94-1.052 77-2.59 14.74-2.931 36.645-2.619 51.103z" style="fill:url(#e)" transform="translate(-256.75 -239.84)"/><path d="M827.268 666.879c-.718-1.337-5.994-.055-7.601-1.403 1.256-13.402 6.77-30.94 8.814-44.478 3.673-24.345-22.246-55.458-19.397-83.936 30.5 18.637 27.116 64.2 27.116 64.2s-2.44-30.965 24.238-62.486c2.986 34.02-12.858 54.986-23.052 80.5-5.09 12.74-8.93 34.145-10.118 47.603z" style="fill:url(#f)" transform="translate(-256.75 -239.84)"/><path d="M804.764 713.017c-.717-1.337-3.493.445-5.1-.903 7.756-10.402 9.27-19.44 13.813-32.477 8.101-23.25-11.745-71.458-1.396-98.937 23.5 22.637 11.615 82.2 11.615 82.2s6.561-38.964 40.739-77.486c-.514 46.52-26.573 72.15-41.052 95.5-7.59 12.24-9.93 23.145-18.619 32.103z" style="fill:url(#g)" transform="translate(-256.75 -239.84)"/><path d="M777.705 760.24c-.718-1.337-2.312-1.624-3.919-2.972 7.757-10.402 13.705-20.917 18.248-33.955 8.101-23.25-5.267-31.408 13.135-87.865 7.377 35.647-2.62 75.562-2.62 75.562s15.428-24.184 59.065-60.932c-16.771 48.588-44.414 56.606-62.63 77.173-10.842 12.24-12.592 24.032-21.28 32.99z" style="fill:url(#h)" transform="translate(-256.75 -239.84)"/><path d="M752.09 793.26c-.717-1.338-2.31-1.92-3.918-3.268 7.757-10.402 7.43-10.269 16.179-20.95 13.717-16.746 2.94-30.681 25.342-88.138 5.63 44.307-13.645 77.314-13.645 77.314s11.29-19.75 63.795-51.769c-27.118 46.815-50.326 45.078-68.543 65.645-10.841 12.24-10.522 12.208-19.21 21.165z" style="fill:url(#i)" transform="translate(-256.75 -239.84)"/></g></g><g style="fill:#dada12;stroke:#000;stroke-width:1;stroke-linejoin:round"><path d="M61.79 207.287c.719-1.337 4.494 3.945 6.102 2.597 9.743-15.902 12.038-21.19 25.186-31.978 5.014-4.114 18.433-7.314 29.396-24.936-14.603 2.537-30.723 17.22-30.723 17.22s16.641-19.485 22.688-34.281c-26.84 15.613-28.196 31.076-32.897 39.441-6.417 11.418-8.439 14.979-19.751 31.937z"/><path d="M40.54 247.78c.719-1.337 4.494 4.944 6.102 3.597 7.243-16.402 10.305-21.84 21.686-34.478 12.955-14.388 33.245-7.958 44.396-40.937-30 12.137-46.615 30.7-46.615 30.7s13.939-23.464 3.761-44.485c-13.486 31.02-8.949 24.188-12.948 50-2.39 15.433-8.069 18.145-16.381 35.602z"/><path d="M23.636 295.692c.718-1.337 6.494 4.445 8.101 3.098 5.244-15.402 3.13-25.598 13.686-38.478 13.894-16.95 43.245-23.458 46.897-49.937-31 8.137-48.116 36.7-48.116 36.7s12.94-29.964-3.238-56.485c-13.486 31.02.55 41.688-5.448 68.5-3.41 15.24-6.57 21.145-11.882 36.602z"/><path d="M24.45 363.788c.718-1.337 6.994 1.445 8.602.097-.257-14.902-6.105-35.028-1.314-50.978 6.893-22.95 31.245-28.457 34.896-54.936-31 8.137-38.115 36.7-38.115 36.7s8.439-32.464-7.739-58.986c-6.986 30.02-3.703 49.94 1.052 77 2.59 14.74 2.93 36.645 2.619 51.103z"/><path d="M37.667 427.038c.718-1.337 5.994-.055 7.601-1.403-1.256-13.402-6.77-30.94-8.814-44.478-3.673-24.344 22.245-55.457 19.397-83.936-30.5 18.637-27.116 64.2-27.116 64.2s2.44-30.964-24.238-62.486c-2.986 34.02 12.858 54.986 23.052 80.5 5.09 12.74 8.93 34.145 10.118 47.603z"/><path d="M60.17 473.176c.718-1.337 3.494.445 5.101-.902-7.756-10.403-9.27-19.44-13.814-32.478-8.1-23.25 11.746-71.458 1.397-98.937-23.5 22.637-11.616 82.2-11.616 82.2S34.678 384.095.5 345.574c.514 46.519 26.573 72.15 41.052 95.5 7.59 12.24 9.93 23.145 18.618 32.102z"/><path d="M87.23 520.4c.718-1.337 2.312-1.625 3.919-2.972-7.757-10.402-13.705-20.918-18.248-33.956-8.101-23.25 5.267-31.408-13.135-87.864-7.377 35.646 2.62 75.561 2.62 75.561s-15.429-24.184-59.065-60.932c16.771 48.589 44.413 56.606 62.63 77.173 10.842 12.24 12.591 24.032 21.28 32.99z"/><path d="M112.844 553.418c.718-1.336 2.312-1.92 3.919-3.267-7.757-10.402-7.43-10.268-16.179-20.95-13.717-16.746-2.94-30.68-25.342-88.137-5.63 44.307 13.645 77.313 13.645 77.313s-11.29-19.75-63.795-51.769c27.117 46.815 50.326 45.078 68.543 65.645 10.841 12.24 10.521 12.208 19.21 21.165z"/><g style="stroke:none"><path d="M803.144 447.127c-.718-1.337-4.494 3.945-6.1 2.598-9.744-15.902-12.039-21.19-25.187-31.978-5.014-4.114-18.434-7.314-29.396-24.937 14.603 2.537 30.723 17.221 30.723 17.221s-16.641-19.485-22.688-34.282c26.84 15.614 28.196 31.076 32.897 39.442 6.417 11.418 8.439 14.979 19.751 31.936z" style="fill:url(#j)" transform="matrix(-1 0 0 1 864.935 -239.84)"/><path d="M824.394 487.62c-.718-1.337-4.494 4.945-6.1 3.597-7.244-16.402-10.307-21.839-21.687-34.477-12.955-14.388-33.245-7.958-44.396-40.937 30 12.137 46.615 30.7 46.615 30.7s-13.939-23.464-3.761-44.485c13.486 31.019 8.949 24.188 12.948 50 2.39 15.432 8.069 18.145 16.381 35.602z" style="fill:url(#k)" transform="matrix(-1 0 0 1 864.935 -239.84)"/><path d="M841.299 535.533c-.718-1.337-6.494 4.445-8.101 3.097-5.244-15.402-3.13-25.598-13.686-38.477-13.894-16.95-43.246-23.458-46.897-49.937 31 8.137 48.116 36.7 48.116 36.7s-12.94-29.964 3.238-56.485c13.486 31.019-.55 41.688 5.448 68.5 3.41 15.24 6.57 21.145 11.882 36.602z" style="fill:url(#l)" transform="matrix(-1 0 0 1 864.935 -239.84)"/><path d="M840.484 603.629c-.718-1.337-6.993 1.445-8.6.097.256-14.902 6.104-35.028 1.313-50.978-6.893-22.95-31.245-28.458-34.896-54.936 31 8.137 38.115 36.7 38.115 36.7s-8.439-32.465 7.739-58.986c6.986 30.02 3.703 49.94-1.052 77-2.59 14.74-2.931 36.645-2.619 51.103z" style="fill:url(#m)" transform="matrix(-1 0 0 1 864.935 -239.84)"/><path d="M827.268 666.879c-.718-1.337-5.994-.055-7.601-1.403 1.256-13.402 6.77-30.94 8.814-44.478 3.673-24.345-22.246-55.458-19.397-83.936 30.5 18.637 27.116 64.2 27.116 64.2s-2.44-30.965 24.238-62.486c2.986 34.02-12.858 54.986-23.052 80.5-5.09 12.74-8.93 34.145-10.118 47.603z" style="fill:url(#n)" transform="matrix(-1 0 0 1 864.935 -239.84)"/><path d="M804.764 713.017c-.717-1.337-3.493.445-5.1-.903 7.756-10.402 9.27-19.44 13.813-32.477 8.101-23.25-11.745-71.458-1.396-98.937 23.5 22.637 11.615 82.2 11.615 82.2s6.561-38.964 40.739-77.486c-.514 46.52-26.573 72.15-41.052 95.5-7.59 12.24-9.93 23.145-18.619 32.103z" style="fill:url(#o)" transform="matrix(-1 0 0 1 864.935 -239.84)"/><path d="M777.705 760.24c-.718-1.337-2.312-1.624-3.919-2.972 7.757-10.402 13.705-20.917 18.248-33.955 8.101-23.25-5.267-31.408 13.135-87.865 7.377 35.647-2.62 75.562-2.62 75.562s15.428-24.184 59.065-60.932c-16.771 48.588-44.414 56.606-62.63 77.173-10.842 12.24-12.592 24.032-21.28 32.99z" style="fill:url(#p)" transform="matrix(-1 0 0 1 864.935 -239.84)"/><path d="M752.09 793.26c-.717-1.338-2.31-1.92-3.918-3.268 7.757-10.402 7.43-10.269 16.179-20.95 13.717-16.746 2.94-30.681 25.342-88.138 5.63 44.307-13.645 77.314-13.645 77.314s11.29-19.75 63.795-51.769c-27.118 46.815-50.326 45.078-68.543 65.645-10.841 12.24-10.522 12.208-19.21 21.165z" style="fill:url(#q)" transform="matrix(-1 0 0 1 864.935 -239.84)"/></g></g><path d="m163.312 596.313-2.906 2.531 2.813 3.219 2.906-2.469-2.813-3.281zm5.75.03-2.875 2.47 2.782 3.28 2.937-2.468-2.844-3.281zM163.5 605l-2.813 3.125.313.219c-.939.953-1.863 1.93-2.781 2.875-1.044 1.13-1.78 2.204-2.188 3.219-.355.884-.23 1.701.375 2.5.527.7 1.317 1.262 2.375 1.687 2.74 1.1 4.955 1.057 6.625-.125 1.08-.761 2.023-2.143 2.844-4.187.518-1.29.157-2.896-1.094-4.813-.362-.566-1.585-2.069-3.656-4.5zm17.656.469-1.875 4.187c1.894 1.43 2.933 3.298 3.125 5.625.158 1.868-.209 4.119-1.156 6.75l-8.563-3.062c-.617-.222-1.039-.528-1.312-.875-.331-.418-.493-.964-.438-1.625l-.5-.156c-.357.485-.652.94-.875 1.375-.222.434-.424.91-.625 1.468-.238.662-.112 1.37.375 2.094a3.993 3.993 0 0 0 2 1.531l8.063 2.907-.063.187 25.875 7.906 1.188-3.906-1.344-.406c-.601-.33-1.564-1.6-2.875-3.781-1.693-2.804-2.916-4.72-3.719-5.782-1.62-2.128-3.194-3.44-4.718-3.906-1.555-.474-3-.38-4.313.281-.908.459-1.76 1.183-2.531 2.157.809.132 1.613.33 2.375.562 1.24.379 2.386.962 3.469 1.75.962.702 1.982 1.656 3.03 2.875.846.977 1.837 2.292 3 3.938l-16.187-4.97.032-.093c1.28-3.558 1.871-6.581 1.812-9.094-.074-3.115-1.156-5.772-3.25-7.937zm-18.719 4.594a36.333 36.333 0 0 1 1.72 2.03c1.227 1.555 1.752 2.606 1.53 3.157-.151.377-.794.608-1.937.688-1.138.065-2.126-.08-2.938-.407-.696-.279-1.18-.706-1.437-1.28-.237-.584-.203-1.23.094-1.97.203-.507.617-.972 1.25-1.375.2-.121.78-.395 1.718-.843zm87.782 2.625-2.25 3.03 3.437 2.595 2.344-3.063-3.531-2.562zm-5.625 1.28-2.25 3.063 3.468 2.563 2.282-3.094-3.5-2.531zm30.25.595c-.422.79-.763 1.607-1.032 2.468a24.654 24.654 0 0 0-.625 2.688l1.407.812c.32 1.506.56 2.77.75 3.813.353 2.008.6 3.739.75 5.219.196 2.03.252 3.893.156 5.562a10.867 10.867 0 0 1-.375 2.281c-.217.77-.492 1.487-.813 2.157-1.389.75-2.639 1.265-3.718 1.53a9.968 9.968 0 0 1-2.97.25l-1.343-.062.219-1.843c.321-2.763.342-4.788.062-6.032-.187-.824-.734-1.988-1.687-3.53l-2.281 3.562c1.017 1.392 1.657 2.454 1.875 3.156.322 1.013.369 2.419.156 4.25l-11.563-1.344-1.25-.187c-.509-.08-.9-.976-1.125-2.657-.142-1.098-.21-2.778-.25-5.03l-.062-4.095c-.065-.99-.128-1.952-.156-2.875-.013-.919-.029-1.862-.032-2.843-.566.48-1.03.959-1.406 1.437-.457.592-.73 1.163-.812 1.688-.02.123-.01.46 0 1 .025.542.02.871.03 1-2.782.794-5.14 1.871-7.124 3.218-1.982 1.332-3.103 2.642-3.313 3.97-.058.37.491.786 1.625 1.218 1.152.42 2.632.75 4.407 1.031a3.94 3.94 0 0 0 2.343-.344c.786-.366 1.463-.958 2.063-1.75.032 2.3.279 4.2.687 5.72.55 2.032 1.358 3.136 2.47 3.312l1.437.218v.032l.437.062 1.438.219v-.063l9.343 1.063-.03.375 29.53 1.719.344-5.938c.12-2.074-.27-3.697-1.156-4.875-.974-1.292-2.52-2.003-4.625-2.125-1.654-.095-3.66.354-6.031 1.313-.785.314-2.586 1.175-5.407 2.593.262-1.002.426-1.74.532-2.218.296-1.345.498-2.58.562-3.688.076-1.31-.033-2.935-.281-4.875a50.482 50.482 0 0 0-1-5.719l.312.125c.46.168.736.26.844.282.255-.627.428-1.162.531-1.594.104-.432.283-1.465.532-3.063-1.133-.174-2.067-.442-2.782-.812-.865-.457-1.386-1.034-1.593-1.781zM299.312 618c-.358.704-.75 1.453-1.156 2.25-.39.797-.75 1.531-1.062 2.219.267 2 .529 3.953.75 5.875.362 3.171.653 6.235.906 9.156.268 2.906.405 5.156.406 6.781 0 .204-.016.594-.062 1.188-.031.594-.079 1.14-.125 1.594l.437.218c.78-1.36 1.298-2.343 1.531-2.968a9.925 9.925 0 0 0 .657-3.625c-.002-1.578-.122-3.938-.407-7.032-.22-2.484-.544-5.25-.937-8.343a427.633 427.633 0 0 0-.938-7.313zm-76.062 8.344c-.965.07-1.922.62-2.844 1.625a9.134 9.134 0 0 0-2.156 4.062c-.417 1.7-.158 3.068.812 4.094.857.902 2.327 1.591 4.375 2.094-1.593 1.314-2.797 2.26-3.625 2.812-1.636 1.095-3.215 1.855-4.687 2.282-1.885.535-3.743.58-5.594.125-.743-.183-1.552-.51-2.437-.969-.874-.44-1.699-.844-2.5-1.25l-.594.687c.904.576 1.818 1.16 2.719 1.75 1.143.716 2.08 1.269 2.812 1.625a15.06 15.06 0 0 0 3 1.094c2.701.663 5.415-.15 8.156-2.406 2.459-2.02 4.01-4.277 4.625-6.781l.625-2.594c.525-2.14.724-3.846.563-5.156-.2-1.674-.961-2.676-2.281-3a3.088 3.088 0 0 0-.97-.094zm25.5 3.281.031 2.594c-.987.84-1.949 1.209-2.875 1.062-.756-.119-1.33-.26-1.75-.406a5.38 5.38 0 0 1-1.094-.5c.66-.766 1.43-1.362 2.282-1.75.854-.402 1.987-.734 3.406-1zm-26.688.281c.204-.026.413-.02.625.032.592.145 1.054.507 1.344 1.093.333.677.461 1.805.438 3.344-1.518-.372-2.55-.832-3.125-1.375-.571-.558-.777-1.225-.594-1.969.104-.424.348-.738.719-.937a1.68 1.68 0 0 1 .593-.188zm63.125 8.22c.308-.014.622-.017.907 0 1.528.087 2.681.375 3.468.843.804.453 1.171 1.08 1.125 1.875-.069 1.201-1.943 1.681-5.625 1.469l-10.187-.563a48.449 48.449 0 0 1 3.25-1.625c1.414-.638 2.76-1.133 4-1.469 1.133-.31 2.139-.49 3.062-.53zm-22.843 9.187-2.157 3.125 3.532 2.437 2.218-3.125-3.593-2.437zm-5.594 1.5L254.625 652l3.562 2.406 2.157-3.187-3.594-2.406z" style="fill:#000;stroke:none"/></svg>