<?xml version="1.0" encoding="utf-8"?>
<!-- Generator: Adobe Illustrator 26.0.1, SVG Export Plug-In . SVG Version: 6.00 Build 0)  -->
<svg version="1.1" xmlns="http://www.w3.org/2000/svg" xmlns:xlink="http://www.w3.org/1999/xlink" x="0px" y="0px"
	 viewBox="0 0 512 512" style="enable-background:new 0 0 512 512;" xml:space="preserve">
<style type="text/css">
	.st0{display:none;}
	.st1{display:inline;stroke:#FFFFFF;stroke-miterlimit:10;}
	.st2{fill:#FFFFFF;stroke:#000000;stroke-miterlimit:10;}
	.st3{stroke:#000000;stroke-miterlimit:10;}
	.st4{fill:#F9F9FA;stroke:#000000;stroke-miterlimit:10;}
	.st5{fill:#FFFFFF;stroke:#FFFFFF;stroke-miterlimit:10;}
</style>
<g id="Layer_3" class="st0">
	<rect x="-17.25" y="-7.8" class="st1" width="562.95" height="542.7"/>
</g>
<g id="Layer_1" class="st0">
</g>
<g id="Layer_4" class="st0">
</g>
<g id="Layer_2">
	<path class="st2" d="M431.4,63.3c-3.16-0.64-7.86-1.65-13.5-3.15c-18.14-4.82-33.23-8.83-46.35-19.35
		c-5.25-4.21-13.1-11.8-19.57-24.75c-3.83,0.09-7.73,0.1-11.7,0C309.1,15.3,281.46,8.64,258.15,0c-1.15,0.24-2.97,0.63-5.17,1.2
		c-8.74,2.26-12.47,4.45-19.12,6.52c-2.33,0.73-6.13,1.46-13.73,2.92c-3.28,0.63-13.4,2.58-20.48,3.6
		c-7.43,1.07-20.73,2.46-40.05,1.8c-0.58,0.65-1.43,1.58-2.48,2.7c-4.85,5.19-16.67,17.71-31.95,27.45
		c-15.54,9.91-31.51,14.94-44.1,17.55h-1.01l2.59,2.14c0.45,1.31,30.26,31.05,30.26,31.05c0,0,0.11,6.05,0.11,6.19
		c0.06,3.36,1.49,14.78,6.3,45l0.39,1.86c-0.18,0.37-0.43,0.92-0.73,1.57c-1.34,2.96-3.97,9.29-5.51,17.04
		c-1.76,8.88-1.33,15.85-0.9,22.84c0.47,7.65,0.71,11.48,2.48,16.43c2.67,7.47,7.05,12.59,10.01,15.52c1.12,0.59,2.1,0.76,2.81,0.79
		c3.32,0.13,6.62-2.48,8.55-6.53c0.29,0.65,0.72,1.63,1.24,2.81c8.75,19.94,8.75,21.15,11.44,26.74
		c5.88,12.24,12.83,20.93,17.25,26.4c3.68,4.55,7.04,8.18,9.6,10.8v19.8l-30.38,32.32c-0.52,0.59-1.32,1.35-2.47,1.88
		c-1.19,0.54-2.22,0.59-2.4,0.6c-2.78,0.21-41.86,10.21-62.55,18.9c-6.17,2.59-45.52,19.7-65.25,56.7
		c-8.09,15.18-10.67,29.56-11.4,34.2c-1.49,9.45-2.63,17.24,0,27c0.97,3.62,4.68,16.63,17.4,26.4c9.94,7.63,20.22,9.33,24.9,9.8h429
		l1.2-0.65c2.75-0.68,6.44-1.84,10.5-3.9c2.21-1.13,9.13-4.85,15.6-12.45c2.51-2.95,8.4-10.02,10.8-20.7
		c1.19-5.28,1.15-9.75,1.1-14.55c-0.07-6.99-0.95-12.29-1.25-13.95c-2.06-11.55-6.41-19.85-9.75-26.1
		c-1.53-2.86-6.51-11.91-15.6-22.5c-2.97-3.47-15.07-17.22-35.85-30c-12.11-7.45-22-11.39-31.2-15
		c-11.92-4.68-28.74-10.24-49.8-13.95l-32.25-34.2l-0.45-18.75c0.51-0.61,1.3-1.55,2.25-2.7c8.61-10.4,15.78-19.9,18.15-23.25
		c9.28-13.11,15.85-32.01,18.75-41.1c0.38,0.36,0.94,0.89,1.65,1.5c3.25,2.81,5.3,4.58,7.2,4.8c3.57,0.41,6.87-4.64,8.55-7.2
		c3.75-5.73,5.04-11.29,5.85-15.75c1.68-9.19,3.34-18.32,1.35-30.6c-0.85-5.26-2.67-12.91-6.9-21.45l1.95-8.7l2.7-15.15l1.8-17.1
		V97.65l33.3-33.6L431.4,63.3z"/>
	<path class="st3" d="M208.09,255.79c-0.1-3.26,0.21-9.04,3.38-15.08c6.67-12.72,20.36-15.76,22.5-16.2h43.99
		c0.55-0.04,1.33-0.06,2.25,0c10.11,0.69,16.69,10.53,18.22,12.82c4.85,7.25,5.55,14.68,5.62,18.45H208.09z"/>
	<polyline class="st2" points="175.95,304.2 256,368.17 336.3,304.05 	"/>
	<polyline class="st2" points="224.4,512 256,462.9 224.4,416.1 256,368.7 287.85,416.1 256,462.9 287.85,512 	"/>
	<polygon class="st2" points="111.68,383.25 96.15,399.67 64.2,367.05 82.92,356 	"/>
	<polygon class="st2" points="87.94,407.89 72.64,423.86 35.62,387.19 52.84,373.12 	"/>
	<path class="st2" d="M27.64,395.62c1.91,0.79,36.56,37.12,36.56,37.12l-16.09,15.3L14.14,414.3L27.64,395.62z"/>
	<path class="st2" d="M399,383.7l17.1,16.2l33.45-32.7c0,0-21.27-10.97-21.25-10.96C428.32,356.24,399,383.7,399,383.7z"/>
	<polyline class="st2" points="458.7,373.25 424.27,407.66 439.61,423.41 476.21,387.61 	"/>
	<polyline class="st2" points="484.25,395.88 448.5,431.85 463.8,447.94 497.65,413.9 	"/>
	<path class="st2" d="M287.85,416.1c0,0,79.39-79.23,79.69-78.92c0.3,0.31,0,15.02,0,15.02l-79.69,80.1V416.1z"/>
	<path class="st2" d="M145.27,336.86l0.64,0.76l78.49,78.49c-0.15,1.35,0,15.75,0,15.75l-80.25-79.5l-0.43-14.27L145.27,336.86z"/>
	<polygon class="st4" points="207.9,54.3 240,48.9 255.97,16.8 270.9,48 305.1,54.3 280.2,78.9 286.2,112.2 256.5,97.5 226.8,112.2 
		231.6,79.2 	"/>
	<polyline class="st2" points="399.15,97.65 383.7,112.2 281.54,86.33 	"/>
	<polyline class="st2" points="230.56,86.33 128.77,112.2 112.91,96.94 	"/>
	<path class="st2" d="M392.99,150.19c-0.39-0.79-2.35-4.58-6.3-5.48c-3.72-0.84-6.87,1.43-8.32,2.48
		c-8.83,6.36-9.28,20.53-9.45,25.65c-0.05,1.42-0.03,2.59,0,3.38h-16.2l6.98-45.45c-17.66,10.6-51.79,27.67-96.98,29.48
		c-38.61,1.55-67.29-8.77-73.35-11.03c-15.6-5.81-27.78-12.86-36.22-18.45l6.9,45.45h-16.5c0.02-0.55,0.03-1.36,0-2.32
		c-0.07-2.49-0.43-7.66-3.3-15.45c-2.3-6.25-3.45-9.37-6.15-11.4c-1.18-0.89-4.52-3.39-8.4-2.25c-3.99,1.17-5.5,5.31-5.68,5.83"/>
	<path class="st3" d="M327,160.73c2.73-0.26,15.16-1.13,23.85,7.42c5.34,5.26,6.74,11.6,8.1,17.78c2.72,12.34,0.04,22.28-0.68,24.75
		c-1.34,4.6-4.49,15.44-15.07,23.4c-2.48,1.86-10.64,7.81-22.73,7.88c-11.25,0.06-19.32-5.32-23.18-7.88c-4.53-3-8.13-6.56-9.9-8.32
		c-4.25-4.24-6.98-7.97-7.88-9.23c-2.91-4.08-6.93-10.69-9.79-19.91l-28.54-0.26c0,0-7.35,24.34-23.1,34.8
		c-5.5,3.66-12.93,9.99-24.53,10.8c-2.18,0.15-16.55,0.93-28.24-9.45c-7.53-6.69-10.26-14.73-11.25-17.77
		c-1.56-4.77-1.8-8.52-2.14-13.5c-0.46-6.88-0.9-13.49,1.8-21.15c1.44-4.07,3.12-8.86,7.76-12.49c3.61-2.82,7.45-3.73,13.05-5.06
		c4.44-1.05,8.07-1.34,11.14-1.57c4.37-0.34,8.07-0.32,10.8-0.22H327z"/>
	<path class="st5" d="M232.05,170.1c0.38,0.25,0.76,0.51,1.12,0.79c5.9,4.47,7.99,11.61,8.77,16.84l27.22,0.19l-0.07-0.56
		c0.05-0.78,0.15-1.58,0.3-2.4c1.33-7.26,6.15-12.26,9.45-15h-46.8"/>
</g>
</svg>
