<?xml version="1.0" encoding="UTF-8" standalone="no"?>
<!-- Created with Inkscape (http://www.inkscape.org/) -->

<svg
   xmlns:dc="http://purl.org/dc/elements/1.1/"
   xmlns:cc="http://creativecommons.org/ns#"
   xmlns:rdf="http://www.w3.org/1999/02/22-rdf-syntax-ns#"
   xmlns:svg="http://www.w3.org/2000/svg"
   xmlns="http://www.w3.org/2000/svg"
   xmlns:xlink="http://www.w3.org/1999/xlink"
   xmlns:sodipodi="http://sodipodi.sourceforge.net/DTD/sodipodi-0.dtd"
   xmlns:inkscape="http://www.inkscape.org/namespaces/inkscape"
   version="1.0"
   width="608.18475"
   height="663.76025"
   id="svg2178"
   inkscape:version="0.47 r22583"
   sodipodi:docname="ZZ.svg">
  <metadata
     id="metadata109">
    <rdf:RDF>
      <cc:Work
         rdf:about="">
        <dc:format>image/svg+xml</dc:format>
        <dc:type
           rdf:resource="http://purl.org/dc/dcmitype/StillImage" />
      </cc:Work>
    </rdf:RDF>
  </metadata>
  <sodipodi:namedview
     pagecolor="#ffffff"
     bordercolor="#666666"
     borderopacity="1"
     objecttolerance="10"
     gridtolerance="10"
     guidetolerance="10"
     inkscape:pageopacity="0"
     inkscape:pageshadow="2"
     inkscape:window-width="1280"
     inkscape:window-height="1004"
     id="namedview107"
     showgrid="false"
     inkscape:zoom="1.8969785"
     inkscape:cx="316.90196"
     inkscape:cy="344.24856"
     inkscape:window-x="-8"
     inkscape:window-y="-8"
     inkscape:window-maximized="1"
     inkscape:current-layer="svg2178" />
  <desc
     id="desc2180">coat of arms of Western Sahara / Sahrawi Arab Democratic Republic</desc>
  <defs
     id="defs2182">
    <inkscape:perspective
       sodipodi:type="inkscape:persp3d"
       inkscape:vp_x="0 : 351.88 : 1"
       inkscape:vp_y="0 : 1000 : 0"
       inkscape:vp_z="647.69 : 351.88 : 1"
       inkscape:persp3d-origin="323.845 : 234.58667 : 1"
       id="perspective111" />
    <linearGradient
       id="lg01">
      <stop
         style="stop-color: rgb(164, 149, 40); stop-opacity: 1;"
         offset="0"
         id="stop2185" />
      <stop
         style="stop-color: rgb(164, 149, 40); stop-opacity: 0;"
         offset="1"
         id="stop2187" />
    </linearGradient>
    <radialGradient
       cx="772.80231"
       cy="412.84805"
       r="30.34182"
       fx="772.80231"
       fy="412.84805"
       id="rg01"
       xlink:href="#lg01"
       gradientUnits="userSpaceOnUse" />
    <radialGradient
       cx="788.30231"
       cy="446.71289"
       r="36.09182"
       fx="788.30231"
       fy="446.71289"
       id="rg02"
       xlink:href="#lg01"
       gradientUnits="userSpaceOnUse" />
    <radialGradient
       cx="806.95673"
       cy="484.63309"
       r="34.34182"
       fx="806.95673"
       fy="484.63309"
       id="rg03"
       xlink:href="#lg01"
       gradientUnits="userSpaceOnUse" />
    <radialGradient
       cx="823.2381"
       cy="539.81567"
       r="24.937426"
       fx="823.2381"
       fy="539.81567"
       id="rg04"
       xlink:href="#lg01"
       gradientUnits="userSpaceOnUse" />
    <radialGradient
       cx="834.83557"
       cy="601.97015"
       r="25.970869"
       fx="834.83557"
       fy="601.97015"
       id="rg05"
       xlink:href="#lg01"
       gradientUnits="userSpaceOnUse" />
    <radialGradient
       cx="832.04919"
       cy="646.85852"
       r="32.385689"
       fx="832.04919"
       fy="646.85852"
       id="rg06"
       xlink:href="#lg01"
       gradientUnits="userSpaceOnUse" />
    <radialGradient
       cx="817.70013"
       cy="697.84436"
       r="43.91399"
       fx="817.70013"
       fy="697.84436"
       id="rg07"
       xlink:href="#lg01"
       gradientUnits="userSpaceOnUse" />
    <radialGradient
       cx="794.00751"
       cy="737.08179"
       r="45.835369"
       fx="794.00751"
       fy="737.08179"
       id="rg08"
       xlink:href="#lg01"
       gradientUnits="userSpaceOnUse" />
    <radialGradient
       cx="772.80231"
       cy="412.84805"
       r="30.34182"
       fx="772.80231"
       fy="412.84805"
       id="rg09"
       xlink:href="#lg01"
       gradientUnits="userSpaceOnUse" />
    <radialGradient
       cx="788.30231"
       cy="446.71289"
       r="36.09182"
       fx="788.30231"
       fy="446.71289"
       id="rg10"
       xlink:href="#lg01"
       gradientUnits="userSpaceOnUse" />
    <radialGradient
       cx="806.95673"
       cy="484.63309"
       r="34.34182"
       fx="806.95673"
       fy="484.63309"
       id="rg11"
       xlink:href="#lg01"
       gradientUnits="userSpaceOnUse" />
    <radialGradient
       cx="823.2381"
       cy="539.81567"
       r="24.937426"
       fx="823.2381"
       fy="539.81567"
       id="rg12"
       xlink:href="#lg01"
       gradientUnits="userSpaceOnUse" />
    <radialGradient
       cx="834.83557"
       cy="601.97015"
       r="25.970869"
       fx="834.83557"
       fy="601.97015"
       id="rg13"
       xlink:href="#lg01"
       gradientUnits="userSpaceOnUse" />
    <radialGradient
       cx="832.04919"
       cy="646.85852"
       r="32.385689"
       fx="832.04919"
       fy="646.85852"
       id="rg14"
       xlink:href="#lg01"
       gradientUnits="userSpaceOnUse" />
    <radialGradient
       cx="817.70013"
       cy="697.84436"
       r="43.91399"
       fx="817.70013"
       fy="697.84436"
       id="rg15"
       xlink:href="#lg01"
       gradientUnits="userSpaceOnUse" />
    <radialGradient
       cx="794.00751"
       cy="737.08179"
       r="45.835369"
       fx="794.00751"
       fy="737.08179"
       id="rg16"
       xlink:href="#lg01"
       gradientUnits="userSpaceOnUse" />
    <radialGradient
       cx="772.80231"
       cy="412.84805"
       r="30.34182"
       fx="772.80231"
       fy="412.84805"
       id="radialGradient4570"
       xlink:href="#lg01"
       gradientUnits="userSpaceOnUse" />
    <radialGradient
       cx="788.30231"
       cy="446.71289"
       r="36.09182"
       fx="788.30231"
       fy="446.71289"
       id="radialGradient4572"
       xlink:href="#lg01"
       gradientUnits="userSpaceOnUse" />
    <radialGradient
       cx="806.95673"
       cy="484.63309"
       r="34.34182"
       fx="806.95673"
       fy="484.63309"
       id="radialGradient4574"
       xlink:href="#lg01"
       gradientUnits="userSpaceOnUse" />
    <radialGradient
       cx="823.2381"
       cy="539.81567"
       r="24.937426"
       fx="823.2381"
       fy="539.81567"
       id="radialGradient4576"
       xlink:href="#lg01"
       gradientUnits="userSpaceOnUse" />
    <radialGradient
       cx="834.83557"
       cy="601.97015"
       r="25.970869"
       fx="834.83557"
       fy="601.97015"
       id="radialGradient4578"
       xlink:href="#lg01"
       gradientUnits="userSpaceOnUse" />
    <radialGradient
       cx="832.04919"
       cy="646.85852"
       r="32.385689"
       fx="832.04919"
       fy="646.85852"
       id="radialGradient4580"
       xlink:href="#lg01"
       gradientUnits="userSpaceOnUse" />
    <radialGradient
       cx="817.70013"
       cy="697.84436"
       r="43.91399"
       fx="817.70013"
       fy="697.84436"
       id="radialGradient4582"
       xlink:href="#lg01"
       gradientUnits="userSpaceOnUse" />
    <radialGradient
       cx="794.00751"
       cy="737.08179"
       r="45.835369"
       fx="794.00751"
       fy="737.08179"
       id="radialGradient4584"
       xlink:href="#lg01"
       gradientUnits="userSpaceOnUse" />
    <radialGradient
       cx="772.80231"
       cy="412.84805"
       r="30.34182"
       fx="772.80231"
       fy="412.84805"
       id="radialGradient4586"
       xlink:href="#lg01"
       gradientUnits="userSpaceOnUse" />
    <radialGradient
       cx="788.30231"
       cy="446.71289"
       r="36.09182"
       fx="788.30231"
       fy="446.71289"
       id="radialGradient4588"
       xlink:href="#lg01"
       gradientUnits="userSpaceOnUse" />
    <radialGradient
       cx="806.95673"
       cy="484.63309"
       r="34.34182"
       fx="806.95673"
       fy="484.63309"
       id="radialGradient4590"
       xlink:href="#lg01"
       gradientUnits="userSpaceOnUse" />
    <radialGradient
       cx="823.2381"
       cy="539.81567"
       r="24.937426"
       fx="823.2381"
       fy="539.81567"
       id="radialGradient4592"
       xlink:href="#lg01"
       gradientUnits="userSpaceOnUse" />
    <radialGradient
       cx="834.83557"
       cy="601.97015"
       r="25.970869"
       fx="834.83557"
       fy="601.97015"
       id="radialGradient4594"
       xlink:href="#lg01"
       gradientUnits="userSpaceOnUse" />
    <radialGradient
       cx="832.04919"
       cy="646.85852"
       r="32.385689"
       fx="832.04919"
       fy="646.85852"
       id="radialGradient4596"
       xlink:href="#lg01"
       gradientUnits="userSpaceOnUse" />
    <radialGradient
       cx="817.70013"
       cy="697.84436"
       r="43.91399"
       fx="817.70013"
       fy="697.84436"
       id="radialGradient4598"
       xlink:href="#lg01"
       gradientUnits="userSpaceOnUse" />
    <radialGradient
       cx="794.00751"
       cy="737.08179"
       r="45.835369"
       fx="794.00751"
       fy="737.08179"
       id="radialGradient4600"
       xlink:href="#lg01"
       gradientUnits="userSpaceOnUse" />
  </defs>
  <path
     d="m 394.24981,277.0211 c 0,0 26.42034,32.03443 22,65 -6.61761,49.35209 -29.5,58 -37.5,116 -5.81071,42.12761 -1,72 -1,72 l 56.5,-41.54151 c 0,0 47,-198.83349 -4.5,-256.45849 -24.5,32.875 -35.5,45 -35.5,45 z"
     style="fill:#008000;fill-opacity:1;stroke:none"
     id="path2207" />
  <g
     transform="matrix(-1,0,0,1,730.99987,-239.84076)"
     style="stroke:#000000;stroke-width:1;stroke-linejoin:round"
     id="g2209">
    <path
       d="m 558.5,473.86218 c 51.125,74.75 1,257.5 1,257.5 l 49.5,-35.5 c 0,0 -0.5,-40.5 10,-66.5 10.5,-26 21.5,-34.5 21.5,-91 0,-48.06815 -51.5,-110 -51.5,-110 0,0 -8.125,10.75 -30.5,45.5 z"
       style="fill:#000000;stroke:none"
       id="path2211" />
    <path
       d="m 524,516.86218 c 0,0 26.42034,32.03443 22,65 -6.61761,49.35209 -29.5,58 -37.5,116 -5.81071,42.12761 -1,72 -1,72 L 564,728.32067 c 0,0 47,-198.83349 -4.5,-256.45849 -24.5,32.875 -35.5,45 -35.5,45 z"
       style="fill:#008000;fill-opacity:1;stroke:none"
       id="path2213" />
    <path
       d="m 556,506.86218 c 0,0 27.68232,25.76194 23.70711,63.63604 -3.91422,37.29289 -31.37868,79.07107 -36.70711,119.86396 -5.38487,41.22503 -0.26855,53.47485 -0.26855,53.47485 l 36.40062,-26.58617 c 0,0 -9.13207,-45.88868 16.86793,-95.88868 21.26731,-40.89867 20,-75.5 11.5,-100.5 -8.5,-25 -25.5,-43 -25.5,-43 l -26,29 z"
       style="fill:#ffffff;stroke:none"
       id="path2215" />
    <path
       d="m 526,522.36218 c 46.875,-7.625 63.5,1 63.5,1 0,0 6.5,-34.875 1,-97.5 -5.5,5.375 -20,25 -20,25 0,0 -49.875,53.625 -44.5,71.5 z"
       style="fill:#cc0000;fill-opacity:1;stroke:none"
       id="path2217" />
    <path
       d="m 455.03522,614.96721 c 1.59287,5.22141 5.88557,9.30672 10.54214,6.15724 3.45923,-2.33966 -5.41133,5.12705 -9.93585,-6.29686 -3.40044,-8.58572 -1.91991,-2.84783 -0.60629,0.13962 z"
       style="fill:#ffffff"
       id="path2219" />
    <path
       d="M 593.59375,418.6875 406.25,646.78125 l 17,20.375 31.84375,-36.875 c 0,0 8.0241,-1.88643 10.71875,-4.3125 2.94003,-4.73698 5.49928,-9.0994 7.60864,-13.48605 -0.58157,-2.75927 -0.3703,-14.23499 -0.94484,-16.01356 13.69202,-17.56598 37.81616,-48.08803 99.99245,-128.06289 2.80252,-4.18269 0.8125,-15.78126 0.8125,-15.78125 L 597.75,422.84375 593.59375,418.6875 z M 470.88774,598.4268 c 0.81294,1.7402 0.79923,11.75816 0.77614,13.98244 -1.08303,3.11291 -4.33471,7.92618 -7.35138,12.30951 -3.19174,2.63767 -7.18196,3.22365 -9.15625,3.34375 l 0.1875,-9.15625 c 0,0 4.9673,-6.91257 15.54399,-20.47945 z"
       style="fill:#ffffff"
       id="path2221" />
    <path
       d="m 406.25286,646.76306 16.90385,20.35934 c 0,0 -9.09888,19.42438 -7.90671,44.98978 -1.87489,4.23296 -2.07076,4.19853 -4.24766,8.62617 -15.69098,3.70053 -31.61158,43.7004 -63.50234,101.62383 -30.01226,-29.74002 -32.66286,-31.52084 -31.5,-41.5 0.90144,-7.73578 8.97958,-17.57189 46.25,-69.75 13.74338,-7.89242 17.01238,-8.18127 27.33005,-18.65942 7.09759,-7.20799 9.29309,-10.838 12.41881,-22.61278 3.12571,-11.77478 4.254,-23.07692 4.254,-23.07692 z"
       style="fill:#76601d"
       id="path2223" />
    <g
       transform="matrix(0,0.120362,-0.120362,0,641.156,441.27)"
       style="fill:#ff0000;stroke:none"
       id="g2225">
      <path
         d="m 466.5,328.86218 -26.92101,-28.42752 -34.9678,17.61017 18.71713,-34.388 -27.55391,-27.81451 38.48884,7.17457 17.93854,-34.80048 5.07028,38.82213 38.64054,6.30663 -35.35523,16.81882 5.94262,38.69819 z"
         transform="matrix(1.06869,0.133315,-0.13122,1.08576,538.265,5.23229)"
         id="path2227"
         style="fill:#cc0000;fill-opacity:1;stroke:none" />
      <path
         d="m 922.22848,260.34789 c -60.07494,0.76181 -108.62501,49.77663 -108.625,110.03125 0,60.72906 49.30218,109.99999 110.03125,110 18.65159,0 36.22836,-4.64185 51.625,-12.84375 -5.2448,0.86458 -10.63654,1.3125 -16.125,1.3125 -54.3619,0 -98.46875,-44.10685 -98.46875,-98.46875 -10e-6,-54.36191 44.10685,-98.5 98.46875,-98.5 5.50036,0 10.90069,0.47549 16.15625,1.34375 -15.40547,-8.21415 -32.98975,-12.875 -51.65625,-12.875 -0.47445,0 -0.93322,-0.006 -1.40625,0 z"
         id="path2229"
         style="fill:#cc0000;fill-opacity:1;stroke:none" />
    </g>
  </g>
  <path
     d="m 365.77225,164.14422 -25.04007,-34.45447 -39.68068,14.4587 24.51528,-34.84187 -25.79688,-33.873263 40.19134,12.921011 23.73733,-35.393531 0.32434,42.827501 40.46736,11.998852 -39.99089,13.54784 1.27287,42.80923 z"
     style="fill:#cc0000;fill-opacity:1;stroke:none"
     id="path2231" />
  <path
     d="m 294.34356,0.00266667 c -60.07494,0.76181 -108.62501,49.77663133 -108.625,110.03125333 0,60.72906 49.30218,109.99999 110.03125,110 18.65159,0 36.22836,-4.64185 51.625,-12.84375 -5.2448,0.86458 -10.63654,1.3125 -16.125,1.3125 -54.3619,0 -98.46875,-44.10685 -98.46875,-98.46875 -1e-5,-54.361912 44.10685,-98.500002 98.46875,-98.500002 5.50036,0 10.90069,0.47549 16.15625,1.34375 C 332.00059,4.6635167 314.41631,0.00266667 295.74981,0.00266667 c -0.47445,0 -0.93322,-0.006 -1.40625,0 z"
     style="fill:#cc0000;fill-opacity:1;stroke:none"
     id="path2233" />
  <path
     d="m 428.74981,234.0211 c 51.125,74.75 1,257.5 1,257.5 l 49.5,-35.5 c 0,0 -0.5,-40.5 10,-66.5 10.5,-26 21.5,-34.5 21.5,-91 0,-48.06815 -51.5,-110 -51.5,-110 0,0 -8.125,10.75 -30.5,45.5 z"
     style="fill:#000000;stroke:none"
     id="path2235" />
  <path
     d="m 426.24981,267.0211 c 0,0 27.68232,25.76194 23.70711,63.63604 -3.91422,37.29289 -31.37868,79.07107 -36.70711,119.86396 -5.38487,41.22503 -0.26855,53.47485 -0.26855,53.47485 l 36.40062,-26.58617 c 0,0 -9.13207,-45.88868 16.86793,-95.88868 21.26731,-40.89867 20,-75.5 11.5,-100.5 -8.5,-25 -25.5,-43 -25.5,-43 l -26,29 z"
     style="fill:#ffffff;stroke:none"
     id="path2237" />
  <path
     d="m 396.24981,282.5211 c 46.875,-7.625 63.5,1 63.5,1 0,0 6.5,-34.875 1,-97.5 -5.5,5.375 -20,25 -20,25 0,0 -49.875,53.625 -44.5,71.5 z"
     style="fill:#cc0000;fill-opacity:1;stroke:none"
     id="path2239" />
  <path
     d="m 325.28503,375.12613 c 1.59287,5.22141 5.88557,9.30672 10.54214,6.15724 3.45923,-2.33966 -5.41133,5.12705 -9.93585,-6.29686 -3.40044,-8.58572 -1.91991,-2.84783 -0.60629,0.13962 z"
     style="fill:#ffffff;stroke:#000000;stroke-width:1;stroke-linejoin:round"
     id="path2241" />
  <path
     d="m 463.84356,178.84642 -187.34375,228.09375 17,20.375 31.84375,-36.875 c 0,0 8.0241,-1.88643 10.71875,-4.3125 2.94003,-4.73698 5.49928,-9.0994 7.60864,-13.48605 -0.58157,-2.75927 -0.3703,-14.23499 -0.94484,-16.01356 13.69202,-17.56598 37.81616,-48.08803 99.99245,-128.06289 2.80252,-4.18269 0.8125,-15.78126 0.8125,-15.78125 l 24.46875,-29.78125 -4.15625,-4.15625 z m -122.70601,179.7393 c 0.81294,1.7402 0.79923,11.75816 0.77614,13.98244 -1.08303,3.11291 -4.33471,7.92618 -7.35138,12.30951 -3.19174,2.63767 -7.18196,3.22365 -9.15625,3.34375 l 0.1875,-9.15625 c 0,0 4.9673,-6.91257 15.54399,-20.47945 z"
     style="fill:#ffffff;stroke:#000000;stroke-width:1;stroke-linejoin:round"
     id="path2243" />
  <path
     d="m 276.50267,406.92198 16.90385,20.35934 c 0,0 -9.09888,19.42438 -7.90671,44.98978 -1.87489,4.23296 -2.07076,4.19853 -4.24766,8.62617 -15.69098,3.70053 -31.61158,43.7004 -63.50234,101.62383 -30.01226,-29.74002 -32.66286,-31.52084 -31.5,-41.5 0.90144,-7.73578 8.97958,-17.57189 46.25,-69.75 13.74338,-7.89242 17.01238,-8.18127 27.33005,-18.65942 7.09759,-7.20799 9.29309,-10.838 12.41881,-22.61278 3.12571,-11.77478 4.254,-23.07692 4.254,-23.07692 z"
     style="fill:#76601d;stroke:#000000;stroke-width:1;stroke-linejoin:round"
     id="path2245" />
  <g
     transform="matrix(0,0.120362,-0.120362,0,511.40587,201.42924)"
     style="fill:#cc0000;fill-opacity:1;stroke:none;stroke-width:1;stroke-linejoin:round"
     id="g2247">
    <path
       d="m 466.5,328.86218 -26.92101,-28.42752 -34.9678,17.61017 18.71713,-34.388 -27.55391,-27.81451 38.48884,7.17457 17.93854,-34.80048 5.07028,38.82213 38.64054,6.30663 -35.35523,16.81882 5.94262,38.69819 z"
       transform="matrix(1.06869,0.133315,-0.13122,1.08576,538.265,5.23229)"
       id="path2249"
       style="fill:#cc0000;fill-opacity:1;stroke:none" />
    <path
       d="m 922.22848,260.34789 c -60.07494,0.76181 -108.62501,49.77663 -108.625,110.03125 0,60.72906 49.30218,109.99999 110.03125,110 18.65159,0 36.22836,-4.64185 51.625,-12.84375 -5.2448,0.86458 -10.63654,1.3125 -16.125,1.3125 -54.3619,0 -98.46875,-44.10685 -98.46875,-98.46875 -10e-6,-54.36191 44.10685,-98.5 98.46875,-98.5 5.50036,0 10.90069,0.47549 16.15625,1.34375 -15.40547,-8.21415 -32.98975,-12.875 -51.65625,-12.875 -0.47445,0 -0.93322,-0.006 -1.40625,0 z"
       id="path2251"
       style="fill:#cc0000;fill-opacity:1;stroke:none" />
  </g>
  <g
     style="fill:#ff0000;stroke:#000000;stroke-width:1;stroke-linejoin:round"
     id="g2253"
     transform="translate(-19.75013,-20.249762)">
    <path
       d="m 504.12573,609.31929 c 0,0 35.1522,-27.53963 51.94465,-22.83774 0.67169,32.01762 13.09812,39.51824 30.00252,55.52705 -32.12956,-5.48553 -66.31278,26.84198 -88.66416,28.43522 -17.02948,1.21389 -18.9195,-4.64591 -31.56981,-17.24025 1.67925,-15.28113 38.2868,-43.88428 38.2868,-43.88428 z"
       id="path2255"
       style="fill:#cc0000;fill-opacity:1" />
    <path
       d="m 523.60497,629.47024 c 0,0 4.45492,12.65493 -24.05534,27.10187 -11.21789,5.68442 -27.15467,6.23746 -18.00975,11.49278 -6.43174,-2.22285 -14.35755,-14.63742 -14.35755,-14.63742 l 56.42264,-23.95723 z"
       id="path2257"
       style="fill:#cc0000;fill-opacity:1" />
    <path
       d="m 141.94715,609.31929 c 0,0 -35.1522,-27.53963 -51.94465,-22.83774 -0.67169,32.01762 -13.09812,39.51824 -30.00252,55.52705 32.12956,-5.48553 66.31278,26.84198 88.66416,28.43522 17.02948,1.21389 18.9195,-4.64591 31.56981,-17.24025 -1.67925,-15.28113 -38.2868,-43.88428 -38.2868,-43.88428 z"
       id="path2259"
       style="fill:#cc0000;fill-opacity:1" />
    <path
       d="m 122.46791,629.47024 c 0,0 -4.45492,12.65493 24.05534,27.10187 11.21789,5.68442 27.15467,6.23746 18.00975,11.49278 6.43174,-2.22285 14.35755,-14.63742 14.35755,-14.63742 l -56.42264,-23.95723 z"
       id="path2261"
       style="fill:#cc0000;fill-opacity:1" />
    <path
       d="m 147.59369,583.75243 c -1.82553,0.18907 -3.34451,2.2587 -5.5625,8.0625 -4.04118,10.57454 -19.09375,36.28125 -19.09375,36.28125 -2e-5,10e-6 -1.5694,2.88154 0.0937,7.5625 -0.0567,-0.23285 -0.0921,-0.47351 -0.0937,-0.65625 6e-5,-0.007 -7.2e-4,-0.0236 0,-0.0312 0.005,-0.0325 0.0248,-0.0938 0.0312,-0.125 0.001,-0.007 -8.6e-4,-0.025 0,-0.0312 0.004,-0.0245 0.0263,-0.0662 0.0312,-0.0937 10e-4,-0.007 -0.001,-0.0248 0,-0.0312 0.002,-0.006 -0.002,-0.0259 0,-0.0312 0.005,-0.0139 0.0251,-0.0493 0.0312,-0.0625 0.005,-0.01 0.023,-0.0462 0.0312,-0.0625 0.002,-0.003 0.0245,-0.0249 0.0312,-0.0312 0.0132,-0.0162 0.0467,-0.0462 0.0625,-0.0625 0.008,-0.008 0.0227,-0.0244 0.0312,-0.0312 0.012,-0.008 0.0496,-0.0244 0.0625,-0.0312 0.0101,-0.005 0.046,-0.0232 0.0625,-0.0312 0.0168,-0.006 0.0692,-0.0235 0.0937,-0.0312 0.0231,-0.004 0.0687,0.002 0.0937,0 0.51438,-0.0298 1.43466,0.32349 2.9375,1.3125 1e-5,-3e-5 90.8514,48.57908 188.71875,47.875 2.62419,-0.0189 5.25017,-0.0662 7.875,-0.15625 2.62483,0.0901 5.25081,0.13737 7.875,0.15625 97.86735,0.70408 188.71874,-47.87503 188.71875,-47.875 1.35256,-0.89011 2.24428,-1.26627 2.78125,-1.3125 0.0583,-0.004 0.1374,-0.004 0.1875,0 0.0163,0.002 0.0471,-0.003 0.0625,0 0.0258,0.007 0.0742,0.0247 0.0937,0.0312 0.0165,0.008 0.0524,0.0264 0.0625,0.0312 0.01,0.005 0.0463,0.023 0.0625,0.0312 0.004,0.003 0.0271,0.0275 0.0312,0.0312 0.0204,0.0196 0.0461,0.0422 0.0625,0.0625 0.006,0.005 0.0257,0.0257 0.0312,0.0312 0.008,0.0163 0.0263,0.0529 0.0312,0.0625 0.005,0.01 0.0232,0.0461 0.0312,0.0625 0.002,0.005 -0.002,0.0253 0,0.0312 0.009,0.0385 0.0253,0.0882 0.0312,0.125 8.6e-4,0.006 -10e-4,0.0241 0,0.0312 0.006,0.0312 0.0264,0.0925 0.0312,0.125 7.2e-4,0.008 -6e-5,0.0243 0,0.0312 -0.002,0.18274 -0.0371,0.4234 -0.0937,0.65625 1.67564,-4.69362 0.0938,-7.56249 0.0937,-7.5625 0,0 -15.05257,-25.70671 -19.09375,-36.28125 -2.38573,-6.24274 -3.94666,-8.15166 -5.96875,-8.0625 -1.5235,0.0672 -3.32044,1.28087 -5.90625,2.59375 -35.71981,18.13588 -78.02121,35.51269 -141.09375,41.5625 -5.82771,0.55898 -11.83779,1.01769 -18.03125,1.375 -2.33306,0.1346 -4.67424,0.23645 -7.03125,0.28125 -0.19642,0.004 -0.39719,-0.003 -0.59375,0 -0.58969,0.009 -1.19033,0.0272 -1.78125,0.0312 -0.39395,0.003 -0.79304,-3.3e-4 -1.1875,0 -0.58056,-0.004 -1.17064,-0.0221 -1.75,-0.0312 -0.19759,-0.002 -0.39604,0.002 -0.59375,0 -2.35701,-0.0448 -4.72944,-0.14665 -7.0625,-0.28125 -6.20087,-0.35774 -12.19699,-0.81512 -18.03125,-1.375 -63.06097,-6.05164 -105.37789,-23.42862 -141.09375,-41.5625 -2.58581,-1.31288 -4.38275,-2.52658 -5.90625,-2.59375 -0.14218,-0.006 -0.26818,-0.0143 -0.40625,0 z"
       id="path2263"
       style="fill:#cc0000;fill-opacity:1" />
  </g>
  <path
     d="m 445.40612,602.18774 c -1.01911,-0.0155 -1.91566,0.14332 -2.65625,0.4375 -1.51022,0.59991 -2.54375,1.57015 -3.15625,2.90625 -0.42293,0.92459 -0.63073,2.00815 -0.625,3.25 0.71473,-0.40158 1.41566,-0.76833 2.15625,-1.0625 1.20527,-0.47874 2.47475,-0.75186 3.8125,-0.8125 1.18973,-0.0523 2.57565,0.0782 4.15625,0.375 1.27028,0.23519 2.87564,0.62867 4.8125,1.1875 l -15.65625,6.21875 -0.53125,-1.59375 c -0.52682,-1.57022 -1.32706,-2.88217 -2.40625,-3.9375 -0.95545,-0.93199 -2.22011,-1.75043 -3.8125,-2.46875 l -0.0937,3.90625 c 1.36026,0.76325 2.47898,1.58445 3.375,2.4375 0.7836,0.7459 1.38586,1.51212 1.8125,2.3125 l -0.4375,0.1875 1.15625,2.8125 c -0.0335,0.97068 -0.29188,2.05478 -0.71875,3.28125 -0.75187,2.13107 -1.85,4.07531 -3.34375,5.8125 -1.65158,1.90552 -3.44763,3.17635 -5.34375,3.8125 -0.8592,0.28824 -1.83262,0.50579 -2.96875,0.65625 -1.11638,0.16027 -2.20771,0.30207 -3.25,0.4375 l -0.0937,1.03125 c 1.18594,0.0471 2.39298,0.0829 3.59375,0.125 1.41818,0.0516 2.61557,0.0497 3.59375,-0.0312 1.28447,-0.10131 2.4466,-0.34455 3.46875,-0.6875 1.111,-0.37273 2.32695,-1.35692 3.6875,-3 1.43451,-1.71733 2.52088,-3.55188 3.21875,-5.5 0.7954,-2.18594 0.92808,-4.10308 0.40625,-5.71875 l 23.28125,-9.25 -1.53125,-3.78125 -1.28125,0.53125 c -0.67635,0.11736 -2.20796,-0.27132 -4.59375,-1.15625 -3.07288,-1.13313 -5.27211,-1.85944 -6.5625,-2.1875 -1.29764,-0.32516 -2.44964,-0.51574 -3.46875,-0.53125 z m -56.15625,0.5 -0.84375,3.6875 4.1875,0.96875 0.90625,-3.75 -4.25,-0.90625 z m -4.65625,3.4375 -0.78125,3.71875 4.15625,0.9375 0.84375,-3.75 -4.21875,-0.90625 z m 9,4.625 c -0.32285,0.66846 -0.56899,1.28517 -0.71875,1.875 -0.1779,0.72678 -0.19956,1.33055 -0.0625,1.84375 0.0322,0.1208 0.17861,0.44846 0.40625,0.9375 0.24274,0.48507 0.40632,0.76234 0.46875,0.875 -2.22168,1.85477 -3.98254,3.80717 -5.25,5.84375 -1.27149,2.02151 -1.72169,3.70176 -1.375,5 0.0968,0.36232 0.75695,0.50238 1.96875,0.4375 1.22287,-0.084 2.70145,-0.34888 4.4375,-0.8125 0.76989,-0.20559 1.43055,-0.65907 2,-1.3125 0.56944,-0.6534 0.96037,-1.43995 1.1875,-2.40625 0.96194,2.08815 1.94768,3.74524 2.9375,4.96875 1.32612,1.6351 2.53807,2.29026 3.625,2 l 1.46875,-0.40625 0,0.0312 0.90625,-0.28125 0.84375,-0.21875 0,-0.0312 11.03125,-3.28125 -1.625,-5.5 c -0.79429,-2.6654 -1.56461,-4.49872 -2.3125,-5.53125 -0.49711,-0.68335 -1.48454,-1.55234 -2.96875,-2.59375 l -0.65625,4.1875 c 1.48451,0.87827 2.46111,1.59714 2.9375,2.15625 0.69593,0.80348 1.31719,2.07677 1.84375,3.84375 l -11.1875,3.34375 -1.34375,0.34375 c -0.49818,0.13305 -1.20653,-0.52373 -2.09375,-1.96875 -0.57606,-0.94589 -1.33141,-2.42586 -2.28125,-4.46875 l -1.71875,-3.71875 c -0.46129,-0.87948 -0.88138,-1.73127 -1.28125,-2.5625 -0.38478,-0.83523 -0.78659,-1.69806 -1.1875,-2.59375 z m -69.25,6.09375 -1.71875,3.28125 3.09375,1.625 1.6875,-3.3125 -3.0625,-1.59375 z m -5.09375,1.9375 -1.625,3.3125 3.03125,1.625 1.5625,-3.34375 -2.96875,-1.59375 z m 75.5,0 1.09375,2.34375 c -0.56121,1.16876 -1.31301,1.88313 -2.21875,2.125 -0.73971,0.19755 -1.30715,0.30635 -1.75,0.34375 -0.44285,0.0374 -0.86545,0.02 -1.21875,-0.0312 0.29154,-0.96732 0.75324,-1.80024 1.375,-2.5 0.61774,-0.71481 1.53037,-1.46253 2.71875,-2.28125 z m -29.125,0.125 0.5625,4.53125 c 2.36008,0.23962 4.22262,1.29701 5.59375,3.1875 1.10364,1.51427 1.9138,3.63372 2.46875,6.375 l -8.875,1.8125 c -0.6432,0.13023 -1.1797,0.12405 -1.59375,-0.0312 -0.49992,-0.18574 -0.89193,-0.59371 -1.1875,-1.1875 l -0.53125,0.125 c -0.0537,0.60075 -0.0661,1.13787 -0.0312,1.625 0.0349,0.48716 0.10094,1.01181 0.21875,1.59375 0.13952,0.68915 0.6148,1.22788 1.40625,1.59375 0.80676,0.36277 1.65834,0.45797 2.53125,0.28125 l 10.28125,-2.09375 -0.8125,-4 c -0.75028,-3.70605 -1.80298,-6.6014 -3.15625,-8.71875 -1.6793,-2.62521 -3.96209,-4.32834 -6.875,-5.09375 z m -10.0625,6.625 -1.15625,4.0625 c 1.36881,1.04951 2.25016,1.88794 2.65625,2.5 0.59484,0.88094 1.03232,2.21398 1.34375,4.03125 l -9.53125,1.625 c -0.17009,-1.08383 -0.75156,-2.42681 -1.8125,-4.03125 -0.81115,-1.21452 -1.86752,-2.58157 -3.15625,-4.0625 -1.00381,0.38839 -2.07058,1.12153 -3.1875,2.1875 -1.24159,1.19325 -2.24022,2.54067 -3,4.03125 -0.56031,1.10089 -1.22398,1.9834 -2,2.65625 -1.00277,0.86128 -2.21602,1.40273 -3.625,1.59375 l -1.53125,0.21875 -0.40625,-4.0625 c -0.21058,-2.17732 -0.72312,-4.02377 -1.53125,-5.5625 -1.01981,-1.94208 -2.31992,-2.8409 -3.90625,-2.6875 -1.38417,0.13389 -2.47492,1.05503 -3.28125,2.78125 -0.71551,1.52913 -1.00169,3.11703 -0.84375,4.75 0.18048,1.8663 1.19876,3.11413 3.0625,3.71875 0.82626,0.26545 2.59988,0.46367 5.3125,0.59375 -0.77062,0.31001 -1.47948,0.51233 -2.15625,0.65625 -0.66275,0.1269 -1.50451,0.25053 -2.46875,0.34375 l -5.8125,0.5625 -0.0625,-1.46875 c -0.0807,-1.65427 -0.49789,-3.12878 -1.25,-4.4375 -0.6665,-1.1564 -1.66246,-2.2825 -3,-3.40625 l -1.15625,3.71875 c 1.10192,1.10391 1.96302,2.18574 2.59375,3.25 0.50998,0.86036 0.85878,1.70892 1.0625,2.53125 l -0.375,0.0312 0.3125,3.15625 c -0.2899,0.95273 -0.82359,1.96034 -1.59375,3.0625 -1.30225,1.84686 -2.90318,3.42115 -4.8125,4.6875 -2.10692,1.3855 -4.15864,2.12132 -6.15625,2.21875 -0.90518,0.0441 -1.9282,-0.0238 -3.0625,-0.1875 -1.11795,-0.14886 -2.21009,-0.28486 -3.25,-0.4375 l -0.34375,0.9375 c 1.1286,0.36735 2.26204,0.75839 3.40625,1.125 1.35089,0.43472 2.50532,0.71857 3.46875,0.90625 1.26372,0.25126 2.45439,0.36497 3.53125,0.3125 1.17047,-0.0571 2.61942,-0.69435 4.375,-1.90625 1.8469,-1.26332 3.36187,-2.72076 4.5625,-4.40625 1.37719,-1.91308 2.05244,-3.75201 1.96875,-5.46875 l 0,-0.125 10.34375,-1 0,0.0937 3.625,-0.46875 c 1.79606,-0.24348 3.12766,-0.64349 4,-1.1875 0.88571,-0.56157 1.71973,-1.46643 2.46875,-2.6875 1.2738,0.78917 2.67465,1.34917 4.25,1.6875 1.36356,0.28819 2.58761,0.39062 3.625,0.25 l 2.40625,-0.34375 0,-0.0625 11.3125,-1.9375 -0.9375,-5.65625 c -0.46979,-2.74128 -1.03723,-4.66665 -1.65625,-5.78125 -0.41182,-0.7379 -1.276,-1.69479 -2.625,-2.90625 z m 58.875,4 -0.71875,3.6875 4.1875,0.875 0.8125,-3.78125 -4.28125,-0.78125 z m -90.15625,2.65625 c 0.90203,-0.0872 1.71828,0.42653 2.46875,1.53125 0.38525,0.57498 0.80322,1.4779 1.28125,2.6875 -1.631,0.0165 -2.64477,-0.0271 -3.09375,-0.125 -1.26776,-0.28553 -1.97946,-1.03674 -2.09375,-2.21875 -0.0451,-0.46655 0.0658,-0.87777 0.34375,-1.25 0.27796,-0.37221 0.65828,-0.5829 1.09375,-0.625 z m 18.875,0.90625 c 0.69331,0.69442 1.26397,1.38308 1.71875,2.0625 0.53558,0.81041 0.98947,1.62925 1.3125,2.5 l -0.1875,0.34375 c -0.91275,0.0134 -1.91305,-0.15855 -3,-0.5 -1.0715,-0.34353 -1.92325,-0.78422 -2.5625,-1.3125 0.35954,-0.83712 0.70342,-1.44114 1,-1.8125 0.44167,-0.5802 1.00073,-0.99465 1.71875,-1.28125 z m 66.75,0 -0.6875,3.75 4.1875,0.8125 0.75,-3.78125 -4.25,-0.78125 z m -52.59375,10.09375 -1.15625,3.59375 4.09375,1.34375 1.21875,-3.625 -4.15625,-1.3125 z m -4.90625,3 -1.15625,3.65625 4.09375,1.3125 1.15625,-3.65625 -4.09375,-1.3125 z"
     style="fill:#000000;stroke:none"
     id="path2265" />
  <g
     transform="translate(-129.75013,-239.84076)"
     style="fill:#dada12;stroke:#000000;stroke-width:1;stroke-linejoin:round"
     id="g2267">
    <path
       d="m 676.14414,447.12729 c -0.7179,-1.3368 -4.49371,3.94517 -6.10092,2.59737 -9.74333,-15.9021 -12.03793,-21.19007 -25.18603,-31.9778 -5.01403,-4.1139 -18.4338,-7.31385 -29.39669,-24.9365 14.60376,2.5371 30.72326,17.22071 30.72326,17.22071 0,0 -16.64111,-19.48504 -22.68804,-34.28172 26.84101,15.61361 28.19579,31.07592 32.8971,39.44137 6.41701,11.41838 8.43904,14.97907 19.75132,31.93657 z"
       id="path2269" />
    <path
       d="m 697.39414,487.62006 c -0.7179,-1.3368 -4.49371,4.94517 -6.10092,3.59737 -7.24333,-16.4021 -10.30574,-21.83911 -21.68603,-34.4778 -12.95553,-14.38811 -33.24512,-7.95788 -44.39669,-40.9365 30,12.1371 46.61572,30.69996 46.61572,30.69996 0,0 -13.93922,-23.46429 -3.76162,-44.4855 13.48628,31.01927 8.94914,24.18806 12.94803,49.99986 2.39095,15.43299 8.06923,18.14511 16.38151,35.60261 z"
       id="path2271" />
    <path
       d="m 714.29853,535.53303 c -0.7179,-1.3368 -6.49371,4.44517 -8.10092,3.09737 -5.24333,-15.4021 -3.12885,-25.59804 -13.68604,-38.4778 -13.89326,-16.94979 -43.24511,-23.45788 -46.89668,-49.9365 31,8.1371 48.11571,36.69996 48.11571,36.69996 0,0 -12.93922,-29.96429 3.23838,-56.4855 13.48629,31.01927 -0.55084,41.68806 5.44803,68.49986 3.40988,15.2403 6.56924,21.14511 11.88152,36.60261 z"
       id="path2273" />
    <path
       d="m 713.48428,603.6286 c -0.71789,-1.3368 -6.9937,1.44517 -8.60091,0.0974 0.25667,-14.9021 6.10465,-35.02814 1.31397,-50.9778 -6.89327,-22.94979 -31.24512,-28.45788 -34.89669,-54.9365 31,8.1371 38.11572,36.69996 38.11572,36.69996 0,0 -8.43922,-32.46429 7.73838,-58.9855 6.98628,30.01927 3.70296,49.93975 -1.05197,76.99986 -2.59013,14.7403 -2.93077,36.64511 -2.6185,51.10261 z"
       id="path2275" />
    <path
       d="m 700.26755,666.8786 c -0.7179,-1.3368 -5.99371,-0.0548 -7.60092,-1.40263 1.25667,-13.4021 6.77101,-30.93959 8.81396,-44.4778 3.6737,-24.34476 -22.24511,-55.45788 -19.39668,-83.9365 30.5,18.6371 27.11571,64.19996 27.11571,64.19996 0,0 -2.43922,-30.96429 24.23838,-62.4855 2.98629,34.01927 -12.85845,54.98611 -23.05197,80.49986 -5.09012,12.7403 -8.93076,34.14511 -10.11848,47.60261 z"
       id="path2277" />
    <path
       d="m 677.76441,713.01696 c -0.7179,-1.3368 -3.49371,0.44517 -5.10092,-0.90263 7.75667,-10.4021 9.27102,-19.43959 13.81397,-32.4778 8.10091,-23.24949 -11.74512,-71.45788 -1.39669,-98.9365 23.5,22.6371 11.61572,82.19996 11.61572,82.19996 0,0 6.56078,-38.96429 40.73838,-77.4855 -0.51372,46.51927 -26.57288,72.15002 -41.05197,95.49986 -7.59013,12.2403 -9.93077,23.14511 -18.61849,32.10261 z"
       id="path2279" />
    <path
       d="m 650.70466,760.24022 c -0.7179,-1.3368 -2.31133,-1.62401 -3.91854,-2.97181 7.75668,-10.4021 13.70499,-20.91758 18.24793,-33.95579 8.10091,-23.24949 -5.26712,-31.40757 13.13476,-87.86418 7.37737,35.64654 -2.62013,75.5616 -2.62013,75.5616 0,0 15.42871,-24.18442 59.06542,-60.93204 -16.77157,48.58845 -44.41363,56.6058 -62.63058,77.17282 -10.84169,12.2403 -12.59114,24.0319 -21.27886,32.9894 z"
       id="path2281" />
    <path
       d="m 625.09068,793.25912 c -0.7179,-1.33679 -2.31132,-1.91961 -3.91853,-3.26745 7.75666,-10.40209 7.42962,-10.26839 16.17875,-20.94952 13.71726,-16.74632 2.9404,-30.68113 25.3423,-88.13774 5.62893,44.30692 -13.64529,77.31321 -13.64529,77.31321 0,0 11.29034,-19.7505 63.79498,-51.76856 -27.11749,46.81487 -50.32559,45.0775 -68.54252,65.64449 -10.84171,12.24031 -10.52197,12.20802 -19.20969,21.16557 z"
       id="path2283" />
    <g
       transform="translate(-127,0)"
       style="stroke:none"
       id="g2285">
      <path
         d="m 803.14414,447.12729 c -0.7179,-1.3368 -4.49371,3.94517 -6.10092,2.59737 -9.74333,-15.9021 -12.03793,-21.19007 -25.18603,-31.9778 -5.01403,-4.1139 -18.4338,-7.31385 -29.39669,-24.9365 14.60376,2.5371 30.72326,17.22071 30.72326,17.22071 0,0 -16.64111,-19.48504 -22.68804,-34.28172 26.84101,15.61361 28.19579,31.07592 32.8971,39.44137 6.41701,11.41838 8.43904,14.97907 19.75132,31.93657 z"
         style="fill:url(#radialGradient4570)"
         id="path2287" />
      <path
         d="m 824.39414,487.62006 c -0.7179,-1.3368 -4.49371,4.94517 -6.10092,3.59737 -7.24333,-16.4021 -10.30574,-21.83911 -21.68603,-34.4778 -12.95553,-14.38811 -33.24512,-7.95788 -44.39669,-40.9365 30,12.1371 46.61572,30.69996 46.61572,30.69996 0,0 -13.93922,-23.46429 -3.76162,-44.4855 13.48628,31.01927 8.94914,24.18806 12.94803,49.99986 2.39095,15.43299 8.06923,18.14511 16.38151,35.60261 z"
         style="fill:url(#radialGradient4572)"
         id="path2289" />
      <path
         d="m 841.29853,535.53303 c -0.7179,-1.3368 -6.49371,4.44517 -8.10092,3.09737 -5.24333,-15.4021 -3.12885,-25.59804 -13.68604,-38.4778 -13.89326,-16.94979 -43.24511,-23.45788 -46.89668,-49.9365 31,8.1371 48.11571,36.69996 48.11571,36.69996 0,0 -12.93922,-29.96429 3.23838,-56.4855 13.48629,31.01927 -0.55084,41.68806 5.44803,68.49986 3.40988,15.2403 6.56924,21.14511 11.88152,36.60261 z"
         style="fill:url(#radialGradient4574)"
         id="path2291" />
      <path
         d="m 840.48428,603.6286 c -0.71789,-1.3368 -6.9937,1.44517 -8.60091,0.0974 0.25667,-14.9021 6.10465,-35.02814 1.31397,-50.9778 -6.89327,-22.94979 -31.24512,-28.45788 -34.89669,-54.9365 31,8.1371 38.11572,36.69996 38.11572,36.69996 0,0 -8.43922,-32.46429 7.73838,-58.9855 6.98628,30.01927 3.70296,49.93975 -1.05197,76.99986 -2.59013,14.7403 -2.93077,36.64511 -2.6185,51.10261 z"
         style="fill:url(#radialGradient4576)"
         id="path2293" />
      <path
         d="m 827.26755,666.8786 c -0.7179,-1.3368 -5.99371,-0.0548 -7.60092,-1.40263 1.25667,-13.4021 6.77101,-30.93959 8.81396,-44.4778 3.6737,-24.34476 -22.24511,-55.45788 -19.39668,-83.9365 30.5,18.6371 27.11571,64.19996 27.11571,64.19996 0,0 -2.43922,-30.96429 24.23838,-62.4855 2.98629,34.01927 -12.85845,54.98611 -23.05197,80.49986 -5.09012,12.7403 -8.93076,34.14511 -10.11848,47.60261 z"
         style="fill:url(#radialGradient4578)"
         id="path2295" />
      <path
         d="m 804.76441,713.01696 c -0.7179,-1.3368 -3.49371,0.44517 -5.10092,-0.90263 7.75667,-10.4021 9.27102,-19.43959 13.81397,-32.4778 8.10091,-23.24949 -11.74512,-71.45788 -1.39669,-98.9365 23.5,22.6371 11.61572,82.19996 11.61572,82.19996 0,0 6.56078,-38.96429 40.73838,-77.4855 -0.51372,46.51927 -26.57288,72.15002 -41.05197,95.49986 -7.59013,12.2403 -9.93077,23.14511 -18.61849,32.10261 z"
         style="fill:url(#radialGradient4580)"
         id="path2297" />
      <path
         d="m 777.70466,760.24022 c -0.7179,-1.3368 -2.31133,-1.62401 -3.91854,-2.97181 7.75668,-10.4021 13.70499,-20.91758 18.24793,-33.95579 8.10091,-23.24949 -5.26712,-31.40757 13.13476,-87.86418 7.37737,35.64654 -2.62013,75.5616 -2.62013,75.5616 0,0 15.42871,-24.18442 59.06542,-60.93204 -16.77157,48.58845 -44.41363,56.6058 -62.63058,77.17282 -10.84169,12.2403 -12.59114,24.0319 -21.27886,32.9894 z"
         style="fill:url(#radialGradient4582)"
         id="path2299" />
      <path
         d="m 752.09068,793.25912 c -0.7179,-1.33679 -2.31132,-1.91961 -3.91853,-3.26745 7.75666,-10.40209 7.42962,-10.26839 16.17875,-20.94952 13.71726,-16.74632 2.9404,-30.68113 25.3423,-88.13774 5.62893,44.30692 -13.64529,77.31321 -13.64529,77.31321 0,0 11.29034,-19.7505 63.79498,-51.76856 -27.11749,46.81487 -50.32559,45.0775 -68.54252,65.64449 -10.84171,12.24031 -10.52197,12.20802 -19.20969,21.16557 z"
         style="fill:url(#radialGradient4584)"
         id="path2301" />
    </g>
  </g>
  <g
     transform="matrix(-1,0,0,1,737.93487,-239.84076)"
     style="fill:#dada12;stroke:#000000;stroke-width:1;stroke-linejoin:round"
     id="g2303">
    <path
       d="m 676.14414,447.12729 c -0.7179,-1.3368 -4.49371,3.94517 -6.10092,2.59737 -9.74333,-15.9021 -12.03793,-21.19007 -25.18603,-31.9778 -5.01403,-4.1139 -18.4338,-7.31385 -29.39669,-24.9365 14.60376,2.5371 30.72326,17.22071 30.72326,17.22071 0,0 -16.64111,-19.48504 -22.68804,-34.28172 26.84101,15.61361 28.19579,31.07592 32.8971,39.44137 6.41701,11.41838 8.43904,14.97907 19.75132,31.93657 z"
       id="path2305" />
    <path
       d="m 697.39414,487.62006 c -0.7179,-1.3368 -4.49371,4.94517 -6.10092,3.59737 -7.24333,-16.4021 -10.30574,-21.83911 -21.68603,-34.4778 -12.95553,-14.38811 -33.24512,-7.95788 -44.39669,-40.9365 30,12.1371 46.61572,30.69996 46.61572,30.69996 0,0 -13.93922,-23.46429 -3.76162,-44.4855 13.48628,31.01927 8.94914,24.18806 12.94803,49.99986 2.39095,15.43299 8.06923,18.14511 16.38151,35.60261 z"
       id="path2307" />
    <path
       d="m 714.29853,535.53303 c -0.7179,-1.3368 -6.49371,4.44517 -8.10092,3.09737 -5.24333,-15.4021 -3.12885,-25.59804 -13.68604,-38.4778 -13.89326,-16.94979 -43.24511,-23.45788 -46.89668,-49.9365 31,8.1371 48.11571,36.69996 48.11571,36.69996 0,0 -12.93922,-29.96429 3.23838,-56.4855 13.48629,31.01927 -0.55084,41.68806 5.44803,68.49986 3.40988,15.2403 6.56924,21.14511 11.88152,36.60261 z"
       id="path2309" />
    <path
       d="m 713.48428,603.6286 c -0.71789,-1.3368 -6.9937,1.44517 -8.60091,0.0974 0.25667,-14.9021 6.10465,-35.02814 1.31397,-50.9778 -6.89327,-22.94979 -31.24512,-28.45788 -34.89669,-54.9365 31,8.1371 38.11572,36.69996 38.11572,36.69996 0,0 -8.43922,-32.46429 7.73838,-58.9855 6.98628,30.01927 3.70296,49.93975 -1.05197,76.99986 -2.59013,14.7403 -2.93077,36.64511 -2.6185,51.10261 z"
       id="path2311" />
    <path
       d="m 700.26755,666.8786 c -0.7179,-1.3368 -5.99371,-0.0548 -7.60092,-1.40263 1.25667,-13.4021 6.77101,-30.93959 8.81396,-44.4778 3.6737,-24.34476 -22.24511,-55.45788 -19.39668,-83.9365 30.5,18.6371 27.11571,64.19996 27.11571,64.19996 0,0 -2.43922,-30.96429 24.23838,-62.4855 2.98629,34.01927 -12.85845,54.98611 -23.05197,80.49986 -5.09012,12.7403 -8.93076,34.14511 -10.11848,47.60261 z"
       id="path2313" />
    <path
       d="m 677.76441,713.01696 c -0.7179,-1.3368 -3.49371,0.44517 -5.10092,-0.90263 7.75667,-10.4021 9.27102,-19.43959 13.81397,-32.4778 8.10091,-23.24949 -11.74512,-71.45788 -1.39669,-98.9365 23.5,22.6371 11.61572,82.19996 11.61572,82.19996 0,0 6.56078,-38.96429 40.73838,-77.4855 -0.51372,46.51927 -26.57288,72.15002 -41.05197,95.49986 -7.59013,12.2403 -9.93077,23.14511 -18.61849,32.10261 z"
       id="path2315" />
    <path
       d="m 650.70466,760.24022 c -0.7179,-1.3368 -2.31133,-1.62401 -3.91854,-2.97181 7.75668,-10.4021 13.70499,-20.91758 18.24793,-33.95579 8.10091,-23.24949 -5.26712,-31.40757 13.13476,-87.86418 7.37737,35.64654 -2.62013,75.5616 -2.62013,75.5616 0,0 15.42871,-24.18442 59.06542,-60.93204 -16.77157,48.58845 -44.41363,56.6058 -62.63058,77.17282 -10.84169,12.2403 -12.59114,24.0319 -21.27886,32.9894 z"
       id="path2317" />
    <path
       d="m 625.09068,793.25912 c -0.7179,-1.33679 -2.31132,-1.91961 -3.91853,-3.26745 7.75666,-10.40209 7.42962,-10.26839 16.17875,-20.94952 13.71726,-16.74632 2.9404,-30.68113 25.3423,-88.13774 5.62893,44.30692 -13.64529,77.31321 -13.64529,77.31321 0,0 11.29034,-19.7505 63.79498,-51.76856 -27.11749,46.81487 -50.32559,45.0775 -68.54252,65.64449 -10.84171,12.24031 -10.52197,12.20802 -19.20969,21.16557 z"
       id="path2319" />
    <g
       transform="translate(-127,0)"
       style="stroke:none"
       id="g2321">
      <path
         d="m 803.14414,447.12729 c -0.7179,-1.3368 -4.49371,3.94517 -6.10092,2.59737 -9.74333,-15.9021 -12.03793,-21.19007 -25.18603,-31.9778 -5.01403,-4.1139 -18.4338,-7.31385 -29.39669,-24.9365 14.60376,2.5371 30.72326,17.22071 30.72326,17.22071 0,0 -16.64111,-19.48504 -22.68804,-34.28172 26.84101,15.61361 28.19579,31.07592 32.8971,39.44137 6.41701,11.41838 8.43904,14.97907 19.75132,31.93657 z"
         style="fill:url(#radialGradient4586)"
         id="path2323" />
      <path
         d="m 824.39414,487.62006 c -0.7179,-1.3368 -4.49371,4.94517 -6.10092,3.59737 -7.24333,-16.4021 -10.30574,-21.83911 -21.68603,-34.4778 -12.95553,-14.38811 -33.24512,-7.95788 -44.39669,-40.9365 30,12.1371 46.61572,30.69996 46.61572,30.69996 0,0 -13.93922,-23.46429 -3.76162,-44.4855 13.48628,31.01927 8.94914,24.18806 12.94803,49.99986 2.39095,15.43299 8.06923,18.14511 16.38151,35.60261 z"
         style="fill:url(#radialGradient4588)"
         id="path2325" />
      <path
         d="m 841.29853,535.53303 c -0.7179,-1.3368 -6.49371,4.44517 -8.10092,3.09737 -5.24333,-15.4021 -3.12885,-25.59804 -13.68604,-38.4778 -13.89326,-16.94979 -43.24511,-23.45788 -46.89668,-49.9365 31,8.1371 48.11571,36.69996 48.11571,36.69996 0,0 -12.93922,-29.96429 3.23838,-56.4855 13.48629,31.01927 -0.55084,41.68806 5.44803,68.49986 3.40988,15.2403 6.56924,21.14511 11.88152,36.60261 z"
         style="fill:url(#radialGradient4590)"
         id="path2327" />
      <path
         d="m 840.48428,603.6286 c -0.71789,-1.3368 -6.9937,1.44517 -8.60091,0.0974 0.25667,-14.9021 6.10465,-35.02814 1.31397,-50.9778 -6.89327,-22.94979 -31.24512,-28.45788 -34.89669,-54.9365 31,8.1371 38.11572,36.69996 38.11572,36.69996 0,0 -8.43922,-32.46429 7.73838,-58.9855 6.98628,30.01927 3.70296,49.93975 -1.05197,76.99986 -2.59013,14.7403 -2.93077,36.64511 -2.6185,51.10261 z"
         style="fill:url(#radialGradient4592)"
         id="path2329" />
      <path
         d="m 827.26755,666.8786 c -0.7179,-1.3368 -5.99371,-0.0548 -7.60092,-1.40263 1.25667,-13.4021 6.77101,-30.93959 8.81396,-44.4778 3.6737,-24.34476 -22.24511,-55.45788 -19.39668,-83.9365 30.5,18.6371 27.11571,64.19996 27.11571,64.19996 0,0 -2.43922,-30.96429 24.23838,-62.4855 2.98629,34.01927 -12.85845,54.98611 -23.05197,80.49986 -5.09012,12.7403 -8.93076,34.14511 -10.11848,47.60261 z"
         style="fill:url(#radialGradient4594)"
         id="path2331" />
      <path
         d="m 804.76441,713.01696 c -0.7179,-1.3368 -3.49371,0.44517 -5.10092,-0.90263 7.75667,-10.4021 9.27102,-19.43959 13.81397,-32.4778 8.10091,-23.24949 -11.74512,-71.45788 -1.39669,-98.9365 23.5,22.6371 11.61572,82.19996 11.61572,82.19996 0,0 6.56078,-38.96429 40.73838,-77.4855 -0.51372,46.51927 -26.57288,72.15002 -41.05197,95.49986 -7.59013,12.2403 -9.93077,23.14511 -18.61849,32.10261 z"
         style="fill:url(#radialGradient4596)"
         id="path2333" />
      <path
         d="m 777.70466,760.24022 c -0.7179,-1.3368 -2.31133,-1.62401 -3.91854,-2.97181 7.75668,-10.4021 13.70499,-20.91758 18.24793,-33.95579 8.10091,-23.24949 -5.26712,-31.40757 13.13476,-87.86418 7.37737,35.64654 -2.62013,75.5616 -2.62013,75.5616 0,0 15.42871,-24.18442 59.06542,-60.93204 -16.77157,48.58845 -44.41363,56.6058 -62.63058,77.17282 -10.84169,12.2403 -12.59114,24.0319 -21.27886,32.9894 z"
         style="fill:url(#radialGradient4598)"
         id="path2335" />
      <path
         d="m 752.09068,793.25912 c -0.7179,-1.33679 -2.31132,-1.91961 -3.91853,-3.26745 7.75666,-10.40209 7.42962,-10.26839 16.17875,-20.94952 13.71726,-16.74632 2.9404,-30.68113 25.3423,-88.13774 5.62893,44.30692 -13.64529,77.31321 -13.64529,77.31321 0,0 11.29034,-19.7505 63.79498,-51.76856 -27.11749,46.81487 -50.32559,45.0775 -68.54252,65.64449 -10.84171,12.24031 -10.52197,12.20802 -19.20969,21.16557 z"
         style="fill:url(#radialGradient4600)"
         id="path2337" />
    </g>
  </g>
  <path
     d="m 163.31237,596.31274 -2.90625,2.53125 2.8125,3.21875 2.90625,-2.46875 -2.8125,-3.28125 z m 5.75,0.0312 -2.875,2.46875 2.78125,3.28125 2.9375,-2.46875 -2.84375,-3.28125 z m -5.5625,8.65625 -2.8125,3.125 0.3125,0.21875 c -0.93845,0.95336 -1.86314,1.93034 -2.78125,2.875 -1.04315,1.13021 -1.77995,2.20377 -2.1875,3.21875 -0.35516,0.88449 -0.23035,1.7013 0.375,2.5 0.52714,0.69997 1.31651,1.26246 2.375,1.6875 2.74044,1.1004 4.95505,1.05661 6.625,-0.125 1.08035,-0.76166 2.0228,-2.14303 2.84375,-4.1875 0.51816,-1.29046 0.15712,-2.89586 -1.09375,-4.8125 -0.36196,-0.56625 -1.58491,-2.06872 -3.65625,-4.5 z m 17.65625,0.46875 -1.875,4.1875 c 1.89358,1.42891 2.93317,3.2975 3.125,5.625 0.15825,1.86708 -0.20904,4.11841 -1.15625,6.75 l -8.5625,-3.0625 c -0.61747,-0.22225 -1.03904,-0.52744 -1.3125,-0.875 -0.3311,-0.41808 -0.49276,-0.96399 -0.4375,-1.625 l -0.5,-0.15625 c -0.35752,0.48576 -0.65216,0.94043 -0.875,1.375 -0.22286,0.43459 -0.42393,0.9101 -0.625,1.46875 -0.23814,0.66158 -0.11194,1.37049 0.375,2.09375 0.50163,0.72858 1.16199,1.22961 2,1.53125 l 8.0625,2.90625 -0.0625,0.1875 25.875,7.90625 1.1875,-3.90625 -1.34375,-0.40625 c -0.60159,-0.33062 -1.56391,-1.60038 -2.875,-3.78125 -1.6928,-2.80375 -2.91565,-4.71929 -3.71875,-5.78125 -1.62119,-2.12843 -3.19444,-3.44099 -4.71875,-3.90625 -1.55424,-0.47434 -2.99982,-0.37998 -4.3125,0.28125 -0.90765,0.45814 -1.76033,1.18268 -2.53125,2.15625 0.80904,0.13258 1.61282,0.32991 2.375,0.5625 1.24037,0.37859 2.38594,0.96213 3.46875,1.75 0.96196,0.70202 1.98193,1.65626 3.03125,2.875 0.84541,0.97684 1.83597,2.29167 3,3.9375 l -16.1875,-4.96875 0.0312,-0.0937 c 1.28061,-3.55778 1.8714,-6.58158 1.8125,-9.09375 -0.0743,-3.1155 -1.15646,-5.77235 -3.25,-7.9375 z m -18.71875,4.59375 c 0.6316,0.69141 1.19445,1.36612 1.71875,2.03125 1.22815,1.55393 1.75248,2.60529 1.53125,3.15625 -0.1514,0.377 -0.79421,0.60776 -1.9375,0.6875 -1.13748,0.0652 -2.12553,-0.0802 -2.9375,-0.40625 -0.69599,-0.27946 -1.18003,-0.70638 -1.4375,-1.28125 -0.23716,-0.58351 -0.20321,-1.22923 0.0937,-1.96875 0.20376,-0.50748 0.61693,-0.97251 1.25,-1.375 0.20036,-0.12159 0.78098,-0.39526 1.71875,-0.84375 z m 87.78125,2.625 -2.25,3.03125 3.4375,2.59375 2.34375,-3.0625 -3.53125,-2.5625 z m -5.625,1.28125 -2.25,3.0625 3.46875,2.5625 2.28125,-3.09375 -3.5,-2.53125 z m 30.25,0.59375 c -0.42115,0.78961 -0.76251,1.60781 -1.03125,2.46875 -0.25316,0.8619 -0.46184,1.75788 -0.625,2.6875 l 1.40625,0.8125 c 0.32013,1.50533 0.55976,2.76861 0.75,3.8125 0.35374,2.00809 0.60054,3.73898 0.75,5.21875 0.19595,2.03029 0.25248,3.89342 0.15625,5.5625 -0.0423,0.73318 -0.15756,1.49558 -0.375,2.28125 -0.21657,0.77008 -0.49214,1.48607 -0.8125,2.15625 -1.38919,0.74942 -2.63912,1.26482 -3.71875,1.53125 -0.93654,0.22773 -1.908,0.31118 -2.96875,0.25 l -1.34375,-0.0625 0.21875,-1.8437 c 0.32155,-2.76258 0.34243,-4.78739 0.0625,-6.03125 -0.18725,-0.82403 -0.73444,-1.98881 -1.6875,-3.53125 l -2.28125,3.5625 c 1.01767,1.39264 1.65778,2.4546 1.875,3.15625 0.32255,1.01285 0.3694,2.41862 0.15625,4.25 l -11.5625,-1.34375 -1.25,-0.1875 c -0.50932,-0.0805 -0.90034,-0.97555 -1.125,-2.65625 -0.14276,-1.09825 -0.21064,-2.77872 -0.25,-5.03125 l -0.0625,-4.09375 c -0.0648,-0.99101 -0.12802,-1.95298 -0.15625,-2.875 -0.0128,-0.91951 -0.0282,-1.86244 -0.0312,-2.84375 -0.56629,0.47998 -1.03009,0.95917 -1.40625,1.4375 -0.45746,0.59211 -0.72956,1.16281 -0.8125,1.6875 -0.0195,0.12349 -0.01,0.46066 0,1 0.0251,0.54184 0.0199,0.87168 0.0312,1 -2.78312,0.79392 -5.14028,1.87156 -7.125,3.21875 -1.98229,1.33181 -3.10267,2.64152 -3.3125,3.96875 -0.0586,0.37041 0.49112,0.78641 1.625,1.21875 1.15177,0.41938 2.63142,0.75071 4.40625,1.03125 0.78709,0.12445 1.55818,0.0225 2.34375,-0.34375 0.78556,-0.36619 1.46285,-0.95892 2.0625,-1.75 0.032,2.29884 0.27918,4.19887 0.6875,5.71875 0.54871,2.0325 1.35754,3.13683 2.46875,3.3125 l 1.4375,0.21875 0,0.0312 0.4375,0.0625 1.4375,0.21875 0,-0.0625 9.34375,1.0625 -0.0312,0.375 29.53125,1.71875 0.34375,-5.9375 c 0.11958,-2.07467 -0.26948,-3.69699 -1.15625,-4.875 -0.97411,-1.29257 -2.51915,-2.0036 -4.625,-2.125 -1.65352,-0.0953 -3.65965,0.35368 -6.03125,1.3125 -0.78505,0.31472 -2.58559,1.17564 -5.40625,2.59375 0.26124,-1.00223 0.42535,-1.73966 0.53125,-2.21875 0.29662,-1.34451 0.49864,-2.57995 0.5625,-3.6875 0.0755,-1.31031 -0.0331,-2.93558 -0.28125,-4.875 -0.23167,-1.95405 -0.55927,-3.86215 -1,-5.71875 l 0.3125,0.125 c 0.45987,0.16741 0.73546,0.2594 0.84375,0.28125 0.25525,-0.62694 0.42807,-1.16144 0.53125,-1.59375 0.10317,-0.43225 0.28262,-1.46475 0.53125,-3.0625 -1.13245,-0.17481 -2.067,-0.44265 -2.78125,-0.8125 -0.86577,-0.45681 -1.38645,-1.03364 -1.59375,-1.78125 z m 24.46875,3.4375 c -0.3587,0.70351 -0.75078,1.45276 -1.15625,2.25 -0.38986,0.79728 -0.75066,1.53096 -1.0625,2.21875 0.26755,1.99978 0.52939,3.95337 0.75,5.875 0.36242,3.17155 0.65342,6.23461 0.90625,9.15625 0.26842,2.90601 0.40469,5.15627 0.40625,6.78125 1.9e-4,0.20314 -0.0162,0.59373 -0.0625,1.1875 -0.0307,0.59379 -0.0786,1.1406 -0.125,1.59375 l 0.4375,0.21875 c 0.77993,-1.36012 1.29746,-2.34348 1.53125,-2.96875 0.45199,-1.1723 0.65746,-2.375 0.65625,-3.625 -0.002,-1.57811 -0.12203,-3.93779 -0.40625,-7.03125 -0.22115,-2.48415 -0.54391,-5.25035 -0.9375,-8.34375 -0.37799,-3.09335 -0.68581,-5.53147 -0.9375,-7.3125 z m -76.0625,8.3438 c -0.96464,0.0709 -1.92152,0.62057 -2.84375,1.625 -1.05615,1.15661 -1.77265,2.49955 -2.15625,4.0625 -0.41714,1.69956 -0.15828,3.06712 0.8125,4.09375 0.85653,0.90205 2.3264,1.59096 4.375,2.09375 -1.5936,1.31428 -2.79746,2.25943 -3.625,2.8125 -1.63623,1.09467 -3.21517,1.85426 -4.6875,2.28125 -1.88496,0.53487 -3.74245,0.57937 -5.59375,0.125 -0.74356,-0.1825 -1.55254,-0.51022 -2.4375,-0.96875 -0.87351,-0.43963 -1.69865,-0.84418 -2.5,-1.25 l -0.59375,0.6875 c 0.90441,0.57593 1.81806,1.15892 2.71875,1.75 1.14376,0.71511 2.07956,1.26815 2.8125,1.625 1.00635,0.48833 1.99846,0.84797 3,1.09375 2.70107,0.66294 5.41464,-0.15101 8.15625,-2.40625 2.45837,-2.01908 4.01045,-4.27744 4.625,-6.78125 l 0.625,-2.59375 c 0.52512,-2.13961 0.72348,-3.84573 0.5625,-5.15625 -0.2005,-1.67415 -0.96107,-2.67595 -2.28125,-3 -0.32626,-0.0801 -0.6472,-0.1174 -0.96875,-0.0937 z m 25.5,3.28125 0.0312,2.59375 c -0.98712,0.84056 -1.94902,1.20889 -2.875,1.0625 -0.75624,-0.11954 -1.33008,-0.26075 -1.75,-0.40625 -0.41994,-0.14547 -0.79161,-0.30986 -1.09375,-0.5 0.65892,-0.76586 1.42905,-1.36266 2.28125,-1.75 0.85461,-0.40272 1.9879,-0.73379 3.40625,-1 z m -26.6875,0.28125 c 0.20358,-0.0265 0.41255,-0.0209 0.625,0.0312 0.5918,0.14526 1.0532,0.5076 1.34375,1.09375 0.33259,0.67693 0.46118,1.80505 0.4375,3.34375 -1.51749,-0.37243 -2.55044,-0.83175 -3.125,-1.375 -0.57087,-0.5584 -0.77627,-1.2252 -0.59375,-1.96875 0.10427,-0.42488 0.34819,-0.73886 0.71875,-0.9375 0.19471,-0.10505 0.39017,-0.16104 0.59375,-0.1875 z m 63.125,8.21875 c 0.30793,-0.0136 0.62156,-0.0164 0.90625,0 1.52869,0.0882 2.68185,0.37582 3.46875,0.84375 0.80334,0.45326 1.17085,1.07948 1.125,1.875 -0.0693,1.20114 -1.94363,1.68101 -5.625,1.46875 l -10.1875,-0.5625 c 1.115,-0.6087 2.20548,-1.15307 3.25,-1.625 1.41408,-0.6384 2.75986,-1.13331 4,-1.46875 1.133,-0.31029 2.1387,-0.4906 3.0625,-0.53125 z m -22.84375,9.1875 -2.15625,3.125 3.53125,2.4375 2.21875,-3.125 -3.59375,-2.4375 z m -5.59375,1.5 -2.125,3.1875 3.5625,2.40625 2.15625,-3.1875 -3.59375,-2.40625 z"
     style="fill:#000000;stroke:none"
     id="path4668" />
</svg>
