<svg width="800" height="600" xmlns="http://www.w3.org/2000/svg"><g fill="#fff"><path d="M551.492 379.319h-23.694V165.48a8.5 8.5 0 0 0-8.5-8.5h-43.019v-52.446a8.5 8.5 0 0 0-8.5-8.5H332.22a8.5 8.5 0 0 0-8.5 8.5v52.446h-43.019a8.5 8.5 0 0 0-8.5 8.5v213.839h-23.694a8.5 8.5 0 0 0-8.5 8.5v107.647a8.5 8.5 0 0 0 8.5 8.5h302.986a8.5 8.5 0 0 0 8.5-8.5V387.819a8.501 8.501 0 0 0-8.501-8.5zm-40.693 0h-74.604V173.98h74.604v205.339zm-51.52-266.285v5.979H340.72v-5.979h118.559zM340.72 136.013h118.559v20.968h-31.585a8.5 8.5 0 0 0-8.5 8.5V379.32h-38.389V165.48a8.5 8.5 0 0 0-8.5-8.5H340.72v-20.967zm-51.519 37.967h74.604v205.339h-74.604V173.98zm253.791 222.339v56.676H436.696v-17.994a8.5 8.5 0 0 0-8.5-8.5h-56.392a8.5 8.5 0 0 0-8.5 8.5v17.994H257.007v-56.676h285.985zm-285.985 73.676h106.297v16.971H257.007v-16.971zm123.297 16.972v-43.465h39.393v43.465h-39.393zm56.392 0v-16.971h106.296v16.971H436.696z"/><path d="M302.734 200.275h17v20.822h-17zM333.272 200.275h17v20.822h-17zM302.734 244.558h17v20.822h-17zM333.272 244.558h17v20.822h-17zM302.734 288.842h17v20.822h-17zM333.272 288.842h17v20.822h-17zM302.734 333.125h17v20.822h-17zM333.272 333.125h17v20.822h-17zM449.727 200.275h17v20.822h-17zM480.264 200.275h17v20.822h-17zM449.727 244.558h17v20.822h-17zM480.264 244.558h17v20.822h-17zM449.727 288.842h17v20.822h-17zM480.264 288.842h17v20.822h-17zM449.727 333.125h17v20.822h-17zM480.264 333.125h17v20.822h-17z"/></g></svg>