<svg width="800" height="600" xmlns="http://www.w3.org/2000/svg">

 <g>
  <title>Layer 1</title>
  <g>
   <g>
    <g>
     <path fill="#ffffff" d="m551.492,379.319l-23.694,0l0,-213.839c0,-4.694 -3.806,-8.5 -8.5,-8.5l-43.019,0l0,-52.446c0,-4.694 -3.806,-8.5 -8.5,-8.5l-135.559,0c-4.694,0 -8.5,3.806 -8.5,8.5l0,52.446l-43.019,0c-4.694,0 -8.5,3.806 -8.5,8.5l0,213.839l-23.694,0c-4.694,0 -8.5,3.806 -8.5,8.5l0,107.647c0,4.694 3.806,8.5 8.5,8.5l123.297,0l56.393,0l123.296,0c4.694,0 8.5,-3.806 8.5,-8.5l0,-107.647c-0.001,-4.694 -3.806,-8.5 -8.501,-8.5zm-40.693,0l-74.604,0l0,-205.339l74.604,0l0,205.339zm-51.52,-266.285l0,5.979l-118.559,0l0,-5.979l118.559,0zm-118.559,22.979l118.559,0l0,20.968l-31.585,0c-4.694,0 -8.5,3.806 -8.5,8.5l0,213.839l-38.389,0l0,-213.84c0,-4.694 -3.806,-8.5 -8.5,-8.5l-31.585,0l0,-20.967l0,0zm-51.519,37.967l74.604,0l0,205.339l-74.604,0l0,-205.339zm253.791,222.339l0,56.676l-106.296,0l0,-17.994c0,-4.694 -3.806,-8.5 -8.5,-8.5l-56.392,0c-4.694,0 -8.5,3.806 -8.5,8.5l0,17.994l-106.297,0l0,-56.676l285.985,0zm-285.985,73.676l106.297,0l0,16.971l-106.297,0l0,-16.971zm123.297,16.972l0,-43.465l39.393,0l0,43.465l-39.393,0zm56.392,0l0,-16.971l106.296,0l0,16.971l-106.296,0z"/>
     <rect fill="#ffffff" height="20.822" width="17" y="200.275" x="302.734"/>
     <rect fill="#ffffff" height="20.822" width="17" y="200.275" x="333.272"/>
     <rect fill="#ffffff" height="20.822" width="17" y="244.558" x="302.734"/>
     <rect fill="#ffffff" height="20.822" width="17" y="244.558" x="333.272"/>
     <rect fill="#ffffff" height="20.822" width="17" y="288.842" x="302.734"/>
     <rect fill="#ffffff" height="20.822" width="17" y="288.842" x="333.272"/>
     <rect fill="#ffffff" height="20.822" width="17" y="333.125" x="302.734"/>
     <rect fill="#ffffff" height="20.822" width="17" y="333.125" x="333.272"/>
     <rect fill="#ffffff" height="20.822" width="17" y="200.275" x="449.727"/>
     <rect fill="#ffffff" height="20.822" width="17" y="200.275" x="480.264"/>
     <rect fill="#ffffff" height="20.822" width="17" y="244.558" x="449.727"/>
     <rect fill="#ffffff" height="20.822" width="17" y="244.558" x="480.264"/>
     <rect fill="#ffffff" height="20.822" width="17" y="288.842" x="449.727"/>
     <rect fill="#ffffff" height="20.822" width="17" y="288.842" x="480.264"/>
     <rect fill="#ffffff" height="20.822" width="17" y="333.125" x="449.727"/>
     <rect fill="#ffffff" height="20.822" width="17" y="333.125" x="480.264"/>
    </g>
    <g/>
    <g/>
    <g/>
    <g/>
    <g/>
    <g/>
    <g/>
    <g/>
    <g/>
    <g/>
    <g/>
    <g/>
    <g/>
    <g/>
    <g/>
   </g>
   <g/>
   <g/>
   <g/>
   <g/>
   <g/>
   <g/>
   <g/>
   <g/>
   <g/>
   <g/>
   <g/>
   <g/>
   <g/>
   <g/>
   <g/>
  </g>
 </g>
</svg>