<svg xmlns="http://www.w3.org/2000/svg" viewBox="0 0 1000 1000" style="enable-background:new 0 0 1000 1000" xml:space="preserve"><path d="M447.49 371.45c0 123.7-64.84 184.86-140.12 184.86-72.9 0-135.71-58.81-136.66-176.15 0-117.5 63.74-183.06 141.25-183.06 81.91 0 135.53 62.73 135.53 174.35zm-214.23 5.47c-1.48 74.45 26.67 131.94 76.07 131.94 52.38 0 75.61-56.27 75.61-133.42 0-71.53-20.4-130.88-75.41-130.88-49.53 0-76.27 58.88-76.27 132.36zm69.02 424.98 343.29-604.8h50.21L352.56 801.9h-50.28zm526.45-188.26c0 123.54-64.84 184.75-140.12 184.75-72.9 0-135.71-58.85-136.66-176.04 0-117.34 63.74-182.95 141.25-182.95 81.9.01 135.53 62.78 135.53 174.24zm-214.23 5.47c-1.48 74.45 27.3 131.83 76.07 131.83 52.38 0 75.61-56.15 75.61-133.31 0-71.53-20.4-130.77-75.41-130.77-49.54 0-76.27 58.77-76.27 132.25z" style="fill:#fff"/></svg>