<?xml version="1.0" encoding="utf-8"?>
<!-- Generator: Adobe Illustrator 28.2.0, SVG Export Plug-In . SVG Version: 6.00 Build 0)  -->
<svg version="1.1" id="Layer_2" xmlns="http://www.w3.org/2000/svg" xmlns:xlink="http://www.w3.org/1999/xlink" x="0px" y="0px"
	 viewBox="0 0 512 512" style="enable-background:new 0 0 512 512;" xml:space="preserve">
<style type="text/css">
	.st0{fill:#FFFFFF;}
</style>
<path class="st0" d="M100.88,220.16c0,0,2.46-1.23,3.07-1.32c0.61-0.09,5.62-4.74,5.62-4.74l2.11-4.57l0.35-5.8l-3.6-6.76
	l-4.39-3.78l-4.3-2.11c0,0-5.45-0.97-5.89-1.05c-0.44-0.09-6.68,0.7-6.68,0.7l-4.3,2.81l-3.16,2.28l-2.64,5.71l-0.7,4.83
	c0,0,1.41,5.62,1.67,5.8s7.64,9.58,7.64,9.58l6.24,3.95h1.23l-1.93,4.74L17.86,416.02H1.91L88.23,457l101.73-40.59l-16.34-0.53
	c0,0-72.74-187.78-72.48-187.78s9.62,0.79,9.62,0.79l44.67-16.6l49.55-23.72l37.82,7.38l-15.68,61.54l20.29,51.13l-30.05,90.93
	l22.84,30.22l-26,25.65l26,22.84l-28.11,10.54c0,0-66.42-14.41-68.88-12.3c-2.46,2.11-23.19,35.49-23.19,35.49h276.56
	c0,0-15.81-36.55-17.57-36.19c-1.76,0.35-68.17,11.95-68.17,11.95l-34.79-9.14l25.3-22.14l-22.49-26.71l21.79-29.52L267.97,311
	l21.79-53.77l-17.92-63.25l63.25,4.57l47.09,26l28.46,2.81l-73.62,188.88h-16.52c0,0,87.68,38.83,90.14,40.24
	c2.46,1.41,99.45-39.36,99.45-39.36l-17.75-1.05l-73.82-190.73l8.17-4.02c0,0,9.22-12.06,9.29-12.32s-3.82-14.5-3.82-14.5
	l-13.84-5.53c0,0-18.98,14.63-18.58,15.15c0.4,0.53,11.93,15.48,11.93,15.48l-5.67,2.11l-14.17-4.94l-45.33-35.05l-50.87-22.67
	l-28.99-4.74l8.7-27.41l-10.81-25.17l-0.26-6.19c0,0,17.79-5.67,18.58-5.8C283.65,89.61,300.52,73,300.52,73l-23.32,13.05
	l-26.62-3.95l-19.9-20.95l-1.19-26.09l11.99-20.95c0,0,30.05-10.02,30.44-10.02s12.26,1.98,12.26,1.98L266.52,0l-26.49,3.43
	L222.51,16.6L211.7,40.85c0,0,3.43,25.7,3.95,26.09s15.29,18.98,15.29,18.98l22.8,9.22l0.4,6.06l-12.26,25.3l8.7,28.2l-44.01,8.43
	l-42.43,21.35l-36.63,28.73l-19.21,9.26L100.88,220.16z"/>
<polygon class="st0" points="291.87,10.02 296.83,31.1 278.65,42.83 300.39,44.94 305.79,66.55 314.49,45.99 336.37,47.84 
	319.63,33.08 328.06,12.52 308.83,23.98 "/>
</svg>
