<?xml version="1.0" encoding="utf-8"?>
<!-- Generator: Adobe Illustrator 28.2.0, SVG Export Plug-In . SVG Version: 6.00 Build 0)  -->
<svg version="1.1" id="Layer_1" xmlns="http://www.w3.org/2000/svg" xmlns:xlink="http://www.w3.org/1999/xlink" x="0px" y="0px"
	 viewBox="0 0 512 512" style="enable-background:new 0 0 512 512;" xml:space="preserve">
<style type="text/css">
	.st0{fill:#FFFFFF;stroke:#010101;stroke-miterlimit:10;}
</style>
<path class="st0" d="M1.25,207.46l2.35-0.3l1.09-1.83l1.31-0.3l0.39-0.78v-0.74v-0.96l-0.48-0.44l1.05-0.57l-0.61-1.18l1.61-0.65
	l0.74,0.26l0.83-0.57l1.31,0.26l0.44,0.57l2.13-0.83l0.87,0.61l2.79,0.74l0.87-0.74l-0.39-0.04l0.39-1.92l0.7,0.39l0.78,1.74
	l3.75-1.52l0.22-1l-0.61-1.35l1.09-0.65l1.61,1.61l1.74-2l4.01-1.31v-1.57l-1.44-0.52l0.3-0.74l-0.52-0.7l0.3-1.26l6.14-2
	l-0.22-1.57l2.79-1.26l2.18-0.22l1.39-2.09c0,0,0.52,0.13,0.65,0c0.13-0.13,1.48-0.83,1.48-0.83h2.53l1.31-0.39l-0.44-2.4l2.53-0.52
	l0.7-1.26c0,0,4.75-0.57,4.88-0.57c0.13,0,3.4-1.05,3.4-1.05s-0.26-1.66,0-1.7c0.26-0.04,2.44-0.87,2.57-1
	c0.13-0.13,1.31-2.83,1.31-2.83l3.66-0.65l3.14,0.39c0,0,2.09-0.91,2.27-1c0.17-0.09,0.44-3.18,0.44-3.18h0.87
	c0,0,0.74,1.66,0.87,1.7c0.13,0.04,2.27,0.57,2.4,0.61c0.13,0.04,1.31,1.96,1.31,1.96l1.52-0.3c0,0,0.52-2,0.65-2
	s3.88,0.39,3.88,0.39v1.52l-1.18,1.79c0,0,0.48,1.18,0.7,1.18s0.48-0.22,0.48-0.22l1.26,0.7l4.36-1.22l4.49,1.31l5.75-0.52l2.88,0.3
	l1.92,2.35l1.31,7.36c0,0,1.83,0.65,1.79,0.83s1.13,3.09,1.13,3.09h6.19l0.39,1.52l0.52,0.04v0.44l6.32,0.17l1.22,1.18l0.74-0.87
	l3.62-0.65l-0.61-1.44l1.92-0.35l1.18,1.48l1.92-0.57l1.31,0.52l1.26,0.22l2.61,1.96l2.27-1.18l0.96,1.61l1.74-1.26l0.44,0.57
	l3.7,0.35l0.39,1.35l1.87,0.52v0.91c0,0,1.74,0.87,1.87,0.87s3.09-0.65,3.09-0.65l2.44-2.22l-0.61-1.87l0.61-0.09h0.61l2.13-1.48
	l1,1.74l1.13,0.09v-1.05l0.57-0.04l1.05-1.44h1.13l0.44-1.09l0.57-0.74c0,0-0.13-0.83,0-0.83s0.96-0.65,0.96-0.65s-0.22-1.13,0-1.26
	s2.22-2.79,2.22-2.79l-0.96-1.96l1.22-2c0,0-0.91-1.35-1.05-1.35s-1.96-0.96-1.96-0.96l-2-1.92l0.13-0.87l-0.74-0.35l-0.57-2.44
	l1.57-1.61l-2.31-1.57l-1.13-2.13l0.7-0.78l0.44-2.09l0.09-1.57l0.78-0.7l-0.09-3.18l1.83-3.4h1.44l1.39,0.3l0.3-1.83l-0.61-1.92
	h0.7l1.48-2.48v-0.7l1.61-0.44l0.96-1.22l2.35-0.52l1.39-1.57l1.61-6.58l1.52-0.48l0.78,2.05l1.09,0.04l0.78,1.18l2.4-0.13v1.26
	l1.26,0.87l0.7-0.52l1,0.13l0.91-0.26l1.57,1.22v1.05l2.88-0.7l0.78,1.79v0.48l0.35,0.44l0.48,1.22l0.35,0.39l1-0.13l1.13,0.22
	l1.66-0.48l2.08,0.53c0,0,1.96-0.56,2.06-0.49c0.1,0.07,0.62,0.82,0.88,0.75c0.26-0.07,1.01-0.59,1.01-0.59s0.39,0.42,0.59,0.42
	c0.2,0,1.08,0.07,1.18,0.1c0.1,0.03,3.73,2.74,4.02,2.88s1.54,0.23,1.54,0.23l0.26,0.65l1.08,0.49l0.42-0.72l0.65,1.57l1.34-0.26
	l1.93,1.76l1.5,0.42l1.37-1.01c0,0,1.08,0.82,1.18,0.91c0.1,0.1,1.24,0.75,1.24,0.75l1.93-0.23c0,0,1.44,0.75,1.8,0.91
	c0.36,0.16,1.5,0.29,1.83,0.36c0.33,0.07,0.72,0.33,1.21,0.49c0.49,0.16,0.65,0.23,1.05,0.62c0.39,0.39,0.62,0.75,0.59,0.85
	c-0.03,0.1-0.29,0.33-0.52,0.46s-0.98,0.36-0.98,0.36s-0.46,1.05-0.23,0.52c0.23-0.52,0.42-0.1,0.52,0.07
	c0.1,0.16,0.23,1.21,0.26,1.31c0.03,0.1,0.2,0.59,0.2,0.59s-0.52,0.82-0.56,0.91c-0.03,0.1,0.16,0.98,0.16,0.98l0.33,0.33
	c0,0-0.07,0.36-0.13,0.49s-0.29,0.2,0.03,0.39c0.33,0.2,1.7,1.76,1.7,1.76l-0.59,0.98l0.39,1.11l-0.52,2.16l1.63,1.96l-0.16,1.55
	l1.67,1c0,0,0.16-0.49,0.52-0.07s0.56,1.5,0.75,1.67c0.2,0.16,1.01,0.39,1.01,0.69c0,0.29-0.23,1.21,0.13,1.63s1.18,1.7,1.24,1.86
	s-0.1,0.82,0.26,0.88c0.36,0.07,1.6-0.36,1.83-0.13c0.23,0.23,0.49,1.27,0.88,1.44c0.39,0.16,7.42,0.39,7.42,0.39
	s-0.26,2.32-0.29,2.48c-0.03,0.16,3.33,0.91,3.59,0.98s3.43,1.31,3.43,1.31l2.03-1.47c0,0,0.52-0.59,0.78-0.36s0.62,0.95,1.41,1.11
	c0.78,0.16,1.5,0.26,1.6,0.29c0.1,0.03,3.43-1.86,3.43-1.86s-0.23-0.78-0.13-0.82c0.1-0.03,0.49-0.1,0.49-0.1l0.65-1.27
	c0,0,0.13-0.85,0.75-0.72s1.8-0.07,1.93,0s-0.03,0.39,0.56,0.23c0.59-0.16,1.76-0.78,1.76-0.78s-0.26-0.82,0.16-0.62
	s1.37,0.52,1.7,0.59c0.33,0.07,1.41-0.39,1.41-0.39s0.36-0.95,0.69-0.91c0.33,0.03,1.44,0.29,2.09,0.36
	c0.65,0.07,2.32,0.03,2.32,0.03l0.95-1.01c0,0,0.1-1.08,0.26-1.11c0.16-0.03,1.14-0.07,1.8,0.07c0.65,0.13,1.14,0.39,1.67,0.52
	s1.63,0.29,1.93,0.29c0.29,0,0.59-0.29,0.91-0.03c0.33,0.26,1.44,0.62,1.7,0.62c0.26,0,1.21-0.46,1.83-0.33
	c0.62,0.13,1.63,0.36,1.83,0.56c0.2,0.2,0.33,0.36,0.59,0.59c0.26,0.23,0.91,1.01,1.08,1.11s0.49,0.42,0.95,0.52
	c0.46,0.1,1.11,0.13,1.83,0.23c0.72,0.1,0.78,0.2,1.21,0.03s1.18-0.56,1.37-0.65c0.2-0.1,0.56-0.33,0.91-0.26
	c0.36,0.07,1.11,0.23,1.8,0.39c0.69,0.16,1.57,0.36,1.93,0.59c0.36,0.23,2.25,0.95,2.58,1.11s0.78,0.29,1.01,0.69
	c0.23,0.39,0.78,1.37,0.78,1.37s0.49,1.18,0.69,1.76c0.2,0.59,0.33,0.98,0.75,1.27s0.98,0.42,1.18,0.62c0.2,0.2,0.16,0.59,0.62,0.69
	c0.46,0.1,0.95,0.13,1.67,0s1.14,0.42,1.14,0.42s2.71,0.07,2.91,0.03c0.2-0.03,0.72-0.1,1.37-0.13c0.65-0.03,0.98,0.1,1.41,0.23
	s0.52,0.59,0.52,0.59s0.52-0.59,0.78-0.33c0.26,0.26,2.16,0.75,2.16,0.75s-0.16,0.36-0.29,0.56c-0.13,0.2-0.46,0.52-0.42,0.69
	c0.03,0.16-0.07,0.33,0.16,0.52c0.23,0.2,0.72,0.26,0.56,0.42c-0.16,0.16-0.56,0.26-0.56,0.46s-0.03,0.36,0.2,0.46
	c0.23,0.1,0.56,0.23,0.39,0.36s-0.69,0.23-0.56,0.46c0.13,0.23,0.26,0.62,0.33,0.88c0.07,0.26,0.1,0.46,0.03,0.72
	c-0.07,0.26-0.29,0.62-0.29,0.72c0,0.1-0.26,0.56,0.33,0.46c0.59-0.1,0.98-0.23,1.11-0.2c0.13,0.03,0.23,1.37,0.33,1.44
	c0.1,0.07,2.19,1.6,2.29,1.6s1.18-0.46,1.34-0.39c0.16,0.07,0.82,0.82,0.91,0.91s0.16,1.47,0.26,1.54c0.1,0.07,1.24,1.24,1.34,1.31
	c0.1,0.07,0.26,1.67,0.26,1.67l1.14,0.59c0,0,6.67-0.98,6.83-0.82c0.16,0.16,1.08,0.69,1.27,0.62s2.35-1.08,2.35-1.08
	s2.88,1.37,3.01,1.47c0.13,0.1,2.84,1.57,2.84,1.57s-0.22,0.39,0,0.44c0.22,0.04,2.27-0.26,3.27-0.17s1.74,0.61,2.53,0.78
	c0.78,0.17,1.39-0.09,2.96,0.39c1.57,0.48,1.39,0.65,2.05,0.44c0.65-0.22,3.35-2.27,3.35-2.27s1.26,1.57,1.96,1.66
	s3.18,0.39,3.62,0.39s1.39-0.91,1.74-1.05c0.35-0.13,4.44-0.87,4.44-0.87s1.22-1.22,1.39-1.26c0.17-0.04,0.83-0.7,1.44-0.87
	s1.61,0.04,2.13,0.26c0.52,0.22,0.96,0.17,1.44,0.04c0.48-0.13,1.66-0.74,1.83-0.78c0.17-0.04,0.3-0.04,1.22-0.04s2.61,0.04,2.88,0
	c0.26-0.04,0.44-0.26,1.18-0.61s1.79-0.91,2.27-1.13c0.48-0.22,0.96-0.83,2-1.09c1.05-0.26,2.7-0.39,3.27-0.39
	c0.57,0,4.27-0.17,4.27-0.17s1.26-0.57,1.57-0.7s2.35-1.66,2.35-1.66l2.92-5.71c0,0,1.92-1.66,2.18-1.66s1.92-0.26,1.92-0.26
	s-0.78-1.31,0-1.39c0.78-0.09,2.53-0.35,3.05-0.44c0.52-0.09,0.44-1.05,0.44-1.05s1.57-1.57,1.83-1.57s2.61-0.78,2.61-0.78
	l4.79-3.31c0,0,2.18-0.44,2.7-0.44c0.52,0,1.31,0.44,1.31,0.44s1.22-0.09,1.83,0s1.31,0.09,2,0.35s2.09,1.13,2.35,1.39
	c0.26,0.26,2,2,2.27,2.35s2.7,2.88,2.7,2.88s2.79,1.05,3.22,1.13s3.14,0.26,3.57,0.35c0.44,0.09,1.66,0.52,2.18,0.52
	c0.52,0,1.22-0.26,2.09-0.7s2.18-1.66,2.79-1.92c0.61-0.26,2.79-0.61,3.49-0.61c0.7,0,1.92,0.35,2.79,0.87s4.1,3.49,4.1,3.49
	l-0.89,0.68l-10.33,23.07l0.59,1.57c0,0-4.44,6.14-4.51,6.4c-0.07,0.26,0.39,6.47,0.2,6.6c-0.2,0.13-4.25,3.27-4.25,3.27l0.26,3.53
	l5.42,6.67c0,0,4.12-3.46,4.38-3.46s2.22-0.78,2.68-0.52c0.46,0.26,1.05,0.33,1.96,0.33s3.27-0.07,3.79-0.26
	c0.52-0.2,0.78-0.65,2.03-0.33c1.24,0.33,5.29,2.81,5.49,2.88c0.2,0.07,3.66,2.94,3.66,2.94l6.21-8.63l3.31-0.33
	c0,0,2.48-0.26,2.74-0.3c0.26-0.04,0.39-0.13,1.13,0c0.74,0.13,0.44,0.17,1.05,0.22c0.61,0.04,2.13,0,2.27,0.09s0.61,0.3,0.83,0.35
	c0.22,0.04,0.91,0.13,1.09,0.22c0.17,0.09,2.35,4.66,2.35,4.66l6.36,2.66l0.35,3.44l3.44,1.35v1.57l3.18,3.01v0.96l1.74,0.57
	l2.6,3.8c0,0-0.13,1.93,0.2,2.29c0.33,0.36,1.05,1.18,1.05,1.18s0.23,0.16,0.26,0.29s-0.19,0.94-0.19,0.94s-0.02-0.65,0.19,0.48
	s0.01,1.31,0,1.44c-0.01,0.13-0.23,0.7-0.23,0.7l0.33,1.39c0,0-1.15,0.22-1.37,0.22c-0.22,0-1.22,1.09-1.31,1.26
	c-0.09,0.17-0.91,0.57-1.09,0.57c-0.17,0-1.7-0.78-1.96-0.78s-1.57,0-2.05,0.13s-1.83,0.52-2.18,0.3c-0.35-0.22-2.09-1.22-2.35-1.31
	c-0.26-0.09-0.78,0.3-0.78,0.3l-1.22-1.96c0,0-0.44-0.26-0.7-0.26c-0.26,0-1.05-0.13-1.22,0s-0.78-1.39-0.87-1.26s-0.87,1.05-1,1.74
	s-0.52,1.05-0.52,1.05s-0.78,0-1.05-0.22c-0.26-0.22-0.57-0.65-0.91-0.52c-0.35,0.13-1.74,0.35-1.87,0.35s-1.96-0.91-1.96-0.91
	s-1.26-0.17-1.57-0.13c-0.3,0.04-1.35-0.04-1.52,0.22c-0.17,0.26-2.18,2.35-2.57,2.53c-0.39,0.17-1.52,0.57-1.79,0.74
	c-0.26,0.17-0.74,0.26-1.05,0.65s-0.26,0.52-0.83,0.7s-1.61,0.3-1.79,0.09c-0.17-0.22-2.13-1.83-2.13-1.83l-1.92,1.13l0.09,2.31
	l-1.79,2.61l-7.54-0.78l-5.1,2.96c0,0-5.36,8.37-4.97,8.63c0.39,0.26,0.65,1.57,0.65,1.57s-0.39,0.65-0.91,1.18
	c-0.52,0.52-1.18,0.78-1.57,1.05s-0.78-0.39-2.09,1.18c-1.31,1.57-1.7,1.57-2.22,1.96s-1.83,1.18-2.48,1.57
	c-0.65,0.39-3.27,1.83-3.92,1.96c-0.65,0.13-5.88-0.39-6.67,0c-0.78,0.39-3.4-0.22-3.92,0.02s-1.18-0.4-1.96,0.11
	c-0.78,0.52-1.7,0.78-2.35,1.96c-0.65,1.18-1.31,1.83-1.7,2.88s-0.52,1.7-0.52,1.7s0.65,0-0.78,0.91c-1.44,0.91-2.88,1.83-3.27,2.35
	c-0.39,0.52-1.18,0.65-1.83,1.31c-0.65,0.65-1.44,1.05-2.22,1.7c-0.78,0.65-1.18,0.91-1.96,1.05c-0.78,0.13-4.05-0.52-4.84,0
	c-0.78,0.52-3.4,0.04-4.18,0.02c-0.78-0.02-2.88-0.54-4.31-1.06c-1.44-0.52-6.27-3.53-6.27-3.53s1.05-1.44-0.52-1.57
	s-7.06,0.52-7.06,0.52s-0.78-0.26-1.83,0.52c-1.05,0.78-2.09,1.05-2.61,2.22c-0.52,1.18-1.44,2.18-1.7,3.12s-1.44,3.29-1.83,3.94
	c-0.39,0.65-1.44,2.48-1.44,2.48s-0.39,2.61-0.26,3.01s0.52,1.57,1.44,2.48c0.91,0.91,1.44,0.91,2.22,2.22
	c0.78,1.31,2.09,2.74,2.74,3.66c0.65,0.91,1.44,2.09,1.83,2.61c0.39,0.52,1.18,0.65,0.52,1.57c-0.65,0.91-1.96,1.57-2.74,1.96
	c-0.78,0.39-2.88,1.18-2.74,1.83c0.13,0.65,0.52-0.52,0.13,0.65s-1.31,1.83-1.83,2.09c-0.52,0.26-1.96,0.52-2.61,0.91
	c-0.65,0.39-1.44,0.91-1.44,0.91s-2.09,0.78-2.29,0.85c-0.2,0.07-1.18,0.72-1.44,0.98s-1.31,1.11-1.83,1.76
	c-0.52,0.65-1.24,1.44-1.44,1.7c-0.2,0.26-1.37,1.5-1.57,1.83c-0.2,0.33-0.65,0.98-0.98,1.5c-0.33,0.52-0.78,1.57-0.98,1.9
	c-0.2,0.33-0.72,0.78-1.31,1.37s-1.7,1.05-1.76,1.63c-0.07,0.59-0.2,1.18-0.46,1.37c-0.26,0.2-2.74,0.98-3.07,1.11
	s-1.63,0.26-2.03,0.33s-1.83,0.13-2.22,0.39c-0.39,0.26-1.63,0.46-1.96,0.98c-0.33,0.52-0.39,0.78-1.5,1.31
	c-1.11,0.52-2.29,1.05-2.81,1.18s0.39-0.65-0.98,0c-1.37,0.65-3.14,0.72-3.46,0.72s0.13-0.13-1.76-0.07
	c-1.9,0.07-2.88-0.33-3.2,0.07c-0.33,0.39-0.2,0.72-1.18,0.98c-0.98,0.26-1.83,0.59-2.88,0.07c-1.05-0.52-1.83-0.98-2.74-1.05
	c-0.91-0.07-1.76-0.39-2.55-0.33c-0.78,0.07-1.37,0.07-2.03,0c-0.65-0.07-1.18-0.52-2.55-0.07c-1.37,0.46-2.22,0.33-3.53,0.91
	s-2.48,0.78-2.74,0.78s-2.55-0.85-2.88-0.78c-0.33,0.07-2.03,0.2-2.03,0.2l-0.63,0.61l-0.87,0.38c0,0-30.76,13.16-30.93,13.25
	c-0.17,0.09-1.66,0-1.66,0l-3.35,3.49l-5.75-1.26c0,0-2.88-0.83-2.88-1s0.87-4.05,0.87-4.05s-6.14,1.57-6.32,1.57
	s-11.5-1.52-11.72-1.57s-10.37-5.97-10.37-5.97l-9.85-1.83l-5.49-5.62l-8.89-2.35l-10.85-1.31l-4.71,0.52l-6.27,0.26l-4.44,1.7
	c0,0-13.2-0.65-13.86-0.65s-23.53-3.53-23.53-3.53s-5.75,0.91-6.54,0.91s-5.49-0.52-5.49-0.52s-3.27-3.53-3.66-4.18
	c-0.39-0.65-4.57-6.67-4.57-7.19s-4.44-16.08-4.44-16.08l-4.84-2.35l0.65-4.84l-5.36,1.31l-7.06-4.71l-3.01-1.31
	c0,0-1.96-0.78-2.61-1.7s-3.4-3.92-3.4-3.92l-6.54-3.14l-3.4-1.18l-4.18-0.78l-3.14-1.05c0,0-1.44-0.13-2.22-0.13
	s-2.48-0.13-3.27,0.13s-1.31,0.39-2.09,0.52s-1.96,0.13-3.14-0.26c-1.18-0.39-5.23-1.31-6.8-1.31c-1.57,0-5.23-0.13-5.62-0.13
	s-4.18-0.39-4.18-0.39s-4.84-1.18-4.97-1.7c-0.13-0.52-1.96-3.53-1.96-3.53l-1.96-4.05l4.71-12.68l-1.61-5.32l3.31-4.44l-0.52-3.22
	l-1.39-2.09l-6.01-11.07c0,0-2.09-2.61-2.09-2.88c0-0.26,0.44-1.83,0.17-3.05c-0.26-1.22-1.31-2.61-1.66-2.7
	c-0.35-0.09-1.05-0.78-1.05-1.22s-0.7-1.05-0.78-1.39s0-0.87-0.35-1.22c-0.35-0.35-1.22-0.7-1.66-0.87
	c-0.44-0.17-1.22-1.13-1.22-1.83c0-0.7,0.26-1.83-0.17-1.39s-2.27,1.83-2.27,1.83s-0.96-0.17-1.57-0.52
	c-0.61-0.35-2.09-2.44-2.96-3.14s-0.96-0.78-1.39-0.61c-0.44,0.17-1.92,0.35-1.92,0.35s-0.96,0.44-1.39,0.52
	c-0.44,0.09-1.74,0.17-2,0.17s-4.62-1.22-4.62-1.22s-1.57-1.31-1.66-1.57c-0.09-0.26-1.66-1.22-2.18-1.74
	c-0.52-0.52-2.88-3.31-2.88-3.31s-0.44-1.57-0.78-2.09c-0.35-0.52-2.44-2.09-2.44-2.09l-2-0.78l-1.66-1.39c0,0-1.51,0-1.35-0.16
	c0.16-0.16,0.33-0.59,0.75-1.14c0.42-0.56,0.78-1.6,0.82-1.9c0.03-0.29-0.07-1.01-0.39-1.11c-0.33-0.1-0.75-0.36-1.11-0.36
	s-1.24-0.23-1.37-0.33s-0.65-0.91-0.65-0.91s-0.46-0.82-0.62-0.95s-0.72-0.49-0.62-0.69c0.1-0.2,0-0.82,0.59-1.01
	c0.59-0.2,1.21-0.46,1.47-0.59c0.26-0.13,0.65-0.42,0.62-0.65c-0.03-0.23-0.23-0.59-0.39-0.85c-0.16-0.26-0.78-0.65-0.88-0.78
	c-0.1-0.13-0.33-0.59-0.33-0.85c0-0.26,0.03-0.72,0.07-0.82C1.19,208.6,1.25,207.46,1.25,207.46z"/>
</svg>
