<?xml version="1.0" encoding="utf-8"?>
<!-- Generator: Adobe Illustrator 26.0.1, SVG Export Plug-In . SVG Version: 6.00 Build 0)  -->
<svg version="1.1" xmlns="http://www.w3.org/2000/svg" xmlns:xlink="http://www.w3.org/1999/xlink" x="0px" y="0px"
	 viewBox="0 0 512 512" style="enable-background:new 0 0 512 512;" xml:space="preserve">
<style type="text/css">
	.st0{display:none;}
	.st1{fill:#FFFFFF;}
</style>
<g id="Layer_4" class="st0">
	
		<image style="display:inline;overflow:visible;" width="750" height="728" xlink:href="6F3C480B.jpg"  transform="matrix(0.7033 0 0 0.7033 -7.7363 0)">
	</image>
</g>
<g id="Layer_2">
	<path class="st1" d="M333.9,492.2l3.7-1.9c0,0,11.3-0.1,11.5,0s4.9,5,4.9,5s4,3.7,4.1,3.8s4.3-0.3,4.4-0.5c0.1-0.2,3.6-3.5,4-3.6
		c0.3-0.1,5,1.4,5,1.4l1.5-0.3l-1.1-3.8c0,0-3-3.5-3-3.6s3.3-3.2,3.3-3.2s3.1,0.1,3.2,0c0.1-0.1,0.8-1.1,0.8-1.1l-2.2-2.1l-1.6-3.5
		c0,0,0.4-2.4,0.6-2.6c0.2-0.2,1.7-1.8,1.7-1.8v-2.1c0,0-0.2-0.9-0.4-0.9c-0.1,0-4,0-4.2,0c-0.1,0-3.2-2.1-3.3-2.2s-2.8-2.9-2.8-2.9
		l-2.2-2.1c0,0,0.2-4,0.2-4.4c0-0.3-1.3-4.4-1.3-4.4s1.1-2.5,1.1-2.7s0.5-2.5,0.6-2.9c0.1-0.4,0.2-2.9,0.2-2.9l2.6-0.2
		c0,0-0.7-3.1-0.6-3.3s2.9-0.8,2.9-0.8l-1.6-4.2l-2-2.7l-0.3-2.7l1.3-2.9l1.1-4.6l0.7-3.5l3-3l3-1.9l2.5,0.2l4.4,0.6l6.6-1.3v-2.7
		v-9.6l-0.5-1.4l-0.3-4.6l-0.2-1.6l1.1-2.8l0.7-3c0,0,0.3-2.5,0.3-2.5s0.8-1.6,1.1-1.8c0.3-0.1,2.7-2.8,2.7-2.8l2.3-1.1
		c0,0-1.3-2.3-1.4-2.5s-1.2-2.5-1.2-2.5l5.1-3.8l15.4-7l0.6-1.1l-1.7-4.3l9.2-1.4l4.9,4.7l1.1,0.5l-0.3,1.9l-1.2,3.3l2.8,2.6l1.7,1
		v3.2l2.6,1.5l2.5-1.4v-2.8c0,0,1.9-2.6,2.4-2.6s4.7-2.1,4.7-2.1l-1-5.9l-4.5-4.9v-5.7l-1.5-3l-1.5-3.2l-0.8-2.3l-4.3-1.8h-1.7
		l0.3-6.9l-2.1-1.8l-3.2,2.1l-0.6-2.1l2.9-2.8l5.3-1.7l1.4-4.8l2.5,0.9l1.4,1.2c0,0,1.9,0.8,1.8,1.2c-0.1,0.4,1.8,6.5,1.8,6.5
		l3.4-2.1l2.9-0.7c0,0,2.1-0.9,2.3-1s7.1-2.2,7.1-2.2l6.9,1.4l3.1-1.3v-5.4v-3.3l1-1.5l1.3-1.2l-0.8-1l2.9,0.6l3.5,1.7l3,0.3
		l4.3-3.2l3.8,3.4v2.3l-1.4-0.1l2.9,1.2v1.5l-0.6,1.7c0,0-0.3,0.1-0.2,0.4s1.4,1.4,1.4,1.4l1.6-1.5l-1.4-1.9l-0.1-2.3
		c0,0,0.8-1.5,1.9-1.3c1,0.3,1.7,0.5,3.1,1c1.4,0.5,2.5,0.8,2.9,0.8c0.5,0,2.5-0.7,2.7-0.8c0.3-0.1,1.4-1.7,1.4-1.7s-0.9-1-1.3-1.4
		c-0.4-0.4-0.9-1.7-0.9-1.9c0-0.2,0.2-2.1,0.2-2.1l-0.4-1.6l0.3-2l2.1,0.3c0,0,0.8-1.3,1-1.5c0.1-0.2,1.4-3.8,1.4-3.8l-0.5-3.9
		l-0.5-4.6l-3.1-2.8l-2.1-2.7c0,0-1.2-1.4-1.3-1.5c-0.1-0.2-2.2-3.1-2.2-3.1s-3-3.1-3.4-3.4c-0.4-0.3-1-1-1.9-1.8s-2.4-1.8-2.6-1.9
		c-0.2-0.1-1.6-2.1-1.6-2.1s-1.3-2.5-1.5-2.8c-0.2-0.3-1.8-1.8-2-2.1c-0.2-0.3-1.9-3-1.9-3s-2.7-4.1-3-4.3c-0.3-0.2-2.3-4.4-2.3-4.4
		s-1.9-3-2.1-3.2s-3.2-2.3-3.3-3s-0.1-2.3-0.1-2.3l-1.6-2.6l-0.7-2.8l0.3-3.2h0.8l2.4,1.5l4.6,1.2l2.9,0.9l1.7,1.9h4.2l1,1.9
		l2.1,1.3l2.3-1l1,1.5l2.3,0.7l7.9,0.3l3.7-0.4l1.8-2.8l3.6-1.8l-0.4-2.7l7.1-2.5v-3.1v-1.9l0.7-1c0,0-2.6-0.8-2.6-1.1
		c0-0.3,0.3-2.6,0.3-2.6s-0.2-1.5-0.8-1.4c-0.6,0.1-1.5,0.6-1.5,0.6l-1.2,3.5c0,0,0,0.6-0.3,0.3s-0.5-1-0.6-1.5
		c-0.2-0.5-1.6-2.1-1.9-2.1c-0.3,0-5.5-2.1-5.5-2.1s-2.5-2.1-2.5-2.8s-0.3-3.4-0.3-3.4l-2.2-1.1l0.6-3.2l-0.5-2.1c0,0-1,1.2-1.2,1.5
		s-2.5,1.5-2.5,1.5l-1.7-0.4c0,0-1.5-1.5-1.7-2.1s-1.2-2.6-1.2-2.6s-0.7-1.4-1.1-1.5c-0.4-0.1-3-1.8-3.6-2c-0.6-0.2-1.9-0.4-2-0.9
		s-0.2-3.4-0.2-3.4s-0.6-1.7-0.9-2s-1.1-1.2-1-1.7c0.1-0.6-0.3-3.2-0.3-3.2l-1.1-1.7c0,0,0.1-2.8-0.2-2.8c-0.3-0.1-2.5,0.1-2.8,0
		c-0.3-0.1-0.6,0.1-1.2,0c-0.5-0.1-1.6-0.8-1.6-0.8l-1-0.3l-2,1.7l-3.7,0.8c0,0-1.4-0.3-1.5-1c-0.1-0.6-0.6-2.9-0.6-2.9l-0.6-1h-1
		c0,0-0.1,0.3-0.4,0.4c-0.3,0.1-1.4,1.5-1.4,1.5h-0.8l-1.7-1.2l-3.2-2.9l-2.2-3.9l1.2-2.3c0,0-1.7-1-1.9-1.1s-1.5-1.9-1.5-1.9l0.7-2
		l-0.6-0.4c0,0-0.7-1.5-0.7-1.7c0-0.2,0.3-2.5,0.3-2.5l2.2-2.4c0,0,1.8-0.5,2.1-0.9c0.3-0.5,1.2-4.3,1.2-4.3v-4.6
		c0,0-1.5-3.2-1.7-3.5c-0.2-0.3-1.7-4.9-1.7-4.9l1-2.5c0,0,1.5-1.3,2.1-1.3c0.5,0,0.8,0.8,1.7,0.5c0.9-0.3,1.4,0.1,1.6-0.5
		c0.3-0.6,1.5-3.4,1.5-3.4l1.8-1.2l-1-3.2l-0.4-1.5l1.3-2.3l3.2-0.6l0.1-1.9l0.1-1.4l1.4-0.7l1.5-3.2l1-2.1l0.6-2.3l1.5-2.1l0.1-2.3
		c0,0,1.7-0.9,2.1-0.8c0.5,0.1,1.8,0,1.8,0l0.1-1.7l1-2.5l1.8-3.3c0,0-0.1-0.9,0.1-1.3c0.2-0.4,1.5-1.3,1.5-1.3s-0.1-2.3-0.1-2.5
		s-1-2.4-1-2.4s0.7-1.2,0.9-1.4c0.2-0.1,1.2-2.1,1.2-2.1l0.6-3v-1.9c0,0-0.6-3-0.5-3.2s2.3-1.9,2.4-2.4c0.1-0.5,0.3-2.5-0.1-3.5
		c-0.4-1-0.8-3.2-0.8-3.2s-1.7-1.2-2.1-1.4c-0.5-0.2-3.2-1.9-3.7-2.1c-0.5-0.2-2.6-0.6-2.6-0.6h-3.9h-2.5c0,0-3,2.8-3.4,2.1
		c-0.3-0.6-1.4-2.1-1.7-2.5c-0.3-0.4-2.6-2.3-2.6-2.3l-3.3,0.8l-1,2.6l-4.6,1.2l0.1,1.7l-3.9,1.2l-1,2.5l-1.7,1.4l-3.7,0.8l-4.8,0.1
		l-7.1,1.3l-9.1-0.7c0,0-2.8,0.1-3.4-0.5c-0.5-0.6-3.4-2.8-3.5-3.2c-0.1-0.4-2.4-2.8-2.4-2.8s-3-2.1-3.4-2.4
		c-0.3-0.3-1.2-1.3-1.2-1.7c0-0.4,0.2-2.3,0.2-2.3s-0.4-1-0.6-1.7c-0.2-0.7-0.6-1.7-0.6-1.7s0.4-0.5,1.1,0c0.7,0.5,1,1.3,1.9,1.3
		s2.8-0.3,2.8-0.3l-0.1-0.7l-0.8-2.9l-0.8-2.1l1.3-3.9c0,0,0.3-1.2-0.1-1.2c-0.4,0-3.7-0.5-3.9-0.5c-0.2,0-2.3,0.4-2.3,0.4l-2.4,0.4
		c0,0-0.9-1.9-0.6-2.5c0.3-0.5,0.6-1.3,0.6-1.3l-1-1.8l-1-1.7l-1-0.7c0,0-0.6,0-1.2-0.5c-0.5-0.5-1.6-2-1.8-2.1
		c-0.2-0.1-2.9,0-1.4-2.5c1.5-2.5,2-2.2,1.4-3.1c-0.6-0.9-1.4-1.8-1.8-1.7c-0.5,0.1-1.5-0.1-1.7,0.8c-0.2,0.9-0.8,2.3-0.8,3.3
		c0.1,1-0.3,2.8-0.3,2.8s-2.9-1.4-3.2-1.5s-1.9-0.5-1.8-1c0.1-0.5,1.4-2.3,2.2-2.6c0.8-0.4,2.5-1.4,1.8-1.5c-0.6-0.1-1.9,0-2.8,0.7
		c-0.9,0.7-2.1,1.4-2.1,1.4s-1.8-1.2-2.4-1.4c-0.6-0.3-2.3-1.4-2.3-1.4s-0.6,2.6-0.3,3c0.3,0.4,1,1.8,1,1.8l-3.4-2.6
		c0,0-2.1-2.8-2.1-2.3s1.9,5.4,1.9,5.4s-1.4,0.5-1.4,0.8c0,0.3,0.6,3.1,0.4,2.8c-0.3-0.3-3.4-3.5-3.4-3.5s-4.3,0.3-4.5,0.1
		c-0.2-0.2-3.2-3-3.4-3.5c-0.2-0.6-2.5-5.1-2.5-5.1l-4.8,0.4c0,0-2.4,1-2.6,1c-0.3,0-7.1,0.2-7.1,0.2l-3.7-2.5l-2.5-4.4
		c0,0-5.8,2-5.9,2.3c-0.1,0.3-0.9,2.1-0.4,2.8c0.5,0.7,0.8,2.7,0.8,2.7l-3,2.6l-4.5,0.2l-3.1-0.4c0,0-2.2,1.3-2.8,0.8
		c-0.6-0.5-4.5-2.7-4.6-3.3c-0.1-0.6-1.7-2-1.2-2.6c0.5-0.6,1.4-2.3,1.4-2.8c-0.1-0.5-0.6-2.6-1.1-2.5c-0.5,0.1-3.3,0-3.3,0
		s-0.8,0.8-0.8,1.6c0,0.8,0.3,2.1,0,1.7c-0.3-0.3-1.6-3.6-1.6-3.6l-4.9-1.2l-2.8,3.5l-0.8,1.9l-1.9,1l-2,1.4v2.8l-0.9,2.7l-4.9,3.4
		l-3.1,1.1l-2.8,1l-3.4-3.3l-3.5-3.8l-3.3-0.2c0,0-3-1.8-3.2-2.1c-0.3-0.3-3.2-2.9-3.2-2.9l-3.7-2.6l-2.6-0.9c0,0-3,1.7-3.3,2.1
		c-0.3,0.3-2.4,2-2.6,2.2c-0.3,0.2-3.1,1.1-3.3,0.7c-0.2-0.4-1.4-2.1-1.9-2.1c-0.5-0.1-1.9,1.7-2,1.2c-0.1-0.5-0.8-3.1-0.8-3.1
		s-1.8,1.4-1.9,1.8s-0.7,1.5-1,1.5c-0.3-0.1-5.3-0.3-5.1-0.6c0.2-0.4,1-3,1-3s-1.6-1.2-2.5-0.5s-2.3,1.8-2.1,1.5s0-2.2,0-2.2
		s0.3-2,0-2.2c-0.3-0.2-1.5-2.7-1.5-2.7s-0.6,0-1.2,0.6c-0.5,0.6-2.4,0.3-2.6,1.9c-0.2,1.6-0.8,2.7-0.8,2.7l-0.7,0.4l-3.6-1
		l-3.1-0.7l-1.5-1.2v-1.9l-1.6-0.8c0,0-1.5-0.1-1.7-0.3s-1.2-1.4-1.7-1.9c-0.6-0.5-2.5-1.3-2.8-1.2c-0.3,0.1-0.7-1-0.7-1.2
		c0-0.2,0.3-2.5-0.4-0.9c-0.6,1.5-2.6,4-2.6,4.4s-0.8,1.9-0.8,2.2s-1.7,1.8-2.5,1.8c-0.7,0-5.4,0-5.4,0l-3.3-1.5l-3.5-1.8l-5.4-3
		l-3.6-2.9l-2.1-2l-0.6-1.9c0,0-3.9,1.6-3.7,1.2c0.2-0.5,0.7-3.3,0.7-3.3l-3.5,0.9l-2.6-1.7l1-2.3c0,0-4.8,3.4-4.9,3s-0.6-3-0.6-3
		l0.5-2.6l0.6-1.9l-4.1,0.8l-3.4,2.3l-1.5,3.1l-2.8,2.8l-1.5,1.7v2.9l-3.6,1l-5.2-1l-5.1-2.5l-2.1,2.3c0,0-4.1-0.2-4.4-0.3
		c-0.3-0.1-3-1.3-3.5-1.8s-4.6-2-4.9-2.5c-0.3-0.5-1.6-2.5-1.9-2.3s-3.1,2.1-3.1,2.1l-4.5-0.1c0,0-1.8-0.4-2.1,0
		c-0.3,0.4-2.5,1.7-2.5,1.7l-1.9,1l-0.9,2.3l-0.5,2.1v2.3l-0.6,2.2l-0.5,2.5l-2.3,1.3c0,0-1.9,1.4-2.1,1.4c-0.2-0.1-4,2.1-4,2.1
		l-0.7,1.5l0.6,4.5c0,0-2.1,2.6-2.3,3.2c-0.2,0.6-0.8,3.1-0.8,3.1s-1.2,2.8-1.4,3.2c-0.2,0.3-1.2,0.7-1.4,1.8
		c-0.2,1.1-1.1,3.3-1.1,3.3s-3.5,1.2-3.8,1.2s-4.6-0.1-4.8-0.5c-0.3-0.4-1.3-2.7-1.7-2.6c-0.4,0.1-5.1,0.2-5.1,0.2L74,61.1h-2.5
		l-1.7-3l-1.4-4.4l-2.3-2.3l-4.2-1.5c0,0-1.3-0.7-1.5-0.8c-0.2-0.1-2.5-2.8-2.5-2.8l-1.2-4.5l-2.3-3.3c0,0-1.8-2.6-1.9-2.8
		c-0.1-0.2-1.1-1.3-1.8-1.5c-0.7-0.2-2.6-1-2.6-1l1.1-3.7c0,0-1-2.3-1.8-2.6c-0.8-0.3-2.7-1.2-3.2-1.3c-0.5-0.1-2.4-0.4-2.7,0
		c-0.3,0.4-4.4,3-4.4,3l-1.4-2.6l-4.5,0.6l-4.8,0.2c0,0-1.6-0.5-1.8-0.2s-1.4,2.2-1.4,2.2l-1.5,1.5L20,31.3l-1.1,1.7L16,37.1
		c0,0,0.8,3.3,1,3.6s1.7,4.3,1.7,4.3l0.1,2.8l-1.7,2.5L17,52.4l-2,2c0,0-1.5,0.5-1.7,0.8s0,2.5,0,2.5l2.9,5.4l1.2,2.6l0.9,2.3v3
		l-1.7,1.6l-1.7,0.7c0,0-0.9,3.2-1,3.6c-0.1,0.4-1,2.1-1,2.3c0,0.2,2,6.4,2,6.4l0.2,5.5c0,0,2.6,2.1,3,2.4c0.4,0.3,1.6,1.5,1.6,1.5
		s-1.5,1.2-1.7,1.3c-0.2,0.1-2.8,1.3-2.8,1.3L11.8,98l-0.9,0.4l2,3.3c0,0,1.4,4.3,1.4,4.5c0.1,0.2,2.1,4.9,2.1,4.9s1.9,1.8,2.2,1.9
		c0.3,0.1,2.4,1.3,2.4,1.3s1.5,1.9,1.6,2.2c0.1,0.3,0.9,1.4,1.3,1.5c0.4,0.1,1.4,0.4,1.5,0.1s2.3-3,2.3-3l3.7,1l1.2-3.5l1.8,1.9
		c0,0,3.2,4.6,3.4,4.7c0.2,0.1,2.9,0.6,2.9,0.6l1.2,3.2l1.8,3.9c0,0,4.4,1.5,4.5,1.7c0.1,0.3,3.1,2.8,3.1,2.8l1.4,3
		c0,0,1.2,0.6,1,1.2c-0.2,0.6-1.2,2.2-1.2,2.2l-0.3,1.3c0,0,0.8,2.2,0.5,2.4c-0.3,0.2-2.3,0.6-2.3,0.6l-1.7,3.5l3,2.6l2.3,1.9
		c0,0,2.1,1,2.4,1.2c0.3,0.2,2.6,1.1,2.6,1.1s2,1,2.3,1.4c0.3,0.4,0.7,1.9,0.7,1.9l0.3,1.7l0.3,1.5l1.2,1l-0.5,2l-0.1,3l0.7,1.7
		l1,1.8c0,0-0.2,1-0.1,1.2c0.1,0.3,1.9,2.6,1.9,2.6l1.4,1.5l-0.5,1.3l-3,0.9h-1.4l-0.6,1.9l0.1,0.8c0,0,1.3,0.6,1.7,0.7
		c0.5,0.1,1.2,0.3,1.5,0.3s2.2,0.5,2.2,0.5l2,1.5l2.5,1.1l1.8,0.9c0,0,0.4,1.2,0.1,1.4s-1.2,1.1-1.2,1.1s-1,2.2-1.2,2.3
		s-1.2,2.7-1.2,2.7l-0.1,6.1c0,0,2,4.8,2.2,5c0.2,0.3,1.6,2.1,1.6,2.1s-0.2,2.1-0.5,2.3c-0.3,0.2-0.8,0.4-1.5,0.6
		c-0.7,0.3-2.1,0.8-2.1,0.8l3.5,0.5l2.3,2l2.5,2.1l1.7,2.1c0,0,1.5,1.7,1.7,1.8c0.2,0.1,1.6,1.3,1.6,1.3s1.2,1.4,1.4,1.6
		c0.2,0.3,0.9,2.2,0.9,2.2l0.6,2.1l1.1,2.1c0,0,0.5,0.5,2.1,1.3c1.5,0.8,2.6,1.5,2.6,1.5s-0.1,0.5,0.1,0.8c0.1,0.3,1,1.9,1,1.9
		l3.2,0.6c0,0,1-0.2,1.9-0.1c0.9,0.1,2.8,0.8,2.8,0.8l1,1.3l0.2,2.1l-0.1,4.1l0.6,0.8l4.9,1l3.3,0.2l1.6,2.6l0.8,2.8l1.2,2.6
		l1.7,3.4l0.5,2.1l2.4,0.4l2.7,1.6l2.3,2.9l0.8,2.3c0,0,1.8,1.9,2.3,2.1s3.7,2.2,4,2.5c0.3,0.3,3.4,3.7,3.4,3.7s2.1,1.3,2.3,1.5
		c0.2,0.3,1.9,3.7,1.9,3.7l-0.2,3.7l2.5,4.1l2.2,3.5l5.1,1l2.1,0.7c0,0,0.2,3.6,0.4,3.9c0.2,0.3,3.4,3.5,3.6,3.7
		c0.3,0.2,3.4,2.8,3.4,2.8l2.3,2.3c0,0,1.9,2.7,1.9,3c0.1,0.3,0.3,0.8,0.5,1.2c0.3,0.4,0.3,0.7,0.6,0.8c0.4,0.1,1.5,1.4,1.5,1.4
		l1.5,2.3l1.5,1.2l1.6,1.8l1.5,1.6l0.8,2.2l2.9,3.3l2.6,1.8l2.3,2.1l3.5,1l4.4,3.7l1.9,2.7l3.3,2.8l2.6,1l5.7-0.6l4.1,0.6l2.5,1.7
		l1.9,2.6l0.6,2.6v2.9l-0.2,2.9l-1.9,1.7c0,0-1.2,0.9-1.2,1.2c0,0.3,0.1,3.1,0.1,3.3s1.4,3.7,1.4,3.7l1.5,2.5l1.5,4.3l2,3.8l2.8,4.3
		l1.5,2.6l1.3,1.8c0,0,2.8,1.2,3,1.2c0.3,0.1,4.1,1.5,4.1,1.5l2.1,2.5c0,0,1.2,1.9,1.2,2.6c0,0.7,0.3,4.1,0.3,4.1l1.4,2.8l5.3,2.4
		l5,3.3l6.3,3.1l5.2,4.1l3.6,2.3l1.5,5.6c0,0,3.3,6.6,3.7,7.2c0.4,0.6,3.3,5,3.3,5s0.2,1,0,1.2c-0.2,0.2-1.2,1.5-1.2,1.5
		s-2.6,0.5-2.8,0.5s-4.6,1.7-4.8,1.9c-0.3,0.1-2.8,2.9-3.2,2.9c-0.3,0-5.2-0.2-5.2-0.2l-2.8,0.3c0,0-1.5-0.3-0.9,0.5
		c0.6,0.7,6.8,6.2,6.8,6.2l3.2,2.2l1.4,0.2c0,0,1.4-0.5,1.6-0.7s4.5-4.5,4.5-4.5s1-1.8,2-1.5s5.4,2.6,5.9,2.8
		c0.5,0.2,4.3,2.3,4.3,2.3s0.2,0.1,0.4,0.1s2.3-1.2,2.8-1.4c0.5-0.2,2.5-1.4,2.5-1.4s1.9,1.4,2.1,1.8s1.2,2.5,1.2,2.5
		s2.1,0.9,2.1,1.2c0,0.3-0.1,2.7-0.1,3c0,0.3,1.7,4.2,1.8,4.4s2.1,1.7,2.1,1.7l0.8,2.6c0,0,1.4,1,1.6,1s4.3,2,4.3,2l3.6,3
		c0,0,4.2,1.6,4.1,1.8s0.5,2.1,0.5,2.1l2.3,1.4l5.5,3.5l3.8,3.2c0,0,0.6,1.6,0.5,1.8s-0.5,1.2-0.2,1.4c0.3,0.1,4.1,1.9,4.1,1.9
		l2.1,3.4c0,0,1.4,1.9,1.6,1.9c0.2,0,2.4-1.3,2.4-1.3l3.3,3l3.4,3.5l1.2,1.7L333.9,492.2z"/>
</g>
</svg>
