<?xml version="1.0" encoding="utf-8"?>
<!-- Generator: Adobe Illustrator 25.0.0, SVG Export Plug-In . SVG Version: 6.00 Build 0)  -->
<svg version="1.1" xmlns="http://www.w3.org/2000/svg" xmlns:xlink="http://www.w3.org/1999/xlink" x="0px" y="0px"
	 viewBox="0 0 512 512" style="enable-background:new 0 0 512 512;" xml:space="preserve">
<style type="text/css">
	.st0{display:none;}
	.st1{fill:#FFFFFF;}
</style>
<g id="Layer_4" class="st0">
	
		<image style="display:inline;overflow:visible;" width="912" height="764" xlink:href="39BBF3F4.jpg"  transform="matrix(0.5626 0 0 0.5626 -1.0968 41.0845)">
	</image>
</g>
<g id="Layer_2">
	<path class="st1" d="M19.1,144l26.3-14.2L61,118.8l16.4-10.4l7.6-6c0,0,6.1-2.4,6.3-2.4s4.3-3.4,4.3-3.4v-3.7c0,0,1.7-0.2,1.8,0
		c0.1,0.2,3.5,2.7,3.5,2.7l5.2-0.8l13.3-5.5l2.1,6.4v1.8l-2.3,1.5l0.2,1.5l1,2l0.6,0.9l-1,1.1l1.5,1.2l-1.4,2.3l2,1l1.3,1.8l0.6,0.9
		l1.9-0.1l1.1,2.9l3.4,0.4l9.1-0.9l-0.8-2.9l-1.2-5l1.9,0.4l1.5-1l1.7-0.2l0.8-1.4l2,2.4l1.8-3.6l4.8,2.7l3.9,0.3l4.8,3.5l5.9,0.6
		l4.9,2.4l-0.9,6.9l0.9,1l2.6,0.5l3.4-0.2l2.4-0.2l2.6-1.6l0.6,1.4l-1.8,1.3l0.8,1.3l2,0.1l1.9-1.9l1.4-1.7c0,0,1.5,1,1.7,1
		c0.2,0,2.6-0.6,2.6-0.6l1.1-1.7l2.6-1.5l1.7-1.6l3-0.4l3.5-0.5l1.6-0.9l5.4-4.1l5.5-4.1l4.4-5.6l4.6-5.4l0.7-1.3l-3.2-3.5l14.1-0.7
		l1.1,3.3l5.9,0.6l4.1-1.6l1-2.2l-5.6-7.7l0.5-2.3l1.3-2.5l-2.3-1.7l6.2-2.9l5-2.5l7.9-0.7l1.2,1.7l-1.1,2.1l-1.2,2.6l0.8,4.5l3.1-1
		l3.4-0.5l2.6,1l4.6,0.8l1.9-0.8c0,0,0.5-3.1,0.6-3.2c0.2-0.1,2.4-1.3,2.4-1.3l2.3-3l2.1-1.7l1.4-2.1l1.8-1.9l1.7-1.1h2.3l2.8,0.9
		l1.8,1.9l0.9,1.5l1.7,0.5l-0.7,2.3l-1.6,4.1l0.8,4l1.5,1.2c0,0-3.5-1-3.7-1.1c-0.2-0.1-2.6-1.4-2.6-1.4l-1.7-0.5l-0.6,1.3l0.9,2.6
		l4.4,0.8l4.5-0.7l4.3-0.1l3.4,2.5l2.8-0.4l7.9-7.7c0,0,1-6.3,1.2-6.5c0.1-0.2,2.2-2.3,2.2-2.3l2,3.2h3.4l3.5,7.4L327,85l3.5,4.5
		l4.1,5.5c0,0,0.2,5.4,0.5,5.5c0.3,0.1,2.1,0.8,2.1,0.8l5.5-2c0,0,4.8,2.9,4.9,3.1s-2.1,6.6-2.1,6.6l1.6,1.8l3.4-1l6.8,0.9l2.3-0.8
		l0.7-1.7l8.6,2.3l3-3.3c0,0,3.2-1.4,3.4-1.5c0.2-0.1,2.3-2.1,2.3-2.1l3.2,0.8l4.6,5l1.7,9l9.8,4.1l1.5,3l5.3,0.8l3.5-0.5l2.2-0.8
		l2.7,1.7v1.7l0.5,2.3l0.3,1.4l1.7-0.5l1.6-0.8l2.3-0.8l2.5,1.8l0.5,1.9l-0.7,1.7l0.3,0.8l-2.6,0.6l-1.7,1.7l0.5,1.7l2.2,1l0.5,2.2
		l-4.3,0.5l0.4,1.4l0.2,1.7h-0.7l0.7,2l-3.6,1l-1.4,1.5l-0.5,2.8l2.1,3.3l-0.7,3.2l-1.4,2.9l-4.3,4.6l-0.2,1.2l3.1,0.4l1.5-0.6
		l-0.4,1.5l-1.9,2.4l-1.1,1.5l-1.4,2.4l0.6,1.7h-3.5l-0.9,2.9l-1.2,2.2l-3.7,1.9l-1.2,2.7l-0.3,2.4l0.5,2l1.2,1.8l0.5,2.1l2.7,0.3
		l1,1.3l0.7,2.1l0.6,2.6l-0.3,2.1l-1.2,1.6l-0.1,1.5l2.5-0.3l1.8-1.2l2.1,1.4l1.6-2.5l3-2.3l1.4,2.5l1.9,1.9c0,0,0.4,0.8,0.8,0.8
		s3.9-1.2,3.9-1.2l0.7,1.2l2.6-0.7l1.9-2.3l0.6,2.5l3.3,1.3h3l2.1-1.4l3.6,1l4.8,0.3l1.9,1.7c0,0-0.5,1.4-0.5,1.7s-0.4,2.1-0.4,2.1
		l2.6-0.5l2.7,1c0,0,3,0,3.2,0s2.9,3.5,2.9,3.5l3.9,7.1l1.7,0.4h2.1c0,0,0.6,1.2,0.4,1.6c-0.1,0.4-1.4,1.6-1.4,1.6l1.1,1.2l2.1,0.6
		l2.1-1.6l2.8,0.4l2,1.2l0.4,2.7c0,0-0.5,1.3-0.6,1.5c-0.1,0.2-1.4,1.7-1.4,1.7l-1.2,1.5l0,1.1l-1.5,0.8l0.7,0.6l-0.1,2.2l-0.9,2.2
		l-2.4,2.5l-1.1,1.8l0,2.2l1.3,3.5l1.5,2.3l4-0.8l5,0.8l2.7,0.8l3.9,1.3l-1.7,1.8l0.3,3.5l3.2,1.2l1.2,0.6v4.1l-0.9,4.3l-0.9,3.4
		l-1.7,2.1l3.5,4.1l2.3,1.5l1,2.8v1.3l-3.1,1.3l-1,1.4h-1.7l-3-1.9l-1.9-0.1c0,0-1.2,0.9-1.4,1.4c-0.3,0.5-0.9,2.5-0.9,2.5l-1.5,2.3
		l-0.1,2.7l-1.5,1.8l-3.4,0.6l-1.7,0.7L466,305l-1.5,2.2L464,308l-1.5,0.4l-1.3,0.7l-0.8,2l1.5,2.3l1.4,1.8l-0.6,1.6l1.2,1.6
		l-1.1,1.1h-2.6h-2.2l-0.5,1l0.1,1.5l-0.3,1h1.1l-1.6,0.7l0.2,0.6h2.2l0.6,1.6l-1.6,1.5l-1.3,1.1l-2.5-0.5l-0.2-1.4l1.2-1.2
		c0,0,0.2-1.3,0.2-1.5s-0.6-1.9-0.6-1.9l-1.1-0.8l-1.6-0.8l-1-0.3L450,321l-0.6,1.9l-1.3,0.9l-2.6-1.2l-2-0.6l-0.2-3l-2.4-0.3
		l-2.9,0.9l-2.3,1l0.4,2l-0.7,1.5l-0.5,1.5l1.4,2l-2.6,1.5l-4.5,1.1l-1.7,1.8l-1,2.8l-0.6,2.9l-1.4,1.6l-1.6,1.3l0.2,2.1l0.7,1.8
		l-1.4,2.9l-0.5,1.6h-2.1l-1.5,0.9l-0.4,1l0.2,1.8l0.7,1.2l0.3,1.1l-0.7,1.8l-0.4,1.5l-1,0.7v1l-3.3,0.7h-1.6l0.4,1.8l-0.2,2.1
		l-0.4,3.1l-1,1.4l-1,1l-2.1,1.2h-1l4.3,2.5l2.5,1.9v2.1h-1h-2.1l-0.6,1.7v1.4l-0.2,1l-0.8,1.4l0.8,5l0.2,3.5h2.9l1.9,1l1.5,4.5
		l1.9,3.1l1.5,1.2l-1,3.5h2.1h1.9h1.9l1,3.5l-1.7,2.1l-0.8,2.3l1,1.5l1.7,1.2l1.7,1h1.4l0.2,2.5l-0.4,1.4l-0.6,1l-1.5,1l-1.5,1.5
		l-0.3,2.2l-0.6,1.8l-2.6,1l0,1l2.8,1.6c0,0-0.4,1.8-0.4,2c0,0.1-2.9,3.2-2.9,3.2l-2.5,2h-2.7l-1.9-2.2l-2.7-1.5
		c0,0-1.3,1.5-1.3,1.8s0.2,2.4,0.2,2.4H408c0,0-1-0.4-1.2-0.3c-0.2,0.1-1.7,0.8-1.8,0.9c-0.1,0.1-1.5,0-1.5,0l-1.9-1.1L399,438h-2.8
		l-1.8,3.1l-1.2,3.6l-1.2,0.5l-2.6-2l-3.5-1c0,0-1.4,1.5-1.6,1.5c-0.3,0.1-2.2,0.7-2.5,0.9c-0.3,0.2-3.8,1.3-3.8,1.3
		s-1.2,1.5-1.6,1.5c-0.5,0.1-3-1.6-3-1.6l-0.3-1.6c0,0,1.8-3.1,1.8-3.4c0-0.3-2.3-2.2-2.3-2.2s0.1-2.9,0.2-3.2
		c0.1-0.3-1.7-2.1-1.7-2.1l-0.1-3.2l-0.9-1.3l-3.2-2.5l-2.8-1.8l-2.8-1.6l-1.9,1.4l-1.9,1.9l-1.1-1.8l2.1-4.6l0.1-1.5l-1.9-1.6
		l-1.5-1.6l-1.4-1.4l-1.2-1.2l-1-1.5l-0.9-0.3l-1.3,1l-2.3,0.4l-1.7-0.4l-1.8-0.3c0,0-0.6-0.7-0.9-0.7c-0.3,0-2.5,0.4-2.5,0.4
		s-0.7,0-1-0.2s-1.2,0-1.3-0.7s-0.3-1.2,0-1.7c0.3-0.6,1.3-1.2,0.4-1.1s-4.8,0.3-4.8,0.3l-0.7-3.5l-2.4-4.7c0,0-0.8-1.1-1.1-1.1
		c-0.3,0-5-0.3-5-0.3l-2.8-3l-2.7-2.6c0,0-0.2-1.2-0.9-1.3s-4.5,0-4.5,0s-2.4,1.2-2.9,1.4c-0.5,0.2-2,0.7-2.4,0.7s-4.2,0-4.6-0.3
		c-0.5-0.3-2.9-1.1-2.9-1.1l1.8-3.5l1.3-1.5l-2.3-4.5l-1.4-3.4l2.9-3.5c0,0,0.3-2.4,0.7-3.1c0.4-0.7,0.8-3.1,0.8-3.1l-1.5-2
		l-2.5-3.2c0,0-1.8-1.5-2.1-1.5c-0.3-0.1-2.3-0.8-2.7-0.9c-0.4-0.1-2.4-1-2.4-1l0.4-3.3l1-1.7l1.6-3.9l0.7-3.1l1.3-2l1.1-1.2
		c0,0-0.6-1.5-0.9-1.7s-1-1.8-1-1.8l-0.4-1.3l2.8-1.7c0,0-0.4-1.5-0.5-1.8s-0.4-2.6-0.4-2.6l3.1-0.1l0.7-3.7c0,0,0.7-2,0.9-2.3
		c0.2-0.3,0.5-1.3,0.5-1.3l-1-1.9c0,0-1.2-0.3-1.5-0.4c-0.3-0.1-1.2-0.4-1.6-0.5c-0.5-0.1-1.5-0.3-1.8-0.7c-0.4-0.4-1.5-1.4-1.5-1.4
		c-1.1,0.7-1.8,1.8-1.8,1.8s-0.4,0.6-0.9,1c-0.5,0.4-2.8,1.7-2.8,1.7l-1.5,0.5l-1.4,2.9l-0.3,2.4l-1.9,0.8l-3.4,1.5l-2.2,1.9
		l-0.3,2.3l-0.4,2.1l1.7,1.4l0.2,2.5c0,0-1.3,1.9-1.3,2.2c0,0.3-0.3,2.8-0.3,2.8l0.5,3.4c0,0-0.2,0.9-0.6,0.8s-2.8-0.5-2.8-0.5
		s-0.9,0.6-1.5,1c-0.6,0.4-1.5,0.7-2.2,0.7c-0.8,0-1.9,0.2-3,0.2c-1.1,0-2.3,0.1-2.3,0.1l-1.5,1l-1.2,2.4l-3.2-0.1l-1.2,2.3l-1,1.6
		l-2,0.5c0,0-1.7-0.6-2.2-0.6c-0.5,0-2-0.1-2.3,0.1c-0.3,0.2-2.8,1.9-2.8,1.9l-3.2-0.9l-2.6-1.5l-2.4-0.9l-2.6,0.4l-1.8-1.3l-2-1.8
		c0,0-3,0-3.4,0.1c-0.4,0.1-3.2,0.8-4,0.8c-0.8,0-4.4,0.5-4.8,0.6c-0.5,0.1-2.6,0.9-2.6,0.9l-1.2-2l-2.1-1.3c0,0-3.1-0.6-3.4-0.7
		c-0.3-0.1,0.4-2.8,0.4-2.8l0.4-1l-0.6-1.6l-1.6-1.2v-2.1l0.9-2.3l1.8-1.9l1.1-0.3l2.7-0.3l3.1-1.6l1.2-1.5l-0.3-2l-0.9-2.3
		c0,0-1.1-2-1.3-2.3c-0.2-0.3-0.9-1.7-0.9-1.7l0.3-2.6l0.1-1.6c0,0-1.2-1.2-1.5-1.2c-0.3,0-1.9,0.6-1.9,0.6s-0.6,0.5-1,0.7
		c-0.4,0.2-1.1,0.2-1.4,0.2c-0.3,0-2.4-0.6-2.4-0.6l-1.2-0.5c0,0,0.5-1.5,0.9-1.9c0.4-0.4,1.5-1.7,1.5-1.7l0.8-1.5l0.2-1.2l0.1-1.4
		c0,0-0.1-0.5-0.1-0.9c0-0.4,0.5-1,0.8-1.4c0.3-0.4,0.4-0.7,0.4-1.1c0-0.4-0.3-0.9-0.6-1.4c-0.3-0.5-0.9-1.8-0.9-1.8l2.8-1.2
		c0,0,0.7-1.6,0.8-1.7s0.3-0.9,0.9-1.3c0.7-0.4,2.4-1.6,2.6-1.8c0.2-0.2,1.2-1.2,1.3-1.4c0.1-0.2,0.2-1.3,0.1-1.6
		c-0.1-0.3-0.2-0.5-0.7-0.9c-0.5-0.3-0.6-0.2-1.1-1s-0.4-1.2-0.8-1.3c-0.5-0.2-1,1.4-1.6-0.2c-0.6-1.6-0.9-0.3-0.9-0.3l-0.7-1.5
		c0,0-0.7-0.4-1.1,0s-1.1,1.2-1.5,1.6s-1,0.9-1,0.9s-1.5,0-2-0.5s-0.8-1-0.9-1.3c0-0.3,0.2-1.1,0.5-1.6c0.3-0.5,0.4-0.7,0.3-1
		s-0.6-1-1-1.4s-0.4-0.8-0.9-1.1s-1.2-0.7-1.6-0.8c-0.4-0.1-1.2,0-1.9-0.1c-0.7-0.1-1-1.6-1-1.6s-0.3-1-1.1-1.5
		c-0.8-0.6-1.7-1.3-2-1.6c-0.3-0.4-1-0.8-1.5-1.5c-0.6-0.7-0.5-1.8-1.3-2.1c-0.8-0.3-2.5,0.6-2.5,0.6l-1.7,2l-2.5-0.4
		c0,0-0.4-0.9-1.6-0.6c-1.3,0.3-0.2,1-0.2,1l-4,2.4l-3.1,0.2l-1.9-0.7c0,0-0.6-1-1-1c-0.4,0-1.9-0.1-2.4-0.5
		c-0.5-0.4-1.2-1.3-1.2-1.6c0-0.4,0.1-1,0.1-1l-2,0.5c0,0-1.1,0.8-1.3,1.1c-0.2,0.3-1.4-1.3-1.4-1.3l-1.5,0.4l-1.9-0.3
		c0,0-2.7,0.5-3.1,0.6c-0.4,0.1-2.6,0.6-2.6,0.6l-0.5,2l0.4,3.2c0,0,0.4,1.6-0.1,1.6s-2.5-1.5-2.5-1.5l0.2,2.9l-2-3.3l-2.9-4.8
		l-1-3.8l0.8-1.8l0.4-2.2v-3.2l0.1-3l-0.8-2.3l0.1-3.8c0,0-0.5-0.7-0.9-0.9s-2.3-1.9-2.5-2c-0.1-0.1-1.2-2.3-1.4-2.5
		c-0.2-0.2-1.8-2.1-2.1-2.4c-0.3-0.2-1.8-0.9-2.2-0.5c-0.4,0.4-1,1.1-1,1.1l-1.1-1.7c0,0-2.5,0.1-3.2,0.2c-0.7,0.1-1,0-2,0.4
		c-1,0.4-2.1,0.9-2.7,0.9s-1.6-0.6-1.6-1.1c0-0.5,0.5-1.5,1.2-2.1c0.7-0.6,1.5-1.1,1.5-1.5s-1.2-2.6-1.2-2.6l-4.5-0.9
		c0,0-1,0.8-1.5,1.5c-0.6,0.8-0.2,2.6-1.2,2.7s-2.7,1.3-3.5,1.3s-1.9,0.2-3.1,0.8c-1.2,0.6-1.9,1.5-1.9,1.5s-2.5-1.7-4.1-2.3
		c-1.5-0.6-6.4-3.1-6.4-3.1l-1-3.1l-0.8-5c0,0-0.8-3.1-0.8-3.9c0-0.8-0.8-2.7-0.8-3.5c0-0.8,0-1.5,0-1.5l-1-1.7l-0.8-1.7v-1.4
		l-1.4-1.4l-0.2-2.5l0.4-2.5l1.5-1.2l0.4-1l-0.4-1.9l1.2-1.5c0,0-1.9-1.5-2.5-1.7c-0.6-0.2-3.5-1-3.5-1l-2.1-1.7l-1-2.1l-0.8-1.9
		l-0.8-1.5l-0.8-1.7l-0.4-1.9l-0.2-1l-1-1.4l-2.1-1.9l-1.4,1c-1.4-1.2-2.3-1.9-2.3-1.9l-1.4,1.9l-0.8,1.5c0,0-0.2,1.2-1,1
		c-0.8-0.2-3.5-0.8-3.5-0.8l-3.1,0.8l-1.9,0.6L75,206l-1.2,1.2l-1.5,1.9l-3.7,1l-1.5,2.3l0.4,1l-1.5,1.7l-0.6,1.5l0.6,1.7
		c0,0-2.1,0.8-2.5,1.4c-0.4,0.6-1.4,1.7-1.4,1.7l-1-2.3l-2.7-0.8l-1.5-0.8l-0.6-1.9l-3.5,0.8l-3.7-1.5l-1-2.9l-0.2-1.5l-1.7-1.5
		l-0.4-1.2l-0.8-2.1l-2.7-1.9l-1.4-2.3v-2.9l-2.9-1h-1.7l-1.8-1.7c0,0-0.9,1-1.2,1.2c-0.3,0.2-0.8,1.2-0.8,1.2s-1.7-0.3-1.9-0.6
		s-1.1-1.5-1.1-1.5s0-1.8-0.3-2.2c-0.3-0.4-1.4-2.5-1.4-2.5l-2.2-0.6l0.5-1.8l1-1.6l-0.2-2.8l0.1-3.9l-0.5-2.3l-1.6-1l1.8-2.7
		l2.9-2.2l0.8-0.9l-2.9-3.7l-1.8-4.8c0,0-2.3-1.4-2.5-1.5s-0.9-3-0.9-3l0.3-3.2l-0.6-2.6c0,0-0.3-3.6-0.4-3.8
		c-0.1-0.2-1.4-2.6-1.4-2.6L19.1,144z"/>
</g>
<g id="Layer_5">
	<path class="st1" d="M307.1,77.4l0.4,0.2l0.1-0.2l0.7,0.4l0.1,0.1h0.4v-0.1c0,0,0,0,0,0c0,0,0.1,0.1,0.1,0.1h0.1c0,0,0,0.1,0,0.1
		c0,0.1,0.1,0.2,0.1,0.2c0,0,0.3,0.5,0.3,0.5l0.2-0.1l0.1,0.1l0.1,0l0.1-0.1l0.4-0.1l0,0l0.1,0l0.2,0.3l0.2-0.1l0.1-0.1l0.2-0.1
		v-0.2l0.1,0v-0.2l-0.2,0l0-0.2c0,0,0-0.1,0.1-0.1s0.1-0.1,0.1-0.1l-0.2-0.1c0,0-0.2,0-0.2,0s-0.2-0.1-0.2-0.1l0.2-0.2l0.2-0.2
		l0.2,0l0.1,0.2l0.1,0.1l0.1,0.2l0.3-0.1l-0.1-0.4l-0.3,0.1l-0.1-0.3l0.1-0.2l-0.1-0.4l0-0.1l0.2-0.1l0,0.1l-0.4,0.1l0.1,0.3
		l-0.4,0.1l-0.1-0.2l-0.3,0v-0.1l0.3,0l0,0l-0.2,0l-0.1-0.3l-0.1,0l0-0.2l0-0.1l0.5,0l0.2,0v-0.1l-0.1-0.2h0.1l0.1,0.4l0.1-0.1
		l-0.1-0.3h-0.1l-0.1-0.3l-0.3,0.1c0,0-0.2,0-0.2,0s0-0.2,0-0.2l0.1-0.1l-0.1-0.1l-0.3,0.5c0,0,0,0.1,0,0.1c0,0,0.1,0.2,0.1,0.2
		l-0.1,0l-0.1-0.1l-0.2,0l-0.1,0c0,0,0,0,0,0.1s0,0.1,0,0.1l-0.1,0l-0.1,0l0,0.1l-0.2,0l0,0l0.2,0.4l-0.1,0.1l-0.1,0.1l-0.1,0.1
		l-0.2-0.3l0.1-0.1l-0.1-0.3l-0.1,0l0-0.1l0.1,0l-0.1-0.3l0.3-0.2l-0.3-0.2l-0.1,0l-0.1,0.1l-0.1-0.1l-0.1,0l-0.1-0.3l0.2,0l0-0.1
		l-0.3-0.1l0.3-0.1c0,0,0.1,0,0.1,0.1c0,0,0.2,0.3,0.2,0.3l0.2-0.1c0,0-0.2-0.3-0.2-0.3s-0.2,0-0.2,0l-0.1-0.3l-0.3,0.3l-0.2,0
		l-0.2-0.2l-0.2,0.2l0,0.1l0.1,0l0.1,0.1l0.1-0.1l0.2,0.1l0,0.1l-0.1,0l0.1,0.3l0,0.1l0.1,0.2l0,0.1l-0.1,0l-0.2,0.2l-0.2,0.2
		l0.3,0.1l0,0.1l-0.1,0.1l0.1,0.1l0.1,0.1l-0.2,0.3l0.2,0.3c0,0,0,0.1,0,0.1c0,0-0.1,0.1-0.1,0.1l-0.1,0l-0.1,0c0,0,0,0.1,0,0.1
		c0,0-0.1,0.1-0.1,0.1l-0.1,0l-0.1-0.1L307.1,77.4L307.1,77.4z"/>
	<path class="st1" d="M311.3,74.7l-0.1-0.3c0,0,0.1-0.1,0.1-0.1c0,0,0.1,0.1,0.1,0.1s0.1,0,0.1,0c0,0,0-0.2,0-0.2l0.4-0.1l0-0.3
		l0.3-0.1l0.1,0.1l0,0.1c0,0-0.3,0.1-0.3,0.2c0,0,0,0.1,0.1,0.1c0.1,0,0.3,0,0.3,0c0,0,0.1-0.1,0.2-0.1c0,0,0-0.3,0-0.3
		c0,0,0-0.1,0-0.1c0,0,0.5-0.1,0.5-0.2c0,0,0.2-0.1,0.2-0.1l-0.1-0.1l0-0.1c0,0,0.1-0.1,0.2-0.1c0,0,0.1,0,0.1,0l-0.2-0.2l0-0.3
		l-0.4,0.1c0,0,0.1,0.3,0.1,0.3s0.1,0,0.1,0l0,0.1l0,0.1l0,0l-0.1,0l-0.2,0.1l-0.1,0.1l-0.1-0.1l-0.1,0c0,0,0,0,0,0
		c0,0-0.5,0.1-0.5,0.1s0-0.1-0.1-0.1c0,0-0.3,0-0.3,0s0.1,0.1,0,0.1s-0.5,0-0.5,0l0,0.1l-0.1,0c0,0,0,0,0,0c0,0-0.7,0.1-0.7,0.1
		l0.3,0.5l0.4,0l-0.1,0.1l0,0c0,0,0.1,0,0.1,0s0.4-0.1,0.4-0.1v0.1l0,0.1l0.1,0L311.3,74.7L311.3,74.7z"/>
	<path class="st1" d="M312.9,75.1c0,0-0.1-0.3-0.1-0.3s0.1-0.1,0.1-0.1s-0.1-0.2-0.1-0.2c0,0-0.3,0-0.3,0s0,0.1,0,0.1
		c0,0-0.3,0-0.3,0v0.1l0,0.1c0,0,0,0.1,0,0.1s0,0.1,0,0.1l-0.3,0.1c0,0,0,0,0,0s0.3,0,0.3,0s0-0.1,0-0.1c0,0,0.1,0,0.1,0
		s0.1,0,0.2,0c0,0,0.1,0,0.1,0s0,0.1,0,0.1C312.6,75.1,312.9,75.1,312.9,75.1z"/>
	<path class="st1" d="M311.7,76.6c0,0-0.1,0.1-0.1,0c0,0-0.1-0.4-0.1-0.4l0.2-0.1l0-0.1l0.2,0l-0.1,0.2l0,0.1L311.7,76.6L311.7,76.6
		z"/>
	<path class="st1" d="M310.3,74.1c0,0-0.4,0.2-0.4,0.2l-0.1-0.1l0.1-0.1l-0.1-0.1l0,0l0.3-0.2L310.3,74.1z"/>
	<polygon class="st1" points="309.9,73.6 309.7,73.8 309.5,73.6 309.7,73.4 	"/>
	<path class="st1" d="M309.3,73.7c0,0,0.2,0.2,0.2,0.2l-0.1,0.1l-0.2-0.2L309.3,73.7L309.3,73.7z"/>
	<path class="st1" d="M312.1,72.7c0,0-0.4,0.1-0.4,0.1l0-0.1l0,0l0.3-0.1L312.1,72.7z"/>
	<polygon class="st1" points="312.8,72.5 312.8,72.3 312.9,72.3 312.9,72.1 312.7,72.2 312.7,72.5 	"/>
	<path class="st1" d="M311.6,72.1l-0.3,0l0-0.1C311.4,72,311.5,72,311.6,72.1C311.5,72,311.6,72.1,311.6,72.1z"/>
	<path class="st1" d="M311.2,75.2C311.2,75.2,311.2,75.1,311.2,75.2c0.1,0,0.2,0.1,0.2,0.1l0,0.1l0.1,0.3h-0.1L311.2,75.2
		L311.2,75.2z"/>
	<polygon class="st1" points="311.5,74.8 311.7,74.7 311.6,74.6 311.4,74.7 	"/>
</g>
</svg>
