<svg id="svg" version="1.1" xmlns="http://www.w3.org/2000/svg" xmlns:xlink="http://www.w3.org/1999/xlink" width="400" height="424.6666666666667" viewBox="0, 0, 400,424.6666666666667"><g id="svgg"><path id="path0" d="M313.688 3.961 C 313.204 4.865,313.242 5.986,313.763 6.186 C 313.999 6.277,314.216 6.660,314.245 7.039 C 314.315 7.979,315.245 9.333,315.819 9.333 C 316.417 9.333,316.780 8.215,316.484 7.282 C 316.266 6.596,316.330 6.573,317.949 6.765 L 319.641 6.966 318.771 5.989 C 318.293 5.452,317.732 4.672,317.526 4.256 C 316.995 3.186,314.217 2.972,313.688 3.961 M323.524 5.190 C 322.697 6.017,323.021 7.008,323.884 6.291 C 324.151 6.070,325.196 5.977,326.498 6.060 C 327.977 6.154,328.667 6.078,328.667 5.819 C 328.667 4.738,324.487 4.227,323.524 5.190 M303.282 9.829 C 302.972 10.139,297.822 10.922,295.833 10.962 C 294.733 10.984,292.378 11.117,290.599 11.258 C 288.308 11.439,287.210 11.401,286.836 11.128 C 286.440 10.838,286.104 10.836,285.490 11.121 C 284.279 11.682,284.476 12.222,285.833 12.063 C 287.274 11.895,287.328 12.311,285.965 13.087 C 285.001 13.635,284.942 13.778,285.065 15.254 C 285.159 16.376,285.055 16.941,284.706 17.205 C 284.094 17.670,284.786 19.667,285.560 19.667 C 285.824 19.667,285.947 19.517,285.833 19.333 C 285.720 19.150,285.947 19.000,286.337 19.000 C 287.158 19.000,287.682 18.526,288.228 17.290 C 288.571 16.516,288.861 16.390,290.724 16.209 C 296.933 15.606,298.496 15.237,298.193 14.448 C 298.078 14.150,298.401 13.820,299.090 13.531 C 299.682 13.283,300.734 12.837,301.428 12.540 C 302.122 12.243,303.331 12.000,304.114 12.000 C 305.816 12.000,306.873 11.353,306.550 10.510 C 306.392 10.098,306.078 9.971,305.496 10.082 C 305.040 10.170,304.667 10.112,304.667 9.954 C 304.667 9.651,303.560 9.551,303.282 9.829 M241.247 16.996 C 238.963 19.665,238.379 22.667,240.144 22.667 C 240.362 22.667,240.863 22.967,241.257 23.333 C 241.650 23.700,242.341 24.000,242.792 24.000 C 243.242 24.000,243.667 24.167,243.735 24.371 C 243.814 24.609,244.275 24.489,245.013 24.039 C 245.647 23.652,246.424 23.335,246.738 23.335 C 247.053 23.334,247.844 22.865,248.496 22.292 C 249.602 21.321,249.802 21.265,251.425 21.470 C 252.383 21.590,253.862 21.773,254.711 21.875 C 255.739 21.999,257.078 21.838,258.711 21.393 C 260.062 21.025,261.626 20.654,262.187 20.568 C 262.748 20.482,263.829 20.094,264.590 19.706 C 265.697 19.141,266.576 19.000,268.987 19.000 C 271.970 19.000,272.000 18.992,272.000 18.175 C 272.000 16.304,269.356 15.977,262.500 16.999 C 261.400 17.163,257.425 17.402,253.667 17.530 L 246.833 17.763 245.715 16.715 C 244.080 15.183,242.727 15.268,241.247 16.996 M339.333 15.973 C 339.058 16.131,337.483 16.437,335.834 16.653 C 334.184 16.870,332.609 17.239,332.334 17.474 C 331.747 17.974,328.659 19.000,327.739 19.000 C 327.389 19.000,326.832 19.300,326.500 19.667 C 326.168 20.033,325.549 20.333,325.124 20.333 C 324.699 20.333,323.664 20.667,322.825 21.075 C 321.509 21.714,321.254 21.749,320.976 21.325 C 320.693 20.893,320.605 20.894,320.244 21.333 C 319.963 21.676,319.368 21.800,318.355 21.728 C 317.423 21.661,316.129 21.896,314.855 22.362 C 313.743 22.768,312.223 23.133,311.478 23.173 C 310.732 23.212,309.805 23.414,309.416 23.622 C 309.028 23.830,308.288 24.009,307.772 24.020 C 305.951 24.058,302.875 25.432,302.403 26.417 C 301.895 27.476,301.594 27.551,300.957 26.778 C 299.325 24.798,296.064 23.582,294.561 24.393 C 294.161 24.609,293.338 24.754,292.733 24.715 C 290.205 24.551,288.632 27.743,290.772 28.695 C 291.497 29.018,291.497 29.018,290.736 28.870 C 290.023 28.732,289.977 28.821,290.050 30.216 C 290.141 31.977,290.606 32.333,292.811 32.333 C 293.902 32.333,294.333 32.467,294.333 32.806 C 294.333 33.065,294.521 33.353,294.750 33.446 C 294.979 33.538,294.709 33.626,294.150 33.640 C 293.591 33.655,292.935 33.479,292.692 33.250 C 292.369 32.946,292.212 32.937,292.109 33.215 C 292.003 33.500,291.716 33.502,290.969 33.220 C 290.155 32.912,289.912 32.934,289.657 33.338 C 289.403 33.740,289.343 33.702,289.338 33.139 C 289.336 32.757,289.221 32.332,289.083 32.194 C 288.946 32.056,288.805 31.468,288.770 30.888 C 288.735 30.308,288.670 29.383,288.626 28.833 C 288.447 26.632,288.650 25.717,289.367 25.489 C 289.852 25.335,289.961 25.161,289.720 24.920 C 289.480 24.680,288.813 24.800,287.549 25.314 C 286.125 25.891,285.576 25.975,285.051 25.694 C 284.122 25.197,281.755 25.235,281.582 25.750 C 281.471 26.082,281.280 26.081,280.638 25.744 C 280.045 25.433,279.527 25.411,278.669 25.661 C 278.028 25.847,277.011 26.000,276.407 26.000 C 275.804 26.000,274.975 26.220,274.565 26.488 C 274.155 26.757,272.923 27.081,271.827 27.209 C 270.730 27.337,269.341 27.717,268.740 28.054 C 267.252 28.888,264.949 28.864,264.174 28.008 C 263.510 27.275,263.000 27.399,263.000 28.294 C 263.000 28.655,262.436 29.163,261.537 29.613 C 260.732 30.015,259.897 30.555,259.682 30.814 C 259.106 31.509,256.122 33.000,255.308 33.000 C 254.920 33.000,254.205 33.278,253.718 33.618 C 253.231 33.958,251.483 34.953,249.833 35.829 C 248.183 36.706,246.537 37.628,246.176 37.878 C 245.814 38.129,245.105 38.333,244.601 38.333 C 244.096 38.333,243.192 38.633,242.591 38.999 C 241.991 39.365,241.326 39.665,241.112 39.665 C 240.698 39.667,237.761 41.477,236.258 42.657 C 235.759 43.049,234.725 44.321,233.961 45.483 C 232.985 46.967,232.160 47.802,231.187 48.287 C 230.426 48.668,229.446 49.359,229.010 49.823 C 228.574 50.287,228.074 50.667,227.899 50.667 C 226.988 50.667,222.960 55.738,223.467 56.245 C 223.555 56.333,223.336 56.717,222.980 57.098 C 222.624 57.480,222.333 58.064,222.333 58.396 C 222.333 58.728,222.220 59.000,222.081 59.000 C 221.461 59.000,220.913 61.048,221.327 61.821 C 221.630 62.387,221.640 62.760,221.367 63.270 C 221.165 63.647,221.000 64.836,221.000 65.912 C 221.000 68.412,220.451 69.645,219.223 69.899 C 218.471 70.054,218.317 70.233,218.460 70.780 C 218.820 72.160,216.289 75.000,214.699 75.000 C 214.314 75.000,214.000 75.113,214.000 75.252 C 214.000 75.492,211.690 76.333,211.031 76.333 C 210.859 76.333,210.290 76.746,209.767 77.250 C 209.243 77.754,207.994 78.894,206.991 79.782 C 205.988 80.671,203.742 82.775,202.000 84.458 C 200.258 86.142,198.158 88.057,197.333 88.714 C 196.508 89.372,195.008 90.685,194.000 91.632 C 192.992 92.579,191.754 93.607,191.250 93.916 C 190.746 94.224,190.333 94.595,190.333 94.739 C 190.333 94.882,189.958 95.000,189.500 95.000 C 189.042 95.000,188.667 95.150,188.667 95.333 C 188.667 95.517,188.254 95.669,187.750 95.672 C 187.246 95.675,186.622 95.811,186.363 95.975 C 186.075 96.157,185.665 96.130,185.305 95.905 C 184.871 95.634,184.485 95.642,183.842 95.935 C 183.362 96.154,182.702 96.333,182.376 96.333 C 181.715 96.333,180.333 97.652,180.333 98.283 C 180.333 99.029,179.265 100.333,178.654 100.333 C 178.322 100.333,177.627 100.687,177.109 101.120 C 174.890 102.972,174.146 103.130,172.577 102.081 C 171.801 101.562,170.762 100.964,170.268 100.751 C 167.658 99.627,165.070 94.807,166.773 94.242 C 166.924 94.192,167.074 93.555,167.106 92.826 C 167.139 92.097,167.054 91.537,166.916 91.583 C 166.779 91.629,166.517 91.667,166.333 91.667 C 166.150 91.667,166.000 91.962,166.000 92.323 C 166.000 92.773,165.841 92.918,165.494 92.785 C 165.216 92.678,165.028 92.365,165.077 92.090 C 165.149 91.687,164.711 91.581,162.833 91.545 C 159.267 91.476,159.100 91.825,158.382 100.833 C 158.200 103.124,157.838 105.126,157.419 106.167 C 157.050 107.083,156.637 108.644,156.502 109.634 C 156.367 110.625,156.047 111.937,155.791 112.551 C 155.534 113.165,155.420 113.667,155.536 113.667 C 155.653 113.667,155.562 113.892,155.333 114.167 C 155.105 114.442,155.030 114.667,155.167 114.667 C 155.303 114.667,155.253 114.862,155.055 115.101 C 154.857 115.339,154.781 115.864,154.886 116.267 C 155.025 116.799,154.930 117.000,154.539 117.000 C 154.161 117.000,154.000 117.302,154.000 118.013 C 154.000 118.571,153.700 119.615,153.333 120.333 C 152.967 121.052,152.667 121.923,152.667 122.268 C 152.667 122.613,152.383 123.720,152.036 124.728 C 151.667 125.801,151.323 127.999,151.206 130.030 C 151.096 131.939,150.860 134.625,150.682 136.000 C 150.503 137.375,150.257 139.550,150.136 140.833 C 150.015 142.117,149.773 143.345,149.600 143.564 C 149.426 143.782,149.258 144.719,149.226 145.646 C 149.193 146.573,149.086 147.332,148.988 147.332 C 148.889 147.333,148.772 147.811,148.728 148.395 C 148.683 148.980,148.416 151.117,148.134 153.145 C 147.852 155.174,147.537 157.471,147.434 158.250 C 147.331 159.029,147.107 159.667,146.937 159.667 C 146.767 159.667,146.720 159.817,146.833 160.000 C 146.947 160.183,146.872 160.333,146.667 160.333 C 146.462 160.333,146.387 160.483,146.500 160.667 C 146.613 160.850,146.538 161.000,146.333 161.000 C 146.128 161.000,146.053 161.150,146.167 161.333 C 146.280 161.517,146.205 161.667,146.000 161.667 C 145.795 161.667,145.720 161.817,145.833 162.000 C 145.947 162.183,145.883 162.333,145.691 162.333 C 145.359 162.333,144.572 164.800,144.681 165.500 C 144.736 165.853,144.789 165.852,145.833 165.476 C 146.369 165.282,146.421 165.320,146.099 165.669 C 145.878 165.907,145.241 166.089,144.682 166.073 C 143.563 166.042,143.391 166.564,143.996 168.156 C 144.196 168.683,144.207 169.246,144.024 169.594 C 143.714 170.181,142.863 173.051,142.469 174.833 C 142.153 176.262,138.704 184.331,137.959 185.385 C 137.615 185.871,137.333 186.348,137.333 186.444 C 137.333 187.139,133.515 194.833,131.719 197.756 C 130.957 198.997,130.333 200.110,130.333 200.230 C 130.333 200.349,130.124 200.684,129.867 200.974 C 129.386 201.517,128.408 203.180,127.207 205.500 C 126.827 206.233,125.295 208.421,123.802 210.362 C 122.309 212.303,120.826 214.289,120.507 214.776 C 120.188 215.263,119.792 215.578,119.628 215.476 C 119.463 215.374,119.239 215.525,119.129 215.810 C 119.020 216.096,118.796 216.247,118.632 216.145 C 118.468 216.044,118.333 216.193,118.333 216.477 C 118.333 217.134,117.317 218.333,116.759 218.333 C 116.525 218.333,116.333 218.616,116.333 218.961 C 116.333 219.306,116.049 219.663,115.701 219.754 C 115.354 219.845,114.812 220.462,114.498 221.124 C 114.183 221.787,113.398 222.793,112.752 223.360 C 110.881 225.003,105.000 231.929,105.000 232.490 C 105.000 232.770,104.850 233.000,104.667 233.000 C 104.483 233.000,104.333 233.225,104.333 233.500 C 104.333 233.775,104.210 234.000,104.060 234.000 C 103.910 234.000,103.183 234.516,102.446 235.148 C 101.326 236.106,101.028 236.223,100.636 235.858 C 99.853 235.129,96.594 234.642,96.000 235.165 C 95.725 235.407,95.129 235.657,94.675 235.720 C 94.221 235.782,93.690 236.155,93.495 236.548 C 93.300 236.941,92.974 237.466,92.770 237.714 C 92.128 238.496,92.143 239.568,92.805 240.301 C 93.434 240.997,93.434 241.017,92.772 241.753 C 92.099 242.502,90.000 246.064,90.000 246.457 C 90.000 246.572,90.366 246.667,90.814 246.667 C 91.261 246.667,91.720 246.816,91.833 246.999 C 91.962 247.209,92.386 247.151,92.984 246.842 C 94.420 246.099,96.850 245.768,96.477 246.366 C 96.317 246.623,96.160 246.999,96.129 247.203 C 96.098 247.406,95.607 248.216,95.036 249.003 C 94.466 249.790,94.000 250.567,94.000 250.731 C 94.000 251.041,96.603 254.706,97.034 255.003 C 97.730 255.483,97.735 257.056,97.042 257.542 C 96.652 257.814,96.333 258.244,96.333 258.496 C 96.333 259.867,93.585 258.991,92.970 257.424 C 92.481 256.177,91.945 256.055,91.021 256.979 C 90.666 257.334,90.325 257.474,90.263 257.289 C 90.199 257.098,87.974 257.686,85.136 258.643 C 82.377 259.573,79.892 260.333,79.614 260.333 C 78.494 260.333,78.038 262.756,78.705 265.157 C 79.189 266.902,78.405 268.477,76.755 269.074 C 75.988 269.351,75.466 269.834,75.171 270.541 L 74.731 271.595 72.584 271.423 C 70.929 271.290,70.243 271.377,69.594 271.803 C 69.130 272.106,67.982 272.446,67.042 272.557 C 66.102 272.668,65.333 272.914,65.333 273.102 C 65.333 273.290,65.239 273.350,65.124 273.236 C 64.778 272.889,62.957 273.994,63.207 274.399 C 63.344 274.620,63.285 274.676,63.062 274.538 C 62.500 274.191,61.667 276.486,61.667 278.378 C 61.667 280.550,62.846 282.918,64.000 283.062 C 64.725 283.153,64.835 283.334,64.843 284.453 C 64.854 285.807,64.107 287.192,63.785 286.417 C 63.535 285.816,63.000 285.904,63.000 286.545 C 63.000 286.845,62.663 287.431,62.250 287.847 C 60.645 289.466,60.548 289.673,61.175 290.132 C 63.246 291.646,57.724 295.345,55.606 293.862 C 54.534 293.111,50.000 293.105,50.000 293.854 C 50.000 294.165,49.765 294.336,49.417 294.278 C 49.096 294.225,48.008 294.730,47.000 295.401 C 45.992 296.072,44.792 296.781,44.333 296.978 C 43.875 297.175,42.825 297.850,42.000 298.479 C 41.175 299.108,40.355 299.632,40.177 299.645 C 39.468 299.693,38.333 301.473,38.333 302.536 C 38.333 303.864,38.980 305.396,39.471 305.232 C 39.666 305.167,40.094 305.454,40.422 305.870 C 40.749 306.287,41.313 306.721,41.675 306.836 C 42.037 306.951,42.333 307.249,42.333 307.499 C 42.333 307.749,42.666 308.002,43.072 308.060 C 43.821 308.168,44.144 308.642,45.299 311.333 C 45.950 312.851,47.118 314.193,47.960 314.392 C 48.648 314.554,50.000 315.961,50.000 316.515 C 50.000 317.146,53.207 317.210,53.418 316.583 C 53.529 316.253,53.666 316.255,54.079 316.596 C 54.945 317.311,57.019 316.989,57.435 316.076 C 58.355 314.058,64.667 317.540,64.667 320.065 C 64.667 320.447,64.929 320.959,65.250 321.203 C 65.931 321.720,67.470 321.825,67.167 321.333 C 66.896 320.896,67.110 320.913,68.222 321.417 C 69.373 321.938,70.667 323.115,70.667 323.641 C 70.667 323.860,70.794 323.960,70.950 323.864 C 71.106 323.768,71.735 324.059,72.348 324.511 C 73.483 325.348,75.127 325.603,75.500 325.000 C 75.613 324.817,76.054 324.667,76.479 324.667 C 76.904 324.667,77.449 324.429,77.690 324.138 C 77.999 323.766,78.431 323.671,79.148 323.815 C 81.416 324.273,81.438 324.263,81.919 322.583 C 82.168 321.712,82.513 321.000,82.686 321.000 C 82.859 321.000,83.000 320.700,83.000 320.333 C 83.000 319.967,83.150 319.667,83.333 319.667 C 83.519 319.667,83.667 318.772,83.667 317.650 C 83.667 315.841,83.726 315.667,84.240 315.954 C 84.634 316.175,85.101 316.126,85.740 315.796 C 86.250 315.532,86.667 315.421,86.667 315.550 C 86.667 315.678,87.042 315.431,87.500 315.000 L 88.333 314.217 89.167 315.000 C 89.625 315.431,90.000 315.992,90.000 316.249 C 90.000 316.915,90.844 317.667,91.591 317.667 C 91.943 317.667,92.502 317.967,92.833 318.333 C 93.165 318.700,93.800 319.000,94.243 319.000 C 94.952 319.000,95.037 319.130,94.942 320.072 C 94.844 321.041,94.946 321.180,96.000 321.511 C 96.642 321.712,98.067 322.302,99.167 322.820 C 100.267 323.339,101.531 323.785,101.977 323.812 C 102.422 323.839,102.847 324.042,102.921 324.264 C 103.135 324.905,104.546 324.736,106.927 323.784 C 108.418 323.187,109.175 323.025,109.261 323.284 C 109.331 323.494,109.714 323.670,110.111 323.674 C 111.352 323.687,112.321 324.724,112.599 326.338 C 112.892 328.036,112.453 327.945,118.103 327.475 C 121.061 327.229,121.636 327.570,121.656 329.583 C 121.667 330.664,122.451 331.142,122.751 330.250 C 122.855 329.941,123.013 329.928,123.362 330.201 C 124.022 330.715,127.871 330.812,128.174 330.322 C 128.306 330.107,128.921 329.720,129.541 329.462 C 131.068 328.824,131.013 327.861,129.324 325.617 C 126.909 322.408,126.201 320.333,127.520 320.333 C 128.332 320.333,128.161 317.522,127.315 316.957 C 126.647 316.512,126.658 316.486,127.731 315.952 C 130.255 314.697,132.036 314.000,132.720 314.000 C 133.120 314.000,133.736 313.737,134.090 313.417 C 134.716 312.847,139.713 311.938,140.551 312.241 C 141.044 312.419,140.914 313.480,140.191 315.167 C 139.764 316.164,139.676 316.955,139.841 318.302 C 140.207 321.295,140.328 321.364,143.139 320.167 C 144.678 319.512,147.996 319.773,149.696 320.683 C 150.500 321.113,151.358 321.082,152.431 320.583 C 153.420 320.124,153.467 319.962,153.040 318.473 C 152.754 317.474,152.781 317.441,154.207 317.060 C 155.303 316.766,155.667 316.506,155.667 316.014 C 155.667 315.654,155.914 315.166,156.216 314.930 C 156.517 314.693,158.101 313.165,159.734 311.533 C 162.364 308.906,162.724 308.649,162.890 309.283 C 163.006 309.724,163.342 310.000,163.765 310.000 C 165.203 310.000,166.667 310.772,166.667 311.531 C 166.667 312.243,167.464 312.832,167.988 312.507 C 168.545 312.163,167.889 315.531,167.266 316.215 C 166.620 316.926,166.614 317.137,167.164 319.798 C 167.363 320.761,167.362 320.762,166.527 320.215 C 166.067 319.913,165.376 319.667,164.992 319.667 C 164.608 319.667,164.387 319.517,164.500 319.333 C 164.781 318.879,163.557 318.912,162.516 319.387 C 161.855 319.688,161.667 320.018,161.667 320.875 C 161.667 321.936,162.610 322.945,163.123 322.433 C 163.239 322.317,163.333 322.416,163.333 322.654 C 163.333 322.981,163.754 323.029,165.083 322.852 C 169.351 322.285,169.667 322.270,169.667 322.633 C 169.667 322.835,170.042 323.000,170.500 323.000 C 170.958 323.000,171.333 322.850,171.333 322.667 C 171.333 321.988,173.536 322.318,174.278 323.108 C 174.679 323.534,174.905 323.984,174.781 324.108 C 174.657 324.232,174.739 324.333,174.964 324.333 C 175.189 324.333,175.288 324.470,175.185 324.637 C 174.894 325.107,175.308 325.889,175.848 325.889 C 176.115 325.889,176.333 325.764,176.333 325.611 C 176.333 325.458,176.554 325.333,176.824 325.333 C 177.093 325.333,178.031 324.261,178.907 322.950 C 180.104 321.160,180.913 320.340,182.160 319.653 C 183.073 319.150,183.915 318.535,184.030 318.286 C 184.145 318.037,184.470 317.383,184.752 316.833 C 185.186 315.988,185.195 315.768,184.808 315.412 C 184.039 314.703,185.386 312.374,186.583 312.344 C 186.813 312.338,186.976 312.446,186.947 312.583 C 186.755 313.493,187.486 314.000,188.990 314.000 L 190.575 314.000 191.647 316.995 L 192.718 319.990 191.293 322.798 L 189.868 325.607 191.017 326.910 C 193.088 329.259,193.624 329.951,194.127 330.923 C 194.400 331.450,194.867 332.084,195.165 332.332 C 195.586 332.682,195.691 333.300,195.633 335.097 C 195.551 337.616,195.629 337.737,197.606 338.160 C 198.396 338.329,198.873 338.250,199.277 337.884 C 200.962 336.359,202.951 336.622,205.452 338.701 C 205.610 338.831,205.474 340.059,205.151 341.428 C 204.418 344.540,204.588 345.110,206.189 344.894 C 206.842 344.806,207.452 344.660,207.543 344.569 C 207.634 344.478,208.561 344.607,209.604 344.856 C 213.148 345.703,215.667 345.202,215.667 343.648 C 215.667 343.304,217.006 343.367,218.000 343.758 C 218.275 343.866,219.399 344.205,220.499 344.510 L 222.498 345.066 223.665 343.739 C 224.317 343.000,225.382 342.238,226.072 342.017 C 226.754 341.800,227.675 341.190,228.120 340.661 C 229.129 339.462,231.114 339.746,231.464 341.140 C 231.573 341.577,232.427 342.484,233.361 343.155 L 235.059 344.374 234.969 346.437 C 234.794 350.456,235.099 351.169,237.273 351.845 C 238.314 352.169,239.945 352.786,240.895 353.217 C 241.846 353.648,242.778 354.000,242.967 354.000 C 243.315 354.000,243.910 354.893,243.964 355.500 C 244.023 356.144,245.062 357.105,245.294 356.730 C 245.438 356.497,245.692 356.479,246.009 356.679 C 246.724 357.131,251.788 357.079,252.253 356.614 C 252.545 356.322,252.763 356.332,253.153 356.655 C 253.435 356.890,253.667 356.996,253.667 356.891 C 253.667 356.787,254.117 356.858,254.667 357.050 C 255.782 357.439,255.906 357.808,255.167 358.548 C 254.515 359.199,254.531 359.667,255.204 359.667 C 255.612 359.667,255.707 359.908,255.596 360.667 C 255.467 361.539,255.550 361.667,256.244 361.667 C 256.689 361.667,256.949 361.520,256.833 361.333 C 256.716 361.144,256.997 361.000,257.480 361.000 C 257.949 361.000,258.333 360.850,258.333 360.667 C 258.333 360.483,258.633 360.333,259.000 360.333 C 259.384 360.333,259.667 360.111,259.667 359.809 C 259.667 358.967,260.781 359.407,260.999 360.335 C 261.108 360.796,261.610 361.366,262.126 361.615 C 263.051 362.061,263.053 362.067,262.362 362.551 C 261.980 362.819,261.667 363.236,261.667 363.478 C 261.667 363.721,261.254 364.098,260.750 364.317 C 258.340 365.365,257.785 367.636,259.850 368.000 C 260.370 368.092,260.776 368.242,260.751 368.333 C 260.451 369.460,260.073 370.055,259.869 369.724 C 259.736 369.509,259.203 369.333,258.685 369.333 C 257.552 369.333,257.011 371.109,257.972 371.671 C 258.263 371.841,258.330 371.984,258.122 371.990 C 257.643 372.003,257.318 373.185,257.691 373.558 C 258.264 374.130,257.473 374.765,256.702 374.352 C 255.644 373.786,254.642 375.256,254.953 376.921 C 254.996 377.153,254.799 377.674,254.516 378.079 C 253.814 379.081,253.868 379.554,254.711 379.775 C 255.281 379.924,255.372 380.112,255.171 380.730 C 255.034 381.154,254.938 381.977,254.959 382.560 C 254.985 383.296,254.702 383.942,254.033 384.678 C 252.198 386.697,251.831 387.168,251.250 388.247 C 250.345 389.928,250.472 390.667,251.667 390.667 C 252.217 390.667,252.667 390.517,252.667 390.333 C 252.667 390.150,252.967 390.000,253.333 390.000 C 253.700 390.000,254.000 390.215,254.000 390.478 C 254.000 390.740,253.700 391.050,253.333 391.167 C 252.890 391.307,252.662 391.678,252.653 392.272 C 252.646 392.766,252.197 393.684,251.653 394.321 C 250.628 395.520,250.386 396.333,251.056 396.333 C 251.957 396.333,250.875 396.805,249.577 396.978 C 248.274 397.152,248.159 397.249,248.062 398.256 C 247.942 399.505,246.865 400.711,244.874 401.830 C 243.351 402.685,243.082 403.299,243.033 406.032 C 243.000 407.925,243.721 410.000,244.413 410.000 C 244.614 410.000,244.679 410.099,244.558 410.219 C 244.175 410.603,245.051 411.333,245.894 411.333 C 246.350 411.333,246.616 411.479,246.500 411.667 C 246.380 411.861,246.712 412.000,247.294 412.000 C 248.504 412.000,248.826 412.420,248.283 413.290 C 247.965 413.799,247.964 414.232,248.277 415.276 C 248.640 416.488,248.600 416.757,247.844 418.179 C 246.720 420.292,247.317 420.934,249.487 419.945 C 250.146 419.645,250.517 419.652,251.126 419.978 C 252.177 420.540,253.144 420.316,253.264 419.481 C 253.318 419.108,253.730 418.374,254.181 417.850 C 254.631 417.325,255.000 416.770,255.000 416.615 C 255.000 416.460,255.317 416.333,255.706 416.333 C 256.247 416.333,256.371 416.488,256.237 417.000 C 256.141 417.367,256.207 417.667,256.384 417.667 C 256.561 417.667,256.613 417.817,256.500 418.000 C 256.387 418.183,256.462 418.333,256.667 418.333 C 256.872 418.333,256.947 418.483,256.833 418.667 C 256.545 419.133,257.116 419.084,257.600 418.600 C 257.846 418.354,258.000 418.334,258.000 418.549 C 258.000 419.840,260.580 420.721,261.917 419.887 C 262.180 419.723,262.333 419.811,262.333 420.127 C 262.333 421.122,263.119 421.111,263.976 420.105 C 265.146 418.730,266.834 418.289,266.547 419.433 C 266.292 420.447,267.741 421.297,268.563 420.615 C 268.949 420.294,269.109 420.303,269.327 420.656 C 269.549 421.016,269.841 420.963,270.821 420.385 C 272.368 419.472,273.478 419.477,275.225 420.402 C 276.378 421.013,276.750 421.073,277.392 420.753 C 277.818 420.541,278.450 420.322,278.797 420.267 C 280.174 420.048,280.411 417.138,279.131 416.162 C 278.526 415.700,277.911 415.343,277.765 415.368 C 277.029 415.491,276.614 415.286,276.771 414.875 C 276.875 414.605,276.615 414.265,276.140 414.049 C 275.315 413.673,275.069 412.869,275.666 412.500 C 275.849 412.387,276.332 412.528,276.740 412.814 C 277.858 413.597,278.256 413.458,278.984 412.031 C 279.350 411.314,279.788 410.677,279.958 410.614 C 280.128 410.551,279.957 409.844,279.578 409.043 C 278.756 407.308,279.011 406.669,280.694 406.234 C 281.321 406.072,282.050 405.766,282.314 405.553 C 282.659 405.276,282.730 405.274,282.568 405.545 C 282.434 405.769,282.647 406.006,283.087 406.124 C 284.389 406.473,284.557 406.372,284.404 405.333 C 284.324 404.783,284.401 404.333,284.576 404.333 C 285.279 404.333,286.109 402.159,285.699 401.393 C 285.485 400.994,285.181 400.667,285.024 400.667 C 284.410 400.667,284.296 398.928,284.869 398.294 C 285.181 397.949,285.328 397.667,285.195 397.667 C 285.061 397.667,285.188 397.431,285.476 397.143 C 286.629 395.990,285.650 394.812,283.660 394.955 C 282.548 395.035,282.372 394.948,282.276 394.274 C 282.187 393.641,281.969 393.503,281.083 393.516 C 280.487 393.525,280.000 393.412,280.000 393.266 C 280.000 393.120,279.775 393.000,279.500 393.000 C 279.169 393.000,279.000 392.669,279.000 392.024 C 279.000 391.487,278.779 390.826,278.509 390.556 C 278.125 390.173,278.111 390.029,278.443 389.901 C 278.915 389.720,279.778 386.450,279.481 385.970 C 279.162 385.453,275.385 385.617,274.517 386.186 C 273.779 386.670,273.710 386.660,273.516 386.050 C 273.122 384.809,269.617 385.455,268.439 386.987 C 268.158 387.353,267.941 387.398,267.681 387.142 C 267.419 386.884,267.507 386.613,267.992 386.174 C 268.920 385.334,268.925 383.339,268.000 383.097 C 267.633 383.001,267.333 382.738,267.333 382.513 C 267.333 382.288,267.033 381.832,266.667 381.500 C 266.213 381.089,266.000 380.473,266.000 379.571 C 266.000 378.799,265.703 377.764,265.288 377.093 L 264.576 375.941 265.871 376.053 C 266.844 376.137,267.170 376.040,267.182 375.665 C 267.190 375.391,267.378 375.204,267.598 375.250 C 267.819 375.296,268.000 375.188,268.000 375.010 C 268.000 374.184,269.032 375.235,269.994 377.039 C 270.829 378.606,271.152 378.955,271.499 378.668 C 271.804 378.414,272.007 378.409,272.157 378.650 C 272.696 379.523,274.667 377.016,274.667 375.458 C 274.667 374.966,275.714 372.878,276.086 372.629 C 276.253 372.517,276.377 372.330,276.362 372.213 C 276.278 371.588,276.367 371.333,276.670 371.333 C 276.854 371.333,277.627 370.883,278.386 370.333 C 279.145 369.783,280.021 369.333,280.332 369.333 C 280.951 369.333,281.897 368.416,282.482 367.248 C 282.688 366.836,283.171 366.495,283.557 366.489 C 284.392 366.476,285.402 365.714,285.141 365.293 C 284.766 364.686,285.381 363.667,286.123 363.667 C 286.983 363.667,288.660 362.952,288.664 362.583 C 288.665 362.446,289.033 362.333,289.480 362.333 C 289.928 362.333,290.387 362.183,290.500 362.000 C 290.613 361.817,291.111 361.667,291.605 361.667 C 292.405 361.667,293.753 359.944,293.286 359.519 C 293.221 359.460,292.614 359.039,291.939 358.585 L 290.711 357.760 292.355 356.990 C 294.240 356.107,294.271 356.038,293.229 355.058 C 292.128 354.024,288.945 355.030,287.198 356.964 C 286.782 357.425,286.161 357.667,285.393 357.667 C 284.749 357.667,284.320 357.569,284.439 357.450 C 284.559 357.330,284.445 357.068,284.188 356.866 C 283.322 356.189,283.328 350.667,284.194 350.667 C 285.287 350.667,285.337 350.375,284.507 348.814 C 284.080 348.011,283.829 347.368,283.949 347.384 C 284.800 347.496,285.333 347.247,285.333 346.737 C 285.333 346.410,286.083 345.403,287.000 344.500 C 287.917 343.597,288.667 342.659,288.667 342.415 C 288.667 342.172,288.982 341.641,289.367 341.236 C 290.103 340.462,292.000 336.815,292.000 336.174 C 292.000 334.977,292.866 334.005,293.936 334.003 C 294.628 334.001,294.958 333.868,294.821 333.647 C 294.701 333.453,295.441 332.515,296.466 331.563 L 298.329 329.833 297.833 328.203 C 297.560 327.306,297.168 326.370,296.963 326.122 C 296.674 325.774,296.762 325.529,297.347 325.056 C 298.186 324.377,297.998 323.667,296.980 323.667 C 296.382 323.667,296.112 323.031,296.344 322.167 C 296.534 321.459,296.703 319.791,296.677 318.876 C 296.662 318.345,296.895 317.740,297.200 317.516 C 297.644 317.192,297.678 316.977,297.375 316.411 C 297.127 315.948,297.113 315.636,297.332 315.501 C 297.899 315.150,297.703 313.044,296.969 311.605 C 296.446 310.580,296.351 310.060,296.592 309.532 C 296.823 309.024,296.785 308.707,296.456 308.400 C 296.205 308.166,296.000 307.385,296.000 306.667 C 296.000 305.266,295.040 304.000,293.978 304.000 C 293.192 304.000,292.833 303.460,292.136 301.226 C 291.642 299.646,291.282 299.119,290.197 298.390 C 289.459 297.895,288.577 296.901,288.220 296.164 C 287.781 295.257,287.167 294.639,286.288 294.223 C 284.889 293.559,284.387 291.640,285.500 291.213 C 285.775 291.107,286.000 290.729,286.000 290.371 C 286.000 290.014,286.288 289.050,286.640 288.230 C 287.400 286.455,287.008 285.534,285.333 285.167 C 284.783 285.046,284.333 284.798,284.333 284.616 C 284.333 284.434,283.996 284.323,283.583 284.369 C 281.135 284.642,278.263 282.457,279.349 281.148 C 279.669 280.762,279.678 280.545,279.386 280.253 C 278.727 279.593,278.911 278.333,279.667 278.333 C 280.111 278.333,280.333 278.111,280.333 277.667 C 280.333 277.300,280.183 277.000,280.000 277.000 C 279.817 277.000,279.667 276.700,279.667 276.333 C 279.667 275.967,279.507 275.667,279.311 275.667 C 279.116 275.667,278.441 275.274,277.811 274.794 C 277.182 274.314,276.664 274.051,276.662 274.210 C 276.659 274.370,276.521 274.286,276.355 274.024 C 276.138 273.681,275.491 273.571,274.027 273.631 C 271.391 273.739,271.155 272.673,273.596 271.685 C 275.216 271.030,275.966 269.267,274.905 268.609 C 274.651 268.451,274.670 268.231,274.967 267.873 C 275.448 267.293,275.196 266.667,274.480 266.667 C 274.181 266.667,273.996 266.321,273.989 265.750 C 273.978 264.778,272.659 263.007,271.933 262.989 C 271.675 262.983,271.769 262.773,272.167 262.470 C 272.794 261.991,272.799 261.942,272.244 261.628 C 271.113 260.987,272.069 260.183,273.834 260.291 C 275.572 260.398,277.177 259.881,278.127 258.909 C 278.634 258.390,278.811 258.353,279.058 258.717 C 279.300 259.073,279.472 259.011,279.889 258.417 C 280.178 258.004,280.713 257.667,281.077 257.667 C 281.612 257.667,281.700 257.511,281.535 256.854 C 281.236 255.662,281.961 255.441,282.787 256.473 C 283.508 257.373,285.552 257.958,289.750 258.463 L 291.333 258.654 291.333 256.827 C 291.333 255.822,291.206 255.000,291.051 255.000 C 290.488 255.000,289.484 253.799,288.757 252.255 L 288.014 250.677 288.956 250.190 C 289.987 249.656,290.725 249.762,292.582 250.709 C 293.528 251.191,293.644 251.333,293.090 251.333 C 291.914 251.333,291.932 251.871,293.144 252.935 C 293.771 253.486,294.196 254.026,294.087 254.135 C 293.908 254.314,294.791 254.472,295.417 254.373 C 295.554 254.351,295.667 254.468,295.667 254.632 C 295.667 254.937,297.616 254.610,298.294 254.191 C 298.499 254.064,298.667 254.120,298.667 254.314 C 298.667 254.765,300.092 254.775,300.541 254.326 C 300.907 253.960,303.369 254.792,303.287 255.254 C 303.097 256.338,303.812 257.704,304.464 257.500 C 306.107 256.985,306.756 256.933,307.441 257.260 C 307.840 257.450,308.429 257.690,308.750 257.793 C 309.094 257.903,309.333 258.311,309.333 258.788 C 309.333 259.468,309.533 259.626,310.583 259.779 C 311.271 259.880,312.321 260.063,312.917 260.186 C 314.112 260.432,314.395 259.694,313.644 258.290 C 313.383 257.804,313.396 257.493,313.689 257.140 C 314.085 256.663,313.050 255.333,312.282 255.333 C 312.127 255.333,312.000 254.966,312.000 254.517 C 312.000 253.533,313.795 253.927,314.628 255.094 C 314.983 255.591,315.346 255.698,316.207 255.558 C 316.889 255.447,317.424 255.530,317.579 255.772 C 318.165 256.681,319.365 257.075,319.949 256.549 C 320.252 256.275,320.912 255.949,321.417 255.823 C 321.921 255.697,322.333 255.366,322.333 255.086 C 322.333 254.443,323.592 253.333,324.321 253.333 C 324.626 253.333,325.196 253.033,325.590 252.667 C 325.983 252.300,326.674 252.000,327.125 252.000 C 327.576 252.000,327.994 251.887,328.056 251.750 C 328.163 251.508,329.168 250.992,331.717 249.869 C 332.386 249.575,333.308 249.333,333.765 249.333 C 334.222 249.333,334.679 249.116,334.781 248.851 C 335.512 246.945,338.869 246.818,340.510 248.633 C 341.872 250.142,342.376 250.285,343.260 249.417 C 343.587 249.096,344.285 248.608,344.813 248.333 C 345.340 248.058,345.841 247.571,345.925 247.250 C 346.009 246.929,346.323 246.658,346.622 246.647 C 347.626 246.611,349.333 243.454,349.333 241.633 L 349.333 240.008 350.695 239.790 C 352.215 239.547,353.143 238.343,352.391 237.591 C 352.176 237.376,352.000 236.701,352.000 236.092 C 352.000 235.243,351.821 234.915,351.236 234.693 C 350.816 234.533,350.274 234.164,350.032 233.872 C 349.789 233.580,349.457 233.424,349.293 233.525 C 349.129 233.626,348.906 233.475,348.796 233.190 C 348.686 232.904,348.463 232.753,348.298 232.855 C 348.134 232.956,348.000 232.913,348.000 232.758 C 348.000 232.604,347.541 232.206,346.980 231.875 C 346.419 231.543,345.820 230.903,345.648 230.452 C 345.255 229.418,342.176 228.000,340.324 228.000 C 338.992 228.000,338.263 226.161,339.333 225.500 C 339.517 225.387,339.667 225.003,339.667 224.647 C 339.667 224.191,339.897 224.000,340.447 224.000 C 341.849 224.000,344.516 222.269,344.397 221.436 C 344.339 221.035,344.512 220.360,344.780 219.936 C 345.048 219.513,345.370 218.679,345.494 218.083 L 345.720 217.000 349.461 217.000 L 353.203 217.000 354.347 215.819 C 354.977 215.169,355.499 214.457,355.507 214.236 C 355.592 211.853,357.106 209.000,358.285 209.000 C 358.470 209.000,358.712 208.716,358.822 208.369 C 359.048 207.657,359.930 207.345,361.730 207.338 C 363.020 207.333,363.283 207.129,363.509 205.956 C 363.584 205.563,363.899 204.963,364.208 204.621 C 364.517 204.279,364.653 204.000,364.511 204.000 C 364.368 204.000,364.456 203.754,364.705 203.454 C 364.955 203.153,365.111 202.541,365.052 202.093 C 364.855 200.594,365.759 200.057,368.156 200.250 C 372.329 200.585,373.597 198.904,371.333 196.040 C 370.574 195.079,370.000 193.990,370.000 193.510 C 370.000 193.046,369.850 192.667,369.667 192.667 C 368.818 192.667,369.556 188.802,370.654 187.500 C 370.964 187.133,371.418 186.158,371.664 185.333 C 371.910 184.508,372.386 183.366,372.722 182.794 C 373.588 181.322,373.559 177.748,372.667 176.000 C 372.300 175.281,372.000 174.371,372.000 173.977 C 372.000 173.359,371.845 173.278,370.868 173.393 C 369.804 173.517,369.683 173.424,368.844 171.846 C 368.354 170.922,367.664 169.642,367.310 169.000 C 366.957 168.358,366.667 167.421,366.667 166.917 C 366.667 166.412,366.527 166.000,366.355 166.000 C 366.184 166.000,365.997 165.603,365.939 165.117 C 365.686 162.997,363.853 163.286,363.000 165.580 C 362.117 167.953,361.022 168.749,359.204 168.342 C 355.754 167.569,353.157 166.502,353.272 165.907 C 353.372 165.388,352.967 165.333,349.039 165.333 C 344.351 165.333,344.011 165.227,340.241 162.588 C 339.650 162.174,339.127 161.821,339.079 161.803 C 339.032 161.785,339.154 160.607,339.352 159.185 C 339.694 156.725,339.674 156.542,338.928 155.384 C 337.420 153.040,337.224 152.308,338.202 152.680 C 339.598 153.211,340.011 153.055,340.536 151.798 C 341.059 150.546,341.146 150.526,343.246 151.178 C 344.392 151.533,344.668 150.410,343.639 149.579 C 343.196 149.222,342.247 148.417,341.531 147.790 L 340.229 146.652 340.668 144.327 C 341.074 142.177,341.060 141.952,340.489 141.321 C 339.884 140.653,339.887 140.634,340.615 140.443 C 341.025 140.336,341.583 139.818,341.855 139.291 C 342.229 138.569,342.589 138.333,343.322 138.333 C 343.857 138.333,344.387 138.183,344.500 138.000 C 344.793 137.526,347.786 137.586,348.275 138.075 C 348.597 138.397,348.821 138.397,349.337 138.075 C 349.697 137.850,350.713 137.667,351.595 137.667 C 352.478 137.667,353.380 137.487,353.600 137.267 C 353.911 136.956,354.000 136.956,354.000 137.267 C 354.000 137.495,354.465 137.669,355.083 137.671 C 356.752 137.678,357.728 138.027,357.529 138.544 C 357.301 139.139,362.662 139.204,363.253 138.614 C 363.545 138.322,363.755 138.325,364.117 138.626 C 364.381 138.844,364.725 138.983,364.882 138.934 C 365.038 138.884,366.031 139.053,367.087 139.309 C 370.782 140.205,370.814 140.069,371.276 121.500 L 371.500 112.500 372.467 110.855 C 373.314 109.414,373.387 109.089,373.060 108.223 C 372.674 107.200,373.085 106.037,374.333 104.618 C 374.608 104.306,375.283 103.176,375.833 102.108 C 376.383 101.040,376.909 100.092,377.001 100.000 C 377.729 99.276,380.970 93.618,381.179 92.706 C 381.247 92.409,381.609 90.920,381.985 89.396 C 382.360 87.871,382.668 86.371,382.669 86.062 C 382.670 85.753,382.895 85.070,383.169 84.545 C 383.821 83.294,383.791 82.349,383.000 79.333 C 382.502 77.434,382.343 75.722,382.339 72.206 C 382.333 67.501,381.991 66.333,380.616 66.333 C 380.216 66.333,380.263 63.749,380.667 63.500 C 380.850 63.387,381.000 62.788,381.000 62.169 C 381.000 60.036,382.053 58.369,383.417 58.344 C 384.153 58.331,384.172 57.796,383.450 57.392 C 383.015 57.148,382.890 56.504,382.849 54.292 C 382.803 51.750,382.544 49.653,382.113 48.333 C 381.982 47.931,381.833 47.977,381.350 48.569 L 380.750 49.304 379.471 48.652 C 378.768 48.293,377.783 48.000,377.283 48.000 C 376.782 48.000,376.280 47.850,376.167 47.667 C 376.053 47.483,375.291 47.333,374.471 47.333 C 372.046 47.333,369.180 43.884,371.079 43.251 C 371.406 43.142,371.407 42.927,371.084 42.219 C 370.731 41.443,370.765 41.235,371.338 40.662 C 372.849 39.151,371.893 37.702,370.242 39.000 C 369.037 39.948,365.615 39.948,364.667 39.000 C 364.300 38.633,363.769 38.333,363.487 38.333 C 363.204 38.333,362.374 38.028,361.642 37.654 C 360.910 37.280,360.164 37.065,359.986 37.176 C 359.438 37.514,358.333 36.989,358.333 36.390 C 358.333 36.079,358.044 35.677,357.691 35.496 C 354.603 33.915,354.025 33.250,354.012 31.270 C 354.005 30.226,353.850 29.280,353.667 29.167 C 353.483 29.053,353.333 28.232,353.333 27.341 C 353.333 25.380,353.092 24.667,352.428 24.667 C 352.036 24.667,351.971 24.396,352.128 23.417 C 352.239 22.729,352.414 21.642,352.518 21.000 C 352.685 19.963,352.556 19.688,351.357 18.519 C 350.105 17.300,349.767 17.164,347.417 16.930 C 347.188 16.908,347.000 16.764,347.000 16.611 C 347.000 16.030,345.682 16.366,345.186 17.074 C 344.900 17.482,344.667 17.662,344.667 17.474 C 344.667 17.046,342.738 16.333,341.579 16.333 C 341.099 16.333,340.613 16.183,340.500 16.000 C 340.252 15.599,339.996 15.594,339.333 15.973 M277.889 17.889 C 277.498 18.279,277.651 20.272,278.083 20.427 C 278.941 20.735,279.667 19.999,279.667 18.822 C 279.667 17.697,278.627 17.151,277.889 17.889 M231.167 19.333 C 230.800 19.491,230.083 19.630,229.573 19.643 C 228.685 19.666,225.233 20.682,223.833 21.333 C 223.467 21.504,222.342 21.936,221.333 22.294 C 220.325 22.653,218.031 23.483,216.236 24.139 C 214.441 24.796,212.388 25.333,211.673 25.333 C 210.958 25.333,210.284 25.477,210.176 25.652 C 210.067 25.827,209.774 25.892,209.524 25.797 C 209.274 25.701,208.417 25.805,207.618 26.028 C 206.820 26.251,205.855 26.473,205.475 26.521 C 203.478 26.774,200.655 28.786,200.932 29.759 C 200.973 29.902,200.780 30.105,200.503 30.212 C 200.226 30.318,200.000 30.549,200.000 30.725 C 200.000 30.901,199.625 31.536,199.167 32.137 C 198.137 33.486,198.133 33.749,199.122 34.816 C 200.105 35.877,202.063 35.998,202.735 35.040 C 202.976 34.695,203.472 34.355,203.837 34.285 C 204.202 34.215,204.500 33.985,204.500 33.773 C 204.500 33.151,204.973 32.853,205.994 32.833 C 206.520 32.823,207.263 32.532,207.644 32.187 C 208.319 31.576,210.333 31.249,210.333 31.750 C 210.333 32.212,211.225 32.005,211.953 31.374 C 212.379 31.004,213.073 30.783,213.651 30.832 C 214.235 30.882,214.698 30.731,214.803 30.458 C 214.900 30.206,215.254 30.000,215.591 30.000 C 215.927 30.000,216.719 29.463,217.351 28.807 C 219.012 27.083,220.269 26.667,223.810 26.667 C 226.961 26.667,228.990 26.034,227.585 25.489 C 226.892 25.220,227.134 24.667,227.946 24.667 C 228.261 24.667,228.775 24.367,229.089 24.000 C 229.486 23.536,230.073 23.333,231.016 23.333 C 232.100 23.333,232.556 23.131,233.297 22.320 C 234.156 21.379,234.221 21.359,234.195 22.036 C 234.179 22.437,234.354 22.831,234.583 22.911 C 235.251 23.143,235.105 20.854,234.417 20.302 C 232.876 19.065,232.236 18.874,231.167 19.333 M189.383 41.171 C 188.585 41.627,187.751 42.000,187.531 42.000 C 186.869 42.000,182.155 45.199,180.175 46.993 C 179.158 47.913,178.170 48.667,177.980 48.667 C 177.789 48.667,177.127 49.159,176.507 49.761 C 175.887 50.363,174.463 51.293,173.342 51.829 L 171.303 52.804 171.402 54.485 C 171.494 56.072,171.555 56.173,172.481 56.278 C 173.299 56.371,173.396 56.311,173.067 55.914 C 172.466 55.189,172.915 55.000,175.239 55.000 C 177.586 55.000,179.166 54.385,179.497 53.344 C 179.613 52.979,179.811 52.709,179.937 52.745 C 180.482 52.900,183.004 50.724,183.639 49.552 C 184.495 47.971,184.497 47.879,183.667 48.097 C 183.283 48.197,183.002 48.108,183.005 47.885 C 183.011 47.434,183.654 46.361,183.662 46.791 C 183.664 46.951,183.915 46.876,184.218 46.624 C 184.521 46.373,184.821 46.204,184.885 46.250 C 184.948 46.296,185.075 46.315,185.167 46.292 C 185.258 46.269,185.446 46.224,185.583 46.192 C 187.455 45.757,190.229 44.418,190.450 43.843 C 190.575 43.519,191.074 43.333,191.823 43.333 C 192.939 43.333,194.333 42.427,194.333 41.703 C 194.333 41.389,191.939 40.331,191.243 40.337 C 191.018 40.340,190.181 40.715,189.383 41.171 M195.519 42.647 C 194.487 43.724,194.531 44.935,195.586 44.492 C 195.905 44.357,196.542 44.173,197.000 44.082 C 197.963 43.891,199.727 42.367,199.468 41.949 C 199.014 41.214,196.459 41.666,195.519 42.647 M206.131 49.194 C 206.242 49.484,206.333 49.784,206.333 49.861 C 206.333 50.293,208.621 49.933,208.798 49.473 C 209.106 48.668,209.103 48.667,207.464 48.667 C 206.201 48.667,205.965 48.760,206.131 49.194 M170.667 59.357 C 170.667 59.554,170.442 59.939,170.167 60.214 C 169.892 60.489,169.667 60.610,169.667 60.483 C 169.667 59.791,168.449 61.440,167.512 63.402 C 166.919 64.643,166.026 65.979,165.527 66.371 C 165.029 66.764,164.178 67.998,163.638 69.114 C 163.097 70.230,162.301 71.523,161.868 71.988 C 161.163 72.745,160.464 74.361,160.160 75.937 C 160.100 76.246,160.021 76.537,159.984 76.583 C 159.947 76.629,159.885 76.779,159.846 76.917 C 159.807 77.054,159.665 77.417,159.529 77.724 C 159.393 78.030,159.244 78.480,159.197 78.724 C 159.150 78.967,158.920 79.842,158.686 80.667 C 158.280 82.092,158.353 84.904,158.863 87.545 C 159.086 88.704,159.312 88.619,154.417 89.206 L 152.667 89.416 152.667 90.656 C 152.667 91.435,152.894 92.102,153.276 92.448 C 154.074 93.171,154.114 93.163,155.350 92.034 C 155.932 91.502,156.991 90.805,157.704 90.483 C 158.417 90.162,159.000 89.772,159.000 89.616 C 159.000 89.461,159.221 89.333,159.492 89.333 C 159.763 89.333,160.475 89.034,161.075 88.668 C 161.676 88.302,162.504 88.002,162.917 88.001 C 163.329 88.001,163.667 87.850,163.667 87.667 C 163.667 87.483,163.967 87.333,164.333 87.333 C 164.700 87.333,165.000 87.194,165.000 87.023 C 165.000 86.853,165.337 86.665,165.750 86.607 C 166.252 86.535,166.538 86.232,166.615 85.686 C 166.823 84.213,168.287 82.667,169.474 82.667 C 170.527 82.667,172.667 80.957,172.667 80.116 C 172.667 79.922,173.042 79.359,173.500 78.865 C 173.958 78.370,174.333 77.616,174.333 77.188 C 174.333 76.693,174.574 76.348,174.996 76.238 C 175.984 75.979,176.333 74.643,176.333 71.123 C 176.333 69.381,176.493 67.658,176.688 67.294 C 177.059 66.601,175.993 64.296,174.872 63.366 C 174.598 63.138,174.451 62.749,174.545 62.502 C 174.749 61.972,174.191 60.801,173.234 59.750 C 172.532 58.980,170.667 58.694,170.667 59.357 M219.167 74.667 C 219.631 75.565,219.632 75.667,219.171 75.667 C 218.146 75.667,217.356 74.914,217.702 74.268 C 218.161 73.409,218.575 73.522,219.167 74.667 M217.659 77.063 C 218.030 77.830,218.333 78.880,218.333 79.396 C 218.333 80.111,218.491 80.333,219.000 80.333 C 219.554 80.333,219.667 80.556,219.667 81.644 C 219.667 82.662,219.816 83.002,220.333 83.167 C 221.069 83.400,221.305 85.439,220.644 85.847 C 220.282 86.071,220.292 88.225,220.658 88.833 C 220.768 89.017,220.905 89.617,220.962 90.167 C 221.018 90.717,221.219 91.354,221.407 91.583 C 221.643 91.872,221.634 92.000,221.374 92.000 C 221.168 92.000,221.000 92.450,221.000 93.000 C 221.000 93.552,220.704 94.296,220.340 94.660 C 219.683 95.317,219.683 95.323,220.362 96.473 C 221.394 98.223,221.145 100.048,219.828 100.387 C 218.121 100.826,216.120 103.145,216.628 104.094 C 216.856 104.521,216.996 105.083,216.938 105.344 C 216.877 105.622,217.143 105.865,217.583 105.932 C 217.996 105.995,218.333 106.186,218.333 106.357 C 218.333 106.527,218.506 106.667,218.718 106.667 C 218.930 106.667,219.616 107.267,220.244 108.000 C 221.388 109.337,225.667 110.116,225.667 108.988 C 225.667 108.750,225.867 108.750,226.311 108.988 C 226.666 109.178,227.407 109.333,227.958 109.333 C 228.510 109.333,229.055 109.485,229.170 109.671 C 229.482 110.178,231.880 111.333,232.618 111.333 C 232.972 111.333,233.348 111.558,233.454 111.833 C 233.924 113.060,236.140 111.956,237.561 109.787 C 238.006 109.108,238.303 108.977,239.054 109.128 C 239.676 109.252,240.384 109.084,241.152 108.631 C 242.471 107.853,243.000 108.012,243.000 109.186 C 243.000 109.966,243.092 110.000,245.167 110.000 C 247.510 110.000,248.286 110.743,246.331 111.115 C 245.780 111.220,245.068 111.375,244.748 111.461 C 244.428 111.546,244.054 111.627,243.917 111.641 C 243.779 111.655,243.667 111.824,243.667 112.016 C 243.667 112.207,242.986 113.520,242.153 114.932 C 240.192 118.260,239.962 118.637,239.167 119.830 C 237.718 122.003,236.793 137.667,238.113 137.667 C 238.681 137.667,240.517 139.669,240.817 140.615 C 240.942 141.010,241.185 141.333,241.356 141.333 C 241.527 141.333,241.667 141.529,241.667 141.768 C 241.667 142.007,242.174 142.757,242.795 143.435 L 243.923 144.667 251.795 144.667 L 259.667 144.667 259.667 146.506 C 259.667 148.280,259.638 148.339,258.870 148.146 C 258.431 148.036,257.973 148.108,257.850 148.306 C 256.990 149.699,245.082 147.082,243.055 145.055 C 242.368 144.368,242.215 144.335,241.723 144.761 C 241.218 145.199,236.860 146.667,236.066 146.667 C 235.683 146.667,234.105 147.955,232.291 149.750 C 231.595 150.438,230.881 151.000,230.704 151.000 C 230.527 151.000,230.087 151.375,229.726 151.833 C 229.200 152.503,228.774 152.667,227.563 152.667 C 225.581 152.667,225.000 152.920,224.998 153.786 C 224.997 154.179,224.634 154.950,224.190 155.500 L 223.384 156.500 223.912 154.589 C 224.213 153.501,224.668 152.599,224.970 152.495 C 225.261 152.395,225.935 151.956,226.468 151.520 L 227.435 150.727 226.654 148.780 C 225.645 146.264,224.387 143.936,223.774 143.447 C 223.507 143.235,223.297 142.973,223.307 142.866 C 223.338 142.521,222.175 140.171,221.917 140.056 C 221.779 139.994,221.665 139.769,221.663 139.556 C 221.658 139.032,216.054 133.501,215.793 133.762 C 215.680 133.876,215.368 133.749,215.100 133.481 C 214.832 133.213,214.475 133.079,214.306 133.183 C 214.138 133.287,214.000 133.205,214.000 133.000 C 214.000 132.795,213.863 132.712,213.695 132.816 C 213.527 132.919,213.335 132.838,213.267 132.635 C 213.200 132.433,212.587 132.267,211.906 132.267 C 210.626 132.267,210.589 132.097,211.606 130.913 C 212.060 130.384,212.039 130.251,211.388 129.558 C 210.812 128.945,210.667 128.383,210.667 126.767 C 210.667 125.147,210.551 124.701,210.083 124.525 C 209.762 124.404,208.975 124.012,208.333 123.653 C 207.686 123.292,206.536 123.001,205.750 123.001 C 204.971 123.000,204.333 122.850,204.333 122.667 C 204.333 121.705,201.966 122.353,201.289 123.500 C 199.948 125.773,195.192 123.841,195.834 121.283 C 195.998 120.631,195.861 120.372,195.157 119.995 C 194.196 119.480,194.217 118.304,195.313 111.293 C 195.487 110.175,195.424 109.580,195.083 109.126 C 194.349 108.150,192.000 103.401,192.000 102.892 C 192.000 102.642,191.704 102.168,191.341 101.840 C 190.979 101.513,190.763 101.114,190.861 100.955 C 190.959 100.797,190.872 100.667,190.667 100.667 C 190.462 100.667,190.387 100.517,190.500 100.333 C 190.613 100.150,190.538 100.000,190.333 100.000 C 190.128 100.000,190.053 99.850,190.167 99.667 C 190.280 99.483,190.205 99.333,190.000 99.333 C 189.795 99.333,189.714 99.192,189.821 99.020 C 189.927 98.848,189.809 98.515,189.558 98.280 C 188.725 97.502,189.545 96.057,191.661 94.575 C 192.038 94.310,192.908 93.585,193.593 92.964 C 194.279 92.342,195.588 91.238,196.503 90.511 C 197.418 89.783,199.323 88.020,200.737 86.594 C 202.151 85.167,203.503 84.000,203.743 84.000 C 203.983 84.000,205.748 82.425,207.667 80.500 C 210.106 78.052,211.389 77.000,211.933 77.000 C 212.360 77.000,213.010 76.840,213.377 76.644 C 213.867 76.381,214.176 76.398,214.547 76.705 C 214.846 76.954,215.142 76.997,215.275 76.812 C 215.458 76.558,216.611 75.763,216.909 75.686 C 216.950 75.675,217.288 76.295,217.659 77.063 M210.333 133.353 C 210.333 133.526,210.165 133.629,209.958 133.583 C 209.752 133.537,209.515 133.688,209.431 133.917 C 209.197 134.554,211.671 134.455,212.144 133.808 C 213.267 132.272,221.667 138.906,221.667 141.329 C 221.667 141.652,223.251 144.281,223.679 144.667 C 224.045 144.997,226.000 149.068,226.000 149.501 C 226.000 149.745,226.180 150.004,226.399 150.078 C 226.619 150.151,226.133 150.578,225.320 151.026 C 223.800 151.865,222.979 153.631,222.426 157.250 C 222.245 158.432,222.745 158.715,223.307 157.750 C 223.589 157.266,223.648 157.350,223.657 158.240 C 223.665 159.176,223.527 159.350,222.583 159.593 C 221.901 159.769,221.339 160.204,221.065 160.769 C 220.769 161.380,220.370 161.667,219.815 161.667 C 219.367 161.667,219.000 161.859,219.000 162.093 C 219.000 162.328,218.737 162.700,218.417 162.920 C 216.400 164.306,215.268 165.000,215.026 165.000 C 214.873 165.000,214.572 165.213,214.356 165.473 C 214.140 165.733,212.884 166.590,211.565 167.379 C 210.246 168.167,209.047 169.004,208.900 169.239 C 208.753 169.474,208.468 169.667,208.265 169.667 C 208.062 169.667,207.405 170.042,206.804 170.500 C 206.203 170.958,205.526 171.333,205.300 171.333 C 205.074 171.333,204.988 171.432,205.109 171.553 C 205.230 171.674,204.093 172.515,202.583 173.423 C 201.073 174.331,199.364 175.469,198.785 175.953 C 196.538 177.830,195.814 178.325,195.306 178.329 C 194.559 178.335,194.724 179.497,195.605 180.434 C 196.429 181.311,196.613 183.584,195.917 184.289 C 195.583 184.628,195.615 184.796,196.078 185.139 C 196.829 185.693,196.492 186.000,195.134 186.000 C 194.321 186.000,193.989 185.823,193.823 185.300 C 193.617 184.650,193.404 184.609,190.800 184.717 C 188.293 184.821,188.000 184.771,188.000 184.239 C 188.000 183.512,186.709 182.969,185.939 183.373 C 185.091 183.816,185.000 183.750,185.000 182.688 C 185.000 181.873,184.806 181.640,183.833 181.288 C 182.523 180.814,182.435 180.613,183.204 179.844 C 183.697 179.350,183.773 179.352,184.145 179.860 C 184.628 180.520,186.000 179.884,186.000 179.000 C 186.000 178.722,186.308 178.301,186.685 178.066 C 187.159 177.770,187.305 177.435,187.160 176.978 C 186.870 176.067,189.060 173.851,190.004 174.098 C 190.456 174.216,190.667 174.106,190.667 173.750 C 190.667 173.464,191.015 172.765,191.441 172.198 C 192.681 170.547,192.781 170.000,191.843 170.000 C 191.401 170.000,190.940 169.840,190.819 169.644 C 190.698 169.448,190.384 169.371,190.120 169.472 C 189.857 169.573,189.552 169.422,189.442 169.136 C 189.211 168.533,189.973 166.000,190.387 166.000 C 190.781 166.000,190.737 164.749,190.333 164.500 C 189.745 164.136,189.954 163.000,190.610 163.000 C 190.946 163.000,191.433 162.587,191.693 162.083 C 191.953 161.579,192.316 161.059,192.499 160.927 C 192.717 160.771,192.688 160.453,192.417 160.015 C 192.188 159.645,192.000 159.190,192.000 159.005 C 192.000 158.819,191.736 158.403,191.413 158.080 C 191.090 157.757,190.625 156.819,190.380 155.996 C 190.135 155.173,189.800 154.237,189.634 153.917 C 189.469 153.596,189.183 153.033,189.000 152.667 C 188.817 152.300,188.517 151.702,188.333 151.338 C 188.150 150.974,188.000 150.374,188.000 150.005 C 188.000 149.635,187.875 149.333,187.722 149.333 C 187.569 149.333,187.422 149.146,187.394 148.917 C 187.366 148.688,187.250 147.900,187.136 147.167 C 186.674 144.196,186.607 141.667,186.991 141.667 C 187.201 141.667,187.300 141.548,187.210 141.404 C 186.764 140.682,189.045 140.249,189.544 140.961 C 190.162 141.845,190.539 141.857,190.763 141.000 C 190.888 140.524,191.218 140.333,191.917 140.333 C 192.473 140.333,193.157 140.621,193.500 141.000 C 193.832 141.367,194.302 141.667,194.544 141.667 C 194.786 141.667,195.230 142.042,195.531 142.500 C 196.364 143.772,197.993 143.639,199.623 142.167 C 200.519 141.357,201.233 141.000,201.957 141.000 C 202.689 141.000,203.000 140.842,203.000 140.469 C 203.000 140.177,203.300 139.859,203.667 139.763 C 204.033 139.667,204.333 139.398,204.333 139.164 C 204.333 138.930,204.708 138.645,205.167 138.530 C 205.705 138.395,206.000 138.087,206.000 137.660 C 206.000 137.297,206.161 137.000,206.359 137.000 C 206.570 137.000,206.679 136.464,206.624 135.700 C 206.505 134.062,207.103 133.305,208.434 133.407 C 209.004 133.450,209.510 133.304,209.587 133.073 C 209.736 132.624,210.333 132.848,210.333 133.353 M250.002 145.750 C 250.004 146.439,251.683 148.225,251.881 147.750 C 251.977 147.521,252.273 147.333,252.538 147.333 C 253.213 147.333,253.490 146.424,252.996 145.829 C 252.486 145.215,249.999 145.149,250.002 145.750 M259.982 150.134 C 260.726 151.523,260.188 151.809,259.220 150.540 C 258.398 149.462,258.366 149.333,258.927 149.333 C 259.272 149.333,259.747 149.694,259.982 150.134 M260.518 164.366 C 260.248 164.990,260.020 165.320,260.013 165.099 C 259.997 164.606,260.730 162.952,260.893 163.115 C 260.957 163.180,260.789 163.743,260.518 164.366 M193.415 166.167 C 193.503 166.625,193.436 167.000,193.267 167.000 C 193.099 167.000,193.045 167.137,193.149 167.305 C 193.253 167.473,193.149 167.679,192.919 167.763 C 192.585 167.886,192.586 168.008,192.927 168.369 C 193.285 168.748,193.582 168.700,194.761 168.076 C 195.534 167.667,196.345 167.332,196.563 167.332 C 196.780 167.333,196.936 167.033,196.908 166.667 C 196.852 165.918,196.577 165.846,195.659 166.338 C 195.158 166.605,194.954 166.536,194.669 166.004 C 194.134 165.005,193.216 165.124,193.415 166.167 M257.441 170.134 C 256.924 170.746,256.050 171.787,255.500 172.449 C 254.950 173.111,254.313 173.656,254.083 173.659 C 253.854 173.663,253.399 173.934,253.072 174.261 C 252.745 174.588,251.920 175.120,251.239 175.443 C 250.558 175.767,250.000 176.185,250.000 176.373 C 250.000 176.920,249.100 177.667,248.440 177.667 C 248.107 177.667,246.858 178.267,245.667 179.000 C 244.475 179.733,243.261 180.333,242.968 180.333 C 242.676 180.333,242.185 180.612,241.877 180.952 C 241.492 181.378,241.033 181.517,240.408 181.398 C 239.563 181.238,239.535 181.268,240.000 181.834 C 240.381 182.297,240.401 182.475,240.083 182.582 C 239.854 182.659,239.666 182.897,239.666 183.111 C 239.666 183.654,238.174 185.333,237.692 185.333 C 237.473 185.333,237.387 185.483,237.500 185.667 C 237.613 185.850,237.548 186.000,237.356 186.000 C 237.163 186.000,236.604 186.450,236.114 187.000 C 234.918 188.342,234.572 188.259,234.724 186.667 C 234.806 185.809,234.714 185.333,234.467 185.333 C 234.256 185.333,233.992 184.879,233.881 184.323 C 233.604 182.935,235.308 181.327,236.827 181.544 C 238.306 181.755,240.809 180.896,240.947 180.130 C 241.387 177.695,248.546 173.338,251.167 173.910 C 252.517 174.205,255.611 172.525,255.652 171.475 C 255.660 171.278,256.030 170.775,256.473 170.359 C 256.917 169.942,257.479 169.128,257.723 168.550 C 258.131 167.585,258.175 167.562,258.275 168.261 C 258.341 168.729,258.020 169.451,257.441 170.134 M203.189 186.352 C 203.443 186.563,204.329 186.681,205.159 186.615 C 205.988 186.549,206.667 186.593,206.667 186.711 C 206.667 186.830,207.004 187.014,207.417 187.120 C 207.829 187.226,208.548 187.669,209.014 188.105 C 209.480 188.541,210.305 189.046,210.847 189.227 C 212.019 189.617,212.398 190.667,211.368 190.667 C 210.544 190.667,208.624 189.624,207.646 188.646 C 207.128 188.128,206.833 188.033,206.567 188.300 C 206.365 188.502,205.323 188.667,204.251 188.667 C 203.063 188.667,201.819 188.899,201.067 189.261 C 199.176 190.173,196.288 188.415,197.650 187.182 C 198.764 186.174,202.331 185.640,203.189 186.352 M214.827 192.503 C 215.923 193.510,216.935 194.333,217.077 194.333 C 217.218 194.333,217.333 194.483,217.333 194.667 C 217.333 195.190,215.462 195.056,215.000 194.500 C 214.772 194.225,214.266 193.995,213.876 193.988 C 212.484 193.964,211.239 192.572,211.702 191.556 C 212.262 190.326,212.553 190.414,214.827 192.503 M232.500 195.333 C 232.387 195.517,231.740 195.656,231.064 195.643 C 230.072 195.624,229.963 195.564,230.500 195.333 C 231.436 194.931,232.749 194.931,232.500 195.333 M99.667 259.167 C 100.332 260.083,100.730 260.317,101.639 260.324 C 102.265 260.329,102.679 260.432,102.558 260.553 C 102.216 260.895,103.012 261.667,103.707 261.667 C 104.052 261.667,104.333 261.507,104.333 261.311 C 104.333 260.375,106.189 261.230,107.095 262.583 C 107.851 263.712,108.243 264.000,109.022 264.000 C 109.560 264.000,110.000 264.150,110.000 264.333 C 110.000 264.517,110.375 264.667,110.833 264.667 C 111.292 264.667,111.667 264.794,111.667 264.949 C 111.667 265.104,111.967 265.577,112.333 266.000 C 112.700 266.423,113.000 267.040,113.000 267.371 C 113.000 268.112,114.620 269.667,115.394 269.667 C 116.297 269.667,116.469 270.342,115.703 270.879 C 114.788 271.520,114.808 272.276,115.750 272.637 C 116.162 272.794,116.786 273.241,117.135 273.628 C 117.484 274.016,117.953 274.333,118.178 274.333 C 118.402 274.333,118.772 274.558,119.000 274.833 C 119.566 275.516,123.053 275.498,124.513 274.805 C 125.590 274.294,125.685 274.309,127.397 275.249 C 131.360 277.427,131.797 277.599,133.833 277.793 C 136.505 278.048,137.770 278.378,138.768 279.080 C 139.317 279.466,140.005 279.667,140.435 279.566 C 143.251 278.908,145.586 278.253,146.079 277.983 C 146.397 277.809,146.889 277.667,147.173 277.667 C 147.456 277.667,147.761 277.476,147.850 277.242 C 147.944 276.999,148.568 276.818,149.313 276.818 C 150.843 276.818,150.817 276.949,149.111 277.815 C 148.408 278.172,147.458 278.785,147.000 279.178 C 146.481 279.623,145.099 280.107,143.333 280.463 C 141.775 280.776,139.781 281.191,138.902 281.384 C 136.904 281.824,135.197 281.518,133.829 280.474 C 132.375 279.365,130.648 279.401,129.061 280.575 C 128.126 281.267,127.977 281.314,128.438 280.775 C 129.325 279.737,128.910 277.667,127.816 277.667 C 127.389 277.667,126.947 277.817,126.833 278.000 C 126.278 278.899,121.096 278.377,120.218 277.333 C 119.755 276.783,119.104 276.322,118.772 276.309 C 117.909 276.274,116.151 275.151,116.252 274.701 C 116.299 274.492,115.952 274.145,115.480 273.930 C 114.881 273.657,114.671 273.352,114.785 272.916 C 114.890 272.514,114.729 272.211,114.331 272.063 C 113.991 271.937,112.670 270.821,111.394 269.583 C 110.118 268.346,108.856 267.333,108.589 267.333 C 107.951 267.333,106.333 266.518,105.479 265.765 C 104.522 264.923,103.300 264.255,103.094 264.462 C 102.850 264.706,99.667 263.057,99.667 262.688 C 99.667 262.522,99.232 262.291,98.701 262.174 C 98.123 262.047,97.664 261.692,97.559 261.290 C 97.462 260.920,97.072 260.536,96.691 260.436 C 95.743 260.188,95.822 259.384,96.833 259.000 C 97.292 258.826,97.667 258.529,97.667 258.342 C 97.667 257.586,98.884 258.088,99.667 259.167 M89.964 264.000 C 90.815 264.000,91.115 264.246,91.890 265.583 C 92.395 266.454,92.927 267.217,93.071 267.278 C 93.455 267.440,93.392 268.667,93.000 268.667 C 92.108 268.667,92.672 271.551,93.814 272.835 C 94.445 273.545,94.882 274.254,94.786 274.411 C 94.689 274.568,94.847 275.059,95.138 275.503 C 95.429 275.947,95.667 276.615,95.667 276.988 C 95.667 277.485,95.884 277.667,96.480 277.667 C 96.928 277.667,97.387 277.817,97.500 278.000 C 97.613 278.183,98.749 278.333,100.024 278.333 C 101.299 278.333,102.603 278.483,102.921 278.667 C 103.240 278.850,103.916 279.148,104.425 279.328 C 106.619 280.107,105.777 281.667,103.163 281.667 C 101.945 281.667,101.172 281.857,100.638 282.290 C 99.836 282.939,98.812 282.593,96.176 280.784 C 95.814 280.536,94.877 280.333,94.092 280.333 C 92.877 280.333,92.667 280.232,92.667 279.650 C 92.667 278.633,91.813 277.173,90.850 276.542 C 90.277 276.166,90.000 275.683,90.000 275.059 C 90.000 273.848,89.441 273.329,88.368 273.542 C 87.891 273.637,87.050 273.480,86.500 273.193 C 85.515 272.678,85.512 272.671,86.333 272.658 C 87.139 272.646,88.333 271.982,88.333 271.547 C 88.333 271.102,85.404 271.334,85.229 271.792 C 85.120 272.076,84.740 272.191,84.232 272.094 C 83.781 272.008,83.303 272.113,83.171 272.327 C 83.001 272.601,82.703 272.503,82.163 271.997 C 81.542 271.413,81.268 271.345,80.720 271.638 C 79.594 272.241,76.000 272.109,76.000 271.464 C 76.000 271.137,76.185 271.000,76.476 271.111 C 77.026 271.322,77.781 270.568,77.414 270.174 C 77.278 270.029,77.496 270.081,77.898 270.290 C 78.300 270.499,78.722 270.819,78.834 271.002 C 78.947 271.184,79.330 271.333,79.686 271.333 C 80.532 271.333,80.537 270.287,79.694 269.524 C 78.924 268.828,79.344 266.897,80.195 267.224 C 80.903 267.495,82.333 266.423,82.333 265.620 C 82.333 265.086,82.490 264.963,83.000 265.096 C 83.366 265.192,83.750 265.135,83.853 264.969 C 83.955 264.803,84.282 264.667,84.578 264.667 C 85.020 264.667,84.986 264.805,84.391 265.438 C 83.993 265.862,83.667 266.377,83.667 266.582 C 83.667 266.787,83.367 267.050,83.000 267.167 C 82.633 267.283,82.333 267.668,82.333 268.022 C 82.333 268.891,83.502 268.866,84.979 267.966 C 85.870 267.423,86.424 267.316,87.477 267.484 L 88.830 267.701 87.683 266.517 C 87.052 265.866,86.308 265.333,86.031 265.333 C 85.728 265.333,85.989 264.945,86.679 264.368 C 87.529 263.657,87.981 263.481,88.395 263.701 C 88.704 263.866,89.410 264.000,89.964 264.000 M90.163 269.877 C 89.396 270.438,89.301 270.962,89.839 271.667 C 90.049 271.942,90.492 272.917,90.825 273.833 C 91.157 274.750,91.462 275.542,91.502 275.593 C 91.687 275.829,93.333 274.973,93.333 274.640 C 93.333 274.432,92.958 273.817,92.500 273.272 C 92.041 272.728,91.572 271.690,91.456 270.967 C 91.204 269.390,91.030 269.244,90.163 269.877 M84.667 273.539 C 84.667 273.609,84.292 273.667,83.833 273.667 C 83.375 273.667,83.000 273.537,83.000 273.380 C 83.000 273.222,83.375 273.164,83.833 273.252 C 84.292 273.339,84.667 273.469,84.667 273.539 M74.423 279.183 C 74.718 279.296,74.844 279.667,74.752 280.147 C 74.627 280.799,74.799 280.992,75.801 281.323 C 76.461 281.540,77.000 281.860,77.000 282.032 C 77.000 282.205,77.337 282.267,77.750 282.170 C 78.856 281.910,79.362 282.404,79.568 283.945 C 79.670 284.701,79.883 285.239,80.043 285.140 C 80.329 284.963,80.438 285.550,80.479 287.485 C 80.502 288.550,81.418 288.984,84.011 289.159 C 84.790 289.211,85.576 289.592,86.335 290.286 C 87.511 291.360,92.667 291.942,92.667 291.000 C 92.667 290.817,92.981 290.667,93.365 290.667 C 93.749 290.667,94.489 290.364,95.008 289.994 C 95.528 289.624,96.039 289.461,96.145 289.631 C 96.494 290.196,98.294 289.232,98.695 288.265 C 99.113 287.255,99.667 287.019,99.667 287.849 C 99.667 288.133,100.020 288.696,100.452 289.099 C 100.884 289.503,101.488 290.321,101.794 290.917 C 102.349 291.997,102.359 292.000,104.925 292.005 C 106.711 292.009,107.347 292.109,107.000 292.333 C 106.725 292.511,105.785 292.659,104.912 292.662 C 104.039 292.664,103.042 292.843,102.697 293.059 C 102.173 293.385,101.897 293.306,101.033 292.579 C 99.270 291.095,97.560 291.071,94.733 292.489 C 93.407 293.155,92.185 293.614,92.017 293.511 C 91.849 293.407,91.214 293.599,90.606 293.937 C 88.802 294.941,89.009 297.645,90.893 297.677 C 91.683 297.691,93.057 298.924,93.576 300.084 C 93.801 300.588,94.167 301.000,94.388 301.000 C 95.067 301.000,96.333 302.408,96.333 303.162 C 96.333 304.554,98.004 305.333,100.987 305.333 C 102.461 305.333,103.667 305.474,103.667 305.646 C 103.667 305.818,103.967 305.936,104.333 305.908 C 104.700 305.881,105.000 305.743,105.000 305.603 C 105.000 305.462,105.375 305.518,105.833 305.727 C 106.500 306.031,106.667 306.350,106.667 307.320 C 106.667 308.397,106.794 308.579,107.801 308.943 C 110.231 309.822,110.667 310.455,110.667 313.110 C 110.667 314.427,110.806 315.991,110.977 316.586 C 111.289 317.673,110.402 318.253,109.833 317.333 C 109.475 316.753,106.753 316.963,105.500 317.667 C 104.229 318.381,103.000 318.545,103.000 318.000 C 103.000 317.817,102.840 317.667,102.643 317.667 C 101.868 317.667,99.400 315.644,99.199 314.844 C 99.083 314.380,98.775 314.000,98.516 314.000 C 97.939 314.000,96.710 312.313,96.898 311.781 C 96.974 311.568,96.884 311.301,96.699 311.187 C 96.514 311.072,96.448 310.757,96.552 310.485 C 96.656 310.214,96.558 309.770,96.333 309.500 C 96.109 309.230,96.012 308.782,96.119 308.504 C 96.246 308.172,96.113 308.000,95.727 308.000 C 95.405 308.000,94.594 307.346,93.926 306.546 C 92.767 305.159,92.255 304.921,89.611 304.533 C 89.489 304.515,89.276 304.387,89.139 304.250 C 89.001 304.112,88.609 304.000,88.267 304.000 C 87.925 304.000,87.557 303.770,87.449 303.488 C 87.277 303.039,87.163 303.035,86.524 303.454 C 85.612 304.051,84.653 303.602,84.834 302.661 C 84.904 302.298,84.820 302.000,84.648 302.000 C 84.475 302.000,84.333 301.775,84.333 301.500 C 84.333 300.920,81.846 300.774,81.500 301.333 C 81.052 302.058,78.941 301.733,79.333 301.000 C 79.530 300.633,79.955 300.333,80.278 300.333 C 80.602 300.333,81.047 300.153,81.267 299.933 C 81.699 299.501,81.827 297.001,81.417 296.998 C 80.997 296.994,79.493 294.575,79.604 294.081 C 79.760 293.379,79.016 292.667,78.126 292.667 C 77.690 292.667,77.333 292.517,77.333 292.333 C 77.333 291.902,75.805 291.903,74.998 292.334 C 74.581 292.558,74.305 292.558,74.167 292.334 C 73.835 291.797,72.251 291.951,71.139 292.629 C 70.394 293.083,69.952 293.166,69.531 292.931 C 68.907 292.581,67.275 293.069,66.298 293.897 C 65.846 294.279,65.703 294.279,65.386 293.897 C 65.179 293.647,64.407 293.244,63.671 293.002 C 62.136 292.495,61.610 290.667,63.000 290.667 C 63.367 290.667,63.667 290.517,63.667 290.333 C 63.667 290.150,63.892 290.000,64.167 290.000 C 64.442 290.000,64.667 289.860,64.667 289.690 C 64.667 289.519,65.004 289.332,65.417 289.273 C 66.277 289.151,66.499 287.666,65.697 287.399 C 65.374 287.291,65.292 287.413,65.436 287.788 C 65.552 288.088,65.500 288.333,65.323 288.333 C 65.145 288.333,65.000 287.883,65.000 287.333 C 65.000 286.783,65.139 286.333,65.310 286.333 C 65.710 286.333,66.667 285.377,66.667 284.976 C 66.667 284.806,66.442 284.667,66.167 284.667 C 65.892 284.667,65.667 284.453,65.667 284.191 C 65.667 283.427,67.331 282.333,68.494 282.333 C 69.517 282.333,71.192 281.303,70.802 280.913 C 70.547 280.658,71.782 280.295,73.025 280.260 C 73.852 280.236,74.020 280.111,73.890 279.615 C 73.713 278.937,73.734 278.919,74.423 279.183 M127.486 280.645 C 128.756 282.699,124.190 287.043,121.115 286.706 C 120.720 286.663,120.299 286.786,120.179 286.980 C 120.059 287.174,119.378 287.333,118.667 287.333 C 117.955 287.333,117.280 287.483,117.167 287.667 C 117.053 287.850,116.675 288.000,116.325 288.000 C 115.976 288.000,115.519 288.320,115.309 288.712 C 115.095 289.112,114.835 289.277,114.714 289.088 C 114.515 288.776,113.761 288.599,110.583 288.119 C 109.550 287.963,109.333 287.795,109.333 287.151 C 109.333 286.723,109.174 286.274,108.979 286.154 C 108.785 286.034,108.489 285.575,108.321 285.134 C 108.154 284.694,107.750 284.333,107.425 284.332 C 106.970 284.330,106.816 284.022,106.758 282.998 C 106.685 281.726,106.726 281.667,107.674 281.667 C 108.220 281.667,108.667 281.817,108.667 282.000 C 108.667 282.183,109.004 282.338,109.417 282.344 C 110.371 282.357,111.333 283.080,111.333 283.783 C 111.333 285.428,116.555 286.745,118.186 285.511 C 118.542 285.241,119.433 285.016,120.167 285.009 C 120.900 285.002,121.930 284.772,122.455 284.498 C 122.980 284.224,123.615 284.000,123.867 284.000 C 124.502 284.000,126.121 281.463,125.883 280.842 C 125.663 280.271,127.143 280.089,127.486 280.645 M104.833 282.828 C 105.594 282.840,105.382 284.281,104.603 284.391 C 104.110 284.461,103.850 284.710,103.880 285.083 C 103.934 285.767,103.958 285.761,102.845 285.338 C 102.097 285.053,101.941 285.111,101.691 285.768 C 101.353 286.660,100.333 287.615,100.333 287.041 C 100.333 286.835,100.483 286.667,100.667 286.667 C 101.113 286.667,101.095 284.432,100.647 284.154 C 100.115 283.826,101.343 283.023,102.397 283.011 C 102.890 283.005,103.388 282.848,103.503 282.661 C 103.619 282.475,103.890 282.435,104.106 282.573 C 104.323 282.710,104.650 282.825,104.833 282.828 M108.556 287.889 C 108.296 288.148,107.345 287.585,107.532 287.282 C 107.648 287.095,107.919 287.128,108.204 287.365 C 108.468 287.583,108.626 287.819,108.556 287.889 M58.032 296.150 C 58.198 296.324,58.333 296.700,58.333 296.985 C 58.333 297.271,58.821 297.712,59.417 297.967 C 60.737 298.532,61.707 299.332,61.492 299.680 C 61.282 300.020,60.032 299.680,59.364 299.102 C 59.072 298.849,58.346 298.259,57.750 297.792 C 56.984 297.190,56.667 296.665,56.667 295.998 C 56.667 294.982,57.425 294.425,57.616 295.301 C 57.679 295.594,57.867 295.976,58.032 296.150 M70.500 300.667 C 70.613 300.850,71.110 301.002,71.603 301.005 C 72.226 301.009,72.363 301.097,72.052 301.294 C 71.795 301.457,71.058 301.417,70.324 301.200 C 68.703 300.721,68.301 300.333,69.425 300.333 C 69.903 300.333,70.387 300.483,70.500 300.667 M67.186 301.177 C 66.830 301.446,66.428 301.667,66.292 301.667 C 66.156 301.667,65.954 301.955,65.842 302.307 C 65.730 302.659,65.152 303.478,64.558 304.126 L 63.478 305.306 62.630 304.236 C 61.757 303.136,61.015 301.215,61.744 301.944 C 62.020 302.220,62.255 302.210,62.642 301.909 C 63.093 301.558,63.109 301.575,62.755 302.028 C 62.429 302.447,62.429 302.739,62.755 303.442 C 63.248 304.504,63.525 304.554,64.000 303.667 C 64.196 303.300,64.577 303.000,64.845 303.000 C 65.114 303.000,65.333 302.843,65.333 302.652 C 65.333 302.151,66.890 300.665,67.402 300.677 C 67.663 300.684,67.578 300.881,67.186 301.177 M60.602 314.176 C 60.325 314.783,60.118 314.916,59.859 314.653 C 59.602 314.392,59.683 314.153,60.147 313.811 C 61.014 313.171,61.048 313.197,60.602 314.176 M43.000 321.687 C 42.358 322.025,41.355 322.309,40.770 322.317 C 40.185 322.326,39.613 322.483,39.500 322.667 C 39.387 322.850,38.590 323.000,37.730 323.000 C 36.534 323.001,35.934 323.201,35.176 323.853 C 34.630 324.322,33.924 324.637,33.604 324.554 C 33.286 324.470,32.858 324.603,32.655 324.848 C 32.451 325.093,32.048 325.203,31.760 325.092 C 31.326 324.926,31.277 325.059,31.480 325.862 C 31.615 326.396,31.802 327.508,31.895 328.333 C 31.988 329.158,32.200 329.976,32.366 330.150 C 32.951 330.766,32.651 331.547,31.333 332.833 C 29.791 334.340,29.749 334.524,30.725 335.562 C 31.123 335.986,31.273 336.333,31.058 336.333 C 30.473 336.333,30.583 336.946,31.364 338.044 C 31.925 338.830,31.982 339.120,31.657 339.512 C 31.195 340.068,31.735 341.000,32.518 341.000 C 32.759 341.000,33.050 341.300,33.167 341.667 C 33.283 342.033,33.576 342.333,33.817 342.333 C 34.058 342.333,34.337 342.645,34.436 343.025 C 34.566 343.522,34.836 343.686,35.392 343.608 C 36.016 343.521,36.168 343.656,36.174 344.298 C 36.187 345.636,38.789 346.043,43.833 345.497 C 46.674 345.190,46.664 345.205,46.131 342.233 C 45.565 339.070,45.558 338.758,46.067 339.267 C 46.504 339.704,47.998 339.819,48.003 339.417 C 48.010 338.700,49.582 338.459,50.325 339.061 C 51.277 339.831,52.148 339.300,51.854 338.128 C 51.600 337.120,52.222 336.796,53.021 337.519 C 53.376 337.840,53.667 337.972,53.667 337.811 C 53.667 337.650,53.897 337.847,54.179 338.249 C 54.873 339.241,57.271 339.974,57.675 339.319 C 57.913 338.935,58.107 338.985,58.754 339.592 C 59.188 340.000,59.810 340.333,60.136 340.333 C 60.462 340.333,60.808 340.633,60.903 341.000 C 61.032 341.492,61.358 341.667,62.150 341.667 C 62.740 341.667,63.325 341.770,63.451 341.896 C 63.577 342.022,64.439 342.156,65.367 342.193 C 66.656 342.245,67.170 342.427,67.546 342.964 C 67.816 343.350,68.367 343.671,68.769 343.677 C 69.630 343.690,70.843 344.518,70.400 344.792 C 69.954 345.068,69.892 350.302,70.329 350.828 C 70.993 351.629,77.411 351.502,78.161 350.673 C 78.803 349.964,79.667 349.769,79.667 350.333 C 79.667 350.517,79.437 350.667,79.156 350.667 C 78.458 350.667,78.168 351.566,78.670 352.171 C 79.645 353.346,83.183 352.442,82.847 351.104 C 82.634 350.255,83.235 350.022,83.546 350.833 C 83.652 351.108,84.106 351.333,84.555 351.333 C 85.015 351.333,85.283 351.188,85.167 351.000 C 85.049 350.810,85.340 350.667,85.845 350.667 C 86.449 350.667,86.784 350.455,86.903 350.000 C 87.000 349.632,87.358 349.333,87.703 349.333 C 88.046 349.333,88.515 349.033,88.744 348.667 C 88.973 348.300,89.349 348.000,89.580 348.000 C 89.811 348.000,90.000 347.846,90.000 347.658 C 90.000 347.169,91.675 346.598,92.124 346.935 C 93.280 347.802,95.633 347.338,97.077 345.959 C 97.860 345.212,99.232 344.228,100.127 343.772 C 101.022 343.317,101.922 342.804,102.127 342.633 C 102.332 342.461,102.875 342.008,103.333 341.626 C 103.792 341.244,104.544 340.609,105.006 340.216 C 105.467 339.822,106.692 338.450,107.727 337.167 C 108.763 335.883,110.295 334.083,111.133 333.167 C 112.899 331.235,112.866 331.339,112.000 330.410 C 111.633 330.017,111.333 329.526,111.333 329.319 C 111.333 329.113,110.806 328.432,110.161 327.806 C 108.957 326.637,107.333 326.250,107.333 327.131 C 107.333 327.668,106.623 328.000,105.473 328.000 C 104.835 328.000,104.667 328.174,104.667 328.833 C 104.667 329.789,104.394 329.868,103.480 329.177 C 102.750 328.625,100.333 328.489,100.333 329.000 C 100.333 329.548,99.699 329.378,99.089 328.667 C 98.528 328.011,97.108 327.700,97.489 328.316 C 97.773 328.775,96.387 328.445,95.448 327.830 C 95.007 327.541,94.728 327.170,94.830 327.006 C 94.931 326.842,94.760 326.566,94.450 326.392 C 94.093 326.192,93.877 325.636,93.860 324.873 C 93.844 324.165,93.666 323.668,93.428 323.668 C 93.206 323.667,92.863 323.367,92.667 323.000 C 92.436 322.568,91.969 322.333,91.341 322.333 C 90.809 322.333,90.280 322.183,90.167 322.000 C 89.829 321.453,88.000 321.594,88.000 322.167 C 88.000 322.442,87.673 322.994,87.273 323.394 C 86.705 323.961,86.563 324.456,86.624 325.644 C 86.710 327.301,86.325 327.640,83.761 328.163 C 83.171 328.283,82.152 328.746,81.496 329.191 C 80.840 329.636,80.160 330.000,79.985 330.000 C 79.810 330.000,79.667 330.150,79.667 330.333 C 79.667 330.517,79.384 330.667,79.039 330.667 C 78.691 330.667,78.333 330.964,78.237 331.333 C 78.041 332.083,75.243 332.330,74.814 331.635 C 74.689 331.434,74.155 331.333,73.627 331.410 C 72.981 331.505,72.667 331.407,72.667 331.109 C 72.667 330.866,72.376 330.667,72.020 330.667 C 71.664 330.667,71.280 330.517,71.167 330.333 C 70.612 329.436,68.667 329.970,68.667 331.020 C 68.667 331.617,68.528 331.954,68.332 331.833 C 68.148 331.719,68.089 331.260,68.202 330.813 C 68.401 330.018,68.361 330.000,66.369 330.000 C 65.250 330.000,64.368 329.887,64.411 329.750 C 64.519 329.401,63.260 328.000,62.838 328.000 C 62.648 328.000,62.343 327.662,62.162 327.250 C 61.903 326.658,61.610 326.522,60.773 326.606 C 60.175 326.666,59.340 326.468,58.859 326.153 C 58.389 325.845,57.795 325.674,57.538 325.773 C 57.281 325.871,56.493 325.676,55.786 325.340 C 55.079 325.004,53.900 324.465,53.167 324.143 C 52.433 323.820,51.533 323.303,51.167 322.993 C 50.800 322.682,50.012 322.220,49.417 321.966 C 48.821 321.712,48.333 321.391,48.333 321.252 C 48.333 320.732,44.169 321.071,43.000 321.687 " stroke="none" fill="#bcbcbc" fill-rule="evenodd"></path><path id="path1" d="M297.083 10.896 C 297.404 10.980,297.929 10.980,298.250 10.896 C 298.571 10.813,298.308 10.744,297.667 10.744 C 297.025 10.744,296.762 10.813,297.083 10.896 M285.000 12.129 C 285.000 12.200,285.450 12.324,286.000 12.404 C 286.550 12.485,287.000 12.427,287.000 12.276 C 287.000 12.124,286.550 12.000,286.000 12.000 C 285.450 12.000,285.000 12.058,285.000 12.129 M302.917 12.235 C 303.329 12.315,304.004 12.315,304.417 12.235 C 304.829 12.156,304.492 12.091,303.667 12.091 C 302.842 12.091,302.504 12.156,302.917 12.235 M248.231 22.511 C 247.717 22.963,247.428 23.333,247.590 23.333 C 247.752 23.333,248.236 22.958,248.667 22.500 C 249.663 21.440,249.443 21.445,248.231 22.511 M354.103 31.500 C 354.105 32.600,354.167 33.010,354.242 32.411 C 354.316 31.812,354.314 30.912,354.238 30.411 C 354.162 29.910,354.101 30.400,354.103 31.500 M200.989 85.250 L 199.167 87.167 201.083 85.345 C 202.137 84.343,203.000 83.480,203.000 83.428 C 203.000 83.181,202.681 83.469,200.989 85.250 M161.583 91.574 C 162.179 91.648,163.154 91.648,163.750 91.574 C 164.346 91.501,163.858 91.440,162.667 91.440 C 161.475 91.440,160.987 91.501,161.583 91.574 M372.151 111.364 C 371.857 111.931,371.677 112.454,371.749 112.527 C 371.821 112.599,372.130 112.135,372.435 111.496 C 373.120 110.058,372.883 109.948,372.151 111.364 M237.474 130.667 C 237.474 134.425,237.523 135.962,237.582 134.083 C 237.641 132.204,237.641 129.129,237.582 127.250 C 237.523 125.371,237.474 126.908,237.474 130.667 M219.167 138.000 C 219.883 138.733,220.544 139.333,220.635 139.333 C 220.727 139.333,220.216 138.733,219.500 138.000 C 218.784 137.267,218.123 136.667,218.031 136.667 C 217.940 136.667,218.451 137.267,219.167 138.000 M199.588 142.176 C 198.903 142.812,198.461 143.333,198.606 143.333 C 198.751 143.333,199.378 142.808,200.000 142.167 C 201.451 140.670,201.202 140.675,199.588 142.176 M255.763 171.306 C 255.796 171.412,255.397 171.922,254.876 172.437 C 254.355 172.952,254.011 173.456,254.111 173.556 C 254.284 173.728,255.351 172.766,256.245 171.633 C 256.577 171.211,256.565 171.111,256.180 171.111 C 255.918 171.111,255.730 171.199,255.763 171.306 M242.655 177.917 L 240.833 179.833 242.750 178.011 C 244.531 176.319,244.819 176.000,244.572 176.000 C 244.520 176.000,243.657 176.862,242.655 177.917 M196.095 182.500 C 196.098 183.417,196.163 183.752,196.239 183.245 C 196.316 182.739,196.314 181.989,196.235 181.579 C 196.156 181.169,196.093 181.583,196.095 182.500 M190.250 184.574 C 190.846 184.648,191.821 184.648,192.417 184.574 C 193.012 184.501,192.525 184.440,191.333 184.440 C 190.142 184.440,189.654 184.501,190.250 184.574 M234.720 186.750 C 234.659 188.184,234.962 188.316,235.865 187.250 L 236.500 186.500 235.773 187.114 C 235.051 187.724,235.046 187.721,234.910 186.614 L 234.773 185.500 234.720 186.750 M216.167 194.667 L 215.167 194.921 216.250 194.961 C 216.846 194.982,217.333 194.850,217.333 194.667 C 217.333 194.483,217.296 194.351,217.250 194.373 C 217.204 194.394,216.717 194.527,216.167 194.667 M344.707 220.092 C 344.465 220.543,344.340 221.195,344.428 221.540 C 344.544 221.991,344.600 221.918,344.628 221.278 C 344.649 220.789,344.839 220.331,345.050 220.261 C 345.261 220.191,345.369 219.939,345.290 219.702 C 345.199 219.431,344.983 219.575,344.707 220.092 M112.812 223.083 L 111.833 224.167 112.917 223.188 C 113.926 222.275,114.153 222.000,113.896 222.000 C 113.838 222.000,113.351 222.487,112.812 223.083 M105.982 230.583 L 104.833 231.833 106.083 230.685 C 107.247 229.615,107.487 229.333,107.232 229.333 C 107.176 229.333,106.614 229.896,105.982 230.583 M292.906 253.007 C 293.496 253.626,294.035 254.065,294.104 253.983 C 294.173 253.901,293.690 253.394,293.031 252.858 L 291.833 251.882 292.906 253.007 M325.150 252.968 C 324.976 253.133,324.533 253.341,324.167 253.429 C 323.534 253.581,323.536 253.591,324.209 253.628 C 324.599 253.649,325.105 253.442,325.333 253.167 C 325.786 252.621,325.659 252.484,325.150 252.968 M273.223 264.000 C 273.621 264.458,274.011 265.283,274.090 265.833 L 274.233 266.833 274.283 265.808 C 274.319 265.069,274.078 264.558,273.417 263.975 L 272.500 263.167 273.223 264.000 M86.483 273.183 C 87.023 273.465,87.773 273.635,88.149 273.560 C 88.669 273.457,88.618 273.413,87.936 273.379 C 87.443 273.354,86.947 273.183,86.833 273.000 C 86.720 272.817,86.374 272.668,86.064 272.669 C 85.714 272.670,85.873 272.865,86.483 273.183 M83.000 273.380 C 83.000 273.537,83.375 273.667,83.833 273.667 C 84.292 273.667,84.667 273.609,84.667 273.539 C 84.667 273.469,84.292 273.339,83.833 273.252 C 83.375 273.164,83.000 273.222,83.000 273.380 M272.923 273.575 C 273.522 273.649,274.422 273.648,274.923 273.572 C 275.424 273.495,274.933 273.435,273.833 273.437 C 272.733 273.438,272.324 273.501,272.923 273.575 M120.417 275.572 C 120.921 275.648,121.746 275.648,122.250 275.572 C 122.754 275.496,122.342 275.433,121.333 275.433 C 120.325 275.433,119.912 275.496,120.417 275.572 M119.254 285.236 C 119.669 285.315,120.269 285.312,120.587 285.229 C 120.906 285.146,120.567 285.080,119.833 285.084 C 119.100 285.088,118.839 285.156,119.254 285.236 M65.000 287.333 C 65.000 287.883,65.124 288.333,65.276 288.333 C 65.427 288.333,65.485 287.883,65.404 287.333 C 65.324 286.783,65.200 286.333,65.129 286.333 C 65.058 286.333,65.000 286.783,65.000 287.333 M285.084 292.500 C 285.088 293.233,285.156 293.494,285.236 293.079 C 285.315 292.665,285.312 292.065,285.229 291.746 C 285.146 291.427,285.080 291.767,285.084 292.500 M57.083 294.887 C 56.854 294.980,56.689 295.531,56.717 296.111 C 56.766 297.160,56.767 297.161,56.908 296.220 C 57.040 295.344,57.082 295.319,57.493 295.881 C 57.895 296.430,57.921 296.402,57.763 295.577 C 57.667 295.076,57.569 294.679,57.544 294.693 C 57.520 294.707,57.313 294.795,57.083 294.887 M296.077 307.000 C 296.077 307.642,296.146 307.904,296.230 307.583 C 296.314 307.262,296.314 306.737,296.230 306.417 C 296.146 306.096,296.077 306.358,296.077 307.000 M187.084 313.667 C 187.181 314.027,187.722 314.176,189.026 314.200 L 190.833 314.233 189.173 314.095 C 188.260 314.019,187.386 313.779,187.231 313.562 C 187.035 313.287,186.990 313.319,187.084 313.667 M87.468 315.083 L 86.833 315.833 87.587 315.195 C 88.333 314.563,88.349 314.564,89.253 315.362 L 90.167 316.167 89.359 315.250 C 88.381 314.141,88.274 314.131,87.468 315.083 M58.083 315.563 C 58.404 315.647,58.929 315.647,59.250 315.563 C 59.571 315.479,59.308 315.411,58.667 315.411 C 58.025 315.411,57.762 315.479,58.083 315.563 M184.737 316.677 C 184.515 317.033,184.334 317.514,184.335 317.745 C 184.337 317.977,184.564 317.732,184.841 317.200 C 185.419 316.093,185.343 315.708,184.737 316.677 M64.411 320.000 C 64.411 320.642,64.479 320.904,64.563 320.583 C 64.647 320.262,64.647 319.737,64.563 319.417 C 64.479 319.096,64.411 319.358,64.411 320.000 M34.000 324.218 C 33.541 324.460,33.391 324.657,33.667 324.657 C 34.241 324.656,35.225 324.100,34.990 323.907 C 34.904 323.836,34.458 323.976,34.000 324.218 M77.871 323.940 C 77.778 324.090,78.144 324.148,78.684 324.069 C 79.225 323.989,79.667 323.866,79.667 323.796 C 79.667 323.542,78.036 323.672,77.871 323.940 M297.836 324.049 C 297.971 324.403,297.778 324.784,297.293 325.124 C 296.879 325.414,296.618 325.729,296.713 325.824 C 296.808 325.920,297.240 325.621,297.672 325.161 C 298.299 324.494,298.374 324.241,298.043 323.912 C 297.712 323.584,297.670 323.612,297.836 324.049 M86.429 325.833 C 86.431 326.750,86.496 327.085,86.573 326.579 C 86.649 326.072,86.647 325.322,86.568 324.912 C 86.489 324.502,86.426 324.917,86.429 325.833 M59.750 326.563 C 60.071 326.647,60.596 326.647,60.917 326.563 C 61.237 326.479,60.975 326.411,60.333 326.411 C 59.692 326.411,59.429 326.479,59.750 326.563 M107.115 326.848 C 107.006 327.131,107.011 327.456,107.125 327.570 C 107.240 327.684,107.333 327.538,107.333 327.244 C 107.333 326.918,107.690 326.657,108.250 326.572 L 109.167 326.433 108.240 326.383 C 107.676 326.353,107.235 326.535,107.115 326.848 M195.443 334.833 C 195.444 336.117,195.504 336.601,195.577 335.909 C 195.649 335.218,195.648 334.168,195.574 333.576 C 195.500 332.984,195.441 333.550,195.443 334.833 M293.083 334.230 C 293.404 334.314,293.929 334.314,294.250 334.230 C 294.571 334.146,294.308 334.077,293.667 334.077 C 293.025 334.077,292.762 334.146,293.083 334.230 M98.500 344.591 C 98.317 344.728,97.793 345.288,97.336 345.836 C 96.592 346.731,96.634 346.715,97.753 345.685 C 98.882 344.645,99.159 344.324,98.917 344.338 C 98.871 344.341,98.683 344.455,98.500 344.591 M234.770 346.167 C 234.772 347.267,234.834 347.676,234.908 347.077 C 234.982 346.478,234.981 345.578,234.905 345.077 C 234.829 344.576,234.768 345.067,234.770 346.167 M38.421 345.906 C 38.928 345.982,39.678 345.980,40.088 345.901 C 40.498 345.822,40.083 345.760,39.167 345.762 C 38.250 345.765,37.915 345.829,38.421 345.906 M292.028 354.083 C 292.104 354.129,292.617 354.542,293.167 355.000 L 294.167 355.833 293.359 354.917 C 292.914 354.412,292.402 354.000,292.220 354.000 C 292.038 354.000,291.951 354.037,292.028 354.083 M265.083 376.230 C 265.404 376.314,265.929 376.314,266.250 376.230 C 266.571 376.146,266.308 376.077,265.667 376.077 C 265.025 376.077,264.762 376.146,265.083 376.230 M267.863 386.300 C 267.214 387.018,267.768 387.701,268.446 387.018 C 268.741 386.720,268.675 386.685,268.167 386.870 C 267.509 387.110,267.509 387.103,268.135 386.390 C 268.484 385.992,268.695 385.667,268.603 385.667 C 268.512 385.667,268.179 385.952,267.863 386.300 M282.921 394.902 C 283.335 394.982,283.935 394.979,284.254 394.896 C 284.573 394.812,284.233 394.747,283.500 394.751 C 282.767 394.754,282.506 394.823,282.921 394.902 M249.083 396.896 C 249.404 396.980,249.929 396.980,250.250 396.896 C 250.571 396.813,250.308 396.744,249.667 396.744 C 249.025 396.744,248.762 396.813,249.083 396.896 M247.057 399.773 C 246.039 400.856,246.151 401.152,247.187 400.116 C 247.656 399.647,247.982 399.204,247.910 399.133 C 247.839 399.061,247.455 399.349,247.057 399.773 " stroke="none" fill="#b4b4b4" fill-rule="evenodd"></path><path id="path2" d="" stroke="none" fill="#bcc0b8" fill-rule="evenodd"></path><path id="path3" d="" stroke="none" fill="#bcc0b8" fill-rule="evenodd"></path><path id="path4" d="" stroke="none" fill="#bcc0b8" fill-rule="evenodd"></path></g></svg>