<?xml version="1.0" encoding="utf-8"?>
<!-- Generator: Adobe Illustrator 28.2.0, SVG Export Plug-In . SVG Version: 6.00 Build 0)  -->
<svg version="1.1" id="svg" xmlns="http://www.w3.org/2000/svg" xmlns:xlink="http://www.w3.org/1999/xlink" x="0px" y="0px"
	 viewBox="0 0 400 351.6" style="enable-background:new 0 0 400 351.6;" xml:space="preserve">
<style type="text/css">
	.st0{fill-rule:evenodd;clip-rule:evenodd;fill:#FFFFFF;}
</style>
<g id="svgg">
	<path id="path0" class="st0" d="M140.56,49.06c0.45,0.11,1.23,0.11,1.56,0c0.33-0.11,0-0.22-0.89-0.22
		C140.45,48.84,140.11,48.95,140.56,49.06 M135.32,58.53c-0.11,0.45-0.33,0.78-0.56,0.78c-0.22,0-0.33,0.22-0.33,0.45
		c0,0.78,0.56,0.33,1.23-0.78c0.33-0.67,0.45-1.23,0.22-1.23S135.43,58.08,135.32,58.53 M111.38,61.53c0.33,0.11,1,0.11,1.34,0
		c0.33-0.11,0.11-0.22-0.67-0.22C111.27,61.42,111.04,61.42,111.38,61.53 M105.7,61.98c-0.45,0.45-0.22,0.89,0.33,0.67
		c0.33-0.11,0.56-0.33,0.56-0.56C106.59,61.64,106.03,61.53,105.7,61.98 M135.77,69.11c0.45,0.45,0.78,0.67,0.89,0.56
		c0.22-0.22-0.67-1.34-1.23-1.34C135.21,68.33,135.43,68.66,135.77,69.11 M95.23,73.45c-0.78,0.89-1,1.45-0.45,1.45
		c0.22,0,0.67-0.56,1-1.23C96.56,72.45,96.34,72.34,95.23,73.45 M173.08,83.14c0.45,0.11,1.23,0.11,1.56,0
		c0.33-0.11,0-0.22-0.89-0.22C172.97,82.92,172.63,83.03,173.08,83.14 M157.6,90.38c0.22,0.56,1.11,0.89,1.11,0.45
		c0-0.22-0.33-0.45-0.67-0.67S157.49,90.05,157.6,90.38 M135.66,93.83c-0.67,0.45-1.45,1.11-1.78,1.67c-0.56,1,0.11,0.67,2.12-1.34
		C137.44,92.83,137.33,92.72,135.66,93.83 M47.56,98.51c-0.22,0.45-0.33,0.78-0.22,0.78c0.45,0,1.23-0.89,1.23-1.23
		C48.56,97.51,48,97.73,47.56,98.51 M27.51,101.41c-0.56,0.67-0.67,1-0.11,1c0.22,0,0.56-0.33,0.78-0.78
		C28.74,100.74,28.29,100.63,27.51,101.41 M24.06,105.53c-0.11,0.22-0.11,0.56,0,0.67c0.33,0.33,1-0.22,1-0.67
		S24.39,105.08,24.06,105.53 M97.23,105.53c0,0.22,0.45,0.33,1.11,0.33c0.89,0,1-0.11,0.45-0.33
		C98.01,105.08,97.23,105.08,97.23,105.53 M114.38,107.09c0,0.33,1.23,1.23,1.78,1.23c0.45,0-0.22-0.78-1-1.23
		C114.72,106.86,114.38,106.86,114.38,107.09 M61.93,108.65c0.56,0.45,1.11,0.78,1.34,0.78c0.45,0-0.33-0.56-1.56-1.23
		C61.15,107.98,61.26,108.09,61.93,108.65 M50.45,109.31c-0.45,0.33-1,0.45-1.23,0.33c-0.89-0.33-2.23,1.78-1.56,2.45
		c0.33,0.33,0.67,0.45,0.89,0.33c0.11-0.11,0-0.45-0.33-0.67c-0.67-0.45,0.45-1.56,1.56-1.56c0.33,0,0.78-0.33,1.11-0.78
		C51.46,108.53,51.34,108.53,50.45,109.31 M117.95,109.54c0,0.22,0.11,0.33,0.33,0.22c0.22-0.11,0.45,0,0.56,0.22
		c0.11,0.22,0.33,0.33,0.56,0.22c0.22-0.22,0.11-0.45-0.22-0.67C118.39,108.98,117.95,108.98,117.95,109.54 M126.19,111.43
		c0,0.33-0.33,0.89-0.67,1.34c-0.67,0.78-0.67,0.78,0.22,0c0.56-0.45,0.78-1.11,0.67-1.34C126.3,110.98,126.19,110.98,126.19,111.43
		 M41.54,116.33c-0.22,0.33-0.45,0.67-0.33,0.78c0.11,0.11,0.45-0.11,0.67-0.45c0.22-0.33,0.45-0.67,0.33-0.78
		C42.1,115.77,41.77,116,41.54,116.33 M31.52,117.89c-0.56,0.78-0.89,1.45-0.78,1.67c0.11,0.11,0.22,0,0.22-0.22
		c0-0.22,0.22-0.45,0.56-0.45s0.56-0.11,0.33-0.33c-0.11-0.22,0.11-0.78,0.67-1.23c0.45-0.45,0.67-0.78,0.45-0.78
		C32.74,116.55,32.08,117.11,31.52,117.89 M31.3,125.24c0,0.22-0.22,0.33-0.56,0.22c-0.33-0.11-0.56,0-0.56,0.11
		c0,0.56,0.89,0.45,1.78-0.22c0.67-0.56,0.67-0.56,0.11-0.56C31.63,124.79,31.3,124.91,31.3,125.24 M53.24,125.57
		c-0.45,0.89-0.45,0.89,0.22,0.33c0.45-0.33,0.78-0.56,0.89-0.67c0.11,0,0-0.22-0.22-0.33C53.91,124.79,53.46,125.13,53.24,125.57
		 M44.11,127.69c-0.11,0.33-0.11,0.56,0.22,0.45c0.56-0.22,0.89-1.11,0.45-1.11C44.55,127.13,44.22,127.36,44.11,127.69
		 M62.71,129.47c0.45,0.78,1.23,1.11,1.23,0.45c0-0.45-0.89-1.23-1.23-1.23C62.37,128.69,62.48,129.03,62.71,129.47 M11.03,129.36
		c0,0.11,0.33,0.45,0.67,0.67c0.33,0.22,0.78,1.11,0.89,1.78l0.33,1.34v-1.34c0-0.89-0.22-1.56-0.78-2
		C11.36,129.03,11.03,128.92,11.03,129.36 M23.17,131.25c0,0.89,0.11,1.11,0.22,0.67c0.11-0.45,0.11-1.23,0-1.56
		C23.28,129.92,23.17,130.36,23.17,131.25 M193.35,133.04c-0.11,0.22,0.11,0.45,0.56,0.45c0.45,0,0.78-0.22,0.78-0.45
		c0-0.22-0.22-0.45-0.56-0.45C193.91,132.59,193.46,132.81,193.35,133.04 M8.24,133.93c0,0.33,0.22,0.56,0.45,0.56
		c0.22,0,0.45-0.22,0.45-0.56c0-0.33-0.22-0.56-0.45-0.56S8.24,133.59,8.24,133.93 M114.94,133.93c-0.45,0.45-0.45,0.56,0.11,0.56
		c0.33,0,0.67-0.22,0.78-0.56C116.06,133.26,115.61,133.26,114.94,133.93 M110.04,135.93c-0.56,0.33-1.11,0.78-1.11,1
		c0,0.33,0.11,0.33,0.33,0c0.22-0.33,0.67-0.56,1.11-0.56s0.89-0.33,0.89-0.56s0-0.45-0.11-0.45
		C111.15,135.38,110.6,135.71,110.04,135.93 M107.48,136.82c-0.56,0.22-0.22,0.89,0.45,0.89c0.22,0,0.45-0.22,0.45-0.56
		C108.37,136.49,108.26,136.49,107.48,136.82 M59.92,137.6c-0.56,0.56-0.45,0.67,0.11,0.33c0.33-0.11,0.78-0.22,0.89-0.22
		c0.11,0,0.11-0.22,0.11-0.45C61.15,136.71,60.59,136.82,59.92,137.6 M56.02,139.72c-0.89,0.78-0.89,0.78-0.11,0.33
		c0.45-0.22,1-0.56,1.11-0.78C57.36,138.61,57.03,138.83,56.02,139.72 M8.46,139.83c0.11,0.33,0.45,0.67,0.67,0.67
		c0.56,0,0.22-0.89-0.45-1.11C8.46,139.27,8.35,139.39,8.46,139.83 M67.83,139.94c0,0.33,0.22,0.78,0.56,1.11
		c0.78,0.78,0.78,0.11,0-0.89C68.05,139.72,67.83,139.61,67.83,139.94 M28.85,141.39c-0.33,1-0.33,1.11,0.33,0.56
		c0.67-0.56,0.78-1.23,0.22-1.23C29.29,140.83,28.96,141.06,28.85,141.39 M58.36,141.28c0,0.45,1.45,0.33,1.78-0.11
		c0.11-0.22-0.22-0.33-0.78-0.33C58.81,140.94,58.36,141.17,58.36,141.28 M123.52,143.95c-0.89,0.67-1.67,1.34-1.89,1.56
		c-0.45,0.67,0.45,0.45,1.11-0.22c0.33-0.33,0.67-0.45,0.67-0.33c0,0.22,0.22-0.11,0.33-0.56c0.22-0.45,0.56-0.78,0.67-0.67
		c0.22,0.11,0.45,0,0.56-0.33C125.41,142.62,125.41,142.62,123.52,143.95 M15.15,143.51c0.67,0.11,1.78,0.11,2.34,0
		c0.56-0.11,0-0.11-1.23-0.11C14.92,143.28,14.48,143.39,15.15,143.51 M12.7,144.17c-0.11,0.33-0.11,0.89-0.11,1.23
		c0.11,0.45,0.22,0.22,0.33-0.56C13.25,143.51,13.03,143.17,12.7,144.17 M56.02,144.4c-0.33,0.22-0.45,0.45-0.22,0.67
		c0.11,0.11,0.45,0.11,0.78-0.22C57.14,144.17,56.8,143.84,56.02,144.4 M67.05,145.07c0,0.56,1.56,1.56,2.45,1.56
		c0.45,0,0.67,0.22,0.45,0.67c-0.11,0.45,0,0.45,0.56-0.22c0.45-0.56,1.11-0.78,1.34-0.67c0.78,0.33,1-0.22,0.56-0.89
		c-0.33-0.45-0.33-0.45-0.33,0c0,0.33-0.33,0.45-0.78,0.33c-0.45-0.11-0.78,0-0.78,0.33c0,0.67-1.67,0.33-2.67-0.67
		C67.38,145.07,67.05,144.84,67.05,145.07 M36.87,148.96c0,0.89-0.33,1.67-0.56,1.78c-0.33,0.11-0.33,0.22,0,0.22
		c0.67,0,1-0.78,0.78-2.34C36.98,147.4,36.98,147.4,36.87,148.96 M156.71,148.18c0,0.22,0.33,0.67,0.89,1.11l0.89,0.78l-0.67-1.11
		C157.04,147.85,156.71,147.63,156.71,148.18 M2.12,160.44c0,1.23,0.11,1.67,0.11,1.11c0.11-0.56,0.11-1.56,0-2.12
		C2.12,158.76,2.12,159.21,2.12,160.44 M133.88,168.01c0.56,0.56,1.23,1,1.45,1c0.22,0-0.11-0.45-0.67-1
		C133.1,166.78,132.54,166.78,133.88,168.01 M155.93,169.01c-0.78,0.89-1.23,1.56-1.11,1.56c0.22,0,1.34-1.11,2.34-2.45
		C158.04,166.9,157.26,167.45,155.93,169.01 M126.75,172.91c-0.45,0.45-0.67,0.89-0.56,1c0.22,0.22,1.89-0.89,1.89-1.34
		C128.08,171.91,127.53,172.13,126.75,172.91 M143.12,172.69c-1,1.34-1.11,1.67-0.11,1c1-0.67,1.45-1.56,0.89-1.56
		C143.68,172.13,143.34,172.35,143.12,172.69 M151.36,173.24c0,0.89,0,1,0.33,0.33c0.45-1,0.45-1.34,0.11-1.34
		C151.58,172.13,151.36,172.69,151.36,173.24 M135.32,173.02c0.11,0.33,0,0.78-0.22,0.89c-0.33,0.11-0.33,0.22,0,0.22
		c0.78,0,1-0.78,0.45-1.23C135.21,172.46,135.1,172.46,135.32,173.02 M145.79,172.91c0,0.22,0.33,0.45,0.67,0.56
		c1,0.33,1,0.33,0.45-0.33C146.13,172.46,145.79,172.35,145.79,172.91 M124.41,174.91c-0.67,0.45-1,0.78-0.78,0.78
		c0.45,0,2.56-1.56,2.12-1.56C125.63,174.14,125.08,174.47,124.41,174.91 M128.08,174.69c0,0.45,2.34,3.34,2.78,3.34
		c0.56,0,0.45-0.78-0.11-0.78c-0.22,0-1-0.67-1.56-1.45C128.64,175.03,128.08,174.58,128.08,174.69 M121.74,177.59
		c-0.33,0.67-0.67,1.23-0.67,1.45c0,0.22,0.33-0.22,0.78-1s0.78-1.34,0.67-1.45C122.4,176.47,122.07,177.03,121.74,177.59
		 M151.03,176.81c0.11,0.22,0,0.45-0.22,0.56s-0.33,0.33-0.22,0.56c0.22,0.22,0.45,0.11,0.67-0.22c0.45-0.78,0.45-1.11,0-1.11
		C151.03,176.47,150.92,176.59,151.03,176.81 M234.67,180.04c0,0.22,0.56,0.33,1.23,0.33c1.56,0,1.56-0.56,0-0.67
		C235.23,179.7,234.67,179.93,234.67,180.04 M122.96,181.93c0.11,0.45,0.33,0.78,0.56,0.78c0.45,0,0.45-0.11,0.11-1
		C123.29,180.93,122.74,181.04,122.96,181.93 M228.43,183.16c-0.56,0.45-0.89,0.89-0.78,1c0.11,0.11,0.78-0.22,1.34-0.78
		C230.44,182.15,229.88,182.04,228.43,183.16 M123.74,183.6c-0.22,0.67-0.11,1.89,0.11,2.12c0.22,0.11,0.33-0.33,0.33-1
		C124.19,183.82,123.96,183.16,123.74,183.6 M0.78,185.05c-0.22,1.34-0.11,1.89,0.33,1.45c0.11-0.11,0.11-0.78,0.11-1.56l-0.11-1.34
		L0.78,185.05 M12.47,189.51c0.11,2.34,0.22,2.56,1.56,3.79l1.45,1.34l-1-1.23c-0.78-0.89-1.11-1.89-1.23-3.79
		C12.81,186.28,12.36,186.28,12.47,189.51 M137.89,191.06c-0.45,0.89-0.45,0.89,0.33,0.22c0.45-0.33,1-0.78,1.34-0.89
		c0.45-0.11,0.33-0.22-0.33-0.22C138.66,190.17,138.22,190.51,137.89,191.06 M3.01,190.84c-0.11,0.22,0.11,0.67,0.56,1.11
		c0.89,0.89,1,0.33,0.22-0.67C3.45,190.84,3.12,190.73,3.01,190.84 M5.79,199.19c0.33,0.67,0.67,1.11,0.78,1
		c0.22-0.22-0.78-2.23-1.11-2.23C5.23,198.08,5.46,198.53,5.79,199.19 M120.06,200.2c-0.67,0.56-1,1-0.78,1c0.22,0,0.78-0.45,1.34-1
		C121.85,198.97,121.62,198.97,120.06,200.2 M143.79,199.86c0,0.67,1,1.45,1.67,1.23c0.33-0.11,0.22-0.22-0.11-0.22
		s-0.89-0.33-1.11-0.67C144.01,199.75,143.79,199.64,143.79,199.86 M217.07,200.31c0,0.56,0.78,1.45,1,1.23
		c0.33-0.33-0.22-1.56-0.67-1.56C217.19,199.97,217.07,200.09,217.07,200.31 M218.3,202.42c0,0.33-0.22,0.67-0.45,0.67
		c-0.22,0-0.45,0.22-0.45,0.45c0,0.22,0.11,0.45,0.33,0.45c0.45,0,1-1.56,0.67-1.89C218.41,201.87,218.3,202.09,218.3,202.42
		 M222.2,202.09c0,0.22,0.22,0.78,0.56,1.11c0.33,0.45,0.56,0.56,0.56,0.33c0-0.22-0.22-0.78-0.56-1.11
		C222.42,202.09,222.2,201.98,222.2,202.09 M103.36,202.65c0.45,0.11,1.23,0.11,1.78,0c0.45-0.11,0.11-0.22-0.89-0.22
		C103.25,202.42,102.91,202.54,103.36,202.65 M205.94,202.87c0.11,0.33,0.45,0.67,0.67,0.67c0.56,0,0.22-0.89-0.45-1.11
		C205.94,202.31,205.83,202.54,205.94,202.87 M212.95,206.66c-0.78,1.45-0.78,1.78,0,1.11c0.33-0.22,0.45-0.67,0.33-0.78
		c-0.11-0.11,0-0.33,0.22-0.33s0.45-0.22,0.56-0.56C214.51,204.99,213.62,205.43,212.95,206.66 M206.94,206.43
		c0,0.22,0.22,0.78,0.56,1.11c0.33,0.45,0.56,0.56,0.56,0.33s-0.22-0.78-0.56-1.11S206.94,206.21,206.94,206.43 M109.71,209.44
		c0,0.22,0.45,0.33,1,0.33c1.11,0,1.67,0.78,1,1.23c-0.45,0.33-0.45,0.33,0,0.22c1.34-0.33,0.89-1.78-0.56-1.89
		C110.37,209.22,109.71,209.33,109.71,209.44 M157.49,211.34c0,0.78,0.67,1.45,1.11,1c0.11-0.11,0-0.45-0.33-0.67
		c-0.56-0.33-0.45-0.45,0.33-0.56c0.89-0.11,0.78-0.67-0.11-0.67C157.82,210.56,157.49,210.78,157.49,211.34 M162.28,211.34
		c-0.45,0.33-0.45,0.33,0.33,0.33c0.45,0,0.89-0.22,0.89-0.33C163.39,210.89,162.95,210.89,162.28,211.34 M175.2,211.34
		c0,0.22,0.22,0.45,0.56,0.45s0.56-0.22,0.56-0.45c0-0.22-0.22-0.45-0.56-0.45C175.42,211,175.2,211.11,175.2,211.34 M165.95,211.67
		c-0.11,0.22,0.22,0.33,0.78,0.33c0.56,0,0.89-0.11,0.78-0.33c-0.11-0.22-0.45-0.33-0.78-0.33
		C166.4,211.34,166.06,211.56,165.95,211.67 M165.51,217.13c0.33,0.11,1,0.11,1.34,0s0.11-0.22-0.67-0.22
		C165.4,216.9,165.06,217.02,165.51,217.13 M252.83,218.02c-0.22,0.45-0.89,1-1.45,1.23c-1.23,0.56-1.34,1-1,2.67l0.33,1.34v-1.45
		c0-1.34,1.56-3.45,2.45-3.45c0.11,0,0.33-0.22,0.45-0.56C253.94,216.9,253.38,217.13,252.83,218.02 M97.34,220.25
		c2.23,0.11,2.67,0.22,2.45,0.78c-0.11,0.33,0,0.56,0.22,0.45c2-0.67,0.56-1.45-2.34-1.34l-3.12,0.11H97.34 M124.52,221.58
		c-0.11,0.45,0,0.89,0.11,1c0.22,0.11,0.33-0.22,0.33-0.78C124.97,220.58,124.74,220.47,124.52,221.58 M142.23,221.92
		c0,0.45,0.22,0.78,0.45,0.78s0.45-0.33,0.45-0.78c0-0.45-0.22-0.78-0.45-0.78S142.23,221.47,142.23,221.92 M239.68,223.48
		c-0.67,0.78-0.89,1.45-0.22,1c0.45-0.22,1.34-1.78,1-1.78C240.35,222.7,240.02,223.03,239.68,223.48 M146.13,223.48
		c0,0.45,1.11,1.34,1.34,1.11c0.11-0.11-0.22-0.45-0.56-0.89C146.46,223.36,146.13,223.25,146.13,223.48 M141.89,225.7
		c0,0.33,0.22,0.56,0.45,0.56s0.45-0.22,0.45-0.56s-0.22-0.56-0.45-0.56C142.01,225.03,141.89,225.37,141.89,225.7 M12.14,225.81
		c0,0.22,0.33,0.56,0.78,0.78c0.78,0.45,0.78,0.33,0.33-0.33C12.7,225.37,12.14,225.15,12.14,225.81 M97.79,226.15
		c0.45,0.11,0.89,0.45,1.11,0.67c0.22,0.33,0.22,0.22,0.11-0.11c-0.11-0.33-0.56-0.67-1.11-0.67
		C97.23,225.93,97.12,225.93,97.79,226.15 M10.02,227.04c0.45,0.45,0.78,0.67,0.89,0.56c0.22-0.22-0.67-1.34-1.23-1.34
		C9.47,226.26,9.58,226.59,10.02,227.04 M0.22,227.15c0.11,0.33,0.45,0.67,0.67,0.67c0.56,0,0.22-0.89-0.45-1.11
		C0.22,226.59,0.11,226.82,0.22,227.15 M234.89,228.38c-0.33,0.56-0.45,1-0.33,1c0.22,0,0.56-0.45,0.78-1s0.33-1,0.33-1
		S235.34,227.82,234.89,228.38 M14.48,228.49c0,0.22,0.22,0.56,0.56,0.89c0.33,0.22,0.56,0.33,0.56,0.11s-0.22-0.56-0.56-0.89
		C14.81,228.26,14.48,228.26,14.48,228.49 M16.48,230.83c0,0.22,0.33,0.67,0.67,1c0.56,0.45,0.56,0.56-0.11,0.78
		s-0.67,0.33-0.11,0.33c1.11,0,1.23-0.78,0.33-1.67C16.82,230.71,16.48,230.6,16.48,230.83 M87.43,230.83c0,0.33,2,1.34,2.23,1.11
		c0.11-0.11-0.22-0.33-0.67-0.45c-0.45-0.11-0.78-0.45-0.78-0.67c0-0.22-0.22-0.33-0.45-0.33
		C87.54,230.49,87.43,230.71,87.43,230.83 M173.64,230.71c0,0.11,0.33,0.56,0.78,1c0.89,1,1,0.78,0.33-0.45
		C174.42,230.71,173.64,230.27,173.64,230.71 M135.21,231.38c0,0.22,0.22,0.45,0.56,0.45s0.56-0.22,0.56-0.45
		c0-0.22-0.22-0.45-0.56-0.45S135.21,231.16,135.21,231.38 M92.22,232.83c-0.67,0.11-1.23,0.33-1.23,0.45
		c0,0.33,2.34,0.11,2.67-0.22C93.89,232.72,93.45,232.72,92.22,232.83 M146.57,233.72c-0.45,0.33-0.45,0.33,0,0.33
		c0.33,0,0.89,0.33,1.23,0.67c0.45,0.45,0.67,0.45,0.67,0.22c0-0.22-0.22-0.56-0.56-0.67c-0.33-0.11-0.45-0.33-0.33-0.56
		C147.8,233.17,147.24,233.17,146.57,233.72 M95.23,234.5c0,0.22,0.11,0.45,0.33,0.45c0.22,0,0.67,0.11,1.11,0.22
		c0.67,0.22,0.67,0.22,0.22-0.45C96.23,234.06,95.23,233.83,95.23,234.5 M97.57,237.51c0.56,0.56,1,1.11,1,1.23
		c0,0.11,0.22,0.11,0.33-0.11c0.22-0.22-1.67-2.23-2.12-2.23C96.79,236.39,97.12,236.95,97.57,237.51 M150.25,237.73
		c0.67,1,1.34,1.34,1.34,0.67c0-0.22-0.45-0.67-1-1l-1-0.67L150.25,237.73 M173.64,239.4c-0.56,0.56-0.45,0.67,0.11,0.33
		c0.33-0.11,0.78-0.22,0.89-0.22s0.11-0.22,0.11-0.45C174.75,238.62,174.31,238.73,173.64,239.4 M95.23,240.29c0,0.33,2.45,2,3.01,2
		c0.22,0-0.22-0.33-0.89-0.78c-0.67-0.45-1.23-1-1.23-1.23c0-0.22-0.22-0.45-0.45-0.45C95.45,239.96,95.23,240.07,95.23,240.29
		 M245.7,240.52c0.22,0.33,0.67,0.56,0.89,0.56s0.22-0.22-0.11-0.56c-0.22-0.33-0.67-0.56-0.89-0.56
		C245.36,239.96,245.36,240.18,245.7,240.52 M22.05,242.3c0,0.67,0.11,1.23,0.33,1.23c0.45,0,0.45-1.23,0-1.89
		C22.16,241.3,22.05,241.52,22.05,242.3 M19.49,242.97c0.33,0.56,0.89,0.89,1.34,0.89c1.11,0,0.89-0.56-0.56-1.23l-1.34-0.67
		L19.49,242.97 M379.35,246.31c0,0.22,0.78,1.11,1.67,1.89l1.67,1.34l-1.56-1.89C379.35,245.64,379.24,245.53,379.35,246.31
		 M176.31,246.98c0,0.22,0.33,0.56,0.78,0.78c0.67,0.33,0.78,0.33,0.56-0.11C177.42,246.98,176.31,246.42,176.31,246.98
		 M154.7,250.87c-0.56,1.34-0.56,5.46,0,4.9c0.33-0.33,0.45-1.34,0.45-3.01C155.04,251.43,154.81,250.65,154.7,250.87 M31.74,251.54
		c0,0.33,0.22,0.56,0.45,0.56c0.22,0,0.45-0.22,0.45-0.56s-0.22-0.56-0.45-0.56C31.97,250.87,31.74,251.21,31.74,251.54
		 M205.6,254.88c-0.11,0.45-0.11,0.78,0.11,0.78c0.45,0,0.78-1.11,0.45-1.34C205.94,254.1,205.71,254.44,205.6,254.88
		 M391.05,254.44c0,0.33,1.23,1.23,1.78,1.23c0.11,0-0.11-0.33-0.45-0.78C391.6,253.99,391.05,253.77,391.05,254.44 M83.2,256
		c-0.45,0.78-0.45,0.78,0.33,0.33c0.78-0.45,1.11-1.11,0.45-1.11C83.76,255.22,83.42,255.55,83.2,256 M204.49,256.78
		c0,0.45,0.89,1.23,1.23,1.23c0.22,0,0.11-0.33-0.22-0.78C205.16,256.44,204.49,256.11,204.49,256.78 M27.62,258
		c0.56,0.33,0.89,0.33,1.11,0c0.33-0.33,0.11-0.45-0.67-0.45C26.95,257.56,26.95,257.67,27.62,258 M78.97,260.01
		c-0.11,0.22,0.33,0.33,1,0.33c0.67,0,1.23-0.11,1.23-0.11C81.08,259.9,79.08,259.67,78.97,260.01 M204.93,260.12
		c0,0.33,0.22,0.56,0.45,0.56s0.45-0.22,0.45-0.56s-0.22-0.56-0.45-0.56C205.16,259.56,204.93,259.78,204.93,260.12 M205.71,261.23
		c0,0.45,2,2.23,2.23,2c0.11-0.11,0.11-0.22,0-0.33c-0.11,0-0.67-0.56-1.23-1C206.16,261.45,205.71,261.12,205.71,261.23
		 M111.82,262.12c-0.11,0.33-0.11,0.78,0.11,1c0.22,0.22,0.45,0.11,0.45-0.67C112.38,261.34,112.16,261.23,111.82,262.12
		 M83.31,262.57c0.11,0.33,0.11,0.56,0.11,0.67c0,0.11,0.22,0.11,0.45,0.11c0.22,0,0.45-0.22,0.45-0.56s-0.11-0.56-0.33-0.33
		c-0.22,0.11-0.45,0.11-0.56-0.11C83.31,262.23,83.31,262.35,83.31,262.57 M200.15,262.12c-0.33,0.11-0.67,0.45-0.67,0.89
		c0,0.45,0.11,0.45,0.22,0.22c0.11-0.22,0.45-0.45,0.78-0.45c0.33,0,0.56-0.22,0.56-0.45s0-0.33-0.11-0.33
		C200.81,262.01,200.48,262.01,200.15,262.12 M150.8,263.13c-0.33,0.45-0.78,1.11-1.11,1.34c-0.33,0.33-0.33,0.56-0.22,0.56
		c0.33,0,2.12-2,2.12-2.45C151.7,262.12,151.47,262.23,150.8,263.13 M86.65,265.35c-0.22,0.45-0.45,0.89-0.45,1
		c0,0.56,3.34,2.56,4.12,2.56c0.67,0,0.78-0.11,0.11-0.22c-0.56-0.11-0.67-0.45-0.56-1.11c0.11-0.56,0-0.89-0.11-0.78
		c-0.22,0.11-0.33,0.45-0.33,0.78c0,0.67-0.33,0.67-1.34,0c-0.78-0.67-1-2.12-0.45-2.56c0.22-0.22,0.22-0.33-0.11-0.33
		C87.21,264.68,86.87,265.02,86.65,265.35 M229.21,265.02c0,0.22,0.33,0.78,0.78,1.23c0.89,1,1,0.89,0.33-0.56
		C229.88,264.68,229.21,264.24,229.21,265.02 M80.97,265.46c-0.45,0.22-1,0.78-1.23,1.11c-0.45,0.56-0.56,0.56-0.89,0
		c-0.22-0.33-0.56-0.45-0.67-0.22c-0.22,0.22,0.56,1,1.11,1c0.11,0,0.78-0.56,1.56-1.23C82.09,264.91,82.2,264.8,80.97,265.46
		 M99.13,265.35c0,0.45,1.11,1.34,1.45,1.11c0.33-0.33-0.56-1.45-1.11-1.45C99.35,265.02,99.13,265.13,99.13,265.35 M132.09,266.58
		c0,0.22,0.45,0.45,1,0.45s0.89-0.22,0.78-0.45c-0.11-0.22-0.56-0.45-1-0.45C132.43,266.24,132.09,266.36,132.09,266.58
		 M397.73,268.03c0,0.45-0.45,1.11-0.89,1.45c-0.45,0.33-0.67,0.56-0.45,0.56c0.78,0,1.78-1.45,1.56-2.23
		C397.84,267.36,397.84,267.36,397.73,268.03 M93.45,269.25c-0.33,0.22-0.33,0.45,0.11,1.11c0.56,0.78,0.56,0.78,0.33-0.11
		c-0.22-0.89-0.22-0.89,1.11-0.78c0.78,0.11,1.45,0,1.45-0.11C96.34,268.92,94,268.81,93.45,269.25 M107.37,269.36
		c0,0.22,0.33,0.56,0.78,0.78c0.78,0.45,0.78,0.33,0.33-0.33C108.15,268.92,107.37,268.69,107.37,269.36 M158.82,270.7
		c-0.89,0.89-1,1.45-0.45,1.23c0.33-0.11,0.67-0.45,0.78-0.89C159.6,270.25,159.38,270.03,158.82,270.7 M150.25,271.92
		c-0.78,0.78-0.89,0.89-0.33,0.56c0.78-0.45,2-1.56,1.56-1.56C151.36,270.92,150.8,271.37,150.25,271.92 M204.6,274.37
		c0,0.45,0.11,0.89,0.11,0.89c0.11,0,0.45,0.11,0.78,0.22s0.67,0,0.67-0.22c0-0.22-0.11-0.33-0.22-0.22
		c-0.11,0.11-0.45-0.11-0.78-0.67l-0.45-0.89L204.6,274.37 M228.66,274.49c0,0.45,0.22,0.67,0.33,0.67
		c0.67-0.22,0.67-0.89,0.11-1.11C228.77,273.82,228.66,274.04,228.66,274.49 M125.41,274.37c0,0.33,1.89,2.23,2.12,2
		c0.11-0.11-0.33-0.67-1-1.23C125.86,274.6,125.41,274.26,125.41,274.37 M249.6,274.49c0,0.22,0.22,0.45,0.56,0.45
		s0.56-0.22,0.56-0.45c0-0.22-0.22-0.45-0.56-0.45S249.6,274.26,249.6,274.49 M237.23,275.71l-1.23,1.23l1.45-0.89
		c0.78-0.45,1.45-1,1.45-1.23C239.02,274.15,238.46,274.49,237.23,275.71 M94.78,275.93c0,0.22,0.45,0.56,0.89,0.78
		c0.78,0.33,0.78,0.33,0.22-0.11c-0.33-0.33-0.56-0.67-0.45-0.78s0-0.22-0.22-0.22C95,275.6,94.78,275.82,94.78,275.93
		 M123.29,277.94c0.56,0.67,1.23,1.11,1.23,1c0.22-0.22-1.56-2.12-2-2.12C122.4,276.82,122.74,277.27,123.29,277.94 M133.21,277.83
		c0,0.33,0.11,0.89,0.33,1.23c0.22,0.33,0.33,0.11,0.33-0.67c0-0.67-0.11-1.23-0.33-1.23C133.32,277.16,133.21,277.49,133.21,277.83
		 M105.36,278.38c0.89,0.78,1.23,0.89,1.23,0.67c0-0.33-1.23-1.45-1.67-1.45C104.69,277.6,104.92,277.94,105.36,278.38
		 M134.43,277.94c0,0.22,0.45,0.56,1,0.78c1.11,0.56,1.23,0.33,0.33-0.45C135.1,277.49,134.43,277.38,134.43,277.94 M227.66,277.94
		c0,0.11,0.56,0.78,1.23,1.34c0.67,0.67,1.23,1,1.23,0.78c0-0.22-0.33-0.56-0.78-0.89c-0.45-0.33-0.78-0.78-0.67-1
		c0.11-0.22-0.11-0.45-0.33-0.45C227.88,277.72,227.66,277.83,227.66,277.94 M83.2,279.16c-0.45,0.78-0.45,0.78,0.33,0.33
		c0.45-0.22,0.78-0.67,0.78-0.78C84.2,278.05,83.64,278.38,83.2,279.16 M92.89,278.72c0,0.22,0.45,0.67,0.89,1.11
		c0.45,0.45,0.67,0.45,0.45,0.22c-0.22-0.33-0.33-0.78-0.22-1.11c0.11-0.33,0-0.56-0.45-0.56C93.11,278.38,92.89,278.5,92.89,278.72
		 M86.65,279.28c0,0.33,0.22,0.56,0.45,0.56s0.45-0.22,0.45-0.56s-0.22-0.56-0.45-0.56C86.76,278.72,86.65,279.05,86.65,279.28
		 M127.19,281.39c0.67,0.67,1.23,1.11,1.34,1c0.22-0.11-0.89-1.34-1.67-1.78C126.19,280.28,126.3,280.61,127.19,281.39
		 M141.89,282.39c0,0.56,1.11,1.67,1.34,1.45c0.11-0.11-0.22-0.56-0.56-1.11C142.12,282.06,141.89,281.95,141.89,282.39
		 M208.94,282.62c0,0.45,0.22,0.67,0.56,0.56c0.56-0.22,0.45-1-0.22-1.23C209.06,281.95,208.94,282.17,208.94,282.62 M132.54,283.28
		c-0.45,0.45-0.78,0.89-0.56,0.89c0.33,0,1.78-1.56,1.56-1.67C133.54,282.51,132.98,282.84,132.54,283.28 M225.65,286.4
		c-0.22,0.33-0.33,0.67-0.22,0.89c0.33,0.33,1.45-0.56,1.45-1.11S226.21,285.74,225.65,286.4 M213.18,288.52
		c0,0.22,0.33,0.45,0.78,0.56c0.67,0.22,0.67,0.11,0.33-0.33C213.84,288.07,213.18,287.96,213.18,288.52 M221.42,292.2
		c-1.56,1.56-2,2.34-2,3.23c0,1.11,0,1.11,0.33-0.22c0.22-0.89,1-1.89,2.23-3.01c1-0.89,1.78-1.78,1.67-1.89
		C223.65,290.19,222.53,291.08,221.42,292.2 M147.8,291.19c0.33,0.11,1,0.11,1.34,0c0.33-0.11,0.11-0.22-0.67-0.22
		C147.8,290.97,147.46,291.08,147.8,291.19 M214.4,297.76c0,0.22,0.22,0.78,0.56,1.34s0.56,0.78,0.56,0.56s-0.22-0.78-0.56-1.34
		C214.62,297.76,214.4,297.54,214.4,297.76 M217.85,303.78c0.33,0.22,1,0.33,1.56,0.45c1.23,0,0.89-0.22-0.78-0.56
		C217.63,303.56,217.41,303.56,217.85,303.78"/>
	<path id="path1" class="st0" d="M108.59,61.64c-0.33,0.22,0,0.33,0.89,0.33c0.78,0,1.23-0.11,1.11-0.33
		C110.37,61.2,109.26,61.2,108.59,61.64 M137.66,80.91c0,1.23,0.11,1.67,0.11,1.11c0.11-0.56,0.11-1.56,0-2.12
		C137.77,79.24,137.66,79.69,137.66,80.91 M38.76,101.63c0,0.22,0.22,0.45,0.56,0.45c0.33,0,0.56-0.22,0.56-0.45
		c0-0.22-0.22-0.45-0.56-0.45C39.09,101.29,38.76,101.41,38.76,101.63 M65.27,110.2c0.11,0.22,0.67,0.45,1.23,0.45s1-0.22,1-0.45
		s-0.56-0.45-1.23-0.45C65.49,109.87,65.16,109.98,65.27,110.2 M84.54,110.98c-0.22,0.89,0.56,2,1.11,1.56
		c0.11-0.11,0.11-0.22-0.22-0.22c-0.33,0-0.45-0.45-0.56-1.11C84.87,110.09,84.76,110.09,84.54,110.98 M54.46,125.13
		c0,0.22,0.22,0.45,0.56,0.45s0.56-0.22,0.56-0.45s-0.22-0.45-0.56-0.45S54.46,124.91,54.46,125.13 M21.72,134.93
		c0.22,0.33,0.11,0.45-0.45,0.22c-0.78-0.22-0.78-0.22,0,0.33c0.89,0.67,1.23,0.78,1.56,0.22c0.11-0.22,0-0.33-0.45-0.11
		c-0.45,0.22-0.56,0.11-0.45-0.22c0.11-0.22,0.11-0.56-0.22-0.67C21.61,134.48,21.5,134.6,21.72,134.93 M122.74,135.26
		c0.33,0.11,1,0.11,1.34,0c0.33-0.11,0.11-0.22-0.67-0.22C122.63,135.04,122.4,135.15,122.74,135.26 M37.53,138.61
		c-0.56,0.56-0.89,1.11-0.78,1.11c0.33,0,2.23-1.89,2-2.12C38.65,137.49,38.09,137.94,37.53,138.61 M67.83,141.17
		c0,0.22,0.11,0.45,0.33,0.45c0.22,0,0.45,0.33,0.56,0.67c0.11,0.56,0.22,0.56,0.22,0c0-0.33-0.22-0.89-0.56-1.11
		C67.94,140.83,67.83,140.83,67.83,141.17 M15.04,143.84c0.56,0.11,1.45,0.11,2,0c0.45-0.11,0-0.22-1.11-0.11
		C14.81,143.73,14.37,143.73,15.04,143.84 M32.19,152.31c0,0.22,0.33,0.33,0.78,0.33s0.78-0.11,0.78-0.33s-0.33-0.33-0.78-0.33
		S32.19,152.08,32.19,152.31 M2.12,155.87c0,1.11,0.11,1.45,0.22,0.89s0.11-1.45,0-2C2.12,154.31,2.12,154.87,2.12,155.87
		 M160.72,160.77c0,0.78,0.11,1.11,0.22,0.67c0.11-0.33,0.11-1,0-1.34C160.83,159.77,160.72,160.1,160.72,160.77 M154.37,169.9
		c-0.78,0.67-1,1-0.56,0.78c0.67-0.33,2.45-2.12,2.12-2C155.82,168.68,155.15,169.23,154.37,169.9 M2.45,171.8
		c0,1.23,0.11,1.67,0.11,1.11c0.11-0.56,0.11-1.56,0-2.12C2.56,170.13,2.45,170.57,2.45,171.8 M137.11,177.59
		c0.22,0.45,0.22,0.78-0.22,1.23c-0.56,0.45-0.56,0.45,0.22,0.11c0.78-0.33,0.67-2-0.11-2
		C136.77,176.92,136.88,177.14,137.11,177.59 M109.48,200.42c-0.11,0.22,0.22,0.45,1,0.45c0.67,0,1.23-0.22,1.23-0.45
		s-0.45-0.45-1-0.45C110.15,199.97,109.71,200.2,109.48,200.42 M6.01,201.76c0,0.78,0.11,1.11,0.33,0.89c0.45-0.67,0.45-1.78,0-2
		C6.24,200.53,6.01,201.09,6.01,201.76 M224.2,202.2c0,0.89,0.11,1.78,0.22,1.78c0.22,0.11,0.22-0.45,0.22-1.23
		C224.43,200.64,224.2,200.42,224.2,202.2 M200.15,207.88c0.67,0.33,1,0.33,1.34,0s0.11-0.45-0.89-0.45
		C199.37,207.44,199.25,207.55,200.15,207.88 M0,225.81c0,0.45,0.22,0.78,0.45,0.78c0.22,0,0.45-0.33,0.45-0.78
		c0-0.45-0.22-0.78-0.45-0.78S0,225.37,0,225.81 M80.97,231.38c0.11,0.22,0.45,0.45,0.78,0.45c0.33,0,0.67-0.22,0.78-0.45
		c0.11-0.22-0.22-0.45-0.78-0.45C81.08,230.94,80.75,231.16,80.97,231.38 M21.72,242.3c0,0.89,0.11,1.11,0.33,0.67
		c0.22-0.33,0.22-0.89,0-1.23C21.83,241.18,21.72,241.41,21.72,242.3 M91.22,248.54c0.22,0.33,0.45,1,0.45,1.67
		c0,0.56,0.22,1.11,0.45,1.11c0.78,0,0.45-1.89-0.45-2.56C91.11,248.31,90.88,248.31,91.22,248.54 M223.87,258.56
		c0.89,0.67,2.23,0.78,2.23,0.22c0-0.22-0.33-0.45-0.78-0.45c-0.45,0-1.11-0.11-1.45-0.22C223.2,257.89,223.2,258,223.87,258.56
		 M116.83,263.01c0,0.11,0.45,0.67,1.11,1l1.11,0.78l-1-1C116.95,262.57,116.72,262.46,116.83,263.01 M80.75,266.58
		c0,0.22,0.45,0.45,1,0.45s1-0.22,1-0.45s-0.45-0.45-1-0.45C81.19,266.24,80.75,266.36,80.75,266.58 M134.21,266.58
		c0.11,0.22,0.45,0.45,0.78,0.45s0.56-0.22,0.56-0.45s-0.33-0.45-0.78-0.45C134.32,266.24,134.1,266.36,134.21,266.58 M94.34,272.59
		c-0.11,0.22,0,0.89,0.33,1.23c0.56,0.67,0.56,0.67,0.56-0.56S94.67,271.59,94.34,272.59 M170.07,283.84c0,0.22-0.78,0.45-1.67,0.56
		l-1.67,0.11l1.67,0.11c1,0,1.78-0.11,2.12-0.56c0.33-0.45,0.33-0.56,0-0.56C170.3,283.4,170.07,283.62,170.07,283.84 M66.49,285.74
		c0.67,0.11,1.78,0.11,2.34,0c0.56-0.11,0-0.11-1.23-0.11C66.27,285.51,65.82,285.62,66.49,285.74 M219.08,295.2
		c0,0.78,0.11,1.11,0.22,0.67c0.11-0.33,0.11-1,0-1.34C219.19,294.09,219.08,294.42,219.08,295.2"/>
	<path id="path2" class="st0" d="M110.82,61.76c0.22,0.22,0.78,0.33,1.34,0.22c0.78-0.11,0.78-0.22-0.33-0.33
		C110.93,61.53,110.6,61.53,110.82,61.76 M99.13,69.33c-0.56,0.33-1.11,0.89-1.23,1.45c-0.33,0.89-0.33,0.89,0.33,0.11
		c0.33-0.45,1-1.11,1.45-1.45C100.57,68.66,100.46,68.55,99.13,69.33 M53.13,97.4c0.22,0.45,1.34,0.45,1.34,0.11
		c0-0.22-0.33-0.33-0.78-0.33C53.24,97.06,53.02,97.17,53.13,97.4 M20.38,109.65c-0.22,0.33-0.33,0.56-0.11,0.56
		s0.56-0.22,0.89-0.56c0.22-0.33,0.33-0.56,0.11-0.56S20.6,109.31,20.38,109.65 M123.41,110.76c0,0.11,0.56,0.22,1.34,0.33
		s1.23,0,1.11-0.11C125.75,110.65,123.41,110.54,123.41,110.76 M63.04,114.33c-0.78,0.89-0.33,1,0.56,0.11
		c0.45-0.45,0.56-0.78,0.33-0.78C63.71,113.77,63.37,114.1,63.04,114.33 M31.74,118.89c-0.45,0.22-0.45,0.45-0.11,1.11
		c0.33,0.56,0.45,0.56,0.22,0.11c-0.11-0.33,0-0.89,0.22-1.11C32.74,118.45,32.52,118.33,31.74,118.89 M59.7,130.59
		c0.11,0.22,0.67,0.67,1.11,0.89c0.56,0.33,0.78,0.33,0.56,0c-0.11-0.22-0.67-0.67-1.11-0.89C59.7,130.25,59.59,130.25,59.7,130.59
		 M25.28,133.48c0.11,0.67,0,1.23-0.45,1.67c-0.33,0.33-0.45,0.67-0.22,0.67c0.89,0,1.34-1.11,0.89-2.23l-0.45-1.11L25.28,133.48
		 M193.13,133.71c0,0.89,0.78,1.45,0.78,0.56c0-0.45-0.22-0.89-0.33-0.89C193.35,133.37,193.13,133.48,193.13,133.71 M119.29,134.37
		c0.11,0.22,0.45,0.33,0.89,0.22c1.23-0.22,1.34-0.67,0.11-0.67C119.62,133.93,119.17,134.15,119.29,134.37 M125.52,142.62
		c-0.11,0.33-0.45,0.45-0.67,0.33c-0.22-0.11-0.33-0.11-0.11,0.22c0.22,0.33,0.56,0.33,1.11-0.22c0.45-0.33,0.89-0.78,1-0.78
		c0.11-0.11-0.11-0.11-0.45-0.11C126.08,141.95,125.63,142.28,125.52,142.62 M159.83,151.97c1,1.11,1.23,1.23,1.23,0.78
		c0-0.11-0.45-0.67-1.11-1l-1.11-0.78L159.83,151.97 M159.05,165.34c-0.22,0.33-0.33,0.56-0.11,0.56c0.22,0,0.56-0.22,0.89-0.56
		c0.22-0.33,0.33-0.56,0.11-0.56C159.72,164.67,159.38,165,159.05,165.34 M151.14,172.8c-0.33,0.33-0.33,1.56,0.11,1.89
		c0.22,0.11,0.33-0.33,0.33-1s0-1.11-0.11-1.11C151.36,172.58,151.25,172.69,151.14,172.8 M129.31,175.92
		c0.56,0.67,1,1.23,1.11,1.34c0,0.11,0.22,0.11,0.33,0c0.11-0.11-0.33-0.67-1.11-1.34l-1.23-1.11L129.31,175.92 M0.45,184.72
		c0,0.67,0.11,1.23,0.11,1.23c0.11,0,0.22-0.56,0.33-1.23c0.11-0.67,0-1.23-0.11-1.23C0.56,183.49,0.45,184.05,0.45,184.72
		 M123.85,188.84c0.11,0.22,0.11,0.67-0.11,1c-0.22,0.45-0.22,0.78,0,0.78c0.56,0,0.78-1.56,0.33-1.78
		C123.85,188.61,123.74,188.61,123.85,188.84 M2,191.18c0.33,0.33,0.89,0.56,1.11,0.56c0.22-0.11,0-0.33-0.67-0.67
		C1.45,190.51,1.45,190.62,2,191.18 M217.85,195.63c0,0.11,0.56,0.78,1.23,1.23l1.23,1l-1-1.23
		C218.52,195.41,217.85,194.96,217.85,195.63 M111.71,200.42c0,0.22,0.45,0.45,1,0.45c0.56,0,1-0.22,1-0.45s-0.45-0.45-1-0.45
		C112.16,199.97,111.71,200.2,111.71,200.42 M172.97,210.56c-0.11,0.22,0,0.33,0.33,0.22c0.33-0.11,0.78,0.11,1.23,0.67
		c0.33,0.45,0.67,0.67,0.67,0.45C175.2,210.78,173.53,209.78,172.97,210.56 M118.17,222.92c-0.45,0.45-0.22,0.89,0.33,0.67
		c0.33-0.11,0.56-0.33,0.56-0.56C119.17,222.7,118.62,222.58,118.17,222.92 M93.22,232.5c0.33,0.22,0.56,0.56,0.56,0.89
		c0,0.33,0.22,0.56,0.56,0.67c0.56,0.11,0.56,0.11,0-0.22c-0.33-0.22-0.45-0.45-0.22-0.45s0.11-0.22-0.11-0.56
		c-0.22-0.33-0.67-0.56-0.89-0.56C92.89,232.16,92.89,232.27,93.22,232.5 M18.93,235.17c0.45,0.45,1.45,0.45,1.45,0.11
		c0-0.22-0.33-0.33-0.89-0.33C19.05,234.84,18.82,234.95,18.93,235.17 M31.52,247.64c-0.11,0.33,0,0.78,0.22,1
		c0.22,0.22,0.33,0.11,0.33-0.67C31.97,246.86,31.85,246.75,31.52,247.64 M228.99,272.59c-0.67,0.45-0.67,0.67-0.22,1.11
		c0.45,0.45,0.56,0.45,0.33-0.11c-0.11-0.33,0.11-0.78,0.45-1.11C230.44,271.92,229.88,271.92,228.99,272.59 M167.51,275.15
		l-1.11,1.45l1.34-1.23c0.78-0.67,1.23-1.34,1.11-1.45C168.74,273.82,168.18,274.37,167.51,275.15 M127.86,277.38
		c0.45,0.56,0.89,0.89,1,0.78c0.22-0.22-1.11-1.78-1.56-1.78C127.08,276.38,127.3,276.82,127.86,277.38 M165.73,279.16
		c0,0.11,0.78,1,1.78,2c1,1,1.78,1.67,1.78,1.56c0-0.22-0.78-1.11-1.78-2C166.51,279.72,165.73,279.05,165.73,279.16 M197.03,282.73
		c-0.11,0.56-0.11,1,0.11,0.89c0.22-0.11,0.33,0,0.33,0.22c0,0.22,0.22,0.33,0.45,0.22c0.22-0.22,0.33-0.33,0-0.56
		c-0.22-0.11-0.45-0.56-0.56-1C197.25,281.84,197.25,281.84,197.03,282.73 M146.91,290.52c0,0.22,0.67,0.33,1.34,0.33
		c0.67,0,1.34-0.11,1.34-0.11c0-0.11-0.67-0.22-1.34-0.33C147.58,290.3,146.91,290.41,146.91,290.52"/>
	<path id="path3" class="st0" d="M141,49.5c-1.89,0.22-4.46,1.56-7.57,4.01c-1.11,0.78-2.12,1.34-2.34,1.23
		c-0.22-0.11-0.22-0.11-0.11,0.11c0.33,0.56-7.69,6.13-8.24,5.68c0,0-0.78,0.22-1.45,0.56c-0.78,0.33-1.78,0.45-2.12,0.33
		c-0.45-0.11-0.78-0.11-1,0.11c-0.11,0.22-2.56,0.33-5.57,0.33c-2.9,0-5.35,0.11-5.35,0.22c0,0.11-0.22,0.33-0.45,0.33
		s-1.23,0.78-2,1.78c-0.89,1-3.01,3.23-4.68,5.01c-1.78,1.78-3.9,4.34-4.9,5.79c-0.89,1.45-1.89,2.67-2,2.67
		c-0.22,0-0.33,0.11-0.33,0.33c0,1.89-11.14,15.7-12.59,15.7c-0.11,0-0.67,0.33-1,0.67c-1.11,1.11-5.01,2.9-5.68,2.67
		c-0.33-0.11-0.56,0-0.56,0.22c0,0.22-0.22,0.33-0.56,0.22c-0.33-0.11-0.67,0-0.67,0.11c-0.22,0.56-6.01,1.11-9.13,0.89
		c-1.56-0.11-2.78-0.45-2.67-0.56c0.11-0.22-0.78-0.22-1.89-0.11c-1.23,0.11-2.23,0.11-2.34-0.11c-0.11-0.22-1-0.33-2-0.22
		c-1.34,0.11-1.89,0-2.23-0.33c-0.33-0.45-0.45-0.45-0.56-0.11c-0.11,0.22-0.45,0.45-0.67,0.45s-0.89,0.45-1.45,1
		c-1.23,1.34-4.01,2.45-6.24,2.56c-1,0-1.89,0.22-1.89,0.33s-0.56,0.33-1.23,0.33s-1.23-0.22-1.23-0.45c0-0.22-0.22-0.33-0.56-0.22
		c-0.78,0.33-4.9-0.56-4.9-1c0-0.56-1.89-0.33-2.78,0.33c-1.11,0.89-1.89,1.78-4.34,4.79c-1.11,1.45-2.56,3.01-3.34,3.56
		c-0.78,0.56-1.78,1.56-2.23,2.34c-0.56,0.67-1.23,1.56-1.56,2c-1.45,1.56-7.24,9.02-8.13,10.69c-1.56,2.67-1.45,3.45,0.78,4.68
		c1.56,0.89,1.89,1.23,2.23,2.67c0.22,0.89,1,2.34,1.89,3.34c0.78,0.89,1.45,1.78,1.45,2s0.22,0.22,0.33,0.11
		c0.78-0.56,4.01,0.67,4.79,1.78c2.78,3.68,5.01,5.35,5.01,3.79c0-0.22,0.22-0.33,0.45-0.22c0.45,0.11,2.23-1.45,2.23-1.89
		c0-0.11-0.33-0.78-0.67-1.45c-0.56-1-0.56-1.23-0.11-1.56c1-0.67-0.89-2-2.23-1.56c-0.56,0.22-1.23,0.33-1.45,0.22
		c-0.22-0.11-0.33,0-0.33,0.22c0,0.33-0.45,0.33-1.23,0.22c-0.67-0.11-2.12-0.33-3.12-0.33c-1.89,0-2.34-0.45-1.23-1
		c0.78-0.45,2.67-0.33,3.9,0.11c1,0.33,2-0.22,2-1.23c0-0.33-0.45-0.56-1.45-0.56c-1.11,0-1.34-0.11-1.23-0.67
		c0.11-0.33,0.33-1.78,0.45-3.23c0.11-1.34,0.22-2.56,0.33-2.56s0.67-0.45,1.34-0.89c0.67-0.45,1.56-0.89,2-0.89
		c0.89,0,3.23-2.78,3.23-3.9c0-0.45,0.11-0.89,0.33-1c0.22-0.11,0.22-0.56,0.22-0.89c-0.11-0.45,0.33-1.11,1.34-2.12
		c0.89-0.78,1.45-1.67,1.34-2c-0.11-0.78,1.34-1.67,2.12-1.34c0.33,0.11,0.56,0,0.56-0.11c0-0.22,0.33-0.33,0.78-0.33
		s0.67,0.11,0.56,0.33c-0.11,0.22,0.33,0.33,0.89,0.33c0.67,0,1.11-0.11,1-0.22c-0.11-0.11,0.56-0.56,1.45-1s1.78-1.23,2-1.56
		c0.78-1.45,2.23-1.78,3.34-0.67c0.67,0.56,0.78,0.56,1.89-0.22c0.67-0.45,1.34-0.78,1.67-0.78c0.22,0,1-0.45,1.67-1
		c1.11-0.89,1.23-1,2.34-0.33c0.78,0.45,1.34,0.45,1.67,0.22c0.22-0.22,0.78-0.45,1.23-0.56c1.34-0.22,2.12-0.78,2.12-1.34
		c0-0.33,0.22-0.45,0.67-0.33c1.11,0.45,5.57,3.56,5.46,3.79c-0.22,0.33,4.79-0.33,5.68-0.78c0.45-0.22,0.78-0.33,0.78-0.11
		s0.22,0,0.56-0.22s0.56-0.33,0.56-0.22c0,0.11,0.22,0.11,0.56-0.11c0.33-0.22,1.11-0.45,1.78-0.56c0.67-0.11,1.23-0.22,1.23-0.33
		c0-0.33,3.01-0.89,4.01-0.78c0.33,0,0.56-0.11,0.45-0.22c-0.11-0.22,1.34-0.45,3.23-0.45c2.9-0.11,3.68-0.33,4.46-1
		c1.11-1,2.45-1.11,3.56-0.33c1.23,0.89,1.56,0.78,3.45-1.23l1.78-1.78l1.45,0.67c2.9,1.23,3.12,1.34,4.23,2.34
		c1,0.78,1,0.89,0.33,0.67c-0.45-0.11-1,0-1.11,0.22c-0.33,0.56-5.57,0.56-5.79,0c-0.11-0.22-1,0-2.23,0.56
		c-1.11,0.56-2.23,0.89-2.34,0.78c-0.11-0.11-0.56,0.33-0.89,1c-0.33,0.67-0.89,1.11-1,1.11c-0.22,0-0.33,0.22-0.33,0.45
		c0,1.11-2.12,2.9-3.34,2.9c-1,0-1.11-0.22-1.11-1.11c0-0.67-0.11-1.11-0.45-1.11s-0.56-0.22-0.56-0.33c0-0.22-0.22-0.22-0.56-0.11
		s-0.56,0-0.56-0.22c0-0.22-0.11-0.33-0.33-0.22c-0.22,0.11-1.23,0-2.34-0.33c-1.89-0.56-3.56-0.56-4.9,0c-0.33,0.11-0.89,0.22-1,0
		c-0.22-0.11-0.45,0-0.56,0.22c-0.11,0.22-0.78,0.45-1.56,0.45c-0.78,0-1.45,0.11-1.45,0.33c0,0.11-0.33,0.33-0.78,0.33
		c-0.45,0-0.89,0.22-1,0.56s-0.33,0.45-0.56,0.33c-0.22-0.11-0.22,0-0.11,0.33c0.11,0.33-0.56,0.89-1.78,1.56
		c-2.56,1.34-5.57,6.13-4.01,6.13c1.78,0,2.45,2.9,1,4.68c-1.45,1.78-0.56,5.01,1.78,5.9c0.67,0.22,1.11,0.67,1.11,0.89
		c0,0.89-1.67,3.01-2.45,3.23c-1.56,0.45-2.34,1.34-1.67,2c0.78,0.78,1.45,0.67,2.67-0.45c2.34-2,6.68-1.23,5.35,0.89
		c0,0.11,0.11,0.33,0.45,0.45c0.33,0.22,0.33,0.33,0.11,0.33s-0.33,0.33-0.22,0.67c0.11,0.33,0,1.23-0.33,1.89
		c-0.56,1.45-0.67,1.78-0.89,4.34c-0.22,2.12,0.11,2.34,1.67,1.23c0.22-0.22,0.67-0.22,0.89-0.11c0.22,0.11,0.45,0,0.56-0.22
		c0.11-0.33,0.33-0.22,0.78,0.22c0.78,0.78,0.22,2-0.67,1.56c-0.22-0.11-0.67,0.11-1.11,0.67l-0.67,0.89l-1.56-1.23
		c-0.89-0.67-1.56-1.45-1.56-1.67c0-0.22-0.22-0.56-0.56-0.89c-0.56-0.33-0.45-0.56,0.45-1.56c2.23-2.67,1.23-3.34-4.79-3.45
		c-1.23,0-1.67-0.22-1.67-0.67c0-0.56-0.11-0.56-0.45,0.11c-0.33,0.56-0.33,0.89,0,1.45c0.67,1,0.56,1.11-1,1.11
		c-0.89,0-1.34,0.11-1.11,0.45c0.11,0.22,0,0.67-0.22,1s-0.33,0.78-0.22,0.89c0.11,0.22-0.11,0.67-0.67,1
		c-1,0.67-1.67,0.78-1.34,0.22c0.11-0.22,0-0.45-0.22-0.56c-1.11-0.33-0.67-4.01,0.67-5.46c0.67-0.78,1.34-1.67,1.34-1.89
		c0-0.56,3.01-3.23,4.01-3.68c0.45-0.22,0.67-0.45,0.45-0.56c-0.89-0.56-3.23-4.01-3.45-5.01c-0.56-2.12-3.45-3.45-4.34-2
		c-0.22,0.33-1,0.33-2.34,0.22c-1.78-0.22-2.12-0.11-2.78,0.56c-0.45,0.45-1.45,1.23-2.34,1.78c-2.78,1.56-4.12,4.46-2.23,4.46
		c1,0,0.89,0.11-1,1.11c-2,1-4.23,2.78-4.34,3.45c0,1.11-1.67,2.45-3.01,2.45c-1.56,0-2.12,0.78-1.23,1.78
		c0.33,0.33,0.67,0.78,0.67,1.11c0,0.22,0.78,0.78,1.56,1.23c1.34,0.56,1.56,0.89,1.34,1.56c-0.11,0.45-0.33,1.78-0.56,3.01
		c-0.33,2.56-1,3.56-2.34,3.34c-0.45-0.11-0.89,0-0.89,0.11c0,1.89-4.9-0.67-5.57-2.9c-0.22-0.89-0.67-2.45-1-3.56l-0.56-1.89
		l-0.67,1.23c-1.34,2.23-2,2.23-5.01,0.33c-3.23-2.12-8.35-2.23-8.35-0.33c0,0.45-0.22,0.89-0.33,1c-0.56,0.33-1.34-1.34-1-2.23
		c0.22-0.89-0.67-1.78-2-1.89c-0.56,0-0.89-0.33-1.11-1c-0.11-0.56-0.45-1-0.67-1c-1.11,0-1.45-1.34-0.67-2.9
		c0.45-1,0.67-1.89,0.56-2.56l-0.22-1l-1,0.89c-0.56,0.45-1.11,1.56-1.45,2.34c-0.33,0.78-0.67,1.34-0.89,1.23
		c-0.22-0.11-0.22,0-0.11,0.22c0.33,0.45-0.22,2.23-1.23,4.79c-0.33,0.78-0.67,1.56-0.67,1.78c0,0.22-0.22,0.67-0.33,1.11
		c-0.22,0.45-0.11,3.01,0.11,5.9c0.22,2.78,0.45,7.24,0.33,9.91c-0.11,2.56,0,6.57,0.22,8.91c0.22,3.23,0.22,4.34-0.11,4.79
		c-0.22,0.33-0.33,0.78-0.22,1c0.11,0.22,0,0.89-0.22,1.45c-0.89,2.23-0.89,2.78-0.89,7.24c0,3.9,0.11,4.68,0.67,5.23
		c0.67,0.67,0.67,0.67,0.78-0.22c0-0.45,0.11-1.34,0.22-1.89c0.11-0.56,0.22-2.34,0.45-3.79c0.22-2.45,1.67-4.57,1.67-2.56
		c0,0.22,0.11,0.33,0.33,0.22c0.22-0.11,0.89,0,1.45,0.22c0.56,0.22,1.34,0.45,1.45,0.56c2.67,0.56,4.46,2.9,4.79,6.13
		c0.22,2.12,0.45,2.67,1.67,4.12c4.12,4.68,3.23,6.68-5.12,10.69c-4.34,2.12-4.46,2.12-4.12-0.89c0.22-1.56,0.11-2.78-0.33-4.12
		c-0.33-1-0.89-3.01-1.11-4.23c-0.33-1.78-0.67-2.34-1.23-2.45c-0.67-0.11-0.67-0.11-0.22,0.45c0.33,0.33,0.45,1,0.22,1.45
		c-0.11,0.56-0.11,0.78,0.22,0.78c0.33,0,0.33,0.45,0.22,1.23c-0.11,0.67-0.11,1.23,0.22,1.23c0.22,0,0.33,0.45,0.33,1.11
		c0,0.56,0,1.34,0.22,1.78c0.11,0.33,0.22,1,0.11,1.23c-0.11,0.33,0,0.56,0.22,0.56c0.22,0,0.33,0.56,0.22,1.34
		c-0.11,0.78-0.11,1.23,0,1.11c0.11-0.11,0.33,0.78,0.56,1.89c0.45,2.34,0.11,9.02-0.56,9.24c-0.22,0.11-0.33,0.33-0.22,0.67
		c0.11,0.33,0,0.56-0.22,0.56s-0.33,0.33-0.22,0.78c0.11,0.45-0.11,1-0.45,1.34s-0.56,0.67-0.45,0.67c0.11,0-0.45,1.11-1.11,2.56
		c-1.89,3.68-1.67,5.68,0.67,5.35c0.67-0.11,1.11,0,1.11,0.22s0.33,0.33,0.78,0.22c0.45-0.11,0.78,0,0.78,0.22s0.22,0.33,0.33,0.22
		c0.11-0.11,1.78,0.78,3.56,1.89c1.78,1.23,3.56,2.12,4.01,2.12c0.67,0,0.78-0.11,0.22-0.45c-0.56-0.33-0.56-0.45,0-0.78
		c0.45-0.33,0.45-0.33,0-0.45c-0.78,0-3.56-1.23-3.56-1.67c0-0.22-0.22-0.33-0.56-0.33s-0.45-0.22-0.33-0.45s0.56-0.33,0.78-0.22
		c0.45,0.22,0.45,0.11,0.11-0.56c-0.22-0.45-0.56-0.78-0.78-0.78c-2.23,0,0.22-2.9,2.56-3.01c1.78-0.11,2.56,0.33,1.45,1
		c-1.23,0.67,6.35,8.91,7.8,8.35c0.22-0.11,0.56,0.11,0.89,0.33s1.56,0.45,2.78,0.33c3.23-0.11,5.9,0.67,5.46,1.56
		c-0.11,0.22,0,0.45,0.22,0.45c0.22,0.11,0.45,0.67,0.45,1.23s0.22,1.11,0.45,1.11s0.22,0.67,0.22,1.34c-0.11,0.78,0,1.34,0.22,1.34
		s0.22,0.45,0.22,1c-0.11,0.56-0.11,1,0.11,1c0.11,0,0.33,0.78,0.33,1.78s-0.11,1.78-0.22,1.78s-0.33,0.67-0.33,1.56
		c0,0.89,0.11,1.56,0.33,1.56s0.33,0.56,0.22,1.34c-0.11,0.78,0,1.23,0.11,1.11c0.22-0.11,0.33,0.11,0.33,0.56
		c0,0.45,0.33,1.56,0.78,2.56c1.11,2.56,1,3.45-0.11,3.12c-0.56-0.11-1.34,0-1.78,0.22c-1.11,0.67-0.78,0.89,0.56,0.45
		c1.56-0.56,2,1.67,0.56,3.23c-0.22,0.33-0.56,0.89-0.56,1.34c-0.56,3.9-0.56,4.57,0.45,7.46c0.78,2.12,0.89,3.12,0.67,3.45
		c-0.22,0.22-0.45,1.23-0.45,2.23v1.78l3.01-0.22c1.67-0.11,3.45-0.45,4.01-0.67c1.45-0.56,8.58,0.33,8.58,1
		c0,0.11,0.56,0.33,1.23,0.33s1.34,0.22,1.45,0.45c0.11,0.22,0.56,0.33,1,0.22c0.45-0.11,1,0,1.11,0.11c0.11,0.22,0.56,0.33,1,0.22
		c0.45-0.11,1,0,1.34,0.22c0.33,0.22,0.67,0.33,0.78,0.22c0.33-0.33,7.35,1.45,7.13,1.78c-0.11,0.22,0,0.33,0.22,0.33
		c0.22,0,0.45,0.45,0.45,0.89c0,1.89,4.01,2.67,6.68,1.23c0.67-0.33,1.11-0.45,1.11-0.33c0,0.11,0.22,0,0.56-0.22
		c0.45-0.33,0.78-0.33,1.45,0c1.56,0.89,2.34,0.67,2.56-0.56s4.34-4.68,5.68-4.68c0.45,0,1.11-0.67,1.78-2
		c1-1.89,2.78-2.56,4.01-1.45c0.33,0.33-0.22,1.56-0.67,1.23c-0.67-0.33-0.78,0.67-0.11,1.56c0.33,0.45,0.56,1,0.45,1.23
		c-0.22,1.11,0.11,1.23,1.78,1.11c1.56-0.11,1.89,0,2.67,1.11c1,1.34,2.45,1,1.89-0.45c-0.56-1.34-1.45-2.45-2-2.45
		c-0.89,0-0.22-1,0.78-1c2.23-0.11,2.23-0.11,1.34-4.12c-0.11-0.56-0.22-1.23-0.33-1.56c-0.33-1.89-1.11-2.67-2.45-2.78
		c-0.45,0-0.89-0.11-0.89-0.33s-0.33-0.22-0.78-0.11c-0.45,0.11-1.34-0.33-2.56-1.45c-1.78-1.56-3.45-2-3.9-1.23
		c-0.11,0.22-0.89,0.45-1.67,0.45c-0.78,0-2.12,0.33-2.9,0.78c-1,0.56-1.56,0.56-1.89,0.33c-0.78-0.78-0.45-1.45,0.67-1.67
		c2.34-0.56,2.67-0.67,4.34-2l1.67-1.45l-1.34-1.11c-0.89-0.67-1.78-1.11-2.56-1.11c-2,0-2.34-1.23-0.45-1.45
		c1.34-0.11,1.34-0.11,0.78-0.56c-0.89-0.56-0.11-1.89,1.11-2.12c0.67-0.11,1.56-0.67,2.12-1.23c0.89-1,1.78-1.34,1.78-0.67
		c0,0.45,4.34,0.11,5.01-0.45c2-1.56,2-4.46,0-6.57c-1.89-1.89-2.56-3.56-1.89-4.01c0.33-0.22,0.22-0.67-0.56-1.56
		c-0.56-0.67-1-1.11-1-1s-0.22,0-0.56-0.22c-0.33-0.22-0.45-0.67-0.33-0.89c0.45-0.78,0.45-1.56-0.11-2.67
		c-0.67-1.34-0.33-2,0.89-1.67c0.56,0.11,0.89,0.11,0.89-0.11s0.22-0.45,0.56-0.45c1.78,0,1.11-3.68-0.67-4.01
		c-1.45-0.22-4.57-0.11-4.57,0.22c0,0.45-1.67,0.33-2.34-0.11c-0.45-0.33-0.33-0.45,0.67-0.67c0.67-0.11,1.67-0.67,2.23-1.11
		c1.11-1,2.23-1.23,2.67-0.56c0.22,0.33,0.45,0.45,0.67,0.11c0.56-0.78,2.12-1.45,3.23-1.23c0.67,0.11,1.11,0.11,1.11-0.11
		c0-0.22,0.33-0.45,0.78-0.56c0.56-0.22,0.78-0.45,0.56-1c-0.22-0.56,0-0.78,0.89-1c0.56-0.11,1.67-0.78,2.34-1.34
		c0.67-0.56,1.89-1.45,2.67-2c2-1.34,1.89-1.56-1.45-1.56c-2.67,0-3.01-0.11-3.68-1c-1.56-2.34-3.79-4.01-5.12-4.12
		c-0.67,0-1.23-0.22-1.23-0.45c0-0.33-0.56-0.33-1.56-0.11c-1.45,0.22-1.56,0.22-1.56-0.56c0-0.67,0.22-0.78,2.45-0.56
		c4.68,0.33,5.35,0.45,6.35,1.23c0.56,0.45,1.67,0.89,2.34,1.11c0.78,0.11,1.34,0.33,1.34,0.45c0,0.11,0.45,0.22,1,0.22
		c0.56,0,1-0.11,1-0.33s0.33-0.22,0.78-0.11c0.45,0.11,0.78,0,0.78-0.11c0-0.33,4.01-1.56,5.46-1.67c0.33,0,0.78-0.11,1-0.33
		s1-0.22,1.89-0.11c1.34,0.22,1.45,0.11,1.34-0.89c-0.11-0.78,0.22-1.23,0.89-1.56c1.67-0.78,1.89-1.34,0.67-1.34
		c-1.56,0-1.78-1-0.67-2.9c1.11-2,0.67-2.45-3.12-2.78c-1.56-0.11-2.78-0.45-2.78-0.56c0-0.22-0.45-0.22-0.89-0.11
		c-0.45,0.11-1.23-0.11-1.67-0.45c-1.11-0.89-0.22-1.34,2.45-1.45c1.45,0,2.34-0.22,3.01-0.78c0.56-0.45,1.23-0.67,1.45-0.56
		c0.22,0.11,0.45,0.11,0.45-0.22c0-0.45,4.57-0.56,5.68-0.22c0.33,0.11,1,0.89,1.45,1.78s1,1.56,1.23,1.56
		c0.22,0,0.33,0.22,0.22,0.33c-0.11,0.22,0,0.33,0.45,0.11c1.45-0.56,1.67-1,1.45-2.45c-0.22-1.23-0.11-1.56,0.45-1.78
		c1.56-0.56,2.56-2.56,2.9-5.46c0.11-1.56,0.45-3.34,0.67-3.9c0.67-1.67,0.56-2-0.45-1.67c-1.11,0.22-1-0.78,0.11-2
		c0.33-0.45,0.67-0.89,0.56-1.11c0-0.22-0.22-1-0.33-1.89c-0.11-0.78-0.67-2-1.23-2.67c-0.56-0.67-0.89-1.23-0.67-1.23
		c0.22,0,0.11-0.11-0.22-0.33c-1.23-0.78,1-3.79,4.68-6.24c0.78-0.56,1.78-1.78,2.23-2.67c0.56-1.23,1-1.67,1.45-1.45
		c0.33,0.11,0.45,0.11,0.33-0.11c-0.11-0.22,0-0.33,0.33-0.33s0.67-0.33,0.67-0.89c0.22-1.23,2.67-1.45,3.68-0.33
		c0.45,0.45,1,0.78,1.34,0.78c1.11,0,1.23,0.45,0.22,1.78c-1.11,1.45-1.23,1.89-0.33,2.56c1.56,1.23-0.45,2.34-2.12,1.23
		c-1.11-0.78-2.12-0.78-3.12,0.22c-0.33,0.33-0.78,0.56-1.11,0.56c-1.11,0,1.23,2.45,2.56,2.78c0.67,0.11,1.23,0.11,1.23-0.11
		c0-0.22,0.22-0.33,0.56-0.11c0.33,0.11,0.56,0.11,0.33-0.11c-0.11-0.22,0.22-0.33,1-0.33c0.67,0,1.23,0.11,1.23,0.33
		s0.33,0.33,0.67,0.33c0.89-0.11,1.11,1.23,0.45,1.78s-1.23,1.78-0.67,1.78c0.22,0,0.33,0.22,0.33,0.56c0,0.89,1.56,1.34,2.56,0.89
		c1-0.45,1.56-1.45,1-1.78c-0.22-0.11-0.56-1.11-0.89-2.12l-0.45-1.89l1.45-1.34c0.78-0.78,1.78-1.78,2.23-2.45
		c1.23-1.56,4.01-0.67,4.23,1.34c0.11,0.89,0,1.23-0.33,1c-0.22-0.11-0.45,0-0.45,0.22s-0.33,0.33-0.78,0.22
		c-0.78-0.22-0.78-0.22,0,0.89c2.34,3.12,5.01,2.12,5.01-1.89c0-2.23,0.67-3.34,2.67-4.34c0.78-0.45,2-1.45,2.78-2.23
		c0.67-0.78,1.89-2.12,2.56-2.78c1-1,1.34-1.78,1.45-3.56c0.56-4.23,1.11-6.01,1.89-6.01c1,0-3.79-5.46-6.68-7.69
		c-0.56-0.45-3.68-0.45-4.79,0c-0.33,0.11-1.23,0.22-1.89,0.11c-0.67-0.11-1.11-0.11-1.11,0.22c0,0.22-0.67,0.33-1.56,0.22
		c-0.89-0.11-1.56,0-1.56,0.22s-0.78,0.22-1.78,0.11c-1-0.11-1.78,0-1.78,0.11c0,0.22-0.67,0.33-1.56,0.33
		c-1.11,0-1.56-0.11-1.34-0.45c0.22-0.33-0.11-0.33-1.23-0.22c-1.56,0.33-5.35-0.78-5.35-1.45c0-0.22-0.11-0.22-0.33-0.11
		c-0.45,0.22-3.01-2-2.67-2.34c0.33-0.33-1.23-2.56-1.78-2.45c-0.22,0-0.89,0.56-1.45,1.23c-0.56,0.56-1.45,1.34-2.12,1.67
		c-1.56,0.78-2.12,2-2,4.79c0,1.89-0.11,2.56-0.56,2.67c-0.89,0.33-1.45-0.45-0.89-1.11c0.56-0.56,0.78-2.34,0.22-2.34
		c-0.22,0-0.33-0.45-0.33-1s0.22-1,0.33-1c0.22,0,0.33-0.33,0.33-0.67c-0.11-0.78,2.9-3.68,5.23-4.79c2.23-1.11,3.34-3.23,2.67-5.23
		c-0.89-2.56-1.11-2.78-2.78-1.89c-1.56,0.89-3.68,1-4.01,0.33c-0.11-0.22-0.67-0.33-1.23-0.22c-0.78,0.22-1.23,0-1.89-0.78
		c-1.11-1.23-2-1.23-2.56-0.11c-0.67,1.45-2.12,2.12-3.12,1.45c-0.67-0.45-0.89-0.33-1.34,0.33c-0.56,0.78-6.68,3.01-7.13,2.56
		c-0.33-0.33,6.13-3.56,7.24-3.79c0.11,0,0.56-0.22,0.78-0.45c0.22-0.22,0.78-0.33,1.11-0.22c0.33,0.11,0.56,0.11,0.56-0.11
		c0-1.11,3.45-1.67,4.68-0.78c0.67,0.45,1.45,0.78,1.67,0.56c0.22-0.11,1.78-0.33,3.56-0.33c3.9-0.11,3.79,0,2.12-3.45
		c-1.11-2.12-1.45-3.34-1.45-4.79c0-3.45-0.11-4.46-0.45-4.46c-0.22,0-0.33-0.56-0.22-1.23c0.11-0.67,0-1.23-0.11-1.23
		c-0.33,0-0.45-1.34-0.11-1.67c0.11-0.11,0.33-0.89,0.33-1.67c0-0.78,0.45-1.89,0.89-2.56l0.89-1.11l-1.67-0.11
		c-0.89,0-2.12,0-2.56,0c-1.23,0.11-6.24-2.67-8.8-4.9c-3.12-2.67-4.68-3.34-5.46-2.34c-0.45,0.56-0.78,0-0.45-0.67
		c0.33-0.89,2.67-0.67,3.79,0.45c0.45,0.45,1.45,1,2.12,1.23c0.67,0.22,2.23,1.11,3.34,2c3.68,2.9,5.57,3.68,8.58,3.34
		c3.9-0.33,3.9-0.33,3.68-0.78c-0.11-0.22,0.11-1.11,0.45-1.89c0.33-0.78,0.56-1.56,0.56-1.67s0.22-0.67,0.56-1.34
		c0.33-0.67,0.56-1.67,0.56-2.34c0-2.78,2.78-7.24,5.9-9.47c1.34-0.89,2.34-1.89,2.34-2.34c0-0.33-0.22-2.45-0.56-4.57
		c-0.78-5.35-0.78-7.13,0.22-9.13c1-2.12,0.89-2.78-1.89-6.35c-3.01-4.01-4.34-7.02-3.45-8.02c0.11-0.11,0.33-0.45,0.33-0.78
		c0.22-1.23,1.89-4.23,3.45-6.01c1-1.11,1.78-2,1.78-2.23c0-0.56,3.34-2.56,4.57-2.9c0.67-0.11,1.23-0.33,1.23-0.45
		c0-0.22-1.34-1.23-1.56-1.23C142.9,49.17,142.01,49.39,141,49.5 M172.63,83.7c-0.45,0.22-1.89,0.45-3.34,0.33
		c-2.12,0-2.67,0.11-2.9,0.56c-0.11,0.33-0.45,0.56-0.67,0.33c-0.22-0.11-0.45,0-0.45,0.22c0,0.22-0.56,0.33-1.45,0.22
		c-1.34-0.22-1.67-0.11-3.23,1.34c-0.89,0.89-1.89,1.45-2.12,1.45c-0.22-0.11-0.67,0-1,0.22c-1.11,0.67,1,2.23,3.9,2.9
		c0.56,0.11,1.34,0.78,1.78,1.45c0.78,1.11,2.78,2.23,3.23,1.78c0.11-0.11,0.11-0.22-0.11-0.22c-0.33,0,0.22-0.67,2.34-2.9
		c1.45-1.67,1.67-3.01,0.67-4.23c-0.67-0.78-0.67-0.78,0.56-0.56c0.67,0.11,1.11,0,1-0.11c-0.11-0.22,0.78-0.33,2-0.33
		c1.34,0,2.12,0.11,2,0.45c-0.11,0.22-0.11,0.45,0.11,0.45c0.56,0,0.89-1.89,0.45-2.78C175.09,83.14,173.75,83.03,172.63,83.7
		 M46.56,112.99c-0.56,0.89-1.89,1.11-1.89,0.33c0-0.22-0.33,0.22-0.78,1.11c-1,2-1.89,3.01-2.45,2.78c-0.22-0.11-1,0.11-1.78,0.33
		c-0.78,0.22-2.56,0.56-3.9,0.78c-2.9,0.22-3.68,0.78-3.68,2.56c0,0.67-0.22,1.34-0.56,1.67c-0.89,0.78-0.67,1.89,0.45,1.89
		c0.56,0,1,0.11,1,0.22c0,0.67-1.34,1.34-2.56,1.34c-2.23,0-4.23,1-3.9,1.89c0.11,0.56-0.22,1.11-1.23,2.23
		c-1.56,1.56-1.56,2.23,0,1.45c2-1,4.46,0.33,6.24,3.56c0.78,1.45,0.89,1.45,1.78,0.89c0.56-0.33,1.45-0.67,2.23-0.78
		c2-0.22,3.01-0.67,3.01-1.23c0-0.33,0.56-0.89,1.34-1.34c2.23-1.45,4.79-4.9,4.34-6.13c-0.11-0.33,0-0.56,0.22-0.56
		c0.33,0,0.22-0.22-0.11-0.67c-0.33-0.33-0.67-1-0.67-1.56c0-0.56-0.22-1.34-0.45-1.78c-1-1.78,0.89-3.9,2.34-2.56
		c1.34,1.23,2.23-1.67,1.56-4.68c-0.11-0.45,0-1.23,0.33-1.67c0.33-0.45,0.33-0.89,0.11-0.89
		C47.22,112.21,46.78,112.54,46.56,112.99 M9.02,131.37c0,2.45,0.11,2.67,1.11,2.12c0.45-0.22,0.45-0.56,0.11-1.11
		c-0.22-0.45-0.56-1.34-0.78-2.12C9.13,129.03,9.13,129.03,9.02,131.37 M200.26,132.7c-0.56,0.22-1.56,0.33-2.23,0.22
		s-1.23,0-1.23,0.11c0,0.22-0.67,0.33-1.34,0.33c-1.89,0-1.89,1.23-0.11,2.34c1.67,1,1.78,1,3.45-0.89c1-1,1.67-1.56,2-1.34
		c0.33,0.22,0.45,0.11,0.22-0.11c-0.11-0.22,0-0.45,0.22-0.56c0.22-0.11,0.45-0.22,0.33-0.33
		C201.26,132.37,200.81,132.48,200.26,132.7 M103.36,138.38c0.78,0.45,0.11,0.78-1.89,1c-2,0.22-3.9-0.11-3.9-0.67
		c0-0.22,0.45-0.33,0.89-0.11c0.45,0.11,1.11,0.11,1.45-0.11C100.69,138.05,102.69,137.94,103.36,138.38 M235.9,180.37
		c-1.78,0.33-5.23,2.23-9.69,5.35c-2,1.34-3.79,2.45-4.01,2.34c-0.22-0.11-0.33-0.11-0.33,0.11c0,0.22-1.56,1.23-3.56,2.23
		c-3.45,1.89-5.01,3.23-5.01,4.46c0,0.78,3.23,0.45,4.68-0.45c2.23-1.34,5.79,0.11,6.01,2.56c0,0.45,0.11,1,0.11,1.23
		c0,0.22,0.22,0.56,0.33,0.78c0.33,0.22,1.11,7.02,0.78,7.46c-0.11,0.11,0,0.33,0.22,0.33c0.45,0,1.23,3.01,1.56,5.35
		c0.33,3.23-2,6.57-3.9,5.57c-0.89-0.45-1-1.67-0.11-1.34c0.67,0.22,0.78-0.22,0.11-0.89c-0.67-0.67-1.78-0.56-2.12,0.33
		c-0.33,1.11-2.12,2.34-3.23,2.34c-1.23,0-1.23-1,0.11-1.78c0.56-0.33,1.23-1.23,1.56-2c0.56-1.45,1.56-2,2.12-1.34
		c0.45,0.45,1.34,0.22,2.34-0.56c0.67-0.56,0.78-3.34,0.22-4.23c-0.11-0.22-0.45-1-0.67-1.89s-0.89-2.34-1.45-3.23
		c-0.78-1.34-0.89-2-0.67-3.01c0.11-0.89,0.11-1.34-0.11-1.34c-0.22,0-1-0.56-1.78-1.23c-2.56-2.34-3.34-1.23-1.56,2.34
		c1.78,3.68,1.56,4.79-1.56,5.9c-2,0.78-4.46,4.46-3.34,5.12c0.67,0.45-0.11,3.56-0.89,3.56c-0.22,0-0.22,0.11-0.11,0.33
		c0.22,0.45-1.56,2.78-2.12,2.78c-0.22,0-0.22-0.56-0.11-1.23c0.22-1.45-2-4.23-2.78-3.45c-0.56,0.56-3.56,0.45-4.12-0.11
		c-0.56-0.67,1.23-1.34,3.56-1.45c1.89-0.11,2.23-1.67,0.67-3.45c-0.56-0.67-1.11-1.11-1.11-0.89c0,0.56-2.12,1.23-3.23,1
		c-0.78-0.11-0.78-0.11-0.33,0.22c0.78,0.56-1.89,0.56-2.78,0c-0.45-0.33-0.45-0.33,0.22-0.33c0.45,0,1.34-0.56,2.12-1.23
		c0.78-0.67,1.45-1.11,1.45-0.89c0.22,0.56,2,0.11,2.9-0.67c0.33-0.33,0.56-0.78,0.45-0.78c-0.45-0.22-4.01-5.35-4.01-5.68
		c0-1,1.11-1.34,2.12-0.67c1.45,1,2.67,0.89,2.34-0.22c-0.11-0.56,0.11-1.23,0.78-2c1.67-1.89,0.89-2.78-1.45-1.45
		c-2.23,1.34-6.68,1.89-8.58,1.11c-1.89-0.67-3.01-0.89-8.24-1.23c-1.45-0.11-2.78-0.22-3.12-0.33c-0.33-0.11-1.45-0.56-2.56-0.89
		c-1.11-0.33-2.12-0.89-2.23-1.11c-0.11-0.22-0.33-0.11-0.56,0.33c-0.11,0.45-0.33,0.89-0.45,1.11c-0.11,0.22,0,0.22,0.22,0.11
		c0.22-0.11,1.89,0.33,3.79,0.89c2,0.67,3.68,1.11,4.12,0.89c1-0.33,3.23,0.78,4.23,2c0.89,1.11,1.11,3.23,0.33,3.23
		c-0.22,0-0.33,0.22-0.22,0.45c0.45,1.23-0.89,2.67-2.12,2.45c-0.67-0.11-1.11-0.11-1.11,0.11c0,0.67-2.12,1.56-3.34,1.34
		c-1-0.22-1.11-0.11-0.78,0.56c0.45,0.89,0.33,3.01-0.11,3.23c-0.22,0.11-0.22,0.45-0.11,0.89c0.22,0.78-1.11,1.78-1.78,1.45
		c-0.22-0.11-1.23,0.22-2.23,0.78c-1.56,0.89-2.23,1-4.01,0.89c-2.34-0.22-3.01,0.11-1.45,0.78c1.23,0.56,1,1.34-0.33,1.56
		c-1.11,0.11-3.56-1.45-3.79-2.34c-0.11-0.45,0.11-0.67,1-0.67c1.11,0,1.11,0,0.11-0.33c-0.56-0.11-1.11-0.11-1.23,0.11
		c-0.11,0.22-0.56,0.22-0.89,0.11c-0.33-0.11-0.67,0-0.78,0.22c-0.11,0.22-1.56,0.56-3.23,0.67c-2.23,0.11-3.01,0.11-2.78-0.22
		c0.22-0.33-0.33-0.33-1.78-0.22c-1.34,0.11-2.12,0.11-2.34-0.22c-0.22-0.33-0.56-0.33-1.23-0.11c-0.67,0.22-0.78,0.33-0.22,0.45
		c0.33,0,0.67,0.22,0.67,0.45s0.56,0.33,1.45,0.11c1.23-0.22,1.56-0.11,3.01,1.34c0.89,0.89,1.78,1.67,2.12,1.67
		c0.33,0,0.56,0.11,0.56,0.33c0,0.22,0.33,0.22,0.67,0.22c0.56-0.11,2.45,1,2.45,1.56c0,0.11-1.89,0.11-4.12,0.11
		c-2.23,0-4.12,0.11-4.12,0.33s0.22,0.22,0.45,0.11c0.22-0.11,0.56-0.11,0.89,0.11c0.22,0.11,0.78,0.33,1.11,0.33
		c1.45,0.11,5.9,1.78,5.9,2.12c0,0.22,0.11,0.33,0.33,0.22c0.22,0,0.89,0.45,1.56,1.23c0.67,0.67,1.11,1.23,1,1.23
		c-0.11,0,0.11,0.33,0.45,0.67c1.23,1.23,0.11,3.79-1.34,3.56c-0.67-0.11-2,1.11-2,1.89c0,0.22,0.22,0.45,0.56,0.45
		s0.56-0.11,0.56-0.33c0-2.12,5.01,2.12,5.23,4.46c0,0.45,0.22,0.67,0.33,0.67c0.11,0,0.33,0.45,0.33,1.11
		c0,0.56,0.11,1.56,0.11,2.23c0.11,0.89,0,1.11-0.56,1.11c-0.33,0-0.67,0.11-0.67,0.33c0,0.22-0.22,0.33-0.45,0.33
		c-0.22,0-0.89,0.33-1.45,0.78c-0.56,0.45-1.56,0.78-2.23,0.78c-1,0-1.23,0.11-1.23,0.89c0.11,1.56,0.78,1.89,1.89,1
		c1-0.78,3.23-1,3.56-0.33c0.11,0.22-0.22,0.56-0.78,0.78c-1.45,0.56-1.34,0.78,1.34,2.67c1.89,1.34,2.34,1.89,2.34,2.78
		c0,0.78,0.22,1.11,0.78,1.34c0.45,0.11,0.78,0.45,0.78,0.67c0,0.22-0.33,0.33-0.78,0.22c-1.11-0.33-1,1.11,0.22,2.34
		c1.11,1.11,1.56,1.23,1.89,0.33c0.11-0.45,0.78-0.56,2.12-0.56c1,0,2.67-0.22,3.56-0.56c1.34-0.45,1.78-0.45,2-0.11
		c0.22,0.22,0.33,0.33,0.33,0.22c0-0.11,0.45-0.11,1.11,0.11c0.67,0.22,1.67,0.45,2.45,0.56c1.67,0.11,5.23,1.11,4.9,1.34
		c-0.11,0.11,0.33,0.22,1,0.22s1.34,0.22,1.34,0.45c0.22,0.78,0.78,0.56,2.23-1c2.12-2.12,4.68-1.23,3.34,1.23
		c-0.67,1.34-0.22,1.89,1.56,1.67c1.45-0.22,3.12,0.56,3.12,1.34c0,0.33-1.45,0.67-3.56,0.89s-1.56,1.45,1.56,3.23
		c1.78,1,2.78,1.89,2.78,2.56c0,0.45-1.89,0.45-2.12-0.11c-0.11-0.22-0.45-0.33-0.56-0.22c-0.22,0.11-0.78,0-1.45-0.22
		c-1-0.33-1.11-0.33-0.33,0.22c0.45,0.33,1.56,0.78,2.45,1s1.56,0.56,1.45,0.78c-0.11,0.22,0.11,0.22,0.45,0.11
		c0.78-0.33,1.78,0.78,2.9,2.9l0.89,1.67l-0.89,0.56c-0.45,0.33-1.11,0.56-1.34,0.56c-0.22,0-1,0.33-1.45,0.67
		c-0.89,0.56-1,0.56-1.67,0c-0.89-0.78-2.34-0.78-3.56,0l-0.89,0.67l0.89,0.67c0.89,0.67,1.11,1.34,1.34,3.79
		c0,0.89,0.56,1.78,1.56,2.78c0.78,0.78,1.45,1.89,1.45,2.34c0,0.45,0.67,1.45,1.45,2.23c2.9,2.67,3.34,3.34,2.9,4.01
		c-0.56,0.67-0.22,1.45,0.78,1.45s1,0.67-0.22,2.23c-1,1.23-1.45,4.12-0.67,4.12c0.22,0,0.56,0.45,0.78,0.89
		c2.45,5.01,3.79,6.01,4.57,3.45c0.22-0.89,0.22-1.56-0.11-2.12c-0.22-0.45-0.33-1.11-0.22-1.45c0.11-0.45,0-0.89-0.22-1
		c-1.11-0.67-0.45-3.12,1.34-4.9c1-1,2.56-2.9,3.68-4.34c1.89-2.56,5.79-5.57,6.68-5.23c0.67,0.22-3.45-4.46-4.46-5.01
		c-0.56-0.33-0.78-0.33-0.89,0c-0.56,1.78-6.01-1.45-6.13-3.68c0-0.56-1-0.78-1-0.22c0,0.22-0.22,0.45-0.56,0.45
		c-0.33,0-0.67,0.33-0.78,0.78c-0.22,1-1.11,1-2,0.11c-0.56-0.67-0.56-0.89-0.11-2.23c0.33-0.89,0.45-1.78,0.33-2
		c-0.67-2,1.89-2.23,4.46-0.45c2.56,1.78,3.34,2,5.23,1.11c0.89-0.45,1.78-0.67,2-0.56c0.22,0.11,0.33,0,0.33-0.22
		c0-0.22,0.56-0.45,1.23-0.45c1.89,0,2.23-1.34,1-3.9c-1.11-2.23-1.11-3.12,0.22-3.79c2.9-1.34,1.23-3.45-3.01-3.68
		c-4.46-0.33-6.24-1.78-3.79-3.23c2-1.23,4.12-0.11,3.23,1.67c-0.33,0.67-0.33,0.78,0.11,0.78c0.78,0,1-0.45,1.23-2
		c0.11-1.23,2.23-3.68,2.78-3.23c0.11,0.11,0.22,0.11,0.22-0.11c0-0.56,1.89-1.34,2.78-1.11c0.45,0.11,0.78,0,0.78-0.22
		c0-0.33,0.33-0.45,1-0.22c0.56,0.11,1,0,1-0.22c0-0.22,0.56-0.33,1.34-0.11c0.78,0.11,1.34,0.11,1.23-0.11
		c-0.11-0.22,0.45-0.45,1.23-0.56c4.79-0.78,8.35-2.9,7.24-4.46c-0.33-0.56-0.56-1.34-0.45-1.78c0.67-2.56-4.57-6.79-7.91-6.35
		c-1.11,0.11-1.67,0.11-1.67-0.22c0-0.22-0.11-0.33-0.33-0.22c-0.67,0.45-3.01-2.12-3.68-4.01l-0.67-1.89l1.23-2.34
		c1.45-2.67,4.57-5.68,7.91-7.35c2.34-1.23,2.67-1.23,5.79-0.45c1.34,0.33,1.45,0.33,1.67-0.56c0.11-0.56,0.78-1.34,1.56-1.67
		c2.12-1.23,4.23-4.79,3.9-6.46c-0.11-0.78-0.11-1.56,0-1.78c0.56-1,0.11-4.68-0.89-6.79c-0.56-1.23-0.89-2.56-0.89-3.01
		c0.11-0.45-0.11-1.23-0.45-1.56c-2.45-2.67-2.45-2.67-1.56-4.01c0.45-0.67,1.11-1.89,1.56-2.78c0.45-0.89,1.56-2.45,2.45-3.45
		c1.34-1.67,1.45-2,1-2.23c-0.33-0.22-0.89-0.67-1.23-1c-0.33-0.33-1.23-0.89-2-1.23c-0.78-0.33-2-1-2.67-1.56
		c-1.11-0.78-1.67-1-3.56-0.89c-1.67,0.11-2.67-0.11-4.12-0.78c-1-0.45-2.12-0.89-2.56-0.89c-0.67,0-0.67-0.11-0.22-0.33
		C240.46,179.93,238.01,179.93,235.9,180.37 M138.33,191.62c-0.89,1.11-0.56,3.12,0.67,3.9c2,1.34,3.45,4.01,2,4.01
		c-0.22,0-0.33,0.22-0.22,0.33c0.11,0.22-0.67,1-1.67,1.89c-1.78,1.34-2.78,4.01-1.56,4.01c0.11,0,0.33,0.45,0.33,0.89
		c0,2.45,2.67,3.45,5.01,1.78c0.78-0.56,0.78-0.89,1-4.01c0-1,0.33-2.12,0.56-2.34c0.45-0.33,0.33-0.56-0.33-1.34
		c-0.45-0.56-0.67-0.89-0.56-0.89c0.22,0,0.11-0.22-0.11-0.56c-0.33-0.45-0.33-0.78,0-1.34c0.56-1.11,0.56-1.23-0.33-1.23
		c-1,0-2.9-2.12-2.56-2.9c0.11-0.33,0.11-0.67-0.22-0.67c-0.22,0-0.45-0.56-0.45-1.23C139.89,190.84,139.22,190.62,138.33,191.62
		 M255.05,216.12c-0.22,0.45-1.23,1.67-2.23,2.67c-3.34,3.45-1.11,8.8,2.67,6.35c0.78-0.45,1.56-0.89,1.67-0.78
		c0.45,0.11,2.23-1.56,2.23-2.12c0-0.22-0.56-1.45-1.23-2.78c-0.67-1.34-1.11-2.56-0.89-2.78c0.11-0.22,0.11-0.33-0.11-0.22
		c-0.22,0.11-0.45-0.11-0.56-0.56C256.28,215.01,255.61,215.01,255.05,216.12 M125.3,222.03c-0.11,1.45-1,2-1.34,0.78
		c-0.33-1.11-1.45-1-4.34,0.33c-1.34,0.67-2.67,1.23-3.12,1.34c-0.45,0.11-1,0.22-1.23,0.45c-0.33,0.22-0.67,0.22-0.78,0.11
		c-0.11-0.11-0.45,0-0.78,0.22c-0.33,0.22-0.78,0.33-1.11,0.22c-0.33-0.11-0.67,0-0.78,0.22c-0.11,0.22-0.45,0.33-0.78,0.22
		c-0.33-0.11-0.56-0.11-0.67,0.11c-0.22,0.56-6.57,3.68-6.91,3.34c-0.22-0.11-0.45,0-0.56,0.22c-0.33,0.89-3.45-0.33-3.9-1.67
		c-0.45-1.11-2.67-2.12-3.01-1.23c-0.11,0.22-0.45,0.45-0.78,0.45c-0.33,0-1.23,0.56-1.78,1.23c-0.67,0.67-1.23,1.11-1.34,1
		c-0.22-0.22-1.67,1-1.67,1.45c0,0.22,0.33,0.33,0.67,0.33c0.89,0,4.01,1.89,4.01,2.34c0,0.22,0.11,0.33,0.33,0.33
		c0.45-0.11,2,1,2,1.34c0,0.56-1.78,0.33-2.9-0.45c-1.67-1.11-3.01-1.11-2,0c0.33,0.45,1.11,0.78,1.67,0.78s0.89,0.11,0.67,0.45
		c-0.22,0.33,0,0.33,0.78,0.22c0.78-0.22,1.34,0,2.23,0.78c1.67,1.34,1.45,2.67-0.33,2.78c-2.34,0.22,0.11,2.78,2.67,2.78
		c1.11,0,1.34,0.11,1.34,0.89c0.45,7.57,0.45,7.8,1.78,8.46c1.45,0.67,2.45,1,3.01,1c0.45,0,0.56,0.33,0.45,1.23
		c-0.22,2.45,0.78,5.57,1.78,5.9c1.45,0.33,1.45,0,0.11-2.12c-1.67-2.67-0.89-4.46,1.11-2.45c0.78,0.78,2,1,2,0.45
		c0-1.23,2.9-0.22,3.79,1.34c1.45,2.23,1.23,3.34-0.67,3.79c-0.33,0.11-0.67,0.22-0.78,0.33c-0.11,0.11-0.56,0.45-1,0.78
		c-0.67,0.45-0.78,0.78-0.45,1.11c0.33,0.45,0.45,0.45,0.67,0c0.22-0.33,0.78-0.45,1.67-0.33c0.89,0.22,1.11,0.11,0.78-0.11
		c-0.33-0.22-0.45-0.33-0.22-0.33c0.67,0,3.01,1.56,3.23,2.12c0.45,1.11,1,0.67,0.78-0.56c-0.22-0.89-0.11-1.23,0.56-1.45
		c0.89-0.22,5.46,1.67,5.46,2.23c0,0.22,0.78,0.33,1.78,0.22c1-0.11,1.78-0.11,1.78,0.11c0,0.45,2.34,1.11,4.12,1.11
		c0.89,0,2.45,0.33,3.45,0.67c1.78,0.67,1.89,0.67,2.78-0.11c1.67-1.45,2.67-1.78,6.01-1.67c2,0,3.23-0.11,3.23-0.33
		c0-0.22,0.22-0.45,0.56-0.45s0.89-0.67,1.23-1.56c0.33-0.89,1.11-1.89,1.67-2.45s0.89-1.11,0.67-1.56
		c-0.11-0.33,0.11-1.45,0.56-2.23c1.23-2.45,1.11-5.23-0.33-7.13c-1.67-2.12-1.34-3.56,0.89-3.56h1l-0.67-1.78
		c-1-2.78-6.79-9.24-8.69-9.58c-2.67-0.56-3.9-0.33-4.12,0.45c-0.22,1-1.56,0.89-1.78-0.11c-0.22-1.23,1.45-1.89,4.12-1.56
		c1.34,0.11,2.45,0.22,2.56,0c0.11-0.11,0.78-0.56,1.67-0.89c2.34-0.89,2.56-1.56,1.11-3.23c-0.67-0.78-1.23-1.67-1.23-2
		c0-1.11-4.34-6.46-4.9-5.9c-0.33,0.33-0.89,5.35-0.45,5.12c0.22-0.11,0.22,1.34-0.11,2.56c0,0.11-0.33-0.11-0.56-0.33
		c-0.33-0.22-0.67-0.33-0.78-0.11c-0.11,0.22,0.11,0.56,0.56,0.89c1,0.78,1,2.12,0,1.78c-0.45-0.11-0.78-0.11-0.89,0
		c-0.22,0.56-3.9,2-4.46,1.78c-0.33-0.11-0.56,0-0.56,0.33c0,1.56-2.23,2.34-3.34,1.11c-0.67-0.78,1.11-3.56,2.34-3.56
		c0.89,0,1.56-1.11,0.78-1.45c-0.56-0.22-0.56-0.56-0.45-1.56c0.22-1.23,0.11-1.34-0.78-1.34c-0.67,0-1.34-0.45-2.23-1.56
		c-0.67-0.78-2.12-1.89-3.12-2.45c-1.11-0.45-1.89-1.11-1.89-1.23c0-0.11-0.11-0.22-0.33-0.11c-0.22,0.11-0.45,0-0.56-0.22
		C125.86,220.36,125.41,220.8,125.3,222.03 M16.26,233.94c-0.56,2.12,3.68,9.47,5.12,8.91c0.56-0.22,0.56-0.45,0-2
		c-0.45-1.34-0.56-2.12-0.22-3.12c0.45-1.56,0.22-2-1.23-2.23c-1-0.11-1.11-0.33-1.11-1.11C18.82,232.94,16.6,232.5,16.26,233.94
		 M377.35,246.2c-0.33,0.22-0.45,0.33-0.22,0.33s0.11,0.22-0.11,0.56c-0.22,0.33-0.33,0.67-0.22,0.78c0.11,0.11-0.22,0.89-0.78,1.67
		c-0.56,0.78-1,2-1,2.56c0,0.67-0.11,1.11-0.33,1.11c-0.11,0-0.33,1.67-0.33,3.68c0,2-0.11,4.01-0.22,4.57
		c-0.11,1.11,3.68,4.12,5.9,4.57c0.67,0.11,1.23,0.33,1.23,0.56c0,0.11,0.45,0.22,1,0.11s1,0,1,0.11c0,0.22,0.33,0.33,0.67,0.45
		c0.33,0,1.78,0.56,3.23,1.11c1.45,0.56,3.68,1.23,5.12,1.45c1.45,0.22,2.56,0.56,2.45,0.78c-0.11,0.22-0.11,0.33,0.11,0.33
		c0.78-0.11,2.56-2.78,2.67-4.01c0.11-1.23,1.34-3.56,2.34-4.23c0.22-0.22,0.22-0.45-0.11-0.67c-0.33-0.22-0.45-0.78-0.33-1.45
		c0.22-1.11-0.56-2.78-1-2.23c-0.33,0.33-3.01-0.67-3.01-1c0-0.22-0.11-0.33-0.33-0.22c-0.67,0.22-3.9-1.78-4.57-2.9
		c-0.67-1-1.67-1.45-3.12-1.23c-0.78,0.11-6.13-3.68-7.46-5.23C378.35,245.75,378.24,245.64,377.35,246.2 M25.06,254.44
		c-2.12,0.22-3.34,1.23-3.45,3.12c0,0.33-0.11,1.45-0.33,2.45c-0.45,3.12,1.78,5.35,3.56,3.45c0.33-0.45,1-0.89,1.45-1
		c0.56-0.22,0.78-0.67,0.78-1.89c0-1,0.22-1.78,0.45-1.89c0.33-0.11,0.22-0.22-0.22-0.22c-0.33,0-0.78-0.22-0.89-0.45
		c-0.33-0.45,0.89-2,1.45-1.78c0.67,0.33,0.67-0.89,0-1.45C27.4,254.44,26.62,254.33,25.06,254.44 M161.72,257.56
		c-0.33,0.11-1.23,0.89-1.78,1.67c-0.67,0.78-1.34,1.34-1.45,1.23c-0.22-0.11-0.22-0.11-0.11,0.11c0.22,0.45-0.89,4.01-1.34,4.01
		c-0.11,0-0.22,0.33-0.11,0.67c0.22,0.78-3.01,5.01-4.23,5.35c-2.23,0.67-6.57,6.91-4.68,6.57c0.78-0.11,1.23,1.45,0.56,1.67
		c-0.33,0.11-0.89,0-1.34-0.22c-0.67-0.33-0.78-0.33-0.56,0.11c0.45,1.11-1.56,3.23-2.9,3.12c-1.45-0.11-1.34,0.22,0.67,2
		c0.78,0.67,1.23,1.34,1.11,1.67c-0.11,0.22,0,0.56,0.22,0.67c0.22,0.11,0.45,0.67,0.45,1.45c0,0.67,0.22,1.23,0.33,1.23
		c0.22,0,0.22,0.22,0.11,0.56c-0.22,0.67,0.45,1,1.89,1c1.11,0,1.56-0.56,2.23-2.67c0.22-0.89,0.67-1.67,0.78-1.67
		c0.11,0,0.22-0.22,0.11-0.56c-0.11-0.33-0.11-0.56,0.11-0.56s0.33-0.45,0.45-1c0-0.56,0.22-1.11,0.56-1.34
		c0.22-0.11,0.45-0.45,0.45-0.56s0-0.45,0.11-0.78c0.11-0.22,0.33-1.11,0.56-2c0.22-0.78,0.67-1.45,0.89-1.45
		c0.22,0,0.33-0.11,0.22-0.33c-0.33-0.56,0.67-2.9,2.34-5.46c0.89-1.34,1.89-3.34,2.12-4.46c0.22-1.11,0.56-2,0.78-2
		c0.11,0,0.22-0.45,0.22-1s0.22-1.34,0.33-1.67c0.33-0.89,0.33-0.78,0.89-2.9c0.22-1,0.67-2,0.89-2.12
		C163.61,257.56,162.95,257,161.72,257.56 M28.85,258.56c-0.22,0.45-0.11,0.56,0.33,0.45c0.33-0.11,0.67-0.22,0.78-0.22
		c0.11,0,0.11-0.22,0.11-0.45C30.18,257.78,29.07,257.89,28.85,258.56 M200.81,262.68c-0.33,0.56,1,1.45,2.78,1.89
		c1.89,0.56,2.45,0.56,2.45,0.11c0-0.33-2.9-1.67-3.68-1.67c-0.33,0-0.56-0.22-0.56-0.45C201.82,262.23,201.15,262.12,200.81,262.68
		 M92.33,263.46c-4.46,1.67-6.13,3.12-3.12,2.67c1.23-0.22,2.45,0.45,1.45,0.78c-1.67,0.56,0.11,1.67,2.9,1.67
		c2.23,0,3.45,0.45,3.12,1c-0.11,0.33,0.22,0.78,1,1.11c1.45,0.78,2.45,3.01,1.67,3.45c-0.56,0.33-3.23-1.45-3.23-2.12
		c0-0.22-0.22-0.33-0.45-0.11c-0.22,0.11-0.45,0.89-0.45,1.78c0,2.67,3.79,5.12,5.57,3.56c1-0.89,3.9-0.33,5.79,1
		c2,1.45,1.34,1.89-1.11,0.67c-1.89-1-3.12-1.23-3.9-0.67c-0.56,0.33,1.23,1.45,2.23,1.34c0.33,0,1.11,0.22,1.78,0.67
		c1.11,0.67,1.23,0.67,2.9-0.22c1.11-0.67,2.12-0.89,2.9-0.78c1.11,0.11,1.67-0.56,0.78-1c-0.22-0.11-0.67-1-1-2.12
		c-2-5.23-4.9-7.91-9.47-8.91c-0.67-0.11-2.12-1.11-3.23-2C96.23,263.35,94.11,262.68,92.33,263.46 M236.12,265.24
		c-0.45,0.45-0.22,0.89,0.89,1.89c1.11,1,1.11,1.11,0.56,1.89c-0.45,0.67-0.45,0.89-0.11,1.11c1.89,0.67-2.23,1.45-4.46,0.89
		c-0.89-0.22-1.11-0.11-1.11,0.56c0,0.56-0.22,0.78-0.89,0.78c-1.11,0-2.12,1-1.56,1.67c0.33,0.33,0.22,0.78-0.33,1.78
		c-0.89,1.67-1,1.56,0.45,1.89c0.67,0.11,1.11,0.45,1,0.56c-0.11,0.22,0.11,0.22,0.56,0.11c0.45-0.11,0.78,0,0.78,0.22
		c0,0.89,1.89-0.11,3.9-2.12c3.56-3.45,5.9-4.34,9.02-3.68c6.79,1.56,8.13,1.34,7.69-1.23c-0.22-1.56-1.89-3.23-3.01-3.23
		c-0.33,0-0.78-0.11-0.89-0.22c-0.11-0.11-0.67-0.33-1.11-0.33c-0.45-0.11-1.67-0.22-2.67-0.33c-1-0.11-2.67-0.33-3.79-0.45
		c-1.34-0.11-2-0.33-1.78-0.67c0.11-0.22,0.11-0.33-0.22-0.11c-0.33,0.22-0.67,0-1.11-0.56
		C237.46,265.02,236.68,264.8,236.12,265.24 M119.95,273.15c0,0.22,0.22,0.56,0.45,0.67c0.22,0.11,0.33,0.56,0.22,0.78
		c-0.11,0.22-0.11,0.45,0.11,0.33c0.22-0.11,2.56,1.78,5.12,4.12c4.9,4.34,5.68,4.79,6.68,3.68c0.22-0.33,0.78-0.56,1-0.45
		c0.33,0.11,0.45,0,0.33-0.22c-0.11-0.22,0.33-0.33,1.11-0.33c2.12,0,2.34-1.67,0.33-3.01c-0.89-0.56-1-0.56-0.78,0
		c0.11,0.33,0,0.67-0.22,0.67s-0.89,0.11-1.34,0.22c-0.67,0.22-0.89,0-1.23-1c-0.33-1-0.56-1.23-0.89-0.78c-1,1-2.45,0.56-4.23-1.45
		c-0.89-1.11-1.89-2-2.23-2c-0.33,0-0.78-0.22-1-0.45c-0.33-0.22-0.78-0.56-1.11-0.56s-1-0.22-1.45-0.33
		C120.29,272.93,119.95,272.93,119.95,273.15 M176.31,273.37c0,0.22-0.45,0.33-1.34,0.22c-0.89-0.11-1.34-0.11-1.34,0.22
		c0,0.33-0.56,0.33-1.34,0.22c-0.78-0.11-1.34-0.11-1.34,0.11c0,0.22-0.22,0.33-0.56,0.33s-0.56-0.11-0.56-0.33
		c0-0.22-0.89,0.56-2,1.67c-1.78,1.78-2.45,3.12-1.67,3.45c0.22,0.11,1.34,1,2.56,2.23c2.9,2.67,2.67,3.68-0.78,3.68
		c-3.34,0-3.79,2.9-0.56,3.68c3.45,0.89,4.23,1.23,4.12,1.45c-0.11,0.11,0.22,0.22,0.56,0.11c0.45-0.11,0.78,0,0.78,0.11
		c0,0.22,0.56,0.33,1.23,0.22c0.78-0.11,1.23,0,1.23,0.33c0,0.22,0.22,0.33,0.45,0.22c0.45-0.22,1,0.11,6.24,3.12
		c1.45,0.78,4.12,2.34,6.01,3.34l3.45,1.89l1.34-0.89c3.23-2.23,6.68-2.9,10.47-2c4.46,1,5.57,1.11,6.79,0.67
		c2.45-0.78,3.79-3.34,2-3.79c-1.34-0.33-1.23-1.11,0.22-2.12c1.89-1.34,1.67-3.12-0.56-4.79c-2-1.45-4.34-4.23-5.01-5.9
		c-0.22-0.56-0.67-1.11-0.78-1.11c-0.22,0-1-0.56-1.89-1.23c-1.34-1.11-1.56-1.11-2.12-0.67c-0.67,0.67-0.78,1.45-0.22,1.45
		c0.67,0,0.45,1.45-0.22,1.67c-0.33,0.11-1.11,0.22-1.67,0.22c-1.34,0-2.34,1-1.67,1.67c0.56,0.56,0.56,1.89,0.11,1.89
		c-0.22,0-0.45-0.22-0.45-0.45c0-0.22-0.11-0.33-0.22-0.22c-0.11,0.11-1.23-0.22-2.45-0.89c-1.23-0.56-3.12-1.45-4.12-1.78
		c-1-0.45-1.89-0.89-1.89-1c0-0.11-0.33-0.22-0.67-0.11c-0.78,0.22-3.23-1.56-3.23-2.23c0-0.45-1.78-2.34-2.12-2.34
		c-0.11,0-1-0.56-2.12-1.11C178.65,273.26,176.31,272.59,176.31,273.37"/>
	<path id="path4" class="st0" d="M136.1,56.85c-0.56,0.78-0.89,1.34-0.67,1.11c0.56-0.33,2.23-2.56,1.89-2.56
		C137.33,55.41,136.77,56.08,136.1,56.85 M121.62,60.53c-0.45,0.22-0.89,0.45-0.89,0.56c0,0.33,0.67,0.22,1.45-0.33
		C122.96,60.08,122.85,59.97,121.62,60.53 M116.95,61.64c-0.11,0.22,0,0.45,0.33,0.45s0.67-0.22,0.78-0.45s0-0.45-0.33-0.45
		S117.06,61.42,116.95,61.64 M101.24,67.77c-0.22,0.11-0.67,0.56-0.89,1c-0.33,0.78-0.33,0.78,0.11,0.22
		c0.33-0.33,0.78-0.78,1.11-1.11C102.02,67.55,102.02,67.44,101.24,67.77 M171.74,83.59c-1.34,0.56-1.11,0.78,0.33,0.33
		c0.67-0.22,1.23-0.45,1.23-0.56C173.19,83.14,172.75,83.25,171.74,83.59 M84.65,89.82c-0.89,1.23-1.34,2-1,1.67
		c0.67-0.56,3.12-3.9,2.9-3.9C86.43,87.48,85.54,88.6,84.65,89.82 M170.07,89.04c0,0.45,0.22,0.78,0.45,0.78s0.45-0.33,0.45-0.78
		c0-0.45-0.22-0.78-0.45-0.78C170.18,88.26,170.07,88.71,170.07,89.04 M47.45,99.29c-0.56,0.45-1.11,0.78-1.45,0.78
		c-0.33,0-0.67,0.22-0.78,0.33c-0.45,0.67,2-0.33,2.78-1.23C48.89,98.29,48.67,98.29,47.45,99.29 M94.89,103.41
		c-1,1-1.67,1.78-1.45,1.78c0.33,0,3.68-3.01,3.68-3.34C97.23,101.29,96.56,101.74,94.89,103.41 M108.37,103.41
		c-0.45,0.33-0.56,0.56-0.33,0.33c0.56-0.33,2.56,0.56,3.12,1.34c0.45,0.56,0.56,0.56,1,0c0.45-0.45,0.45-0.56-0.11-0.33
		c-0.33,0.11-0.89-0.22-1.34-0.67c-0.45-0.56-0.89-0.78-1.34-0.67c-0.45,0.11-0.56,0.11-0.33-0.22
		C109.48,102.63,109.26,102.74,108.37,103.41 M100.35,105.53c0,0.22,0.22,0.45,0.56,0.45s0.67-0.22,0.78-0.45
		c0.11-0.22-0.11-0.45-0.56-0.45C100.69,105.19,100.35,105.3,100.35,105.53 M80.08,106.31c0.11,0.22,1.34,0.45,2.56,0.45
		c1.34,0,2.34-0.22,2.34-0.45c0-0.22-1.11-0.45-2.56-0.45C80.86,105.97,79.97,106.08,80.08,106.31 M116.61,107.87l0.78,0.89
		l-0.89-0.11c-1.23-0.33-1.11-0.11,0.45,0.78c1.78,1,1.78-0.22,0-1.56l-1.11-0.89L116.61,107.87 M23.17,107.75
		c-0.33,0.11-0.78,0.56-1.11,1c-0.45,0.78-0.45,0.78,0.67-0.11c1-0.67,1.56-1.34,1.11-1.11C23.72,107.53,23.39,107.64,23.17,107.75
		 M51.23,108.31l-0.89,0.78l0.89-0.56c0.56-0.33,1.23-0.45,1.45-0.33c0.33,0.11,0.56,0.11,0.56,0
		C53.24,107.53,52.01,107.64,51.23,108.31 M73.84,107.75c-0.45,0.11-1,0.33-1.11,0.56c-0.22,0.22,0.22,0.22,0.89,0
		C75.63,107.75,75.85,107.31,73.84,107.75 M76.29,108.2c-0.11,0.11,0.45,0.33,1.11,0.33c0.78,0,1.34-0.11,1.34-0.33
		c0-0.11-0.56-0.33-1.11-0.33C77.07,107.87,76.4,108.09,76.29,108.2 M45.11,110.09c0,0.45,1.11,1.45,1.34,1.23
		c0.11-0.11-0.11-0.56-0.56-0.89C45.44,110.09,45.11,109.87,45.11,110.09 M125.97,110.65c-0.11,0.22-1.34,0.33-2.78,0.33
		c-1.34,0-2.56,0-2.78,0.11c-0.33,0.33,4.01,0.33,5.35,0.11c0.56-0.11,1.11-0.33,1.11-0.56C126.97,110.09,126.3,110.2,125.97,110.65
		 M19.6,111.21c-0.56,0.45-1.67,2.23-1.45,2.23c0.11,0,0.67-0.67,1.23-1.34C20.49,110.54,20.49,110.43,19.6,111.21 M41.54,112.1
		c-0.78,0.56-1.11,0.89-0.89,0.89s0.89-0.45,1.56-1C43.55,110.76,43.33,110.87,41.54,112.1 M46.33,112.65
		c-0.78,1.11-0.45,1.23,0.45,0.11c0.33-0.56,0.56-0.89,0.33-0.89S46.56,112.21,46.33,112.65 M61.93,116.66
		c-0.45,0.78-0.78,1.67-0.78,2c0,0.56,0.11,0.45,0.33-0.22c0.22-0.56,0.67-1.45,1-2c0.33-0.56,0.56-1,0.45-1
		C62.82,115.33,62.37,116,61.93,116.66 M31.19,117.67c-0.56,0.67-1,1.34-0.89,1.67c0.11,0.45,0.22,0.45,0.22,0
		c0-0.33,0.56-1.11,1.11-1.67c0.56-0.56,1-1.11,0.89-1.11C32.41,116.55,31.74,117,31.19,117.67 M44.33,119c0,0.56,1.89,1.34,2.23,1
		c0.11-0.22,0.11-0.33-0.11-0.22c-0.22,0.11-0.67,0-0.89-0.33C45,118.89,44.33,118.67,44.33,119 M30.74,122.57
		c-0.45,0.78-0.56,1.11-0.22,1.45c0.33,0.33,0.45,0.22,0.45-0.33c0-0.45,0.33-1,0.67-1.45c0.33-0.45,0.45-0.67,0.22-0.67
		C31.52,121.56,31.07,122.12,30.74,122.57 M10.02,123.35c-0.33,0.78-0.56,1.34-0.56,1.34c0.11,0,0.56-0.67,1-1.34
		c0.45-0.78,0.67-1.34,0.56-1.34C10.91,122.01,10.47,122.68,10.02,123.35 M63.04,122.9c0,0.22-0.33,0.89-0.78,1.34
		c-1,1-0.78,3.23,0.45,4.34c0.67,0.67,0.67,0.56,0-0.89c-0.89-1.78-1-2.67-0.11-3.34c0.89-0.67,1.45-1.89,1-1.89
		C63.26,122.46,63.04,122.57,63.04,122.9 M57.47,126.35c0.22,0.33,0.67,1.11,0.89,1.78l0.45,1.23l-0.22-1.23
		c-0.11-0.67-0.56-1.45-0.89-1.78C57.14,125.8,57.14,125.8,57.47,126.35 M124.63,126.47c0,0.45,0.11,1.11,0.33,1.56l0.33,0.78v-0.78
		c0-0.45-0.11-1.11-0.33-1.56l-0.33-0.78V126.47 M47.78,127.13c-0.56,0.45-0.78,0.78-0.56,0.78s0.78-0.33,1.11-0.78
		C49.34,126.13,49.12,126.13,47.78,127.13 M25.95,128.02c0,0.78,0.11,1.23,0.22,1.23c0.33-0.33,0.33-2.56,0-2.56
		C26.06,126.69,25.95,127.36,25.95,128.02 M8.24,130.25c0,1.56,0.22,2.67,0.45,2.67c0.22,0,0.45-1,0.45-2.34
		c0-1.45,0.22-2.34,0.45-2.45c0.22-0.11,0.11-0.22-0.45-0.33C8.24,127.58,8.24,127.69,8.24,130.25 M22.83,131.03
		c0,0.78,0.11,1.11,0.22,0.67c0.11-0.33,0.11-1,0-1.34C22.94,129.92,22.83,130.25,22.83,131.03 M41.54,131.14l-0.89,1.23l1.11-1.11
		c0.67-0.56,1-1.11,0.89-1.23C42.55,130.03,42.1,130.48,41.54,131.14 M65.16,131.48c-0.45,1.11-0.45,1.23,0.11,0.56
		c0.45-0.67,0.78-1.78,0.45-1.78C65.71,130.25,65.38,130.81,65.16,131.48 M60.37,131.7c0.56,0.67,1,1.11,1.11,1.11
		c0.11-0.11-0.33-0.67-0.89-1.23l-1.11-1.11L60.37,131.7 M23.5,133.04c0,0.22,0.22,0.45,0.56,0.45s0.56-0.22,0.56-0.45
		c0-0.22-0.22-0.45-0.56-0.45C23.83,132.59,23.5,132.81,23.5,133.04 M9.47,133.71c-0.33,0.22-0.45,0.45-0.33,0.67
		c0.11,0.11,0.56,0,0.89-0.33C10.69,133.37,10.36,133.15,9.47,133.71 M112.27,134.6c-0.11,0.22-0.45,0.33-0.56,0.22
		c-0.45-0.33-0.78,0.33-0.45,0.89c0.22,0.22,0.56,0.11,1-0.56c0.33-0.56,0.67-0.89,0.56-0.89S112.38,134.37,112.27,134.6
		 M22.5,135.15c1,0.78,1.56,0.78,2.23-0.11c0.45-0.67,0.45-0.67-0.11-0.11c-0.56,0.45-0.89,0.45-1.78,0.11
		C21.83,134.6,21.83,134.6,22.5,135.15 M58.81,135.6c-0.56,0.56-0.67,0.89-0.33,0.78c0.56-0.22,1.78-1.78,1.45-1.78
		C59.81,134.6,59.25,135.04,58.81,135.6 M124.85,135.04c-0.45,0.22-1.34,0.33-2.12,0.22c-0.78-0.11-1.23-0.11-1.11,0.11
		c0.33,0.56,2.67,0.45,3.56-0.22S125.86,134.37,124.85,135.04 M34.64,135.26c-0.45,0.11-0.89,0.33-1.11,0.56s0.33,0.11,1.23-0.11
		C36.98,135.04,36.98,134.71,34.64,135.26 M128.2,136.16c0.22,0.67,0.45,1.11,0.56,1c0.22-0.22-0.56-2.23-0.78-2.23
		C127.86,134.93,127.97,135.49,128.2,136.16 M99.91,138.49c-0.56,0.33-0.56,0.33,0,0.33c0.33,0,0.89-0.22,1.23-0.33
		c0.56-0.33,0.56-0.33,0-0.33C100.8,138.05,100.24,138.27,99.91,138.49 M37.76,138.94c-0.11,0.22-0.67,0.56-1.11,0.78
		c-0.56,0.22-0.67,0.33-0.22,0.33c0.33,0,0.89-0.33,1.34-0.78c0.33-0.45,0.56-0.78,0.45-0.78C38.2,138.49,37.98,138.61,37.76,138.94
		 M69.61,139.05c-0.11,0.33-0.33,0.89-0.33,1.23c-0.11,0.33-0.11,0.56,0,0.56c0.33,0,1-2,0.78-2.23
		C69.83,138.49,69.72,138.61,69.61,139.05 M102.02,139.05c-1.56,0.56-1.56,0.56-0.22,0.33c0.78-0.11,1.56-0.33,1.78-0.56
		C104.03,138.38,104.03,138.38,102.02,139.05 M22.72,140.61c0,0.67,1.11,1.89,1.45,1.67c0.11-0.11-0.11-0.67-0.56-1.11
		C23.17,140.61,22.72,140.39,22.72,140.61 M19.71,144.17c0.45,0.33,0.89,0.45,1,0.33c0.22-0.22-0.78-0.89-1.34-0.89
		C19.16,143.62,19.38,143.84,19.71,144.17 M25.39,145.96c-0.33,0.45-0.56,0.78-0.33,0.78s0.67-0.33,1-0.78
		c0.45-0.45,0.56-0.78,0.33-0.78S25.73,145.51,25.39,145.96 M37.65,146.51c-0.22,0.56-0.33,1.78-0.33,2.67
		c0,1.56,0.11,1.45,0.33-0.56c0.11-1.23,0.45-2.45,0.56-2.67s0.22-0.45,0-0.45C38.09,145.51,37.87,145.96,37.65,146.51
		 M121.62,146.4c-0.22,0.22-0.45,1.23-0.56,2c-0.22,1.56,0,1.23,0.78-1.23C122.18,145.85,122.18,145.62,121.62,146.4 M28.62,148.41
		c0,0.33,0.22,0.56,0.45,0.56c0.22,0,0.45-0.22,0.45-0.56s-0.22-0.56-0.45-0.56C28.85,147.85,28.62,148.18,28.62,148.41
		 M157.6,149.63c0.56,0.67,1.11,1,1.23,0.89c0.11-0.11-0.45-0.56-1.11-1.11l-1.23-0.89L157.6,149.63 M29.29,150.41
		c0.11,0.33,0.67,0.89,1.23,1.23l1,0.67l-0.89-0.78c-0.45-0.45-0.89-1-0.89-1.23c0-0.22-0.11-0.45-0.33-0.45
		S29.07,150.08,29.29,150.41 M2.23,155.87c0.11,3.23,0.22,5.9,0.33,6.01c0.22,0.33,0.11-7.13-0.22-9.58
		C2.23,150.97,2.12,152.42,2.23,155.87 M121.07,151.53c-0.11,0.89-0.11,1.34,0.11,1.11c0.22-0.22,0.33-0.89,0.22-1.45
		C121.29,150.08,121.29,150.19,121.07,151.53 M160.49,159.77c-0.33,1.56-0.45,4.23-0.22,3.9s0.67-4.79,0.45-4.79
		C160.72,158.88,160.61,159.21,160.49,159.77 M2.56,170.91c0,2.56,0.11,4.68,0.33,4.57c0.33-0.22,0.33-4.23-0.11-7.24
		C2.56,166.56,2.45,167.23,2.56,170.91 M130.98,167.12c-0.11,0.11,0.45,0.22,1.23,0.11c1-0.11,1.67,0,2.23,0.56l0.78,0.67
		l-0.78-0.89C133.88,166.67,131.43,166.45,130.98,167.12 M152.25,171.02c-0.56,0.45-1,0.89-0.89,1c0.11,0.11,0.67-0.22,1.23-0.78
		C153.92,170.01,153.7,169.9,152.25,171.02 M123.52,175.14c-0.89,0.78-1.78,1.78-2.12,2.23c-0.22,0.45,0,0.33,0.67-0.45
		c0.67-0.67,1.67-1.67,2.34-2.23c0.67-0.56,1.11-1,1-1C125.19,173.69,124.41,174.36,123.52,175.14 M129.31,174.14
		c-0.78,0.22-0.89,0.33-0.22,0.33c0.45,0,1-0.11,1.34-0.33C131.2,173.69,130.65,173.69,129.31,174.14 M149.36,178.03
		c-0.56,0.22-1.11,0.22-1.34,0.11c-0.33-0.22-0.33-0.11,0,0.22c0.45,0.45,2.56,0,2.56-0.56
		C150.47,177.59,150.47,177.59,149.36,178.03 M140.67,181.6c0,0.22-0.22,0.45-0.56,0.45s-0.67,0.11-0.78,0.33
		c-0.11,0.22,0.22,0.22,0.78,0.11c0.78-0.11,1.45-1.23,0.78-1.23C140.78,181.15,140.67,181.37,140.67,181.6 M231.66,181.82
		c-0.67,0.33-1.34,0.67-1.45,0.89s0.45,0,1.34-0.33c0.89-0.45,1.56-0.89,1.56-0.89C233.11,181.15,233.22,181.15,231.66,181.82
		 M5.46,182.04c0,0.11,0.56,0.33,1.23,0.67c0.67,0.22,1.11,0.33,0.89,0.11C7.24,182.38,5.46,181.82,5.46,182.04 M11.25,185.05
		c0.11,0.45,0.33,0.78,0.56,0.78c0.56,0,0.45-0.67-0.22-1.11C11.14,184.38,11.03,184.38,11.25,185.05 M13.37,191.84
		c0,0.11,0.56,0.67,1.23,1.23l1.23,1.11l-1.11-1.23C13.7,191.84,13.37,191.62,13.37,191.84 M192.01,193.74
		c0.33,0.22,0.89,0.45,1.34,0.45c1,0,0.67-0.22-0.78-0.56C191.68,193.4,191.57,193.4,192.01,193.74 M185,194.07
		c0.33,0.22,1,0.45,1.56,0.67c0.67,0.22,0.78,0.11,0.45-0.11c-0.33-0.22-1-0.45-1.56-0.67C184.66,193.74,184.55,193.74,185,194.07
		 M218.3,194.07c-1.34,0.56-1,0.78,0.45,0.33c0.67-0.22,1.34-0.45,1.45-0.56C220.53,193.63,219.19,193.74,218.3,194.07
		 M140.34,194.41c0,0.33,2.34,2.56,2.45,2.34c0.11-0.11-0.45-0.78-1.23-1.45C140.89,194.74,140.34,194.29,140.34,194.41
		 M197.92,194.52c0.11,0.33,0.45,0.56,0.67,0.67c0.33,0.11,0.45,0,0.33-0.33c-0.11-0.33-0.45-0.56-0.67-0.67
		S197.81,194.18,197.92,194.52 M251.04,195.74l-0.67,1.23l0.78-1c0.67-0.89,1-1.56,0.67-1.56
		C251.82,194.52,251.38,195.07,251.04,195.74 M223.2,196.3c0.11,0.67,0.45,1.45,0.56,1.78c0.22,0.33,0.22,0.11,0.11-0.56
		c-0.11-0.67-0.45-1.45-0.56-1.78C223.09,195.3,223.09,195.52,223.2,196.3 M140.89,198.19c0,0.78,0.11,1.34,0.33,1.34
		c0.45,0,0.33-1.67,0-2.23C140.89,197.08,140.78,197.41,140.89,198.19 M205.83,198.3c0.33,0.11,1,0.11,1.34,0s0.11-0.22-0.67-0.22
		C205.71,198.08,205.49,198.19,205.83,198.3 M224.43,201.87c0.22,2.45,0.45,2.67,0.45,0.33c0-1-0.11-1.89-0.33-2
		C224.43,200.09,224.31,200.87,224.43,201.87 M218.41,202.54c0,0.78,0.11,1.11,0.33,0.89c0.45-0.67,0.45-1.78,0-2
		C218.63,201.31,218.41,201.87,218.41,202.54 M103.92,201.87c-2.67,0.22-3.23,0.56-2.56,1.34c0.45,0.33,0.45,0.33,0.33-0.11
		c-0.11-0.45,0.33-0.67,2-0.67c1.23-0.11,2.34-0.33,2.56-0.45c0.22-0.22,0.33-0.33,0.22-0.33
		C106.48,201.65,105.25,201.76,103.92,201.87 M143.79,205.88c-0.11,0.89,0,1.56,0.11,1.56s0.33-0.67,0.33-1.56s-0.11-1.56-0.11-1.56
		C144.01,204.32,143.79,204.99,143.79,205.88 M6.91,205.1c-0.45,0.22-0.89,0.22-1.11,0.11c-0.22-0.11-0.22,0-0.11,0.22
		c0.33,0.45,1.67,0.22,2-0.33C7.91,204.65,7.91,204.65,6.91,205.1 M201.59,206.32l-1.23,1.23l1.45-0.89c0.78-0.45,1.45-1,1.45-1.23
		C203.38,204.76,202.82,205.1,201.59,206.32 M214.96,205.43c-0.45,0.22-0.56,0.33-0.22,0.33s0.89-0.11,1.34-0.33
		c0.45-0.22,0.56-0.33,0.22-0.33C215.96,205.1,215.4,205.32,214.96,205.43 M223.42,206.32c0.67,1.89,1.11,2.12,0.56,0.33
		c-0.22-0.89-0.56-1.56-0.67-1.56C223.09,205.1,223.2,205.65,223.42,206.32 M255.17,208.22c0,1.23,0.11,1.67,0.11,1.11
		c0.11-0.56,0.11-1.56,0-2.12C255.28,206.55,255.17,206.99,255.17,208.22 M109.71,207.99c-0.67,1.34-0.22,2.23,1.11,2.12l1.11-0.11
		l-1.11-0.11c-1.11-0.22-1.34-0.78-0.67-2.12c0.22-0.45,0.33-0.78,0.22-0.78C110.26,206.99,109.93,207.44,109.71,207.99
		 M171.86,211.34c0.11,0.56,0.56,1.34,1,1.78c0.67,0.67,0.78,0.67,0.22,0c-0.33-0.45-0.78-1.23-1-1.78l-0.45-1L171.86,211.34
		 M204.71,212.56l-2,0.22l1.89,0.11c1,0,1.89-0.11,2.12-0.33c0.11-0.22,0.22-0.33,0.11-0.33
		C206.72,212.23,205.83,212.34,204.71,212.56 M207.72,212.67c0.33,0.33,0.78,0.78,1.11,1.11c0.45,0.45,0.45,0.45,0.11-0.22
		c-0.22-0.45-0.78-0.89-1.11-1.11C207.16,212.11,207.16,212.23,207.72,212.67 M219.86,213.01c-0.22,0.22-0.45,0.67-0.45,0.89
		s0.22,0.11,0.56-0.33s0.78-0.67,1.23-0.45c0.45,0.11,0.56,0.11,0.45-0.11C221.31,212.34,220.42,212.45,219.86,213.01
		 M109.15,213.45c0.22,0.67,0.11,0.67-0.56,0.56c-0.45-0.11-0.78-0.11-0.67,0.11c0.33,0.45,1.23,0.45,1.56-0.11
		c0.11-0.22,0.11-0.67-0.22-0.89C109.04,212.78,108.93,212.89,109.15,213.45 M84.31,213.79c0.22,0.11,1.78,0.33,3.45,0.22
		c3.45,0,2.9-0.22-1.11-0.45C85.2,213.56,84.09,213.56,84.31,213.79 M86.65,214.9c0,0.22,0.33,0.45,0.78,0.45s0.78-0.22,0.78-0.45
		c0-0.22-0.33-0.45-0.78-0.45S86.65,214.68,86.65,214.9 M210.84,215.68c-0.45,0.67-1,1.11-1.23,1c-0.22-0.11-0.33,0-0.33,0.22
		c0,0.89,1.56-0.22,2.56-1.78C212.29,214.12,211.73,214.45,210.84,215.68 M255.39,214.79c-0.45,0.45-0.22,0.89,0.33,0.67
		c0.33-0.11,0.56-0.33,0.56-0.56C256.28,214.45,255.72,214.34,255.39,214.79 M90.88,216.79c0.56,0.45,1.11,0.78,1.23,0.78
		c0.67,0,0.33-0.33-0.89-1l-1.23-0.67L90.88,216.79 M161.05,217.46c0,0.33,0.11,0.45,0.22,0.22c0.11-0.33,0.89-0.45,2.78-0.22
		c1.45,0.11,2.56,0.11,2.45,0C165.84,216.9,161.05,216.79,161.05,217.46 M216.74,217.35c0,0.45,0.33,0.67,1,0.67
		c0.56,0,1-0.22,1-0.33c0-0.22-0.33-0.22-0.67-0.11c-0.33,0.11-0.78,0-1-0.33C216.74,216.79,216.74,216.79,216.74,217.35
		 M2.56,220.8c-0.33,0.67-0.56,1.23-0.45,1.23c0.11,0,0.45-0.56,0.78-1.23c0.33-0.67,0.56-1.23,0.45-1.23S2.9,220.13,2.56,220.8
		 M169.96,220.69c-0.11,0.22,0.45,0.89,1.11,1.45c0.78,0.56,1.45,1,1.45,1C172.75,222.7,170.07,220.36,169.96,220.69 M258.84,220.69
		c0.11,0.33,0.45,1,0.56,1.56c0.22,0.89,0.33,0.89,0.33,0.22c0-0.45-0.22-1.11-0.56-1.56S258.62,220.36,258.84,220.69
		 M242.91,221.36l-1,0.56l1-0.22c0.56-0.11,1.11-0.45,1.34-0.56C244.92,220.58,244.03,220.69,242.91,221.36 M250.82,221.8
		c0,1.45,0.67,3.12,1.78,4.01c0.45,0.45,0.45,0.22-0.22-0.67c-0.45-0.67-1-2-1.23-2.9C250.93,220.69,250.82,220.69,250.82,221.8
		 M144.57,222.14c0.56,0.56,1,0.89,1.11,0.78c0.22-0.22-1.11-1.78-1.67-1.78C143.9,221.14,144.12,221.58,144.57,222.14
		 M121.51,221.8c0,0.22,0.67,0.22,1.34,0.11c0.78-0.11,1.34-0.22,1.34-0.33s-0.67-0.11-1.34-0.11
		C122.07,221.58,121.51,221.69,121.51,221.8 M128.08,222.03c0.56,0.33,1,0.45,1.11,0.45c0.22-0.22,0-0.45-1.11-0.67l-1-0.22
		L128.08,222.03 M95.23,224.03c-0.56,0.56-0.78,1-0.56,1c0.45,0,1-0.45,1.67-1.23C97.12,222.7,96.23,223.03,95.23,224.03
		 M172.97,224.92c0,0.56,0.11,0.89,0.33,0.89c0.11,0,0.33-0.33,0.33-0.78c0-0.45-0.11-0.89-0.33-0.89
		C173.08,224.03,172.97,224.37,172.97,224.92 M236.57,225.81c-0.78,0.78-1.45,1.67-1.45,1.78c0,0.22,0.33-0.11,0.89-0.78
		c0.45-0.56,1.23-1.23,1.78-1.45c0.56-0.22,0.89-0.56,0.89-0.78C238.68,223.92,238.01,224.25,236.57,225.81 M132.87,225.7
		c0.56,0.56,1.11,1,1.23,0.89c0.11-0.11-0.33-0.56-1.11-1.11l-1.23-0.89L132.87,225.7 M94.23,226.93c-0.45,0.33-1.11,1.11-1.56,1.67
		c-0.56,0.67-0.33,0.56,0.67-0.33c0.78-0.67,1.67-1.23,2-1.23s0.67-0.22,0.67-0.45C96.01,226.04,95.12,226.15,94.23,226.93
		 M135.43,227.04c0.11,0.67,0.33,0.67,0.56,0.33c0.45-0.78,0.45-1.11-0.22-1.11C135.43,226.26,135.32,226.48,135.43,227.04
		 M148.13,227.15c0,0.33,0.45,1.23,1,1.78c0.56,0.56,0.78,0.78,0.45,0.33c-0.33-0.45-0.78-1.23-1-1.78
		C148.35,226.71,148.13,226.59,148.13,227.15 M9.58,228.38c-0.45,0.33-0.56,0.56-0.33,0.56s0.56-0.11,0.67-0.33
		c0.11-0.22,0.45-0.33,0.56-0.22c0.22,0.11,0.33,0,0.33-0.22C11.03,227.6,10.47,227.71,9.58,228.38 M99.13,228.49
		c0,0.33,2.56,1.34,3.34,1.34c0.33,0,0.56-0.22,0.56-0.33c0-0.22-0.22-0.33-0.56-0.22c-0.33,0.11-1.23-0.11-2-0.33
		C99.79,228.49,99.13,228.38,99.13,228.49 M7.46,229.38c1.34,0.89,2.12,1.23,1.23,0.45c-0.56-0.45-1.11-0.78-1.34-0.78
		C7.02,229.04,7.13,229.16,7.46,229.38 M10.58,229.71c0.33,0.22,0.89,0.33,1.23,0.33c0.56,0,0.56,0,0-0.33
		c-0.33-0.22-0.89-0.33-1.23-0.33C10.02,229.38,10.02,229.38,10.58,229.71 M137.55,232.72c-0.56,0.33-0.78,0.56-0.56,0.56
		s0.78-0.22,1.34-0.56c0.56-0.33,0.78-0.56,0.56-0.56C138.66,232.16,138.11,232.39,137.55,232.72 M140.89,233.5
		c-0.78,0.56-0.78,0.67,0.11,0.22c0.67-0.33,1-0.33,1.23,0c0.11,0.22,0.89,0.33,2.23,0.11l1.89-0.33h-1.56
		c-0.89,0-1.89-0.11-2.34-0.22C142.01,232.94,141.34,233.17,140.89,233.5 M95.34,233.72c-0.22,0.22-0.45,0.67-0.45,0.89
		c0,0.22,0.22,0.11,0.45-0.33c0.33-0.56,0.56-0.67,1.11-0.22c0.56,0.45,0.56,0.45,0.11-0.22C95.78,233.17,95.9,233.17,95.34,233.72
		 M132.98,234.84c0.11,0.22,0.56,0.45,1,0.45c0.45,0,0.67-0.22,0.56-0.45c-0.11-0.22-0.56-0.45-1-0.45
		C133.1,234.5,132.87,234.61,132.98,234.84 M148.47,236.28c0.56,0.56,1,1,1,1c0.11,0-0.11-0.45-0.56-1c-0.33-0.56-0.78-1-1-1
		C147.69,235.28,148.02,235.73,148.47,236.28 M17.71,239.4c0.33,0.67,0.89,1.56,1.23,2c0.33,0.45,0.22,0.11-0.22-0.78
		C17.71,238.62,16.93,237.73,17.71,239.4 M151.7,239.74c0.56,0.56,1,1,1,1c0.11,0-0.11-0.45-0.56-1c-0.33-0.56-0.78-1-1-1
		S151.14,239.18,151.7,239.74 M171.41,240.74l-1.56,0.33l1.45,0.11c0.78,0,1.56-0.11,1.67-0.33c0.11-0.22,0.22-0.33,0.11-0.33
		C173.08,240.4,172.3,240.63,171.41,240.74 M87.43,242.19c0.33,0.33,0.78,0.56,1,0.33c0.11-0.11,0-0.45-0.33-0.67
		C87.21,241.3,86.76,241.52,87.43,242.19 M88.21,243.75c-0.33,0.33-0.45,0.67-0.33,0.78c0.33,0.33,1.11-0.56,1-1
		C88.77,243.3,88.55,243.41,88.21,243.75 M247.04,247.64c-0.67,0.45-0.67,0.56-0.11,0.56c0.33,0,0.78-0.22,0.89-0.45
		C248.26,247.09,247.93,246.98,247.04,247.64 M244.47,249.2c-0.56,0.33-0.78,0.56-0.56,0.56s0.78-0.22,1.34-0.56
		c0.56-0.33,0.78-0.56,0.56-0.56C245.7,248.65,245.03,248.87,244.47,249.2 M177.87,249.54c0,0.33,0.45,0.67,1,0.78
		c0.56,0.11,0.89,0.45,0.78,0.56c-0.11,0.22,0,0.33,0.22,0.33c0.78,0,0.45-0.89-0.33-1.11c-0.45-0.11-0.78-0.45-0.78-0.78
		s-0.22-0.56-0.45-0.56C178.09,248.98,177.87,249.2,177.87,249.54 M374.23,252.54c0,0.45,0.22,0.78,0.45,0.78s0.45-0.33,0.45-0.78
		c0-0.45-0.22-0.78-0.45-0.78C374.34,251.65,374.23,252.1,374.23,252.54 M186.67,252.88c-0.45,0.22-1.67,0.33-2.78,0.33
		s-2.12,0.11-2.23,0.33c-0.33,0.45,4.9-0.11,5.79-0.67C188.45,252.43,187.89,252.43,186.67,252.88 M189.68,252.77
		c0,0.22,2,1,2.23,0.78c0.11-0.11-0.33-0.33-1-0.56C190.23,252.77,189.68,252.66,189.68,252.77 M24.5,254.1
		c-0.11,0.22,0.11,0.45,0.56,0.45s0.78-0.22,0.78-0.45c0-0.22-0.22-0.45-0.56-0.45C24.95,253.66,24.61,253.88,24.5,254.1
		 M228.43,254.66c-0.45,0.56-0.78,1.23-0.78,1.45s0.22,0.11,0.45-0.33s0.67-1.11,1-1.45c0.33-0.33,0.45-0.67,0.33-0.67
		C229.44,253.66,228.88,254.1,228.43,254.66 M22.5,254.99c-0.45,0.56-0.89,1.89-0.67,1.89c0.11,0,0.45-0.56,0.78-1.23
		C23.06,254.44,23.06,254.1,22.5,254.99 M87.43,255.22c0,0.22,0.22,0.45,0.56,0.45s0.56-0.22,0.56-0.45c0-0.22-0.22-0.45-0.56-0.45
		C87.65,254.88,87.43,254.99,87.43,255.22 M26.84,256.78c-0.56,0.67-0.67,0.89-0.22,1.23c0.45,0.33,0.45,0.33,0.22,0
		s0-0.89,0.45-1.23c0.33-0.45,0.56-0.78,0.45-0.78C27.62,256,27.18,256.33,26.84,256.78 M33.97,257.22c0.33,1.67,0.56,2,0.56,0.78
		c0-0.56-0.22-1.23-0.45-1.56C33.86,256,33.75,256.22,33.97,257.22 M81.08,256.67c-1.23,0.45-1.34,0.56-0.33,0.56
		c0.56,0,1.23-0.22,1.56-0.56c0.22-0.33,0.45-0.56,0.33-0.56S81.86,256.33,81.08,256.67 M374.01,258.56
		c-0.11,0.56-0.22,1.11-0.11,1.23c0.11,0.11,0.33-0.33,0.45-0.89s0.22-1.11,0.11-1.23C374.34,257.67,374.23,258,374.01,258.56
		 M30.29,258.45c0.11,0.22,0.33,0.56,0.67,0.67s0.33-0.11,0.22-0.45C30.85,257.89,30.07,257.78,30.29,258.45 M33.3,260.01
		c0.22,1.11,0.22,1.11,0.33,0.33c0.11-0.56,0-1.11-0.22-1.34C33.19,258.89,33.19,259.23,33.3,260.01 M107.37,259
		c0,0.78,0.89,1.34,1.89,1.34c1,0,1,0-0.22-0.45c-0.67-0.22-1.34-0.67-1.45-0.89C107.48,258.67,107.37,258.67,107.37,259
		 M78.19,260.01c0,0.22,0.67,0.56,1.45,0.67c0.78,0.11,1.56,0.33,1.89,0.56c0.56,0.45,0.56,0.33,0-0.22
		c-0.33-0.45-1.11-0.67-1.78-0.67C78.97,260.34,78.3,260.12,78.19,260.01C78.08,259.67,78.08,259.78,78.19,260.01 M373.56,262.23
		c0,0.45,0.33,0.78,0.67,0.78c0.45,0,0.45-0.11,0-0.67c-0.33-0.33-0.56-0.78-0.67-0.78C373.45,261.45,373.45,261.79,373.56,262.23
		 M21.61,262.9c0,0.67,1.45,1.78,2,1.56c0.33-0.11,0.33-0.22-0.11-0.22c-0.33,0-0.89-0.45-1.23-0.89
		C21.83,262.9,21.61,262.68,21.61,262.9 M24.95,263.35c-0.78,0.78-0.78,1.23-0.22,1.23c0.45,0,1.34-1.56,1.11-1.78
		C25.73,262.79,25.28,263.01,24.95,263.35 M160.94,263.01c-0.33,0.56-0.78,2.67-0.45,2.45c0.33-0.33,1-2.67,0.78-2.67
		C161.16,262.68,161.05,262.79,160.94,263.01 M81.75,264.46c-1.45,1.23-1.45,1.34-0.33,0.78c1.23-0.56,2.34-1.67,2-1.89
		C83.31,263.24,82.53,263.79,81.75,264.46 M204.71,263.91c0.11,0.22,0.45,0.33,0.78,0.33s0.67,0.22,0.78,0.56
		c0.11,0.33,0.45,0.45,0.89,0.33c0.33-0.11,0.45-0.33,0.33-0.56C206.83,264.13,204.49,263.46,204.71,263.91 M89.44,264.24
		c-1.34,0.56-1.11,0.78,0.33,0.33c0.67-0.22,1.23-0.45,1.23-0.56C90.88,263.79,90.44,263.91,89.44,264.24 M97.9,264.8
		c0.56,0.56,1,1,1.11,0.89c0.33-0.33-0.33-1-1.23-1.45C97.01,263.79,97.01,263.79,97.9,264.8 M202.6,264.68
		c1.34,0.45,2.34,0.45,1.34,0c-0.45-0.22-1.11-0.33-1.56-0.33C201.7,264.35,201.82,264.35,202.6,264.68 M89.77,266.13
		c0,0.22,0.33,0.45,0.67,0.67c0.33,0.11,0.56,0.11,0.45-0.22C90.66,265.91,89.77,265.58,89.77,266.13 M139.56,266.8
		c-1,1.11-0.67,1.34,0.56,0.45c0.45-0.33,0.67-0.78,0.56-1C140.56,265.91,140.11,266.13,139.56,266.8 M385.03,267.8
		c0.22,0.33,3.68,1.67,3.9,1.45c0.11-0.11-0.78-0.56-2-1C385.7,267.91,384.92,267.58,385.03,267.8 M397.39,267.8
		c0,0.33-0.56,1.11-1.11,1.78l-1.11,1.23l1.34-1.23c0.78-0.67,1.23-1.45,1.11-1.78C397.39,267.25,397.39,267.25,397.39,267.8
		 M105.03,268.36c0.78,0.33,1.56,0.78,1.89,1c0.33,0.22,0.56,0.33,0.56,0c0-0.45-2.34-1.67-3.23-1.67
		C103.92,267.8,104.25,268.03,105.03,268.36 M248.59,268.25c0.11,0.22,0.56,0.33,1,0.33c0.45,0,0.89,0.22,1,0.45
		c0.11,0.22,0.45,0.45,0.67,0.45c0.67,0-0.89-1-2-1.23C248.82,267.91,248.48,268.03,248.59,268.25 M90.66,268.58
		c0.78,0.33,5.23,0.56,4.9,0.22c-0.11-0.11-1.45-0.22-2.9-0.33C91.11,268.36,90.22,268.36,90.66,268.58 M215.74,270.03
		c-0.22,0.45-0.22,2.56,0,2.34c0.22-0.22,0.45-2.56,0.22-2.56C215.96,269.7,215.85,269.81,215.74,270.03 M214.51,271.03
		c0.11,0.45,0,0.78-0.45,1.11c-0.33,0.22-0.45,0.45-0.22,0.45c0.78,0,1.34-0.89,0.89-1.56
		C214.29,270.37,214.29,270.48,214.51,271.03 M231.55,271.26c0,0.56-0.22,0.78-0.78,0.78c-0.45,0-1,0.33-1.23,0.67
		c-0.45,0.56-0.45,0.67,0,0.22c0.33-0.22,1-0.45,1.45-0.45c0.67,0,0.89-0.22,0.89-0.78c0-0.45,0.22-0.89,0.45-1
		c0.33-0.11,0.22-0.22-0.22-0.22C231.78,270.48,231.55,270.81,231.55,271.26 M221.98,272.04c0.33,0.56,1.67,0.78,2.23,0.33
		c0.45-0.33,0.45-0.33,0-0.22c-0.33,0.11-1,0-1.45-0.11C222.09,271.81,221.86,271.81,221.98,272.04 M241.58,272.7
		c-0.45,0.11-0.89,0.33-1.11,0.56c-0.22,0.22,0.33,0.11,1.11-0.11c0.78-0.22,1.89-0.33,2.34-0.11c0.67,0.22,0.78,0.11,0.33-0.22
		C243.47,272.48,242.91,272.48,241.58,272.7 M98.23,274.04c0.33,0.33,0.67,0.33,1.11,0c0.67-0.33,0.56-0.45-0.45-0.45
		C98.12,273.71,97.9,273.82,98.23,274.04 M120.51,274.82c0.33,0.67,0.78,1.11,1,1.11c0.22,0,1,0.45,1.56,1
		c0.56,0.56,1.11,1,1.11,0.89c0-0.11-1-1.11-2.12-2.23C120.29,274.04,119.95,273.82,120.51,274.82 M167.73,275.38l-1.34,1.56
		l1.56-1.45c0.89-0.78,1.45-1.56,1.34-1.56C169.18,273.82,168.51,274.49,167.73,275.38 M214.96,273.93c-0.33,0.67,0.78,2,1.67,2
		c0.45,0,0.45-0.11-0.11-0.33c-0.45-0.11-0.89-0.78-1-1.23C215.29,273.71,215.18,273.6,214.96,273.93 M229.1,275.15
		c-0.33,0.45-0.67,1-0.56,1.23c0.11,0.22,0.45-0.11,0.78-0.78C229.99,274.26,229.99,274.15,229.1,275.15 M201.48,277.05
		c-0.56,0.67-0.67,1-0.11,1c0.33,0,1-1.23,0.78-1.34C202.04,276.49,201.82,276.71,201.48,277.05 M235.12,277.38
		c-0.56,0.56-0.78,1-0.56,1c0.33,0,2-1.89,1.67-1.89C236.12,276.38,235.56,276.82,235.12,277.38 M100.91,277.16
		c-0.11,0.22,0.22,0.22,0.78,0.11c0.56-0.11,1,0,1,0.22s0.22,0.45,0.33,0.45c0.22,0,0.22-0.22,0.11-0.56
		C102.91,276.71,101.24,276.6,100.91,277.16 M207.16,277.72c0.33,1.45,0.56,1.78,0.56,0.78c0-0.45-0.22-1-0.45-1.34
		C206.94,276.71,206.94,276.94,207.16,277.72 M34.53,278.72c0,0.22,0.56,0.45,1.11,0.45c0.56,0,1.23-0.22,1.45-0.45
		c0.11-0.22-0.33-0.45-1.11-0.45C35.08,278.38,34.53,278.5,34.53,278.72 M125.19,278.94c0.22,0.22,1,0.89,1.78,1.56l1.34,1.23
		l-1-1.11c-0.56-0.56-1.34-1.34-1.78-1.56C125.19,278.83,124.97,278.83,125.19,278.94 M186.67,279.72c0.45,0.33,1,0.56,1.34,0.56
		c0.56,0,0.56-0.11,0-0.22c-0.33-0.11-0.89-0.33-1.34-0.56C185.89,279.05,185.89,279.05,186.67,279.72 M108.04,280.17
		c-1.45,0.78-1.34,1.11,0.11,0.33c0.67-0.33,1.23-0.67,1.23-0.78C109.37,279.5,109.26,279.5,108.04,280.17 M167.73,280.95
		c0.78,0.78,1.45,1.34,1.56,1.34c0.11,0-0.45-0.67-1.11-1.34c-0.78-0.78-1.45-1.34-1.56-1.34
		C166.51,279.5,166.95,280.17,167.73,280.95 M136.44,280.83c0,0.56,0.22,1.11,0.33,1.11c0.33,0,0.33-0.33-0.11-1.34
		C136.44,279.83,136.44,279.83,136.44,280.83 M188.9,280.28c0,0.11,0.67,0.56,1.56,0.89c0.89,0.33,1.56,0.56,1.56,0.45
		s-0.67-0.56-1.56-0.89C189.56,280.28,188.9,280.05,188.9,280.28 M57.03,280.72c0.78,0.33,2.9,0.56,2.56,0.22
		c-0.11-0.11-0.89-0.22-1.78-0.33C56.69,280.39,56.47,280.39,57.03,280.72 M206.49,280.95c0.67,1.11,2.9,3.45,2.45,2.56
		c-0.22-0.45-0.67-1-0.89-1.11s-0.56-0.67-0.78-1.23s-0.56-0.89-0.78-0.89C206.16,280.28,206.16,280.5,206.49,280.95 M230.22,281.39
		c0.78,0.78,0.89,1.23,0.56,1.34c-0.45,0.11-0.45,0.22,0,0.22c1,0.11,1-1.23,0-2C229.33,279.94,228.99,280.17,230.22,281.39
		 M128.97,282.62c0.11,0.22,0.33,0.45,0.45,0.45c0.45,0,0.33-0.56-0.11-0.78C128.97,282.28,128.86,282.39,128.97,282.62
		 M143.45,283.17c0,0.11,0.56,0.67,1.23,1.23l1.23,1.11l-1.11-1.23C143.79,283.17,143.45,282.84,143.45,283.17 M168.29,284.62
		l-2,0.22l1.89,0.11c1,0,1.89-0.11,2.12-0.33c0.11-0.22,0.22-0.33,0.11-0.33C170.3,284.29,169.4,284.51,168.29,284.62 M209.5,285.07
		c0.11,0.22,0.45,0.22,0.78,0.11c0.56-0.22,1.45,0.67,1.11,1.11c-0.11,0.11-0.11,0.22,0.11,0.11c0.11-0.11,0.56,0.11,0.78,0.45
		c0.56,0.67,0.56,0.56,0.11-0.11c-0.22-0.45-0.67-1-1-1.34C210.61,284.84,209.17,284.51,209.5,285.07 M211.28,291.75
		c-0.67,0.67-0.56,1.45,0.22,1.45c0.56,0,0.56-0.11,0.11-0.33c-0.45-0.33-0.45-0.45,0-1C212.17,291.19,211.95,291.08,211.28,291.75
		 M215.07,293.2c-0.45,0.67-0.78,1.23-0.67,1.23c0.11,0,0.56-0.56,1-1.23c0.45-0.67,0.78-1.23,0.67-1.23
		C215.96,291.97,215.63,292.64,215.07,293.2 M213.51,295.76c0,0.56,0.22,1,0.45,1c0.22,0,0.45-0.45,0.45-1s-0.22-1-0.45-1
		C213.73,294.76,213.51,295.2,213.51,295.76 M200.26,296.09c0.11,0.11,0.67,0.22,1.34,0.45c0.89,0.22,1,0.11,0.56-0.11
		C201.7,295.98,199.92,295.76,200.26,296.09"/>
</g>
</svg>
