<svg id="svg" version="1.1" xmlns="http://www.w3.org/2000/svg" xmlns:xlink="http://www.w3.org/1999/xlink" width="400" height="351.5625" viewBox="0, 0, 400,351.5625"><g id="svgg"><path id="path0" d="M228.201 52.566 C 227.652 52.808,225.413 54.893,223.227 57.198 L 219.251 61.390 214.023 61.434 C 208.931 61.476,205.833 60.768,207.092 59.847 C 207.255 59.728,207.420 59.472,207.460 59.279 C 207.499 59.085,207.721 58.440,207.953 57.846 C 208.740 55.827,207.419 53.668,205.893 54.481 C 205.554 54.661,204.485 54.864,203.518 54.933 C 202.551 55.001,201.670 55.177,201.561 55.324 C 201.451 55.471,200.739 55.629,199.977 55.676 C 199.216 55.723,198.514 55.860,198.417 55.982 C 198.320 56.104,197.237 56.759,196.010 57.437 C 194.769 58.124,193.950 58.775,194.163 58.907 C 194.625 59.193,194.681 60.862,194.228 60.862 C 194.053 60.862,193.987 61.161,194.083 61.526 C 194.178 61.891,194.105 62.283,193.920 62.398 C 193.735 62.512,194.434 63.456,195.472 64.495 C 197.254 66.276,197.819 67.574,197.025 68.064 C 196.840 68.179,196.772 68.489,196.873 68.753 C 196.975 69.018,196.870 69.350,196.640 69.492 C 195.946 69.921,190.677 70.095,190.677 69.689 C 190.677 69.490,190.463 69.410,190.201 69.510 C 189.939 69.611,188.359 69.220,186.690 68.642 C 183.298 67.466,183.012 67.558,184.004 69.503 C 184.402 70.283,184.697 71.565,184.697 72.515 C 184.697 74.362,185.684 75.510,188.163 76.547 C 189.065 76.923,189.300 77.161,188.970 77.364 C 188.715 77.522,188.530 77.713,188.559 77.788 C 189.002 78.936,187.715 79.356,187.202 78.230 C 186.971 77.722,185.628 76.228,184.218 74.912 C 182.408 73.222,181.536 72.119,181.247 71.155 C 180.735 69.445,179.184 67.838,178.901 68.725 C 178.799 69.044,178.612 69.582,178.486 69.921 C 178.226 70.617,178.143 70.992,178.066 71.811 C 177.908 73.499,170.200 80.069,168.111 80.297 C 167.655 80.346,167.203 80.489,167.106 80.613 C 166.913 80.862,160.064 83.821,158.675 84.257 C 158.198 84.406,156.744 85.235,155.445 86.099 C 154.145 86.963,152.913 87.566,152.707 87.438 C 152.500 87.310,152.331 87.371,152.331 87.574 C 152.331 87.812,151.366 87.887,149.604 87.787 C 147.715 87.680,147.256 87.721,148.109 87.921 C 148.964 88.122,147.829 88.224,144.402 88.256 C 138.439 88.312,137.300 87.766,137.158 84.785 C 137.024 81.988,136.455 81.500,132.014 80.372 C 130.611 80.015,129.464 79.601,129.464 79.451 C 129.464 79.301,129.242 79.263,128.971 79.367 C 128.701 79.470,128.373 79.384,128.243 79.174 C 128.114 78.964,127.872 78.876,127.706 78.979 C 127.540 79.082,126.561 78.830,125.531 78.419 C 123.277 77.520,118.358 77.603,113.155 78.629 C 111.670 78.921,110.672 80.458,111.044 81.879 C 111.371 83.128,110.551 84.173,109.379 84.001 C 108.816 83.919,108.355 83.966,108.355 84.107 C 108.355 84.481,103.064 84.266,102.786 83.881 C 102.657 83.701,102.235 83.498,101.850 83.430 C 100.225 83.145,97.212 80.879,97.608 80.240 C 97.717 80.063,97.613 79.855,97.377 79.776 C 97.075 79.676,96.913 78.185,96.830 74.733 C 96.630 66.367,96.895 66.830,93.030 68.092 C 91.527 68.583,90.086 68.903,89.828 68.804 C 89.569 68.705,89.358 68.787,89.358 68.987 C 89.358 69.186,89.081 69.315,88.742 69.272 C 88.404 69.230,87.652 69.393,87.071 69.635 C 86.491 69.877,85.423 70.100,84.699 70.130 C 83.974 70.160,83.380 70.303,83.379 70.449 C 83.378 70.594,83.160 70.712,82.895 70.712 C 82.629 70.712,81.178 71.115,79.670 71.607 C 78.163 72.099,76.717 72.421,76.459 72.322 C 76.201 72.223,75.989 72.295,75.989 72.482 C 75.989 72.670,75.782 72.823,75.529 72.823 C 75.276 72.823,74.128 73.398,72.978 74.100 C 71.829 74.802,70.690 75.383,70.449 75.390 C 70.207 75.397,70.009 75.506,70.009 75.631 C 70.009 75.757,69.415 76.139,68.690 76.481 C 67.964 76.822,66.658 77.553,65.787 78.104 C 64.916 78.655,63.973 79.156,63.690 79.219 C 63.407 79.281,63.012 79.464,62.811 79.625 C 61.126 80.977,46.881 88.048,46.418 87.762 C 46.235 87.650,46.086 87.736,46.086 87.954 C 46.086 88.431,39.499 91.570,39.064 91.301 C 38.896 91.197,38.705 91.242,38.640 91.400 C 38.576 91.558,37.098 92.570,35.356 93.647 C 31.938 95.763,29.770 97.130,26.104 99.479 C 24.815 100.305,23.559 100.903,23.314 100.809 C 23.068 100.715,22.867 100.810,22.867 101.020 C 22.867 101.236,22.491 101.329,22.000 101.236 C 21.523 101.144,21.088 101.165,21.033 101.282 C 20.977 101.399,20.356 101.788,19.652 102.145 C 18.429 102.766,18.392 102.836,18.842 103.703 C 19.101 104.202,19.233 104.741,19.134 104.900 C 19.036 105.059,19.110 105.189,19.299 105.189 C 19.702 105.189,20.503 108.615,20.211 109.088 C 20.101 109.266,20.197 109.411,20.425 109.411 C 20.676 109.411,20.772 109.756,20.670 110.290 C 20.578 110.774,20.621 111.170,20.767 111.170 C 20.913 111.170,21.137 111.590,21.266 112.104 C 21.395 112.618,22.688 114.316,24.139 115.878 C 26.075 117.962,26.729 118.902,26.596 119.411 C 26.496 119.792,26.592 120.318,26.809 120.580 C 27.164 121.007,24.558 124.322,23.468 124.829 C 23.315 124.900,23.333 125.141,23.509 125.364 C 24.505 126.627,25.379 130.058,25.158 131.834 C 24.944 133.550,24.987 133.705,25.784 134.067 C 26.509 134.398,27.999 136.630,27.882 137.212 C 27.862 137.314,29.260 137.354,30.990 137.301 L 34.136 137.204 34.835 138.347 C 35.219 138.976,35.456 139.696,35.361 139.948 C 35.266 140.200,35.345 140.309,35.536 140.191 C 35.727 140.073,35.884 140.104,35.885 140.261 C 35.885 140.417,36.594 140.993,37.460 141.540 C 38.547 142.227,39.533 143.336,40.649 145.126 C 42.189 147.597,44.138 149.164,45.670 149.164 C 45.899 149.164,46.086 149.332,46.086 149.537 C 46.086 149.742,46.208 149.834,46.357 149.742 C 46.505 149.650,47.257 149.873,48.028 150.237 C 48.798 150.602,49.636 150.905,49.889 150.912 C 50.142 150.918,50.276 151.042,50.185 151.187 C 50.095 151.332,50.884 151.397,51.938 151.330 C 53.814 151.211,53.884 151.167,55.314 149.219 C 58.311 145.138,59.977 144.070,64.556 143.296 C 65.136 143.198,65.792 142.969,66.014 142.787 C 66.235 142.605,66.552 142.487,66.718 142.525 C 66.883 142.563,67.481 142.403,68.047 142.171 C 68.612 141.938,69.275 141.825,69.519 141.918 C 69.763 142.012,70.016 141.931,70.080 141.738 C 70.145 141.544,70.788 141.355,71.509 141.318 C 72.230 141.280,72.821 141.130,72.822 140.985 C 72.823 140.840,73.140 140.721,73.527 140.721 C 73.914 140.721,74.230 140.858,74.230 141.024 C 74.230 141.191,74.588 141.259,75.025 141.175 C 76.036 140.982,76.639 141.642,79.832 146.438 C 81.217 148.518,82.541 150.244,82.776 150.273 C 83.010 150.303,83.360 150.364,83.553 150.409 C 83.747 150.454,84.091 150.509,84.319 150.531 C 84.711 150.570,86.544 154.142,86.544 154.868 C 86.544 155.056,86.229 155.610,85.845 156.098 C 85.460 156.587,85.215 157.098,85.299 157.234 C 85.383 157.370,85.526 157.866,85.618 158.336 C 85.709 158.806,86.022 159.849,86.313 160.654 C 86.604 161.459,86.748 162.211,86.634 162.325 C 86.520 162.440,86.598 162.533,86.809 162.533 C 87.143 162.533,87.733 164.163,87.764 165.172 C 87.770 165.365,87.925 165.631,88.109 165.763 C 88.292 165.895,88.530 167.443,88.636 169.203 L 88.830 172.402 90.765 174.291 C 91.829 175.330,92.792 176.125,92.904 176.057 C 93.017 175.989,94.204 176.305,95.543 176.759 C 97.141 177.301,98.119 177.469,98.391 177.249 C 98.618 177.065,99.014 176.949,99.270 176.992 C 99.527 177.035,100.199 176.880,100.764 176.647 C 101.330 176.415,102.003 176.305,102.259 176.404 C 102.516 176.502,102.726 176.430,102.726 176.242 C 102.726 176.055,102.942 175.901,103.205 175.901 C 103.468 175.901,104.247 175.519,104.935 175.052 C 105.624 174.585,106.279 174.295,106.392 174.407 C 106.504 174.520,106.596 174.444,106.596 174.239 C 106.596 173.733,107.618 173.374,108.123 173.702 C 108.348 173.847,108.840 173.967,109.217 173.967 C 110.036 173.967,110.516 175.407,110.023 176.386 C 109.519 177.386,110.259 177.648,113.632 177.664 C 119.902 177.693,124.067 180.227,124.732 184.416 C 124.834 185.054,125.012 186.051,125.129 186.631 C 125.246 187.212,125.378 189.292,125.423 191.253 C 125.467 193.215,125.618 195.005,125.758 195.231 C 125.897 195.457,125.920 196.009,125.807 196.457 C 125.577 197.374,128.138 200.648,128.936 200.457 C 129.176 200.399,130.341 199.131,131.523 197.638 L 133.674 194.924 138.165 195.036 C 142.440 195.143,142.763 195.204,144.883 196.297 C 147.089 197.434,151.275 198.294,151.275 197.611 C 151.275 197.432,151.513 197.377,151.803 197.489 C 152.093 197.600,152.331 197.567,152.331 197.415 C 152.331 197.126,157.040 195.444,157.960 195.404 C 158.843 195.365,160.254 196.204,161.873 197.729 C 162.720 198.527,164.110 199.512,164.963 199.919 C 166.149 200.483,166.812 201.154,167.778 202.764 C 168.473 203.922,169.390 205.239,169.817 205.689 C 170.702 206.624,172.133 206.831,171.805 205.976 C 171.693 205.683,171.797 205.209,172.035 204.921 C 172.516 204.341,174.142 204.201,174.142 204.738 C 174.142 204.926,174.380 204.988,174.670 204.877 C 175.444 204.580,177.292 206.674,177.055 207.579 C 176.952 207.973,176.215 208.747,175.417 209.299 C 173.902 210.348,172.334 211.970,172.589 212.225 C 172.721 212.357,171.690 215.686,171.091 217.062 C 170.964 217.353,170.847 217.696,170.831 217.825 C 170.814 217.954,170.682 218.178,170.536 218.323 C 170.391 218.468,170.273 218.877,170.273 219.232 C 170.273 219.587,170.114 219.877,169.921 219.877 C 169.727 219.877,169.569 220.506,169.569 221.275 C 169.569 222.795,169.949 222.877,172.823 221.976 C 173.356 221.809,173.791 221.808,173.791 221.973 C 173.791 222.138,174.092 222.195,174.460 222.098 C 175.121 221.926,175.885 223.177,175.409 223.653 C 175.296 223.766,175.376 224.066,175.587 224.320 C 175.798 224.574,175.995 225.418,176.024 226.197 C 176.053 226.976,176.209 227.613,176.371 227.615 C 176.532 227.616,176.598 227.813,176.518 228.053 C 176.438 228.293,176.583 228.700,176.841 228.958 C 177.825 229.943,177.394 230.928,175.608 231.776 C 173.740 232.663,170.168 235.606,170.436 236.039 C 170.584 236.279,170.900 238.119,171.127 240.065 C 171.362 242.074,180.123 245.267,180.123 243.343 C 180.123 243.163,180.598 243.086,181.179 243.171 C 181.759 243.256,182.234 243.195,182.234 243.035 C 182.234 242.875,182.956 242.744,183.838 242.744 C 184.720 242.744,185.369 242.863,185.281 243.008 C 185.193 243.153,185.773 243.298,186.570 243.329 C 187.366 243.361,188.070 243.542,188.133 243.732 C 188.197 243.921,188.540 244.000,188.895 243.907 C 189.251 243.814,189.644 243.903,189.769 244.105 C 189.894 244.307,190.213 244.389,190.477 244.288 C 190.741 244.186,191.064 244.275,191.194 244.485 C 191.323 244.695,191.584 244.771,191.772 244.654 C 191.961 244.538,192.306 244.600,192.540 244.792 C 192.773 244.983,193.439 245.218,194.019 245.313 C 194.600 245.409,195.787 245.652,196.658 245.853 C 199.062 246.411,201.991 246.637,201.750 246.247 C 201.635 246.062,201.719 245.910,201.937 245.910 C 202.154 245.910,203.232 245.495,204.332 244.988 C 205.432 244.481,207.282 243.702,208.443 243.257 C 209.604 242.811,211.641 241.950,212.970 241.342 C 214.298 240.735,215.599 240.320,215.861 240.420 C 216.122 240.520,216.438 240.437,216.563 240.235 C 216.688 240.034,217.089 239.946,217.454 240.042 C 217.819 240.137,218.118 240.054,218.118 239.856 C 218.118 239.658,218.415 239.573,218.778 239.668 C 219.306 239.807,219.632 239.411,220.410 237.687 C 222.408 233.255,222.618 232.238,221.793 230.979 C 220.715 229.334,221.488 228.389,231.135 219.567 C 231.860 218.903,232.619 218.505,232.982 218.598 C 233.320 218.685,233.597 218.612,233.597 218.437 C 233.597 218.261,233.923 218.118,234.322 218.118 C 234.720 218.118,234.962 218.253,234.860 218.419 C 234.588 218.858,236.145 220.165,236.763 220.016 C 238.918 219.499,239.278 219.482,239.756 219.879 C 240.337 220.361,240.483 222.339,239.936 222.339 C 239.731 222.339,239.677 222.963,239.802 223.876 C 239.935 224.849,239.868 225.502,239.618 225.657 C 239.389 225.799,239.318 226.276,239.448 226.797 C 239.662 227.647,239.616 227.681,238.577 227.453 C 237.573 227.232,237.430 227.318,236.881 228.470 C 236.551 229.161,236.143 229.727,235.973 229.727 C 235.803 229.727,235.708 230.638,235.762 231.750 C 235.851 233.589,235.693 234.099,234.025 237.358 C 233.016 239.330,232.190 241.238,232.190 241.598 C 232.190 241.957,232.042 242.402,231.862 242.586 C 231.578 242.874,233.046 244.963,233.602 245.061 C 238.790 245.983,240.141 248.556,238.121 253.668 C 237.513 255.206,236.840 256.467,236.626 256.470 C 236.356 256.473,236.351 256.555,236.608 256.734 C 237.688 257.484,238.171 258.823,238.171 261.073 C 238.171 262.517,238.339 263.554,238.610 263.779 C 239.153 264.228,244.505 264.497,244.504 264.075 C 244.503 263.907,244.820 263.853,245.207 263.954 C 245.594 264.056,245.834 264.014,245.741 263.862 C 245.539 263.537,247.269 263.149,248.922 263.149 C 250.580 263.149,251.467 263.574,253.549 265.367 C 254.760 266.411,255.983 267.101,257.155 267.401 C 258.129 267.651,258.927 267.979,258.927 268.129 C 258.927 268.280,259.164 268.313,259.453 268.202 C 259.966 268.005,260.886 268.819,263.363 271.660 C 263.965 272.351,264.677 273.217,264.946 273.586 C 265.450 274.277,269.927 277.221,270.474 277.221 C 270.642 277.221,271.283 276.970,271.898 276.663 C 274.976 275.128,280.702 277.232,280.904 279.973 C 280.928 280.304,281.064 280.762,281.205 280.991 C 281.356 281.236,281.168 281.564,280.749 281.789 C 280.025 282.176,279.754 284.169,280.249 285.459 C 280.610 286.401,282.643 286.179,283.201 285.136 C 285.265 281.281,295.348 291.007,295.034 296.550 C 294.851 299.793,296.204 300.766,298.810 299.265 C 299.610 298.804,301.016 297.996,301.935 297.469 C 302.854 296.941,303.608 296.642,303.611 296.804 C 303.614 296.965,303.734 296.914,303.877 296.689 C 304.070 296.385,304.454 296.420,305.367 296.823 C 307.369 297.707,309.175 297.416,310.441 296.006 C 311.485 294.843,313.511 293.927,313.987 294.403 C 314.114 294.531,314.324 294.652,314.453 294.674 C 315.722 294.884,316.937 295.291,316.826 295.469 C 316.751 295.591,317.451 295.690,318.382 295.690 C 319.312 295.690,320.000 295.572,319.910 295.427 C 319.821 295.281,319.932 295.163,320.157 295.163 C 320.383 295.163,320.874 294.772,321.250 294.295 C 321.994 293.349,323.888 293.152,325.242 293.880 C 325.629 294.088,326.051 294.264,326.180 294.271 C 326.309 294.278,326.527 294.396,326.664 294.533 C 326.802 294.670,327.369 294.548,327.925 294.260 C 328.481 293.973,328.936 293.812,328.936 293.903 C 328.936 293.993,329.446 293.602,330.070 293.032 C 330.693 292.462,331.300 291.996,331.418 291.996 C 331.690 291.996,331.773 291.545,331.907 289.358 C 332.049 287.043,333.099 284.734,334.732 283.149 L 336.054 281.866 335.429 280.807 C 335.085 280.225,334.607 279.824,334.368 279.916 C 334.128 280.008,333.826 279.911,333.696 279.702 C 333.567 279.492,333.320 279.407,333.149 279.513 C 332.417 279.965,331.773 278.143,332.152 276.693 C 332.883 273.895,332.793 273.592,331.135 273.258 C 330.312 273.093,329.639 272.799,329.639 272.606 C 329.639 272.412,329.499 272.341,329.327 272.447 C 328.887 272.719,328.207 271.802,328.099 270.790 C 327.875 268.692,324.480 264.204,323.117 264.204 C 322.053 264.204,320.801 262.543,320.686 260.979 C 320.676 260.850,320.550 260.626,320.405 260.481 C 320.036 260.113,320.074 258.927,320.453 258.927 C 320.625 258.927,320.750 258.729,320.730 258.487 C 320.655 257.591,321.633 254.896,322.178 254.498 C 322.663 254.144,322.533 253.980,321.247 253.324 C 319.807 252.590,319.488 251.560,320.475 250.836 C 320.607 250.739,321.231 249.749,321.861 248.637 C 322.491 247.524,323.163 246.614,323.354 246.614 C 323.544 246.614,323.621 246.485,323.524 246.328 C 323.052 245.566,325.634 242.968,327.272 242.557 C 328.302 242.298,328.954 240.511,328.268 239.825 C 327.368 238.925,327.825 237.510,329.249 236.783 C 330.679 236.053,331.398 234.745,331.398 232.872 C 331.398 232.243,331.742 231.611,332.373 231.078 C 333.008 230.542,333.582 229.481,334.018 228.035 C 334.732 225.673,335.801 224.707,338.811 223.704 C 340.005 223.306,341.717 221.870,341.389 221.541 C 340.820 220.972,343.077 217.414,344.006 217.414 C 344.544 217.414,345.292 217.182,345.667 216.898 C 346.648 216.156,346.823 216.221,347.465 217.565 C 347.824 218.319,348.381 218.858,348.950 219.001 C 349.451 219.126,349.971 219.407,350.106 219.625 C 350.285 219.915,350.566 219.908,351.164 219.598 C 351.612 219.365,352.375 219.135,352.858 219.086 C 353.342 219.037,353.847 218.845,353.981 218.658 C 354.670 217.697,356.200 218.987,356.212 220.539 C 356.225 222.263,357.162 223.354,358.019 222.642 C 358.568 222.187,358.644 220.719,358.135 220.405 C 357.665 220.114,357.683 218.118,358.156 218.118 C 358.361 218.118,358.444 217.980,358.339 217.811 C 358.235 217.643,358.788 217.419,359.569 217.315 C 361.200 217.096,363.030 215.484,362.382 214.836 C 362.175 214.629,362.005 214.147,362.005 213.766 C 362.005 213.384,361.744 212.783,361.424 212.429 C 360.206 211.084,363.104 208.499,367.330 207.163 C 368.755 206.712,370.000 206.250,370.097 206.135 C 370.193 206.021,370.800 205.623,371.445 205.251 C 372.481 204.653,372.597 204.440,372.435 203.433 C 372.320 202.712,372.433 202.112,372.741 201.803 C 373.010 201.535,373.149 201.234,373.050 201.136 C 372.951 201.037,373.327 200.631,373.886 200.233 C 374.885 199.522,378.354 199.893,377.615 200.632 C 377.479 200.768,377.799 200.880,378.326 200.880 C 378.876 200.880,379.192 200.729,379.068 200.528 C 378.946 200.331,379.220 200.176,379.689 200.176 C 382.243 200.176,382.661 197.278,380.436 194.996 C 378.733 193.250,377.940 189.270,379.295 189.270 C 379.483 189.270,379.552 189.133,379.449 188.966 C 379.345 188.798,379.447 187.772,379.675 186.685 C 380.078 184.768,380.062 184.679,379.164 183.735 C 378.655 183.200,378.126 182.287,377.989 181.706 C 377.852 181.126,377.580 180.449,377.386 180.203 C 377.192 179.956,377.127 179.660,377.242 179.545 C 377.547 179.239,376.573 178.364,375.927 178.364 C 375.623 178.364,375.374 178.195,375.374 177.989 C 375.374 177.770,375.072 177.709,374.653 177.842 C 374.257 177.968,373.710 177.885,373.437 177.659 C 373.165 177.433,372.777 177.350,372.575 177.475 C 372.373 177.600,372.208 177.525,372.208 177.309 C 372.208 177.092,372.063 177.005,371.886 177.114 C 371.709 177.224,371.500 177.122,371.423 176.888 C 371.319 176.577,370.935 176.628,369.981 177.081 C 369.267 177.420,368.539 177.609,368.364 177.501 C 368.189 177.393,367.985 177.487,367.911 177.711 C 367.655 178.477,365.370 177.740,364.750 176.691 C 364.435 176.160,363.850 175.348,363.449 174.886 C 362.970 174.335,362.788 173.773,362.920 173.248 C 363.037 172.783,362.873 172.073,362.529 171.547 C 361.683 170.257,363.533 168.116,367.345 165.974 C 368.749 165.184,370.621 162.745,370.265 162.169 C 370.150 161.982,368.635 161.829,366.898 161.829 C 363.131 161.829,361.437 161.261,361.091 159.880 C 360.939 159.276,361.014 158.841,361.299 158.665 C 361.852 158.323,361.715 158.088,359.042 154.807 C 356.376 151.534,354.647 149.868,353.915 149.868 C 353.605 149.868,353.168 149.685,352.944 149.461 C 352.635 149.152,352.406 149.162,351.998 149.500 C 351.702 149.746,351.221 149.855,350.928 149.743 C 350.635 149.630,350.396 149.692,350.396 149.879 C 350.396 150.258,349.000 150.337,348.138 150.006 C 347.775 149.867,347.577 149.348,347.570 148.511 C 347.549 146.095,346.542 145.462,342.655 145.423 C 340.817 145.404,338.602 145.266,337.731 145.116 C 336.860 144.967,333.972 144.775,331.312 144.691 C 326.856 144.550,326.434 144.479,325.947 143.783 C 325.656 143.367,325.418 143.173,325.418 143.352 C 325.418 143.530,325.228 143.486,324.996 143.254 C 324.201 142.459,322.280 142.737,321.836 143.712 C 321.502 144.444,321.191 144.591,319.976 144.591 C 317.633 144.591,317.223 144.080,317.865 141.961 C 318.467 139.977,318.347 139.314,317.387 139.314 C 316.647 139.314,312.312 137.175,312.556 136.931 C 312.641 136.846,312.410 136.454,312.042 136.059 C 311.674 135.664,311.268 134.639,311.139 133.780 L 310.905 132.218 314.000 129.346 C 315.702 127.766,317.897 125.989,318.879 125.397 C 319.861 124.805,321.185 123.618,321.821 122.759 C 322.457 121.899,323.298 120.817,323.689 120.353 C 324.633 119.235,324.139 118.800,322.108 118.962 C 320.146 119.118,320.141 119.322,322.168 116.496 C 323.090 115.211,324.290 113.471,324.835 112.630 L 325.826 111.099 325.069 110.293 C 323.965 109.119,324.870 105.837,325.988 106.956 C 326.233 107.201,326.610 107.088,327.168 106.604 C 327.619 106.213,327.845 105.890,327.670 105.887 C 327.496 105.884,327.568 105.746,327.831 105.579 C 328.094 105.412,328.390 104.556,328.489 103.677 C 328.631 102.420,328.786 102.122,329.212 102.286 C 329.568 102.423,329.667 102.353,329.500 102.083 C 329.335 101.814,329.529 101.669,330.058 101.666 C 331.741 101.655,332.006 101.097,330.886 99.928 L 329.859 98.856 330.629 97.815 C 331.501 96.635,331.565 96.115,330.937 95.290 C 330.438 94.634,326.921 94.239,326.671 94.811 C 326.586 95.004,326.284 94.875,326.000 94.524 C 325.715 94.172,325.403 93.935,325.307 93.996 C 325.210 94.057,324.422 93.443,323.556 92.631 C 322.689 91.818,321.904 91.230,321.811 91.323 C 321.718 91.416,320.871 91.320,319.930 91.109 C 318.733 90.841,318.182 90.837,318.095 91.097 C 317.716 92.235,312.049 90.888,312.049 89.660 C 312.049 89.471,311.891 89.414,311.697 89.534 C 311.504 89.653,311.346 89.574,311.346 89.358 C 311.346 89.142,311.211 89.048,311.046 89.150 C 310.666 89.385,306.636 88.266,306.478 87.882 C 306.413 87.724,306.219 87.682,306.046 87.789 C 305.281 88.262,303.606 86.432,303.606 85.123 C 303.606 82.129,301.948 79.740,298.987 78.466 C 297.048 77.632,297.073 77.625,292.876 80.165 L 290.765 81.442 283.553 81.447 C 279.587 81.450,276.025 81.553,275.638 81.678 C 273.302 82.427,272.799 82.012,272.944 79.455 C 273.124 76.286,272.029 75.438,267.855 75.520 C 264.899 75.577,263.085 74.836,263.709 73.825 C 263.811 73.661,263.748 73.527,263.569 73.527 C 263.390 73.527,262.970 72.809,262.635 71.932 C 262.255 70.937,261.297 69.647,260.088 68.504 L 258.150 66.672 258.307 64.790 C 258.392 63.755,258.607 62.804,258.783 62.677 C 258.959 62.549,259.154 61.972,259.217 61.394 C 259.280 60.816,259.457 60.182,259.610 59.987 C 259.932 59.574,258.214 55.770,257.693 55.741 C 256.845 55.693,255.409 55.129,255.409 54.843 C 255.409 53.786,253.610 54.638,252.914 56.025 C 251.332 59.177,248.114 63.031,246.055 64.240 C 244.254 65.297,243.733 65.293,241.053 64.204 C 239.649 63.634,238.206 63.325,236.946 63.325 C 235.871 63.325,235.004 63.166,235.004 62.969 C 235.004 62.750,234.461 62.700,233.601 62.837 C 231.259 63.212,229.572 62.207,230.386 60.923 C 230.697 60.432,233.303 60.898,234.157 61.597 C 234.766 62.095,235.032 61.540,234.794 60.271 C 234.647 59.489,234.710 59.103,234.986 59.103 C 235.212 59.103,235.302 58.948,235.185 58.758 C 235.068 58.569,235.169 58.054,235.411 57.615 C 237.177 54.403,232.095 50.844,228.201 52.566 " stroke="none" fill="#bcbcbc" fill-rule="evenodd"></path><path id="path1" d="M233.245 52.343 C 233.245 52.495,233.760 52.919,234.389 53.287 L 235.532 53.955 234.653 53.017 C 233.772 52.078,233.245 51.825,233.245 52.343 M225.939 53.122 C 225.697 53.509,225.628 53.826,225.784 53.826 C 226.151 53.826,226.913 53.066,226.913 52.700 C 226.913 52.182,226.383 52.411,225.939 53.122 M208.261 56.393 L 208.430 58.223 208.547 56.680 C 208.612 55.832,208.535 55.008,208.378 54.850 C 208.220 54.693,208.168 55.387,208.261 56.393 M197.361 55.957 C 197.361 56.162,197.243 56.258,197.098 56.170 C 196.953 56.082,196.630 56.231,196.380 56.501 C 195.828 57.099,195.999 57.117,197.169 56.584 C 198.061 56.177,198.384 55.585,197.713 55.585 C 197.520 55.585,197.361 55.753,197.361 55.957 M220.618 58.927 C 219.802 59.798,218.959 60.510,218.743 60.510 C 218.528 60.510,218.435 60.593,218.537 60.694 C 218.916 61.074,219.883 60.399,221.115 58.896 C 222.756 56.893,222.511 56.908,220.618 58.927 M250.484 58.575 C 250.235 58.875,250.111 59.199,250.208 59.296 C 250.304 59.393,250.587 59.227,250.836 58.927 C 251.084 58.627,251.208 58.303,251.112 58.206 C 251.015 58.110,250.732 58.276,250.484 58.575 M232.190 62.404 C 232.190 62.716,233.613 62.880,233.793 62.588 C 233.902 62.413,233.585 62.269,233.090 62.269 C 232.595 62.269,232.190 62.330,232.190 62.404 M246.253 63.341 C 245.898 64.005,245.924 64.026,246.593 63.608 C 247.354 63.132,247.554 62.621,246.978 62.621 C 246.791 62.621,246.465 62.945,246.253 63.341 M182.234 67.701 C 182.234 67.980,182.417 68.321,182.640 68.459 C 182.884 68.610,182.951 68.556,182.809 68.326 C 182.678 68.114,182.851 67.778,183.194 67.578 C 183.755 67.252,183.738 67.215,183.026 67.205 C 182.566 67.199,182.234 67.407,182.234 67.701 M180.781 69.074 C 180.996 69.333,181.068 69.650,180.941 69.777 C 180.814 69.905,180.894 70.009,181.120 70.009 C 181.591 70.009,181.610 69.923,181.317 69.158 C 181.199 68.852,180.943 68.602,180.746 68.602 C 180.521 68.602,180.534 68.777,180.781 69.074 M261.390 69.227 C 261.390 69.377,261.706 69.772,262.093 70.103 C 262.922 70.813,263.049 70.311,262.244 69.506 C 261.632 68.894,261.390 68.815,261.390 69.227 M176.693 72.618 C 175.864 73.411,175.686 73.879,176.213 73.879 C 176.539 73.879,177.802 72.132,177.601 71.959 C 177.537 71.904,177.128 72.201,176.693 72.618 M183.289 73.429 C 183.289 73.872,184.295 74.749,184.531 74.513 C 184.625 74.420,184.383 74.056,183.995 73.705 C 183.607 73.353,183.289 73.229,183.289 73.429 M271.789 75.736 C 272.164 76.250,272.590 76.676,272.735 76.682 C 273.273 76.705,272.949 76.145,272.042 75.483 L 271.106 74.800 271.789 75.736 M118.206 77.485 C 118.206 77.630,119.578 77.748,121.255 77.748 C 122.932 77.748,124.210 77.655,124.097 77.541 C 123.787 77.232,118.206 77.178,118.206 77.485 M295.878 77.653 C 295.417 78.172,295.429 78.208,295.995 77.991 C 296.343 77.858,296.861 77.748,297.147 77.748 C 297.433 77.748,297.569 77.590,297.449 77.397 C 297.131 76.881,296.467 76.990,295.878 77.653 M280.035 80.915 L 278.804 81.174 280.123 81.220 C 280.849 81.246,281.442 81.108,281.442 80.915 C 281.442 80.721,281.403 80.584,281.354 80.609 C 281.306 80.635,280.712 80.772,280.035 80.915 M137.299 84.433 C 137.299 85.303,137.368 85.660,137.451 85.224 C 137.535 84.789,137.535 84.077,137.451 83.641 C 137.368 83.206,137.299 83.562,137.299 84.433 M52.078 84.689 C 51.617 85.208,51.630 85.244,52.195 85.027 C 52.543 84.894,52.894 84.785,52.975 84.785 C 53.056 84.785,53.122 84.626,53.122 84.433 C 53.122 83.915,52.666 84.027,52.078 84.689 M139.138 87.599 C 139.488 87.986,139.835 88.303,139.909 88.303 C 139.982 88.303,139.873 87.986,139.666 87.599 C 139.459 87.212,139.112 86.895,138.895 86.895 C 138.679 86.895,138.788 87.212,139.138 87.599 M45.031 87.927 C 45.031 88.107,44.702 88.359,44.301 88.487 C 43.899 88.614,43.641 88.789,43.727 88.876 C 43.959 89.107,45.734 88.239,45.734 87.894 C 45.734 87.732,45.576 87.599,45.383 87.599 C 45.189 87.599,45.031 87.747,45.031 87.927 M142.396 88.200 C 142.834 88.284,143.467 88.281,143.804 88.192 C 144.140 88.104,143.782 88.036,143.008 88.039 C 142.234 88.043,141.959 88.115,142.396 88.200 M31.359 95.369 C 30.903 95.739,30.665 96.037,30.832 96.031 C 31.261 96.015,32.521 95.024,32.340 94.845 C 32.258 94.763,31.816 94.999,31.359 95.369 M324.736 109.104 C 324.724 109.419,324.952 109.873,325.242 110.114 C 325.532 110.355,325.770 110.770,325.770 111.037 C 325.770 111.303,325.928 111.522,326.121 111.522 C 326.692 111.522,326.523 110.463,325.916 110.230 C 325.610 110.113,325.224 109.682,325.059 109.274 C 324.843 108.739,324.753 108.691,324.736 109.104 M25.032 122.111 C 24.385 122.700,23.949 123.274,24.063 123.388 C 24.312 123.637,25.614 122.508,26.078 121.640 C 26.523 120.808,26.408 120.860,25.032 122.111 M322.134 122.662 C 321.798 122.998,321.845 123.483,322.214 123.483 C 322.387 123.483,322.619 123.245,322.731 122.955 C 322.936 122.419,322.562 122.235,322.134 122.662 M315.919 127.986 C 315.048 128.848,314.653 129.388,315.040 129.187 C 315.854 128.763,317.875 126.714,317.652 126.538 C 317.570 126.473,316.790 127.125,315.919 127.986 M76.167 142.482 C 76.519 142.871,76.882 143.112,76.976 143.019 C 77.212 142.782,76.335 141.777,75.892 141.777 C 75.692 141.777,75.816 142.094,76.167 142.482 M321.392 142.910 C 320.727 143.860,320.668 144.468,321.304 143.825 C 321.780 143.343,322.339 142.128,322.085 142.128 C 322.005 142.128,321.693 142.480,321.392 142.910 M80.023 148.021 C 80.330 148.650,80.656 149.164,80.748 149.164 C 81.098 149.164,80.872 148.604,80.182 147.757 L 79.465 146.878 80.023 148.021 M357.610 152.685 C 357.961 153.073,358.325 153.314,358.418 153.221 C 358.654 152.984,357.777 151.979,357.334 151.979 C 357.134 151.979,357.258 152.296,357.610 152.685 M361.128 156.906 C 361.479 157.294,361.843 157.536,361.936 157.442 C 362.172 157.206,361.295 156.201,360.852 156.201 C 360.652 156.201,360.776 156.518,361.128 156.906 M368.060 165.888 C 367.473 166.554,368.005 166.553,368.886 165.886 C 369.401 165.497,369.439 165.370,369.041 165.372 C 368.751 165.373,368.310 165.606,368.060 165.888 M88.008 170.117 L 88.142 172.776 89.994 174.561 C 91.012 175.542,91.957 176.234,92.094 176.097 C 92.231 175.961,92.027 175.676,91.642 175.465 C 89.463 174.273,88.654 172.813,88.654 170.072 C 88.654 168.392,88.515 167.458,88.264 167.458 C 88.001 167.458,87.918 168.324,88.008 170.117 M363.085 171.571 C 363.165 172.484,363.715 173.259,363.740 172.492 C 363.753 172.068,363.606 171.624,363.412 171.504 C 363.219 171.384,363.072 171.415,363.085 171.571 M104.046 175.816 C 103.707 175.891,103.430 176.100,103.430 176.279 C 103.430 176.691,103.812 176.687,104.475 176.267 C 105.107 175.867,104.881 175.630,104.046 175.816 M111.961 178.271 C 112.880 178.343,114.384 178.343,115.303 178.271 C 116.223 178.198,115.471 178.139,113.632 178.139 C 111.794 178.139,111.042 178.198,111.961 178.271 M378.188 182.184 C 378.188 182.522,379.715 183.993,380.066 183.993 C 380.467 183.993,379.251 182.312,378.695 182.099 C 378.416 181.992,378.188 182.030,378.188 182.184 M382.293 196.892 C 381.922 197.263,382.020 199.120,382.410 199.120 C 382.603 199.120,382.762 198.566,382.762 197.889 C 382.762 196.624,382.697 196.488,382.293 196.892 M164.996 200.526 C 164.996 200.707,165.309 201.022,165.691 201.227 C 166.249 201.526,166.348 201.499,166.192 201.091 C 165.965 200.499,164.996 200.042,164.996 200.526 M167.810 203.795 C 167.810 204.297,168.650 205.805,168.930 205.805 C 169.097 205.805,168.961 205.369,168.628 204.837 C 167.838 203.574,167.810 203.538,167.810 203.795 M175.970 207.937 C 175.551 208.608,175.571 208.632,176.247 208.271 C 176.648 208.056,176.884 207.730,176.770 207.546 C 176.495 207.101,176.491 207.103,175.970 207.937 M361.111 211.105 C 360.984 211.312,360.935 211.515,361.003 211.557 C 361.070 211.598,361.442 211.857,361.829 212.132 C 362.328 212.485,362.413 212.495,362.121 212.165 C 361.894 211.909,361.792 211.481,361.895 211.215 C 362.112 210.647,361.452 210.555,361.111 211.105 M358.928 221.460 C 358.932 222.234,359.004 222.509,359.088 222.072 C 359.172 221.634,359.169 221.001,359.081 220.664 C 358.993 220.328,358.924 220.686,358.928 221.460 M229.025 221.810 C 228.571 222.293,228.280 222.768,228.378 222.866 C 228.475 222.964,228.978 222.569,229.496 221.988 C 230.626 220.719,230.201 220.559,229.025 221.810 M224.467 226.065 C 223.799 226.725,223.414 227.265,223.610 227.265 C 224.036 227.265,226.048 225.226,225.832 225.013 C 225.749 224.931,225.135 225.405,224.467 226.065 M335.447 225.726 L 334.842 226.650 335.748 225.990 C 336.664 225.322,336.934 224.802,336.364 224.802 C 336.193 224.802,335.780 225.218,335.447 225.726 M236.273 227.821 C 235.983 228.577,236.001 228.672,236.432 228.672 C 236.637 228.672,236.707 228.514,236.588 228.320 C 236.468 228.127,236.538 227.968,236.743 227.968 C 236.948 227.968,237.115 227.810,237.115 227.617 C 237.115 227.060,236.509 227.207,236.273 227.821 M171.260 233.861 C 170.969 234.200,170.616 234.714,170.476 235.004 C 170.335 235.295,170.473 235.215,170.782 234.828 C 171.091 234.442,171.608 233.927,171.931 233.685 C 172.254 233.443,172.354 233.245,172.153 233.245 C 171.953 233.245,171.551 233.522,171.260 233.861 M234.710 234.492 C 234.120 235.785,234.233 236.061,234.870 234.885 C 235.168 234.336,235.345 233.821,235.265 233.740 C 235.185 233.660,234.935 233.998,234.710 234.492 M329.836 236.951 C 329.460 237.235,329.311 237.467,329.505 237.467 C 329.698 237.467,330.164 237.235,330.540 236.951 C 330.915 236.666,331.064 236.434,330.871 236.434 C 330.677 236.434,330.212 236.666,329.836 236.951 M232.783 238.007 C 232.062 239.519,232.042 239.742,232.681 239.152 C 232.951 238.902,233.100 238.580,233.012 238.434 C 232.924 238.289,233.001 238.171,233.184 238.171 C 233.366 238.171,233.598 237.854,233.699 237.467 C 233.998 236.325,233.424 236.663,232.783 238.007 M183.289 243.096 C 183.289 243.289,183.527 243.448,183.817 243.448 C 184.107 243.448,184.345 243.289,184.345 243.096 C 184.345 242.902,184.107 242.744,183.817 242.744 C 183.527 242.744,183.289 242.902,183.289 243.096 M324.923 244.389 L 324.252 245.309 325.363 244.488 C 326.590 243.581,326.680 243.442,326.033 243.459 C 325.792 243.465,325.292 243.884,324.923 244.389 M322.121 253.225 C 322.024 253.381,322.252 253.700,322.626 253.934 C 323.426 254.434,323.522 254.167,322.802 253.446 C 322.524 253.168,322.217 253.069,322.121 253.225 M325.143 265.107 C 325.669 265.654,326.182 266.020,326.282 265.919 C 326.383 265.819,325.952 265.371,325.325 264.925 L 324.186 264.112 325.143 265.107 M252.849 265.637 C 253.279 266.085,253.719 266.363,253.827 266.255 C 253.935 266.147,253.583 265.780,253.045 265.441 L 252.067 264.823 252.849 265.637 M260.686 269.657 C 260.927 269.947,261.282 270.185,261.476 270.185 C 261.672 270.185,261.634 269.951,261.390 269.657 C 261.149 269.367,260.793 269.129,260.600 269.129 C 260.404 269.129,260.442 269.363,260.686 269.657 M264.622 274.428 C 264.706 274.682,264.984 274.959,265.237 275.044 C 265.501 275.132,265.633 275.000,265.545 274.736 C 265.461 274.482,265.184 274.205,264.930 274.120 C 264.666 274.033,264.534 274.164,264.622 274.428 M332.894 275.306 C 332.376 275.869,332.332 276.165,332.768 276.165 C 333.068 276.165,333.630 275.107,333.430 274.919 C 333.377 274.870,333.135 275.044,332.894 275.306 M278.276 278.052 C 278.276 278.149,278.751 278.566,279.332 278.980 C 279.912 279.393,280.387 279.652,280.387 279.555 C 280.387 279.459,279.912 279.041,279.332 278.628 C 278.751 278.215,278.276 277.956,278.276 278.052 M335.823 281.249 C 336.016 282.019,335.838 282.437,334.873 283.476 L 333.685 284.755 335.151 283.538 C 336.758 282.204,336.953 281.669,336.130 280.847 C 335.638 280.355,335.608 280.394,335.823 281.249 M292.755 292.153 C 293.180 293.084,294.212 293.734,293.876 292.858 C 293.768 292.578,293.539 292.348,293.366 292.348 C 293.193 292.348,293.052 292.111,293.052 291.821 C 293.052 291.530,292.897 291.293,292.708 291.293 C 292.496 291.293,292.515 291.625,292.755 292.153 " stroke="none" fill="#f3f3f3" fill-rule="evenodd"></path><path id="path2" d="M194.107 57.801 C 193.175 58.170,192.748 59.103,193.512 59.103 C 193.717 59.103,193.787 58.945,193.668 58.751 C 193.548 58.558,193.588 58.399,193.755 58.399 C 193.923 58.399,194.368 58.167,194.744 57.883 C 195.532 57.287,195.439 57.275,194.107 57.801 M236.412 62.973 C 236.412 63.166,236.728 63.325,237.115 63.325 C 237.502 63.325,237.819 63.166,237.819 62.973 C 237.819 62.779,237.502 62.621,237.115 62.621 C 236.728 62.621,236.412 62.779,236.412 62.973 M168.250 79.870 C 167.072 80.344,167.292 80.584,168.514 80.158 C 169.094 79.956,169.569 79.727,169.569 79.649 C 169.569 79.440,169.141 79.512,168.250 79.870 M277.573 80.915 C 277.573 81.108,277.810 81.266,278.100 81.266 C 278.391 81.266,278.628 81.108,278.628 80.915 C 278.628 80.721,278.391 80.563,278.100 80.563 C 277.810 80.563,277.573 80.721,277.573 80.915 M287.335 81.515 C 287.770 81.599,288.483 81.599,288.918 81.515 C 289.354 81.431,288.997 81.362,288.127 81.362 C 287.256 81.362,286.900 81.431,287.335 81.515 M303.695 84.960 C 303.699 85.734,303.771 86.010,303.855 85.572 C 303.939 85.134,303.936 84.501,303.848 84.165 C 303.760 83.828,303.691 84.186,303.695 84.960 M144.591 87.951 C 144.591 88.144,145.057 88.303,145.626 88.303 C 146.195 88.303,146.758 88.144,146.878 87.951 C 147.007 87.741,146.588 87.599,145.843 87.599 C 145.154 87.599,144.591 87.757,144.591 87.951 M363.764 161.460 C 363.764 161.913,369.967 161.972,370.245 161.522 C 370.349 161.353,368.934 161.187,367.100 161.153 C 364.966 161.113,363.764 161.224,363.764 161.460 M125.015 190.501 C 125.014 192.243,125.073 192.999,125.147 192.183 C 125.221 191.366,125.222 189.942,125.149 189.017 C 125.076 188.092,125.016 188.760,125.015 190.501 M378.540 191.557 C 378.540 191.847,378.698 192.084,378.892 192.084 C 379.085 192.084,379.244 191.847,379.244 191.557 C 379.244 191.266,379.085 191.029,378.892 191.029 C 378.698 191.029,378.540 191.266,378.540 191.557 M149.340 198.065 C 148.367 198.313,148.353 198.336,149.164 198.370 C 149.648 198.390,150.281 198.253,150.572 198.065 C 151.170 197.678,150.861 197.678,149.340 198.065 M342.877 217.693 C 342.783 217.846,343.248 217.907,343.912 217.830 C 344.576 217.752,345.119 217.627,345.119 217.552 C 345.119 217.287,343.048 217.417,342.877 217.693 M358.569 221.284 C 358.569 221.961,358.641 222.238,358.730 221.900 C 358.818 221.561,358.818 221.007,358.730 220.668 C 358.641 220.330,358.569 220.607,358.569 221.284 M331.480 233.245 C 331.480 233.923,331.552 234.200,331.641 233.861 C 331.729 233.522,331.729 232.968,331.641 232.630 C 331.552 232.291,331.480 232.568,331.480 233.245 M235.180 234.301 C 234.880 234.881,234.714 235.356,234.810 235.356 C 234.907 235.356,235.232 234.881,235.532 234.301 C 235.832 233.720,235.999 233.245,235.902 233.245 C 235.805 233.245,235.480 233.720,235.180 234.301 M238.611 249.956 C 238.615 250.730,238.687 251.005,238.771 250.568 C 238.855 250.130,238.852 249.497,238.764 249.160 C 238.676 248.824,238.607 249.182,238.611 249.956 M237.931 261.038 C 237.931 262.296,237.995 262.810,238.073 262.181 C 238.151 261.552,238.151 260.523,238.073 259.894 C 237.995 259.266,237.931 259.780,237.931 261.038 M239.104 264.644 C 239.194 264.789,240.278 264.908,241.513 264.908 C 242.748 264.908,243.831 264.789,243.921 264.644 C 244.011 264.499,242.927 264.380,241.513 264.380 C 240.099 264.380,239.015 264.499,239.104 264.644 M308.355 297.625 L 306.948 297.877 308.247 297.927 C 308.961 297.955,309.643 297.819,309.763 297.625 C 309.882 297.432,309.931 297.296,309.871 297.323 C 309.811 297.351,309.129 297.487,308.355 297.625 " stroke="none" fill="#dcdcdc" fill-rule="evenodd"></path><path id="path3" d="M223.090 56.578 C 221.026 58.937,220.899 59.164,222.510 57.620 C 223.462 56.708,224.167 55.888,224.077 55.798 C 223.988 55.709,223.544 56.059,223.090 56.578 M195.075 64.732 C 196.028 65.699,196.886 66.491,196.983 66.491 C 197.080 66.491,196.379 65.699,195.427 64.732 C 194.474 63.764,193.615 62.973,193.518 62.973 C 193.421 62.973,194.122 63.764,195.075 64.732 M119.701 77.301 C 120.427 77.377,121.614 77.377,122.339 77.301 C 123.065 77.225,122.471 77.163,121.020 77.163 C 119.569 77.163,118.975 77.225,119.701 77.301 M301.596 79.595 C 301.919 79.837,302.436 80.352,302.745 80.739 C 303.054 81.126,303.191 81.205,303.051 80.915 C 302.643 80.071,301.769 79.156,301.373 79.156 C 301.173 79.156,301.273 79.354,301.596 79.595 M291.909 79.997 C 291.570 80.254,291.293 80.590,291.293 80.744 C 291.293 80.898,291.570 80.782,291.909 80.487 C 292.247 80.192,292.762 79.864,293.052 79.757 C 293.521 79.585,293.521 79.561,293.052 79.546 C 292.762 79.537,292.247 79.740,291.909 79.997 M278.628 80.844 C 278.628 80.999,279.182 81.061,279.859 80.981 C 280.536 80.902,281.091 80.776,281.091 80.700 C 281.091 80.625,280.536 80.563,279.859 80.563 C 279.182 80.563,278.628 80.689,278.628 80.844 M141.777 87.738 C 141.777 87.814,142.410 87.937,143.184 88.011 C 143.958 88.085,144.591 88.022,144.591 87.872 C 144.591 87.722,143.958 87.599,143.184 87.599 C 142.410 87.599,141.777 87.661,141.777 87.738 M319.405 90.792 C 319.044 91.021,319.173 91.108,319.877 91.112 C 320.927 91.117,321.117 90.945,320.373 90.659 C 320.113 90.560,319.678 90.620,319.405 90.792 M313.838 90.891 C 314.210 91.212,316.623 91.388,316.623 91.095 C 316.623 90.914,315.963 90.765,315.157 90.765 C 314.351 90.765,313.757 90.822,313.838 90.891 M330.343 98.967 C 330.343 99.027,330.858 99.542,331.486 100.110 L 332.630 101.143 331.596 100.000 C 330.633 98.934,330.343 98.695,330.343 98.967 M323.129 121.374 C 322.778 121.762,322.574 122.163,322.675 122.265 C 322.777 122.366,323.122 122.049,323.443 121.559 C 324.144 120.489,324.005 120.407,323.129 121.374 M311.648 131.896 C 311.192 132.266,310.897 132.641,310.994 132.730 C 311.091 132.818,311.562 132.515,312.042 132.056 C 313.087 131.057,312.818 130.947,311.648 131.896 M41.161 147.054 C 41.368 147.441,41.715 147.757,41.931 147.757 C 42.148 147.757,42.039 147.441,41.689 147.054 C 41.338 146.667,40.992 146.350,40.918 146.350 C 40.845 146.350,40.954 146.667,41.161 147.054 M278.276 277.712 C 278.276 277.803,278.791 278.237,279.420 278.678 C 280.231 279.247,280.418 279.300,280.064 278.859 C 279.561 278.232,278.276 277.408,278.276 277.712 M317.678 295.866 C 317.678 296.060,318.153 296.218,318.734 296.218 C 319.314 296.218,319.789 296.060,319.789 295.866 C 319.789 295.673,319.314 295.515,318.734 295.515 C 318.153 295.515,317.678 295.673,317.678 295.866 " stroke="none" fill="#e4e4e4" fill-rule="evenodd"></path><path id="path4" d="M204.749 54.529 C 204.025 54.762,203.994 54.816,204.573 54.841 C 204.960 54.857,205.515 54.717,205.805 54.529 C 206.421 54.131,205.993 54.131,204.749 54.529 M224.913 54.617 C 223.607 56.648,223.633 57.141,224.954 55.409 C 225.471 54.732,225.736 54.178,225.544 54.178 C 225.352 54.178,225.068 54.376,224.913 54.617 M195.866 57.193 C 194.551 57.907,194.631 58.204,195.954 57.520 C 196.535 57.220,197.010 56.899,197.010 56.807 C 197.010 56.581,196.972 56.594,195.866 57.193 M234.828 61.052 C 234.828 61.523,235.037 61.989,235.291 62.087 C 235.627 62.216,235.689 62.049,235.516 61.475 C 235.157 60.289,234.828 60.086,234.828 61.052 M219.421 60.731 C 219.300 60.853,218.284 61.081,217.164 61.238 L 215.128 61.524 217.163 61.427 C 218.282 61.373,219.382 61.145,219.608 60.920 C 219.833 60.695,219.933 60.510,219.830 60.510 C 219.727 60.510,219.543 60.610,219.421 60.731 M230.431 60.774 C 230.431 60.919,230.851 61.062,231.365 61.092 C 232.032 61.131,232.157 61.057,231.804 60.833 C 231.198 60.450,230.431 60.417,230.431 60.774 M211.785 61.204 C 211.180 61.371,211.545 61.457,212.959 61.478 C 214.088 61.495,214.959 61.465,214.894 61.412 C 214.546 61.127,212.547 60.993,211.785 61.204 M235.004 62.973 C 235.004 63.166,235.321 63.325,235.708 63.325 C 236.095 63.325,236.412 63.166,236.412 62.973 C 236.412 62.779,236.095 62.621,235.708 62.621 C 235.321 62.621,235.004 62.779,235.004 62.973 M185.048 67.972 C 185.145 68.067,185.775 68.331,186.448 68.559 C 187.120 68.786,187.516 68.821,187.327 68.636 C 187.138 68.451,186.508 68.187,185.928 68.049 C 185.347 67.912,184.952 67.877,185.048 67.972 M259.631 68.000 C 259.631 68.065,260.116 68.583,260.708 69.151 C 261.341 69.757,261.692 69.938,261.558 69.590 C 261.365 69.085,259.631 67.655,259.631 68.000 M178.529 68.777 C 178.438 69.068,178.287 69.551,178.192 69.851 C 178.098 70.151,178.158 70.312,178.326 70.208 C 178.494 70.104,178.708 69.621,178.801 69.134 C 178.985 68.173,178.795 67.924,178.529 68.777 M196.658 68.953 C 196.658 69.147,196.420 69.305,196.130 69.305 C 195.840 69.305,195.602 69.469,195.602 69.669 C 195.602 69.916,195.829 69.912,196.306 69.657 C 196.932 69.322,197.292 68.602,196.834 68.602 C 196.737 68.602,196.658 68.760,196.658 68.953 M190.677 69.657 C 190.677 69.850,191.003 70.009,191.402 70.009 C 191.800 70.009,192.028 69.850,191.909 69.657 C 191.789 69.464,191.463 69.305,191.184 69.305 C 190.905 69.305,190.677 69.464,190.677 69.657 M96.874 73.115 L 96.825 75.462 97.139 73.586 C 97.311 72.554,97.333 71.498,97.187 71.239 C 97.041 70.980,96.900 71.824,96.874 73.115 M181.415 71.718 C 181.510 72.079,182.550 73.306,183.728 74.445 L 185.868 76.517 184.139 74.499 C 183.188 73.389,182.291 72.478,182.146 72.476 C 182.001 72.473,181.882 72.243,181.882 71.964 C 181.882 71.686,181.739 71.369,181.563 71.260 C 181.388 71.152,181.321 71.358,181.415 71.718 M175.162 75.022 L 174.374 76.165 175.490 75.132 C 176.692 74.018,176.780 73.879,176.277 73.879 C 176.097 73.879,175.595 74.393,175.162 75.022 M185.477 75.122 C 186.004 75.675,186.497 76.057,186.574 75.971 C 186.652 75.884,186.221 75.431,185.618 74.964 L 184.521 74.115 185.477 75.122 M268.777 75.305 L 267.194 75.571 269.003 75.516 C 270.354 75.476,271.022 75.639,271.642 76.163 L 272.471 76.864 271.619 75.899 C 271.149 75.368,270.675 74.958,270.563 74.987 C 270.452 75.016,269.648 75.159,268.777 75.305 M96.862 78.599 C 96.992 78.937,97.098 79.359,97.098 79.536 C 97.098 79.714,97.241 79.859,97.416 79.859 C 97.826 79.859,97.482 78.514,96.995 78.213 C 96.763 78.070,96.714 78.213,96.862 78.599 M301.891 80.387 C 302.399 80.967,302.901 81.680,303.007 81.970 C 303.172 82.425,303.202 82.422,303.226 81.948 C 303.242 81.646,302.740 80.933,302.111 80.365 L 300.967 79.332 301.891 80.387 M284.877 81.515 C 285.314 81.599,285.947 81.596,286.284 81.508 C 286.620 81.420,286.262 81.351,285.488 81.355 C 284.714 81.359,284.439 81.431,284.877 81.515 M55.497 83.268 C 55.158 83.357,54.881 83.581,54.881 83.767 C 54.881 83.962,55.217 83.931,55.673 83.694 C 56.992 83.007,56.944 82.890,55.497 83.268 M50.484 85.840 C 49.710 86.198,49.200 86.503,49.352 86.517 C 49.768 86.557,52.067 85.552,52.067 85.330 C 52.067 85.092,52.175 85.057,50.484 85.840 M147.322 88.200 C 147.759 88.284,148.392 88.281,148.729 88.192 C 149.065 88.104,148.707 88.036,147.933 88.039 C 147.159 88.043,146.884 88.115,147.322 88.200 M44.239 88.856 C 42.875 89.596,43.030 89.851,44.415 89.146 C 45.741 88.472,45.976 88.297,45.529 88.317 C 45.352 88.324,44.771 88.567,44.239 88.856 M323.307 92.282 C 323.307 92.343,323.821 92.858,324.450 93.426 L 325.594 94.459 324.560 93.316 C 323.597 92.250,323.307 92.011,323.307 92.282 M328.408 94.283 C 328.281 94.488,328.639 94.635,329.267 94.635 C 329.859 94.635,330.343 94.477,330.343 94.283 C 330.343 94.090,329.957 93.931,329.484 93.931 C 329.012 93.931,328.528 94.090,328.408 94.283 M21.812 113.824 C 21.812 114.308,25.039 117.558,25.281 117.316 C 25.386 117.211,24.649 116.302,23.642 115.295 C 22.635 114.288,21.812 113.626,21.812 113.824 M26.557 120.701 C 26.698 121.074,26.283 121.700,25.315 122.575 C 24.515 123.298,23.924 123.953,24.001 124.031 C 24.079 124.108,24.838 123.463,25.687 122.597 C 26.930 121.331,27.145 120.937,26.788 120.582 C 26.431 120.228,26.385 120.251,26.557 120.701 M321.017 123.840 C 320.880 124.062,320.270 124.560,319.663 124.946 C 318.695 125.561,318.667 125.618,319.437 125.408 C 320.434 125.136,321.792 123.962,321.476 123.645 C 321.361 123.530,321.154 123.618,321.017 123.840 M312.734 130.614 C 311.853 131.432,311.467 131.825,311.877 131.486 C 312.287 131.148,312.770 130.866,312.951 130.860 C 313.132 130.854,313.565 130.458,313.913 129.980 C 314.781 128.787,314.591 128.890,312.734 130.614 M26.590 135.092 C 26.851 136.072,27.018 136.336,27.236 136.118 C 27.317 136.037,27.152 135.575,26.869 135.092 L 26.356 134.213 26.590 135.092 M315.215 138.563 C 316.072 139.073,317.554 139.444,317.150 139.047 C 316.957 138.857,316.324 138.599,315.743 138.475 C 315.054 138.327,314.871 138.358,315.215 138.563 M37.614 141.898 C 38.117 142.524,39.402 143.348,39.402 143.044 C 39.402 142.954,38.887 142.519,38.259 142.078 C 37.447 141.509,37.260 141.457,37.614 141.898 M322.691 142.723 C 323.030 142.811,323.584 142.811,323.923 142.723 C 324.261 142.634,323.984 142.562,323.307 142.562 C 322.630 142.562,322.353 142.634,322.691 142.723 M57.696 146.174 C 57.039 146.851,56.664 147.405,56.862 147.405 C 57.223 147.405,58.430 146.204,58.895 145.383 C 59.315 144.642,58.944 144.886,57.696 146.174 M347.159 146.772 C 347.391 147.004,347.581 147.779,347.581 148.494 C 347.581 149.407,347.764 149.862,348.197 150.027 C 348.691 150.215,348.726 150.174,348.373 149.819 C 348.131 149.575,347.933 148.695,347.933 147.863 C 347.933 146.674,347.805 146.350,347.335 146.350 C 346.870 146.350,346.831 146.444,347.159 146.772 M44.503 149.164 C 44.890 149.331,45.444 149.467,45.734 149.467 C 46.067 149.467,46.002 149.355,45.558 149.164 C 45.172 148.998,44.617 148.862,44.327 148.862 C 43.995 148.862,44.060 148.974,44.503 149.164 M51.011 151.627 C 51.011 151.821,51.486 151.979,52.067 151.979 C 52.647 151.979,53.122 151.821,53.122 151.627 C 53.122 151.434,52.647 151.275,52.067 151.275 C 51.486 151.275,51.011 151.434,51.011 151.627 M85.991 160.598 C 86.129 161.179,86.393 161.808,86.578 161.997 C 86.763 162.186,86.728 161.791,86.501 161.118 C 85.968 159.542,85.668 159.237,85.991 160.598 M86.793 163.237 C 86.895 163.624,87.102 163.940,87.255 163.940 C 87.408 163.940,87.450 163.624,87.349 163.237 C 87.248 162.850,87.040 162.533,86.887 162.533 C 86.734 162.533,86.692 162.850,86.793 163.237 M365.347 167.313 L 364.292 168.220 365.435 167.463 C 366.064 167.047,366.579 166.638,366.579 166.555 C 366.579 166.291,366.430 166.383,365.347 167.313 M90.237 174.142 C 90.993 174.916,91.691 175.550,91.787 175.550 C 91.884 175.550,91.345 174.916,90.589 174.142 C 89.834 173.369,89.136 172.735,89.039 172.735 C 88.943 172.735,89.482 173.369,90.237 174.142 M369.217 177.145 C 368.333 177.571,368.305 177.619,369.041 177.442 C 369.525 177.325,370.071 177.089,370.255 176.917 C 370.711 176.491,370.461 176.546,369.217 177.145 M110.394 177.719 C 110.678 177.987,117.888 178.280,117.622 178.012 C 117.525 177.916,115.804 177.757,113.797 177.661 C 111.789 177.564,110.258 177.590,110.394 177.719 M122.603 180.827 C 122.954 181.214,123.300 181.530,123.374 181.530 C 123.447 181.530,123.338 181.214,123.131 180.827 C 122.924 180.440,122.577 180.123,122.361 180.123 C 122.144 180.123,122.253 180.440,122.603 180.827 M379.023 183.530 C 379.793 184.383,379.997 184.902,379.878 185.710 C 379.793 186.293,379.852 186.690,380.011 186.592 C 380.724 186.152,380.259 184.440,379.156 183.443 L 378.012 182.410 379.023 183.530 M125.369 191.029 C 125.369 192.867,125.428 193.619,125.500 192.700 C 125.573 191.781,125.573 190.277,125.500 189.358 C 125.428 188.439,125.369 189.191,125.369 191.029 M125.267 195.142 C 125.346 196.055,125.896 196.830,125.921 196.063 C 125.934 195.639,125.787 195.194,125.594 195.075 C 125.400 194.955,125.253 194.985,125.267 195.142 M135.714 195.154 C 136.347 195.232,137.296 195.231,137.825 195.150 C 138.354 195.070,137.836 195.006,136.675 195.008 C 135.515 195.010,135.082 195.076,135.714 195.154 M141.601 195.416 C 142.762 195.668,143.766 195.824,143.832 195.764 C 144.047 195.569,141.277 194.902,140.369 194.930 C 139.886 194.945,140.440 195.164,141.601 195.416 M160.712 197.276 C 161.935 198.828,162.412 199.232,163.157 199.345 C 163.711 199.429,162.423 198.024,160.774 196.747 L 159.543 195.793 160.712 197.276 M148.549 197.956 C 148.887 198.044,149.442 198.044,149.780 197.956 C 150.119 197.867,149.842 197.795,149.164 197.795 C 148.487 197.795,148.210 197.867,148.549 197.956 M172.049 204.905 C 171.809 205.193,171.695 205.633,171.795 205.881 C 171.914 206.177,171.986 206.130,172.004 205.746 C 172.019 205.424,172.230 205.089,172.471 205.003 C 172.713 204.916,172.815 204.741,172.697 204.613 C 172.580 204.485,172.288 204.617,172.049 204.905 M174.524 204.856 C 174.604 204.914,175.145 205.240,175.726 205.580 L 176.781 206.198 175.950 205.474 C 175.494 205.075,174.953 204.749,174.748 204.749 C 174.544 204.749,174.443 204.797,174.524 204.856 M175.726 208.826 L 174.670 209.733 175.814 208.976 C 176.442 208.560,176.957 208.151,176.957 208.068 C 176.957 207.804,176.808 207.896,175.726 208.826 M363.965 208.592 C 363.293 209.335,363.545 209.562,364.423 209.006 C 364.688 208.838,364.843 208.512,364.766 208.281 C 364.675 208.010,364.392 208.120,363.965 208.592 M171.309 215.567 C 170.595 217.521,170.577 217.597,170.907 217.238 C 171.293 216.821,172.068 214.600,171.829 214.600 C 171.737 214.600,171.503 215.035,171.309 215.567 M231.320 219.368 C 230.442 220.070,230.398 220.171,231.045 220.002 C 231.469 219.891,232.001 219.577,232.229 219.303 C 232.933 218.454,232.418 218.491,231.320 219.368 M355.493 219.210 C 355.878 219.674,356.234 220.119,356.285 220.199 C 356.335 220.280,356.376 220.088,356.376 219.772 C 356.376 219.456,356.020 219.011,355.585 218.783 L 354.793 218.367 355.493 219.210 M237.467 219.882 C 237.092 220.128,237.269 220.164,238.082 220.008 C 238.817 219.867,239.444 219.962,239.841 220.273 C 240.400 220.711,240.412 220.699,239.975 220.141 C 239.443 219.463,238.288 219.344,237.467 219.882 M340.671 222.620 C 340.451 222.972,339.605 223.460,338.791 223.704 C 337.977 223.948,337.372 224.209,337.447 224.284 C 338.004 224.840,341.439 223.086,341.199 222.367 C 341.128 222.151,340.894 222.263,340.671 222.620 M334.545 226.473 C 333.831 228.427,333.813 228.503,334.144 228.144 C 334.530 227.726,335.305 225.506,335.065 225.506 C 334.974 225.506,334.740 225.941,334.545 226.473 M221.654 228.981 C 221.333 229.754,221.325 230.201,221.619 230.751 C 222.159 231.760,222.413 231.682,221.944 230.651 C 221.665 230.040,221.675 229.608,221.980 229.038 C 222.209 228.610,222.326 228.189,222.239 228.103 C 222.153 228.016,221.890 228.411,221.654 228.981 M332.075 231.398 L 331.223 232.366 332.102 231.619 C 332.586 231.208,333.219 230.786,333.509 230.679 C 333.961 230.514,333.957 230.483,333.483 230.459 C 333.178 230.443,332.544 230.866,332.075 231.398 M221.420 235.268 C 221.314 235.607,221.069 236.280,220.877 236.763 C 220.624 237.399,220.633 237.539,220.912 237.267 C 221.319 236.870,222.052 234.653,221.776 234.653 C 221.687 234.653,221.527 234.930,221.420 235.268 M328.115 237.350 C 327.795 237.670,327.817 239.497,328.144 239.699 C 328.289 239.789,328.408 239.244,328.408 238.489 C 328.408 237.733,328.395 237.115,328.379 237.115 C 328.363 237.115,328.244 237.221,328.115 237.350 M213.017 241.318 C 212.243 241.684,211.709 241.996,211.830 242.012 C 212.172 242.056,214.600 240.997,214.600 240.804 C 214.600 240.569,214.599 240.569,213.017 241.318 M205.804 244.371 L 204.925 244.884 205.805 244.650 C 206.785 244.389,207.049 244.223,206.830 244.004 C 206.749 243.923,206.288 244.088,205.804 244.371 M198.698 246.684 C 199.027 247.013,199.214 247.013,199.543 246.684 C 199.871 246.356,199.777 246.262,199.120 246.262 C 198.464 246.262,198.370 246.356,198.698 246.684 M238.800 249.433 C 238.882 249.995,238.696 251.201,238.385 252.112 C 238.075 253.024,237.882 253.830,237.956 253.905 C 238.031 253.979,238.347 253.291,238.659 252.375 C 239.273 250.573,239.398 248.873,238.938 248.588 C 238.779 248.490,238.717 248.870,238.800 249.433 M320.017 251.621 C 319.904 252.053,319.926 252.520,320.064 252.658 C 320.203 252.796,320.350 252.442,320.390 251.872 C 320.478 250.642,320.304 250.525,320.017 251.621 M240.186 264.458 C 240.810 264.536,241.918 264.537,242.648 264.461 C 243.378 264.385,242.867 264.321,241.513 264.319 C 240.158 264.318,239.561 264.380,240.186 264.458 M253.299 265.435 C 253.782 266.016,254.217 266.557,254.266 266.637 C 254.314 266.718,254.431 266.706,254.526 266.612 C 254.621 266.517,254.186 265.976,253.560 265.410 L 252.421 264.380 253.299 265.435 M266.315 274.943 C 266.315 275.191,269.129 276.988,269.275 276.832 C 269.348 276.756,268.711 276.264,267.861 275.739 C 267.011 275.214,266.315 274.856,266.315 274.943 M272.823 276.354 C 271.430 276.837,271.428 276.839,272.647 276.639 C 273.325 276.528,274.116 276.301,274.406 276.136 C 275.181 275.694,274.433 275.798,272.823 276.354 M277.298 276.510 C 277.537 276.894,277.970 277.298,278.260 277.409 C 278.550 277.521,278.407 277.207,277.943 276.713 C 276.930 275.635,276.708 275.565,277.298 276.510 M279.771 282.027 C 279.275 282.227,279.160 284.257,279.645 284.257 C 279.817 284.257,280.023 283.703,280.102 283.026 C 280.181 282.348,280.238 281.807,280.228 281.822 C 280.219 281.837,280.013 281.930,279.771 282.027 M291.645 289.534 C 292.058 290.114,292.475 290.589,292.572 290.589 C 292.669 290.589,292.410 290.114,291.996 289.534 C 291.583 288.953,291.166 288.478,291.069 288.478 C 290.972 288.478,291.231 288.953,291.645 289.534 M309.587 296.863 C 309.587 297.102,308.962 297.298,308.091 297.333 L 306.596 297.392 307.962 297.533 C 309.274 297.668,310.328 297.194,309.827 296.693 C 309.695 296.561,309.587 296.637,309.587 296.863 " stroke="none" fill="#d4d4d4" fill-rule="evenodd"></path></g></svg>