<?xml version="1.0" encoding="utf-8"?>
<!-- Generator: Adobe Illustrator 28.2.0, SVG Export Plug-In . SVG Version: 6.00 Build 0)  -->
<svg version="1.1" xmlns="http://www.w3.org/2000/svg" xmlns:xlink="http://www.w3.org/1999/xlink" x="0px" y="0px"
	 viewBox="0 0 512 512" style="enable-background:new 0 0 512 512;" xml:space="preserve">
<style type="text/css">
	.st0{fill:#FFFFFF;}
</style>
<g id="Layer_1">
</g>
<g id="Layer_2">
	<path class="st0" d="M151.03,343.39c0,0,2.23-0.42,2.47-0.66c0.24-0.24,0.84-1.08,1.08-1.26c0.24-0.18,0.72-3.07,0.84-3.55
		c0.12-0.48,0.12-2.53,0.36-3.07c0.24-0.54,0.42-1.14,0.6-1.99c0.18-0.84-0.42-1.02,0-1.51c0.42-0.48,0.42-1.14,0.72-1.63
		c0.3-0.48,0.12-0.66,0.6-1.08c0.48-0.42,0.72-0.54,1.2-1.02c0.48-0.48,0.78-1.14,1.14-1.81c0.36-0.66,0.54-1.26,0.72-1.69
		c0.18-0.42,0.72-1.26,1.14-2.05c0.42-0.78,2.05-2.65,2.29-3.01c0.24-0.36,0.42-0.84,0.78-1.57c0.36-0.72,0.6-1.38,1.26-2.11
		c0.66-0.72,1.2-1.63,1.2-1.63s0.48-0.42,0.48,0s0.24,0.54-0.18,1.51c-0.42,0.96-0.36,0.6-0.84,1.51c-0.48,0.9-0.84,1.57-1.14,1.69
		c-0.3,0.12-1.99,1.57-1.99,1.57s-0.9,1.26-1.02,1.93c-0.12,0.66-0.3,1.69-0.3,2.17c0,0.48-0.24,0.6-0.06,1.57
		c0.18,0.96-0.06,1.38,0.12,2.35s0.06,1.2,0.48,1.44s1.02,0.84,1.38,1.38c0.36,0.54,0.48,0.9,0.84,1.75
		c0.36,0.84,0.54,1.75,0.84,2.35s0.42,0.72,0.36,1.57c-0.06,0.84,0,0.9-0.42,1.69s-0.54,1.2-1.02,1.51c-0.48,0.3-1.44,0.06-2.11,0.6
		c-0.66,0.54-1.75,1.14-1.93,1.69c-0.18,0.54-0.48,0.66-0.42,1.38c0.06,0.72-0.12,0.66,0.06,1.51c0.18,0.84,0.24,1.51,0.42,2.05
		c0.18,0.54,0.36,1.02,0.42,1.44c0.06,0.42,0.36,0.66-0.48,0.66c-0.84,0-1.81-0.72-1.81-0.72l-1.81-1.02c0,0-1.44,0.06-1.63,0.54
		s-0.72,0.6-0.54,1.2c0.18,0.6,0.6,1.32,1.02,1.81c0.42,0.48,0.84,0.54,0.06,0.6s-4.15-0.96-4.15-0.96s-1.02-0.42-1.08-0.84
		c-0.06-0.42,0.36-1.57,0.36-1.57l-2.71-0.66c0,0-0.78-0.24-1.38,0.12c-0.6,0.36-1.32,0.66-1.75,0.96c-0.42,0.3-1.69,0.36-1.69,0.36
		s-0.42-0.24-0.3,0.54c0.12,0.78,0.24,1.26,0.84,2.35c0.6,1.08,1.44,1.51,1.93,2.59s0.6,1.14,0.6,1.44c0,0.3-0.72,0-0.36,0.9
		c0.36,0.9,0.9,1.69,1.2,2.17c0.3,0.48,0.54,0.66,0.96,1.57c0.42,0.9,0.54,0.96,0.6,1.51c0.06,0.54,0.12,0.36-0.18,1.32
		s-0.6,0.72-0.96,2.05c-0.36,1.32,0.24,0.66-0.48,2.23c-0.72,1.57-1.2,2.05-1.57,2.71s-0.78,0.78-0.9,1.44s-1.26,1.08,0.42,1.08
		c1.69,0,3.19-0.42,4.58-1.08c1.38-0.66,1.57-1.08,3.19-1.08s0.77,0.12,2.34,0.24c1.57,0.12,3.02-0.12,3.44-0.24
		c0.42-0.12,0.84-0.48,1.99-0.9s0.9-0.24,2.47-0.96c1.57-0.72,1.08-0.3,2.53-1.26c1.44-0.96,1.75-1.2,2.41-2.11
		c0.66-0.9,0.54-2.11,1.57-2.05c1.02,0.06,0.66,0.36,2.77,0.72s2.71,0.42,3.73,0.48c1.02,0.06,3.01,0.06,3.01,0.06
		s-0.24-2.83,0-2.83s0.78-0.24,1.75,1.14c0.96,1.38,1.2,1.69,1.51,2.77c0.3,1.08,0.24,1.75,0.9,2.83c0.66,1.08,1.26,2.53,1.38,2.71
		c0.12,0.18,0.36,0,0.9,0.6c0.54,0.6,1.02,0.84,0.84,1.14c-0.18,0.3-2.11,0.66-2.41,0.48c-0.3-0.18-2.41-1.02-2.77-0.78
		c-0.36,0.24-1.44,0.54-1.99,1.08c-0.54,0.54-1.93,0.6-2.35,1.08c-0.42,0.48-0.96,0.72-0.96,0.72l0.66,0.96c0,0,0.12,0.78,0.24,1.51
		c0.12,0.72,0.06,1.69,0.36,2.71s0.36,1.51,0.6,2.23c0.24,0.72,0.24,1.51,0.36,2.35c0.12,0.84,0.12,1.57,0.12,3.01
		s-0.48,1.81-0.24,3.31c0.24,1.51,0.3,0.78,0.18,3.31s-0.3,2.59-0.42,3.61s-2.41,0.48-2.65,2.89c-0.24,2.41,0,1.44-0.72,4.33
		c-0.72,2.89-1.2,3.61-1.44,5.06c-0.24,1.44-0.24,1.2-1.2,2.65c-0.96,1.44-0.96,1.44-0.96,1.44s-1.69,0.24-1.2,1.2
		s0.96,1.93,1.69,2.41c0.72,0.48,0.48-0.96,1.69,0s2.41,1.69,2.41,1.69s0.72-1.2,1.2,0s0.72,2.41,0.72,3.85s-0.24,1.44-0.48,3.13
		c-0.24,1.69,0,1.44-0.24,2.89s0,1.44-0.24,2.89c-0.24,1.44-0.24,3.37-0.24,3.37s-0.24,0.96-0.24,2.41s0.24,1.93,0.24,2.65
		s0.24,1.44,0,2.65c-0.24,1.2-0.48,3.61-0.48,4.58s-0.24,2.41-0.24,4.09s0,3.13,0,3.13s0.24,1.93,0.48,3.13
		c0.24,1.2-0.24,3.13-0.24,5.06c0,1.93-0.48,2.17-0.72,4.33c-0.24,2.17-0.48,4.09-0.48,4.82c0,0.72-0.48,1.93-0.96,3.61
		c-0.48,1.69-1.44,2.89-1.93,3.61c-0.48,0.72-1.2,3.61-1.2,3.61v1.69c0,0-0.72,1.69-0.96,2.41c-0.24,0.72-1.44,2.89-1.69,3.85
		c-0.24,0.96-0.96,1.93-0.96,2.89c0,0.96-2.09,2.89-2.01,4.33s-0.4,1.93-1.12,3.13s-1.93,2.17-1.93,2.89s-0.24,1.93-0.24,1.93
		s-1.37,1.93,3.29,0c4.66-1.93,12.84-5.54,12.84-5.54s0.48,0.24,3.13,0c2.65-0.24,5.74-0.48,5.76-0.72
		c0.02-0.24,0.02-0.24,0.02-0.24l1.2-2.89c0,0,1.93-0.72,3.37-0.96s1.93-0.96,2.89-0.72c0.96,0.24,3.37,0.48,3.37,0.48
		s-1.2,1.2,0,1.2s1.44-1.2,2.65-0.72c1.2,0.48,1.44,1.44,4.09,2.17c2.65,0.72,4.33,1.2,6.02,1.2c1.69,0,3.85,0,5.3,0
		s1.2-0.24,3.85-0.48s2.65-0.72,5.06-0.24c2.41,0.48,4.58,0.24,5.3,0.96c0.72,0.72,2.41,2.41,2.89,3.85
		c0.48,1.44,0.41,0.59,1.08,0.93c0.68,0.34,1.26,1.22,2.17,1.63c0.9,0.41,1.44,0.94,2.08,0.95s1.67-0.4,2.39-0.47
		c0.72-0.07,1.67-0.07,2.14-0.07s0.59-0.54,0.84,0.02c0.25,0.56,0.45,0.72,0.29,0.81c-0.16,0.09-0.84,0.14-1.13,0.14
		s-0.61-0.23-0.99,0.05c-0.38,0.27-0.81,0.18-0.7,0.61c0.11,0.43-0.32,0.41,0.52,1.02c0.84,0.61,0.97,0.77,1.92,1.17
		s1.72,0.77,2.51,0.72c0.79-0.05,1.38,0.05,1.42-0.5c0.05-0.54-0.02-1.26-0.54-1.63s-1.72-1.06-1.63-1.02
		c0.09,0.05,2.64,1.11,2.64,1.11s0.97-0.7,0.95-0.9c-0.02-0.2-0.11-0.2-0.34-0.68c-0.23-0.47-0.65-1.04-0.23-1.17
		c0.43-0.14,1.35-0.02,1.99-0.09c0.63-0.07,1.92-0.45,1.92-0.45s6.22-1.57,6.95-2.66s2.05-2.65,3.61-3.85s4.09-3.85,4.82-4.33
		c0.72-0.48,1.69-2.17,3.73-2.29c2.05-0.12,3.85-0.48,5.42-0.84s3.25-0.12,4.82-0.36s2.05-0.24,2.05-0.24s-0.36-4.33-0.84-5.54
		c-0.48-1.2-1.08-1.93-1.32-3.01c-0.24-1.08-0.36-1.08-0.48-2.41c-0.12-1.32-0.72-2.29-1.08-2.77c-0.36-0.48-0.84-2.89-0.84-4.33
		c0-1.44-0.12-2.77-0.12-4.09c0-1.32,0.24-2.17-0.12-2.41c-0.36-0.24-0.36-1.08-0.48-2.53c-0.12-1.44-1.08-1.57-1.32-3.13
		c-0.24-1.57-0.24-2.05-0.72-2.77c-0.48-0.72-1.08-1.08-1.32-2.29s-0.36-1.08-0.48-2.17c-0.12-1.08-0.84-4.09,0.36-5.3
		c1.2-1.2,1.2-1.2,1.2-1.2s1.44-1.93,1.93-2.65c0.48-0.72,1.44-1.93,1.44-2.65c0-0.72,0-3.61,0-3.61s-0.24-0.72,1.44-2.17
		c1.69-1.44,0.48-1.69,2.77-3.37s2.29-2.17,3.25-2.89c0.96-0.72-0.72,0.72,0.96-0.72c1.69-1.44,2.17-1.93,2.89-2.89
		c0.72-0.96,0.72-1.44,1.2-2.89c0.48-1.44-1.44-3.13,0-4.09s1.93-1.93,1.93-2.89s0-1.44,0-2.17c0-0.72,0-2.36,0-2.36
		c2.17-0.53,5.54,1.49,6.74,0c1.2-1.49,2.41-1.01,3.13-1.97c0.72-0.96,1.93-3.37,1.93-3.37s2.65,0.72,3.37,1.44
		c0.72,0.72-0.72,1.93,0.72,0.72s3.37,0.48,3.37,0.48s-0.96-5.3,0-6.26s3.37-5.06,3.37-5.06v-3.13l1.69-3.13c0,0,1.93-2.89,0-2.17
		c-1.93,0.72-1.93,0.72-1.93,0.72l-2.65,0.72l-1.69,1.2l-1.44,1.69h-1.2h-1.69c0,0-0.96,0.96-1.44-0.24
		c-0.48-1.2-1.69-3.61-2.41-4.58c-0.72-0.96-3.13-3.61-3.13-3.61l-0.72-1.2c0,0-1.44-2.41-2.17-3.37c-0.72-0.96-2.17-4.82-2.17-4.82
		s-1.2-2.41-2.17-3.37s-3.37-3.13-3.37-3.13s-0.48-0.72-1.44-0.96c-0.96-0.24-1.69-1.2-0.72-1.69c0.96-0.48,0.96-0.48,0.96-0.48
		s0-0.24,0.24-2.41s0.48-2.65,0.96-4.09c0.48-1.44,0.96-2.17,1.93-3.13s1.44-1.69,1.69-2.41c0.24-0.72,1.2-2.41,1.2-2.41
		s0-0.96-0.48-1.69s-2.17-3.13-2.17-3.13s0-0.24,0-1.44s0.48-3.13,0.96-4.09s0.48-0.96,0.48-0.96l2.65-1.93c0,0,1.44-0.48,2.65-1.69
		c1.2-1.2,2.65-2.65,3.85-3.61c1.2-0.96,3.13-2.17,3.13-2.17l4.09-5.06c0,0,0.48-0.72,0.48-1.93s0-3.85,0.72-4.82
		c0.72-0.96,2.17-3.13,2.17-3.13l3.37-3.56c0,0,0.72-2.94,0.24-3.67c-0.48-0.72-1.2-2.89-2.41-3.37c-1.2-0.48-3.13-2.41-3.13-2.41
		s-1.93-0.72-2.89,0c-0.96,0.72-1.44,1.44-2.65,1.2c-1.2-0.24-3.37-1.53-3.37-1.53l-0.24-4.25c0,0,0.72-1.2-0.72-1.2
		s-2.41,0.24-3.61-0.96s-2.17-1.69-2.65-3.13c-0.48-1.44-0.72-2.41-0.72-3.37s0.24-3.37,0.24-3.37c-0.24-1.69-5.54-4.82-5.54-4.82
		s-1.2-4.09-0.96-5.3s0.48-4.09,0.96-5.3s1.2-3.13,1.2-3.85s0.48-2.17-0.96-2.17s-3.13-0.96-3.85-1.2c-0.72-0.24-1.69,0-2.17-1.2
		c-0.48-1.2-1.2-2.65-2.41-3.13c-1.2-0.48-2.41-0.96-3.13-1.44c-0.72-0.48-2.17-2.41-2.17-2.41l-1.69-1.32l-0.72-3.01l-0.24-2.17
		c0,0,1.69-0.72,4.09,0s2.89,0.96,5.06,1.2c2.17,0.24,2.17,0.24,4.58,0.24s3.13,0,5.06-0.24c1.93-0.24,4.09-1.36,5.3-1.53
		s3.85-0.08,4.82,0c0.96,0.08,2.65,0.22,5.3-0.09c2.65-0.31,5.3-1.03,5.3-1.03s1.44-2.89,1.44-4.09s-0.48-2.65,0.24-4.82
		c0.72-2.17,0.72-2.17,0.96-3.37s-1.2-1.2,0.24-2.89c1.44-1.69,1.95-3.61,3.51-4.09s2.03-0.72,2.76-2.41c0.72-1.69-0.72-3.85,0-4.82
		c0.72-0.96-0.31-1.44,0.21-3.61c0.51-2.17-0.16-3.13,0.06-4.82s2.47-1.69,0.14-3.13c-2.33-1.44-2.82-1.69-3.78-2.41
		s-2.17-1.69-2.17-1.69l-3.13-2.89c0,0-1.69-2.17-1.69-3.13s0-1.44,0-2.17c0-0.72-1.93-1.93-1.2-2.89c0.72-0.96,0.96-1.44,2.41-2.17
		c1.44-0.72,2.17-1.2,3.37-1.44c1.2-0.24,3.37-1.2,4.33-1.44c0.96-0.24,1.71,0,2.9-1.69c1.19-1.69,2.4-3.85,2.4-3.85
		s1.93-0.48,2.41-1.44c0.48-0.96,0-2.65,0-2.65s1.63-1.93,0.21-2.89c-1.42-0.96-2.14-1.69-2.14-3.13s0-3.85,0-4.82
		c0-0.96,0.72-2.41,0.72-2.41s0.72-0.48,0.72-1.69s0-4.82,0-4.82l-2.17-1.2l3.44-8.67c0,0,0.55-1.2,0-1.93s-1.03-1.69-1.27-2.89
		c-0.24-1.2-0.72-1.93-1.2-3.61c-0.48-1.69-0.96-2.17-0.72-4.33c0.24-2.17,0.24-3.61,0.48-4.58c0.24-0.96-1.44,0.24,0.24-0.96
		c1.69-1.2,1.69-1.2,1.69-1.2l-0.48-3.37c0,0-2.17-1.2-2.41-1.93c-0.24-0.72-1.44-2.65-1.44-3.61s-0.48-2.41-0.48-2.41l-1.44-2.41
		l-2.65-4.33l7.22-1.44c0,0,2.08-1.93,2.72-2.65c0.65-0.72,2.57-4.82,2.57-4.82s-1.2,0.48,0-1.2c1.2-1.69-0.24-0.24,1.2-1.69
		s2.17-2.17,2.65-3.13c0.48-0.96,0.72-5.06,1.44-5.78c0.72-0.72,2.89-1.93,2.89-1.93h1.44h3.37c0,0,1.93,1.2,2.65,0
		c0.72-1.2,0-1.69,2.89-2.89c2.89-1.2,4.58-0.96,4.58-1.69s1.93-4.33,2.41-5.06c0.48-0.72,2.17-3.37,2.17-3.37
		c2.89-0.96,3.13,1.44,4.09,0s1.69-3.37,3.13-5.54c1.44-2.17,1.44-2.89,2.41-6.02c0.96-3.13,1.93-4.09,3.61-6.26
		c1.69-2.17,2.65-2.89,2.17-4.09c-0.48-1.2-1.44-2.89-3.37-3.85c-1.93-0.96-5.3-2.41-6.02-2.89c-0.72-0.48-2.65-2.17-4.33-2.17
		c-1.69,0-3.37-1.44-4.09,0s-0.48,1.69-3.13,2.65c-2.65,0.96-1.2,3.37-2.65,0.96c-1.44-2.41-2.89-4.58-3.85-5.78
		c-0.96-1.2-1.44-3.85-1.44-5.06s0.72-2.65,1.44-3.61c0.72-0.96,2.17-2.89,2.65-4.82c0.48-1.93-3.37-6.5-3.37-6.5v-5.54
		c0,0-1.69-2.17-2.89,0s-1.2,2.17-1.2,2.17s-1.44-0.24-4.09-0.24s-3.61,0.48-4.33-0.24c-0.72-0.72-1.93-2.17-2.41-2.65
		c-0.48-0.48-1.93-1.93-1.93-1.93h-2.41c0,0,0.24,1.69-0.24,2.41c-0.48,0.72-0.72,1.69-2.41,1.44c-1.69-0.24-3.37-0.24-4.09-0.24
		s-2.17,0.96-2.17,0.96l-2.17-3.37c0,0-0.96,0.24-2.65,1.2c-1.69,0.96-2.41,1.2-3.13,0.96c-0.72-0.24-4.33-1.44-4.33-1.44l-1.2-1.93
		h-3.61c0,0-1.2,1.2-1.44,2.17c-0.24,0.96-0.72,0.96-0.72,1.93c0,0.96-0.24,1.93-0.24,3.13c0,1.2,0.96,1.2-0.96,2.89
		c-1.93,1.69-7.22,3.85-7.22,3.85l-4.09,0.48c0,0-1.44,0.48-2.89,1.2c-1.44,0.72-2.65,0.96-2.65,0.96s-0.96-1.44-1.69-2.41
		c-0.72-0.96-1.93-2.17-1.93-2.17h-1.2l-1.69,0.72c0,0,3.37-1.2-2.17,0.24c-5.54,1.44-5.54,1.44-5.54,1.44l-0.24-4.33
		c0,0-4.82,0-6.02,0.24s-1.45-2.17-1.45-2.17s-1.92,0.48-4.81,1.44s-5.06,1.2-5.78,1.44s0.72,0.72-0.72,0.24
		c-1.44-0.48-2.65-6.02-2.65-6.02l-4.09,6.02c0,0-2.65,0.96-3.61,1.44c-0.96,0.48-2.89,2.41-2.89,2.41s-0.24,1.2-1.93,1.93
		c-1.69,0.72-5.54,0-5.54,0s-0.96-0.96-1.44-1.93c-0.48-0.96-1.93-3.37-1.93-3.37s-0.48-0.24-1.2-0.72
		c-0.72-0.48-1.69-1.2-1.44-2.65c0.24-1.44,0.24-2.17,1.44-4.09c1.2-1.93,0.96-1.69,2.41-2.89c1.44-1.2,2.65-1.93,3.61-2.89
		c0.96-0.96,1.2-1.44,1.69-2.65s1.69-2.89,0.72-3.37c-0.96-0.48,2.17-0.24-0.96-0.48s-5.06,0-5.06,0c-0.72-1.44-1.44-2.17-1.93-4.09
		C222.67,2.65,222.19,0,222.19,0c-2.41,0.96-2.41,0.96-2.41,0.96s-1.2,0.48-2.41,1.44s-1.44,0.72-2.65,1.69s-2.65,1.69-2.65,1.69
		s-0.96,0.48-1.69,0.24c-0.72-0.24-4.82,0-5.78,0c-0.96,0-2.17,0.24-3.85,0.24c-1.69,0-1.69,0-1.69,0s-1.93-0.48-2.41,0.96
		s-0.72,2.65-0.72,2.65s-2.65,0.24-3.85,0.24s-2.41,0-2.41,0s-1.2,0.48-1.69,1.44s0.24-0.24-0.48,0.96c-0.72,1.2-1.2,2.41-1.2,2.41
		s0.48,0.24-1.69,1.69c-2.17,1.44-2.89,1.69-3.61,2.41s0,0.24-1.69,1.69c-1.69,1.44-3.37,3.13-3.37,3.13s3.37-1.2-0.96,1.2
		c-4.33,2.41-4.33,2.41-4.33,2.41s1.69,2.89,1.69,3.85c0,0.96-0.24,3.37-0.48,4.09c-0.24,0.72-0.24,0.72,0,2.41
		c0.24,1.69,0,2.65,0.24,3.61s0.24,0.48,0.48,2.65c0.24,2.17,0.24,3.13,0.96,4.58c0.72,1.44,2.65,3.61,2.89,4.58
		c0.24,0.96,0,1.2,0.24,2.41c0.24,1.2,0.24,1.69,0.48,3.13s0.24,1.2,0.72,3.37c0.48,2.17,0,2.41,0.72,4.33s0.72,0.24,0.72,1.93
		c0,1.69,0,2.17,0,2.89c0,0.72-0.24,2.17-0.24,2.17s0,0.24,0,1.93c0,1.69-0.72,0.24,0,1.69c0.72,1.44,1.2,3.85,1.2,3.85
		s0.48,1.2,1.2,2.41s1.93,3.37,1.93,4.58c0,1.2-0.48,1.93-0.48,2.89s0,1.93,0,1.93s-1.2-0.72,0.48,2.65s-0.24,0.96,1.69,3.37
		s4.09,3.85,4.33,4.58c0.24,0.72,0.48,0.96,0.24,2.17c-0.24,1.2-0.72,1.2-1.2,3.13c-0.48,1.93-0.72,2.17-0.96,3.85
		c-0.24,1.69-0.96,0.48-0.48,4.33c0.48,3.85,0.48,2.17,0.72,5.78c0.24,3.61,0.72,1.69,0,5.3s-1.2,4.09-1.93,6.02
		s-1.2,1.69-1.69,4.33c-0.48,2.65-0.72,0.24-1.44,4.82s-3.13,11.8-3.13,12.52s-0.24,0.96,0,3.85c0.24,2.89,0,0.96,0,6.02
		s0.72,4.33-0.24,7.95c-0.96,3.61-1.69,3.61-2.65,7.95c-0.96,4.33-2.17,5.78-2.89,7.71c-0.72,1.93-1.69,2.89-2.41,4.58
		s-1.69,1.93-2.17,3.85c-0.48,1.93-0.72,2.41-0.48,3.13c0.24,0.72,3.13,2.17,3.13,2.17s0.96,1.44,0.48,3.37
		c-0.48,1.93-1.93,3.13-2.41,6.26c-0.48,3.13-0.48,2.17-1.44,5.78c-0.96,3.61-1.2,3.13-1.69,5.06c-0.48,1.93-0.96,1.93-1.44,3.85
		s-1.2,2.89-1.93,5.78c-0.72,2.89-0.72,2.65-1.44,5.06c-0.72,2.41-1.93,3.61-3.13,6.26c-1.2,2.65-2.41,4.09-2.89,6.02
		s-1.44,8.91-1.44,8.91l-1.2,2.65c0,0-1.93,0.48-2.17,2.17c-0.24,1.69-2.17,2.89-2.17,2.89s-0.96,0.96-1.69,1.93
		c-0.72,0.96-2.21,3.85-3.75,4.82c-1.54,0.96-2.27,1.44-2.99,2.41c-0.72,0.96-3.13,0.72-3.61,1.69c-0.48,0.96-1.44,0.72-1.93,1.44
		c-0.48,0.72-1.44,2.41-1.44,2.41s-0.72,0.72,0,3.13c0.72,2.41-0.24,0,0.72,2.41c0.96,2.41,0.72,2.41,0.96,4.09
		c0.24,1.69,0.48,1.44-0.24,3.61s-0.88,3.61-1.77,4.58s-1.12,0.96-1.36,2.41c-0.24,1.44-0.72,2.41-1.2,3.37
		c-0.48,0.96-2.41,3.37-2.41,5.06c0,1.69,0.24,2.17,0,3.85c-0.24,1.69,0,4.33,0,5.3c0,0.96-0.7,1.44-0.11,3.37
		c0.59,1.93-0.1,1.69-0.24,4.09s1.82,2.17,0,4.33c-1.82,2.17-2.79,3.37-2.79,4.58s0.48,1.93,0,3.13s0,2.89,0,2.89l-0.21,1.93v1.93
		c0,0-0.03,0.24,2.62,0.24c2.65,0,0.96-0.24,2.65,0s2.89,0,3.61,0.48c0.72,0.48-0.24,0.48,1.93,0.48c2.17,0,3.67-0.18,3.85-0.42
		c0.18-0.24,0.27-0.45,0.78-0.72s0.54-0.48,1.66-0.45c1.11,0.03,1.93-0.06,2.47,0.06c0.54,0.12,0.69,0.03,1.35,0.12
		s1.38,0.21,1.66,0.12c0.27-0.09,0.96-0.66,1.23-0.81c0.27-0.15,0.57-0.39,0.81-0.48C149.8,344.09,151.03,343.39,151.03,343.39z"/>
</g>
</svg>
