<?xml version="1.0" encoding="utf-8"?>
<!-- Generator: Adobe Illustrator 25.0.0, SVG Export Plug-In . SVG Version: 6.00 Build 0)  -->
<svg version="1.1" id="svg" xmlns="http://www.w3.org/2000/svg" xmlns:xlink="http://www.w3.org/1999/xlink" x="0px" y="0px"
	 viewBox="0 0 400 351.6" style="enable-background:new 0 0 400 351.6;" xml:space="preserve">
<style type="text/css">
	.st0{fill-rule:evenodd;clip-rule:evenodd;fill:#FFFFFF;}
</style>
<g id="svgg">
	<path id="path0" class="st0" d="M146.6,62c0.4,0.1,1.1,0.1,1.4,0c0.3-0.1,0-0.2-0.8-0.2C146.5,61.8,146.2,61.9,146.6,62
		 M141.9,70.5c-0.1,0.4-0.3,0.7-0.5,0.7s-0.3,0.2-0.3,0.4c0,0.7,0.5,0.3,1.1-0.7c0.3-0.6,0.4-1.1,0.2-1.1S142,70.1,141.9,70.5
		 M120.4,73.2c0.3,0.1,0.9,0.1,1.2,0c0.3-0.1,0.1-0.2-0.6-0.2C120.3,73.1,120.1,73.1,120.4,73.2 M115.3,73.6
		c-0.4,0.4-0.2,0.8,0.3,0.6c0.3-0.1,0.5-0.3,0.5-0.5C116.1,73.3,115.6,73.2,115.3,73.6 M142.3,80c0.4,0.4,0.7,0.6,0.8,0.5
		c0.2-0.2-0.6-1.2-1.1-1.2C141.8,79.3,142,79.6,142.3,80 M105.9,83.9c-0.7,0.8-0.9,1.3-0.4,1.3c0.2,0,0.6-0.5,0.9-1.1
		C107.1,83,106.9,82.9,105.9,83.9 M175.8,92.6c0.4,0.1,1.1,0.1,1.4,0c0.3-0.1,0-0.2-0.8-0.2C175.7,92.4,175.4,92.5,175.8,92.6
		 M161.9,99.1c0.2,0.5,1,0.8,1,0.4c0-0.2-0.3-0.4-0.6-0.6C162,98.7,161.8,98.8,161.9,99.1 M142.2,102.2c-0.6,0.4-1.3,1-1.6,1.5
		c-0.5,0.9,0.1,0.6,1.9-1.2C143.8,101.3,143.7,101.2,142.2,102.2 M63.1,106.4c-0.2,0.4-0.3,0.7-0.2,0.7c0.4,0,1.1-0.8,1.1-1.1
		C64,105.5,63.5,105.7,63.1,106.4 M45.1,109c-0.5,0.6-0.6,0.9-0.1,0.9c0.2,0,0.5-0.3,0.7-0.7C46.2,108.4,45.8,108.3,45.1,109
		 M42,112.7c-0.1,0.2-0.1,0.5,0,0.6c0.3,0.3,0.9-0.2,0.9-0.6S42.3,112.3,42,112.7 M107.7,112.7c0,0.2,0.4,0.3,1,0.3
		c0.8,0,0.9-0.1,0.4-0.3C108.4,112.3,107.7,112.3,107.7,112.7 M123.1,114.1c0,0.3,1.1,1.1,1.6,1.1c0.4,0-0.2-0.7-0.9-1.1
		C123.4,113.9,123.1,113.9,123.1,114.1 M76,115.5c0.5,0.4,1,0.7,1.2,0.7c0.4,0-0.3-0.5-1.4-1.1C75.3,114.9,75.4,115,76,115.5
		 M65.7,116.1c-0.4,0.3-0.9,0.4-1.1,0.3c-0.8-0.3-2,1.6-1.4,2.2c0.3,0.3,0.6,0.4,0.8,0.3c0.1-0.1,0-0.4-0.3-0.6
		c-0.6-0.4,0.4-1.4,1.4-1.4c0.3,0,0.7-0.3,1-0.7C66.6,115.4,66.5,115.4,65.7,116.1 M126.3,116.3c0,0.2,0.1,0.3,0.3,0.2
		c0.2-0.1,0.4,0,0.5,0.2s0.3,0.3,0.5,0.2c0.2-0.2,0.1-0.4-0.2-0.6C126.7,115.8,126.3,115.8,126.3,116.3 M133.7,118
		c0,0.3-0.3,0.8-0.6,1.2c-0.6,0.7-0.6,0.7,0.2,0c0.5-0.4,0.7-1,0.6-1.2C133.8,117.6,133.7,117.6,133.7,118 M57.7,122.4
		c-0.2,0.3-0.4,0.6-0.3,0.7c0.1,0.1,0.4-0.1,0.6-0.4c0.2-0.3,0.4-0.6,0.3-0.7C58.2,121.9,57.9,122.1,57.7,122.4 M48.7,123.8
		c-0.5,0.7-0.8,1.3-0.7,1.5c0.1,0.1,0.2,0,0.2-0.2s0.2-0.4,0.5-0.4s0.5-0.1,0.3-0.3c-0.1-0.2,0.1-0.7,0.6-1.1
		c0.4-0.4,0.6-0.7,0.4-0.7C49.8,122.6,49.2,123.1,48.7,123.8 M48.5,130.4c0,0.2-0.2,0.3-0.5,0.2s-0.5,0-0.5,0.1
		c0,0.5,0.8,0.4,1.6-0.2c0.6-0.5,0.6-0.5,0.1-0.5C48.8,130,48.5,130.1,48.5,130.4 M68.2,130.7c-0.4,0.8-0.4,0.8,0.2,0.3
		c0.4-0.3,0.7-0.5,0.8-0.6c0.1,0,0-0.2-0.2-0.3C68.8,130,68.4,130.3,68.2,130.7 M60,132.6c-0.1,0.3-0.1,0.5,0.2,0.4
		c0.5-0.2,0.8-1,0.4-1C60.4,132.1,60.1,132.3,60,132.6 M76.7,134.2c0.4,0.7,1.1,1,1.1,0.4c0-0.4-0.8-1.1-1.1-1.1
		C76.4,133.5,76.5,133.8,76.7,134.2 M30.3,134.1c0,0.1,0.3,0.4,0.6,0.6c0.3,0.2,0.7,1,0.8,1.6l0.3,1.2v-1.2c0-0.8-0.2-1.4-0.7-1.8
		C30.6,133.8,30.3,133.7,30.3,134.1 M41.2,135.8c0,0.8,0.1,1,0.2,0.6c0.1-0.4,0.1-1.1,0-1.4C41.3,134.6,41.2,135,41.2,135.8
		 M194,137.4c-0.1,0.2,0.1,0.4,0.5,0.4s0.7-0.2,0.7-0.4s-0.2-0.4-0.5-0.4C194.5,137,194.1,137.2,194,137.4 M27.8,138.2
		c0,0.3,0.2,0.5,0.4,0.5c0.2,0,0.4-0.2,0.4-0.5s-0.2-0.5-0.4-0.5S27.8,137.9,27.8,138.2 M123.6,138.2c-0.4,0.4-0.4,0.5,0.1,0.5
		c0.3,0,0.6-0.2,0.7-0.5C124.6,137.6,124.2,137.6,123.6,138.2 M119.2,140c-0.5,0.3-1,0.7-1,0.9c0,0.3,0.1,0.3,0.3,0
		c0.2-0.3,0.6-0.5,1-0.5s0.8-0.3,0.8-0.5s0-0.4-0.1-0.4C120.2,139.5,119.7,139.8,119.2,140 M116.9,140.8c-0.5,0.2-0.2,0.8,0.4,0.8
		c0.2,0,0.4-0.2,0.4-0.5C117.7,140.5,117.6,140.5,116.9,140.8 M74.2,141.5c-0.5,0.5-0.4,0.6,0.1,0.3c0.3-0.1,0.7-0.2,0.8-0.2
		s0.1-0.2,0.1-0.4C75.3,140.7,74.8,140.8,74.2,141.5 M70.7,143.4c-0.8,0.7-0.8,0.7-0.1,0.3c0.4-0.2,0.9-0.5,1-0.7
		C71.9,142.4,71.6,142.6,70.7,143.4 M28,143.5c0.1,0.3,0.4,0.6,0.6,0.6c0.5,0,0.2-0.8-0.4-1C28,143,27.9,143.1,28,143.5 M81.3,143.6
		c0,0.3,0.2,0.7,0.5,1c0.7,0.7,0.7,0.1,0-0.8C81.5,143.4,81.3,143.3,81.3,143.6 M46.3,144.9c-0.3,0.9-0.3,1,0.3,0.5s0.7-1.1,0.2-1.1
		C46.7,144.4,46.4,144.6,46.3,144.9 M72.8,144.8c0,0.4,1.3,0.3,1.6-0.1c0.1-0.2-0.2-0.3-0.7-0.3C73.2,144.5,72.8,144.7,72.8,144.8
		 M131.3,147.2c-0.8,0.6-1.5,1.2-1.7,1.4c-0.4,0.6,0.4,0.4,1-0.2c0.3-0.3,0.6-0.4,0.6-0.3c0,0.2,0.2-0.1,0.3-0.5
		c0.2-0.4,0.5-0.7,0.6-0.6c0.2,0.1,0.4,0,0.5-0.3C133,146,133,146,131.3,147.2 M34,146.8c0.6,0.1,1.6,0.1,2.1,0s0-0.1-1.1-0.1
		C33.8,146.6,33.4,146.7,34,146.8 M31.8,147.4c-0.1,0.3-0.1,0.8-0.1,1.1c0.1,0.4,0.2,0.2,0.3-0.5C32.3,146.8,32.1,146.5,31.8,147.4
		 M70.7,147.6c-0.3,0.2-0.4,0.4-0.2,0.6c0.1,0.1,0.4,0.1,0.7-0.2C71.7,147.4,71.4,147.1,70.7,147.6 M80.6,148.2
		c0,0.5,1.4,1.4,2.2,1.4c0.4,0,0.6,0.2,0.4,0.6c-0.1,0.4,0,0.4,0.5-0.2c0.4-0.5,1-0.7,1.2-0.6c0.7,0.3,0.9-0.2,0.5-0.8
		c-0.3-0.4-0.3-0.4-0.3,0c0,0.3-0.3,0.4-0.7,0.3c-0.4-0.1-0.7,0-0.7,0.3c0,0.6-1.5,0.3-2.4-0.6C80.9,148.2,80.6,148,80.6,148.2
		 M53.5,151.7c0,0.8-0.3,1.5-0.5,1.6c-0.3,0.1-0.3,0.2,0,0.2c0.6,0,0.9-0.7,0.7-2.1C53.6,150.3,53.6,150.3,53.5,151.7 M161.1,151
		c0,0.2,0.3,0.6,0.8,1l0.8,0.7l-0.6-1C161.4,150.7,161.1,150.5,161.1,151 M22.3,162c0,1.1,0.1,1.5,0.1,1c0.1-0.5,0.1-1.4,0-1.9
		C22.3,160.5,22.3,160.9,22.3,162 M140.6,168.8c0.5,0.5,1.1,0.9,1.3,0.9s-0.1-0.4-0.6-0.9C139.9,167.7,139.4,167.7,140.6,168.8
		 M160.4,169.7c-0.7,0.8-1.1,1.4-1,1.4c0.2,0,1.2-1,2.1-2.2C162.3,167.8,161.6,168.3,160.4,169.7 M134.2,173.2
		c-0.4,0.4-0.6,0.8-0.5,0.9c0.2,0.2,1.7-0.8,1.7-1.2C135.4,172.3,134.9,172.5,134.2,173.2 M148.9,173c-0.9,1.2-1,1.5-0.1,0.9
		s1.3-1.4,0.8-1.4C149.4,172.5,149.1,172.7,148.9,173 M156.3,173.5c0,0.8,0,0.9,0.3,0.3c0.4-0.9,0.4-1.2,0.1-1.2
		C156.5,172.5,156.3,173,156.3,173.5 M141.9,173.3c0.1,0.3,0,0.7-0.2,0.8c-0.3,0.1-0.3,0.2,0,0.2c0.7,0,0.9-0.7,0.4-1.1
		C141.8,172.8,141.7,172.8,141.9,173.3 M151.3,173.2c0,0.2,0.3,0.4,0.6,0.5c0.9,0.3,0.9,0.3,0.4-0.3
		C151.6,172.8,151.3,172.7,151.3,173.2 M132.1,175c-0.6,0.4-0.9,0.7-0.7,0.7c0.4,0,2.3-1.4,1.9-1.4
		C133.2,174.3,132.7,174.6,132.1,175 M135.4,174.8c0,0.4,2.1,3,2.5,3c0.5,0,0.4-0.7-0.1-0.7c-0.2,0-0.9-0.6-1.4-1.3
		S135.4,174.7,135.4,174.8 M129.7,177.4c-0.3,0.6-0.6,1.1-0.6,1.3s0.3-0.2,0.7-0.9s0.7-1.2,0.6-1.3S130,176.9,129.7,177.4
		 M156,176.7c0.1,0.2,0,0.4-0.2,0.5s-0.3,0.3-0.2,0.5c0.2,0.2,0.4,0.1,0.6-0.2c0.4-0.7,0.4-1,0-1C156,176.4,155.9,176.5,156,176.7
		 M231.1,179.6c0,0.2,0.5,0.3,1.1,0.3c1.4,0,1.4-0.5,0-0.6C231.6,179.3,231.1,179.5,231.1,179.6 M130.8,181.3
		c0.1,0.4,0.3,0.7,0.5,0.7c0.4,0,0.4-0.1,0.1-0.9C131.1,180.4,130.6,180.5,130.8,181.3 M225.5,182.4c-0.5,0.4-0.8,0.8-0.7,0.9
		c0.1,0.1,0.7-0.2,1.2-0.7C227.3,181.5,226.8,181.4,225.5,182.4 M131.5,182.8c-0.2,0.6-0.1,1.7,0.1,1.9c0.2,0.1,0.3-0.3,0.3-0.9
		C131.9,183,131.7,182.4,131.5,182.8 M21.1,184.1c-0.2,1.2-0.1,1.7,0.3,1.3c0.1-0.1,0.1-0.7,0.1-1.4l-0.1-1.2L21.1,184.1
		 M31.6,188.1c0.1,2.1,0.2,2.3,1.4,3.4l1.3,1.2l-0.9-1.1c-0.7-0.8-1-1.7-1.1-3.4C31.9,185.2,31.5,185.2,31.6,188.1 M144.2,189.5
		c-0.4,0.8-0.4,0.8,0.3,0.2c0.4-0.3,0.9-0.7,1.2-0.8c0.4-0.1,0.3-0.2-0.3-0.2C144.9,188.7,144.5,189,144.2,189.5 M23.1,189.3
		c-0.1,0.2,0.1,0.6,0.5,1c0.8,0.8,0.9,0.3,0.2-0.6C23.5,189.3,23.2,189.2,23.1,189.3 M25.6,196.8c0.3,0.6,0.6,1,0.7,0.9
		c0.2-0.2-0.7-2-1-2C25.1,195.8,25.3,196.2,25.6,196.8 M128.2,197.7c-0.6,0.5-0.9,0.9-0.7,0.9s0.7-0.4,1.2-0.9
		C129.8,196.6,129.6,196.6,128.2,197.7 M149.5,197.4c0,0.6,0.9,1.3,1.5,1.1c0.3-0.1,0.2-0.2-0.1-0.2s-0.8-0.3-1-0.6
		C149.7,197.3,149.5,197.2,149.5,197.4 M215.3,197.8c0,0.5,0.7,1.3,0.9,1.1c0.3-0.3-0.2-1.4-0.6-1.4
		C215.4,197.5,215.3,197.6,215.3,197.8 M216.4,199.7c0,0.3-0.2,0.6-0.4,0.6s-0.4,0.2-0.4,0.4s0.1,0.4,0.3,0.4c0.4,0,0.9-1.4,0.6-1.7
		C216.5,199.2,216.4,199.4,216.4,199.7 M219.9,199.4c0,0.2,0.2,0.7,0.5,1c0.3,0.4,0.5,0.5,0.5,0.3s-0.2-0.7-0.5-1
		C220.1,199.4,219.9,199.3,219.9,199.4 M113.2,199.9c0.4,0.1,1.1,0.1,1.6,0c0.4-0.1,0.1-0.2-0.8-0.2S112.8,199.8,113.2,199.9
		 M205.3,200.1c0.1,0.3,0.4,0.6,0.6,0.6c0.5,0,0.2-0.8-0.4-1C205.3,199.6,205.2,199.8,205.3,200.1 M211.6,203.5
		c-0.7,1.3-0.7,1.6,0,1c0.3-0.2,0.4-0.6,0.3-0.7c-0.1-0.1,0-0.3,0.2-0.3s0.4-0.2,0.5-0.5C213,202,212.2,202.4,211.6,203.5
		 M206.2,203.3c0,0.2,0.2,0.7,0.5,1c0.3,0.4,0.5,0.5,0.5,0.3s-0.2-0.7-0.5-1S206.2,203.1,206.2,203.3 M118.9,206
		c0,0.2,0.4,0.3,0.9,0.3c1,0,1.5,0.7,0.9,1.1c-0.4,0.3-0.4,0.3,0,0.2c1.2-0.3,0.8-1.6-0.5-1.7C119.5,205.8,118.9,205.9,118.9,206
		 M161.8,207.7c0,0.7,0.6,1.3,1,0.9c0.1-0.1,0-0.4-0.3-0.6c-0.5-0.3-0.4-0.4,0.3-0.5c0.8-0.1,0.7-0.6-0.1-0.6
		C162.1,207,161.8,207.2,161.8,207.7 M166.1,207.7c-0.4,0.3-0.4,0.3,0.3,0.3c0.4,0,0.8-0.2,0.8-0.3
		C167.1,207.3,166.7,207.3,166.1,207.7 M177.7,207.7c0,0.2,0.2,0.4,0.5,0.4s0.5-0.2,0.5-0.4s-0.2-0.4-0.5-0.4
		C177.9,207.4,177.7,207.5,177.7,207.7 M169.4,208c-0.1,0.2,0.2,0.3,0.7,0.3s0.8-0.1,0.7-0.3s-0.4-0.3-0.7-0.3
		C169.8,207.7,169.5,207.9,169.4,208 M169,212.9c0.3,0.1,0.9,0.1,1.2,0s0.1-0.2-0.6-0.2S168.6,212.8,169,212.9 M247.4,213.7
		c-0.2,0.4-0.8,0.9-1.3,1.1c-1.1,0.5-1.2,0.9-0.9,2.4l0.3,1.2v-1.3c0-1.2,1.4-3.1,2.2-3.1c0.1,0,0.3-0.2,0.4-0.5
		C248.4,212.7,247.9,212.9,247.4,213.7 M107.8,215.7c2,0.1,2.4,0.2,2.2,0.7c-0.1,0.3,0,0.5,0.2,0.4c1.8-0.6,0.5-1.3-2.1-1.2
		l-2.8,0.1H107.8 M132.2,216.9c-0.1,0.4,0,0.8,0.1,0.9c0.2,0.1,0.3-0.2,0.3-0.7C132.6,216,132.4,215.9,132.2,216.9 M148.1,217.2
		c0,0.4,0.2,0.7,0.4,0.7s0.4-0.3,0.4-0.7s-0.2-0.7-0.4-0.7S148.1,216.8,148.1,217.2 M235.6,218.6c-0.6,0.7-0.8,1.3-0.2,0.9
		c0.4-0.2,1.2-1.6,0.9-1.6C236.2,217.9,235.9,218.2,235.6,218.6 M151.6,218.6c0,0.4,1,1.2,1.2,1c0.1-0.1-0.2-0.4-0.5-0.8
		C151.9,218.5,151.6,218.4,151.6,218.6 M147.8,220.6c0,0.3,0.2,0.5,0.4,0.5s0.4-0.2,0.4-0.5s-0.2-0.5-0.4-0.5
		C147.9,220,147.8,220.3,147.8,220.6 M31.3,220.7c0,0.2,0.3,0.5,0.7,0.7c0.7,0.4,0.7,0.3,0.3-0.3C31.8,220.3,31.3,220.1,31.3,220.7
		 M108.2,221c0.4,0.1,0.8,0.4,1,0.6c0.2,0.3,0.2,0.2,0.1-0.1s-0.5-0.6-1-0.6C107.7,220.8,107.6,220.8,108.2,221 M29.4,221.8
		c0.4,0.4,0.7,0.6,0.8,0.5c0.2-0.2-0.6-1.2-1.1-1.2C28.9,221.1,29,221.4,29.4,221.8 M20.6,221.9c0.1,0.3,0.4,0.6,0.6,0.6
		c0.5,0,0.2-0.8-0.4-1C20.6,221.4,20.5,221.6,20.6,221.9 M231.3,223c-0.3,0.5-0.4,0.9-0.3,0.9c0.2,0,0.5-0.4,0.7-0.9
		s0.3-0.9,0.3-0.9S231.7,222.5,231.3,223 M33.4,223.1c0,0.2,0.2,0.5,0.5,0.8c0.3,0.2,0.5,0.3,0.5,0.1s-0.2-0.5-0.5-0.8
		C33.7,222.9,33.4,222.9,33.4,223.1 M35.2,225.2c0,0.2,0.3,0.6,0.6,0.9c0.5,0.4,0.5,0.5-0.1,0.7s-0.6,0.3-0.1,0.3
		c1,0,1.1-0.7,0.3-1.5C35.5,225.1,35.2,225,35.2,225.2 M98.9,225.2c0,0.3,1.8,1.2,2,1c0.1-0.1-0.2-0.3-0.6-0.4
		c-0.4-0.1-0.7-0.4-0.7-0.6c0-0.2-0.2-0.3-0.4-0.3S98.9,225.1,98.9,225.2 M176.3,225.1c0,0.1,0.3,0.5,0.7,0.9
		c0.8,0.9,0.9,0.7,0.3-0.4C177,225.1,176.3,224.7,176.3,225.1 M141.8,225.7c0,0.2,0.2,0.4,0.5,0.4s0.5-0.2,0.5-0.4s-0.2-0.4-0.5-0.4
		S141.8,225.5,141.8,225.7 M103.2,227c-0.6,0.1-1.1,0.3-1.1,0.4c0,0.3,2.1,0.1,2.4-0.2C104.7,226.9,104.3,226.9,103.2,227
		 M152,227.8c-0.4,0.3-0.4,0.3,0,0.3c0.3,0,0.8,0.3,1.1,0.6c0.4,0.4,0.6,0.4,0.6,0.2s-0.2-0.5-0.5-0.6s-0.4-0.3-0.3-0.5
		C153.1,227.3,152.6,227.3,152,227.8 M105.9,228.5c0,0.2,0.1,0.4,0.3,0.4c0.2,0,0.6,0.1,1,0.2c0.6,0.2,0.6,0.2,0.2-0.4
		C106.8,228.1,105.9,227.9,105.9,228.5 M108,231.2c0.5,0.5,0.9,1,0.9,1.1s0.2,0.1,0.3-0.1c0.2-0.2-1.5-2-1.9-2
		C107.3,230.2,107.6,230.7,108,231.2 M155.3,231.4c0.6,0.9,1.2,1.2,1.2,0.6c0-0.2-0.4-0.6-0.9-0.9l-0.9-0.6L155.3,231.4
		 M176.3,232.9c-0.5,0.5-0.4,0.6,0.1,0.3c0.3-0.1,0.7-0.2,0.8-0.2s0.1-0.2,0.1-0.4C177.3,232.2,176.9,232.3,176.3,232.9
		 M105.9,233.7c0,0.3,2.2,1.8,2.7,1.8c0.2,0-0.2-0.3-0.8-0.7c-0.6-0.4-1.1-0.9-1.1-1.1c0-0.2-0.2-0.4-0.4-0.4
		C106.1,233.4,105.9,233.5,105.9,233.7 M241,233.9c0.2,0.3,0.6,0.5,0.8,0.5s0.2-0.2-0.1-0.5c-0.2-0.3-0.6-0.5-0.8-0.5
		S240.7,233.6,241,233.9 M40.2,235.5c0,0.6,0.1,1.1,0.3,1.1c0.4,0,0.4-1.1,0-1.7C40.3,234.6,40.2,234.8,40.2,235.5 M37.9,236.1
		c0.3,0.5,0.8,0.8,1.2,0.8c1,0,0.8-0.5-0.5-1.1l-1.2-0.6L37.9,236.1 M361,239.1c0,0.2,0.7,1,1.5,1.7l1.5,1.2l-1.4-1.7
		C361,238.5,360.9,238.4,361,239.1 M178.7,239.7c0,0.2,0.3,0.5,0.7,0.7c0.6,0.3,0.7,0.3,0.5-0.1
		C179.7,239.7,178.7,239.2,178.7,239.7 M159.3,243.2c-0.5,1.2-0.5,4.9,0,4.4c0.3-0.3,0.4-1.2,0.4-2.7
		C159.6,243.7,159.4,243,159.3,243.2 M48.9,243.8c0,0.3,0.2,0.5,0.4,0.5s0.4-0.2,0.4-0.5s-0.2-0.5-0.4-0.5
		C49.1,243.2,48.9,243.5,48.9,243.8 M205,246.8c-0.1,0.4-0.1,0.7,0.1,0.7c0.4,0,0.7-1,0.4-1.2C205.3,246.1,205.1,246.4,205,246.8
		 M371.5,246.4c0,0.3,1.1,1.1,1.6,1.1c0.1,0-0.1-0.3-0.4-0.7C372,246,371.5,245.8,371.5,246.4 M95.1,247.8c-0.4,0.7-0.4,0.7,0.3,0.3
		c0.7-0.4,1-1,0.4-1C95.6,247.1,95.3,247.4,95.1,247.8 M204,248.5c0,0.4,0.8,1.1,1.1,1.1c0.2,0,0.1-0.3-0.2-0.7
		C204.6,248.2,204,247.9,204,248.5 M45.2,249.6c0.5,0.3,0.8,0.3,1,0c0.3-0.3,0.1-0.4-0.6-0.4C44.6,249.2,44.6,249.3,45.2,249.6
		 M91.3,251.4c-0.1,0.2,0.3,0.3,0.9,0.3s1.1-0.1,1.1-0.1C93.2,251.3,91.4,251.1,91.3,251.4 M204.4,251.5c0,0.3,0.2,0.5,0.4,0.5
		s0.4-0.2,0.4-0.5s-0.2-0.5-0.4-0.5C204.6,251,204.4,251.2,204.4,251.5 M205.1,252.5c0,0.4,1.8,2,2,1.8c0.1-0.1,0.1-0.2,0-0.3
		c-0.1,0-0.6-0.5-1.1-0.9C205.5,252.7,205.1,252.4,205.1,252.5 M120.8,253.3c-0.1,0.3-0.1,0.7,0.1,0.9s0.4,0.1,0.4-0.6
		C121.3,252.6,121.1,252.5,120.8,253.3 M95.2,253.7c0.1,0.3,0.1,0.5,0.1,0.6s0.2,0.1,0.4,0.1c0.2,0,0.4-0.2,0.4-0.5
		s-0.1-0.5-0.3-0.3c-0.2,0.1-0.4,0.1-0.5-0.1C95.2,253.4,95.2,253.5,95.2,253.7 M200.1,253.3c-0.3,0.1-0.6,0.4-0.6,0.8
		c0,0.4,0.1,0.4,0.2,0.2c0.1-0.2,0.4-0.4,0.7-0.4s0.5-0.2,0.5-0.4s0-0.3-0.1-0.3C200.7,253.2,200.4,253.2,200.1,253.3 M155.8,254.2
		c-0.3,0.4-0.7,1-1,1.2c-0.3,0.3-0.3,0.5-0.2,0.5c0.3,0,1.9-1.8,1.9-2.2C156.6,253.3,156.4,253.4,155.8,254.2 M98.2,256.2
		c-0.2,0.4-0.4,0.8-0.4,0.9c0,0.5,3,2.3,3.7,2.3c0.6,0,0.7-0.1,0.1-0.2c-0.5-0.1-0.6-0.4-0.5-1c0.1-0.5,0-0.8-0.1-0.7
		c-0.2,0.1-0.3,0.4-0.3,0.7c0,0.6-0.3,0.6-1.2,0c-0.7-0.6-0.9-1.9-0.4-2.3c0.2-0.2,0.2-0.3-0.1-0.3
		C98.7,255.6,98.4,255.9,98.2,256.2 M226.2,255.9c0,0.2,0.3,0.7,0.7,1.1c0.8,0.9,0.9,0.8,0.3-0.5
		C226.8,255.6,226.2,255.2,226.2,255.9 M93.1,256.3c-0.4,0.2-0.9,0.7-1.1,1c-0.4,0.5-0.5,0.5-0.8,0c-0.2-0.3-0.5-0.4-0.6-0.2
		c-0.2,0.2,0.5,0.9,1,0.9c0.1,0,0.7-0.5,1.4-1.1C94.1,255.8,94.2,255.7,93.1,256.3 M109.4,256.2c0,0.4,1,1.2,1.3,1
		c0.3-0.3-0.5-1.3-1-1.3C109.6,255.9,109.4,256,109.4,256.2 M139,257.3c0,0.2,0.4,0.4,0.9,0.4s0.8-0.2,0.7-0.4
		c-0.1-0.2-0.5-0.4-0.9-0.4C139.3,257,139,257.1,139,257.3 M377.5,258.6c0,0.4-0.4,1-0.8,1.3s-0.6,0.5-0.4,0.5c0.7,0,1.6-1.3,1.4-2
		C377.6,258,377.6,258,377.5,258.6 M104.3,259.7c-0.3,0.2-0.3,0.4,0.1,1c0.5,0.7,0.5,0.7,0.3-0.1c-0.2-0.8-0.2-0.8,1-0.7
		c0.7,0.1,1.3,0,1.3-0.1C106.9,259.4,104.8,259.3,104.3,259.7 M116.8,259.8c0,0.2,0.3,0.5,0.7,0.7c0.7,0.4,0.7,0.3,0.3-0.3
		C117.5,259.4,116.8,259.2,116.8,259.8 M163,261c-0.8,0.8-0.9,1.3-0.4,1.1c0.3-0.1,0.6-0.4,0.7-0.8C163.7,260.6,163.5,260.4,163,261
		 M155.3,262.1c-0.7,0.7-0.8,0.8-0.3,0.5c0.7-0.4,1.8-1.4,1.4-1.4C156.3,261.2,155.8,261.6,155.3,262.1 M204.1,264.3
		c0,0.4,0.1,0.8,0.1,0.8c0.1,0,0.4,0.1,0.7,0.2s0.6,0,0.6-0.2s-0.1-0.3-0.2-0.2s-0.4-0.1-0.7-0.6l-0.4-0.8L204.1,264.3 M225.7,264.4
		c0,0.4,0.2,0.6,0.3,0.6c0.6-0.2,0.6-0.8,0.1-1C225.8,263.8,225.7,264,225.7,264.4 M133,264.3c0,0.3,1.7,2,1.9,1.8
		c0.1-0.1-0.3-0.6-0.9-1.1C133.4,264.5,133,264.2,133,264.3 M244.5,264.4c0,0.2,0.2,0.4,0.5,0.4s0.5-0.2,0.5-0.4
		c0-0.2-0.2-0.4-0.5-0.4S244.5,264.2,244.5,264.4 M233.4,265.5l-1.1,1.1l1.3-0.8c0.7-0.4,1.3-0.9,1.3-1.1
		C235,264.1,234.5,264.4,233.4,265.5 M105.5,265.7c0,0.2,0.4,0.5,0.8,0.7c0.7,0.3,0.7,0.3,0.2-0.1c-0.3-0.3-0.5-0.6-0.4-0.7
		s0-0.2-0.2-0.2C105.7,265.4,105.5,265.6,105.5,265.7 M131.1,267.5c0.5,0.6,1.1,1,1.1,0.9c0.2-0.2-1.4-1.9-1.8-1.9
		C130.3,266.5,130.6,266.9,131.1,267.5 M140,267.4c0,0.3,0.1,0.8,0.3,1.1c0.2,0.3,0.3,0.1,0.3-0.6c0-0.6-0.1-1.1-0.3-1.1
		S140,267.1,140,267.4 M115,267.9c0.8,0.7,1.1,0.8,1.1,0.6c0-0.3-1.1-1.3-1.5-1.3C114.4,267.2,114.6,267.5,115,267.9 M141.1,267.5
		c0,0.2,0.4,0.5,0.9,0.7c1,0.5,1.1,0.3,0.3-0.4C141.7,267.1,141.1,267,141.1,267.5 M224.8,267.5c0,0.1,0.5,0.7,1.1,1.2
		c0.6,0.6,1.1,0.9,1.1,0.7c0-0.2-0.3-0.5-0.7-0.8s-0.7-0.7-0.6-0.9c0.1-0.2-0.1-0.4-0.3-0.4C225,267.3,224.8,267.4,224.8,267.5
		 M95.1,268.6c-0.4,0.7-0.4,0.7,0.3,0.3c0.4-0.2,0.7-0.6,0.7-0.7C96,267.6,95.5,267.9,95.1,268.6 M103.8,268.2c0,0.2,0.4,0.6,0.8,1
		s0.6,0.4,0.4,0.2c-0.2-0.3-0.3-0.7-0.2-1c0.1-0.3,0-0.5-0.4-0.5C104,267.9,103.8,268,103.8,268.2 M98.2,268.7
		c0,0.3,0.2,0.5,0.4,0.5c0.2,0,0.4-0.2,0.4-0.5s-0.2-0.5-0.4-0.5C98.3,268.2,98.2,268.5,98.2,268.7 M134.6,270.6
		c0.6,0.6,1.1,1,1.2,0.9c0.2-0.1-0.8-1.2-1.5-1.6C133.7,269.6,133.8,269.9,134.6,270.6 M147.8,271.5c0,0.5,1,1.5,1.2,1.3
		c0.1-0.1-0.2-0.5-0.5-1C148,271.2,147.8,271.1,147.8,271.5 M208,271.7c0,0.4,0.2,0.6,0.5,0.5c0.5-0.2,0.4-0.9-0.2-1.1
		C208.1,271.1,208,271.3,208,271.7 M139.4,272.3c-0.4,0.4-0.7,0.8-0.5,0.8c0.3,0,1.6-1.4,1.4-1.5
		C140.3,271.6,139.8,271.9,139.4,272.3 M223,275.1c-0.2,0.3-0.3,0.6-0.2,0.8c0.3,0.3,1.3-0.5,1.3-1S223.5,274.5,223,275.1
		 M211.8,277c0,0.2,0.3,0.4,0.7,0.5c0.6,0.2,0.6,0.1,0.3-0.3C212.4,276.6,211.8,276.5,211.8,277 M219.2,280.3
		c-1.4,1.4-1.8,2.1-1.8,2.9c0,1,0,1,0.3-0.2c0.2-0.8,0.9-1.7,2-2.7c0.9-0.8,1.6-1.6,1.5-1.7C221.2,278.5,220.2,279.3,219.2,280.3
		 M153.1,279.4c0.3,0.1,0.9,0.1,1.2,0s0.1-0.2-0.6-0.2C153.1,279.2,152.8,279.3,153.1,279.4 M212.9,285.3c0,0.2,0.2,0.7,0.5,1.2
		s0.5,0.7,0.5,0.5s-0.2-0.7-0.5-1.2C213.1,285.3,212.9,285.1,212.9,285.3 M216,290.7c0.3,0.2,0.9,0.3,1.4,0.4c1.1,0,0.8-0.2-0.7-0.5
		C215.8,290.5,215.6,290.5,216,290.7"/>
	<path id="path1" class="st0" d="M117.9,73.3c-0.3,0.2,0,0.3,0.8,0.3c0.7,0,1.1-0.1,1-0.3C119.5,72.9,118.5,72.9,117.9,73.3
		 M144,90.6c0,1.1,0.1,1.5,0.1,1c0.1-0.5,0.1-1.4,0-1.9C144.1,89.1,144,89.5,144,90.6 M55.2,109.2c0,0.2,0.2,0.4,0.5,0.4
		s0.5-0.2,0.5-0.4s-0.2-0.4-0.5-0.4C55.5,108.9,55.2,109,55.2,109.2 M79,116.9c0.1,0.2,0.6,0.4,1.1,0.4s0.9-0.2,0.9-0.4
		c0-0.2-0.5-0.4-1.1-0.4C79.2,116.6,78.9,116.7,79,116.9 M96.3,117.6c-0.2,0.8,0.5,1.8,1,1.4c0.1-0.1,0.1-0.2-0.2-0.2
		s-0.4-0.4-0.5-1C96.6,116.8,96.5,116.8,96.3,117.6 M69.3,130.3c0,0.2,0.2,0.4,0.5,0.4s0.5-0.2,0.5-0.4s-0.2-0.4-0.5-0.4
		S69.3,130.1,69.3,130.3 M39.9,139.1c0.2,0.3,0.1,0.4-0.4,0.2c-0.7-0.2-0.7-0.2,0,0.3c0.8,0.6,1.1,0.7,1.4,0.2
		c0.1-0.2,0-0.3-0.4-0.1s-0.5,0.1-0.4-0.2c0.1-0.2,0.1-0.5-0.2-0.6C39.8,138.7,39.7,138.8,39.9,139.1 M130.6,139.4
		c0.3,0.1,0.9,0.1,1.2,0s0.1-0.2-0.6-0.2C130.5,139.2,130.3,139.3,130.6,139.4 M54.1,142.4c-0.5,0.5-0.8,1-0.7,1
		c0.3,0,2-1.7,1.8-1.9C55.1,141.4,54.6,141.8,54.1,142.4 M81.3,144.7c0,0.2,0.1,0.4,0.3,0.4c0.2,0,0.4,0.3,0.5,0.6
		c0.1,0.5,0.2,0.5,0.2,0c0-0.3-0.2-0.8-0.5-1C81.4,144.4,81.3,144.4,81.3,144.7 M33.9,147.1c0.5,0.1,1.3,0.1,1.8,0
		c0.4-0.1,0-0.2-1-0.1C33.7,147,33.3,147,33.9,147.1 M49.3,154.7c0,0.2,0.3,0.3,0.7,0.3s0.7-0.1,0.7-0.3s-0.3-0.3-0.7-0.3
		S49.3,154.5,49.3,154.7 M22.3,157.9c0,1,0.1,1.3,0.2,0.8s0.1-1.3,0-1.8C22.3,156.5,22.3,157,22.3,157.9 M164.7,162.3
		c0,0.7,0.1,1,0.2,0.6c0.1-0.3,0.1-0.9,0-1.2C164.8,161.4,164.7,161.7,164.7,162.3 M159,170.5c-0.7,0.6-0.9,0.9-0.5,0.7
		c0.6-0.3,2.2-1.9,1.9-1.8C160.3,169.4,159.7,169.9,159,170.5 M22.6,172.2c0,1.1,0.1,1.5,0.1,1c0.1-0.5,0.1-1.4,0-1.9
		C22.7,170.7,22.6,171.1,22.6,172.2 M143.5,177.4c0.2,0.4,0.2,0.7-0.2,1.1c-0.5,0.4-0.5,0.4,0.2,0.1c0.7-0.3,0.6-1.8-0.1-1.8
		C143.2,176.8,143.3,177,143.5,177.4 M118.7,197.9c-0.1,0.2,0.2,0.4,0.9,0.4c0.6,0,1.1-0.2,1.1-0.4s-0.4-0.4-0.9-0.4
		C119.3,197.5,118.9,197.7,118.7,197.9 M25.8,199.1c0,0.7,0.1,1,0.3,0.8c0.4-0.6,0.4-1.6,0-1.8C26,198,25.8,198.5,25.8,199.1
		 M221.7,199.5c0,0.8,0.1,1.6,0.2,1.6c0.2,0.1,0.2-0.4,0.2-1.1C221.9,198.1,221.7,197.9,221.7,199.5 M200.1,204.6
		c0.6,0.3,0.9,0.3,1.2,0s0.1-0.4-0.8-0.4C199.4,204.2,199.3,204.3,200.1,204.6 M20.4,220.7c0,0.4,0.2,0.7,0.4,0.7
		c0.2,0,0.4-0.3,0.4-0.7S21,220,20.8,220S20.4,220.3,20.4,220.7 M93.1,225.7c0.1,0.2,0.4,0.4,0.7,0.4c0.3,0,0.6-0.2,0.7-0.4
		s-0.2-0.4-0.7-0.4C93.2,225.3,92.9,225.5,93.1,225.7 M39.9,235.5c0,0.8,0.1,1,0.3,0.6c0.2-0.3,0.2-0.8,0-1.1
		C40,234.5,39.9,234.7,39.9,235.5 M102.3,241.1c0.2,0.3,0.4,0.9,0.4,1.5c0,0.5,0.2,1,0.4,1c0.7,0,0.4-1.7-0.4-2.3
		C102.2,240.9,102,240.9,102.3,241.1 M221.4,250.1c0.8,0.6,2,0.7,2,0.2c0-0.2-0.3-0.4-0.7-0.4s-1-0.1-1.3-0.2
		C220.8,249.5,220.8,249.6,221.4,250.1 M125.3,254.1c0,0.1,0.4,0.6,1,0.9l1,0.7l-0.9-0.9C125.4,253.7,125.2,253.6,125.3,254.1
		 M92.9,257.3c0,0.2,0.4,0.4,0.9,0.4s0.9-0.2,0.9-0.4c0-0.2-0.4-0.4-0.9-0.4C93.3,257,92.9,257.1,92.9,257.3 M140.9,257.3
		c0.1,0.2,0.4,0.4,0.7,0.4s0.5-0.2,0.5-0.4c0-0.2-0.3-0.4-0.7-0.4C141,257,140.8,257.1,140.9,257.3 M105.1,262.7
		c-0.1,0.2,0,0.8,0.3,1.1c0.5,0.6,0.5,0.6,0.5-0.5S105.4,261.8,105.1,262.7 M173.1,272.8c0,0.2-0.7,0.4-1.5,0.5l-1.5,0.1l1.5,0.1
		c0.9,0,1.6-0.1,1.9-0.5c0.3-0.4,0.3-0.5,0-0.5C173.3,272.4,173.1,272.6,173.1,272.8 M80.1,274.5c0.6,0.1,1.6,0.1,2.1,0
		s0-0.1-1.1-0.1C79.9,274.3,79.5,274.4,80.1,274.5 M217.1,283c0,0.7,0.1,1,0.2,0.6c0.1-0.3,0.1-0.9,0-1.2
		C217.2,282,217.1,282.3,217.1,283"/>
	<path id="path2" class="st0" d="M119.9,73.4c0.2,0.2,0.7,0.3,1.2,0.2c0.7-0.1,0.7-0.2-0.3-0.3C120,73.2,119.7,73.2,119.9,73.4
		 M109.4,80.2c-0.5,0.3-1,0.8-1.1,1.3c-0.3,0.8-0.3,0.8,0.3,0.1c0.3-0.4,0.9-1,1.3-1.3C110.7,79.6,110.6,79.5,109.4,80.2
		 M68.1,105.4c0.2,0.4,1.2,0.4,1.2,0.1c0-0.2-0.3-0.3-0.7-0.3C68.2,105.1,68,105.2,68.1,105.4 M38.7,116.4c-0.2,0.3-0.3,0.5-0.1,0.5
		s0.5-0.2,0.8-0.5c0.2-0.3,0.3-0.5,0.1-0.5S38.9,116.1,38.7,116.4 M131.2,117.4c0,0.1,0.5,0.2,1.2,0.3s1.1,0,1-0.1
		C133.3,117.3,131.2,117.2,131.2,117.4 M77,120.6c-0.7,0.8-0.3,0.9,0.5,0.1c0.4-0.4,0.5-0.7,0.3-0.7C77.6,120.1,77.3,120.4,77,120.6
		 M48.9,124.7c-0.4,0.2-0.4,0.4-0.1,1c0.3,0.5,0.4,0.5,0.2,0.1c-0.1-0.3,0-0.8,0.2-1C49.8,124.3,49.6,124.2,48.9,124.7 M74,135.2
		c0.1,0.2,0.6,0.6,1,0.8c0.5,0.3,0.7,0.3,0.5,0c-0.1-0.2-0.6-0.6-1-0.8C74,134.9,73.9,134.9,74,135.2 M43.1,137.8
		c0.1,0.6,0,1.1-0.4,1.5c-0.3,0.3-0.4,0.6-0.2,0.6c0.8,0,1.2-1,0.8-2l-0.4-1L43.1,137.8 M193.8,138c0,0.8,0.7,1.3,0.7,0.5
		c0-0.4-0.2-0.8-0.3-0.8C194,137.7,193.8,137.8,193.8,138 M127.5,138.6c0.1,0.2,0.4,0.3,0.8,0.2c1.1-0.2,1.2-0.6,0.1-0.6
		C127.8,138.2,127.4,138.4,127.5,138.6 M133.1,146c-0.1,0.3-0.4,0.4-0.6,0.3c-0.2-0.1-0.3-0.1-0.1,0.2s0.5,0.3,1-0.2
		c0.4-0.3,0.8-0.7,0.9-0.7c0.1-0.1-0.1-0.1-0.4-0.1C133.6,145.4,133.2,145.7,133.1,146 M163.9,154.4c0.9,1,1.1,1.1,1.1,0.7
		c0-0.1-0.4-0.6-1-0.9l-1-0.7L163.9,154.4 M163.2,166.4c-0.2,0.3-0.3,0.5-0.1,0.5s0.5-0.2,0.8-0.5c0.2-0.3,0.3-0.5,0.1-0.5
		C163.8,165.8,163.5,166.1,163.2,166.4 M156.1,173.1c-0.3,0.3-0.3,1.4,0.1,1.7c0.2,0.1,0.3-0.3,0.3-0.9c0-0.6,0-1-0.1-1
		C156.3,172.9,156.2,173,156.1,173.1 M136.5,175.9c0.5,0.6,0.9,1.1,1,1.2c0,0.1,0.2,0.1,0.3,0s-0.3-0.6-1-1.2l-1.1-1L136.5,175.9
		 M20.8,183.8c0,0.6,0.1,1.1,0.1,1.1c0.1,0,0.2-0.5,0.3-1.1c0.1-0.6,0-1.1-0.1-1.1C20.9,182.7,20.8,183.2,20.8,183.8 M131.6,187.5
		c0.1,0.2,0.1,0.6-0.1,0.9c-0.2,0.4-0.2,0.7,0,0.7c0.5,0,0.7-1.4,0.3-1.6C131.6,187.3,131.5,187.3,131.6,187.5 M22.2,189.6
		c0.3,0.3,0.8,0.5,1,0.5c0.2-0.1,0-0.3-0.6-0.6C21.7,189,21.7,189.1,22.2,189.6 M216,193.6c0,0.1,0.5,0.7,1.1,1.1l1.1,0.9l-0.9-1.1
		C216.6,193.4,216,193,216,193.6 M120.7,197.9c0,0.2,0.4,0.4,0.9,0.4s0.9-0.2,0.9-0.4s-0.4-0.4-0.9-0.4S120.7,197.7,120.7,197.9
		 M175.7,207c-0.1,0.2,0,0.3,0.3,0.2s0.7,0.1,1.1,0.6c0.3,0.4,0.6,0.6,0.6,0.4C177.7,207.2,176.2,206.3,175.7,207 M126.5,218.1
		c-0.4,0.4-0.2,0.8,0.3,0.6c0.3-0.1,0.5-0.3,0.5-0.5C127.4,217.9,126.9,217.8,126.5,218.1 M104.1,226.7c0.3,0.2,0.5,0.5,0.5,0.8
		s0.2,0.5,0.5,0.6c0.5,0.1,0.5,0.1,0-0.2c-0.3-0.2-0.4-0.4-0.2-0.4c0.2,0,0.1-0.2-0.1-0.5s-0.6-0.5-0.8-0.5
		C103.8,226.4,103.8,226.5,104.1,226.7 M37.4,229.1c0.4,0.4,1.3,0.4,1.3,0.1c0-0.2-0.3-0.3-0.8-0.3
		C37.5,228.8,37.3,228.9,37.4,229.1 M48.7,240.3c-0.1,0.3,0,0.7,0.2,0.9s0.3,0.1,0.3-0.6C49.1,239.6,49,239.5,48.7,240.3 M226,262.7
		c-0.6,0.4-0.6,0.6-0.2,1c0.4,0.4,0.5,0.4,0.3-0.1c-0.1-0.3,0.1-0.7,0.4-1C227.3,262.1,226.8,262.1,226,262.7 M170.8,265l-1,1.3
		l1.2-1.1c0.7-0.6,1.1-1.2,1-1.3C171.9,263.8,171.4,264.3,170.8,265 M135.2,267c0.4,0.5,0.8,0.8,0.9,0.7c0.2-0.2-1-1.6-1.4-1.6
		C134.5,266.1,134.7,266.5,135.2,267 M169.2,268.6c0,0.1,0.7,0.9,1.6,1.8c0.9,0.9,1.6,1.5,1.6,1.4c0-0.2-0.7-1-1.6-1.8
		C169.9,269.1,169.2,268.5,169.2,268.6 M197.3,271.8c-0.1,0.5-0.1,0.9,0.1,0.8c0.2-0.1,0.3,0,0.3,0.2s0.2,0.3,0.4,0.2
		c0.2-0.2,0.3-0.3,0-0.5c-0.2-0.1-0.4-0.5-0.5-0.9C197.5,271,197.5,271,197.3,271.8 M152.3,278.8c0,0.2,0.6,0.3,1.2,0.3
		s1.2-0.1,1.2-0.1c0-0.1-0.6-0.2-1.2-0.3C152.9,278.6,152.3,278.7,152.3,278.8"/>
	<path id="path3" class="st0" d="M147,62.4c-1.7,0.2-4,1.4-6.8,3.6c-1,0.7-1.9,1.2-2.1,1.1c-0.2-0.1-0.2-0.1-0.1,0.1
		c0.3,0.5-6.9,5.5-7.4,5.1c0,0-0.7,0.2-1.3,0.5c-0.7,0.3-1.6,0.4-1.9,0.3c-0.4-0.1-0.7-0.1-0.9,0.1c-0.1,0.2-2.3,0.3-5,0.3
		c-2.6,0-4.8,0.1-4.8,0.2c0,0.1-0.2,0.3-0.4,0.3c-0.2,0-1.1,0.7-1.8,1.6c-0.8,0.9-2.7,2.9-4.2,4.5c-1.6,1.6-3.5,3.9-4.4,5.2
		c-0.8,1.3-1.7,2.4-1.8,2.4c-0.2,0-0.3,0.1-0.3,0.3c0,1.7-10,14.1-11.3,14.1c-0.1,0-0.6,0.3-0.9,0.6c-1,1-4.5,2.6-5.1,2.4
		c-0.3-0.1-0.5,0-0.5,0.2s-0.2,0.3-0.5,0.2c-0.3-0.1-0.6,0-0.6,0.1c-0.2,0.5-5.4,1-8.2,0.8c-1.4-0.1-2.5-0.4-2.4-0.5
		c0.1-0.2-0.7-0.2-1.7-0.1c-1.1,0.1-2,0.1-2.1-0.1s-0.9-0.3-1.8-0.2c-1.2,0.1-1.7,0-2-0.3c-0.3-0.4-0.4-0.4-0.5-0.1
		c-0.1,0.2-0.4,0.4-0.6,0.4s-0.8,0.4-1.3,0.9c-1.1,1.2-3.6,2.2-5.6,2.3c-0.9,0-1.7,0.2-1.7,0.3s-0.5,0.3-1.1,0.3s-1.1-0.2-1.1-0.4
		s-0.2-0.3-0.5-0.2c-0.7,0.3-4.4-0.5-4.4-0.9c0-0.5-1.7-0.3-2.5,0.3c-1,0.8-1.7,1.6-3.9,4.3c-1,1.3-2.3,2.7-3,3.2s-1.6,1.4-2,2.1
		c-0.5,0.6-1.1,1.4-1.4,1.8c-1.3,1.4-6.5,8.1-7.3,9.6c-1.4,2.4-1.3,3.1,0.7,4.2c1.4,0.8,1.7,1.1,2,2.4c0.2,0.8,0.9,2.1,1.7,3
		c0.7,0.8,1.3,1.6,1.3,1.8s0.2,0.2,0.3,0.1c0.7-0.5,3.6,0.6,4.3,1.6c2.5,3.3,4.5,4.8,4.5,3.4c0-0.2,0.2-0.3,0.4-0.2
		c0.4,0.1,2-1.3,2-1.7c0-0.1-0.3-0.7-0.6-1.3c-0.5-0.9-0.5-1.1-0.1-1.4c0.9-0.6-0.8-1.8-2-1.4c-0.5,0.2-1.1,0.3-1.3,0.2
		s-0.3,0-0.3,0.2c0,0.3-0.4,0.3-1.1,0.2c-0.6-0.1-1.9-0.3-2.8-0.3c-1.7,0-2.1-0.4-1.1-0.9c0.7-0.4,2.4-0.3,3.5,0.1
		c0.9,0.3,1.8-0.2,1.8-1.1c0-0.3-0.4-0.5-1.3-0.5c-1,0-1.2-0.1-1.1-0.6c0.1-0.3,0.3-1.6,0.4-2.9c0.1-1.2,0.2-2.3,0.3-2.3
		s0.6-0.4,1.2-0.8c0.6-0.4,1.4-0.8,1.8-0.8c0.8,0,2.9-2.5,2.9-3.5c0-0.4,0.1-0.8,0.3-0.9c0.2-0.1,0.2-0.5,0.2-0.8
		c-0.1-0.4,0.3-1,1.2-1.9c0.8-0.7,1.3-1.5,1.2-1.8c-0.1-0.7,1.2-1.5,1.9-1.2c0.3,0.1,0.5,0,0.5-0.1c0-0.2,0.3-0.3,0.7-0.3
		s0.6,0.1,0.5,0.3s0.3,0.3,0.8,0.3c0.6,0,1-0.1,0.9-0.2c-0.1-0.1,0.5-0.5,1.3-0.9c0.8-0.4,1.6-1.1,1.8-1.4c0.7-1.3,2-1.6,3-0.6
		c0.6,0.5,0.7,0.5,1.7-0.2c0.6-0.4,1.2-0.7,1.5-0.7c0.2,0,0.9-0.4,1.5-0.9c1-0.8,1.1-0.9,2.1-0.3c0.7,0.4,1.2,0.4,1.5,0.2
		c0.2-0.2,0.7-0.4,1.1-0.5c1.2-0.2,1.9-0.7,1.9-1.2c0-0.3,0.2-0.4,0.6-0.3c1,0.4,5,3.2,4.9,3.4c-0.2,0.3,4.3-0.3,5.1-0.7
		c0.4-0.2,0.7-0.3,0.7-0.1c0,0.2,0.2,0,0.5-0.2s0.5-0.3,0.5-0.2s0.2,0.1,0.5-0.1s1-0.4,1.6-0.5c0.6-0.1,1.1-0.2,1.1-0.3
		c0-0.3,2.7-0.8,3.6-0.7c0.3,0,0.5-0.1,0.4-0.2c-0.1-0.2,1.2-0.4,2.9-0.4c2.6-0.1,3.3-0.3,4-0.9c1-0.9,2.2-1,3.2-0.3
		c1.1,0.8,1.4,0.7,3.1-1.1l1.6-1.6l1.3,0.6c2.6,1.1,2.8,1.2,3.8,2.1c0.9,0.7,0.9,0.8,0.3,0.6c-0.4-0.1-0.9,0-1,0.2
		c-0.3,0.5-5,0.5-5.2,0c-0.1-0.2-0.9,0-2,0.5c-1,0.5-2,0.8-2.1,0.7c-0.1-0.1-0.5,0.3-0.8,0.9c-0.3,0.6-0.8,1-0.9,1
		c-0.2,0-0.3,0.2-0.3,0.4c0,1-1.9,2.6-3,2.6c-0.9,0-1-0.2-1-1c0-0.6-0.1-1-0.4-1s-0.5-0.2-0.5-0.3c0-0.2-0.2-0.2-0.5-0.1
		c-0.3,0.1-0.5,0-0.5-0.2s-0.1-0.3-0.3-0.2c-0.2,0.1-1.1,0-2.1-0.3c-1.7-0.5-3.2-0.5-4.4,0c-0.3,0.1-0.8,0.2-0.9,0
		c-0.2-0.1-0.4,0-0.5,0.2s-0.7,0.4-1.4,0.4c-0.7,0-1.3,0.1-1.3,0.3c0,0.1-0.3,0.3-0.7,0.3c-0.4,0-0.8,0.2-0.9,0.5s-0.3,0.4-0.5,0.3
		c-0.2-0.1-0.2,0-0.1,0.3s-0.5,0.8-1.6,1.4c-2.3,1.2-5,5.5-3.6,5.5c1.6,0,2.2,2.6,0.9,4.2c-1.3,1.6-0.5,4.5,1.6,5.3
		c0.6,0.2,1,0.6,1,0.8c0,0.8-1.5,2.7-2.2,2.9c-1.4,0.4-2.1,1.2-1.5,1.8c0.7,0.7,1.3,0.6,2.4-0.4c2.1-1.8,6-1.1,4.8,0.8
		c0,0.1,0.1,0.3,0.4,0.4c0.3,0.2,0.3,0.3,0.1,0.3c-0.2,0-0.3,0.3-0.2,0.6c0.1,0.3,0,1.1-0.3,1.7c-0.5,1.3-0.6,1.6-0.8,3.9
		c-0.2,1.9,0.1,2.1,1.5,1.1c0.2-0.2,0.6-0.2,0.8-0.1c0.2,0.1,0.4,0,0.5-0.2c0.1-0.3,0.3-0.2,0.7,0.2c0.7,0.7,0.2,1.8-0.6,1.4
		c-0.2-0.1-0.6,0.1-1,0.6l-0.6,0.8l-1.4-1.1c-0.8-0.6-1.4-1.3-1.4-1.5s-0.2-0.5-0.5-0.8c-0.5-0.3-0.4-0.5,0.4-1.4
		c2-2.4,1.1-3-4.3-3.1c-1.1,0-1.5-0.2-1.5-0.6c0-0.5-0.1-0.5-0.4,0.1c-0.3,0.5-0.3,0.8,0,1.3c0.6,0.9,0.5,1-0.9,1
		c-0.8,0-1.2,0.1-1,0.4c0.1,0.2,0,0.6-0.2,0.9c-0.2,0.3-0.3,0.7-0.2,0.8c0.1,0.2-0.1,0.6-0.6,0.9c-0.9,0.6-1.5,0.7-1.2,0.2
		c0.1-0.2,0-0.4-0.2-0.5c-1-0.3-0.6-3.6,0.6-4.9c0.6-0.7,1.2-1.5,1.2-1.7c0-0.5,2.7-2.9,3.6-3.3c0.4-0.2,0.6-0.4,0.4-0.5
		c-0.8-0.5-2.9-3.6-3.1-4.5c-0.5-1.9-3.1-3.1-3.9-1.8c-0.2,0.3-0.9,0.3-2.1,0.2c-1.6-0.2-1.9-0.1-2.5,0.5c-0.4,0.4-1.3,1.1-2.1,1.6
		c-2.5,1.4-3.7,4-2,4c0.9,0,0.8,0.1-0.9,1c-1.8,0.9-3.8,2.5-3.9,3.1c0,1-1.5,2.2-2.7,2.2c-1.4,0-1.9,0.7-1.1,1.6
		c0.3,0.3,0.6,0.7,0.6,1c0,0.2,0.7,0.7,1.4,1.1c1.2,0.5,1.4,0.8,1.2,1.4c-0.1,0.4-0.3,1.6-0.5,2.7c-0.3,2.3-0.9,3.2-2.1,3
		c-0.4-0.1-0.8,0-0.8,0.1c0,1.7-4.4-0.6-5-2.6c-0.2-0.8-0.6-2.2-0.9-3.2L45,147l-0.6,1.1c-1.2,2-1.8,2-4.5,0.3
		c-2.9-1.9-7.5-2-7.5-0.3c0,0.4-0.2,0.8-0.3,0.9c-0.5,0.3-1.2-1.2-0.9-2c0.2-0.8-0.6-1.6-1.8-1.7c-0.5,0-0.8-0.3-1-0.9
		c-0.1-0.5-0.4-0.9-0.6-0.9c-1,0-1.3-1.2-0.6-2.6c0.4-0.9,0.6-1.7,0.5-2.3l-0.2-0.9l-0.9,0.8c-0.5,0.4-1,1.4-1.3,2.1
		s-0.6,1.2-0.8,1.1c-0.2-0.1-0.2,0-0.1,0.2c0.3,0.4-0.2,2-1.1,4.3c-0.3,0.7-0.6,1.4-0.6,1.6c0,0.2-0.2,0.6-0.3,1
		c-0.2,0.4-0.1,2.7,0.1,5.3c0.2,2.5,0.4,6.5,0.3,8.9c-0.1,2.3,0,5.9,0.2,8c0.2,2.9,0.2,3.9-0.1,4.3c-0.2,0.3-0.3,0.7-0.2,0.9
		c0.1,0.2,0,0.8-0.2,1.3c-0.8,2-0.8,2.5-0.8,6.5c0,3.5,0.1,4.2,0.6,4.7c0.6,0.6,0.6,0.6,0.7-0.2c0-0.4,0.1-1.2,0.2-1.7
		s0.2-2.1,0.4-3.4c0.2-2.2,1.5-4.1,1.5-2.3c0,0.2,0.1,0.3,0.3,0.2c0.2-0.1,0.8,0,1.3,0.2s1.2,0.4,1.3,0.5c2.4,0.5,4,2.6,4.3,5.5
		c0.2,1.9,0.4,2.4,1.5,3.7c3.7,4.2,2.9,6-4.6,9.6c-3.9,1.9-4,1.9-3.7-0.8c0.2-1.4,0.1-2.5-0.3-3.7c-0.3-0.9-0.8-2.7-1-3.8
		c-0.3-1.6-0.6-2.1-1.1-2.2c-0.6-0.1-0.6-0.1-0.2,0.4c0.3,0.3,0.4,0.9,0.2,1.3c-0.1,0.5-0.1,0.7,0.2,0.7c0.3,0,0.3,0.4,0.2,1.1
		c-0.1,0.6-0.1,1.1,0.2,1.1c0.2,0,0.3,0.4,0.3,1c0,0.5,0,1.2,0.2,1.6c0.1,0.3,0.2,0.9,0.1,1.1c-0.1,0.3,0,0.5,0.2,0.5
		s0.3,0.5,0.2,1.2c-0.1,0.7-0.1,1.1,0,1s0.3,0.7,0.5,1.7c0.4,2.1,0.1,8.1-0.5,8.3c-0.2,0.1-0.3,0.3-0.2,0.6c0.1,0.3,0,0.5-0.2,0.5
		s-0.3,0.3-0.2,0.7c0.1,0.4-0.1,0.9-0.4,1.2s-0.5,0.6-0.4,0.6s-0.4,1-1,2.3c-1.7,3.3-1.5,5.1,0.6,4.8c0.6-0.1,1,0,1,0.2
		s0.3,0.3,0.7,0.2c0.4-0.1,0.7,0,0.7,0.2s0.2,0.3,0.3,0.2s1.6,0.7,3.2,1.7c1.6,1.1,3.2,1.9,3.6,1.9c0.6,0,0.7-0.1,0.2-0.4
		c-0.5-0.3-0.5-0.4,0-0.7c0.4-0.3,0.4-0.3,0-0.4c-0.7,0-3.2-1.1-3.2-1.5c0-0.2-0.2-0.3-0.5-0.3s-0.4-0.2-0.3-0.4s0.5-0.3,0.7-0.2
		c0.4,0.2,0.4,0.1,0.1-0.5c-0.2-0.4-0.5-0.7-0.7-0.7c-2,0,0.2-2.6,2.3-2.7c1.6-0.1,2.3,0.3,1.3,0.9c-1.1,0.6,5.7,8,7,7.5
		c0.2-0.1,0.5,0.1,0.8,0.3s1.4,0.4,2.5,0.3c2.9-0.1,5.3,0.6,4.9,1.4c-0.1,0.2,0,0.4,0.2,0.4c0.2,0.1,0.4,0.6,0.4,1.1s0.2,1,0.4,1
		s0.2,0.6,0.2,1.2c-0.1,0.7,0,1.2,0.2,1.2s0.2,0.4,0.2,0.9c-0.1,0.5-0.1,0.9,0.1,0.9c0.1,0,0.3,0.7,0.3,1.6c0,0.9-0.1,1.6-0.2,1.6
		c-0.1,0-0.3,0.6-0.3,1.4c0,0.8,0.1,1.4,0.3,1.4s0.3,0.5,0.2,1.2s0,1.1,0.1,1c0.2-0.1,0.3,0.1,0.3,0.5s0.3,1.4,0.7,2.3
		c1,2.3,0.9,3.1-0.1,2.8c-0.5-0.1-1.2,0-1.6,0.2c-1,0.6-0.7,0.8,0.5,0.4c1.4-0.5,1.8,1.5,0.5,2.9c-0.2,0.3-0.5,0.8-0.5,1.2
		c-0.5,3.5-0.5,4.1,0.4,6.7c0.7,1.9,0.8,2.8,0.6,3.1c-0.2,0.2-0.4,1.1-0.4,2v1.6l2.7-0.2c1.5-0.1,3.1-0.4,3.6-0.6
		c1.3-0.5,7.7,0.3,7.7,0.9c0,0.1,0.5,0.3,1.1,0.3s1.2,0.2,1.3,0.4c0.1,0.2,0.5,0.3,0.9,0.2c0.4-0.1,0.9,0,1,0.1
		c0.1,0.2,0.5,0.3,0.9,0.2c0.4-0.1,0.9,0,1.2,0.2c0.3,0.2,0.6,0.3,0.7,0.2c0.3-0.3,6.6,1.3,6.4,1.6c-0.1,0.2,0,0.3,0.2,0.3
		s0.4,0.4,0.4,0.8c0,1.7,3.6,2.4,6,1.1c0.6-0.3,1-0.4,1-0.3s0.2,0,0.5-0.2c0.4-0.3,0.7-0.3,1.3,0c1.4,0.8,2.1,0.6,2.3-0.5
		c0.2-1.1,3.9-4.2,5.1-4.2c0.4,0,1-0.6,1.6-1.8c0.9-1.7,2.5-2.3,3.6-1.3c0.3,0.3-0.2,1.4-0.6,1.1c-0.6-0.3-0.7,0.6-0.1,1.4
		c0.3,0.4,0.5,0.9,0.4,1.1c-0.2,1,0.1,1.1,1.6,1c1.4-0.1,1.7,0,2.4,1c0.9,1.2,2.2,0.9,1.7-0.4c-0.5-1.2-1.3-2.2-1.8-2.2
		c-0.8,0-0.2-0.9,0.7-0.9c2-0.1,2-0.1,1.2-3.7c-0.1-0.5-0.2-1.1-0.3-1.4c-0.3-1.7-1-2.4-2.2-2.5c-0.4,0-0.8-0.1-0.8-0.3
		c0-0.2-0.3-0.2-0.7-0.1c-0.4,0.1-1.2-0.3-2.3-1.3c-1.6-1.4-3.1-1.8-3.5-1.1c-0.1,0.2-0.8,0.4-1.5,0.4s-1.9,0.3-2.6,0.7
		c-0.9,0.5-1.4,0.5-1.7,0.3c-0.7-0.7-0.4-1.3,0.6-1.5c2.1-0.5,2.4-0.6,3.9-1.8l1.5-1.3l-1.2-1c-0.8-0.6-1.6-1-2.3-1
		c-1.8,0-2.1-1.1-0.4-1.3c1.2-0.1,1.2-0.1,0.7-0.5c-0.8-0.5-0.1-1.7,1-1.9c0.6-0.1,1.4-0.6,1.9-1.1c0.8-0.9,1.6-1.2,1.6-0.6
		c0,0.4,3.9,0.1,4.5-0.4c1.8-1.4,1.8-4,0-5.9c-1.7-1.7-2.3-3.2-1.7-3.6c0.3-0.2,0.2-0.6-0.5-1.4c-0.5-0.6-0.9-1-0.9-0.9
		s-0.2,0-0.5-0.2s-0.4-0.6-0.3-0.8c0.4-0.7,0.4-1.4-0.1-2.4c-0.6-1.2-0.3-1.8,0.8-1.5c0.5,0.1,0.8,0.1,0.8-0.1
		c0-0.2,0.2-0.4,0.5-0.4c1.6,0,1-3.3-0.6-3.6c-1.3-0.2-4.1-0.1-4.1,0.2c0,0.4-1.5,0.3-2.1-0.1c-0.4-0.3-0.3-0.4,0.6-0.6
		c0.6-0.1,1.5-0.6,2-1c1-0.9,2-1.1,2.4-0.5c0.2,0.3,0.4,0.4,0.6,0.1c0.5-0.7,1.9-1.3,2.9-1.1c0.6,0.1,1,0.1,1-0.1
		c0-0.2,0.3-0.4,0.7-0.5c0.5-0.2,0.7-0.4,0.5-0.9s0-0.7,0.8-0.9c0.5-0.1,1.5-0.7,2.1-1.2s1.7-1.3,2.4-1.8c1.8-1.2,1.7-1.4-1.3-1.4
		c-2.4,0-2.7-0.1-3.3-0.9c-1.4-2.1-3.4-3.6-4.6-3.7c-0.6,0-1.1-0.2-1.1-0.4c0-0.3-0.5-0.3-1.4-0.1c-1.3,0.2-1.4,0.2-1.4-0.5
		c0-0.6,0.2-0.7,2.2-0.5c4.2,0.3,4.8,0.4,5.7,1.1c0.5,0.4,1.5,0.8,2.1,1c0.7,0.1,1.2,0.3,1.2,0.4c0,0.1,0.4,0.2,0.9,0.2
		s0.9-0.1,0.9-0.3s0.3-0.2,0.7-0.1c0.4,0.1,0.7,0,0.7-0.1c0-0.3,3.6-1.4,4.9-1.5c0.3,0,0.7-0.1,0.9-0.3c0.2-0.2,0.9-0.2,1.7-0.1
		c1.2,0.2,1.3,0.1,1.2-0.8c-0.1-0.7,0.2-1.1,0.8-1.4c1.5-0.7,1.7-1.2,0.6-1.2c-1.4,0-1.6-0.9-0.6-2.6c1-1.8,0.6-2.2-2.8-2.5
		c-1.4-0.1-2.5-0.4-2.5-0.5c0-0.2-0.4-0.2-0.8-0.1c-0.4,0.1-1.1-0.1-1.5-0.4c-1-0.8-0.2-1.2,2.2-1.3c1.3,0,2.1-0.2,2.7-0.7
		c0.5-0.4,1.1-0.6,1.3-0.5c0.2,0.1,0.4,0.1,0.4-0.2c0-0.4,4.1-0.5,5.1-0.2c0.3,0.1,0.9,0.8,1.3,1.6s0.9,1.4,1.1,1.4s0.3,0.2,0.2,0.3
		c-0.1,0.2,0,0.3,0.4,0.1c1.3-0.5,1.5-0.9,1.3-2.2c-0.2-1.1-0.1-1.4,0.4-1.6c1.4-0.5,2.3-2.3,2.6-4.9c0.1-1.4,0.4-3,0.6-3.5
		c0.6-1.5,0.5-1.8-0.4-1.5c-1,0.2-0.9-0.7,0.1-1.8c0.3-0.4,0.6-0.8,0.5-1c0-0.2-0.2-0.9-0.3-1.7c-0.1-0.7-0.6-1.8-1.1-2.4
		c-0.5-0.6-0.8-1.1-0.6-1.1s0.1-0.1-0.2-0.3c-1.1-0.7,0.9-3.4,4.2-5.6c0.7-0.5,1.6-1.6,2-2.4c0.5-1.1,0.9-1.5,1.3-1.3
		c0.3,0.1,0.4,0.1,0.3-0.1c-0.1-0.2,0-0.3,0.3-0.3s0.6-0.3,0.6-0.8c0.2-1.1,2.4-1.3,3.3-0.3c0.4,0.4,0.9,0.7,1.2,0.7
		c1,0,1.1,0.4,0.2,1.6c-1,1.3-1.1,1.7-0.3,2.3c1.4,1.1-0.4,2.1-1.9,1.1c-1-0.7-1.9-0.7-2.8,0.2c-0.3,0.3-0.7,0.5-1,0.5
		c-1,0,1.1,2.2,2.3,2.5c0.6,0.1,1.1,0.1,1.1-0.1c0-0.2,0.2-0.3,0.5-0.1c0.3,0.1,0.5,0.1,0.3-0.1c-0.1-0.2,0.2-0.3,0.9-0.3
		c0.6,0,1.1,0.1,1.1,0.3s0.3,0.3,0.6,0.3c0.8-0.1,1,1.1,0.4,1.6s-1.1,1.6-0.6,1.6c0.2,0,0.3,0.2,0.3,0.5c0,0.8,1.4,1.2,2.3,0.8
		c0.9-0.4,1.4-1.3,0.9-1.6c-0.2-0.1-0.5-1-0.8-1.9l-0.4-1.7l1.3-1.2c0.7-0.7,1.6-1.6,2-2.2c1.1-1.4,3.6-0.6,3.8,1.2
		c0.1,0.8,0,1.1-0.3,0.9c-0.2-0.1-0.4,0-0.4,0.2s-0.3,0.3-0.7,0.2c-0.7-0.2-0.7-0.2,0,0.8c2.1,2.8,4.5,1.9,4.5-1.7
		c0-2,0.6-3,2.4-3.9c0.7-0.4,1.8-1.3,2.5-2c0.6-0.7,1.7-1.9,2.3-2.5c0.9-0.9,1.2-1.6,1.3-3.2c0.5-3.8,1-5.4,1.7-5.4
		c0.9,0-3.4-4.9-6-6.9c-0.5-0.4-3.3-0.4-4.3,0c-0.3,0.1-1.1,0.2-1.7,0.1c-0.6-0.1-1-0.1-1,0.2c0,0.2-0.6,0.3-1.4,0.2
		c-0.8-0.1-1.4,0-1.4,0.2s-0.7,0.2-1.6,0.1c-0.9-0.1-1.6,0-1.6,0.1c0,0.2-0.6,0.3-1.4,0.3c-1,0-1.4-0.1-1.2-0.4
		c0.2-0.3-0.1-0.3-1.1-0.2c-1.4,0.3-4.8-0.7-4.8-1.3c0-0.2-0.1-0.2-0.3-0.1c-0.4,0.2-2.7-1.8-2.4-2.1s-1.1-2.3-1.6-2.2
		c-0.2,0-0.8,0.5-1.3,1.1c-0.5,0.5-1.3,1.2-1.9,1.5c-1.4,0.7-1.9,1.8-1.8,4.3c0,1.7-0.1,2.3-0.5,2.4c-0.8,0.3-1.3-0.4-0.8-1
		c0.5-0.5,0.7-2.1,0.2-2.1c-0.2,0-0.3-0.4-0.3-0.9s0.2-0.9,0.3-0.9c0.2,0,0.3-0.3,0.3-0.6c-0.1-0.7,2.6-3.3,4.7-4.3
		c2-1,3-2.9,2.4-4.7c-0.8-2.3-1-2.5-2.5-1.7c-1.4,0.8-3.3,0.9-3.6,0.3c-0.1-0.2-0.6-0.3-1.1-0.2c-0.7,0.2-1.1,0-1.7-0.7
		c-1-1.1-1.8-1.1-2.3-0.1c-0.6,1.3-1.9,1.9-2.8,1.3c-0.6-0.4-0.8-0.3-1.2,0.3c-0.5,0.7-6,2.7-6.4,2.3c-0.3-0.3,5.5-3.2,6.5-3.4
		c0.1,0,0.5-0.2,0.7-0.4s0.7-0.3,1-0.2s0.5,0.1,0.5-0.1c0-1,3.1-1.5,4.2-0.7c0.6,0.4,1.3,0.7,1.5,0.5c0.2-0.1,1.6-0.3,3.2-0.3
		c3.5-0.1,3.4,0,1.9-3.1c-1-1.9-1.3-3-1.3-4.3c0-3.1-0.1-4-0.4-4c-0.2,0-0.3-0.5-0.2-1.1c0.1-0.6,0-1.1-0.1-1.1
		c-0.3,0-0.4-1.2-0.1-1.5c0.1-0.1,0.3-0.8,0.3-1.5s0.4-1.7,0.8-2.3l0.8-1l-1.5-0.1c-0.8,0-1.9,0-2.3,0c-1.1,0.1-5.6-2.4-7.9-4.4
		c-2.8-2.4-4.2-3-4.9-2.1c-0.4,0.5-0.7,0-0.4-0.6c0.3-0.8,2.4-0.6,3.4,0.4c0.4,0.4,1.3,0.9,1.9,1.1s2,1,3,1.8c3.3,2.6,5,3.3,7.7,3
		c3.5-0.3,3.5-0.3,3.3-0.7c-0.1-0.2,0.1-1,0.4-1.7c0.3-0.7,0.5-1.4,0.5-1.5c0-0.1,0.2-0.6,0.5-1.2c0.3-0.6,0.5-1.5,0.5-2.1
		c0-2.5,2.5-6.5,5.3-8.5c1.2-0.8,2.1-1.7,2.1-2.1c0-0.3-0.2-2.2-0.5-4.1c-0.7-4.8-0.7-6.4,0.2-8.2c0.9-1.9,0.8-2.5-1.7-5.7
		c-2.7-3.6-3.9-6.3-3.1-7.2c0.1-0.1,0.3-0.4,0.3-0.7c0.2-1.1,1.7-3.8,3.1-5.4c0.9-1,1.6-1.8,1.6-2c0-0.5,3-2.3,4.1-2.6
		c0.6-0.1,1.1-0.3,1.1-0.4c0-0.2-1.2-1.1-1.4-1.1C148.7,62.1,147.9,62.3,147,62.4 M175.4,93.1c-0.4,0.2-1.7,0.4-3,0.3
		c-1.9,0-2.4,0.1-2.6,0.5c-0.1,0.3-0.4,0.5-0.6,0.3c-0.2-0.1-0.4,0-0.4,0.2s-0.5,0.3-1.3,0.2c-1.2-0.2-1.5-0.1-2.9,1.2
		c-0.8,0.8-1.7,1.3-1.9,1.3c-0.2-0.1-0.6,0-0.9,0.2c-1,0.6,0.9,2,3.5,2.6c0.5,0.1,1.2,0.7,1.6,1.3c0.7,1,2.5,2,2.9,1.6
		c0.1-0.1,0.1-0.2-0.1-0.2c-0.3,0,0.2-0.6,2.1-2.6c1.3-1.5,1.5-2.7,0.6-3.8c-0.6-0.7-0.6-0.7,0.5-0.5c0.6,0.1,1,0,0.9-0.1
		c-0.1-0.2,0.7-0.3,1.8-0.3c1.2,0,1.9,0.1,1.8,0.4c-0.1,0.2-0.1,0.4,0.1,0.4c0.5,0,0.8-1.7,0.4-2.5
		C177.6,92.6,176.4,92.5,175.4,93.1 M62.2,119.4c-0.5,0.8-1.7,1-1.7,0.3c0-0.2-0.3,0.2-0.7,1c-0.9,1.8-1.7,2.7-2.2,2.5
		c-0.2-0.1-0.9,0.1-1.6,0.3c-0.7,0.2-2.3,0.5-3.5,0.7c-2.6,0.2-3.3,0.7-3.3,2.3c0,0.6-0.2,1.2-0.5,1.5c-0.8,0.7-0.6,1.7,0.4,1.7
		c0.5,0,0.9,0.1,0.9,0.2c0,0.6-1.2,1.2-2.3,1.2c-2,0-3.8,0.9-3.5,1.7c0.1,0.5-0.2,1-1.1,2c-1.4,1.4-1.4,2,0,1.3
		c1.8-0.9,4,0.3,5.6,3.2c0.7,1.3,0.8,1.3,1.6,0.8c0.5-0.3,1.3-0.6,2-0.7c1.8-0.2,2.7-0.6,2.7-1.1c0-0.3,0.5-0.8,1.2-1.2
		c2-1.3,4.3-4.4,3.9-5.5c-0.1-0.3,0-0.5,0.2-0.5c0.3,0,0.2-0.2-0.1-0.6c-0.3-0.3-0.6-0.9-0.6-1.4s-0.2-1.2-0.4-1.6
		c-0.9-1.6,0.8-3.5,2.1-2.3c1.2,1.1,2-1.5,1.4-4.2c-0.1-0.4,0-1.1,0.3-1.5c0.3-0.4,0.3-0.8,0.1-0.8C62.8,118.7,62.4,119,62.2,119.4
		 M28.5,135.9c0,2.2,0.1,2.4,1,1.9c0.4-0.2,0.4-0.5,0.1-1c-0.2-0.4-0.5-1.2-0.7-1.9C28.6,133.8,28.6,133.8,28.5,135.9 M200.2,137.1
		c-0.5,0.2-1.4,0.3-2,0.2s-1.1,0-1.1,0.1c0,0.2-0.6,0.3-1.2,0.3c-1.7,0-1.7,1.1-0.1,2.1c1.5,0.9,1.6,0.9,3.1-0.8
		c0.9-0.9,1.5-1.4,1.8-1.2s0.4,0.1,0.2-0.1c-0.1-0.2,0-0.4,0.2-0.5s0.4-0.2,0.3-0.3C201.1,136.8,200.7,136.9,200.2,137.1
		 M113.2,142.2c0.7,0.4,0.1,0.7-1.7,0.9c-1.8,0.2-3.5-0.1-3.5-0.6c0-0.2,0.4-0.3,0.8-0.1c0.4,0.1,1,0.1,1.3-0.1
		C110.8,141.9,112.6,141.8,113.2,142.2 M232.2,179.9c-1.6,0.3-4.7,2-8.7,4.8c-1.8,1.2-3.4,2.2-3.6,2.1c-0.2-0.1-0.3-0.1-0.3,0.1
		c0,0.2-1.4,1.1-3.2,2c-3.1,1.7-4.5,2.9-4.5,4c0,0.7,2.9,0.4,4.2-0.4c2-1.2,5.2,0.1,5.4,2.3c0,0.4,0.1,0.9,0.1,1.1
		c0,0.2,0.2,0.5,0.3,0.7c0.3,0.2,1,6.3,0.7,6.7c-0.1,0.1,0,0.3,0.2,0.3c0.4,0,1.1,2.7,1.4,4.8c0.3,2.9-1.8,5.9-3.5,5
		c-0.8-0.4-0.9-1.5-0.1-1.2c0.6,0.2,0.7-0.2,0.1-0.8c-0.6-0.6-1.6-0.5-1.9,0.3c-0.3,1-1.9,2.1-2.9,2.1c-1.1,0-1.1-0.9,0.1-1.6
		c0.5-0.3,1.1-1.1,1.4-1.8c0.5-1.3,1.4-1.8,1.9-1.2c0.4,0.4,1.2,0.2,2.1-0.5c0.6-0.5,0.7-3,0.2-3.8c-0.1-0.2-0.4-0.9-0.6-1.7
		c-0.2-0.8-0.8-2.1-1.3-2.9c-0.7-1.2-0.8-1.8-0.6-2.7c0.1-0.8,0.1-1.2-0.1-1.2c-0.2,0-0.9-0.5-1.6-1.1c-2.3-2.1-3-1.1-1.4,2.1
		c1.6,3.3,1.4,4.3-1.4,5.3c-1.8,0.7-4,4-3,4.6c0.6,0.4-0.1,3.2-0.8,3.2c-0.2,0-0.2,0.1-0.1,0.3c0.2,0.4-1.4,2.5-1.9,2.5
		c-0.2,0-0.2-0.5-0.1-1.1c0.2-1.3-1.8-3.8-2.5-3.1c-0.5,0.5-3.2,0.4-3.7-0.1c-0.5-0.6,1.1-1.2,3.2-1.3c1.7-0.1,2-1.5,0.6-3.1
		c-0.5-0.6-1-1-1-0.8c0,0.5-1.9,1.1-2.9,0.9c-0.7-0.1-0.7-0.1-0.3,0.2c0.7,0.5-1.7,0.5-2.5,0c-0.4-0.3-0.4-0.3,0.2-0.3
		c0.4,0,1.2-0.5,1.9-1.1s1.3-1,1.3-0.8c0.2,0.5,1.8,0.1,2.6-0.6c0.3-0.3,0.5-0.7,0.4-0.7c-0.4-0.2-3.6-4.8-3.6-5.1
		c0-0.9,1-1.2,1.9-0.6c1.3,0.9,2.4,0.8,2.1-0.2c-0.1-0.5,0.1-1.1,0.7-1.8c1.5-1.7,0.8-2.5-1.3-1.3c-2,1.2-6,1.7-7.7,1
		c-1.7-0.6-2.7-0.8-7.4-1.1c-1.3-0.1-2.5-0.2-2.8-0.3s-1.3-0.5-2.3-0.8s-1.9-0.8-2-1s-0.3-0.1-0.5,0.3c-0.1,0.4-0.3,0.8-0.4,1
		s0,0.2,0.2,0.1c0.2-0.1,1.7,0.3,3.4,0.8c1.8,0.6,3.3,1,3.7,0.8c0.9-0.3,2.9,0.7,3.8,1.8c0.8,1,1,2.9,0.3,2.9
		c-0.2,0-0.3,0.2-0.2,0.4c0.4,1.1-0.8,2.4-1.9,2.2c-0.6-0.1-1-0.1-1,0.1c0,0.6-1.9,1.4-3,1.2c-0.9-0.2-1-0.1-0.7,0.5
		c0.4,0.8,0.3,2.7-0.1,2.9c-0.2,0.1-0.2,0.4-0.1,0.8c0.2,0.7-1,1.6-1.6,1.3c-0.2-0.1-1.1,0.2-2,0.7c-1.4,0.8-2,0.9-3.6,0.8
		c-2.1-0.2-2.7,0.1-1.3,0.7c1.1,0.5,0.9,1.2-0.3,1.4c-1,0.1-3.2-1.3-3.4-2.1c-0.1-0.4,0.1-0.6,0.9-0.6c1,0,1,0,0.1-0.3
		c-0.5-0.1-1-0.1-1.1,0.1c-0.1,0.2-0.5,0.2-0.8,0.1c-0.3-0.1-0.6,0-0.7,0.2c-0.1,0.2-1.4,0.5-2.9,0.6c-2,0.1-2.7,0.1-2.5-0.2
		s-0.3-0.3-1.6-0.2c-1.2,0.1-1.9,0.1-2.1-0.2c-0.2-0.3-0.5-0.3-1.1-0.1s-0.7,0.3-0.2,0.4c0.3,0,0.6,0.2,0.6,0.4s0.5,0.3,1.3,0.1
		c1.1-0.2,1.4-0.1,2.7,1.2c0.8,0.8,1.6,1.5,1.9,1.5c0.3,0,0.5,0.1,0.5,0.3s0.3,0.2,0.6,0.2c0.5-0.1,2.2,0.9,2.2,1.4
		c0,0.1-1.7,0.1-3.7,0.1s-3.7,0.1-3.7,0.3s0.2,0.2,0.4,0.1c0.2-0.1,0.5-0.1,0.8,0.1c0.2,0.1,0.7,0.3,1,0.3c1.3,0.1,5.3,1.6,5.3,1.9
		c0,0.2,0.1,0.3,0.3,0.2c0.2,0,0.8,0.4,1.4,1.1c0.6,0.6,1,1.1,0.9,1.1s0.1,0.3,0.4,0.6c1.1,1.1,0.1,3.4-1.2,3.2
		c-0.6-0.1-1.8,1-1.8,1.7c0,0.2,0.2,0.4,0.5,0.4s0.5-0.1,0.5-0.3c0-1.9,4.5,1.9,4.7,4c0,0.4,0.2,0.6,0.3,0.6s0.3,0.4,0.3,1
		c0,0.5,0.1,1.4,0.1,2c0.1,0.8,0,1-0.5,1c-0.3,0-0.6,0.1-0.6,0.3s-0.2,0.3-0.4,0.3s-0.8,0.3-1.3,0.7s-1.4,0.7-2,0.7
		c-0.9,0-1.1,0.1-1.1,0.8c0.1,1.4,0.7,1.7,1.7,0.9c0.9-0.7,2.9-0.9,3.2-0.3c0.1,0.2-0.2,0.5-0.7,0.7c-1.3,0.5-1.2,0.7,1.2,2.4
		c1.7,1.2,2.1,1.7,2.1,2.5c0,0.7,0.2,1,0.7,1.2c0.4,0.1,0.7,0.4,0.7,0.6c0,0.2-0.3,0.3-0.7,0.2c-1-0.3-0.9,1,0.2,2.1
		c1,1,1.4,1.1,1.7,0.3c0.1-0.4,0.7-0.5,1.9-0.5c0.9,0,2.4-0.2,3.2-0.5c1.2-0.4,1.6-0.4,1.8-0.1c0.2,0.2,0.3,0.3,0.3,0.2
		s0.4-0.1,1,0.1s1.5,0.4,2.2,0.5c1.5,0.1,4.7,1,4.4,1.2c-0.1,0.1,0.3,0.2,0.9,0.2c0.6,0,1.2,0.2,1.2,0.4c0.2,0.7,0.7,0.5,2-0.9
		c1.9-1.9,4.2-1.1,3,1.1c-0.6,1.2-0.2,1.7,1.4,1.5c1.3-0.2,2.8,0.5,2.8,1.2c0,0.3-1.3,0.6-3.2,0.8s-1.4,1.3,1.4,2.9
		c1.6,0.9,2.5,1.7,2.5,2.3c0,0.4-1.7,0.4-1.9-0.1c-0.1-0.2-0.4-0.3-0.5-0.2c-0.2,0.1-0.7,0-1.3-0.2c-0.9-0.3-1-0.3-0.3,0.2
		c0.4,0.3,1.4,0.7,2.2,0.9c0.8,0.2,1.4,0.5,1.3,0.7c-0.1,0.2,0.1,0.2,0.4,0.1c0.7-0.3,1.6,0.7,2.6,2.6l0.8,1.5l-0.8,0.5
		c-0.4,0.3-1,0.5-1.2,0.5s-0.9,0.3-1.3,0.6c-0.8,0.5-0.9,0.5-1.5,0c-0.8-0.7-2.1-0.7-3.2,0l-0.8,0.6l0.8,0.6c0.8,0.6,1,1.2,1.2,3.4
		c0,0.8,0.5,1.6,1.4,2.5c0.7,0.7,1.3,1.7,1.3,2.1s0.6,1.3,1.3,2c2.6,2.4,3,3,2.6,3.6c-0.5,0.6-0.2,1.3,0.7,1.3s0.9,0.6-0.2,2
		c-0.9,1.1-1.3,3.7-0.6,3.7c0.2,0,0.5,0.4,0.7,0.8c2.2,4.5,3.4,5.4,4.1,3.1c0.2-0.8,0.2-1.4-0.1-1.9c-0.2-0.4-0.3-1-0.2-1.3
		c0.1-0.4,0-0.8-0.2-0.9c-1-0.6-0.4-2.8,1.2-4.4c0.9-0.9,2.3-2.6,3.3-3.9c1.7-2.3,5.2-5,6-4.7c0.6,0.2-3.1-4-4-4.5
		c-0.5-0.3-0.7-0.3-0.8,0c-0.5,1.6-5.4-1.3-5.5-3.3c0-0.5-0.9-0.7-0.9-0.2c0,0.2-0.2,0.4-0.5,0.4s-0.6,0.3-0.7,0.7
		c-0.2,0.9-1,0.9-1.8,0.1c-0.5-0.6-0.5-0.8-0.1-2c0.3-0.8,0.4-1.6,0.3-1.8c-0.6-1.8,1.7-2,4-0.4s3,1.8,4.7,1
		c0.8-0.4,1.6-0.6,1.8-0.5s0.3,0,0.3-0.2s0.5-0.4,1.1-0.4c1.7,0,2-1.2,0.9-3.5c-1-2-1-2.8,0.2-3.4c2.6-1.2,1.1-3.1-2.7-3.3
		c-4-0.3-5.6-1.6-3.4-2.9c1.8-1.1,3.7-0.1,2.9,1.5c-0.3,0.6-0.3,0.7,0.1,0.7c0.7,0,0.9-0.4,1.1-1.8c0.1-1.1,2-3.3,2.5-2.9
		c0.1,0.1,0.2,0.1,0.2-0.1c0-0.5,1.7-1.2,2.5-1c0.4,0.1,0.7,0,0.7-0.2c0-0.3,0.3-0.4,0.9-0.2c0.5,0.1,0.9,0,0.9-0.2s0.5-0.3,1.2-0.1
		c0.7,0.1,1.2,0.1,1.1-0.1c-0.1-0.2,0.4-0.4,1.1-0.5c4.3-0.7,7.5-2.6,6.5-4c-0.3-0.5-0.5-1.2-0.4-1.6c0.6-2.3-4.1-6.1-7.1-5.7
		c-1,0.1-1.5,0.1-1.5-0.2c0-0.2-0.1-0.3-0.3-0.2c-0.6,0.4-2.7-1.9-3.3-3.6l-0.6-1.7l1.1-2.1c1.3-2.4,4.1-5.1,7.1-6.6
		c2.1-1.1,2.4-1.1,5.2-0.4c1.2,0.3,1.3,0.3,1.5-0.5c0.1-0.5,0.7-1.2,1.4-1.5c1.9-1.1,3.8-4.3,3.5-5.8c-0.1-0.7-0.1-1.4,0-1.6
		c0.5-0.9,0.1-4.2-0.8-6.1c-0.5-1.1-0.8-2.3-0.8-2.7c0.1-0.4-0.1-1.1-0.4-1.4c-2.2-2.4-2.2-2.4-1.4-3.6c0.4-0.6,1-1.7,1.4-2.5
		s1.4-2.2,2.2-3.1c1.2-1.5,1.3-1.8,0.9-2c-0.3-0.2-0.8-0.6-1.1-0.9s-1.1-0.8-1.8-1.1s-1.8-0.9-2.4-1.4c-1-0.7-1.5-0.9-3.2-0.8
		c-1.5,0.1-2.4-0.1-3.7-0.7c-0.9-0.4-1.9-0.8-2.3-0.8c-0.6,0-0.6-0.1-0.2-0.3C236.3,179.5,234.1,179.5,232.2,179.9 M144.6,190
		c-0.8,1-0.5,2.8,0.6,3.5c1.8,1.2,3.1,3.6,1.8,3.6c-0.2,0-0.3,0.2-0.2,0.3c0.1,0.2-0.6,0.9-1.5,1.7c-1.6,1.2-2.5,3.6-1.4,3.6
		c0.1,0,0.3,0.4,0.3,0.8c0,2.2,2.4,3.1,4.5,1.6c0.7-0.5,0.7-0.8,0.9-3.6c0-0.9,0.3-1.9,0.5-2.1c0.4-0.3,0.3-0.5-0.3-1.2
		c-0.4-0.5-0.6-0.8-0.5-0.8c0.2,0,0.1-0.2-0.1-0.5c-0.3-0.4-0.3-0.7,0-1.2c0.5-1,0.5-1.1-0.3-1.1c-0.9,0-2.6-1.9-2.3-2.6
		c0.1-0.3,0.1-0.6-0.2-0.6c-0.2,0-0.4-0.5-0.4-1.1C146,189.3,145.4,189.1,144.6,190 M249.4,212c-0.2,0.4-1.1,1.5-2,2.4
		c-3,3.1-1,7.9,2.4,5.7c0.7-0.4,1.4-0.8,1.5-0.7c0.4,0.1,2-1.4,2-1.9c0-0.2-0.5-1.3-1.1-2.5s-1-2.3-0.8-2.5c0.1-0.2,0.1-0.3-0.1-0.2
		c-0.2,0.1-0.4-0.1-0.5-0.5C250.5,211,249.9,211,249.4,212 M132.9,217.3c-0.1,1.3-0.9,1.8-1.2,0.7c-0.3-1-1.3-0.9-3.9,0.3
		c-1.2,0.6-2.4,1.1-2.8,1.2c-0.4,0.1-0.9,0.2-1.1,0.4c-0.3,0.2-0.6,0.2-0.7,0.1c-0.1-0.1-0.4,0-0.7,0.2c-0.3,0.2-0.7,0.3-1,0.2
		s-0.6,0-0.7,0.2s-0.4,0.3-0.7,0.2c-0.3-0.1-0.5-0.1-0.6,0.1c-0.2,0.5-5.9,3.3-6.2,3c-0.2-0.1-0.4,0-0.5,0.2
		c-0.3,0.8-3.1-0.3-3.5-1.5c-0.4-1-2.4-1.9-2.7-1.1c-0.1,0.2-0.4,0.4-0.7,0.4c-0.3,0-1.1,0.5-1.6,1.1c-0.6,0.6-1.1,1-1.2,0.9
		c-0.2-0.2-1.5,0.9-1.5,1.3c0,0.2,0.3,0.3,0.6,0.3c0.8,0,3.6,1.7,3.6,2.1c0,0.2,0.1,0.3,0.3,0.3c0.4-0.1,1.8,0.9,1.8,1.2
		c0,0.5-1.6,0.3-2.6-0.4c-1.5-1-2.7-1-1.8,0c0.3,0.4,1,0.7,1.5,0.7s0.8,0.1,0.6,0.4c-0.2,0.3,0,0.3,0.7,0.2c0.7-0.2,1.2,0,2,0.7
		c1.5,1.2,1.3,2.4-0.3,2.5c-2.1,0.2,0.1,2.5,2.4,2.5c1,0,1.2,0.1,1.2,0.8c0.4,6.8,0.4,7,1.6,7.6c1.3,0.6,2.2,0.9,2.7,0.9
		c0.4,0,0.5,0.3,0.4,1.1c-0.2,2.2,0.7,5,1.6,5.3c1.3,0.3,1.3,0,0.1-1.9c-1.5-2.4-0.8-4,1-2.2c0.7,0.7,1.8,0.9,1.8,0.4
		c0-1.1,2.6-0.2,3.4,1.2c1.3,2,1.1,3-0.6,3.4c-0.3,0.1-0.6,0.2-0.7,0.3s-0.5,0.4-0.9,0.7c-0.6,0.4-0.7,0.7-0.4,1
		c0.3,0.4,0.4,0.4,0.6,0c0.2-0.3,0.7-0.4,1.5-0.3c0.8,0.2,1,0.1,0.7-0.1c-0.3-0.2-0.4-0.3-0.2-0.3c0.6,0,2.7,1.4,2.9,1.9
		c0.4,1,0.9,0.6,0.7-0.5c-0.2-0.8-0.1-1.1,0.5-1.3c0.8-0.2,4.9,1.5,4.9,2c0,0.2,0.7,0.3,1.6,0.2c0.9-0.1,1.6-0.1,1.6,0.1
		c0,0.4,2.1,1,3.7,1c0.8,0,2.2,0.3,3.1,0.6c1.6,0.6,1.7,0.6,2.5-0.1c1.5-1.3,2.4-1.6,5.4-1.5c1.8,0,2.9-0.1,2.9-0.3s0.2-0.4,0.5-0.4
		s0.8-0.6,1.1-1.4c0.3-0.8,1-1.7,1.5-2.2s0.8-1,0.6-1.4c-0.1-0.3,0.1-1.3,0.5-2c1.1-2.2,1-4.7-0.3-6.4c-1.5-1.9-1.2-3.2,0.8-3.2h0.9
		l-0.6-1.6c-0.9-2.5-6.1-8.3-7.8-8.6c-2.4-0.5-3.5-0.3-3.7,0.4c-0.2,0.9-1.4,0.8-1.6-0.1c-0.2-1.1,1.3-1.7,3.7-1.4
		c1.2,0.1,2.2,0.2,2.3,0c0.1-0.1,0.7-0.5,1.5-0.8c2.1-0.8,2.3-1.4,1-2.9c-0.6-0.7-1.1-1.5-1.1-1.8c0-1-3.9-5.8-4.4-5.3
		c-0.3,0.3-0.8,4.8-0.4,4.6c0.2-0.1,0.2,1.2-0.1,2.3c0,0.1-0.3-0.1-0.5-0.3c-0.3-0.2-0.6-0.3-0.7-0.1c-0.1,0.2,0.1,0.5,0.5,0.8
		c0.9,0.7,0.9,1.9,0,1.6c-0.4-0.1-0.7-0.1-0.8,0c-0.2,0.5-3.5,1.8-4,1.6c-0.3-0.1-0.5,0-0.5,0.3c0,1.4-2,2.1-3,1
		c-0.6-0.7,1-3.2,2.1-3.2c0.8,0,1.4-1,0.7-1.3c-0.5-0.2-0.5-0.5-0.4-1.4c0.2-1.1,0.1-1.2-0.7-1.2c-0.6,0-1.2-0.4-2-1.4
		c-0.6-0.7-1.9-1.7-2.8-2.2c-1-0.4-1.7-1-1.7-1.1s-0.1-0.2-0.3-0.1c-0.2,0.1-0.4,0-0.5-0.2C133.4,215.8,133,216.2,132.9,217.3
		 M35,228c-0.5,1.9,3.3,8.5,4.6,8c0.5-0.2,0.5-0.4,0-1.8c-0.4-1.2-0.5-1.9-0.2-2.8c0.4-1.4,0.2-1.8-1.1-2c-0.9-0.1-1-0.3-1-1
		C37.3,227.1,35.3,226.7,35,228 M359.2,239c-0.3,0.2-0.4,0.3-0.2,0.3c0.2,0,0.1,0.2-0.1,0.5s-0.3,0.6-0.2,0.7
		c0.1,0.1-0.2,0.8-0.7,1.5s-0.9,1.8-0.9,2.3c0,0.6-0.1,1-0.3,1c-0.1,0-0.3,1.5-0.3,3.3s-0.1,3.6-0.2,4.1c-0.1,1,3.3,3.7,5.3,4.1
		c0.6,0.1,1.1,0.3,1.1,0.5c0,0.1,0.4,0.2,0.9,0.1s0.9,0,0.9,0.1c0,0.2,0.3,0.3,0.6,0.4c0.3,0,1.6,0.5,2.9,1s3.3,1.1,4.6,1.3
		c1.3,0.2,2.3,0.5,2.2,0.7c-0.1,0.2-0.1,0.3,0.1,0.3c0.7-0.1,2.3-2.5,2.4-3.6s1.2-3.2,2.1-3.8c0.2-0.2,0.2-0.4-0.1-0.6
		c-0.3-0.2-0.4-0.7-0.3-1.3c0.2-1-0.5-2.5-0.9-2c-0.3,0.3-2.7-0.6-2.7-0.9c0-0.2-0.1-0.3-0.3-0.2c-0.6,0.2-3.5-1.6-4.1-2.6
		c-0.6-0.9-1.5-1.3-2.8-1.1c-0.7,0.1-5.5-3.3-6.7-4.7C360.1,238.6,360,238.5,359.2,239 M42.9,246.4c-1.9,0.2-3,1.1-3.1,2.8
		c0,0.3-0.1,1.3-0.3,2.2c-0.4,2.8,1.6,4.8,3.2,3.1c0.3-0.4,0.9-0.8,1.3-0.9c0.5-0.2,0.7-0.6,0.7-1.7c0-0.9,0.2-1.6,0.4-1.7
		c0.3-0.1,0.2-0.2-0.2-0.2c-0.3,0-0.7-0.2-0.8-0.4c-0.3-0.4,0.8-1.8,1.3-1.6c0.6,0.3,0.6-0.8,0-1.3C45,246.4,44.3,246.3,42.9,246.4
		 M165.6,249.2c-0.3,0.1-1.1,0.8-1.6,1.5c-0.6,0.7-1.2,1.2-1.3,1.1c-0.2-0.1-0.2-0.1-0.1,0.1c0.2,0.4-0.8,3.6-1.2,3.6
		c-0.1,0-0.2,0.3-0.1,0.6c0.2,0.7-2.7,4.5-3.8,4.8c-2,0.6-5.9,6.2-4.2,5.9c0.7-0.1,1.1,1.3,0.5,1.5c-0.3,0.1-0.8,0-1.2-0.2
		c-0.6-0.3-0.7-0.3-0.5,0.1c0.4,1-1.4,2.9-2.6,2.8c-1.3-0.1-1.2,0.2,0.6,1.8c0.7,0.6,1.1,1.2,1,1.5c-0.1,0.2,0,0.5,0.2,0.6
		s0.4,0.6,0.4,1.3c0,0.6,0.2,1.1,0.3,1.1c0.2,0,0.2,0.2,0.1,0.5c-0.2,0.6,0.4,0.9,1.7,0.9c1,0,1.4-0.5,2-2.4
		c0.2-0.8,0.6-1.5,0.7-1.5s0.2-0.2,0.1-0.5c-0.1-0.3-0.1-0.5,0.1-0.5c0.2,0,0.3-0.4,0.4-0.9c0-0.5,0.2-1,0.5-1.2
		c0.2-0.1,0.4-0.4,0.4-0.5s0-0.4,0.1-0.7c0.1-0.2,0.3-1,0.5-1.8c0.2-0.7,0.6-1.3,0.8-1.3s0.3-0.1,0.2-0.3c-0.3-0.5,0.6-2.6,2.1-4.9
		c0.8-1.2,1.7-3,1.9-4s0.5-1.8,0.7-1.8c0.1,0,0.2-0.4,0.2-0.9s0.2-1.2,0.3-1.5c0.3-0.8,0.3-0.7,0.8-2.6c0.2-0.9,0.6-1.8,0.8-1.9
		C167.3,249.2,166.7,248.7,165.6,249.2 M46.3,250.1c-0.2,0.4-0.1,0.5,0.3,0.4c0.3-0.1,0.6-0.2,0.7-0.2c0.1,0,0.1-0.2,0.1-0.4
		C47.5,249.4,46.5,249.5,46.3,250.1 M200.7,253.8c-0.3,0.5,0.9,1.3,2.5,1.7c1.7,0.5,2.2,0.5,2.2,0.1c0-0.3-2.6-1.5-3.3-1.5
		c-0.3,0-0.5-0.2-0.5-0.4C201.6,253.4,201,253.3,200.7,253.8 M103.3,254.5c-4,1.5-5.5,2.8-2.8,2.4c1.1-0.2,2.2,0.4,1.3,0.7
		c-1.5,0.5,0.1,1.5,2.6,1.5c2,0,3.1,0.4,2.8,0.9c-0.1,0.3,0.2,0.7,0.9,1c1.3,0.7,2.2,2.7,1.5,3.1c-0.5,0.3-2.9-1.3-2.9-1.9
		c0-0.2-0.2-0.3-0.4-0.1c-0.2,0.1-0.4,0.8-0.4,1.6c0,2.4,3.4,4.6,5,3.2c0.9-0.8,3.5-0.3,5.2,0.9c1.8,1.3,1.2,1.7-1,0.6
		c-1.7-0.9-2.8-1.1-3.5-0.6c-0.5,0.3,1.1,1.3,2,1.2c0.3,0,1,0.2,1.6,0.6c1,0.6,1.1,0.6,2.6-0.2c1-0.6,1.9-0.8,2.6-0.7
		c1,0.1,1.5-0.5,0.7-0.9c-0.2-0.1-0.6-0.9-0.9-1.9c-1.8-4.7-4.4-7.1-8.5-8c-0.6-0.1-1.9-1-2.9-1.8
		C106.8,254.4,104.9,253.8,103.3,254.5 M232.4,256.1c-0.4,0.4-0.2,0.8,0.8,1.7c1,0.9,1,1,0.5,1.7c-0.4,0.6-0.4,0.8-0.1,1
		c1.7,0.6-2,1.3-4,0.8c-0.8-0.2-1-0.1-1,0.5c0,0.5-0.2,0.7-0.8,0.7c-1,0-1.9,0.9-1.4,1.5c0.3,0.3,0.2,0.7-0.3,1.6
		c-0.8,1.5-0.9,1.4,0.4,1.7c0.6,0.1,1,0.4,0.9,0.5c-0.1,0.2,0.1,0.2,0.5,0.1s0.7,0,0.7,0.2c0,0.8,1.7-0.1,3.5-1.9
		c3.2-3.1,5.3-3.9,8.1-3.3c6.1,1.4,7.3,1.2,6.9-1.1c-0.2-1.4-1.7-2.9-2.7-2.9c-0.3,0-0.7-0.1-0.8-0.2s-0.6-0.3-1-0.3
		c-0.4-0.1-1.5-0.2-2.4-0.3c-0.9-0.1-2.4-0.3-3.4-0.4c-1.2-0.1-1.8-0.3-1.6-0.6c0.1-0.2,0.1-0.3-0.2-0.1c-0.3,0.2-0.6,0-1-0.5
		C233.6,255.9,232.9,255.7,232.4,256.1 M128.1,263.2c0,0.2,0.2,0.5,0.4,0.6s0.3,0.5,0.2,0.7s-0.1,0.4,0.1,0.3
		c0.2-0.1,2.3,1.6,4.6,3.7c4.4,3.9,5.1,4.3,6,3.3c0.2-0.3,0.7-0.5,0.9-0.4c0.3,0.1,0.4,0,0.3-0.2c-0.1-0.2,0.3-0.3,1-0.3
		c1.9,0,2.1-1.5,0.3-2.7c-0.8-0.5-0.9-0.5-0.7,0c0.1,0.3,0,0.6-0.2,0.6s-0.8,0.1-1.2,0.2c-0.6,0.2-0.8,0-1.1-0.9s-0.5-1.1-0.8-0.7
		c-0.9,0.9-2.2,0.5-3.8-1.3c-0.8-1-1.7-1.8-2-1.8s-0.7-0.2-0.9-0.4c-0.3-0.2-0.7-0.5-1-0.5s-0.9-0.2-1.3-0.3
		C128.4,263,128.1,263,128.1,263.2 M178.7,263.4c0,0.2-0.4,0.3-1.2,0.2c-0.8-0.1-1.2-0.1-1.2,0.2s-0.5,0.3-1.2,0.2
		c-0.7-0.1-1.2-0.1-1.2,0.1s-0.2,0.3-0.5,0.3s-0.5-0.1-0.5-0.3c0-0.2-0.8,0.5-1.8,1.5c-1.6,1.6-2.2,2.8-1.5,3.1
		c0.2,0.1,1.2,0.9,2.3,2c2.6,2.4,2.4,3.3-0.7,3.3c-3,0-3.4,2.6-0.5,3.3c3.1,0.8,3.8,1.1,3.7,1.3c-0.1,0.1,0.2,0.2,0.5,0.1
		c0.4-0.1,0.7,0,0.7,0.1c0,0.2,0.5,0.3,1.1,0.2c0.7-0.1,1.1,0,1.1,0.3c0,0.2,0.2,0.3,0.4,0.2c0.4-0.2,0.9,0.1,5.6,2.8
		c1.3,0.7,3.7,2.1,5.4,3l3.1,1.7l1.2-0.8c2.9-2,6-2.6,9.4-1.8c4,0.9,5,1,6.1,0.6c2.2-0.7,3.4-3,1.8-3.4c-1.2-0.3-1.1-1,0.2-1.9
		c1.7-1.2,1.5-2.8-0.5-4.3c-1.8-1.3-3.9-3.8-4.5-5.3c-0.2-0.5-0.6-1-0.7-1c-0.2,0-0.9-0.5-1.7-1.1c-1.2-1-1.4-1-1.9-0.6
		c-0.6,0.6-0.7,1.3-0.2,1.3c0.6,0,0.4,1.3-0.2,1.5c-0.3,0.1-1,0.2-1.5,0.2c-1.2,0-2.1,0.9-1.5,1.5c0.5,0.5,0.5,1.7,0.1,1.7
		c-0.2,0-0.4-0.2-0.4-0.4c0-0.2-0.1-0.3-0.2-0.2c-0.1,0.1-1.1-0.2-2.2-0.8c-1.1-0.5-2.8-1.3-3.7-1.6c-0.9-0.4-1.7-0.8-1.7-0.9
		s-0.3-0.2-0.6-0.1c-0.7,0.2-2.9-1.4-2.9-2c0-0.4-1.6-2.1-1.9-2.1c-0.1,0-0.9-0.5-1.9-1C180.8,263.3,178.7,262.7,178.7,263.4"/>
	<path id="path4" class="st0" d="M142.6,69c-0.5,0.7-0.8,1.2-0.6,1c0.5-0.3,2-2.3,1.7-2.3C143.7,67.7,143.2,68.3,142.6,69
		 M129.6,72.3c-0.4,0.2-0.8,0.4-0.8,0.5c0,0.3,0.6,0.2,1.3-0.3C130.8,71.9,130.7,71.8,129.6,72.3 M125.4,73.3
		c-0.1,0.2,0,0.4,0.3,0.4s0.6-0.2,0.7-0.4s0-0.4-0.3-0.4S125.5,73.1,125.4,73.3 M111.3,78.8c-0.2,0.1-0.6,0.5-0.8,0.9
		c-0.3,0.7-0.3,0.7,0.1,0.2c0.3-0.3,0.7-0.7,1-1C112,78.6,112,78.5,111.3,78.8 M174.6,93c-1.2,0.5-1,0.7,0.3,0.3
		c0.6-0.2,1.1-0.4,1.1-0.5C175.9,92.6,175.5,92.7,174.6,93 M96.4,98.6c-0.8,1.1-1.2,1.8-0.9,1.5c0.6-0.5,2.8-3.5,2.6-3.5
		C98,96.5,97.2,97.5,96.4,98.6 M173.1,97.9c0,0.4,0.2,0.7,0.4,0.7s0.4-0.3,0.4-0.7s-0.2-0.7-0.4-0.7
		C173.2,97.2,173.1,97.6,173.1,97.9 M63,107.1c-0.5,0.4-1,0.7-1.3,0.7s-0.6,0.2-0.7,0.3c-0.4,0.6,1.8-0.3,2.5-1.1
		C64.3,106.2,64.1,106.2,63,107.1 M105.6,110.8c-0.9,0.9-1.5,1.6-1.3,1.6c0.3,0,3.3-2.7,3.3-3C107.7,108.9,107.1,109.3,105.6,110.8
		 M117.7,110.8c-0.4,0.3-0.5,0.5-0.3,0.3c0.5-0.3,2.3,0.5,2.8,1.2c0.4,0.5,0.5,0.5,0.9,0c0.4-0.4,0.4-0.5-0.1-0.3
		c-0.3,0.1-0.8-0.2-1.2-0.6c-0.4-0.5-0.8-0.7-1.2-0.6c-0.4,0.1-0.5,0.1-0.3-0.2C118.7,110.1,118.5,110.2,117.7,110.8 M110.5,112.7
		c0,0.2,0.2,0.4,0.5,0.4s0.6-0.2,0.7-0.4s-0.1-0.4-0.5-0.4C110.8,112.4,110.5,112.5,110.5,112.7 M92.3,113.4
		c0.1,0.2,1.2,0.4,2.3,0.4c1.2,0,2.1-0.2,2.1-0.4c0-0.2-1-0.4-2.3-0.4C93,113.1,92.2,113.2,92.3,113.4 M125.1,114.8l0.7,0.8
		l-0.8-0.1c-1.1-0.3-1-0.1,0.4,0.7c1.6,0.9,1.6-0.2,0-1.4l-1-0.8L125.1,114.8 M41.2,114.7c-0.3,0.1-0.7,0.5-1,0.9
		c-0.4,0.7-0.4,0.7,0.6-0.1c0.9-0.6,1.4-1.2,1-1C41.7,114.5,41.4,114.6,41.2,114.7 M66.4,115.2l-0.8,0.7l0.8-0.5
		c0.5-0.3,1.1-0.4,1.3-0.3c0.3,0.1,0.5,0.1,0.5,0C68.2,114.5,67.1,114.6,66.4,115.2 M86.7,114.7c-0.4,0.1-0.9,0.3-1,0.5
		c-0.2,0.2,0.2,0.2,0.8,0C88.3,114.7,88.5,114.3,86.7,114.7 M88.9,115.1c-0.1,0.1,0.4,0.3,1,0.3c0.7,0,1.2-0.1,1.2-0.3
		c0-0.1-0.5-0.3-1-0.3S89,115,88.9,115.1 M60.9,116.8c0,0.4,1,1.3,1.2,1.1c0.1-0.1-0.1-0.5-0.5-0.8
		C61.2,116.8,60.9,116.6,60.9,116.8 M133.5,117.3c-0.1,0.2-1.2,0.3-2.5,0.3c-1.2,0-2.3,0-2.5,0.1c-0.3,0.3,3.6,0.3,4.8,0.1
		c0.5-0.1,1-0.3,1-0.5C134.4,116.8,133.8,116.9,133.5,117.3 M38,117.8c-0.5,0.4-1.5,2-1.3,2c0.1,0,0.6-0.6,1.1-1.2
		C38.8,117.2,38.8,117.1,38,117.8 M57.7,118.6c-0.7,0.5-1,0.8-0.8,0.8s0.8-0.4,1.4-0.9C59.5,117.4,59.3,117.5,57.7,118.6 M62,119.1
		c-0.7,1-0.4,1.1,0.4,0.1c0.3-0.5,0.5-0.8,0.3-0.8S62.2,118.7,62,119.1 M76,122.7c-0.4,0.7-0.7,1.5-0.7,1.8c0,0.5,0.1,0.4,0.3-0.2
		c0.2-0.5,0.6-1.3,0.9-1.8s0.5-0.9,0.4-0.9C76.8,121.5,76.4,122.1,76,122.7 M48.4,123.6c-0.5,0.6-0.9,1.2-0.8,1.5
		c0.1,0.4,0.2,0.4,0.2,0c0-0.3,0.5-1,1-1.5s0.9-1,0.8-1S48.9,123,48.4,123.6 M60.2,124.8c0,0.5,1.7,1.2,2,0.9
		c0.1-0.2,0.1-0.3-0.1-0.2c-0.2,0.1-0.6,0-0.8-0.3C60.8,124.7,60.2,124.5,60.2,124.8 M48,128c-0.4,0.7-0.5,1-0.2,1.3
		s0.4,0.2,0.4-0.3c0-0.4,0.3-0.9,0.6-1.3c0.3-0.4,0.4-0.6,0.2-0.6C48.7,127.1,48.3,127.6,48,128 M29.4,128.7
		c-0.3,0.7-0.5,1.2-0.5,1.2c0.1,0,0.5-0.6,0.9-1.2c0.4-0.7,0.6-1.2,0.5-1.2C30.2,127.5,29.8,128.1,29.4,128.7 M77,128.3
		c0,0.2-0.3,0.8-0.7,1.2c-0.9,0.9-0.7,2.9,0.4,3.9c0.6,0.6,0.6,0.5,0-0.8c-0.8-1.6-0.9-2.4-0.1-3s1.3-1.7,0.9-1.7
		C77.2,127.9,77,128,77,128.3 M72,131.4c0.2,0.3,0.6,1,0.8,1.6l0.4,1.1L73,133c-0.1-0.6-0.5-1.3-0.8-1.6
		C71.7,130.9,71.7,130.9,72,131.4 M132.3,131.5c0,0.4,0.1,1,0.3,1.4l0.3,0.7v-0.7c0-0.4-0.1-1-0.3-1.4l-0.3-0.7V131.5 M63.3,132.1
		c-0.5,0.4-0.7,0.7-0.5,0.7s0.7-0.3,1-0.7C64.7,131.2,64.5,131.2,63.3,132.1 M43.7,132.9c0,0.7,0.1,1.1,0.2,1.1
		c0.3-0.3,0.3-2.3,0-2.3C43.8,131.7,43.7,132.3,43.7,132.9 M27.8,134.9c0,1.4,0.2,2.4,0.4,2.4c0.2,0,0.4-0.9,0.4-2.1
		c0-1.3,0.2-2.1,0.4-2.2c0.2-0.1,0.1-0.2-0.4-0.3C27.8,132.5,27.8,132.6,27.8,134.9 M40.9,135.6c0,0.7,0.1,1,0.2,0.6
		c0.1-0.3,0.1-0.9,0-1.2C41,134.6,40.9,134.9,40.9,135.6 M57.7,135.7l-0.8,1.1l1-1c0.6-0.5,0.9-1,0.8-1.1
		C58.6,134.7,58.2,135.1,57.7,135.7 M78.9,136c-0.4,1-0.4,1.1,0.1,0.5c0.4-0.6,0.7-1.6,0.4-1.6C79.4,134.9,79.1,135.4,78.9,136
		 M74.6,136.2c0.5,0.6,0.9,1,1,1c0.1-0.1-0.3-0.6-0.8-1.1l-1-1L74.6,136.2 M41.5,137.4c0,0.2,0.2,0.4,0.5,0.4s0.5-0.2,0.5-0.4
		S42.3,137,42,137C41.8,137,41.5,137.2,41.5,137.4 M28.9,138c-0.3,0.2-0.4,0.4-0.3,0.6c0.1,0.1,0.5,0,0.8-0.3
		C30,137.7,29.7,137.5,28.9,138 M121.2,138.8c-0.1,0.2-0.4,0.3-0.5,0.2c-0.4-0.3-0.7,0.3-0.4,0.8c0.2,0.2,0.5,0.1,0.9-0.5
		c0.3-0.5,0.6-0.8,0.5-0.8S121.3,138.6,121.2,138.8 M40.6,139.3c0.9,0.7,1.4,0.7,2-0.1c0.4-0.6,0.4-0.6-0.1-0.1
		c-0.5,0.4-0.8,0.4-1.6,0.1C40,138.8,40,138.8,40.6,139.3 M73.2,139.7c-0.5,0.5-0.6,0.8-0.3,0.7c0.5-0.2,1.6-1.6,1.3-1.6
		C74.1,138.8,73.6,139.2,73.2,139.7 M132.5,139.2c-0.4,0.2-1.2,0.3-1.9,0.2s-1.1-0.1-1,0.1c0.3,0.5,2.4,0.4,3.2-0.2
		C133.6,138.7,133.4,138.6,132.5,139.2 M51.5,139.4c-0.4,0.1-0.8,0.3-1,0.5s0.3,0.1,1.1-0.1C53.6,139.2,53.6,138.9,51.5,139.4
		 M135.5,140.2c0.2,0.6,0.4,1,0.5,0.9c0.2-0.2-0.5-2-0.7-2C135.2,139.1,135.3,139.6,135.5,140.2 M110.1,142.3
		c-0.5,0.3-0.5,0.3,0,0.3c0.3,0,0.8-0.2,1.1-0.3c0.5-0.3,0.5-0.3,0-0.3C110.9,141.9,110.4,142.1,110.1,142.3 M54.3,142.7
		c-0.1,0.2-0.6,0.5-1,0.7c-0.5,0.2-0.6,0.3-0.2,0.3c0.3,0,0.8-0.3,1.2-0.7c0.3-0.4,0.5-0.7,0.4-0.7
		C54.7,142.3,54.5,142.4,54.3,142.7 M82.9,142.8c-0.1,0.3-0.3,0.8-0.3,1.1c-0.1,0.3-0.1,0.5,0,0.5c0.3,0,0.9-1.8,0.7-2
		C83.1,142.3,83,142.4,82.9,142.8 M112,142.8c-1.4,0.5-1.4,0.5-0.2,0.3c0.7-0.1,1.4-0.3,1.6-0.5C113.8,142.2,113.8,142.2,112,142.8
		 M40.8,144.2c0,0.6,1,1.7,1.3,1.5c0.1-0.1-0.1-0.6-0.5-1C41.2,144.2,40.8,144,40.8,144.2 M38.1,147.4c0.4,0.3,0.8,0.4,0.9,0.3
		c0.2-0.2-0.7-0.8-1.2-0.8C37.6,146.9,37.8,147.1,38.1,147.4 M43.2,149c-0.3,0.4-0.5,0.7-0.3,0.7s0.6-0.3,0.9-0.7
		c0.4-0.4,0.5-0.7,0.3-0.7S43.5,148.6,43.2,149 M54.2,149.5c-0.2,0.5-0.3,1.6-0.3,2.4c0,1.4,0.1,1.3,0.3-0.5
		c0.1-1.1,0.4-2.2,0.5-2.4s0.2-0.4,0-0.4C54.6,148.6,54.4,149,54.2,149.5 M129.6,149.4c-0.2,0.2-0.4,1.1-0.5,1.8
		c-0.2,1.4,0,1.1,0.7-1.1C130.1,148.9,130.1,148.7,129.6,149.4 M46.1,151.2c0,0.3,0.2,0.5,0.4,0.5s0.4-0.2,0.4-0.5s-0.2-0.5-0.4-0.5
		S46.1,151,46.1,151.2 M161.9,152.3c0.5,0.6,1,0.9,1.1,0.8c0.1-0.1-0.4-0.5-1-1l-1.1-0.8L161.9,152.3 M46.7,153
		c0.1,0.3,0.6,0.8,1.1,1.1l0.9,0.6l-0.8-0.7c-0.4-0.4-0.8-0.9-0.8-1.1s-0.1-0.4-0.3-0.4S46.5,152.7,46.7,153 M22.4,157.9
		c0.1,2.9,0.2,5.3,0.3,5.4c0.2,0.3,0.1-6.4-0.2-8.6C22.4,153.5,22.3,154.8,22.4,157.9 M129.1,154c-0.1,0.8-0.1,1.2,0.1,1
		c0.2-0.2,0.3-0.8,0.2-1.3C129.3,152.7,129.3,152.8,129.1,154 M164.5,161.4c-0.3,1.4-0.4,3.8-0.2,3.5s0.6-4.3,0.4-4.3
		C164.7,160.6,164.6,160.9,164.5,161.4 M22.7,171.4c0,2.3,0.1,4.2,0.3,4.1c0.3-0.2,0.3-3.8-0.1-6.5
		C22.7,167.5,22.6,168.1,22.7,171.4 M138,168c-0.1,0.1,0.4,0.2,1.1,0.1c0.9-0.1,1.5,0,2,0.5l0.7,0.6l-0.7-0.8
		C140.6,167.6,138.4,167.4,138,168 M157.1,171.5c-0.5,0.4-0.9,0.8-0.8,0.9c0.1,0.1,0.6-0.2,1.1-0.7
		C158.6,170.6,158.4,170.5,157.1,171.5 M131.3,175.2c-0.8,0.7-1.6,1.6-1.9,2c-0.2,0.4,0,0.3,0.6-0.4c0.6-0.6,1.5-1.5,2.1-2
		s1-0.9,0.9-0.9C132.8,173.9,132.1,174.5,131.3,175.2 M136.5,174.3c-0.7,0.2-0.8,0.3-0.2,0.3c0.4,0,0.9-0.1,1.2-0.3
		C138.2,173.9,137.7,173.9,136.5,174.3 M154.5,177.8c-0.5,0.2-1,0.2-1.2,0.1c-0.3-0.2-0.3-0.1,0,0.2c0.4,0.4,2.3,0,2.3-0.5
		C155.5,177.4,155.5,177.4,154.5,177.8 M146.7,181c0,0.2-0.2,0.4-0.5,0.4s-0.6,0.1-0.7,0.3c-0.1,0.2,0.2,0.2,0.7,0.1
		c0.7-0.1,1.3-1.1,0.7-1.1C146.8,180.6,146.7,180.8,146.7,181 M228.4,181.2c-0.6,0.3-1.2,0.6-1.3,0.8s0.4,0,1.2-0.3
		c0.8-0.4,1.4-0.8,1.4-0.8C229.7,180.6,229.8,180.6,228.4,181.2 M25.3,181.4c0,0.1,0.5,0.3,1.1,0.6c0.6,0.2,1,0.3,0.8,0.1
		C26.9,181.7,25.3,181.2,25.3,181.4 M30.5,184.1c0.1,0.4,0.3,0.7,0.5,0.7c0.5,0,0.4-0.6-0.2-1C30.4,183.5,30.3,183.5,30.5,184.1
		 M32.4,190.2c0,0.1,0.5,0.6,1.1,1.1l1.1,1l-1-1.1C32.7,190.2,32.4,190,32.4,190.2 M192.8,191.9c0.3,0.2,0.8,0.4,1.2,0.4
		c0.9,0,0.6-0.2-0.7-0.5C192.5,191.6,192.4,191.6,192.8,191.9 M186.5,192.2c0.3,0.2,0.9,0.4,1.4,0.6c0.6,0.2,0.7,0.1,0.4-0.1
		c-0.3-0.2-0.9-0.4-1.4-0.6C186.2,191.9,186.1,191.9,186.5,192.2 M216.4,192.2c-1.2,0.5-0.9,0.7,0.4,0.3c0.6-0.2,1.2-0.4,1.3-0.5
		C218.4,191.8,217.2,191.9,216.4,192.2 M146.4,192.5c0,0.3,2.1,2.3,2.2,2.1c0.1-0.1-0.4-0.7-1.1-1.3
		C146.9,192.8,146.4,192.4,146.4,192.5 M198.1,192.6c0.1,0.3,0.4,0.5,0.6,0.6c0.3,0.1,0.4,0,0.3-0.3c-0.1-0.3-0.4-0.5-0.6-0.6
		S198,192.3,198.1,192.6 M245.8,193.7l-0.6,1.1l0.7-0.9c0.6-0.8,0.9-1.4,0.6-1.4C246.5,192.6,246.1,193.1,245.8,193.7 M220.8,194.2
		c0.1,0.6,0.4,1.3,0.5,1.6c0.2,0.3,0.2,0.1,0.1-0.5c-0.1-0.6-0.4-1.3-0.5-1.6C220.7,193.3,220.7,193.5,220.8,194.2 M146.9,195.9
		c0,0.7,0.1,1.2,0.3,1.2c0.4,0,0.3-1.5,0-2C146.9,194.9,146.8,195.2,146.9,195.9 M205.2,196c0.3,0.1,0.9,0.1,1.2,0s0.1-0.2-0.6-0.2
		C205.1,195.8,204.9,195.9,205.2,196 M221.9,199.2c0.2,2.2,0.4,2.4,0.4,0.3c0-0.9-0.1-1.7-0.3-1.8
		C221.9,197.6,221.8,198.3,221.9,199.2 M216.5,199.8c0,0.7,0.1,1,0.3,0.8c0.4-0.6,0.4-1.6,0-1.8
		C216.7,198.7,216.5,199.2,216.5,199.8 M113.7,199.2c-2.4,0.2-2.9,0.5-2.3,1.2c0.4,0.3,0.4,0.3,0.3-0.1c-0.1-0.4,0.3-0.6,1.8-0.6
		c1.1-0.1,2.1-0.3,2.3-0.4c0.2-0.2,0.3-0.3,0.2-0.3C116,199,114.9,199.1,113.7,199.2 M149.5,202.8c-0.1,0.8,0,1.4,0.1,1.4
		s0.3-0.6,0.3-1.4s-0.1-1.4-0.1-1.4C149.7,201.4,149.5,202,149.5,202.8 M26.6,202.1c-0.4,0.2-0.8,0.2-1,0.1c-0.2-0.1-0.2,0-0.1,0.2
		c0.3,0.4,1.5,0.2,1.8-0.3C27.5,201.7,27.5,201.7,26.6,202.1 M201.4,203.2l-1.1,1.1l1.3-0.8c0.7-0.4,1.3-0.9,1.3-1.1
		C203,201.8,202.5,202.1,201.4,203.2 M213.4,202.4c-0.4,0.2-0.5,0.3-0.2,0.3s0.8-0.1,1.2-0.3s0.5-0.3,0.2-0.3
		C214.3,202.1,213.8,202.3,213.4,202.4 M221,203.2c0.6,1.7,1,1.9,0.5,0.3c-0.2-0.8-0.5-1.4-0.6-1.4
		C220.7,202.1,220.8,202.6,221,203.2 M249.5,204.9c0,1.1,0.1,1.5,0.1,1c0.1-0.5,0.1-1.4,0-1.9C249.6,203.4,249.5,203.8,249.5,204.9
		 M118.9,204.7c-0.6,1.2-0.2,2,1,1.9l1-0.1l-1-0.1c-1-0.2-1.2-0.7-0.6-1.9c0.2-0.4,0.3-0.7,0.2-0.7S119.1,204.2,118.9,204.7
		 M174.7,207.7c0.1,0.5,0.5,1.2,0.9,1.6c0.6,0.6,0.7,0.6,0.2,0c-0.3-0.4-0.7-1.1-0.9-1.6l-0.4-0.9L174.7,207.7 M204.2,208.8
		l-1.8,0.2l1.7,0.1c0.9,0,1.7-0.1,1.9-0.3c0.1-0.2,0.2-0.3,0.1-0.3S205.2,208.6,204.2,208.8 M206.9,208.9c0.3,0.3,0.7,0.7,1,1
		c0.4,0.4,0.4,0.4,0.1-0.2c-0.2-0.4-0.7-0.8-1-1C206.4,208.4,206.4,208.5,206.9,208.9 M217.8,209.2c-0.2,0.2-0.4,0.6-0.4,0.8
		s0.2,0.1,0.5-0.3c0.3-0.4,0.7-0.6,1.1-0.4c0.4,0.1,0.5,0.1,0.4-0.1C219.1,208.6,218.3,208.7,217.8,209.2 M118.4,209.6
		c0.2,0.6,0.1,0.6-0.5,0.5c-0.4-0.1-0.7-0.1-0.6,0.1c0.3,0.4,1.1,0.4,1.4-0.1c0.1-0.2,0.1-0.6-0.2-0.8
		C118.3,209,118.2,209.1,118.4,209.6 M96.1,209.9c0.2,0.1,1.6,0.3,3.1,0.2c3.1,0,2.6-0.2-1-0.4C96.9,209.7,95.9,209.7,96.1,209.9
		 M98.2,210.9c0,0.2,0.3,0.4,0.7,0.4s0.7-0.2,0.7-0.4s-0.3-0.4-0.7-0.4S98.2,210.7,98.2,210.9 M209.7,211.6c-0.4,0.6-0.9,1-1.1,0.9
		c-0.2-0.1-0.3,0-0.3,0.2c0,0.8,1.4-0.2,2.3-1.6C211,210.2,210.5,210.5,209.7,211.6 M249.7,210.8c-0.4,0.4-0.2,0.8,0.3,0.6
		c0.3-0.1,0.5-0.3,0.5-0.5C250.5,210.5,250,210.4,249.7,210.8 M102,212.6c0.5,0.4,1,0.7,1.1,0.7c0.6,0,0.3-0.3-0.8-0.9l-1.1-0.6
		L102,212.6 M165,213.2c0,0.3,0.1,0.4,0.2,0.2c0.1-0.3,0.8-0.4,2.5-0.2c1.3,0.1,2.3,0.1,2.2,0C169.3,212.7,165,212.6,165,213.2
		 M215,213.1c0,0.4,0.3,0.6,0.9,0.6c0.5,0,0.9-0.2,0.9-0.3c0-0.2-0.3-0.2-0.6-0.1c-0.3,0.1-0.7,0-0.9-0.3
		C215,212.6,215,212.6,215,213.1 M22.7,216.2c-0.3,0.6-0.5,1.1-0.4,1.1s0.4-0.5,0.7-1.1c0.3-0.6,0.5-1.1,0.4-1.1
		S23,215.6,22.7,216.2 M173,216.1c-0.1,0.2,0.4,0.8,1,1.3c0.7,0.5,1.3,0.9,1.3,0.9C175.5,217.9,173.1,215.8,173,216.1 M252.8,216.1
		c0.1,0.3,0.4,0.9,0.5,1.4c0.2,0.8,0.3,0.8,0.3,0.2c0-0.4-0.2-1-0.5-1.4C252.8,215.9,252.6,215.8,252.8,216.1 M238.5,216.7l-0.9,0.5
		l0.9-0.2c0.5-0.1,1-0.4,1.2-0.5C240.3,216,239.5,216.1,238.5,216.7 M245.6,217.1c0,1.3,0.6,2.8,1.6,3.6c0.4,0.4,0.4,0.2-0.2-0.6
		c-0.4-0.6-0.9-1.8-1.1-2.6C245.7,216.1,245.6,216.1,245.6,217.1 M150.2,217.4c0.5,0.5,0.9,0.8,1,0.7c0.2-0.2-1-1.6-1.5-1.6
		C149.6,216.5,149.8,216.9,150.2,217.4 M129.5,217.1c0,0.2,0.6,0.2,1.2,0.1c0.7-0.1,1.2-0.2,1.2-0.3s-0.6-0.1-1.2-0.1
		C130,216.9,129.5,217,129.5,217.1 M135.4,217.3c0.5,0.3,0.9,0.4,1,0.4c0.2-0.2,0-0.4-1-0.6l-0.9-0.2L135.4,217.3 M105.9,219.1
		c-0.5,0.5-0.7,0.9-0.5,0.9c0.4,0,0.9-0.4,1.5-1.1C107.6,217.9,106.8,218.2,105.9,219.1 M175.7,219.9c0,0.5,0.1,0.8,0.3,0.8
		c0.1,0,0.3-0.3,0.3-0.7s-0.1-0.8-0.3-0.8C175.8,219.1,175.7,219.4,175.7,219.9 M232.8,220.7c-0.7,0.7-1.3,1.5-1.3,1.6
		c0,0.2,0.3-0.1,0.8-0.7c0.4-0.5,1.1-1.1,1.6-1.3s0.8-0.5,0.8-0.7C234.7,219,234.1,219.3,232.8,220.7 M139.7,220.6
		c0.5,0.5,1,0.9,1.1,0.8c0.1-0.1-0.3-0.5-1-1l-1.1-0.8L139.7,220.6 M105,221.7c-0.4,0.3-1,1-1.4,1.5c-0.5,0.6-0.3,0.5,0.6-0.3
		c0.7-0.6,1.5-1.1,1.8-1.1s0.6-0.2,0.6-0.4C106.6,220.9,105.8,221,105,221.7 M142,221.8c0.1,0.6,0.3,0.6,0.5,0.3
		c0.4-0.7,0.4-1-0.2-1C142,221.1,141.9,221.3,142,221.8 M153.4,221.9c0,0.3,0.4,1.1,0.9,1.6s0.7,0.7,0.4,0.3s-0.7-1.1-0.9-1.6
		C153.6,221.5,153.4,221.4,153.4,221.9 M29,223c-0.4,0.3-0.5,0.5-0.3,0.5s0.5-0.1,0.6-0.3s0.4-0.3,0.5-0.2c0.2,0.1,0.3,0,0.3-0.2
		C30.3,222.3,29.8,222.4,29,223 M109.4,223.1c0,0.3,2.3,1.2,3,1.2c0.3,0,0.5-0.2,0.5-0.3c0-0.2-0.2-0.3-0.5-0.2s-1.1-0.1-1.8-0.3
		C110,223.1,109.4,223,109.4,223.1 M27.1,223.9c1.2,0.8,1.9,1.1,1.1,0.4c-0.5-0.4-1-0.7-1.2-0.7C26.7,223.6,26.8,223.7,27.1,223.9
		 M29.9,224.2c0.3,0.2,0.8,0.3,1.1,0.3c0.5,0,0.5,0,0-0.3c-0.3-0.2-0.8-0.3-1.1-0.3C29.4,223.9,29.4,223.9,29.9,224.2 M143.9,226.9
		c-0.5,0.3-0.7,0.5-0.5,0.5s0.7-0.2,1.2-0.5s0.7-0.5,0.5-0.5S144.4,226.6,143.9,226.9 M146.9,227.6c-0.7,0.5-0.7,0.6,0.1,0.2
		c0.6-0.3,0.9-0.3,1.1,0c0.1,0.2,0.8,0.3,2,0.1l1.7-0.3h-1.4c-0.8,0-1.7-0.1-2.1-0.2C147.9,227.1,147.3,227.3,146.9,227.6
		 M106,227.8c-0.2,0.2-0.4,0.6-0.4,0.8s0.2,0.1,0.4-0.3c0.3-0.5,0.5-0.6,1-0.2c0.5,0.4,0.5,0.4,0.1-0.2
		C106.4,227.3,106.5,227.3,106,227.8 M139.8,228.8c0.1,0.2,0.5,0.4,0.9,0.4s0.6-0.2,0.5-0.4s-0.5-0.4-0.9-0.4
		C139.9,228.5,139.7,228.6,139.8,228.8 M153.7,230.1c0.5,0.5,0.9,0.9,0.9,0.9c0.1,0-0.1-0.4-0.5-0.9c-0.3-0.5-0.7-0.9-0.9-0.9
		S153.3,229.6,153.7,230.1 M36.3,232.9c0.3,0.6,0.8,1.4,1.1,1.8c0.3,0.4,0.2,0.1-0.2-0.7C36.3,232.2,35.6,231.4,36.3,232.9
		 M156.6,233.2c0.5,0.5,0.9,0.9,0.9,0.9c0.1,0-0.1-0.4-0.5-0.9c-0.3-0.5-0.7-0.9-0.9-0.9S156.1,232.7,156.6,233.2 M174.3,234.1
		l-1.4,0.3l1.3,0.1c0.7,0,1.4-0.1,1.5-0.3s0.2-0.3,0.1-0.3C175.8,233.8,175.1,234,174.3,234.1 M98.9,235.4c0.3,0.3,0.7,0.5,0.9,0.3
		c0.1-0.1,0-0.4-0.3-0.6C98.7,234.6,98.3,234.8,98.9,235.4 M99.6,236.8c-0.3,0.3-0.4,0.6-0.3,0.7c0.3,0.3,1-0.5,0.9-0.9
		C100.1,236.4,99.9,236.5,99.6,236.8 M242.2,240.3c-0.6,0.4-0.6,0.5-0.1,0.5c0.3,0,0.7-0.2,0.8-0.4
		C243.3,239.8,243,239.7,242.2,240.3 M239.9,241.7c-0.5,0.3-0.7,0.5-0.5,0.5s0.7-0.2,1.2-0.5s0.7-0.5,0.5-0.5
		C241,241.2,240.4,241.4,239.9,241.7 M180.1,242c0,0.3,0.4,0.6,0.9,0.7c0.5,0.1,0.8,0.4,0.7,0.5c-0.1,0.2,0,0.3,0.2,0.3
		c0.7,0,0.4-0.8-0.3-1c-0.4-0.1-0.7-0.4-0.7-0.7s-0.2-0.5-0.4-0.5C180.3,241.5,180.1,241.7,180.1,242 M356.4,244.7
		c0,0.4,0.2,0.7,0.4,0.7c0.2,0,0.4-0.3,0.4-0.7s-0.2-0.7-0.4-0.7C356.5,243.9,356.4,244.3,356.4,244.7 M188,245
		c-0.4,0.2-1.5,0.3-2.5,0.3s-1.9,0.1-2,0.3c-0.3,0.4,4.4-0.1,5.2-0.6C189.6,244.6,189.1,244.6,188,245 M190.7,244.9
		c0,0.2,1.8,0.9,2,0.7c0.1-0.1-0.3-0.3-0.9-0.5C191.2,244.9,190.7,244.8,190.7,244.9 M42.4,246.1c-0.1,0.2,0.1,0.4,0.5,0.4
		s0.7-0.2,0.7-0.4s-0.2-0.4-0.5-0.4C42.8,245.7,42.5,245.9,42.4,246.1 M225.5,246.6c-0.4,0.5-0.7,1.1-0.7,1.3s0.2,0.1,0.4-0.3
		c0.2-0.4,0.6-1,0.9-1.3c0.3-0.3,0.4-0.6,0.3-0.6C226.4,245.7,225.9,246.1,225.5,246.6 M40.6,246.9c-0.4,0.5-0.8,1.7-0.6,1.7
		c0.1,0,0.4-0.5,0.7-1.1C41.1,246.4,41.1,246.1,40.6,246.9 M98.9,247.1c0,0.2,0.2,0.4,0.5,0.4s0.5-0.2,0.5-0.4s-0.2-0.4-0.5-0.4
		C99.1,246.8,98.9,246.9,98.9,247.1 M44.5,248.5c-0.5,0.6-0.6,0.8-0.2,1.1c0.4,0.3,0.4,0.3,0.2,0s0-0.8,0.4-1.1
		c0.3-0.4,0.5-0.7,0.4-0.7C45.2,247.8,44.8,248.1,44.5,248.5 M50.9,248.9c0.3,1.5,0.5,1.8,0.5,0.7c0-0.5-0.2-1.1-0.4-1.4
		C50.8,247.8,50.7,248,50.9,248.9 M93.2,248.4c-1.1,0.4-1.2,0.5-0.3,0.5c0.5,0,1.1-0.2,1.4-0.5c0.2-0.3,0.4-0.5,0.3-0.5
		S93.9,248.1,93.2,248.4 M356.2,250.1c-0.1,0.5-0.2,1-0.1,1.1s0.3-0.3,0.4-0.8s0.2-1,0.1-1.1C356.5,249.3,356.4,249.6,356.2,250.1
		 M47.6,250c0.1,0.2,0.3,0.5,0.6,0.6s0.3-0.1,0.2-0.4C48.1,249.5,47.4,249.4,47.6,250 M50.3,251.4c0.2,1,0.2,1,0.3,0.3
		c0.1-0.5,0-1-0.2-1.2C50.2,250.4,50.2,250.7,50.3,251.4 M116.8,250.5c0,0.7,0.8,1.2,1.7,1.2c0.9,0,0.9,0-0.2-0.4
		c-0.6-0.2-1.2-0.6-1.3-0.8C116.9,250.2,116.8,250.2,116.8,250.5 M90.6,251.4c0,0.2,0.6,0.5,1.3,0.6c0.7,0.1,1.4,0.3,1.7,0.5
		c0.5,0.4,0.5,0.3,0-0.2c-0.3-0.4-1-0.6-1.6-0.6C91.3,251.7,90.7,251.5,90.6,251.4C90.5,251.1,90.5,251.2,90.6,251.4 M355.8,253.4
		c0,0.4,0.3,0.7,0.6,0.7c0.4,0,0.4-0.1,0-0.6c-0.3-0.3-0.5-0.7-0.6-0.7C355.7,252.7,355.7,253,355.8,253.4 M39.8,254
		c0,0.6,1.3,1.6,1.8,1.4c0.3-0.1,0.3-0.2-0.1-0.2c-0.3,0-0.8-0.4-1.1-0.8C40,254,39.8,253.8,39.8,254 M42.8,254.4
		c-0.7,0.7-0.7,1.1-0.2,1.1c0.4,0,1.2-1.4,1-1.6C43.5,253.9,43.1,254.1,42.8,254.4 M164.9,254.1c-0.3,0.5-0.7,2.4-0.4,2.2
		c0.3-0.3,0.9-2.4,0.7-2.4C165.1,253.8,165,253.9,164.9,254.1 M93.8,255.4c-1.3,1.1-1.3,1.2-0.3,0.7c1.1-0.5,2.1-1.5,1.8-1.7
		C95.2,254.3,94.5,254.8,93.8,255.4 M204.2,254.9c0.1,0.2,0.4,0.3,0.7,0.3s0.6,0.2,0.7,0.5c0.1,0.3,0.4,0.4,0.8,0.3
		c0.3-0.1,0.4-0.3,0.3-0.5C206.1,255.1,204,254.5,204.2,254.9 M100.7,255.2c-1.2,0.5-1,0.7,0.3,0.3c0.6-0.2,1.1-0.4,1.1-0.5
		C102,254.8,101.6,254.9,100.7,255.2 M108.3,255.7c0.5,0.5,0.9,0.9,1,0.8c0.3-0.3-0.3-0.9-1.1-1.3
		C107.5,254.8,107.5,254.8,108.3,255.7 M202.3,255.6c1.2,0.4,2.1,0.4,1.2,0c-0.4-0.2-1-0.3-1.4-0.3
		C201.5,255.3,201.6,255.3,202.3,255.6 M101,256.9c0,0.2,0.3,0.4,0.6,0.6c0.3,0.1,0.5,0.1,0.4-0.2C101.8,256.7,101,256.4,101,256.9
		 M145.7,257.5c-0.9,1-0.6,1.2,0.5,0.4c0.4-0.3,0.6-0.7,0.5-0.9C146.6,256.7,146.2,256.9,145.7,257.5 M366.1,258.4
		c0.2,0.3,3.3,1.5,3.5,1.3c0.1-0.1-0.7-0.5-1.8-0.9C366.7,258.5,366,258.2,366.1,258.4 M377.2,258.4c0,0.3-0.5,1-1,1.6l-1,1.1
		l1.2-1.1c0.7-0.6,1.1-1.3,1-1.6C377.2,257.9,377.2,257.9,377.2,258.4 M114.7,258.9c0.7,0.3,1.4,0.7,1.7,0.9c0.3,0.2,0.5,0.3,0.5,0
		c0-0.4-2.1-1.5-2.9-1.5C113.7,258.4,114,258.6,114.7,258.9 M243.6,258.8c0.1,0.2,0.5,0.3,0.9,0.3s0.8,0.2,0.9,0.4
		c0.1,0.2,0.4,0.4,0.6,0.4c0.6,0-0.8-0.9-1.8-1.1C243.8,258.5,243.5,258.6,243.6,258.8 M101.8,259.1c0.7,0.3,4.7,0.5,4.4,0.2
		c-0.1-0.1-1.3-0.2-2.6-0.3C102.2,258.9,101.4,258.9,101.8,259.1 M214.1,260.4c-0.2,0.4-0.2,2.3,0,2.1c0.2-0.2,0.4-2.3,0.2-2.3
		C214.3,260.1,214.2,260.2,214.1,260.4 M213,261.3c0.1,0.4,0,0.7-0.4,1c-0.3,0.2-0.4,0.4-0.2,0.4c0.7,0,1.2-0.8,0.8-1.4
		C212.8,260.7,212.8,260.8,213,261.3 M228.3,261.5c0,0.5-0.2,0.7-0.7,0.7c-0.4,0-0.9,0.3-1.1,0.6c-0.4,0.5-0.4,0.6,0,0.2
		c0.3-0.2,0.9-0.4,1.3-0.4c0.6,0,0.8-0.2,0.8-0.7c0-0.4,0.2-0.8,0.4-0.9c0.3-0.1,0.2-0.2-0.2-0.2
		C228.5,260.8,228.3,261.1,228.3,261.5 M219.7,262.2c0.3,0.5,1.5,0.7,2,0.3c0.4-0.3,0.4-0.3,0-0.2c-0.3,0.1-0.9,0-1.3-0.1
		C219.8,262,219.6,262,219.7,262.2 M237.3,262.8c-0.4,0.1-0.8,0.3-1,0.5s0.3,0.1,1-0.1s1.7-0.3,2.1-0.1c0.6,0.2,0.7,0.1,0.3-0.2
		C239,262.6,238.5,262.6,237.3,262.8 M108.6,264c0.3,0.3,0.6,0.3,1,0c0.6-0.3,0.5-0.4-0.4-0.4C108.5,263.7,108.3,263.8,108.6,264
		 M128.6,264.7c0.3,0.6,0.7,1,0.9,1s0.9,0.4,1.4,0.9s1,0.9,1,0.8s-0.9-1-1.9-2C128.4,264,128.1,263.8,128.6,264.7 M171,265.2
		l-1.2,1.4l1.4-1.3c0.8-0.7,1.3-1.4,1.2-1.4C172.3,263.8,171.7,264.4,171,265.2 M213.4,263.9c-0.3,0.6,0.7,1.8,1.5,1.8
		c0.4,0,0.4-0.1-0.1-0.3c-0.4-0.1-0.8-0.7-0.9-1.1C213.7,263.7,213.6,263.6,213.4,263.9 M226.1,265c-0.3,0.4-0.6,0.9-0.5,1.1
		s0.4-0.1,0.7-0.7C226.9,264.2,226.9,264.1,226.1,265 M201.3,266.7c-0.5,0.6-0.6,0.9-0.1,0.9c0.3,0,0.9-1.1,0.7-1.2
		C201.8,266.2,201.6,266.4,201.3,266.7 M231.5,267c-0.5,0.5-0.7,0.9-0.5,0.9c0.3,0,1.8-1.7,1.5-1.7
		C232.4,266.1,231.9,266.5,231.5,267 M111,266.8c-0.1,0.2,0.2,0.2,0.7,0.1s0.9,0,0.9,0.2s0.2,0.4,0.3,0.4c0.2,0,0.2-0.2,0.1-0.5
		C112.8,266.4,111.3,266.3,111,266.8 M206.4,267.3c0.3,1.3,0.5,1.6,0.5,0.7c0-0.4-0.2-0.9-0.4-1.2
		C206.2,266.4,206.2,266.6,206.4,267.3 M51.4,268.2c0,0.2,0.5,0.4,1,0.4s1.1-0.2,1.3-0.4c0.1-0.2-0.3-0.4-1-0.4
		C51.9,267.9,51.4,268,51.4,268.2 M132.8,268.4c0.2,0.2,0.9,0.8,1.6,1.4l1.2,1.1l-0.9-1c-0.5-0.5-1.2-1.2-1.6-1.4
		C132.8,268.3,132.6,268.3,132.8,268.4 M188,269.1c0.4,0.3,0.9,0.5,1.2,0.5c0.5,0,0.5-0.1,0-0.2c-0.3-0.1-0.8-0.3-1.2-0.5
		C187.3,268.5,187.3,268.5,188,269.1 M117.4,269.5c-1.3,0.7-1.2,1,0.1,0.3c0.6-0.3,1.1-0.6,1.1-0.7
		C118.6,268.9,118.5,268.9,117.4,269.5 M171,270.2c0.7,0.7,1.3,1.2,1.4,1.2c0.1,0-0.4-0.6-1-1.2c-0.7-0.7-1.3-1.2-1.4-1.2
		C169.9,268.9,170.3,269.5,171,270.2 M142.9,270.1c0,0.5,0.2,1,0.3,1c0.3,0,0.3-0.3-0.1-1.2C142.9,269.2,142.9,269.2,142.9,270.1
		 M190,269.6c0,0.1,0.6,0.5,1.4,0.8c0.8,0.3,1.4,0.5,1.4,0.4s-0.6-0.5-1.4-0.8C190.6,269.6,190,269.4,190,269.6 M71.6,270
		c0.7,0.3,2.6,0.5,2.3,0.2c-0.1-0.1-0.8-0.2-1.6-0.3C71.3,269.7,71.1,269.7,71.6,270 M205.8,270.2c0.6,1,2.6,3.1,2.2,2.3
		c-0.2-0.4-0.6-0.9-0.8-1s-0.5-0.6-0.7-1.1s-0.5-0.8-0.7-0.8C205.5,269.6,205.5,269.8,205.8,270.2 M227.1,270.6
		c0.7,0.7,0.8,1.1,0.5,1.2c-0.4,0.1-0.4,0.2,0,0.2c0.9,0.1,0.9-1.1,0-1.8C226.3,269.3,226,269.5,227.1,270.6 M136.2,271.7
		c0.1,0.2,0.3,0.4,0.4,0.4c0.4,0,0.3-0.5-0.1-0.7C136.2,271.4,136.1,271.5,136.2,271.7 M149.2,272.2c0,0.1,0.5,0.6,1.1,1.1l1.1,1
		l-1-1.1C149.5,272.2,149.2,271.9,149.2,272.2 M171.5,273.5l-1.8,0.2l1.7,0.1c0.9,0,1.7-0.1,1.9-0.3c0.1-0.2,0.2-0.3,0.1-0.3
		C173.3,273.2,172.5,273.4,171.5,273.5 M208.5,273.9c0.1,0.2,0.4,0.2,0.7,0.1c0.5-0.2,1.3,0.6,1,1c-0.1,0.1-0.1,0.2,0.1,0.1
		c0.1-0.1,0.5,0.1,0.7,0.4c0.5,0.6,0.5,0.5,0.1-0.1c-0.2-0.4-0.6-0.9-0.9-1.2C209.5,273.7,208.2,273.4,208.5,273.9 M210.1,279.9
		c-0.6,0.6-0.5,1.3,0.2,1.3c0.5,0,0.5-0.1,0.1-0.3c-0.4-0.3-0.4-0.4,0-0.9C210.9,279.4,210.7,279.3,210.1,279.9 M213.5,281.2
		c-0.4,0.6-0.7,1.1-0.6,1.1s0.5-0.5,0.9-1.1s0.7-1.1,0.6-1.1S214,280.7,213.5,281.2 M212.1,283.5c0,0.5,0.2,0.9,0.4,0.9
		s0.4-0.4,0.4-0.9s-0.2-0.9-0.4-0.9S212.1,283,212.1,283.5 M200.2,283.8c0.1,0.1,0.6,0.2,1.2,0.4c0.8,0.2,0.9,0.1,0.5-0.1
		C201.5,283.7,199.9,283.5,200.2,283.8"/>
</g>
</svg>
