<?xml version="1.0" encoding="utf-8"?>
<!-- Generator: Adobe Illustrator 26.0.1, SVG Export Plug-In . SVG Version: 6.00 Build 0)  -->
<svg version="1.1" xmlns="http://www.w3.org/2000/svg" xmlns:xlink="http://www.w3.org/1999/xlink" x="0px" y="0px"
	 viewBox="0 0 512 512" style="enable-background:new 0 0 512 512;" xml:space="preserve">
<style type="text/css">
	.st0{display:none;}
	.st1{fill:#FFFFFF;}
</style>
<g id="Layer_3" class="st0">
	
		<image style="display:inline;overflow:visible;" width="817" height="821" xlink:href="93A2A1F.jpg"  transform="matrix(0.6236 0 0 0.6236 1.2473 0)">
	</image>
</g>
<g id="Layer_2">
	<path class="st1" d="M34.4,500.1L34.4,500.1l-0.6-2.5l1.4-6v-4.6l1.1-4.6l0.6-5.3v-6.2l2.4-4.4l1.3-5l3.5-6.8h5.5l3.1-7.2l1.5-2.9
		l1.7-5l1.7-4.3l2.8-1l0.3-2.3l-0.4-2.9c0,0,1.7-5.1,2.1-5.7c0.4-0.6,9.4-14.7,9.4-14.7l0.9-3.5c0,0-1.9,0.1-2.1,0.5
		c-0.2,0.3-1.4,2.4-1.4,2.4s-1.5,0.9-1.4,0.6c0.1-0.3,1.9-3.4,1.9-3.4s0.3-1.3,1-1.4s3.1-1.2,3.1-1.2l2.2-2.4l3.2-3.4l8.1-8.3
		l1.7-2.5l5.1-3.7l2.2-3.2c0,0,1.5-4.2,1.6-4.5c0.1-0.3,0.3-6.6,0.3-6.6v-3.6l1.2-7.4c0,0,3.4-9.4,3.5-9.6c0.1-0.2,2.9-4.6,3-5
		c0.1-0.4,1.7-6.3,1.7-6.3l1-2.9l3-3.9l7.5-5l4.2-0.6l6.6-4.5c0,0,3.2-2.4,3.5-2.6c0.3-0.3,2.3-5.6,2.5-6.2c0.1-0.6,2.5-6.3,2.5-6.5
		s-0.8-0.9-0.3-1.4c0.5-0.5,4.8-8.1,4.8-8.1s1.3-5.5,1.4-5.9c0.1-0.3,2.2-4.3,2.2-4.3l1.6-0.6l3.2-5.5l3.3-1.7l12.2-1.8l5.6-1.4
		l5.5-1.5c0,0,9.4-5.1,9.7-5.2c0.4-0.1,5-1.9,5-1.9l3.5-5l3.7-3.2l3.9-4.3l5.9-3.7l9-5l6.7-6.9c0,0,3.9-4.5,4.1-4.6
		c0.2-0.1,2.1-4.7,2.1-4.7l1.3-3l1.4-2.3l2.3-1.9l2.5-2.5l3.1-5l3-7.2l0.8-2.6l0.7-3.4v-3c0,0-1.5-3.9-1.7-4.1
		c-0.2-0.1-3.7-3.2-3.7-3.2l-2.7-0.8v-2.1c0,0,1.2-4.1,1.2-4.6s0.6,0,0.6,0s1-3.5,0.8-3.5c-0.2,0-1.4-1.4-1.4-1.4l-0.1-6.6l0.9-0.3
		l0.3-2.4l-0.3-1.5l-0.8-2.8l0.8-2.4l-0.2-2.7l4.1-5c0,0,2.5-4.8,2.9-5.2c0.5-0.3,1.9-2.7,1.9-2.7l1.9,0.6l2.8-4.1v-2.6l1.5-1.7
		v-3.4l-0.8-7.5l1.9-1.9l2.6-3.8c0,0,3.7-2.7,3.8-2.9c0.1-0.2,5.1-4.8,5.1-4.8s1.3-2.5,1.5-2.7s3.3-3.2,3.3-3.2l1.4-3.5l4.3-1.9
		l2.6-2.1l4.9-3.7l8.1-2.5l5.9-3l5.3-2.6l2.8-2.3l8.7-4.8c0,0,4.6-2.9,4.7-3c0.1-0.1,4.1-4.5,4.3-4.6s3.4-4.8,3.4-4.8l2.1-4.7l3.6-6
		l2.4-4.2c0,0,2.1-6.9,2.6-7.8c0.6-1,2.9-8.6,2.9-8.6s2.1-4.2,2.1-4.8c0.1-0.6,1.5-5.8,1.7-6s2.5-6,2.5-6l0.4-3.7l1-2.5h4.6
		c0,0,4.1-1.3,4.3-1.4s4.9-3,4.9-3l2.4,2.1c0,0-0.1,5.7,0,5.9c0.1,0.2,4.1,5.2,4.1,5.2s2.8,1.3,3.5,2c0.6,0.7,1.5,1,1.6,1.3
		c0.1,0.3,1.8,5,1.8,5l4.8,1.2c0,0,3,2.8,3.4,2.8c0.4,0,5.5,0.8,6.4,0.8s9-0.5,9-0.5l5.9-2.6l4.8,1.4l1-2.3c0,0,3.4,1.3,3.9,1.5
		c0.5,0.3,5.8,1.5,6.5,1.4s5.8-1.2,5.8-1.2s2.1-2.6,2.6-2.9c0.5-0.3,2.6-4.1,2.6-4.1v1.9l-1.4,1.9l0.3,1.4l1.1,0.8l1,0.6
		c0,0,0.5,1.2,0.8,1.8c0.3,0.6,1.4,2.3,1.4,2.3l4.7,0.4c0,0,0.5,0.8,1.4,1s3.7-0.1,3.9-0.2s1.9-1.5,1.9-1.5s3.7,0.3,4.1,0.7
		c0.5,0.4,1.8,1.4,1.8,1.4l3,2.5l3.3,2.7l1.4,1.7l5.7,5.1c0,0-3.8,3.4-3.5,3.7c0.3,0.4,5.1,4.4,5.1,4.4l-3,3.5l2.4,3l0.1,4.2l1.6,2
		l-0.9,5.2l0.3,6.3l-2.1,2.7l2.7,1.4c0,0,1.2,0.8,1.5,1c0.3,0.1,0.3,1.7,0.3,1.7l-1.3,4.5l-0.8,5.9c0,0,3,4.3,3.1,4.5
		c0.1,0.2,1.7,1.8,1.7,1.8l0.8,3l-1.9,1.3l1.9,3.3c0,0,4.9,6.6,5.5,6.8c0.6,0.2,6.9,4.2,7.2,4.3s-1.2,2.6-1.2,2.6s-1,0.8-1.6,1
		c-0.6,0.2-2.3,0.8-2.3,0.8l-1.3,2.3l-0.6,3l0.5,1.7l-1.4,0.6l3.5,1.2l0.1,0.9l-1.2,0.6l-3.7,0.5l-7.2,0.2l-3.2-1.2l-7.5-2.3
		l-3.9,0.9l-7.5-0.2l-3.2-0.4l-2.3,1.8h-5.5l-4.8-0.1c0,0,1,0.5,0.6,0.9c-0.3,0.4-1.7,0.8-1.4,1.4c0.3,0.6,1.3,2.3,1.4,2.8
		c0.1,0.5,1.9,5.4,1.9,5.4l-23.6,5.5l0.6,6.5l-1.7,3l-1,1.7c0,0,0.5,3.4,0.7,3.5c0.2,0.2,1.7,1.9,2.4,2.9s2.8,3.4,2.8,3.4v2.3
		c0,0-1.7,3-1.9,3.2s-2.1,1.2-1.9,1.5c0.3,0.3,1.2,1.6,1.2,1.6l-2.1,2.7c0,0-3.6,0.8-3.9,1c-0.3,0.2-10.1,2.1-10.1,2.1l-5.3,1.8
		l-4.7,6.2l-5.9,3l-7.4,4.1l-5.3,5.3l-2.2,1l-0.8,2.5l-7.4,11.6l-3.9-1.4c0,0-0.8,0.6-1,0.3c-0.2-0.3-0.9-3.1-0.9-3.1l-2.6,0.5
		l-5.4,1.4l-7.7-0.8l-7,2.6l-4.8-0.1l-1.5,1.1l-6.6-1l-3-0.9l-3.4,1.4l-2.3,2.5l-1.1,0.7c0,0-3.9-0.1-4.3,0
		c-0.3,0.1-2.7,0.9-2.7,0.9l-1.5,2.5l-2.6,0.8l-1,1.7l-1.2,0.4l-3,0.4l-0.3,1.5c0,0-4.9,4.1-5.1,4.1s-3.1,2.3-3.1,2.3l-3.7,1.5
		l-1.5,1.9l-1.4,1.8c0,0-3.6,0.5-3.8,0.6c-0.2,0.1-1.9,0.9-1.9,0.9l0.3,46.1l0.2,41l-95.1,0.5l1.2,78.9l-7.7,2.3l-10.3,6.2l-8.5,5.9
		l-6.2,3.9l0.8,7l2.8,40.5l-111.8-0.3l-3.5,14.8L34.4,500.1z"/>
</g>
</svg>
