<svg id="svg" version="1.1" xmlns="http://www.w3.org/2000/svg" xmlns:xlink="http://www.w3.org/1999/xlink" width="400" height="373.66666666666663" viewBox="0, 0, 400,373.66666666666663"><g id="svgg"><path id="path0" d="M323.667 3.574 C 323.392 3.677,322.769 4.040,322.282 4.381 C 321.782 4.731,320.824 5.000,320.078 5.000 C 318.838 5.000,317.829 5.554,315.681 7.413 C 315.413 7.644,314.588 7.908,313.847 8.000 C 312.675 8.145,312.486 8.286,312.395 9.083 C 312.248 10.358,311.039 10.618,309.546 9.695 C 307.769 8.597,302.208 8.146,300.785 8.985 C 300.065 9.409,299.629 9.495,299.393 9.260 C 299.181 9.047,298.245 9.001,296.941 9.137 C 295.782 9.259,293.708 9.436,292.333 9.530 C 290.958 9.625,289.533 9.835,289.167 9.997 C 288.365 10.352,286.925 10.565,282.469 10.989 C 278.741 11.345,277.685 11.648,276.680 12.653 C 276.219 13.114,275.564 13.333,274.650 13.333 C 273.908 13.333,272.895 13.541,272.400 13.794 C 271.905 14.047,270.871 14.359,270.102 14.487 C 268.833 14.698,268.729 14.787,268.981 15.450 C 269.220 16.079,269.080 16.267,267.963 16.810 C 267.250 17.157,266.667 17.616,266.667 17.831 C 266.667 18.587,262.982 21.000,261.827 21.000 C 260.675 21.000,260.017 21.817,260.656 22.456 C 260.845 22.645,261.000 23.028,261.000 23.308 C 261.000 23.670,260.857 23.611,260.500 23.101 C 259.632 21.862,256.667 21.685,256.667 22.872 C 256.667 23.143,256.284 23.720,255.817 24.153 C 255.349 24.586,255.106 25.026,255.275 25.131 C 255.657 25.367,252.407 28.667,251.793 28.667 C 251.549 28.667,251.088 29.079,250.769 29.583 C 250.450 30.087,249.884 30.834,249.511 31.242 C 247.946 32.955,247.667 33.363,247.667 33.938 C 247.667 34.736,249.191 36.144,250.750 36.785 C 251.628 37.146,252.000 37.505,252.000 37.991 C 252.000 38.415,252.310 38.801,252.801 38.988 C 253.314 39.183,253.747 39.748,254.008 40.563 C 254.232 41.262,254.715 42.163,255.082 42.565 C 255.594 43.127,255.688 43.513,255.486 44.232 C 255.052 45.784,255.408 46.555,256.833 47.148 C 257.472 47.413,257.467 47.434,256.718 47.632 L 255.936 47.839 256.635 48.471 C 257.019 48.819,257.333 49.373,257.333 49.702 C 257.333 50.031,257.582 50.439,257.885 50.609 C 258.632 51.027,258.246 51.906,257.093 52.413 C 255.194 53.247,255.218 54.026,257.206 56.090 C 258.812 57.758,258.833 58.357,257.300 58.844 C 256.603 59.065,255.531 60.844,255.816 61.305 C 256.353 62.173,255.233 63.621,253.381 64.452 C 251.504 65.294,250.333 66.726,250.333 68.178 C 250.333 68.447,250.191 68.667,250.017 68.667 C 249.843 68.667,249.281 69.060,248.767 69.540 C 248.254 70.021,247.496 70.638,247.083 70.912 C 246.476 71.315,246.333 71.720,246.333 73.034 C 246.333 74.378,246.232 74.650,245.750 74.610 C 244.275 74.486,244.088 74.652,243.907 76.250 C 243.773 77.427,243.851 77.904,244.209 78.107 C 244.474 78.257,245.185 78.873,245.787 79.476 C 246.390 80.079,247.094 80.642,247.352 80.728 C 247.741 80.858,247.717 81.113,247.212 82.232 C 246.652 83.474,246.646 83.659,247.127 84.590 C 247.633 85.569,247.623 85.619,246.789 86.165 C 246.088 86.624,245.965 86.908,246.123 87.698 C 246.279 88.478,246.201 88.667,245.722 88.667 C 245.395 88.667,244.836 88.883,244.480 89.147 C 244.117 89.417,243.495 89.545,243.063 89.439 C 242.477 89.296,242.250 89.415,242.114 89.935 C 241.905 90.731,241.207 90.873,235.916 91.195 C 233.633 91.334,232.180 91.289,231.916 91.071 C 231.687 90.883,230.975 90.729,230.333 90.727 C 229.692 90.726,228.476 90.427,227.633 90.062 C 224.436 88.681,218.603 88.819,219.157 90.263 C 219.263 90.538,219.128 91.008,218.857 91.307 C 218.437 91.771,218.431 91.973,218.815 92.676 C 219.063 93.129,219.735 94.438,220.310 95.583 C 220.884 96.729,221.387 97.671,221.427 97.676 C 222.876 97.862,225.186 99.027,225.273 99.616 C 225.332 100.010,225.519 100.333,225.690 100.333 C 226.092 100.333,226.089 102.055,225.685 103.119 C 225.450 103.736,225.493 104.051,225.851 104.348 C 226.116 104.568,226.333 104.955,226.333 105.207 C 226.333 105.460,226.530 105.667,226.771 105.667 C 227.390 105.667,229.000 107.425,229.000 108.102 C 229.000 108.412,228.858 108.667,228.686 108.667 C 228.513 108.667,228.105 109.117,227.780 109.667 C 227.455 110.217,226.997 110.667,226.761 110.667 C 226.526 110.667,226.033 110.967,225.667 111.333 C 225.300 111.700,224.621 112.000,224.158 112.000 C 223.567 112.000,223.222 112.248,223.000 112.833 C 222.826 113.292,222.448 113.667,222.161 113.667 C 221.874 113.667,221.191 113.998,220.643 114.404 C 219.658 115.132,219.633 115.133,218.502 114.524 C 217.433 113.949,217.302 113.944,216.524 114.454 C 216.053 114.762,215.015 115.000,214.139 115.000 C 211.675 115.000,209.844 116.985,210.163 119.309 C 210.405 121.066,210.329 121.243,208.583 123.008 C 207.495 124.107,207.470 124.326,208.303 125.385 C 209.349 126.716,208.532 130.000,207.154 130.000 C 205.047 130.000,203.722 133.394,204.926 135.711 C 205.472 136.762,205.516 137.249,205.257 139.378 C 204.966 141.778,205.029 142.276,206.046 145.588 C 206.359 146.608,206.296 146.754,205.023 147.940 C 204.277 148.636,203.667 149.384,203.667 149.603 C 203.667 149.821,203.509 150.000,203.316 150.000 C 203.123 150.000,202.812 150.412,202.624 150.917 C 202.173 152.127,199.501 154.333,198.485 154.333 C 198.044 154.333,197.192 154.633,196.591 154.999 C 195.282 155.797,195.000 155.826,195.000 155.164 C 195.000 154.888,194.625 154.336,194.167 153.938 C 193.708 153.539,193.333 152.884,193.333 152.481 C 193.333 151.653,192.876 151.197,191.673 150.827 C 191.218 150.687,190.445 150.276,189.954 149.914 C 188.956 149.175,186.000 149.892,186.000 150.872 C 186.000 151.652,182.965 151.077,182.099 150.133 C 181.034 148.972,180.222 149.139,178.516 150.871 C 177.682 151.716,177.000 152.478,177.000 152.563 C 177.000 153.211,174.908 154.667,173.977 154.667 C 173.162 154.667,172.512 155.032,171.288 156.176 L 169.675 157.686 167.549 157.468 C 165.167 157.224,164.644 157.546,165.481 158.740 C 165.766 159.148,166.000 159.815,166.000 160.222 C 166.000 161.290,167.228 162.000,169.074 162.000 C 169.950 162.000,170.667 162.150,170.667 162.333 C 170.667 162.517,170.378 162.667,170.026 162.667 C 169.673 162.667,168.933 163.046,168.382 163.510 C 166.462 165.126,160.012 166.328,157.679 165.504 C 156.893 165.227,155.650 165.000,154.917 165.000 C 153.759 165.000,153.640 164.933,154.009 164.490 C 155.657 162.503,149.895 162.667,148.039 164.659 C 147.559 165.174,146.700 165.694,146.129 165.814 C 145.044 166.043,144.333 167.078,144.333 168.432 C 144.333 169.867,141.519 172.263,139.329 172.694 L 137.382 173.077 136.573 175.289 C 136.127 176.505,135.420 178.907,135.000 180.626 L 134.238 183.752 135.137 185.530 C 135.801 186.840,135.954 187.464,135.720 187.904 C 135.545 188.232,135.298 189.452,135.171 190.615 C 135.044 191.778,134.666 193.203,134.330 193.782 C 132.813 196.398,132.808 197.612,134.308 199.141 C 136.674 201.552,135.668 202.308,127.167 204.509 C 121.524 205.970,109.200 209.203,106.097 210.035 C 104.938 210.347,104.273 210.304,102.264 209.789 C 98.467 208.817,88.966 208.948,87.001 210.000 C 86.658 210.183,86.098 210.333,85.756 210.333 C 85.167 210.333,83.480 211.798,82.571 213.100 C 82.172 213.670,82.062 213.658,80.307 212.855 C 74.344 210.125,70.627 209.735,57.833 210.497 C 53.250 210.770,47.925 211.017,46.000 211.046 L 42.500 211.099 35.833 208.427 C 21.112 202.529,5.318 196.333,5.002 196.333 C 4.227 196.333,4.788 197.659,6.585 200.072 C 7.638 201.487,9.850 204.520,11.500 206.812 C 13.150 209.105,14.693 210.985,14.928 210.990 C 15.246 210.997,15.302 211.410,15.146 212.586 C 14.967 213.932,15.041 214.267,15.634 214.804 C 16.035 215.167,16.333 215.845,16.333 216.395 C 16.333 216.933,16.549 217.437,16.825 217.543 C 17.604 217.842,18.294 219.486,17.921 220.154 C 17.681 220.582,17.764 220.839,18.253 221.181 C 18.612 221.433,19.102 222.357,19.342 223.236 C 20.328 226.839,27.089 235.333,28.971 235.333 C 29.309 235.333,29.761 235.545,29.976 235.804 C 30.191 236.063,31.146 236.459,32.100 236.683 C 33.053 236.908,34.433 237.352,35.167 237.670 C 35.900 237.989,37.125 238.420,37.888 238.629 C 38.794 238.878,39.604 239.417,40.221 240.183 C 40.741 240.829,41.732 242.009,42.423 242.806 L 43.680 244.256 45.889 244.078 L 48.099 243.901 47.864 245.675 C 47.734 246.650,47.467 247.750,47.270 248.118 C 46.823 248.954,47.127 252.885,47.816 255.167 C 48.625 257.846,48.170 265.324,47.101 266.898 C 46.599 267.638,46.386 268.306,46.518 268.724 C 46.653 269.150,46.522 269.532,46.146 269.807 C 44.002 271.375,49.338 272.637,54.858 271.866 C 58.392 271.373,60.139 272.989,58.456 275.194 C 57.648 276.255,57.592 276.535,57.738 278.810 C 57.884 281.085,57.840 281.306,57.171 281.665 C 56.589 281.976,56.360 282.576,56.016 284.693 C 55.773 286.187,55.424 287.332,55.210 287.330 C 55.003 287.328,52.677 287.172,50.041 286.983 C 46.067 286.698,45.157 286.719,44.708 287.102 C 44.000 287.708,41.692 288.258,39.037 288.454 C 37.865 288.541,36.794 288.793,36.657 289.015 C 36.520 289.237,36.279 289.344,36.121 289.254 C 35.610 288.961,33.837 290.195,33.730 290.918 C 33.673 291.303,33.411 291.798,33.147 292.017 C 32.883 292.236,32.667 292.713,32.667 293.076 C 32.667 293.572,32.520 293.680,32.083 293.507 C 30.366 292.828,29.510 292.939,28.971 293.910 C 28.531 294.704,27.938 295.016,25.440 295.765 C 21.601 296.917,21.530 297.010,20.518 302.175 C 20.052 304.554,19.597 306.815,19.508 307.200 C 19.407 307.638,18.938 308.018,18.256 308.215 C 17.190 308.523,17.166 308.571,17.158 310.450 C 17.153 311.505,16.987 312.473,16.790 312.601 C 16.395 312.856,15.806 315.963,15.515 319.321 C 15.397 320.684,15.017 322.073,14.480 323.099 C 13.478 325.015,13.753 325.667,15.563 325.667 C 17.633 325.667,18.046 326.102,17.322 327.523 C 16.458 329.217,16.853 330.134,18.504 330.273 C 20.267 330.422,21.224 330.120,21.425 329.352 C 21.679 328.382,23.180 328.151,25.390 328.743 C 27.533 329.317,28.195 328.836,27.278 327.369 C 26.737 326.503,26.983 326.289,28.734 326.101 C 30.914 325.867,31.689 326.565,30.735 327.904 L 30.025 328.902 31.301 329.284 C 34.095 330.121,36.101 329.124,33.944 327.970 L 33.221 327.583 34.027 327.137 C 34.471 326.891,35.137 326.685,35.509 326.678 C 35.881 326.672,36.535 326.421,36.963 326.122 C 37.869 325.487,42.957 325.682,46.500 326.488 C 49.291 327.123,50.714 327.191,51.561 326.729 C 52.484 326.228,53.372 326.227,54.562 326.729 C 55.471 327.113,58.798 327.832,61.475 328.223 C 63.280 328.487,64.024 327.590,62.950 326.447 C 60.918 324.284,66.999 322.617,70.742 324.311 C 71.787 324.784,73.050 325.037,74.492 325.061 C 75.688 325.082,76.667 325.207,76.667 325.339 C 76.667 325.472,77.529 325.679,78.583 325.799 C 80.628 326.032,82.179 326.508,83.900 327.429 C 85.038 328.038,87.171 328.199,87.481 327.698 C 87.897 327.024,89.005 327.734,88.937 328.632 C 88.797 330.469,91.377 331.168,92.481 329.592 C 93.168 328.612,93.136 328.333,92.333 328.333 C 91.464 328.333,91.490 327.945,92.417 327.097 C 93.289 326.300,97.818 325.849,98.885 326.453 C 99.223 326.644,100.250 326.927,101.167 327.081 C 104.340 327.615,104.396 327.604,104.817 326.368 C 105.194 325.261,109.000 324.350,109.000 325.367 C 109.000 325.755,110.215 325.754,110.940 325.365 C 111.322 325.161,112.305 325.325,113.991 325.875 C 116.475 326.684,116.479 326.685,117.363 326.031 C 118.766 324.994,121.513 324.387,125.924 324.141 C 128.173 324.016,130.092 323.787,130.188 323.632 C 130.917 322.452,136.430 324.795,139.113 327.425 C 140.183 328.475,141.200 329.333,141.371 329.333 C 142.029 329.333,142.380 331.062,141.843 331.656 C 141.510 332.024,141.333 332.884,141.333 334.131 C 141.333 335.183,141.152 336.371,140.929 336.772 C 140.707 337.172,140.499 337.922,140.467 338.438 C 140.435 338.954,140.080 339.726,139.678 340.154 L 138.948 340.932 140.657 341.049 C 141.598 341.114,142.512 341.022,142.688 340.845 C 142.894 340.639,143.356 340.655,143.977 340.889 C 144.666 341.149,145.048 341.152,145.303 340.897 C 145.557 340.643,146.035 340.751,146.959 341.270 C 147.673 341.672,148.505 342.000,148.809 342.000 C 149.112 342.000,149.948 342.300,150.667 342.667 C 152.249 343.474,152.333 343.480,152.333 342.782 C 152.333 342.268,152.376 342.268,152.943 342.782 C 153.278 343.085,153.766 343.338,154.026 343.343 C 154.302 343.349,154.037 343.774,153.394 344.359 C 152.347 345.311,152.024 347.770,153.027 347.150 C 153.196 347.046,153.333 347.495,153.333 348.147 C 153.333 348.799,153.473 349.333,153.644 349.333 C 153.815 349.333,154.061 349.668,154.191 350.077 C 154.321 350.486,154.701 351.198,155.036 351.660 C 155.496 352.294,155.661 353.194,155.711 355.333 C 155.751 357.041,155.954 358.428,156.222 358.824 C 156.466 359.186,156.667 359.803,156.667 360.196 C 156.667 360.589,156.967 361.291,157.333 361.758 C 157.700 362.224,158.000 362.844,158.000 363.136 C 158.000 363.439,158.277 363.667,158.647 363.667 C 159.003 363.667,159.392 363.826,159.513 364.021 C 159.633 364.215,160.090 364.511,160.528 364.677 C 161.225 364.942,161.283 365.089,160.993 365.851 C 160.563 366.982,160.749 367.231,162.382 367.721 C 163.127 367.944,163.814 368.328,163.908 368.575 C 164.304 369.606,168.000 370.592,168.000 369.667 C 168.000 369.483,168.451 369.333,169.003 369.333 C 169.579 369.333,170.239 369.061,170.552 368.696 C 171.085 368.074,171.123 368.082,172.133 369.028 C 172.701 369.561,173.299 369.998,173.462 369.998 C 173.920 370.001,175.333 371.645,175.333 372.176 C 175.333 372.521,175.595 372.598,176.293 372.458 C 176.839 372.349,177.350 372.424,177.479 372.633 C 178.483 374.257,179.517 372.613,180.078 368.500 C 180.136 368.072,180.825 367.495,181.998 366.891 C 183.003 366.372,183.916 365.803,184.025 365.626 C 184.135 365.449,186.311 365.215,188.862 365.108 C 194.450 364.871,193.810 365.496,193.949 360.139 C 194.013 357.679,194.171 355.667,194.299 355.667 C 194.726 355.667,195.333 356.458,195.333 357.013 C 195.333 357.314,195.708 357.731,196.167 357.939 C 196.950 358.296,197.000 358.262,197.000 357.362 C 197.000 356.819,197.216 356.322,197.500 356.213 C 197.840 356.082,198.000 356.231,198.000 356.677 C 198.000 357.494,199.556 357.580,200.983 356.842 C 201.827 356.406,202.051 356.410,202.988 356.877 C 203.878 357.321,204.261 357.340,205.438 356.995 C 206.986 356.541,207.673 356.495,211.384 356.597 C 213.844 356.664,214.004 356.720,215.929 358.167 L 217.925 359.667 221.124 359.667 C 225.604 359.667,227.223 359.193,227.483 357.804 C 227.729 356.494,228.083 356.189,230.000 355.637 C 230.825 355.399,231.837 354.991,232.249 354.731 C 232.662 354.471,233.447 354.323,233.995 354.404 C 234.748 354.514,235.039 354.401,235.185 353.942 C 235.291 353.607,235.481 353.327,235.606 353.319 C 235.731 353.311,236.433 353.188,237.167 353.045 L 238.500 352.786 238.387 354.172 C 238.189 356.620,241.053 358.211,244.091 357.340 C 244.866 357.117,245.987 356.859,246.583 356.765 C 247.495 356.621,247.667 356.451,247.667 355.697 C 247.667 354.043,248.955 353.518,250.512 354.538 C 251.313 355.063,251.333 355.055,251.333 354.205 C 251.333 353.726,251.477 353.333,251.652 353.333 C 252.028 353.333,253.667 351.749,253.667 351.385 C 253.667 351.094,251.695 350.333,250.939 350.333 C 250.586 350.333,250.471 350.099,250.569 349.583 C 250.648 349.170,250.484 348.390,250.204 347.850 C 249.617 346.720,249.845 346.283,251.344 345.662 C 252.446 345.206,252.690 344.044,251.833 343.333 C 251.558 343.105,251.333 342.696,251.333 342.424 C 251.333 342.152,250.886 341.267,250.340 340.458 C 248.850 338.251,247.667 335.566,247.667 334.395 C 247.667 332.950,246.504 330.865,244.964 329.546 C 244.250 328.936,243.667 328.187,243.667 327.882 C 243.667 327.577,243.217 326.706,242.667 325.947 C 241.697 324.609,241.667 324.452,241.667 320.835 C 241.667 316.060,241.296 315.522,238.661 316.470 C 234.759 317.873,231.000 317.228,231.000 315.155 C 231.000 314.760,230.678 314.151,230.285 313.802 C 226.941 310.832,226.405 308.540,228.210 304.934 C 228.740 303.874,228.992 302.798,228.989 301.601 C 228.986 300.629,229.025 298.500,229.075 296.871 C 229.201 292.802,228.898 292.569,223.193 292.334 L 219.098 292.166 217.739 290.938 C 216.992 290.263,215.601 289.438,214.648 289.105 C 212.210 288.254,211.964 287.758,212.365 284.500 C 212.546 283.033,212.913 281.341,213.180 280.739 C 213.448 280.137,213.667 279.285,213.667 278.847 C 213.667 278.048,215.337 276.241,219.534 272.500 C 220.563 271.583,221.679 270.308,222.016 269.667 C 222.352 269.025,223.055 268.050,223.577 267.500 C 224.985 266.017,225.666 264.934,225.669 264.176 C 225.670 263.804,225.881 263.098,226.137 262.606 C 226.394 262.114,226.703 261.262,226.823 260.712 C 226.956 260.109,227.530 259.348,228.271 258.793 C 228.947 258.286,230.262 257.089,231.193 256.132 C 232.944 254.333,235.194 253.511,236.440 254.217 C 238.013 255.107,239.333 256.727,239.333 257.767 C 239.333 260.289,241.838 262.667,244.495 262.667 C 246.563 262.667,246.716 262.610,250.686 260.389 C 253.191 258.988,255.823 258.376,260.000 258.225 C 263.067 258.113,263.832 257.958,266.188 256.966 C 270.437 255.176,270.967 254.526,270.992 251.070 C 270.999 250.133,271.434 249.547,273.964 247.070 C 277.698 243.412,277.766 243.290,278.656 238.649 C 279.496 234.268,280.228 233.069,282.500 232.349 C 283.233 232.117,283.983 231.748,284.167 231.529 C 284.468 231.169,290.360 227.622,293.923 225.656 C 295.134 224.987,295.378 224.671,295.559 223.537 C 295.700 222.659,296.196 221.741,297.010 220.852 C 297.690 220.108,298.354 219.152,298.487 218.726 C 298.619 218.300,299.296 216.799,299.992 215.391 C 301.926 211.473,302.281 210.503,303.365 206.177 C 303.917 203.971,304.512 201.621,304.687 200.955 C 305.023 199.675,307.260 198.464,312.317 196.825 C 314.043 196.265,316.950 194.006,317.667 192.667 C 318.187 191.695,317.371 189.091,316.250 188.148 C 315.225 187.285,315.358 186.687,316.579 186.672 C 316.805 186.669,317.388 186.067,317.873 185.333 C 318.358 184.600,318.885 184.000,319.044 184.000 C 319.203 184.000,319.333 183.618,319.333 183.150 C 319.333 182.027,320.175 180.442,321.008 179.996 C 321.376 179.799,322.074 179.007,322.560 178.236 C 323.045 177.464,323.667 176.668,323.942 176.465 C 324.218 176.261,324.351 175.859,324.238 175.565 C 324.105 175.218,324.259 174.963,324.684 174.828 C 325.095 174.697,325.333 174.322,325.333 173.805 C 325.333 173.101,325.449 173.016,326.158 173.194 C 326.826 173.362,327.059 173.236,327.378 172.534 C 327.600 172.049,328.049 171.667,328.399 171.667 C 329.444 171.667,330.667 170.658,330.667 169.795 C 330.667 169.189,330.848 169.000,331.428 169.000 C 331.915 169.000,332.396 168.651,332.761 168.032 C 333.814 166.250,333.448 165.594,331.369 165.534 L 330.167 165.500 330.152 163.394 C 330.145 162.235,330.257 161.214,330.402 161.124 C 330.548 161.034,330.668 160.707,330.669 160.397 C 330.670 160.087,330.872 159.448,331.117 158.978 C 331.968 157.348,332.064 156.314,331.451 155.381 C 331.133 154.897,330.820 153.996,330.756 153.380 C 330.693 152.764,330.421 152.040,330.154 151.773 C 329.886 151.505,329.667 151.157,329.667 151.000 C 329.667 150.843,329.421 150.469,329.121 150.169 C 328.715 149.762,328.672 149.528,328.955 149.245 C 329.163 149.037,329.333 148.568,329.333 148.203 C 329.333 147.241,332.591 144.333,333.668 144.333 C 334.723 144.333,335.333 143.775,335.333 142.809 C 335.333 142.218,335.587 142.045,336.720 141.864 C 338.337 141.605,340.000 140.708,340.000 140.095 C 340.000 139.587,340.540 139.526,340.833 140.000 C 341.098 140.428,342.333 140.436,342.333 140.010 C 342.333 139.833,342.557 139.773,342.831 139.878 C 343.130 139.993,343.418 139.824,343.556 139.451 C 343.849 138.659,344.219 138.411,345.730 137.992 C 346.551 137.765,347.030 137.405,347.169 136.909 C 347.285 136.501,347.616 135.702,347.905 135.134 C 349.025 132.934,346.783 130.770,342.333 129.756 C 341.875 129.651,341.170 129.214,340.766 128.783 C 339.919 127.879,338.797 127.779,337.749 128.513 C 337.089 128.975,336.917 128.974,336.008 128.504 C 335.093 128.031,334.907 128.031,333.983 128.509 C 331.932 129.569,330.587 128.185,331.486 125.938 C 331.813 125.120,331.907 124.447,331.726 124.215 C 331.126 123.443,331.048 122.198,331.527 121.052 C 332.258 119.302,331.337 118.363,330.227 119.726 C 329.244 120.934,327.950 121.210,326.501 120.523 C 325.590 120.090,325.190 120.053,324.635 120.350 C 323.682 120.860,323.138 120.320,323.648 119.369 C 323.919 118.861,323.924 118.480,323.663 117.993 C 323.465 117.623,323.399 117.164,323.517 116.973 C 323.783 116.542,321.371 114.366,320.605 114.347 C 319.997 114.332,316.629 111.176,316.033 110.062 C 315.357 108.799,315.591 108.041,316.813 107.530 C 318.045 107.015,318.083 106.911,318.514 102.886 C 318.809 100.128,318.391 99.357,315.991 98.238 C 312.804 96.751,314.234 92.667,317.942 92.667 C 318.733 92.667,321.333 89.192,321.333 88.135 C 321.333 87.277,315.977 86.561,315.488 87.353 C 315.127 87.936,313.227 87.332,312.429 86.380 C 311.522 85.299,311.447 84.333,312.270 84.333 C 315.257 84.333,314.585 79.845,311.325 78.024 C 309.956 77.260,309.916 77.197,310.605 76.890 C 311.387 76.541,311.583 75.383,310.964 74.764 C 310.694 74.494,310.791 74.290,311.325 74.005 C 312.247 73.511,313.110 71.607,312.564 71.270 C 311.996 70.919,312.371 70.707,314.533 70.152 C 315.615 69.874,316.880 69.371,317.344 69.034 C 319.875 67.196,321.561 66.708,322.762 67.467 C 323.168 67.724,324.621 68.183,325.991 68.488 C 327.361 68.792,328.672 69.199,328.904 69.392 C 329.136 69.585,329.815 69.657,330.413 69.553 C 331.564 69.352,333.168 69.623,335.725 70.450 C 337.178 70.919,337.370 70.909,338.546 70.310 C 340.043 69.547,341.522 69.475,341.782 70.153 C 342.280 71.452,345.009 72.255,349.566 72.442 L 353.963 72.623 355.221 71.623 C 355.913 71.073,357.154 69.958,357.979 69.145 C 359.401 67.743,359.577 67.667,361.384 67.667 C 363.605 67.667,364.704 67.308,366.110 66.125 C 367.048 65.336,367.290 65.287,369.229 65.494 C 372.048 65.796,373.336 65.323,374.942 63.395 C 376.502 61.523,376.901 60.495,376.177 60.217 C 375.002 59.766,377.706 58.333,379.731 58.333 C 381.208 58.333,381.837 57.557,381.802 55.776 L 381.771 54.167 387.802 49.688 C 391.119 47.224,394.546 44.907,395.417 44.538 C 397.872 43.499,397.762 43.411,393.132 42.710 C 391.609 42.480,390.376 42.463,389.677 42.664 C 388.805 42.914,388.319 42.835,387.212 42.267 C 386.320 41.808,385.324 41.583,384.389 41.629 C 383.429 41.676,382.557 41.471,381.787 41.017 C 381.150 40.641,380.104 40.333,379.463 40.333 C 378.770 40.333,377.802 39.996,377.072 39.500 C 376.397 39.042,375.520 38.667,375.123 38.667 C 374.725 38.667,373.620 38.142,372.667 37.500 C 371.713 36.858,370.728 36.333,370.478 36.333 C 369.759 36.333,369.252 35.040,369.485 33.798 C 369.753 32.370,369.125 32.298,366.865 33.500 C 366.003 33.958,365.012 34.333,364.662 34.333 C 364.312 34.333,363.847 34.525,363.628 34.760 C 363.364 35.042,362.716 35.126,361.705 35.010 L 360.181 34.833 359.784 33.044 C 359.283 30.781,359.100 30.614,356.796 30.301 C 354.268 29.958,353.427 28.598,355.167 27.667 C 355.747 27.356,356.000 26.941,356.000 26.299 C 356.000 25.671,356.212 25.311,356.667 25.167 C 357.572 24.879,357.505 24.069,356.500 23.137 C 355.793 22.482,355.667 22.068,355.667 20.406 C 355.667 18.476,355.565 18.195,353.455 14.273 C 351.891 11.366,344.851 8.751,343.681 10.643 C 342.981 11.776,342.168 10.851,342.069 8.810 C 341.955 6.458,341.266 5.819,338.444 5.451 C 337.558 5.336,336.679 5.121,336.490 4.974 C 335.972 4.571,333.023 4.578,331.393 4.987 C 330.099 5.311,329.894 5.278,329.393 4.666 C 328.677 3.795,324.964 3.086,323.667 3.574 M132.706 319.911 C 132.086 319.987,130.995 320.435,130.283 320.907 C 128.751 321.920,128.386 321.780,129.353 320.551 C 129.971 319.765,130.258 319.673,131.941 319.720 C 133.211 319.756,133.462 319.819,132.706 319.911 M136.083 321.099 C 136.814 321.937,136.810 321.975,136.029 321.771 C 135.678 321.679,135.040 321.224,134.612 320.761 L 133.833 319.917 134.667 320.173 C 135.125 320.314,135.762 320.730,136.083 321.099 M138.162 323.428 C 138.397 324.109,138.473 324.667,138.332 324.667 C 137.953 324.667,137.000 323.106,137.000 322.484 C 137.000 321.552,137.718 322.136,138.162 323.428 " stroke="none" fill="#ececec" fill-rule="evenodd"></path><path id="path1" d="M356.083 30.230 C 356.404 30.314,356.929 30.314,357.250 30.230 C 357.571 30.146,357.308 30.077,356.667 30.077 C 356.025 30.077,355.762 30.146,356.083 30.230 M121.921 324.569 C 122.335 324.649,122.935 324.646,123.254 324.562 C 123.573 324.479,123.233 324.414,122.500 324.417 C 121.767 324.421,121.506 324.489,121.921 324.569 " stroke="none" fill="#f0ecec" fill-rule="evenodd"></path><path id="path2" d="M356.083 30.230 C 356.404 30.314,356.929 30.314,357.250 30.230 C 357.571 30.146,357.308 30.077,356.667 30.077 C 356.025 30.077,355.762 30.146,356.083 30.230 M121.921 324.569 C 122.335 324.649,122.935 324.646,123.254 324.562 C 123.573 324.479,123.233 324.414,122.500 324.417 C 121.767 324.421,121.506 324.489,121.921 324.569 " stroke="none" fill="#f0ecec" fill-rule="evenodd"></path><path id="path3" d="M356.083 30.230 C 356.404 30.314,356.929 30.314,357.250 30.230 C 357.571 30.146,357.308 30.077,356.667 30.077 C 356.025 30.077,355.762 30.146,356.083 30.230 M121.921 324.569 C 122.335 324.649,122.935 324.646,123.254 324.562 C 123.573 324.479,123.233 324.414,122.500 324.417 C 121.767 324.421,121.506 324.489,121.921 324.569 " stroke="none" fill="#f0ecec" fill-rule="evenodd"></path><path id="path4" d="M356.083 30.230 C 356.404 30.314,356.929 30.314,357.250 30.230 C 357.571 30.146,357.308 30.077,356.667 30.077 C 356.025 30.077,355.762 30.146,356.083 30.230 M121.921 324.569 C 122.335 324.649,122.935 324.646,123.254 324.562 C 123.573 324.479,123.233 324.414,122.500 324.417 C 121.767 324.421,121.506 324.489,121.921 324.569 " stroke="none" fill="#f0ecec" fill-rule="evenodd"></path></g></svg>