<?xml version="1.0" encoding="utf-8"?>
<!-- Generator: Adobe Illustrator 28.2.0, SVG Export Plug-In . SVG Version: 6.00 Build 0)  -->
<svg version="1.1" id="Layer_1" xmlns="http://www.w3.org/2000/svg" xmlns:xlink="http://www.w3.org/1999/xlink" x="0px" y="0px"
	 viewBox="0 0 512 512" style="enable-background:new 0 0 512 512;" xml:space="preserve">
<style type="text/css">
	.st0{display:none;}
	.st1{fill:#FFFFFF;}
	.st2{fill-rule:evenodd;clip-rule:evenodd;fill:#FFFFFF;}
</style>
<g id="Layer_4" class="st0">
</g>
<g id="Layer_5">
	<path class="st1" d="M307.1,77.4l0.4,0.2l0.1-0.2l0.7,0.4l0.1,0.1h0.4v-0.1l0,0l0.1,0.1h0.1V78c0,0.1,0.1,0.2,0.1,0.2l0.3,0.5
		l0.2-0.1l0.1,0.1h0.1l0.1-0.1l0.4-0.1l0,0h0.1l0.2,0.3l0.2-0.1l0.1-0.1l0.2-0.1v-0.2h0.1v-0.2H311v-0.2c0,0,0-0.1,0.1-0.1
		s0.1-0.1,0.1-0.1l-0.2-0.1h-0.2l-0.2-0.1l0.2-0.2l0.2-0.2h0.2l0.1,0.2l0.1,0.1l0.1,0.2l0.3-0.1l-0.1-0.4l-0.3,0.1l-0.1-0.3l0.1-0.2
		l-0.1-0.4v-0.1l0.2-0.1v0.1l-0.4,0.1l0.1,0.3l-0.4,0.1l-0.1-0.2h-0.3v-0.1h0.3l0,0h-0.2l-0.1-0.3h-0.1v-0.2v-0.1h0.5h0.2v-0.1
		l-0.1-0.2h0.1l0.1,0.4l0.1-0.1l-0.1-0.3H311l-0.1-0.3l-0.3,0.1h-0.2v-0.2l0.1-0.1l-0.1-0.1l-0.3,0.5v0.1l0.1,0.2h-0.1l-0.1-0.1
		h-0.2h-0.1c0,0,0,0,0,0.1s0,0.1,0,0.1h-0.1h-0.1v0.1h-0.2l0,0l0.2,0.4l-0.1,0.1l-0.1,0.1l-0.1,0.1l-0.2-0.3l0.1-0.1l-0.1-0.3h-0.1
		v-0.1h0.1l-0.1-0.3l0.3-0.2l-0.3-0.2h-0.1l-0.1,0.1l-0.1-0.1h-0.1l-0.1-0.3h0.2v-0.1l-0.3-0.1l0.3-0.1c0,0,0.1,0,0.1,0.1l0.2,0.3
		l0.2-0.1l-0.2-0.3h-0.2l-0.1-0.3l-0.3,0.3h-0.2l-0.2-0.2l-0.2,0.2v0.1h0.1l0.1,0.1l0.1-0.1l0.2,0.1v0.1h-0.1l0.1,0.3v0.1l0.1,0.2
		v0.1h-0.1l-0.2,0.2l-0.2,0.2l0.3,0.1v0.1l-0.1,0.1l0.1,0.1l0.1,0.1l-0.2,0.3l0.2,0.3v0.1l-0.1,0.1H308h-0.1v0.1l-0.1,0.1h-0.1
		l-0.1-0.1L307.1,77.4L307.1,77.4z"/>
	<path class="st1" d="M311.3,74.7l-0.1-0.3l0.1-0.1l0.1,0.1h0.1v-0.2l0.4-0.1v-0.3l0.3-0.1l0.1,0.1v0.1c0,0-0.3,0.1-0.3,0.2
		c0,0,0,0.1,0.1,0.1s0.3,0,0.3,0s0.1-0.1,0.2-0.1v-0.3v-0.1c0,0,0.5-0.1,0.5-0.2l0.2-0.1l-0.1-0.1v-0.1c0,0,0.1-0.1,0.2-0.1h0.1
		l-0.2-0.2v-0.3l-0.4,0.1L313,73h0.1v0.1v0.1l0,0H313l-0.2,0.1l-0.1,0.1l-0.1-0.1h-0.1l0,0l-0.5,0.1c0,0,0-0.1-0.1-0.1h-0.3
		c0,0,0.1,0.1,0,0.1s-0.5,0-0.5,0v0.1H311l0,0l-0.7,0.1l0.3,0.5h0.4l-0.1,0.1l0,0h0.1l0.4-0.1v0.1v0.1h0.1L311.3,74.7L311.3,74.7z"
		/>
	<path class="st1" d="M312.9,75.1l-0.1-0.3l0.1-0.1l-0.1-0.2h-0.3v0.1h-0.3v0.1v0.1v0.1V75l-0.3,0.1l0,0h0.3V75h0.1c0,0,0.1,0,0.2,0
		h0.1v0.1C312.6,75.1,312.9,75.1,312.9,75.1z"/>
	<path class="st1" d="M311.7,76.6c0,0-0.1,0.1-0.1,0l-0.1-0.4l0.2-0.1V76h0.2l-0.1,0.2v0.1L311.7,76.6L311.7,76.6z"/>
	<path class="st1" d="M310.3,74.1l-0.4,0.2l-0.1-0.1l0.1-0.1l-0.1-0.1l0,0l0.3-0.2L310.3,74.1z"/>
	<polygon class="st1" points="309.9,73.6 309.7,73.8 309.5,73.6 309.7,73.4 	"/>
	<path class="st1" d="M309.3,73.7l0.2,0.2l-0.1,0.1l-0.2-0.2L309.3,73.7L309.3,73.7z"/>
	<path class="st1" d="M312.1,72.7l-0.4,0.1v-0.1l0,0l0.3-0.1L312.1,72.7z"/>
	<polygon class="st1" points="312.8,72.5 312.8,72.3 312.9,72.3 312.9,72.1 312.7,72.2 312.7,72.5 	"/>
	<path class="st1" d="M311.6,72.1h-0.3V72C311.4,72,311.5,72,311.6,72.1C311.5,72,311.6,72.1,311.6,72.1z"/>
	<path class="st1" d="M311.2,75.2C311.2,75.2,311.2,75.1,311.2,75.2c0.1,0,0.2,0.1,0.2,0.1v0.1l0.1,0.3h-0.1L311.2,75.2L311.2,75.2z
		"/>
	<polygon class="st1" points="311.5,74.8 311.7,74.7 311.6,74.6 311.4,74.7 	"/>
</g>
<g id="svgg_1_">
	<path id="path0_1_" class="st2" d="M395.91,0.89c0,1.22,1.77,2.1,2.32,1.22c0.44-0.77,0.44-0.77-0.44-1
		c-0.44-0.11-0.77-0.33-0.77-0.66c0-0.22-0.22-0.44-0.55-0.44C396.02,0,395.91,0.22,395.91,0.89 M250.14,2.32
		c-0.44,0.22-1.11,0.66-1.55,1c-1.44,1.11-2.66,1.22-5.31,0.55c-4.1-1-5.2,0-1.66,1.44c1.11,0.44,1.99,1.44,2.32,2.44
		c0.22,1.11,2.88,3.87,4.87,5.2c2.21,1.44,2.55,2.44,1.33,4.65c-1,1.99-1,4.54,0,5.87c1.22,1.55-0.89,3.98-3.43,3.98h-1.44
		l-0.22,1.22c-0.11,0.66-0.66,2.88-1.33,4.76c-0.66,1.99-1.22,4.1-1.33,4.76c-1,6.09-17.93,24.46-29.55,32.1
		c-4.21,2.77-14.72,6.75-31.32,11.73l-2.99,0.89v1.44c0,1.22-0.11,1.44-0.55,1.44c-0.55,0-0.55-0.11-0.55-1.33v-1.44l-3.54,3.65
		c-4.76,4.98-5.64,6.2-5.42,7.97c0.11,1.11,0.11,1.44-0.55,1.99c-1.44,1.22-2.77,0.89-2.99-0.66c-0.33-2.88-2.21,0.44-2.99,5.2
		c-0.44,2.99-1.77,6.2-3.1,7.75c-0.77,1-1,1.44-1.22,3.54c-0.11,1.33-0.66,3.54-1.11,4.87c-0.44,1.33-1,3.54-1.22,4.98
		c-0.22,1.44-0.55,3.21-0.77,3.98c-0.55,1.99-0.55,2.66,0.44,4.76c1,2.21,1.22,4.1,0.33,4.1c-0.44,0-0.66-0.33-0.77-1.22
		c-1-6.09-5.09-5.87-6.86,0.55c-0.77,2.88-3.32,4.65-6.53,4.54c-2.88-0.11-3.1,0-3.32,1.11c-0.22,1.22-1.44,2.88-2.21,2.99
		c-0.66,0.11-0.66,0.11,0.22-1.55c1.22-2.1,1.22-2.99-0.11-3.87c-1.66-1.22-4.43-6.97-4.87-9.74c-0.33-2.55-3.21-3.65-6.53-2.66
		c-1.99,0.55-1.66,0.66-3.87-0.77c-1-0.66-3.21-1.99-4.87-2.77l-2.99-1.44l-1.99,1.66c-4.87,4.1-7.19,3.1-5.76-2.55
		c0.55-2.1-1.55-4.76-3.1-3.98c-0.33,0.22-0.77,0.22-1.11,0.11c-1.22-0.44,4.87-4.87,6.86-4.87c1.22,0,2.44-0.89,3.1-2.1
		c0.77-1.55,0.77-7.19,0-8.3c-0.33-0.44-0.55-1.33-0.66-2.21c-0.11-0.89-0.33-1.55-0.55-1.55c-0.44-0.11-4.76,1-5.87,1.55
		c-3.21,1.66-14.72,13.39-14.72,15.05c0,0.77-0.55,1.33-1.22,1.33c-2.1,0-6.09,6.97-6.09,10.63c0,0.66-0.22,1.99-0.44,2.99
		c-0.55,2.21-0.66,1.99,3.54,7.31l3.43,4.32l-1.55,1.77c-2.55,2.66-2.55,4.1,0,5.76c3.1,1.99,7.53,8.3,7.53,10.74
		c0,1.77-3.54,5.31-5.31,5.31c-1.66,0-2.66,1.11-2.66,3.21c0,1.99,0.55,2.77,3.21,4.21c1.33,0.66,3.54,2.21,4.98,3.32
		c4.76,3.76,7.19,3.87,7.19,0.44c0-0.66,0.44-0.55,0.77,0.22c0.33,0.66,0.22,0.77-0.44,1.22c-1.66,1.11-0.77,1.99,5.09,5.09
		c7.64,3.98,9.96,5.76,11.95,9.19c1.77,2.88,1.99,3.1,4.43,5.31c1.11,1,1.99,1.99,2.1,2.32c0.22,1.33,1.33,1,3.43-1.11
		c1.22-1.22,2.1-1.88,2.21-1.66c0.55,0.55-1.33,2.66-2.99,3.65c-0.55,0.33-1,0.89-1.11,1.22c-0.22,0.77-0.11,1,1.44,2.99
		c0.66,0.77,1,1.66,1.22,3.21c0.44,2.32,1.44,4.87,2.55,6.09c0.44,0.55,0.66,1,0.55,1.99c0,1.11,0.11,1.44,1.11,2.55
		c0.66,0.66,1.33,1.77,1.55,2.32c0.77,1.66,2.1,3.1,3.76,3.76c2.44,1.11,7.42,6.86,7.42,8.52c0,0.33,0.22,1.11,0.55,1.55
		c0.33,0.44,0.66,1.44,0.77,2.1c0.22,1.44,0.55,1.99,1.22,1.99c1.44,0,2.66,1.99,2.99,4.98c0.44,4.21,2.99,8.52,3.65,6.53
		c1.33-3.76,1.99-4.65,3.54-4.65c0.44,0,0.11,1.11-0.55,1.44c-0.66,0.33-3.76,5.53-3.76,6.42c0,0.22,0.55,1.11,1.33,1.88
		c1.55,1.66,2.77,3.98,2.77,5.2c0,1.22,0.44,2.32,1.66,3.65c0.55,0.66,1,1.44,1,1.66c0,0.66,1.44,4.32,2.21,5.64
		c0.77,1.33,1.99,4.43,2.44,6.2c0.77,2.88,6.31,14.39,8.19,17.05c1.44,1.99,2.1,2.32,2.55,1.11c0.22-0.55,0.55-0.89,0.89-0.89
		c0.44,0,0.55,0.11,0.33,0.55c-0.11,0.33-0.33,1.22-0.55,1.99l-0.33,1.55l1.55,2.32c0.89,1.33,1.77,2.44,1.99,2.55
		c0.22,0.11,0.44,0.55,0.44,0.89c0,0.66,0.44,1.66,1.11,2.32c0.22,0.22,0.44,1,0.44,1.77c0,1.77,0.44,3.54,1.11,3.76
		c0.55,0.22,0.33,1.88-0.44,3.21c-0.89,1.44-0.77,1.55,2.99,3.54c3.65,1.88,5.87,3.65,6.86,5.53c0.66,1.22,1.33,1.22,2.55,0
		c1-1,1.77-1,0.89,0c-1.55,1.66-1.33,4.87,0.33,5.09c0.55,0.11,1,0.22,1,0.55c0,0.22-0.22,0.44-0.33,0.33
		c-1.44-0.22-1.99,0.77-1.22,1.99c0.33,0.44,0.55,1.77,0.66,3.43c0.22,2.77,0.55,3.54,1.77,3.54c0.77,0,1.88,0.89,1.44,1.22
		c-0.66,0.33,0.22,1.66,1.77,2.77c2.32,1.55,4.1,3.54,4.65,5.2c0.66,1.77,0.89,1.88,1.11,0.55c0.11-0.77,0.11-0.89,0.33-0.44
		c0.22,0.33,0.11,0.89-0.22,1.44c-0.66,1.22-0.66,1.22,0.55,2.99c0.55,0.77,1.55,2.32,1.99,3.32c0.55,1.11,1.33,2.1,1.88,2.44
		c1.11,0.66,2.66,3.32,2.99,5.42c0.22,1,0.66,1.99,1.66,2.99c0.77,0.89,1.33,1.66,1.33,1.88c0,1.33,3.1,4.1,3.76,3.32
		c0.55-0.77,1,0.22,0.66,1.44c-0.22,0.77-0.22,1.11,0.33,1.99c1.33,2.32-0.11,11.62-1.77,12.06c-0.22,0-0.89,0.22-1.66,0.44
		c-1.55,0.44-1.66,1.11-0.22,1.66c1.44,0.55,1.55,0.89,1.77,3.54c0.22,2.88,0.33,3.32,1.22,3.54c1.22,0.33,2.55,1.88,2.99,3.76
		c0.33,1.22,0.89,2.21,2.1,3.54c0.89,1,2.1,2.77,2.66,3.87c1.99,3.54,3.98,5.31,8.52,7.53c2.1,1,3.1,1.77,3.87,2.99
		c0.33,0.55,1.44,1.99,2.32,2.99s1.66,1.99,1.66,2.21c0,0.55,1.11,1.33,1.99,1.33c1.22,0,1.99,0.77,3.54,3.87
		c1.55,2.99,2.21,3.65,2.99,2.55c0.44-0.66,0.55-0.66,0.55,1.11c0,0.77,0.11,0.89,1.44,1c0.77,0.11,1.66,0.33,1.99,0.55
		c2.77,1.99,3.76,2.66,6.31,3.76c1.55,0.66,3.1,1.22,3.32,1.22c0.66,0,1.99,0.89,3.76,2.55c1,0.89,1.88,1.44,3.1,1.77
		c3.21,1,8.08,3.76,8.08,4.76c0,0.22,0.55,0.66,1.11,0.89c0.66,0.22,1.55,0.89,2.1,1.33c1.99,1.77,9.52,4.87,13.39,5.53
		c1.44,0.22,2.44,0.66,4.21,1.88c3.43,2.32,8.74,4.87,11.18,5.31c0.44,0.11,1.22,0.55,1.77,1c1.33,1.11,2.77,1.77,4.32,1.77
		c0.66,0,1.77,0.33,2.44,0.66c0.66,0.33,1.88,0.77,2.66,0.89c1.99,0.33,4.32,1.77,5.76,3.76c0.66,0.89,1.44,1.66,1.66,1.66
		s0.89,0.44,1.55,1c0.66,0.55,2.21,1.66,3.65,2.44c2.55,1.44,3.98,2.44,5.31,3.65c0.89,0.77,2.44,1.55,3.32,1.55
		c0.33,0,1.22,0.33,1.99,0.77c0.89,0.44,1.99,0.77,2.77,0.77c1.11,0,1.44,0.11,1.77,0.77c0.22,0.44,1,1.44,1.66,2.1
		c1.66,1.77,1.99,2.66,2.32,6.09c0.33,2.77,0.55,3.65,1.22,3.65c0.11,0,0.66,0.33,1.22,0.77c1,0.77,1.55,0.89,3.21,0.44
		c1.44-0.44,1.99,0,1.33,1c-0.66,1-0.33,1.44,1.66,2.44c2.21,1.11,4.65,2.99,7.42,5.64c1.11,1.11,2.66,2.21,3.21,2.55
		c0.66,0.33,1.66,1.11,2.32,1.66c0.66,0.55,1.33,1.11,1.66,1.11c0.22,0,1,0.33,1.55,0.77c2.88,1.99,12.4,0.33,15.61-2.77
		c2.88-2.66,3.21-4.1,2.32-8.85c-0.22-1.22-0.33-2.32-0.11-3.54c0.33-1.88,0.44-1.99,2.88-2.77c2.44-0.77,6.2-3.76,6.53-5.2
		c0.44-1.66-1.22-2.99-4.32-3.21c-1.99-0.22-3.65-0.89-3.43-1.33c0.11-0.22,0.55-0.22,1-0.11c0.66,0.11,1,0,1.88-1.11
		c0.55-0.66,2.1-1.99,3.43-2.88c1.33-0.89,2.55-1.88,2.77-2.32s0.89-1.22,1.55-1.88s1.88-2.32,2.88-3.65
		c1.88-2.77,3.43-4.32,4.76-4.65c1.33-0.22,1.66-0.89,1.88-3.54c0.11-1.66,0.44-2.99,1-4.21c0.89-2.1,0.89-2.99-0.33-4.1
		c-0.44-0.44-0.77-0.89-0.77-1.11c0-0.22-0.33-0.33-0.66-0.44c-0.33,0-0.66-0.22-0.66-0.44c0-0.22-0.89-1.33-1.99-2.44
		c-2.1-2.1-2.77-3.32-4.87-8.41c-1.66-4.1-1.77-5.2-0.77-6.97c0.44-0.77,0.77-1.55,0.66-1.77c-0.11-0.22,0.11-0.66,0.44-0.89
		c0.33-0.33,0.89-1.11,1.22-1.77s1.11-1.99,1.88-2.88c1.11-1.33,1.22-1.77,1-2.21c-0.33-0.66-1.88-1.77-2.44-1.77
		c-2.44,0-3.76-9.19-1.55-11.07c0.66-0.55,1.33-1.44,1.55-2.21c0.44-1.44,1.22-2.44,3.65-5.31c2.44-2.77,2.88-3.65,3.21-5.31
		c0.33-1.88,0.55-2.21,2.21-2.66c1.88-0.55,1.88-2.44-0.22-4.87c-1.44-1.66-1.66-2.21-1.99-4.54c-0.11-1.22-0.44-2.32-0.77-2.66
		c-0.77-0.89-0.44-2.32,1.44-5.42c0.89-1.55,1.77-3.43,1.99-4.21c0.22-0.77,0.55-2.32,0.89-3.43c0.66-2.21,0.66-3.1,0.22-3.43
		c-0.22-0.11-0.22-0.89-0.11-2.21c0.11-1.66,0.11-1.99-0.22-2.21c-0.66-0.22-0.55-1.88,0.11-2.55c0.33-0.33,0.66-1.11,0.77-1.66
		c0.22-1.22,0.89-2.77,1.99-4.43c0.44-0.55,0.77-1.33,0.77-1.77c0-0.33,0.33-1.11,0.77-1.77c1.44-2.21,0.33-4.98-5.53-14.94
		c-0.44-0.77-0.89-1.55-0.89-1.55c0-0.11-0.55-1-1.22-2.21c-0.66-1.11-1.44-2.55-1.77-3.21c-7.97-14.39-13.28-23.02-14.17-23.24
		c-0.33-0.11-1.11,0-1.88,0.33c-1.77,0.55-2.21,0.55-3.21-0.11c-1.77-1.11-5.76-0.77-9.19,0.89c-1,0.44-2.55,1-3.54,1.22
		c-1,0.22-1.99,0.55-2.44,0.77c-0.66,0.44-0.89,0.33-3.32-0.77c-1.44-0.66-3.32-1.33-4.1-1.55l-1.44-0.33l-0.22-9.96
		c-0.11-5.42-0.22-10.07-0.33-10.18c0-0.11-0.11-1.33-0.11-2.66c0-2.32-0.11-2.44-0.55-1.88c-0.66,0.66-1.55-0.55-1-1.44
		c0.11-0.33,0.33-1.33,0.55-2.21c0.11-0.89,0.44-1.88,0.77-2.21c1.33-1.44,2.99-11.4,1.88-11.4c-0.55,0-5.64,3.87-7.97,5.98
		c-1.44,1.33-3.76,3.1-4.98,3.98c-1.33,0.89-2.66,1.88-2.99,2.21c-1.99,2.21-3.65,2.55-15.61,2.99
		c-12.95,0.44-13.84,0.33-13.06-2.44c0.66-2.44,0.66-2.77-0.44-4.1c-0.55-0.66-1.11-1.66-1.22-2.21c-0.77-3.54-4.1-6.53-6.2-5.64
		c-1,0.44-1.11,0.44-1.99-0.11c-0.55-0.33-1.55-0.66-2.21-0.77s-1.55-0.44-1.99-0.66c-0.55-0.33-2.1-0.55-6.75-0.66
		c-9.19-0.33-9.19-0.44-3.65-6.53c1.99-2.21,2.55-3.1,2.55-3.76c0-1.22-1.22-3.32-2.21-3.87c-0.55-0.33-1.33-1.33-2.21-2.88
		c-1-1.88-1.66-2.55-2.44-2.99c-1.33-0.66-3.43-2.99-3.98-4.32c-0.22-0.55-1.55-2.21-2.88-3.65c-1.33-1.44-2.55-2.88-2.66-3.21
		c-0.44-2.1-0.55-2.55-0.89-2.88c-0.22-0.22-0.55-1.11-0.77-1.88c-0.33-1.55-1-2.55-2.77-4.54c-1.22-1.33-1.33-2.1-0.66-3.32
		c0.66-1.22,0.55-2.55-0.22-2.77c-1.55-0.44-8.74-7.53-9.3-9.19l-0.33-1.11l1.11,1c1.44,1.33,1.66,1.33,2.21,0
		c0.44-1.22,1.55-1.88,4.43-2.99c2.55-1,2.55-1,1.22-3.76l-1.11-2.21l0.44-1.33c0.22-0.77,0.55-1.99,0.66-2.88
		c0.55-4.43,4.87-7.97,13.95-11.4c1.33-0.55,3.87-2.99,3.87-3.76c0-0.89-1-2.66-1.99-3.87c-1.77-1.99-1.99-4.1-0.89-7.42
		c0.66-1.99,2.44-4.98,2.88-4.98s2.88-3.76,3.65-5.76c0.89-2.1,1-2.44,1.66-6.86c0.66-3.65,1.33-5.76,2.44-6.86
		c0.89-0.89,4.1-2.66,4.87-2.66c0.33,0,1.22-0.55,1.99-1.44c0.77-0.77,1.99-1.66,2.66-2.1c1.22-0.66,2.66-1.99,3.87-3.54
		c0.44-0.66,1.22-1.11,2.66-1.55c2.66-0.89,5.98-2.66,8.3-4.54c2.1-1.66,3.98-2.55,5.09-2.66c0.44,0,1-0.22,1.33-0.44
		c0.89-0.66,1.77-0.77,5.98-1c2.77-0.11,4.21-0.33,5.09-0.77c0.77-0.33,3.32-0.89,5.76-1.33c5.2-0.89,5.64-1,6.75-2.77
		c1.99-2.99,4.32-3.76,10.4-3.54c4.65,0.22,8.08,1.22,8.08,2.44c0,0.89,0.89,1.44,2.77,1.66c1.11,0.11,2.32,0.44,2.66,0.66
		c2.1,1.33,2.44-0.77,0.55-3.43c-0.55-0.77-1.22-1.88-1.55-2.55c-0.66-1.33-6.64-7.19-7.31-7.19c-0.22,0-0.89,0.22-1.44,0.44
		c-1.33,0.55-5.53,0.55-7.08,0c-2.66-1-2.99-2.44-1-4.65c0.66-0.77,1.33-1.77,1.44-2.21c0.11-0.44,0.66-1.33,1.22-1.88
		s1.33-1.66,1.55-2.32c0.33-0.66,0.89-1.55,1.33-1.99c0.44-0.44,1-1.33,1.33-1.99c0.33-0.66,1-1.88,1.55-2.66s1.88-2.99,2.88-4.87
		c1-1.88,2.21-3.98,2.66-4.65c2.55-3.21,3.54-7.86,1.22-5.64l-0.66,0.66l-1.11-1.11c-1.22-1.11-2.32-1.66-3.54-1.66
		c-1.33,0-1.66-0.33-1-1.22c0.89-1.11,0.77-1.11-1.33-1.11c-1.66,0-2.21-0.11-3.1-0.77c-1-0.66-1.22-0.77-1.66-0.33
		c-1.44,1.33-2.66,0.77-2.88-1.33c-0.22-1.88-0.55-2.32-1.66-2.32c-0.44,0-0.89-0.22-1-0.44c-0.44-1.11-4.43-1.22-5.98-0.22
		c-0.66,0.33-0.77,0.33-1.22,0c-0.89-0.77-1.88-0.55-3.54,0.77l-1.55,1.22l-0.66-0.66c-1.22-1.11-3.1-0.33-3.1,1.33
		c0,1-0.44,0.89-1.77-0.44c-1.33-1.33-1.77-1.44-2.44-0.55l-0.44,0.66l-0.33-0.89c-0.22-0.44-0.33-1.22-0.33-1.77
		c0-1.22-0.22-1.55-1.44-1.77c-0.55-0.11-1.22-0.44-1.55-0.77l-0.55-0.66l-0.77,0.66c-0.55,0.55-0.77,0.66-1.11,0.33
		c-0.66-0.66-1.44-0.33-3.54,1.66c-3.1,2.88-4.76,3.65-5.31,2.21c-0.33-0.77-0.77-0.44-1.44,0.89c-0.89,1.88-1.88,2.66-2.66,1.99
		c-0.55-0.44-0.55-0.44-1.44,0c-1.22,0.66-3.65,0.66-4.43,0c-0.33-0.33-1.22-0.66-2.1-0.77c-1.11-0.11-1.66-0.33-1.99-0.77
		c-0.66-0.89-2.66-0.66-3.32,0.44c-0.11,0.22-0.44,0.11-0.89-0.44c-0.55-0.66-0.66-0.66-1.55-0.33c-3.1,1.22-4.65,1.33-5.64,0.33
		c-0.33-0.33-0.89-0.55-1.33-0.55c-0.55,0-1.11-0.33-1.44-0.77c-0.33-0.44-1-0.77-1.33-0.77c-0.89,0-1.44-0.55-1.44-1.33
		c0-0.66-0.55-1.44-1.22-1.66c-0.55-0.22,0.22-2.21,1.44-3.76c1-1.33,1-1.33,0.44-1.77c-0.77-0.44-0.77-1.66-0.11-2.66
		c1.33-1.88-3.1-5.2-4.76-3.76c-0.77,0.66-0.89,0.66-1.22,0.22c-0.22-0.33-0.89-0.66-1.55-0.77c-0.77-0.11-1.33-0.44-1.55-0.77
		c-0.22-0.33-0.55-0.55-0.89-0.55c-1.66,0-2.32-1.77-1.11-3.1c0.89-0.89,0.89-3.21,0-3.98c-0.33-0.33-0.66-0.89-0.66-1.33
		s-0.33-1.11-0.77-1.55c-0.44-0.44-0.77-1.11-0.77-1.44c0-1.33-1.22-2.1-3.1-1.77c-1.55,0.22-2.1,0-4.43-2.1
		c-1-0.89-2.1-1.66-2.55-1.77c-0.66-0.11-0.89-0.44-1.11-1.44c-0.33-1.44-1.11-1.77-1.88-0.66c-0.44,0.66-0.44,0.66-0.89,0.11
		c-0.22-0.33-1.11-0.66-2.32-0.89c-1.77-0.33-1.88-0.33-2.1-1.33c-0.11-0.55-0.44-1.22-0.89-1.55c-0.77-0.66-0.66-1.99,0.11-2.88
		c0.66-0.77,0.55-1.11-0.66-1.33c-1.22-0.22-1.55-0.66-1.55-2.55c0-0.66-0.22-1.22-0.55-1.55c-0.33-0.22-0.66-1-0.89-1.66
		c-0.22-0.89-0.55-1.22-1.22-1.33c-0.44-0.11-1.77-1-2.77-1.99c-1.11-1-2.44-1.99-2.99-2.21c-0.77-0.33-1.33-0.89-1.99-2.1
		c-1.11-1.99-1.44-2.21-3.43-1.99c-1.44,0.11-1.55,0.11-2.88-1.11C254.12,2.66,251.58,1.55,250.14,2.32 M80.02,404.32
		c-0.33,0.33-0.22,4.76,0.11,4.98c0.44,0.22,0.66-0.33,0.77-1.88C81.01,405.1,80.68,403.77,80.02,404.32 M398.78,428.67
		c-0.44,0.44-0.44,0.44-0.11-0.33c0.22-0.44,0.44-0.66,0.44-0.44C399.23,428.01,399.01,428.34,398.78,428.67"/>
	<path id="path1_1_" class="st2" d="M141,224.35c0,0,0.44,0.44,1,1l1,0.89l-0.89-1C141.23,224.35,141,224.13,141,224.35"/>
	<path id="path2_2_" class="st2" d="M141,224.35c0,0,0.44,0.44,1,1l1,0.89l-0.89-1C141.23,224.35,141,224.13,141,224.35"/>
	<path id="path3_2_" class="st2" d="M141,224.35c0,0,0.44,0.44,1,1l1,0.89l-0.89-1C141.23,224.35,141,224.13,141,224.35"/>
	<path id="path4_1_" class="st2" d="M141,224.35c0,0,0.44,0.44,1,1l1,0.89l-0.89-1C141.23,224.35,141,224.13,141,224.35"/>
</g>
</svg>
