<?xml version="1.0" encoding="utf-8"?>
<!-- Generator: Adobe Illustrator 26.0.1, SVG Export Plug-In . SVG Version: 6.00 Build 0)  -->
<svg version="1.1" xmlns="http://www.w3.org/2000/svg" xmlns:xlink="http://www.w3.org/1999/xlink" x="0px" y="0px"
	 viewBox="0 0 512 512" style="enable-background:new 0 0 512 512;" xml:space="preserve">
<style type="text/css">
	.st0{display:none;}
	.st1{fill:#FFFFFF;stroke:#000000;stroke-miterlimit:10;}
</style>
<g id="Layer_1" class="st0">
</g>
<g id="Layer_2">
	<path class="st1" d="M4.2,154.8l3.4-0.9l4,1.8c0,0,2.9,1.8,3.3,1.9c0.4,0.1,9.1,0.3,9.1,0.3l4.1,1.4l1.2-1.2l8.1,9.2l5.2,6.9
		l12.8,7.6c0,0,6.7,9.9,6.9,10.2c0.2,0.3,4-1.4,4.3-1.3c0.3,0.1,4.7,3.2,4.7,3.2l1.3,3.4c0,0,5.4,1.7,5.8,2s2.3,1.4,2.5,2.1
		c0.3,0.7,1.1,5.3,1.3,5.3c0.3,0.1,3.3,1.8,3.8,1.8c0.6-0.1,3.5-0.3,4,0c0.5,0.3,1,2.5,1,2.5l-4,2.5l5.9-3l-1-1.9l2.1,0.7l1.8,2.1
		l3.3,3.2v1.4l-4.3,2l0.6,1.5l3.7-0.5l-0.8,1.2l-2.3,1.5l-1,1.3l-2.8,0.7h-0.8l3.8,0.9l3.1,2.7h2.6l3.8,1l1.6,0.8v4.2l-0.6,1.8
		l2,2.6l3,1.3v2.2l0.8,4.8v-3.9l6.9,0.8l1.9,3.1l0.8,0.5l0.3,2.2l2.5,0.7v2.9l-1.8,2.5l-0.3,3.1l1.7,1l-1.8,4.4l-0.3,1.9l1.1,1.4
		l-0.5,14.5l-0.9,0.8l-2.5-2.4l-2.7-2.3l-1.4,2.9l-6.2-2.8l1.8,5.1l-2-0.4l-4.3-4.7c0,0-2.8-2.3-3.1-2.4c-0.3-0.2-5.6-5-5.6-5
		l-6.4-4.2l-4.8-4.3l-5.7-7.1l-3.2-1.7l-1.7-3l-4.4-4.5l-2.6-5.1l-0.3-3.2l-2.6-3.8l-5-12.1l-3.4-1.8l-1.2-2.3l-4.7-2.9l-4.2-9.1
		l-0.9-4.6l-7.4-8.7l-5.4-1.2l-1.3-5.2l-2.3-2.2l-3-4.9l-3.3-3.9l-3.6-0.3l-1.8-2l-4.4-3.7l-3.7-3.4l-2.1-3.1l-1.3-2.8V154.8z"/>
	<polygon class="st1" points="87.8,203.3 91.6,205.4 90.4,207.5 85.2,207.5 82.5,206 81.9,203.9 81.5,201.1 80.1,199 81.8,198.6 
		84.1,200.4 	"/>
	<path class="st1" d="M75.3,192.9c0.2,0.1,1.1,1.3,1.1,1.4c0,0.1-1.1,2.4-1.1,2.4s-1.3,0.2-1.4,0.1c-0.1,0-1-0.8-1-0.8
		s-0.4-2-0.4-2.1s0.4-0.5,0.5-0.6c0.1,0,2.2-0.5,2.2-0.5H75.3z"/>
	<path class="st1" d="M113.8,238.8l0.3,0.1l5.6,1.1l1.5,0.4l1.6,3.6l-0.4,2.8l3.3,1.1l3.2,1.9l2.9,0.8l-2.1-2.4l1.7-2.3l-0.1-1.5
		l-4.9-1.7l-1.1-3.3l-0.2-3.1l-1.9-3.1l-1.6-0.3l-0.3,2.5l-0.3,1l-1.8-2.1l-0.9-1.1c0,0-1.2,0.9-1.3,1.2c-0.1,0.3-0.3,2.1-0.3,2.1
		l-2.9,0.9V238.8z"/>
	<path class="st1" d="M141.5,244.7c0,0.1-0.7,4.4-0.7,4.4l0.6,2.4l1.6-0.3l1.3-0.7c0,0,0.7,1.2,0.8,1.3c0.1,0,1.4-0.1,1.4-0.2
		c0-0.1,1.2-1.7,1.2-1.8c0.1-0.1,0.9-2.3,0.9-2.3l-1.2-2l-1.4-1L141.5,244.7z"/>
	<path class="st1" d="M107.3,215.9c0.1,0.1,2.4,1.6,2.4,1.6s1.1,0.2,1.2,0.5c0.1,0.3,1.1,1.6,1,1.6c-0.1,0-2.5-1-2.5-1l-1.8,0.1
		l-1.3-0.5L107.3,215.9z"/>
	<path class="st1" d="M105.6,220.5c0.3,0,2,1.1,2,1.1s-0.8,1.4-1.2,1.3c-0.3,0-2-0.4-2-0.4V221L105.6,220.5z"/>
	<path class="st1" d="M114.9,291.1l0.3,0.1l4.3,1.2l3.3-0.3c0,0,5.1,1.5,5.4,1.6c0.3,0.1,1.1,2.4,1.1,2.4s-0.9,1.8-0.6,1.8
		s7.5,0.4,7.5,0.4l7.8,3.5l6.6,1.2l1.5-1.6h6l3.1,0.8l3.9,0.4l4.6,1.7l4.2,2.5l9,1.2l3.4,1.1l3.4-0.9l5.6,0.9l2.9,0.8l4.3-2.3
		l4.5,2.3l5.9,2.3l4.1,0.8h1.6l-2.8-2l0.4-2l-0.1-1.3l8.1,4.6l0.6,1.3l2.6-1.9l3.3-2.1l-1.1-1.1l-3.5-2.4l-2.5,0.3l-2.3,0.6
		l-2.2,0.3l-2.2-0.4l-0.6-2.4l-0.1-2.1l-2.9-0.8h-3.9l-4,0.4l-3.9-0.5l-2.4-1.8l-0.8-2l-0.6-1.6l2.3-0.4l3.3,0.4l4.6-0.6l2.9-0.9
		l1.3-0.9c0,0,0.9-0.9-0.1-0.8c-0.9,0.1-8.6,0.4-9,0.4c-0.4,0.1-2.3-0.1-2.3-0.1l-2.5,0.7l-1.8,1.6l-1.5-3l-2.7-0.2l-4-0.8l-3-1.4
		h-4l-1.6-2.3l-2.4-0.9l-2.6,2.5l-0.8,3.1l-4.6,0.1L162,292l-7.4-0.2l-2.8-1.1l-1.8-3.2l-1.2-1.8l-4-0.6l-5.4-1.1l-1.4-1.6l-3.1,0.7
		l-3.8,0.4l-4.6-0.5l-2.6,0.1l-1-0.7l-1.8,5.1l-1.7,1.8l-2.3,0.8L114.9,291.1z"/>
	<path class="st1" d="M162.1,194.4c0.1,0.3,1.3,2.9,1.3,2.9s2.9,2.2,3,2.5c0.2,0.3,1.6,2.9,1.6,2.9s3.6,2.8,3.7,2.9
		c0.1,0.1,3.4,0.7,3.4,0.7l3.3-1.5l3.8-0.4l5.5,0.8l3.2-1.6l1.4-2.2l1.3-2l2.6-0.8l4.6,0.2l0.7,1.4l3.8,1.6c0,0,2.7,0.5,2.8,0.5
		s4.5-2.2,4.5-2.2l3.3,0.1c0,0,2.4-0.4,2.6-0.6c0.2-0.1,2.1-2.7,2.1-2.7l-0.2-1.5l1.8-1.1l-0.6-1.8l-0.8-0.8l4-2.3l0.3-1.8l-0.7-2.9
		l2.9-2l2.9-1.6l-0.3-5.4l-0.2-4.2l2.5-2.9l3-0.5h2.9l6.2-0.2c0,0,3.9,0.8,3.9,0.9c0,0.1,3.1,1.2,3.1,1.2l-1.1,0.8l2.4,2l0.3,2.3
		l-3.4-0.1l-0.7,2.3l1.7,0.5l-1.7,1.9l1.9,3.6l3.9,3.8l1.8,3.6c0,0-2.4,2.6-2.4,2.8c0,0.2,2.9,4.6,3.2,4.8c0.2,0.3,8.1,5.4,8.1,5.4
		s1.5,2.3,1.3,2.4c-0.2,0.1-3,0.8-3,0.8s-2.9-0.8-3.1-0.9c-0.2-0.1-3.3-0.3-3.3-0.3l-1.9,0.1l-0.1,1.6l-2.8,2.4c0,0-1.9,4.7-2,5
		c-0.1,0.3,0.1,4,0,4.2c-0.1,0.2-1.3,1.5-1.4,1.9c-0.2,0.4-1.4,3-1.6,3.4c-0.2,0.3-0.9,3.4-0.9,3.4l-2.3,2L242,227l-1.3,4.5
		c0,0-1.7,2.7-1.8,2.9c-0.1,0.2-1.1,1.4-1.1,1.4s0.7,0.5,0.7,0.8s0,3.4,0,3.4l2,0.8l-0.6,2.5c0,0-2,0.8-2.1,0.9
		c0,0.2-0.6,3.7-0.6,3.7l-1.1,0.6l-1.1,3.7c0,0-0.3,2-0.5,2.3c-0.1,0.3-1.9,2-1.9,2s-3.9,1.7-4,1.8c-0.1,0.1-6,2.9-6.2,3
		c-0.2,0.1-2.9,0.8-2.9,0.8l-0.7-3.4l1.4-2.7l-1.4-0.1l-2.2-2.2l-3-0.3c0,0-4,0.3-4.1,0.3c-0.2,0-1.4,0.7-1.5,0
		c-0.1-0.7,0-3.4,0-3.4l-2.9,1l-2.7-2.3l-1.5-1.2l-1.3,3.6l-2.4,2l-2.7-0.5l-2.1-0.2l-3.8,2.3c0,0-1-1.5-0.9-1.8
		c0.1-0.3,0.2-5.2,0.2-5.2l-3,0.9l-2.7-0.8l-3,1.3c0,0-4-1.6-4.2-1.6c-0.2,0-3.3,0.1-3.4,0.2c-0.2,0.1-0.7,1-0.7,0.9
		c0-0.2-0.2-4.5-0.2-4.5l-1.1-4.4l-1.6-3.4l0.1-2.3l0.9-2.9l-1.1-1.5l-1.7-2.4c0,0-2.1,1.3-2.3,1.5c-0.3,0.2-2.4,0.6-2.4,0.6
		l0.7-2.4l2.6-1.2c0,0-1.7-0.8-2-0.8s-2.8,0.4-3,0.2c-0.2-0.2-1-1.6-0.7-1.7s3.1,0,3.1,0s-0.9-1.9-1.2-1.9s-1.9,0.2-2.1-0.1
		c-0.2-0.3-0.8-2.2-0.8-2.2l1.2-2.9v-2l-2.5-2.6l-1.3-1.3l-0.4-3.1c0,0,0.6-2.9,0.7-3c0.1-0.1,0.7-1.5,0.8-1.8s2-5.4,2-5.4l1.8-2.6
		l0.9-0.8L162.1,194.4z"/>
	<path class="st1" d="M333.7,196.7c0,0-3.6,3.7-3.6,3.8c0,0.1-2,3.3-2.5,3.6c-0.5,0.3-4.2,2.2-4.5,2.3s-4.5,0.2-4.7,0s-7-0.8-7-0.8
		l-5.7-0.3l-6.6-1.1c0,0-3.7-0.5-4.1-0.6c-0.4-0.1-2.4-2.1-2.8-1.9c-0.4,0.2-3.4,0.3-3.6,0.4c-0.2,0.2-1.9,4.2-2.2,4.4
		c-0.3,0.2-3.9,1.5-3.9,1.5s-0.9-1.3-1.4-1c-0.5,0.3-2.7,3.2-2.7,3.2s-2,3.5-2.1,3.6c0,0.1-0.5,3.5-0.5,3.5l0.7,2.9l0.3,3.8l0.8,2.1
		c0,0-1.9-1.9-2.1-1.9c-0.3,0-0.8,1-1.5,2.1c-0.8,1.2-3.1,3.7-3.1,4c0,0.3,0.6,3.4,0.6,3.4l-0.2,4.6c0,0-2.2,2.7-2.3,3.3
		c-0.1,0.5-0.7,3.7-0.8,3.8c-0.1,0.1-2.4,2.6-2.4,2.6l0.4,3.6c0,0,1.5,2.8,1.8,3s4.8,1.4,4.8,1.4l0.8,3.3l0.5,2.8
		c0,0-0.6,3.7-0.4,4.4c0.2,0.7-0.2,5-0.4,5.4s-2,2.8-2.2,3.1s1.8,3.2,1.8,3.2l3.6,1.1l2.8-1.8l2.6,0.3l1.3-1.1l-1-5.4l0.8-5.6
		l-0.2-4.1l0.4-3.6l-0.3-3.4l0-1.8l-2.8-3.5l1-0.3l5.1-3.8l3-0.6l1.3,2.2l-0.1,4.8l-1.7,3.4l1.5,2.5l2.7,1.9l3.2,2l0.6,4.9
		c0,0-1.7,1.3-1.3,1.6c0.4,0.3,2.6,1.7,3.1,1.8s2.5,0.9,2.5,0.8c0-0.1,0.3-4.6,0.3-4.6l2.8-1.4c0,0,2.5,1.3,2.7,1.2
		c0.2-0.1,3-2.8,2.8-2.9c-0.2-0.2-3.4-3.4-3.4-3.4l-3.3-3l-0.6-1.9l1.8-3l-2-3.6l-0.8-3.1l-1.5-2.3l-3-2.5l-3.2-3.6
		c0,0,2.9,0.4,3.1,0.3s2.8-3.7,2.8-3.7l4.3-0.3l2.3-2.1l2.5-3.4l1.9-1.2c0,0,4.9-0.4,5-0.2s0.2,2.5,0.3,2.1s0.8-4.1,0.5-4.3
		s-4.8-0.8-4.8-0.8s-1.2,1.5-1.8,1.5s-3.6-0.5-3.7-0.5c-0.1,0-3.6,1.7-3.6,1.7l-1.9,1.4l-3.5,0.2l-1.4-0.5l-3.3,3.7l-3.2,1l-4.4-0.8
		l-2.4-3.8l-2.2-2.1l-1.3-5l0.6-4.3l0.3-3.1l4.1-1.8l4.5,0.4l3.9-0.1l3.8-1.8l2.8,1.9l7.4-0.8l8.2,1.5c0,0,3,1.5,3.1,1.5
		c0.1,0,6.7-1.8,6.7-1.8l3.3-0.2l2.6-4.2l3.5-2.5l2-4.2l0.5-1.6l-1.5-1.8H333.7z"/>
	<path class="st1" d="M398.5,259.1l0.9-4.2l-6.3-4.5l-8-2.5l-5.9,0.5c0,0-3.8-0.9-4.4-0.5c-0.6,0.4-5.6,1-5.6,1l-2.2,2.3l-0.4,3.3
		l5.2-1.4c0,0,0.3,2.3,1.4,1.7c1.1-0.7,4.4-4,4.4-4l0.3,1.9l4.2,0.8l5.1-1.3l2.3,1.7l3.6,2.3l2.3,1.1L398.5,259.1z"/>
	<path class="st1" d="M346.5,251.2l6.1-1c0,0,3.3,0.8,3.5,1c0.1,0.2,1.8,2.4,1.8,2.4l1,0.8c0,0-1,2-1.3,2.1c-0.3,0.1-4.7,2-4.7,2
		s-3.1-2-3.2-2s-4.1-2.3-4.1-2.3V252L346.5,251.2z"/>
	<path class="st1" d="M370.8,224.9c0,0-4.9-8.4-4.9-8.8s0.3-5.6,0.3-5.6l8.6,2.3c0,0-0.8-3.1-1.2-3.3c-0.4-0.1-4.1-2.1-4.1-2.1
		l5-2.8l1.1-5.1l-4.8,0.4l-2.1,1.6l0.6,2.1l-1.8,0.6l-0.9,2.3l-2.1,0.3l-1.1-0.1v-1.9l3.8-2.3l1.4-2.7l-0.4-1.6l-1.4-1.3l-0.9-1.6
		l1.9-2.9h-1.3l-4,4.1l-0.7,5.3l-0.8,1.2l1.8,3.3c0,0-0.4,1.8-0.3,2c0.1,0.3,0.4,2.9,0.4,2.9l1.7,0.8c0,0-0.8,2.4-0.6,2.6
		c0.1,0.2,0.2,4.8,0.2,4.8l2.3,1.9l1.9,3L370.8,224.9z"/>
	<path class="st1" d="M360.6,219.9c-0.1,0.1-0.9,0.9-0.7,1.3s1.7,3.4,1.7,3.4l1.5-0.4c0,0,1,1,1.2,1.1c0.2,0.1,1.5-0.2,1.5-0.3
		c0-0.1-0.4-1.1-0.6-1.3s-2.1-0.4-2.1-0.5c0-0.1,0.6-2.2,0.6-2.2c-0.1,0-0.9-1.7-0.9-1.7L360.6,219.9z"/>
	<path class="st1" d="M358.7,219.1c0.1,0.5,0.3,2.6,0.2,2.6c-0.1,0-1.3-0.5-1.3-0.6s0.3-1.4,0.3-1.4L358.7,219.1z"/>
	<path class="st1" d="M359.1,223.7c0.1,0,1,0.7,1,0.7s-1.7,0.1-1.7,0c0-0.1,0.5-0.7,0.5-0.7H359.1z"/>
	<path class="st1" d="M361.3,232c0.3-0.1,2.7-0.8,2.7-0.8s4.6,2.6,4.7,2.8c0.1,0.2,0.5,0.8,0,0.7c-0.5-0.1-6.1,0-6.1,0
		s-1.6-0.6-1.5-0.7C361,233.8,361.3,232,361.3,232z"/>
	<path class="st1" d="M339,235.8c1,0.1,7.8,0.3,7.8,0.3l-4.7,1.3H339l-0.9-1.3L339,235.8z"/>
	<path class="st1" d="M327.2,235c0.5,0,9,0.6,9,0.6v1l-8.5,2L327.2,235z"/>
	<path class="st1" d="M317.4,230c0,0,0,1.4,0,1.5c0,0.1-2.5,0.8-2.5,0.9c-0.1,0.1-0.8,1-1,1c-0.1,0,0-2.6,0-2.6s-1.3-0.6-1.4-0.3
		c0,0.4-1.1,1.8-1.3,2.3c-0.3,0.5-1.6,1.1-1.6,0.3c0-0.8-0.5-3.2,0-3.5c0.5-0.3,3.3-1,3.3-1l2,0.9l-0.2,2l1.3-1.5L317.4,230z"/>
	<path class="st1" d="M308,277c0.3-0.3,1.6-3.8,1.7-3.9c0-0.1,1-5.2,1-5.2s-0.5-3.1-0.5-3.3c0-0.1,1.3-2.9,1.3-2.9l1.9-1
		c0,0,1,0.5,1,1c0,0.6-1.1,2.8-1.3,3s-0.8,0.5-0.7,0.7c0.2,0.2,1.9,1.4,2,1.6s0.5,1.1,0,1.4s-2,0.9-2.3,1.1s-0.3,0.6-0.4,1.2
		c0,0.6-0.2,2.7-0.2,3c0,0.3,1.9,0.1,1.9,0.2c0,0.1,0.5,0.4,0.3,1.1c-0.2,0.7-2.3,1.8-2.7,2c-0.4,0.3-0.2,1.6-0.5,1.8
		s-2.6,0.5-2.8,0.4c-0.2-0.2-0.5-1.9-0.5-1.9L308,277z"/>
	<path class="st1" d="M307.1,275.5l-2.3-0.6l-0.2-2.8l0.5-2.5l2.1-1.2c0,0,0.8-0.9,1-0.8c0.3,0,1.2,0.5,1.1,1
		c-0.1,0.5-0.2,2.4-0.5,2.7c-0.3,0.3-1.9,0.5-1.9,1c0,0.5,0,1,0,1.3C307,273.9,307.1,275.5,307.1,275.5z"/>
	<path class="st1" d="M301.1,273.9c0,0.2,0,2.3,0,2.3s-2.4-1-2.4-1.2c0-0.2,0.3-2,0.3-2s1-0.5,1.3-0.3
		C300.6,273.1,301.1,273.9,301.1,273.9z"/>
	<path class="st1" d="M267,321c0.9-0.1,10.3-0.8,10.8-0.6c0.5,0.1,5.6,3,5.6,3l3.5,2.8l-1.1,3.6c0,0-5.3-0.6-5.6-1
		c-0.4-0.4-4.5-3.7-4.5-3.7s-4-0.6-4.5-0.6s-3.4-1.5-3.4-1.5L267,321z"/>
	<path class="st1" d="M238.9,308.3c0.4,0.1,1.9,2.9,1.7,3.9c-0.2,1-2,2.3-2.9,2.4c-0.9,0.1-3.5-0.9-3.5-0.9l1.8-4.2L238.9,308.3z"/>
	<path class="st1" d="M243.6,316.9c0.3,0,7.1-1.7,8.2-1.8c1.1-0.1,6.5,0.4,7.4,0.1c0.9-0.3,8.5-3.7,8.5-3.7s-0.2-3-1.1-2.9
		c-0.9,0.1-5.3,0.4-6,0.1c-0.8-0.3-5.9-1.9-5.9-1.9l-2.6,1.1c0,0,3.8,1.9,4.3,2s5.1,2.4,5.1,2.4s-2.8,1.3-2.9,1.3
		c-0.2,0-3-0.1-3.3-0.1s-3.1-2.3-3.1-2.3l-3.5-0.4c0,0-2.3-0.1-2.6,0c-0.3,0.1-2.8,1.9-2.8,1.9l-0.6,1.9L243.6,316.9z"/>
	<path class="st1" d="M227.8,292.1c0.1,0,1.4,0.5,1.1,0.7c-0.3,0.2-2.7,0.3-2.7,0.3l-0.6-1.2L227.8,292.1z"/>
	<path class="st1" d="M277.1,310.9c0.4-0.6,1.2-1.4,2.3-2c1.6-0.9,3.2-0.8,4.7-0.8c1.8,0.1,3.1,0.4,4.1,0.7c3.1,0.9,2.9,1.5,5.1,1.9
		c2,0.3,2.6-0.2,5,0.3c1.1,0.2,1.9,0.5,2.5,0.8c0,0,2.9-0.3,4.3-0.6c1.4-0.3,2.7-1.1,3.8-2.1c1.1-1,1.4-3.1,1.6-3.1
		c0.3,0,5.3,3.1,5.3,3.1l-4.5,0.6l-3.1,2.7c0,0-5.4,1.3-7.3,1.7s-7.7,0.1-9.2,0c-1.5-0.1-6.5,0.3-9.8,0.6c-3.4,0.3-5.5-2.1-5.7-2.3
		L277.1,310.9z"/>
	<path class="st1" d="M344.2,303.5c0.3,0.2,6.8,0,6.8,0l1.7-2.3c0,0-6.5,0.3-7,0.4c-0.5,0.1-2.4,1.1-2.4,1.1L344.2,303.5z"/>
	<path class="st1" d="M334.5,307.4c-0.4,1-4.1,3.1-4.8,2.9c-0.7-0.2-2.7-0.1-2.3-0.7c0.3-0.6,1.4-2.9,1.4-2.9L334.5,307.4z"/>
	<path class="st1" d="M326.5,308.5c0,0-1,2.5-1.8,2.3s-2-1.1-2-1.1l3.8-1.9V308.5z"/>
	<path class="st1" d="M320.7,307.8c0,0-3.4,3.2-3.9,3s-1.4-0.5-1.4-0.5l5.3-3V307.8z"/>
	<path class="st1" d="M328.1,318.7l-1.2,1.1c0,0-3.2,0.4-2.9,0C324.3,319.4,328.1,318.7,328.1,318.7z"/>
	<polygon class="st1" points="333.6,313 333.6,316.2 335.6,315.7 336.1,317.5 334.5,318.7 334.8,320.6 342.6,317.5 348.4,315.9 
		353.6,313.8 357.8,311.4 357.8,309.1 350.3,310.3 342.3,310.3 337.1,311.4 	"/>
	<path class="st1" d="M437,260l-0.6-1.4l-2.3-1.2c0,0-1.6-2-1.7-2.1c-0.1-0.1-1.9-1.2-2.1-1.3c-0.3-0.1-2.5-0.3-2.5-0.3l-0.8,2.7
		l2,2.6l-6.5,2.3l-2.3-4.3l0.9-2.2l-0.6-2.7l-2.1-0.3l-1.8-2.9l-4.2-0.8l0.2-1.9c0,0,2.6-0.1,2.8,0c0.3,0.1,5.3,0.3,5.3,0.3l2.3-2.7
		h3.5l2.8,1.4l2.5-1.8l0.8-2.5l-4.6-1.6l-4.3,0.3l-6.8,1.3l-4-2c0,0-1.9-2.6-2-3.2s3.3-2.3,3.3-2.3l-3.6,0.4l2-3.3l-3.9,2.1
		l-1.8-1.4c0,0-6.2,0.8-6.4,0.8c-0.3,0-3.4-4.5-3.4-4.5l1.3-1.2l3.1,0.3l0.4,3.4l3.8-4.9l5.2-2.3l5.7-2.5l5.6,0.6l4.6,2.8l8,0.7v1.4
		l1.3,2.4l1.4,3.1l-2.2,2.3v6.1l2.8,5.3l1.3,1.6l0.7-2.8l0.6-0.4l1.5,4l0.7,2.9c0,0,2.8,2.6,3.5,2.8c0.8,0.3,3.4,0,3.4,0l3.3-1.3
		c0,0,4.3-4.4,4.4-4.8c0.2-0.3,2.4-4.9,2.6-5.5c0.2-0.6,2.8-0.3,3.2-0.4c0.4-0.1,2.8-1.2,3.4-0.9c0.6,0.3,2.8-0.8,2.8-0.8l-0.8-3.8
		l7.7-2.5l2.3,0.5l5,1.9l2.8,1.8l3.2,0.9l4.4,2.1l3.6,1.5l4.2,0.7h3.8l2.4,2.2h3.3l0.1,20.8l-0.5,14.9l0.4,4.9l-0.4,1.1l-0.7,1.8
		l-0.4,2.3l1.8,2c0,0,0.4,23.9,0.4,24.4l-4-2.8l-4.3-6.3l-3.4-1.8h-6.5c0,0-1.5,0.7-1.7,0.7s-3.6,0.8-3.6,0.8s-4.1,1.2-4.3,1.2
		c-0.2,0-6.3-0.1-6.3-0.1l-2.7,0.2l4.1-8.9l8.5-1.3l1.8-2.7l-4-3.6c0,0,0.3-4.3,0-4.5c-0.3-0.2-3.8-5.7-3.8-5.7s-1.8-4-2-4.1
		c-0.2-0.1-5.4-6.1-5.4-6.1l-7.7-3.7l-5.9-0.2l-6.5-3.4l-7.9,0.1l-4.5-3l0.3-2.2l-3.3-0.6L437,260z"/>
	<path class="st1" d="M440.5,277.2l1.5,5.2c0,0-0.8,4.3-0.8,4.6c0,0.3-2.4,3.6-2.4,3.6s-2.3,1.9-2.7,1.8c-0.4-0.1-1.3-1.4-1.2-1.8
		c0.1-0.3,0.3-5.8,0.3-5.8l2.3-4.3l2.1-3.3H440.5z"/>
	<path class="st1" d="M407.8,295.9c-0.1,0.6-2.7,6.4-2.7,6.4l-2.8,1.8l0.8-4.1l2.9-3.1l1.3-1H407.8z"/>
	<polygon class="st1" points="450.3,223 455.9,225.2 459.7,227.9 456,228.8 453.5,227.8 450.3,224.4 449.1,223.4 	"/>
	<polygon class="st1" points="450.2,233.4 454.5,234.4 458.2,234.4 460.7,235.3 462.9,235.3 465.1,235.9 461.5,237.1 457.1,236.6 
		453.2,234.6 451,234.8 449.8,234.5 	"/>
	<polygon class="st1" points="444.5,227.9 443.1,227.9 443.1,227.1 	"/>
	<path class="st1" d="M397.2,216.4c0,0.2-3.3,0.4-3.3,0.4s0.8,1.5,0.6,1.5c-0.2,0-1.4,0-1.4,0l1.4,0.5l1.3,0.5l-0.3,2h1l-0.3-0.9
		l0.9-0.8l0.4,1.3l2.1-1.2l3.2,0.5l0.8-1.8c0,0-1.1-1.3-1.5-1.3s-3-0.2-3.2-0.2C398.8,216.7,397.2,216.4,397.2,216.4z"/>
	<path class="st1" d="M382.9,216.4c0.1,0.2,1.3,1.5,1.3,1.5l-1.3-0.7v-0.5V216.4z"/>
	<path class="st1" d="M375.3,189c-0.2,0.6-1.6,3.2-1.8,3.2c-0.1,0-0.4,1.1-1.1,0.9c-0.8-0.2-2.8-2-2.8-2l1.8-3l2-1.3L375.3,189z"/>
	<path class="st1" d="M393,235.5c0,0-5,1-5.1,1.1c-0.2,0.1-1.2,0.2-0.6,0.6c0.6,0.4,3.2,1,3.6,1s3.1-0.9,3.1-0.9s0.5-1.7,0.3-1.8
		C394,235.3,393,235.5,393,235.5z"/>
	<polygon class="st1" points="385.7,302.8 387.4,303.6 387.4,304.9 385.4,303.6 385.4,303.1 	"/>
</g>
</svg>
