<svg id="svg" version="1.1" xmlns="http://www.w3.org/2000/svg" xmlns:xlink="http://www.w3.org/1999/xlink" width="400" height="571.4" viewBox="0, 0, 400,571.4"><g id="svgg"><path id="path0" d="M143.989 0.331 C 143.807 0.513,143.391 0.979,143.064 1.368 C 142.243 2.343,141.539 2.765,139.625 3.429 C 138.718 3.743,137.639 4.174,137.227 4.386 C 134.748 5.663,132.776 5.986,126.190 6.194 C 119.607 6.402,117.481 6.710,116.599 7.585 C 114.817 9.350,114.352 17.025,115.859 19.791 C 117.002 21.889,116.843 23.136,115.188 25.062 C 113.723 26.768,113.596 27.092,112.720 31.383 C 111.992 34.945,112.104 37.343,113.089 39.274 C 114.252 41.553,113.528 42.153,109.048 42.624 C 100.799 43.492,98.587 44.073,94.643 46.409 C 93.988 46.797,93.131 47.296,92.738 47.519 C 92.345 47.741,91.970 48.000,91.905 48.094 C 91.839 48.188,90.929 48.727,89.881 49.292 C 88.833 49.857,87.280 50.814,86.429 51.419 C 85.577 52.025,84.399 52.800,83.810 53.142 C 81.205 54.654,80.949 55.174,79.293 62.299 C 78.805 64.398,78.376 65.609,77.731 66.704 C 75.845 69.909,75.337 72.650,76.050 75.784 C 77.311 81.329,76.677 83.446,73.571 84.055 C 72.345 84.296,71.759 84.462,70.595 84.894 C 70.333 84.992,69.930 85.109,69.699 85.154 C 69.468 85.199,68.854 85.504,68.335 85.832 C 67.815 86.160,67.342 86.429,67.284 86.429 C 66.977 86.429,64.085 88.308,63.440 88.926 C 61.758 90.538,60.490 95.830,61.187 98.333 C 61.416 99.157,62.730 100.974,63.049 100.910 C 64.071 100.704,66.513 103.439,67.037 105.374 C 67.601 107.456,67.392 108.335,66.078 109.412 C 65.467 109.913,64.969 110.550,64.883 110.942 C 64.745 111.573,63.348 113.095,62.908 113.095 C 61.532 113.095,60.957 116.389,62.054 117.987 C 63.250 119.730,63.003 120.419,60.487 122.340 C 60.009 122.705,59.762 123.103,59.762 123.509 C 59.762 125.354,57.530 127.159,54.538 127.735 C 54.263 127.788,53.233 128.110,52.249 128.449 C 51.264 128.789,49.739 129.123,48.860 129.190 C 46.943 129.338,45.238 129.740,45.238 130.045 C 45.238 130.167,45.138 130.204,45.015 130.128 C 44.892 130.052,44.400 130.501,43.922 131.126 L 43.053 132.262 43.189 134.167 C 43.265 135.214,43.418 137.651,43.530 139.582 C 43.689 142.311,43.822 143.191,44.129 143.530 C 44.346 143.770,44.524 144.089,44.524 144.240 C 44.524 144.390,45.622 145.599,46.964 146.925 C 49.942 149.867,49.893 149.826,51.087 150.429 C 52.517 151.150,52.685 151.465,52.770 153.578 C 52.912 157.127,51.612 159.528,48.954 160.621 C 48.352 160.869,47.859 161.152,47.858 161.250 C 47.858 161.348,47.707 161.429,47.523 161.429 C 47.338 161.429,46.750 161.794,46.216 162.241 C 44.527 163.652,43.624 164.087,41.958 164.294 C 39.327 164.620,38.604 165.778,38.198 170.319 C 38.043 172.062,37.545 172.890,36.745 172.738 C 36.505 172.693,36.131 172.647,35.913 172.637 C 35.695 172.627,35.266 172.405,34.961 172.143 C 32.728 170.233,32.388 170.090,30.987 170.467 C 29.897 170.760,29.146 171.550,29.091 172.462 C 29.068 172.834,28.981 173.249,28.897 173.385 C 28.699 173.704,26.174 173.454,25.951 173.093 C 25.860 172.946,25.636 172.795,25.452 172.758 C 25.269 172.721,24.927 172.608,24.693 172.507 C 23.202 171.862,21.429 172.939,21.429 174.488 C 21.429 175.337,21.291 175.713,20.789 176.237 C 20.213 176.838,20.140 177.112,20.067 178.958 C 20.018 180.181,19.791 181.587,19.505 182.436 L 19.025 183.862 19.519 185.869 C 19.945 187.597,19.968 187.942,19.686 188.344 C 19.409 188.740,19.410 189.009,19.693 190.121 L 20.027 191.432 19.271 192.484 C 18.856 193.063,18.234 193.654,17.889 193.798 C 15.513 194.786,14.464 196.859,13.906 201.667 C 13.838 202.256,13.681 203.523,13.558 204.482 C 13.198 207.274,13.259 208.283,13.806 208.625 C 14.272 208.916,13.229 210.236,12.531 210.238 C 11.908 210.239,9.357 212.143,7.716 213.830 C 6.681 214.896,5.244 216.203,4.524 216.736 C 3.804 217.269,3.161 217.770,3.095 217.849 C 3.030 217.928,2.674 218.225,2.304 218.509 C -0.606 220.742,-0.851 224.361,1.860 225.044 C 2.497 225.204,3.453 225.753,4.257 226.419 C 6.270 228.088,9.289 229.516,11.786 229.981 C 15.026 230.584,18.765 232.488,20.753 234.547 C 21.625 235.451,22.432 236.190,22.545 236.190 C 22.917 236.190,24.286 237.584,24.286 237.963 C 24.286 238.239,24.029 238.334,23.274 238.337 C 20.859 238.346,20.747 240.558,23.129 241.200 C 24.384 241.537,24.910 242.455,23.766 242.312 C 22.768 242.188,21.712 242.707,21.424 243.464 C 21.187 244.089,20.714 244.261,20.714 243.723 C 20.714 242.208,18.671 241.654,17.960 242.976 C 17.203 244.381,15.886 244.160,14.888 242.461 C 13.879 240.744,10.466 240.724,9.253 242.427 C 8.255 243.829,8.709 246.429,9.952 246.429 C 10.359 246.429,10.217 248.770,9.729 250.121 C 9.400 251.031,9.939 252.378,10.821 252.851 C 12.643 253.826,11.542 255.068,8.710 255.231 C 6.186 255.377,5.377 255.763,5.095 256.956 C 4.669 258.758,5.258 259.321,7.492 259.250 C 9.852 259.175,11.179 259.893,11.187 261.250 C 11.191 262.035,10.780 262.093,9.935 261.429 C 7.331 259.380,5.361 262.812,7.178 266.233 C 8.131 268.028,8.147 268.016,5.684 267.285 C 3.274 266.571,2.464 267.495,2.549 270.860 C 2.595 272.668,3.319 274.581,4.295 275.476 C 4.582 275.739,5.197 277.255,5.088 277.431 C 5.024 277.534,5.092 277.619,5.238 277.619 C 5.385 277.619,5.445 277.715,5.373 277.832 C 5.300 277.949,5.401 278.428,5.597 278.896 C 6.029 279.931,6.033 280.000,5.648 280.000 C 3.425 280.000,4.332 286.360,6.696 287.353 C 7.710 287.778,7.791 288.025,7.259 289.054 C 5.932 291.619,6.865 303.571,8.391 303.571 C 8.490 303.571,8.571 303.718,8.571 303.896 C 8.571 306.203,12.607 306.910,16.310 305.252 C 16.571 305.135,17.571 304.742,18.530 304.380 L 20.274 303.720 21.340 304.301 C 21.927 304.620,22.634 305.122,22.911 305.417 C 23.925 306.492,25.774 305.715,26.102 304.075 C 26.347 302.847,27.368 302.269,28.046 302.973 C 28.745 303.700,29.271 305.225,29.031 305.833 C 28.557 307.034,28.780 308.455,29.556 309.182 C 30.963 310.500,32.381 312.625,32.384 313.419 C 32.390 315.116,32.672 315.844,33.831 317.143 C 35.118 318.585,35.907 320.543,36.544 323.870 C 36.940 325.939,37.622 327.123,39.046 328.214 C 39.558 328.607,39.983 329.054,39.989 329.207 C 40.009 329.703,41.588 332.812,42.230 333.620 C 42.574 334.051,43.079 334.684,43.352 335.026 C 43.625 335.368,44.295 336.329,44.841 337.161 C 45.658 338.407,45.987 338.711,46.705 338.880 C 47.530 339.074,49.286 342.658,49.286 344.148 C 49.286 344.410,47.681 345.257,47.043 345.331 C 46.483 345.397,45.987 346.841,45.970 348.452 C 45.955 349.844,45.413 353.313,45.135 353.792 C 43.815 356.070,45.441 358.978,47.679 358.342 C 49.799 357.739,49.829 357.744,50.672 358.792 C 52.876 361.535,55.978 361.627,59.405 359.052 C 60.452 358.264,61.419 357.620,61.552 357.619 C 61.685 357.619,62.186 357.353,62.664 357.028 C 64.922 355.494,66.045 355.647,68.259 357.792 C 69.883 359.364,70.562 360.810,70.349 362.236 C 70.159 363.502,70.608 364.491,71.723 365.262 C 72.627 365.888,72.733 365.979,74.702 367.802 C 76.280 369.262,76.441 369.673,75.774 370.529 C 75.190 371.278,72.423 374.048,72.259 374.048 C 72.076 374.048,70.512 375.754,69.692 376.850 C 69.326 377.338,68.710 378.155,68.323 378.664 C 67.936 379.173,67.619 379.735,67.619 379.914 C 67.619 380.092,67.535 380.238,67.432 380.238 C 67.330 380.238,67.056 380.560,66.824 380.952 C 66.592 381.345,66.474 381.667,66.563 381.667 C 66.652 381.667,66.596 381.822,66.438 382.012 C 66.280 382.203,66.221 382.579,66.307 382.849 C 66.405 383.159,66.280 383.637,65.968 384.142 C 64.455 386.590,63.994 388.290,63.961 391.548 C 63.915 396.152,64.380 396.659,68.966 397.008 C 69.902 397.079,70.936 397.239,71.262 397.363 C 71.589 397.487,71.907 397.537,71.970 397.475 C 72.032 397.412,72.391 397.687,72.767 398.085 C 73.143 398.484,73.541 398.810,73.652 398.810 C 73.763 398.810,74.110 399.011,74.424 399.258 C 74.948 399.671,75.534 399.817,77.857 400.116 C 78.315 400.175,80.030 400.712,81.667 401.308 C 83.304 401.905,85.071 402.461,85.595 402.545 C 88.475 403.004,88.511 406.907,85.687 412.432 C 84.998 413.781,85.015 417.461,85.726 420.595 C 86.604 424.464,86.630 424.152,85.324 425.353 C 83.539 426.995,82.978 427.149,82.189 426.211 C 80.672 424.406,78.443 424.662,76.447 426.870 C 73.864 429.726,73.821 429.882,75.263 431.213 C 76.459 432.318,76.406 432.521,74.649 433.568 C 71.976 435.161,71.141 438.141,71.713 444.048 C 72.024 447.252,71.384 448.060,68.230 448.444 C 66.356 448.673,65.904 448.866,64.704 449.951 C 64.147 450.455,62.997 451.342,62.149 451.922 C 59.426 453.785,56.842 456.209,56.602 457.125 C 56.302 458.274,56.581 460.639,57.104 461.374 C 57.387 461.772,57.619 462.192,57.619 462.309 C 57.619 462.425,58.074 462.965,58.631 463.508 C 60.778 465.604,64.444 465.635,65.003 463.560 C 65.404 462.070,66.571 461.568,68.050 462.251 C 70.277 463.278,70.855 466.905,68.793 466.905 C 68.144 466.905,66.669 467.600,66.639 467.920 C 66.559 468.778,66.816 469.265,67.861 470.238 C 70.097 472.320,69.143 474.718,65.820 475.371 C 64.919 475.548,63.575 477.574,63.568 478.765 C 63.562 479.760,63.313 479.955,61.711 480.212 C 60.215 480.454,57.631 481.592,56.230 482.627 C 55.224 483.371,55.010 484.487,55.690 485.442 C 57.901 488.547,49.909 493.007,46.440 490.603 C 45.236 489.769,43.031 489.779,41.376 490.626 C 41.019 490.809,39.948 491.108,38.995 491.292 C 34.808 492.100,34.506 493.522,37.895 496.460 C 38.766 497.214,39.309 497.927,39.619 498.721 C 40.704 501.501,42.824 502.237,44.781 500.515 C 46.746 498.785,50.768 497.911,51.838 498.981 C 53.108 500.251,54.287 506.334,53.490 507.507 C 51.503 510.430,50.594 513.652,51.309 515.237 C 52.069 516.923,53.528 518.445,54.762 518.838 C 56.765 519.477,57.528 520.201,57.812 521.728 C 58.132 523.448,58.351 523.733,59.611 524.068 C 61.297 524.516,64.048 526.978,64.048 528.039 C 64.048 528.220,64.294 528.591,65.623 530.410 C 65.835 530.701,66.538 531.278,67.184 531.693 L 68.359 532.447 70.787 532.240 C 75.249 531.860,75.869 531.920,77.798 532.917 C 80.883 534.512,83.190 534.150,85.339 531.733 C 87.576 529.219,89.675 529.144,94.358 531.412 C 97.849 533.102,99.578 533.418,104.610 533.285 C 106.854 533.225,109.065 533.260,109.524 533.361 C 109.982 533.462,110.715 533.608,111.153 533.685 C 112.196 533.867,114.110 534.846,114.826 535.562 C 115.392 536.128,115.783 536.291,118.404 537.052 C 120.435 537.642,120.896 538.775,119.298 539.254 C 116.579 540.069,116.184 542.440,118.632 543.255 C 120.298 543.809,121.353 544.611,121.436 545.386 C 121.668 547.568,120.805 548.810,119.056 548.810 C 117.030 548.810,116.967 549.364,118.692 552.029 C 119.284 552.943,119.884 554.119,120.026 554.643 C 120.168 555.167,120.535 556.345,120.841 557.262 C 121.147 558.179,121.467 559.277,121.551 559.702 C 121.790 560.907,123.179 561.673,123.494 560.774 C 124.294 558.492,127.608 558.161,127.662 560.358 C 127.701 561.967,127.589 562.406,126.964 563.095 C 126.353 563.768,126.269 563.794,125.688 563.487 C 124.004 562.596,121.949 565.870,122.962 567.830 C 123.892 569.628,127.115 569.731,128.544 568.009 C 128.722 567.794,128.989 567.619,129.137 567.619 C 129.480 567.619,131.704 565.527,132.255 564.686 C 132.966 563.601,134.462 564.075,136.190 565.934 C 137.300 567.127,138.124 567.632,138.762 567.509 C 139.593 567.349,142.624 566.422,143.933 565.928 C 145.646 565.281,147.381 565.351,147.381 566.067 C 147.381 566.233,147.086 566.429,146.726 566.503 C 145.382 566.778,145.119 567.189,145.119 569.017 C 145.119 571.166,145.287 571.334,147.335 571.224 C 149.664 571.100,151.342 571.126,153.143 571.315 C 154.922 571.502,154.697 571.693,155.127 569.631 C 155.196 569.297,155.778 567.931,156.420 566.595 C 157.061 565.260,157.695 563.560,157.829 562.819 C 158.689 558.040,161.767 556.711,169.524 557.771 C 172.464 558.173,173.037 558.505,173.600 560.135 C 173.964 561.189,175.599 563.530,175.991 563.560 C 176.078 563.566,176.516 563.920,176.964 564.345 C 180.023 567.251,182.350 568.322,184.062 567.613 C 185.069 567.196,185.152 566.515,184.631 562.976 C 183.933 558.236,183.876 556.260,184.394 554.792 C 184.585 554.252,184.679 553.810,184.603 553.810 C 184.527 553.810,184.585 553.666,184.731 553.490 C 184.877 553.314,184.927 553.102,184.843 553.017 C 184.759 552.933,185.053 552.712,185.497 552.525 C 186.312 552.183,186.698 552.180,190.603 552.498 C 192.294 552.635,192.811 552.603,193.019 552.348 C 193.541 551.708,194.444 549.861,194.748 548.810 C 195.104 547.580,196.424 544.307,196.736 543.880 C 196.851 543.722,196.990 542.811,197.045 541.856 C 197.359 536.394,197.458 535.812,198.103 535.643 C 198.553 535.526,200.476 536.753,200.476 537.157 C 200.476 537.374,201.833 538.178,202.262 538.215 C 202.393 538.227,202.906 538.030,203.403 537.779 C 204.566 537.191,204.720 537.382,204.218 538.794 C 203.226 541.588,204.546 542.450,206.975 540.595 C 207.576 540.137,208.135 539.762,208.218 539.762 C 208.300 539.762,208.995 539.119,209.762 538.333 L 211.155 536.905 212.705 536.905 C 215.856 536.905,216.218 536.195,214.107 534.149 C 213.354 533.419,212.454 532.546,212.106 532.208 C 210.577 530.722,211.394 527.888,213.452 527.539 C 215.101 527.259,215.719 527.067,215.976 526.757 C 216.126 526.576,216.399 526.429,216.582 526.429 C 216.765 526.429,217.324 526.158,217.824 525.827 C 219.378 524.798,221.965 524.671,224.272 525.509 C 225.000 525.773,225.864 526.073,226.193 526.176 C 226.522 526.279,229.561 526.366,232.947 526.371 L 239.104 526.379 239.850 525.614 C 241.406 524.015,241.663 523.937,245.630 523.844 C 248.635 523.774,249.442 523.830,250.333 524.170 C 251.993 524.804,253.651 523.589,253.651 521.740 C 253.651 521.427,254.015 521.332,254.860 521.423 C 255.543 521.496,256.602 522.363,256.906 523.098 C 257.306 524.063,258.061 524.318,259.583 523.999 L 260.854 523.732 262.066 524.924 C 263.333 526.171,265.582 527.093,268.663 527.628 C 272.472 528.289,273.671 529.370,273.141 531.666 C 272.830 533.011,272.966 533.475,273.840 534.048 C 274.854 534.711,276.422 536.503,276.435 537.013 C 276.442 537.273,277.426 538.041,278.764 538.831 C 279.855 539.475,280.274 540.630,280.342 543.189 L 280.399 545.329 281.469 546.296 C 282.426 547.160,284.186 547.974,285.595 548.203 C 286.158 548.295,287.013 547.796,287.738 546.954 C 288.828 545.686,290.466 546.263,290.473 547.917 C 290.477 548.970,291.365 549.201,291.989 548.311 C 292.236 547.958,292.483 547.857,292.831 547.968 C 293.315 548.121,295.423 549.762,295.136 549.762 C 295.055 549.762,295.142 550.003,295.328 550.298 C 295.515 550.592,295.745 551.205,295.840 551.659 C 295.935 552.113,296.091 552.649,296.186 552.849 C 296.281 553.050,296.560 553.643,296.807 554.167 C 297.684 556.030,298.317 556.260,300.500 555.509 C 301.770 555.072,302.618 555.134,302.961 555.689 C 303.187 556.056,307.289 557.310,308.919 557.511 C 310.484 557.704,311.203 558.066,312.609 559.367 C 313.128 559.847,313.824 560.364,314.157 560.515 C 314.490 560.667,314.762 560.867,314.762 560.961 C 314.762 561.245,317.083 562.151,317.450 562.010 C 318.344 561.667,318.529 560.119,317.990 557.500 C 317.684 556.011,317.423 552.505,317.372 549.167 C 317.349 547.723,317.587 544.876,317.878 543.095 C 318.344 540.251,318.167 538.282,317.262 536.223 C 316.294 534.022,316.281 533.861,316.880 531.697 C 317.367 529.940,317.406 525.496,316.948 523.810 C 316.824 523.351,316.491 522.129,316.207 521.094 C 315.659 519.091,315.027 516.278,314.871 515.148 C 314.819 514.771,314.586 514.194,314.353 513.865 C 314.119 513.536,313.824 513.094,313.696 512.883 C 313.569 512.672,313.215 512.112,312.911 511.638 C 312.527 511.038,312.316 510.267,312.219 509.108 C 312.009 506.613,312.198 506.019,313.690 504.479 C 314.411 503.735,315.000 503.066,315.000 502.992 C 315.000 502.918,315.170 502.670,315.377 502.440 C 315.584 502.211,316.505 501.061,317.423 499.885 C 318.342 498.709,319.943 496.887,320.981 495.838 C 324.780 491.997,325.071 491.396,325.103 487.345 C 325.119 485.345,324.857 484.832,323.455 484.106 C 322.559 483.643,321.190 482.560,321.190 482.315 C 321.190 481.597,319.562 480.462,317.483 479.731 C 312.881 478.113,311.437 475.552,313.705 473.029 C 314.302 472.365,314.851 471.517,314.926 471.144 C 315.001 470.771,315.168 470.401,315.297 470.320 C 316.027 469.869,319.720 470.511,320.655 471.251 C 320.818 471.381,320.952 471.412,320.952 471.321 C 320.952 471.230,321.235 471.378,321.580 471.649 C 322.801 472.610,324.585 471.950,325.349 470.257 C 325.970 468.878,325.714 468.305,323.788 466.768 C 320.262 463.955,320.207 460.001,323.646 456.484 C 325.568 454.519,326.810 453.976,328.928 454.174 C 331.032 454.371,331.627 454.068,332.574 452.311 C 333.880 449.891,335.092 448.310,337.816 445.476 C 341.244 441.909,341.479 441.691,342.738 440.883 C 344.004 440.070,344.975 438.526,344.946 437.370 C 344.929 436.704,345.647 434.443,347.437 429.524 C 348.081 427.756,348.644 426.135,348.689 425.922 C 348.734 425.709,349.003 425.026,349.286 424.405 C 349.569 423.783,349.836 423.100,349.879 422.887 C 349.961 422.486,350.288 421.596,350.810 420.361 C 351.188 419.467,351.829 417.635,352.311 416.071 C 352.513 415.417,352.823 414.548,353.000 414.142 C 353.962 411.936,354.338 408.395,353.670 407.840 C 353.437 407.647,352.237 407.462,350.548 407.359 C 347.364 407.164,347.171 407.050,346.875 405.197 C 346.572 403.297,347.422 401.377,349.374 399.550 C 349.970 398.993,350.137 398.881,351.621 398.037 C 352.443 397.570,354.598 395.365,355.343 394.229 C 356.449 392.541,356.910 391.748,358.494 388.797 C 358.744 388.331,359.173 387.635,359.448 387.249 C 359.723 386.863,359.960 386.468,359.975 386.370 C 359.990 386.272,360.205 385.951,360.453 385.656 C 360.701 385.360,361.156 384.819,361.464 384.453 C 361.772 384.087,362.292 383.766,362.619 383.739 C 362.946 383.712,363.716 383.396,364.328 383.036 C 364.941 382.676,365.589 382.381,365.769 382.381 C 365.948 382.381,366.226 382.251,366.385 382.091 C 366.544 381.932,367.101 381.584,367.622 381.318 C 370.741 379.723,376.237 376.376,377.095 375.547 C 377.265 375.383,377.596 375.112,377.831 374.946 C 378.220 374.669,378.831 373.923,380.824 371.289 C 381.212 370.776,381.721 370.165,381.955 369.931 C 382.189 369.697,382.381 369.420,382.381 369.316 C 382.381 368.864,384.944 367.381,385.732 367.377 C 387.699 367.369,388.155 365.255,386.738 362.720 C 386.168 361.699,386.061 360.370,386.548 360.345 C 390.501 360.135,392.143 359.219,392.143 357.223 C 392.143 356.368,391.049 354.755,390.219 354.388 C 387.895 353.358,386.761 352.670,386.515 352.143 C 385.830 350.678,385.710 350.321,385.714 349.762 C 385.717 349.435,385.798 346.211,385.895 342.599 L 386.071 336.030 386.768 335.025 C 387.152 334.472,387.635 333.928,387.843 333.817 C 388.051 333.706,388.631 333.228,389.133 332.754 C 389.636 332.280,390.384 331.722,390.797 331.513 C 393.925 329.929,394.970 325.878,393.119 322.506 C 392.713 321.766,392.381 321.013,392.381 320.832 C 392.381 320.651,392.189 320.363,391.954 320.192 C 391.718 320.021,391.238 319.498,390.886 319.030 L 390.245 318.178 390.777 317.464 C 391.070 317.072,391.849 316.205,392.507 315.539 C 393.166 314.872,393.720 314.129,393.738 313.888 C 393.756 313.646,393.793 313.342,393.819 313.212 C 394.128 311.671,393.284 310.424,391.071 309.151 C 390.417 308.774,389.774 308.381,389.643 308.276 C 389.512 308.172,389.038 307.848,388.590 307.555 C 388.142 307.263,387.733 306.896,387.682 306.740 C 387.582 306.436,389.879 305.007,390.476 305.001 C 390.673 304.999,391.176 304.677,391.594 304.285 C 392.013 303.892,392.420 303.571,392.499 303.571 C 393.465 303.571,397.381 297.759,397.381 296.326 C 397.381 296.175,397.862 295.579,398.451 295.002 C 400.080 293.403,400.104 292.740,398.597 290.938 C 397.929 290.138,397.301 289.346,397.203 289.179 C 395.833 286.849,391.943 288.806,391.565 292.015 C 391.294 294.319,390.094 295.627,388.426 295.435 C 387.722 295.354,387.599 295.181,385.740 291.667 C 384.197 288.751,383.018 287.990,379.967 287.942 C 376.829 287.892,376.803 287.879,375.734 285.756 C 374.557 283.417,374.343 283.232,370.668 281.393 C 368.276 280.196,367.404 280.619,363.971 284.644 C 363.078 285.691,362.146 286.772,361.899 287.046 C 360.867 288.192,358.987 288.645,354.643 288.794 C 349.908 288.956,349.762 288.938,349.762 288.196 C 349.762 287.127,347.446 285.943,344.175 285.340 C 343.655 285.244,342.745 284.961,342.151 284.710 C 341.557 284.460,340.857 284.169,340.595 284.064 C 339.875 283.775,336.866 282.893,336.190 282.772 C 335.345 282.622,333.737 281.660,332.685 280.675 C 331.473 279.542,329.762 277.630,329.762 277.411 C 329.762 277.313,329.571 277.025,329.338 276.771 C 328.835 276.222,327.756 273.786,327.499 272.616 C 327.368 272.017,326.778 271.256,325.382 269.881 C 324.318 268.833,323.073 267.514,322.616 266.950 C 322.160 266.385,321.439 265.707,321.015 265.444 C 320.591 265.180,320.061 264.571,319.838 264.089 C 319.616 263.608,319.270 262.957,319.071 262.643 C 318.871 262.329,318.685 261.917,318.658 261.729 C 318.365 259.736,316.575 258.901,311.881 258.570 C 307.304 258.246,306.234 258.501,304.405 260.346 C 302.971 261.793,302.721 262.322,301.035 267.481 C 300.437 269.309,300.185 269.455,298.209 269.116 C 294.822 268.536,294.735 268.341,294.876 261.672 C 294.994 256.109,295.006 256.175,293.593 254.813 C 292.794 254.043,291.564 251.541,291.168 249.881 C 290.330 246.363,288.378 245.000,284.177 245.000 C 281.317 245.000,280.993 244.835,280.691 243.218 C 280.403 241.677,279.995 241.108,278.739 240.500 C 277.766 240.029,277.143 239.234,277.143 238.462 C 277.143 236.912,274.265 236.531,271.878 237.765 C 270.267 238.597,270.290 238.603,268.391 236.832 C 262.280 231.129,260.000 228.286,260.000 226.370 C 260.000 224.073,259.054 223.294,256.876 223.796 C 255.012 224.225,254.881 224.171,253.592 222.440 C 252.933 221.557,252.221 220.619,252.009 220.357 C 251.797 220.095,251.364 219.345,251.045 218.690 C 250.727 218.036,250.380 217.339,250.274 217.143 C 248.870 214.543,248.641 213.844,249.153 213.715 C 252.950 212.762,251.170 204.300,247.041 203.681 C 246.471 203.595,245.607 203.285,245.121 202.992 L 244.237 202.458 245.081 202.058 C 246.582 201.345,248.003 198.631,247.494 197.451 C 247.107 196.556,247.071 196.232,247.048 193.452 C 247.026 190.898,246.965 190.501,246.469 189.702 C 246.163 189.211,245.995 188.810,246.094 188.810 C 246.192 188.810,246.022 188.542,245.714 188.214 C 245.407 187.887,244.914 187.619,244.620 187.619 C 243.980 187.619,242.619 186.535,242.619 186.026 C 242.619 185.575,243.932 184.297,244.947 183.761 C 246.538 182.920,245.519 181.534,243.152 181.322 C 240.791 181.111,239.135 180.553,238.106 179.625 C 236.138 177.846,233.596 179.136,233.907 181.755 C 234.104 183.416,233.815 183.842,232.928 183.197 C 231.628 182.253,231.245 180.992,230.837 176.310 C 230.092 167.759,229.556 166.593,226.801 167.532 C 223.286 168.729,223.231 172.556,226.673 176.420 C 227.855 177.748,227.892 178.451,226.834 179.477 C 225.356 180.910,222.605 180.048,222.250 178.042 C 222.187 177.685,222.030 177.116,221.901 176.776 C 221.772 176.437,221.667 175.700,221.667 175.139 C 221.667 173.655,221.262 172.694,220.518 172.412 C 219.518 172.032,218.808 171.355,218.682 170.660 C 218.618 170.309,218.205 168.865,217.764 167.451 C 217.323 166.038,216.888 164.540,216.799 164.124 C 216.596 163.182,217.325 160.731,218.450 158.571 C 218.894 157.720,219.484 156.566,219.761 156.005 C 220.643 154.226,219.944 153.442,217.255 153.196 C 212.701 152.778,211.022 151.992,209.950 149.776 C 209.094 148.008,208.638 147.690,206.679 147.501 C 205.515 147.389,204.816 147.197,204.531 146.912 C 204.298 146.679,204.009 146.448,203.889 146.399 C 203.298 146.157,202.381 144.541,202.381 143.742 C 202.381 142.454,202.728 142.462,204.447 143.789 C 206.832 145.631,207.118 145.508,207.396 142.523 C 207.495 141.463,207.757 140.065,207.980 139.418 C 208.794 137.045,208.038 135.476,206.081 135.476 C 202.885 135.476,200.601 132.768,202.043 130.687 C 202.847 129.526,204.186 128.304,205.448 127.578 C 206.901 126.742,207.083 126.225,206.338 125.046 C 205.697 124.030,205.166 123.715,202.619 122.842 C 201.124 122.330,199.802 121.524,199.775 121.108 C 199.768 120.997,199.534 120.587,199.256 120.196 C 198.643 119.335,198.706 116.581,199.368 115.306 C 200.360 113.396,200.505 109.486,199.609 108.841 C 199.494 108.758,199.102 108.231,198.738 107.669 C 197.938 106.434,197.652 106.093,195.896 104.264 C 194.174 102.472,194.081 102.095,194.857 100.062 C 195.492 98.402,195.663 96.810,195.236 96.546 C 194.881 96.327,194.048 96.650,194.048 97.007 C 194.048 97.177,193.744 97.697,193.373 98.164 C 192.548 99.202,191.979 99.035,190.844 97.419 C 189.409 95.378,190.437 91.881,192.119 93.079 C 193.681 94.191,194.660 93.488,194.418 91.429 C 194.133 88.999,194.066 89.202,195.280 88.811 C 196.952 88.272,197.925 86.815,197.502 85.482 C 197.157 84.396,195.921 84.630,194.183 86.108 C 193.047 87.075,192.683 87.104,192.359 86.252 C 192.056 85.454,192.275 84.151,192.849 83.341 C 194.884 80.472,195.489 77.956,194.525 76.375 C 193.404 74.536,194.465 73.008,197.226 72.486 C 198.667 72.213,199.025 72.081,199.492 71.646 C 200.349 70.846,200.167 69.807,198.929 68.442 C 197.448 66.809,197.059 65.916,197.256 64.602 L 197.415 63.540 198.886 63.574 C 201.101 63.626,201.151 63.616,201.562 62.988 C 202.074 62.206,201.834 61.592,200.804 61.047 C 199.396 60.302,199.347 58.349,200.690 56.463 C 201.542 55.266,200.876 53.810,199.476 53.810 C 196.592 53.810,197.716 48.958,200.984 47.299 C 201.900 46.834,202.162 46.459,202.736 44.791 C 203.667 42.090,203.012 41.123,200.403 41.344 L 198.657 41.491 196.787 39.288 C 194.876 37.035,193.990 36.429,192.611 36.429 C 189.299 36.429,189.976 31.182,193.613 28.662 C 196.028 26.988,196.074 25.383,193.776 22.930 C 192.014 21.049,191.866 20.277,192.893 18.338 C 193.532 17.133,193.687 16.017,193.313 15.319 C 193.019 14.770,190.196 12.890,189.478 12.765 C 188.931 12.669,187.291 11.737,186.348 10.985 C 185.110 9.998,184.802 9.934,183.253 10.337 C 182.519 10.528,181.620 10.629,181.256 10.562 C 180.893 10.494,180.372 10.413,180.100 10.382 C 179.828 10.351,178.974 9.931,178.203 9.448 C 176.407 8.325,174.635 8.180,173.666 9.077 C 172.780 9.897,172.501 11.206,172.875 12.788 C 173.346 14.781,173.258 19.126,172.708 21.012 C 172.562 21.514,171.774 21.541,170.952 21.071 C 170.093 20.580,169.778 20.634,168.482 21.493 C 164.859 23.893,164.992 23.893,158.736 21.526 C 156.101 20.529,151.190 17.639,151.190 17.085 C 151.190 16.942,151.123 16.893,151.040 16.976 C 150.855 17.160,150.013 16.125,149.874 15.542 C 149.818 15.309,149.556 14.371,149.291 13.458 C 149.026 12.544,148.810 11.227,148.810 10.531 C 148.810 3.292,146.312 -1.992,143.989 0.331 " stroke="none" fill="#ececec" fill-rule="evenodd"></path><path id="path1" d="M61.645 99.722 C 61.774 99.962,62.066 100.310,62.294 100.496 C 62.552 100.705,62.494 100.538,62.144 100.060 C 61.518 99.205,61.284 99.046,61.645 99.722 M74.273 372.083 L 73.452 372.976 74.345 372.156 C 75.176 371.392,75.348 371.190,75.166 371.190 C 75.126 371.190,74.724 371.592,74.273 372.083 " stroke="none" fill="#f0ecec" fill-rule="evenodd"></path><path id="path2" d="M61.645 99.722 C 61.774 99.962,62.066 100.310,62.294 100.496 C 62.552 100.705,62.494 100.538,62.144 100.060 C 61.518 99.205,61.284 99.046,61.645 99.722 M74.273 372.083 L 73.452 372.976 74.345 372.156 C 75.176 371.392,75.348 371.190,75.166 371.190 C 75.126 371.190,74.724 371.592,74.273 372.083 " stroke="none" fill="#f0ecec" fill-rule="evenodd"></path><path id="path3" d="M61.645 99.722 C 61.774 99.962,62.066 100.310,62.294 100.496 C 62.552 100.705,62.494 100.538,62.144 100.060 C 61.518 99.205,61.284 99.046,61.645 99.722 M74.273 372.083 L 73.452 372.976 74.345 372.156 C 75.176 371.392,75.348 371.190,75.166 371.190 C 75.126 371.190,74.724 371.592,74.273 372.083 " stroke="none" fill="#f0ecec" fill-rule="evenodd"></path><path id="path4" d="M61.645 99.722 C 61.774 99.962,62.066 100.310,62.294 100.496 C 62.552 100.705,62.494 100.538,62.144 100.060 C 61.518 99.205,61.284 99.046,61.645 99.722 M74.273 372.083 L 73.452 372.976 74.345 372.156 C 75.176 371.392,75.348 371.190,75.166 371.190 C 75.126 371.190,74.724 371.592,74.273 372.083 " stroke="none" fill="#f0ecec" fill-rule="evenodd"></path></g></svg>