<?xml version="1.0" encoding="utf-8"?>
<!-- Generator: Adobe Illustrator 25.0.0, SVG Export Plug-In . SVG Version: 6.00 Build 0)  -->
<svg version="1.1" id="Layer_1" xmlns="http://www.w3.org/2000/svg" xmlns:xlink="http://www.w3.org/1999/xlink" x="0px" y="0px"
	 viewBox="0 0 512 512" style="enable-background:new 0 0 512 512;" xml:space="preserve">
<style type="text/css">
	.st0{display:none;}
	.st1{fill:#FFFFFF;}
	.st2{fill-rule:evenodd;clip-rule:evenodd;fill:#F9F9F9;}
</style>
<g id="Layer_4" class="st0">
	
		<image style="display:inline;overflow:visible;enable-background:new    ;" width="914" height="764" xlink:href="39BBF3F4.jpg"  transform="matrix(0.5619 0 0 0.5619 -1.3284 41.3612)">
	</image>
</g>
<g id="Layer_5">
	<path class="st1" d="M307.1,77.4l0.4,0.2l0.1-0.2l0.7,0.4l0.1,0.1h0.4v-0.1l0,0l0.1,0.1h0.1V78c0,0.1,0.1,0.2,0.1,0.2l0.3,0.5
		l0.2-0.1l0.1,0.1h0.1l0.1-0.1l0.4-0.1l0,0h0.1l0.2,0.3l0.2-0.1l0.1-0.1l0.2-0.1v-0.2h0.1v-0.2H311v-0.2c0,0,0-0.1,0.1-0.1
		s0.1-0.1,0.1-0.1l-0.2-0.1h-0.2l-0.2-0.1l0.2-0.2l0.2-0.2h0.2l0.1,0.2l0.1,0.1l0.1,0.2l0.3-0.1l-0.1-0.4l-0.3,0.1l-0.1-0.3l0.1-0.2
		l-0.1-0.4v-0.1l0.2-0.1v0.1l-0.4,0.1l0.1,0.3l-0.4,0.1l-0.1-0.2h-0.3v-0.1h0.3l0,0h-0.2l-0.1-0.3h-0.1v-0.2v-0.1h0.5h0.2v-0.1
		l-0.1-0.2h0.1l0.1,0.4l0.1-0.1l-0.1-0.3H311l-0.1-0.3l-0.3,0.1h-0.2v-0.2l0.1-0.1l-0.1-0.1l-0.3,0.5v0.1l0.1,0.2h-0.1l-0.1-0.1
		h-0.2h-0.1c0,0,0,0,0,0.1s0,0.1,0,0.1h-0.1h-0.1v0.1h-0.2l0,0l0.2,0.4l-0.1,0.1l-0.1,0.1l-0.1,0.1l-0.2-0.3l0.1-0.1l-0.1-0.3h-0.1
		v-0.1h0.1l-0.1-0.3l0.3-0.2l-0.3-0.2h-0.1l-0.1,0.1l-0.1-0.1h-0.1l-0.1-0.3h0.2v-0.1l-0.3-0.1l0.3-0.1c0,0,0.1,0,0.1,0.1l0.2,0.3
		l0.2-0.1l-0.2-0.3h-0.2l-0.1-0.3l-0.3,0.3h-0.2l-0.2-0.2l-0.2,0.2v0.1h0.1l0.1,0.1l0.1-0.1l0.2,0.1v0.1h-0.1l0.1,0.3v0.1l0.1,0.2
		v0.1h-0.1l-0.2,0.2l-0.2,0.2l0.3,0.1v0.1l-0.1,0.1l0.1,0.1l0.1,0.1l-0.2,0.3l0.2,0.3v0.1l-0.1,0.1H308h-0.1v0.1l-0.1,0.1h-0.1
		l-0.1-0.1L307.1,77.4L307.1,77.4z"/>
	<path class="st1" d="M311.3,74.7l-0.1-0.3l0.1-0.1l0.1,0.1h0.1v-0.2l0.4-0.1v-0.3l0.3-0.1l0.1,0.1v0.1c0,0-0.3,0.1-0.3,0.2
		c0,0,0,0.1,0.1,0.1s0.3,0,0.3,0s0.1-0.1,0.2-0.1v-0.3v-0.1c0,0,0.5-0.1,0.5-0.2l0.2-0.1l-0.1-0.1v-0.1c0,0,0.1-0.1,0.2-0.1h0.1
		l-0.2-0.2v-0.3l-0.4,0.1L313,73h0.1v0.1v0.1l0,0H313l-0.2,0.1l-0.1,0.1l-0.1-0.1h-0.1l0,0l-0.5,0.1c0,0,0-0.1-0.1-0.1h-0.3
		c0,0,0.1,0.1,0,0.1s-0.5,0-0.5,0v0.1H311l0,0l-0.7,0.1l0.3,0.5h0.4l-0.1,0.1l0,0h0.1l0.4-0.1v0.1v0.1h0.1L311.3,74.7L311.3,74.7z"
		/>
	<path class="st1" d="M312.9,75.1l-0.1-0.3l0.1-0.1l-0.1-0.2h-0.3v0.1h-0.3v0.1v0.1v0.1V75l-0.3,0.1l0,0h0.3V75h0.1c0,0,0.1,0,0.2,0
		h0.1v0.1C312.6,75.1,312.9,75.1,312.9,75.1z"/>
	<path class="st1" d="M311.7,76.6c0,0-0.1,0.1-0.1,0l-0.1-0.4l0.2-0.1V76h0.2l-0.1,0.2v0.1L311.7,76.6L311.7,76.6z"/>
	<path class="st1" d="M310.3,74.1l-0.4,0.2l-0.1-0.1l0.1-0.1l-0.1-0.1l0,0l0.3-0.2L310.3,74.1z"/>
	<polygon class="st1" points="309.9,73.6 309.7,73.8 309.5,73.6 309.7,73.4 	"/>
	<path class="st1" d="M309.3,73.7l0.2,0.2l-0.1,0.1l-0.2-0.2L309.3,73.7L309.3,73.7z"/>
	<path class="st1" d="M312.1,72.7l-0.4,0.1v-0.1l0,0l0.3-0.1L312.1,72.7z"/>
	<polygon class="st1" points="312.8,72.5 312.8,72.3 312.9,72.3 312.9,72.1 312.7,72.2 312.7,72.5 	"/>
	<path class="st1" d="M311.6,72.1h-0.3V72C311.4,72,311.5,72,311.6,72.1C311.5,72,311.6,72.1,311.6,72.1z"/>
	<path class="st1" d="M311.2,75.2C311.2,75.2,311.2,75.1,311.2,75.2c0.1,0,0.2,0.1,0.2,0.1v0.1l0.1,0.3h-0.1L311.2,75.2L311.2,75.2z
		"/>
	<polygon class="st1" points="311.5,74.8 311.7,74.7 311.6,74.6 311.4,74.7 	"/>
</g>
<g id="svgg_1_">
	<path id="path0_1_" class="st2" d="M235.4,48.4c-0.4,0.7-0.6,0.8-1.1,0.5c-0.4-0.3-0.4-0.3-0.7,0.2c-0.4,0.7-0.8,0.9-1.3,0.9
		c-0.8,0-3,1.6-3.7,2.7c-0.4,0.5-0.8,0.6-1.3,0.2c-0.5-0.4-0.7-0.3-1.4,0.3c-0.6,0.5-1,0.6-1.5,0.4c-0.2-0.1-0.5-0.1-0.9,0.2
		c-0.8,0.4-1,0.4-1.6,0c-0.8-0.6-4.6-0.5-4.6,0.2c0,1.3-3.2,2.3-4.7,1.5c-0.6-0.3-2.3,0.2-2.6,0.9c-0.1,0.2-0.3,0.5-0.5,0.7
		c-0.2,0.2-0.4,0.8-0.6,1.3c-0.4,1.4-1.5,2.3-3.7,3.2c-1.7,0.7-1.7,0.6-1.7,2.1c0,1.6-0.2,1.8-3.1,3.4c-0.1,0.1-0.6,0.2-1,0.3
		c-0.7,0.2-2.4,2-2.4,2.6c0,0.2-0.2,0.4-0.3,0.6c-0.2,0.2-0.3,0.5-0.3,1c0,0.5-0.1,0.8-0.4,1.1l-0.4,0.4l0.5,0.3
		c0.5,0.3,0.7,1.6,0.2,2c-0.2,0.1-0.3,0.5-0.3,1.2c0,0.6-0.1,1.2-0.3,1.6c-0.5,0.9-0.4,1.7,0.2,3.1c0.9,1.9,1.1,2.4,1.6,2.6
		c1,0.5,1.3,1.3,1.4,3.6c0.1,2,0.1,2.1,0.6,2.6c0.4,0.4,0.5,0.7,0.6,2c0.1,1,0.2,1.6,0.4,1.9c0.4,0.4,0.6,1.7,0.6,4
		c0,1.8,0.1,2,0.4,2.4c0.7,0.8,0.6,4.1-0.2,5.6c-0.1,0.3-0.1,0.4,0,0.4c0.1,0,0.2,0.4,0.2,0.8c0,0.5,0.2,1.1,0.5,1.8
		c0.3,0.6,0.5,1.2,0.5,1.4c0,0.2,0.3,0.6,0.6,1c0.6,0.6,0.6,0.7,0.6,2.1c0,1.1,0.1,1.6,0.3,1.9c0.2,0.3,0.4,1.2,0.5,2.9
		c0.2,1.9,0.3,2.5,0.5,2.6c0.2,0.1,0.3,0.5,0.3,1.5c0,1.3,0,1.3,0.6,2c0.5,0.6,1,1.6,1,2.2c0,0.1,0.3,0.6,0.6,1.2
		c0.7,1.1,1,2.7,1,6.1c0,1.5,0.1,1.8,0.5,2.5c0.8,1.4,0.7,4.1-0.1,6.1c-0.1,0.3-0.3,1.1-0.3,1.9c-0.1,0.7-0.3,2.1-0.5,3
		c-0.2,0.9-0.5,2.1-0.6,2.6c-0.1,0.5-0.3,1.4-0.4,1.9c-0.1,0.5-0.3,1.3-0.3,1.7c-0.1,0.4-0.4,1.3-0.7,1.9c-0.4,0.8-0.5,1.4-0.5,2.1
		c0,0.7-0.1,1-0.5,1.6c-0.5,0.7-0.7,1.5-1.2,5.1c-0.1,0.6-0.3,1.4-0.6,1.9c-0.5,0.9-0.8,2.3-0.5,2.3c0.2,0,1.1-0.9,1.1-1.2
		c0-0.1,0.2-0.5,0.4-0.8c0.2-0.4,0.4-0.8,0.4-0.9c0-1.3,0.7-2,1.6-1.6c0.7,0.3,0.8,1.1,0.8,4.5c0,3.2,0,3.2-1.1,6.1
		c-0.1,0.4-0.3,0.8-0.3,1c0,0.7-0.9,1.9-1.4,1.9c-1.2,0-1.8-3.9-0.9-6c0.1-0.3,0.1-0.3-0.5-0.1c-0.6,0.2-0.6,0.3-0.6,1.3
		c0,0.6-0.2,1.3-0.3,1.6c-0.2,0.3-0.5,1.4-0.7,2.5c-0.9,3.9-1,4.4-1.5,5.6c-0.3,0.7-0.7,2-0.9,3c-0.2,1-0.5,2.3-0.7,3
		c-0.3,1.1-0.5,2-1,4.6c-0.2,1.2-1.2,3.8-3,8.1c-0.1,0.3-0.4,1-0.5,1.6c-0.2,0.6-0.5,1.3-0.7,1.6c-0.5,0.8-0.5,1,0,1.2
		c2.4,0.9,3.3,5.1,1.7,8c-0.2,0.4-0.4,1-0.4,1.3c0,0.9-0.7,2.6-2.1,5.4c-1.2,2.3-1.4,2.8-1.8,4.6c-0.2,1.1-0.5,2.1-0.6,2.2
		c-0.1,0.1-0.5,1.1-1,2.3c-0.4,1.1-0.9,2.2-1,2.4c-0.2,0.5-1.4,3.4-1.6,4c-0.1,0.3-0.3,0.7-0.3,0.9c-0.7,1.8-1.4,3.8-1.5,4.4
		c-0.1,0.4-0.5,1.5-0.9,2.4c-0.5,1.2-0.7,1.8-0.7,2.4c0,1-0.4,2.6-1.2,4.4c-0.7,1.6-0.7,1.5,0.1,2c1.1,0.7,0.9,1.9-0.6,3.4
		c-0.4,0.4-0.7,0.8-0.7,0.9s-0.5,0.7-1.2,1.3c-1.1,1.1-1.2,1.3-1.1,1.8c0.1,0.6-0.2,0.8-1.3,0.7c-0.5,0-0.6,0-0.7,0.3
		c0,0.2-0.6,0.9-1.3,1.6c-0.8,0.8-1.4,1.6-1.7,2.2c-0.6,1.3-1.3,2.1-2.3,2.8c-1.2,0.8-1.6,1.1-2.4,2c-1,1.1-2.3,1.9-3.7,2.2
		l-1.2,0.3l-0.5-0.6c-0.6-0.7-1.1-0.7-1.6-0.1c-0.4,0.6-0.5,0.5,0.8,0.7c1.7,0.3,2,0.5,1.8,1.6c-0.1,0.7-0.1,0.9,0.3,1.5
		c0.6,0.9,0.8,2,0.9,4.9c0.1,2.5,0,3-1.1,5.2c-0.3,0.6-0.5,1.1-0.5,1.3c0,0.2-0.7,1.9-1.5,3.4c-0.2,0.4-0.5,1.1-0.5,1.4
		c-0.1,0.3-0.4,1.2-0.8,2c-0.6,1.4-0.7,1.4-0.6,2.8c0.1,1.1,0,1.5-0.2,1.8c-0.7,1.2-0.8,3.8-0.1,5.7c0.7,2.2-0.3,5.2-4.4,13
		c-0.7,1.3-0.7,2.2,0.1,3.1c0.8,0.9,0.8,1.8,0.2,2.8c-1.2,1.7,1.3,3.6,3.6,2.7c1.2-0.4,1.7-0.5,2-0.2c0.2,0.1,0.6,0.3,1,0.4
		s1.2,0.3,1.8,0.6c1.1,0.5,1.5,0.6,1.7,0.3c0.1-0.1,0.5-0.3,0.9-0.5c0.4-0.2,1.1-0.5,1.5-0.7c0.7-0.4,2.2-0.4,3.6,0
		c0.4,0.1,0.7,0.1,1,0c0.5-0.2,3.2-0.9,3.7-0.9c0.2,0,0.4-0.1,0.5-0.2c0.1-0.1,0.5-0.4,1-0.6c1.3-0.7,1.7-1.6,1.7-4.3
		c0-0.5,0.1-1.2,0.2-1.6c0.1-0.3,0.2-1.1,0.3-1.6c0.1-0.9,0.2-1.1,0.9-1.9c0.4-0.5,0.8-1,0.8-1.2c0-0.2,0.6-1,1.4-1.7
		c0.9-0.9,1.4-1.6,1.5-1.9c0.7-3.9,2.2-4.6,2.2-1c0,1.1,0.1,1.6,0.3,1.9c0.3,0.4,0.3,1.8,0.1,1.9c-0.4,0.3,0.6,2.2,1.2,2.4
		c0.7,0.2,2.3,2.4,2.3,3.3c0,0.4,0.1,1,0.2,1.3c0.4,1-0.4,1.8-1.6,1.6c-0.6-0.1-1.9,0.1-2,0.4c-0.1,0.1-0.5,0.4-1.1,0.7
		c-0.5,0.3-1.4,1-1.9,1.5c-0.5,0.5-1.1,0.9-1.2,0.9c-0.4,0-0.4,0.9,0,1.2c0.9,0.6,0.4,1.6-1,2c-0.5,0.1-1,0.4-1.3,0.6
		c-0.7,0.6-1.1,0.8-2.3,0.8h-1.1l-0.7-0.9c-0.4-0.5-0.7-1-0.7-1.2c0-0.3,0.1-0.3-2.5,0.1c-1.7,0.3-4,0.7-4,0.8c0,0,0.2,0.2,0.5,0.4
		c0.5,0.3,1.7,1.7,1.7,2c0,0.1,1,2.4,1.4,3.1c0.2,0.3,0.3,0.8,0.3,1s0.2,1.4,0.5,2.6c0.3,1.5,0.5,2.8,0.5,4l0,1.8l-1.2,2.5
		c-1.7,3.3-1.6,3.2-0.8,3.2c0.5,0,0.8-0.2,1.4-0.7c1.6-1.4,1.7-1.4,2.8-1.4c0.7,0,1.2-0.1,1.4-0.3c0.3-0.2,0.8-0.3,2.3-0.3h1.9
		l1.7-0.8c1.5-0.7,3.4-1.9,4.5-2.8c0.2-0.2,0.6-0.4,0.8-0.4c0.2,0,0.6-0.3,0.9-0.7c0.3-0.4,0.8-0.9,1.2-1c0.4-0.2,0.7-0.4,0.8-0.5
		c0.4-0.7,2.7,0.4,4.6,2.2l1.5,1.4h1.1c1.5,0,2.2-1.4,1.5-2.9c-0.4-0.9-0.3-1.5,0.3-1.6c0.6-0.1,1.2,0.2,1.2,0.7
		c0,0.2,0.1,0.3,0.4,0.3c0.8,0,1,0.5,0.9,1.5c-0.4,2.4,0.2,4.5,1.4,5.1c0.8,0.4,1.3,1.2,1,1.4c-0.5,0.5-3.4,0.3-4.9-0.4
		c-0.8-0.4-1.8-0.7-2.5-0.8c-0.6-0.1-1.2-0.2-1.3-0.3s-0.4-0.2-0.6-0.2c-0.8,0-2-1-2.9-2.4c-0.3-0.4-0.6-0.8-0.8-0.9
		c-0.2-0.1-0.4-0.3-0.6-0.5c-0.2-0.2-0.3-0.2-0.4-0.2c-0.1,0.1,0.4,0.5,0.9,1.1c2.3,2.3,3.2,3.5,3.8,4.9c0.3,0.8,0.9,1.9,1.2,2.5
		c0.9,1.9,1.6,4.1,1.7,5.9c0.1,0.9,0.2,1.8,0.3,2.1c0.5,1.1,0.1,10.1-0.5,12c-0.2,0.6-0.4,1.5-0.5,2.1c-0.1,0.6-0.3,1.6-0.6,2.2
		c-0.3,0.7-0.5,1.5-0.6,1.7c-0.2,0.8-2.4,5.3-2.9,6c-0.3,0.3-0.6,0.9-0.7,1.2s-0.4,0.7-0.6,0.8c-0.6,0.4-0.5,0.5,0.3,0.5
		c0.6,0,0.8,0.1,1.2,0.6c0.2,0.3,0.8,0.7,1.2,0.9c2.7,1.1,3.5,4.1,2.4,9.1c-0.2,1.2-0.4,2.5-0.4,2.9c0,0.4-0.1,1.4-0.2,2.1
		c-0.3,1.5-0.1,2,1.1,3.3c0.8,0.8,0.8,1.3,0,1.5c-0.3,0.1-0.4,0.5-0.6,2.6c-0.2,1.4-0.4,2.7-0.5,2.9c-0.1,0.2-0.2,0.7-0.3,1
		c-0.1,0.3-0.2,0.9-0.3,1.4c-0.2,0.7-0.2,0.8,0.2,1.1c0.3,0.2,0.4,0.6,0.4,1.1c0,0.4,0.2,1.4,0.4,2.1c0.7,2.5,0.5,6.3-0.3,8.6
		c-0.4,1-0.7,2.1-0.8,2.5c-0.1,0.4-0.4,1.3-0.7,2.1c-0.3,0.8-0.7,1.7-0.7,2.1c-0.2,1-0.9,2.1-1.6,2.5c-0.4,0.2-0.7,0.5-0.8,0.7
		c-0.1,0.4,0.3,2.8,0.6,3.3c0.3,0.6,0.2,2-0.3,2.8c-0.3,0.4-0.6,1.1-0.6,1.4c-0.2,1-1.2,2.3-1.8,2.4c-0.6,0.1-0.6,0.1-0.2,1.6
		c0.4,1.2-0.1,2.9-1.1,4c-0.5,0.5-0.9,1.2-1,1.5s-0.4,0.8-0.7,1.2c-0.4,0.5-0.6,0.8-0.6,1.3c0,0.8-0.4,1.4-0.9,1.4
		c-0.3,0-0.3,0.1-0.3,0.6c0,0.4-0.1,0.8-0.4,1.1c-0.5,0.6-0.4,0.8,0.5,0.8c0.9,0,1.5,0.7,1.9,1.9c0.1,0.5,0.3,0.7,0.3,0.6
		c0.3-1,0.7-1.6,1.3-2c0.6-0.3,0.7-0.5,0.7-0.9c0-0.8,0.3-1,1.6-1c0.9,0,1.2-0.1,1.2-0.3c0-0.8,0.9-1.2,2.9-1.3
		c1.1-0.1,2.4-0.2,2.9-0.4s1.1-0.3,1.2-0.3c0.1,0,0.4-0.2,0.7-0.4c0.5-0.5,3.2-0.6,4.2-0.3c0.4,0.2,0.4,0.2,0.4-0.7
		c0-1,0.1-1.1,1.5-2c1.2-0.7,2.6-0.9,3.9-0.3c0.5,0.2,0.9,0.3,1,0.2c1.3-0.7,3.5-0.2,3.5,0.9c0,0.3,0.1,0.4,0.8,0.4
		c0.5,0,0.9,0.1,1,0.2c1.4,1.3,5,1.7,6.4,0.7c0.7-0.5,2.2-0.7,2.5-0.4c0.1,0.1,0.4,0.3,0.8,0.4c0.5,0.1,0.9,0.4,1.3,0.9
		c0.6,0.7,2.1,1,2.4,0.5c0.1-0.1,0.3-0.2,0.5-0.2s0.5-0.1,0.7-0.3c1.6-1.5,9.8,0.2,12,2.5c0.2,0.3,0.6,0.6,0.8,0.9
		c0.2,0.2,0.9,0.7,1.5,0.9s1.7,1,2.4,1.5c0.7,0.5,2.3,1.4,3.5,2c1.2,0.6,2.3,1.1,2.5,1.2c1.2,0.7,4.5-0.6,4.2-1.6
		c-0.1-0.5,1-2.5,1.5-2.7c0.5-0.3,1.1-0.2,1.5,0.2c0.4,0.5,0.4,0.5,1.6-0.6c0.6-0.5,1.8-1.4,2.7-2c0.9-0.6,2-1.3,2.5-1.7
		c0.4-0.3,1.2-0.9,1.7-1.1c2.2-1.2,2.5-1.5,2.6-2.1c0-1.2,0.2-1.5,0.9-1.7c0.4-0.1,1.6-0.6,2.6-1.1c1.1-0.5,2.4-1,3-1.2
		c0.6-0.1,1.4-0.4,1.9-0.6c0.8-0.4,1.1-0.4,3-0.3l2.2,0.1l-0.1-1.2c-0.1-0.7-0.2-1.4-0.3-1.6c-0.1-0.3-0.2-0.8-0.2-1.3
		c0-0.7-0.1-0.9-0.5-1.4c-0.6-0.7-0.7-1.6-0.2-2.1c0.3-0.3,0.3-0.3,0-1c-0.4-0.7-0.8-3.6-0.7-5.4c0-0.7,0.1-1.4,0.1-1.7
		c0-0.2-0.2-0.8-0.4-1.2c-0.3-0.4-0.5-0.8-0.5-0.9c0-0.1-0.2-0.4-0.4-0.6c-0.3-0.4-0.3-0.5-0.1-0.8c0.3-0.3,0.3-0.3,0-0.7
		c-0.2-0.4-0.3-0.6-0.1-1.1c0.2-0.6,0.1-0.8-0.3-1.5c-0.3-0.5-0.5-1.2-0.6-1.9c-0.1-1-0.2-1.2-0.8-1.7c-0.3-0.3-0.7-0.9-0.8-1.2
		s-0.4-0.9-0.6-1.2c-1.2-1.7-1.2-2.8,0.3-4.2l0.5-0.5l-0.4-0.5c-0.5-0.7-0.5-1.1,0.2-1.2c0.4-0.1,0.6-0.3,0.7-0.7
		c0.1-0.3,0.4-0.8,0.7-1.2c0.6-0.7,0.9-1.3,1.1-2.3c0.1-0.3,0.2-0.7,0.3-0.8c0.1-0.1,0.3-0.5,0.4-0.9c0.2-1,0.7-3,0.9-3.4
		c0.1-0.2,0.2-0.7,0.2-1.2c0-1.7,0.5-2.3,2.1-2.3c0.6,0,0.7-0.1,0.8-0.5c0.1-0.6,1-1.4,2.6-2.5c1.3-0.9,1.7-1.4,2-2.7
		c0.1-0.4,0.5-1.1,0.8-1.5c0.3-0.4,0.6-0.8,0.6-0.9s0.2-0.6,0.4-1.1c0.2-0.5,0.5-1.4,0.5-1.9c0.1-1.2,0.3-1.7,0.8-2.1
		c0.5-0.4,0.5-2.6,0.1-3.1c-0.7-0.9,0-1.6,1.4-1.4c0.6,0.1,0.9,0,1.4-0.4c0.7-0.5,0.7-0.5,2.4-0.4c2.2,0.1,3.3-0.4,3.3-1.4
		c0-2.2,1.9-2.7,3.6-0.9c0.6,0.6,0.6,0.6,2.2,0.7l1.6,0.1l0.1-0.5c0.1-0.3,0.1-0.9,0.2-1.5c0.1-0.5,0.2-1.1,0.3-1.2
		c0.2-0.1,0.3-0.8,0.4-2.1c0.1-1.7,0.2-1.9,0.5-2.3c0.2-0.2,0.4-0.5,0.4-0.5c0-0.1,0.2-0.4,0.3-0.6c0.5-0.6,0.5-2.1,0-2.2
		c-0.4-0.1-0.5-1-0.1-1.3c0.1-0.1,0.2-0.3,0.2-0.4c-0.1-0.2,0.4-1,0.7-1c0.4,0,1.2-0.9,1.2-1.3c0-0.6-0.3-0.6-1.3-0.4
		c-0.5,0.1-1.2,0.3-1.6,0.4c-0.6,0.1-0.8,0.3-1.4,0.9c-0.4,0.4-0.8,0.8-0.9,0.8c-0.1,0-0.4,0.2-0.5,0.3c-0.3,0.4-0.9,0.4-1.6,0.2
		c-0.4-0.1-0.5-0.1-0.8,0.2c-0.5,0.5-2,0.5-2,0c0-0.1-0.2-0.5-0.5-0.8c-0.6-0.7-1.4-2.9-1.4-3.7c0-0.3-0.2-0.8-0.5-1.2
		c-0.3-0.4-0.6-1.1-0.7-1.5c-0.2-0.7-1.5-2.3-1.9-2.3c-0.1,0-0.5-0.6-0.9-1.4c-0.4-0.8-1.3-2.2-2-3.2c-0.7-1-1.5-2.2-1.7-2.7
		c-0.3-0.5-0.8-1-1.1-1.2c-0.6-0.3-1-1-1-1.5c0-0.4-0.3-0.6-0.9-0.8c-2.2-0.6-3.1-1.5-2.1-2.1c1.5-0.9,1.6-1,1.6-1.6
		c0-0.5,0-0.6-0.7-0.5l-0.7,0l-0.1-1.4c-0.1-1.4,0-1.4,0.5-1.8c0.5-0.4,0.5-0.4,0.4-1.2c-0.1-0.8,0-1.1,1.6-3.5
		c0.6-0.8,0.9-1.6,0.9-2.1c0-0.3,0.2-0.7,0.4-1l0.4-0.5l-0.5-0.2c-0.3-0.1-0.5-0.3-0.6-0.5c-0.6-2-0.6-5.5-0.1-6.2
		c0.2-0.2,0.3-0.7,0.3-1c0-0.3,0.1-0.7,0.3-0.9c0.3-0.3,0.6-0.5,2.6-1.6c0.5-0.3,1.4-1.1,2.1-1.8c0.7-0.7,1.6-1.7,2.1-2.2
		c0.5-0.5,0.9-1,0.9-1.2c0.1-0.3,0.2-0.3,0.7-0.2c0.7,0.1,1.7-0.8,2.5-2.4c0.3-0.5,0.6-0.9,1.1-1.2c1.9-1,2.2-2.1,1-3.2
		c-1-0.9-1-1.2-0.1-1.7c0.4-0.2,0.8-0.6,1-0.9c0.2-0.3,0.7-1.2,1.2-1.9c0.5-0.7,1-1.6,1.2-2c0.2-0.4,0.6-1.1,1.1-1.7
		c1.1-1.3,1.2-1.7,0.9-2.7c-0.1-0.5-0.2-1-0.2-1.2s-0.3-0.9-0.7-1.4c-0.4-0.6-0.7-1.2-0.8-1.4c-0.1-0.2-0.4-0.5-0.7-0.6
		c-0.3-0.1-0.7-0.5-1-0.8c-0.5-0.7-1.7-0.7-3.4,0c-2.2,0.9-4.4,0.5-4.7-0.8c-0.1-0.6,0-3,0.2-3.9c0.1-0.6-0.7-1-2.4-1.3
		c-2.6-0.5-4.3-1.9-4.3-3.8c0-0.4-0.1-0.9-0.3-1.2c-0.4-0.7-0.3-1,0.2-2c0.5-1.1,0.5-1-0.1-1.2c-0.4-0.1-0.9-0.6-1.4-1.3
		c-0.5-0.6-1.2-1.5-1.7-1.9c-0.8-0.8-0.8-0.8-1-2.4c-0.2-1.3-0.3-1.7-0.6-2.1c-0.5-0.5-0.4-1,0.4-1.9c0.5-0.5,0.5-0.6,0.5-1.9
		c0-0.8,0.1-1.6,0.2-1.8c0.4-0.9-0.3-1.5-2.7-2.3c-2.2-0.7-2.9-1.4-3.2-3.1c-0.2-1.2-0.4-1.4-1.1-1.4c-0.7,0-1.3-0.6-1.8-1.6
		c-0.2-0.4-0.6-0.9-0.8-1.1c-1-0.7-3-2.8-3-3.2c0-0.2-0.3-0.7-0.6-1.1c-0.4-0.4-0.7-1-0.9-1.7c-0.2-0.6-0.4-1.2-0.5-1.4
		c-0.2-0.3-0.1-0.4,0.1-0.6c0.3-0.2,3.8,0,5,0.3c0.5,0.1,1.5,0.3,2.3,0.4c0.8,0.1,1.5,0.2,1.5,0.2c0.1,0.1,0.3,0,0.5,0
		c0.3-0.1,0.5-0.1,0.8,0.1c1.3,0.9,4.8,0.2,6.5-1.2c0.9-0.7,0.9-0.7,1.6-0.2c0.5,0.4,0.7,0.4,1.4,0.3c0.4-0.1,0.9-0.1,0.9-0.1
		c0.1,0,0.6,0.1,1.1,0.1c0.6,0.1,1.5,0.2,2,0.4c0.9,0.3,1,0.3,1.2,0c0.5-0.9,2.3-1.2,2.7-0.5c0.3,0.6,3.1,0.5,3.8-0.1
		c1-0.7,1.3-1.3,1.3-2.3c0-0.7,0.2-1.2,0.5-1.7c0.4-0.5,0.4-0.8,0.3-1c-0.4-0.8,0.1-3,0.7-3.4c0.1-0.1,0.1-0.3-0.1-0.6
		c-0.9-1.4-0.4-4.1,0.8-4.1c0.3,0,0.7-0.2,1-0.4c0.3-0.2,0.6-0.5,0.8-0.6c0.2-0.1,0.4-0.5,0.5-0.8c0.1-0.6,0.4-1,0.8-1
		c0.8,0,1-0.8,0.9-3.4l-0.1-2.6l0.5-0.1l0.5-0.1l0-1.6c0-1.5,0-1.7,0.6-3.3l0.7-1.7l-0.6-0.9c-0.6-0.9-1.3-1.6-2.1-2
		c-0.4-0.2-0.6-0.7-0.6-1.7c0-1.3-1.2-2.5-3.2-3c-2.3-0.6-2.4-0.7-2.6-3.2c-0.1-1.2-0.1-1.3-0.6-1.5c-0.6-0.3-0.6-0.6,0-1.6
		c0.3-0.6,0.4-1.1,0.4-1.7c0-1.7,0.6-2.4,2.1-2.2c0.7,0.1,0.7,0.1,1.3-0.6c0.7-0.8,1.1-1,3.5-1.2c2.1-0.2,1.9-0.1,1.9-1.8
		c0-1.4,0.2-2,0.6-2c0.1,0,0.4-0.2,0.7-0.4c0.4-0.3,0.7-0.4,1.2-0.4c0.7,0,1.5-0.4,2-1c0.1-0.2,0.2-0.6,0.1-1.1
		c-0.1-0.5,0-1,0.1-1.2c0.2-0.3,0.2-0.4-0.1-0.5c-0.5-0.2-2.5-2.5-2.8-3.1c-0.8-2.2-0.9-3.4-0.4-4.4c0.2-0.3,0.4-0.8,0.5-1.1
		c0.1-0.3,0.4-0.5,0.6-0.6c0.3-0.1,0.4-0.3,0.4-0.7c0-0.6,0.6-1.4,1-1.4c0.3,0,0.3-2,0-2.6c-0.1-0.2-0.7-0.7-1.2-1.2
		c-1-0.9-1.3-1.2-1.2-2.1c0.1-0.8,0.9-3.2,1.6-4.3c0.8-1.4,0.5-4.8-0.6-6.8c-0.9-1.6-0.9-1.6-0.5-2.6c0.6-1.3,0.9-4.3,0.5-5.3
		c-0.5-1.4-0.4-2,0.5-2.4c1.4-0.6,1.3-1.7-0.2-2.4c-1.1-0.5-1.7-1.1-1.9-1.8c-0.1-0.3-0.2-0.5-0.3-0.6c-0.1-0.1-0.2-0.5-0.2-1
		c0-1.6-0.7-2.8-2.4-4.6c-0.5-0.5-1-1.1-1.1-1.4c-0.1-0.2-0.4-0.5-0.6-0.6c-1-0.5-0.5-3.1,0.6-2.9c1,0.2,4,0.3,4.9,0.1
		c1-0.2,2.4-1.6,3.1-3.1c0.2-0.4,0.5-1,0.7-1.5l0.4-0.8l-0.4-1c-0.4-1-0.4-2.3,0.1-2.3c0.5,0,3.3-3.5,3.3-4.3
		c0.1-1.2,0.8-2.2,1.7-2.8c0.4-0.3,1-0.8,1.2-1.2c0.4-0.7,1.1-0.9,1.4-0.5c0.1,0.1,1.1,0.2,2.4,0.2h2.3l0.8-1.2
		c0.9-1.4,1.2-1.6,1.6-1.1c0.3,0.3,0.4,0.3,1.6-0.4c0,0,0.2-0.5,0.4-1l0.3-0.9l0.7,0c1,0.1,2-1,2-2.3c0-1.5,0.6-2.2,2.1-2.2l0.7,0
		l-0.1-1.1c-0.2-1.6,0.8-2.2,2-1.4c0.4,0.3,0.4,0.3,0.7-0.1c0.2-0.2,0.5-0.4,0.8-0.5l0.5-0.1l-0.4-0.6c-0.5-0.7-0.5-0.9,0-1.6
		c0.5-0.6,1-1.5,1-2c0-0.2,0.1-0.5,0.2-0.7c0.1-0.2,0.4-0.7,0.6-1.1c0.2-0.4,0.6-1.1,1-1.5c0.5-0.6,0.6-1,0.5-1.3
		c-0.1-0.4,0.7-1.5,1.2-1.5c0.1,0,0.2-0.2,0.4-0.5c0.1-0.3,0.6-0.8,1-1.3c0.4-0.4,0.8-1.1,1-1.5c0.1-0.4,0.4-1,0.6-1.4l0.3-0.8
		l-0.4-0.4c-0.5-0.4-1.3-0.9-2.4-1.5c-0.6-0.3-0.8-0.5-0.9-0.9c-0.2-0.9-3.2-3.1-4.3-3.1c-0.2,0-0.8-0.1-1.2-0.3
		c-0.4-0.2-1.7-0.3-2.9-0.4c-1.1-0.1-2.4-0.2-2.7-0.2c-0.5,0-0.6,0-0.7,0.3c-0.2,1.2-4.9,1.5-5.5,0.3c0-0.1-0.4-0.4-0.8-0.6
		c-0.8-0.5-0.9-0.9-0.5-1.8c0.2-0.5,0.2-0.6-0.3-1.3c-0.6-1.1-0.8-2.4-0.4-3c0.2-0.2,0.3-0.5,0.3-0.7c0-0.1,0.2-0.5,0.5-0.7
		c0.4-0.4,0.5-0.6,0.4-1.7c0-0.8,0-1.4,0.2-1.6c0.1-0.2,0.3-0.8,0.4-1.2c0.1-0.5,0.3-1.4,0.5-2c0.4-1.7,0.1-2.1-1.9-2.1
		c-0.8,0-1-1.5-0.3-2.5c0.1-0.2,0.3-0.8,0.5-1.3l0.2-0.9l-0.8-0.7c-1-0.9-0.8-0.9-2.4,0.1c-1.3,0.8-1.4,0.9-2.5,0.9
		c-0.7,0-1.2,0.1-1.3,0.2c-0.2,0.3-4.3-0.1-5.1-0.4c-0.5-0.2-0.9-1.1-1-2.1c-0.1-1.1,0-1-1.2-1.2l-0.9-0.1v0.5
		c0,0.3-0.1,0.7-0.3,0.8c-0.1,0.2-0.3,0.6-0.4,1c-0.3,1.1-0.6,1.2-2,1.1c-0.8-0.1-1.4,0-1.6,0.1c-0.4,0.2-3.3,0-3.5-0.3
		c-0.1-0.2-1.6-1.3-2.1-1.6c-0.3-0.2-0.4-0.2-0.6,0.1c-0.7,1-1.7,1.4-3.5,1.3c-2-0.1-2.2-0.2-2.7-1.3c-0.4-0.8-0.7-1.1-1.3-1.1
		c-0.2,0-0.6-0.1-0.9-0.3c-0.7-0.4-1.1-0.3-1.5,0.2c-0.3,0.5-0.9,0.5-1.4,0.2c-1.2-0.9-1.4,2-0.3,3.6c0.8,1.1,0.9,1.6,0.2,2.5
		c-0.3,0.4-0.7,1-0.9,1.3c-0.6,0.9-2.2,1.7-3.9,2c-0.8,0.1-2.8,0.9-3.9,1.6c-0.3,0.2-0.9,0.3-1.9,0.3l-1.5,0L285,73
		c-0.5,0.5-1,1-1,1.2c-0.2,0.8-1.5,0.5-1.5-0.3c0-0.2-0.1-0.5-0.2-0.5c-0.4-0.4-0.9-1.5-0.9-1.9c0-0.7-0.4-0.9-2-0.9l-1.5,0v0.6
		c0,0.7-0.5,1.1-1.4,1.1c-0.5,0-0.8,0.2-1.4,0.7l-0.8,0.7l-1.7-0.3c-2.3-0.4-2.6-1-1.2-2.9c1-1.3,1-1.3-1.2-1.4
		c-1.8-0.1-3.7-0.7-4.2-1.5c-0.2-0.2-0.3-0.2-0.9,0.3c-0.8,0.6-1.6,0.7-1.9,0.3c-0.3-0.4-0.6-0.3-0.8,0.2c-0.1,0.6-0.5,0.7-2.4,0.9
		c-0.8,0.1-1.7,0.2-1.9,0.3c-0.9,0.5-1.3,0.9-1.8,1.5c-1.3,2-2.4-0.6-1.8-4.2c0.2-1.1,0-1.6-0.4-1.1c-0.1,0.2-0.2,0.5-0.2,0.6
		c0.1,0.2,0,0.6-0.2,1c-0.1,0.4-0.2,0.8-0.2,0.9c0.1,0.2-1.3,1.3-1.8,1.4c-0.3,0-0.9,0.1-1.4,0.2c-1.1,0.1-1.7,0.6-2,1.8
		c-0.2,0.9-1,1.6-1.7,1.6c-0.4,0-0.7,0.2-1,0.5c-1,1.1-5.1,1.7-6.2,0.9c-0.2-0.1-0.5-0.2-0.7-0.2c-0.6,0.1-0.6,0-0.8-2.4
		c-0.1-2.3-0.3-2.6-1-2.3c-0.8,0.4-1.3,0.1-1.6-1c-0.2-0.5-0.4-1.1-0.5-1.3c-0.4-0.5-0.3-1.4,0.3-2.2c2.1-2.9,2.8-4.1,2.7-4.6
		c-0.1-0.6,0.1-0.8,0.8-0.8c0.3,0,0.5-0.1,0.5-0.3c0-0.7,1.5-1.7,2.5-1.7c1.2,0,1.4-2.6,0.3-3.6c-0.4-0.3-0.7-0.8-0.8-1
		c-0.1-0.5-0.4-0.5-0.9-0.2c-0.2,0.1-0.6,0.3-1,0.3c-0.4,0-0.9,0.1-1.1,0.3c-1.1,0.9-1.6,0.4-1.7-1.6c0-0.8-0.2-1.6-0.2-1.8
		c-0.1-0.2-0.2-0.9-0.2-1.5C236.1,47.8,235.8,47.6,235.4,48.4"/>
	<path id="path1_1_" class="st2" d="M234.9,47.4c-0.2,0.2-0.6,0.3-0.7,0.2c-0.2-0.1-0.3,0-0.3,0.1c0,0.1-0.2,0.2-0.4,0.1
		c-0.4-0.1-1.3,1-0.9,1.2c0.1,0,0,0.1-0.3,0.1c-0.6,0-1.6,0.5-2.9,1.5c-0.4,0.3-0.9,0.6-1.1,0.6c-0.2,0-0.3,0.1-0.2,0.5
		c0.1,0.5-0.1,0.7-0.3,0.3c-0.2-0.4-1.7-0.3-2.2,0.1c-0.3,0.2-0.6,0.3-0.8,0.2c-0.2-0.1-0.5,0-0.6,0.1c-0.1,0.1-0.3,0.2-0.4,0.2
		c-0.1,0-0.3,0.1-0.6,0.2c-0.3,0.2-0.5,0.2-0.7-0.1c-0.4-0.4-2.2-0.5-4.1-0.2c-0.9,0.1-1.5,0.1-1.5,0c0-0.1-0.1-0.1-0.3,0
		c-0.3,0.2-0.3,1,0,1c0.1,0,0,0.2-0.2,0.3c-0.2,0.2-0.3,0.4-0.3,0.5s-0.1,0.1-0.2,0.1c-0.1-0.1-0.2,0-0.3,0.1c-0.2,0.4-2,0.4-2.3,0
		c-0.2-0.3-1.5-0.6-1.5-0.4c0,0.1-0.9,0.6-1.1,0.7c-0.1,0-0.4,0.1-0.6,0.2c-0.2,0.1-0.4,0.2-0.5,0.2c-0.3,0-1.4,1.6-1.5,2
		c-0.1,0.8-0.7,2.1-1.1,2.3c-0.8,0.4-1.6,0.7-1.7,0.7c-0.3,0-2,0.9-2.2,1.1c-0.1,0.2-0.3,0.8-0.3,1.5c-0.1,1.5-0.5,2.1-1.6,2.5
		c-0.4,0.2-0.8,0.3-0.8,0.4c0,0.2-0.9,0.6-1.5,0.6c-0.3,0-0.6,0.2-0.7,0.3c-0.6,0.5-1.8,2.1-1.9,2.3c0,0.1-0.2,0.5-0.5,0.8
		c-0.3,0.4-0.5,0.7-0.5,1.3c0,0.4-0.1,0.8-0.2,0.8c-0.2,0.1-0.4,1.1-0.1,1.3c0.1,0.1,0.1,0.2,0.1,0.3c-0.1,0.2,0,0.3,0.2,0.3
		c0.4,0,0.4,0.7,0,1c-0.2,0.2-0.3,0.6-0.3,1.4c0,0.6-0.1,1.3-0.2,1.4c-0.2,0.2-0.3,2.8-0.1,2.9c0.1,0,0.3,0.7,0.6,1.6
		c0.5,1.6,1.2,2.6,1.7,2.5c0.6-0.2,1,0.8,1,2.2c0,0.5,0.1,0.9,0.1,1c0.1,0.1,0.1,0.5,0.1,1c0,0.8,0.3,1.7,0.6,1.6
		c0.3-0.2,0.5,0.7,0.6,2.3c0,1.5,0,1.7,0.4,1.8c0.4,0.2,0.5,0.5,0.2,0.5c-0.3,0-0.2,0.5,0,0.6c0.2,0.1,0.2,0.1,0,0.1
		c-0.2,0-0.2,0.1,0,0.4c0.1,0.2,0.3,0.3,0.4,0.3c0.1-0.1,0.2,0,0.2,0.1c0,0.1-0.1,0.2-0.2,0.2s-0.2,0.2-0.2,0.4
		c0,0.2,0.1,0.4,0.2,0.4c0.1,0,0.1,0.1,0,0.2c-0.2,0.1-0.2,0.2,0,0.3c0.3,0.1,0.3,0.8,0,0.8c-0.1,0-0.2,0.2-0.1,0.3
		c0.1,0.2,0,0.3-0.1,0.3c-0.5,0,0,1.3,0.5,1.5c0.3,0.1,0.5,0.2,0.4,0.2c-0.2,0-0.2,0.1,0,0.5c0.2,0.5,0.1,2-0.2,2.5
		c-0.1,0.2-0.1,0.3,0,0.3c0.2,0-0.3,1-0.6,1.4c-0.2,0.2-0.2,0.3,0,0.4c0.2,0.1,0.2,0.2,0,0.4c-0.2,0.2-0.2,0.3,0.1,0.4
		c0.2,0.1,0.3,0.2,0.3,0.3c-0.1,0.2,0.4,2.2,0.7,2.4c0.1,0.1,0.3,0.3,0.3,0.5c0,0.2,0.1,0.3,0.1,0.3c0.1,0,0.1,0.2,0.2,0.6
		c0,0.3,0.2,0.6,0.3,0.8c0.7,0.5,0.8,0.6,0.8,1.6c0,0.6,0.1,1.3,0.1,1.5c0.2,1.8,0.3,2,0.4,1.8c0.1-0.2,0.1,0,0,0.4
		c-0.1,0.5,0,0.7,0.1,0.8c0.2,0.1,0.2,0.2,0,0.2c-0.3,0-0.3,0.3,0.1,0.6c0.2,0.2,0.2,0.3,0.1,0.3c-0.2,0-0.3,1.2-0.1,1.9
		c0.1,0.2,0.2,0.3,0.3,0.3c0.1-0.1,0.1,0,0,0.2c-0.1,0.1,0,0.3,0.1,0.3c0.1,0,0.2,0.3,0.2,0.7c-0.1,1.5,0,1.9,0.7,2.6
		c0.4,0.5,0.8,1.1,1,1.8c0.2,0.6,0.4,1.2,0.6,1.3c0.5,0.6,0.9,1.5,0.9,2.5c0,4.2,0.1,5.5,0.6,6.2c0.7,1.1,0.6,4.4-0.2,6
		c-0.1,0.2-0.2,1-0.3,1.8c-0.1,1.4-0.4,3-0.6,3.3c-0.1,0.1-0.1,0.4-0.2,0.8c0,0.3-0.1,0.8-0.2,1c-0.1,0.2-0.2,0.9-0.3,1.4
		c-0.1,0.5-0.2,1-0.2,1.1c-0.1,0-0.1,0.4-0.2,0.7c0,0.4-0.2,1-0.4,1.4c-0.2,0.4-0.3,0.9-0.3,1c0,0.1-0.1,0.2-0.2,0.2
		c-0.1,0-0.2,0.2-0.3,0.5c-0.1,0.3-0.1,0.5,0,0.5c0.1,0,0.1,0.2,0,0.4c-0.1,0.2-0.2,0.6-0.2,0.8c0,0.2-0.2,0.6-0.4,0.9
		c-0.2,0.3-0.4,0.6-0.4,0.8c0.1,0.2,0,0.2-0.1,0.1c-0.1-0.1-0.2,0-0.1,0.3c0.1,0.2,0,0.3-0.1,0.3c-0.1-0.1-0.2,0.3-0.1,0.9
		c0,0.6-0.1,1.4-0.2,1.9c-0.1,0.5-0.1,1-0.1,1.2c0.1,0.2,0,0.5-0.1,0.6c-0.1,0.1-0.1,0.3-0.1,0.3c0.1,0,0,0.1-0.1,0.3
		c-0.3,0.4-0.7,1.3-0.7,1.6c0,0.1-0.1,0.3-0.1,0.5c-0.1,0.2-0.1,1.7,0,2c0,0,0,0.1,0,0.2c0,0.2,0.8,0.4,1,0.2
		c0.1-0.1,0.1-0.2,0.1-0.3c-0.1-0.1,0-0.1,0.1-0.1c0.1,0.1,0.2,0,0.2-0.1s0.1-0.2,0.1-0.1c0.5,0.1,2.5-2.8,2.5-3.8
		c0.1-1.4,0.3,1,0.3,3.1c0,2.7-0.1,3.3-0.9,5c-0.3,0.5-0.5,1-0.5,1.1c0,0.4-0.4,1.5-0.5,1.5c-0.1,0-0.2-0.3-0.2-0.7
		c0-0.4-0.1-1.1-0.2-1.5c-0.1-0.5-0.1-0.8,0-0.9c0.1-0.1,0.1-0.3,0.1-0.5c-0.1-0.2,0-0.3,0-0.3c0.2,0.1,0.4-0.4,0.3-1.3
		c0-0.8,0-0.8-0.5-0.8c-0.3,0-0.5,0-0.5,0.1c0,0.1-0.1,0.1-0.3,0.1s-0.3,0.1-0.3,0.2c0,0.1-0.1,0.1-0.2,0.1c-0.2-0.1-1,0.4-1.3,0.7
		c-0.1,0.1-0.1,0.6-0.1,1.1c0,0.5,0,0.9-0.1,0.9c-0.1,0-0.3,0.5-0.3,0.7c0,0.1-0.1,0.4-0.3,0.7c-0.2,0.4-0.2,0.6,0,0.7
		c0.2,0.1,0.2,0.2,0.1,0.3c-0.3,0.3-0.6,1.1-0.4,1.1c0.1,0.1,0.1,0.2-0.1,0.4c-0.2,0.2-0.3,0.3-0.1,0.3c0.2,0,0.2,0.1-0.1,0.2
		c-0.2,0.2-0.3,0.4-0.2,1c0,0.4,0,0.7,0,0.7s-0.2,0.1-0.2,0.3c-0.1,0.3-0.1,0.3,0.2,0c0.3-0.2,0.3-0.2,0,0.1
		c-0.2,0.2-0.3,0.5-0.2,0.6c0.1,0.1,0.1,0.2-0.1,0.1c-0.2-0.1-0.3,0.4-0.2,1.1c0,0.1-0.1,0.2-0.2,0.2c-0.1,0-0.2,0.2-0.2,0.4
		c0,0.2-0.2,0.7-0.4,1.2c-0.2,0.4-0.3,0.9-0.3,1c0.1,0.1,0,0.3-0.1,0.4c-0.1,0.1-0.2,0.3-0.2,0.6c0,0.3-0.1,0.5-0.1,0.5
		c-0.1,0-0.1,0.2-0.1,0.4c0,0.8-0.1,1.2-0.3,1.2c-0.1,0-0.1,0.2-0.1,0.4c0,0.2-0.1,0.6-0.3,1c-0.2,0.4-0.2,0.6,0,0.6
		c0.1,0,0.1,0.1,0,0.2c-0.1,0.1-0.3,0.3-0.3,0.6c0,0.2-0.1,0.7-0.2,1.1c-0.1,0.5-0.1,0.8,0,0.8c0.1,0,0.1,0.1-0.1,0.1
		c-0.2,0-0.3,0.2-0.3,0.6c0,0.6-0.2,1.4-0.6,2.3c-0.1,0.3-0.2,0.6-0.2,0.7c0.1,0.1,0,0.2-0.1,0.2c-0.1,0-0.2,0.3-0.2,0.5
		c0,0.3-0.1,0.5-0.1,0.5s-0.2,0.3-0.4,0.7c-0.2,0.4-0.6,1.3-0.9,2.1c-0.4,0.8-0.7,1.7-0.7,1.9c0,0.2-0.1,0.5-0.3,0.7
		c-0.1,0.1-0.2,0.3-0.1,0.3c0.1,0-0.2,0.5-0.5,1.1c-0.3,0.6-0.6,1.3-0.6,1.4c0,0.4,0.5,1.1,0.7,1c0.1-0.1,0.3,0,0.4,0.1
		c0.9,0.7,1.5,1.3,1.5,1.6c0,0.2,0.1,0.3,0.2,0.4c0.7,0.4-0.1,4.8-1,5.8c-0.1,0.1-0.2,0.4-0.1,0.6c0.2,0.6-0.2,1.6-1.4,4.2
		c-0.6,1.3-1.1,2.4-1.1,2.5c0,0.1-0.1,0.2-0.2,0.2c-0.2,0-0.4,0.4-0.5,1c0,0.2-0.2,0.5-0.3,0.6c-0.2,0.1-0.2,0.1,0,0.1
		c0.2,0,0.2,0.1,0,0.4c-0.1,0.2-0.2,0.7-0.2,1c0,0.3-0.1,0.8-0.2,1c-0.3,0.9-0.8,1.8-0.9,1.9c-0.1,0.1-0.2,0.3-0.2,0.4
		c0,0.3-0.4,1.3-0.9,2.3c-0.1,0.2-0.2,0.5-0.2,0.7c0,0.2-0.1,0.4-0.2,0.4c-0.1,0-0.2,0.2-0.2,0.4s-0.1,0.7-0.3,1
		c-1,2.3-1.2,2.7-1.2,2.9c0,0.1-0.1,0.2-0.2,0.2c-0.1,0-0.1,0.1,0,0.2s0,0.2-0.1,0.2c-0.2,0-0.5,1.1-0.4,1.4c0,0.1,0,0.1-0.1,0.1
		c-0.1,0-0.6,1.3-0.6,1.7c0,0.1-0.1,0.3-0.3,0.5c-0.2,0.2-0.3,0.5-0.3,1c0,0.4,0,0.8-0.2,0.9c-0.1,0.1-0.2,0.3-0.2,0.5
		c0,0.4-0.5,1.5-0.7,1.5c-0.1,0-0.1,0.1-0.1,0.2c-0.1,0.4-0.4,3.3-0.4,3.6c0,0.1-0.1,0.2-0.2,0.2c-0.1,0-0.1,0.1-0.1,0.3
		c0.1,0.1,0,0.2,0,0.2c-0.1-0.1-0.3,0.4-0.5,1c-0.2,0.6-0.5,1.2-0.6,1.4c-0.5,0.8-0.3,1.5,0.5,2c0.7,0.4,0.8,0.8,0.3,1.3
		c-0.3,0.3-0.6,0.9-0.6,1.1c0,0.1-0.2,0.2-0.4,0.3c-0.2,0.1-0.9,0.8-1.5,1.6c-0.6,0.8-1.2,1.4-1.3,1.4c-0.1,0-0.2,0.2-0.2,0.5
		c0.1,0.5,0.1,0.5-0.9,0.5c-0.7,0-0.9,0.1-1,0.3c-0.1,0.2,0,0.2,0.1,0.2c0.3-0.2,0.2,0.1-0.1,0.4c-0.1,0.1-0.2,0.3-0.1,0.4
		c0.1,0.1,0,0.1-0.1,0.1c-0.1-0.1-0.4,0.1-0.6,0.4c-0.3,0.3-0.6,0.6-0.7,0.7c-0.7,0.7-1.3,1.5-1.5,2c-0.1,0.3-0.3,0.6-0.4,0.6
		c-0.1,0-0.1,0.1-0.1,0.2c0.1,0.1,0,0.2-0.1,0.2c-0.1,0-0.3,0.3-0.5,0.6c-0.2,0.3-0.7,0.8-1.1,1c-0.4,0.2-0.6,0.5-0.6,0.6
		c0.1,0.1,0,0.1-0.1,0c-0.2-0.1-1.7,1.2-1.9,1.7c-0.1,0.2-0.3,0.4-0.5,0.4c-0.2,0-0.3,0.2-0.3,0.4c0,0.1,0,0.2-0.1,0.2
		c-0.1-0.1-0.3,0-0.6,0.2c-1.1,0.8-2.4,1-2.5,0.5c-0.3-1.4-3.5-0.3-3.3,1.1c0,0.3,0,0.5-0.1,0.5c-0.6,0,0.7,0.5,1.7,0.7
		c1.1,0.2,2.1,0.8,1.3,0.8c-0.3,0,0,1.2,0.4,1.8c1.1,1.6,1.2,7.1,0.1,8.8c-0.1,0.2-0.2,0.4-0.1,0.5c0.1,0.1,0,0.2-0.2,0.4
		c-0.2,0.2-0.2,0.3-0.1,0.3c0.1,0,0.2,0.1,0.1,0.2c-0.1,0.1-0.2,0.1-0.3,0.1c-0.2-0.1-0.4,0.5-0.3,0.9c0.1,0.2,0,0.4-0.1,0.6
		c-0.1,0.1-0.2,0.4-0.3,0.5c0,0.1-0.1,0.3-0.2,0.3c-0.1,0-0.2,0.1-0.2,0.2c0,0.3-0.8,1.7-0.9,1.7c-0.1,0-0.1,0.2-0.1,0.4
		c0.1,0.3-1.1,3.1-1.6,3.7c-0.2,0.2-0.1,0.2,0,0.2c0.2,0,0.1,0.1-0.1,0.2c-0.3,0.2-0.3,0.3-0.1,0.7c0.2,0.4,0.2,0.7,0.1,1.5
		c-0.1,0.5-0.2,1.1-0.2,1.3c0,0.2-0.1,0.3-0.2,0.2c-0.1-0.1-0.2,0-0.2,0.2c0,0.1,0.1,0.3,0.2,0.3c0.1,0,0.1,0.1,0.1,0.3
		c-0.1,0.1-0.2,0.2-0.2,0.2c-0.1,0-0.1,0.7-0.1,1.7c0,1,0,1.8,0.1,1.7c0.1,0,0.1,0.1,0,0.4c-0.1,0.3,0,0.4,0.1,0.3
		c0.1-0.1,0.2,0,0.1,0.1c-0.1,0.1,0,0.5,0.2,0.8c0.3,0.6,0.5,1.4,0.2,1.4c-0.3,0-0.6,0.9-0.8,1.9c-0.1,0.5-0.2,1.2-0.4,1.5
		c-0.1,0.3-0.3,0.7-0.3,0.9c0,0.2-0.1,0.3-0.1,0.3c-0.1,0-0.3,0.3-1.1,2c-0.2,0.5-0.5,0.9-0.5,1s-0.3,0.5-0.5,1
		c-0.2,0.5-0.5,1-0.6,1.1c-0.4,0.4-0.7,1.2-0.6,1.3c0.1,0.1,0,0.1-0.1,0.1c-0.5,0-0.1,3.2,0.5,3.5c0.5,0.3,0.4,1.1-0.1,2
		c-0.4,0.7-0.6,1.5-0.3,1.5c0.1,0,0.2,0.1,0.2,0.2c0,0.1-0.1,0.1-0.2,0.1c-0.5-0.3,0.2,0.6,0.9,1.2c0.4,0.4,0.8,0.7,0.9,0.8
		c0.3,0.3,3.6,0.2,4-0.2c0.4-0.3,0.4-0.3,0.7,0c0.2,0.2,0.5,0.3,0.7,0.3s0.5,0.1,0.7,0.2c0.2,0.1,0.3,0.1,0.3,0c0-0.1,0.2,0,0.4,0.2
		c0.3,0.3,0.4,0.3,0.5,0.1c0.1-0.2,0.2-0.2,0.2,0c0,0.1,0.1,0.2,0.2,0.1c0.1-0.1,0.3,0,0.3,0.2c0.1,0.3,0.2,0.3,1.1,0.3
		c0.6,0,0.9-0.1,0.9-0.2c-0.1-0.1,0-0.2,0.1-0.2c0.3,0,1.3-0.6,1.3-0.7c0-0.1,0.1-0.1,0.2,0c0.1,0.1,0.5,0,0.8-0.2
		c0.6-0.3,2.6-0.3,2.9,0c0.2,0.3-0.3,0.4-2.5,0.5c-1.8,0.1-2.1,0.4-1.5,1c0.2,0.2,0.4,0.3,0.4,0.3c0.6,0,2.7,2.2,2.6,2.8
		c0,0.1,0,0.2,0.2,0.1c0.1-0.1,0.2,0,0.1,0.2c-0.1,0.2,0,0.4,0.1,0.4c0.1,0,0.2,0.1,0.1,0.1c0,0.1,0,0.3,0.2,0.5
		c0.2,0.2,0.3,0.5,0.3,0.7c0,0.2,0.2,0.6,0.4,0.9c0.2,0.3,0.4,0.8,0.4,1.1c0,0.3,0.1,0.6,0.2,0.7c0.1,0.1,0.1,0.1,0,0.1
		c-0.1,0-0.2,0.2-0.1,0.5c0,0.3,0.2,0.5,0.2,0.5s0.1,0.1,0.1,0.2s0,0.2,0.1,0.2c0.1,0,0.1,0.1,0.1,0.2s0,0.7,0.1,1.2
		c0.1,0.5,0.3,1.4,0.3,2c0,0.6,0.1,1.1,0.1,1.2c0.1,0.1,0,0.3-0.1,0.4c-0.1,0.1-0.2,0.3-0.1,0.4c0.1,0.1-0.1,0.4-0.4,0.8
		c-0.3,0.4-0.5,0.8-0.4,0.8s0,0.2-0.2,0.3c-0.1,0.1-0.3,0.3-0.3,0.5c0,0.1-0.1,0.4-0.3,0.5c-0.1,0.1-0.3,0.3-0.3,0.5
		c0,0.1-0.2,0.6-0.4,1c-0.4,0.7-0.5,2.4-0.3,2.3c0.1,0,0.6,0,1.1,0.1c1,0.1,2-0.1,1.8-0.4c-0.1-0.1,0.1-0.2,0.3-0.3
		c0.3-0.1,0.4-0.2,0.3-0.4c-0.1-0.2,0-0.2,0.1-0.2c0.2,0.1,1-0.3,0.8-0.4c0,0,0.3-0.1,0.8-0.1c1.2-0.1,2.1-0.3,2.1-0.5
		c0-0.1,0.5-0.1,1.1-0.1c1.7,0.1,3.3-0.1,3.6-0.5c0.2-0.2,0.5-0.3,0.7-0.3c0.5,0,1.6-0.7,1.5-0.9c-0.1-0.1,0.1-0.2,0.3-0.2
		s0.4-0.1,0.4-0.2c0-0.1,0.2-0.2,0.4-0.2c0.2,0,0.3-0.1,0.3-0.2c-0.1-0.1,0-0.2,0.2-0.2c0.4,0,1.7-0.9,2.1-1.4
		c0.1-0.2,0.4-0.3,0.8-0.2c0.4,0,0.6,0,0.7-0.2c0.2-0.4,0.4-0.3,0.5,0.2c0.2,0.6,0.7,1.2,1.1,1c0.1-0.1,0.2,0,0.2,0.1
		c-0.1,0.1,0,0.2,0.1,0.2c0.1,0,0.2,0.1,0.2,0.2c0,0.3,1.4,1.7,1.6,1.6c0.1-0.1,0.1,0,0.1,0.1c-0.1,0.1,0.1,0.4,0.4,0.6
		c0.3,0.2,0.5,0.5,0.5,0.6c0.1,0.4,2.2,4.6,2.3,4.7c0.1,0.1,0.2,0.3,0.2,0.5c0,0.2,0.1,0.4,0.2,0.4c0.1,0,0.1,0,0.1,0.1
		c-0.1,0.1,0,0.3,0.1,0.5c0.1,0.2,0.2,0.4,0.2,0.5c0,0.1,0,0.1,0.1,0.1c0.1,0,0.1,0.1,0.1,0.3c0,0.2,0,0.4,0.1,0.5s0.2,1,0.3,1.9
		c0.1,2.1,0.1,2.1,0.4,2.8c0.2,0.5,0.2,3.9-0.1,7.6c-0.1,0.8-0.1,1.7-0.1,1.9s-0.1,0.6-0.2,0.7c-0.1,0.1-0.2,0.3-0.2,0.4
		c0,0.1-0.1,0.6-0.2,1c-0.1,0.5-0.2,1.2-0.2,1.6c0,0.4-0.1,0.8-0.3,1s-0.1,0.3-0.1,0.4c0.1,0.1,0,0.1-0.1,0.1s-0.2,0.1-0.1,0.2
		c0.1,0.1,0,0.2-0.1,0.2c-0.1,0-0.1,0.1-0.1,0.2c0.1,0.1,0,0.2-0.1,0.2c-0.1,0-0.2,0.4-0.3,0.8c-0.1,0.4-0.2,0.8-0.3,0.9
		c-0.1,0.1-0.3,0.5-0.5,1c-0.2,0.5-0.4,1.1-0.6,1.3c-0.1,0.2-0.2,0.5-0.1,0.6c0.1,0.1,0,0.2-0.1,0.1c-0.1,0-0.3,0.2-0.3,0.5
		c-0.2,0.7-0.8,1.9-1.2,2.3c-0.2,0.2-0.5,0.7-0.7,1.1c-0.2,0.5-0.5,0.8-0.8,0.9c-0.4,0.1-0.4,0.3-0.4,1v0.9h1c1,0,1.1,0,1.7,0.7
		c0.4,0.4,0.8,0.7,0.9,0.7c0.1,0,0.5,0.3,0.8,0.6c0.9,0.9,1.1,1.1,1.1,1.3c0,0.1,0.1,0.3,0.3,0.4c0.2,0.1,0.2,0.2,0,0.2
		c-0.2,0-0.2,0,0,0.2c0.2,0.2,0.3,3.1,0.1,3.7c-0.1,0.1-0.1,0.5-0.1,0.7c0,0.2-0.1,0.5-0.1,0.5c-0.1,0.1-0.5,2.5-0.6,3.5
		c0,0.3-0.1,1.1-0.2,1.7c-0.1,0.6-0.2,1.2-0.2,1.3c-0.4,0.5,0.7,2.7,1.3,2.7c0.2,0,0.2,0.5,0,0.9c-0.2,0.3-0.2,0.5-0.3,1.7
		c-0.1,1.3-0.2,1.4-0.3,1.7c-0.1,0.1-0.2,0.6-0.2,1.2c0,0.5-0.1,1.1-0.2,1.2c-0.2,0.3-0.6,2.1-0.5,2.3c0,0.1,0,0.2-0.2,0.3
		c-0.4,0.3-0.3,1.3,0.2,1.7c0.3,0.2,0.5,0.5,0.6,1.6c0.1,0.7,0.3,1.3,0.4,1.4c0.1,0,0.1,0.2,0,0.4c0,0.2,0,0.4,0.2,0.4
		c0.4,0.1,0.2,5.6-0.1,6c-0.1,0.1-0.3,0.4-0.3,0.7c0,0.2-0.1,0.5-0.1,0.5c-0.1,0.1-0.8,2.3-1,2.9c0,0.1-0.2,0.6-0.4,1
		c-0.2,0.5-0.4,1-0.5,1.3c-0.1,0.5-0.5,1.8-0.8,2.6c-0.1,0.2-0.2,0.5-0.2,0.6c0,0.1-0.1,0.1-0.2,0.1c-0.1,0-0.3,0.1-0.3,0.2
		c0,0.1-0.2,0.2-0.4,0.2c-0.9,0-1.3,1.3-0.9,3c0.1,0.5,0.3,1.1,0.3,1.4c0,0.2,0.1,0.5,0.2,0.6c0.2,0.3,0.1,1.3-0.1,1.5
		c-0.1,0.1-0.2,0.3-0.2,0.4c0,0.1-0.1,0.2-0.2,0.2c-0.2,0-1,2.4-0.9,2.7c0,0.1,0,0.1-0.1,0c-0.1-0.1-0.2,0-0.3,0.2
		c-0.1,0.2-0.3,0.3-0.6,0.2c-0.9-0.1-1,0-1,0.6c0,0.3,0.1,0.6,0.1,0.6c0.1,0,0.1,0.2,0.2,0.5c0,0.3,0.1,0.7,0.2,0.9
		c0.1,0.2,0.1,0.3,0.1,0.3c0,0,0,0.2,0.1,0.4c0.1,0.3,0.1,0.4,0,0.4c-0.1,0-0.1,0.2-0.1,0.3c0.1,0.2,0,0.3-0.1,0.3
		c-0.1,0-0.2,0.2-0.2,0.3s-0.1,0.3-0.2,0.3c-0.1,0-0.2,0.1-0.2,0.2s-0.2,0.3-0.3,0.4c-0.2,0.1-0.3,0.2-0.3,0.4
		c0,0.1-0.1,0.3-0.2,0.4c-0.3,0.2-0.6,0.8-0.6,1.2c0,0.2-0.2,0.4-0.4,0.5c-0.4,0.2-0.5,0.6-0.8,2.1c-0.1,0.5-0.2,0.7-0.5,0.8
		c-0.4,0.1-0.8,0.5-0.7,0.7c0.2,0.3-0.1,1.2-0.4,1.2c-0.1,0-0.4,0.2-0.6,0.6l-0.4,0.6l0.4,0.4c0.3,0.4,0.6,0.4,1.3,0.4
		c1,0,1.3,0.3,1.3,1.3c0,0.2,0.1,0.5,0.2,0.6c0.1,0.1,0.2,0.3,0.2,0.6c0,1.2,1.8,0.5,2.2-0.8c0.2-0.8,0.7-1.8,0.7-1.3
		c0,0.1,0.1,0.1,0.4,0c0.3-0.1,0.4-0.2,0.2-0.3c-0.1-0.1-0.1-0.1,0.1-0.1c0.2,0,0.3-0.1,0.3-0.6c0-0.7,0.3-0.8,1.5-0.7
		c0.8,0.1,1.4-0.2,1.2-0.5c-0.1-0.1,0-0.2,0-0.2s0.2-0.2,0.3-0.4c0.2-0.4,1.2-0.6,3.9-0.7c0.7,0,1.2-0.1,1.2-0.2
		c-0.1-0.2,0.1-0.2,1.1-0.2c0.6,0,0.8,0,0.9-0.4c0.3-0.6,2.1-0.8,3-0.4c0.4,0.2,0.5,0.4,0.4,0.4c-0.1,0.1,0,0.2,0.3,0.3
		c0.4,0.2,0.5,0.2,0.6,0c0.1-0.2,0.2-0.2,0.2,0c0,1.1,0.7-0.7,0.7-1.8c0-0.7-0.1-1.1-0.1-1c0,0.1-0.2,0.2-0.3,0.2
		c-0.4,0,0.1-0.4,0.9-0.7c0.5-0.2,0.8-0.4,0.8-0.5c-0.1-0.2,2.1-0.1,3.1,0.2c0.8,0.3,1.1,0.3,1.4,0.1c0.9-0.4,1.9-0.4,2,0.2
		c0.1,0.3,0.2,0.5,0.3,0.5c0.1,0,0.1,0.1,0.1,0.2c-0.1,0.1,0.2,0.2,0.7,0.2c0.7,0,2,0.5,2.4,0.9c0.4,0.4,1.5,0.7,2.4,0.6
		c0.6,0,1.1,0,1.2,0.1s0.2,0.1,0.4,0c0.2-0.1,0.7-0.1,1.1-0.1c0.7,0.1,0.8,0,1-0.4c0.1-0.2,0.3-0.4,0.3-0.4s0.2,0,0.2-0.1
		c0.1-0.2,1.1-0.2,1.1,0c0,0.1,0.1,0.2,0.2,0.1c0.3-0.1,1.7,0.6,1.6,0.7c-0.5,0.9,2.6,1.7,3.6,0.9c0.2-0.2,0.5-0.3,0.6-0.3
		c0.3,0.1,0.9-0.3,0.9-0.5c0-0.2,0.4-0.2,1.5-0.2c0.8,0,1.7,0,2-0.1c0.4-0.1,0.5-0.1,0.5,0.1c0,0.2,0.6,0.3,2.1,0.3
		c0.2,0,0.3,0,0.2,0.1c-0.1,0.1,1.5,0.9,1.7,0.8c0.1-0.1,0.1,0,0.1,0c-0.1,0.1,0.3,0.3,0.8,0.5c0.8,0.3,1.1,0.5,2.2,1.8
		c0.3,0.3,0.7,0.6,0.9,0.6c0.2,0,0.6,0.2,0.8,0.4c0.2,0.2,0.5,0.4,0.6,0.4s0.3,0.1,0.5,0.3c0.1,0.1,0.3,0.2,0.3,0.2
		c0.1-0.1,0.4,0.1,1,0.8c0.2,0.2,0.5,0.4,0.7,0.4c0.1,0,0.2,0,0.2,0.2c0,0.1,0.1,0.2,0.3,0.2c0.2,0,0.3,0,0.2,0.1
		c0,0.1,0.3,0.3,0.7,0.5c0.5,0.2,1,0.4,1.1,0.5c2.9,1.6,2.9,1.6,4.6,1.6l1.6,0l1.2-0.9c1.2-0.8,1.2-0.9,1.2-1.6c0-1,0.6-2,1.2-1.9
		c0.2,0,0.4,0.1,0.4,0.3c-0.2,1,2.8-0.6,3.3-1.7c0.1-0.2,0.1-0.2,0.1-0.1c0,0.1,0.4-0.1,0.9-0.4c0.5-0.3,0.8-0.6,0.8-0.7
		c-0.1-0.1,0-0.1,0.2-0.1c0.1,0.1,0.3,0,0.3-0.1c0-0.1,0.1-0.2,0.3-0.2s0.4-0.1,0.6-0.3c0.2-0.2,0.5-0.4,0.7-0.4
		c0.2-0.1,0.3-0.2,0.3-0.3c0-0.1,0.1-0.2,0.4-0.3c0.2,0,0.4-0.2,0.4-0.4c0-0.2,0-0.2,0.1-0.1c0.1,0.2,0.2,0.1,0.6-0.2
		c0.3-0.2,0.6-0.4,0.7-0.3c0.1,0.1,0.2,0,0.2-0.1c0-0.1,0.1-0.1,0.2-0.1c0.1,0.1,0.2,0,0.3-0.2c0.1-0.1,0.2-0.2,0.2-0.2
		c0.4,0.2,1.9-1.7,1.9-2.3l-0.1-0.6l0.9-0.2c0.5-0.1,1-0.3,1.1-0.5c0.1-0.1,0.3-0.3,0.6-0.4c0.2-0.1,0.4-0.2,0.4-0.3
		c0-0.1,0-0.1,0.1-0.1c0.1,0,0.7-0.2,1.3-0.4c3.6-1.6,8.8-2.1,8.8-1c0,0.1,0.3,0.1,0.7,0.1c0.6,0,1-0.3,0.5-0.3c-0.2,0-0.2,0,0-0.1
		c0.1-0.1,0.1-0.3,0.1-0.5c-0.1-0.2-0.1-0.3-0.2-0.1c0,0.2-0.1,0.1-0.3-0.2c-0.1-0.3-0.3-0.5-0.4-0.5c-0.2,0-0.2-0.5,0-0.6
		c0.3-0.1,0-1.2-0.3-1.2c-0.1,0-0.1-0.1,0-0.2c0.2-0.1,0.2-0.2,0-0.6c-0.1-0.3-0.2-0.7-0.2-0.9c0-0.3-0.1-0.5-0.2-0.6
		c-0.2-0.1-0.2-0.2,0-0.3c0.3-0.2-0.2-1.4-0.5-1.4c-0.1,0-0.2-0.2-0.3-0.4c-0.1-0.2-0.2-0.3-0.3-0.3c-0.3,0.2-0.1-0.1,0.5-0.7
		c0.3-0.3,0.5-0.6,0.4-0.6c-0.1,0-0.2-0.1-0.1-0.1c0.1-0.1-0.1-0.4-0.3-0.7c-0.5-0.6-0.6-1.2-0.6-2.3c0-0.3-0.1-0.6-0.1-0.6
		c-0.1,0-0.1-2.1,0-3.7c0.1-0.7-0.2-1.7-0.4-1.7c-0.3,0-0.8-1.7-0.5-1.8c0.2-0.1,0.1-0.9-0.2-1.3c-0.2-0.3-0.2-0.4,0-0.9
		c0.3-0.6,0.3-1.2,0.1-0.6c-0.1,0.3-0.2,0.3-0.1-0.2c0.1-0.6-0.3-1.2-0.6-1.1c-0.1,0.1-0.1,0-0.1-0.2c0-0.2,0-0.4-0.1-0.4
		c-0.1-0.1-0.2-0.6-0.2-1.2c0-1,0-1.1-0.6-1.6c-0.8-0.7-1-1-1.2-1.8c0,0-0.3-0.4-0.6-0.7c-0.4-0.4-0.6-0.8-0.6-1.3
		c0-0.4-0.1-0.7-0.1-0.7c-0.1-0.2,0.6-1.2,0.8-1.2c0.5,0,0.8-0.8,0.6-1.5c-0.1-0.4-0.1-0.5,0.3-0.8c0.2-0.2,0.4-0.6,0.4-0.8
		c0-0.2,0.3-0.7,0.6-1.1c0.4-0.4,0.5-0.7,0.4-0.7c-0.1,0-0.1-0.1,0.1-0.2c0.4-0.2,0.7-1.2,0.5-1.6c-0.1-0.1,0-0.2,0.1-0.1
		c0.2,0.1,0.8-1.9,0.6-2.2c-0.1-0.1,0-0.3,0.1-0.3c0.2-0.1,0.2-0.2,0-0.2c-0.2,0-0.2-0.1,0.1-0.2c0.2-0.1,0.3-0.3,0.2-0.5
		c-0.1-0.2,0-0.3,0.1-0.4c0.1-0.1,0.2-0.2,0.1-0.3c0-0.1,0.1-0.4,0.2-0.6c0.3-0.5,0.3-0.7,0.4-2c0.1-1.2,0-1.2,1.4-1.3
		c1.1-0.1,1.6-0.5,1.5-1.2c-0.1-0.4,0-0.6,0.3-0.6c0.1,0,0.3-0.1,0.3-0.2c0-0.1,0.4-0.3,0.8-0.5c0.4-0.2,0.8-0.4,0.8-0.5
		c0-0.1,0.1-0.1,0.1-0.1c0.1,0,0.4-0.2,0.8-0.4c0.4-0.3,0.6-0.5,0.5-0.5c-0.1,0-0.1,0,0-0.1c0.3-0.2,0.5-0.8,0.9-1.8
		c0.2-0.5,0.4-1,0.5-1s0.2-0.1,0.1-0.3c0-0.2,0-0.3,0.2-0.3c0.3,0.1,0.6-0.3,0.7-1.2c0.1-0.3,0.2-0.7,0.4-0.9
		c0.4-0.5,0.7-1.8,0.5-2.2c-0.1-0.2-0.1-0.3,0-0.4c0.1,0,0.2-0.2,0.2-0.4s0.2-0.5,0.4-0.8c0.2-0.3,0.3-0.5,0.2-0.5
		c-0.1,0,0-0.1,0.1-0.2c0.1-0.1,0.2-1,0.1-2c0-1.2,0-1.8,0.2-1.8c0.1,0,0.5,0,0.9-0.1c0.7,0,1.5-0.4,1.7-0.7
		c0.1-0.3,2.4-0.4,2.4-0.1c0,0.1,0.4,0.1,0.8,0.1c0.4,0,0.8-0.1,0.8-0.2c0-0.1,0.3-0.2,0.7-0.3c0.4-0.1,0.7-0.3,0.6-0.4
		c0-0.1,0-0.2,0.2-0.2c0.2-0.1,0.3-0.4,0.3-0.8c0-0.7,0.3-2,0.3-1.6c0,0.1,0.2,0.2,0.5,0.2c0.3,0,0.5,0.1,0.6,0.3
		c0.4,0.7,1.2,1.5,1.4,1.3c0.1-0.2,0.2-0.2,0.4,0c0.1,0.1,0.8,0.2,1.5,0.2c0.7,0,1.3,0,1.4,0c0.6,0.2,2.1-0.4,1.4-0.6
		c-0.1,0-0.2-0.2-0.2-0.2c0-0.1,0.1-0.1,0.2-0.1c0.1,0.1,0.2-0.1,0.2-0.3c0-0.2,0-0.3-0.1-0.2c-0.1,0.1-0.2,0-0.2-0.2
		s0.1-0.2,0.2-0.2c0.1,0.1,0.2-0.2,0.1-0.8c0-0.7,0-0.9,0.2-0.9c0.3,0,0.6-2.4,0.4-3.2c-0.1-0.3,0.1-0.5,0.5-0.9
		c0.3-0.3,0.5-0.6,0.5-0.7c0-0.1,0.2-0.4,0.4-0.6c0.4-0.4,0.5-2.2,0.2-3.7c-0.1-0.6,0.1-1.2,0.6-1.2c0.8,0,1.7-2.5,1-2.9
		c-0.6-0.4-3.1-0.3-2.8,0.1c0.1,0.1-0.3,0.2-0.7,0.2c-1.2,0-1.4,0.1-1.8,0.5c-0.2,0.2-0.5,0.4-0.6,0.4c-0.1,0-0.1,0.2-0.1,0.4
		c0.1,0.3,0,0.3-0.1,0.3c-0.1,0-0.5,0.1-0.8,0.2c-0.7,0.4-1,0.4-1.1,0.1c-0.1-0.3-1.2-0.4-1.2,0c0,0.5-0.7,0.7-1.2,0.3
		c-0.6-0.5-1.3-1.9-1.3-2.4c0-0.2-0.1-0.4-0.2-0.5c-0.1-0.1-0.2-0.4-0.2-0.9c0-0.5-0.1-1-0.4-1.3c-0.2-0.3-0.5-0.8-0.6-1.2
		c-0.4-1.3-0.6-1.6-1.7-2.4c-0.7-0.5-1.1-1-1.3-1.5c-0.2-0.4-0.4-0.7-0.4-0.7c-0.1,0-0.1-0.1,0-0.2c0.1-0.3-0.7-1.5-1.5-2.4
		c-0.3-0.3-0.5-0.7-0.5-0.7c0-0.1-0.1-0.2-0.2-0.2s-0.2-0.1-0.2-0.3c0-0.1-0.1-0.3-0.2-0.3c-0.1,0-0.3-0.4-0.5-0.8
		c-0.6-1.2-1.2-2-1.6-2c-0.2,0-0.3-0.1-0.2-0.2c0.1-0.1,0-0.2-0.1-0.3c-0.1-0.1-0.2-0.3-0.2-0.6c0-0.7-0.2-1-0.5-1
		c-0.2,0-0.4-0.1-0.5-0.1c-0.1-0.1-0.5-0.3-0.9-0.4c-1.4-0.4-1.4-0.6,0.1-1.6c0.4-0.3,0.5-0.4,0.4-1.4l-0.1-1.1l-0.7-0.1
		c-0.5,0-0.7-0.1-0.7-0.4c0-0.2,0-0.6-0.1-0.8c-0.1-0.4-0.1-0.4,0.1-0.1c0.2,0.3,0.2,0.3,0.2,0c0-0.2,0.2-0.5,0.5-0.7
		c0.4-0.3,0.4-0.4,0.3-1.3c-0.1-0.7-0.1-1.1,0.1-1.2c0.1-0.1,0.3-0.4,0.4-0.6c0.1-0.2,0.2-0.3,0.3-0.3s0.2-0.1,0.2-0.2
		c0-0.1,0.1-0.3,0.1-0.3c0.6-0.2,1.6-2.4,1.3-2.6c-0.1-0.1-0.2-0.2-0.1-0.2c0.2,0,0.6-0.9,0.6-1.2c0-0.1,0.1-0.2,0.3-0.2
		c0.6-0.2,0.5-1.4-0.2-1.4c-0.6,0-0.9-0.4-0.9-1.2c0-0.2-0.1-0.7-0.2-1.3c-0.3-1.5-0.2-2.9,0.2-3.2c0.2-0.1,0.4-0.5,0.4-0.9
		c0.1-0.6,2.3-2.5,2.6-2.2c0.3,0.2,1.8-1.3,1.6-1.6c-0.1-0.1,0-0.1,0-0.1c0.2,0.1,0.6-0.4,2.8-2.6c0.6-0.6,1.1-1.1,1.3-1.1
		c0.5,0,1.2-0.4,1.5-1c0.2-0.3,0.5-0.6,0.6-0.6c0.1,0,0.4-0.4,0.7-0.9c0.3-0.7,0.6-1,1-1.2c0.3-0.1,0.5-0.3,0.4-0.4
		c-0.1-0.1,0-0.1,0.1-0.1c0.2,0.2,1.3-0.9,1.2-1.2c0-0.1,0-0.2,0.1-0.2c0.5,0,0.1-2-0.5-2.4l-0.5-0.4l0.6-0.6c0.6-0.6,0.9-1,1.2-1.6
		c0.1-0.1,0.2-0.4,0.4-0.5c0.5-0.6,1.1-1.6,1-1.8c-0.1-0.1,0-0.1,0.1-0.1c0.2,0.1,0.6-0.6,0.4-0.8c-0.1-0.1,0-0.1,0.1,0
		c0.1,0.1,0.2,0,0.2-0.1s0.3-0.7,0.7-1.2c0.4-0.6,0.6-1,0.6-1c-0.1,0,0-0.1,0.2-0.2s0.3-0.3,0.2-0.3c-0.1-0.1,0-0.2,0.1-0.2
		c0.2,0,0.3-0.9,0.1-1.1c-0.1-0.1-0.1-0.2-0.2-0.3c0-0.1-0.1-0.7-0.2-1.3c-0.2-1.1-1.3-3.2-1.5-2.9c-0.1,0.1-0.1,0,0-0.2
		c0.1-0.2,0-0.3-0.1-0.3c-0.1,0-0.2-0.1-0.1-0.3c0-0.2-0.1-0.3-0.4-0.4c-0.2,0-0.7-0.4-1.2-0.8c-0.8-0.7-0.8-0.8-1.6-0.7
		c-0.5,0.1-0.8,0-0.8-0.1c0-0.1-0.3-0.1-0.7-0.1c-0.8,0.1-2.5,0.7-2.5,1c0,0.2-1.6,0-2.1-0.2c-0.4-0.2-0.4-0.3-0.1-4.4
		c0.1-0.7-0.4-1.3-0.9-1.1c-0.2,0.1-0.2,0-0.2-0.1c0.1-0.1,0-0.2-0.2-0.2c-1.4-0.1-3.9-0.8-4.4-1.3c-0.2-0.2-0.5-0.4-0.5-0.4
		c-0.2,0-0.6-0.9-0.5-1.3c0-0.2-0.1-0.4-0.2-0.5c-0.2-0.1-0.2-0.2,0-0.3c0.3-0.1,0.3-0.9,0-0.9c-0.1,0-0.1-0.1-0.1-0.2
		c0.1-0.1,0-0.2-0.2-0.3c-0.2-0.1-0.2-0.2-0.1-0.2c0.1,0,0.2-0.1,0.1-0.2c-0.1-0.1,0-0.3,0.2-0.4c0.1-0.1,0.2-0.3,0.2-0.5
		c0-0.1,0-0.2,0.1-0.2s0.2-0.4,0.2-0.9c0-0.6-0.1-0.9-0.2-0.9c-0.4,0-1.7-0.7-1.7-0.9c0-0.1-0.3-0.5-0.6-0.9
		c-0.3-0.4-0.6-0.7-0.6-0.8c0-0.3-1.2-1.2-1.3-1.1c-0.1,0.1-0.1,0.1,0,0c0.3-0.5-0.2-3.4-0.6-3.7c-0.4-0.3-0.4-0.7,0.3-1.1
		c0.5-0.4,1.2-2.8,0.6-2.5c-0.1,0.1-0.1-0.3,0-0.7c0.1-0.5,0.2-1,0.2-1.2c0.1-0.8-1.1-2.5-1.7-2.5c-0.2,0-0.8-0.2-1.4-0.3
		c-0.6-0.2-1.1-0.3-1.3-0.3s-0.3-0.1-0.2-0.2c0-0.2-0.2-0.3-0.7-0.2c-0.1,0-0.2,0-0.1-0.1c0.1-0.1-0.1-0.4-0.3-0.6
		c-0.2-0.3-0.4-0.6-0.3-0.7c0.1-0.1,0-0.2-0.1-0.2c-0.1,0-0.1-0.2-0.1-0.5c0.1-0.3,0-0.5-0.1-0.5c-0.1,0-0.2-0.2-0.2-0.4
		c0-0.3-0.1-0.4-0.4-0.4c-0.2,0-0.3-0.1-0.3-0.2c0.1-0.1-0.2-0.2-0.5-0.2c-0.7,0-1-0.3-1.5-1.3c-0.3-0.6-0.7-1.1-1.9-2
		c-0.1-0.1-0.3-0.3-0.5-0.5c-0.1-0.2-0.4-0.4-0.7-0.4c-0.2,0-0.4-0.1-0.4-0.2c0-0.1-0.1-0.2-0.1-0.3c-0.1-0.1-0.1-0.4-0.1-0.7
		c0-0.4-0.1-0.7-0.4-0.9c-0.4-0.3-1-1.4-1.2-2.3l-0.1-0.5l1.5,0.1c0.8,0.1,1.9,0.2,2.4,0.4c1.4,0.4,1.5,0.4,2.5,0.4
		c0.5,0,0.9,0.1,0.9,0.2c0,0.1,0.2,0.1,0.6,0.1c0.4,0,0.9,0,1.3,0.1c1.1,0.2,3.6,0.1,4.1,0c0.3-0.1,0.6-0.1,0.6-0.1
		c0,0,0.2-0.1,0.5-0.3c1-0.7,2-1.2,2.3-1c0.1,0.1,0.8,0.1,1.4,0.1c0.7,0,1.9,0.1,2.7,0.2c3.4,0.5,4.2,0.4,4.2-0.5
		c0-0.2,0.1-0.2,0.1-0.1c0.1,0.1,0.3,0.2,0.6,0.2c0.2,0,0.5,0.1,0.6,0.3c0.4,0.6,5.4,0,5.4-0.6c0-0.1,0.2-0.4,0.5-0.7
		c0.4-0.5,0.5-0.7,0.5-1.5c0-1.3,0.1-1.4,0.6-1.8c0.5-0.3,0.6-1.6,0.2-1.9c-0.2-0.1-0.2-0.3-0.2-0.6c0.1-0.3,0-0.5-0.1-0.5
		c-0.1,0-0.1,0,0-0.1c0.1-0.1,0.2-0.2,0.3-0.4s0.3-0.5,0.6-0.8c0.7-0.7,0.7-1.3,0.1-1.6c-0.2-0.1-0.4-0.3-0.4-0.5
		c0-0.2-0.1-0.3-0.2-0.4c-0.2-0.1-0.2-0.1,0-0.1c0.2,0,0.2-0.2,0.1-0.8c-0.1-0.7-0.1-0.8,0.4-0.9c1-0.2,1.1-0.3,1-0.4
		c-0.1-0.1,0-0.1,0.1-0.1c0.1,0.1,0.3,0,0.5-0.2c0.1-0.1,0.3-0.3,0.4-0.3c0.3,0,1-0.8,0.9-0.9c-0.1-0.1,0-0.1,0.1-0.1
		c0.1,0,0.2-0.2,0.2-0.5c0-0.3,0.1-0.5,0.2-0.4c0.2,0.1,1-0.5,1.4-0.9c0.1-0.2,0.2-1,0.2-2.5c0-1.4-0.1-2.1-0.2-1.9
		c-0.1,0.2-0.2,0.3-0.2,0.1c0-0.4,0.2-0.6,0.6-0.8c0.4-0.1,0.4-0.2,0.4-1.9c0-1.9,0.1-2.4,1-4.2c0.4-0.9,0.3-1.7-0.4-2.6
		c-0.3-0.4-0.6-0.8-0.6-0.9c0-0.2-1.1-1.2-1.5-1.5c-0.3-0.2-0.4-0.4-0.4-0.9c0-0.9-0.2-1.4-0.5-1.5c-0.2-0.1-0.3-0.2-0.2-0.3
		c0.1-0.3-1.1-1.5-1.4-1.4c-0.1,0.1-0.2,0-0.2,0c0-0.1-0.4-0.2-0.9-0.4c-2.2-0.5-2.1-0.5-2.4-1.5c-0.1-0.5-0.2-1.3-0.2-1.7
		c0-0.5-0.1-0.8-0.2-0.8c-0.1,0-0.2-0.1-0.2-0.3s-0.1-0.3-0.3-0.4c-0.3-0.2,0-1.3,0.3-1.3c0.1,0,0.1-0.5,0.1-1.2
		c0-0.9,0.1-1.2,0.3-1.3c0.1-0.1,0.2-0.2,0.2-0.3c-0.1-0.1,0.1-0.1,0.4,0c0.3,0.1,0.5,0.1,0.4,0c-0.1-0.1,0.1-0.2,0.3-0.2
		s0.3,0.1,0.3,0.2c-0.1,0.1,0.1,0.2,0.3,0.2c0.3,0,0.6-0.2,1-0.8c0.5-0.8,1.2-1.2,1.8-1.1c0.1,0,1-0.1,1.9-0.2
		c1-0.1,1.8-0.3,1.9-0.3c0.1,0,0.1-0.3,0.1-0.7c-0.1-1.7,0-2.7,0.2-2.7c0.1,0,0.4-0.2,0.6-0.4c0.2-0.2,0.8-0.5,1.3-0.6
		c2-0.6,2.7-1.3,2.6-2.5c-0.1-0.9,0.1-1.4,0.7-1.4c0.9,0,0.1-1.4-0.9-1.4c-0.5,0-1.2-0.4-1-0.6c0,0-0.2-0.3-0.4-0.6
		c-0.3-0.3-0.5-0.6-0.5-0.7c0-0.1-0.1-0.3-0.3-0.4c-0.1-0.1-0.3-0.3-0.4-0.6c-0.1-0.6-0.1-0.7-0.5-1.7l-0.3-1l0.5-1
		c0.3-0.6,0.5-1.1,0.4-1.2c-0.1-0.1,0-0.1,0.1-0.1c0.3,0.2,0.9-0.6,0.9-1.2c0-0.5,0.1-0.6,0.7-0.9l0.7-0.3l0-1.3
		c0-1.7-0.4-2.7-1.3-3.2c-0.4-0.2-0.7-0.5-0.6-0.6c0-0.1,0-0.2-0.1-0.1c-0.6,0.6-0.8-1.4-0.3-2.5c0.2-0.4,0.3-0.8,0.3-1
		c-0.1-0.2,0.8-2.1,1.1-2.3c0.2-0.1,0.2-3.2,0-3.3c-0.1-0.1-0.1-0.2-0.1-0.3c0-0.1-0.1-0.7-0.3-1.2c-0.2-0.5-0.3-1-0.3-1.1
		c0,0-0.1-0.4-0.3-0.9c-0.5-1.2-0.7-1.8-0.5-1.8c0.4-0.1,0.7-4.8,0.4-6.6c-0.1-0.7-0.1-0.8,0.4-1c1-0.5,1.1-0.7,1-1.7
		c-0.1-1-0.7-2.1-1.1-1.9c-0.1,0-0.2,0-0.3-0.1c0-0.1-0.4-0.3-0.8-0.4c-0.4-0.1-0.7-0.3-0.7-0.3c0-0.1,0-0.1,0-0.2
		c0,0-0.1-0.3-0.1-0.5c0-0.2-0.1-0.5-0.2-0.6c-0.1-0.1-0.2-0.7-0.2-1.2c-0.1-1.2-0.6-2.3-1.5-3.3c-0.3-0.3-0.6-0.7-0.6-0.9
		c0-0.4-0.5-0.9-0.6-0.6c-0.1,0.2-0.1,0.1-0.1-0.1c0-0.2-0.2-0.3-0.4-0.4c-0.2-0.1-0.3-0.2-0.3-0.2c0.1-0.1-0.6-1.1-0.8-1.1
		c-0.2,0-0.5-1.2-0.4-1.3c0,0,0.3,0,0.6,0.1c1.9,0.5,6.3,0,6.5-0.9c0.1-0.2,0.4-0.7,0.8-1c0.4-0.4,0.6-0.7,0.6-0.8s0-0.1,0.2-0.1
		c0.2,0,0.3-0.1,0.2-0.2c-0.1-0.1,0-0.2,0-0.2c0.1,0,0.3-0.3,0.4-0.7c0.1-0.4,0.4-1,0.6-1.4c0.4-0.7,0.4-1.4,0.1-1.4
		c-0.1,0-0.1-0.1,0-0.2c0.2-0.1,0.2-0.2,0-0.2c-0.1,0-0.2-0.2-0.2-0.4c0-0.2-0.1-0.3-0.1-0.3c-0.2,0.1,0-0.9,0.3-1.6
		c0.1-0.3,0.4-0.6,0.5-0.7c0.1-0.1,0.5-0.4,0.7-0.7c0.2-0.3,0.5-0.6,0.5-0.6c0.4,0.2,1.6-1.7,1.6-2.6c0-0.5,0.8-1.9,1-1.9
		c0.2,0,1.4-1.2,1.4-1.4c0-0.1,1.1-0.2,2.9-0.2c3.3,0,3.6-0.1,4.1-1.3c0.1-0.3,0.3-0.6,0.4-0.6c0.1,0,0.1-0.1,0-0.2
		c-0.1-0.2-0.1-0.2,0.1,0c0.1,0.1,0.4,0.2,0.6,0.2c0.4,0,2.6-1.1,2.4-1.2c-0.1,0,0-0.2,0.2-0.4c0.2-0.2,0.3-0.5,0.3-0.7
		c0-0.3,0.1-0.4,0.5-0.4c0.9,0,2.3-1.5,2.3-2.6c0-1.2,0.4-1.9,1.2-1.9c1.3,0,1.5-0.2,1.5-1.2c0-0.5,0-0.9-0.1-0.9
		c-0.1,0-0.2-0.2-0.2-0.3c0-0.4,0.1-0.4,1,0c0.7,0.3,1.4,0.3,1.4,0c0-0.1,0.1-0.1,0.2-0.1c0.1,0,0.2-0.1,0.2-0.3
		c0-0.2,0.1-0.3,0.6-0.3c0.8,0,1.2-0.7,0.9-1.4c-0.1-0.2-0.3-0.4-0.4-0.4c-0.1,0-0.2,0-0.1-0.1c0.1-0.1,0-0.2-0.1-0.3
		c-0.2-0.1-0.2-0.1,0-0.1c0.1,0,0.2-0.1,0.1-0.3c-0.1-0.2,0-0.2,0.1-0.2c0.1,0.1,0.3-0.1,0.5-0.5c0.2-0.4,0.4-0.8,0.5-0.9
		s0.2-0.5,0.2-0.7c0-0.3,0.2-0.7,0.3-0.9c0.2-0.2,0.3-0.4,0.2-0.4s0-0.2,0.2-0.4c0.8-0.9,1.6-2.2,1.6-2.7c0.1-0.6,0.7-1.4,1.2-1.4
		c0.1,0,0.3-0.2,0.3-0.3s0.1-0.3,0.2-0.3s0.2-0.1,0.2-0.2s0.4-0.6,0.8-1c0.7-0.7,0.9-1.1,0.8-1.8c0-0.1,0.1-0.2,0.2-0.1
		c0.1,0.1,0.1,0,0.1-0.3c-0.1-0.2,0-0.3,0-0.3c0.2,0.1,0.4-0.4,0.4-1.5c0-0.6-0.1-1-0.2-0.9c-0.1,0.1-0.2-0.1-0.3-0.2
		c-0.1-0.2-0.4-0.4-0.7-0.5c-0.3-0.1-0.7-0.3-0.9-0.4c-0.2-0.1-0.5-0.3-0.8-0.4c-0.4-0.1-0.6-0.3-0.7-0.8c-0.2-0.6-0.9-1.6-1-1.5
		c0,0-0.3-0.1-0.5-0.4c-0.6-0.6-2.4-1.4-3.1-1.4c-0.3,0-0.9-0.1-1.3-0.3c-1.1-0.4-7.4-0.9-7.4-0.6c0,0.1,0.1,0.2,0.2,0.2
		c0.1,0,0.2,0,0,0.1c-0.1,0.1-0.2,0.3-0.3,0.4c-0.1,0.3-0.1,0.3-2,0.3c-0.9,0-1.4-0.1-1.6-0.3c-0.2-0.2-0.4-0.3-0.5-0.3
		c-0.1,0-0.2-0.1-0.3-0.3c-0.1-0.1-0.2-0.3-0.4-0.3c-0.3,0-0.3-0.4,0-1c0.3-0.5,0.2-0.9-0.4-1.9c-0.4-0.7-0.5-0.8-0.5-1.6
		c0-0.6,0.4-1.6,1-2.2c0.3-0.3,0.4-0.5,0.2-0.5c-0.2,0-0.2,0-0.1-0.1c0.1-0.1,0.2-0.6,0.2-1.3c0-0.9,0-1.2,0.2-1.3
		c0.1-0.1,0.2-0.2,0.2-0.4c-0.1-0.1,0-0.3,0.1-0.3c0.1,0,0.2-0.2,0.1-0.6c0-0.4,0-0.6,0.2-0.7c0.1,0,0.2-0.3,0.2-0.6s0-0.9,0.1-1.4
		c0.1-1.2-0.1-2.1-0.5-2.2c-0.2,0-0.7-0.1-1.1-0.2c-1.2-0.1-1.3-0.6-0.5-1.6c0.2-0.2,0.4-0.8,0.4-1.2c0.1-0.4,0.3-1,0.5-1.2l0.4-0.4
		l-0.4-0.3c-0.2-0.2-0.8-0.6-1.2-1c-0.9-0.9-1.3-1.1-1.9-1c-0.5,0.1-1.8,0.9-1.8,1.1c0,0.1,0,0.1-0.1,0.1c-0.1-0.1-0.2,0-0.2,0.1
		c0,0.1-0.1,0.2-0.1,0.1c-0.1,0-0.3,0.1-0.5,0.2c-0.3,0.2-1.3,0.3-3.9,0.6c-0.7,0.1-2.9-0.5-3.3-0.9c-0.2-0.2-0.3-0.4-0.3-0.4
		c0.1,0,0-0.1-0.1-0.2c-0.1-0.1-0.2-0.6-0.1-1.1c0.1-1.1,0.1-1-2.1-1.2c-1.7-0.1-1.9-0.1-1.8,0.6c0.1,0.3,0,0.4-0.1,0.3
		c-0.1-0.1-0.1,0.1-0.1,0.4c0,0.3,0,0.5-0.1,0.5c-0.1,0-0.2,0.1-0.1,0.2c0,0.1,0,0.2-0.1,0.2s-0.2,0.2-0.3,0.5l-0.1,0.5l-2.7,0
		c-1.5,0-2.7,0-2.7-0.1c0-0.2-1.4-1.4-1.6-1.4c-0.1,0-0.3-0.2-0.6-0.4c-0.6-0.6-1.2-0.6-1.7,0.2c-0.2,0.3-0.5,0.6-0.5,0.6
		c-0.1,0-0.3,0.2-0.6,0.4c-0.5,0.4-0.6,0.4-1.8,0.3l-1.3-0.1l-0.5-1c-0.5-1-0.9-1.3-1.8-1.1c-0.4,0.1-0.5,0.1-0.3-0.1
		c0.2-0.2,0.2-0.2-0.1-0.1c-0.2,0-0.4,0-0.4-0.1c-0.1-0.3-1.9-0.3-2.3,0c-0.2,0.2-0.6,0.2-1,0.1c-1.9-0.3-2.9,2.8-1.5,4.8
		c0.4,0.6,1,2,0.7,1.7c-0.1-0.1-0.4,0.4-0.8,0.9c-0.4,0.6-0.9,1.1-1.1,1.2c-0.3,0.1-0.6,0.3-0.9,0.5c-0.2,0.2-0.4,0.3-0.4,0.1
		c0-0.2-0.1-0.2-0.4,0.1c-0.2,0.2-0.5,0.2-0.7,0.2c-0.3-0.1-1.5,0.2-1.5,0.5c0,0.1-0.3,0.2-0.6,0.3c-0.3,0.1-0.6,0.2-0.6,0.3
		c0,0.1-0.2,0.1-0.3,0.1c-0.2-0.1-0.3,0-0.3,0c0,0.1,0,0.2-0.2,0.2c-0.2,0.1-0.2,0-0.2-0.1c0.1-0.1,0,0-0.2,0.2
		c-0.4,0.4-2,0.7-2.5,0.3c-0.5-0.4-1.4-0.3-1.7,0.2c-0.2,0.3-0.6,0.7-0.9,1l-0.6,0.6l-0.5-0.5c-0.4-0.4-0.5-0.7-0.5-1.2
		c0-0.5-0.1-0.7-0.3-0.8c-0.2-0.1-0.4-0.3-0.6-0.4c-0.3-0.3-1.9-0.3-2.5,0c-0.1,0.1-0.1,0,0-0.1c0.1-0.2-0.6-0.5-1-0.3
		c-0.1,0.1-0.3,0-0.3-0.1c0-0.1,0-0.2-0.1,0c-0.1,0.1-0.3,0.2-0.4,0.3c-0.2,0.1-0.3,0.4-0.3,0.9l-0.1,0.8l-0.7,0.1
		c-0.4,0-0.7,0.1-0.7,0.2c0,0.1-0.1,0.2-0.3,0.2s-0.5,0.1-0.7,0.3c-0.4,0.3-0.6,0.3-1.5,0.2c-0.6-0.1-1.1-0.1-1.2-0.1
		c-0.3,0.2,0-0.6,0.4-0.9c0.2-0.2,0.3-0.4,0.3-0.5c0-0.1,0.2-0.4,0.4-0.7c0.5-0.6,0.6-1.2,0.2-1.4c-0.1-0.1-0.3-0.2-0.3-0.3
		c0-0.2-0.2-0.3-0.7-0.3c-0.4,0-0.6,0-0.6,0.1c0,0.1-0.2,0.1-0.5,0.1c-0.3,0-0.5-0.1-0.4-0.2c0.1-0.1-0.3-0.2-1.1-0.2
		c-1.3,0-1.8-0.1-1.7-0.4c0.1-0.1,0-0.1-0.2-0.1c-0.1,0.1-0.3,0-0.3,0c0-0.4-0.9-1.1-1.4-1.2c-0.4-0.1-0.5-0.1-0.4,0.1
		c0.1,0.2,0.1,0.2-0.1,0.1c-0.2-0.1-0.4,0-0.6,0.2c-0.2,0.2-0.2,0.3-0.2,0.3s0,0.1-0.3,0.3c-0.3,0.2-0.4,0.2-0.5,0.1
		c-0.3-0.5-2.4-0.6-2.3-0.1c0,0.5-0.4,0.8-1.4,0.8c-0.5,0-0.8,0.1-0.8,0.2c0,0.1-0.1,0.2-0.2,0.2c-0.1,0-0.1-0.1-0.1-0.2
		c0.1-0.1,0-0.2,0-0.1c-0.1,0.1-0.5,0.1-0.8,0.2c-0.5,0-0.7,0.1-0.7,0.4c-0.1,0.2-0.1,0.3-0.2,0.1c-0.1-0.1-0.4,0-0.9,0.5
		c-0.4,0.4-0.7,0.8-0.6,0.9c0.1,0.1,0,0.2-0.1,0.2c-0.1,0-0.2-0.3-0.2-0.8c0-0.5-0.1-0.8-0.2-0.8c-0.1,0-0.2-0.1,0-0.1
		c0.4-0.3,0.5-3.5,0.1-3.9c-0.2-0.2-0.3-0.3-0.4-0.1c-0.1,0.2-0.2,0.2-0.3,0c-0.1-0.1-0.3-0.2-0.5-0.1c-0.2,0.1-0.4,0-0.5-0.1
		c-0.2-0.3-0.5,0.2-0.4,0.6c0,0.2,0,0.3-0.1,0.2c-0.2-0.1-0.4,0.9-0.3,1.1c0.1,0.1,0,0.4-0.2,0.7c-0.1,0.3-0.3,0.8-0.3,1
		c0,0.2-0.1,0.4-0.1,0.4c-0.2-0.1-0.9,0.2-0.9,0.4c0,0.1-0.1,0.2-0.3,0.2c-0.1,0-0.3-0.1-0.3-0.2c0-0.2-0.5-0.1-1,0.1
		c-0.1,0.1-0.4,0.1-0.5,0.1c-0.1,0-0.2,0-0.2,0.1s-0.2,0.1-0.4,0.1c-0.4-0.1-1.1,1.2-1.2,2.2c0,0.2-0.2,0.5-0.4,0.6
		c-0.2,0.1-0.3,0.2-0.3,0.3c0.1,0.1-0.1,0.1-0.3,0c-0.7-0.1-1.3,0.1-1.6,0.7c-0.5,0.9-1.9,1.3-3.6,1c-1.8-0.3-2-0.5-2.1-2.4
		c-0.1-1.5-0.4-2.5-0.8-2.8c-0.3-0.2-1.3-0.2-1.4,0c-0.1,0.1-0.2,0.2-0.4,0.2c-0.2,0-0.2,0-0.1-0.2c0.2-0.1,0.2-0.2,0-0.3
		c-0.1-0.1-0.2-0.2-0.1-0.3c0-0.1,0-0.2-0.2-0.3c-0.1-0.1-0.2-0.3-0.2-0.4c0.1-0.1-0.1-0.3-0.3-0.4c-0.3-0.1-0.3-0.2-0.2-0.4
		c0.1-0.1,0.1-0.3,0.1-0.4c-0.1-0.1,0-0.2,0.1-0.2c0.1,0,0.3-0.3,0.5-0.6c0.2-0.3,0.5-0.7,0.6-0.9c0.1-0.2,0.3-0.4,0.5-0.5
		c0.1-0.1,0.2-0.3,0.1-0.4c-0.1-0.1,0-0.2,0.1-0.2c0.1,0,0.3-0.1,0.3-0.1s0.3-0.5,0.6-0.9c0.4-0.5,0.6-0.9,0.6-1.2
		c0-0.4,0.1-0.5,0.4-0.6c0.2-0.1,0.5-0.4,0.7-0.8c0.3-0.5,0.5-0.7,1-0.8c0.4-0.1,0.7-0.2,0.7-0.3c0-0.1,0.2-0.1,0.5-0.1
		c0.9,0.2,1.4-0.8,1.4-2.7l0-1.6l-0.7-0.6c-0.4-0.3-0.8-0.8-0.9-1.1c-0.2-0.6-0.9-0.9-1.4-0.7c-0.2,0.1-0.4,0.1-0.4,0.1
		c-0.1-0.1-0.3,0-0.5,0.2c-0.2,0.2-0.7,0.3-1.3,0.4c-0.5,0-0.9,0.1-1,0.2c-0.1,0.3-0.3,0.2-0.3-0.2c0.1-0.2,0-0.4-0.1-0.5
		c-0.2-0.1-0.2-0.2,0-0.2c0.3,0,0.1-1.7-0.3-2.6c-0.2-0.5-0.2-0.6,0-1c0.2-0.4,0.2-0.5,0-0.6c-0.2-0.1-0.2-0.2,0-0.2
		c0.2-0.1,0.1-0.1-0.1-0.1c-0.2,0-0.3-0.1-0.2-0.1C237.3,47.1,235.6,46.8,234.9,47.4 M236.1,47.9c0.1,0.1,0.2,0.7,0.2,1.4
		c0,0.6,0.1,1.2,0.2,1.3c0.1,0.1,0.2,0.6,0.2,1.1c0,2.3,0.5,3,1.5,2.1c0.3-0.2,0.7-0.4,1-0.4c0.3,0,0.9-0.1,1.2-0.3
		c0.7-0.3,1.1-0.1,1.1,0.5c0,0.2,0.3,0.5,0.7,0.9L243,55v1.3c0,1.5-0.3,1.9-1.6,2.1c-0.9,0.1-1.8,0.8-1.8,1.4c0,0.2-0.2,0.3-0.5,0.4
		c-0.9,0.2-0.9,0.2-0.8,0.7c0.1,0.4-0.1,0.9-1.5,2.9c-1.7,2.5-2,3.4-1.5,3.9c0.1,0.2,0.4,0.7,0.5,1.1c0.2,1,0.7,1.3,1.3,1
		c0.9-0.4,1.3,0,1.3,1.8c0,2.2,0.2,2.9,0.6,2.8c0.2-0.1,0.6,0,0.8,0.2c1.1,0.8,5.3,0.2,5.9-0.9c0.2-0.3,0.4-0.4,0.8-0.4
		c0.8,0,1.7-0.7,1.8-1.5c0.3-1.5,1.2-2.2,3.1-2.2c1.3,0,2.4-1.4,2.4-3.2c0-0.7,0.2-1,0.6-1c0.3,0.1,0.3,0.2,0.3,1.1
		c-0.2,4.9,0.2,5.9,1.7,4.1c1-1.2,1.9-1.6,3.7-1.7c1.6-0.1,2-0.3,2-0.8c0-0.5,0.4-0.6,1.1-0.2l0.7,0.4l0.8-0.5
		c0.4-0.3,0.9-0.6,1-0.7c0.2-0.1,0.3-0.1,0.5,0.2c0.6,0.9,1.9,1.3,4.1,1.4c2.4,0.1,2.4,0.1,1.3,1.7c-1.3,1.8-1.1,2.3,1.1,2.7
		c1.3,0.2,1.9,0.1,1.9-0.2c0-0.3,1.1-0.8,1.9-1c1-0.2,1.2-0.3,1.2-1.1c0-0.7,0.4-1,0.8-0.7c0.2,0.1,0.6,0.2,1.2,0.1
		c1.2-0.1,1.8,0.2,1.8,1c0,0.3,0.2,0.8,0.5,1.2c0.3,0.4,0.5,1,0.6,1.3c0.1,0.8,0.7,0.8,1.3,0c0.8-1.1,2.1-2.2,2.2-2
		c0.2,0.3,2.8,0,3.4-0.4c0.3-0.2,0.7-0.4,1-0.5c0.3-0.1,0.9-0.3,1.5-0.6c0.6-0.2,1.2-0.4,1.5-0.4c0.9,0,2.8-0.9,3.2-1.4
		c1.9-2.8,2-3,0.7-4.5c-0.9-1.1-0.3-4.1,0.7-3.4c0.6,0.4,0.8,0.4,1.4-0.1c0.6-0.5,1-0.5,1.6-0.2c0.2,0.1,0.7,0.3,1.1,0.4
		c0.6,0.1,0.8,0.2,1,0.8c0.5,1.2,0.8,1.4,2.7,1.5c1.9,0.1,2,0.1,3.3-1.2l0.5-0.5l0.6,0.3c0.3,0.2,1,0.7,1.4,1c0.8,0.7,3.5,1.3,4,0.8
		c0.1-0.1,0.7-0.1,1.5-0.1c1.1,0,1.4-0.1,1.5-0.3c0.5-1,1-2.2,1.1-2.6c0-0.4,0.1-0.4,1.1-0.4c1.1,0.1,1.3,0.2,1.3,1
		c0,0.8,0.4,1.8,0.8,2.2c1.1,1,7.1,0.9,8.5-0.2c1.8-1.4,2-1.4,3.1-0.4l0.9,0.8l-0.2,1c-0.1,0.6-0.3,1.1-0.5,1.3
		c-0.9,1.1-0.5,2.5,0.7,2.5c1.7,0,2,0.6,1.4,2.7c-0.1,0.5-0.3,1.2-0.4,1.6c-0.1,0.4-0.2,0.9-0.4,1.1c-0.2,0.3-0.2,0.8-0.2,1.6
		c0,1.1,0,1.3-0.4,1.7c-0.3,0.3-0.5,0.6-0.5,0.7c0,0.1-0.1,0.4-0.3,0.6c-0.3,0.4-0.3,0.7,0,2c0,0.2,0.3,0.6,0.5,1.1
		c0.5,0.8,0.5,0.8,0.2,1.3c-0.4,0.8-0.3,1.1,0.5,1.7c0.4,0.3,0.8,0.6,0.9,0.7c0.6,1,4.9,0.7,5.1-0.4c0.1-0.4,0.2-0.4,1.1-0.3
		c0.5,0.1,1.9,0.2,2.9,0.3c1.1,0.1,2.1,0.2,2.3,0.3c0.2,0.1,0.7,0.2,1.1,0.3c1.7,0.2,4.3,2,4.5,3.1c0.1,0.4,0.3,0.6,0.8,0.9
		c2.7,1.3,3.2,2.1,2.4,3.3c-0.1,0.2-0.3,0.6-0.4,1c-0.1,0.3-0.5,1-1,1.5c-0.4,0.5-0.8,1-0.9,1.3c-0.1,0.2-0.2,0.4-0.3,0.4
		c-0.5,0-1.3,1-1.2,1.4c0.1,0.3-0.1,0.7-0.8,1.7c-0.5,0.7-0.9,1.4-0.9,1.5c0,0.1-0.2,0.4-0.3,0.6c-0.2,0.2-0.3,0.6-0.3,0.8
		c0,0.5-0.4,1.3-1,2c-0.5,0.6-0.5,1,0,1.7c0.5,0.6,0.5,0.7,0,0.7c-0.2,0-0.6,0.2-0.9,0.4c-0.5,0.5-0.6,0.5-1,0.2
		c-1.1-0.8-2-0.2-1.8,1.2c0.2,1.2,0.1,1.4-0.9,1.4c-1.1,0-1.8,0.7-1.8,2.1c0,1.3-1.1,2.5-2.1,2.3l-0.7-0.1l-0.2,0.9
		c-0.3,1.1-1.5,2-2.1,1.5c-0.5-0.4-0.7-0.3-1.5,1l-0.8,1.3l-2.3,0c-1.4,0-2.4,0-2.5-0.1c-0.4-0.4-0.8-0.2-1.4,0.6
		c-0.3,0.4-0.6,0.8-0.7,0.8c-0.7,0-1.7,1.5-2,3c-0.1,0.5-0.2,0.9-0.2,0.9c-3.2,3.2-3.8,4.1-3.3,5.3c0.6,1.3,0,3.2-1.8,5.3
		c-1.4,1.6-3.4,2.1-6.4,1.5c-1.2-0.3-1.4-0.1-1.4,1.3c0,1,0,1.1,0.4,1.2c0.2,0.1,0.5,0.4,0.7,0.7c0.2,0.3,0.4,0.7,0.6,0.7
		c1,0.4,2.7,3.3,2.8,4.8c0.1,0.6,0.2,1.2,0.2,1.3c0.1,0.1,0.2,0.4,0.3,0.7c0.1,0.7,0.9,1.3,1.8,1.6c1.5,0.5,1.7,2.1,0.2,2.7
		c-0.8,0.3-0.9,1-0.4,2.3c0.4,1.1,0,5-0.7,5.8c-0.2,0.3,0.1,1.3,0.6,2.1c0.2,0.3,0.4,0.9,0.5,1.2c0.1,0.3,0.2,1.1,0.4,1.7
		c0.4,1.8,0.4,2.6-0.3,3.9c-1.9,3.7-1.8,6.1,0.4,6.9c0.7,0.2,1.1,3.4,0.4,3.4c-0.5,0-0.9,0.5-0.9,1.2c0,0.5-0.1,0.7-0.4,0.8
		c-1,0.4-1.7,2.9-1.3,4.3c0.1,0.4,0.3,1.1,0.4,1.4c0.3,0.9,2.2,3.2,2.9,3.3c0.5,0.1,0.8,0.4,0.4,0.4c-0.3,0-0.3,0.1-0.3,1.5
		c0,1.2-0.8,1.9-2.2,2.1c-0.8,0.1-2.4,1.1-2.4,1.5c0,0.1,0,0.6,0,1.1c0.1,1.9,0.1,1.9-2.1,2.1c-2.3,0.3-2.9,0.5-3.5,1.3
		c-0.5,0.6-0.5,0.6-1.5,0.5c-1.3-0.1-1.7,0.4-1.7,2c0,0.6-0.1,1.2-0.4,1.7c-0.6,1.1-0.5,1.3,0.1,1.6c0.5,0.3,0.5,0.4,0.5,1.3
		c0,2.5,0.5,3,3,3.5c0.3,0.1,0.6,0.2,0.8,0.3c0.1,0.1,0.4,0.3,0.5,0.3c0.6,0.2,1.3,1.6,1.5,2.6c0.1,0.8,0.2,1.1,0.6,1.3
		c0.7,0.4,2,1.8,2.4,2.5l0.3,0.6l-0.7,1.6c-0.6,1.4-0.7,1.7-0.7,3.3c0,1.7,0,1.7-0.4,1.8l-0.4,0.1l0.1,2.5c0.1,2.7,0.1,2.7-0.8,3.3
		c-0.4,0.3-0.7,0.6-0.8,1c-0.2,0.8-1.4,1.7-2.4,1.9c-0.4,0.1-0.8,0.2-0.9,0.4c-0.5,0.5-0.3,3.4,0.3,3.7c0.1,0.1,0,0.4-0.3,1.1
		c-0.6,1-0.7,1.8-0.3,2.7c0.2,0.5,0.1,0.6-0.3,1.2c-0.3,0.4-0.5,0.9-0.5,1.4c0,0.9-0.4,1.8-1.2,2.4c-0.9,0.7-3.4,1-4.2,0.4
		c-0.8-0.6-1.9-0.5-2.4,0.1c-0.3,0.4-0.4,0.4-1,0.3c-2.6-0.4-3.5-0.5-5-0.4c-0.3,0-0.8-0.1-1.2-0.4l-0.6-0.4l-0.5,0.4
		c-1.5,1.4-5.8,2.3-6.8,1.5c-0.2-0.2-0.8-0.3-1.9-0.3c-1,0-2-0.2-2.7-0.4c-1.3-0.4-5.3-0.7-5.4-0.4c-0.1,0.1,0,0.4,0.1,0.7
		c0.1,0.3,0.3,0.6,0.3,0.8c0,0.5,0.6,1.5,1.1,2c0.3,0.3,0.5,0.6,0.5,0.9c0,0.5,1.8,2.5,2.8,3c0.4,0.2,0.7,0.6,0.9,1.1
		c0.5,1.2,1.1,1.8,1.8,1.8c0.8,0,1.1,0.3,1.3,1.5c0.3,1.7,1,2.3,3.8,3.2c1.8,0.5,2.5,1.3,2.1,2.2c-0.1,0.3-0.2,1-0.2,1.6
		c0.1,1.5,0,1.5-0.6,2.3c-0.7,0.8-0.8,1.5-0.3,1.7c0.4,0.2,0.5,0.6,0.6,2.5c0.1,1.2,0.2,1.3,0.5,1.5c0.2,0.1,0.7,0.6,1.1,1.2
		c0.9,1.2,1.9,2.3,2.2,2.3c0.7,0,0.8,0.4,0.4,1.4c-0.4,0.9-0.5,1.8-0.1,2c0.1,0.1,0.2,0.5,0.2,1c0,2.1,1.5,3.4,4.5,4
		c1.4,0.2,2.3,0.6,2.3,1c0,0.1-0.1,0.7-0.2,1.2c-0.3,1.5,0,3.6,0.5,3.9c0.6,0.4,2.6,0.5,3.3,0.2c2.2-1.1,3.4-1.1,4.4-0.1
		c0.4,0.4,0.8,0.7,1,0.7c0.2,0,0.4,0.3,0.5,0.6c0.1,0.3,0.4,0.9,0.8,1.4c0.3,0.5,0.7,1.2,0.8,1.7c0.1,0.5,0.3,1.2,0.4,1.5
		c0.2,0.7,0.1,0.9-1.1,2.5c-0.5,0.6-0.9,1.3-1,1.6c-0.1,0.2-0.6,1.1-1.1,1.9c-0.6,0.8-1.2,1.7-1.4,2.1c-0.2,0.3-0.6,0.7-0.9,0.8
		c-0.9,0.3-0.9,0.9,0.1,1.6c1.2,0.9,0.8,2.1-1.1,3.4c-0.3,0.2-0.8,0.7-1,1.1c-0.6,1.2-1.8,2.3-2.5,2.3c-0.5,0-0.7,0.1-0.8,0.5
		c-0.1,0.3-0.4,0.6-0.6,0.6c-0.2,0.1-0.5,0.4-0.7,0.7c-0.8,1.2-2.9,3.2-3.8,3.7c-1.6,0.9-1.8,1-2.3,1.5c-0.3,0.3-0.5,0.6-0.5,1
		c0,0.3-0.2,0.7-0.3,1c-1,1.2-0.1,6.6,1,6.6h0.4l-0.4,0.4c-0.5,0.5-0.7,1.1-0.7,1.5c0,0.5-0.4,1.2-1.5,3c-0.9,1.4-1,1.5-0.9,2.4
		c0,0.8,0,0.9-0.5,1.4c-0.5,0.4-0.5,0.5-0.5,1.8v1.3l0.7-0.1c0.7-0.1,0.7-0.1,0.8,0.4c0.1,0.6,0,0.8-1.3,1.7c-1.2,0.8-1.1,1,1.1,1.8
		c1.4,0.6,1.5,0.6,1.6,1.2c0.1,0.5,0.3,0.8,0.9,1.3c0.4,0.4,1,1,1.2,1.4c0.2,0.4,1,1.5,1.6,2.4c0.6,0.9,1.5,2.3,2,3.2
		c0.5,0.9,1,1.7,1.3,1.9c0.9,0.5,1.4,1.2,1.6,2.1c0.1,0.5,0.5,1.2,0.7,1.5c0.3,0.3,0.4,0.8,0.4,1.2c0,0.9,0.8,3,1.5,3.9
		c0.8,1,1.4,1.1,2.2,0.5c0.4-0.3,0.5-0.3,0.9-0.2c1,0.4,1.4,0.2,3-1.3c0.6-0.6,0.9-0.7,1.3-0.7c0.3,0,0.9-0.1,1.3-0.3
		c1.9-0.7,2.5,0.1,1.1,1.4c-0.4,0.3-0.8,0.6-0.9,0.6c-0.1,0-0.2,0.2-0.2,0.4c0,0.2-0.1,0.5-0.3,0.6c-0.4,0.3-0.3,1.2,0.1,1.2
		c0.5,0,0.5,1.9,0,2.4c-0.2,0.2-0.3,0.4-0.3,0.6c0,0.1-0.2,0.4-0.4,0.6c-0.4,0.3-0.4,0.6-0.5,2.3c-0.1,1.2-0.2,2-0.4,2.1
		c-0.1,0.1-0.3,0.6-0.3,1.2c-0.1,0.5-0.1,1.3-0.2,1.6l-0.1,0.6l-1.8-0.1l-1.8-0.1l-0.6-0.7c-0.8-0.9-2.5-1.5-2.9-0.9
		c-0.1,0.1-0.3,0.7-0.3,1.3l-0.1,1.1l-0.9,0.5c-0.8,0.4-1,0.4-1.7,0.3c-1.6-0.3-2.4-0.2-3,0.4c-0.5,0.5-0.7,0.5-1.6,0.5
		c-1.6,0-2,0.4-1.3,1.3c0.5,0.6,0.3,2.7-0.2,3.2c-0.3,0.3-0.5,0.7-0.6,1.8c-0.1,0.8-0.4,1.8-0.6,2.2c-0.2,0.5-0.4,0.9-0.4,1.1
		c0,0.1-0.3,0.5-0.6,0.9c-0.3,0.4-0.7,1-0.8,1.4c-0.4,1.5-0.7,1.9-2,2.8c-1.7,1-2.5,1.9-2.7,2.5c-0.1,0.5-0.2,0.5-1.2,0.6
		c-1.4,0.1-1.5,0.3-1.6,1.9c-0.1,0.7-0.2,1.4-0.3,1.5c-0.2,0.2-0.6,1.7-0.8,3.1c-0.1,0.5-0.3,1-0.4,1.2c-0.1,0.1-0.3,0.5-0.4,0.9
		c-0.2,1-0.4,1.5-1.1,2.2c-0.3,0.3-0.6,0.8-0.6,1c0,0.5-0.5,1-0.9,1c-0.5,0-0.6,0.5-0.2,0.9c0.5,0.5,0.5,0.6-0.2,1.3
		c-1.3,1.2-1.3,2.4-0.3,4c0.3,0.5,0.6,1.1,0.6,1.2c0,0.2,0.3,0.7,0.8,1.1c0.7,0.7,0.8,0.9,0.9,1.9c0.1,0.7,0.3,1.4,0.6,1.8
		c0.4,0.6,0.4,0.8,0.3,1.4c-0.2,0.9-0.1,1.2,0.2,1.5c0.2,0.3,0.2,0.3,0,0.5c-0.3,0.2-0.3,0.3,0.1,0.9c1,1.6,1.3,2.6,1.1,3.3
		c-0.3,1.3,0.1,5.5,0.7,6.4l0.4,0.6l-0.4,0.4c-0.5,0.5-0.5,1.2,0.2,1.9c0.4,0.5,0.5,0.8,0.5,1.3c0,0.4,0.1,1.2,0.2,1.8
		c0.1,0.6,0.3,1.5,0.3,1.9l0.1,0.8l-2.3-0.1c-2-0.1-2.4,0-3.1,0.3c-0.4,0.2-1.2,0.4-1.7,0.6c-0.5,0.1-1.9,0.7-3,1.2
		c-1.1,0.6-2.4,1.1-2.7,1.1c-0.6,0.1-0.6,0.1-0.8,1.2c-0.2,1.2-0.7,1.7-2.5,2.5c-0.3,0.2-1.1,0.6-1.6,1c-0.5,0.4-1,0.7-1.1,0.7
		c-0.2,0-3.5,2.3-4.3,3c-0.9,0.8-1.5,1-1.9,0.6c-0.9-0.8-2.8,0.8-2.7,2.4c0.1,1.2-3.2,2.5-4.5,1.8c-0.2-0.1-1.4-0.7-2.7-1.3
		c-1.3-0.6-2.9-1.5-3.5-2c-0.6-0.5-1.7-1.2-2.4-1.5c-0.8-0.4-1.5-0.9-1.9-1.4c-0.4-0.4-0.9-0.9-1.3-1.1c-4.8-2.4-8.4-2.9-11.2-1.5
		c-1.6,0.8-2.6,0.7-3.3-0.2c-0.4-0.4-0.8-0.8-1.3-0.9c-0.4-0.1-0.7-0.3-0.8-0.4c-0.3-0.5-2.1-0.1-2.9,0.7c-0.6,0.6-4,0.2-5.4-0.6
		c-0.9-0.5-1.4-0.7-2-0.7c-0.6,0-0.7-0.1-0.7-0.3c0-0.9-2.5-1.5-3.4-0.7c-0.1,0.1-0.5,0-0.9-0.2c-1.2-0.5-2.7-0.5-3.7,0.1
		c-1.4,0.8-1.6,1-1.6,2.1c0,0.8,0,0.9-0.3,0.8c-0.9-0.4-4-0.3-4.4,0.2c-0.2,0.2-0.6,0.5-0.8,0.5c-0.2,0-0.8,0.1-1.4,0.2
		c-0.6,0.1-1.8,0.3-2.8,0.4c-1.9,0.1-2.2,0.2-2.5,1c-0.2,0.5-0.3,0.5-1.3,0.5c-1.4,0-1.5,0.1-1.5,0.8c0,0.5-0.1,0.7-0.8,1.1
		c-0.6,0.4-0.8,0.7-1,1.3c-0.3,1-0.5,1-0.8-0.1c-0.4-1.3-0.9-1.8-1.8-1.8c-1,0-1.2-0.4-0.5-1c0.3-0.3,0.5-0.7,0.5-1
		c0-0.4,0.1-0.6,0.3-0.6c0.5,0,1-0.7,1-1.3c0-0.7,0.2-1.3,0.8-1.7c0.2-0.2,0.4-0.5,0.4-0.7c0-0.2,0.4-0.9,1-1.5
		c1.1-1.3,1.5-2.8,1.2-4.1c-0.4-1.4-0.4-1.7,0.3-1.8c0.7-0.1,1.5-1.2,1.7-2.2c0.1-0.3,0.3-1,0.6-1.4c0.6-0.9,0.7-2,0.3-3
		c-0.8-2-0.7-3.4,0.3-3.9c0.8-0.4,1.5-1.4,1.6-2.4c0.1-0.3,0.4-1.4,0.8-2.3c0.4-1,0.8-2.2,0.9-2.7c0.1-0.5,0.5-1.5,0.7-2.3
		c0.6-1.6,0.8-6,0.3-7.5c-0.1-0.4-0.4-1.4-0.5-2.2c-0.1-0.9-0.3-1.5-0.5-1.5c-0.4-0.1-0.3-0.5,0.4-3.4c0.1-0.5,0.4-2,0.5-3.2
		c0.3-2.1,0.3-2.3,0.8-2.7l0.5-0.4l-0.7-0.7c-1.4-1.4-1.5-1.8-1.2-3.5c0.1-0.8,0.3-1.8,0.3-2.2c0-0.4,0.2-1.6,0.4-2.8
		c0.6-2.6,0.6-5.1,0.1-6.2c-0.4-1-1.8-2.5-2.4-2.7c-0.3-0.1-0.8-0.4-1.2-0.8c-0.7-0.7-1.1-0.8-1.7-0.6c-0.5,0.2-0.4-0.4,0.2-0.9
		c0.3-0.2,0.6-0.6,0.6-0.8c0.1-0.2,0.3-0.7,0.6-1c0.7-0.9,2.2-4.2,2.8-5.9c0.3-0.8,0.7-1.8,0.8-2.3c0.2-0.4,0.4-1,0.4-1.3
		c0-0.3,0.2-1.1,0.4-1.8c0.7-2.4,0.8-4.1,0.9-9.2c0-2.1,0-3.2-0.2-3.4c-0.1-0.2-0.3-1.1-0.3-2.1c-0.1-1.9-0.8-4.3-1.9-6.2
		c-0.3-0.6-0.9-1.7-1.1-2.4c-0.5-1.3-1.1-2-4.1-5c-0.7-0.7-0.8-0.9-0.6-1c0.4-0.1,1.8,1,2.2,1.8c0.4,0.8,2,2.2,2.6,2.2
		c0.3,0,0.6,0.1,0.6,0.2c0.1,0.1,0.7,0.2,1.4,0.3c0.9,0.1,1.6,0.3,2.6,0.9c1.4,0.7,3,1,4.2,0.6c0.7-0.2,0.2-1-0.9-1.5
		c-1-0.5-1.7-3-1.3-4.6c0.3-1.2,0.1-1.7-0.6-1.8c-0.4-0.1-0.6-0.2-0.6-0.4c0-0.3-0.3-0.5-1-0.5c-0.5,0-0.6,0.6-0.1,1.4
		c0.8,1.6,0,3.1-1.7,3.1h-1.2l-1.6-1.5c-2-2-3.8-2.8-4.4-2c-0.1,0.1-0.4,0.3-0.6,0.3c-0.2,0.1-0.7,0.5-1.1,1
		c-0.4,0.5-0.8,0.9-0.9,0.9c-0.1,0-1,0.5-1.8,1.1c-0.8,0.6-2.4,1.5-3.4,2l-1.9,0.9l-1.9,0c-1.5,0-2,0.1-2.5,0.3
		c-0.4,0.2-0.8,0.3-1.4,0.2c-0.8-0.1-1.5,0.2-2.9,1.5c-0.6,0.5-1.5,0.7-2,0.3c-0.1-0.1,2-4.5,2.5-5.1c0.4-0.5,0.2-3.9-0.3-6.3
		c-0.3-1.2-0.5-2.3-0.5-2.5s-0.2-0.7-0.4-1.2c-0.2-0.5-0.6-1.3-0.8-1.8c-0.2-0.5-0.5-1.1-0.6-1.4c-0.2-0.5-1-1.4-1.8-2
		c-0.6-0.4-0.4-0.5,1-0.7c1.5-0.2,3.3-0.5,4-0.7c0.9-0.3,1.6-0.2,1.6,0.1c0,0.3,0.8,1.4,1.2,1.8c0.6,0.5,2.3,0.3,3.2-0.4
		c0.4-0.3,1.1-0.6,1.5-0.7c1.2-0.2,1.7-1.3,0.9-1.9c-0.4-0.3-0.3-1.4,0.1-1.4c0.1,0,0.7-0.4,1.2-0.9c1.8-1.8,3.5-2.7,4.9-2.7
		c1.7,0,2-0.2,1.7-1.3c-0.1-0.4-0.2-1.1-0.2-1.5c0-0.9-0.6-1.6-2.7-3.6c-0.7-0.6-1.1-1.6-0.8-1.9c0.3-0.5,0.3-1.6,0-2
		c-0.2-0.2-0.3-0.9-0.3-2.1c-0.1-3.3-0.9-2.7-1.9,1.3c-0.2,0.6-1,1.7-1.9,2.4c-0.4,0.3-0.7,0.7-0.9,1.1c-0.1,0.4-0.5,1-0.9,1.4
		c-0.5,0.6-0.7,0.9-0.8,1.7c-0.1,0.6-0.2,1.3-0.3,1.6c-0.1,0.3-0.2,1-0.2,1.6c0,2.1-0.4,3.7-1,3.9c-0.1,0-0.7,0.4-1.2,0.7
		c-0.5,0.3-1.1,0.6-1.2,0.6c-0.4,0-3.2,0.7-3.6,0.9c-0.2,0.1-0.6,0.1-1,0c-1.7-0.4-2.7-0.4-3.6,0c-2.8,1.4-2.7,1.4-4.1,0.8
		c-0.5-0.2-1.2-0.5-1.6-0.5c-0.4-0.1-0.8-0.2-1-0.4c-0.5-0.3-0.8-0.3-1.4,0c-2.3,1.3-5.5-0.7-4.4-2.7c0.6-1,0.6-2.1,0.1-2.5
		c-1.2-1.1-1.2-2,0.4-4.9c2.2-4.1,2.5-4.7,3.4-7.7c0.6-2.1,0.7-2.6,0.3-3.8c-0.6-1.9-0.6-5.2,0.2-5.9c0.2-0.2,0.2-1.9,0-2.4
		c-0.1-0.3,0-0.8,0.7-2.2c0.5-1,0.9-1.9,0.9-2.1c0-0.1,0.4-1,0.9-2c0.5-1,0.9-2.1,1.1-2.5c0.1-0.4,0.4-1.1,0.6-1.5
		c1.4-2.5,1.5-7,0.2-9.6c-0.5-0.9-0.5-1.2-0.4-1.8c0.2-0.9-0.3-1.3-1.7-1.5c-1.3-0.1-1.4-0.3-0.9-1c0.6-0.7,1.1-0.7,1.7,0l0.4,0.5
		l0.9-0.2c1.4-0.3,2.2-0.8,3.6-2.1c0.7-0.6,1.6-1.5,2.1-1.8c1.3-0.9,2.3-2,2.8-3.1c0.3-0.6,0.9-1.4,1.7-2.2c0.7-0.6,1.3-1.4,1.4-1.6
		c0.1-0.4,0.3-0.4,1.1-0.5c0.9-0.1,0.9-0.1,0.9-0.6c0-0.4,0.2-0.7,1.1-1.8c3.5-3.8,3.9-4.5,2.8-5.4c-0.3-0.2-0.6-0.5-0.7-0.5
		c-0.3,0-0.2-0.5,0.6-2.4c0.5-1.3,0.8-2.4,1-3.4c0.1-1,0.4-2,0.8-2.8c0.3-0.7,0.7-1.7,0.7-2.2c0.2-0.8,0.9-2.8,1.7-5.1
		c0.6-1.6,1.6-4,1.8-4.5c0.1-0.3,0.5-1.2,0.8-2.1c0.3-0.9,0.7-1.9,1-2.4c0.2-0.4,0.4-1.1,0.5-1.5c0.3-2,0.8-3.1,1.9-5.3
		c1.5-2.8,2-4.1,2.2-5.3c0.1-0.5,0.3-1.1,0.4-1.4c1.6-2.7,0.9-6.5-1.4-7.8c-0.9-0.5-0.9-0.6-0.3-1.5c0.2-0.4,0.6-1.2,0.7-1.8
		c0.2-0.6,0.5-1.5,0.7-2c1.4-3,2.4-5.6,2.6-6.8c0.1-0.4,0.3-1.1,0.4-1.6c0.1-0.4,0.3-1.3,0.4-1.9c0.1-0.6,0.3-1.4,0.4-1.8
		c0.1-0.4,0.4-1.3,0.5-2c0.1-0.7,0.6-2.4,1.1-3.8c0.5-1.4,0.9-2.9,1-3.3c0.2-1.4,1-4.6,1.3-5.1c0.1-0.3,0.3-0.9,0.3-1.5
		c0-0.9,0-1,0.7-1.3c0.8-0.4,0.8-0.4,0.5,1c-0.3,1.3-0.1,4.2,0.3,4.7c0.5,0.7,1.6-0.1,1.8-1.3c0.1-0.7,0.4-1.6,0.8-2.4
		c0.6-1.4,0.7-1.9,0.7-4.9c0-3.4-0.2-4.2-0.8-4.4c-0.7-0.2-0.9,0-1.1,0.9c-0.5,1.7-1.8,3.7-2.4,3.7c-0.4,0-0.1-1.4,0.5-2.6
		c0.3-0.6,0.5-1.2,0.5-1.4c0-0.2,0.1-1.2,0.3-2.1c0.1-0.9,0.3-1.9,0.4-2.2c0-0.3,0.3-0.9,0.6-1.3c0.4-0.6,0.5-1,0.5-1.7
		c0-0.6,0.2-1.3,0.5-2.1c0.6-1.3,0.7-1.9,1.4-5.5c0.1-0.5,0.4-1.7,0.6-2.7c0.2-1,0.5-2.3,0.5-3c0.1-0.7,0.2-1.4,0.3-1.7
		c0.8-1.9,0.9-4.9,0.2-6.2c-0.4-0.8-0.5-1.1-0.5-2.6c-0.1-3.1-0.3-5.1-0.8-5.8c-0.5-0.8-0.8-1.3-1-2.2c-0.1-0.4-0.5-1-0.8-1.4
		c-0.6-0.7-0.7-1.1-0.6-2.5c0-0.4-0.1-0.7-0.3-0.9c-0.2-0.2-0.3-0.8-0.4-1.9c-0.1-0.9-0.2-2-0.2-2.4c0-0.5-0.2-1-0.3-1.2
		c-0.2-0.3-0.3-0.8-0.3-1.9c0-1.4,0-1.5-0.6-2.1c-0.3-0.4-0.6-0.8-0.6-0.9c0-0.1-0.2-0.8-0.5-1.4c-0.3-0.7-0.5-1.4-0.5-1.8
		c0-0.5-0.1-0.7-0.3-0.8c-0.2-0.1-0.2-0.2,0-0.5c0.8-1.4,0.9-5.1,0.3-5.6c-0.4-0.3-0.4-0.4-0.4-2.3c0-2.4-0.2-3.7-0.6-4.1
		c-0.2-0.2-0.3-0.8-0.4-1.9c-0.1-1.4-0.1-1.6-0.5-1.9c-0.5-0.4-0.7-1.5-0.7-3.8c0-1-0.9-2.4-1.5-2.4c-0.3,0-0.7-0.7-1-1.5
		c-0.1-0.4-0.4-1.1-0.6-1.6c-0.5-1.1-0.5-1.8-0.1-2.7c0.2-0.4,0.3-1,0.3-1.6c0-0.6,0.1-1,0.3-1.2c0.4-0.4,0.3-1.4-0.2-1.9
		c-0.4-0.4-0.4-0.8,0-1c0.2-0.1,0.2-0.4,0.2-0.9c0-0.5,0.1-0.9,0.3-1.1c0.2-0.2,0.3-0.4,0.3-0.6c0-0.7,1.9-2.8,2.5-2.8
		c0.5,0,2.4-1,3.4-1.8c0.5-0.4,0.6-0.5,0.6-1.7c0-1.6,0-1.5,1.6-2.2c2.4-1,3.4-1.8,3.7-3.1c0.2-1.2,1.1-2.3,2.3-2.9l1.1-0.5l0.8,0.4
		c1.5,0.7,4.2-0.2,4.2-1.5c0-0.7,4-0.9,4.9-0.2c0.5,0.4,0.6,0.4,1.5,0c0.6-0.3,0.8-0.3,1-0.2c0.3,0.3,0.9,0.2,1.1-0.1
		c0.2-0.6,1.2-0.9,1.8-0.5c0.7,0.4,1.1,0.3,1.3-0.4c0.1-0.3,0.4-0.6,0.6-0.8c0.3-0.2,0.9-0.6,1.5-1c0.6-0.5,1.2-0.7,1.5-0.7
		c0.4,0,0.6-0.1,1-0.7c0.5-0.8,0.6-0.8,1-0.4s0.5,0.3,0.9-0.3C235.7,47.7,235.8,47.6,236.1,47.9 M186.2,309.2c-0.1,0.7,0,1,0.1,1.1
		c0.3,0.1,0.4,0.8,0.1,1.1c-0.3,0.3-0.3,1.6,0.1,1.7c0.1,0,0.2,0.2,0.1,0.2c-0.1,0.1,0,0.2,0.1,0.2c0.1,0,0.2,0.1,0.2,0.3
		c0,0.4,0.4,0.8,0.9,1c0.3,0.1,0.6,0.4,0.8,0.8c0.2,0.4,0.5,0.7,0.6,0.6c0.1-0.1,0.2,0.1,0.2,0.2c0,0.2,0.1,0.5,0.3,0.6
		c0.2,0.2,0.3,0.5,0.3,1c0,0.9,0.1,1.3,0.3,1.4c0.1,0.1-0.1,0.2-0.3,0.2c-0.3,0.1-0.5,0.1-0.6-0.1c-0.1-0.2-1.1-0.3-1.1-0.1
		c0,0.1-0.2,0.1-0.5,0.1c-0.5,0-1.3,0.4-1.9,1.1c-0.2,0.2-0.5,0.4-0.7,0.4c-0.4,0-1.8,1.3-1.6,1.5c0.1,0.1,0,0.1-0.2,0.1
		c-0.2,0-0.3,0.1-0.2,0.2c0.1,0.1-0.2,0.2-0.5,0.2c-0.5,0-0.6,0.1-0.7,0.7c-0.4,1.5-0.4,1.5,0.1,1.8c0.6,0.4,0.5,0.6-0.6,0.8
		c-0.9,0.2-1.6,0.6-1.4,0.9c0,0.1-0.1,0.1-0.2,0.1c-0.2,0-0.6,0.1-1,0.1c-0.7,0.1-1.6-0.6-1.6-1.3c0-0.5-0.7-1-1.4-1
		c-0.4,0-0.6,0-0.4-0.1c0.2,0,0.4-0.2,0.4-0.2c0-0.1,0.3-0.1,0.8-0.1c0.8,0,1.6-0.4,1.4-0.6c-0.1-0.1,0-0.1,0.1,0
		c0.1,0.1,0.4,0,0.6-0.2c0.2-0.2,0.4-0.3,0.4-0.3c0,0.1,0.2,0,0.5-0.2c0.4-0.2,0.5-0.4,0.4-0.5c-0.1-0.1,0-0.2,0.1-0.2
		c0.3,0.2,0.7-1.2,0.9-3.2c0.1-1.1,0.2-2.2,0.3-2.3c0.1-0.2,0-0.3-0.1-0.3c-0.1,0-0.2-0.1-0.2-0.2c0-0.1,0.1-0.1,0.2-0.1
		c0.2,0.1,0.4-1,0.3-1.4c-0.1-0.3-0.1-0.3,0.1-0.1c0.2,0.2,0.2,0.2,0.2-0.1c0-0.2,0.3-0.6,0.6-0.9c0.4-0.3,0.6-0.7,0.6-1
		c0-0.2,0.1-0.5,0.2-0.7c0.2-0.2,0.2-0.2,0-0.1c-0.1,0.1-0.2,0-0.2-0.1c0-0.2,0.2-0.3,0.6-0.2c0.1,0,0.1-0.1,0.1-0.1
		c0-0.1,0.1-0.2,0.2-0.2c0.4-0.1,1.9-1.9,1.7-2.1c-0.1-0.1,0-0.1,0.1-0.1c0.2,0.1,0.2,0,0.1-0.3c-0.1-0.3-0.1-0.4,0-0.4
		c0.1,0.1,0.2-0.1,0.3-0.3C186.1,307.9,186.2,308.2,186.2,309.2 M174.6,325.4c-0.2,0.1-0.5,0.2-0.8,0.2c-0.4,0-0.3-0.1,0.3-0.2
		C175,325.1,175,325.1,174.6,325.4 M193.8,340.2c0.3,0.1,0.9,0.7,1.5,1.3c0.6,0.7,1,1,1.2,1c0.2-0.1,0.3,0.1,0.3,0.4
		c0.1,0.3,0.2,0.5,0.3,0.4s0.2,0,0.2,0.1c0,0.1,0.1,0.2,0.4,0.1c0.2-0.1,0.3-0.1,0.3,0.1c-0.1,0.1,0.2,0.2,0.8,0.2
		c0.6,0,0.9-0.1,0.8-0.2c-0.1-0.1,0.1-0.2,0.8-0.1l0.9,0.1l0.5-1c0.3-0.6,0.5-1.3,0.5-1.8c0-0.7,0.1-0.8,0.3-0.8
		c0.3,0,0.4,1,0.1,1.1c-0.2,0.1-0.2,1.5,0,1.5c0.1,0,0.1,0.3,0.1,0.7c0,0.4,0.1,0.9,0.2,1.1c0.1,0.2,0.2,0.4,0.2,0.4
		c0,0,0.1,0.3,0.2,0.5c0.1,0.2,0.2,0.4,0.3,0.4c0.1,0,0.1,0.1,0.1,0.2c-0.1,0.1,0.1,0.3,0.4,0.5c0.3,0.2,0.4,0.4,0.2,0.4
		c-0.1,0-0.5,0-0.8,0c-0.3,0-0.5,0-0.5-0.1c0-0.1-0.1-0.2-0.3-0.2c-0.2-0.1-0.4-0.2-0.4-0.3c0-0.1-0.2-0.1-0.4-0.1
		c-0.2,0.1-0.4,0-0.5-0.2c-0.1-0.2-0.2-0.2-0.4-0.2c-0.2,0-0.3,0-0.2-0.1c0.1-0.1,0-0.2,0-0.2c-0.7-0.1-1.1-0.2-1.7-0.2
		c-0.4,0-0.9-0.2-1-0.4c-0.2-0.2-0.5-0.3-0.8-0.2c-0.4,0.1-0.7-0.1-1.5-0.9c-0.6-0.6-0.9-1-0.8-1c0.1,0,0.1-0.1-0.1-0.3
		c-0.2-0.2-0.3-0.4-0.3-0.6c0-0.1-0.1-0.1-0.2,0.1c-0.1,0.3-0.2,0.3-0.2-0.1c0-0.2-0.1-0.4-0.2-0.3c-0.1,0.1-0.2,0-0.2-0.1
		c0-0.1-0.1-0.2-0.3-0.2s-0.3-0.1-0.3-0.3c0-0.3-0.4-0.4-1.3-0.5l-0.5,0l0.7-0.4C192.6,339.8,192.9,339.8,193.8,340.2"/>
	<path id="path2_1_" class="st2" d="M236.2,49.1c0,0.4,0,0.6,0.1,0.4c0-0.2,0-0.6,0-0.8C236.2,48.5,236.2,48.7,236.2,49.1 M237,48.7
		c-0.2,0.2-0.1,0.7,0,0.8c0.1,0,0.1-0.1,0.1-0.4C237.2,48.5,237.2,48.5,237,48.7 M216.8,52.5c0,0.1,0.3,0.1,0.6,0.1
		c0.3,0,0.6-0.1,0.6-0.1c0,0-0.3-0.1-0.6-0.1C217.1,52.4,216.8,52.5,216.8,52.5 M220,53c0.2,0,0.4,0,0.6,0c0.2,0,0-0.1-0.3-0.1
		C220,53,219.8,53,220,53 M218.7,53.2c0.2,0,0.5,0,0.7,0c0.2,0,0-0.1-0.4-0.1C218.6,53.1,218.5,53.2,218.7,53.2 M319.6,59.3
		c0.2,0,0.4,0,0.6,0c0.2,0,0-0.1-0.3-0.1C319.6,59.2,319.5,59.3,319.6,59.3 M299.4,60.5c-0.1,0.2-0.4,0.3-0.6,0.4
		c-0.2,0.1-0.3,0.1-0.1,0.2c0.2,0,0.5-0.2,0.7-0.4c0.2-0.2,0.4-0.4,0.3-0.4C299.6,60.2,299.5,60.4,299.4,60.5 M322.7,61.2
		c0,0.2,0.1,0.4,0.2,0.5c0.2,0.1,0.2,0,0-0.5C322.7,60.9,322.7,60.9,322.7,61.2 M297,61.7c0,0.4,0,0.5,0.1,0.3c0-0.2,0-0.5,0-0.7
		C297,61.2,297,61.3,297,61.7 M203.5,62.8c0,0.4,0,0.5,0.1,0.3c0-0.2,0-0.5,0-0.7C203.5,62.2,203.5,62.4,203.5,62.8 M329.6,63.7
		c0.2,0,0.4,0,0.6,0c0.2,0,0-0.1-0.3-0.1C329.5,63.6,329.4,63.6,329.6,63.7 M253.8,66.4c0,0.4,0,0.5,0.1,0.3c0-0.2,0-0.5,0-0.7
		C253.8,65.9,253.8,66,253.8,66.4 M253.4,68.2c0,0.2-0.1,0.5-0.2,0.6c-0.1,0.1,0,0.1,0.1,0c0.2-0.1,0.2-0.4,0.2-0.6
		C253.5,67.8,253.4,67.8,253.4,68.2 M262.1,68.2c0,0.2-0.1,0.5-0.2,0.6c-0.1,0.1,0,0.1,0.1,0c0.2-0.1,0.2-0.4,0.2-0.6
		C262.2,67.8,262.2,67.8,262.1,68.2 M270.9,69c0.4,0.1,1.4,0.2,1.4,0c0-0.1-0.4-0.1-0.8-0.1S270.8,69,270.9,69 M258.5,69.2
		c0.2,0,0.4,0,0.6,0c0.2,0,0-0.1-0.3-0.1C258.5,69.2,258.3,69.2,258.5,69.2 M277.8,69.4c0,0.1,0.2,0.1,0.4,0.1
		c0.2,0,0.4-0.1,0.4-0.1s-0.2-0.1-0.4-0.1C278,69.3,277.8,69.4,277.8,69.4 M277.8,70.9c0,0.4,0,0.5,0.1,0.3s0-0.5,0-0.7
		C277.9,70.4,277.8,70.6,277.8,70.9 M289.5,70.6c-0.3,0.3-0.3,0.3,0,0.1c0.2-0.1,0.5-0.2,0.6-0.3c0.2-0.1,0.2-0.1,0-0.1
		C290,70.3,289.7,70.5,289.5,70.6 M279.2,70.6c0.2,0,0.4,0,0.6,0c0.2,0,0-0.1-0.3-0.1C279.2,70.6,279.1,70.6,279.2,70.6 M196.3,71.4
		c0,0.4,0,0.6,0.1,0.4c0-0.2,0-0.6,0-0.8C196.4,70.8,196.3,71,196.3,71.4 M275.9,71.5c0.2,0,0.4,0,0.6,0c0.2,0,0-0.1-0.3-0.1
		C275.9,71.4,275.7,71.5,275.9,71.5 M196.2,73.5c0.1,0.1,0.2,0.5,0.3,0.8l0.1,0.5l0-0.5c0-0.3-0.1-0.6-0.3-0.8
		C196.1,73.2,196.1,73.2,196.2,73.5 M238.3,73.8c0,0.3,0,0.5,0.1,0.3c0-0.2,0-0.4,0-0.6C238.3,73.3,238.3,73.5,238.3,73.8 M242,74.3
		c0.3,0,0.7,0,0.9,0c0.2,0,0-0.1-0.5-0.1C241.9,74.2,241.7,74.3,242,74.3 M196,76.7c0,0.4,0,0.5,0.1,0.3c0-0.2,0-0.5,0-0.7
		C196,76.1,196,76.3,196,76.7 M194.6,79.1c0,0.4,0,0.5,0.1,0.3c0-0.2,0-0.5,0-0.7C194.6,78.6,194.6,78.7,194.6,79.1 M195.3,79.2
		c0,0.4,0,0.6,0.1,0.4c0-0.2,0-0.6,0-0.8C195.3,78.6,195.3,78.8,195.3,79.2 M198.8,86.7c0,0.5,0,0.7,0.1,0.5c0-0.3,0-0.7,0-1
		C198.8,86,198.8,86.2,198.8,86.7 M198.9,88.9c0,0.4,0,0.5,0.1,0.3c0-0.2,0-0.5,0-0.7C199,88.3,198.9,88.5,198.9,88.9 M200,92
		c0,0.7,0,0.9,0.1,0.6c0-0.4,0-0.9,0-1.2C200,91.1,200,91.3,200,92 M199.3,92.2c0,0.4,0,0.5,0.1,0.3c0-0.2,0-0.5,0-0.7
		C199.3,91.6,199.3,91.8,199.3,92.2 M200.1,98.2c0,0.2,0.1,0.3,0.2,0.3s0.2-0.2,0.2-0.3c0-0.2-0.1-0.3-0.2-0.3S200.1,98,200.1,98.2
		 M201.7,102.5c0,0.9,0,1.2,0.1,0.8c0-0.4,0-1.1,0-1.6S201.7,101.6,201.7,102.5 M201,102.2c0,0.3,0,0.5,0.1,0.3c0-0.2,0-0.4,0-0.6
		C201.1,101.7,201,101.9,201,102.2 M201.4,107.3c0,0.4,0,0.6,0.1,0.4c0-0.2,0-0.6,0-0.8C201.4,106.6,201.4,106.8,201.4,107.3
		 M346.6,107.4c0.2,0,0.4,0,0.6,0c0.2,0,0-0.1-0.3-0.1C346.6,107.3,346.4,107.3,346.6,107.4 M345.2,110.2c0.2,0,0.4,0,0.6,0
		c0.2,0,0-0.1-0.3-0.1C345.2,110.1,345.1,110.1,345.2,110.2 M343.3,112.4c0,0.5,0,0.7,0.1,0.4c0-0.3,0-0.7,0-0.9
		C343.3,111.7,343.3,111.9,343.3,112.4 M342.4,114.1c-0.4,0.4-0.7,0.7-0.6,0.7c0.1,0,0.4-0.3,0.8-0.7
		C343.5,113.2,343.4,113.2,342.4,114.1 M204.5,119.4c0,0.5,0,0.7,0.1,0.4c0-0.3,0-0.7,0-0.9C204.6,118.7,204.5,118.9,204.5,119.4
		 M204.9,120.8c0.1,0.1,0.2,0.4,0.3,0.6c0.1,0.3,0.1,0.3,0.1,0c0-0.2-0.1-0.5-0.3-0.6C204.8,120.6,204.8,120.6,204.9,120.8
		 M205.3,123.9c0,0,0.3,0.3,0.6,0.6l0.6,0.5l-0.5-0.6C205.5,123.8,205.3,123.7,205.3,123.9 M324.8,127.5c-0.3,0.4-0.1,0.5,0.3,0.1
		c0.2-0.2,0.2-0.3,0.1-0.3S324.9,127.4,324.8,127.5 M208.3,134.8c0,0.3,0,0.5,0.1,0.3s0-0.4,0-0.6
		C208.4,134.3,208.3,134.4,208.3,134.8 M318.5,136.6c0.2,0,0.6,0,0.8,0c0.2,0,0-0.1-0.4-0.1C318.5,136.6,318.3,136.6,318.5,136.6
		 M313.9,137.6c0,0.4,0,0.6,0.1,0.4c0-0.2,0-0.6,0-0.8C313.9,137,313.9,137.1,313.9,137.6 M209.4,138.5c0,0.7,0,0.9,0.1,0.6
		c0-0.4,0-0.9,0-1.2C209.4,137.5,209.4,137.8,209.4,138.5 M208.3,144.7c0,0.3,0,0.5,0.1,0.3s0-0.4,0-0.6S208.3,144.4,208.3,144.7
		 M318.4,145.5c0,0.5,0,0.7,0.1,0.4c0-0.3,0-0.7,0-0.9C318.4,144.8,318.4,145,318.4,145.5 M320.5,157c0,0.5,0,0.7,0.1,0.4
		s0-0.7,0-0.9C320.5,156.3,320.5,156.5,320.5,157 M207,168.7c0,1.1,0,1.6,0.1,1c0-0.6,0-1.5,0-2C207,167.2,207,167.6,207,168.7
		 M319.5,173c0,0.4,0,0.5,0.1,0.3c0-0.2,0-0.5,0-0.7C319.5,172.4,319.4,172.6,319.5,173 M320.1,174.4c0,0,0.3,0.3,0.6,0.6l0.6,0.5
		l-0.5-0.6C320.2,174.3,320.1,174.2,320.1,174.4 M322.6,192.1c0,0.4,0,0.6,0.1,0.4c0-0.2,0-0.6,0-0.8
		C322.6,191.5,322.6,191.6,322.6,192.1 M317.9,196.9c0,0.6,0,0.9,0.1,0.6s0-0.8,0-1.1C317.9,196.1,317.9,196.3,317.9,196.9
		 M315.7,198.6c0.2,0,0.5,0,0.7,0c0.2,0,0-0.1-0.4-0.1C315.6,198.6,315.5,198.6,315.7,198.6 M309.2,207.2c0,0.6,0,0.9,0.1,0.6
		c0-0.3,0-0.8,0-1.1C309.2,206.3,309.2,206.6,309.2,207.2 M316.1,227.7c0,0.5,0,0.7,0.1,0.4c0-0.3,0-0.7,0-0.9
		C316.2,227,316.1,227.2,316.1,227.7 M310.9,235.2c0,0.4,0,0.5,0.1,0.3c0-0.2,0-0.5,0-0.7C311,234.6,310.9,234.8,310.9,235.2
		 M311.8,235.3c0,0.3,0,0.5,0.1,0.3c0-0.2,0-0.4,0-0.6C311.8,234.8,311.8,234.9,311.8,235.3 M311.6,239.4c0.1,0.1,0,0.3-0.2,0.4
		c-0.2,0.2-0.2,0.3-0.1,0.3c0.1,0,0.3-0.2,0.4-0.3c0.2-0.4,0.2-0.5,0-0.5C311.6,239.3,311.6,239.3,311.6,239.4 M310.1,244.3
		c0,0.4,0,0.6,0.1,0.4c0-0.2,0-0.6,0-0.8C310.1,243.7,310.1,243.9,310.1,244.3 M303.7,246.5c0.3,0,0.8,0.2,1,0.4
		c0.3,0.3,0.3,0.3,0-0.1c-0.2-0.3-0.5-0.4-1-0.4l-0.6,0L303.7,246.5 M305.6,247.2c0.3,0,0.9,0,1.2,0c0.4,0,0.1-0.1-0.6-0.1
		C305.6,247.2,305.3,247.2,305.6,247.2 M278.6,250.6c0.3,0.3,0.5,0.6,0.6,0.6C279.2,251.1,279,250.8,278.6,250.6l-0.5-0.6
		L278.6,250.6 M284.4,257.5c0.2,0,0.4,0,0.6,0c0.2,0,0-0.1-0.3-0.1C284.4,257.4,284.3,257.4,284.4,257.5 M167.1,268.7
		c-0.2,0.2-0.2,0.3-0.1,0.3c0.2,0,0.7-0.5,0.5-0.6C167.5,268.4,167.3,268.5,167.1,268.7 M159.9,271.5c0,0.2,0.1,0.3,0.1,0.3
		c0.1,0,0.1-0.2,0.1-0.3c0-0.2-0.1-0.3-0.1-0.3C160,271.1,159.9,271.3,159.9,271.5 M291.4,273c0,0.3,0,0.5,0.1,0.3
		c0-0.2,0-0.4,0-0.6C291.4,272.6,291.4,272.7,291.4,273 M295.5,281.3c0.1,0.5,0.1,0.5,0.2,0.2c0-0.2,0-0.5-0.1-0.6
		C295.5,280.8,295.5,280.9,295.5,281.3 M302.2,290.7c0,0.6,0.1,0.9,0.3,1c0.3,0.2,0.3,0.2,0.1,0
		C302.5,291.5,302.3,291.1,302.2,290.7l0-0.8L302.2,290.7 M308.6,290.5c0,0.1,0.2,0.2,0.5,0.2s0.6-0.1,0.6-0.2
		c0.1-0.1-0.1-0.2-0.5-0.2C308.9,290.3,308.6,290.4,308.6,290.5 M314.2,296.1c0,0.2,0.1,0.5,0.2,0.6c0.1,0.2,0.1,0.1,0.1-0.3
		C314.3,295.8,314.2,295.7,314.2,296.1 M158.6,298.7c-0.1,0.5,0,0.6,0.2,0.1c0.1-0.2,0.1-0.4,0-0.4
		C158.8,298.3,158.7,298.5,158.6,298.7 M159.2,300.5c0,0.5,0,0.7,0.1,0.4c0-0.3,0-0.7,0-0.9C159.3,299.8,159.2,300,159.2,300.5
		 M158.5,300.6c0,0.3,0,0.5,0.1,0.3s0-0.4,0-0.6C158.6,300.1,158.5,300.2,158.5,300.6 M159.2,304.4c0,0.1,0,0.4-0.1,0.6
		c-0.1,0.3-0.1,0.4,0.1,0.3c0.3-0.1,0.3-0.9,0.1-1C159.2,304.2,159.2,304.3,159.2,304.4 M186.8,308c0,0.9,0,1.3,0.1,0.8
		c0-0.5,0-1.2,0-1.7C186.8,306.8,186.8,307.1,186.8,308 M186.1,309c0,0.5,0,0.7,0.1,0.4c0-0.3,0-0.7,0-0.9
		C186.1,308.3,186.1,308.5,186.1,309 M305.6,313.8l-0.5,0.6L305.6,313.8c0.4-0.2,0.6-0.5,0.6-0.5C306.2,313.2,306,313.3,305.6,313.8
		 M180.1,316.4c0,0.3,0,0.5,0.1,0.3c0-0.2,0-0.4,0-0.6C180.2,315.9,180.1,316.1,180.1,316.4 M179.8,319.6c0,0.4,0,0.5,0.1,0.3
		c0-0.2,0-0.5,0-0.7C179.8,319.1,179.8,319.2,179.8,319.6 M189.3,319.5c0,0.2,0.5,0.2,0.9,0c0.2-0.1,0.1-0.2-0.3-0.2
		C189.6,319.4,189.3,319.4,189.3,319.5 M294.4,325.8c0,0.7,0,1,0.1,0.7c0-0.4,0-0.9,0-1.3C294.4,324.8,294.4,325.1,294.4,325.8
		 M295.2,325.5c0,0.4,0,0.5,0.1,0.3c0-0.2,0-0.5,0-0.7C295.3,325,295.2,325.2,295.2,325.5 M173.2,326.4c0.2,0,0.4,0,0.6,0
		c0.2,0,0-0.1-0.3-0.1C173.1,326.4,173,326.4,173.2,326.4 M177.3,328.1c0.2,0.2,0.5,0.3,1.3,0.3l1.1,0l-1-0.1
		C178,328.3,177.5,328.1,177.3,328.1C177.1,327.8,177.1,327.8,177.3,328.1 M196.5,341.7c0.5,0.5,0.9,0.9,0.9,0.9
		c0,0-0.3-0.4-0.8-0.9c-0.5-0.5-0.9-0.9-0.9-0.9S196.1,341.2,196.5,341.7 M191.5,341.5c0,0.1,0.3,0.5,0.7,0.9l0.8,0.8l-0.8-0.8
		c-0.7-0.7-0.7-1.2,0-0.6c0.2,0.2,0.2,0.2,0-0.1C192.1,341.3,191.7,341.2,191.5,341.5 M200.4,342.3c-0.1,0.2-0.4,0.4-0.6,0.4
		c-0.3,0.1-0.3,0.1,0,0.1c0.2,0,0.5-0.2,0.7-0.4C200.9,341.9,200.8,341.8,200.4,342.3 M203.1,343.2c0,0.3,0,0.5,0.1,0.3
		c0-0.2,0-0.4,0-0.6S203.1,342.9,203.1,343.2 M194.5,344.1c0,0,0.3,0.3,0.6,0.6l0.6,0.5l-0.5-0.6C194.7,344.1,194.5,344,194.5,344.1
		 M194.7,345c0.3,0.3,0.6,0.6,0.7,0.6s-0.2-0.3-0.5-0.6s-0.6-0.6-0.7-0.6S194.4,344.7,194.7,345 M198.6,346c0.2,0,0.4,0,0.6,0
		c0.2,0,0-0.1-0.3-0.1C198.6,345.9,198.4,345.9,198.6,346 M199.3,355.8c0,0.4,0,0.5,0.1,0.3c0-0.2,0-0.5,0-0.7
		C199.3,355.3,199.3,355.5,199.3,355.8 M199.8,361.8c0,0.6,0,0.8,0.1,0.5c0-0.3,0-0.8,0-1C199.9,360.9,199.8,361.2,199.8,361.8
		 M199.5,368.5c0,0.3,0,0.5,0.1,0.3c0-0.2,0-0.4,0-0.6S199.5,368.1,199.5,368.5 M313,373.7c0,0.3,0,0.5,0.1,0.3c0-0.2,0-0.4,0-0.6
		C313,373.2,313,373.4,313,373.7 M312.1,378.5c0,0.4,0,0.5,0.1,0.3c0-0.2,0-0.5,0-0.7C312.2,377.9,312.1,378.1,312.1,378.5
		 M309.4,379.6c0.4,0,0.9,0,1.3,0c0.4,0,0.1-0.1-0.7-0.1C309.3,379.5,309,379.5,309.4,379.6 M296.1,385.9c0,0.1-0.1,0.4-0.3,0.6
		c-0.3,0.3-0.3,0.3,0.1,0c0.2-0.2,0.4-0.5,0.3-0.6C296.1,385.7,296.1,385.7,296.1,385.9 M295.1,388.5c0,0.3,0,0.5,0.1,0.3
		c0-0.2,0-0.4,0-0.6C295.1,388,295.1,388.2,295.1,388.5 M285.1,402.5c0,0.4,0,0.5,0.1,0.3c0-0.2,0-0.5,0-0.7
		C285.2,402,285.1,402.1,285.1,402.5 M198.6,403.5c0.4,0.4,0.7,0.7,0.8,0.7s-0.2-0.3-0.6-0.7c-0.4-0.4-0.7-0.7-0.8-0.7
		S198.3,403.1,198.6,403.5 M281.7,411.4c-0.1,0.1-0.1,0.4,0,0.6c0,0.2,0.1,0.1,0.2-0.3C281.9,411.1,281.8,411,281.7,411.4
		 M197.5,414.5c0.1,0.5,0.1,0.5,0.2,0.2c0-0.2,0-0.5-0.1-0.6C197.5,414,197.4,414.1,197.5,414.5 M279.4,416.9c0,0.3,0,0.5,0.1,0.3
		c0-0.2,0-0.4,0-0.6C279.4,416.4,279.4,416.5,279.4,416.9 M198.4,420.6c0,0.8,0,1.1,0.1,0.6c0-0.4,0-1,0-1.4
		C198.5,419.5,198.4,419.9,198.4,420.6 M197.7,420c0,0.3,0,0.5,0.1,0.3s0-0.4,0-0.6C197.8,419.5,197.7,419.7,197.7,420 M281.7,421.4
		c0.4,0.4,0.7,0.7,0.8,0.7c0,0-0.2-0.3-0.6-0.7c-0.4-0.4-0.7-0.7-0.8-0.7S281.3,421,281.7,421.4 M190.5,445.6
		c-0.1,0.1-0.1,0.2-0.1,0.3c0,0.1,0,0.1,0.1,0c0.1-0.1,0.3-0.2,0.6-0.3l0.4-0.1l-0.4,0C190.8,445.5,190.5,445.5,190.5,445.6
		 M287.2,446.9c0,0.1,0.1,0.3,0.2,0.3s0.2-0.1,0.2-0.3s-0.1-0.3-0.2-0.3S287.2,446.8,287.2,446.9 M208.9,451.5c0.3,0,0.7,0,1,0
		c0.3,0,0-0.1-0.5-0.1S208.6,451.4,208.9,451.5 M225.2,453.6c0.2,0,0.5,0,0.7,0c0.2,0,0-0.1-0.4-0.1
		C225.1,453.5,224.9,453.5,225.2,453.6 M187.4,455c0,0.3,0,0.5,0.1,0.3c0-0.2,0-0.4,0-0.6C187.5,454.5,187.4,454.7,187.4,455
		 M202.5,454.6c0.4,0,1,0,1.4,0c0.4,0,0-0.1-0.7-0.1C202.4,454.6,202.1,454.6,202.5,454.6 M234,454.6c0.3,0,0.9,0,1.2,0
		c0.4,0,0.1-0.1-0.6-0.1C234,454.6,233.7,454.6,234,454.6 M203.3,455.3c0.3,0,0.7,0,0.9,0c0.2,0,0-0.1-0.5-0.1
		C203.2,455.2,203,455.3,203.3,455.3 M220.3,455.4c0.1,0.2,0.8,0.2,1.1,0c0.1-0.1-0.1-0.1-0.5-0.1
		C220.5,455.3,220.2,455.3,220.3,455.4 M197.4,456c0.2,0,0.4,0,0.6,0c0.2,0,0-0.1-0.3-0.1C197.3,455.9,197.2,456,197.4,456
		 M185.4,457.2c-0.1,0.3-0.1,0.6-0.1,0.6c0.1,0,0.4-1.1,0.3-1.2C185.6,456.6,185.5,456.9,185.4,457.2 M185.5,459.1
		c0.1,0.1,0.4,0.1,0.8,0.1l0.7-0.1l-0.8-0.1C185.7,459,185.4,459,185.5,459.1 M245,459.6c-0.1,0.1-0.1,0.2,0,0.2
		c0.4,0.1,0.7,0.1,0.7,0C245.6,459.5,245.1,459.4,245,459.6"/>
	<path id="path3_1_" class="st2" d="M231.7,49.9c0,0.1,0.2,0.1,0.5,0.1c0.3,0,0.6-0.1,0.6-0.1C232.9,49.7,231.8,49.8,231.7,49.9
		 M236.6,52.5c0,0.4,0,0.5,0.1,0.3c0-0.2,0-0.5,0-0.7C236.6,51.9,236.6,52.1,236.6,52.5 M217.6,53.4c0.2,0,0.4,0,0.6,0
		c0.2,0,0-0.1-0.3-0.1C217.5,53.3,217.4,53.3,217.6,53.4 M242.8,56.5c0,0.5-0.2,1-0.3,1.2l-0.3,0.4l0.4-0.4
		C242.9,57.4,243,57.2,242.8,56.5l0-0.9L242.8,56.5 M319.8,60.6c0,0.3,0,0.5,0.1,0.3c0-0.2,0-0.4,0-0.6
		C319.8,60.1,319.8,60.3,319.8,60.6 M313.1,63.5c0.3,0,0.8,0,1,0c0.3,0,0-0.1-0.6-0.1C313,63.4,312.8,63.5,313.1,63.5 M254.3,68.3
		c0,0.4,0,0.5,0.1,0.3c0-0.2,0-0.5,0-0.7C254.4,67.8,254.3,68,254.3,68.3 M269.6,69.1c0.2,0,0.5,0,0.7,0c0.2,0,0-0.1-0.4-0.1
		C269.5,69,269.3,69,269.6,69.1 M254.5,70.4c0,0.6,0.1,0.9,0.3,1c0.3,0.2,0.3,0.2,0.1,0C254.7,71.2,254.6,70.8,254.5,70.4l0-0.8
		L254.5,70.4 M238.1,72.3c0,0.7,0,1,0.1,0.7c0-0.4,0-0.9,0-1.3C238.2,71.2,238.1,71.5,238.1,72.3 M247.8,72.7l-0.4,0.5L247.8,72.7
		c0.4-0.2,0.5-0.4,0.5-0.5C248.3,72.2,248.1,72.4,247.8,72.7 M240.2,75c0.3,0,0.7,0,0.9,0c0.2,0,0-0.1-0.5-0.1
		C240.1,74.9,240,75,240.2,75 M338.8,85.8c0.3,0,0.7,0,0.9,0c0.2,0,0-0.1-0.5-0.1C338.7,85.7,338.5,85.7,338.8,85.8 M352.5,86.9
		c0,0,0.3,0.3,0.6,0.6l0.6,0.5l-0.5-0.6C352.6,86.9,352.5,86.8,352.5,86.9 M355.5,94.8l-0.5,0.6L355.5,94.8c0.6-0.4,0.7-0.6,0.6-0.6
		C356.1,94.2,355.8,94.5,355.5,94.8 M201.1,97.5c0,0.9,0,1.3,0.1,0.8c0-0.5,0-1.2,0-1.7C201.1,96.2,201.1,96.6,201.1,97.5
		 M201.9,102.2c0,0.5,0,0.7,0.1,0.5s0-0.7,0-1C201.9,101.5,201.9,101.7,201.9,102.2 M203.7,112.9c0,0.7,0,0.9,0.1,0.6
		c0-0.4,0-0.9,0-1.2C203.7,112,203.7,112.2,203.7,112.9 M204.3,116.7c0,0.4,0,0.6,0.1,0.4c0-0.2,0-0.6,0-0.8
		C204.4,116.1,204.3,116.2,204.3,116.7 M332.4,119.2c0.6,0,1.6,0,2.2,0c0.6,0,0.1-0.1-1.1-0.1C332.3,119.2,331.8,119.2,332.4,119.2
		 M326.9,123.5c0,0.3,0,0.5,0.1,0.3c0-0.2,0-0.4,0-0.6C327,123,326.9,123.1,326.9,123.5 M205.3,123.7c0,0,0.3,0.3,0.6,0.6l0.6,0.5
		l-0.5-0.6C205.5,123.7,205.3,123.5,205.3,123.7 M208.2,130.2c0,0.7,0,1.3,0.1,1.4c0.1,0.1,0.1-0.3,0.1-1
		C208.3,129,208.2,128.7,208.2,130.2 M208.5,133.9c0,0.3,0,0.5,0.1,0.3s0-0.4,0-0.6C208.6,133.4,208.5,133.6,208.5,133.9
		 M316.7,136.6c0.3,0,0.7,0,0.9,0c0.2,0,0-0.1-0.5-0.1C316.6,136.6,316.4,136.6,316.7,136.6 M209.6,138.7c0,0.4,0,0.5,0.1,0.3
		c0-0.2,0-0.5,0-0.7C209.6,138.1,209.6,138.3,209.6,138.7 M315.6,140.6c0,0,0.3,0.3,0.6,0.6l0.6,0.5l-0.5-0.6
		C315.7,140.6,315.6,140.4,315.6,140.6 M318.9,147.7c0,0,0.3,0.3,0.6,0.6l0.6,0.5l-0.5-0.6C319,147.7,318.9,147.6,318.9,147.7
		 M207.1,151.1c0,0.3,0,0.5,0.1,0.3c0-0.2,0-0.4,0-0.6C207.2,150.7,207.1,150.8,207.1,151.1 M320.2,151.9c-0.1,0.1-0.1,0.5,0,0.9
		c0.1,0.6,0.1,0.6,0.1-0.2C320.4,151.6,320.3,151.5,320.2,151.9 M202.9,173.8c0,0.3,0,0.5,0.1,0.3c0-0.2,0-0.4,0-0.6
		C203,173.3,202.9,173.4,202.9,173.8 M201.9,173.9c-0.3,0.6-0.2,0.8,0.1,0.2c0.1-0.3,0.2-0.5,0.2-0.6
		C202.1,173.5,202,173.6,201.9,173.9 M322,177.4c0,1,0,1.2-0.2,1.3c-0.2,0.1-0.2,0.1,0,0.1c0.3,0,0.6-2.1,0.3-2.4
		C322,176.3,322,176.8,322,177.4 M322.4,191.4c0,0.4,0,0.6,0.1,0.4c0-0.2,0-0.6,0-0.8C322.4,190.8,322.4,190.9,322.4,191.4
		 M317.7,198c0,0.2-0.2,0.3-0.5,0.4l-0.5,0.1l0.5,0c0.5,0,0.8-0.4,0.6-0.6C317.7,197.8,317.7,197.9,317.7,198 M312.5,199.6l-0.5,0.6
		L312.5,199.6c0.4-0.2,0.6-0.5,0.6-0.5C313.1,199,313,199.1,312.5,199.6 M309,202.4c0,0.6,0,0.8,0.1,0.5c0-0.3,0-0.8,0-1
		S309,201.9,309,202.4 M195.3,210c0,0.7,0,1,0.1,0.7c0-0.4,0-0.9,0-1.3C195.3,209,195.3,209.3,195.3,210 M314.9,213.7
		c0,0.4,0,0.6,0.1,0.4c0-0.2,0-0.6,0-0.8C315,213.1,314.9,213.2,314.9,213.7 M194.1,214.9c0,0.3,0,0.5,0.1,0.3c0-0.2,0-0.4,0-0.6
		S194.1,214.5,194.1,214.9 M317,224.1c0,0.3,0,0.5,0.1,0.3c0-0.2,0-0.4,0-0.6C317,223.6,317,223.8,317,224.1 M316,225
		c-0.1,0.1-0.1,0.6,0,1.1l0.1,0.8l0.1-1.1C316.2,224.8,316.2,224.6,316,225 M277.7,246.9c0.3,0,0.8,0,1,0c0.3,0,0-0.1-0.6-0.1
		C277.6,246.8,277.4,246.8,277.7,246.9 M299.2,247c0.2,0,0.6,0,0.8,0c0.2,0,0-0.1-0.4-0.1C299.1,247,298.9,247,299.2,247
		 M284.3,247.7c0.3,0,0.7,0,0.9,0c0.2,0,0-0.1-0.5-0.1C284.2,247.7,284,247.7,284.3,247.7 M288.1,248.3c0.3,0,0.7,0,1,0
		c0.3,0,0-0.1-0.5-0.1C288.1,248.2,287.8,248.2,288.1,248.3 M278,250.1c0,0,0.3,0.3,0.6,0.6l0.6,0.5l-0.5-0.6
		C278.1,250.1,278,250,278,250.1 M291.6,265.9c0,0.8,0,1.1,0.1,0.7c0-0.4,0-1.1,0-1.5C291.6,264.8,291.6,265.1,291.6,265.9
		 M167.6,269.4l-0.7,0.7L167.6,269.4c0.7-0.6,0.9-0.7,0.7-0.7C168.3,268.7,168,269,167.6,269.4 M291.2,272.2c0,0.4,0,0.6,0.1,0.4
		c0-0.2,0-0.6,0-0.8C291.3,271.6,291.2,271.7,291.2,272.2 M291.9,274c0,0,0.3,0.3,0.6,0.6l0.6,0.5l-0.5-0.6
		C292,274,291.9,273.8,291.9,274 M165,277.4c0,0.3,0,0.5,0.1,0.3s0-0.4,0-0.6C165,276.9,165,277.1,165,277.4 M165.2,280.4
		c0,1.1,0,1.5,0.1,0.9c0-0.6,0-1.4,0-1.9C165.2,278.9,165.2,279.4,165.2,280.4 M302.1,289.8c0,0.8,0,1.1,0.1,0.7c0-0.4,0-1.1,0-1.5
		C302.1,288.6,302.1,288.9,302.1,289.8 M160.1,296.1c0,0.7,0,0.9,0.1,0.6c0-0.4,0-0.9,0-1.2C160.2,295.1,160.1,295.4,160.1,296.1
		 M183.3,310.9l-0.5,0.6L183.3,310.9c0.4-0.2,0.6-0.5,0.6-0.5C183.9,310.2,183.8,310.3,183.3,310.9 M154.9,317.2
		c-0.1,0.1-0.1,0.5,0,0.7c0.1,0.4,0.1,0.4,0.1-0.2C155.1,316.9,155.1,316.7,154.9,317.2 M179.8,318.2c0,0.4,0,0.5,0.1,0.3
		c0-0.2,0-0.5,0-0.7C179.8,317.7,179.8,317.8,179.8,318.2 M300.2,318.4l-0.6,0.7L300.2,318.4c0.7-0.5,0.8-0.7,0.7-0.7
		C300.9,317.8,300.6,318.1,300.2,318.4 M189.4,320.4c0.2,0,0.4,0,0.6,0c0.2,0,0-0.1-0.3-0.1C189.3,320.3,189.2,320.3,189.4,320.4
		 M176,324c0.2,0,0.4,0,0.6,0c0.2,0,0-0.1-0.3-0.1S175.8,324,176,324 M169.1,324.5c0.2,0,0.6,0,0.8,0c0.2,0,0-0.1-0.4-0.1
		C169,324.5,168.9,324.5,169.1,324.5 M175.4,326.1c0.3,0.1,0.5,0.2,0.6,0.4c0.1,0.2,0.1,0.1,0.1-0.1
		C176,326.2,175.8,326.1,175.4,326.1C174.9,326,174.9,326,175.4,326.1 M295.7,330.6c0.2,0.1,0.1,0.2-0.2,0.6l-0.4,0.5l0.5-0.4
		c0.6-0.5,0.6-0.7,0.2-0.7C295.6,330.5,295.5,330.6,295.7,330.6 M291.7,339.3c-0.1,0.2-0.2,0.7-0.1,1.6l0.1,1.4l0-1.4
		c0-0.8,0.1-1.5,0.2-1.6c0.1-0.1,0.2-0.2,0.1-0.2C292,339,291.8,339.2,291.7,339.3 M174.2,340.5c0,0.8,0,1.1,0.1,0.6
		c0-0.4,0-1,0-1.4C174.3,339.4,174.2,339.8,174.2,340.5 M196.8,341.7c0.3,0.3,0.6,0.6,0.7,0.6s-0.2-0.3-0.5-0.6
		c-0.3-0.3-0.6-0.6-0.7-0.6S196.5,341.4,196.8,341.7 M293,342.7c0,0.3,0,0.5,0.1,0.3c0-0.2,0-0.4,0-0.6
		C293,342.2,293,342.4,293,342.7 M198.3,342.8c0.2,0,0.6,0,0.8,0c0.2,0,0-0.1-0.4-0.1C198.3,342.7,198.1,342.8,198.3,342.8
		 M193.9,344.1c0.8,0.8,1.3,1.2,0.8,0.7c-0.1-0.1-0.2-0.3-0.1-0.3c0,0-0.1-0.3-0.3-0.5c-0.2-0.2-0.4-0.3-0.4-0.3
		c0,0.1-0.2,0-0.4-0.2C193.2,343.3,193.5,343.6,193.9,344.1 M199.7,343.6c-0.1,0.1,0,0.2,0.2,0.2s0.3-0.1,0.4-0.2
		c0.1-0.1,0-0.2-0.2-0.2C199.9,343.4,199.7,343.5,199.7,343.6 M291.1,344.5c-0.1,0.1-0.2,0.4-0.2,0.6c0,0.3,0,0.3,0.1,0
		c0-0.2,0.2-0.4,0.3-0.6C291.5,344.2,291.3,344.2,291.1,344.5 M179,345.4c0.5,0,1.3,0,1.8,0c0.5,0,0.1-0.1-0.9-0.1
		C178.9,345.4,178.5,345.4,179,345.4 M175,346.1C174.8,346.4,174.8,346.4,175,346.1c0.2,0,0.6-0.1,1.1-0.2l0.8-0.1l-0.8,0
		C175.5,345.8,175.2,345.9,175,346.1 M294.1,346.7c0.1,0.1,0.2,0.5,0.3,0.7l0.1,0.4l0-0.5c0-0.3-0.1-0.6-0.3-0.7
		C293.9,346.5,293.9,346.5,294.1,346.7 M199.3,354.5c0,0.3,0,0.5,0.1,0.3c0-0.2,0-0.4,0-0.6C199.3,354.1,199.3,354.2,199.3,354.5
		 M199.5,357c0,0.3,0,0.5,0.1,0.3c0-0.2,0-0.4,0-0.6C199.5,356.5,199.5,356.6,199.5,357 M200,360c0,0.5,0,0.7,0.1,0.4
		c0-0.3,0-0.7,0-0.9C200,359.3,200,359.5,200,360 M199.8,364.4c0,0.8,0,1.1,0.1,0.6c0-0.4,0-1,0-1.4
		C199.9,363.3,199.8,363.6,199.8,364.4 M307.8,366.9c-0.1,0.1-0.5,0.2-0.9,0.2l-0.7,0.1l0.7,0C307.4,367.2,307.8,367.2,307.8,366.9
		C308.2,366.7,308.1,366.6,307.8,366.9 M313.3,372c-0.2,0.2-0.4,0.5-0.3,0.7c0.1,0.2,0.1,0.2,0.1,0c0-0.1,0.2-0.4,0.4-0.7
		c0.2-0.2,0.3-0.4,0.3-0.4S313.5,371.8,313.3,372 M312.8,375.3c0,0.5,0,0.9,0.1,0.9c0.1-0.1,0.1-0.5,0.1-1l-0.1-0.9L312.8,375.3
		 M304.5,379.3c0,0.3,0,0.5,0.1,0.3c0-0.2,0-0.4,0-0.6C304.5,378.8,304.5,378.9,304.5,379.3 M311.9,379.1c0,0.2-0.1,0.3-0.3,0.4
		c-0.3,0.1-0.3,0.1,0,0.1c0.3,0,0.6-0.4,0.4-0.6C312,378.9,311.9,379,311.9,379.1 M296.6,382c0.2,0,0.6,0,0.8,0c0.2,0,0-0.1-0.4-0.1
		C296.5,381.9,296.3,382,296.6,382 M198.8,391.4c0,1.1,0,1.6,0.1,1c0-0.6,0-1.5,0-2.1C198.8,389.7,198.8,390.2,198.8,391.4
		 M293.4,392.5l-0.5,0.6L293.4,392.5c0.4-0.2,0.6-0.5,0.6-0.6C293.9,391.9,293.7,392.1,293.4,392.5 M292,395.5
		c-0.1,0.3-0.2,0.5-0.2,0.5s0.2-0.2,0.4-0.5c0.1-0.3,0.2-0.5,0.2-0.5S292.1,395.2,292,395.5 M197.9,398.2c0,0.6,0,0.8,0.1,0.5
		c0-0.3,0-0.8,0-1C197.9,397.3,197.9,397.6,197.9,398.2 M286.6,399.8c0.2,0,0.6,0,0.8,0c0.2,0,0-0.1-0.4-0.1
		C286.6,399.7,286.4,399.7,286.6,399.8 M285.1,401.4c0,0.3,0,0.5,0.1,0.3c0-0.2,0-0.4,0-0.6S285.1,401,285.1,401.4 M197.7,415
		c0,0.4,0,0.6,0.1,0.4c0-0.2,0-0.6,0-0.8C197.8,414.4,197.7,414.5,197.7,415 M198,417.1c0,0.2,0.1,0.5,0.2,0.7
		c0.1,0.2,0.1,0.1,0.1-0.3C198.1,416.7,198,416.5,198,417.1 M198.6,422.4c0,0.4,0,0.5,0.1,0.3c0-0.2,0-0.5,0-0.7
		C198.6,421.8,198.6,422,198.6,422.4 M282.3,422.9l0.1,0.9l0.1-0.8c0-0.4,0-0.8-0.1-0.9C282.3,422,282.3,422.4,282.3,422.9
		 M193.9,440.5c0,0.4,0,0.5,0.1,0.3c0-0.2,0-0.5,0-0.7C193.9,439.9,193.9,440.1,193.9,440.5 M286,443.5c0,0.5,0,0.7,0.1,0.5
		c0-0.3,0-0.7,0-1C286.1,442.8,286,443,286,443.5 M190.9,448.1c0,0.4,0,0.6,0.1,0.4c0-0.2,0-0.6,0-0.8
		C191,447.4,190.9,447.6,190.9,448.1 M282.9,447.5c0.6,0,1.4,0,1.9,0c0.5,0,0-0.1-1-0.1C282.7,447.4,282.3,447.5,282.9,447.5
		 M273,452.1c0,0.4,0,0.5,0.1,0.3c0-0.2,0-0.5,0-0.7C273,451.6,273,451.8,273,452.1 M212.6,451.8c0.2,0,0.6,0,0.8,0
		c0.2,0,0-0.1-0.4-0.1C212.6,451.8,212.4,451.8,212.6,451.8 M205.7,454.3c0,0.3,0,0.5,0.1,0.3c0-0.2,0-0.4,0-0.6
		S205.7,454,205.7,454.3 M236.1,454.4c0.2,0,0.5,0,0.7,0c0.2,0,0-0.1-0.4-0.1C236,454.4,235.9,454.4,236.1,454.4 M220.9,454.6
		c0.4,0,0.9,0,1.3,0c0.4,0,0.1-0.1-0.7-0.1C220.8,454.6,220.5,454.6,220.9,454.6 M229.5,455.7c0.2,0,0.6,0,0.8,0
		c0.2,0,0-0.1-0.4-0.1C229.5,455.6,229.3,455.6,229.5,455.7 M186.2,457.3c0,0.3,0,0.5,0.1,0.3s0-0.4,0-0.6S186.2,457,186.2,457.3
		 M190.6,458.6c0,0.4,0,0.5,0.1,0.3c0-0.2,0-0.5,0-0.7C190.6,458,190.6,458.2,190.6,458.6"/>
	<path id="path4_1_" class="st2" d="M254.7,66.5c0,0.3,0,0.5,0.1,0.3c0-0.2,0-0.4,0-0.6C254.7,66,254.7,66.2,254.7,66.5 M281.5,71.6
		c0,0.3,0,0.5,0.1,0.3c0-0.2,0-0.4,0-0.6C281.5,71.1,281.5,71.2,281.5,71.6 M241.9,75c0.3,0,0.8,0,1,0c0.3,0,0-0.1-0.6-0.1
		C241.8,74.9,241.6,75,241.9,75 M205.4,157.6c0,0.3,0,0.5,0.1,0.3c0-0.2,0-0.4,0-0.6C205.4,157.1,205.4,157.2,205.4,157.6
		 M296.1,385.1c0,0.4,0,0.5,0.1,0.3c0-0.2,0-0.5,0-0.7C296.1,384.5,296.1,384.7,296.1,385.1 M197.2,456.7c0.2,0,0.4,0,0.6,0
		c0.2,0,0-0.1-0.3-0.1C197.2,456.6,197,456.7,197.2,456.7 M255.9,464.2c0.2,0,0.4,0,0.6,0c0.2,0,0-0.1-0.3-0.1
		C255.9,464.1,255.7,464.2,255.9,464.2"/>
</g>
</svg>
