<svg id="svg" version="1.1" xmlns="http://www.w3.org/2000/svg" xmlns:xlink="http://www.w3.org/1999/xlink" width="400" height="351.5625" viewBox="0, 0, 400,351.5625"><g id="svgg"><path id="path0" d="M168.341 115.397 C 168.463 115.594,168.727 115.653,168.927 115.529 C 169.164 115.383,169.204 115.583,169.041 116.095 C 168.870 116.634,168.914 116.810,169.180 116.646 C 169.877 116.215,169.632 115.040,168.845 115.040 C 168.444 115.040,168.219 115.199,168.341 115.397 M174.142 115.873 C 174.142 116.615,175.474 117.854,175.684 117.308 C 175.799 117.008,175.748 116.852,175.570 116.962 C 175.392 117.072,174.998 116.808,174.694 116.374 C 174.391 115.941,174.142 115.716,174.142 115.873 M148.865 117.037 C 148.285 117.662,148.560 118.030,149.298 117.617 C 149.594 117.452,149.725 117.138,149.588 116.920 C 149.413 116.640,149.202 116.674,148.865 117.037 M140.335 118.177 C 141.023 118.935,141.717 119.474,141.878 119.375 C 142.144 119.210,139.754 116.847,139.287 116.813 C 139.175 116.805,139.646 117.419,140.335 118.177 M129.112 118.909 C 128.833 119.082,128.721 119.340,128.864 119.482 C 129.007 119.625,129.308 119.557,129.534 119.332 C 130.065 118.800,129.769 118.503,129.112 118.909 M179.771 119.613 C 179.771 120.000,179.930 120.317,180.123 120.317 C 180.317 120.317,180.475 120.000,180.475 119.613 C 180.475 119.226,180.317 118.909,180.123 118.909 C 179.930 118.909,179.771 119.226,179.771 119.613 M79.600 120.217 C 80.135 120.298,80.927 120.296,81.359 120.212 C 81.792 120.129,81.354 120.063,80.387 120.065 C 79.420 120.068,79.066 120.136,79.600 120.217 M65.678 122.235 C 65.397 122.516,65.069 122.648,64.950 122.528 C 64.830 122.408,64.732 122.495,64.732 122.721 C 64.732 123.339,65.250 123.215,65.963 122.427 C 66.691 121.623,66.452 121.461,65.678 122.235 M167.636 122.430 C 167.987 122.818,168.351 123.059,168.444 122.966 C 168.681 122.729,167.803 121.724,167.361 121.724 C 167.161 121.724,167.285 122.041,167.636 122.430 M188.918 122.427 C 188.918 122.621,189.156 122.779,189.446 122.779 C 189.736 122.779,189.974 122.621,189.974 122.427 C 189.974 122.234,189.736 122.076,189.446 122.076 C 189.156 122.076,188.918 122.234,188.918 122.427 M181.530 122.944 C 181.530 123.259,181.737 123.382,182.058 123.258 C 182.348 123.147,182.586 122.914,182.586 122.742 C 182.586 122.569,182.348 122.427,182.058 122.427 C 181.768 122.427,181.530 122.660,181.530 122.944 M187.511 122.779 C 187.511 122.973,187.748 123.131,188.039 123.131 C 188.329 123.131,188.566 122.973,188.566 122.779 C 188.566 122.586,188.329 122.427,188.039 122.427 C 187.748 122.427,187.511 122.586,187.511 122.779 M63.527 123.528 C 63.154 123.890,63.016 124.186,63.220 124.186 C 63.626 124.186,64.564 123.188,64.342 122.992 C 64.266 122.925,63.899 123.166,63.527 123.528 M69.877 123.296 C 69.997 123.609,70.246 123.814,70.430 123.753 C 70.957 123.577,70.806 122.967,70.205 122.842 C 69.828 122.763,69.727 122.904,69.877 123.296 M173.087 123.131 C 173.087 123.325,173.325 123.483,173.615 123.483 C 173.905 123.483,174.142 123.325,174.142 123.131 C 174.142 122.938,173.905 122.779,173.615 122.779 C 173.325 122.779,173.087 122.938,173.087 123.131 M190.081 124.186 C 189.781 124.983,189.783 125.242,190.092 125.241 C 190.317 125.241,190.535 124.766,190.575 124.186 C 190.668 122.862,190.581 122.863,190.081 124.186 M58.751 126.121 C 58.751 126.412,58.909 126.649,59.103 126.649 C 59.296 126.649,59.455 126.412,59.455 126.121 C 59.455 125.831,59.296 125.594,59.103 125.594 C 58.909 125.594,58.751 125.831,58.751 126.121 M187.042 126.180 C 186.615 126.607,186.799 126.982,187.335 126.776 C 187.625 126.665,187.863 126.432,187.863 126.260 C 187.863 125.891,187.378 125.844,187.042 126.180 M189.114 126.899 C 188.997 127.204,188.985 127.536,189.086 127.638 C 189.187 127.739,189.270 127.637,189.270 127.411 C 189.270 127.186,189.587 127.001,189.974 127.001 C 190.874 127.001,190.899 126.464,190.002 126.396 C 189.631 126.368,189.231 126.595,189.114 126.899 M192.788 126.576 C 192.788 126.942,193.548 127.704,193.914 127.704 C 194.432 127.704,194.202 127.175,193.492 126.731 C 193.105 126.489,192.788 126.419,192.788 126.576 M54.881 127.353 C 53.664 127.609,53.662 127.612,54.705 127.653 C 55.286 127.675,55.998 127.540,56.288 127.353 C 56.874 126.974,56.680 126.974,54.881 127.353 M52.653 127.939 C 52.317 128.275,52.364 128.760,52.733 128.760 C 52.906 128.760,53.138 128.522,53.249 128.232 C 53.455 127.696,53.081 127.512,52.653 127.939 M198.241 128.309 C 198.628 128.404,199.222 128.726,199.560 129.027 C 199.924 129.349,200.176 129.411,200.176 129.179 C 200.176 128.676,199.007 128.044,198.176 128.097 C 197.625 128.132,197.634 128.161,198.241 128.309 M48.207 129.450 C 47.923 129.630,47.781 129.869,47.893 129.980 C 48.170 130.257,49.252 129.816,49.252 129.426 C 49.252 129.025,48.865 129.034,48.207 129.450 M40.116 132.102 C 40.116 133.042,40.664 133.208,41.689 132.578 C 42.826 131.879,42.638 131.676,41.445 132.314 C 40.888 132.612,40.650 132.592,40.418 132.226 C 40.252 131.964,40.116 131.909,40.116 132.102 M90.237 133.685 C 90.118 133.879,90.355 134.037,90.765 134.037 C 91.175 134.037,91.412 133.879,91.293 133.685 C 91.173 133.492,90.936 133.333,90.765 133.333 C 90.595 133.333,90.357 133.492,90.237 133.685 M97.270 133.690 C 97.147 133.891,97.535 134.037,98.191 134.037 C 98.815 134.037,99.216 133.927,99.082 133.793 C 98.676 133.387,97.499 133.320,97.270 133.690 M203.694 133.631 C 203.694 134.097,205.079 135.232,205.336 134.975 C 205.462 134.848,205.278 134.427,204.927 134.039 C 204.263 133.306,203.694 133.117,203.694 133.631 M198.613 135.010 C 198.818 135.152,199.253 135.660,199.581 136.138 C 199.908 136.616,200.176 136.850,200.176 136.656 C 200.176 136.080,199.113 134.740,198.661 134.746 C 198.379 134.750,198.363 134.836,198.613 135.010 M33.773 136.847 C 33.773 137.039,34.169 137.163,34.653 137.122 C 35.136 137.082,35.532 136.926,35.532 136.775 C 35.532 136.623,35.136 136.500,34.653 136.500 C 34.169 136.500,33.773 136.656,33.773 136.847 M81.530 136.880 C 80.869 137.265,80.697 137.907,81.254 137.907 C 81.441 137.907,81.763 137.590,81.970 137.203 C 82.398 136.403,82.376 136.387,81.530 136.880 M204.294 140.341 C 204.645 141.003,205.148 141.616,205.412 141.704 C 205.699 141.800,205.627 141.587,205.233 141.174 C 204.870 140.794,204.367 140.181,204.115 139.811 C 203.863 139.441,203.944 139.679,204.294 140.341 M73.756 141.636 C 72.865 142.859,73.141 142.889,74.401 141.707 C 75.066 141.083,75.260 140.725,74.929 140.732 C 74.641 140.738,74.114 141.145,73.756 141.636 M109.850 142.732 C 110.383 142.813,111.253 142.813,111.785 142.732 C 112.318 142.652,111.882 142.586,110.818 142.586 C 109.754 142.586,109.318 142.652,109.850 142.732 M214.248 143.887 C 214.248 144.081,214.485 144.239,214.776 144.239 C 215.066 144.239,215.303 144.081,215.303 143.887 C 215.303 143.694,215.066 143.536,214.776 143.536 C 214.485 143.536,214.248 143.694,214.248 143.887 M211.082 144.327 C 211.082 144.472,211.478 144.591,211.961 144.591 C 212.445 144.591,212.841 144.472,212.841 144.327 C 212.841 144.182,212.445 144.063,211.961 144.063 C 211.478 144.063,211.082 144.182,211.082 144.327 M226.561 144.239 C 225.734 144.504,225.751 144.523,226.846 144.556 C 227.540 144.577,227.922 144.449,227.792 144.239 C 227.673 144.046,227.545 143.903,227.508 143.922 C 227.471 143.942,227.045 144.084,226.561 144.239 M228.320 144.273 C 228.320 144.942,229.154 146.311,229.450 146.128 C 229.628 146.018,229.501 145.627,229.168 145.260 C 228.588 144.619,228.601 144.591,229.497 144.591 C 230.789 144.591,230.677 144.072,229.375 144.026 C 228.795 144.005,228.320 144.117,228.320 144.273 M252.946 146.567 C 252.946 146.761,253.179 147.226,253.463 147.602 C 253.747 147.978,253.979 148.127,253.979 147.933 C 253.979 147.740,253.747 147.274,253.463 146.898 C 253.179 146.523,252.946 146.374,252.946 146.567 M260.007 148.330 C 260.085 149.297,260.567 149.983,260.779 149.428 C 260.899 149.118,260.768 148.675,260.489 148.444 C 260.210 148.212,259.994 148.161,260.007 148.330 M64.725 148.997 C 64.045 149.816,64.530 149.971,65.258 149.167 C 65.609 148.778,65.733 148.461,65.533 148.461 C 65.333 148.461,64.969 148.702,64.725 148.997 M116.095 150.044 C 116.336 150.334,116.691 150.572,116.885 150.572 C 117.081 150.572,117.043 150.338,116.799 150.044 C 116.558 149.754,116.202 149.516,116.009 149.516 C 115.813 149.516,115.851 149.750,116.095 150.044 M262.445 149.780 C 262.445 150.179,264.172 152.332,264.193 151.959 C 264.199 151.852,263.808 151.227,263.325 150.572 C 262.841 149.916,262.445 149.560,262.445 149.780 M260.381 150.535 C 260.017 150.766,259.993 150.999,260.283 151.497 C 260.641 152.113,260.665 152.106,260.675 151.374 C 260.683 150.793,260.835 150.651,261.271 150.818 C 261.665 150.969,261.774 150.908,261.602 150.631 C 261.302 150.145,261.031 150.123,260.381 150.535 M63.061 151.050 C 62.625 151.266,62.269 151.563,62.269 151.711 C 62.269 152.232,63.224 151.970,63.852 151.275 C 64.545 150.510,64.295 150.439,63.061 151.050 M54.987 151.384 C 54.832 151.638,54.314 152.113,53.836 152.440 C 53.357 152.767,53.138 153.034,53.348 153.034 C 53.559 153.034,54.124 152.725,54.604 152.347 C 55.256 151.835,55.579 151.762,55.877 152.060 C 56.452 152.635,56.826 152.099,56.296 151.460 C 55.750 150.802,55.356 150.779,54.987 151.384 M262.093 152.155 C 262.886 152.998,264.556 153.379,264.556 152.715 C 264.556 152.540,264.231 152.482,263.833 152.586 C 263.368 152.707,262.862 152.507,262.412 152.025 C 262.028 151.613,261.613 151.275,261.490 151.275 C 261.368 151.275,261.639 151.671,262.093 152.155 M130.607 152.573 C 130.945 152.662,131.500 152.662,131.838 152.573 C 132.177 152.485,131.900 152.412,131.223 152.412 C 130.545 152.412,130.268 152.485,130.607 152.573 M166.403 154.605 C 166.403 154.911,166.708 155.145,167.106 155.145 C 167.493 155.145,167.810 155.072,167.810 154.982 C 167.810 154.892,167.493 154.649,167.106 154.442 C 166.545 154.141,166.403 154.174,166.403 154.605 M257.872 154.750 C 257.872 154.920,258.109 155.256,258.399 155.497 C 258.972 155.972,259.044 155.859,258.713 154.998 C 258.487 154.409,257.872 154.228,257.872 154.750 M260.948 154.872 C 260.828 155.186,260.363 155.512,259.916 155.598 C 259.239 155.727,259.221 155.760,259.807 155.795 C 260.750 155.852,261.511 155.334,261.321 154.764 C 261.207 154.423,261.109 154.451,260.948 154.872 M41.554 155.740 C 41.531 156.164,41.354 156.609,41.161 156.728 C 40.967 156.848,40.809 157.130,40.809 157.355 C 40.809 157.580,41.058 157.410,41.361 156.976 C 41.665 156.542,41.842 155.913,41.754 155.578 C 41.633 155.116,41.585 155.155,41.554 155.740 M268.382 156.793 C 268.600 157.216,268.777 157.889,268.777 158.288 C 268.777 158.688,268.936 159.015,269.129 159.015 C 269.755 159.015,269.502 157.600,268.734 156.801 L 267.987 156.025 268.382 156.793 M28.167 157.235 C 27.748 157.499,27.741 157.649,28.122 158.109 C 28.764 158.883,29.302 158.809,28.873 158.006 C 28.679 157.644,28.621 157.248,28.743 157.126 C 29.064 156.805,28.754 156.863,28.167 157.235 M20.214 157.631 C 20.087 157.838,20.067 158.091,20.170 158.194 C 20.422 158.446,21.108 158.002,21.108 157.587 C 21.108 157.137,20.501 157.167,20.214 157.631 M260.728 159.591 C 260.307 160.066,260.326 160.123,260.874 160.017 C 261.222 159.950,261.573 159.697,261.654 159.455 C 261.856 158.847,261.315 158.927,260.728 159.591 M54.529 160.422 C 54.529 160.929,54.750 161.114,55.321 161.085 C 55.917 161.054,55.960 161.004,55.497 160.883 C 54.780 160.696,54.688 160.207,55.321 159.952 C 55.584 159.846,55.513 159.763,55.145 159.746 C 54.755 159.729,54.529 159.976,54.529 160.422 M257.560 161.038 C 258.373 162.207,258.927 162.503,258.927 161.771 C 258.927 161.545,258.832 161.456,258.715 161.572 C 258.598 161.689,258.112 161.359,257.634 160.839 L 256.765 159.894 257.560 161.038 M12.908 160.933 C 12.627 161.214,12.299 161.346,12.179 161.226 C 12.059 161.107,11.961 161.193,11.961 161.419 C 11.961 162.023,12.452 161.921,13.369 161.126 C 13.815 160.739,14.009 160.422,13.799 160.422 C 13.590 160.422,13.189 160.652,12.908 160.933 M87.599 160.950 C 87.599 161.240,87.757 161.478,87.951 161.478 C 88.144 161.478,88.303 161.240,88.303 160.950 C 88.303 160.660,88.144 160.422,87.951 160.422 C 87.757 160.422,87.599 160.660,87.599 160.950 M9.654 161.093 C 9.763 161.268,10.168 161.329,10.554 161.228 C 11.522 160.974,11.435 160.774,10.357 160.774 C 9.862 160.774,9.546 160.917,9.654 161.093 M20.608 161.785 C 20.503 161.955,20.807 162.093,21.284 162.093 C 21.761 162.093,22.065 161.955,21.961 161.785 C 21.856 161.616,21.551 161.478,21.284 161.478 C 21.017 161.478,20.712 161.616,20.608 161.785 M262.797 163.710 C 263.762 164.219,264.047 164.188,263.691 163.612 C 263.563 163.405,263.112 163.239,262.688 163.242 C 261.949 163.247,261.953 163.266,262.797 163.710 M28.300 164.791 C 27.925 165.065,27.711 165.383,27.824 165.497 C 27.938 165.610,28.319 165.386,28.670 164.998 C 29.417 164.172,29.264 164.086,28.300 164.791 M176.605 165.347 C 176.605 165.541,176.843 165.699,177.133 165.699 C 177.423 165.699,177.661 165.541,177.661 165.347 C 177.661 165.154,177.423 164.996,177.133 164.996 C 176.843 164.996,176.605 165.154,176.605 165.347 M271.578 166.024 C 271.979 166.775,272.647 167.019,272.647 166.415 C 272.647 166.229,272.319 165.900,271.917 165.685 C 271.249 165.327,271.220 165.356,271.578 166.024 M271.461 167.531 C 271.702 167.921,272.647 167.881,272.647 167.480 C 272.647 167.299,272.342 167.173,271.968 167.201 C 271.595 167.229,271.366 167.378,271.461 167.531 M112.225 172.032 C 112.225 172.225,112.542 172.383,112.929 172.383 C 113.316 172.383,113.632 172.225,113.632 172.032 C 113.632 171.838,113.316 171.680,112.929 171.680 C 112.542 171.680,112.225 171.838,112.225 172.032 M117.351 172.584 C 116.597 173.339,116.657 173.539,117.502 173.087 C 117.889 172.880,118.206 172.558,118.206 172.371 C 118.206 171.893,117.989 171.947,117.351 172.584 M132.117 172.492 C 131.225 173.035,130.402 173.791,130.703 173.791 C 131.134 173.791,132.982 172.588,132.982 172.308 C 132.982 171.970,132.971 171.973,132.117 172.492 M75.638 172.629 C 75.638 173.100,76.605 174.348,76.810 174.142 C 76.906 174.045,76.681 173.593,76.311 173.136 C 75.941 172.679,75.638 172.451,75.638 172.629 M228.672 173.615 C 229.156 173.891,229.327 174.123,229.053 174.130 C 228.779 174.137,228.650 174.237,228.766 174.354 C 228.882 174.470,229.170 174.446,229.405 174.300 C 229.866 174.016,228.894 173.075,228.165 173.100 C 227.960 173.106,228.188 173.338,228.672 173.615 M279.482 174.326 C 279.855 174.608,280.246 174.753,280.351 174.647 C 280.572 174.427,279.678 173.799,279.156 173.807 C 278.962 173.810,279.109 174.044,279.482 174.326 M75.638 175.022 C 75.389 175.322,75.265 175.646,75.361 175.743 C 75.458 175.839,75.741 175.673,75.989 175.374 C 76.238 175.074,76.362 174.750,76.266 174.653 C 76.169 174.556,75.886 174.722,75.638 175.022 M289.871 175.523 C 290.086 175.925,290.415 176.253,290.602 176.253 C 291.206 176.253,290.962 175.585,290.211 175.184 C 289.543 174.826,289.514 174.855,289.871 175.523 M91.539 175.972 C 90.867 176.644,91.050 177.005,91.821 176.523 C 92.531 176.080,92.761 175.550,92.243 175.550 C 92.088 175.550,91.771 175.740,91.539 175.972 M232.016 177.311 C 232.367 177.699,232.731 177.940,232.824 177.847 C 233.061 177.611,232.183 176.605,231.741 176.605 C 231.541 176.605,231.665 176.923,232.016 177.311 M85.312 178.964 C 84.633 179.332,84.428 179.593,84.737 179.696 C 85.002 179.785,85.318 179.706,85.441 179.520 C 85.564 179.335,85.981 179.004,86.368 178.785 C 87.472 178.158,86.492 178.325,85.312 178.964 M293.052 179.039 C 293.052 179.395,294.421 180.283,294.631 180.064 C 294.692 180.000,294.362 179.663,293.897 179.315 C 293.432 178.968,293.052 178.843,293.052 179.039 M297.146 181.003 C 297.258 181.293,297.477 181.530,297.634 181.530 C 297.791 181.530,298.210 181.634,298.564 181.761 C 298.970 181.907,298.863 181.712,298.273 181.234 C 297.173 180.341,296.868 180.278,297.146 181.003 M303.342 185.281 C 302.729 185.529,302.791 186.689,303.430 186.935 C 303.720 187.046,303.958 186.997,303.958 186.826 C 303.958 186.654,303.760 186.448,303.518 186.366 C 303.175 186.251,303.185 186.089,303.561 185.633 C 304.068 185.019,304.053 184.995,303.342 185.281 M310.290 185.538 C 310.290 185.819,312.802 185.956,312.971 185.684 C 313.067 185.528,312.504 185.400,311.718 185.400 C 310.933 185.400,310.290 185.462,310.290 185.538 M307.300 187.863 C 307.180 188.056,306.736 188.233,306.312 188.255 C 305.596 188.293,305.592 188.309,306.245 188.472 C 306.631 188.569,307.073 188.827,307.227 189.047 C 307.396 189.289,307.465 189.169,307.403 188.742 C 307.332 188.256,307.489 188.054,307.912 188.087 C 308.248 188.113,308.437 187.995,308.331 187.823 C 308.074 187.408,307.569 187.427,307.300 187.863 M322.501 191.732 C 322.400 192.119,322.461 192.524,322.636 192.633 C 322.812 192.741,322.955 192.424,322.955 191.929 C 322.955 190.851,322.755 190.764,322.501 191.732 M208.268 192.714 C 208.719 193.324,208.940 193.960,208.788 194.207 C 208.616 194.486,208.695 194.581,209.010 194.476 C 209.898 194.180,209.714 193.301,208.590 192.470 L 207.483 191.652 208.268 192.714 M325.147 192.502 C 325.322 193.028,326.121 193.317,326.121 192.855 C 326.121 192.666,325.871 192.415,325.564 192.298 C 325.222 192.166,325.061 192.245,325.147 192.502 M326.473 193.007 C 326.473 193.415,326.599 193.478,326.913 193.230 C 327.155 193.039,327.590 192.795,327.880 192.687 C 328.181 192.576,327.992 192.480,327.441 192.464 C 326.771 192.445,326.473 192.612,326.473 193.007 M339.138 193.427 C 339.138 193.562,339.696 193.846,340.379 194.060 C 341.542 194.424,341.581 194.411,341.003 193.863 C 340.378 193.270,339.138 192.980,339.138 193.427 M236.763 194.019 C 236.763 194.310,236.922 194.547,237.115 194.547 C 237.309 194.547,237.467 194.310,237.467 194.019 C 237.467 193.729,237.309 193.492,237.115 193.492 C 236.922 193.492,236.763 193.729,236.763 194.019 M213.193 197.812 C 213.193 198.712,215.522 201.145,215.945 200.688 C 216.076 200.547,215.993 200.363,215.761 200.280 C 214.659 199.886,213.497 198.635,213.659 198.017 C 213.753 197.657,213.687 197.274,213.511 197.165 C 213.336 197.057,213.193 197.348,213.193 197.812 M239.578 197.294 C 239.578 197.794,240.567 198.952,240.797 198.722 C 240.919 198.600,240.781 198.263,240.491 197.973 C 240.201 197.683,240.061 197.347,240.181 197.227 C 240.301 197.108,240.214 197.010,239.988 197.010 C 239.763 197.010,239.578 197.138,239.578 197.294 M216.544 199.834 C 216.549 200.580,216.676 201.314,216.826 201.464 C 216.977 201.615,216.995 201.465,216.867 201.133 C 216.685 200.656,216.830 200.528,217.553 200.528 C 218.057 200.528,218.470 200.352,218.470 200.138 C 218.470 199.924,218.232 199.840,217.942 199.951 C 217.634 200.070,217.414 199.957,217.414 199.680 C 217.414 199.420,217.216 199.043,216.974 198.842 C 216.635 198.561,216.537 198.788,216.544 199.834 M336.750 200.717 C 336.207 201.332,336.704 201.414,337.309 200.809 C 337.637 200.481,337.731 200.481,337.731 200.809 C 337.731 201.041,337.909 201.231,338.126 201.231 C 338.399 201.231,338.385 201.068,338.083 200.704 C 337.545 200.056,337.330 200.058,336.750 200.717 M220.580 202.858 C 220.580 203.325,220.676 203.349,221.108 202.990 C 221.398 202.749,221.636 202.493,221.636 202.420 C 221.636 202.346,221.398 202.287,221.108 202.287 C 220.818 202.287,220.580 202.544,220.580 202.858 M342.304 202.636 C 342.304 202.831,342.481 202.990,342.697 202.990 C 342.913 202.990,343.011 203.292,342.915 203.660 C 342.773 204.203,342.961 204.356,343.904 204.466 C 344.545 204.541,344.992 204.477,344.897 204.324 C 344.803 204.171,344.423 204.046,344.054 204.046 C 343.660 204.046,343.452 203.863,343.551 203.605 C 343.644 203.363,343.401 202.966,343.012 202.723 C 342.594 202.462,342.304 202.426,342.304 202.636 M228.475 206.436 C 228.617 206.686,228.541 207.122,228.307 207.403 C 228.057 207.705,228.029 207.916,228.239 207.916 C 228.804 207.916,229.090 206.782,228.632 206.362 C 228.327 206.082,228.285 206.101,228.475 206.436 M344.767 206.969 C 345.935 207.576,346.878 207.926,346.878 207.754 C 346.878 207.542,344.712 206.508,344.273 206.511 C 344.061 206.512,344.283 206.718,344.767 206.969 M350.044 206.793 C 350.044 206.982,350.295 207.233,350.601 207.350 C 350.944 207.482,351.105 207.403,351.019 207.146 C 350.844 206.620,350.044 206.331,350.044 206.793 M252.243 207.556 C 252.243 207.708,252.559 207.916,252.946 208.018 C 253.333 208.119,253.650 208.076,253.650 207.924 C 253.650 207.771,253.333 207.563,252.946 207.462 C 252.559 207.361,252.243 207.403,252.243 207.556 M274.758 208.619 C 274.331 208.895,274.382 208.961,275.022 208.966 C 275.457 208.969,275.814 208.813,275.814 208.619 C 275.814 208.178,275.440 208.178,274.758 208.619 M365.172 208.755 C 365.172 208.830,365.638 208.960,366.208 209.043 C 366.779 209.127,367.165 209.066,367.067 208.907 C 366.893 208.625,365.172 208.487,365.172 208.755 M281.794 210.065 C 281.355 210.381,281.374 210.410,281.908 210.237 C 282.260 210.122,282.894 210.195,283.315 210.399 C 284.055 210.756,284.058 210.751,283.398 210.222 C 282.593 209.577,282.487 209.567,281.794 210.065 M285.664 214.600 C 286.479 215.306,286.719 215.432,286.719 215.153 C 286.719 214.843,285.600 213.896,285.233 213.896 C 285.024 213.896,285.218 214.213,285.664 214.600 M287.231 216.711 C 287.231 217.896,287.292 218.033,287.557 217.440 C 287.756 216.993,287.756 216.428,287.557 215.981 C 287.292 215.388,287.231 215.525,287.231 216.711 M379.947 219.525 C 380.541 220.106,381.130 220.580,381.256 220.580 C 381.383 220.580,381.031 220.106,380.475 219.525 C 379.919 218.945,379.330 218.470,379.166 218.470 C 379.002 218.470,379.353 218.945,379.947 219.525 M285.752 220.306 C 284.943 220.696,284.679 221.284,285.312 221.284 C 285.506 221.284,285.664 221.150,285.664 220.986 C 285.664 220.822,286.020 220.516,286.456 220.306 C 286.891 220.096,287.089 219.924,286.895 219.924 C 286.702 219.924,286.187 220.096,285.752 220.306 M383.828 221.505 C 383.809 222.204,384.800 222.747,385.819 222.594 C 386.779 222.449,386.775 222.443,385.682 222.392 C 385.023 222.361,384.407 222.084,384.197 221.724 C 384.000 221.385,383.834 221.287,383.828 221.505 M278.288 225.410 C 277.827 225.929,277.839 225.966,278.404 225.749 C 278.753 225.615,279.104 225.506,279.184 225.506 C 279.265 225.506,279.332 225.347,279.332 225.154 C 279.332 224.636,278.875 224.748,278.288 225.410 M381.442 231.729 C 381.781 231.817,382.335 231.817,382.674 231.729 C 383.012 231.640,382.735 231.568,382.058 231.568 C 381.381 231.568,381.104 231.640,381.442 231.729 M387.423 231.729 C 387.762 231.817,388.316 231.817,388.654 231.729 C 388.993 231.640,388.716 231.568,388.039 231.568 C 387.361 231.568,387.084 231.640,387.423 231.729 M372.559 232.542 C 372.559 232.735,372.797 232.894,373.087 232.894 C 373.377 232.894,373.615 232.735,373.615 232.542 C 373.615 232.348,373.377 232.190,373.087 232.190 C 372.797 232.190,372.559 232.348,372.559 232.542 M367.527 234.136 C 366.244 235.264,366.785 235.264,368.162 234.136 C 368.742 233.660,369.059 233.270,368.865 233.269 C 368.672 233.268,368.069 233.658,367.527 234.136 M357.080 234.499 C 357.080 235.128,357.997 235.168,358.235 234.549 C 358.337 234.282,358.133 234.072,357.745 234.043 C 357.378 234.015,357.080 234.219,357.080 234.499 M310.466 235.708 C 310.331 235.926,310.990 236.060,312.204 236.060 C 313.280 236.060,314.160 235.901,314.160 235.708 C 314.160 235.515,313.378 235.356,312.422 235.356 C 311.466 235.356,310.586 235.515,310.466 235.708 M358.839 236.763 C 358.839 237.537,358.962 238.171,359.112 238.171 C 359.262 238.171,359.325 237.537,359.251 236.763 C 359.177 235.989,359.054 235.356,358.978 235.356 C 358.902 235.356,358.839 235.989,358.839 236.763 M363.841 236.771 C 363.429 237.431,363.448 237.451,364.108 237.039 C 364.500 236.794,364.820 236.474,364.820 236.327 C 364.820 235.819,364.284 236.062,363.841 236.771 M279.154 238.525 C 278.251 239.522,278.633 239.603,279.651 238.629 C 280.117 238.184,280.340 237.819,280.145 237.819 C 279.951 237.819,279.505 238.136,279.154 238.525 " stroke="none" fill="#f3f3f3" fill-rule="evenodd"></path><path id="path1" d="M153.034 113.620 C 153.034 113.820,153.311 113.987,153.650 113.990 C 154.176 113.994,154.189 114.045,153.738 114.336 C 153.421 114.541,153.377 114.679,153.629 114.682 C 154.396 114.692,154.471 114.025,153.748 113.638 C 153.267 113.381,153.034 113.375,153.034 113.620 M119.965 115.391 C 119.965 115.585,120.836 115.743,121.900 115.743 C 122.964 115.743,123.835 115.585,123.835 115.391 C 123.835 115.198,122.964 115.040,121.900 115.040 C 120.836 115.040,119.965 115.198,119.965 115.391 M57.168 125.945 C 57.048 126.139,57.277 126.297,57.675 126.297 C 58.073 126.297,58.399 126.139,58.399 125.945 C 58.399 125.752,58.171 125.594,57.892 125.594 C 57.614 125.594,57.288 125.752,57.168 125.945 M44.327 131.164 C 44.327 131.390,43.971 131.593,43.536 131.615 C 42.884 131.649,42.860 131.686,43.397 131.824 C 44.099 132.005,44.964 131.391,44.568 130.994 C 44.435 130.862,44.327 130.938,44.327 131.164 M100.792 133.685 C 100.654 133.907,101.498 134.037,103.078 134.037 C 104.658 134.037,105.502 133.907,105.365 133.685 C 105.245 133.492,104.216 133.333,103.078 133.333 C 101.940 133.333,100.911 133.492,100.792 133.685 M218.646 133.685 C 218.765 133.879,219.091 134.037,219.370 134.037 C 219.649 134.037,219.877 133.879,219.877 133.685 C 219.877 133.492,219.551 133.333,219.153 133.333 C 218.754 133.333,218.526 133.492,218.646 133.685 M109.499 143.075 C 109.837 143.163,110.391 143.163,110.730 143.075 C 111.069 142.986,110.792 142.914,110.114 142.914 C 109.437 142.914,109.160 142.986,109.499 143.075 M257.088 155.705 C 257.284 156.730,257.383 156.762,257.616 155.871 C 257.714 155.497,257.599 155.116,257.360 155.024 C 257.066 154.911,256.978 155.131,257.088 155.705 M112.052 172.731 C 111.928 172.931,112.070 172.990,112.383 172.870 C 112.684 172.754,112.929 172.844,112.929 173.070 C 112.929 173.296,113.104 173.372,113.318 173.240 C 113.590 173.072,113.563 172.908,113.230 172.697 C 112.603 172.300,112.313 172.308,112.052 172.731 M229.376 175.901 C 229.376 176.095,229.613 176.253,229.903 176.253 C 230.193 176.253,230.431 176.095,230.431 175.901 C 230.431 175.708,230.193 175.550,229.903 175.550 C 229.613 175.550,229.376 175.708,229.376 175.901 M210.378 176.253 C 210.378 176.447,211.091 176.605,211.961 176.605 C 212.832 176.605,213.544 176.447,213.544 176.253 C 213.544 176.060,212.832 175.901,211.961 175.901 C 211.091 175.901,210.378 176.060,210.378 176.253 M297.449 182.455 C 297.449 183.463,297.499 183.479,297.958 182.621 C 298.217 182.138,298.196 181.906,297.883 181.786 C 297.615 181.683,297.449 181.938,297.449 182.455 M308.707 185.752 C 308.583 185.952,308.886 186.104,309.411 186.104 C 309.935 186.104,310.238 185.952,310.114 185.752 C 309.995 185.558,309.678 185.400,309.411 185.400 C 309.143 185.400,308.827 185.558,308.707 185.752 M236.763 192.612 C 236.763 192.902,236.922 193.140,237.115 193.140 C 237.309 193.140,237.467 192.902,237.467 192.612 C 237.467 192.322,237.309 192.084,237.115 192.084 C 236.922 192.084,236.763 192.322,236.763 192.612 M211.785 196.265 C 211.785 196.436,212.102 196.659,212.489 196.760 C 212.946 196.879,213.193 196.771,213.193 196.449 C 213.193 196.177,212.876 195.954,212.489 195.954 C 212.102 195.954,211.785 196.094,211.785 196.265 M339.293 200.692 C 338.714 201.131,338.698 201.211,339.188 201.220 C 339.506 201.226,339.858 200.994,339.969 200.704 C 340.220 200.048,340.147 200.047,339.293 200.692 M222.339 203.694 C 222.339 203.887,222.735 204.046,223.219 204.046 C 223.703 204.046,224.099 203.887,224.099 203.694 C 224.099 203.500,223.703 203.342,223.219 203.342 C 222.735 203.342,222.339 203.500,222.339 203.694 M340.419 205.101 C 340.641 205.391,340.899 205.945,340.994 206.332 C 341.159 207.001,341.169 206.998,341.208 206.288 C 341.231 205.876,340.972 205.322,340.633 205.056 C 340.098 204.636,340.070 204.642,340.419 205.101 M303.254 236.060 C 303.254 236.253,303.659 236.412,304.154 236.412 C 304.665 236.412,304.961 236.259,304.837 236.060 C 304.718 235.866,304.313 235.708,303.937 235.708 C 303.561 235.708,303.254 235.866,303.254 236.060 M289.802 238.419 C 290.239 238.504,290.873 238.500,291.209 238.412 C 291.545 238.324,291.187 238.255,290.413 238.259 C 289.639 238.263,289.364 238.335,289.802 238.419 " stroke="none" fill="#dcdcdc" fill-rule="evenodd"></path><path id="path2" d="M139.490 114.688 C 139.140 115.075,138.996 115.397,139.172 115.403 C 139.347 115.410,139.116 115.726,138.659 116.107 C 138.203 116.487,137.980 116.799,138.165 116.799 C 138.705 116.799,139.693 115.538,139.403 115.219 C 139.257 115.059,139.381 115.014,139.678 115.119 C 140.041 115.248,140.219 115.093,140.219 114.648 C 140.219 113.837,140.262 113.835,139.490 114.688 M154.220 114.587 C 154.582 115.015,154.785 115.609,154.671 115.906 C 154.557 116.203,154.617 116.447,154.804 116.447 C 155.444 116.447,155.147 115.150,154.354 114.478 L 153.562 113.808 154.220 114.587 M151.451 116.447 C 151.324 116.653,151.689 116.799,152.331 116.799 C 152.972 116.799,153.337 116.653,153.210 116.447 C 153.091 116.253,152.695 116.095,152.331 116.095 C 151.967 116.095,151.571 116.253,151.451 116.447 M175.614 117.326 C 175.393 117.810,175.328 118.205,175.469 118.203 C 175.610 118.202,175.909 117.806,176.132 117.324 C 176.356 116.841,176.421 116.447,176.277 116.447 C 176.132 116.447,175.834 116.843,175.614 117.326 M243.799 140.295 C 243.799 140.443,244.116 140.836,244.503 141.167 C 244.890 141.499,245.207 141.648,245.207 141.500 C 245.207 141.351,244.890 140.958,244.503 140.627 C 244.116 140.296,243.799 140.146,243.799 140.295 M251.451 143.829 C 252.172 144.584,252.345 144.564,252.037 143.762 C 251.915 143.444,251.595 143.184,251.326 143.184 C 250.952 143.184,250.982 143.338,251.451 143.829 M225.506 144.190 C 225.506 144.357,225.901 144.418,226.385 144.325 C 226.869 144.233,227.265 144.097,227.265 144.022 C 227.265 143.948,226.869 143.887,226.385 143.887 C 225.901 143.887,225.506 144.024,225.506 144.190 M71.416 145.344 C 71.416 145.564,71.139 145.969,70.800 146.243 C 70.245 146.692,70.262 146.703,70.976 146.357 C 71.650 146.031,72.123 144.943,71.592 144.943 C 71.495 144.943,71.416 145.123,71.416 145.344 M260.050 155.092 C 259.159 155.343,258.955 155.935,259.692 156.131 C 260.001 156.212,259.980 156.128,259.631 155.881 C 259.192 155.571,259.233 155.507,259.874 155.502 C 260.298 155.499,260.742 155.339,260.862 155.145 C 260.982 154.952,261.030 154.809,260.971 154.828 C 260.911 154.848,260.496 154.966,260.050 155.092 M169.100 158.876 C 169.207 159.243,169.871 160.009,170.575 160.579 L 171.856 161.616 170.625 160.227 C 169.949 159.464,169.285 158.698,169.150 158.525 C 169.015 158.352,168.993 158.510,169.100 158.876 M117.374 171.854 C 117.485 172.143,117.718 172.292,117.891 172.185 C 118.388 171.878,118.258 171.328,117.689 171.328 C 117.375 171.328,117.252 171.534,117.374 171.854 M199.156 173.240 C 199.259 173.343,199.948 173.504,200.688 173.599 C 201.427 173.693,201.936 173.675,201.819 173.558 C 201.702 173.440,201.013 173.279,200.288 173.199 C 199.563 173.119,199.054 173.138,199.156 173.240 M297.625 181.648 C 297.625 181.739,298.136 181.991,298.761 182.209 C 299.385 182.427,299.741 182.460,299.552 182.283 C 299.152 181.908,297.625 181.405,297.625 181.648 M310.248 185.850 C 310.417 186.020,311.011 186.102,311.567 186.033 C 312.497 185.917,312.472 185.892,311.258 185.724 C 310.502 185.619,310.071 185.673,310.248 185.850 M341.700 205.013 C 341.654 205.848,341.688 205.884,341.951 205.277 C 342.347 204.361,342.367 204.046,342.029 204.046 C 341.878 204.046,341.730 204.481,341.700 205.013 M238.171 206.492 C 238.461 206.689,239.002 206.852,239.373 206.855 C 240.273 206.862,239.992 206.661,238.698 206.371 C 237.928 206.199,237.785 206.231,238.171 206.492 M350.287 208.341 C 351.002 209.132,351.067 209.128,351.005 208.295 C 350.974 207.883,350.712 207.637,350.335 207.665 C 349.764 207.708,349.760 207.759,350.287 208.341 M254.705 208.267 C 254.705 208.680,254.976 208.680,255.937 208.267 C 256.560 207.999,256.530 207.962,255.673 207.940 C 255.141 207.927,254.705 208.074,254.705 208.267 M382.762 221.193 C 383.052 221.306,383.496 221.650,383.749 221.957 C 384.138 222.431,384.149 222.395,383.824 221.724 C 383.613 221.288,383.169 220.945,382.837 220.960 C 382.348 220.983,382.334 221.027,382.762 221.193 M274.670 227.754 C 274.332 228.011,274.055 228.318,274.055 228.436 C 274.055 228.832,275.054 228.271,275.248 227.765 C 275.479 227.161,275.452 227.161,274.670 227.754 " stroke="none" fill="#e4e4e4" fill-rule="evenodd"></path><path id="path3" d="M150.577 111.609 C 150.587 112.448,151.100 112.802,151.979 112.576 L 152.858 112.349 152.067 112.088 C 151.631 111.944,151.275 111.678,151.275 111.498 C 151.275 111.317,151.117 111.170,150.923 111.170 C 150.730 111.170,150.574 111.368,150.577 111.609 M153.386 113.281 C 153.386 113.474,153.531 113.632,153.709 113.632 C 153.887 113.632,154.322 113.724,154.677 113.837 C 155.266 114.024,155.263 113.994,154.638 113.485 C 153.856 112.848,153.386 112.771,153.386 113.281 M141.425 114.080 C 141.425 114.244,141.266 114.280,141.073 114.160 C 140.880 114.040,140.721 114.109,140.721 114.313 C 140.721 114.777,142.001 114.604,142.537 114.068 C 142.836 113.770,142.745 113.683,142.181 113.725 C 141.765 113.756,141.425 113.916,141.425 114.080 M163.237 113.972 C 163.237 114.439,164.734 115.040,165.898 115.040 C 166.423 115.040,166.755 114.836,166.755 114.514 C 166.755 114.131,166.391 114.003,165.404 114.042 C 164.660 114.071,163.869 113.982,163.645 113.843 C 163.420 113.704,163.237 113.762,163.237 113.972 M103.430 114.541 C 102.946 114.810,102.076 115.037,101.495 115.047 C 100.915 115.057,100.044 115.291,99.560 115.567 C 99.077 115.844,98.393 116.076,98.041 116.083 C 97.688 116.089,96.739 116.541,95.930 117.087 C 91.975 119.753,89.461 120.289,80.877 120.293 C 79.841 120.294,79.436 120.520,78.669 121.525 C 77.669 122.837,75.743 122.774,76.253 121.446 C 76.386 121.100,76.318 120.993,76.064 121.150 C 75.845 121.285,75.338 121.193,74.938 120.944 C 74.369 120.591,74.151 120.586,73.942 120.921 C 73.795 121.156,73.127 121.394,72.458 121.449 C 71.045 121.564,70.667 121.948,70.931 123.002 C 71.036 123.418,70.926 123.879,70.688 124.026 C 70.118 124.378,69.329 123.291,69.548 122.455 C 69.678 121.956,69.474 121.777,68.631 121.653 C 68.034 121.566,67.546 121.600,67.546 121.729 C 67.546 121.858,66.753 122.395,65.784 122.923 C 64.765 123.478,63.790 124.330,63.472 124.946 C 62.923 126.006,61.264 126.172,60.916 125.201 C 60.743 124.720,59.807 125.560,59.807 126.195 C 59.807 126.594,59.507 126.663,58.487 126.500 C 57.060 126.273,56.464 126.524,56.464 127.353 C 56.464 127.716,56.026 127.914,55.057 127.988 C 54.132 128.059,53.430 128.360,53.008 128.868 C 52.565 129.400,52.311 129.503,52.187 129.200 C 51.966 128.656,50.660 128.613,50.660 129.149 C 50.660 129.364,50.422 129.448,50.132 129.336 C 49.842 129.225,49.604 129.270,49.604 129.436 C 49.604 129.811,47.018 130.871,46.104 130.871 C 45.735 130.871,45.195 131.108,44.905 131.398 C 44.615 131.689,44.168 131.927,43.913 131.928 C 43.657 131.930,42.973 132.245,42.392 132.630 C 41.134 133.463,40.159 133.531,39.881 132.806 C 39.770 132.515,39.433 132.278,39.134 132.278 C 38.654 132.278,38.658 132.354,39.167 132.916 C 39.817 133.634,39.382 134.389,38.317 134.389 C 37.991 134.389,37.637 134.726,37.529 135.138 C 37.404 135.618,37.146 135.816,36.814 135.688 C 36.528 135.578,36.203 135.726,36.091 136.016 C 35.980 136.307,35.744 136.455,35.567 136.345 C 35.391 136.236,35.322 136.438,35.415 136.794 C 35.544 137.287,35.394 137.433,34.784 137.410 C 34.321 137.392,33.827 137.675,33.611 138.083 C 32.516 140.142,31.882 140.778,31.075 140.624 C 30.624 140.537,30.235 140.603,30.211 140.770 C 30.187 140.937,30.147 141.195,30.123 141.345 C 30.099 141.495,29.725 141.998,29.292 142.463 C 28.858 142.927,28.412 143.597,28.300 143.949 C 28.188 144.302,27.953 144.591,27.778 144.591 C 27.602 144.591,27.188 145.106,26.858 145.734 C 26.286 146.823,26.123 147.390,25.926 148.989 C 25.878 149.376,25.641 150.045,25.400 150.476 C 24.721 151.690,26.361 154.090,27.870 154.090 C 28.383 154.090,28.490 154.257,28.320 154.793 C 28.197 155.180,28.246 155.497,28.428 155.497 C 28.611 155.497,28.855 155.972,28.971 156.552 C 29.164 157.519,29.903 158.077,29.903 157.256 C 29.903 157.062,30.062 156.904,30.255 156.904 C 31.084 156.904,30.539 158.183,29.551 158.555 C 28.947 158.784,28.496 158.813,28.496 158.625 C 28.496 157.854,26.766 157.486,25.346 157.954 C 24.146 158.350,23.838 158.337,23.103 157.855 C 22.293 157.324,22.161 157.356,20.393 158.495 C 19.371 159.153,18.402 159.609,18.238 159.508 C 18.075 159.408,17.942 159.480,17.942 159.670 C 17.942 159.974,16.263 160.558,15.303 160.587 C 15.110 160.593,14.872 160.677,14.776 160.774 C 13.898 161.651,10.906 162.468,10.906 161.829 C 10.906 161.636,10.683 161.478,10.411 161.478 C 10.097 161.478,9.981 161.723,10.092 162.151 C 10.207 162.589,10.020 162.957,9.557 163.205 C 8.839 163.589,7.740 163.396,7.740 162.885 C 7.740 162.733,7.494 162.514,7.194 162.399 C 6.881 162.279,6.739 162.338,6.863 162.537 C 6.981 162.728,6.910 162.885,6.705 162.885 C 5.812 162.885,6.350 164.593,7.388 165.052 C 7.968 165.309,8.443 165.615,8.443 165.733 C 8.443 166.393,12.095 165.245,14.084 163.960 C 15.316 163.164,16.520 162.587,16.759 162.679 C 16.997 162.770,17.252 162.669,17.323 162.455 C 17.395 162.240,18.023 162.051,18.718 162.035 C 19.414 162.018,19.910 161.887,19.821 161.741 C 19.541 161.284,22.765 161.456,23.114 161.917 C 23.701 162.694,23.556 163.993,22.689 165.704 C 21.768 167.521,21.832 167.810,23.156 167.810 C 24.042 167.810,25.478 166.883,27.873 164.764 C 29.253 163.544,31.303 162.533,32.399 162.533 C 32.758 162.533,33.759 162.189,34.625 161.768 C 36.185 161.010,36.214 161.009,37.655 161.659 C 39.387 162.440,40.272 162.090,40.298 160.615 C 40.308 160.033,40.639 159.409,41.135 159.035 L 41.954 158.417 41.206 158.221 C 40.432 158.019,40.191 157.110,40.809 156.728 C 41.003 156.609,41.161 156.137,41.161 155.679 C 41.161 153.804,42.833 152.573,45.064 152.806 C 46.649 152.972,47.115 152.907,47.272 152.498 C 47.533 151.819,48.549 151.826,48.549 152.507 C 48.549 153.122,49.103 153.208,49.450 152.647 C 49.586 152.427,50.126 152.347,50.702 152.462 C 51.264 152.575,51.715 152.512,51.715 152.322 C 51.715 152.133,51.890 151.979,52.104 151.979 C 52.319 151.979,52.403 152.216,52.291 152.507 C 51.919 153.477,52.553 153.097,54.784 151.011 C 56.133 149.750,56.466 149.601,56.161 150.396 C 56.050 150.686,56.121 150.923,56.320 150.923 C 56.519 150.923,56.584 151.082,56.464 151.275 C 56.345 151.469,56.375 151.634,56.532 151.642 C 56.688 151.651,57.508 151.791,58.352 151.954 C 60.003 152.273,62.429 151.819,62.081 151.256 C 61.968 151.073,62.196 150.923,62.588 150.923 C 62.979 150.923,63.481 150.567,63.703 150.132 C 64.778 148.024,68.224 145.455,68.777 146.349 C 69.206 147.043,71.077 145.614,72.127 143.789 C 72.708 142.779,73.380 141.711,73.619 141.417 C 74.308 140.569,77.690 138.532,78.044 138.752 C 78.221 138.861,78.900 138.564,79.552 138.091 C 80.205 137.618,81.304 136.920,81.995 136.539 C 82.921 136.028,83.363 135.471,83.678 134.420 C 84.199 132.683,85.147 132.058,86.280 132.705 C 86.850 133.031,89.817 133.207,96.893 133.333 C 104.336 133.467,106.750 133.616,106.861 133.951 C 106.942 134.194,107.140 134.312,107.300 134.213 C 107.461 134.113,108.021 134.195,108.544 134.394 C 109.221 134.651,109.635 134.640,109.977 134.357 C 110.241 134.138,110.855 134.058,111.341 134.180 C 111.901 134.321,112.225 134.254,112.225 133.998 C 112.225 133.715,112.881 133.657,114.424 133.805 C 115.848 133.942,116.375 133.905,115.919 133.699 C 114.500 133.061,116.042 133.357,118.515 134.198 C 120.720 134.948,123.766 136.817,124.129 137.642 C 124.193 137.790,124.389 137.823,124.564 137.715 C 124.747 137.602,124.789 138.234,124.663 139.208 C 124.432 140.987,123.638 142.263,122.931 141.992 C 122.699 141.903,121.834 142.063,121.008 142.348 C 120.181 142.633,119.302 142.788,119.054 142.693 C 118.806 142.598,118.544 142.698,118.471 142.915 C 118.388 143.164,118.087 143.204,117.657 143.024 C 116.669 142.608,115.256 142.600,114.962 143.008 C 114.798 143.237,114.459 143.205,113.995 142.917 C 113.523 142.624,113.281 142.603,113.281 142.854 C 113.281 143.106,112.217 143.196,110.117 143.121 C 107.747 143.036,106.910 143.124,106.778 143.470 C 106.681 143.724,106.442 143.833,106.247 143.713 C 106.052 143.593,105.893 143.724,105.893 144.005 C 105.893 144.564,106.620 144.943,107.692 144.943 C 108.069 144.943,108.464 145.168,108.569 145.442 C 108.779 145.990,111.315 147.324,114.336 148.478 C 115.709 149.002,116.713 149.720,117.793 150.949 C 119.345 152.715,120.260 153.071,120.991 152.190 C 121.271 151.853,121.838 151.757,122.793 151.885 C 123.769 152.016,124.186 151.941,124.186 151.634 C 124.186 151.149,126.570 151.435,127.141 151.988 C 127.322 152.163,127.859 152.087,128.393 151.811 C 128.995 151.500,129.510 151.441,129.836 151.647 C 130.115 151.824,130.822 151.971,131.408 151.974 C 132.706 151.980,134.154 152.926,133.896 153.599 C 133.792 153.869,133.861 154.090,134.048 154.090 C 134.235 154.090,134.389 154.317,134.389 154.594 C 134.389 155.218,135.557 155.620,136.500 155.321 C 136.958 155.175,137.207 155.259,137.214 155.561 C 137.220 155.816,137.404 155.708,137.624 155.321 C 137.843 154.934,138.168 154.521,138.347 154.402 C 138.525 154.284,138.645 154.050,138.614 153.883 C 138.509 153.319,139.228 153.351,139.813 153.935 C 140.132 154.254,140.312 154.776,140.213 155.094 C 140.115 155.412,140.199 155.910,140.401 156.201 C 140.663 156.577,140.728 155.645,140.627 152.961 C 140.478 148.963,140.614 148.307,141.520 148.654 C 142.518 149.037,143.142 150.433,143.224 152.464 C 143.268 153.552,143.445 154.442,143.617 154.442 C 143.788 154.442,143.846 154.576,143.744 154.740 C 142.989 155.962,150.196 157.641,153.914 157.108 C 155.905 156.823,156.216 156.820,161.929 157.018 C 164.209 157.097,166.173 157.261,166.294 157.382 C 166.415 157.503,166.726 157.425,166.986 157.210 C 167.333 156.922,167.458 156.922,167.458 157.213 C 167.458 157.430,167.694 157.608,167.982 157.608 C 168.270 157.608,169.719 158.877,171.201 160.429 C 172.693 161.990,174.305 163.346,174.811 163.465 C 175.314 163.584,176.042 163.960,176.429 164.302 C 176.816 164.643,178.053 165.125,179.178 165.372 C 181.173 165.810,182.649 167.205,182.084 168.119 C 181.858 168.485,183.559 169.417,183.875 169.101 C 184.004 168.971,183.916 168.865,183.679 168.865 C 183.442 168.865,183.329 168.734,183.429 168.572 C 183.529 168.411,184.090 168.350,184.677 168.436 C 185.265 168.522,185.658 168.733,185.552 168.905 C 185.446 169.077,185.592 169.217,185.878 169.217 C 186.163 169.217,186.453 169.050,186.521 168.845 C 186.770 168.097,187.863 168.942,187.863 169.884 C 187.863 170.982,189.808 171.465,190.193 170.461 C 190.420 169.870,192.638 169.982,193.272 170.616 C 193.470 170.814,194.397 170.976,195.332 170.976 C 196.537 170.976,197.092 171.134,197.239 171.517 C 197.502 172.202,199.794 173.177,200.628 172.959 C 200.992 172.864,201.661 173.167,202.210 173.676 C 203.002 174.410,203.385 174.521,204.503 174.342 C 205.481 174.186,206.294 174.333,207.496 174.885 C 208.994 175.572,214.600 176.377,214.600 175.905 C 214.600 175.159,217.530 174.479,220.816 174.461 C 222.764 174.450,223.386 174.323,223.548 173.900 C 223.699 173.506,224.044 173.410,224.783 173.558 C 225.347 173.671,225.859 173.619,225.921 173.442 C 226.193 172.666,228.924 172.636,229.689 173.400 C 230.728 174.439,230.616 174.845,229.288 174.851 C 228.420 174.856,228.272 174.939,228.672 175.198 C 228.962 175.385,229.565 175.541,230.012 175.544 C 230.459 175.547,230.728 175.706,230.609 175.897 C 230.485 176.099,230.631 176.154,230.958 176.029 C 232.037 175.615,234.301 178.447,234.301 180.211 C 234.301 180.666,234.470 181.207,234.677 181.414 C 234.884 181.621,235.097 182.009,235.152 182.276 C 235.206 182.543,235.368 183.033,235.512 183.366 C 235.656 183.698,235.709 184.165,235.630 184.404 C 235.451 184.938,236.403 186.104,237.017 186.104 C 237.265 186.104,237.467 186.341,237.467 186.631 C 237.467 186.922,237.209 187.159,236.893 187.159 C 236.418 187.159,236.365 187.386,236.582 188.478 C 236.727 189.204,236.866 190.154,236.892 190.589 C 236.918 191.025,237.058 191.381,237.203 191.381 C 237.348 191.381,237.467 192.278,237.467 193.374 C 237.467 194.471,237.568 195.267,237.692 195.143 C 238.002 194.833,239.973 196.543,240.720 197.771 C 241.217 198.588,241.503 198.740,242.208 198.564 C 242.854 198.401,243.465 198.628,244.565 199.436 C 245.381 200.036,245.931 200.528,245.786 200.528 C 245.641 200.528,245.947 201.084,246.466 201.764 C 246.984 202.444,247.652 202.958,247.950 202.907 C 248.248 202.856,249.041 203.527,249.712 204.398 C 250.383 205.268,251.130 205.938,251.372 205.886 C 251.613 205.835,251.898 206.021,252.006 206.300 C 252.556 207.734,257.279 208.643,258.210 207.493 C 259.037 206.471,262.797 206.839,262.797 207.943 C 262.797 208.104,264.072 208.209,265.632 208.176 C 267.712 208.132,268.546 208.245,268.766 208.600 C 269.015 209.003,269.165 208.986,269.650 208.500 C 270.373 207.778,271.117 207.764,272.431 208.449 C 273.064 208.779,273.593 208.857,273.838 208.657 C 274.054 208.481,274.626 208.281,275.110 208.214 C 275.594 208.146,276.085 207.961,276.203 207.801 C 276.931 206.808,279.346 207.129,280.521 208.375 C 281.327 209.229,281.922 209.575,282.380 209.456 C 283.899 209.058,284.427 210.544,283.132 211.575 L 281.970 212.499 282.843 213.173 C 283.406 213.607,284.041 213.781,284.631 213.663 C 286.612 213.267,288.788 216.406,287.610 217.963 C 287.326 218.338,287.089 219.065,287.082 219.578 C 287.075 220.239,286.738 220.725,285.928 221.244 C 285.299 221.646,284.909 221.979,285.061 221.982 C 285.213 221.985,285.169 222.301,284.965 222.683 C 284.690 223.197,284.310 223.346,283.518 223.254 C 282.662 223.155,282.366 223.299,282.062 223.966 C 281.711 224.736,281.287 224.940,280.123 224.897 C 279.881 224.888,279.683 225.014,279.683 225.176 C 279.683 225.339,279.090 225.747,278.364 226.082 C 276.902 226.758,275.438 227.831,273.272 229.815 C 271.764 231.196,271.088 231.431,270.738 230.695 C 270.623 230.453,270.596 230.615,270.678 231.055 C 270.788 231.647,270.537 232.058,269.714 232.638 C 269.102 233.069,268.549 233.658,268.485 233.948 C 268.420 234.238,267.787 235.160,267.077 235.996 C 264.773 238.714,264.624 239.086,265.515 239.915 C 266.350 240.693,267.370 240.872,267.370 240.240 C 267.370 240.021,267.680 239.929,268.074 240.032 C 268.461 240.133,268.777 240.082,268.777 239.918 C 268.777 239.754,269.807 239.651,271.064 239.687 C 272.322 239.724,273.351 239.634,273.351 239.487 C 273.351 239.341,274.499 239.304,275.901 239.406 C 277.644 239.532,278.229 239.484,277.748 239.257 C 277.056 238.929,277.056 238.923,277.782 238.899 C 278.187 238.885,278.794 238.570,279.130 238.199 C 279.510 237.779,280.051 237.580,280.564 237.673 C 281.017 237.755,281.775 237.675,282.249 237.495 C 282.839 237.271,283.242 237.297,283.523 237.578 C 283.832 237.887,283.996 237.888,284.184 237.584 C 284.438 237.173,286.368 237.349,286.368 237.783 C 286.368 238.657,293.570 237.983,294.772 236.997 C 295.314 236.552,296.373 236.407,299.648 236.331 C 300.858 236.303,301.847 236.151,301.847 235.994 C 301.847 235.837,303.123 235.708,304.682 235.708 C 306.483 235.708,307.438 235.836,307.300 236.060 C 307.180 236.253,307.395 236.412,307.778 236.412 C 308.160 236.412,308.529 236.242,308.598 236.035 C 308.667 235.828,310.348 235.518,312.332 235.346 C 314.317 235.173,316.069 234.954,316.224 234.858 C 316.667 234.584,318.836 234.187,319.613 234.237 C 321.921 234.388,326.473 235.370,326.473 235.717 C 326.473 235.865,327.067 235.826,327.792 235.630 C 329.351 235.209,330.280 235.166,334.037 235.338 C 336.783 235.464,336.808 235.473,335.092 235.721 C 333.346 235.974,333.350 235.976,335.634 235.941 C 337.422 235.914,338.167 236.068,338.976 236.630 C 340.650 237.792,341.362 238.010,344.679 238.383 C 345.842 238.514,346.526 238.457,346.526 238.229 C 346.526 237.988,346.906 237.978,347.669 238.200 C 348.298 238.382,349.446 238.441,350.220 238.330 C 351.598 238.133,353.478 237.891,354.002 237.843 C 354.147 237.830,354.266 237.513,354.266 237.139 C 354.266 236.454,355.944 235.004,356.738 235.004 C 357.061 235.004,357.068 234.886,356.765 234.521 C 356.326 233.992,356.615 232.782,357.108 233.086 C 357.276 233.190,357.690 232.952,358.028 232.557 C 359.329 231.038,360.382 232.531,359.131 234.121 C 358.546 234.864,358.524 235.004,358.989 235.004 C 359.385 235.004,359.543 235.349,359.543 236.215 C 359.543 237.492,360.040 238.160,360.364 237.316 C 360.480 237.014,360.837 236.892,361.275 237.006 C 362.450 237.313,363.767 236.802,364.107 235.907 C 364.307 235.382,364.821 234.983,365.484 234.837 C 366.066 234.709,367.138 234.131,367.867 233.552 C 368.629 232.946,369.459 232.569,369.820 232.663 C 370.166 232.754,370.449 232.674,370.449 232.486 C 370.449 232.279,372.102 232.188,374.671 232.256 C 376.993 232.316,378.938 232.230,378.993 232.064 C 379.196 231.450,385.397 230.882,387.409 231.293 C 388.879 231.593,390.438 230.713,390.233 229.699 C 390.162 229.348,390.842 228.664,392.070 227.848 C 393.843 226.671,394.746 225.154,393.674 225.154 C 393.484 225.154,393.230 224.759,393.109 224.277 C 392.988 223.794,392.761 223.479,392.604 223.576 C 392.448 223.672,391.816 223.327,391.199 222.809 C 390.082 221.868,390.076 221.867,388.902 222.499 C 388.255 222.848,387.488 223.042,387.199 222.931 C 386.909 222.820,386.185 222.869,385.590 223.039 C 384.650 223.309,384.433 223.236,383.943 222.489 C 383.633 222.015,383.003 221.533,382.543 221.418 C 382.083 221.302,381.706 221.057,381.706 220.873 C 381.706 220.689,381.541 220.641,381.339 220.766 C 380.824 221.084,380.065 220.382,378.286 217.942 C 377.440 216.781,376.384 215.594,375.941 215.303 C 372.852 213.283,372.269 212.783,371.868 211.816 C 371.491 210.906,371.226 210.730,370.230 210.730 C 369.576 210.730,369.041 210.577,369.041 210.389 C 369.041 210.202,368.811 210.137,368.530 210.245 C 368.249 210.353,367.659 210.189,367.220 209.882 C 366.781 209.574,366.069 209.323,365.638 209.323 C 365.207 209.323,364.706 209.058,364.525 208.734 C 364.279 208.293,363.763 208.160,362.485 208.206 C 356.494 208.422,356.386 208.415,355.928 207.789 C 355.565 207.291,355.045 207.195,353.201 207.281 L 350.923 207.388 352.067 208.013 C 352.696 208.356,353.210 208.776,353.210 208.945 C 353.210 209.480,350.763 209.288,350.450 208.728 C 350.289 208.440,350.017 208.230,349.845 208.262 C 349.674 208.294,349.477 208.150,349.408 207.942 C 349.338 207.734,349.481 207.564,349.724 207.564 C 349.999 207.564,349.917 207.327,349.509 206.939 C 348.438 205.922,346.463 206.309,346.756 207.478 C 346.930 208.172,346.874 208.307,346.506 208.079 C 346.246 207.918,345.417 207.823,344.665 207.867 C 343.787 207.919,343.380 207.816,343.526 207.580 C 343.651 207.378,343.585 207.212,343.380 207.212 C 343.176 207.212,343.008 207.449,343.008 207.740 C 343.008 208.518,342.268 208.381,342.054 207.564 C 341.953 207.177,341.651 206.860,341.384 206.860 C 341.116 206.860,340.895 206.662,340.892 206.420 C 340.874 205.003,340.246 205.072,338.724 206.660 L 337.163 208.289 335.952 207.464 C 334.725 206.629,334.680 206.466,335.005 204.056 L 335.170 202.835 337.242 202.814 C 338.382 202.802,339.489 202.683,339.703 202.550 C 339.916 202.417,340.458 202.699,340.907 203.177 C 341.356 203.655,342.012 204.046,342.366 204.046 C 343.158 204.046,343.209 203.495,342.444 203.201 C 342.111 203.073,341.965 202.761,342.088 202.441 C 342.202 202.143,342.163 201.981,342.000 202.081 C 341.838 202.182,341.404 202.037,341.037 201.759 C 340.210 201.133,338.025 201.080,337.426 201.671 C 336.999 202.091,335.972 201.263,335.972 200.499 C 335.972 200.028,337.797 199.793,338.288 200.200 C 339.081 200.859,339.707 200.353,340.828 198.147 L 341.884 196.068 341.007 194.948 C 340.352 194.112,339.892 193.851,339.194 193.923 C 338.501 193.994,338.270 193.866,338.303 193.428 C 338.361 192.670,336.633 191.942,335.359 192.189 C 334.746 192.308,334.162 192.174,333.773 191.825 C 333.359 191.453,333.157 191.412,333.157 191.699 C 333.157 191.934,333.016 192.038,332.842 191.931 C 332.669 191.824,332.437 191.973,332.326 192.262 C 332.103 192.844,330.695 192.994,330.695 192.436 C 330.695 191.902,329.782 192.016,329.288 192.612 C 329.047 192.902,328.483 193.140,328.034 193.140 C 327.585 193.140,327.120 193.298,327.001 193.492 C 326.639 194.077,325.614 193.887,325.153 193.148 C 324.789 192.566,324.565 192.511,323.779 192.809 C 322.652 193.238,322.145 192.850,322.310 191.685 C 322.440 190.770,321.581 189.887,320.141 189.454 C 318.456 188.947,315.919 187.774,315.919 187.502 C 315.919 187.351,315.444 187.062,314.864 186.860 C 314.283 186.658,313.808 186.358,313.808 186.193 C 313.808 185.899,309.811 185.978,308.267 186.303 C 307.060 186.556,307.320 187.084,308.883 187.553 C 310.624 188.074,310.651 188.406,309.008 189.093 C 307.843 189.580,307.603 189.574,306.370 189.030 C 305.003 188.426,304.452 187.637,305.667 188.023 C 307.500 188.605,307.284 186.415,305.440 185.713 C 304.240 185.257,303.349 185.797,304.086 186.533 C 304.384 186.831,304.543 187.161,304.439 187.264 C 304.149 187.554,302.175 186.779,302.376 186.454 C 302.472 186.298,302.257 186.247,301.896 186.341 C 301.487 186.448,301.153 186.284,301.008 185.906 C 300.712 185.135,301.032 184.796,301.558 185.322 C 301.860 185.624,302.209 185.578,302.959 185.135 C 304.608 184.161,304.081 183.540,301.143 182.996 C 300.079 182.798,298.940 182.532,298.611 182.405 C 298.150 182.226,297.945 182.435,297.717 183.315 C 297.554 183.944,297.190 184.504,296.908 184.560 C 296.625 184.615,296.024 184.770,295.572 184.904 C 294.095 185.340,294.710 183.555,296.203 183.072 C 296.871 182.856,297.473 182.514,297.541 182.312 C 297.716 181.787,296.228 180.493,295.687 180.701 C 295.438 180.796,295.129 180.706,295.002 180.499 C 294.874 180.292,294.472 180.123,294.109 180.123 C 293.741 180.123,292.697 179.245,291.755 178.144 C 290.823 177.055,289.554 175.591,288.934 174.890 L 287.807 173.615 287.255 174.389 C 286.952 174.815,286.497 175.370,286.244 175.623 C 285.990 175.877,285.851 176.287,285.934 176.535 C 286.221 177.397,285.677 178.597,284.821 178.987 C 283.960 179.379,281.124 178.917,281.582 178.459 C 281.695 178.346,281.615 178.045,281.404 177.791 C 281.121 177.449,281.164 177.185,281.568 176.781 C 282.498 175.851,281.798 175.007,280.211 175.145 C 280.018 175.162,279.464 174.873,278.980 174.502 C 277.862 173.646,278.420 172.763,279.659 173.426 C 280.074 173.648,280.711 173.735,281.074 173.620 C 281.438 173.505,281.838 173.578,281.965 173.782 C 282.091 173.987,282.342 174.063,282.522 173.952 C 282.702 173.840,282.850 173.943,282.850 174.180 C 282.850 174.418,282.953 174.508,283.079 174.382 C 283.206 174.255,283.816 174.465,284.435 174.848 C 285.554 175.539,285.565 175.539,286.187 174.852 C 286.902 174.061,286.369 172.032,285.445 172.032 C 285.179 172.032,284.960 171.864,284.960 171.659 C 284.960 171.454,284.803 171.384,284.612 171.502 C 284.280 171.707,281.500 170.003,280.401 168.921 C 280.118 168.643,279.327 168.189,278.642 167.913 C 276.681 167.120,273.034 164.539,272.780 163.764 C 272.653 163.377,272.168 162.705,271.703 162.271 L 270.855 161.481 270.091 162.193 L 269.326 162.906 270.974 164.508 C 272.463 165.956,273.056 166.292,274.267 166.376 C 274.933 166.422,276.339 167.934,276.838 169.141 C 277.101 169.777,277.664 170.570,278.089 170.905 C 279.369 171.911,279.117 172.839,277.639 172.562 C 275.673 172.193,273.374 168.514,275.110 168.514 C 275.303 168.514,275.462 168.698,275.462 168.924 C 275.462 169.150,275.563 169.233,275.688 169.108 C 276.072 168.724,275.090 167.840,274.521 168.058 C 274.225 168.172,273.847 168.043,273.680 167.773 C 273.426 167.363,273.280 167.379,272.785 167.873 C 272.245 168.414,272.123 168.417,271.350 167.911 C 270.886 167.606,269.603 167.308,268.498 167.247 C 264.737 167.040,263.391 166.503,263.570 165.279 C 263.674 164.572,263.271 164.192,262.000 163.799 C 261.658 163.693,261.198 163.167,260.976 162.630 L 260.574 161.653 260.363 162.705 C 260.076 164.141,259.139 164.246,258.583 162.904 C 258.340 162.316,257.617 161.512,256.977 161.117 C 256.338 160.721,255.322 159.526,254.720 158.459 C 254.119 157.393,253.355 156.438,253.023 156.337 C 251.236 155.792,249.461 154.746,249.262 154.121 C 249.081 153.550,248.834 153.452,248.001 153.619 C 247.432 153.733,246.965 153.687,246.965 153.518 C 246.965 153.349,246.371 153.169,245.646 153.119 C 244.261 153.024,242.506 151.960,242.656 151.307 C 242.704 151.096,242.507 150.923,242.216 150.923 C 241.926 150.923,241.689 150.765,241.689 150.572 C 241.689 150.378,241.372 150.220,240.985 150.220 C 240.598 150.220,240.281 150.101,240.280 149.956 C 240.280 149.811,239.737 149.681,239.074 149.667 C 238.230 149.649,237.395 149.253,236.289 148.348 C 235.421 147.636,234.539 147.054,234.330 147.054 C 234.120 147.054,233.949 146.886,233.949 146.681 C 233.949 146.476,233.803 146.399,233.624 146.510 C 233.197 146.773,231.518 146.047,230.520 145.167 C 229.642 144.393,229.022 144.621,229.720 145.462 C 230.076 145.890,230.077 146.105,229.727 146.526 C 229.283 147.062,227.921 147.273,228.025 146.790 C 228.284 145.586,227.219 144.591,225.670 144.591 C 224.766 144.591,224.146 144.447,224.259 144.264 C 224.380 144.069,223.679 144.018,222.521 144.137 C 221.186 144.275,220.580 144.213,220.580 143.937 C 220.580 143.716,220.343 143.536,220.053 143.536 C 219.763 143.536,219.525 143.679,219.525 143.854 C 219.525 144.365,215.965 144.741,215.669 144.262 C 215.487 143.967,215.297 143.999,214.981 144.380 C 214.346 145.144,210.085 144.925,209.480 144.097 C 209.185 143.694,208.996 143.636,208.902 143.919 C 208.621 144.762,204.846 142.117,203.799 140.343 C 203.373 139.624,202.914 139.314,202.272 139.314 C 201.748 139.314,201.000 138.937,200.528 138.434 C 200.073 137.951,199.814 137.555,199.953 137.555 C 200.294 137.555,199.570 136.673,197.905 135.060 C 197.139 134.319,196.623 133.603,196.758 133.468 C 196.893 133.333,196.829 133.012,196.615 132.755 C 196.402 132.497,196.315 132.059,196.422 131.780 C 196.693 131.074,195.782 130.415,194.915 130.690 C 194.244 130.903,192.102 129.770,191.791 129.037 C 191.727 128.885,191.306 128.853,190.857 128.966 C 189.235 129.373,187.488 127.093,189.006 126.551 C 189.248 126.464,189.328 126.267,189.184 126.113 C 189.040 125.959,188.632 126.095,188.277 126.417 C 187.585 127.043,186.456 127.207,186.456 126.682 C 186.456 126.507,186.171 126.438,185.823 126.529 C 185.125 126.711,183.450 125.246,183.102 124.150 C 182.913 123.554,181.526 123.490,180.870 124.046 C 180.797 124.108,180.291 123.927,179.744 123.645 C 178.610 123.058,177.874 122.974,178.177 123.465 C 178.363 123.765,177.544 124.415,176.869 124.504 C 176.724 124.523,176.566 124.555,176.517 124.576 C 175.615 124.967,172.748 124.696,171.978 124.148 C 171.464 123.782,170.464 123.483,169.755 123.483 C 168.923 123.483,168.059 123.172,167.316 122.605 C 166.683 122.122,166.068 121.825,165.948 121.944 C 165.465 122.428,163.919 121.648,163.410 120.663 C 163.111 120.086,162.985 119.613,163.130 119.613 C 163.275 119.613,163.027 119.356,162.578 119.042 C 161.772 118.477,161.719 117.859,162.349 116.359 C 162.551 115.879,162.435 115.743,161.824 115.743 C 161.183 115.743,161.116 115.835,161.458 116.247 C 162.362 117.336,160.805 118.119,157.739 118.118 C 156.216 118.118,154.692 118.233,154.354 118.375 C 154.015 118.517,153.520 118.549,153.253 118.447 C 152.986 118.345,152.630 118.394,152.462 118.556 C 151.554 119.430,148.959 119.334,148.538 118.411 C 148.311 117.911,147.923 117.479,147.677 117.450 C 145.756 117.226,145.565 117.319,144.490 118.997 C 143.503 120.540,142.168 120.312,139.842 118.206 C 138.773 117.238,138.059 116.447,138.255 116.447 C 139.254 116.447,138.427 115.910,137.341 115.854 C 136.645 115.818,136.174 115.886,136.293 116.006 C 136.790 116.503,133.509 117.508,131.166 117.578 C 130.526 117.597,130.287 117.758,130.413 118.086 C 130.661 118.732,129.885 119.613,129.069 119.613 C 128.315 119.613,128.212 118.862,128.829 117.874 C 129.309 117.106,128.093 115.777,126.890 115.755 C 126.538 115.748,125.945 115.579,125.571 115.379 C 125.101 115.128,124.890 115.128,124.890 115.379 C 124.890 115.611,123.235 115.743,120.317 115.743 C 117.197 115.743,115.743 115.619,115.743 115.352 C 115.743 115.095,115.317 115.041,114.496 115.195 C 113.574 115.368,112.955 115.251,112.121 114.748 C 110.998 114.069,110.141 114.002,108.971 114.501 C 108.632 114.645,108.118 114.672,107.828 114.561 C 107.537 114.449,107.300 114.511,107.300 114.699 C 107.300 114.886,107.062 115.040,106.772 115.040 C 106.482 115.040,106.245 114.896,106.245 114.721 C 106.245 114.545,105.928 114.485,105.541 114.586 C 105.148 114.689,104.837 114.597,104.837 114.377 C 104.837 113.887,104.547 113.921,103.430 114.541 M151.495 115.634 C 150.275 116.273,150.306 116.297,152.155 116.150 C 153.202 116.067,153.738 116.164,153.738 116.436 C 153.738 116.701,153.928 116.659,154.266 116.321 C 155.510 115.077,153.507 114.580,151.495 115.634 M167.693 115.978 C 167.334 116.337,167.414 116.799,167.835 116.799 C 168.042 116.799,168.450 116.561,168.740 116.271 C 169.209 115.802,169.193 115.743,168.597 115.743 C 168.229 115.743,167.822 115.849,167.693 115.978 M173.228 116.279 C 173.271 116.574,173.677 117.075,174.130 117.393 L 174.954 117.970 174.297 116.856 C 173.594 115.668,173.099 115.400,173.228 116.279 M176.105 117.380 C 175.856 118.031,175.820 117.976,176.846 118.510 C 178.543 119.392,178.854 118.799,177.326 117.593 C 176.442 116.897,176.300 116.872,176.105 117.380 M180.721 119.029 C 180.621 119.289,180.681 119.724,180.854 119.997 C 181.082 120.358,181.169 120.229,181.173 119.525 C 181.179 118.475,181.006 118.285,180.721 119.029 M173.439 121.426 C 173.439 121.613,173.297 121.678,173.124 121.571 C 172.951 121.464,172.723 121.600,172.618 121.873 C 172.388 122.472,173.107 122.789,174.611 122.751 C 175.224 122.736,175.528 122.644,175.286 122.546 C 175.044 122.449,174.846 122.163,174.846 121.911 C 174.846 121.660,174.529 121.371,174.142 121.270 C 173.755 121.169,173.439 121.239,173.439 121.426 M185.838 123.009 C 185.195 123.274,185.672 123.843,186.326 123.592 C 186.630 123.476,187.029 123.601,187.214 123.871 C 187.472 124.249,187.523 124.201,187.438 123.663 C 187.326 122.954,186.645 122.676,185.838 123.009 M188.839 122.976 C 188.572 123.242,188.933 124.538,189.273 124.538 C 189.652 124.538,190.019 123.490,189.778 123.099 C 189.555 122.738,189.132 122.682,188.839 122.976 M189.622 125.945 C 189.622 126.386,189.995 126.386,190.677 125.945 C 191.104 125.670,191.053 125.603,190.413 125.599 C 189.978 125.596,189.622 125.752,189.622 125.945 M193.999 126.787 C 194.568 127.268,195.177 127.574,195.352 127.466 C 195.790 127.195,194.909 126.422,193.843 126.142 C 192.982 125.915,192.985 125.928,193.999 126.787 M197.713 128.793 C 197.713 128.968,197.476 129.112,197.186 129.112 C 196.895 129.112,196.658 129.270,196.658 129.464 C 196.658 129.896,196.746 129.898,197.822 129.489 C 198.582 129.200,198.886 129.381,200.490 131.072 C 201.683 132.331,202.582 132.982,203.128 132.982 C 203.584 132.982,204.556 133.530,205.287 134.200 C 206.541 135.348,207.723 135.605,206.836 134.536 C 206.310 133.902,202.867 131.926,202.288 131.926 C 202.046 131.926,201.238 131.233,200.492 130.386 C 199.221 128.942,197.713 128.078,197.713 128.793 M217.344 133.755 C 217.672 134.084,217.860 134.084,218.188 133.755 C 218.517 133.427,218.423 133.333,217.766 133.333 C 217.109 133.333,217.016 133.427,217.344 133.755 M219.525 134.389 C 220.207 134.830,220.580 134.830,220.580 134.389 C 220.580 134.195,220.224 134.039,219.789 134.042 C 219.149 134.047,219.098 134.113,219.525 134.389 M231.574 138.672 C 230.945 138.843,230.431 139.155,230.431 139.365 C 230.431 139.576,230.750 139.665,231.139 139.563 C 231.607 139.440,231.969 139.605,232.207 140.049 C 232.405 140.419,232.798 140.721,233.082 140.721 C 233.365 140.721,233.597 140.875,233.597 141.062 C 233.597 141.249,233.803 141.324,234.056 141.227 C 234.308 141.130,235.129 141.308,235.881 141.622 C 236.877 142.038,237.754 142.130,239.116 141.959 C 240.356 141.805,240.985 141.853,240.985 142.103 C 240.985 142.311,240.827 142.480,240.633 142.480 C 240.440 142.480,240.281 142.637,240.281 142.828 C 240.281 143.250,242.048 143.182,242.641 142.738 C 242.874 142.563,243.219 142.515,243.408 142.632 C 243.597 142.748,243.855 142.675,243.982 142.469 C 244.144 142.207,244.358 142.214,244.695 142.493 C 245.071 142.805,245.086 143.035,244.764 143.550 C 244.539 143.911,244.488 144.333,244.653 144.487 C 244.817 144.641,245.022 144.569,245.108 144.327 C 245.569 143.038,247.525 144.369,247.152 145.718 C 246.940 146.488,246.954 146.495,247.458 145.866 C 247.761 145.488,248.220 145.296,248.532 145.415 C 249.185 145.666,249.254 146.578,248.637 146.805 C 248.395 146.894,248.632 147.083,249.164 147.224 C 249.697 147.366,250.132 147.626,250.132 147.802 C 250.132 147.978,250.501 148.030,250.952 147.917 C 251.466 147.788,252.242 147.988,253.032 148.454 C 253.842 148.932,254.373 149.066,254.519 148.829 C 254.644 148.627,254.525 148.461,254.253 148.461 C 253.600 148.461,252.523 147.249,252.643 146.648 C 252.927 145.226,250.960 143.184,249.305 143.184 C 248.825 143.184,248.351 142.986,248.253 142.744 C 248.114 142.402,248.000 142.411,247.740 142.782 C 247.375 143.303,245.207 143.031,245.207 142.464 C 245.207 142.293,244.732 141.612,244.151 140.951 C 243.571 140.290,243.096 139.589,243.096 139.393 C 243.096 138.613,240.467 138.019,239.728 138.632 C 239.141 139.119,233.753 139.168,233.141 138.691 C 232.887 138.494,232.261 138.486,231.574 138.672 M254.856 147.958 C 255.574 148.677,255.553 149.084,254.714 150.731 L 254.019 152.095 255.329 153.230 C 256.050 153.854,256.719 154.252,256.816 154.114 C 257.344 153.360,258.262 153.442,258.578 154.272 C 258.979 155.326,259.988 155.407,260.850 154.455 C 261.489 153.748,261.345 152.451,260.673 152.866 C 260.113 153.213,259.237 152.314,259.457 151.619 C 259.673 150.941,258.739 150.374,258.376 150.962 C 258.236 151.188,257.928 151.117,257.544 150.770 C 257.209 150.466,256.833 150.320,256.708 150.445 C 256.134 151.019,255.448 149.816,255.848 148.937 C 256.168 148.235,256.147 147.994,255.741 147.737 C 254.850 147.174,254.227 147.330,254.856 147.958 M260.609 148.335 C 261.784 150.674,262.289 151.501,262.775 151.880 C 263.832 152.704,263.975 152.322,262.993 151.296 C 262.317 150.590,262.078 150.063,262.242 149.636 C 262.374 149.292,262.369 149.123,262.231 149.261 C 262.093 149.399,261.808 149.169,261.597 148.750 C 261.386 148.331,261.004 147.919,260.747 147.835 C 260.399 147.720,260.364 147.847,260.609 148.335 M167.236 152.644 C 167.561 152.913,167.743 153.393,167.643 153.711 C 167.514 154.115,167.783 154.410,168.541 154.696 C 169.384 155.014,169.598 155.284,169.508 155.916 C 169.353 157.015,168.047 157.175,167.216 156.198 C 166.865 155.786,166.064 154.917,165.435 154.265 C 164.807 153.614,164.292 152.926,164.292 152.735 C 164.292 151.976,166.355 151.912,167.236 152.644 M257.520 155.895 C 257.520 157.036,258.987 158.630,259.972 158.560 C 260.525 158.520,260.952 158.408,260.920 158.311 C 260.888 158.215,260.981 158.096,261.126 158.047 C 261.757 157.837,262.093 157.998,262.093 158.508 C 262.093 158.810,261.935 158.959,261.741 158.839 C 261.138 158.466,261.355 158.942,262.181 159.806 C 262.650 160.296,263.253 160.574,263.660 160.488 C 264.108 160.394,264.629 160.694,265.154 161.350 C 265.800 162.158,265.960 162.230,265.961 161.716 C 265.963 161.231,266.187 161.103,266.887 161.189 C 268.224 161.352,269.257 158.368,268.248 157.255 C 267.782 156.739,267.496 156.654,267.163 156.930 C 266.685 157.327,265.336 156.825,264.825 156.060 C 264.646 155.792,264.565 155.808,264.561 156.113 C 264.558 156.354,264.239 156.552,263.852 156.552 C 263.465 156.552,263.149 156.397,263.149 156.207 C 263.149 155.536,261.473 155.426,260.543 156.035 C 259.700 156.588,259.565 156.590,258.763 156.065 C 257.736 155.392,257.520 155.362,257.520 155.895 M260.774 160.500 C 259.609 161.062,259.810 161.501,261.037 161.073 C 261.618 160.871,262.004 160.563,261.896 160.388 C 261.788 160.213,261.670 160.081,261.633 160.094 C 261.596 160.107,261.209 160.290,260.774 160.500 M76.869 161.126 C 76.749 161.319,76.742 161.623,76.852 161.801 C 76.962 161.979,76.234 162.905,75.234 163.859 C 73.541 165.473,72.601 167.810,73.644 167.810 C 73.805 167.810,73.875 167.998,73.798 168.228 C 73.721 168.458,73.885 168.893,74.161 169.195 C 74.438 169.498,75.284 170.749,76.042 171.977 C 76.988 173.509,77.582 174.147,77.936 174.011 C 78.245 173.892,78.452 174.020,78.452 174.329 C 78.452 174.619,78.129 174.846,77.716 174.846 C 77.311 174.846,76.577 175.163,76.085 175.550 C 75.593 175.937,74.856 176.238,74.447 176.218 C 73.775 176.187,73.788 176.153,74.582 175.871 C 75.285 175.622,75.180 175.592,74.062 175.722 C 72.851 175.862,72.505 175.731,71.496 174.753 C 70.540 173.827,70.273 173.716,70.012 174.137 C 69.812 174.460,69.835 174.739,70.072 174.885 C 70.281 175.014,70.342 175.295,70.209 175.510 C 70.076 175.725,70.114 175.901,70.294 175.901 C 70.473 175.901,71.332 176.614,72.203 177.485 C 73.074 178.355,74.084 179.079,74.448 179.092 C 75.070 179.116,75.067 179.137,74.406 179.448 C 73.883 179.694,74.040 179.729,75.022 179.583 C 75.895 179.454,76.341 179.524,76.341 179.792 C 76.341 180.058,76.854 180.144,77.836 180.041 C 78.659 179.956,79.707 180.022,80.166 180.188 C 80.639 180.359,81.172 180.355,81.397 180.179 C 81.616 180.008,82.269 179.758,82.850 179.622 C 83.430 179.487,85.142 178.743,86.654 177.969 C 88.166 177.195,89.587 176.623,89.813 176.698 C 90.235 176.839,90.657 176.568,91.837 175.395 C 92.542 174.696,92.804 173.576,92.172 173.967 C 91.979 174.086,91.821 173.885,91.821 173.519 C 91.821 173.153,91.458 172.660,91.014 172.423 C 90.058 171.911,89.891 170.762,90.613 169.660 C 90.978 169.103,91.008 168.865,90.715 168.865 C 90.484 168.865,90.398 168.764,90.521 168.640 C 90.645 168.516,90.039 167.965,89.173 167.416 C 87.719 166.495,87.407 165.960,87.582 164.693 C 87.712 163.750,85.002 162.181,83.244 162.181 C 82.907 162.181,82.710 162.056,82.804 161.903 C 82.899 161.750,82.433 161.688,81.770 161.765 C 81.096 161.844,80.563 161.749,80.563 161.550 C 80.563 161.336,79.997 161.269,79.156 161.381 C 78.232 161.505,77.748 161.433,77.748 161.172 C 77.748 160.680,77.164 160.649,76.869 161.126 M88.925 161.829 C 89.797 162.641,90.765 162.756,90.765 162.046 C 90.765 161.582,89.759 161.141,88.676 161.131 C 88.320 161.127,88.395 161.335,88.925 161.829 M133.599 170.314 C 133.264 170.501,132.808 171.004,132.586 171.431 C 132.204 172.166,132.237 172.160,133.198 171.328 C 133.756 170.844,134.279 170.409,134.359 170.361 C 134.830 170.078,134.100 170.034,133.599 170.314 M115.919 172.735 C 115.339 173.120,115.076 173.435,115.336 173.437 C 115.596 173.438,116.211 173.122,116.703 172.735 C 117.858 171.826,117.292 171.826,115.919 172.735 M130.006 172.647 C 129.913 172.889,129.525 173.087,129.144 173.087 C 128.762 173.087,128.352 173.245,128.232 173.439 C 127.901 173.975,129.037 173.859,130.383 173.220 C 131.903 172.499,132.085 172.208,131.017 172.208 C 130.554 172.208,130.099 172.405,130.006 172.647 M111.292 173.605 C 110.488 174.067,109.756 174.370,109.664 174.279 C 109.573 174.187,109.404 174.356,109.289 174.655 C 109.049 175.281,109.938 175.416,110.312 174.810 C 110.444 174.597,111.087 174.199,111.740 173.926 C 112.394 173.653,112.929 173.273,112.929 173.082 C 112.929 172.643,113.012 172.616,111.292 173.605 M206.332 192.435 C 206.682 192.823,207.169 193.140,207.413 193.140 C 207.657 193.140,207.928 193.338,208.014 193.580 C 208.100 193.821,208.294 193.904,208.445 193.764 C 208.858 193.380,208.013 192.539,206.784 192.111 C 205.708 191.736,205.702 191.740,206.332 192.435 M214.424 196.927 C 213.830 197.363,214.039 198.325,214.934 199.277 C 216.182 200.606,216.665 199.827,215.522 198.328 C 215.016 197.665,214.708 197.019,214.836 196.891 C 215.148 196.579,214.864 196.604,214.424 196.927 M217.212 200.837 C 217.672 201.581,219.957 202.374,220.255 201.892 C 220.468 201.547,220.153 201.305,219.068 200.980 C 217.304 200.453,216.958 200.426,217.212 200.837 M221.160 203.258 C 220.779 203.874,221.890 204.575,223.291 204.603 C 224.105 204.619,224.690 204.500,224.590 204.339 C 224.490 204.178,223.960 204.046,223.412 204.046 C 222.850 204.046,222.326 203.815,222.212 203.518 C 221.996 202.955,221.433 202.816,221.160 203.258 M342.744 204.631 C 341.601 205.092,343.133 206.500,344.485 206.231 C 344.986 206.131,345.019 205.972,344.693 205.255 C 344.320 204.438,343.708 204.242,342.744 204.631 M226.588 206.140 C 226.034 206.483,227.021 207.314,227.791 207.153 C 228.273 207.052,228.257 206.956,227.675 206.461 C 227.304 206.145,226.814 206.000,226.588 206.140 M236.939 207.406 L 235.884 207.920 237.467 207.724 C 238.338 207.616,239.201 207.378,239.384 207.194 C 239.911 206.668,238.139 206.822,236.939 207.406 M239.094 211.244 C 239.202 211.527,239.593 211.854,239.962 211.972 C 240.331 212.089,240.633 212.324,240.633 212.495 C 240.633 213.110,243.114 214.723,243.487 214.350 C 243.969 213.868,242.831 212.732,242.134 213.000 C 241.818 213.121,241.169 212.714,240.483 211.965 C 239.289 210.661,238.766 210.390,239.094 211.244 " stroke="none" fill="#bcbcbc" fill-rule="evenodd"></path><path id="path4" d="M154.983 113.654 C 155.182 113.977,155.090 114.038,154.657 113.872 C 154.280 113.727,154.139 113.779,154.281 114.009 C 154.406 114.212,154.850 114.333,155.267 114.280 C 155.684 114.226,156.238 114.314,156.498 114.476 C 156.795 114.661,157.184 114.559,157.541 114.202 C 157.863 113.879,157.938 113.632,157.712 113.632 C 157.494 113.632,157.234 113.830,157.136 114.072 C 157.007 114.389,156.877 114.402,156.667 114.120 C 156.227 113.525,154.631 113.085,154.983 113.654 M139.906 114.824 C 139.775 115.165,139.920 115.259,140.392 115.136 C 140.762 115.039,140.978 114.819,140.872 114.648 C 140.586 114.185,140.118 114.270,139.906 114.824 M117.678 115.391 C 117.549 115.601,117.968 115.743,118.713 115.743 C 119.401 115.743,119.965 115.585,119.965 115.391 C 119.965 115.198,119.499 115.040,118.930 115.040 C 118.361 115.040,117.798 115.198,117.678 115.391 M125.945 115.391 C 125.945 115.585,126.262 115.743,126.649 115.743 C 127.036 115.743,127.353 115.585,127.353 115.391 C 127.353 115.198,127.036 115.040,126.649 115.040 C 126.262 115.040,125.945 115.198,125.945 115.391 M139.842 118.206 C 140.597 118.980,141.295 119.613,141.392 119.613 C 141.488 119.613,140.949 118.980,140.193 118.206 C 139.438 117.432,138.740 116.799,138.643 116.799 C 138.547 116.799,139.086 117.432,139.842 118.206 M94.234 117.874 C 93.447 118.559,93.444 118.578,94.176 118.224 C 94.600 118.018,95.045 117.693,95.164 117.500 C 95.510 116.941,95.131 117.093,94.234 117.874 M174.163 117.702 C 174.389 117.975,174.725 118.105,174.909 117.991 C 175.319 117.738,175.015 117.392,174.289 117.286 C 173.865 117.224,173.838 117.311,174.163 117.702 M156.468 118.103 C 156.906 118.187,157.539 118.184,157.876 118.096 C 158.212 118.008,157.854 117.939,157.080 117.943 C 156.306 117.947,156.031 118.019,156.468 118.103 M75.151 121.086 C 75.340 121.393,76.693 121.303,76.693 120.983 C 76.693 120.851,76.312 120.766,75.847 120.794 C 75.382 120.821,75.069 120.953,75.151 121.086 M71.944 121.372 C 71.047 121.757,71.972 121.757,73.175 121.372 C 73.882 121.146,73.917 121.088,73.351 121.080 C 72.964 121.074,72.331 121.206,71.944 121.372 M164.095 121.565 C 164.852 122.130,165.495 122.248,165.198 121.766 C 165.093 121.596,164.648 121.367,164.210 121.256 C 163.441 121.062,163.437 121.073,164.095 121.565 M174.209 121.259 C 174.536 121.345,174.873 121.683,174.960 122.009 C 175.071 122.430,175.128 122.373,175.157 121.812 C 175.188 121.202,175.016 121.030,174.406 121.061 C 173.845 121.090,173.788 121.148,174.209 121.259 M177.661 122.779 C 177.661 122.973,177.898 123.131,178.188 123.131 C 178.478 123.131,178.716 122.973,178.716 122.779 C 178.716 122.586,178.478 122.427,178.188 122.427 C 177.898 122.427,177.661 122.586,177.661 122.779 M187.187 122.648 C 187.172 122.866,187.397 123.242,187.687 123.483 C 187.977 123.724,188.217 123.783,188.220 123.614 C 188.223 123.445,188.361 123.522,188.528 123.784 C 188.737 124.114,188.828 123.951,188.823 123.257 C 188.819 122.704,188.747 122.449,188.662 122.691 C 188.577 122.933,188.297 123.131,188.039 123.131 C 187.781 123.131,187.490 122.933,187.392 122.691 C 187.281 122.415,187.204 122.399,187.187 122.648 M185.406 123.659 C 185.680 124.046,185.927 124.406,185.954 124.459 C 185.981 124.512,186.224 124.284,186.493 123.953 C 186.921 123.427,186.911 123.378,186.411 123.565 C 186.095 123.683,185.628 123.594,185.372 123.367 C 185.042 123.075,185.052 123.160,185.406 123.659 M54.881 127.704 L 53.298 127.951 54.773 128.003 C 55.583 128.033,56.345 127.898,56.464 127.704 C 56.584 127.511,56.633 127.376,56.573 127.406 C 56.513 127.435,55.752 127.569,54.881 127.704 M201.413 131.583 C 201.501 131.726,201.966 131.917,202.447 132.009 C 202.928 132.101,203.249 132.060,203.161 131.917 C 203.073 131.775,202.607 131.583,202.127 131.491 C 201.646 131.399,201.325 131.441,201.413 131.583 M206.380 133.608 C 206.262 133.800,206.400 134.153,206.688 134.392 C 207.260 134.867,207.380 134.494,206.899 133.736 C 206.715 133.446,206.512 133.395,206.380 133.608 M217.322 134.304 C 217.527 134.838,218.997 134.758,218.997 134.213 C 218.997 134.019,218.579 133.854,218.069 133.845 C 217.430 133.834,217.197 133.978,217.322 134.304 M220.580 134.406 C 220.580 134.631,220.351 134.728,220.071 134.620 C 219.744 134.495,219.626 134.594,219.742 134.895 C 219.844 135.162,220.218 135.289,220.603 135.188 C 221.343 134.995,221.490 134.558,220.932 134.213 C 220.739 134.093,220.580 134.180,220.580 134.406 M93.239 136.441 C 93.232 137.193,93.377 137.564,93.646 137.474 C 94.296 137.258,94.341 136.711,93.771 135.958 C 93.277 135.304,93.250 135.329,93.239 136.441 M33.566 137.472 C 33.214 137.711,32.634 139.314,32.901 139.314 C 32.965 139.314,33.255 138.839,33.544 138.259 C 33.834 137.678,34.044 137.206,34.010 137.209 C 33.976 137.212,33.777 137.330,33.566 137.472 M239.226 138.649 C 238.742 139.048,238.545 139.273,238.787 139.147 C 240.815 138.099,241.096 137.912,240.633 137.917 C 240.343 137.920,239.710 138.249,239.226 138.649 M228.533 139.022 C 228.704 139.299,228.596 139.360,228.202 139.209 C 227.880 139.085,227.617 139.138,227.617 139.325 C 227.617 139.512,227.933 139.666,228.320 139.666 C 228.711 139.666,229.024 139.431,229.024 139.138 C 229.024 138.848,228.856 138.610,228.651 138.610 C 228.446 138.610,228.393 138.796,228.533 139.022 M204.944 141.808 C 205.231 142.272,206.509 142.904,206.506 142.581 C 206.504 142.429,206.108 142.121,205.626 141.897 C 205.143 141.674,204.837 141.633,204.944 141.808 M236.290 142.216 C 236.380 142.361,237.147 142.480,237.995 142.480 C 238.843 142.480,239.610 142.361,239.699 142.216 C 239.789 142.071,239.022 141.953,237.995 141.953 C 236.967 141.953,236.200 142.071,236.290 142.216 M113.808 142.832 C 113.928 143.026,114.254 143.184,114.533 143.184 C 114.811 143.184,115.040 143.026,115.040 142.832 C 115.040 142.639,114.714 142.480,114.315 142.480 C 113.917 142.480,113.689 142.639,113.808 142.832 M117.326 142.832 C 117.446 143.026,117.772 143.184,118.051 143.184 C 118.329 143.184,118.558 143.026,118.558 142.832 C 118.558 142.639,118.232 142.480,117.833 142.480 C 117.435 142.480,117.207 142.639,117.326 142.832 M220.580 143.887 C 220.580 144.081,220.818 144.239,221.108 144.239 C 221.398 144.239,221.636 144.081,221.636 143.887 C 221.636 143.694,221.398 143.536,221.108 143.536 C 220.818 143.536,220.580 143.694,220.580 143.887 M246.555 144.478 C 246.780 144.899,246.874 145.477,246.765 145.761 C 246.504 146.441,247.040 146.751,247.686 146.294 C 248.102 145.999,248.081 145.969,247.577 146.132 C 247.074 146.294,246.995 146.179,247.160 145.523 C 247.293 144.993,247.153 144.542,246.755 144.213 C 246.198 143.754,246.181 143.776,246.555 144.478 M230.575 145.260 C 231.193 145.942,232.703 146.544,232.346 145.965 C 232.237 145.790,231.937 145.646,231.679 145.646 C 231.421 145.646,231.119 145.409,231.007 145.119 C 230.896 144.828,230.617 144.591,230.387 144.591 C 230.131 144.591,230.204 144.849,230.575 145.260 M252.259 145.325 C 252.475 145.728,252.722 145.988,252.807 145.903 C 253.053 145.657,252.554 144.591,252.193 144.591 C 252.013 144.591,252.043 144.921,252.259 145.325 M70.185 146.022 C 69.604 146.394,69.310 146.699,69.530 146.700 C 69.750 146.701,70.305 146.390,70.761 146.010 C 71.807 145.139,71.556 145.144,70.185 146.022 M255.934 148.727 C 255.731 149.499,255.635 149.571,255.457 149.089 C 255.303 148.677,255.077 148.583,254.737 148.793 C 254.465 148.962,253.990 149.023,253.682 148.929 C 253.287 148.810,253.311 148.881,253.764 149.170 C 254.117 149.396,254.499 149.488,254.611 149.376 C 254.724 149.263,255.009 149.330,255.244 149.525 C 255.550 149.779,255.833 149.634,256.240 149.013 C 256.553 148.536,256.669 148.059,256.498 147.954 C 256.327 147.848,256.073 148.196,255.934 148.727 M240.281 149.917 C 240.281 150.084,240.585 150.220,240.956 150.220 C 241.327 150.220,241.710 150.418,241.807 150.660 C 241.920 150.939,241.995 150.889,242.013 150.525 C 242.029 150.180,241.689 149.883,241.161 149.782 C 240.677 149.689,240.281 149.750,240.281 149.917 M256.260 150.266 C 256.110 150.509,256.204 150.595,256.503 150.487 C 256.772 150.391,257.309 150.568,257.696 150.881 C 258.393 151.446,258.394 151.444,257.729 150.660 C 256.980 149.775,256.623 149.679,256.260 150.266 M142.873 151.870 C 142.850 152.875,142.954 153.772,143.102 153.863 C 143.251 153.955,143.322 153.371,143.260 152.565 C 143.077 150.198,142.917 149.909,142.873 151.870 M140.842 153.562 C 140.843 155.110,140.905 155.699,140.979 154.872 C 141.054 154.045,141.053 152.778,140.977 152.058 C 140.901 151.337,140.841 152.014,140.842 153.562 M243.203 152.120 C 243.746 152.623,244.485 153.034,244.846 153.034 C 245.206 153.034,245.791 153.128,246.145 153.243 C 246.681 153.417,246.701 153.389,246.262 153.073 C 245.972 152.864,245.400 152.691,244.990 152.688 C 244.581 152.685,243.789 152.350,243.231 151.945 L 242.216 151.207 243.203 152.120 M58.870 152.414 C 59.509 152.636,60.140 152.641,60.619 152.427 C 61.221 152.159,61.024 152.090,59.620 152.080 C 58.036 152.068,57.966 152.099,58.870 152.414 M164.732 152.232 C 164.207 152.420,164.149 153.256,164.640 153.560 C 164.835 153.680,164.901 153.548,164.790 153.259 C 164.668 152.941,164.838 152.695,165.234 152.617 C 165.586 152.547,165.717 152.396,165.523 152.282 C 165.330 152.167,164.974 152.145,164.732 152.232 M166.403 152.264 C 166.403 152.506,166.645 152.798,166.941 152.911 C 167.293 153.046,167.409 153.377,167.276 153.868 C 167.088 154.562,167.103 154.569,167.481 153.963 C 167.815 153.427,167.754 153.173,167.146 152.565 C 166.711 152.130,166.403 152.005,166.403 152.264 M42.190 153.650 L 41.337 154.617 42.216 153.851 C 42.700 153.429,43.729 153.020,44.503 152.942 L 45.910 152.801 44.476 152.742 C 43.312 152.694,42.882 152.864,42.190 153.650 M249.077 153.671 C 249.077 153.827,249.299 154.260,249.571 154.631 C 250.033 155.264,250.054 155.246,249.882 154.347 C 249.718 153.490,249.077 152.951,249.077 153.671 M137.769 154.998 C 137.438 155.859,137.510 155.944,138.083 155.371 C 138.681 154.773,138.757 154.442,138.296 154.442 C 138.123 154.442,137.886 154.692,137.769 154.998 M145.835 156.221 C 146.039 156.552,148.448 157.386,148.641 157.193 C 148.714 157.120,148.074 156.809,147.218 156.501 C 146.362 156.193,145.740 156.067,145.835 156.221 M169.065 156.238 C 169.231 156.508,168.941 156.562,168.118 156.413 C 167.078 156.226,167.027 156.248,167.703 156.597 C 168.529 157.022,169.569 156.808,169.569 156.212 C 169.569 156.012,169.401 155.849,169.196 155.849 C 168.992 155.849,168.932 156.024,169.065 156.238 M127.676 156.694 C 127.991 157.073,127.980 157.230,127.631 157.370 C 127.381 157.470,127.558 157.565,128.023 157.580 C 128.847 157.607,128.852 157.589,128.232 156.904 C 127.514 156.110,127.044 155.933,127.676 156.694 M267.186 156.567 C 267.061 156.768,266.616 156.840,266.197 156.726 C 265.500 156.536,265.490 156.553,266.085 156.924 C 266.554 157.216,266.841 157.222,267.118 156.945 C 267.395 156.669,267.703 156.732,268.227 157.173 C 268.952 157.782,268.952 157.782,268.283 156.992 C 267.514 156.084,267.490 156.074,267.186 156.567 M155.497 156.909 C 155.126 157.152,155.334 157.188,156.201 157.029 C 157.718 156.751,158.004 156.551,156.875 156.558 C 156.407 156.561,155.787 156.719,155.497 156.909 M21.548 157.137 C 21.306 157.235,21.108 157.465,21.108 157.649 C 21.108 157.855,21.361 157.849,21.766 157.632 C 22.127 157.439,22.548 157.394,22.701 157.532 C 22.855 157.670,22.866 157.586,22.727 157.344 C 22.461 156.881,22.266 156.847,21.548 157.137 M170.913 160.533 C 171.535 161.175,171.967 161.777,171.873 161.871 C 171.779 161.965,172.211 162.333,172.834 162.687 C 173.782 163.227,173.653 163.009,172.044 161.350 C 170.986 160.259,170.045 159.367,169.952 159.367 C 169.859 159.367,170.292 159.892,170.913 160.533 M16.007 160.259 C 15.123 160.684,15.095 160.733,15.831 160.555 C 16.315 160.438,16.861 160.203,17.045 160.031 C 17.501 159.605,17.250 159.660,16.007 160.259 M40.243 160.910 C 40.361 162.015,40.655 162.386,40.902 161.742 C 41.002 161.484,40.872 160.984,40.614 160.631 C 40.183 160.041,40.153 160.064,40.243 160.910 M260.217 161.360 C 260.088 161.489,259.982 162.032,259.982 162.566 C 259.982 163.127,259.757 163.607,259.448 163.703 C 259.058 163.824,259.079 163.854,259.522 163.814 C 259.916 163.779,260.219 163.329,260.381 162.533 C 260.645 161.246,260.606 160.971,260.217 161.360 M9.730 162.023 C 10.006 162.741,9.219 163.286,8.267 163.036 C 7.636 162.870,7.626 162.890,8.175 163.235 C 8.612 163.509,8.987 163.511,9.494 163.239 C 10.246 162.837,10.433 162.014,9.855 161.656 C 9.651 161.530,9.599 161.681,9.730 162.023 M265.846 162.064 C 265.453 162.457,265.582 162.768,266.139 162.768 C 266.429 162.768,266.667 162.556,266.667 162.298 C 266.667 161.799,266.234 161.676,265.846 162.064 M174.350 163.639 C 174.452 163.805,174.848 163.940,175.230 163.940 C 175.611 163.940,176.015 164.178,176.126 164.468 C 176.237 164.758,176.494 164.996,176.697 164.996 C 177.373 164.996,175.873 163.665,175.012 163.500 C 174.545 163.411,174.247 163.474,174.350 163.639 M22.674 165.028 C 22.365 165.627,22.174 166.179,22.250 166.255 C 22.327 166.332,22.653 165.842,22.974 165.167 C 23.698 163.650,23.447 163.534,22.674 165.028 M27.794 164.818 C 27.340 165.301,27.035 165.755,27.117 165.827 C 27.198 165.899,27.633 165.504,28.083 164.949 C 29.090 163.707,28.913 163.627,27.794 164.818 M73.579 164.856 C 73.318 165.152,73.174 165.463,73.259 165.549 C 73.344 165.634,73.701 165.386,74.053 164.998 C 74.404 164.610,74.548 164.298,74.373 164.305 C 74.198 164.313,73.841 164.561,73.579 164.856 M25.154 166.974 C 24.521 167.513,24.392 167.727,24.831 167.509 C 25.476 167.188,26.685 166.030,26.340 166.064 C 26.268 166.071,25.734 166.480,25.154 166.974 M87.836 166.417 C 88.450 167.182,90.413 168.258,90.413 167.830 C 90.413 167.625,90.240 167.458,90.028 167.458 C 89.816 167.458,89.143 167.108,88.533 166.680 C 87.922 166.253,87.609 166.134,87.836 166.417 M268.250 167.137 C 267.658 167.416,267.697 167.440,268.489 167.287 C 269.008 167.187,269.879 167.265,270.424 167.460 C 271.349 167.790,271.370 167.778,270.733 167.284 C 269.966 166.689,269.283 166.648,268.250 167.137 M273.477 167.634 C 273.767 167.924,274.185 168.162,274.406 168.162 C 274.652 168.162,274.603 167.957,274.281 167.634 C 273.990 167.344,273.572 167.106,273.351 167.106 C 273.105 167.106,273.154 167.312,273.477 167.634 M275.420 167.722 C 275.397 167.867,275.397 168.105,275.420 168.250 C 275.443 168.395,275.303 168.514,275.110 168.514 C 274.916 168.514,274.771 168.949,274.786 169.481 C 274.801 170.013,274.893 170.211,274.990 169.921 C 275.086 169.631,275.256 169.156,275.367 168.865 C 275.664 168.086,275.771 167.458,275.607 167.458 C 275.527 167.458,275.443 167.577,275.420 167.722 M90.403 169.940 C 90.190 170.338,90.068 170.820,90.132 171.011 C 90.195 171.202,90.429 170.877,90.652 170.288 C 91.114 169.063,90.976 168.870,90.403 169.940 M276.869 169.882 C 276.869 170.216,278.588 171.855,278.725 171.652 C 278.781 171.571,278.385 171.079,277.847 170.559 C 277.309 170.039,276.869 169.735,276.869 169.882 M282.146 170.241 C 282.630 170.637,283.184 170.962,283.377 170.963 C 283.754 170.966,283.118 170.478,281.970 169.885 C 281.503 169.644,281.562 169.763,282.146 170.241 M132.655 170.848 C 132.254 171.358,131.929 171.951,131.932 172.167 C 131.935 172.397,132.060 172.365,132.235 172.090 C 132.398 171.831,132.594 171.670,132.669 171.731 C 132.744 171.793,133.197 171.569,133.675 171.234 C 134.154 170.899,134.404 170.624,134.231 170.624 C 134.058 170.624,133.627 170.886,133.273 171.207 C 132.919 171.527,132.630 171.615,132.630 171.403 C 132.630 171.190,132.982 170.770,133.412 170.468 C 133.842 170.167,134.011 169.921,133.789 169.921 C 133.566 169.921,133.056 170.338,132.655 170.848 M188.445 171.064 C 188.535 171.209,188.906 171.328,189.270 171.328 C 189.634 171.328,190.005 171.209,190.095 171.064 C 190.185 170.919,189.814 170.800,189.270 170.800 C 188.726 170.800,188.355 170.919,188.445 171.064 M284.960 171.755 C 284.960 171.907,285.185 172.032,285.459 172.032 C 285.733 172.032,286.037 172.230,286.135 172.471 C 286.232 172.713,286.325 172.565,286.340 172.141 C 286.360 171.581,286.177 171.386,285.664 171.425 C 285.277 171.454,284.960 171.602,284.960 171.755 M110.755 173.583 C 110.236 173.854,109.697 173.971,109.555 173.845 C 109.414 173.718,109.420 173.826,109.570 174.085 C 109.766 174.424,109.949 174.449,110.224 174.173 C 110.435 173.963,110.843 173.791,111.131 173.791 C 111.527 173.791,111.488 173.922,110.973 174.324 C 110.344 174.815,110.370 174.823,111.298 174.425 C 111.852 174.188,112.128 173.934,111.911 173.862 C 111.694 173.790,111.607 173.586,111.716 173.409 C 111.980 172.982,111.868 173.002,110.755 173.583 M127.791 173.527 C 127.985 174.118,129.295 174.279,130.069 173.807 C 130.557 173.509,130.392 173.476,129.325 173.656 C 128.342 173.822,128.025 173.775,128.202 173.488 C 128.338 173.267,128.269 173.087,128.048 173.087 C 127.827 173.087,127.711 173.285,127.791 173.527 M278.452 173.439 C 278.175 173.888,278.543 174.496,279.088 174.489 C 279.341 174.486,279.298 174.346,278.980 174.137 C 278.511 173.829,278.511 173.752,278.980 173.444 C 279.298 173.235,279.341 173.096,279.088 173.092 C 278.858 173.089,278.572 173.245,278.452 173.439 M280.789 173.752 C 280.452 173.966,280.579 174.055,281.223 174.055 C 281.723 174.055,282.048 173.916,281.943 173.747 C 281.706 173.363,281.401 173.364,280.789 173.752 M71.749 175.002 C 72.214 175.497,72.647 175.901,72.712 175.901 C 73.029 175.901,71.890 174.481,71.432 174.306 C 71.142 174.194,71.285 174.508,71.749 175.002 M108.429 175.035 C 108.056 175.458,108.065 175.550,108.480 175.550 C 108.757 175.550,109.075 175.312,109.186 175.022 C 109.442 174.354,109.023 174.362,108.429 175.035 M292.156 178.633 C 292.921 179.452,293.673 180.123,293.827 180.123 C 294.124 180.123,293.475 179.451,291.792 178.017 C 291.175 177.492,291.321 177.738,292.156 178.633 M282.146 178.716 C 282.146 178.909,282.371 179.068,282.645 179.068 C 282.919 179.068,283.434 179.178,283.788 179.312 C 284.392 179.541,284.395 179.518,283.842 178.960 C 283.196 178.308,282.146 178.157,282.146 178.716 M303.818 185.342 C 303.718 185.503,304.098 185.635,304.661 185.635 C 305.225 185.635,305.604 185.503,305.505 185.342 C 305.405 185.180,305.026 185.048,304.661 185.048 C 304.297 185.048,303.918 185.180,303.818 185.342 M308.684 187.825 C 308.816 188.039,309.192 188.222,309.519 188.230 C 309.847 188.239,309.492 188.467,308.730 188.739 C 307.969 189.010,307.178 189.138,306.971 189.023 C 306.765 188.909,306.785 189.019,307.016 189.269 C 307.360 189.640,307.650 189.639,308.600 189.264 C 310.617 188.468,310.755 188.148,309.279 187.693 C 308.705 187.516,308.519 187.558,308.684 187.825 M334.438 192.005 C 334.345 192.155,334.953 192.273,335.789 192.269 C 336.625 192.264,337.236 192.142,337.147 191.996 C 336.934 191.648,334.654 191.655,334.438 192.005 M341.007 194.958 C 341.525 195.637,341.831 196.322,341.687 196.481 C 341.543 196.641,341.626 196.655,341.871 196.514 C 342.328 196.251,341.379 194.535,340.465 193.970 C 340.245 193.834,340.490 194.279,341.007 194.958 M212.251 197.110 C 211.923 197.640,212.293 197.667,213.193 197.178 L 214.072 196.700 213.254 196.756 C 212.804 196.787,212.353 196.946,212.251 197.110 M337.859 200.354 C 339.142 201.023,339.468 201.027,338.590 200.363 C 338.214 200.079,337.669 199.842,337.379 199.837 C 337.089 199.832,337.305 200.065,337.859 200.354 M249.591 204.661 C 250.133 205.484,250.644 206.157,250.726 206.157 C 250.980 206.157,249.633 204.015,249.105 203.579 C 248.830 203.352,249.049 203.839,249.591 204.661 M334.780 205.167 C 334.657 205.784,334.677 206.408,334.824 206.553 C 334.972 206.699,335.128 206.194,335.172 205.432 C 335.269 203.758,335.087 203.635,334.780 205.167 M344.708 205.339 C 345.050 205.981,345.016 206.132,344.502 206.266 C 344.041 206.387,344.085 206.437,344.679 206.468 C 345.615 206.516,345.727 205.751,344.885 205.056 C 344.356 204.620,344.339 204.647,344.708 205.339 M339.138 205.981 C 338.897 206.271,338.522 206.510,338.303 206.511 C 338.085 206.513,337.719 206.920,337.488 207.415 C 337.132 208.183,337.275 208.118,338.456 206.973 C 339.218 206.234,339.841 205.589,339.841 205.541 C 339.842 205.311,339.535 205.503,339.138 205.981 M353.386 206.860 C 353.267 207.054,353.495 207.212,353.893 207.212 C 354.291 207.212,354.617 207.054,354.617 206.860 C 354.617 206.667,354.389 206.508,354.110 206.508 C 353.832 206.508,353.506 206.667,353.386 206.860 M266.315 208.267 C 266.315 208.461,266.671 208.617,267.106 208.614 C 267.747 208.609,267.797 208.543,267.370 208.267 C 266.688 207.827,266.315 207.827,266.315 208.267 M351.803 208.255 C 351.803 208.455,352.080 208.622,352.419 208.625 C 352.945 208.629,352.958 208.680,352.507 208.971 C 352.056 209.262,352.068 209.313,352.595 209.317 C 353.424 209.325,353.374 208.732,352.507 208.267 C 352.030 208.012,351.803 208.008,351.803 208.255 M241.134 213.079 C 241.170 213.324,241.335 213.647,241.500 213.798 C 241.666 213.949,241.698 213.891,241.571 213.669 C 241.298 213.191,242.279 212.737,242.864 213.072 C 243.098 213.206,243.147 213.169,242.979 212.985 C 242.530 212.495,241.059 212.570,241.134 213.079 M287.259 215.243 C 287.391 215.500,287.626 216.133,287.782 216.650 C 288.010 217.404,288.072 217.447,288.096 216.866 C 288.113 216.467,287.877 215.834,287.573 215.459 C 287.268 215.083,287.127 214.986,287.259 215.243 M378.892 218.932 C 378.892 218.992,379.406 219.507,380.035 220.075 L 381.179 221.108 380.145 219.965 C 379.182 218.899,378.892 218.660,378.892 218.932 M277.549 226.146 C 276.694 226.517,274.983 227.958,275.172 228.148 C 275.265 228.241,275.713 227.922,276.167 227.439 C 276.620 226.956,277.192 226.561,277.437 226.561 C 277.682 226.561,277.981 226.403,278.100 226.209 C 278.344 225.814,278.320 225.812,277.549 226.146 M271.950 230.427 C 271.675 230.597,271.323 230.658,271.169 230.563 C 271.015 230.467,270.888 230.557,270.888 230.762 C 270.888 230.967,271.086 231.132,271.328 231.129 C 271.910 231.122,272.850 230.517,272.627 230.293 C 272.530 230.197,272.226 230.257,271.950 230.427 M270.242 231.047 C 270.297 231.385,270.198 231.900,270.020 232.190 C 269.748 232.635,269.786 232.647,270.257 232.265 C 270.576 232.007,270.738 231.516,270.635 231.122 C 270.411 230.265,270.104 230.207,270.242 231.047 M374.670 232.542 C 374.670 232.735,374.908 232.894,375.198 232.894 C 375.488 232.894,375.726 232.735,375.726 232.542 C 375.726 232.348,375.488 232.190,375.198 232.190 C 374.908 232.190,374.670 232.348,374.670 232.542 M359.191 236.215 C 359.191 236.881,359.313 237.501,359.461 237.593 C 359.610 237.684,359.672 237.140,359.600 236.382 C 359.438 234.681,359.191 234.580,359.191 236.215 M333.949 235.608 C 334.481 235.689,335.352 235.689,335.884 235.608 C 336.416 235.528,335.981 235.462,334.916 235.462 C 333.852 235.462,333.417 235.528,333.949 235.608 M301.847 236.060 C 301.847 236.253,302.164 236.412,302.551 236.412 C 302.938 236.412,303.254 236.253,303.254 236.060 C 303.254 235.866,302.938 235.708,302.551 235.708 C 302.164 235.708,301.847 235.866,301.847 236.060 M304.837 236.060 C 304.957 236.253,305.511 236.412,306.069 236.412 C 306.626 236.412,307.180 236.253,307.300 236.060 C 307.431 235.847,306.945 235.708,306.069 235.708 C 305.192 235.708,304.706 235.847,304.837 236.060 M339.324 237.233 C 340.102 237.759,341.249 238.222,341.249 238.009 C 341.249 237.852,339.136 236.763,338.830 236.763 C 338.720 236.763,338.942 236.975,339.324 237.233 M360.408 237.138 C 360.136 237.578,360.692 237.729,361.653 237.476 L 362.533 237.245 361.557 237.051 C 361.020 236.945,360.503 236.984,360.408 237.138 M284.609 237.451 C 284.899 237.647,285.440 237.810,285.811 237.813 C 286.711 237.821,286.430 237.619,285.136 237.330 C 284.366 237.158,284.223 237.190,284.609 237.451 M268.778 239.873 C 268.779 240.228,271.516 240.337,271.729 239.992 C 271.832 239.825,271.210 239.678,270.347 239.665 C 269.484 239.652,268.778 239.746,268.778 239.873 " stroke="none" fill="#d4d4d4" fill-rule="evenodd"></path></g></svg>