<?xml version="1.0" encoding="utf-8"?>
<!-- Generator: Adobe Illustrator 25.0.0, SVG Export Plug-In . SVG Version: 6.00 Build 0)  -->
<svg version="1.1" id="Layer_1" xmlns="http://www.w3.org/2000/svg" xmlns:xlink="http://www.w3.org/1999/xlink" x="0px" y="0px"
	 viewBox="0 0 512 512" style="enable-background:new 0 0 512 512;" xml:space="preserve">
<style type="text/css">
	.st0{display:none;}
	.st1{fill:#FFFFFF;}
	.st2{fill-rule:evenodd;clip-rule:evenodd;fill:#FFFFFF;}
</style>
<g id="Layer_4" class="st0">
	
		<image style="display:inline;overflow:visible;enable-background:new    ;" width="914" height="764" xlink:href="39BBF3F4.jpg"  transform="matrix(0.5619 0 0 0.5619 -1.3284 41.3612)">
	</image>
</g>
<g id="Layer_5">
	<path class="st1" d="M307.1,77.4l0.4,0.2l0.1-0.2l0.7,0.4l0.1,0.1h0.4v-0.1l0,0l0.1,0.1h0.1V78c0,0.1,0.1,0.2,0.1,0.2l0.3,0.5
		l0.2-0.1l0.1,0.1h0.1l0.1-0.1l0.4-0.1l0,0h0.1l0.2,0.3l0.2-0.1l0.1-0.1l0.2-0.1v-0.2h0.1v-0.2H311v-0.2c0,0,0-0.1,0.1-0.1
		s0.1-0.1,0.1-0.1l-0.2-0.1h-0.2l-0.2-0.1l0.2-0.2l0.2-0.2h0.2l0.1,0.2l0.1,0.1l0.1,0.2l0.3-0.1l-0.1-0.4l-0.3,0.1l-0.1-0.3l0.1-0.2
		l-0.1-0.4v-0.1l0.2-0.1v0.1l-0.4,0.1l0.1,0.3l-0.4,0.1l-0.1-0.2h-0.3v-0.1h0.3l0,0h-0.2l-0.1-0.3h-0.1v-0.2v-0.1h0.5h0.2v-0.1
		l-0.1-0.2h0.1l0.1,0.4l0.1-0.1l-0.1-0.3H311l-0.1-0.3l-0.3,0.1h-0.2v-0.2l0.1-0.1l-0.1-0.1l-0.3,0.5v0.1l0.1,0.2h-0.1l-0.1-0.1
		h-0.2h-0.1c0,0,0,0,0,0.1s0,0.1,0,0.1h-0.1h-0.1v0.1h-0.2l0,0l0.2,0.4l-0.1,0.1l-0.1,0.1l-0.1,0.1l-0.2-0.3l0.1-0.1l-0.1-0.3h-0.1
		v-0.1h0.1l-0.1-0.3l0.3-0.2l-0.3-0.2h-0.1l-0.1,0.1l-0.1-0.1h-0.1l-0.1-0.3h0.2v-0.1l-0.3-0.1l0.3-0.1c0,0,0.1,0,0.1,0.1l0.2,0.3
		l0.2-0.1l-0.2-0.3h-0.2l-0.1-0.3l-0.3,0.3h-0.2l-0.2-0.2l-0.2,0.2v0.1h0.1l0.1,0.1l0.1-0.1l0.2,0.1v0.1h-0.1l0.1,0.3v0.1l0.1,0.2
		v0.1h-0.1l-0.2,0.2l-0.2,0.2l0.3,0.1v0.1l-0.1,0.1l0.1,0.1l0.1,0.1l-0.2,0.3l0.2,0.3v0.1l-0.1,0.1H308h-0.1v0.1l-0.1,0.1h-0.1
		l-0.1-0.1L307.1,77.4L307.1,77.4z"/>
	<path class="st1" d="M311.3,74.7l-0.1-0.3l0.1-0.1l0.1,0.1h0.1v-0.2l0.4-0.1v-0.3l0.3-0.1l0.1,0.1v0.1c0,0-0.3,0.1-0.3,0.2
		c0,0,0,0.1,0.1,0.1s0.3,0,0.3,0s0.1-0.1,0.2-0.1v-0.3v-0.1c0,0,0.5-0.1,0.5-0.2l0.2-0.1l-0.1-0.1v-0.1c0,0,0.1-0.1,0.2-0.1h0.1
		l-0.2-0.2v-0.3l-0.4,0.1L313,73h0.1v0.1v0.1l0,0H313l-0.2,0.1l-0.1,0.1l-0.1-0.1h-0.1l0,0l-0.5,0.1c0,0,0-0.1-0.1-0.1h-0.3
		c0,0,0.1,0.1,0,0.1s-0.5,0-0.5,0v0.1H311l0,0l-0.7,0.1l0.3,0.5h0.4l-0.1,0.1l0,0h0.1l0.4-0.1v0.1v0.1h0.1L311.3,74.7L311.3,74.7z"
		/>
	<path class="st1" d="M312.9,75.1l-0.1-0.3l0.1-0.1l-0.1-0.2h-0.3v0.1h-0.3v0.1v0.1v0.1V75l-0.3,0.1l0,0h0.3V75h0.1c0,0,0.1,0,0.2,0
		h0.1v0.1C312.6,75.1,312.9,75.1,312.9,75.1z"/>
	<path class="st1" d="M311.7,76.6c0,0-0.1,0.1-0.1,0l-0.1-0.4l0.2-0.1V76h0.2l-0.1,0.2v0.1L311.7,76.6L311.7,76.6z"/>
	<path class="st1" d="M310.3,74.1l-0.4,0.2l-0.1-0.1l0.1-0.1l-0.1-0.1l0,0l0.3-0.2L310.3,74.1z"/>
	<polygon class="st1" points="309.9,73.6 309.7,73.8 309.5,73.6 309.7,73.4 	"/>
	<path class="st1" d="M309.3,73.7l0.2,0.2l-0.1,0.1l-0.2-0.2L309.3,73.7L309.3,73.7z"/>
	<path class="st1" d="M312.1,72.7l-0.4,0.1v-0.1l0,0l0.3-0.1L312.1,72.7z"/>
	<polygon class="st1" points="312.8,72.5 312.8,72.3 312.9,72.3 312.9,72.1 312.7,72.2 312.7,72.5 	"/>
	<path class="st1" d="M311.6,72.1h-0.3V72C311.4,72,311.5,72,311.6,72.1C311.5,72,311.6,72.1,311.6,72.1z"/>
	<path class="st1" d="M311.2,75.2C311.2,75.2,311.2,75.1,311.2,75.2c0.1,0,0.2,0.1,0.2,0.1v0.1l0.1,0.3h-0.1L311.2,75.2L311.2,75.2z
		"/>
	<polygon class="st1" points="311.5,74.8 311.7,74.7 311.6,74.6 311.4,74.7 	"/>
</g>
<g id="svgg_1_">
	<path id="path0_1_" class="st2" d="M375.8,86.5c-0.2,0.1-0.8,0.2-1.3,0.3c-0.5,0-0.9,0.1-1,0.3c-0.1,0.2-0.6,0.3-1.4,0.3
		c-0.8,0-1.5,0.2-1.9,0.4c-0.6,0.3-0.9,0.3-2.7,0.1c-1.9-0.2-2.1-0.2-2.5,0.2c-0.3,0.2-1,0.4-1.9,0.5c-1.9,0.2-2,0.2-2.3,1.1
		c-0.1,0.4-0.4,0.8-0.5,0.8c-0.3,0-0.5,0.8-0.4,1.7c0.2,1.3-0.9,3.1-1.7,2.7c-0.5-0.3-1.6,0.1-1.6,0.6c0,0.4-0.1,0.4-1.9,0.8
		c-0.5,0.1-1.3,0.5-1.8,0.8c-0.6,0.4-1.4,0.7-2.1,0.8c-0.6,0.1-1.2,0.3-1.4,0.4c-0.2,0.2-0.4,0.2-0.8,0c-0.9-0.3-2.9-0.2-3.7,0.2
		c-0.4,0.2-0.9,0.5-1.2,0.6c-0.3,0.1-0.6,0.4-0.7,0.7c-0.1,0.3-0.5,0.6-0.9,0.7c-0.9,0.3-1.8,1.6-1.6,2.2c0.1,0.3,0,0.5-0.3,0.8
		c-0.2,0.2-0.7,0.6-1,0.9c-0.3,0.3-0.7,0.6-0.8,0.6c-0.5,0-0.7,0.4-0.7,1.4c0,0.9-1.2,2.2-2.1,2.2c-0.5,0-0.6,0.2-0.4,0.7
		c0.2,0.3,0.1,0.5,0,0.6c-0.1,0.1-0.2,0.5-0.2,0.9c0,0.5-0.1,0.7-0.6,1c-0.8,0.6-1.9,1.1-2.1,0.9c-0.1-0.1-0.2,0.1-0.2,0.4
		c-0.1,0.4-0.2,0.4-0.6,0.4c-0.6,0-0.7,0.3-0.3,0.7c0.2,0.2,0.1,0.3-0.1,0.5c-0.2,0.2-0.4,0.5-0.5,0.8c-0.2,0.6-0.7,0.7-1.1,0.1
		c-0.3-0.5-0.8-0.5-1.2,0c-0.2,0.4-0.4,0.4-0.7,0.2c-0.6-0.3-0.9-0.3-0.9,0.3c0,0.3-0.1,0.6-0.3,0.6c-0.2,0.1-0.3,0.3-0.3,0.4
		c0,2-0.6,2.8-2,2.8c-1,0-1.3,0.1-1.5,0.6c-0.2,0.5-0.5,0.4-0.4,0c0.1-0.3,0-0.4-0.2-0.4c-0.4,0-0.7,0.2-0.7,0.6
		c0,0.2-0.1,0.3-0.2,0.4c-0.1,0-0.2-0.1-0.2-0.2c0-0.6-0.8-0.3-1.1,0.4c-0.2,0.7-0.8,1.2-1.4,1.3c-0.2,0-0.4,0.1-0.4,0.2
		c0,0.1-0.2,0.2-0.3,0.2c-0.6-0.1-0.9,0-0.9,0.3c0,0.2,0.1,0.3,0.2,0.3c0.1,0,0.2,0.1,0.2,0.2c0,0.2-1,0.2-1.4-0.1
		c-0.3-0.2-0.6,0.4-0.3,0.7c0.4,0.4,0.3,0.6-0.2,0.4c-0.3-0.1-0.5,0-0.9,0.6c-0.3,0.4-0.6,0.7-0.7,0.7c-0.3,0-0.3,0.1,0,0.6
		c0.2,0.3,0.2,0.4,0,0.7c-0.4,0.4-0.5,0.4-0.8-0.2c-0.4-0.7-0.7-0.6-0.9,0.2c-0.1,0.4-0.3,0.8-0.4,1c-0.3,0.3-0.6,1.9-0.7,3.2
		c0,0.3-0.1,0.6-0.2,0.8c-0.1,0.2-0.1,0.3,0.1,0.4c0.2,0.1,0.2,0.3-0.1,0.9c-0.2,0.4-0.3,1-0.3,1.3s-0.1,0.6-0.2,0.7
		c-0.1,0.1-0.2,0.4-0.3,0.9c-0.2,1.5-0.4,2-0.8,2.4c-0.4,0.4-0.5,1.1-0.2,1.4c0.2,0.2,0.2,0.3,0,0.6c-0.1,0.3-0.1,0.5,0,0.6
		c0.1,0.1,0.1,0.2,0,0.3c-0.1,0.1-0.2,0.5-0.2,0.9c0,0.6-0.1,0.8-0.4,0.8c-0.2,0-0.6,0.2-0.9,0.5c-0.4,0.4-0.7,0.5-1.3,0.5
		c-0.9,0-2,0.8-2.1,1.6c-0.1,0.4-0.3,0.6-1,0.8c-0.5,0.2-1,0.5-1.2,0.7c-0.1,0.2-0.6,0.8-1,1.2c-0.5,0.5-1,1.3-1.2,2.1
		c-0.3,0.8-0.6,1.4-1,1.6c-0.3,0.2-0.6,0.4-0.7,0.6c-0.1,0.1-1.2,0.5-2.5,0.8c-2.9,0.7-2.9,0.7-3.9,0.9c-2.7,0.7-3.6,0.8-4.5,0.8
		c-0.8,0-1.1,0.1-1.4,0.5c-0.3,0.3-0.7,0.5-0.9,0.5c-0.6,0-0.7,1.1-0.2,2c0.4,0.6,0.4,2.3,0,2.5c-0.1,0.1-0.5,0.8-0.7,1.6
		c-1.2,3.7-2.7,7.4-3.1,7.8c-0.2,0.2-0.3,0.5-0.3,0.7c0,0.7-0.6,2.8-1,3.6c-0.2,0.4-0.4,1-0.4,1.3c0.1,0.8-1.5,4-2,4
		c-0.5,0-3.2,1.7-3.2,2c0,0.1-0.3,0.2-0.6,0.3c-0.4,0.1-0.8,0.3-1,0.4c-0.8,0.6-5.4,0.3-6.1-0.4c-0.7-0.6-2.2-0.6-3,0.1
		c-0.3,0.3-0.6,0.5-0.7,0.5c-0.2,0-1.4,0.9-1.5,1.1c0,0.1-0.3,0.1-0.6,0.1s-0.8,0.1-1.2,0.2c-0.4,0.1-1,0.1-1.7,0
		c-0.8-0.2-1.2-0.1-1.5,0c-0.5,0.3-1,0.2-2-0.5c-0.4-0.2-1.2-0.6-1.7-0.8c-0.6-0.2-1.5-0.6-2-0.8c-0.7-0.4-1-0.4-1-0.2
		c0,0.9-1.4,0.9-1.8,0c-0.1-0.3-0.3-0.5-0.5-0.5c-0.7,0-1.9-0.9-1.9-1.4c0-0.2-0.1-0.4-0.3-0.4c-0.1,0-0.4-0.2-0.6-0.4
		c-0.2-0.2-0.5-0.4-0.6-0.3c-0.1,0.1-0.3,0-0.5-0.1c-0.2-0.2-0.4-0.1-0.8,0.2c-0.4,0.3-0.8,0.4-1.3,0.3c-0.5-0.1-0.7,0-0.7,0.1
		c0,0.2-0.1,0.2-0.3,0c-0.4-0.4-1.8-0.6-1.9-0.4c-0.2,0.4-0.7,0.2-1.1-0.5c-0.3-0.4-0.6-0.7-0.8-0.7c-0.2,0-0.3-0.1-0.3-0.3
		c0-0.2-0.1-0.4-0.3-0.4c-0.2-0.1-0.2-0.2-0.2-0.3c0.2-0.3-0.3-0.8-0.8-0.8c-0.5,0-0.9-0.4-0.8-0.7c0.1-0.1-0.1-0.4-0.4-0.5
		c-0.3-0.1-0.5-0.4-0.5-0.5c0-0.1-0.2-0.1-0.4-0.1c-0.3,0.1-0.5,0-0.7-0.4c-0.2-0.4-0.5-0.5-0.7-0.4c-0.3,0.1-0.4,0-0.6-0.4
		c-0.1-0.3-0.3-0.5-0.7-0.5c-0.3,0-0.6-0.1-0.6-0.3c-0.1-0.2-0.4-0.4-0.8-0.6c-0.4-0.2-0.9-0.7-1.3-1.2c-0.7-1-1.5-1.2-1.8-0.4
		c-0.2,0.5-0.6,0.5-1.2,0c-0.2-0.2-0.4-0.2-0.5-0.2c-0.1,0.1-0.6,0-1.1-0.1c-1-0.3-2.6,0.1-3.4,0.8c-0.2,0.2-0.7,0.3-1.1,0.3
		c-0.5,0-0.7,0.1-0.8,0.3c-0.2,0.5-0.7,0.3-0.6-0.2c0.1-0.6-0.4-0.7-0.6-0.2c-0.1,0.3-0.2,0.3-0.4,0.1c-0.4-0.4-0.6-0.3-0.5,0.3
		c0.1,0.4,0,0.5-0.3,0.6c-0.3,0-0.4,0.2-0.5,0.7c0,0.4-0.3,0.8-0.8,1.1c-0.5,0.3-0.8,0.8-1,1.3c-0.1,0.5-0.4,0.8-0.5,0.7
		c-0.3-0.2-0.8,0.4-0.6,0.9c0.1,0.3,0,0.6-0.2,0.8c-0.8,1-0.8,1.3-0.4,1.7l0.5,0.4l-0.5,0.2c-0.6,0.3-0.7,0.7-0.3,1.1
		c0.4,0.3-0.1,1.5-0.6,1.7c-0.5,0.2-0.7,0.5-0.7,1.1c0,0.4-0.1,0.6-0.3,0.6c-0.5,0-0.3,0.6,0.2,0.7c0.6,0.2,0.6,0.4,0,0.8
		c-0.3,0.2-0.5,0.5-0.5,0.7s-0.1,0.4-0.3,0.4c-0.4,0-0.4,0.5,0,0.8c0.3,0.1,0.3,0.3,0.1,0.5c-0.1,0.1-0.2,0.7-0.2,1.2
		c0,1.1-0.2,1.3-1,1.2c-0.5-0.1-0.5,0-0.5,0.7c0,0.6-0.1,0.9-0.4,1c-0.2,0.1-0.4,0.4-0.5,0.6c-0.2,0.6-0.6,1-1,1
		c-0.2,0-0.3,0.2-0.3,0.7c0,1.1-0.5,1.5-1.3,1.2c-0.8-0.4-1.4-0.4-1.5-0.1c0,0.1-0.4,0.3-0.8,0.4c-0.5,0.2-0.7,0.3-0.8,0.8
		c0,0.4-0.2,0.6-0.4,0.7c-0.2,0.1-0.4,0.3-0.4,0.5c0,0.4-1.4,1.1-2.2,1.1c-0.6,0-1.9,1.5-2.1,2.4c-0.1,0.5-0.3,0.9-0.4,1.1
		c-0.2,0.1-0.3,0.4-0.3,0.6c0,0.4-0.9,1.4-1.2,1.4c-0.1,0-0.2,0.1-0.2,0.2c0,0.1-0.2,0.4-0.4,0.6c-0.2,0.2-0.5,0.7-0.7,1
		c-0.2,0.3-0.5,0.6-0.7,0.6c-0.2,0-0.7,0.2-1.2,0.4c-0.8,0.4-1.2,0.4-2.6,0.3c-1.5-0.1-1.7-0.1-2.1,0.3c-0.4,0.5-0.6,1.1-0.2,1.1
		c0.5,0,0.1,2.1-0.4,2.4c-0.3,0.2-0.7,0.5-1,0.8c-0.5,0.5-2,0.8-2.5,0.5c-0.3-0.3-1.3-0.4-1.9-0.2c-0.3,0.1-0.8,0-1.5-0.3
		c-1.2-0.5-3.1-0.5-3.8-0.2c-0.2,0.1-0.9,0.3-1.5,0.3c-0.6,0-1.4,0.2-1.8,0.4c-0.7,0.3-0.8,0.3-1.7,0c-0.5-0.2-1.2-0.3-1.6-0.3
		c-0.5,0-0.8-0.2-1.2-0.6c-0.3-0.3-0.7-0.6-0.9-0.6c-0.2,0-0.7-0.1-1-0.1c-0.7-0.1-3,0.8-3.5,1.4c-0.1,0.2-0.4,0.3-0.7,0.3
		c-0.5,0-0.8,0.2-1.1,0.7c-0.2,0.4-0.2,0.3-0.2-0.4c0-0.6-0.1-0.8-0.5-0.9c-0.3-0.1-0.5-0.3-0.4-0.4c0.1-0.1,0-0.4-0.2-0.6
		c-0.2-0.2-0.3-0.7-0.3-1.1c0-0.4-0.1-1-0.2-1.3c-0.2-0.4-0.2-0.5,0-0.7c0.4-0.4,0.3-2.6-0.1-3c-0.4-0.4-0.2-3.1,0.2-3.4
		c0.7-0.5,1.5-1.4,2-2.3c0.3-0.5,0.8-1.3,1.3-1.8c0.9-1,1.4-1.9,1.4-2.7c0-0.3,0.2-0.6,0.5-0.8c0.6-0.4,0.7-1,0.1-1.2
		c-0.5-0.1-0.5-0.3-0.2-0.7c0.2-0.2,0.2-0.3,0-0.5c-0.1-0.2-0.2-0.5-0.1-0.7c0.1-0.2,0-0.5-0.1-0.7c-0.1-0.2-0.1-0.5,0-1
		c0.2-0.7,0.2-0.8-0.2-1.2c-0.4-0.4-0.4-0.6-0.3-1.3c0.1-0.6,0.1-0.8-0.2-0.8c-0.2,0-0.3-0.2-0.3-0.8c0-0.9-0.1-1-0.6-0.5
		c-0.3,0.3-0.4,0.3-0.2-0.3c0.1-0.4,0-0.7-0.2-0.9c-0.2-0.1-0.3-0.5-0.3-0.7c0-0.2-0.3-0.7-0.6-1c-0.5-0.5-0.6-0.7-0.5-1.3
		c0.1-0.7,0.1-0.8-0.4-0.8c-0.5,0-0.5,0,0.1-0.5c0.7-0.6,0.6-1.1-0.4-1.9c-0.8-0.6-0.7-1.7,0.1-1.9c0.3-0.1,0.4-0.2,0.3-0.4
		c-0.1-0.2-0.2-0.3-0.4-0.2c-0.2,0.1-0.4,0.2-0.6,0.2c-0.3,0.1-0.3,0-0.2-0.4c0.1-0.5,0.1-0.5-0.2-0.4c-0.3,0.1-0.3,0-0.3-0.4
		c0-0.3-0.1-0.5-0.2-0.5c-0.1,0-0.3,0-0.4-0.1c-0.3,0-0.8-0.9-0.8-1.4c0-0.2-0.2-0.4-0.3-0.5c-0.3-0.1-0.3-0.3-0.1-0.5
		c0.2-0.2,0.1-0.4-0.4-0.7c-0.4-0.3-0.6-0.7-0.6-0.9c0-0.3-0.1-0.5-0.4-0.5c-0.4,0-0.7-0.5-0.4-0.8c0.3-0.3,0.1-1.2-0.3-1.1
		c-0.2,0-0.3-0.1-0.3-0.3c0-0.8-1.3-3-1.7-3c-0.1,0-0.4-0.2-0.6-0.5c-0.2-0.3-0.5-0.5-0.6-0.5c-0.2,0-0.5-0.3-0.7-0.8
		c-0.5-0.8-1.9-1.7-2.4-1.5c-0.2,0.1-0.4,0-0.6-0.2c-0.1-0.2-0.4-0.3-0.6-0.3c-0.4,0-1.2-0.8-1.2-1.1c0-0.1-0.3-0.4-0.6-0.6
		c-0.3-0.2-0.8-0.7-1-1c-0.2-0.3-0.5-0.6-0.6-0.6c-0.1,0.1-0.2,8.2-0.2,67.9c0,26.5,0,30.3-0.3,30.2c-0.2-0.1-0.6,0-1,0.1
		c-0.4,0.1-0.9,0.2-1.2,0.2c-0.5-0.1-1.5,0.8-1.5,1.3c0,0.4-1.3,0.5-1.5,0.1c-0.2-0.3-0.8-0.2-1.4,0.2c-0.4,0.3-0.8,0.4-1.6,0.4
		c-1.4-0.1-2,0.2-2.4,1c-0.2,0.4-0.5,0.8-0.7,1c-0.2,0.2-0.4,0.6-0.5,1.3c-0.2,1.8-1.9,2.8-4.2,2.5c-2-0.3-2.8,2.6-1.1,3.8
		c0.5,0.4,0.3,0.8-0.3,0.7c-0.4-0.1-0.6,0.1-1.1,0.6c-1,1.1-2.6,1.3-3.7,0.6c-0.4-0.3-0.9-0.5-1.1-0.4c-0.2,0.1-0.3,0-0.3-0.3
		c0-1.2-1-1.7-4.4-2c-1.3-0.1-2.5-0.2-2.6-0.1c-0.1,0.1-0.9,0.1-1.7,0.2c-1.4,0.1-2.7,0.4-3.1,0.8c-0.1,0.1-0.5,0.2-0.8,0.2
		c-0.3,0-1.1,0.1-1.7,0.1c-0.6,0.1-1.1,0-1.2-0.1c-0.2-0.2-2.5-0.2-2.8,0c-0.1,0.1-0.3,0.1-0.5,0.1c-0.1-0.1-0.4,0-0.6,0.2
		c-0.3,0.3-0.4,0.3-0.6,0.1c-0.1-0.1-0.5-0.2-0.8-0.2c-0.3,0-0.7-0.1-0.9-0.3c-0.2-0.2-0.7-0.3-1-0.3c-0.5,0-0.7-0.1-1.1-0.8
		c-0.5-0.8-1.3-1.4-2-1.7c-0.2-0.1-0.3-0.2-0.3-0.3c0-0.1-0.2-0.2-0.4-0.2c-0.9,0-3.4-0.2-3.5-0.3c-0.3-0.2-1.9-0.1-2.1,0.2
		c-0.6,0.7-1.8,0-1.8-1.1c0-0.3-0.1-0.6-0.3-0.7c-0.5-0.2-1-0.1-1.1,0.1c0,0.1-0.3,0.1-0.7,0c-0.5-0.1-0.8-0.1-1.4,0.2
		c-1.3,0.6-1.3,0.6-0.9-1.1c0.1-0.2,0.1-0.8,0.2-1.4l0.1-1.1l-0.6-0.1c-0.5,0-0.7-0.2-0.7-0.5c-0.1-1-0.3-1.3-0.5-1.3
		c-0.9,0-0.4-1.5,0.4-1.6c0.9-0.1,1.3-1.5,0.7-2.3c-0.2-0.3-0.4-0.8-0.4-1.1c0-1.1-1.6-2.7-2.2-2.2c-1.4,1.2-2.7,0.2-2.5-1.9
		c0.1-0.9,0.1-1.2-0.2-1.4c-0.2-0.1-0.3-0.2-0.3-0.1c0,0.3-0.8-0.3-1.1-0.9c-0.5-0.9-2.5-0.9-2.8-0.1c-0.1,0.2-0.2,0.2-0.5,0
		c-0.3-0.1-0.5-0.1-0.7,0c-0.1,0.1-0.5,0.2-0.8,0.1c-0.8-0.2-1.1,0.3-1.1,1.6c0,1.3-0.1,1.4-0.7,1.1c-0.7-0.3-0.8-0.1-0.4,0.5
		c0.4,0.6,0.4,0.6-0.2,0.7c-0.7,0.1-0.8,0.2-0.5,0.5c0.5,0.5,0.3,1.2-0.3,0.9c-1.2-0.8-1.5,0.2-0.6,1.6c0.7,1,0.7,1,0.3,1.4
		c-0.2,0.2-0.4,0.7-0.4,1.1c0,0.4-0.1,0.8-0.4,1c-0.2,0.2-0.4,0.5-0.4,0.6c0,0.4-0.8,0.4-0.9,0c-0.2-0.6-2.1,0.1-2.1,0.8
		c0,0.4-1.1,1.1-2.1,1.2c-1,0.1-1.4,0.5-1,0.7c0.2,0.1,0.2,0.3,0,0.6c-0.3,0.5,0,1.1,1.5,2.6c0.4,0.4,0.7,0.8,0.7,1.1
		c0,0.5,0.4,2.2,0.8,3.1c0.1,0.3,0.4,0.5,0.6,0.5c0.5,0,2.4,2.5,2.4,3.2c0,0.4,0.2,0.7,0.5,0.9c1.4,1,1.7,1.3,1.7,1.9
		c0,0.3,0.1,0.9,0.3,1.3c0.2,0.4,0.3,1,0.3,1.2s0.2,0.8,0.4,1c0.2,0.3,0.4,0.7,0.4,0.9c0,0.2,0.4,1,0.8,1.6s1,1.8,1.2,2.6
		c0.2,0.8,0.6,1.7,0.8,2c0.2,0.4,0.3,0.8,0.2,1.1c-0.1,0.3,0,0.7,0.2,1c0.4,0.6,0.9,2.1,1.1,3.6c0.3,1.9,0.8,3.5,1,3.8
		c0.1,0.2,0.2,0.3,0.1,0.4c-0.2,0.2,0.2,1.3,0.7,1.9c0.4,0.6,1,2.5,1.3,4.3c0.1,0.6,0.4,1.3,0.6,1.6c0.2,0.3,0.4,0.8,0.5,1.2
		c0.1,0.3,0.3,0.7,0.4,0.9c0.2,0.1,0.3,0.8,0.4,1.4c0.1,0.7,0.3,1.5,0.6,1.9c0.3,0.4,0.5,0.8,0.5,0.9c0,0.1,0.3,0.6,0.7,1.2
		c0.8,1.1,1.4,2.1,1.9,3.3c0.2,0.4,0.5,0.8,0.6,0.8c0.1,0,0.2,0.3,0.2,0.6c0,0.8,0.7,2.1,1.5,3c0.4,0.4,0.7,0.9,0.7,1.2
		c0,0.8,1.6,4,2.9,5.9c0.6,0.9,1.3,2.1,1.5,2.6c0.2,0.5,0.7,1.4,1.1,1.9c0.4,0.5,0.7,1,0.7,1.1c0,0.1,0.4,0.5,0.8,0.9
		c0.4,0.4,0.9,0.9,0.9,1.2c0.3,1.1,1.4,2.9,2.7,4.1c0.3,0.3,0.8,1,1.1,1.5c0.3,0.5,0.8,1.1,1.1,1.5c0.6,0.7,1.7,2.1,2.8,3.8
		c0.6,0.9,1.1,2.7,1,3.3c-0.1,0.2,0,0.5,0.2,0.7c0.8,0.8,1.1,1.5,1,2.5c0,0.6,0.1,1.5,0.4,2.3c0.2,0.7,0.4,1.5,0.4,1.8
		c-0.1,0.7,0.2,2.4,0.5,3c0.6,1.5,0.6,2.6,0.1,3.1c-0.4,0.4-0.4,0.6-0.2,1.3c0.8,2.7-0.4,7.6-2.1,8.8c-0.3,0.2-1.1,0.8-1.7,1.4
		c-0.7,0.7-1.3,1-1.5,1c-0.2-0.1-0.5-0.1-0.7-0.1c-0.2,0-0.6-0.2-0.8-0.4c-0.2-0.2-0.6-0.5-0.8-0.6c-0.2-0.1-0.4-0.4-0.4-0.6
		c0-0.4-0.5-0.5-0.7-0.2c-0.1,0.1-0.3,0.2-0.4,0.1c-0.4-0.2-0.9,0.6-1,1.5c0,0.6-0.1,0.7-0.6,1c-0.6,0.3-0.9,1-0.5,1
		c0.4,0,0.6,0.8,0.3,1.3c-0.3,0.5-0.3,0.6,0,1c0.2,0.2,0.3,0.8,0.3,1.2c0,0.4,0.1,0.9,0.2,0.9s0.2,0.3,0.2,0.5s0.1,0.4,0.2,0.5
		c0.3,0.2,1.4-0.3,1.3-0.6c-0.1-0.1,0-0.3,0.2-0.4c0.9-0.6,2,0.4,1.8,1.6c-0.1,0.8,0.6,1.8,1.2,1.8c0.1,0,0.3,0.2,0.6,0.4
		c0.8,0.8,0.3,1.6-0.5,0.8c-0.9-1-1.6-1.8-1.9-2.5c-0.2-0.5-0.5-0.8-0.7-0.8c-0.4,0-0.4,0.2,0,0.5c0.3,0.2,0.3,0.3-0.1,0.3
		c-0.6,0-0.7,0.2-0.4,0.6c0.1,0.2,0.2,0.3,0.2,0.4c-0.1,0.2,0,0.5,0.2,0.5c1.2,0,4.5,4.2,4.3,5.5c0,0.3,0.3,0.6,1.1,1
		c1.7,1,2.7,2.4,2.8,3.9c0,0.7,0.1,1.1,0.3,1.1c0.1,0,0.4,0.3,0.6,0.7c0.2,0.4,0.5,0.8,0.7,0.8c0.6,0.2,1.5,1.9,1.4,2.8
		c0,0.6,0.2,1.2,0.6,2c0.9,1.7,0.6,3-0.6,2.5c-0.3-0.1-0.6-0.2-0.7-0.1c-0.1,0-0.3,0-0.5,0.1c-0.2,0-0.6,0.9-0.6,1.5
		c0,0.3-0.1,0.5-0.2,0.5c-0.1,0-0.4,0.4-0.7,0.8c-0.6,0.8-0.3,1.7,0.3,1.5c0.2-0.1,0.2,0.2,0.2,0.7c-0.1,0.6-0.2,0.9-0.4,0.9
		c-0.7,0.2-0.4,1.5,0.4,1.5c0.3,0,0.8,1.1,0.8,1.8c0,0.7,1.1,2.4,1.7,2.6c0.9,0.4,1.1,0.3,0.8-0.3c-0.2-0.3-0.3-0.6-0.2-0.7
		c0.5-0.8,0.1-3.4-0.5-3.4c-0.8,0,0.5-1.9,1.6-2.4c1.4-0.5,6.4-0.4,7.1,0.2c0.1,0.1,0.4,0.5,0.6,0.9l0.4,0.7l-0.5,0.4
		c-0.5,0.4-0.5,0.9,0.1,1.7c0.2,0.3,0.2,0.5-0.2,1c-0.4,0.5-0.5,0.8-0.4,1.2c0.1,0.4,0,0.6-0.3,0.8c-1.1,0.8,0.6,1.7,2.1,1.1
		c0.6-0.2,1.3-0.4,1.7-0.4c0.4,0,0.7-0.1,0.8-0.2c0.3-0.5,2.5,0.3,2.5,0.9c0,0.4,0.8,0.9,1.5,0.9c0.3,0,0.7,0.1,0.9,0.2
		c0.2,0.1,0.7,0.1,1.2-0.1l0.9-0.3l0.6,0.7c1,1.3,1.2,1.9,0.8,2.4c-0.2,0.2-0.4,0.5-0.4,0.6c0,0.1-0.2,0.3-0.4,0.5
		c-1.2,1.1-0.5,1.8,1.5,1.2c0.7-0.2,0.8-0.2,1.3,0.4c0.3,0.3,0.9,0.7,1.3,0.8c0.5,0.2,0.9,0.5,1.1,0.9c0.2,0.3,0.5,0.6,0.7,0.7
		c0.2,0.1,0.6,0.3,0.9,0.5s0.7,0.6,1,0.8c0.6,0.4,1.4,0.4,1.7,0c0.2-0.3,0.3-0.3,0.7-0.1c0.3,0.1,0.7,0.1,1.1,0
		c0.3-0.1,0.8-0.1,1-0.1c0.2,0.1,0.6,0,1-0.1c0.5-0.2,0.7-0.2,1.8,0.6c1.6,1.1,3.5,1.1,3.3,0.1c-0.2-0.9,1.9-2.7,3.5-3
		c0.6-0.1,0.9-0.3,1.2-0.8c0.3-0.4,0.7-0.8,1.1-0.9c0.3-0.1,0.8-0.4,1-0.6c0.2-0.2,0.6-0.5,1-0.7c0.4-0.2,0.9-0.7,1.2-1.2
		c1.2-1.9,4.8-2.6,8.6-1.8c1.5,0.3,1.7,0.3,2,0.1c0.4-0.4,0.2-1.3-0.2-1.5c-0.7-0.3,1.3-0.9,3.1-1c1.8-0.1,2-0.1,3.9,0.6
		c3.2,1.2,3.5,1.3,4.7,1c1.4-0.3,2.1-0.6,2.3-1c0.4-0.7,2.8-1.1,3.9-0.5c1,0.5,3.1,0.9,4,0.6c0.4-0.1,1.1-0.3,1.5-0.4
		c0.9-0.2,2.4-1.3,2.4-1.7c0-0.1,0.1-0.3,0.2-0.3c0.2-0.1,0.2-0.1,0-0.4c-0.7-0.9,0.7-1.9,2.9-2.1c0.9-0.1,1.8-0.3,2.1-0.4
		c0.6-0.2,0.8-0.6,0.3-0.6c-1.1,0-0.5-1.6,0.8-2.2c1.5-0.6,3-0.9,4-0.7c2.3,0.3,3.9-0.1,4.7-1.2c0.5-0.7,1-0.7,3.5,0
		c2.6,0.7,2.9,0.7,2.1-0.2l-0.6-0.7l0.7,0.1c0.5,0.1,0.6,0.1,0.5,0.3c-0.6,0.4,0.3,1.2,1.7,1.6c0.7,0.2,1.6,0.5,1.9,0.7
		c0.5,0.2,0.7,0.2,1.2,0c0.4-0.2,0.6-0.2,1.1,0c0.4,0.2,0.6,0.2,0.6,0c0-0.1,0.1-0.2,0.2-0.1c0.1,0,1.2,0.1,2.4,0.2
		c1.3,0.1,2.3,0.2,2.4,0.2c0.1,0,1,0.1,2,0.2c1.5,0.1,1.8,0.1,1.3-0.1c-1.7-0.7,0.1-2.6,2.5-2.6c0.3,0,0.8-0.1,1-0.2
		c0.6-0.3,3.7-0.3,4.7,0.1c0.5,0.2,1.6,0.4,2.6,0.5c1,0.1,2,0.3,2.3,0.4c0.3,0.1,1.6,0.3,2.8,0.4c1.3,0.1,2.9,0.5,4,0.8
		c1,0.3,2.3,0.6,2.9,0.6c0.8,0,1.3,0.2,1.5,0.4c0.2,0.2,0.4,0.3,0.5,0.3s0.4,0.2,0.8,0.4c0.8,0.5,3.4,1,4.1,0.8
		c0.4-0.1,0.7-0.1,1.1,0c0.3,0.1,1.3,0.3,2.1,0.3c0.8,0,1.6,0.2,1.8,0.3c0.2,0.2,0.3,0.2,0.4,0c0-0.1,0.2-0.2,0.4-0.2
		c0.4,0,0.3-0.4-0.1-0.6c-0.4-0.3-0.5-1-0.1-1c0.8,0,1.8-1.3,1.8-2.4c0-1.2,0.1-1.3,1.6-1.7c2.6-0.8,5.7-0.5,8.2,0.8
		c1,0.5,1.5,0.6,2.6,0.6c0.8,0,1.8,0.1,2.3,0.3c1.3,0.3,2.5,0.3,2.8-0.1c0.2-0.2,0.4-0.3,0.9-0.2c0.4,0.1,0.7,0.1,0.7,0
		c0-0.4-0.7-1.3-1.4-1.9c-1.2-1-0.9-2.6,0.9-4.5c1.6-1.7,7.6-2.7,10.6-1.8c0.8,0.2,1.6,0.4,1.9,0.4c0.3,0,0.7,0.1,1.1,0.3
		c0.4,0.2,1.1,0.3,2.1,0.3c0.8,0,1.9,0,2.3,0.1c0.8,0.2,2.2-0.2,3.2-0.8c0.4-0.2,1-0.4,1.6-0.5c0.1,0,0.3-0.2,0.4-0.4
		s0.2-0.4,0.4-0.4s0.7-0.3,1.3-0.6c1.1-0.6,1.7-0.8,2.9-0.9c0.4,0,0.8-0.3,1.1-0.5c0.5-0.5,1.6-1,2.2-1c0.2,0,0.6-0.1,0.8-0.2
		c0.2-0.1,0.8-0.4,1.4-0.7c0.6-0.3,1.4-0.9,1.9-1.3c0.5-0.6,1-0.9,1.5-0.9c0.4-0.1,0.8-0.2,0.8-0.4c0.1-0.1,0.2-0.3,0.3-0.3
		c0.1,0,0.7-0.4,1.3-0.9c0.6-0.5,1.4-0.9,1.7-1c0.6-0.2,2.6-1.7,2.6-2.1c0-0.1,0.2-0.3,0.4-0.3s0.5-0.2,0.6-0.4s0.7-0.6,1.3-0.9
		c1.4-0.6,3.6-2.2,4-2.8c0.2-0.3,0.7-0.6,1.2-0.7c1.2-0.3,2.5-1.2,3.4-2.1c0.4-0.4,0.9-0.9,1.1-1c2.4-1.4,3.5-2.5,3.8-3.7
		c0.2-0.9,0.8-1.4,2.4-1.9c0.7-0.2,1.4-0.6,1.6-0.7c0.1-0.2,0.6-0.5,1.1-0.7c0.5-0.2,1.3-0.9,1.9-1.4s1.3-1.1,1.7-1.3
		c0.4-0.2,0.8-0.5,0.9-0.6c0.1-0.1,0.3-0.3,0.4-0.3c0.2,0,0.4-0.3,0.6-0.6c0.3-0.7,2-2.4,2.3-2.4c0.1,0,0.2-0.2,0.3-0.4
		c0.1-0.2,0.5-0.7,1-1c0.5-0.3,1.2-1,1.5-1.4c0.3-0.4,0.7-0.8,0.8-0.8c0.6,0,2.4-1.6,2.4-2.1c0-0.1,0.1-0.3,0.2-0.3c0.3,0,1-0.7,1-1
		c0-0.1,1-1.2,2.2-2.4c1.6-1.6,2.2-2.4,2.4-3c0.2-0.7,0.4-0.9,1.1-1.2c0.5-0.2,1-0.7,1.4-1.2c1.3-2,2.2-3,2.6-3.2
		c0.3-0.1,0.5-0.3,0.5-0.6c0-0.2,0.3-0.7,0.7-1.1s0.7-0.9,0.7-1c0-0.2,0.1-0.3,0.2-0.3c0.4,0.1,2.9-1.1,3.2-1.5
		c0.1-0.2,0.6-0.5,1.1-0.7s0.8-0.4,0.8-0.5c0-0.6,3.6-3.8,4.5-4c0.8-0.2,1.3-0.5,2.1-1.3c0.6-0.6,1.5-1.4,2-1.8
		c0.9-0.8,2.5-2.7,2.5-3.1c0-0.1,0.2-0.4,0.5-0.7c0.8-0.8,1.7-1.8,1.7-2c0-0.1,0.3-0.5,0.8-1c0.9-1,2-2.4,2.5-3.4
		c0.2-0.4,0.5-0.8,0.7-0.9c0.7-0.4,1.5-1.5,2.3-3c0.4-0.9,1-1.8,1.1-2.1s0.5-0.9,0.7-1.3c0.2-0.4,0.6-1,0.9-1.2
		c0.6-0.4,2.4-2.8,2.5-3.2c0-0.1,0.3-0.7,0.6-1.2c0.3-0.6,0.7-1.3,0.9-1.6c0.2-0.3,0.4-0.7,0.6-0.8c0.1-0.1,0.6-1,1.1-2
		c0.5-1,1-2,1.2-2.3c0.2-0.3,0.4-0.9,0.6-1.3c0.3-1,1.3-2.6,2.3-3.5c3.2-2.9,3.6-3.5,3.2-4.4c-0.3-0.6-0.3-1,0.4-2.3
		c0.3-0.6,0.5-1.3,0.5-1.4c-0.1-0.3,0.6-2,0.9-2.2c0.1-0.1,0.4-0.6,0.7-1.2c0.4-0.9,1.2-2,2.2-3.1c0.1-0.2,0.5-0.8,0.9-1.3
		c0.8-1.4,1.1-1.7,2.8-3.5c1.4-1.4,3.9-4,7.6-8c0.9-1,1.3-1.5,1.2-1.6c-0.1-0.1,0.3-0.1,1,0c1.4,0.1,3.9-1,5.5-2.5
		c1.2-1.1,1-1.8-0.1-0.9c-0.7,0.5-0.9,0.5-0.9-0.1c0-0.3,0.1-0.5,0.4-0.5c0.2,0,0.5,0,0.6-0.1s0.5,0.1,0.8,0.2
		c0.4,0.2,0.6,0.1,1.1-0.5c0.3-0.4,0.9-0.8,1.2-0.9c0.3-0.2,0.8-0.7,1.1-1.1c0.3-0.5,0.9-1,1.3-1.2c0.4-0.2,0.7-0.4,0.7-0.5
		s0.6-0.7,1.3-1.5c1.4-1.5,2.3-3.9,1.8-4.7c-0.2-0.3-0.2-0.4,0-0.4c0.1,0,0.4-0.4,0.6-0.9c0.5-1.1,1.2-2.7,1.4-2.8
		c0.9-0.9,1.8-3.9,1.8-5.8c0-0.3,0.1-0.9,0.3-1.5s0.2-1.3,0.2-1.6c-0.1-0.3,0-0.8,0-1.1c0.1-0.3,0.4-2,0.8-3.8
		c0.3-1.8,0.7-3.6,0.9-4.1c0.2-0.5,0.3-1,0.3-1.2c0-0.2,0.3-1.1,0.7-1.9c0.4-0.8,1-2.6,1.4-3.9c0.4-1.3,0.9-2.5,1-2.6
		s0.3-0.3,0.3-0.5c0-0.2,0.2-0.7,0.4-1c0.6-1,1.3-3.6,1.4-6c0.1-0.7,0.2-1.6,0.3-2c0.3-0.9,0.3-0.9-0.8-0.5c-0.7,0.2-2.2,0.2-6,0.2
		c-6.1-0.1-7.1-0.2-9.2-0.7c-0.7-0.2-0.9-0.2-1.2,0.1c-0.5,0.5-0.7,0.4-1.5-0.4c-0.7-0.7-2.8-0.9-3.3-0.3
		c-0.5,0.4-1.3,11.2-0.8,11.2c0.1,0,0.2,0.2,0.2,0.6c0,0.3-0.1,0.9-0.1,1.3l0,0.7l-5.7-0.1c-6-0.1-6.3-0.1-9-1.3
		c-1.1-0.5-3.7-1.4-4.1-1.5c-0.3-0.1-0.5-0.2-0.4-0.3c0.1-0.1-0.1-0.4-0.4-0.6c-0.3-0.2-0.7-0.8-1.1-1.3c-0.3-0.4-1.2-1.4-1.9-2.1
		c-0.9-0.9-1.2-1.3-1.1-1.6c0.5-1.2,0.2-2.6-0.5-2.8c-0.6-0.1-1.2-1.3-1.2-2.1c0-1.2-0.4-1.3-1.4-0.3l-0.9,0.8l-0.1-1.2
		c-0.5-4.4-0.1-8.4,1.1-10.1c0.3-0.5,0.6-1.1,0.7-1.5c0-0.4,0.3-0.9,1-1.6c0.7-0.7,1.3-1.7,2.1-3.4c0.6-1.3,1.4-2.9,1.7-3.5
		c0.3-0.6,0.7-1.5,0.8-2.1c0.2-1,0.5-1.3,2.4-2.9c0.5-0.4,1.2-1.2,1.6-1.7c0.6-0.8,0.8-1,1.9-1.2l1.2-0.3l1.5,1
		c0.8,0.5,1.6,1.1,1.7,1.1c0.8,0.6,1.7,1.3,1.8,1.3c0.1,0,1.3,0.8,1.5,1c0.1,0.1,1,0.8,2.2,1.6l2.1,1.4l1.3-0.5
		c1.7-0.7,1.7-0.6,1.1-2.2c-0.4-1-0.5-1.6-0.4-2.1c0.2-1,0.8-3,1.3-3.9c0.5-0.9,0.4-3.5-0.1-4c-0.4-0.4-0.3-1.6,0.2-2.8
		c0.3-0.6,0.5-1.5,0.6-2.1c0.3-2.8,0.4-7,0.2-9.1c-0.1-1.2-0.3-2.9-0.3-3.7c-0.1-0.8-0.2-2.4-0.3-3.5c-0.1-1.1-0.2-2-0.1-2.1
		c0.5-0.8,0-9.1-0.7-10c-1.1-1.6-1.6-2.8-1.7-4.1c-0.4-4.5-0.5-4.6-2.1-5.7c-1.7-1.1-2.9-3.7-3-6.6c-0.1-1-0.2-1.4-0.5-1.7
		c-0.2-0.2-0.6-0.6-0.8-0.9c-0.4-0.6-1.2-1.6-1.7-2.1c-0.5-0.5-0.6-2-0.4-5.4c0.1-2.2,0.1-3.1-0.1-3.7c-0.8-2.6-1.9-6-3.3-10.7
		c-0.9-2.9-1.8-6-2.1-6.9c-0.3-0.9-0.5-1.6-0.5-1.7c0-0.7-1.1-1.8-1.9-1.8c-0.5,0-0.9-0.1-1.1-0.4c-0.4-0.5-0.9-0.5-1.9-0.3
		c-0.6,0.2-0.9,0.2-1.6-0.1c-0.4-0.2-1-0.3-1.2-0.3c-0.2,0-0.7-0.1-1-0.3c-0.8-0.4-3.1-0.6-4.4-0.3c-0.7,0.1-1.6,0.2-2.1,0.2
		c-0.6,0-1,0.1-1.2,0.3c-0.1,0.2-0.3,0.2-0.4,0.2c-0.5-0.3-3.5-0.2-4.5,0.1c-2.1,0.7-3.5,0.6-4.2-0.3c-0.7-0.8-1.2-0.9-2.5-0.6
		c-0.6,0.2-0.7,0.1-1.5-0.5c-0.5-0.4-1-0.7-1.2-0.7s-0.4-0.2-0.6-0.4c-0.1-0.2-0.4-0.4-0.6-0.4c-0.2,0-0.7-0.2-1.1-0.5
		c-0.4-0.3-1-0.5-1.3-0.5c-0.3,0-0.6-0.1-0.7-0.2c-0.1-0.1-0.3-0.2-0.5-0.2c-0.2,0-0.7-0.2-1-0.4c-0.3-0.2-1.2-0.4-1.9-0.5
		s-1.5-0.2-1.7-0.2C376.4,86.3,376,86.4,375.8,86.5 M353.1,259.2c0.2,0.3,0.4,0.8,0.4,1.1c0,0.8,0.3,1.4,0.9,1.4
		c0.8,0,1.7,0.6,1.7,1.1c0,0.6,0.2,0.9,0.8,0.9c0.3,0,0.8,0.3,1.2,0.6c0.7,0.6,0.9,1,1.5,2.1c0.5,0.9,1.1,1.5,1.4,1.4
		c0.4-0.2,1.6,0.7,1.4,1c-0.1,0.3,0.6,0.9,1.2,0.9c0.2,0,0.6,0.2,0.8,0.4c0.2,0.2,0.5,0.4,0.7,0.4c0.4,0,1,0.6,1,0.9
		c0,0.6,0.9,1.1,1.6,1c0.8-0.1,1.5,0.6,1.3,1.3c-0.1,0.3,0.1,0.6,0.5,0.9c0.3,0.3,0.6,0.8,0.7,1.1c0.1,0.3,0.3,0.8,0.6,1.2
		c0.3,0.4,0.5,0.9,0.5,1.2c0,0.3,0.1,0.6,0.2,0.6c0.3,0,0.5,0.6,0.2,0.9c-0.1,0.1-0.2,0.4-0.2,0.5c0,0.8-0.5,1.4-1.3,1.6
		c-1.4,0.4-2.2,1.2-2.2,2.5c0,0.8,0,1.1,0.3,1.2c0.2,0.1,0.2,0.1-0.1,0.2c-0.3,0.1-0.4,0.3-0.4,0.7c0,0.5-0.1,0.5-0.7,0.7
		c-0.4,0.1-0.9,0.3-1,0.4c-0.1,0.2-0.4,0.3-0.6,0.4c-0.2,0-0.4,0.3-0.5,0.5c0,0.2-0.3,0.6-0.5,0.8c-0.2,0.2-0.3,0.5-0.3,0.6
		c0.1,0.2,0,0.3-0.1,0.3c-0.1,0-0.2,0.2-0.2,0.5s-0.1,0.9-0.3,1.4c-0.3,0.8-0.3,0.9,0.2,1.5c0.6,0.7,0.6,1.3,0,1.3
		c-0.2,0-0.4,0.1-0.4,0.2c0,0.1-0.1,0.2-0.2,0.2c-0.1,0-0.6,0.2-0.9,0.5c-0.4,0.3-1.1,0.8-1.6,1s-1.6,0.9-2.3,1.4
		c-0.8,0.5-1.6,0.9-1.8,0.9c-0.2,0-0.4,0.1-0.5,0.2c-0.1,0.1-0.4,0.2-0.8,0.2c-0.4,0-1,0.2-1.4,0.4c-0.7,0.4-1.1,0.4-3.3-0.1
		c-0.5-0.1-0.8,0-1.2,0.3c-0.3,0.3-0.5,0.4-0.5,0.3s-0.2,0-0.4,0.1c-0.3,0.2-0.6,0.1-1.2,0c-0.9-0.3-2.2,0.3-2.2,1
		c0,0.7-1.1,1.7-2,1.9c-1.4,0.2-2.1,1.7-1.1,2.1c1.1,0.5,0.9,1.9-0.3,2.3c-1.3,0.4-2,1.4-1.5,2.1c0.3,0.4-0.1,2.2-0.5,2.2
		c-0.4,0-1,1-0.7,1.2c0.1,0.1,0.3,0.4,0.3,0.6c0.1,1-4.1,0.6-4.7-0.5c-0.3-0.5-0.9-0.8-1.2-0.4c-0.5,0.8-3-0.6-3.9-2.1
		c-0.1-0.2-0.5-0.6-0.9-0.8c-0.4-0.2-0.8-0.6-0.9-0.9c-0.1-0.3-0.4-0.7-0.6-0.8c-0.2-0.1-0.4-0.4-0.4-0.6c0-0.5-0.7-1.2-1.2-1.2
		c-0.5,0-1.2-0.7-1.1-1.1c0.2-0.4-0.5-0.8-1.2-0.7c-0.6,0.1-0.7,0.1-0.9-0.5c-0.1-0.3-0.3-0.6-0.4-0.6c-0.3,0-0.1-1.2,0.3-1.5
		c1.1-0.8,0.6-2.2-0.6-2l-0.8,0.1l-0.2-1c-0.2-0.7-0.5-1.2-1.2-2c-0.8-0.8-1.2-1.5-1.9-3.3c-0.5-1.2-1-2.4-1.1-2.6
		c-0.1-0.2-0.3-0.7-0.5-1.2c-0.2-0.5-0.5-0.8-0.6-0.9c-0.2,0-1.9-1.5-1.9-1.8c0-0.1,0-0.4-0.1-0.7c-0.1-0.6,0.2-0.8,0.4-0.2
		c0.2,0.4,0.5,0.2,0.5-0.3c0-0.3,0.1-0.3,0.4-0.3c0.2,0.1,0.5-0.1,0.7-0.3c0.4-0.6,1.2-1,1.8-0.9c0.3,0.1,0.6,0,0.7-0.2
		c0.1-0.2,0.4-0.3,0.5-0.2c0.2,0.1,0.4,0,0.6-0.2c0.2-0.1,0.5-0.3,0.7-0.3c0.3,0,0.4-0.1,0.4-0.5c0-0.4,0.1-0.5,0.6-0.7
		c0.4-0.1,0.6-0.3,0.6-0.4c0-0.1,0.4-0.6,0.8-1.1c0.6-0.7,0.8-0.9,0.6-1.2c-0.2-0.3-0.1-0.4,0.1-0.4c0.2,0,0.4-0.3,0.5-0.6
		c0.1-0.3,0.3-0.6,0.4-0.6c0.1,0,0.2-0.2,0.1-0.4c-0.1-0.3,0-0.4,0.2-0.4c0.4,0,1.6-1,1.6-1.3c0-0.2-0.1-0.3-0.2-0.3
		c-0.7,0,0.6-1.5,1.6-1.9c0.2-0.1,0.4-0.3,0.4-0.5c0-0.2,0.2-0.5,0.4-0.7c0.3-0.2,0.4-0.5,0.3-0.7c-0.1-0.3,0-0.4,0.3-0.3
		c0.4,0.1,0.5-0.3,0.1-0.7c-0.2-0.2-0.2-0.2,0-0.2c0.1,0,0.2-0.1,0.2-0.3s0.1-0.3,0.2-0.3c0.1,0,0.2-0.1,0.1-0.3
		c-0.1-0.2,0-0.2,0.4-0.2c0.4,0.1,0.5,0,0.4-0.3c-0.1-0.9,0-1.3,0.4-1.4c0.2-0.1,0.5-0.3,0.5-0.6c0.1-0.5,0.4-0.6,0.6-0.3
		c0.2,0.3,0.9,0.2,1,0c0.1-0.2,0.2-0.2,0.6,0c0.7,0.4,1.2,0.2,1.1-0.4c-0.1-0.2,0-0.4,0.1-0.4c0.1,0,0.4-0.2,0.6-0.5l0.4-0.4
		l0.4,0.4c0.4,0.5,1.9,0.6,1.9,0.1c0-0.1,0.1-0.4,0.2-0.5c0.1-0.1,0.2-0.4,0.2-0.6s0.1-0.4,0.3-0.4s0.4-0.3,0.5-0.6
		c0.4-1,2.2-2.7,2.5-2.4c0.2,0.1,0.4,0.1,0.7,0c0.3-0.1,0.6-0.1,0.8,0c0.2,0.1,0.6,0.1,1,0c0.4-0.1,0.9-0.2,1.1-0.2
		c0.3,0,0.5-0.2,0.6-0.4c0.3-1.1,2.2-2.5,2.9-2.1c0.4,0.2,2.9-0.2,3.2-0.5C352.1,258.5,352.6,258.6,353.1,259.2 M94.7,388.4
		c0.1,0.4,0.8,0.6,0.8,0.2c0-0.2-0.1-0.3-0.3-0.4C94.7,388,94.7,388,94.7,388.4 M101.7,398.5c0,0.2,0.2,0.3,0.4,0.3
		c0.5,0,0.4-0.5-0.1-0.6C101.8,398.2,101.7,398.3,101.7,398.5 M216.1,405.3c0,0.4,0,0.4-0.4,0.1c-0.2-0.2-0.5-0.4-0.5-0.4
		c0,0,0.2-0.1,0.4-0.1C216,404.8,216.1,404.9,216.1,405.3"/>
	<path id="path1_1_" class="st2" d="M141.7,160.4c0,0.4,0,0.5,0.1,0.4s0.1-0.5,0-0.7C141.8,159.9,141.7,160.1,141.7,160.4
		 M426.9,225c0.3,0,0.8,0,1,0c0.2,0,0-0.1-0.6-0.1C426.8,224.9,426.6,224.9,426.9,225 M431.3,225c0.3,0,0.8,0,1.1,0
		c0.3,0,0.1-0.1-0.6-0.1C431.3,224.9,431,224.9,431.3,225 M247.1,406.6c0.2,0,0.5,0,0.7,0c0.2-0.1,0-0.1-0.4-0.1
		C247.1,406.5,246.9,406.5,247.1,406.6"/>
	<path id="path2_1_" class="st2" d="M141.7,160.4c0,0.4,0,0.5,0.1,0.4s0.1-0.5,0-0.7C141.8,159.9,141.7,160.1,141.7,160.4
		 M426.9,225c0.3,0,0.8,0,1,0c0.2,0,0-0.1-0.6-0.1C426.8,224.9,426.6,224.9,426.9,225 M431.3,225c0.3,0,0.8,0,1.1,0
		c0.3,0,0.1-0.1-0.6-0.1C431.3,224.9,431,224.9,431.3,225 M247.1,406.6c0.2,0,0.5,0,0.7,0c0.2-0.1,0-0.1-0.4-0.1
		C247.1,406.5,246.9,406.5,247.1,406.6"/>
	<path id="path3_1_" class="st2" d="M141.7,160.4c0,0.4,0,0.5,0.1,0.4s0.1-0.5,0-0.7C141.8,159.9,141.7,160.1,141.7,160.4
		 M426.9,225c0.3,0,0.8,0,1,0c0.2,0,0-0.1-0.6-0.1C426.8,224.9,426.6,224.9,426.9,225 M431.3,225c0.3,0,0.8,0,1.1,0
		c0.3,0,0.1-0.1-0.6-0.1C431.3,224.9,431,224.9,431.3,225 M247.1,406.6c0.2,0,0.5,0,0.7,0c0.2-0.1,0-0.1-0.4-0.1
		C247.1,406.5,246.9,406.5,247.1,406.6"/>
	<path id="path4_1_" class="st2" d="M141.7,160.4c0,0.4,0,0.5,0.1,0.4s0.1-0.5,0-0.7C141.8,159.9,141.7,160.1,141.7,160.4
		 M426.9,225c0.3,0,0.8,0,1,0c0.2,0,0-0.1-0.6-0.1C426.8,224.9,426.6,224.9,426.9,225 M431.3,225c0.3,0,0.8,0,1.1,0
		c0.3,0,0.1-0.1-0.6-0.1C431.3,224.9,431,224.9,431.3,225 M247.1,406.6c0.2,0,0.5,0,0.7,0c0.2-0.1,0-0.1-0.4-0.1
		C247.1,406.5,246.9,406.5,247.1,406.6"/>
</g>
</svg>
