<?xml version="1.0" encoding="utf-8"?>
<!-- Generator: Adobe Illustrator 26.0.1, SVG Export Plug-In . SVG Version: 6.00 Build 0)  -->
<svg version="1.1" xmlns="http://www.w3.org/2000/svg" xmlns:xlink="http://www.w3.org/1999/xlink" x="0px" y="0px"
	 viewBox="0 0 512 512" style="enable-background:new 0 0 512 512;" xml:space="preserve">
<style type="text/css">
	.st0{display:none;}
	.st1{fill:#FFFFFF;stroke:#000000;stroke-miterlimit:10;}
</style>
<g id="Layer_1" class="st0">
</g>
<g id="Layer_2">
	<path class="st1" d="M1.79,290.73l9.61-2.33l6.99,2.33v4.95l-2.91,2.33l2.91,5.82l6.41,4.66v3.2l-3.49,1.46l6.12,6.12
		c0,0,2.77,3.28,2.98,3.42s2.4,6.48,2.4,6.48l4.66,3.49l3.93,0.95l5.31,7.35c0,0,2.33,1.24,2.69,1.46c0.36,0.22,6.12,0.44,6.55,1.02
		c0.44,0.58,2.48,3.42,2.55,3.79c0.07,0.36,0.51,6.62,0.51,6.62s2.4,2.84,2.91,3.06c0.51,0.22,3.28,0.36,3.64,0.87
		c0.36,0.51,1.16,1.67,1.16,1.67l2.18,0.51l5.46,3.57l5.9,3.13l0.87,5.17l3.13,0.66c0,0-0.87,2.18-0.44,2.4
		c0.44,0.22,3.86,6.26,4.37,6.84c0.51,0.58,5.46,6.7,5.46,6.7l5.82,2.77l4.08-0.8c0,0,4.95,0.29,5.06,0.33s3.24,1.2,3.24,1.2
		l3.71,4.15l1.78,5.57c0,0,5.47,0.52,5.76,0.72c0.29,0.19,1.94,1.84,1.94,1.84s5.24-0.39,5.24,0c0,0.39,1.75,4.76,1.75,4.76
		l3.88-1.94l7.18-0.78l5.63,3.3l3.4-2.62l3.88,0.87l3.98-0.58c0,0,1.75,3.01,2.04,3.01c0.29,0,5.44,0,5.44,0l0.87,1.46l2.14-2.81
		l3.3,3.4h2.91l0.39-2.23l2.23-1.07v-3.01l3.49,1.65l2.43-2.72l4.08-3.59v-2.43l1.65-2.43l1.65-3.98l3.98,0.29l4.66,3.69h3.2
		l0.49-2.62l3.69-0.87l3.4-1.84l6.89,1.26v-4.27l5.24-0.29l-1.16-4.27l3.69-4.08c0,0,1.36,0.87,1.46,1.26
		c0.1,0.39,0.68,3.98,0.68,3.98l11.07-0.39l-1.26-1.84l6.99-3.98l1.46,1.65c0,0,3.4-2.26,3.47-2.33c0.07-0.07,2.5-3.03,2.5-3.03
		l4.22-4l-1.02-2.48l4.61-3.59l4.27,0.39l3.64-1.31l8.49,5.58l2.72,0.39l8.64-5.14c0,0,6.12,0,6.21,0.29c0.1,0.29,1.46,3.3,1.46,3.3
		l4.27-3.88c0,0,1.94,4.37,2.62,4.17c0.68-0.19,4.46-1.65,4.46-1.65l2.33,3.01l2.43,1.26l6.89-5.34l8.35,2.43l3.3-4.66l9.51,6.41
		l4.95-2.33l2.33-5.63l2.33-2.91v-3.4l8.64-3.01l3.88,2.72c0,0,1.55-1.07,1.84-0.97c0.29,0.1,6.41,1.55,6.41,1.55
		s1.07,1.94,1.55,1.84s3.49-2.23,3.69-2.52c0.19-0.29,0.97-3.79,0.97-3.79l3.98-0.1l1.26-4.08l1.55-1.84v-5.73l6.79-0.29l1.26-5.14
		l-3.49-3.3l-0.87-4.37l4.37-5.73l-0.58-2.14l0.58-2.72l4.08-1.07l3.79,0.87l1.16-2.43v-3.69v-1.84c0,0,3.2,0.58,3.49,0.58
		s3.01-2.23,3.01-2.23l-3.4-5.63l3.4-4.66l1.55-4.46l5.53-1.94l-0.78-6.12l4.27-2.23l1.46-5.82l-1.55-4.37l2.52-2.72l2.14-4.17
		l3.59-3.69l3.49-3.11l3.01-4.17v-4.66l2.14-3.49v-3.88l3.59-5.44l1.55-2.52h5.44l0.78-6.02l-1.16-4.27l0.19-4.08l2.91-5.05
		l5.82-4.85h2.91l3.49-9.71l2.38-1.41l0.29-3.69l3.79-1.46l0.87-2.86c0,0,3.11,2.33,3.25,2.38c0.15,0.05,4.8,0.15,4.8,0.15
		l0.92-5.87l2.48-1.6l5.92,4.56c0,0,7.86-1.26,8.1-1.31c0.24-0.05,3.74-5.58,3.74-5.58l3.49-0.29l1.36-2.14l-1.8-3.98l5.87-1.8
		l4.42-4.66l-0.49-2.62l-4.42-2.38l3.74-3.49l-0.29-3.79l-4.08-6.55h-3.93h-2.91l-2.77,2.04l-5.24-0.58l-2.62-4.95l-1.31-4.37
		l-2.48-3.64l-2.62-2.91h-8.88l-2.91-3.64l-1.02-4.66l-0.73-3.2l-3.2-1.75l-3.49-2.48l2.62-2.18l-3.93-2.04l-4.08,1.46l-3.79,3.49
		l-4.95-0.87l-4.22,0.15l-5.39,1.6l-3.64,1.02l-2.04-0.29l-0.87,2.18l-3.49-0.44l-3.64-0.29l-2.33-3.64l-2.33-0.87l-1.6-3.49
		l-1.6-10.34h-7.43l-0.58-3.93l-6.26-4.66l-1.89,3.35l-5.39-0.73l-3.2,3.79l-5.24-1.02l-3.06,1.46h-3.2l-0.44,4.51l-2.62-0.87
		l-2.18-3.64c0,0-4.37-0.73-4.95-0.44c-0.58,0.29-3.35,0.73-3.35,0.73l-3.79-3.93l-3.2,0.44l-2.48-2.62l-6.41,0.73l-13.25,3.49
		l-5.39,1.46l-1.02,5.53l-5.1,6.12l-1.16,4.66l-4.08,9.17l-5.68,5.1l-3.2-2.91l-2.77,3.2l-4.37,0.29l-2.18,4.37l-2.62,3.2
		l-2.33,1.31h-2.62l-3.49,1.89l-1.31,3.93l-2.48-0.73l-0.73-3.49l-4.22-1.31l-3.93,0.44v-3.2l-3.49-1.89l-3.49,0.29l-3.2-3.64
		l-3.06-1.02l-2.33,4.08l-6.12,2.91l0.24,3.54l-0.73,2.71l-1.07,2.73l-0.44,1.8l-7.86,0.39l-5.53-0.1l-1.8,1.02l-3.35,2.33
		l-3.4-0.49l-3.49-1.21l-5.1,1.31l-4.27-1.07l-3.06,1.94l-9.37,0.53l-5.82,7.28l-1.24,1.53l0.95,3.5l-0.42,7.42l4.49,3.05l1.89,2.91
		l-4.51,0.66l-5.68,2.48l-3.06,3.64l-5.75-0.87c0,0-7.06,1.97-7.57,1.89c-0.51-0.07-4-1.53-4.15-1.31
		c-0.15,0.22-8.52,2.91-8.52,2.91l-7.86-0.58l-15.72-0.95l-3.86-0.29c0,0-5.82,1.31-6.04,1.31s-8.15,0.29-8.15,0.29l-5.68-2.98
		l-5.82-5.82l-4.37,0.22l-2.84-5.68l-5.75-2.26l-2.91-6.19l-6.04-5.68l-5.31-0.8c0,0-1.6-1.89-1.89-1.89
		c-0.29,0-7.06,2.77-7.06,2.77l-2.55,5.02l-1.09,8.01l-6.62,1.6l5.53,6.48l-1.31,1.75l-0.87,9.03l-5.68,1.46l-6.19,0.73
		c0,0-1.89-4.8-2.26-3.71c-0.36,1.09-2.48,4.44-2.48,4.44l-5.68-0.51l-2.26-5.31l-5.24-0.95c0,0-2.55-1.89-2.77-1.89
		c-0.22,0-3.49,2.18-3.49,2.18l-2.62,4.51l-7.21,4.22l5.46,2.5l6.21,2.04l5.56,0.44l0.22,5.53l4.13,3.49c0,0-4.56,3.59-4.56,3.74
		c0,0.08,1.03,2.21,0.78,3.88c-0.23,1.51-1.75,2.57-1.75,2.57l-4.76,3.2l-1.55,1.6l-8.01-0.87l0.29,4.03l-1.65,3.79l3.83,0.05
		l2.04,3.35l-0.63,3.74l-3.64,2.18l-2.28,2.91l-0.34,3.81l2.77,3.71l3.35,4.95l-3.45,2.67l4.03,4.24c0,0-1.78,0.08-3.06,1.24
		c-0.67,0.61,3.53,3.76,2.91,4.51c-1.31,1.59-7.24,0.75-7.57,0.73c-0.78-0.05-6.65-0.87-6.79-0.83c-0.15,0.05-2.67,1.16-2.67,1.16
		l-9.32,9.12L1.79,290.73z"/>
</g>
</svg>
