<?xml version="1.0" encoding="utf-8"?>
<!-- Generator: Adobe Illustrator 25.0.0, SVG Export Plug-In . SVG Version: 6.00 Build 0)  -->
<svg version="1.1" id="Layer_1" xmlns="http://www.w3.org/2000/svg" xmlns:xlink="http://www.w3.org/1999/xlink" x="0px" y="0px"
	 viewBox="0 0 512 512" style="enable-background:new 0 0 512 512;" xml:space="preserve">
<style type="text/css">
	.st0{display:none;}
	.st1{fill:#FFFFFF;}
	.st2{fill-rule:evenodd;clip-rule:evenodd;fill:#FFFFFF;}
</style>
<g id="Layer_4" class="st0">
	
		<image style="display:inline;overflow:visible;enable-background:new    ;" width="914" height="764" xlink:href="39BBF3F4.jpg"  transform="matrix(0.5619 0 0 0.5619 -1.3284 41.3612)">
	</image>
</g>
<g id="Layer_5">
	<path class="st1" d="M307.1,77.4l0.4,0.2l0.1-0.2l0.7,0.4l0.1,0.1h0.4v-0.1l0,0l0.1,0.1h0.1V78c0,0.1,0.1,0.2,0.1,0.2l0.3,0.5
		l0.2-0.1l0.1,0.1h0.1l0.1-0.1l0.4-0.1l0,0h0.1l0.2,0.3l0.2-0.1l0.1-0.1l0.2-0.1v-0.2h0.1v-0.2H311v-0.2c0,0,0-0.1,0.1-0.1
		s0.1-0.1,0.1-0.1l-0.2-0.1h-0.2l-0.2-0.1l0.2-0.2l0.2-0.2h0.2l0.1,0.2l0.1,0.1l0.1,0.2l0.3-0.1l-0.1-0.4l-0.3,0.1l-0.1-0.3l0.1-0.2
		l-0.1-0.4v-0.1l0.2-0.1v0.1l-0.4,0.1l0.1,0.3l-0.4,0.1l-0.1-0.2h-0.3v-0.1h0.3l0,0h-0.2l-0.1-0.3h-0.1v-0.2v-0.1h0.5h0.2v-0.1
		l-0.1-0.2h0.1l0.1,0.4l0.1-0.1l-0.1-0.3H311l-0.1-0.3l-0.3,0.1h-0.2v-0.2l0.1-0.1l-0.1-0.1l-0.3,0.5v0.1l0.1,0.2h-0.1l-0.1-0.1
		h-0.2h-0.1c0,0,0,0,0,0.1s0,0.1,0,0.1h-0.1h-0.1v0.1h-0.2l0,0l0.2,0.4l-0.1,0.1l-0.1,0.1l-0.1,0.1l-0.2-0.3l0.1-0.1l-0.1-0.3h-0.1
		v-0.1h0.1l-0.1-0.3l0.3-0.2l-0.3-0.2h-0.1l-0.1,0.1l-0.1-0.1h-0.1l-0.1-0.3h0.2v-0.1l-0.3-0.1l0.3-0.1c0,0,0.1,0,0.1,0.1l0.2,0.3
		l0.2-0.1l-0.2-0.3h-0.2l-0.1-0.3l-0.3,0.3h-0.2l-0.2-0.2l-0.2,0.2v0.1h0.1l0.1,0.1l0.1-0.1l0.2,0.1v0.1h-0.1l0.1,0.3v0.1l0.1,0.2
		v0.1h-0.1l-0.2,0.2l-0.2,0.2l0.3,0.1v0.1l-0.1,0.1l0.1,0.1l0.1,0.1l-0.2,0.3l0.2,0.3v0.1l-0.1,0.1H308h-0.1v0.1l-0.1,0.1h-0.1
		l-0.1-0.1L307.1,77.4L307.1,77.4z"/>
	<path class="st1" d="M311.3,74.7l-0.1-0.3l0.1-0.1l0.1,0.1h0.1v-0.2l0.4-0.1v-0.3l0.3-0.1l0.1,0.1v0.1c0,0-0.3,0.1-0.3,0.2
		c0,0,0,0.1,0.1,0.1s0.3,0,0.3,0s0.1-0.1,0.2-0.1v-0.3v-0.1c0,0,0.5-0.1,0.5-0.2l0.2-0.1l-0.1-0.1v-0.1c0,0,0.1-0.1,0.2-0.1h0.1
		l-0.2-0.2v-0.3l-0.4,0.1L313,73h0.1v0.1v0.1l0,0H313l-0.2,0.1l-0.1,0.1l-0.1-0.1h-0.1l0,0l-0.5,0.1c0,0,0-0.1-0.1-0.1h-0.3
		c0,0,0.1,0.1,0,0.1s-0.5,0-0.5,0v0.1H311l0,0l-0.7,0.1l0.3,0.5h0.4l-0.1,0.1l0,0h0.1l0.4-0.1v0.1v0.1h0.1L311.3,74.7L311.3,74.7z"
		/>
	<path class="st1" d="M312.9,75.1l-0.1-0.3l0.1-0.1l-0.1-0.2h-0.3v0.1h-0.3v0.1v0.1v0.1V75l-0.3,0.1l0,0h0.3V75h0.1c0,0,0.1,0,0.2,0
		h0.1v0.1C312.6,75.1,312.9,75.1,312.9,75.1z"/>
	<path class="st1" d="M311.7,76.6c0,0-0.1,0.1-0.1,0l-0.1-0.4l0.2-0.1V76h0.2l-0.1,0.2v0.1L311.7,76.6L311.7,76.6z"/>
	<path class="st1" d="M310.3,74.1l-0.4,0.2l-0.1-0.1l0.1-0.1l-0.1-0.1l0,0l0.3-0.2L310.3,74.1z"/>
	<polygon class="st1" points="309.9,73.6 309.7,73.8 309.5,73.6 309.7,73.4 	"/>
	<path class="st1" d="M309.3,73.7l0.2,0.2l-0.1,0.1l-0.2-0.2L309.3,73.7L309.3,73.7z"/>
	<path class="st1" d="M312.1,72.7l-0.4,0.1v-0.1l0,0l0.3-0.1L312.1,72.7z"/>
	<polygon class="st1" points="312.8,72.5 312.8,72.3 312.9,72.3 312.9,72.1 312.7,72.2 312.7,72.5 	"/>
	<path class="st1" d="M311.6,72.1h-0.3V72C311.4,72,311.5,72,311.6,72.1C311.5,72,311.6,72.1,311.6,72.1z"/>
	<path class="st1" d="M311.2,75.2C311.2,75.2,311.2,75.1,311.2,75.2c0.1,0,0.2,0.1,0.2,0.1v0.1l0.1,0.3h-0.1L311.2,75.2L311.2,75.2z
		"/>
	<polygon class="st1" points="311.5,74.8 311.7,74.7 311.6,74.6 311.4,74.7 	"/>
</g>
<g id="svgg_1_">
	<path id="path0_1_" class="st2" d="M294.8,127.1c-1,1.2-0.4,4.9,0.9,4.9c0.2,0,0.3,0.2,0.3,0.5c0,0.3,0.3,0.5,0.7,0.5
		c0.4,0,0.7,0.1,0.7,0.3c0,0.2,0.4,0.5,0.8,0.7c0.6,0.3,0.8,0.3,0.8,0c0-0.3,0.1-0.3,0.4,0c1.7,1.7,3.5-0.3,2.3-2.6
		c-0.4-0.8-0.7-1.6-0.7-1.8c0-0.5-1.4-1.8-2.6-2.5C297.5,126.6,295.3,126.6,294.8,127.1 M305.3,134.4c-0.8,0.3-0.9,0.5-0.8,1.2
		c0.1,1.2,4.3,1.6,4.3,0.4c0-0.4-0.2-0.7-0.5-0.7c-0.3,0-0.7-0.3-0.8-0.7C307,134,306.7,133.9,305.3,134.4 M110.6,136.7
		c-0.3,0.9,0,1.3,1.1,1.3c0.9,0,1.7-0.8,1.8-1.6C113.5,135.7,110.8,135.9,110.6,136.7 M220.8,142.8c-0.6,0.2-1.2,0.5-1.4,0.7
		c-0.3,0.2-0.6,0.2-0.8,0c-0.5-0.5-2.8-0.5-3.3,0c-0.2,0.2-0.7,0.4-0.9,0.4c-0.6,0-0.9,2.4-0.3,3c0.3,0.4,0.2,0.5-0.5,0.5
		c-1.8,0-2.3,1.2-1.2,3.2c0.8,1.4,1.8,1.6,2.8,0.4c0.4-0.5,0.7-0.6,0.8-0.3c0.2,0.7,1.7,0.4,2.4-0.5c0.5-0.6,0.8-0.8,0.9-0.5
		c0.1,0.2,0.7,0.4,1.3,0.4s1.2,0.2,1.3,0.4c0.2,0.6,5.8,0.6,6.3,0c0.5-0.6,1.9-0.6,2.1,0c0.2,0.5,1.6,0.4,1.8-0.1
		c0.1-0.2,0.3-0.3,0.6-0.3c0.3,0,0.4-0.2,0.3-0.3c-0.1-0.2-0.1-0.3,0.1-0.3s0.5-0.4,0.8-0.9c0.4-0.8,0.7-0.9,2.2-1
		c3.3-0.2,3.6-4.4,0.3-4.4c-1,0-1.4,0.6-0.9,1.1c0.5,0.5,0.5,0.9-0.1,0.9c-0.3,0-0.5-0.2-0.5-0.4c0-0.2-0.2-0.3-0.3-0.1
		c-0.2,0.1-0.8,0-1.4-0.3c-0.6-0.3-1.6-0.5-2.3-0.5s-1.4-0.2-1.5-0.3c-0.1-0.2-1.6-0.3-3.4-0.3c-1.9,0-3.2-0.1-3.2-0.3
		C222.7,142.4,222.1,142.4,220.8,142.8 M246.5,152.2c-0.2,0.6-0.3,0.9-0.3,0.6c0-0.7-1,0.2-1,0.9c0,0.9,0.7,1.4,2.2,1.4
		c1.8,0,2.8-0.8,2.8-2.1C250.1,151,247.1,150.3,246.5,152.2 M311.4,154.8c-0.3,0.2-1,0.4-1.6,0.4c-0.6,0-1.1,0.3-1.1,0.5
		c0,0.2-0.2,0.4-0.3,0.2c-0.2-0.1-0.3-0.1-0.3,0.1c0,0.2-0.5,0.5-1.1,0.6c-1.7,0.5-1.3,2.8,0.5,2.8c0.7,0,1.9,1.2,1.9,1.9
		c0,1.3,2,2.5,4,2.5c1.3,0,2,0.1,1.9,0.3c-0.3,0.5,0.6,0.4,1.1-0.1c0.3-0.3,0.4-0.3,0.4,0c0,0.5,0.8,0.5,1.6,0.1
		c0.3-0.2,1-0.4,1.5-0.5c2-0.4,1.1-6.9-0.9-6.9c-0.3,0-0.7-0.2-1-0.5c-0.3-0.3-0.7-0.4-1-0.3s-0.5,0.1-0.5-0.1
		C316.5,155,312.6,154.1,311.4,154.8 M329.1,159.7c-0.5,0.5-0.2,2.6,0.5,3.1c0.9,0.6,0.5,1.1-0.9,1.1c-0.8,0-1.2,0.2-1.2,0.5
		c0,0.3-0.1,0.4-0.3,0.3c-0.2-0.1-0.4,0-0.5,0.3c-0.1,0.3,0,0.6,0.3,0.7c0.3,0.1,0.5,0.4,0.5,0.7c0,0.4,0.6,0.5,3.3,0.5
		c2.7,0,3.4,0.1,4.1,0.7c0.5,0.4,1,0.7,1.3,0.7c0.2,0,0.9,0.5,1.4,1c0.5,0.6,1.2,1,1.5,1c0.3,0,0.5,0.2,0.5,0.3
		c0,0.2,0.2,0.3,0.5,0.3c0.3,0,0.5,0.2,0.5,0.3s0.3,0.3,0.7,0.3c0.4,0,0.7,0.1,0.7,0.3s0.6,0.6,1.3,0.9c0.7,0.3,1.3,0.7,1.3,0.8
		c0,0.1,0.5,0.4,1,0.6c0.6,0.2,1,0.7,1,1c0,0.6,1.4,1.4,2.4,1.4c0.3,0,0.7,0.2,1,0.5c0.2,0.3,0.5,0.4,0.7,0.3
		c0.2-0.1,1.6,1.1,3.3,2.8c3.3,3.3,3.9,3.8,4.4,3.8c0.2,0,0.7,0.3,1.1,0.7c0.4,0.4,1.1,0.7,1.6,0.7c0.5,0,1,0.2,1.1,0.3
		c0.1,0.2,1,0.3,1.9,0.3c1.7,0,2.6,0.4,3.9,1.6c0.4,0.4,1,0.8,1.3,0.8c0.3,0,0.5,0.2,0.5,0.4c0,0.2,0.3,0.7,0.6,1.1
		c0.3,0.4,0.9,1.2,1.3,1.9c0.7,1.4,3.6,4.6,4.2,4.6c0.2,0,0.4,0.2,0.4,0.5c0,0.3,0.2,0.5,0.3,0.5c0.2,0,0.3,0.3,0.3,0.7
		s0.2,0.7,0.3,0.7s0.3,0.2,0.3,0.5s0.2,0.5,0.3,0.5c0.2,0,0.3,0.3,0.3,0.6c0,0.7,1,2.7,1.4,2.7c0.1,0,0.3,0.3,0.3,0.7
		c0,0.4,0.2,0.7,0.3,0.7c0.2,0,0.3,1.3,0.3,3.4c0,2-0.1,3.4-0.3,3.4c-0.2,0-0.3,0.5-0.3,1s0.2,1,0.3,1c0.2,0,0.3,0.6,0.3,1.3
		c0,0.7,0.2,1.3,0.3,1.3c0.2,0,0.3,0.4,0.3,0.8c0,0.9,0.3,1.3,1.8,2.4c0.5,0.4,0.9,0.9,0.9,1.3s0.3,0.7,0.7,0.8
		c0.4,0.1,0.7,0.3,0.7,0.4c0,0.1,0.3,0.6,0.6,1c0.6,0.7,1.7,1,1.7,0.4c0-0.2,0.3-0.3,0.6-0.3c0.4,0,0.9-0.6,1.5-1.8
		c0.5-1,1.1-1.8,1.2-1.8c0.2,0,0.3-0.2,0.3-0.5c0-0.3,0.3-0.8,0.7-1.2c0.8-0.9,0.9-2.5,0.1-3.3c-0.5-0.6-0.5-0.7,0.7-1.8
		c2-1.9,1.7-7.2-0.4-7.2c-0.2,0-0.4-0.3-0.4-0.7c0-0.4-0.2-0.7-0.3-0.7c-0.2,0-0.3-0.2-0.3-0.5c0-0.3-0.5-1-1.2-1.6
		c-0.7-0.7-1.2-1.5-1.2-2c0-0.7-0.2-0.9-0.7-0.9c-0.4,0-0.6,0.2-0.5,0.3c0.3,0.5-0.6,0.4-1.1-0.1c-0.2-0.2-0.4-0.7-0.4-1
		c0-1.6-1.7-2.8-2.6-1.9c-0.4,0.4-1.7-0.1-2.4-0.7c-0.4-0.5-1.7-1-2.3-1c-0.5,0-0.7-0.2-0.7-1.2c0-0.6-0.1-1.2-0.3-1.2
		c-0.1,0-0.5-0.5-0.7-1c-0.5-1.1-1.7-1.8-2.1-1.2c-0.3,0.4-0.9-0.2-1.6-1.5c-0.3-0.5-0.6-0.9-0.8-0.9c-0.2,0-0.3-0.2-0.3-0.4
		c0-0.4-2.4-1.9-3.1-1.9c-0.4,0-3-2.6-3-3.1c0-0.9-2.5-3.3-3.5-3.3c-0.7,0-1.2-0.3-1.6-0.8c-0.5-0.6-0.9-0.8-2.2-0.8
		c-1.2,0-1.7-0.2-2.1-0.7c-0.3-0.4-0.8-0.7-1-0.7s-0.7-0.5-1.1-1c-0.3-0.6-0.8-1-1.1-1c-0.3,0-0.8-0.3-1.1-0.6s-1.2-0.9-2-1.2
		c-0.8-0.3-1.9-1.1-2.4-1.6c-0.6-0.6-1.2-0.9-1.9-0.9c-0.6,0-1.1-0.2-1.2-0.3c-0.1-0.2-0.9-0.3-1.8-0.3c-1.7,0-2.2-0.3-2.4-1.5
		c-0.1-0.4-0.8-1-2.2-1.7c-1.1-0.5-2.1-1.2-2.1-1.4c0-0.3-0.4-0.4-1-0.4c-0.6,0-1-0.1-1-0.3c0-0.2-0.4-0.5-0.8-0.7
		c-0.5-0.2-0.8-0.6-0.7-0.7c0.1-0.1-0.2-0.4-0.6-0.5c-0.4-0.1-1-0.5-1.3-0.9C330.6,159.5,329.5,159.3,329.1,159.7 M60.7,160.4
		c-0.1,0.1-0.2,23.3-0.2,51.6c0,34-0.1,51.4-0.3,51.4c-0.2,0-0.3,0.4-0.3,1c0,0.6-0.2,1.1-0.5,1.2c-0.4,0.2-0.5,0.6-0.4,1.9
		c0.1,0.9,0,1.7-0.1,1.7s-0.4,0.3-0.5,0.7c-0.1,0.4-0.5,0.7-0.9,0.9c-0.7,0.2-1,3.9-0.3,4.3c0.2,0.1,0.3,0.6,0.3,1s0.1,0.9,0.3,1
		c0.2,0.1,0.4,0.6,0.5,1.2c0.1,0.6,0.4,1,0.7,1c0.3,0,0.5,0.2,0.5,0.3s0.2,0.3,0.5,0.3c0.4,0,0.5,3.6,0.5,30.6
		c0,29.2,0,30.6,0.6,30.8c0.3,0.1,1.2,0.8,1.9,1.5c1.3,1.3,5.2,2.1,5.2,1c0-0.2,0.2-0.3,0.4-0.3c0.2,0,0.8-0.3,1.2-0.7
		c1.1-1,2.9-0.9,4.4,0.3c1.3,1,6.8,1.6,6.2,0.7c-0.1-0.2,0.5-0.3,1.6-0.3c1,0,1.9,0.2,2,0.3c0.3,0.4,2.4,0.4,2.7,0
		c0.1-0.2,0.6-0.3,1.2-0.3c0.5,0,1-0.1,1.1-0.3c0.2-0.5,7.1-0.5,7.2,0c0.1,0.2,0.6,0.4,1.1,0.4c0.5,0,1.1,0.2,1.2,0.3
		c0.1,0.2,0.7,0.3,1.4,0.3c0.9,0,1.4,0.3,2.2,1.2c0.6,0.6,1.2,1.2,1.5,1.2c0.3,0,0.5,0.2,0.5,0.3c0,0.9,3.3,0.3,5.2-0.8
		c1-0.6,2-1.1,2.3-1.1c0.2,0,0.4-0.1,0.3-0.3c0-0.2,0.1-0.4,0.4-0.4c0.6,0,2.9-1.2,3.5-2c0.6-0.7,3.1-1.9,4.4-2.2
		c0.5-0.1,0.9-0.3,0.9-0.5c0-0.2,0.5-0.3,1-0.3c0.6,0,1-0.2,1-0.3c0-0.2,0.7-0.3,1.6-0.3c2.2,0,4.5-2.1,3.5-3.1
		c-0.2-0.2-0.4-1.4-0.4-2.6c0-1.6-0.2-2.4-0.5-2.8c-0.3-0.3-0.5-0.6-0.5-0.8c0-0.2-0.3-0.6-0.7-0.9c-0.4-0.3-0.7-0.9-0.7-1.3
		s-0.1-0.6-0.2-0.5c-0.1,0.1-0.9-0.6-1.9-1.5c-1-0.9-1.9-1.6-2-1.6c-0.2,0-0.3-0.2-0.3-0.3c0-0.2,0.2-0.3,0.5-0.3
		c0.3,0,0.4,0.2,0.3,0.3c-0.1,0.2,0,0.3,0.3,0.3c0.3,0,0.5,0.1,0.5,0.3c0,0.1,0.6,0.5,1.3,0.9c0.7,0.3,1.7,1,2.3,1.6
		c0.5,0.5,1.2,1,1.5,1c0.3,0,0.6,0.2,0.6,0.3c0,0.2,0.2,0.3,0.5,0.3c0.7,0,3.2,1.4,3,1.7c-0.1,0.2,0,0.3,0.3,0.3
		c0.3,0,0.6,0.2,0.7,0.5c0.5,1.3,1.9,0.1,1.9-1.7c0-1-0.3-1.4-2-2.4c-1.3-0.8-3-2.3-3-2.6c0-0.1,0.8-0.2,1.8-0.2
		c1.6,0,1.8-0.1,1.8-0.7c0-0.5,0.2-0.7,1-0.7c0.9,0,1-0.1,1-1.1c0-1.3-0.7-2.3-1.6-2.3c-0.4,0-0.7-0.2-0.7-0.5
		c0-0.8-1.9-0.5-2.4,0.4c-0.5,0.9-3.1,1.1-4.3,0.4c-0.5-0.3-0.8-0.3-1.5,0.1c-1,0.5-1.1,1.5-0.2,2.1c0.9,0.5,0.9,0.9,0,0.9
		c-0.4,0-0.9-0.3-1.1-0.7c-0.3-0.5-0.8-0.7-1.8-0.7c-1.2,0-1.4,0.1-1.4,0.7c0,0.4,0.2,0.7,0.6,0.7c0.5,0,0.5,0.1,0.2,0.4
		c-0.3,0.3-0.5,0.3-0.7,0.1c-0.4-0.6-1.7-1.2-2.7-1.2c-0.6,0-1-0.2-1-0.3c0-0.2-0.6-0.3-1.3-0.3s-1.3-0.1-1.3-0.3
		c0-0.1-0.8-0.6-1.8-1.1c-1.6-0.7-2.7-1.7-1.9-1.7c0.2,0,0.3,0.2,0.4,0.3c0.1,0.2,0.5,0.4,0.9,0.5c0.4,0.1,0.9,0.3,1.2,0.4
		c1,0.6,2.7,1,3.2,0.8c0.3-0.2,1.7-0.5,3.1-0.9c1.4-0.3,2.6-0.7,2.6-0.9c0-0.1,0.8-0.3,1.8-0.3c1,0,1.9-0.1,1.9-0.3
		c0.1-0.2,2-0.3,4.4-0.4l4.3-0.1v-1c0-0.7,0.2-1,0.7-1c0.5,0,0.7-0.2,0.7-1.2c0-0.6,0.2-1.2,0.4-1.2c0.2,0,0.3-0.3,0.2-0.7
		c-0.2-0.6,0-0.7,2.3-0.7c2.2,0,2.6-0.1,3.3-0.8c0.5-0.5,1-0.8,1.2-0.8c0.4,0,0.4-1.2,0-1.5c-0.2-0.1-0.3-0.5-0.3-0.9
		c0-0.4-0.1-0.6-0.3-0.6c-0.4,0-1.7-2.5-1.7-3.1c0-0.3-0.2-0.8-0.4-1.2c-0.6-1-0.1-1.1,1.2-0.4c0.7,0.4,1.5,0.7,1.8,0.7
		s1.4,0.4,2.3,0.8c1,0.5,2,0.8,2.4,0.8c0.4,0,0.7,0.1,0.9,0.3c0.1,0.2,0.6,0.3,1,0.3c0.4,0,0.7-0.2,0.6-0.3
		c-0.1-0.1,0.2-0.3,0.7-0.3c0.9,0,1.3-1.8,0.4-2.1c-0.2-0.1-0.1-0.2,0.3-0.2c0.4,0,0.8,0.2,0.9,0.6c0.2,0.8,1,1.1,2.1,0.9
		c0.6-0.1,0.8,0,0.8,0.5c0,0.6,0.6,1,1.7,1c0.8,0,1.1-0.5,0.7-1.2c-0.2-0.3-0.5-1.1-0.7-1.6s-0.5-1.1-0.6-1.3
		c-0.1-0.2,0.2-0.1,0.6,0.2c0.6,0.4,0.8,0.4,1.4,0c0.4-0.2,1.3-0.4,2-0.4c0.8,0,1.4-0.2,1.5-0.4c0.1-0.3,0.4-0.2,1,0.3
		c0.6,0.5,1.2,0.8,2.1,0.8c0.7,0,1.2,0.1,1,0.3c-0.2,0.1-0.4,0.7-0.5,1.3c-0.1,0.6,0,0.9,0.1,0.8c0.1-0.1,0.5,0,0.7,0.3
		c0.3,0.3,0.9,0.5,1.3,0.5c0.4,0,0.8,0.2,0.8,0.3c0,0.2,0.9,0.3,2.2,0.3c1.2,0,2.3,0.2,2.4,0.3c0.1,0.2,0.9,0.3,1.7,0.3
		c0.8,0,1.5,0.2,1.5,0.3c0,0.2,0.6,0.3,1.4,0.3c1.3,0,3.1,0.9,3.8,1.9c0.2,0.3,1.2,0.4,3.2,0.4c1.7,0,3.1,0.2,3.3,0.4
		c0.2,0.2,1.1,0.3,1.9,0.2c0.8-0.1,1.5,0,1.5,0.2c0,0.5,0.9,1.2,1.5,1.2c0.3,0,0.6,0.2,0.7,0.3c0.1,0.2,1.1,0.3,2.2,0.3
		c1.1,0,2,0.1,2,0.3s0.5,0.5,1,0.7c0.8,0.3,1.1,0.8,1.4,1.8c0.4,1.5,0.7,1.9,2.2,2.6c1.4,0.7,1.8,1.2,1.8,2.1c0,0.5,0.2,0.9,0.3,1
		c0.2,0.1,0.3,0.6,0.3,1.2c0,0.5,0.2,1.2,0.5,1.4c0.3,0.3,0.4,0.6,0.3,0.7c-0.1,0.1,0,0.2,0.4,0.2c0.3,0,0.6,0.3,0.6,0.7
		c0,0.4,0.2,0.7,0.3,0.7s0.3,0.2,0.3,0.4c0,0.4,0.6,1,1.8,1.8c0.5,0.3,0.9,0.8,0.9,1c0,0.2,0.4,0.7,0.8,1c0.5,0.4,0.8,1,0.8,1.5
		c0,0.5,0.2,0.9,0.7,1c0.6,0.1,0.6,0.5,0.6,2.4c-0.1,2.9,0.9,4.7,2.4,4.7c0.4,0,0.7,0.2,0.7,0.3c0,0.2,0.7,0.3,1.5,0.3
		c1.1,0,1.7,0.2,2.4,0.8c0.5,0.5,1.3,0.9,1.7,1c0.7,0.2,0.8,0.4,0.8,2.5c0,2.3,0,2.3,0.9,2.3c0.9,0,1,0.1,2.1,2.9
		c0.6,1.6,1.9,2.8,3.1,2.8c0.5,0,1,0.1,1,0.3c0,0.4,1.8,1.1,2.9,1.1c0.6,0,1.3,0.2,1.5,0.4c0.8,0.9,1.9,2.6,1.9,2.9
		c0,0.2,0.1,0.3,0.3,0.2c0.1-0.1,0.6,0.3,0.9,0.8c0.4,0.5,0.8,1,0.9,1c0.1,0,0.3,0.2,0.3,0.5c0,0.3,0.2,0.5,0.3,0.5s0.3,0.6,0.3,1.4
		c0,1,0.2,1.6,0.8,2.1c0.4,0.4,1,1.1,1.2,1.5c0.3,0.4,0.8,0.7,1.2,0.7c1,0,2.5,1.4,2.6,2.5c0.1,1.2,1.4,1.6,1.8,0.5
		c0.3-0.8,1.1-0.8,1.9,0.1c0.3,0.3,1,0.6,1.6,0.6c0.7,0,1.1,0.2,1.2,0.7c0.1,0.5,0.5,0.7,1.6,0.7c0.8,0,1.3-0.1,1.2-0.3
		c-0.1-0.2,0.4-0.3,1.3-0.3c0.8,0,1.5-0.2,1.5-0.3c0-0.2,0.6-0.3,1.3-0.3c0.7,0,1.3,0.2,1.3,0.3c0,0.2,0.3,0.3,0.8,0.3
		c0.4,0,1,0.3,1.2,0.7c0.3,0.4,0.8,0.7,1.2,0.7s0.8,0.2,0.8,0.3c0,0.4,1.2,0.4,1.5,0c0.1-0.2,1.7-0.3,3.5-0.3c2,0,3.3-0.1,3.3-0.3
		c0-0.9,0.6-0.2,0.7,0.8c0.1,1.1,0.1,1.1,2.1,1.2c1.1,0.1,2.2,0.2,2.3,0.4s0.6,0.3,0.9,0.3c0.3,0,0.6,0.2,0.6,0.3
		c0,0.2,0.4,0.3,0.8,0.3c0.5,0,0.8-0.2,0.8-0.3c0-0.2,0.3-0.3,0.6-0.3c0.4,0,0.7-0.2,0.9-0.3c0.3-0.5,1.9-0.4,3.5,0.3
		c0.8,0.4,1.8,0.7,2.3,0.7c0.4,0,0.8,0.2,0.8,0.3c0,0.2,0.5,0.3,1,0.3c0.6,0,1-0.2,1-0.3c0-0.6,0.8-0.4,1.3,0.3
		c0.3,0.4,0.7,0.7,0.9,0.7c0.2,0,0.4,0.2,0.4,0.3c0,0.4,2.9,0.4,3.2,0c0.1-0.2,1.3-0.3,2.7-0.3c1.4,0,2.5,0.1,2.5,0.3
		c0,0.2,0.3,0.3,0.7,0.3c0.4,0,0.7,0.2,0.7,0.3c0,0.2,0.2,0.3,0.5,0.3c0.3,0,0.6,0.4,0.8,0.8c0.3,0.9,0.1,2.2-0.4,2.2
		c-0.5,0-0.3,1,0.3,1.6c0.3,0.4,0.8,0.6,1,0.5c0.5-0.2,2.8,0.9,2.8,1.3c0,0.1,0.3,0.3,0.6,0.3c0.4,0,0.7,0.2,0.9,0.3
		c0.1,0.2,0.5,0.3,0.9,0.3c0.4,0,0.6,0.1,0.4,0.4c-0.2,0.3,0,0.3,0.6,0.2c0.6-0.1,1,0,1.4,0.3c0.6,0.6,2,0.6,3.5,0.1
		c0.9-0.3,1.2-0.3,1.3,0c0.2,0.5,1.3,0.5,1.5,0c0.1-0.3,0.2-0.3,0.5,0c0.3,0.5,1.1,0.3,1.1-0.3c0-0.7,1-1.3,2-1.3
		c0.6,0,1.3-0.1,1.6-0.3c1-0.5,2.6-1.2,2.9-1.2c0.7-0.1,1-1.2,0.4-1.8c-0.3-0.3-0.6-0.8-0.6-1.1c0-0.6-1-1.3-1.9-1.3
		c-0.4,0-0.8-0.2-0.9-0.3c-0.1-0.2-0.4-0.3-0.7-0.3c-0.3,0-0.7-0.2-1-0.5c-0.3-0.3-0.9-0.5-1.3-0.5c-0.4,0-0.8-0.1-0.8-0.3
		c0-0.2-0.4-0.2-0.8-0.2c-0.5,0.1-0.8-0.1-0.8-0.4c0-0.6,3.2-0.7,3.5-0.1c0.1,0.2,1.3,0.3,2.7,0.3c1.4,0,2.5-0.1,2.5-0.3
		c0-0.2,0.2-0.3,0.5-0.3c0.3,0,0.5-0.2,0.5-0.3c0-0.2,0.3-0.3,0.7-0.3c0.4,0,0.7-0.2,0.9-0.3c0.1-0.2,0.5-0.3,1-0.3
		c1.3,0,2.4-1.4,1.5-2.1c-0.4-0.3-0.8-0.6-0.9-0.6c-0.5,0-2.1,0.8-2.1,1.1c0,0.7-4.3,0.2-4.4-0.5c-0.1-0.7-0.3-0.8-3.1-0.9
		c-1.7-0.1-3.2-0.2-3.3-0.4c-0.2-0.2-0.7-0.3-1.2-0.3c-0.5,0-1.1-0.3-1.3-0.7c-0.3-0.4-0.7-0.7-1.1-0.7c-0.3,0-0.7-0.3-0.8-0.7
		c-0.2-0.7-1.8-1-1.8-0.3c0,0.2-0.2,0.3-0.5,0.3c-0.3,0-0.5-0.2-0.5-0.3c0-0.2-0.9-0.3-1.9-0.3c-1.9,0-3.1-0.5-3.1-1.3
		c0-0.2-0.3-0.4-0.7-0.4c-0.4,0-0.7-0.2-0.7-0.5c0-0.3-0.8-1.2-1.7-2.1c-2.1-2-2.1-2.8,0.1-2.4c0.2,0,0.2-0.1,0.1-0.3
		c-0.1-0.2,0.5-0.3,1.7-0.3c1,0,1.9-0.2,1.9-0.3c0-0.2,0.3-0.3,0.6-0.3c1.4,0,2.4-0.8,2.4-1.9c0-1.7-1-2.5-3.2-2.5
		c-1,0-1.9-0.2-2-0.3c-0.1-0.2-0.8-0.3-1.5-0.3c-0.7,0-1.3-0.2-1.3-0.4c0-0.2-0.4-0.3-1.1-0.1c-2.4,0.5-3.9,0.6-3.9,0.2
		c0-0.2-0.7-0.4-1.6-0.4c-0.9,0-1.7-0.1-1.8-0.3c-0.2-0.5-3.1-1.8-4-1.8c-0.5,0-1-0.1-1-0.3s-0.3-0.4-0.7-0.5
		c-0.4-0.1-0.7-0.5-0.7-1c0-0.4-0.2-1-0.4-1.2c-0.3-0.3-0.3-0.5,0.3-1c0.4-0.3,0.8-1,0.8-1.4c0-1.1,0.7-2.6,1.3-2.6
		c1.2,0,1.8-1.7,1.1-3c-0.2-0.4-0.2-0.6,0-0.6c0.5,0,0.4-1-0.1-1.5c-0.8-0.8-1.9-1.2-3.2-1.2c-0.7,0-1.4-0.2-1.4-0.3
		c0-0.7-1.6-0.3-2.6,0.7c-1,0.9-1.2,1-3.4,1c-1.3,0-2.3,0.1-2.3,0.3c0,0.3-1.6,1-2.7,1.3c-1.9,0.4-5.3-1.1-5.3-2.3
		c0-0.3-0.2-0.5-0.3-0.5c-0.2,0-0.3-0.7-0.3-1.5c0-0.8-0.2-1.5-0.3-1.5c-0.2,0-0.3-0.3-0.3-0.7s-0.2-0.7-0.3-0.7s-0.3-0.8-0.3-1.7
		c0-0.9-0.1-1.7-0.3-1.7c-0.2,0-0.4-0.3-0.5-0.7c-0.1-0.4-0.5-0.8-0.8-0.9c-0.3-0.1-0.8-0.4-1.1-0.7c-0.2-0.2-0.8-0.5-1.3-0.6
		c-2.1-0.4-3.5-1.8-2.7-2.6c0.4-0.4,0.4-2.1,0-2.9c-0.2-0.4-0.4-1.4-0.5-2.2c-0.1-0.9-0.3-1.6-0.5-1.7c-0.2-0.1-0.4-0.6-0.4-1.1
		s-0.2-1-0.3-1c-0.2,0-0.3-0.5-0.3-1c0-0.6-0.2-1-0.3-1c-0.2,0-0.3-0.5-0.3-1.2c0-0.9-0.1-1.2-0.7-1.2c-0.4,0-0.7,0.2-0.7,0.3
		c0,0.5-2.1,0.4-2.6-0.1c-0.2-0.2-0.4-0.7-0.4-1c0-0.3-0.2-0.6-0.5-0.6c-0.3,0-0.9-0.4-1.4-0.8c-0.8-0.7-1.2-0.8-3-0.8
		c-1.7,0-2.1-0.1-2.1-0.5c0-0.3-0.1-0.8-0.3-1.1c-0.2-0.3-0.5-1-0.7-1.5c-0.3-0.7-0.7-0.9-1.5-0.9c-1.1,0-1.1-0.1-1.1-1.2
		c0-1.1-0.1-1.2-1-1.2c-0.9,0-1-0.1-1-0.9c0-0.8-0.4-1.2-2.5-2.6c-1.4-0.9-2.5-1.8-2.5-1.9c0-0.1-0.3-0.3-0.7-0.3
		c-0.4,0-0.7-0.2-0.9-0.3c-0.1-0.2-0.6-0.3-1.2-0.3c-0.8,0-1-0.2-1-0.7c0-0.4-0.2-0.7-0.3-0.7s-0.3-0.6-0.3-1.3
		c0-0.7-0.2-1.4-0.3-1.5c-0.2-0.1-0.3-0.8-0.3-1.6c0-1.2-0.2-1.5-1-2.2c-0.9-0.7-1-0.9-1-2.4c0-1.6-0.1-1.7-0.8-1.7
		c-0.6,0-0.8-0.2-0.8-0.6c0-0.3-0.1-0.5-0.2-0.3c-0.6,0.6-1.1-1.1-1.1-3.4l0-2.4h1.3c0.7,0,1.3-0.2,1.3-0.3c0-0.2,0.4-0.3,1-0.3
		c0.5,0,1.1,0.2,1.2,0.3c0.1,0.2,2,0.3,4.5,0.3c2.7,0,4.3,0.1,4.3,0.3c0,0.2,0.5,0.3,1.2,0.3c0.6,0,1.2-0.2,1.4-0.3
		c0.1-0.2,0.6-0.3,1-0.3c0.4,0,0.9-0.2,1-0.3c0.1-0.2,1.3-0.3,2.7-0.3c1.4,0,2.5-0.1,2.5-0.3c0-0.2,0.2-0.3,0.4-0.3
		c0.7,0,1.4-2.9,1-4.1c-0.2-0.6-0.2-1-0.1-1.1c0.4-0.3,0.4-2.5,0-2.5c-0.2,0-0.3-0.3-0.3-0.6c0-0.4-0.2-0.7-0.3-0.9
		c-0.2-0.1-0.3-0.5-0.3-0.8c0-0.7-1.1-2-1.6-2c-0.6,0-2-1.6-2-2.2c0-0.3-0.3-0.9-0.8-1.3c-0.4-0.4-0.8-0.9-0.8-1c0-0.8-5-5-6.1-5
		c-0.6,0-1.2-0.2-1.3-0.3c-0.1-0.2-1-0.3-2-0.3c-1,0-1.9,0.2-2,0.3c-0.1,0.2-1,0.3-1.9,0.3c-0.9,0-1.7-0.2-1.7-0.3
		c0-0.2-0.6-0.3-1.3-0.3c-1.5,0-2.1-0.5-2.7-1.8c-0.4-1-0.5-1-2.2-1c-1,0-1.8-0.1-1.8-0.3c0-0.4-2.9-1.8-3.6-1.8
		c-0.2,0-0.7-0.3-1.1-0.7c-0.4-0.4-0.9-0.7-1.2-0.7c-0.2,0-0.4-0.2-0.4-0.4c0-0.5-0.9-1.3-1.4-1.3c-0.2,0-0.7-0.3-1-0.7
		c-0.4-0.5-1-0.7-1.9-0.7c-0.7,0-1.4-0.2-1.5-0.3c-0.1-0.2-1.1-0.3-2.2-0.3c-1.1,0-2-0.1-2-0.3c0-0.4-1.7-1.1-2.7-1.1
		c-0.5,0-1-0.1-1.2-0.3c-0.7-0.6-4.2-1.5-4.2-1.1c0,0.5-1.3,0.6-1.6,0.1c-0.2-0.4-0.3-0.4-0.5,0.1c-0.2,0.4-0.4,0.5-1,0.3
		c-1-0.3-1.9-1.2-1.4-1.4c0.2-0.1,0.4-0.7,0.4-1.4c0-1.3,0.6-3,1.1-3.1c0.1,0,0.3-1.7,0.3-3.9c0-2.3-0.1-3.9-0.3-3.9
		c-0.2,0-0.3-0.2-0.3-0.5c0-0.3,0.2-0.5,0.3-0.5c0.2,0,0.3-0.7,0.3-1.5c0-1.5-0.5-2.5-1.4-2.5c-0.8,0-4.4-3.7-5.3-5.4
		c-0.3-0.5-0.8-1-1.1-1.1c-0.4-0.1-0.7-0.5-0.8-0.9c-0.1-0.4-0.3-0.7-0.4-0.7c-0.1,0-1.2-0.9-2.3-2c-2.1-2-4-2.7-4.6-1.7
		c-0.1,0.2-0.7,0.3-1.2,0.3c-0.5,0-1-0.2-1-0.3s-0.5-0.3-1-0.3s-1-0.1-1-0.3c0-0.1-0.5-0.7-1-1.3c-0.6-0.6-1-1.2-1-1.4
		c0-0.5-0.8-1.3-1.3-1.3c-0.2,0-0.4-0.2-0.4-0.3c0-0.2-0.4-0.3-0.8-0.3c-0.7,0-0.8-0.1-0.6-0.8c0.2-1-0.7-2.2-1.6-2.2
		c-0.3,0-0.8-0.3-1.2-0.7c-0.4-0.5-1-0.7-2.1-0.7c-0.8,0-1.5-0.2-1.5-0.3c0-0.2-0.5-0.3-1.1-0.3c-1.3,0-1.4-0.3-1.6-2.5
		c-0.1-1.8-0.9-2.5-2.6-2.5c-0.7,0-1.4-0.2-1.4-0.3c0-0.7-4.4-0.4-4.6,0.3c-0.1,0.5-0.5,0.7-1.2,0.7c-0.6,0-0.9-0.1-0.8-0.4
		c0.4-0.6-0.6-1-2.7-1c-1.4,0-2.2-0.2-2.5-0.5c-0.2-0.3-0.3-0.5-0.2-0.5c0.3,0-1.1-1.1-2.2-1.6c-0.5-0.2-1.2-0.9-1.6-1.4
		c-0.5-0.7-1-1-1.7-1c-0.7,0-1-0.2-1-0.5c0-0.5-0.9-1.1-1.7-1.1c-1.2,0.1-1.5-0.1-1.9-1.1c-0.2-0.6-0.6-1-0.8-1
		c-0.4,0-1.3-0.8-1.3-1.1c0-0.1,0.4-0.2,1-0.2c1.4,0,1.8-1.5,0.6-2.4c-1-0.8-3-0.9-3-0.1c0,0.3-0.2,0.4-0.3,0.3
		c-0.7-0.4-0.3,1.2,0.4,1.7l0.7,0.5h-0.9c-0.5,0-1-0.2-1.1-0.3c-0.1-0.2-1-0.3-2-0.3c-1.3,0-1.8-0.1-2-0.5c-0.1-0.3-0.5-0.5-1.2-0.4
		c-0.5,0.1-1.2-0.1-1.6-0.3c-0.4-0.3-1.6-0.5-3.6-0.5c-1.6,0-3-0.2-3.1-0.3c-0.1-0.2-0.6-0.3-1-0.3c-0.4,0-0.9-0.1-1-0.3
		c-0.1-0.2-0.7-0.4-1.4-0.5c-0.6-0.1-1.7-0.3-2.3-0.4c-0.6-0.1-1.2-0.3-1.2-0.5c0-0.2-0.5-0.3-1.2-0.3c-0.6,0-1.2-0.2-1.2-0.3
		c0-0.2-0.4-0.3-1-0.3c-0.5,0-1.1-0.2-1.3-0.5c-0.2-0.3-1.1-0.7-1.9-0.9c-0.8-0.2-1.6-0.6-1.7-0.7c-0.1-0.2-0.5-0.3-1-0.3
		c-0.4,0-0.9-0.2-1-0.3c-0.1-0.2-0.7-0.3-1.2-0.3s-1-0.2-1-0.3c0-0.2-0.5-0.3-1-0.3s-1-0.2-1-0.3s-0.6-0.3-1.3-0.3
		c-1,0-1.3-0.1-1.1-0.5c0.4-1.1-1.8-2.5-4.1-2.5c-1.9,0-2.1-0.1-2.1-0.7c0-0.5-0.2-0.7-1-0.7c-0.6,0-1-0.2-1-0.3s-0.3-0.3-0.7-0.3
		s-0.7-0.2-0.7-0.3s-0.4-0.3-0.8-0.3c-0.5,0-0.8-0.2-0.8-0.3s-0.3-0.3-0.7-0.3c-0.4,0-0.7-0.2-0.7-0.5c0-0.3-0.2-0.5-0.5-0.5
		c-0.8,0-3.2-0.8-3.2-1.1c0-0.1-0.3-0.3-0.7-0.3c-0.4,0-0.7-0.2-0.9-0.3c-0.1-0.2-0.6-0.3-1-0.3s-1-0.3-1.4-0.7
		c-0.3-0.4-0.8-0.7-1.1-0.7c-0.2,0-0.4-0.2-0.4-0.3s-0.4-0.3-0.8-0.3c-0.4,0-0.9-0.2-1-0.5C67.9,160.8,61.2,159.9,60.7,160.4
		 M361.1,160.7c-0.5,0.3-0.7,0.9-0.7,1.4c0,0.5-0.3,1.1-0.7,1.3c-0.9,0.6-1,5-0.1,5.3c0.9,0.3,1.4,1,1.4,1.8c0,1.3,1.8,2.7,2.9,2.2
		c0.5-0.2,0.8-0.4,0.7-0.5c-0.2,0,0-0.3,0.3-0.7c0.8-0.9,0.1-2.7-1.1-2.7c-0.7,0-0.8-0.1-0.8-2.1c0-1.4-0.1-2.2-0.4-2.3
		c-0.3-0.1-0.3-0.3,0.1-0.5c0.3-0.2,0.6-0.3,0.7-0.2c0.4,0.3,0.7-2.2,0.3-2.6c-0.2-0.2-0.4-0.3-0.4-0.1c0,0.1-0.2,0-0.5-0.3
		C362.2,160.1,362,160.1,361.1,160.7 M330.7,169.2c-0.1,0.2-0.7,0.5-1.4,0.9c-1.1,0.5-1.7,1.9-0.9,2.3c0.4,0.3,2.7-0.2,2.6-0.5
		c-0.1-0.1,0.3-0.1,0.8,0.2c1.9,0.9,3.9,0.5,4-0.7c0.1-0.9,0-1.1-0.6-1.1c-0.4,0-0.7-0.2-0.7-0.3c0-0.2-0.3-0.3-0.7-0.3
		c-0.4,0-0.7-0.2-0.7-0.3C333.2,168.8,331,168.8,330.7,169.2 M376.7,173c-2.2,1.7,1.2,6.7,3.9,5.7c0.6-0.2,0.8-3.8,0.2-3.8
		c-0.2,0-0.4-0.5-0.4-1.1C380.3,172.6,377.9,172.1,376.7,173 M145.2,176.8c-0.9,0.9-0.2,2.8,1.1,2.8c1.3,0,1.3-0.1,1.3-1
		c0-0.6-0.2-1-0.3-1s-0.3-0.2-0.3-0.5C146.9,176.6,145.6,176.4,145.2,176.8 M431.4,178.3c0,0.4,0.2,0.7,0.5,0.7
		c0.6,0,1.1,0.5,1.8,1.8c0.3,0.5,0.6,0.9,0.8,0.9c0.2,0,0.3,0.2,0.3,0.5c0,1.2,1.5,3.2,2.4,3.2c0.7,0,0.7-2.2,0-2.6
		c-0.2-0.1-0.4-0.5-0.6-1c-0.1-0.4-0.4-0.9-0.6-1.2c-0.2-0.2-0.7-1-1-1.7C434.3,177.4,431.4,176.9,431.4,178.3 M396.6,182.3
		c-0.2,0.4-0.3,0.9-0.3,1.2c0,0.4-0.3,0.5-1,0.5c-0.7,0-1,0.2-1.2,0.7c-0.2,0.9,0,1.3,0.8,1.3c0.4,0,0.6,0.2,0.6,0.3
		s0.4,0.3,0.8,0.3c1,0,1.4-0.8,0.9-1.7c-0.6-1-0.5-1.1,1-0.8l1.3,0.2V183C399.6,181.4,397.3,180.9,396.6,182.3 M159.3,186.3
		c0,0.9,0.1,1,1,1c1.5,0,1.4-1.8-0.1-1.9C159.4,185.3,159.3,185.4,159.3,186.3 M407.8,199.4c-0.1,0.2-0.6,0.3-1,0.3
		c-0.6,0-1,0.3-1.2,0.8c-0.2,0.5-0.5,0.8-0.6,0.7c-0.1-0.1-0.2,0.2-0.1,0.7c0.2,1.1,1.3,2.1,2.1,2c0.3-0.1,0.8-0.1,1-0.1
		c0.3,0,0.4-0.5,0.4-1.4c0-1.4,0.2-1.6,0.9-1c0.6,0.6,1.1,0,1.1-1.2C410.3,199,408.4,198.4,407.8,199.4 M170.7,201.6
		c0,2.1,2.9,3.6,3.3,1.7c0.1-0.4,0.3-0.8,0.6-0.9c1-0.6-0.5-1.9-2.3-1.9l-1.6,0V201.6 M374.4,202.6c-0.5,0.2-1.1,1-1.2,1.7
		c0,0.2,0.1,0.3,0.2,0.2c0.2-0.1,0.3,0.2,0.4,0.6c0.1,0.9,2.2,1.3,2.7,0.5C377.5,204,376.2,202,374.4,202.6 M366.1,203.4
		c-0.4,0.3-0.7,0.8-0.7,1c0,0.2-0.4,0.4-0.8,0.4c-0.5,0-0.8-0.2-0.8-0.4s-0.4-0.3-0.9-0.3c-1,0.1-1.7,2.6-0.8,2.6
		c0.2,0,0.2,0.2-0.1,0.5c-0.4,0.4-1.7,0.4-2.3,0c-0.2-0.1-0.3-0.5-0.3-0.9c0-0.4-0.3-0.8-0.7-0.9c-0.4-0.1-0.7-0.3-0.7-0.5
		c0-0.2-1-0.3-2.2-0.3c-1.3,0-2.2-0.1-2.2-0.4c0-0.2-1-0.3-2.7-0.3l-2.7,0.1v2.6c0,1.5,0.1,2.6,0.3,2.6c0.2,0,0.3,0.3,0.3,0.6
		c0,0.3,0.5,1.1,1,1.7c0.7,0.8,1,1.4,1,2.2c0,0.7,0.3,1.6,0.7,2.1c0.5,0.7,0.7,1.5,0.7,3.5c0,1.4,0.2,2.6,0.3,2.6
		c0.4,0,0.4,0.8-0.1,1.8c-0.5,1-1,1.1-2.3,0.3c-0.9-0.5-1-0.5-1.6,0c-0.7,0.7-1.3,0.7-1.5,0.2c-0.3-0.8-2.9-0.5-3.5,0.3
		c-0.3,0.4-0.7,0.8-1,0.8c-0.3,0-0.4,0.2-0.3,0.3c0.1,0.2-0.1,0.3-0.4,0.3c-0.3,0-1.2,0.6-1.9,1.3c-0.7,0.7-1.4,1.3-1.6,1.3
		c-0.2,0-0.3,0.2-0.3,0.5c0,0.3-0.4,0.6-0.8,0.7c-0.5,0.1-0.8,0.4-0.8,0.7c0,0.3-0.1,0.5-0.3,0.5c-0.2,0-0.4,0.3-0.5,0.6
		c-1,2.8-1.2,3.8-1.2,5c0,1.1-0.2,1.4-0.6,1.6c-0.3,0.1-1,0.5-1.4,0.9c-0.7,0.6-0.8,0.6-0.9,0.2c-0.1-0.3-0.2-0.4-0.4-0.3
		c-0.2,0.1-0.3,0-0.3-0.1c0-0.2-0.3-0.4-0.7-0.5c-0.8-0.2-2.7,0.8-2.7,1.4c0,1.5-2,1.7-3.1,0.3c-0.8-1-1.2-1.2-3.5-1.7
		c-0.3-0.1-0.7,0-1,0.2s-1,0.5-1.5,0.7c-0.5,0.2-1.5,0.9-2.1,1.5c-1.2,1.1-2.3,1.4-2.6,0.8c-0.1-0.2-0.5-0.3-0.8-0.3
		c-0.7,0-1.5-1.2-1.2-1.9c0.1-0.3,0-0.6-0.1-0.7c-2-1.2-1.9-7.5,0.1-7.5c1.7,0,2.8-2.7,1.6-3.8c-0.8-0.8-5.1-0.8-5.1-0.1
		c0,0.3-0.2,0.5-0.3,0.5c-0.2,0-0.3,0.7-0.3,1.6c0,0.9-0.2,1.8-0.4,2c-0.3,0.3-0.3,0.5,0,0.9c0.5,0.6,0,1.5-0.9,1.5
		c-0.3,0-0.5,0.3-0.5,0.6c0,0.3-0.1,0.5-0.2,0.3c-0.2-0.2-1.1,1.3-1.1,1.9c0,0.2,0.2,0.6,0.5,0.8s0.4,0.5,0.3,0.7
		c-0.1,0.1,0.1,0.4,0.4,0.5c1.3,0.5-0.6,1.9-2.6,1.9c-1.1,0-1.9,0.2-1.9,0.3s-0.2,0.3-0.4,0.3c-0.5,0-1.3-0.9-1.3-1.3
		c0-0.5-0.5-0.4-1.1,0.1c-0.3,0.3-0.8,0.5-1.1,0.5c-0.9,0-3.2,0.9-3.4,1.2c-0.1,0.2-1.1,0.2-2.3,0.2c-1.5-0.1-2.1,0-2,0.3
		c0.2,0.2-0.3,0.4-1.3,0.4c-0.8,0-1.5-0.2-1.5-0.3s-0.2-0.3-0.5-0.3s-0.5-0.1-0.5-0.3c0-0.2-0.7-0.5-1.7-0.7
		c-0.9-0.2-1.7-0.6-1.8-0.8c-0.2-0.6-3-1.4-3.2-0.9c-0.1,0.2-0.5,0.4-0.9,0.4c-0.4,0-1.2,0.4-1.7,0.8c-1,0.8-2,0.7-2.6-0.4
		c-0.5-0.7-3.7-0.4-4.6,0.5c-1,0.9-1.4,1-1.4,0.2c0-0.4-0.6-0.9-1.6-1.4l-1.6-0.8l-1.3,0.7c-0.7,0.4-1.3,0.9-1.3,1.1
		c0,0.2-0.2,0.4-0.3,0.4c-0.2,0-0.3,0.5-0.3,1.1s-0.2,1.6-0.4,2.2c-0.9,2.5,1.6,5.8,4.3,5.8c0.5,0,1,0.2,1.3,0.4
		c1.4,1.3,2.1,1.4,2.7,0.6c0.3-0.4,0.5-0.4,0.7-0.1c0.1,0.2,0.9,0.5,1.6,0.7c0.7,0.2,1.3,0.5,1.4,0.7c0,0.2,0.1,0.6,0.1,0.9
		c0,0.6,1.7,0.7,1.7,0.1c0-0.3,0.2-0.2,0.5,0c0.3,0.2,0.5,0.7,0.5,1c0,0.4,0.2,0.6,0.8,0.6c1,0,2.9,1,4.1,2.2
		c0.5,0.5,0.7,0.8,0.5,0.6c-0.3-0.2-0.4,0-0.3,0.9c0.1,1.1,2,2,2,1c0-0.2,0.5-0.4,1-0.4c0.8,0,1.1-0.2,1.2-0.7
		c0.1-0.5,0.5-0.7,1.3-0.7c0.6,0,1.5-0.2,2-0.4c0.7-0.3,1-0.3,1.3,0c0.2,0.2,0.8,0.4,1.3,0.4c0.9,0,2.5,1.2,2.7,2.1
		c0.1,0.2,0.4,0.7,0.8,1c0.4,0.3,0.7,0.8,0.6,1.1c-0.4,1.1,1.8,1.5,7.1,1.5c3.2,0,5.1,0.1,5.1,0.3c0,0.2,0.4,0.3,0.8,0.3
		c0.4,0,0.9-0.2,1-0.3c0.1-0.2,0.7-0.3,1.4-0.3s1.2-0.2,1.2-0.3c0-0.4,1.2-0.4,1.5,0c0.6,0.9,6,0.4,7.7-0.7c0.9-0.6,1.7-1.1,1.8-1.1
		c0.1,0,0.5-0.4,1-0.8c0.9-0.8,1.1-0.9,2.3-0.8c0.4,0,0.8-0.1,0.8-0.3c0-0.2,0.5-0.4,1.1-0.4c1.3,0,2.2-0.9,2.2-2.2
		c0-0.9,0-0.9,0.8-0.4c0.6,0.4,0.9,0.4,1.2,0.1c0.2-0.2,1.2-0.4,2.3-0.4c1.1,0,2.1-0.1,2.4-0.1c0.2,0,0.4-0.3,0.4-0.7
		c0-0.4,0.2-0.7,0.7-0.7c0.4,0,0.7-0.2,0.7-0.3c0-0.2,0.5-0.3,1-0.3c0.7,0,1.4-0.3,2.3-1.3c0.7-0.7,1.7-1.4,2.2-1.5
		c1.2-0.3,2.2-1.3,2.5-2.5c0.3-1.3,0.8-1.8,1.6-1.8c0.4,0,0.9-0.2,1.2-0.5c0.2-0.3,0.5-0.4,0.7-0.3c0.2,0.1,0.3-0.3,0.3-0.8
		c0-1-0.6-1.7-1.8-2.3c-0.6-0.2-0.5-0.3,0.5-0.4c0.6-0.1,1.3,0,1.5,0.2c0.5,0.5,2.6,0.5,2.6,0c0-0.7,2.3-0.4,2.5,0.3
		c0.3,0.9,2.7,0.9,3.9,0c0.5-0.4,1.3-0.7,1.9-0.7c0.6,0,1.1-0.2,1.1-0.4c0-0.4,1-1.5,1-1.1c0,0.2,0.2,0,0.4-0.2
		c0.2-0.3,0.7-0.5,1.1-0.5c1.4,0,2.5-4.4,1.5-5.7c-1-1.3-2.5-2.8-2.7-2.8c-0.6,0-1.2-1.1-1.2-2.3c0-0.8-0.1-1.3-0.3-1.2
		c-0.2,0.1-0.3,0-0.3-0.3c0-0.4,0.5-0.5,3.4-0.5c3.6,0,6-0.9,6-2.3c0-0.3,0.3-0.7,0.6-1c1.7-1.5,3-8.1,1.7-8.9
		c-0.2-0.1-0.3-1-0.3-1.9c0-0.9,0.2-1.7,0.3-1.7c0.2,0,0.3-0.3,0.3-0.7c0-0.4,0.2-1,0.5-1.3c0.9-1,0-1.7-2-1.6
		c-0.9,0-2.2-0.1-2.9-0.4c-0.6-0.2-1.4-0.5-1.7-0.6c-0.3-0.1,0-0.2,0.6-0.3c0.6-0.1,1.1-0.3,1.1-0.5
		C369.7,203.8,367.7,202,366.1,203.4 M419.9,209.3c-0.4,0.4-0.2,1.3,0.6,2.5c0.6,0.8,0.7,1.5,0.6,2.1c-0.1,0.7,0,1.1,0.5,1.6
		c0.8,0.8,2.4,0.9,2.4,0.1c0-0.3,0.2-0.5,0.3-0.5c1.2,0-0.2-2.8-1.7-3.3c-0.7-0.2-0.8-0.5-0.8-1.4
		C421.8,209.3,420.6,208.6,419.9,209.3 M195.7,214.6c-2.7,2.8-1.8,6.6,1.5,6.6c0.7,0,1.3-0.1,1.3-0.3c0-0.2,0.3-0.4,0.7-0.5
		c0.5-0.1,0.7-0.5,0.7-1.2c0-0.5,0.2-1,0.3-1c0.2,0,0.3-0.6,0.3-1.3s-0.2-1.3-0.3-1.3c-0.2,0-0.3-0.2-0.3-0.4
		C199.8,213.1,197.4,212.8,195.7,214.6 M292.3,217.4c-0.5,0.6-0.7,2.2-0.3,1.9c0.2-0.1,0.3,0,0.3,0.2s0.5,0.4,1.2,0.4
		s1.2,0.2,1.4,0.3c0.3,0.5,1.8-0.7,1.8-1.4C296.7,217.1,293.5,216.1,292.3,217.4 M203.3,221c-0.9,1,0.1,2.8,1.5,2.8
		c0.5,0,1.8-1.2,1.8-1.7C206.6,220.9,204.1,220,203.3,221 M283.2,223c-0.8,2,0.8,3.3,2.2,1.9c1.1-1.1,0.6-2.4-0.9-2.4
		C283.8,222.5,283.3,222.7,283.2,223 M338.4,223.7c-0.1,0.3-0.3,0.4-0.5,0.3c-0.4-0.2-0.7,0.7-0.5,1.3c0.4,1,2.8,2.1,2.8,1.2
		c0-0.2,0.3-0.4,0.7-0.5c0.9-0.2,0.9-1.6,0.1-2.4C340.2,223,338.6,223,338.4,223.7 M432,227.8c-1.1,1.1-1.7,4-0.8,3.6
		c0.5-0.2,0.5,0,0.3,1.5c-0.2,1.2-0.1,1.7,0.2,1.7c0.2,0,0.3,0.3,0.2,0.8c-0.1,0.5,0.1,1,0.3,1.2c0.3,0.2,0.5,0.7,0.5,1
		c0,0.3,0.2,0.6,0.3,0.6c0.2,0,0.3,0.5,0.3,1c0,0.8,0.1,1,0.8,1c0.5,0,0.8-0.2,0.8-0.4c0-0.2,0.3,0,0.7,0.4c0.4,0.4,0.6,0.9,0.5,1.1
		c-0.1,0.2,0.1,0.3,0.4,0.3c0.6,0,0.6,0,0,0.4c-0.5,0.3-0.6,0.8-0.6,2.3c0,1.1-0.1,2-0.3,2c-0.2,0-0.3,0.8-0.3,1.7
		c0,1.3,0.1,1.7,0.5,1.7c0.4,0,0.5,0.3,0.4,1.7c-0.1,0.9,0,1.7,0.2,1.7c0.2,0,0.3,0.2,0.3,0.5c0,0.3,0.2,0.5,0.4,0.5
		s1.1,0.8,1.9,1.7c0.9,0.9,1.9,1.9,2.4,2.1c0.5,0.2,1,0.9,1.1,1.5c0.2,0.6,0.4,1.1,0.6,1.1c0.2,0,0.3,0.2,0.3,0.5
		c0,0.3,0.2,0.4,0.3,0.3c0.2-0.1,0.3-0.1,0.3,0.1c0,0.4,2,1.4,2.7,1.4c1.8,0,3,1.3,3,3.1c0,1.8-0.3,2.6-0.9,2.6
		c-0.7,0-0.6,1.7,0.1,2.3c1,0.9,3.2,3.7,2.9,3.7c-0.2,0,0.3,0.4,0.9,0.8c0.7,0.5,1.4,0.8,1.5,0.8c0.2,0,0.4,0.2,0.5,0.4
		c0.2,0.5,2.8,1.9,3.6,1.9c0.3,0,0.7,0.2,0.8,0.3c0.6,1,5.1,0.4,6.1-0.9c1-1.1,2.2-1.5,3-0.7c1,1,2.8-0.9,2.8-2.9
		c0-0.8-0.1-1.5-0.3-1.5c-0.3,0-0.7-1.4-0.9-3.4c-0.1-0.8-0.4-1.6-1-2c-0.5-0.4-0.8-1-0.8-1.3c0-0.3-0.2-0.5-0.3-0.5
		c-0.2,0-0.3-0.3-0.3-0.6c0-0.4-0.4-0.8-1.2-1.2c-0.7-0.3-1.4-0.9-1.6-1.4c-0.2-0.4-0.6-0.8-0.9-0.8c-0.6,0-1.2-1-1.4-2.1
		c-0.1-0.9-1.9-1-1.9,0c0,0.6,0,0.6-0.5-0.1c-0.5-0.8-1.5-1-1.5-0.4c0,0.2-0.4,0-0.8-0.5c-0.5-0.5-0.8-1.1-0.8-1.4
		c0-0.3-0.2-0.5-0.3-0.5s-0.3-0.4-0.3-1c0-1-2.5-4-3.3-4c-0.2,0-0.3-0.2-0.3-0.3c0-0.2-0.3-0.3-0.6-0.3c-0.7,0-2.1-1.9-2.1-3
		c0-0.7-0.4-1.2-2-3.3c-0.2-0.2-0.3-0.6-0.3-0.9c0-0.3-0.2-0.6-0.3-0.7c-0.2-0.1-0.3-0.5-0.3-0.9c0-0.6-0.3-0.7-2.8-0.7
		c-1.7,0-2.8-0.1-2.8-0.3c0-0.2-0.3-0.3-0.7-0.3c-0.4,0-0.7-0.2-0.7-0.4c0-0.6-1.7-2-2.4-2c-0.8,0-0.9-3.2-0.1-3.5
		c0.8-0.3,0.6-2.1-0.3-3c-0.7-0.7-0.8-1.2-0.8-2.4C436.1,226.7,433.8,225.9,432,227.8 M227.4,232.2c0,0.2-0.3,0.3-0.6,0.3
		c-2.2,0-2.4,3.7-0.3,5.4c0.8,0.6,1.5,1.3,1.5,1.4c0.1,0.1,1,0.3,2.1,0.3c2,0,2,0,2-1c0-0.6,0.2-1,0.5-1c0.6,0,0.5-1.7-0.1-1.9
		c-0.2-0.1-0.4-0.6-0.4-1.1c0-1.3-1.8-2.7-3.5-2.7C227.9,231.9,227.4,232,227.4,232.2 M240.7,234.6c-1.2,1.4-0.4,3,1.5,3
		c1.1,0,1.7-0.6,1.7-1.7C243.8,234,241.8,233.2,240.7,234.6 M254.5,238.5c0,2.1,1.1,2.7,2.6,1.4c0.7-0.6,1-2.1,0.4-2.1
		c-0.2,0-0.3-0.2-0.3-0.5c0-0.4-0.4-0.5-1.3-0.5h-1.3V238.5 M246.3,240c-0.4,0.2-0.5,0.8-0.5,2.3c0,2,0.2,2.4,2.2,4.6
		c0.4,0.4,0.8,1.1,0.9,1.4c0.2,0.5,0.5,0.7,1.3,0.7c1,0,1.1,0.1,1.2,1.1c0.1,1,0.2,1.1,1.4,1.1c0.7,0,1.3-0.2,1.3-0.3
		c0-0.2,0.3-1,0.8-1.9c1-2,1.1-4.6,0.1-5.5c-1.2-1.1-1.7-1.5-2.2-1.5c-0.3,0-0.5-0.2-0.5-0.3s-0.4-0.3-0.9-0.3
		c-0.6,0-1.3-0.3-1.7-0.8C249,239.6,247.4,239.4,246.3,240 M335.1,321.7c-1.4,1.7-1.2,4,0.3,4c0.1,0,0.6,0,1.2,0h1l-0.7,1.1
		c-0.4,0.6-0.9,1.3-1.2,1.5c-1,0.9-0.1,3,1.3,3c0.3,0,0.5,0.2,0.4,0.5c-0.1,0.3,0.1,0.6,0.4,0.7c0.3,0.1,0.7,0.4,0.9,0.6
		c0.2,0.2,0.4,0.2,0.6-0.1c0.5-0.7,0.4-1.8-0.1-2.3c-0.5-0.5-0.4-3.4,0.1-3.9c0.4-0.4,0.4-2.4,0-2.7c-0.2-0.1-0.3-1-0.3-1.9v-1.7
		h-1.5C336.2,320.7,335.8,320.8,335.1,321.7 M127.9,322.3c0,0.4-0.7,0.4-1.3,0c-0.4-0.3-0.3-0.3,0.4-0.3
		C127.4,322,127.9,322.2,127.9,322.3 M137.1,323c-0.5,0.9,0.2,2.1,1.1,1.9c1.3-0.2,1.4-2.1,0-2.2C137.7,322.7,137.2,322.8,137.1,323
		 M373.4,335.4c0,0.2-0.2,0.3-0.3,0.3c-0.8,0-1.2,0.8-0.9,1.8c0.8,2.2,2,3.2,2.5,2c0.1-0.3,0.6-0.5,1.1-0.5c0.5,0,1,0.2,1.1,0.5
		c0.1,0.3,0.4,0.5,0.7,0.5c0.3,0,0.9,0.3,1.4,0.7s0.7,0.7,0.5,0.7c-0.6,0-0.4,1.7,0.2,1.9c0.3,0.1,0.8,0.5,1.1,0.8
		c0.8,0.8,1.6,1,2.1,0.5c0.4-0.4,0.5-0.4,0.6-0.1c0.1,0.3,1,0.4,3,0.4h2.9l0-1.1c0-0.6,0.2-1.1,0.5-1.2c0.6-0.2,0.3-1.5-0.5-2.2
		c-0.3-0.3-0.7-0.8-0.8-1.3c-0.1-0.4-0.3-0.7-0.5-0.7c-1.1,0.2-2.1-0.2-3-1.1c-1.1-1-1.1-1-4.7-1c-3.2,0-3.7-0.1-4.3-0.7
		C375.6,335,373.4,334.8,373.4,335.4 M312.1,342.4c0,0.2-0.3,0.4-0.6,0.6c-0.4,0.1-0.8,0.7-1.1,1.2c-0.2,0.5-0.5,1-0.6,1
		c-0.1,0-0.2,0.5-0.2,1.1c0,1,1.1,2.9,1.6,2.9c0.1,0,0.6,0.3,1,0.8c2.2,2,2.6,2.3,4.3,2.3h1.6l0.1-1.9c0.1-1.7,0.1-1.8,0.4-0.9
		c0.1,0.6,0.6,1.5,1.1,2l0.8,1l-0.9,0.7c-1.4,1.2-1.2,2.4,0.5,2.4c0.7,0,1.3-0.2,1.3-0.3s0.2-0.3,0.5-0.3c0.3,0,0.5,0.1,0.5,0.3
		c0,0.2,0.5,0.4,1.2,0.5c0.6,0.1,1.2,0.4,1.2,0.5c0,0.2,0.6,0.2,1.3,0.2l1.3-0.1v1.7c0,1.3,0.1,1.7,0.6,1.9c1.2,0.4,2.7,2.5,2.8,3.7
		c0.1,1,0.3,1.4,1.2,1.9c0.9,0.6,1.1,0.9,1.1,1.9c0,1.2,0,1.3,1.3,1.3c0.7,0,1.4,0.2,1.5,0.3c0.1,0.2,0.7,0.3,1.4,0.3
		c0.6,0,1.2,0.2,1.2,0.3s0.2,0.3,0.3,0.3c0.2,0,0.7,0.3,1.1,0.7c1,1,1.6,0.8,1.6-0.3c0-0.6,0.2-1,0.3-1c0.2,0,0.3-0.3,0.3-0.6
		s0.2-0.7,0.4-0.8c0.2-0.1,0.5-0.6,0.5-1.1c0-0.5,0.2-1.1,0.4-1.3c0.5-0.5,0.4-2.2-0.2-2.4c-0.3-0.1-0.4-0.3-0.3-0.5
		c0.1-0.2-0.5-0.3-1.4-0.3c-1.8,0-3.5,1.1-3.5,2.2c0,0.4-0.2,0.5-0.6,0.5c-0.4-0.1-0.6-0.4-0.5-0.9c0.1-0.8-0.6-1.7-1.3-1.8
		c-0.2,0-1-0.6-1.6-1.4c-0.6-0.7-1.7-1.6-2.3-1.9c-1.5-0.7-1-2.5,0.7-2.5c0.3,0,0.7-0.2,0.8-0.5c0.2-0.6,0.8-0.6,1.3,0
		c0.8,1,1.9,0.2,1.9-1.4c0-1.7-0.7-2.1-2.9-1.7c-1.1,0.2-1.5-0.5-1.1-1.7c0-0.1-0.3-0.3-0.7-0.5c-0.4-0.2-0.9-0.7-1.1-1.2
		c-0.6-1.6-1.8-2-4.2-1.2c-0.5,0.1-0.9,0-1.3-0.4c-0.7-0.7-2.1-1.5-2.7-1.5c-0.3,0-0.5-0.2-0.5-0.3c0-0.6-2.2-0.4-3,0.4
		c-0.9,0.8-0.8,0.9-1.4-0.9C317.2,343.6,312.1,340.7,312.1,342.4 M357.7,372.3c0,0.5,0.2,0.7,0.6,0.6c0.8-0.2,0.9-1.3,0.1-1.3
		C357.9,371.6,357.7,371.8,357.7,372.3 M358.2,373.9c-0.3,0.5,0.1,1,0.7,1c0.3,0,0.5-0.3,0.5-0.7
		C359.4,373.6,358.5,373.3,358.2,373.9 M364,375.8c0,0.3,0.3,0.5,1,0.5c0.7,0,1-0.2,1-0.5c0-0.3-0.3-0.5-1-0.5
		C364.4,375.3,364,375.4,364,375.8 M328.2,381.3c0,2.2-0.1,2.1,2.5,2.5c0.6,0.1,1.4,0.3,2,0.4c0.7,0.2,1,0.1,1.2-0.2
		c0.2-0.4,0.4-0.4,0.7,0c1.2,1.2,2.6,0.1,2.6-1.9v-1.4h-2.2c-1.9,0-2.2-0.1-2.1-0.6c0.1-0.5-0.2-0.6-2.3-0.7l-2.4-0.1V381.3
		 M376.3,381.9c-0.7,0.7,1.1,2.5,2.7,2.5c0.6,0,1.1,0.2,1.1,0.3c0,0.5,5.4,0.4,6.2-0.2c0.8-0.6,0.5-2.2-0.5-2.2
		c-0.4,0-0.7-0.2-0.7-0.3c0-0.2-0.7-0.3-1.5-0.3c-0.8,0-1.6,0.2-1.7,0.3c-0.1,0.2-0.7,0.3-1.3,0.3c-0.6,0-1.2-0.2-1.3-0.3
		C379.1,381.6,376.7,381.5,376.3,381.9 M391.9,398.3c0,0.7,0.2,1.1,0.9,1.4c1.3,0.7,1.4,1,1.2,2.2c-0.2,1.1,0.9,3.1,1.7,3.1
		c0.4,0,1.2,1.4,1.2,2.2c0,0.7,1,0.9,1.2,0.3c0.3-0.8,0.8-0.6,0.8,0.5c0,1.1,0.5,1.4,2,1.4c0.5,0,1.1,0.2,1.2,0.3
		c0.1,0.2,0.6,0.3,1,0.3c0.4,0,0.8,0.2,0.8,0.3c0,0.5,6.4,0.4,7.1-0.1c0.7-0.6,1.1-1.6,0.6-1.6c-0.2,0-0.7-0.4-1.1-0.9
		c-0.8-1-3.1-2.1-4.5-2.1c-0.5,0-1-0.2-1-0.3c0-0.2-0.2-0.3-0.5-0.3c-0.3,0-0.5-0.2-0.5-0.3c0-0.2-0.3-0.3-0.6-0.3
		c-0.7,0-2.4-0.7-2.4-1.1c0-0.1-0.3-0.3-0.7-0.3c-0.4,0-0.7-0.2-0.7-0.3c0-0.2-0.3-0.3-0.6-0.3c-0.3,0-0.7-0.2-0.8-0.5
		c-0.1-0.3-0.3-0.5-0.5-0.5c-0.1,0-0.6,0-1,0c-0.8,0-1.1-0.7-0.3-0.7c1.4,0,0.2-2.6-1.3-2.7c-0.3,0-0.6-0.2-0.6-0.3
		c0-0.2-0.6-0.3-1.3-0.3C391.9,397.4,391.9,397.4,391.9,398.3 M418.1,401.2c-1.6,0.5-2.5,3.3-1,3.3c0.3,0,0.5,0.2,0.5,0.3
		c0,0.5,4.9,0.4,5.2-0.1c0.2-0.3,0.2-0.3,0.4,0c0.3,0.6,1.6,0.5,2.3-0.2c0.6-0.7,0.7-1.4,0.2-1.4c-0.2,0-0.3-0.4-0.3-0.8
		C425.4,400.9,421.1,400.2,418.1,401.2"/>
	<path class="st2" d="M40.7,101.2"/>
	<path class="st2" d="M40.7,101.2"/>
	<path class="st2" d="M40.7,101.2"/>
</g>
</svg>
