<?xml version="1.0" encoding="utf-8"?>
<!-- Generator: Adobe Illustrator 26.0.1, SVG Export Plug-In . SVG Version: 6.00 Build 0)  -->
<svg version="1.1" xmlns="http://www.w3.org/2000/svg" xmlns:xlink="http://www.w3.org/1999/xlink" x="0px" y="0px"
	 viewBox="0 0 512 512" style="enable-background:new 0 0 512 512;" xml:space="preserve">
<style type="text/css">
	.st0{display:none;}
	.st1{fill:#FFFFFF;stroke:#000000;stroke-miterlimit:10;}
</style>
<g id="Layer_1" class="st0">
</g>
<g id="Layer_2">
	<path class="st1" d="M57.1,153.3h-7.5l-5.5,1.5l-7.3-6.3l-6.3,0.9l-6.7,4.3l-8.2,4.6l-3.9,2.2l5.6,5.8l0.9,9.7l-7.7,5v9.9l-6.3,6.8
		l-1.4,1.9l5.5,3.8l10.6-1.5l5.6-0.9l-0.7,2.4l-12.3,7.5l-3.1,6.3l-2.2,4.3l6.7-2.1l3.2-5.3l7-6.7l10.8-6.2l6.7-4.6l3.4-7.3
		l10.3,0.2l6.8-3.1c0,0,4.8,0.4,5.2,0.6c0.4,0.1,9.9,3,9.9,3l6.7-0.9l1.9-6.7l-3.7-3.6l-6.1-2l-7.9-4.4l-4.1-1.7l-4.3-3.1l-1.7-4.2
		l-1.3-3.6l0.8-3.9l1.2-0.8L57.1,153.3z"/>
	<path class="st1" d="M422.9,209.8"/>
	<path class="st1" d="M422.9,210.7"/>
	<path class="st1" d="M422.9,210.7"/>
	<path class="st1" d="M84.7,181.7c1.3,0,23.2,1.7,23.2,1.7l11.3-1.7l10.4,3.3l14.9-0.8l6-6l14.2-9.9l15.9-8.4l21-7.3l19,1.2
		l13.8,2.2l10.4-5l4.1,7.9l6.3,6.2l15.4-1.5l6.3,10.3c0,0,3.6,5.3,4.6,5.5c1,0.2,9.4-4.4,9.4-4.4s7.7,3.9,8.9,5.3
		c1.2,1.4,4.8,6.3,5.8,6.3c1,0,14.2-1.2,14.2-1.2s9.6,5.3,10.9,5.6s15.6-0.9,15.6-0.9l19-4.3c0,0,10.1,3.9,10.6,4.1
		c0.5,0.2,12.6,1.1,12.6,1.1l20-10.8c0,0,11.6-9.9,12.1-9.9s7.5,3.1,8,3.2c0.5,0.2,2.9-3.8,4.6-3.2c1.7,0.5,14.5,2.2,14.5,2.2
		s3.8-5.5,4.6-5.5s7.9,6.8,8.5,7.5c0.7,0.7,12,11.5,12,11.5l6.5,11.5c0,0-4.1,7.7-3.8,9.8c0.3,2.1,3.8,11.9,3.8,11.9l11.8,5.1
		c0,0,10.3,0.3,11.1,1.4s2.6,5.5,2.6,5.5l-6.8,13.3h-10.3l2.2,6.6c0,0,4.8,12.6,4.6,13.7c-0.2,1,1,12.8,1,12.8l3.1,4.6l-3.8,11.5
		l6.5,8.4c0,0,2.2,9.6,2.4,10.1c0.2,0.5,5.3,8.5,5.3,8.5l-13.5,6.3l-1.7-8c0,0-4.3-4.1-5.1-2.7c-0.9,1.4-4.1,4.4-4.1,4.4l-8.9-1.4
		l-8-2.9l-8.2-1l-4.8,1.9c0,0-5,1.5-5.6,2.7c-0.7,1.2-3.9,4.4-3.9,4.4l-2.7-7.2l-7.2,1l-14.4,6.5l-11.5,0.2l-9.1-1.7l-9.7,3.8
		l-11.6,6.7l-19.5,4.6l-11.5-2.7l-7.7-2.9l-12.8-2.6l-10.6,5.5l-10.6,2.7c0,0-6,2.7-6.3,1.2s-2.6-5.8-3.2-5.8s-7.4-0.3-7.4-0.3
		s-5.4,10.1-4,11.1c1.4,1,5.4,8,5.4,8l-5.4,0.9c0,0-3.2,1-3.2,1.7c0,0.7-2.7,6-2.7,6l-2.7,2.7h-6.5c0,0,1-3.6,0.5-3.9
		s-3.6-4.8-3.6-4.8s-0.3-5.8,0.2-6c0.5-0.2,9.9-9.4,9.9-9.4l-0.3-7.5l-4.3-2.2l-7.9,6.2l-2.6,3.9l-6,2.2c0,0-5.6-1.7-6.2-2.4
		c-0.5-0.7-9.4-6.3-9.4-6.3l-7.3,2.4l-13.3,11.1l-2.2,4.6l-5.8,0.5l-7.2,4.6l-18.6,2.6l-6.7-1.7l-4.6-1.7l-11.5-11.8l-11.3-7.7
		l-11.3-2.4l-12-2.1l-3.4,5l-2.1,13.2l-2.4,3.1l-5.8-1.9l-9.1,4.6l-6.8-1l-7.7-3.6l-7.1-5.5l1.5-6.3l-3.2-2.7l-4.3,2.7l-5.6-1.9
		l-2.1-3.8l-6.2,0.2l-3.6,4.8l-5.5,3.1l3.1-4.6l1.2-2.6c0,0-7.9,1.7-8.4,2.1s-8.9,2.6-8.9,2.6s-4.1-1.2-2.4-1.9
		c1.7-0.7,15.2-3.1,15.2-3.1l7.2-4.3l4.3-4.3c0,0-9.6,0.7-10.9,1C54.7,326.9,37,328,37,328l1.4-3.4l8.4-1.7l-4.3-6.5l-7-2.2l0.7-6.7
		l-7-1.9L37,301l-2.2-7.3l-8.4-2.9l-6.7-3.1h-5l-3.4-2.9l3.9-5.8l-2.9-6.2c0,0,0-1.5,1.2-1.4c1.2,0.2,8,6,8,6l4.8,3.8l2.2-2.9
		l-4.3-3.4l-2.7-5.6c0,0,6-1.9,6.2-2.2c0.3-0.3,1.5-5,1.5-5l-5-1.3l2.5-4.9c0,0-3.3-3.2-3.7-3.5c-0.3-0.3-1.9-2.6-1.9-2.6l6.9-9.8
		c0,0-4.7-1.1-5.5-0.5s-9.9,2.1-9.9,2.1s-6.5,0.9-6.4,0.3s-0.3-4.2,0-4.9c0.3-0.7,0.4-10.3,0.4-10.3s3.9-2.9,4.1-3.2
		c0.2-0.3,2.4-5.6,2.4-5.6l8.9-8l11.4-0.3c0,0,1.5-1,1.6-0.7c0.2,0.3,10,4.6,10.3,4.6s6.3-1.2,6.3-1.2l-3.4-5.1c0,0,5.6-0.8,5.9,0.1
		c0.3,0.9-0.3,4.7-0.3,4.7s5-0.7,5.2-0.7s16.5,0.6,16.5,0.6l8.6,0.3l2.1-3.2c0,0-4.2-2.5-4.9-2.5c-0.7,0-3.3,0.5-3.4,0.3
		c-0.1-0.3,2.1-3.4,2.6-3.5c0.5-0.1,9.2-2.1,9.2-2.1l6.2-1.4l0.1-1.5c0,0-1.9-1.6-2.6-1.8s-5.3-3.2-5.5-3.5s-3.6-4-3.6-4V181.7z"/>
</g>
</svg>
