<?xml version="1.0" encoding="utf-8"?>
<!-- Generator: Adobe Illustrator 26.0.1, SVG Export Plug-In . SVG Version: 6.00 Build 0)  -->
<svg version="1.1" xmlns="http://www.w3.org/2000/svg" xmlns:xlink="http://www.w3.org/1999/xlink" x="0px" y="0px"
	 viewBox="0 0 512 512" style="enable-background:new 0 0 512 512;" xml:space="preserve">
<style type="text/css">
	.st0{display:none;}
	.st1{fill:#FFFFFF;stroke:#000000;stroke-miterlimit:10;}
</style>
<g id="Layer_1" class="st0">
	
		<image style="display:inline;overflow:visible;" width="1366" height="768" xlink:href="../../../New folder/bandicam 2022-04-07 13-47-29-799.png"  transform="matrix(0.6454 0 0 0.6454 -184.7987 8.1717)">
	</image>
</g>
<g id="Layer_2">
	<path class="st1" d="M24.8,296.7l8.7-0.4l-0.5-15.1l-1.1-1.2l1.6-0.4l8.9-7.8l4.5-0.5l1.1-2.5l1.8,3.2l3,1.3l1.2,2.2l1.7,0.4l0.9-2
		l3.4-0.4l2.5-3.7l0.8-5.4l2.5,1.8l6.4-2.2l5-3.3l2.2,3.7l-3,2.9l2,2.9v6.8l1.8-2.6l5.9,1.7l11.6-12.5l7.6-3.4V256l9.7-3
		c0,0,7-13,7.6-13.7c0.7-0.7,0-5.8,0-5.8l1.4-24.6l12-13.5l5.1-9.3l7.9-2.9l9.3-9.1V169v-7.4l2.1-8.1l4.7-7.2l-2.4-4.6l-0.5-8.3
		l5.8-13.8v-17.5l10.4-19.3l2.8-2.5l1.3-0.1v-3l0.1-4.1l0.1-3.9l-2.1-5.4l1.2-4.2l-2-7.8l5-2.9l5.3-8.1l9.5-8l8.4-0.5l13.8,9.5
		l6.8,8.5l9.5-0.9l4.7,3l2.6-0.3l4.5,1.4l5.1-1.2l3.9,0.5l4.9,1.6l4.6,3.3l5.1-0.9l2.6-2.2c0,0,1.7-5,1.7-5.6s2.6-1.7,2.6-1.7l5-7.2
		l2,1.7l2.6,0.7l1.8,1.3l2.5,1.6l3.7-0.1l1.3-2.1l7.8-3.5l3.2,1.1l0.5-1.3l9.7-3.8l0.1-2.1l2.2-0.8l3.5,3.4l1.7,1.3l5.9-1.4l2.8,1.2
		l2.6-2.2l4.5,0.7l-0.3-5.3l1.4-2.8l4.1-0.9c0,0,8.5,4.7,8.9,4.7s0.7-1.4,0.7-1.4l2.4,1.2l2.1-1.2l11.8,4.3l2.5-1.6l2.5,2.1l5.3-3.2
		h3.2l4.3,1.7l2,2.1l1.3,2.2l3.3,1.1l3.2,1.6V44l1.7,1.8l4.3,0.3l2.4,3.2l1.4,2l3.8,0.3l0.4,1.4l1.6,0.4l8.8-6.2l1.1,1.2l5.6-0.1
		l3.3,3.9l2.5-1.2l2.9-2l2.9-5.5l6.4,2.4l-0.8,4.7l2.9,0.9l1.6,2.9l4.9,3.2l1.4,3.5l8,2.6l3,5.6l2.6-1.2l1.4,3.4l2.6,1.1l-4.5,9.9
		l2.6,4.5l-3.4,10.6l2.8,1.1l1.7,1.3l2.4-1.3l2.6,2.2h2.1l1.4,3.8l-19.7,20.2l-2.4,1.7l2.6,0.5l-4.5,0.8l-3,6.3l-4.6,1.7l0.1,9.1
		l-5.4,9.1l-1.1,4.6l-1.1,1.3l-4.2,3.7l-3.9,4.5l0.4,2.8l0.5,2.4l2.8-0.1l3.8-3l-1.2,19.7l-6.3,3.9l-2.4,4.9l-3.4-2.5l-1.4,2.5
		l-0.3,8.3l-3.5,3.3l2,1.4l-2.8,3.7l-0.3,3.4l3.4,3.3l1.4,3.3l4.1,5.5l-0.1,2.4l0.4,5.5l-0.1,4.2l-1.8,3.2l0.3,5.6l-0.9,6.2l0.7,4.7
		l1.7-0.7l1.7-5.3l0.7,4.2l-1.2,5.1l-2.9,6.6l2,5l-0.1,5.5l3.7,7.8l1.4,3.8l-1.2,3.2l-3.5,3.7l0.1,3.4l3.7,4.5l1.8,7l5.8,7.5
		l5.8,5.6l5.3,4.5l1.7,4.5l1.2,6l-0.3,2.2l2.4,3.4l5.9,4.2l1.3,2.3l-42.1,6.5l1.1,5.4l-4.9,6.7l-5.1,4.3l-4.1,1.7l3.7,2.8l0.3,2.8
		l2.1,1.8l-0.3,4.3l2.6,2l-3.5,11.3l3.7,10.5l-3.5,3.4l-0.5,4.5l-3.9,12.9l2,8.3l6.8,2.9l6.7,10.2l6.2-0.3l5.1,2.5l0.9-1.6l-1.4-3.7
		l8.7-2.5v32.2h-3.2l-1.6-1.3l1.3-2.9l-3-1.7l-8.7,5.9l-3.2-1.4c0,0-1.2,1.1-1.3,0.7c-0.1-0.4-5.6-11.3-5.6-11.3l-3.3-3.5l-2.6,1.8
		l-2-3.5l2.1-3.2l-4.5-4.6l-4.5-1.1l-0.7,0.5l-2.1-2l-2.5,0.5l-1.3-2.9l-4.6,1.2l-2.6-1.4l-2.9-3.8v-2.9l-6.4-5.9v-3.2l-4.3,0.3
		l-2.1,7.5l-6.6,3.3l-5.5-3.9l-1.8,1.6c0,0-7,0.4-7.9,0.3c-0.9-0.1-4.7-3.4-4.7-3.4l-4.3-0.7l-1.1-1.6l-2.2,1.4l-5.9-5.4l-0.8-6.2
		l2.1-2.8l-12.7,1.7l-6.2,4.9l-4.2-0.1l-3.2-1.7l2.6-2l-0.4-5.6l-4.9-1.3l-1.1-4l-6.4,3.9l-8.9-2.1l-7.5,4.4l-8.4-1.9L279,428
		c0,0-3.5-2.6-4-1.9c-0.5,0.7-3.7,4.4-3.7,4.4l-2.6-7l1.9-7.2v-7l-2.3-5.3l-4.6-9.5l-5.3-3.7l-0.9-8.9l2.1-1.4l0.7-18.4l-0.4-7.2
		l-4.9-8.8l1.8-13l-29.8,0.2l1.9-9.6l-7.9,1.2l1.1,1.8l-18.9,0.2l-0.2,10.7l-0.5,2.3l-3.5,1.4l0.7,9.8l-13.8,0.5l-1.2-2.1l-4.6,0.9
		l-7.7,0.7l-3.5,1.2l-6.7,0.9l-8.1,0.2l-4-9.8l-4.6-6.7l-6.1-10.3l-4-7.7l-1.2-6.5l0.9-6.8l-3.5-4l-3-3.9l-51.7,1.4l-31.4-0.5
		l-6,3.9l-10.5,0.9L24.8,296.7z"/>
</g>
</svg>
