<svg id="svg" version="1.1" xmlns="http://www.w3.org/2000/svg" xmlns:xlink="http://www.w3.org/1999/xlink" width="400" height="339.40000000000003" viewBox="0, 0, 400,339.40000000000003"><g id="svgg"><path id="path0" d="M319.700 0.247 C 319.480 0.382,318.913 0.497,318.439 0.502 C 317.919 0.507,317.509 0.624,317.402 0.796 C 317.283 0.990,316.823 1.087,315.963 1.101 C 315.185 1.113,314.449 1.254,314.046 1.468 C 313.467 1.775,313.160 1.790,311.349 1.604 C 309.473 1.412,309.264 1.425,308.799 1.769 C 308.485 2.001,307.762 2.197,306.896 2.284 C 304.955 2.479,304.894 2.509,304.599 3.404 C 304.454 3.842,304.217 4.200,304.072 4.200 C 303.735 4.200,303.527 5.016,303.651 5.853 C 303.838 7.123,302.710 8.980,301.986 8.593 C 301.436 8.298,300.400 8.696,300.400 9.201 C 300.400 9.552,300.277 9.603,298.468 9.999 C 298.011 10.099,297.178 10.463,296.618 10.808 C 295.997 11.190,295.176 11.492,294.513 11.582 C 293.915 11.663,293.296 11.837,293.137 11.969 C 292.929 12.142,292.699 12.152,292.311 12.004 C 291.393 11.655,289.382 11.755,288.600 12.189 C 288.215 12.402,287.665 12.677,287.378 12.799 C 287.090 12.920,286.759 13.231,286.641 13.490 C 286.521 13.753,286.122 14.061,285.735 14.189 C 284.882 14.470,283.902 15.777,284.093 16.379 C 284.184 16.663,284.088 16.892,283.773 17.142 C 283.526 17.339,283.096 17.747,282.817 18.050 C 282.539 18.353,282.156 18.600,281.967 18.600 C 281.479 18.600,281.300 18.970,281.300 19.980 C 281.300 20.885,280.088 22.149,279.183 22.187 C 278.703 22.207,278.592 22.411,278.826 22.848 C 278.976 23.128,278.973 23.307,278.819 23.461 C 278.698 23.582,278.600 23.971,278.600 24.326 C 278.600 24.806,278.458 25.072,278.050 25.355 C 277.228 25.926,276.173 26.407,275.990 26.294 C 275.901 26.239,275.800 26.398,275.764 26.647 C 275.713 27.004,275.583 27.092,275.150 27.062 C 274.583 27.024,274.423 27.343,274.813 27.733 C 274.963 27.883,274.934 28.037,274.714 28.258 C 274.542 28.429,274.313 28.802,274.206 29.085 C 273.972 29.701,273.499 29.752,273.154 29.200 C 272.828 28.679,272.321 28.691,271.964 29.228 C 271.725 29.590,271.613 29.621,271.253 29.428 C 270.607 29.082,270.400 29.150,270.400 29.706 C 270.400 29.985,270.271 30.262,270.114 30.322 C 269.956 30.383,269.826 30.583,269.825 30.766 C 269.815 32.735,269.203 33.598,267.815 33.603 C 266.808 33.606,266.535 33.726,266.342 34.250 C 266.163 34.735,265.813 34.692,265.942 34.200 C 266.009 33.943,265.949 33.801,265.773 33.803 C 265.385 33.807,265.100 34.053,265.100 34.383 C 265.100 34.539,264.988 34.704,264.850 34.750 C 264.713 34.796,264.600 34.685,264.600 34.503 C 264.600 33.893,263.755 34.236,263.517 34.942 C 263.278 35.648,262.693 36.184,262.150 36.194 C 261.957 36.197,261.800 36.296,261.800 36.413 C 261.800 36.529,261.643 36.609,261.450 36.590 C 260.804 36.524,260.600 36.598,260.600 36.900 C 260.600 37.065,260.690 37.200,260.800 37.200 C 260.910 37.200,261.000 37.289,261.000 37.398 C 261.000 37.616,260.026 37.563,259.640 37.324 C 259.314 37.123,259.081 37.761,259.373 38.053 C 259.726 38.406,259.641 38.640,259.209 38.503 C 258.911 38.408,258.708 38.548,258.359 39.087 C 258.106 39.476,257.788 39.796,257.650 39.798 C 257.339 39.801,257.337 39.904,257.638 40.386 C 257.825 40.685,257.819 40.836,257.613 41.084 C 257.255 41.516,257.112 41.483,256.800 40.900 C 256.432 40.212,256.059 40.274,255.894 41.050 C 255.818 41.407,255.624 41.849,255.463 42.032 C 255.200 42.331,254.843 43.882,254.735 45.200 C 254.712 45.475,254.616 45.823,254.521 45.972 C 254.415 46.141,254.441 46.301,254.589 46.393 C 254.772 46.507,254.755 46.721,254.515 47.295 C 254.342 47.710,254.200 48.303,254.200 48.613 C 254.200 48.923,254.120 49.226,254.021 49.287 C 253.923 49.348,253.793 49.736,253.732 50.149 C 253.508 51.682,253.349 52.184,252.979 52.519 C 252.560 52.898,252.480 53.600,252.819 53.939 C 252.972 54.092,252.975 54.273,252.828 54.548 C 252.683 54.819,252.683 55.003,252.827 55.147 C 252.971 55.291,252.968 55.396,252.817 55.489 C 252.698 55.563,252.600 55.978,252.600 56.412 C 252.600 57.061,252.531 57.200,252.209 57.200 C 251.994 57.200,251.593 57.425,251.318 57.700 C 250.957 58.061,250.603 58.200,250.045 58.200 C 249.140 58.200,248.083 59.007,247.970 59.784 C 247.916 60.157,247.693 60.337,247.000 60.566 C 246.505 60.729,245.978 61.036,245.828 61.246 C 245.679 61.457,245.208 62.006,244.781 62.465 C 244.312 62.970,243.826 63.804,243.553 64.575 C 243.262 65.393,242.921 65.965,242.600 66.172 C 242.325 66.349,242.010 66.598,241.900 66.724 C 241.790 66.851,240.665 67.190,239.400 67.478 C 236.532 68.131,236.474 68.144,235.500 68.381 C 232.783 69.040,231.914 69.200,231.044 69.200 C 230.263 69.200,229.976 69.299,229.600 69.700 C 229.342 69.975,228.921 70.200,228.665 70.200 C 228.106 70.200,228.012 71.346,228.500 72.200 C 228.857 72.824,228.890 74.523,228.550 74.740 C 228.413 74.828,228.092 75.530,227.837 76.300 C 226.625 79.964,225.128 83.701,224.699 84.129 C 224.535 84.294,224.400 84.628,224.400 84.872 C 224.400 85.579,223.820 87.629,223.380 88.479 C 223.158 88.908,222.995 89.493,223.018 89.779 C 223.085 90.627,221.502 93.800,221.011 93.800 C 220.550 93.800,217.800 95.498,217.800 95.783 C 217.800 95.885,217.507 96.032,217.150 96.110 C 216.793 96.187,216.322 96.375,216.105 96.526 C 215.278 97.101,210.713 96.821,209.993 96.151 C 209.313 95.517,207.756 95.575,207.040 96.262 C 206.731 96.558,206.412 96.800,206.331 96.800 C 206.140 96.800,204.920 97.655,204.833 97.850 C 204.797 97.933,204.526 98.000,204.232 98.000 C 203.938 98.000,203.419 98.080,203.079 98.177 C 202.701 98.286,202.057 98.275,201.421 98.149 C 200.638 97.994,200.264 98.005,199.914 98.193 C 199.377 98.480,198.902 98.367,197.963 97.730 C 197.597 97.481,196.812 97.119,196.219 96.925 C 195.626 96.731,194.705 96.362,194.171 96.104 C 193.436 95.750,193.200 95.703,193.200 95.913 C 193.200 96.807,191.755 96.834,191.417 95.946 C 191.303 95.646,191.071 95.400,190.902 95.400 C 190.238 95.400,189.000 94.460,189.000 93.956 C 189.000 93.760,188.879 93.600,188.731 93.600 C 188.583 93.600,188.296 93.417,188.094 93.193 C 187.891 92.969,187.618 92.827,187.487 92.877 C 187.356 92.928,187.148 92.868,187.026 92.746 C 186.862 92.582,186.649 92.636,186.222 92.952 C 185.779 93.280,185.470 93.354,184.921 93.265 C 184.406 93.181,184.200 93.221,184.200 93.405 C 184.200 93.596,184.110 93.583,183.850 93.356 C 183.403 92.966,182.074 92.718,181.904 92.994 C 181.665 93.381,181.252 93.201,180.776 92.501 C 180.514 92.117,180.143 91.802,179.950 91.801 C 179.758 91.801,179.600 91.662,179.600 91.494 C 179.600 91.325,179.466 91.136,179.301 91.073 C 179.137 91.010,179.055 90.874,179.118 90.770 C 179.299 90.479,178.800 90.000,178.316 90.000 C 177.800 90.000,177.394 89.648,177.523 89.313 C 177.573 89.182,177.386 88.953,177.107 88.804 C 176.828 88.655,176.600 88.452,176.600 88.353 C 176.600 88.254,176.432 88.226,176.226 88.292 C 175.965 88.375,175.750 88.253,175.509 87.886 C 175.271 87.522,175.046 87.394,174.772 87.465 C 174.487 87.540,174.327 87.434,174.194 87.084 C 174.065 86.746,173.855 86.600,173.499 86.600 C 173.217 86.600,172.935 86.465,172.872 86.299 C 172.808 86.134,172.463 85.859,172.105 85.689 C 171.746 85.519,171.166 84.979,170.814 84.490 C 170.065 83.447,169.334 83.286,168.971 84.084 C 168.738 84.596,168.388 84.586,167.763 84.050 C 167.577 83.891,167.336 83.816,167.227 83.883 C 167.118 83.951,166.625 83.898,166.133 83.767 C 165.143 83.502,163.484 83.881,162.758 84.538 C 162.550 84.726,162.097 84.853,161.690 84.838 C 161.233 84.821,160.943 84.916,160.870 85.106 C 160.666 85.637,160.179 85.455,160.318 84.900 C 160.464 84.318,159.931 84.171,159.715 84.733 C 159.617 84.988,159.531 85.011,159.353 84.833 C 158.972 84.452,158.747 84.566,158.847 85.090 C 158.920 85.473,158.849 85.593,158.520 85.640 C 158.218 85.683,158.082 85.869,158.036 86.300 C 157.990 86.727,157.757 87.050,157.228 87.418 C 156.732 87.763,156.395 88.210,156.213 88.761 C 156.063 89.215,155.860 89.537,155.761 89.476 C 155.419 89.265,155.000 89.829,155.126 90.331 C 155.197 90.615,155.134 90.958,154.974 91.158 C 154.197 92.129,154.130 92.445,154.622 92.817 L 155.088 93.168 154.544 93.416 C 153.947 93.688,153.840 94.133,154.289 94.478 C 154.659 94.762,154.214 95.933,153.658 96.138 C 153.172 96.318,153.007 96.598,153.003 97.250 C 153.001 97.604,152.893 97.800,152.700 97.800 C 152.201 97.800,152.364 98.383,152.900 98.518 C 153.533 98.677,153.533 98.904,152.900 99.318 C 152.625 99.499,152.400 99.816,152.400 100.023 C 152.400 100.230,152.265 100.400,152.100 100.400 C 151.692 100.400,151.720 100.935,152.141 101.171 C 152.399 101.316,152.428 101.426,152.258 101.631 C 152.135 101.779,152.041 102.336,152.049 102.868 C 152.065 103.927,151.849 104.192,151.087 104.046 C 150.635 103.960,150.600 104.013,150.600 104.770 C 150.600 105.372,150.499 105.640,150.214 105.793 C 150.001 105.907,149.764 106.198,149.687 106.440 C 149.506 107.010,149.111 107.400,148.714 107.400 C 148.486 107.400,148.400 107.600,148.400 108.134 C 148.400 109.261,147.934 109.661,147.051 109.293 C 146.213 108.942,145.661 108.918,145.558 109.227 C 145.516 109.351,145.171 109.554,144.791 109.677 C 144.245 109.853,144.086 110.020,144.035 110.473 C 143.993 110.835,143.828 111.083,143.585 111.146 C 143.353 111.207,143.200 111.421,143.200 111.684 C 143.200 112.123,141.829 112.803,140.950 112.801 C 140.304 112.799,139.027 114.260,138.882 115.166 C 138.810 115.620,138.626 116.095,138.475 116.221 C 138.324 116.346,138.197 116.595,138.194 116.774 C 138.186 117.153,137.317 118.200,137.010 118.200 C 136.894 118.200,136.800 118.276,136.800 118.369 C 136.800 118.463,136.643 118.726,136.450 118.955 C 136.258 119.183,135.947 119.647,135.759 119.985 C 135.572 120.323,135.278 120.600,135.107 120.600 C 134.936 120.600,134.386 120.792,133.886 121.027 C 133.108 121.393,132.735 121.440,131.302 121.350 C 129.762 121.254,129.593 121.282,129.213 121.686 C 128.767 122.161,128.660 122.800,129.025 122.800 C 129.486 122.800,129.100 124.852,128.575 125.192 C 128.314 125.361,127.880 125.715,127.612 125.979 C 127.074 126.507,125.573 126.791,125.152 126.445 C 124.829 126.179,123.823 126.086,123.270 126.271 C 123.006 126.359,122.431 126.258,121.770 126.007 C 120.571 125.551,118.620 125.465,117.937 125.839 C 117.697 125.970,117.000 126.093,116.389 126.111 C 115.777 126.130,114.947 126.301,114.544 126.493 C 113.861 126.817,113.744 126.818,112.869 126.520 C 112.352 126.344,111.625 126.200,111.253 126.200 C 110.760 126.200,110.432 126.041,110.037 125.609 C 109.740 125.284,109.318 125.016,109.099 125.015 C 108.879 125.013,108.417 124.955,108.070 124.886 C 107.400 124.752,105.111 125.684,104.602 126.298 C 104.464 126.464,104.160 126.601,103.926 126.603 C 103.403 126.607,103.134 126.780,102.839 127.300 C 102.639 127.653,102.611 127.611,102.606 126.945 C 102.601 126.322,102.511 126.156,102.088 125.995 C 101.805 125.888,101.635 125.706,101.708 125.588 C 101.780 125.471,101.707 125.223,101.545 125.037 C 101.382 124.852,101.252 124.337,101.256 123.894 C 101.259 123.451,101.151 122.883,101.017 122.632 C 100.830 122.282,100.827 122.108,101.006 121.893 C 101.373 121.450,101.304 119.276,100.910 118.882 C 100.478 118.450,100.664 115.815,101.149 115.500 C 101.880 115.025,102.696 114.085,103.126 113.223 C 103.381 112.712,103.965 111.891,104.425 111.397 C 105.322 110.436,105.800 109.508,105.800 108.729 C 105.800 108.434,105.995 108.118,106.300 107.918 C 106.901 107.525,106.954 106.876,106.400 106.700 C 105.944 106.555,105.899 106.381,106.232 106.048 C 106.407 105.873,106.403 105.744,106.215 105.518 C 106.076 105.351,106.025 105.035,106.100 104.800 C 106.173 104.569,106.138 104.267,106.023 104.127 C 105.876 103.950,105.875 103.645,106.021 103.116 C 106.206 102.446,106.179 102.303,105.788 101.888 C 105.423 101.499,105.369 101.276,105.475 100.608 C 105.579 99.963,105.544 99.800,105.302 99.800 C 105.083 99.800,105.000 99.581,105.000 99.000 C 105.000 98.114,104.904 98.044,104.364 98.532 C 104.014 98.849,104.003 98.837,104.116 98.271 C 104.198 97.860,104.137 97.597,103.917 97.414 C 103.743 97.270,103.600 96.954,103.600 96.713 C 103.600 96.472,103.331 96.018,103.003 95.703 C 102.481 95.203,102.422 95.035,102.529 94.366 C 102.642 93.660,102.614 93.599,102.176 93.593 C 101.701 93.586,101.702 93.584,102.272 93.118 C 102.968 92.548,102.876 92.062,101.919 91.255 C 101.166 90.620,101.212 89.548,102.000 89.342 C 102.275 89.270,102.362 89.133,102.275 88.907 C 102.205 88.726,102.025 88.627,101.874 88.689 C 101.723 88.750,101.460 88.856,101.290 88.925 C 101.037 89.028,101.005 88.948,101.120 88.492 C 101.237 88.026,101.206 87.955,100.930 88.061 C 100.678 88.157,100.600 88.070,100.600 87.694 C 100.600 87.422,100.510 87.189,100.400 87.175 C 100.290 87.161,100.103 87.139,99.984 87.125 C 99.715 87.094,99.217 86.218,99.207 85.760 C 99.203 85.573,99.047 85.334,98.859 85.229 C 98.597 85.082,98.571 84.976,98.747 84.764 C 98.925 84.549,98.848 84.389,98.387 84.022 C 98.032 83.740,97.800 83.366,97.800 83.077 C 97.800 82.742,97.687 82.600,97.421 82.600 C 96.979 82.600,96.741 82.139,97.033 81.847 C 97.365 81.515,97.151 80.691,96.750 80.759 C 96.517 80.798,96.400 80.688,96.400 80.432 C 96.400 79.664,95.133 77.400,94.703 77.400 C 94.562 77.400,94.299 77.175,94.118 76.900 C 93.938 76.625,93.664 76.400,93.508 76.400 C 93.353 76.400,93.034 76.059,92.800 75.643 C 92.340 74.825,90.886 73.903,90.369 74.101 C 90.201 74.165,89.949 74.079,89.808 73.909 C 89.666 73.739,89.398 73.600,89.210 73.600 C 88.856 73.600,88.000 72.814,87.999 72.487 C 87.999 72.384,87.727 72.120,87.394 71.900 C 87.062 71.680,86.593 71.214,86.351 70.865 C 86.110 70.516,85.852 70.268,85.777 70.314 C 85.642 70.398,85.622 78.499,85.607 138.244 C 85.601 164.750,85.563 168.573,85.308 168.475 C 85.148 168.414,84.675 168.479,84.258 168.620 C 83.841 168.762,83.315 168.856,83.089 168.829 C 82.615 168.774,81.600 169.633,81.600 170.090 C 81.600 170.445,80.310 170.540,80.100 170.200 C 79.895 169.869,79.288 169.973,78.693 170.442 C 78.253 170.788,77.905 170.874,77.085 170.839 C 75.668 170.780,75.040 171.054,74.693 171.885 C 74.535 172.264,74.236 172.692,74.028 172.838 C 73.784 173.009,73.601 173.469,73.507 174.146 C 73.261 175.937,71.561 176.974,69.330 176.695 C 67.323 176.444,66.480 179.253,68.201 180.458 C 68.748 180.841,68.537 181.273,67.865 181.144 C 67.500 181.075,67.216 181.221,66.739 181.726 C 65.729 182.794,64.114 183.061,63.026 182.341 C 62.581 182.047,62.079 181.859,61.909 181.924 C 61.689 182.009,61.600 181.918,61.600 181.608 C 61.600 180.359,60.555 179.888,57.179 179.614 C 55.835 179.505,54.665 179.460,54.578 179.514 C 54.492 179.567,53.715 179.650,52.852 179.698 C 51.410 179.779,50.148 180.116,49.733 180.532 C 49.641 180.625,49.281 180.718,48.933 180.739 C 48.585 180.761,47.831 180.825,47.257 180.882 C 46.684 180.939,46.166 180.906,46.106 180.809 C 45.952 180.561,43.570 180.576,43.267 180.827 C 43.130 180.941,42.918 180.973,42.796 180.898 C 42.674 180.822,42.398 180.921,42.183 181.116 C 41.882 181.388,41.736 181.416,41.555 181.235 C 41.426 181.106,41.085 181.000,40.798 181.000 C 40.511 181.000,40.102 180.868,39.888 180.706 C 39.675 180.545,39.209 180.410,38.853 180.406 C 38.321 180.401,38.117 180.261,37.714 179.621 C 37.234 178.861,36.453 178.193,35.750 177.939 C 35.557 177.869,35.400 177.729,35.400 177.627 C 35.400 177.526,35.198 177.441,34.950 177.439 C 34.052 177.433,31.593 177.219,31.448 177.135 C 31.106 176.934,29.586 177.076,29.377 177.327 C 28.773 178.055,27.600 177.296,27.600 176.177 C 27.600 175.874,27.463 175.590,27.284 175.521 C 26.802 175.337,26.241 175.376,26.167 175.600 C 26.123 175.730,25.873 175.736,25.455 175.616 C 24.953 175.472,24.635 175.516,24.015 175.816 C 22.744 176.430,22.695 176.371,23.129 174.761 C 23.179 174.574,23.258 173.927,23.304 173.323 L 23.389 172.224 22.746 172.162 C 22.283 172.117,22.087 171.988,22.044 171.700 C 21.895 170.698,21.773 170.400,21.510 170.400 C 20.655 170.400,21.068 168.865,21.950 168.763 C 22.834 168.662,23.253 167.240,22.642 166.414 C 22.399 166.085,22.200 165.592,22.200 165.317 C 22.200 164.187,20.602 162.569,20.000 163.090 C 18.609 164.292,17.278 163.302,17.512 161.238 C 17.616 160.311,17.579 160.032,17.321 159.817 C 17.144 159.671,17.000 159.610,17.000 159.683 C 17.000 159.994,16.178 159.338,15.904 158.808 C 15.444 157.918,13.393 157.864,13.059 158.734 C 12.985 158.927,12.860 158.939,12.567 158.782 C 12.291 158.635,12.098 158.636,11.916 158.787 C 11.774 158.905,11.392 158.948,11.067 158.883 C 10.262 158.722,9.958 159.147,9.952 160.446 C 9.945 161.761,9.900 161.837,9.292 161.560 C 8.638 161.262,8.470 161.472,8.873 162.087 C 9.290 162.723,9.296 162.705,8.666 162.757 C 7.996 162.812,7.862 162.942,8.163 163.243 C 8.690 163.770,8.459 164.485,7.884 164.108 C 6.724 163.348,6.372 164.342,7.310 165.726 C 7.964 166.691,7.966 166.704,7.585 167.113 C 7.359 167.356,7.200 167.811,7.200 168.218 C 7.200 168.664,7.057 169.033,6.800 169.254 C 6.580 169.442,6.400 169.732,6.400 169.898 C 6.400 170.291,5.623 170.293,5.472 169.900 C 5.240 169.295,3.400 169.985,3.400 170.676 C 3.400 171.116,2.291 171.762,1.281 171.911 C 0.285 172.058,-0.166 172.374,0.251 172.632 C 0.422 172.737,0.412 172.904,0.212 173.277 C -0.082 173.826,0.250 174.389,1.750 175.881 C 2.108 176.237,2.400 176.720,2.400 176.954 C 2.400 177.427,2.844 179.197,3.176 180.050 C 3.312 180.399,3.538 180.600,3.796 180.600 C 4.341 180.600,6.193 183.099,6.197 183.841 C 6.199 184.192,6.380 184.507,6.712 184.741 C 8.088 185.705,8.400 186.048,8.400 186.593 C 8.400 186.900,8.535 187.474,8.700 187.869 C 8.865 188.264,9.000 188.823,9.000 189.112 C 9.000 189.401,9.180 189.866,9.400 190.145 C 9.620 190.425,9.800 190.838,9.800 191.063 C 9.800 191.288,10.153 192.018,10.585 192.686 C 11.017 193.354,11.572 194.530,11.819 195.300 C 12.065 196.070,12.429 196.966,12.627 197.292 C 12.840 197.643,12.940 198.070,12.871 198.343 C 12.803 198.614,12.895 199.014,13.094 199.318 C 13.476 199.902,13.947 201.421,14.204 202.900 C 14.527 204.758,14.965 206.417,15.212 206.714 C 15.347 206.877,15.407 207.060,15.345 207.122 C 15.185 207.281,15.592 208.400,16.045 209.051 C 16.455 209.640,17.068 211.596,17.393 213.352 C 17.502 213.943,17.762 214.668,17.971 214.963 C 18.179 215.258,18.412 215.786,18.488 216.136 C 18.564 216.486,18.751 216.877,18.905 217.004 C 19.059 217.132,19.245 217.773,19.319 218.430 C 19.404 219.177,19.632 219.886,19.927 220.321 C 20.187 220.704,20.400 221.094,20.400 221.186 C 20.400 221.279,20.717 221.816,21.104 222.378 C 21.884 223.512,22.479 224.519,23.038 225.650 C 23.242 226.063,23.497 226.400,23.605 226.400 C 23.712 226.400,23.800 226.674,23.800 227.008 C 23.800 227.786,24.460 229.080,25.322 229.988 C 25.741 230.431,25.997 230.903,25.998 231.236 C 26.001 232.019,27.608 235.246,28.943 237.150 C 29.579 238.058,30.275 239.228,30.489 239.750 C 30.702 240.273,31.175 241.116,31.539 241.624 C 31.902 242.132,32.200 242.645,32.200 242.764 C 32.200 242.884,32.563 243.273,33.006 243.629 C 33.449 243.985,33.867 244.507,33.934 244.788 C 34.191 245.866,35.372 247.644,36.672 248.913 C 37.017 249.250,37.521 249.904,37.792 250.366 C 38.063 250.828,38.575 251.514,38.931 251.892 C 39.546 252.544,40.634 254.015,41.711 255.650 C 42.275 256.506,42.819 258.383,42.670 258.955 C 42.614 259.167,42.694 259.466,42.848 259.620 C 43.616 260.392,43.899 261.096,43.839 262.091 C 43.801 262.729,43.933 263.566,44.200 264.367 C 44.431 265.064,44.598 265.874,44.570 266.167 C 44.508 266.824,44.783 268.526,45.061 269.200 C 45.663 270.662,45.709 271.758,45.192 272.309 C 44.777 272.751,44.756 272.865,44.968 273.571 C 45.766 276.237,44.591 281.161,42.874 282.345 C 42.590 282.540,41.821 283.180,41.164 283.766 C 40.420 284.429,39.856 284.788,39.668 284.716 C 39.503 284.652,39.167 284.600,38.921 284.600 C 38.676 284.600,38.295 284.432,38.075 284.227 C 37.855 284.022,37.478 283.749,37.237 283.620 C 36.997 283.491,36.800 283.209,36.800 282.993 C 36.800 282.577,36.314 282.454,36.092 282.814 C 36.019 282.931,35.821 282.974,35.652 282.909 C 35.222 282.744,34.702 283.549,34.701 284.380 C 34.700 284.945,34.592 285.113,34.055 285.380 C 33.465 285.672,33.135 286.400,33.593 286.400 C 34.024 286.400,34.200 287.154,33.903 287.726 C 33.648 288.219,33.648 288.343,33.906 288.737 C 34.068 288.984,34.200 289.544,34.200 289.981 C 34.200 290.419,34.290 290.832,34.400 290.900 C 34.510 290.968,34.600 291.193,34.600 291.400 C 34.600 291.607,34.695 291.835,34.812 291.907 C 35.106 292.089,36.223 291.599,36.072 291.354 C 36.004 291.245,36.073 291.077,36.224 290.981 C 37.117 290.416,38.215 291.405,38.051 292.626 C 37.947 293.406,38.603 294.400,39.223 294.400 C 39.312 294.400,39.568 294.597,39.792 294.838 C 40.566 295.668,40.116 296.454,39.326 295.650 C 38.385 294.692,37.732 293.828,37.434 293.150 C 37.233 292.691,36.969 292.400,36.753 292.400 C 36.305 292.400,36.304 292.583,36.750 292.922 C 37.077 293.170,37.072 293.188,36.683 293.194 C 36.111 293.202,35.956 293.406,36.252 293.762 C 36.388 293.927,36.477 294.093,36.450 294.131 C 36.324 294.306,36.420 294.600,36.604 294.600 C 37.762 294.600,41.056 298.779,40.934 300.093 C 40.911 300.347,41.258 300.673,42.050 301.140 C 43.710 302.118,44.757 303.569,44.838 305.002 C 44.879 305.727,44.982 306.084,45.142 306.053 C 45.275 306.027,45.539 306.332,45.728 306.731 C 45.917 307.130,46.218 307.494,46.395 307.541 C 46.976 307.693,47.860 309.413,47.828 310.328 C 47.807 310.904,47.982 311.505,48.399 312.298 C 49.303 314.017,48.997 315.272,47.778 314.844 C 47.515 314.751,47.188 314.692,47.050 314.713 C 46.913 314.733,46.708 314.761,46.595 314.775 C 46.356 314.804,46.009 315.640,45.952 316.324 C 45.930 316.586,45.858 316.800,45.792 316.800 C 45.725 316.800,45.427 317.172,45.129 317.627 C 44.575 318.474,44.782 319.348,45.474 319.082 C 45.641 319.018,45.688 319.238,45.632 319.820 C 45.576 320.407,45.448 320.677,45.195 320.743 C 44.453 320.937,44.762 322.200,45.551 322.200 C 45.855 322.200,46.400 323.349,46.400 323.992 C 46.400 324.715,47.480 326.364,48.111 326.604 C 49.035 326.955,49.256 326.871,48.887 326.309 C 48.710 326.039,48.619 325.731,48.684 325.626 C 49.149 324.874,48.769 322.200,48.197 322.200 C 47.354 322.200,48.684 320.257,49.820 319.829 C 51.227 319.299,56.196 319.411,56.883 319.988 C 57.002 320.088,57.276 320.500,57.491 320.903 L 57.882 321.636 57.418 321.987 C 56.924 322.359,56.955 322.868,57.522 323.688 C 57.756 324.026,57.727 324.158,57.290 324.731 C 56.921 325.215,56.824 325.524,56.920 325.907 C 57.019 326.303,56.949 326.498,56.627 326.724 C 55.478 327.528,57.199 328.390,58.766 327.795 C 59.337 327.578,60.113 327.400,60.490 327.400 C 60.868 327.400,61.228 327.316,61.292 327.214 C 61.627 326.671,63.800 327.467,63.800 328.133 C 63.800 328.510,64.625 329.000,65.258 329.000 C 65.570 329.000,65.978 329.081,66.163 329.180 C 66.381 329.296,66.814 329.254,67.388 329.060 L 68.277 328.759 68.833 329.429 C 69.877 330.689,70.083 331.327,69.609 331.837 C 69.384 332.078,69.200 332.345,69.200 332.430 C 69.200 332.515,69.027 332.745,68.816 332.942 C 67.584 334.091,68.328 334.723,70.276 334.182 C 71.002 333.981,71.085 334.004,71.576 334.537 C 71.864 334.851,72.463 335.226,72.906 335.371 C 73.423 335.540,73.834 335.846,74.049 336.221 C 74.234 336.543,74.546 336.866,74.743 336.938 C 74.939 337.009,75.339 337.255,75.632 337.484 C 75.925 337.713,76.370 338.058,76.623 338.250 C 77.206 338.695,77.984 338.699,78.306 338.258 C 78.507 337.984,78.650 337.958,79.028 338.126 C 79.313 338.253,79.738 338.271,80.100 338.172 C 80.430 338.081,80.864 338.058,81.065 338.121 C 81.265 338.185,81.694 338.127,82.017 337.993 C 82.561 337.768,82.696 337.811,83.834 338.575 C 85.461 339.668,87.375 339.723,87.110 338.669 C 86.876 337.737,88.961 335.928,90.605 335.637 C 91.177 335.535,91.494 335.324,91.837 334.816 C 92.092 334.440,92.579 334.035,92.920 333.916 C 93.261 333.797,93.692 333.545,93.879 333.355 C 94.066 333.165,94.527 332.864,94.904 332.685 C 95.284 332.505,95.833 331.974,96.136 331.495 C 97.313 329.634,100.947 328.882,104.757 329.711 C 106.241 330.033,106.446 330.039,106.719 329.767 C 107.073 329.413,106.913 328.431,106.474 328.262 C 105.751 327.985,107.732 327.345,109.602 327.252 C 111.416 327.162,111.594 327.191,113.468 327.893 C 116.684 329.097,116.955 329.154,118.200 328.888 C 119.648 328.579,120.328 328.293,120.546 327.903 C 120.960 327.163,123.386 326.829,124.403 327.371 C 125.421 327.914,127.506 328.237,128.438 327.997 C 128.857 327.889,129.538 327.713,129.952 327.606 C 130.830 327.380,132.400 326.285,132.400 325.899 C 132.400 325.753,132.513 325.595,132.650 325.549 C 132.849 325.482,132.847 325.401,132.644 325.155 C 131.924 324.282,133.301 323.262,135.545 323.006 C 136.400 322.908,137.347 322.734,137.650 322.619 C 138.215 322.404,138.404 322.000,137.940 322.000 C 136.796 322.000,137.414 320.411,138.782 319.835 C 140.240 319.221,141.744 318.939,142.767 319.086 C 145.046 319.415,146.690 319.014,147.497 317.932 C 148.003 317.256,148.540 317.251,150.964 317.901 C 153.584 318.602,153.854 318.582,153.039 317.740 L 152.399 317.080 153.122 317.165 C 153.617 317.222,153.759 317.302,153.572 317.418 C 152.991 317.777,153.852 318.632,155.226 319.061 C 155.927 319.280,156.786 319.582,157.135 319.732 C 157.635 319.946,157.881 319.955,158.285 319.770 C 158.683 319.589,158.923 319.592,159.345 319.784 C 159.726 319.958,159.911 319.967,159.962 319.815 C 160.002 319.695,160.094 319.634,160.167 319.679 C 160.240 319.723,161.324 319.816,162.576 319.884 C 163.828 319.953,164.910 320.044,164.980 320.088 C 165.051 320.131,165.961 320.219,167.004 320.282 C 168.473 320.372,168.776 320.349,168.350 320.182 C 166.636 319.510,168.486 317.611,170.863 317.602 C 171.173 317.601,171.617 317.498,171.851 317.373 C 172.466 317.044,175.536 317.116,176.565 317.484 C 177.041 317.654,178.211 317.891,179.165 318.011 C 180.119 318.131,181.170 318.308,181.500 318.404 C 181.830 318.501,183.090 318.684,184.300 318.812 C 185.615 318.951,187.212 319.278,188.270 319.625 C 189.243 319.944,190.567 320.232,191.211 320.264 C 191.964 320.301,192.516 320.443,192.757 320.661 C 192.963 320.847,193.201 321.000,193.285 321.000 C 193.369 321.000,193.707 321.192,194.036 321.426 C 194.805 321.973,197.409 322.446,198.178 322.178 C 198.558 322.045,198.916 322.058,199.316 322.219 C 199.637 322.347,200.571 322.490,201.391 322.536 C 202.211 322.581,203.013 322.727,203.173 322.859 C 203.401 323.048,203.483 323.046,203.549 322.850 C 203.595 322.712,203.761 322.600,203.917 322.600 C 204.328 322.600,204.264 322.243,203.800 321.954 C 203.360 321.679,203.254 321.002,203.650 320.997 C 204.449 320.988,205.475 319.667,205.499 318.616 C 205.526 317.443,205.612 317.350,207.100 316.887 C 209.658 316.091,212.779 316.388,215.300 317.668 C 216.255 318.152,216.786 318.285,217.900 318.316 C 218.670 318.338,219.705 318.453,220.200 318.573 C 221.503 318.888,222.706 318.855,223.003 318.496 C 223.182 318.280,223.450 318.229,223.928 318.318 C 224.297 318.388,224.600 318.385,224.600 318.312 C 224.600 317.915,223.928 316.993,223.214 316.412 C 221.978 315.404,222.295 313.848,224.119 311.961 C 225.740 310.285,231.724 309.276,234.722 310.174 C 235.503 310.408,236.358 310.601,236.622 310.601 C 236.885 310.602,237.365 310.740,237.688 310.909 C 238.091 311.119,238.751 311.203,239.788 311.176 C 240.620 311.154,241.674 311.206,242.131 311.292 C 242.964 311.448,244.302 311.101,245.307 310.467 C 245.677 310.233,246.327 310.053,246.937 310.015 C 247.067 310.007,247.230 309.820,247.300 309.600 C 247.370 309.380,247.543 309.200,247.685 309.200 C 247.827 309.200,248.429 308.942,249.022 308.626 C 250.089 308.058,250.696 307.868,251.942 307.712 C 252.294 307.667,252.789 307.434,253.042 307.192 C 253.579 306.677,254.615 306.200,255.196 306.200 C 255.421 306.200,255.762 306.117,255.953 306.015 C 256.144 305.913,256.776 305.604,257.359 305.330 C 257.941 305.055,258.780 304.457,259.223 304.000 C 259.761 303.446,260.262 303.132,260.732 303.056 C 261.118 302.993,261.482 302.820,261.539 302.671 C 261.596 302.522,261.722 302.400,261.819 302.400 C 261.916 302.400,262.514 302.009,263.148 301.530 C 263.781 301.052,264.533 300.603,264.818 300.534 C 265.461 300.378,267.400 298.824,267.400 298.465 C 267.400 298.319,267.577 298.200,267.793 298.200 C 268.009 298.200,268.279 298.027,268.392 297.815 C 268.505 297.603,269.092 297.204,269.695 296.928 C 271.048 296.309,273.252 294.756,273.658 294.136 C 273.825 293.881,274.349 293.560,274.830 293.417 C 276.004 293.069,277.312 292.261,278.202 291.334 C 278.607 290.912,279.117 290.462,279.336 290.334 C 281.692 288.948,282.831 287.826,283.094 286.629 C 283.290 285.733,283.906 285.243,285.521 284.700 C 286.264 284.450,286.969 284.119,287.086 283.964 C 287.204 283.809,287.687 283.483,288.160 283.240 C 288.632 282.996,289.468 282.366,290.017 281.840 C 290.566 281.314,291.349 280.708,291.757 280.494 C 292.166 280.279,292.572 279.991,292.660 279.852 C 292.748 279.713,292.948 279.600,293.105 279.600 C 293.262 279.600,293.539 279.308,293.720 278.950 C 294.063 278.277,295.675 276.600,295.980 276.600 C 296.075 276.600,296.199 276.424,296.256 276.209 C 296.312 275.994,296.781 275.549,297.299 275.221 C 297.817 274.893,298.509 274.259,298.837 273.812 C 299.166 273.365,299.513 273.000,299.608 273.000 C 300.171 273.000,302.000 271.370,302.000 270.869 C 302.000 270.721,302.076 270.600,302.169 270.600 C 302.435 270.600,303.200 269.878,303.200 269.627 C 303.200 269.503,304.172 268.433,305.360 267.251 C 306.996 265.622,307.587 264.892,307.794 264.244 C 308.019 263.543,308.214 263.324,308.884 263.028 C 309.400 262.799,309.920 262.341,310.297 261.783 C 311.643 259.792,312.503 258.751,312.939 258.585 C 313.214 258.481,313.400 258.244,313.400 257.998 C 313.400 257.772,313.718 257.269,314.106 256.881 C 314.494 256.493,314.787 256.023,314.756 255.837 C 314.725 255.652,314.808 255.521,314.939 255.546 C 315.325 255.621,317.851 254.417,318.122 254.029 C 318.259 253.834,318.737 253.509,319.185 253.307 C 319.633 253.105,320.000 252.872,320.000 252.790 C 320.000 252.174,323.573 248.999,324.493 248.797 C 325.254 248.630,325.744 248.337,326.594 247.540 C 327.203 246.968,328.081 246.175,328.545 245.778 C 329.438 245.014,331.000 243.055,331.000 242.700 C 331.000 242.584,331.248 242.257,331.550 241.973 C 332.357 241.216,333.200 240.219,333.200 240.021 C 333.200 239.926,333.538 239.494,333.950 239.061 C 334.855 238.111,335.961 236.612,336.484 235.625 C 336.696 235.226,337.007 234.818,337.176 234.717 C 337.842 234.319,338.660 233.227,339.434 231.700 C 339.880 230.820,340.397 229.875,340.583 229.600 C 340.769 229.325,341.079 228.738,341.271 228.295 C 341.463 227.852,341.863 227.321,342.160 227.114 C 342.751 226.704,344.592 224.321,344.613 223.938 C 344.621 223.807,344.889 223.250,345.209 222.700 C 345.529 222.150,345.939 221.434,346.121 221.110 C 346.303 220.785,346.566 220.405,346.706 220.265 C 346.846 220.126,347.344 219.221,347.813 218.256 C 348.282 217.290,348.822 216.274,349.012 215.998 C 349.203 215.722,349.457 215.132,349.577 214.686 C 349.851 213.667,350.870 212.112,351.862 211.200 C 355.040 208.277,355.471 207.680,355.017 206.832 C 354.686 206.213,354.753 205.802,355.393 204.541 C 355.716 203.904,355.931 203.253,355.870 203.095 C 355.757 202.800,356.491 201.091,356.817 200.890 C 356.917 200.828,357.213 200.309,357.474 199.738 C 357.883 198.844,358.637 197.764,359.663 196.600 C 359.809 196.435,360.209 195.835,360.552 195.266 C 361.378 193.899,361.633 193.586,363.400 191.778 C 364.768 190.378,367.279 187.742,370.988 183.810 C 371.906 182.837,372.313 182.270,372.160 182.175 C 372.032 182.096,372.461 182.078,373.114 182.134 C 374.482 182.253,377.017 181.107,378.592 179.659 C 379.743 178.601,379.627 177.878,378.455 178.800 C 377.786 179.326,377.600 179.305,377.600 178.700 C 377.600 178.369,377.718 178.190,377.950 178.170 C 378.143 178.153,378.435 178.126,378.600 178.109 C 378.765 178.092,379.104 178.166,379.354 178.273 C 379.736 178.437,379.909 178.365,380.442 177.819 C 380.790 177.463,381.324 177.043,381.628 176.885 C 381.932 176.728,382.447 176.213,382.771 175.742 C 383.096 175.270,383.685 174.709,384.081 174.496 C 384.476 174.283,384.800 174.049,384.800 173.975 C 384.800 173.901,385.369 173.237,386.065 172.499 C 387.494 170.983,388.373 168.643,387.836 167.783 C 387.677 167.529,387.668 167.400,387.810 167.400 C 387.927 167.400,388.201 166.972,388.419 166.450 C 388.884 165.333,389.656 163.743,389.802 163.600 C 390.704 162.715,391.625 159.691,391.569 157.800 C 391.561 157.525,391.681 156.850,391.837 156.300 C 391.993 155.750,392.066 155.030,391.999 154.700 C 391.932 154.370,391.949 153.875,392.036 153.600 C 392.124 153.325,392.469 151.633,392.802 149.840 C 393.136 148.047,393.541 146.202,393.702 145.740 C 393.863 145.278,393.995 144.735,393.997 144.532 C 393.999 144.330,394.302 143.475,394.670 142.632 C 395.039 141.790,395.680 140.020,396.096 138.700 C 396.512 137.380,396.975 136.228,397.126 136.140 C 397.277 136.052,397.400 135.827,397.401 135.640 C 397.401 135.453,397.596 134.985,397.834 134.600 C 398.480 133.555,399.098 130.971,399.270 128.600 C 399.322 127.885,399.461 126.991,399.579 126.613 C 399.847 125.753,399.860 125.762,398.791 126.079 C 398.123 126.277,396.626 126.324,392.800 126.268 C 386.655 126.179,385.708 126.106,383.646 125.568 C 382.924 125.380,382.735 125.397,382.430 125.673 C 381.923 126.131,381.750 126.091,380.908 125.320 C 380.187 124.659,378.147 124.449,377.559 124.976 C 377.069 125.414,376.300 136.200,376.759 136.200 C 376.878 136.200,376.947 136.447,376.911 136.750 C 376.875 137.052,376.835 137.628,376.823 138.029 L 376.800 138.757 371.081 138.667 C 365.075 138.573,364.793 138.534,362.100 137.411 C 361.017 136.959,358.437 136.016,357.951 135.895 C 357.650 135.819,357.452 135.677,357.513 135.580 C 357.573 135.482,357.410 135.199,357.150 134.951 C 356.890 134.703,356.412 134.140,356.088 133.700 C 355.765 133.260,354.928 132.337,354.229 131.649 C 353.286 130.721,352.994 130.308,353.096 130.049 C 353.571 128.847,353.322 127.447,352.600 127.258 C 352.043 127.112,351.400 125.983,351.400 125.151 C 351.400 123.980,351.006 123.898,349.990 124.856 L 349.100 125.695 348.962 124.497 C 348.456 120.120,348.890 116.048,350.035 114.433 C 350.373 113.956,350.671 113.287,350.698 112.945 C 350.732 112.510,351.041 112.020,351.730 111.312 C 352.422 110.599,353.058 109.590,353.880 107.900 C 354.521 106.580,355.291 105.005,355.591 104.400 C 355.890 103.795,356.244 102.857,356.379 102.316 C 356.627 101.314,356.842 101.062,358.818 99.453 C 359.322 99.042,360.024 98.287,360.377 97.775 C 360.951 96.943,361.149 96.812,362.247 96.535 L 363.474 96.226 364.987 97.205 C 365.819 97.744,366.590 98.256,366.700 98.342 C 367.519 98.987,368.393 99.600,368.495 99.600 C 368.618 99.600,369.818 100.407,370.000 100.613 C 370.055 100.675,371.050 101.378,372.211 102.174 L 374.322 103.622 375.611 103.077 C 377.331 102.350,377.279 102.457,376.687 100.886 C 376.321 99.913,376.199 99.288,376.279 98.787 C 376.442 97.765,377.084 95.832,377.570 94.900 C 378.045 93.989,377.980 91.409,377.470 90.898 C 377.059 90.487,377.147 89.291,377.673 88.137 C 377.933 87.567,378.198 86.605,378.262 86.000 C 378.555 83.225,378.630 78.952,378.423 76.900 C 378.300 75.690,378.153 74.025,378.094 73.200 C 378.036 72.375,377.896 70.822,377.783 69.749 C 377.670 68.677,377.622 67.727,377.676 67.638 C 378.199 66.793,377.652 58.541,377.011 57.600 C 375.924 56.003,375.445 54.842,375.318 53.497 C 374.890 48.964,374.853 48.862,373.205 47.755 C 371.521 46.625,370.334 44.050,370.162 41.153 C 370.102 40.152,369.981 39.708,369.691 39.427 C 369.476 39.219,369.120 38.798,368.900 38.491 C 368.454 37.869,367.680 36.932,367.152 36.372 C 366.662 35.853,366.552 34.363,366.757 31.000 C 366.891 28.814,366.873 27.903,366.684 27.300 C 365.859 24.667,364.814 21.268,363.393 16.600 C 362.505 13.685,361.559 10.597,361.289 9.738 C 361.020 8.878,360.800 8.092,360.800 7.990 C 360.800 7.297,359.667 6.215,358.932 6.208 C 358.427 6.203,358.051 6.067,357.832 5.812 C 357.422 5.333,356.924 5.264,355.938 5.552 C 355.340 5.727,355.003 5.713,354.363 5.487 C 353.916 5.329,353.359 5.199,353.125 5.199 C 352.891 5.198,352.445 5.064,352.132 4.902 C 351.296 4.465,349.074 4.324,347.687 4.618 C 347.034 4.757,346.082 4.856,345.572 4.839 C 344.966 4.818,344.559 4.909,344.399 5.101 C 344.265 5.263,344.062 5.339,343.950 5.269 C 343.437 4.952,340.479 5.036,339.401 5.399 C 337.340 6.092,335.891 6.001,335.177 5.135 C 334.525 4.345,333.938 4.216,332.656 4.584 C 332.089 4.747,331.917 4.690,331.158 4.086 C 330.686 3.711,330.146 3.403,329.957 3.402 C 329.768 3.401,329.518 3.220,329.400 3.000 C 329.282 2.780,329.022 2.600,328.821 2.600 C 328.620 2.600,328.124 2.375,327.719 2.100 C 327.314 1.825,326.722 1.600,326.403 1.600 C 326.084 1.600,325.768 1.510,325.700 1.400 C 325.632 1.290,325.390 1.200,325.162 1.200 C 324.934 1.200,324.467 1.032,324.124 0.826 C 323.781 0.620,322.935 0.396,322.245 0.328 C 321.555 0.260,320.790 0.159,320.545 0.104 C 320.300 0.048,319.920 0.113,319.700 0.247 M296.985 172.927 C 297.213 173.217,297.400 173.718,297.400 174.040 C 297.400 174.873,297.739 175.400,298.276 175.400 C 299.057 175.400,300.000 175.981,300.003 176.465 C 300.008 177.100,300.235 177.353,300.802 177.351 C 301.093 177.351,301.594 177.621,301.993 177.993 C 302.676 178.632,302.899 178.947,303.477 180.100 C 303.950 181.042,304.529 181.615,304.875 181.482 C 305.284 181.325,306.456 182.164,306.321 182.517 C 306.193 182.851,306.935 183.400,307.514 183.400 C 307.747 183.400,308.101 183.580,308.300 183.800 C 308.499 184.020,308.798 184.200,308.965 184.200 C 309.336 184.200,310.000 184.775,310.000 185.096 C 310.000 185.657,310.897 186.192,311.637 186.071 C 312.453 185.939,313.144 186.631,312.915 187.352 C 312.836 187.603,312.989 187.906,313.389 188.290 C 313.714 188.601,314.035 189.102,314.101 189.403 C 314.167 189.704,314.441 190.249,314.710 190.614 C 314.980 190.979,315.200 191.530,315.200 191.839 C 315.200 192.147,315.280 192.400,315.379 192.400 C 315.664 192.400,315.833 193.047,315.607 193.273 C 315.493 193.387,315.400 193.624,315.400 193.800 C 315.400 194.573,314.893 195.208,314.103 195.423 C 312.695 195.807,311.941 196.661,311.904 197.914 C 311.879 198.735,311.945 199.005,312.186 199.071 C 312.427 199.137,312.398 199.190,312.065 199.298 C 311.751 199.400,311.640 199.584,311.665 199.961 C 311.696 200.421,311.607 200.499,310.916 200.616 C 310.485 200.688,310.033 200.884,309.911 201.051 C 309.790 201.217,309.513 201.387,309.297 201.429 C 309.081 201.471,308.871 201.684,308.831 201.902 C 308.790 202.121,308.580 202.467,308.365 202.670 C 308.149 202.874,308.021 203.167,308.080 203.320 C 308.139 203.474,308.100 203.600,307.994 203.600 C 307.887 203.600,307.800 203.844,307.800 204.143 C 307.800 204.442,307.654 205.069,307.476 205.536 C 307.155 206.377,307.156 206.391,307.685 207.019 C 308.303 207.753,308.288 208.273,307.648 208.364 C 307.402 208.399,307.200 208.512,307.200 208.614 C 307.200 208.716,307.096 208.800,306.969 208.800 C 306.842 208.800,306.414 209.048,306.019 209.350 C 305.624 209.653,304.895 210.115,304.400 210.377 C 303.905 210.639,302.849 211.247,302.053 211.727 C 301.258 212.207,300.431 212.600,300.215 212.600 C 300.000 212.600,299.768 212.690,299.700 212.800 C 299.632 212.910,299.266 213.000,298.887 213.000 C 298.509 213.000,297.891 213.165,297.515 213.366 C 296.826 213.736,296.461 213.727,294.239 213.283 C 293.711 213.178,293.479 213.244,293.089 213.611 C 292.820 213.863,292.600 214.006,292.600 213.928 C 292.600 213.850,292.419 213.883,292.199 214.001 C 291.910 214.155,291.579 214.150,291.016 213.981 C 290.101 213.707,288.800 214.311,288.800 215.009 C 288.800 215.700,287.681 216.736,286.779 216.880 C 285.406 217.100,284.637 218.552,285.650 219.014 C 286.754 219.517,286.567 220.931,285.345 221.317 C 284.042 221.729,283.320 222.738,283.868 223.384 C 284.187 223.761,283.750 225.595,283.338 225.606 C 282.913 225.618,282.307 226.619,282.612 226.807 C 282.757 226.897,282.904 227.180,282.938 227.435 C 283.072 228.439,278.825 228.015,278.285 226.971 C 278.008 226.436,277.349 226.198,277.129 226.553 C 276.651 227.327,274.142 225.978,273.279 224.483 C 273.157 224.272,272.734 223.929,272.338 223.720 C 271.923 223.500,271.536 223.104,271.425 222.785 C 271.319 222.480,271.044 222.131,270.816 222.008 C 270.587 221.886,270.400 221.623,270.400 221.424 C 270.400 220.906,269.727 220.200,269.234 220.200 C 268.740 220.200,267.988 219.463,268.124 219.110 C 268.287 218.685,267.646 218.340,266.913 218.459 C 266.295 218.560,266.209 218.514,266.025 217.985 C 265.913 217.663,265.721 217.400,265.598 217.400 C 265.274 217.400,265.506 216.213,265.886 215.933 C 266.963 215.138,266.513 213.713,265.249 213.915 L 264.450 214.043 264.215 213.061 C 264.040 212.334,263.722 211.812,262.988 211.046 C 262.206 210.230,261.805 209.542,261.081 207.776 C 260.577 206.545,260.093 205.395,260.004 205.219 C 259.916 205.044,259.677 204.519,259.472 204.052 C 259.267 203.586,258.995 203.204,258.866 203.202 C 258.622 203.200,257.010 201.691,256.986 201.442 C 256.979 201.364,256.940 201.053,256.900 200.750 C 256.822 200.159,257.079 199.997,257.277 200.513 C 257.430 200.911,257.800 200.694,257.800 200.207 C 257.800 199.944,257.908 199.866,258.177 199.936 C 258.415 199.998,258.665 199.875,258.859 199.597 C 259.276 199.003,260.054 198.628,260.640 198.740 C 260.927 198.794,261.227 198.708,261.377 198.528 C 261.516 198.361,261.759 198.273,261.917 198.334 C 262.076 198.395,262.353 198.322,262.535 198.172 C 262.716 198.023,263.053 197.900,263.282 197.900 C 263.595 197.900,263.700 197.774,263.700 197.400 C 263.700 197.008,263.841 196.858,264.350 196.709 C 264.707 196.603,265.000 196.416,265.000 196.292 C 265.000 196.168,265.357 195.680,265.793 195.207 C 266.439 194.508,266.549 194.279,266.386 193.974 C 266.234 193.689,266.255 193.600,266.473 193.600 C 266.632 193.600,266.855 193.330,266.970 193.000 C 267.085 192.670,267.284 192.400,267.413 192.400 C 267.548 192.400,267.603 192.231,267.542 192.000 C 267.470 191.726,267.536 191.600,267.750 191.600 C 268.189 191.600,269.400 190.639,269.400 190.290 C 269.400 190.130,269.310 190.000,269.200 190.000 C 268.505 190.000,269.825 188.511,270.850 188.140 C 271.043 188.070,271.200 187.863,271.200 187.680 C 271.200 187.497,271.391 187.181,271.625 186.979 C 271.884 186.754,272.011 186.462,271.950 186.230 C 271.873 185.937,271.936 185.873,272.225 185.949 C 272.654 186.061,272.738 185.618,272.360 185.240 C 272.173 185.053,272.173 185.000,272.360 185.000 C 272.492 185.000,272.600 184.865,272.600 184.700 C 272.600 184.535,272.700 184.400,272.821 184.400 C 272.943 184.400,272.996 184.279,272.940 184.131 C 272.866 183.939,272.973 183.889,273.320 183.955 C 273.699 184.027,273.796 183.967,273.770 183.674 C 273.689 182.775,273.816 182.358,274.202 182.257 C 274.423 182.200,274.658 181.938,274.724 181.676 C 274.849 181.177,275.091 181.061,275.300 181.400 C 275.475 181.684,276.150 181.648,276.251 181.350 C 276.316 181.154,276.446 181.160,276.854 181.377 C 277.517 181.730,278.082 181.533,277.941 180.998 C 277.884 180.779,277.927 180.600,278.037 180.600 C 278.146 180.600,278.408 180.398,278.618 180.150 L 279.000 179.700 279.359 180.122 C 279.760 180.593,281.300 180.702,281.300 180.260 C 281.300 180.128,281.413 179.908,281.550 179.770 C 281.688 179.632,281.800 179.358,281.800 179.160 C 281.800 178.962,281.913 178.800,282.051 178.800 C 282.189 178.800,282.424 178.524,282.574 178.187 C 282.999 177.226,284.781 175.535,285.094 175.795 C 285.262 175.934,285.520 175.944,285.836 175.824 C 286.139 175.709,286.452 175.713,286.668 175.834 C 286.859 175.941,287.304 175.962,287.658 175.880 C 288.011 175.798,288.521 175.724,288.791 175.716 C 289.104 175.706,289.321 175.555,289.391 175.300 C 289.699 174.168,291.607 172.840,292.334 173.250 C 292.696 173.454,295.185 173.043,295.501 172.727 C 295.976 172.253,296.512 172.325,296.985 172.927 M38.638 302.148 C 38.721 302.579,39.400 302.746,39.400 302.336 C 39.400 302.175,39.258 301.988,39.084 301.921 C 38.614 301.741,38.564 301.766,38.638 302.148 M45.600 312.285 C 45.600 312.471,45.771 312.600,46.017 312.600 C 46.504 312.600,46.435 312.133,45.933 312.035 C 45.736 311.997,45.600 312.099,45.600 312.285 M160.000 319.031 C 160.000 319.457,159.995 319.457,159.550 319.083 C 159.303 318.875,159.063 318.681,159.017 318.652 C 158.971 318.623,159.173 318.600,159.467 318.600 C 159.879 318.600,160.000 318.697,160.000 319.031 " stroke="none" fill="#bcbcbc" fill-rule="evenodd"></path><path id="path1" d="M85.646 74.200 C 85.646 74.585,85.688 74.742,85.738 74.550 C 85.788 74.358,85.788 74.043,85.738 73.850 C 85.688 73.658,85.646 73.815,85.646 74.200 M370.853 138.744 C 371.157 138.789,371.607 138.788,371.853 138.741 C 372.099 138.693,371.850 138.656,371.300 138.657 C 370.750 138.659,370.549 138.698,370.853 138.744 M375.250 138.743 C 375.553 138.789,376.048 138.789,376.350 138.743 C 376.653 138.697,376.405 138.660,375.800 138.660 C 375.195 138.660,374.947 138.697,375.250 138.743 M191.050 320.338 C 191.243 320.388,191.558 320.388,191.750 320.338 C 191.942 320.288,191.785 320.246,191.400 320.246 C 191.015 320.246,190.858 320.288,191.050 320.338 " stroke="none" fill="#c0bcbc" fill-rule="evenodd"></path><path id="path2" d="M85.646 74.200 C 85.646 74.585,85.688 74.742,85.738 74.550 C 85.788 74.358,85.788 74.043,85.738 73.850 C 85.688 73.658,85.646 73.815,85.646 74.200 M370.853 138.744 C 371.157 138.789,371.607 138.788,371.853 138.741 C 372.099 138.693,371.850 138.656,371.300 138.657 C 370.750 138.659,370.549 138.698,370.853 138.744 M375.250 138.743 C 375.553 138.789,376.048 138.789,376.350 138.743 C 376.653 138.697,376.405 138.660,375.800 138.660 C 375.195 138.660,374.947 138.697,375.250 138.743 M191.050 320.338 C 191.243 320.388,191.558 320.388,191.750 320.338 C 191.942 320.288,191.785 320.246,191.400 320.246 C 191.015 320.246,190.858 320.288,191.050 320.338 " stroke="none" fill="#c0bcbc" fill-rule="evenodd"></path><path id="path3" d="M85.646 74.200 C 85.646 74.585,85.688 74.742,85.738 74.550 C 85.788 74.358,85.788 74.043,85.738 73.850 C 85.688 73.658,85.646 73.815,85.646 74.200 M370.853 138.744 C 371.157 138.789,371.607 138.788,371.853 138.741 C 372.099 138.693,371.850 138.656,371.300 138.657 C 370.750 138.659,370.549 138.698,370.853 138.744 M375.250 138.743 C 375.553 138.789,376.048 138.789,376.350 138.743 C 376.653 138.697,376.405 138.660,375.800 138.660 C 375.195 138.660,374.947 138.697,375.250 138.743 M191.050 320.338 C 191.243 320.388,191.558 320.388,191.750 320.338 C 191.942 320.288,191.785 320.246,191.400 320.246 C 191.015 320.246,190.858 320.288,191.050 320.338 " stroke="none" fill="#c0bcbc" fill-rule="evenodd"></path><path id="path4" d="M85.646 74.200 C 85.646 74.585,85.688 74.742,85.738 74.550 C 85.788 74.358,85.788 74.043,85.738 73.850 C 85.688 73.658,85.646 73.815,85.646 74.200 M370.853 138.744 C 371.157 138.789,371.607 138.788,371.853 138.741 C 372.099 138.693,371.850 138.656,371.300 138.657 C 370.750 138.659,370.549 138.698,370.853 138.744 M375.250 138.743 C 375.553 138.789,376.048 138.789,376.350 138.743 C 376.653 138.697,376.405 138.660,375.800 138.660 C 375.195 138.660,374.947 138.697,375.250 138.743 M191.050 320.338 C 191.243 320.388,191.558 320.388,191.750 320.338 C 191.942 320.288,191.785 320.246,191.400 320.246 C 191.015 320.246,190.858 320.288,191.050 320.338 " stroke="none" fill="#c0bcbc" fill-rule="evenodd"></path></g></svg>