<?xml version="1.0" encoding="utf-8"?>
<!-- Generator: Adobe Illustrator 25.0.0, SVG Export Plug-In . SVG Version: 6.00 Build 0)  -->
<svg version="1.1" id="Layer_1" xmlns="http://www.w3.org/2000/svg" xmlns:xlink="http://www.w3.org/1999/xlink" x="0px" y="0px"
	 viewBox="0 0 512 512" style="enable-background:new 0 0 512 512;" xml:space="preserve">
<style type="text/css">
	.st0{display:none;}
	.st1{fill:#FFFFFF;}
</style>
<g id="Layer_4" class="st0">
	
		<image style="display:inline;overflow:visible;enable-background:new    ;" width="914" height="764" xlink:href="39BBF3F4.jpg"  transform="matrix(0.5619 0 0 0.5619 -1.3284 41.3612)">
	</image>
</g>
<g id="Layer_5">
	<path class="st1" d="M307.1,77.4l0.4,0.2l0.1-0.2l0.7,0.4l0.1,0.1h0.4v-0.1l0,0l0.1,0.1h0.1V78c0,0.1,0.1,0.2,0.1,0.2l0.3,0.5
		l0.2-0.1l0.1,0.1h0.1l0.1-0.1l0.4-0.1l0,0h0.1l0.2,0.3l0.2-0.1l0.1-0.1l0.2-0.1v-0.2h0.1v-0.2H311v-0.2c0,0,0-0.1,0.1-0.1
		s0.1-0.1,0.1-0.1l-0.2-0.1h-0.2l-0.2-0.1l0.2-0.2l0.2-0.2h0.2l0.1,0.2l0.1,0.1l0.1,0.2l0.3-0.1l-0.1-0.4l-0.3,0.1l-0.1-0.3l0.1-0.2
		l-0.1-0.4v-0.1l0.2-0.1v0.1l-0.4,0.1l0.1,0.3l-0.4,0.1l-0.1-0.2h-0.3v-0.1h0.3l0,0h-0.2l-0.1-0.3h-0.1v-0.2v-0.1h0.5h0.2v-0.1
		l-0.1-0.2h0.1l0.1,0.4l0.1-0.1l-0.1-0.3H311l-0.1-0.3l-0.3,0.1h-0.2v-0.2l0.1-0.1l-0.1-0.1l-0.3,0.5v0.1l0.1,0.2h-0.1l-0.1-0.1
		h-0.2h-0.1c0,0,0,0,0,0.1s0,0.1,0,0.1h-0.1h-0.1v0.1h-0.2l0,0l0.2,0.4l-0.1,0.1l-0.1,0.1l-0.1,0.1l-0.2-0.3l0.1-0.1l-0.1-0.3h-0.1
		v-0.1h0.1l-0.1-0.3l0.3-0.2l-0.3-0.2h-0.1l-0.1,0.1l-0.1-0.1h-0.1l-0.1-0.3h0.2v-0.1l-0.3-0.1l0.3-0.1c0,0,0.1,0,0.1,0.1l0.2,0.3
		l0.2-0.1l-0.2-0.3h-0.2l-0.1-0.3l-0.3,0.3h-0.2l-0.2-0.2l-0.2,0.2v0.1h0.1l0.1,0.1l0.1-0.1l0.2,0.1v0.1h-0.1l0.1,0.3v0.1l0.1,0.2
		v0.1h-0.1l-0.2,0.2l-0.2,0.2l0.3,0.1v0.1l-0.1,0.1l0.1,0.1l0.1,0.1l-0.2,0.3l0.2,0.3v0.1l-0.1,0.1H308h-0.1v0.1l-0.1,0.1h-0.1
		l-0.1-0.1L307.1,77.4L307.1,77.4z"/>
	<path class="st1" d="M311.3,74.7l-0.1-0.3l0.1-0.1l0.1,0.1h0.1v-0.2l0.4-0.1v-0.3l0.3-0.1l0.1,0.1v0.1c0,0-0.3,0.1-0.3,0.2
		c0,0,0,0.1,0.1,0.1s0.3,0,0.3,0s0.1-0.1,0.2-0.1v-0.3v-0.1c0,0,0.5-0.1,0.5-0.2l0.2-0.1l-0.1-0.1v-0.1c0,0,0.1-0.1,0.2-0.1h0.1
		l-0.2-0.2v-0.3l-0.4,0.1L313,73h0.1v0.1v0.1l0,0H313l-0.2,0.1l-0.1,0.1l-0.1-0.1h-0.1l0,0l-0.5,0.1c0,0,0-0.1-0.1-0.1h-0.3
		c0,0,0.1,0.1,0,0.1s-0.5,0-0.5,0v0.1H311l0,0l-0.7,0.1l0.3,0.5h0.4l-0.1,0.1l0,0h0.1l0.4-0.1v0.1v0.1h0.1L311.3,74.7L311.3,74.7z"
		/>
	<path class="st1" d="M312.9,75.1l-0.1-0.3l0.1-0.1l-0.1-0.2h-0.3v0.1h-0.3v0.1v0.1v0.1V75l-0.3,0.1l0,0h0.3V75h0.1c0,0,0.1,0,0.2,0
		h0.1v0.1C312.6,75.1,312.9,75.1,312.9,75.1z"/>
	<path class="st1" d="M311.7,76.6c0,0-0.1,0.1-0.1,0l-0.1-0.4l0.2-0.1V76h0.2l-0.1,0.2v0.1L311.7,76.6L311.7,76.6z"/>
	<path class="st1" d="M310.3,74.1l-0.4,0.2l-0.1-0.1l0.1-0.1l-0.1-0.1l0,0l0.3-0.2L310.3,74.1z"/>
	<polygon class="st1" points="309.9,73.6 309.7,73.8 309.5,73.6 309.7,73.4 	"/>
	<path class="st1" d="M309.3,73.7l0.2,0.2l-0.1,0.1l-0.2-0.2L309.3,73.7L309.3,73.7z"/>
	<path class="st1" d="M312.1,72.7l-0.4,0.1v-0.1l0,0l0.3-0.1L312.1,72.7z"/>
	<polygon class="st1" points="312.8,72.5 312.8,72.3 312.9,72.3 312.9,72.1 312.7,72.2 312.7,72.5 	"/>
	<path class="st1" d="M311.6,72.1h-0.3V72C311.4,72,311.5,72,311.6,72.1C311.5,72,311.6,72.1,311.6,72.1z"/>
	<path class="st1" d="M311.2,75.2C311.2,75.2,311.2,75.1,311.2,75.2c0.1,0,0.2,0.1,0.2,0.1v0.1l0.1,0.3h-0.1L311.2,75.2L311.2,75.2z
		"/>
	<polygon class="st1" points="311.5,74.8 311.7,74.7 311.6,74.6 311.4,74.7 	"/>
</g>
<g id="Layer_2_1_">
	<path class="st1" d="M81.8,165.9h-6.6l-4.8,1.3l-6.4-5.5l-5.5,0.8l-5.9,3.8l-7.2,4l-3.4,1.9l4.9,5.1l0.8,8.5l-6.7,4.4v8.7l-5.5,6
		l-1.2,1.7l4.8,3.3l9.3-1.3l4.9-0.8l-0.6,2.1l-10.8,6.6l-2.7,5.5l-1.9,3.8l5.9-1.8l2.8-4.6l6.1-5.9l9.5-5.4l5.9-4l3-6.4l9,0.2l6-2.7
		c0,0,4.2,0.4,4.6,0.5c0.4,0.1,8.7,2.6,8.7,2.6l5.9-0.8l1.7-5.9l-3.2-3.2l-5.3-1.8l-6.9-3.9l-3.6-1.5l-3.8-2.7l-1.5-3.7l-1.1-3.2
		l0.7-3.4l1.1-0.7L81.8,165.9z"/>
	<path class="st1" d="M402.3,215.4"/>
	<path class="st1" d="M402.3,216.2"/>
	<path class="st1" d="M402.3,216.2"/>
	<path class="st1" d="M106,190.8c1.1,0,20.3,1.5,20.3,1.5l9.9-1.5l9.1,2.9l13.1-0.7l5.3-5.3l12.4-8.7l13.9-7.4l18.4-6.4l16.6,1.1
		l12.1,1.9l9.1-4.4l3.6,6.9l5.5,5.4l13.5-1.3l5.5,9c0,0,3.2,4.6,4,4.8c0.9,0.2,8.2-3.9,8.2-3.9s6.7,3.4,7.8,4.6
		c1.1,1.2,4.2,5.5,5.1,5.5c0.9,0,12.4-1.1,12.4-1.1s8.4,4.6,9.5,4.9s13.7-0.8,13.7-0.8l16.6-3.8c0,0,8.8,3.4,9.3,3.6s11,1,11,1
		l17.5-9.5c0,0,10.2-8.7,10.6-8.7s6.6,2.7,7,2.8c0.4,0.2,2.5-3.3,4-2.8c1.5,0.4,12.7,1.9,12.7,1.9s3.3-4.8,4-4.8
		c0.7,0,6.9,6,7.4,6.6c0.6,0.6,10.5,10.1,10.5,10.1l5.7,10.1c0,0-3.6,6.7-3.3,8.6c0.3,1.8,3.3,10.4,3.3,10.4l10.3,4.5
		c0,0,9,0.3,9.7,1.2c0.7,1,2.3,4.8,2.3,4.8l-6,11.7h-9l1.9,5.8c0,0,4.2,11,4,12c-0.2,0.9,0.9,11.2,0.9,11.2l2.7,4l-3.3,10.1l5.7,7.4
		c0,0,1.9,8.4,2.1,8.8s4.6,7.4,4.6,7.4l-11.8,5.5l-1.5-7c0,0-3.8-3.6-4.5-2.4c-0.8,1.2-3.6,3.9-3.6,3.9l-7.8-1.2l-7-2.5l-7.2-0.9
		l-4.2,1.7c0,0-4.4,1.3-4.9,2.4c-0.6,1.1-3.4,3.9-3.4,3.9l-2.4-6.3l-6.3,0.9l-12.6,5.7l-10.1,0.2l-8-1.5l-8.5,3.3l-10.2,5.9l-17.1,4
		l-10.1-2.4l-6.7-2.5l-11.2-2.3l-9.3,4.8l-9.3,2.4c0,0-5.3,2.4-5.5,1.1c-0.3-1.3-2.3-5.1-2.8-5.1s-6.5-0.3-6.5-0.3s-4.7,8.8-3.5,9.7
		c1.2,0.9,4.7,7,4.7,7l-4.7,0.8c0,0-2.8,0.9-2.8,1.5c0,0.6-2.4,5.3-2.4,5.3l-2.4,2.4h-5.7c0,0,0.9-3.2,0.4-3.4
		c-0.4-0.3-3.2-4.2-3.2-4.2s-0.3-5.1,0.2-5.3c0.4-0.2,8.7-8.2,8.7-8.2l-0.3-6.6l-3.8-1.9l-6.9,5.4l-2.3,3.4l-5.3,1.9
		c0,0-4.9-1.5-5.4-2.1c-0.4-0.6-8.2-5.5-8.2-5.5l-6.4,2.1l-11.7,9.7l-1.9,4l-5.1,0.4l-6.3,4l-16.3,2.3l-5.9-1.5l-4-1.5L175,333.1
		l-9.9-6.7l-9.9-2.1l-10.5-1.8l-3,4.4l-1.8,11.6l-2.1,2.7l-5.1-1.7l-8,4l-6-0.9l-6.7-3.2l-6.2-4.8l1.3-5.5l-2.8-2.4l-3.8,2.4
		l-4.9-1.7l-1.8-3.3l-5.4,0.2l-3.2,4.2l-4.8,2.7l2.7-4l1.1-2.3c0,0-6.9,1.5-7.4,1.8c-0.4,0.4-7.8,2.3-7.8,2.3s-3.6-1.1-2.1-1.7
		c1.5-0.6,13.3-2.7,13.3-2.7l6.3-3.8l3.8-3.8c0,0-8.4,0.6-9.5,0.9c-1,0-16.5,1-16.5,1l1.2-3l7.4-1.5l-3.8-5.7l-6.1-1.9l0.6-5.9
		l-6.1-1.7l6.8-4l-1.9-6.4l-7.4-2.5l-5.9-2.7h-4.4l-3-2.5l3.4-5.1l-2.5-5.4c0,0,0-1.3,1.1-1.2c1.1,0.2,7,5.3,7,5.3l4.2,3.3l1.9-2.5
		l-3.8-3l-2.4-4.9c0,0,5.3-1.7,5.4-1.9c0.3-0.3,1.3-4.4,1.3-4.4l-4.4-1.1l2.2-4.3c0,0-2.9-2.8-3.2-3.1c-0.3-0.3-1.7-2.3-1.7-2.3
		l6-8.6c0,0-4.1-1-4.8-0.4s-8.7,1.8-8.7,1.8s-5.7,0.8-5.6,0.3c0.1-0.5-0.3-3.7,0-4.3c0.3-0.6,0.4-9,0.4-9s3.4-2.5,3.6-2.8
		c0.2-0.3,2.1-4.9,2.1-4.9l7.8-7l10-0.3c0,0,1.3-0.9,1.4-0.6c0.2,0.3,8.8,4,9,4c0.3,0,5.5-1.1,5.5-1.1l-3-4.5c0,0,4.9-0.7,5.2,0.1
		c0.3,0.8-0.3,4.1-0.3,4.1s4.4-0.6,4.6-0.6c0.2,0,14.5,0.5,14.5,0.5l7.5,0.3l1.8-2.8c0,0-3.7-2.2-4.3-2.2s-2.9,0.4-3,0.3
		c-0.1-0.3,1.8-3,2.3-3.1c0.4-0.1,8.1-1.8,8.1-1.8l5.4-1.2l0.1-1.3c0,0-1.7-1.4-2.3-1.6c-0.6-0.2-4.6-2.8-4.8-3.1
		c-0.2-0.3-3.2-3.5-3.2-3.5v-6.4H106z"/>
</g>
</svg>
