<?xml version="1.0" encoding="utf-8"?>
<!-- Generator: Adobe Illustrator 28.2.0, SVG Export Plug-In . SVG Version: 6.00 Build 0)  -->
<svg version="1.1" id="Layer_1" xmlns="http://www.w3.org/2000/svg" xmlns:xlink="http://www.w3.org/1999/xlink" x="0px" y="0px"
	 viewBox="0 0 512 512" style="enable-background:new 0 0 512 512;" xml:space="preserve">
<style type="text/css">
	.st0{fill:#FFFFFF;}
</style>
<g id="Layer_2_00000096747037478902399620000012067034767213526912_">
	<path class="st0" d="M214.13,13.43c0.19-0.19,1.4-2.23,1.4-2.23l0.32-1.59l1.84-1.34l1.15-2.48l4.84-1.72L225.01,0l1.59,0.57v1.15
		l2.36,0.51l1.34,1.72l9.74,0.32l4.26,1.65l0.57,0.26l-0.38,1.4l1.53,1.59l1.21,4.26l4.52-10.82l2.23,0.95l10.69-0.95l0.7,2.55
		l0.95,0.32l0.51,1.24l4.2,2.07l1.21,3.44l3.37,4.65l4.77,3.57c0,0,4.07,2.36,4.26,2.55s1.34,2.29,1.34,2.29l3.5,1.59l4.65,1.65
		h3.37l2.93,1.78c0,0,10.52,7.64,10.7,7.68c0.19,0.05,5.49,2.24,5.63,2.29c0.14,0.05,1.72,0,1.72,0s2.67,1.48,2.82,1.57
		s1.48,0.67,1.48,0.67l1.67,2.86l1.24,1.15v1.72l-1.43,0.91l-0.91,0.38l-0.05,0.38v0.95l-1.24,1.82l0.67,0.91l-3.53,2.1l0.09,1.05
		l-0.72,1.53l-0.62,1.05l0.05,0.67l0.72,1.86l-0.57,0.57l-0.28,0.38l-0.67,0.91l-2.34,2.38l0.14,0.61l-0.64,0.76l-0.89,0.95
		c0,0-0.76,0-0.38,0c0.38,0,0.76,2.16,0.76,2.16h0.82h4.13c0,0,3.88,0.13,3.94,0.38c0.06,0.26,2.67,1.08,2.93,1.27
		s3.05,0.64,3.05,0.64h1.4l1.97,0.57l1.78-0.95l1.08,0.51c0,0,1.84-0.76,1.91-0.57c0.06,0.19,2.55,1.97,2.55,1.97l1.72-2.99
		l1.53-0.64c0,0,1.02,0.13,1.53,0.26c0.51,0.13,1.34,0.38,1.65,0.64c0.32,0.25,0.95,0.95,0.95,0.95l1.4-1.4v-2.23l1.1-0.61
		c0,0,0.91-1.24,1.34-1.34c0.43-0.09,1.82-0.67,2.15-0.67s1.15,0,1.24-0.14c0.09-0.14,1.05-1.72,1.05-1.72s0.81-0.81,0.95-0.95
		c0.14-0.14,1.15-1.86,1.15-1.86s0.48-0.95,0.57-1.15s1-1.48,1-1.48l0.81-1.43v-1l-0.28-1.29l-0.09-1.57l0.86-0.53l-0.28-1.38
		l-0.43-1.91c0,0,0.62-0.91,0.72-0.95c0.09-0.05,0.72,0.09,0.81-0.19c0.09-0.28,0-0.72,0-0.72l1.53,1.57l0.95-1l1.05-0.14l0.48-0.72
		l0.76-0.57c0,0,0.33-0.24,0.28,0.14c-0.05,0.38,0,0.62,0,0.62s-0.28,0.53,0,0.33c0.28-0.19,1.47,0.14,1.47,0.14l0.24,0.48l1-0.24
		l0.38,0.76v3.72l2.01,2.91l0.28,1l-0.95,4.63c0,0,0.14,2.91,0.24,3.05c0.09,0.14,0.14,1,0.14,1.15c0,0.15-0.19,0.91-0.19,0.91
		l-0.72,1.19l-1.96,0.43c0,0-1.34,0.05-1.48,0.05s-0.76,0.91-0.95,1.19c-0.19,0.28-0.76,1.1-0.76,1.24c0,0.14-0.33,0.91-0.33,0.91
		L363.6,72c0,0-0.81,0-0.95,0s-0.81,0.09-0.95,0.19c-0.14,0.09-0.67,0.38-0.67,0.38l-0.62-0.05l-0.43,0.33l-0.28,0.43
		c0,0-0.43-0.14-0.57,0.14c-0.14,0.28-0.38,0.57-0.38,0.57l-0.81-0.38l-1.05,1.34l-0.67,1.72l-1.67,0.24l0.53,1.1h-1.57l-1.24,0.62
		c0,0-0.14-0.05-0.43,0.33c-0.28,0.38-1.48,1.38-1.48,1.38s0.28,0.38,0.09,0.38c-0.19,0-1.24,0.19-1.24,0.19s-0.05,1-0.33,0.91
		c-0.28-0.09-1.29-0.28-1.29-0.28l-0.91,1.29c0,0,1.38,1.38,1.34,1.53c-0.05,0.14-0.53,0.86-0.67,0.76
		c-0.14-0.09-1.76-0.76-1.76-0.76l-0.24,1.96c0,0-1.05-0.19-1.15,0c-0.09,0.19-0.28,1.57-0.28,1.57s-1.29,0.72-1.38,0.91
		c-0.09,0.19-1.15,0.76-1.15,0.76s-0.09,0.38-0.19,0.53c-0.09,0.14-0.72,0.67-0.67,0.86c0.05,0.19-0.28,0.95-0.28,0.95l-0.67,0.48
		c0,0-0.33,0.38-0.28,0.67c0.05,0.28-0.24,0.91-0.24,0.91l-1.62,0.33l-0.43,0.43l-1.24,3.39l-4.82,5.3l-2.01,0.53l-0.28,1.86
		l-2.43,2.34l-0.54,0.83c0,0-0.94,0.43-0.94,0.46s-0.06,1.52-0.06,1.52l-0.83,0.8l-1.8,1.52c0,0,0.98,2.65,1,2.72
		c0.02,0.07,0,3.08,0,3.08h-1.17l0.28,1.31c0,0-0.14,1.27-0.14,1.43c0,0.17-0.88,2.29-0.88,2.36s-0.41,1.48-0.41,1.48l-1.1,0.6
		l1.15,1.5l0.24,1.08c0,0-1.02,1.29-1.08,1.36c-0.05,0.07-1.22,1.15-1.22,1.15l-0.17,0.91l0.5,0.53l-0.05,2.29c0,0-0.09,0.76,0,0.91
		c0.09,0.14,0.76,1.15,0.76,1.15l-0.05,1.82l-0.28,1.15l-0.76,1.38c0,0-0.53-0.05-0.43,0.38s0.91,2.77,1,2.96
		c0.09,0.19,0.19,1.43,0.19,1.62c0,0.19-0.28,2.05-0.28,2.05s-3.05,0.43-3.05,0.57c0,0.14-0.53,2.82-0.53,2.82l-0.48,2.77
		l-0.33,1.38l0.43,1.96l2.77,5.68l-2.96,1.82l-2.48,2.48c0,0,0,1.15,0.67,1.34c0.67,0.19,2.48,1.24,2.86,1.34s1.91,0.86,2.38,1.05
		c0.47,0.19,2.29,0.76,2.86,1.24c0.57,0.48,4.2,2.86,4.58,3.05c0.38,0.19,3.05,2.48,3.53,2.86s1.72,1.91,1.72,1.91l-1.34,3.05
		c0,0-0.86,1.72-0.86,2.01s-0.86,2.01-0.86,2.01l1.05,4.01l1.82,1.82l2.67,1.34h1.43l1.05,0.95l0.19,1.34l-0.67,0.86l-0.28,0.57
		l0.86,1.15v1.72l-0.67,1.91l-1.05,1.91l-1.15,2.01l-1.62,3.34c0,0-0.76,1.91-1.34,2.19s-2.29,1.62-2.29,1.62l-0.57,1.15l-0.57,1.15
		c0,0-0.86,0.95-0.86,1.34s-0.19,2.29-0.19,2.29s-0.19,0.57-0.38,0.86c-0.19,0.28-1.24,1.15-1.24,1.15s-0.76,0.67-1.05,0.86
		c-0.28,0.19-2.01,0.86-2.01,0.86l-2.48,1.24l-6.11,2.29l-4.58,1.53l-6.78,1.43l-8.53,1.53l-6.65,1.24h-9.42l-4.3-2.01l-1.82-1.82
		l-1.43-0.38l-0.76,1.05c0,0,0.76,0.67,1.05,0.86c0.28,0.19,1.05,0.19,1.34,0.38c0.28,0.19,0.86,0.95,0.86,0.95l0.28,0.95
		l-0.67,0.48l-0.19,1.15l-0.48,0.76c0,0-0.38,0.38,0,0.57c0.38,0.19,1.05,1.15,1.15,1.62c0.09,0.48,1.15,1.05,1.15,1.05
		s0.57,1.34,0.76,1.91c0.19,0.57,0.19,0.67,0.19,1.34c0,0.67-0.76,2.01-0.76,2.01v2.16h-1.15l-0.89,1.15c0,0-0.51-0.13-0.76,0.76
		c-0.26,0.89-0.26,1.53-0.38,2.04c-0.13,0.51,0.38,1.15,0.38,1.53s-0.89,2.04-0.89,2.04s-1.27,0.38-0.64,0.89
		c0.64,0.51,1.4,1.27,1.91,1.65s0.38,0.26,1.27,1.65c0.89,1.4,1.65,1.27,0.89,2.16c-0.76,0.89-2.42,2.04-3.18,2.42
		c-0.76,0.38-0.76,0.26-1.91,1.02c-1.15,0.76-2.67,1.02-3.18,1.27c-0.51,0.25-0.76-0.51-1.27,0c-0.51,0.51-4.2,1.15-4.2,1.15
		s-0.89-0.38-1.4,0s-2.67-0.38-3.05,0c-0.38,0.38-4.07-0.64-4.07-0.64l-1.65-1.15l-2.29-1.4l-2.04-0.76l-1.78-0.89l-1.02-0.78
		l-0.89-0.26c0,0-0.76,0-1.4,0.64c-0.64,0.64-1.78,1.15-1.78,1.53c0,0.38-0.13,1.53,0.13,1.91c0.26,0.38,0.76,1.11,0.76,1.89
		s0.13,0.27,0.13,1.55c0,1.27,0.51,3.05,0.51,3.05l1.15,1.91l-1.02,2.16l-0.13,2.67l-0.13,2.93l1.65,1.65h2.29l1.65,1.27l0.38,1.27
		l-0.76,0.64c0,0-0.01,0.25-0.01,0.48s0.24,0.5,0.41,0.57c0.17,0.07,0.43,0.12,0.72,0.19c0.28,0.07,0.62,0.14,0.81,0.09
		c0.19-0.05,0.57-0.12,0.74-0.26c0.17-0.14,0.36-0.55,0.53-0.55s0.6,0.12,1,0.24c0.41,0.12,0.67,0.19,0.95,0.21
		c0.28,0.02,0.67-0.02,0.81-0.12c0.14-0.09,0.46-0.69,0.46-0.83s-0.24-0.43-0.36-0.69c-0.12-0.26-0.17-0.74-0.12-0.93
		s0.31-0.28-0.26-0.26c-0.57,0.02-1.22,0.05-1.41,0.12c-0.19,0.07-0.31,0.14-0.53,0.09c-0.21-0.05-1.1-0.64-0.83-0.74
		c0.26-0.09,0-0.33,1.24-0.28c1.24,0.05,1.27,0.17,1.74,0c0.47-0.17,0.53-0.24,1.05-0.76c0.53-0.53,0.88-0.91,1.08-0.98
		c0.19-0.07,0.69-0.24,0.93-0.07c0.24,0.17,0.67,0.33,1.08,1c0.41,0.67,0.72,0.98,0.91,1.46c0.19,0.48,0.36,2.17,0.43,2.46
		c0.07,0.28,0.12,0.41,0.14,1.17c0.02,0.76,0.21,2.79,0.21,3.27s0.09,0.76-0.33,1.22s-0.95,1.08-1.79,1.41
		c-0.83,0.33-2.27,0.43-2.84,0.33c-0.57-0.09-1.27-0.5-1.57-0.74c-0.31-0.24-1.22-0.12-1.1-0.91s0.31-1.74,0.09-2.36
		s-0.55-1.24-1.02-1.43c-0.48-0.19-1.29-0.55-1.91-0.33c-0.62,0.22-1.15,0.21-2.08,0.5c-0.93,0.28-1.22,0.93-1.22,0.93l-1.43,0.95
		l-1,0.21l-0.46,0.95c0,0,0.5,0.88,0.62,1.05c0.12,0.17,1.57,0.88,1.82,0.95c0.24,0.07,0.86,0.46,1.31,0.76
		c0.46,0.31,1.43,0.91,1.72,1s1.46,0.24,1.79,0.24c0.33,0,1.05-0.93,1.05-0.93s0.02,0.53,0.09,0.64c0.07,0.12,0.14,0.5,0.05,0.62
		c-0.09,0.12-0.24,0.24-0.5,0.53c-0.26,0.28-0.6,0.46-0.74,0.53c-0.14,0.07-0.76,0.17-1,0.28c-0.24,0.12-0.46,0.14-1.05,0.38
		c-0.59,0.24-1.1,0.21-1.55,0.5c-0.46,0.28-1.62,0.48-1.91,0.79c-0.28,0.31-0.57,0.53-0.74,0.81c-0.17,0.28-0.55,0.76-0.55,0.76
		l-0.03,0.61c0,0-1.27,1.65-1.34,1.84c-0.06,0.19-0.82,0.95-1.15,1.34c-0.32,0.38-0.64,0.57-0.82,0.82
		c-0.19,0.26-0.82,1.91-0.82,1.91l0.06,0.89c0,0-0.32,0.76-0.13,1.21c0.19,0.45,0.57,0.95,0.64,1.65s0.13,1.08,0.26,1.34
		s0.57,1.15,0.64,1.34s-0.13,1.15-0.13,1.15h-0.57h-0.45c0,0-0.13,0.57,0.19,0.76s0.64,0.76,0.64,1.08c0,0.32,0.19,1.15,0.19,1.15
		l-0.06,0.38c0,0-0.32,0-0.45,0.26c-0.13,0.26,0,0.82-0.19,1.21c-0.19,0.38-0.57,0.7-0.64,0.95c-0.06,0.26-0.06,0.26-0.06,0.26
		l-0.51,0.64h-0.51c0,0-0.32,0.13-0.57,0.51c-0.26,0.38-0.57,0.45-0.89,0.76s-0.64,0.57-0.89,0.82c-0.26,0.26-0.32,0.32-0.57,0.57
		c-0.26,0.26-0.57,0.45-0.57,0.7c0,0.26-0.19,0.38,0.19,0.76c0.38,0.38,0.76,0.64,0.95,0.82c0.19,0.19,0.76,0.57,0.76,0.57
		s0.38,0.32,0.38,0.64s0.26,0.57-0.06,0.89c-0.32,0.32-0.82,0.57-1.02,0.57c-0.19,0-1.27,0.19-1.46,0
		c-0.19-0.19-1.27-0.38-1.53-0.38c-0.26,0-0.89,0.06-0.89,0.06l-1.15-0.06l-0.57-0.26c0,0-0.89-0.06-1.4,0.26
		c-0.51,0.32-1.84,0.76-1.84,0.76s-0.82,0-1.21,0.38s-0.45,0.38-0.64,0.64c-0.19,0.26-0.45,0.57-0.26,0.64
		c0.19,0.06,0.45,0.13,0.51,0.64s1.15-0.13,0.06,0.51c-1.08,0.64-2.23,0.51-2.48,0.51c-0.26,0-1.46,0.21-1.65,0.01
		c-0.19-0.2-0.82,0-0.95,0.09c-0.13,0.09-0.32,0.16-0.64,0.79s-0.51,0.64-1.08,1.4c-0.57,0.76-0.45,0.89-0.82,1.21
		c-0.38,0.32-0.76,0.89-0.89,1.21c-0.13,0.32,0.38,0.19,0,0.76c-0.38,0.57-0.64,0.76-0.7,1.15s-0.26,0.57-0.32,1.15
		c-0.06,0.57,0.45,0.51,0,1.02c-0.45,0.51-1.15,0.57-1.4,1.08c-0.26,0.51-0.22,0.67-0.41,0.82c-0.19,0.16-0.38,0.09-0.73,0.89
		c-0.35,0.8-0.45,0.73-0.57,1.3c-0.13,0.57-0.09,0.7-0.19,1.24c-0.09,0.54-0.19,0.51,0.06,1.21c0.26,0.7,0.38,0.99,0.45,1.34
		c0.06,0.35,0.38,0.61,0.38,0.8c0,0.19,0.09,0.8,0.16,0.95c0.06,0.16,0.32,1.34,0.41,1.46c0.09,0.13,0.54,1.43,0.67,1.65
		c0.13,0.22,0.22,0.38,0.64,0.73c0.41,0.35,1.11,0.89,1.37,1.05c0.26,0.16,0.54,0.32,0.82,0.45c0.28,0.13,0.73,0.28,0.73,0.28
		l0.19,0.22c0,0,0.13,0.32,0.35,0.7c0.22,0.38,0.48,0.7,0.7,0.99c0.22,0.28,0.51,0.35,0.76,0.7c0.26,0.35,0.32,0.32,0.51,0.57
		c0.19,0.26,0.51,0.51,0.67,0.8c0.16,0.28,0.32,0.57,0.45,0.82c0.13,0.26,0.16,0.28,0.41,0.45c0.26,0.16,0.22,0.09,0.64,0.28
		c0.41,0.19,0.54,0.32,1.11,0.54c0.57,0.22,0.64,0.22,0.86,0.26c0.22,0.03,0.61-0.03,0.95,0c0.35,0.03,0.73,0.03,1.02,0.06
		c0.28,0.03,0.89,0.09,1.15,0.16c0.26,0.06,0.48,0.13,1.05,0.16c0.57,0.03,0.95,0.06,1.3,0.06s1.02,0.06,1.21,0
		c0.19-0.06,0.95-0.16,1.11,0s1.05,0.61,1.15,0.73c0.09,0.13,0.03,0.13,0.38,0.54s0.54,0.32,0.64,0.76
		c0.09,0.45,0.19,0.48,0.09,0.86c-0.09,0.38-0.22,0.82-0.22,0.82s0.16,0.38,0.16,0.7c0,0.32,0.19,0.89-0.13,1.72
		s-0.45,1.21-0.57,1.65c-0.13,0.45-0.26,0.7-0.32,1.15c-0.06,0.45-0.13,1.02-0.13,1.34c0,0.32,0,0.64-0.06,0.82
		c-0.06,0.19,0.26-0.38-0.06,0.19c-0.32,0.57-0.26,1.15-0.13,1.46s0.26,0.57,0.32,0.95c0.06,0.38-0.06,1.02-0.06,1.02
		s-0.32-0.32-0.51,0c-0.19,0.32-0.45,0.45-0.51,0.82c-0.06,0.38,0,0.38-0.13,0.89c-0.13,0.51,0,0.57-0.38,0.76
		c-0.38,0.19-0.82-0.32-1.08,0s-0.45,0.19-0.7,0.32c-0.26,0.13-0.38-0.06-0.7,0.38c-0.32,0.45-0.51,0.82-0.82,1.4
		c-0.32,0.57,0,0.19-0.76,1.08s-1.08,1.21-1.34,1.46s-0.51,0.45-0.7,0.57c-0.19,0.13-0.82,0.13-1.15,0.32
		c-0.32,0.19-0.57,0.26-0.95,0.45c-0.38,0.19-0.89,0.38-0.89,0.38s-0.19,0.13-0.51,0.64c-0.32,0.51-0.51,0.64-0.57,0.89
		c-0.06,0.26,0,0.51-0.38,0.57c-0.38,0.06-0.76-0.57-1.08,0s-0.82,0.7-1.08,1.02c-0.26,0.32-0.38,0.38-0.57,0.57
		c-0.19,0.19-0.38,0.19-0.51,0.51c-0.13,0.32-0.26,0.64-0.32,0.89c-0.06,0.26-0.06,0.38-0.32,0.64c-0.26,0.26-0.32,0.26-0.82,0.76
		c-0.51,0.51-0.76,0.57-1.02,0.89c-0.26,0.32-0.45,0.38-0.7,0.51c-0.26,0.13-1.02,0.06-1.27,0.38c-0.26,0.32-0.76,0.7-0.76,1.08
		c0,0.38-0.06,0.57-0.19,0.89c-0.13,0.32-0.46,0.26-0.55,0.89c-0.09,0.64-0.22,0.95-0.28,1.21c-0.06,0.26-0.26,0.32-0.45,0.76
		c-0.19,0.45-1.27,1.59-1.27,1.59s-0.38,0.82-0.45,1.02c-0.06,0.19-0.51,0.32,0,0.64c0.51,0.32,0.51-0.06,0.82,0
		c0.32,0.06,0.26,0.06,0.64-0.26c0.38-0.32,0.89-0.95,1.15-1.08c0.26-0.13,0.26-0.13,0.26-0.13s-0.13,0.82-0.45,1.27
		c-0.32,0.45-0.57,1.15-0.51,1.4s0.06,0.26,0,0.51c-0.06,0.26-0.13,0.32-0.13,0.82s0,1.53,0,1.53s0.06,0.26,0.06,0.7
		c0,0.45-0.26,0.89-0.26,0.89s-0.32-0.19-0.32,0.32s0,0.64,0,1.4c0,0.76-0.13,1.72-0.32,2.1s-0.8,1.08-1.19,1.53
		c-0.39,0.45-0.65,0.51-0.97,0.95c-0.32,0.45-1.34,0.57-1.72,0.76c-0.38,0.19-1.84,0-1.84,0l-1.05-0.16l-0.73-1.21
		c0,0-0.61-0.61-0.64-0.7c-0.03-0.09-0.22-0.99-0.22-0.99l-0.51-0.76l-0.76,0.41v0.38c0,0-0.06,0.16-0.26,0.28
		c-0.19,0.13-0.41,0.19-0.7,0.28c-0.29,0.09-0.13-0.03-0.28,0.09c-0.16,0.13-0.38,0.41-0.38,0.41s0.06,0.19,0.22,0.19
		c0.16,0,0.41,0,0.73-0.06c0.32-0.06,0.76-0.26,0.76-0.26c0.28,0.35,0.51,0.61,0.57,0.76c0.06,0.16,0.13,0.48,0.19,0.57
		c0.06,0.09,0.35,0.19,0.48,0.32c0.13,0.13,0.35,0.14,0.61,0.5c0.26,0.36,0.57,0.77,0.57,0.77c0.06,0.22,0.32,0.19,0.03,0.48
		c-0.28,0.28-0.51,0.35-0.76,0.51c-0.26,0.16-0.64,0.35-0.99,0.57c-0.35,0.22-0.61,0.35-0.92,0.45c-0.32,0.09-0.82,0.09-1.11,0.35
		c-0.28,0.26-0.57,0.32-0.76,0.61c-0.19,0.29-0.82,0.7-1.02,0.92c-0.19,0.22-0.64,0.67-0.64,0.92c0,0.26-0.13,0.19-0.64,1.02
		c-0.51,0.82-0.82,1.21-1.15,1.84c-0.32,0.64-0.64,1.15-0.7,1.72c-0.06,0.57,0,1.21,0,1.46s0.13,0.32-0.03,0.89
		c-0.16,0.57,0.03,0.32-0.29,0.95s-0.45,1.02-0.57,1.34c-0.13,0.32-0.13,0.38-0.32,0.64c-0.19,0.25-0.51,0.51-1.02,0.89
		c-0.51,0.38-0.82,0.57-1.02,1.02c-0.19,0.45,0,0.82,0,0.82s0.06,0.06,0.76-0.51c0.7-0.57,0.7-0.7,1.27-0.95
		c0.57-0.26,0.57-0.13,0.76,0.13c0.19,0.26,0.45,0.32,0.51,0.57c0.06,0.26,0.06,0.26,0.13,0.77c0.06,0.51,0.13,0.76,0.26,1.21
		c0.13,0.45,0.19,0.7,0.32,1.27c0.13,0.57,0.26,1.65,0.32,1.97c0.06,0.32,0.13,0.82,0.19,1.27c0.06,0.45,0.26,1.08,0.32,1.34
		c0.06,0.26,0.32,0.82,0.38,1.02c0.06,0.19,0.32,0.64,0.38,0.82c0.06,0.19,0.26,0.38,0.06,0.64c-0.19,0.26-0.38,0.32-0.19,0.7
		c0.19,0.38,1.27,1.21,1.34,1.59c0.06,0.38,0.19,0.7,0.32,1.53c0.13,0.82,0.38,1.78,0.45,1.97c0.06,0.19,0.64,1.27,1.27,1.91
		c0.64,0.64,0.82,0.51,1.21,1.02c0.38,0.51,0.64,0.51,0.89,1.15c0.26,0.64,0.38,1.46,0.45,1.72c0.06,0.26,0.32,0.76,0.45,1.27
		c0.13,0.51,0.45,0.76,0.38,1.15s-0.19,1.02-0.45,0.95c-0.26-0.06-0.89-1.21-1.15-1.53c-0.26-0.32-1.27-0.89-1.84-0.82
		c-0.57,0.06-1.91-0.13-2.1-0.19c-0.19-0.06-1.59-0.45-1.65-0.64s-0.51-0.57-0.95-0.7c-0.45-0.13-1.72-0.57-1.72-0.57l-1.46-0.45
		c0,0-0.23-0.13-0.98-0.06c-0.74,0.06-1.38,0-1.76-0.13c-0.38-0.13-1.21-0.64-1.21-0.64s-0.51-0.26-0.82-0.38
		c-0.32-0.13-1.02-0.45-1.27-0.57c-0.26-0.13-1.08-0.82-1.65-0.76c-0.57,0.06-0.76,0.13-1.53,0.13c-0.76,0-1.4,0.19-2.99,0.19
		s-3.5-0.32-4.71-0.32s-0.64-0.13-2.48-0.13c-1.84,0-3.25-0.26-5.35-0.38c-2.1-0.13-2.16-0.19-3.44-0.26
		c-1.27-0.06-2.04-0.19-2.48-0.19s-0.26-0.82,0-1.02c0.26-0.19,0.45-0.57,0.19-0.95c-0.26-0.38-0.89-0.76-1.27-1.08
		c-0.38-0.32-1.08-0.95-1.08-0.95s-0.57-0.32-0.89-0.64c-0.32-0.32-0.82-0.82-0.82-0.82s0.13-0.7,0-0.95
		c-0.13-0.26-0.13-0.76-0.45-0.82c-0.32-0.06-1.08-0.13-1.08-0.13s0.19-0.51,0.57-0.95s0.45-0.89,0.51-1.34
		c0.06-0.45-0.38-2.16-0.38-2.16l1.27-1.72c0,0-1.65-0.64-1.59-1.46c0.06-0.82-0.19-1.72,0.13-1.84c0.32-0.13,0.64-0.19,1.08-0.76
		c0.45-0.57,1.02-1.4,1.15-2.48c0.13-1.08,0.19-1.59-0.32-2.55c-0.51-0.95-0.19-1.34-1.02-1.84c-0.82-0.51-1.4-0.51-1.4-0.51
		s-0.26-0.51-1.21,0.13c-0.95,0.64-1.59,0.7-2.04,0.82c-0.45,0.13-0.32-0.45-1.4,0.06c-1.08,0.51-1.46,0.45-2.29,1.02
		c-0.82,0.57-0.06,0.57-1.59,0.89c-1.53,0.32-2.04,0.45-1.27-0.45c0.76-0.89,0.57-3.25,0.57-3.25s-0.45-0.13-0.92-1.21
		c-0.48-1.08-1.56-1.72-1.49-2.1c0.06-0.38,0.06-1.46,0-1.84c-0.06-0.38-1.59-0.45-1.53-0.89c0.06-0.45,0.57-1.02,0.57-2.55
		s-0.45-2.55-0.26-3.18s0.64-2.55,0.82-2.99c0.19-0.45,4.26-8.53,4.26-8.53l-0.51-2.42c0,0,1.46-2.1,2.55-3.12
		c1.08-1.02,1.84-1.65,2.74-2.16s1.65-1.02,1.84-1.53c0.19-0.51,0.19-2.55,0.19-2.55l-0.45-1.78c0,0,1.4-0.06,1.59-0.26
		c0.19-0.19,0.82-1.65,0.82-1.65s1.02-1.53,1.02-1.91s0.06-1.59-0.26-2.36c-0.32-0.76-1.08-1.72-1.27-2.1
		c-0.19-0.38-1.02-2.04-1.15-2.42c-0.13-0.38-0.82-0.13-0.51-1.4c0.32-1.27,0.06-1.84,0.64-2.29c0.57-0.45,1.34-1.08,1.97-2.16
		c0.64-1.08,0.64-1.08,0.64-1.08s0.19-1.21,1.02-1.91s2.55-1.72,3.18-2.36c0.64-0.64,0.82-2.48,0.76-3.12
		c-0.06-0.64-0.89-2.04-0.7-2.86c0.19-0.82,0.38-1.97,0.76-2.74c0.38-0.76,2.23-2.48,2.23-2.48s0-0.38-0.45-1.08
		c-0.45-0.7-1.34-2.04-1.4-3.05c-0.06-1.02-1.08-2.93-1.21-3.18c-0.13-0.26-0.64-1.08,0.32-2.29s1.91-2.86,2.04-3.94
		c0.13-1.08-0.7-3.37-0.51-4.13c0.19-0.76,1.46-2.23,1.91-2.74s2.1-2.55,2.1-3.05s-0.13-2.36-1.15-3.18
		c-1.02-0.82-2.48-1.84-3.25-2.1c-0.76-0.26-2.61-1.34-2.42-1.4c0.19-0.06,2.48-0.06,3.75-0.13c1.27-0.06,1.72-0.06,2.8-0.26
		c1.08-0.19,2.55-0.26,2.8-0.82c0.26-0.57,0.45-2.36,0.57-3.12s0.13-1.97-0.82-2.04c-0.95-0.06-2.67-0.89-3.44-0.89
		c-0.76,0-2.36-0.13-2.67-0.57c-0.32-0.45-1.21-2.16-0.95-3.12c0.26-0.96,0.82-2.99,1.27-3.82c0.45-0.82,0.82-1.97,0.82-2.29
		s-0.06-1.08-0.06-1.59c0-0.51,0.19-0.76-0.38-1.21c-0.57-0.45-1.27-0.89-1.53-1.15c-0.26-0.26-0.76-0.06-0.76-1.02
		s-0.57-1.15,0.32-1.59c0.89-0.45,1.4-0.82,1.4-1.15c0-0.32-0.45-0.64-1.27-1.34c-0.82-0.7-1.21-0.95-1.59-1.4
		c-0.38-0.45-0.89-0.7-1.21-1.27c-0.32-0.57-0.7-0.82-1.02-1.84s-1.02-0.13-0.45-1.78c0.57-1.65,0.57-2.04,0.89-2.74
		c0.32-0.7,0.57-1.08,0.7-1.78c0.13-0.7,0.45-0.51-0.45-1.78c-0.89-1.28-1.46-0.95-1.4-2.16c0.06-1.21-0.38-2.36,0.64-1.91
		c1.02,0.45,0.13-0.19,2.1,1.02c1.97,1.21,1.53-0.45,1.53-0.45s0.45-0.95,0.51-1.4c0.06-0.45-0.06-1.84-0.06-2.16
		s0.13-1.59,0.13-1.84s0.06-1.65,0-2.04s-0.57-1.53-0.95-2.29c-0.38-0.76-0.64-1.59-0.32-2.16c0.32-0.57,0.76-2.1,0.76-2.86
		c0-0.76-0.57-2.1-0.45-2.8s0.26-2.36,0.26-3.25c0-0.89-0.13-2.16,0-3.05s0.19-2.29,0.45-2.67c0.26-0.38,1.21-1.21,1.34-1.72
		c0.13-0.51,0.89-1.27-0.06-1.65c-0.95-0.38-1.59-0.95-1.59-1.21s0.13-0.89,0.51-1.27c0.38-0.38,1.46-1.46,1.78-2.16
		c0.32-0.7,0.64-1.65,0.38-2.04c-0.26-0.38-1.08-1.27-1.02-1.65s0.45-0.95,0.82-0.95c0.38,0,1.53,1.15,1.97,1.08
		c0.45-0.06-0.26-3.82,0.19-4.96s0.7-1.84,0.76-2.93c0.06-1.08,0-2.55,0-2.93s-0.57-0.95,0.38-1.4c0.95-0.45,2.29-0.76,3.37-1.65
		c1.08-0.89,2.29-1.91,2.61-2.42c0.32-0.51-0.57-1.27-0.57-1.27l-0.76-0.95c0,0-0.86-0.86-0.86-1.24s0.09-0.28-0.09-1.72
		c-0.19-1.43-0.28-2.77-0.28-3.05c0-0.28-0.48-1.82-0.67-2.29c-0.19-0.48-0.76-1.82-0.67-2.58c0.09-0.76,0.38-2.48,0.38-3.34
		c0-0.86,0.19-1.91,0.19-2.48c0-0.57-0.38-2.19-0.38-2.58s0-1.43,0-2.01s0.19-2.77,0.67-3.72c0.48-0.95,2.19-3.92,2.67-4.2
		s4.87-5.15,4.87-5.15s-0.09,0.76,0.38-0.48s0.67-3.34,0.67-4.01s-0.09-1.72-0.28-3.44c-0.19-1.72-0.57-3.15-0.76-3.44
		c-0.19-0.28-1.43-0.57-1.15-1.05c0.28-0.48,1.34-0.67,2.01-1.82c0.67-1.15,0.86-2.48,1.05-3.34c0.19-0.86,0.48-2.29,0.95-3.25
		c0.47-0.96,1.34-2.96,2.1-3.92c0.76-0.95,1.05-1.43,1.43-2.01c0.38-0.57,0.86-1.72,0.86-1.72s0.09-0.19-0.19-0.57
		c-0.28-0.38-0.76-0.91-0.86-1.76c-0.09-0.86-0.53-2.05-0.53-2.86s0.53-2.48,0.67-3.01c0.14-0.53,0.28-1.19,0.33-1.86
		c0.05-0.67-0.24-1.86-0.53-1.86c-0.28,0-1.24-0.09-1.38-0.33c-0.14-0.24-0.57-0.86-0.48-1.86c0.09-1,0.09-2.01,0.24-2.48
		c0.14-0.48,0.72-1.1,0.19-1.91s-0.76-1-1.05-1.67c-0.28-0.67-0.38-1.34-0.38-1.62s0.09-1.1,0-1.48c-0.09-0.38-0.14-0.53-0.53-1.05
		c-0.38-0.53-0.86-1.15-1.05-1.48c-0.19-0.33-0.67,0-0.57-1.1c0.09-1.1-0.24-1,0.33-1.29c0.57-0.28,0.91-1.1,0.86-1.34
		c-0.05-0.24-0.14-0.53-0.86-0.76c-0.72-0.24-1.43-0.19-1.62-0.62c-0.19-0.43,0.09-1.57-0.38-2.24c-0.48-0.67-1.53-0.62-1.57-1.15
		c-0.05-0.53,0.09-1.38,0.38-2.15c0.28-0.76,1.1-4.82,1.1-4.82s1.76,0.33,2.05,0.09s0.67-0.53,0.53-1.19
		c-0.14-0.67-0.91-0.57-0.81-1.15c0.09-0.57,1.34-3.15,1.82-3.92s0.86-2.29,0.95-2.67c0.09-0.38-0.86-2.38,0.28-2.01
		c1.15,0.38,2.1,0.95,2.38,0.67c0.28-0.28,0.48-1.62,0-2.1c-0.48-0.48-1.34-1.53-1.34-1.53s0.48-1.24,0.76-1.62
		c0.28-0.38,1.15-1.62,0.67-2.58c-0.48-0.96-1.15-2.1-1.34-2.77c-0.19-0.67-0.48-1.24-0.48-2.1c0-0.86,0.09-2.19,0.09-2.19
		s0.76-0.57,1.43-0.95c0.67-0.38,1.34-0.67,1.53-1.43c0.19-0.76-0.09-0.57,0.28-2.19c0.38-1.62,0.48-2.48,0.57-2.86
		c0.09-0.38,0-1.43,0.19-2.1c0.19-0.67,1.91-3.72,1.91-3.72s0.95-0.67,1.91-1.62c0.95-0.95,3.15-3.34,3.34-3.72
		c0.19-0.38,0.38-2.1,0.38-2.58c0-0.48,0-1.43,0.38-1.91s0.67-1.15,0.86-1.82c0.19-0.67,0.95-2.19,0.95-2.58s0.28-0.38,1.34-0.28
		c1.05,0.09,2.1,0,2.38-0.28c0.28-0.28,1.34-0.76,1.53-1.43c0.19-0.67-0.38-1.91-0.57-2.38c-0.19-0.48,0-1.53-0.38-2.58
		c-0.38-1.05-0.95-1.91-1.05-2.19s-0.48-1.24-0.19-1.72c0.28-0.48,0.86-0.67,0.95-0.95c0.09-0.28,0.38-1.15,0.57-2.01
		c0.19-0.86,0.28-2.86,0.28-2.86s-0.67-0.76-0.76-2.38c-0.09-1.62-0.48-2.48-0.48-3.05c0-0.57-0.19-0.86-0.19-1.43
		s-0.67-1.62,0.48-1.82s1.82-0.57,1.82-0.57s0.38-0.76-0.19-1.72c-0.57-0.95-1.91-2.77-1.91-2.77s-0.09-1.97,0.38-2.38
		s0.76-0.89,2.1-1.94c1.34-1.05,1.84-1.49,2.9-2.1c1.05-0.61,1.88-0.54,2.29-0.64s1.53-0.57,2.61-0.92
		c1.08-0.35,2.67-0.92,3.09-1.43c0.41-0.51,0.82-1.11,0.82-1.11s1.46-5.92,1.49-6.08c0.03-0.16,0.06-0.22,0.32-1.24
		c0.26-1.02,0.45-2.42,0.54-3.12c0.09-0.7-0.03-1.4-0.13-1.94"/>
</g>
<g id="Layer_3">
	<path class="st0" d="M197.46,463.07v43.59l10.56,0.32c0,0,0.06-0.51,2.29,0.13c2.23,0.64,5.35,0.95,5.35,0.95s-0.45-1.02,0.76,0
		s1.78,1.21,2.55,1.84s1.4,1.27,1.65,1.53c0.26,0.26,1.72,0.57,1.72,0.57l-5.47-4.33c0,0,0.7,0.06,2.36,0.7s2.55,1.08,3.44,1.02
		c0.89-0.06,1.78-0.26,2.36-0.45c0.57-0.19,1.72-0.51,2.16-0.64c0.45-0.13,1.34-0.76,1.84-0.95c0.51-0.19,0.7-0.51,1.27,0
		c0.57,0.51,0.95,0.82,1.65,0.7c0.7-0.13,1.59-0.06,2.48-0.57c0.89-0.51,1.46-1.15,1.97-2.04c0.51-0.89,1.53-2.36,1.53-2.74
		c0-0.38,2.04-1.65-0.76-0.95c-2.8,0.7-3.31,0.51-4.71,0.7c-1.4,0.19-2.8,0.32-3.94-0.19c-1.14-0.51,1.27-0.26,0.89-0.38
		c-0.38-0.13-1.91-0.95-2.74-1.4c-0.82-0.45-3.63-1.97-3.63-1.97s-1.27-0.82-1.46-1.02c-0.19-0.19-0.45-0.57-0.89-0.95
		c-0.45-0.38-1.34-1.27-1.59-1.59c-0.26-0.32-0.76-0.64-1.34-1.02c-0.57-0.38-2.36-2.16-2.8-2.36c-0.45-0.19-3.37-1.65-3.94-2.61
		c-0.57-0.95-2.29-2.67-2.55-3.44c-0.26-0.76-1.08-2.23-1.53-2.86c-0.45-0.64-0.95-1.34-1.21-1.72c-0.26-0.38,0-0.76-0.82-1.72
		s-1.34-1.53-1.84-2.04c-0.51-0.51-1.21-0.76-1.34-1.72c-0.13-0.95-0.38-1.72-0.45-3.12c-0.06-1.4-0.13-1.91-0.19-2.42
		c-0.06-0.51-0.13-0.82-0.19-1.15c-0.06-0.32,0.06-1.08-0.13-1.53c-0.19-0.45-0.38-0.76-1.02-1.4c-0.64-0.64-1.02-1.08-1.02-1.08
		L197.46,463.07z"/>
</g>
</svg>
