<?xml version="1.0" encoding="utf-8"?>
<!-- Generator: Adobe Illustrator 26.0.1, SVG Export Plug-In . SVG Version: 6.00 Build 0)  -->
<svg version="1.1" xmlns="http://www.w3.org/2000/svg" xmlns:xlink="http://www.w3.org/1999/xlink" x="0px" y="0px"
	 viewBox="0 0 512 512" style="enable-background:new 0 0 512 512;" xml:space="preserve">
<style type="text/css">
	.st0{display:none;}
	.st1{fill:#FFFFFF;}
</style>
<g id="Layer_3" class="st0">
	
		<image style="display:inline;overflow:visible;" width="599" height="746" xlink:href="5A9E7DEF.jpg"  transform="matrix(0.6956 0 0 0.6956 47.6532 -6.9539)">
	</image>
</g>
<g id="Layer_2">
	<path class="st1" d="M243.9,68.7c0-0.6,2.2-5.3,2.2-5.3l-3.2-1.5l-1,3.4h-5.7l-2.3-5.7l-2.6,1l-1.3-2.3l1.5-2.6l-7.5-6.5l-0.9-4.1
		l-4.5,1.8l-2.5-7.1l-3.9-2.5l-3.9,0.9l-4.9-3.9l-0.8-5.4l0.6-1.5l-7.2-7.6l1.3-1.5l-1.3-1h-1.9l-5.3-4.5l-3.7,1.9l-4.5-3.5l-3,4.1
		c0,0-0.8-0.3-1.3-0.5s-2.7-3.6-2.7-3.6h-8l-9.4,5.8l-4.4-1.8l-6.1-5.9l-2.2,0.9l-2.1-0.9l-2.6,2.3l-5.9-0.6l-4,3.7l-1.3,0.9
		l1.7,2.8l-5.5,2.6l1,2.5l-6.3,5.3l-1.7,0.4l-1.8-1.7l-7.2,4.1l1.7,3.4l-13.5-1l-1.2-5.2l-3.5,0.6L89,34.6l0.6,4.3h-5.9v4.5
		l-10.3-1.2l-2.3,3.4l4,45.2l4.3,3.1l3.7-3.5l3.5,3.5l5.7,2.5l-1.7,3.4l-8-1.2l-1.5,6.3l4.1,3.9l-0.4,1.4l-5.2,1.8l3.4,4.1l8.4,3.5
		l1.7,4.9l8,3.6l3.5-1.4l2.5,0.5l-0.5,3.5l14.3,1.5l0.9,2.5l1,1.5l-1.9,1.4c0,0,1,2.2,0.4,2.1c-0.6-0.1-8.3,0-8.3,0l-1.7-3.9H109
		l0.5,3.9l-5.3-0.8l-5-3.4l-1.2,1.9l1.9,1.4l-4.6,6.1l-5-1.2l-0.5,2.8l2.1,4.9l-0.6,7.7l-3.7,5l6.3,1.2l2.5-1l0.6,2.5l-6.8,3.7
		l-1,2.3l-3.5-1.7l-3.7,0.9v2.6l2.2,4.8h3.9l9.9-8.1l2.5-0.1l1,3l4.4-1.8l5.4,0.8l4.4,3.6l0.4,2.7l-2.2,3.1l0.3,3.4l0.1,3.1
		l-2.1,0.8l1.3,3.9l-2.5,1.2l-1.2,5.9H107l0.8,2.3l-2.8,2.7l-0.1,4.4h-2.1l-0.1,3.4l-2.5,1.7l-0.4,1.7l-1.5,3.7l-3.9,0.8l-0.8,2.3
		l3,6.5l-0.6,5l-3.4,2.2l0.1,4l1.5,2.5l0.3,3.1l2.8,4.5h4.4l2.2,3.5l4.5-2.8l3.2,0.6l2.8,11.5l4.8,1.3l1.5,4.3l5-1.2l-0.9,2.3
		l1.4,1.3l1.3,0.9l0.8,2.3l3.6,2.2l2.1,2.8l0.9-2.6l3.6,3.2l-0.1,3.6l-5.2,2.6l-3,4.6h-13.2l-2.3-2.7l-11.5-4.3l1.7,7l4.5,5.4
		c0,0,0.5,4.1,0.9,4.3c0.4,0.1,5.8,6.2,5.8,6.2l1.2,4.3h2.5l4.9,4.6l0.6,2.7l4.3,3.1l0.4,4.3c0,0-0.6,5.9-1.4,5.5
		c-0.8-0.4-1.5,0-1.5,0l-0.5,1.3l0.1,3.4l2.2,1.2l-2.8,1.8l-9-0.8l1.2-2.2l-2.8-1.3l-2.3,1.5l-7-1.4l-1.9,2.5l1,6.6l-3,0.9l-0.1,4.9
		l7.9,5.3c0,0,2.7,1.2,3.2,1.8s5,3.1,5,3.1l4.6,2.3l1.7,5.7l5.8,3.1l0.8,7.2l5.7,2.8l4.4,6.1l3.7,1.7h7.2l0.5,3.7l0.9,1.8l3.6,1.5
		c0,0,1,1.9,0.5,1.5c-0.5-0.4,2.6-1.8,3-1.5c0.4,0.3,3.5,2.5,4,2.5s5.4-3.1,5.4-3.1l0.1,4.9l12.6,13.3l1.9-2.5l3.1,3.1l15.2,6.2v9.3
		l7.1-1.8c0,0,2.3,1.4,2.8,1.2s6.2-4.3,6.2-4.3l-2.6-6.1l1.4-5.4l2.2,0.3l5.7-6.5h4.1l3.6-10.8l-8.8-9l0.9-3.7l7.9-0.1l4.3-5.5
		l4.1,1.4l6.5-2.1l2.5,6.6l-3.4,3.2l7.7,5.7l7.2,0.6l5.3,2.5l2.3-1c0,0,4.5,3.9,4.8,4.3s2.2,8.8,2.2,8.8s3.1-1.3,3.9-0.6
		s3,6.3,3,6.3s-0.5,6.1,0.8,6.3c1.3,0.3,5.5,1.7,5.5,1.7l3.7,2.8l6.7,0.6l-3,13.8c0,0,2.6,0.5,3.6,1c1,0.5,8.4,3.5,8.4,3.5
		s1.4-1.2,2.2-1.2s3.5,0.5,3.4,1.2c-0.1,0.6,3.1,3,3.7,3.2c0.6,0.3,1.8,4.6,2.1,4.1c0.3-0.5,1.2-3.7,1.8-3.9s4.9-1.8,5.8-1
		c0.9,0.8,3.6,4.9,3.6,4.9s-3.4,5.1-3.5,5.5s0.4,4.1,0.4,4.1l-0.9,4.6l-3.6,0.9v3.1l-5.3,4.5l-1,4.3l1.4,4.9l-1.7,3.2
		c0,0-5-0.5-5.5,0c-0.5,0.5-3.5,1.4-3.5,1.4l-0.1,5.5c0,0,2.3,1.4,2.8,1.9c0.5,0.5,3.2,4.6,3.2,4.6l5.8,2.5h3.4l3.6-3.2
		c0,0,2.1,1,2.5,0.8c0.4-0.3,1.3-4.1,1.3-4.1l3.4-0.4l1.9-3.1c0,0,3.1,1.8,4.1,2.2s3.5,0.9,3.5,0.9l1-4.8c0,0,1-0.8,1.2-0.3
		c0.1,0.5,6.8,5.4,6.8,5.4l9.2-0.9l2.6-1.8l0.8,0.6c0,0,1.7-2.3,1.9-1.9c0.3,0.4,5-0.8,5-0.8v-3.5l4.6-0.9v3.1l5.3,4l1.3-1.3
		c0,0,8-0.3,7.9-0.6c-0.1-0.4,1.7-8.3,1.7-8.3l3.1,0.5l4.5-11.5l-3.7-4.4l-4.1-3.6l-2.6-2.8l3.4-12.6l-2.1-1.3l4.4-5.5l-5.9-9
		c0,0-0.3-1.9,0.6-2.1c0.9-0.1,4.9-2.8,4.9-2.8l2.8-4l4.1,2.3l2.8-3.5l2.2,2.1l2.8-0.4v1.8l2.3-2.7l4.6,0.1l2.3-5.2l-1.2-2.6
		l1.9-0.3v-3.4l9.5-6.5l2.1-4.4l3-2.5l3.6-4.1l0.6-4.5l0.9-3.6l-9.8-5.8l-3.7-5.9l-1.7-5.7l-5.3-4.5l-2.2-3l-6.1-1.4l-1.8-2.2
		c0,0,0.6-0.9,0.3-0.9c-0.4,0-3-0.5-3-0.5l-3.2-0.6l-1.7-3.1l-3.2-1.2l-2.7-5.7l-2.3-13.5l0.6-2.5l-7-6.3l-2.1-3.7l0.6-5.3l-2.6-4.6
		c0,0,0.1-2.1-0.1-2.7c-0.3-0.6,2.6-6.6,2.6-6.6l-0.1-5l1-1.4l0.1-8.3l11.5-3.1l0.4-3.4l8.3-2.1l-1.7-6.2l0.9-4.6l-0.3-1.7l0.8-0.6
		l2.3-5.3h3c0,0-0.5-7.7-0.9-7.8c-0.4-0.1-9-3.7-9-3.7l-6.6-8.5l0.1-6.2l-4.5-4.3l0.3-2.2l8.1-0.6l1-7l3.5-1.9l2.6,0.5l5.8,3.4
		l5.8-1.5l-1.7-6.6c0,0-4-3.7-4.4-3.7s-7-0.5-7-0.5l-12.6-12.5l-6.2,4l-5.5,1.4l-5.9,6.1l-5.9,11.5l-3.9,8.8l-4.8-0.9l-2.6-4l-1.8-3
		l-2.3-1.3l-2.7-9l-3.1-3.7l-19.7-2.5l-2.7,1.4c0,0-4.3-2.1-4.9-2.1c-0.6,0-1.9,0-1.9,0l-4-10.8l-4.5-3l-14.5-0.1l-2.3-5.4l1.4-6.3
		l9.8-0.1l7-2.1l-1-6.1l-11.2-5.2l-5.4-6.5l7.4-1.8l0.1-1.9l2.2-5.4l0.1-2.8l4.5-1.9l-0.6-3.4l-1.5-0.5c0,0-3.4-4-3.7-4.1
		c-0.4-0.1-4.5-2.6-4.5-2.6l-1.3-1.4l-4.6,0.1l-4.3-1.9l-3.1,1.5l-2.7-1.7l-3.1-9.2l-8.6,1.7l-2.7-1.9l-1.9,0.8l0.6-2.5l-1.8,0.4
		l-8.8-7c0,0-1-5-1.5-5s-3.9-1.5-3.9-1.5v-2.2l-3.1-2.1l-4.1-0.5l-1.7-1.3v-3.4l5.4-3.2l-3.5-5.5l-2.3-0.8l-0.8-3.7l2.7-3.2l1.8-3.6
		L243.9,68.7z"/>
</g>
</svg>
