<?xml version="1.0" encoding="utf-8"?>
<!-- Generator: Adobe Illustrator 26.0.1, SVG Export Plug-In . SVG Version: 6.00 Build 0)  -->
<svg version="1.1" xmlns="http://www.w3.org/2000/svg" xmlns:xlink="http://www.w3.org/1999/xlink" x="0px" y="0px"
	 viewBox="0 0 512 512" style="enable-background:new 0 0 512 512;" xml:space="preserve">
<style type="text/css">
	.st0{display:none;}
	.st1{display:inline;}
	.st2{fill:#FFFFFF;}
</style>
<g id="Layer_1" class="st0">
	<g id="Layer_3">
		
			<image style="display:inline;overflow:visible;enable-background:new    ;" width="669" height="839" xlink:href="7E62F3A8.jpg"  transform="matrix(0.609 0 0 0.609 52.2755 0.5069)">
		</image>
	</g>
	<g id="Layer_2_00000144299700769180721960000014861208170299882641_" class="st1">
		<path class="st2" d="M254.6,60.2l-2.1,0.5L252,60l1-2.1l0.4-2.1h1.6l2.5,2c0,0,0.8,0.6,0.6,0.9s-1.1,0.8-1.5,0.9
			S254.6,60.2,254.6,60.2z"/>
		<path class="st2" d="M253.8,41.1c0,0-2,0.6-2.2,0.6c-0.2-0.1-1-0.8-1.5-1.5s-1.3-3.9-1.3-3.9l0.3-2.9l0.5-5.4l1-4.8l-0.4-3.5H248
			l-1.4-0.5L247,17c0,0,1.5-3.2,1.8-3.5s2.6-2.5,2.6-2.5l1.7,0.4l4.2,3.9v2.5l4.9,0.8l1.2,1.8l-1.6,6.8c0,0-2.8,5.7-3,5.9
			s-1.4,3.5-1.4,3.5l-2.4,0.8l-0.7,1.9L253.8,41.1z"/>
		<path class="st2" d="M262.7,15.7l0.2-3v-1.4c0,0-1.4-0.6-1.5-0.7c-0.2-0.1-1-0.7-1-1s-0.4-0.7,0.5-1c0.9-0.4,1.3-0.4,2-0.6
			c0.7-0.3,1.2-0.8,1.3-1.3s0.2-0.6,0.1-0.8c-0.1-0.2-0.7-0.5-0.7-0.5l-2.4-0.2c0,0-0.7-0.7-0.9-1c-0.2-0.2-0.5-0.8-0.7-0.5
			s-0.5,0.6-0.5,1c-0.1,0.4-0.3,0.6-0.4,1.1c-0.1,0.6-0.3,0.5-0.2,1.2s0.3,1.3,0.1,1.5c-0.2,0.2-0.5,0.6-0.8,0.7
			c-0.3,0.1-1,0.1-1.3,0.5s-0.5,0.8-0.4,1c0,0.2,0.6,0.6,0.6,0.6s-0.5,0.1,0.4,0.1s1.7,0,2.4,0c0.7,0,1.1-0.3,1.3,0
			c0.2,0.3,0.4,0.4,0.6,0.9c0.2,0.4,0.4,0.7,0.4,1.1c0,0.4-0.1,0.7-0.3,1.1c-0.2,0.4-0.4,0.5-0.4,0.9c-0.1,0.4,0,0.7,0.2,0.8
			C261.3,16.2,262.7,15.7,262.7,15.7z"/>
		<path class="st2" d="M374.1,286.1c0,0-0.3,1.5-0.5,1.9c-0.2,0.3-1.1,1.5-1.5,2.3c-0.5,0.7-0.6,0.7-1.3,2c-0.6,1.3-1,2.1-1.4,2.6
			s0,2.3,0,2.3l-1.1,0.9c0,0-1.5,0.3-1.7,0.3c-0.3,0.1-2.1,1.4-2.1,1.4s-0.5,0.6-1,1.4c-0.6,0.8-0.6,0.6-0.8,1.4
			c-0.2,0.7-0.5,1-0.5,2.5c-0.1,1.5-0.5,3.2-0.6,3.8c-0.1,0.6,0.1,1.7,0,2s1.1,0.5,1.1,0.5s2.5-2.2,2.7-2.6s0.3-1,1.2-1.7
			c1-0.7,1.3-1,1.9-1.7s0.8-1,1-1.7s0.1-0.3,0.4-1.5s0.3-1.4,0.9-2.2c0.6-0.8-1.4-0.3,0.8-1.2c2.1-0.9,1.9-0.5,2.7-1.2
			c0.8-0.6,1.2-0.8,1.5-1.5c0.4-0.8,0.5-1.6,0.5-1.8s0.1-0.4,0-1.2s0.7-0.7,0-1.5s-0.5-0.6-0.9-1.2c-0.3-0.6-0.4-1-0.6-1.4
			s-0.2-0.5-0.2-1S374.1,286.1,374.1,286.1z"/>
		<path class="st2" d="M243.8,436.7c0,0-1,1.1-1.1,1.4c-0.1,0.2-0.4,0.9-0.4,1.1c0,0.1-0.3,0.4,0.2,0.4s1.4-0.3,1.8-0.3
			c0.4,0,1.4,0.1,1.4,0.1s0.1-0.5,0.1-0.6s0-0.5-0.2-0.7c-0.2-0.1-0.5-0.4-0.7-0.5s-0.5-0.2-0.6-0.3S243.8,436.7,243.8,436.7z"/>
		<path class="st2" d="M241,437.6c0,0.1,0.1,0.4-0.2,0.6s-0.4,0.2-0.4,0.2s-0.1,0,0-0.2s0.2-0.5,0.3-0.5S241,437.6,241,437.6z"/>
	</g>
	
		<image style="display:inline;overflow:visible;" width="921" height="780" xlink:href="EE50E97.jpg"  transform="matrix(0.6284 2.550772e-03 -2.550772e-03 0.6284 -46.1806 9.7427)">
	</image>
</g>
<g id="Layer_2">
	<path class="st2" d="M242.2,367.5l-4.3-14.2l2.2-4.9v-2.1v-4.4l30.9-20.1l14.7-3.4l19.6-9.5V206.9v-57l190.2,1.5l1-107.9H237.9v3.4
		l-2.4,6c0,0-2.2,9-2.4,9.2c-0.2,0.3-7.3,13.4-7.5,13.4c-0.1,0-3.3,12.8-3.3,12.8l-6,16.5l-9.9,6.4l-12.4,8.3c0,0-8.5,2.7-9.1,3.1
		c-0.6,0.4-3.5,0-3.5,0l-3.1,6.2l-5.2,1.9l-6.4,2.9l-4.8,10.1l-0.8,10.6c0,0-3.3,6.4-3.7,7.4s-5.6,11-5.6,11l-3.5,9.5l-4.8,13
		l-0.8,12.2l0.8,6.2l-0.8,8.5l-2.7,9.7l-3.1,3.1l-2.7,3.9l-7.4,5.8l-5,3.5l-5,6.2l-15.7,15.7l-4.8,7.7l-5.4,1l-6.8,4.1L75.8,298
		c0,0,2.7-1.9,3.5-3.1s5.6-9.1,5.6-9.1l5.2-1.9l1.4,4.5l-2.9,5.4l-5.8,6.8l-5.2,9.1l-4.5,7.4l-4.3,6.6l-3.5,3.9l-1.5,2.9l2.7,1.7
		l1.7,2.5l0.4,2.9l-2.1,1.9l-5.8,4.3l-2.3,4.1l-1,3.5c0,0-1.2,3.1-1.2,3.7c0,0.6-1.4,9.7-1.4,9.7l-4.6,4.3l-1,7.2l-2.7,4.6l-9.5,2.3
		l-5,2.3l-2.9,5l-2.3,5.8l-2.5,7l-1.4,4.5l-1.7,2.7l-0.8,6.4l-2.5,19.2l-3.7,17.4l0.3,21.9c0.1-0.2-0.3-8-0.3-8l0.8-4.5l1.4-5.4
		c0,0,2.3-8.6,2.3-8.8c0.1-0.2,3-7.6,3-7.6h225.4c0,0-1.8-28.7-1.4-29.5c0.4-0.8-1.8-18.3-1.8-18.3l-1.8-19.1"/>
</g>
</svg>
