<?xml version="1.0" encoding="utf-8"?>
<!-- Generator: Adobe Illustrator 26.0.1, SVG Export Plug-In . SVG Version: 6.00 Build 0)  -->
<svg version="1.1" xmlns="http://www.w3.org/2000/svg" xmlns:xlink="http://www.w3.org/1999/xlink" x="0px" y="0px"
	 viewBox="0 0 512 512" style="enable-background:new 0 0 512 512;" xml:space="preserve">
<style type="text/css">
	.st0{display:none;}
	.st1{fill:#FFFFFF;}
</style>
<g id="Layer_3" class="st0">
	
		<image style="display:inline;overflow:visible;" width="1558" height="780" xlink:href="E298F2F5.jpg"  transform="matrix(0.3373 0 0 0.3373 -0.3803 124.2443)">
	</image>
</g>
<g id="Layer_2">
	<path class="st1" d="M184.3,363.1c-0.1,0.1-1.7,1.6-1.7,1.6l-3.9-0.8l-3.4,0.6l-2.4,1.1l0.4,1.5l-2,2.6l-4.7,1.9h-4.5h-5.3
		l-4.4,1.4l-3.5-1.5l-3.5,1.5l-4.3,1l-2.9,0.7l-3.9,1l-6.2-1.3l-3.4,0.2l-4.5-1.4l-3.1-0.7l-3.9-0.1l-2.8,1.3l-2.9-1.4l-2.9,1.7
		l-2.8,0.6l-5.9-1.1l-4.1,0.9l-2.6-1.2l-3.2-0.4l-3.8-3.5c0,0-5.7-5.6-6.1-5.4c-0.4,0.2-4,0.2-4,0.2l-3.2-5.7l-5.1-1.6l-1.3-2.4
		l-1.7-3.8l-3.3-3.2c0,0-3.8-4-3.9-4.2c0-0.1-1.6-1.8-1.6-1.8l-5.6-0.2l-1.8-2.9l-3.2-0.2l-4.3,1.3l-1.9-1.7c0,0-0.7,0.2-1,0
		c-0.2-0.2-1.2-1.1-1.2-1.1l-1.4,1l-2.5-1l1.3-2l-1-1.4l1.5-1.5l-1.2-1.2v-0.5l1.9-1.3c0,0,0-1.6-0.1-1.6c-0.2,0-1.4-0.7-1.4-0.7
		l-0.3-0.7l-1-0.7v-1.5l-0.3-1.3c0,0-2.4,0.1-2.7,0c-0.2-0.1-1.6-1.3-1.8-1.5s-3.2-3-3.2-3s0.2-1.2,0.3-1.4c0-0.2-0.3-2.4-0.3-2.4
		l-1.1-1.9l-0.5-1.5l-0.7-0.5l1-4.2l-2.7-0.5l-1.5-2.6l-1.2-2.3l1.2-1.8c0,0-1.7-1.4-2.1-1.5s-1-0.6-1-0.6l0.3-1.5H9.7l-1.2-1.5
		v-2.6h1.1L10,289l0-1.7l1.1-1.1l-0.4-2l-1.1-2l1.8-0.4l-0.5-1l1-1.5l0.4-0.8l0.8,0.2l0.3-1.4l0.8-1.7L15,276l0.3-0.9l0.6-1.3l0.4-1
		l1.6-0.4l0.7-2.2l-1.1-1.8l0.1-1.6l-1-2.3l0.3-3c0,0,0.7,0.4,0.8,0c0.1-0.4,0.1-1.3,0.1-1.3l1.2-1.2l0.4-1.5l0-3.3l3-4.1l0.3-1.7
		l1.5-2.4l2-4.7l3.2-2.4l0.8-1.1l0.4-1.5l0.8-1.3l0.4-3l3.1-1.3l1.4-0.3l1.1-1.6c0,0,0.8-0.9,0.8-0.9c0,0,2-1.4,2-1.4l0.6,0.1
		l1.8,0.8l3.5,1.1l2.1,0.8l1.1,1.2l1,0.2l0.7,1.2l1.9,1.5l0.4,0.7l0.5,0.8l1.3-1.4l1.6,0.6l1.9-1.6l1,0.2l0.3-1.9l1.1,0.5l1-1.1
		l2.5,0.7l2.1,2.7l1,0.6l2.7-0.8l-0.1-1.4l1,1l1.4,0.2l1.5-1.5l1.3-1l0.8-0.3l1-1.3l4.8-0.8c0,0,2.1-0.5,2.3-0.7
		c0.1-0.3,6.1-7.5,6.1-7.5l4.3-0.5c0,0,2.4,0.3,2.6,0.3s1.8-0.8,1.8-0.8l0.6-0.8l1-4.9l1.2-4.7l0.8-1.8l3.9-0.6l2.2-0.5l1.9,0.8
		l0.7-0.1l0.5-0.3l1.6-0.4l3.7-3.9l-0.3-1.3l2.1-2.9l-0.6-2.8l1.3-1.1l-1.2-2.1l1.2-2.3c0,0,0.5-0.6,0.6-0.8
		c0.1-0.2,0.4-1.4,0.4-1.4l-0.4-2.6l1.9-2.3l0.6-2.4l-0.7-1.4v-2.5l3.4-3l0.1-1.8l8-2.2l1.7,0.3l1.3-1.5l5.2-2l1.6-2.2l0.5-0.7v-0.9
		c0,0,0.9-1.2,1-1.4c0.1-0.2-0.4-4.4-0.4-4.4l2.5,1.3l1.6-1.3l2.4-1.5v-1.4l1-0.5v-1.5l1.9-0.6l1.3-2.1c0,0,1.3-0.4,1.2-0.8
		s-0.8-3-0.8-3l1.2-1.9l2.3-0.8l1.2-0.4l0.6,0.9l0.5,1l1.3,0.1h1.6l0.8-1l2.5-1l1.6,1.4h2.6l1.3,1.2c0,0,1.7,0.2,2.1-0.1
		c0.3-0.3,2.1-1.9,2.1-1.9l1.9-1.5h2c0,0,2-0.2,2.2-0.3c0.2-0.1,2.1,0.6,2.1,0.6l2.6-0.1l2.8-0.5l2.8,2.1l-0.5,2.2l0.5,1.7l-1.1,2.3
		l1.8,1.8l0.6,1.9l-1.9,2.6l0.6,1.2l2.1,0.6h2.7l1-0.6l1.2-1.5l2.2-0.1l1-0.7l0.6,1.3l1.6,0.6l2.1-0.6l1.6,0.5l1.6-1.1l1.4-0.1v-1.5
		l-0.5-1l1-1.7l1.7-0.6l0.5-1.3l-0.5-1.7l1.4-2.6l-0.5-1.7l0.5-1.1c0,0,0.6-0.6,0.8-0.8c0.2-0.2,1.5-1.4,1.5-1.4l3.7-0.8l1.9,0.3
		h1.9l1.1-0.3v-1.5l1.1-2.8l2.2-0.3l1-3.2l3-0.9v-1.4h2.2v0.5v1.4l2.3,2.5l2.9,0.6v4.8l2,3.8l0.3,3.4l2.3,4.1l1.5-0.5l0.8,1.3l2.4-1
		l0.3,0.1l-0.5,1.8l1.1,0.2l-1.5,3.9l4.4,0.8l2.8,1.9l0.7,0.4l2.4-2.5l3.2-0.6v3.2l1.2,2.1v1.9l-0.6,1.8l1,2.5l-0.8,2.8l1.4,1.4
		l0.8,1.8l-2.1,1.6l-0.2,1.5l-1.2,1.6l-1.4,1.9l0.4,2.9l1.2,1.1l2.7-0.6l1.2,0.6l0.7-0.3l1.4,1.2l2.9-1.5l1.4-1.4v-1.7l2.1-0.5
		l0.5-0.6l2.2,0.4l2.6,0.7l1.6,0.8v1.4l1.9,1.3l1.3,0.8l3.6,2.5v-3l1.4-2.3l0.3-3.7l1-2.5l0.9-1v-3.6l1.2-1.7l1.1-0.3l1.1,1.2
		l1.2-0.8l-1-1.7l4.3-3.9l2.2,1l1.1-0.6c0,0,0.5,0.1,0.8,0.1c0.3,0,2.5-0.2,2.5-0.2l1.4,1c0,0,1-0.5,1-0.8c0-0.3,0-2,0-2l0.4-1.2
		l0.6-1.7c0,0-1.4-0.2-1.3-0.5c0.1-0.3,0.7-1.7,0.7-1.7l1.7-0.1l2.1,0.4l0.9-0.9v2l1.1,0.2l1.1-0.3l0.8-1.2l1.6,0.5v-1.9l2.9-0.3
		l1.5,0.9l1.6,0.8l1.1,1.8l3.2,1l2.3,0.5v-0.7l1.6-0.3l0.9-1.7l0.3-0.7v-0.8v-0.6l0.3-0.5l2.3,2.3h1.7l1.9-1.9l2-0.2l3.1,0.3
		l0.7,0.8v0.6l0.5,0.5l-0.3,1.3l1.4,1.5l-0.4,0.7l2.1,0l-0.2,2.2l1.1-0.5l1.1,0.6c0,0-0.3,0.2-0.4,0.3s-0.8,0.1-0.8,0.1l0.4,1.1
		c0,0,0,0.5,0.1,0.5s2.2,0.3,2.2,0.4s0,0.4,0,0.4l1.1,0.2l1-1.1l1-0.5c0,0,1,0.2,1.1,0.3s0.5,1.8,0.5,1.8s0.1,0.8,0.3,0.9
		s1.6,0.3,1.6,0.3l0.3,0.5c0,0,0.6,1.5,0.7,1.6c0.1,0.2,1.2,1.3,1.3,1.3s2.2-1,2.4-1.2c0.2-0.2,2.7-0.6,2.7-0.6l0.7-0.8l-0.5-1.8
		l0.5-0.6l1.5-0.5v-1.4l1.6-1.5l1.5-1.2c0,0,0.8,0.3,1,0.4c0.2,0.1,1.7,0.8,1.7,0.8s0.6-0.5,0.7-0.7s0.7-1.3,0.7-1.3v-1l-2-1.6
		c0,0-1.4-1.2-1.5-1.5c-0.1-0.3-0.7-0.9-0.7-0.9l0.2-1.1l1.8-0.6l1.7-0.4l1.2-0.3l0.7,0.3l1.5-1c0,0,1.1,0.4,1.4,0.6
		c0.3,0.2,1.6,1,1.9,1.3c0.3,0.3,1.4,2,1.4,2l1.8,0l1.5-0.6l1.2-0.9c0,0-0.3-1.5-0.2-1.6c0.1-0.1,0.8-1,0.8-1l2-0.8l0.6-1.6l0.7-0.8
		l3.1,1.9c0,0,1.9-0.7,2.1-0.7c0.2,0,2.1,0.4,2.2,0.7c0.1,0.3,0.3,0.8,0.3,0.9s0.8,0.9,1.3,0.8c0.4-0.1,1.6-0.3,1.7-0.2
		s0.7,0.9,0.9,1.2c0.2,0.2,3,1.9,3,1.9s1.7-0.3,2-0.3s1.3-1,1.3-1l0.7-1.4l0.6,1.1c0,0,1,0.6,1.1,0.4c0.2-0.2,0.9-0.9,1.1-1.1
		s1-1,1-1s0.4,0,0.5,0s1.3,0,1.3,0l1.1-0.8l0.6,0.8l0.9-0.2l2.2-0.9l1.4-0.6l2.2,3.1l1.5,1.1l1.4,0.4l1.7-0.4l1.1,0.6l0.6,1.1
		c0,0,0.2,0.5,0.3,0.6c0.2,0.2,1.3,0.8,1.4,0.9s1.1,0.7,1.1,1.1c0.1,0.4,0.6,1.3,0.6,1.4s0.5,1.2,0.5,1.4s0,0.4,0.4,0.5
		c0.4,0.1,1.4,0.6,1.4,0.6s0.1-0.8,0-1s-0.1-0.9,0-1c0.1-0.2,1.1-1.1,1.2-1.1s0.9-1,0.9-1l1.7-0.3c0,0,0.5-0.2,0.7,0
		c0.1,0.2,0.5,0.5,0.6,1.2c0.2,0.6,0.1,0.5,0.3,1c0.2,0.4,0.2,0.6,0.4,0.6s1.5,0,1.6,0.1c0.2,0.1,0.6-0.3,0.9,0.4
		c0.2,0.7,1,1.5,1.2,1.6c0.2,0.1,1.8,0.2,1.8,0.2l1,0.6l1.9-0.2l1.2,1.4l1,3.1l1.6,2.4c0,0,3.3,2.1,3.3,2.2s-0.4,2.3-0.4,2.3
		l0.7,0.7c0,0,0,1.5-0.2,1.7c-0.1,0.2-0.5,2.8-0.5,2.8l2.4,1.8l4.3,0.8l3.3,1l-0.3,0.9c0,0,2.8,1.3,3,1.4c0.2,0.1,0.6,0.8,0.8,0.7
		c0.2-0.1,2.2-1,2.2-1s0.9,0.2,1,0.5c0.1,0.3,0.6,1,0.6,1s0.1,0.6,0,0.7c-0.1,0.1-0.2,1.1-0.2,1.1s-0.4,0.5-0.3,0.6s2.1,0.5,2.1,0.5
		s1.4,0,1.5,0.1c0.1,0.1,1.6,0.9,1.6,0.9l1.6,0.8l0.4-0.2l2.6-1.3l2.2,0.2l1.1,0.5l1.1,2.7l1.6,2.1l1.2,0.5l1.2,0.2l2.4-0.1l1.4,0.6
		l1.2,1.1l2.1-0.7l1.9,0.1l1.3,0.5l0.3,0.3c0,0,0.2,0.4,0,0.8c-0.2,0.4-0.6,0.8-0.6,0.8l-0.2,0.6c0,0,0.3,2.7,0.4,3
		c0,0.2,0.3,2.2,0.3,2.2s-1,0.7-1.1,0.8s-0.4,0.2-0.2,0.7s0.2,1.8,0.2,1.8s-0.9,0.6-1,0.6s-2.9,0.5-2.9,0.5s-0.9,0-1,0.1
		c-0.2,0.2-0.7,1-0.7,1.3c-0.1,0.3-0.5,1.3-0.5,1.3l-0.3,1.1l-3.7,4.6c0,0-0.1,1.8-0.1,2c0,0.2-0.2,4-0.3,4c-0.2,0-3.2,1.5-3.2,1.5
		s-0.2,2.5-0.2,2.7c-0.1,0.3-0.2,3.6-0.1,3.8c0.1,0.3,0.6,3.7,0.6,3.7l-2.8,3.4l-1.3,1.2c0,0-0.1,1.1,0.1,1.2
		c0.2,0.1,1.5,1.7,1.5,1.7l-1.3,4.9l-0.2,2.5l-3.1,1l-2.7,1.7l-1.9,1.8l-0.4,0.8l-0.3,1.7L477,260l-1.4-0.1l-0.9,1.4l-0.9-0.3
		l-1.2,2.8l-2,3.8v5.8l-1.1,6.9l-0.4,5.4c0,0,0.3,2.8,0.6,2.8c0.3,0,1.1,0.5,1.1,0.5l-1.4,0.7c0,0-0.5-0.2-0.7,0.2
		c-0.2,0.4,0,1.5,0,1.5l-1.9,0.1l-1.4,0.6c0,0-0.7,0.8-0.8,0.5c-0.1-0.3-0.9-2.1-0.9-2.1l-1.7,1l-1.8-1c0,0-0.8-0.5-1.1-0.3
		s-1.5,0.9-1.5,0.9l-1.3,0.8l-1.3-0.4h-2l-1.5,0.5l0,0.7l-0.3,0.4l-1.5-0.1l-0.9-0.1c0,0-0.1,0.8-0.2,0.7c-0.1-0.1-0.6,0-0.6,0
		l-0.7-0.6l0,1c0,0,0,0.5-0.6,0.5c-0.5,0.1-1.1,0.3-1.4,0.2c-0.2-0.1-0.9-0.2-0.9-0.5s-0.2-1-0.2-1l-1.5,0.4l0,2.3l-0.3,1.5
		c0,0-0.5,0.2-1-0.1c-0.6-0.2-1.1-0.5-1.3-0.5c-0.1-0.1-2.6-0.1-2.6-0.1l-2.3-1h-1.8l-1.4-1v-1.1l-0.8-0.8l0.1-1.1l-1.8-1.6
		l-1.2,0.1c0,0-0.3-0.6-0.3-0.8s-0.2-2.1-0.2-2.1v-1.3l-0.3-0.7l-1-1.2c0,0-1.2-0.9-1.2-1s-0.3-1-0.3-1l-0.1-1.2l-0.5-0.7l-0.3-0.7
		l-0.3-1.5c0,0-0.4-1.5-0.4-1.6c0-0.1-0.1-1.9-0.1-1.9l-1.1-0.9l-0.8,0.5l-1.1,0.8l-0.5-0.1l-1.1-0.5c0,0-0.8,0.1-0.9,0.1
		s-0.4,0-0.7-0.1s-1.9-3-1.9-3l-0.5-1.4l0-1.1l-1.2-0.6c0,0-0.9,0.1-1,0s-1.2-0.9-1.3-1.1c-0.1-0.2-1-1.4-1.1-1.4
		c-0.1,0-1.8-1.1-1.8-1.1s-1.5,0.5-1.5,0.5s-0.4,1.3-0.4,1.3l0,1l-2-0.1l-1.7,0.6l-4.6-0.1l-0.1,0.8l-0.2,1.1c0,0-0.7,0.6-0.7,0.8
		c-0.1,0.2-0.1,0.9,0,1c0.1,0.1-0.3,0.8-0.4,0.8s-0.9,0.4-1,0.4s-1.7-0.6-1.7-0.6s-1.6-0.3-1.7-0.3s-2.1-0.7-2.1-0.7l-1.1,0.3
		l-2,1.1c0,0-0.9,0.7-1,0.6s-1.8-0.5-1.9-0.3s-1.4,2.1-1.5,2.2s-0.8,1.4-0.8,1.4s-0.8,0.4-1,0.3s-1.4-0.3-1.5-0.4
		c-0.1-0.1-1.1-0.5-1-1c0.1-0.5,0.2-1.4,0.2-1.4l-0.4-0.5l-1.5-0.8c0,0-0.8-0.1-1.1,0c-0.4,0.1-0.5,0-0.5,0s-0.9-0.2-1.1-0.3
		s-1.3-0.4-1.5-0.4c-0.1,0-0.7-0.4-0.9-0.4c-0.2,0-0.5-0.3-0.9,0.2c-0.5,0.5-1.2,0.4-1.4,0.8c-0.2,0.4-0.7,0.6-0.7,0.6
		s-0.4-0.6-0.6-0.6s-1.6,0.5-1.5,0.1c0.1-0.3,0.1-0.9,0.1-1s-0.5-0.6-0.6-0.6s-0.6,0.2-0.8,0s-0.5-0.3-0.4-0.6
		c0.1-0.3,0.2-0.6,0.2-0.6s-0.6-0.3-0.7-0.5c-0.1-0.2-0.4-0.6-0.4-1.2c-0.1-0.6,0-0.5-0.4-0.4c-0.4,0.1-1.3,0.3-1.5,0.4
		s-1.5,0.4-1.5,0.4s-1.5,0.3-1.5,0.2s-0.4-1-0.4-1l-0.8-1l-0.3-0.2c0,0-0.2,0.1-0.1-0.3c0.1-0.4,0.4-1.1,0.4-1.1s-0.5-0.2-0.6,0
		s-0.6,0.8-0.6,0.8l-0.1-0.8l-0.5-0.1l-1.2,0.2l-1.3,0.5h-2.5c0,0-2.8,0.3-3,0.4c-0.3,0.1-1.1,0.8-1.1,0.8l-1.4-0.5l-1.6,0.3l-1.7,1
		c0,0-1.9-0.4-2-0.3c-0.1,0.1-1.2,1-1.2,1l-1.1,0.3l-1,1.4c0,0-0.5-0.1-0.6,0s-0.8,0.3-1,0.3s-0.8,0.6-0.8,0.6l-2-0.5l-1.6-0.4
		l-0.3,1.8l-1.4-1c0,0-0.7,0.1-0.9,0.1s-0.6,0.2-0.6,0.2s-0.1,2.7,0,2.8c0.1,0.1-0.4,3-0.4,3s-0.6,0.6-0.7,0.7
		c-0.1,0.1-1.5,1.1-1.5,1.1s0.1,0.5-0.1,0.7c-0.2,0.2-1.1,0.8-1.1,0.8l0.3,0.8l-0.3,1c0,0-0.9,0.2-1,0.3s-1.4,1.7-1.4,1.7
		s-1.5,1.2-1.5,1.3s0,1.2,0,1.2s0.2,1.4,0.2,1.6s0.1,1.3,0,1.5c-0.1,0.2-0.5,0.7-0.5,0.7l-0.9,0.6c0,0-0.2,0.9-0.2,1s0,1.2,0,1.2
		l-1.3,1.5c0,0-1.2,1.8-1.3,2c0,0.2-0.4,1.3-0.4,1.3s-0.2,0.8-0.3,1s-0.2,1.1-0.2,1.1l-1.7,0.9c0,0-0.8,0.5-1,0.9
		c-0.1,0.4-0.9,2.1-0.9,2.1l0.1,1c0,0-0.9,0.3-1.1,0.5c-0.3,0.2-0.6,0.8-0.6,0.8s-0.4,0.2-0.5,0.3c-0.2,0.1-1.7,0.2-1.8,0.1
		c-0.1-0.1-0.2-0.6-0.8-1.1c-0.6-0.5-2.5-1.3-2.5-1.2s-0.3,0.6-0.3,0.8s0.1,1.2,0.1,1.2s-1.1,0.5-1.2,0.5s-1.2,0-1.2,0l-0.5,1.1
		l-0.8,0.7l-4.7-0.6l-0.3,2.6c0,0-0.2,1.5-0.3,1.5s-1.9,1.4-1.9,1.4l-1.7,1.8c0,0-1.5,0.3-1.5,0.4s0.5,1.2,0.5,1.2l-0.8,1.3
		l-0.7,0.6c0,0-0.5,0.1-0.6,0.1s-1.5-0.7-1.5-0.7l-1.1,0.3c0,0-0.5-0.2-0.7-0.1c-0.2,0.1-1.6,0.4-1.6,0.4l-0.7,0.5l-0.3,0.4
		c0,0-1.3,0.1-1.4,0.3s-0.3,0.9-0.3,0.9l-1,0.2l-0.3,1l-0.6,0.5l-0.2,1c0,0,0.2,0.4-0.1,0.4s-3.2,0-3.2,0s0-1.8,0.2-1.9
		s0.8-0.3,0.8-0.3l-0.4-1.1l-0.8-1.2c0,0-1.5-0.5-1.6-0.4s-2-0.1-2.1-0.2s-0.2-1-0.2-1l-0.5,1.5l-2-0.1l-0.4-0.2l-1.1,0.5l-0.3,1.3
		l-1.5-1l-0.4-0.4l0.7-2.1l0.9-0.6l-0.9-1.1l-1.5-1.7l-1.5-1.2l-1.2-0.2l-1.4,1.4c0,0-1.5,0.5-1.6,0.5c-0.1,0-1.8-0.7-1.8-0.7
		l-1.3-1.4l0-1.4l-0.4-0.8l-1-0.1l-1-0.5l-1.2-0.8l-0.9-0.5c0,0-1.5,2.4-1.6,2.5c-0.2,0.1-2.1,1.7-2.1,1.8s-2.4,0.9-2.4,0.9
		l-2.4,0.8l0.3,1.7l-1.8,1.9l0.4,2.8c0,0-1.5,1.5-1.6,1.5c-0.1,0,0.1,4.3,0.1,4.3l-2.6,3.6l-1.1-1.4c0,0,0.2-0.9,0.1-1
		c-0.1,0-1-0.1-1.2,0c-0.1,0.1-0.4,0.6-0.5,0.7c-0.1,0.1-1.5,1-1.5,1l-1.2,0.1c0,0-0.6,0.5-0.6,0.3s-0.7-1.2-0.9-1.2
		s-1.7,0.9-1.7,0.9l-1.7-0.6l-4.5,0.5l-1.3,1.3l-2.2,1.1l-1.1,1.7l-2.3-1l-2.5,0.3l-2.8-0.8l-2.2-1l-2.3,0.9c0,0-1.4-0.4-1.5-0.4
		c-0.1,0-2.3,1.5-2.3,1.5l-2.7-0.8l-1.3-1.4l-2.3,2.5l-1.9-0.2l-2.3,0.5l-1.3-0.2l-1,0.5l-1.3-0.3l-0.3-0.6l-0.5,0l-0.4,1.3
		l-1.2,0.1h-1.1l-0.5-0.4l-1.6,0.3l-0.5,1.1l-0.2,0.9l-0.5,1l-0.6,0.3l0.6,2.1l-0.4,1.1l-0.3,0.9c0,0-0.6,0.4-0.8,0.4
		c-0.2,0-2.3,0.1-2.3,0.1l-1.1,0.7l-0.4,0.6l0.3,1.3c0,0,0.8,0.8,0.8,0.9s0.3,1.2,0.3,1.3s0,1.5,0,1.5s-0.3,0.8-0.3,1.1
		s-0.8,1.3-0.9,1.4c-0.1,0.1-0.6,0.6-0.6,0.6l0.5,1c0,0,0.7,0.6,0.5,0.8c-0.3,0.2-0.8,1-0.8,1s-0.1,0.8,0,1c0,0.1,0.8,1.5,0.8,1.5
		l0.9,1.2c0,0,1.1,0.1,1.3,0.2c0.1,0.1,1.7,0.9,1.8,1.1c0.2,0.2,1.1,0.7,1.2,1c0,0.3,0.1,1.3,0.1,1.3l0.9,1.3h0.5L184.3,363.1z"/>
</g>
</svg>
