<?xml version="1.0" encoding="utf-8"?>
<!-- Generator: Adobe Illustrator 25.0.0, SVG Export Plug-In . SVG Version: 6.00 Build 0)  -->
<svg version="1.1" id="Layer_1" xmlns="http://www.w3.org/2000/svg" xmlns:xlink="http://www.w3.org/1999/xlink" x="0px" y="0px"
	 viewBox="0 0 512 512" style="enable-background:new 0 0 512 512;" xml:space="preserve">
<style type="text/css">
	.st0{display:none;}
	.st1{fill:#FFFFFF;}
	.st2{fill-rule:evenodd;clip-rule:evenodd;fill:#FFFFFF;}
</style>
<g id="Layer_4" class="st0">
	
		<image style="display:inline;overflow:visible;enable-background:new    ;" width="914" height="764" xlink:href="39BBF3F4.jpg"  transform="matrix(0.5619 0 0 0.5619 -1.3284 41.3612)">
	</image>
</g>
<g id="Layer_5">
	<path class="st1" d="M307.1,77.4l0.4,0.2l0.1-0.2l0.7,0.4l0.1,0.1h0.4v-0.1l0,0l0.1,0.1h0.1V78c0,0.1,0.1,0.2,0.1,0.2l0.3,0.5
		l0.2-0.1l0.1,0.1h0.1l0.1-0.1l0.4-0.1l0,0h0.1l0.2,0.3l0.2-0.1l0.1-0.1l0.2-0.1v-0.2h0.1v-0.2H311v-0.2c0,0,0-0.1,0.1-0.1
		s0.1-0.1,0.1-0.1l-0.2-0.1h-0.2l-0.2-0.1l0.2-0.2l0.2-0.2h0.2l0.1,0.2l0.1,0.1l0.1,0.2l0.3-0.1l-0.1-0.4l-0.3,0.1l-0.1-0.3l0.1-0.2
		l-0.1-0.4v-0.1l0.2-0.1v0.1l-0.4,0.1l0.1,0.3l-0.4,0.1l-0.1-0.2h-0.3v-0.1h0.3l0,0h-0.2l-0.1-0.3h-0.1v-0.2v-0.1h0.5h0.2v-0.1
		l-0.1-0.2h0.1l0.1,0.4l0.1-0.1l-0.1-0.3H311l-0.1-0.3l-0.3,0.1h-0.2v-0.2l0.1-0.1l-0.1-0.1l-0.3,0.5v0.1l0.1,0.2h-0.1l-0.1-0.1
		h-0.2h-0.1c0,0,0,0,0,0.1s0,0.1,0,0.1h-0.1h-0.1v0.1h-0.2l0,0l0.2,0.4l-0.1,0.1l-0.1,0.1l-0.1,0.1l-0.2-0.3l0.1-0.1l-0.1-0.3h-0.1
		v-0.1h0.1l-0.1-0.3l0.3-0.2l-0.3-0.2h-0.1l-0.1,0.1l-0.1-0.1h-0.1l-0.1-0.3h0.2v-0.1l-0.3-0.1l0.3-0.1c0,0,0.1,0,0.1,0.1l0.2,0.3
		l0.2-0.1l-0.2-0.3h-0.2l-0.1-0.3l-0.3,0.3h-0.2l-0.2-0.2l-0.2,0.2v0.1h0.1l0.1,0.1l0.1-0.1l0.2,0.1v0.1h-0.1l0.1,0.3v0.1l0.1,0.2
		v0.1h-0.1l-0.2,0.2l-0.2,0.2l0.3,0.1v0.1l-0.1,0.1l0.1,0.1l0.1,0.1l-0.2,0.3l0.2,0.3v0.1l-0.1,0.1H308h-0.1v0.1l-0.1,0.1h-0.1
		l-0.1-0.1L307.1,77.4L307.1,77.4z"/>
	<path class="st1" d="M311.3,74.7l-0.1-0.3l0.1-0.1l0.1,0.1h0.1v-0.2l0.4-0.1v-0.3l0.3-0.1l0.1,0.1v0.1c0,0-0.3,0.1-0.3,0.2
		c0,0,0,0.1,0.1,0.1s0.3,0,0.3,0s0.1-0.1,0.2-0.1v-0.3v-0.1c0,0,0.5-0.1,0.5-0.2l0.2-0.1l-0.1-0.1v-0.1c0,0,0.1-0.1,0.2-0.1h0.1
		l-0.2-0.2v-0.3l-0.4,0.1L313,73h0.1v0.1v0.1l0,0H313l-0.2,0.1l-0.1,0.1l-0.1-0.1h-0.1l0,0l-0.5,0.1c0,0,0-0.1-0.1-0.1h-0.3
		c0,0,0.1,0.1,0,0.1s-0.5,0-0.5,0v0.1H311l0,0l-0.7,0.1l0.3,0.5h0.4l-0.1,0.1l0,0h0.1l0.4-0.1v0.1v0.1h0.1L311.3,74.7L311.3,74.7z"
		/>
	<path class="st1" d="M312.9,75.1l-0.1-0.3l0.1-0.1l-0.1-0.2h-0.3v0.1h-0.3v0.1v0.1v0.1V75l-0.3,0.1l0,0h0.3V75h0.1c0,0,0.1,0,0.2,0
		h0.1v0.1C312.6,75.1,312.9,75.1,312.9,75.1z"/>
	<path class="st1" d="M311.7,76.6c0,0-0.1,0.1-0.1,0l-0.1-0.4l0.2-0.1V76h0.2l-0.1,0.2v0.1L311.7,76.6L311.7,76.6z"/>
	<path class="st1" d="M310.3,74.1l-0.4,0.2l-0.1-0.1l0.1-0.1l-0.1-0.1l0,0l0.3-0.2L310.3,74.1z"/>
	<polygon class="st1" points="309.9,73.6 309.7,73.8 309.5,73.6 309.7,73.4 	"/>
	<path class="st1" d="M309.3,73.7l0.2,0.2l-0.1,0.1l-0.2-0.2L309.3,73.7L309.3,73.7z"/>
	<path class="st1" d="M312.1,72.7l-0.4,0.1v-0.1l0,0l0.3-0.1L312.1,72.7z"/>
	<polygon class="st1" points="312.8,72.5 312.8,72.3 312.9,72.3 312.9,72.1 312.7,72.2 312.7,72.5 	"/>
	<path class="st1" d="M311.6,72.1h-0.3V72C311.4,72,311.5,72,311.6,72.1C311.5,72,311.6,72.1,311.6,72.1z"/>
	<path class="st1" d="M311.2,75.2C311.2,75.2,311.2,75.1,311.2,75.2c0.1,0,0.2,0.1,0.2,0.1v0.1l0.1,0.3h-0.1L311.2,75.2L311.2,75.2z
		"/>
	<polygon class="st1" points="311.5,74.8 311.7,74.7 311.6,74.6 311.4,74.7 	"/>
</g>
<g id="svgg" transform="matrix(0.742866, 0, 0, 0.742866, 96.170769, 6.760427)">
	<path id="path0" class="st2" d="M143.4,37.2c-0.1,0.2-0.2,0.8-0.2,1.2c0,1.3-0.6,1.8-2.3,2c-2.5,0.3-3.1,1.5-2.3,5.2
		c0.5,2.4,0.4,7.3-0.1,10.3c-0.1,0.8-0.3,2.1-0.4,2.9c-0.1,0.8-0.3,2.1-0.4,2.9c-0.5,3.1-0.8,5-1,6.4c-0.1,0.8-0.3,1.9-0.4,2.4
		c-0.1,0.5-0.3,2.9-0.4,5.4c-0.1,4.5,0,5.8,1.1,10.5c0.2,0.9,0.5,2.3,0.7,2.9c0.3,1.4,0.9,3.8,1.4,5.7c0.4,1.3,1.2,5.2,1.7,7.7
		c0.1,0.7,0.2,3.8,0.1,7c-0.2,10-0.1,17,0.2,18.5c0.2,0.8,0.4,2,0.5,2.6c0.1,0.7,0.3,1.8,0.5,2.5c0.5,1.8,1,4.2,1.3,5.9
		c0.1,0.8,0.5,2.4,0.7,3.5c0.9,4,0.5,7.1-0.9,7c-0.2,0-1.9-0.6-2.8-1.1c-2.6-1.2-8.6-7-11.2-10.8c-2.1-3-3.1-3.4-4.6-1.5
		c-1.2,1.5-1.6,2.7-1.4,5.4c0.1,1.2,0.2,3.1,0.3,4.4c0.3,4.7,1,6.8,3,8.5c1.6,1.4,2.3,2.8,2.7,6c0.1,0.7,0.3,1.8,0.4,2.5
		c0.1,0.7,0.4,2.6,0.7,4.1c0.9,5.9,1.9,9.8,3.1,11.9c0.3,0.5,0.5,1,0.5,1.1c0,0,0.1,0.4,0.3,0.9c0.2,0.4,0.4,1.1,0.6,1.5
		c0.1,0.4,0.4,0.8,0.5,1.1c0.4,0.7,1.5,3.8,1.9,4.9c0.2,0.6,0.5,1.4,0.6,1.9c0.2,0.4,0.3,0.9,0.3,1.1c0.1,0.4,0.5,2.2,1,4.5
		c0.2,0.9,0.5,2,0.5,2.2c0.4,2.4,2.2,5.9,3.9,7.6c1.2,1.1,2.8,0.1,2.8-1.8v-0.7l0.7,0.7c0.8,0.8,1.4,2.5,2.5,6.8
		c1.9,7.5,3.2,9.5,6.9,10.4c3.5,0.8,5.3-0.7,4.8-4.4c-0.3-2.7-0.5-3.9-1.7-8.5c-0.9-3.7-1.2-3.6,4-1.2c0.8,0.4,1.5,0.7,1.6,0.6
		c0,0,0.5,0.2,0.9,0.5c0.5,0.3,0.9,0.5,0.9,0.4s0.2,0,0.5,0.2s0.6,0.5,0.9,0.6c2.4,1.1,5.9,4.1,6.5,5.6c0.8,1.9,0.8,1.9-4.8,7.5
		c-7.3,7.4-7.4,7.5-7.4,12.2c0,3.6,1.9,13.6,2.7,14.2c1.6,1.2,4.6-1.6,4.2-3.9c-0.2-1-0.1-1,2-0.1c1.9,0.8,2.4,1.2,3.3,3.1
		c0.7,1.5,2.1,2.8,3,2.8c0.3,0,0.9,0.3,1.3,0.6c2.5,2.1,9.2,5.7,10.5,5.7c1.4,0,3.5-1.7,4.6-3.8c2.2-4.1,2.8-5,4.3-6.5
		c1.3-1.2,2.1-1.9,2.4-1.9c0.1,0,0.3-0.1,0.3-0.2s0.4-0.4,0.8-0.7c0.4-0.2,1.2-0.6,1.6-0.8l0.8-0.4l4.4,2.9c2.4,1.6,4.5,2.9,4.6,2.9
		s0.3,0.1,0.3,0.2s0.3,0.4,0.7,0.6c2,1.2,7.4,6.3,13.2,12.5c1.4,1.5,4.5,5.6,4.7,6.3c0.1,0.3,0.3,0.6,0.4,0.7
		c0.1,0.1,0.4,0.9,0.8,1.8c1.8,5.2,4.2,7.2,6.3,5.2c1.3-1.2,0.6-7.3-1.1-9.7c-0.2-0.3-0.4-0.8-0.4-1s-0.1-0.5-0.2-0.5
		c-0.3-0.1-2.3-4.3-2.5-5.3c-0.2-0.6-1-2.1-1.5-2.5c-0.3-0.3-1-2.1-1.7-4.2c-1.5-5-2.4-7.5-2.7-8.2c-0.4-0.8-0.5-0.8,1.2-0.4
		c3.7,0.8,7.1,3.8,12.5,11.1c1.7,2.2,3.8,4.8,4.9,5.7c2,1.8,2,1.8,3.6,3c0.6,0.4,1.2,0.9,1.3,1c0.2,0.1,0.7,0.6,1.2,0.9
		c5.4,4,7.3,7.8,7.2,14.3c0,0.2,0.2,0.6,0.5,0.9s0.5,0.4,0.5,0.3s0.3,0,0.7,0.3c0.4,0.3,1.5,0.9,2.4,1.3c0.9,0.5,2.5,1.4,3.6,2
		c1,0.6,2.5,1.5,3.2,2c0.7,0.4,1.5,1,1.7,1.2s0.5,0.4,0.7,0.4s0.4,0.2,0.5,0.4c0.1,0.2,0.5,0.6,1,0.9s0.9,0.6,0.9,0.7
		c0,0.4,1.8,0.8,2.4,0.5c0.7-0.3,4.7-2.9,5-3.2c0.1-0.1,0.6-0.4,1.3-0.6l1.1-0.4l-0.4,0.7c-0.2,0.4-1.2,1.8-2.2,3
		c-2.5,3.1-2.8,5.3-1.1,8c0.4,0.7,0.8,1.3,0.8,1.5c0,0.1,0.1,0.3,0.3,0.3c0.1,0,0.3,0.2,0.3,0.4c0,0.2,0.1,0.4,0.2,0.4
		s0.7,0.6,1.3,1.4c2.5,3.2,4.9,3.8,5.9,1.6c1.5-3.2,1.5-12.1,0-17.3c-0.2-0.8-0.4-1.6-0.5-1.7c-0.1-0.3-0.6-1.6-1-2.5
		c-2.2-4.9-5.9-6.7-9.8-4.7c-0.8,0.4-1.5,0.7-1.5,0.6c-0.6-9.6-2.3-12.8-10.4-19.5c-1.1-0.9-0.5-3.2,0.8-3.2c0.2,0,0.4-0.1,0.4-0.2
		c0-0.3,3.1-1.4,5.8-2c1.4-0.4,2.5-0.4,4.1-0.3c2.3,0.2,3.1-0.1,3.1-0.9c0-0.7-1.8-3.2-3-4.1c-1-0.8-3.9-2.3-3.9-2.1
		c0,0.1-0.4,0-0.9-0.2s-1.8-0.6-2.8-0.8c-4.8-1.1-6.9-2-8.5-3.6c-0.1-0.1-0.8-0.7-1.7-1.5s-1.9-1.6-2.2-1.9c-4-3.6-5.6-0.4-2.9,5.9
		c0.3,0.6,0.5,1.5,0.6,1.9s0.3,1.2,0.4,1.8c1.1,3.3-2.6,5.5-4.7,2.8c-0.9-1.1-2.4-4.6-3.2-7.5c-0.8-2.7-1.6-5-1.8-5.5
		c-0.1-0.2-0.4-0.9-0.7-1.6c-0.3-0.6-0.6-1.1-0.7-1.1s-0.2-0.2-0.2-0.4c0-0.4-3.2-3.7-4.3-4.3c-0.4-0.2-0.7-0.5-0.7-0.6
		s-0.1-0.2-0.2-0.2c-0.1,0-1-0.5-2-1c-8.3-4.8-16.9-2.3-17,4.9c0,0.3-0.2,0.2-0.8-0.5c-1.4-1.8-3.1-1.1-3.1,1.2c0,1.3,0.4,2.2,2.3,5
		c1.3,2,1.4,2.3,0.3,3.4c-1.1,1.1-4.8,1.5-5.4,0.5c-0.1-0.1-0.3-0.2-0.6-0.2c-0.9,0-5.4-3.3-7.6-5.5c-3.2-3.2-7.6-12.4-9.6-19.7
		c-0.7-2.8-0.3-5.6,0.9-6.2c0.3-0.2,0.6-0.4,0.6-0.6c0-0.2,0.1-0.6,0.2-0.9c0.1-0.4-0.1-0.8-0.5-1.2c-1.5-1.6-2.3-2.6-3.6-4.2
		c-0.8-1-1.4-1.8-1.4-1.9c0-0.1-0.4-0.8-0.9-1.5c-4.8-7.8-7.3-18.6-5.6-24.6c0.6-2.1,0.9-6,1-10.5c0-5.1,0.5-10.3,1-10.6
		c0.1-0.1,0.4-0.5,0.6-1c0.4-0.8,1.2-1.7,3.3-3.6c0.4-0.4,0.8-0.7,0.9-0.7c0.1,0,1.4-0.8,2.9-1.7s2.9-1.7,2.9-1.7
		c0.3,0,4.2-2.9,5.7-4.3l1.6-1.4l0.3-2.1c0.4-2.5,1-5.7,1.4-6.9c0.1-0.5,0.3-1.1,0.3-1.3c0.1-0.3,0.8-2.7,1.6-5.5s1.6-5.4,1.8-5.9
		c0.8-2.6,1.5-9.5,1.6-13.9c0-2.5-0.3-2.9-2-3.1c-1.2-0.1-1.2-0.1-1.7-3.5c-0.2-1-0.3-2.1-0.4-2.5c-0.2-0.9-1.6-2.7-4.3-5.5
		c-0.5-0.5-0.9-0.9-0.9-1s-0.5-0.6-1-1.1c-1.8-1.8-3.4-3.9-4-5.2c-0.3-0.7-0.7-1.6-0.8-1.8c-2.8-6.2-2.9-16.4-0.1-24.2
		c1.2-3.5,1-6.8-0.7-10.4c-2.8-5.9-5-5.7-8.2,0.9c-1.8,3.8-2.6,4.6-3.6,4.2c-0.4-0.1-1.3-0.4-2.1-0.6s-2-0.6-2.9-0.8
		c-2.1-0.6-4.6-0.3-4.6,0.5c0,0.2-0.4-0.3-0.9-1c-0.9-1.3-3.7-4-5.2-5c-0.4-0.3-0.8-0.6-0.8-0.7s-0.1-0.2-0.3-0.2s-0.7-0.3-1.3-0.8
		c-0.5-0.4-1.3-1-1.8-1.2c-0.4-0.2-1.1-0.7-1.6-0.9c-2.4-1.5-3.6-2.1-3.6-2s-0.3,0-0.6-0.3c-1-0.7-3.6-1-8.7-1.1
		c-2.6-0.1-5.7-0.2-6.9-0.3C143.8,36.8,143.6,36.8,143.4,37.2 M203.9,193.7c-3.7,1.4-3.7,3.3-0.2,11.7c3.7,8.8,8.3,6.1,6.4-3.8
		c-0.2-1.2-0.5-2.5-0.5-2.9C209,194.9,206.5,192.8,203.9,193.7 M215.6,204.3c-1.7,0.7-1.3,3.2,0.6,3.9c1.6,0.5,3-1.8,1.8-3.2
		C217.5,204.3,216.3,204,215.6,204.3 M209.9,232c-1.1,0.8,1,3.9,3.6,5.2c0.4,0.2,0.8,0.4,0.8,0.5c1,1.1,3,1.6,3.4,0.8
		C218.9,236.3,211.9,230.6,209.9,232 M286.8,238.5c-1.1,2.3-1.3,10.9-0.3,14c0.9,3.1,3.7,8.5,4.5,8.9c0.1,0,0.2,0.3,0.2,0.5
		s0.2,0.4,0.4,0.4c0.5,0,0.7-0.2,3.1-3.3c1-1.2,2.9-5.4,2.8-6.1c0-0.2,0-1,0.1-1.8c0.7-5.3-2.2-10.6-7.3-13.1
		C287.6,236.6,287.7,236.6,286.8,238.5 M147,246.6c-1.9,1.2,4.9,8.7,7,7.7c1.1-0.5,0.8-2.6-0.7-4.6
		C151.5,247.4,148.3,245.8,147,246.6 M160.7,260.6c-3.3,0.9-5.1,2.5-4.5,4c0.1,0.3,2.8,3.2,6,6.4c3.2,3.2,6.1,6.3,6.5,6.8
		c1.1,1.5,2.2,4.1,3.6,8.5c0.9,2.9,2,5.6,2.3,6c0.1,0.2,0.2,0.3,0.1,0.3c-0.1,0,1.3,2.4,2.8,4.7c0.2,0.4,0.7,1.1,1,1.6
		c0.7,1.2,4.2,6.8,5.8,9.1c1,1.5,2.2,3.1,3.8,5.1c0.1,0.2,0.3,0.4,0.3,0.4c0,0.3,2.1,2.4,3.4,3.3c4.2,3.1,6.5,1.8,8.3-4.9
		c0.4-1.3,1.1-3.6,1.6-5c1.6-4.5,1.8-5.2,1.8-7.5c0-1.9-0.1-2.6-0.8-4.2c-0.4-1.1-0.8-2-0.8-2.1s-0.2-0.5-0.3-1.1
		c-0.2-0.5-0.5-2.5-0.7-4.5c-0.7-5.4-2.5-11.1-4.2-13c-0.2-0.2-0.4-0.5-0.4-0.6c0-0.5-3.6-4.8-5.7-6.9c-1.1-1.1-3.8-2.7-6.1-3.6
		c-1.6-0.6-5.5-1.8-6-1.8c-0.3,0-1.2-0.2-2-0.4C171.6,260.1,163.6,259.8,160.7,260.6 M211.9,260.4c-3.6,1.2-4.9,5.7-2.3,8.6
		c0.4,0.5,0.8,1.2,0.8,1.5c0,0.6,1.7,2.6,2.3,2.6c0.1,0,0.4,0.1,0.6,0.3c1.4,1.4,4.5,1.1,6.3-0.7c1.1-1.1,1.9-5.1,1.4-7.2
		C220.1,262.4,214.9,259.4,211.9,260.4 M283.6,271.7c-2.2,0.6-2.2,0.6-0.3,1.7c2.8,1.7,4.2,1.5,4.2-0.4
		C287.5,271.4,286.3,271,283.6,271.7 M250.5,278.6c-0.7,1-0.3,4.5,0.5,4.5c0.1,0,0.3,0.3,0.5,0.8c0.4,1,4.8,5.5,6.9,7.3
		c0.9,0.7,2.1,1.7,2.6,2.2c2.1,1.9,4.3,0.4,2.7-1.8c-0.3-0.4-0.5-0.8-0.5-0.9c0-0.6-5-7.4-6.7-9.2
		C253,277.9,251.5,277.2,250.5,278.6 M221.1,299.1c-1.9,1-2.8,2.7-2.4,4.9c0.3,1.8,0.3,3.8-0.1,7.5c-0.6,5.6-0.5,6.8,0.8,9.8
		c0.7,1.7,0.9,1.9,1.5,1.9c1.3,0,1.5-0.4,1.7-3.2c0.1-0.9,0.3-3.1,0.5-4.8c0.8-6.7,1.2-9.8,1.6-12
		C225.3,299.2,223.9,297.6,221.1,299.1 M275.6,299.5c-1.4,0.5-0.2,5.3,1.9,7.8c3.6,4.2,5.6,4,4.4-0.4
		C280.7,302.1,277.7,298.7,275.6,299.5 M262,302.2c-0.6,0.6-0.6,0.6-0.4,2.4c0.1,1,0.3,3.7,0.4,5.9c0.2,4.1,0.5,5.7,1.5,7.8
		c0.5,1.1,0.7,4.1,0.3,4.1c-0.8,0-2.4,6.9-1.9,8.3s2.2,0.7,3.4-1.4c0.5-0.9,1.9-3,2.1-3.2s0.8-1.1,1-1.6c0.5-1.2,3.6-4.2,4.3-4.2
		c1.1,0,2.6,1.3,5,4.5c0.6,0.8,1.3,1.7,1.5,1.9c0.2,0.2,0.7,0.9,1.2,1.6s1.1,1.3,1.3,1.5c0.2,0.2,0.3,0.5,0.3,0.6
		c0,0.5,2.9,3,4.7,4.1c1.1,0.7,3,1.9,4.1,2.7c3.2,2.2,4,1.7,4.2-2.3c0.2-2.8-0.8-6.4-2.1-7.8c-0.1-0.2-0.6-0.7-1.1-1.3
		c-1.5-1.9-18-18.3-19.5-19.4c-2.2-1.6-7.7-4.4-9.3-4.7C262.9,301.7,262.4,301.9,262,302.2 M318.7,303.5c-0.7,0.1-1.8,0.4-2.6,0.7
		c-1.8,0.6-4.8,0.5-7.9,0c-5.1-1-8.7-0.3-9.2,1.8c-0.2,0.8,0.3,3.3,0.7,3.5c0.1,0.1,0.2,0.4,0.2,0.6s0.3,1.1,0.6,1.8
		c0.3,0.7,0.9,1.9,1.3,2.5c0.3,0.7,0.8,1.6,1,2c0.5,0.9,2.2,3.8,2.4,4c0.1,0.1,0.5,0.7,1,1.4c1.8,2.5,4.6,5.2,8,7.5
		c0.9,0.6,1.3,1.1,1.4,1.7c0.2,0.8,1.2,1.8,5,5.1c1.2,1,3.7,2.5,5.1,2.9l1.3,0.4l-0.3,1.2c-0.9,3.3-2.4,6.4-3.1,6.4
		c-1.4,0-1.5,1.6-0.2,2.9c0.6,0.6,1.3,1.5,1.6,1.9l0.5,0.7h-0.6c-0.9,0-1.5,0.4-3.7,2.4c-2.9,2.6-3,2.7-4.3,2.7
		c-0.7,0-1.3-0.1-1.4-0.3c-0.1-0.1-0.3-0.3-0.5-0.3c-1.1,0-5.4-3.9-7.3-6.7c-3.4-4.9-4.7,2.6-2,12.4c0.3,1.2,0.6,2.2,0.6,2.4
		c0.3,1.4,3,8.1,3.4,8.3c0.1,0,0.2,0.2,0.2,0.4c0,0.4,2.1,3.5,2.6,3.8c0.9,0.5,1.5,0.1,1.9-1.4c0.6-1.9,1.2-1.8,3.6,0.7
		c3.9,4.2,4.7,6.4,4.9,14.1c0.1,3.2,0.2,6,0.3,6.2c0.1,0.2,0.2,1.2,0.3,2.1c0.3,3.2,0.7,4.5,2,7.6c0.4,0.9,2.3,3.4,3.2,4.2
		c1.5,1.3,3.1,2.5,3.3,2.5c0.2,0,0.3,0.1,0.3,0.3c0,0.4,1.7,0.3,2.1-0.1s0.4-1.7-0.1-3.5c-1.3-4.7-1.4-5.8-0.6-5.6
		c5.2,1.6,9.2-1.2,8.1-5.5c-0.4-1.6-2.1-6.1-3.2-8.3c-1.3-2.8-2.2-4.6-2.3-4.8c-0.1-0.1-0.4-0.7-0.8-1.4c-0.3-0.7-1.1-2.1-1.6-3
		c-1.3-2.1-1.5-3.5-1.8-10.7c-0.3-5.3-0.6-8-1.3-9.2c-0.8-1.5,1.9,0.3,5.3,3.6c2.1,1.9,2.9,2.4,3.4,2c0.2-0.2,1-0.5,1.8-0.7
		c1.4-0.4,1.7-0.3,5.2,0.2c0.7,0.1,2.5,0.7,3.1,1c0.3,0.1,0.6,0.2,0.7,0.2s1.1,0.4,2.2,0.9c2.7,1.3,3.6,1.1,3.6-0.5
		c0-0.4-1.2-2.4-1.6-2.8c-0.1-0.1-0.5-0.6-0.9-1.2c-1.2-1.6-2-2.5-3.1-3.2c-1-0.6-1-0.7-0.6-1.4c1-1.9,0.7-4-1-8.5
		c-0.8-2.1-2.3-5.1-2.8-5.7c-0.1-0.1-0.7-1.6-1.4-3.2l-1.1-2.9l-0.2-6.9c-0.2-6.1-0.2-7.1-0.8-8.7c-0.6-2-0.7-2,1-3.6l0.9-0.9
		l-1-0.9c-1.3-1.2-2.7-1.9-5.2-3c-2.6-1.1-2.6-1-2.9-4.1c-0.5-4.7-1.9-6-8.3-7.6C323.6,303.2,321,303,318.7,303.5 M235.8,306.5
		c-2.7,2-2.7,2,1.3,5.5c1.6,1.4,3.2,2.9,3.6,3.3c3.4,3.6,5.7-3.5,2.4-7.7C241.1,305.1,238.3,304.7,235.8,306.5 M145.9,314.9
		c-1.5,4.1-0.5,8,2.8,10.1c3.7,2.4,14.2,4.5,15.2,3c0.6-0.9-0.3-4.4-1.5-5.7c-0.4-0.4-0.7-0.8-0.7-0.9s-0.4-0.4-0.9-0.6
		s-1-0.5-1.3-0.7c-0.2-0.1-1.3-0.6-2.4-0.9c-1.1-0.4-2.4-0.9-2.8-1.1c-0.5-0.2-1-0.4-1.1-0.4c-0.2,0-0.3-0.1-0.3-0.2
		s-0.2-0.3-0.5-0.4s-1.4-1-2.4-2C147.4,312.6,146.7,312.5,145.9,314.9 M219.5,331.1c-1.4,1.4-3.2,6.3-2.7,7.2
		c0.1,0.2,0.9,0.6,1.6,0.9c5.5,1.9,6.7,4.7,6.3,14.6c-0.2,4.7-0.3,9-0.1,12.9c0.1,2.7-0.1,5.4-0.5,7.5c-0.8,4-0.9,8.1-0.4,11.5
		c0.1,0.4,0.2,3.1,0.2,5.8c0.1,5.4,0.2,5.9,1.4,5.9c1.8,0,3.9-1.4,7.8-5.1c2.9-2.8,4.8-4.4,5.3-4.4c0.2,0,0.3-0.1,0.3-0.2
		s1.1-0.4,2.4-0.7c3.6-0.7,7.5-3.1,9.3-5.6c0.3-0.4,0.7-1,1-1.2c0.3-0.3,0.5-0.6,0.5-0.8c0-0.2,0.2-0.5,0.4-0.7c0.5-0.6,1-2.4,1-3.8
		c0-2.2,0.1-2.2,4.4-4.6c5.5-3,7.1-5,6.4-8c-0.2-1-0.5-3.1-0.6-4.8c-0.4-8.8-1.6-10.4-5.7-7.8l-1.5,0.9l-0.3-1
		c-1.4-4.1-6.6-6.2-8.8-3.5c-0.3,0.3-3.1,1.8-3.5,1.8c-0.5,0-1.8-1.4-4.5-4.6c-2.6-3.2-4.8-5.2-6.4-6c-3.2-1.5-4.9-2.3-5.7-2.4
		c-0.5-0.1-0.9-0.3-1-0.4s-0.6-0.5-1.1-0.9c-0.5-0.3-1.5-1.2-2.2-1.8C221.1,330.3,220.4,330.2,219.5,331.1 M148.6,331.1
		c-2.3,0.9-2.1,2.2,1,5.8c1,1.2,2,2.5,2.3,3c1,2,2.6,1.4,2.7-0.9c0.1-1.7-0.1-2.4-1.4-6l-0.8-2.3h-1.3
		C150.3,330.7,149.2,330.9,148.6,331.1 M306.1,340.8c-1,0.3-1.5,1.1-1.3,2.2c0.1,0.5,0.2,0.9,0.2,1.1c0,0.1,0.1,0.4,0.2,0.5
		s0.5,0.9,0.8,1.7c2.6,6.7,7.8,8.3,7.8,2.5C313.7,343.3,310.1,339.6,306.1,340.8 M146.2,351.2c-2.3,0.7-2.1,2.8,0.4,3.8
		c1.7,0.7,2.9-0.6,2.4-2.6C148.7,351.2,147.7,350.8,146.2,351.2 M135.2,355.5c-0.7,1.3-1.2,4.5-1.2,7.9c-0.1,4.3-0.2,4.8-0.9,4.8
		c-1.5,0-1.6,1.1-0.2,4.1c0.2,0.4,0.7,1.7,1.2,2.9c0.5,1.2,0.9,2.4,1,2.6c1.1,2.5,1,3.3-0.1,2.4c-0.5-0.4-1-0.7-1.1-0.7
		s-1-0.8-2-1.8c-1.9-2-2.2-2.1-3.1-1.4c-0.8,0.5-0.7,0.9,1.2,6.6c1.8,5.4,1.8,7.6,0,11.8c-0.2,0.5-0.4,1.1-0.4,1.1
		c-0.1,0.9-1.5,1.4-1.7,0.6c-0.4-1.5-1.9-1.4-2.9,0.2c-0.3,0.4-1.1,1.1-1.7,1.4c-2.4,1.2-2.4,1.4-2.9,6.3l-0.2,2.1l-1.8,0.1
		c-2.6,0.2-2.9,0.6-2.8,2.9c0.1,1.1,0,1.8-0.1,1.7c-0.8-0.5-1.8,0.5-3.3,3.7c-0.9,1.8-2.1,4.3-2.8,5.7c-1.6,3.2-3,5.7-4,7.1
		c-2,2.8-3.3,4.7-4.2,6.3c-0.5,0.9-1.2,2-1.4,2.4c-0.2,0.4-0.9,1.5-1.5,2.6c-1.2,2.1-3.3,5.1-4.5,6.5c-0.5,0.5-0.9,1-1,1.2
		c-0.2,0.3-2.4,1.1-3.7,1.3c-1.4,0.3-3.7,1.9-3.7,2.7c0,0.1-0.1,0.3-0.2,0.3c-0.3,0.1-1.9,2.8-1.9,3.1c0,0.1-1.3,1.4-2.9,2.8
		c-5,4.4-7.5,7.6-10.3,13.1c-0.6,1.1-1.1,2-1.2,2.1c-0.1,0-0.2,0.3-0.2,0.5s-0.1,0.6-0.2,0.7c-0.2,0.2-1.4,3.2-2.1,5.4
		c-1.4,4-1.7,9.7-0.6,10.1c0.6,0.2,0.9-0.1,3.8-3c1.8-1.8,4-3.9,4.9-4.7c0.9-0.8,2-1.7,2.3-2s0.8-0.7,1.1-0.9
		c0.3-0.2,1.1-0.8,1.7-1.4c0.6-0.5,2-1.7,3.1-2.6c2.9-2.4,6.7-6,8.4-8.1c1.1-1.3,3.8-5,4.2-5.8c0.6-1.1,1.2-1.8,7.1-7.9
		c2.9-3,5.9-6,6.6-6.7c2.7-2.9,6.5-8.2,6.9-9.7c0.1-0.4,0.3-0.8,0.4-0.9s0.3-0.7,0.4-1.4c0.1-0.7,0.2-1.5,0.3-1.9
		c0.1-0.7-0.4-2.9-0.7-3.4c-0.2-0.2-0.1-0.3,0.3-0.3c1.2,0,1.8-1.8,1.1-3.6c-0.2-0.4-0.3-1.5-0.3-2.5c-0.1-3.4,1.6-4.5,8.6-5.7
		c4.1-0.7,5.6-2.2,6.9-6.5c0.2-0.8,0.4-1.7,0.4-1.9c0-2.3,1.7-4,5.2-5.4c3.3-1.3,6.6-3.8,7.4-5.6c1.4-3.2,1.2-5.1-1-9.3
		c-0.6-1.2-1.2-2.3-1.3-2.4c-2.5-3.2-3.9-8.3-3.6-12.6c0.4-5.9,0.5-11.2,0.2-12.5c-0.2-0.7-0.4-1.5-0.4-1.8
		c-0.1-0.3-0.2-0.6-0.4-0.8c-0.1-0.1-0.3-0.4-0.3-0.6C138.7,355.1,136,354,135.2,355.5 M294.1,362.2c-1.9,2-4.3,10-5.2,18.2
		c-0.1,0.6-0.2,1.3-0.2,1.4c-0.1,0.1-0.2,0.6-0.3,1.2c-0.1,0.6-0.3,1.5-0.4,2.1c-0.2,0.6-0.3,1.2-0.4,1.5c-0.2,0.9-1.9,5.8-2.8,7.8
		c-0.5,1.3-1.7,4.2-1.8,4.4c0,0.1-0.2,0.5-0.3,0.9c-0.7,1.8-1.2,2.9-1.4,3.6c-0.2,0.4-0.3,0.8-0.4,0.9c0,0.1-0.5,1.5-1,2.9
		c-2,5.6-2.4,7.5-2.6,12.7c-0.1,3.4-0.4,5.3-1.1,10.2c-1.3,8.5-1.3,8.5-0.5,9.3c1.8,2,7.2-2.1,7.2-5.5c0-0.2,0.1-0.7,0.3-0.9
		c0.3-0.5,1-4.3,1.6-7.7c1.6-10.5,2.7-13.6,5.3-15.9c2-1.8,6-8.5,7.5-12.8l0.8-2.4v-6.4c0-3.9-0.2-7.9-0.4-10.3
		c-1-9.5-1.2-11.7-1.2-13.3C296.8,361.3,295.7,360.6,294.1,362.2 M283.4,362c-2.7,0.7-4.6,7.9-2.2,8.7c0.6,0.2,2.3-0.3,2.3-0.7
		c0-0.1,0.1-0.2,0.2-0.1c0.6,0.4,3.3-2.4,3.9-3.9C288.7,363.2,286.6,361.3,283.4,362 M264.1,372.7c-0.6,0.3-1.1,0.7-1.1,0.8
		c0,0.1-0.2,0.2-0.3,0.2c-1.3,0-3.2,3.6-3.6,6.5c-0.3,2.7-0.3,3-0.5,4.9c-0.1,0.9-0.3,2.1-0.5,2.6c-0.3,0.9-0.4,1.1-1.8,3.6
		c-0.6,1.1-1.1,2.4-1.1,3.4c0,0.6,0.6,3.9,1.3,6.3c2.3,8.4,0.5,12.3-6.2,14c-6.7,1.7-7.8,2.7-7.8,7c0,3.8,2.8,11.5,5,14
		c0.2,0.2,0.4,0.5,0.4,0.6s0.3,0.6,0.7,1.1c0.4,0.5,0.7,0.9,0.7,1c0,1.4,2.9,3.6,7.4,5.4c2,0.8,3.2,1.6,4.1,2.7
		c0.8,0.9,1,1.5,1.8,4.7c1,3.8,1.2,4.4,2.2,5.4c5,5.4,14.5-3.5,12.1-11.3c-0.4-1.2-1.3-3.2-3.4-7.1c-1.8-3.4-2.6-7.5-2.6-12.6
		c0.1-4.6,1.2-12.7,2.4-17.4c0.1-0.5,0.5-2,0.8-3.3c1-4.6,2.8-10.1,4.5-13.7c2.2-5,2.6-11.7,0.9-13.9c-1.8-2.3-4.9-4.7-6-4.7
		c-0.2,0-0.5-0.1-0.7-0.3C272.1,372,265.4,372.1,264.1,372.7 M248,384.3c-3.7,2.3-4.8,14.3-1.3,14.3c1.7,0,6.4-7.1,6.6-10
		C253.5,385.5,250.3,382.8,248,384.3 M306.9,386.4c-0.3,0.9,0.1,3.3,0.7,3.8c1.3,1.2,4-1.4,3.2-3
		C310.1,385.9,307.3,385.3,306.9,386.4 M153.3,388.7c-1.9,0.8-4.4,4-4.7,6c-0.3,2.1,2.2,2.5,4.3,0.7c0.7-0.6,1.2-1.1,1.1-1.1
		c-0.4,0,1.1-1.3,1.8-1.6c1.3-0.5,1.8-1,1.7-1.9C157.5,388.8,155.4,387.8,153.3,388.7 M353,397.2c-1.7,1.8-1.8,2.3-2.1,6.9
		c-0.2,2.9-0.4,4.5-0.7,5.1c-0.5,1.1-0.4,1.7,0.6,2.1c1.6,0.7,2.2,1.6,2.4,3.5c0.2,1.6,0.5,2.2,1.3,3.1c0.1,0.1,0.3,0.6,0.5,1.1
		c0.4,1,0.3,1.5-0.4,3.2c-0.8,1.9,0.7,2.9,2.5,1.8c0.3-0.2,0.6-0.5,0.6-0.7s0.1-0.3,0.2-0.3c0.9,0,1.3-5.6,0.7-8.3
		c-0.2-0.9-0.4-1.6-0.3-1.6c0,0-0.9-2.9-1.1-3.4c-1.3-3.2-1.7-5.9-1.2-9C356.7,396.2,355.3,394.7,353,397.2 M296.9,401.3
		c-2,1.1-1.2,4.5,0.8,3.4c1.4-0.7,1.8-3.2,0.6-3.6C297.5,400.9,297.5,400.9,296.9,401.3 M307.1,408.5c-1.6,0.4-3.4,1.2-4.6,2.3
		c-1.5,1.2-5.4,5.2-5.4,5.5c0,0.2-0.1,0.3-0.2,0.3s-0.5,0.4-0.9,1c-0.4,0.5-0.7,1-0.8,1.1c-0.4,0.3-1.8,3.1-2.2,4.4
		c-0.6,1.8-0.4,3.9,0.4,5.1c0.4,0.5,0.7,1.4,0.8,2.3l0.2,1.4h-0.8c-2.1,0-3.4,4.1-1.5,4.7c1,0.3,2.8-0.3,3.7-1.4
		c0.7-0.8,0.7-0.9,1.6-0.5c1.6,0.7,4.7,0.4,8.2-0.8c2.4-0.8,8.3-3.3,8.8-3.6c0.2-0.2,0.3-0.2,0.3-0.1s0.7-0.2,1.5-0.5
		c0.8-0.4,2.1-0.8,2.8-1.1c1.5-0.5,1.8-1,1.5-2.9c-0.8-4-1.1-5.7-1.5-6.8c-0.2-0.7-0.4-1.4-0.4-1.5c-0.1-2.4-3.1-7.1-5.2-8.2
		C311.2,408.2,309.3,408,307.1,408.5 M337.6,411.2c-0.8,0.9,0.2,2.8,3.3,5.9c3.9,4,5.2-0.6,1.3-4.8C341,411,338.4,410.4,337.6,411.2
		 M369.3,416.1c-1,1.6-1.6,8.1-0.9,9.8c1,2.3,3.9,2.9,5.7,1.3c0.4-0.4,0.8-0.7,0.9-0.7s0.3-0.6,0.5-1.4
		C376.6,420.7,371.3,413,369.3,416.1 M348.8,424.3c-0.9,1.1-1,4.9-0.5,9.5c0.2,1.7,2.1,8.3,3.2,11c0.2,0.5,0.7,2.1,1.2,3.6
		s0.9,2.9,1.1,3.2c0.6,1.7,1.4,5.6,1.2,6.4c-0.3,1.4-1.7,2.1-4.2,1.8c-2.9-0.3-3.4-0.5-5.4-2.3c-1.7-1.5-2.4-1.3-3.1,1
		c-0.5,1.7-1.2,4.6-1.2,5.4c0,0.5-5.7-3.2-6.1-4c0-0.1-0.2-0.2-0.4-0.2c-0.2,0-0.5-0.2-0.7-0.4c-1-1.2-3.3-0.2-3.9,1.8
		c-0.3,1-0.4,1.5-0.7,7.1c-0.1,1.5-0.2,3.3-0.3,3.8c-0.1,0.6-0.2,2.1-0.3,3.3c-0.3,4.7-2.5,6.2-5.7,3.9c-3.8-2.7-4.5-2.9-6.2-2.2
		c-1.8,0.7-2.9,2.1-3.4,4.2c-0.1,0.4-0.2,0.9-0.3,1.1c-0.1,0.5-0.8,4.9-1,6.6c-0.5,5-1.7,6.4-5.7,7.1c-2.8,0.5-5,1.3-6.1,2.3
		c-0.4,0.3-1.3,1.1-2,1.7s-1.4,1.2-1.6,1.4c-0.4,0.4-3.2,2.5-3.4,2.5c-0.2,0,1.1-1.3,3.5-3.4c3.3-3,3.7-5.7,2.1-12.1
		c-0.3-1-0.8-2.7-1.1-3.3c-0.2-0.5-0.4-0.9-0.4-1.1c0-0.6-1.8-4.5-2.8-5.7c-1.9-2.6-3.6-3.1-5.6-1.6c-0.8,0.6-0.9,0.6-1,0.2
		c-1.4-4.8-6.4-7.3-6.5-3.2c0,3.2-1.6,4.7-5.9,6c-1.3,0.4-2.5,0.8-3.8,1.5c-1.1,0.5-2.6,2.3-3,3.4c-0.2,0.6-0.5,1.4-0.6,1.8
		c-0.3,0.7-0.9,3.4-1.2,4.9c-0.5,2.8-1.8,5.2-3.5,6.1c-1.1,0.6-4,1.6-4.7,1.6c-0.3,0-1.2,0.2-2.2,0.4c-0.9,0.2-2.5,0.5-3.6,0.7
		c-2.5,0.4-5.2,1-5.9,1.4c-0.4,0.2-1.1,0.6-1.7,0.8c-4.6,2.2-6.6,7.1-6.8,16.3c0,3-0.1,4.3-0.7,8.4c-0.1,0.5-0.3,1.5-0.5,2.1
		s-0.4,1.1-0.4,1.2c0,0.1-0.2,0.7-1,2.8c-0.2,0.5-0.7,1.8-1,2.8c-0.4,1-0.8,2-0.9,2.3c-4.3,7.7,2.9,17.3,9.4,12.5
		c1.7-1.2,2.4-3.5,3.4-10.1c0.7-4.8,0.9-6.1,1.3-7.4c0.2-0.7,0.4-1.4,0.4-1.7s0.1-0.7,0.2-0.9c0.1-0.3,0.5-1,0.8-1.7s1-1.7,1.4-2.1
		c1.1-1.1,1.8-2.4,2.7-5.1c3.6-10.8,6.8-10.5,9.4,0.9c0.3,1.4,0.6,2.8,0.7,3.2c0.6,2.5,2.7,3.1,3.1,0.9c0.2-1.3,0.6-1.4,1.5-0.4
		c0.4,0.5,0.7,0.8,0.6,0.8s0,0.2,0.4,0.4c1.5,1,2.2,0.1,2.7-3.2c0.3-2.2,1-4.5,1.4-5.1c1-1.2,1.3-1.4,1.7-0.9
		c0.5,0.7,0.4,3.7-0.1,4.4c-1.1,1.7-0.8,3.3,0.5,3.3c0.3,0,1.2,0.4,1.9,0.9c8.1,5.7,10.7,5.9,8,0.3c-1.2-2.5-1.4-5.1-0.3-5.5
		c0.4-0.2,0.8-0.4,0.9-0.5s0.4-0.3,0.8-0.6c1-0.6,1.2-3,0.4-5c-0.6-1.5,3.6-3.7,4.6-2.5c0.2,0.2,0.4,0.4,0.6,0.4s0.7,0.4,1.2,0.9
		c1,0.9,4.1,3.2,6,4.4c2,1.2,4.6,3,4.7,3.3c0,0.1,0.2,0.2,0.3,0.2c0.5,0,4.7,4,4.7,4.6c0,0.2,0.2,0.5,0.4,0.7c0.3,0.4,1.9,4.5,2,5.1
		c0,0.1,0.1,0.6,0.2,1.1c0.3,1.6-1.5,6.8-2.9,8.4c-0.2,0.2-0.4,0.6-0.4,0.9c0,0.2-0.1,0.4-0.3,0.4c-0.1,0-0.3,0.1-0.3,0.3
		c0,0.1-0.3,0.8-0.7,1.5c-1.9,3.4-2.3,8.1-1.1,13.6c0.2,0.7,0.3,1.4,0.4,1.7s0.3,1.3,0.5,2.2s0.6,2.6,0.8,3.7c0.2,1.1,0.5,2,0.5,2.1
		c0.1,0.1,0.2,0.5,0.2,0.8c0.2,0.9,0.7,3.2,0.9,3.7c0.1,0.2,0.2,0.5,0.2,0.7c0.3,1.2,1.1,3.1,1.7,4.2c0.4,0.7,0.8,1.3,0.8,1.4
		c0,0.7,5.3,6.4,6.7,7.2c0.4,0.2,0.7,0.5,0.7,0.6s0.6,0.5,1.3,0.9c0.7,0.4,1.3,0.8,1.3,0.9c0,0.1,0.2,0.2,0.4,0.2
		c0.2,0,0.4,0.1,0.4,0.2c0,0.1,0.2,0.3,0.5,0.4c0.3,0.1,0.8,0.4,1.3,0.7c0.4,0.3,1.1,0.7,1.4,0.8c0.3,0.2,0.6,0.4,0.6,0.5
		s0.1,0.2,0.3,0.2c0.1,0,1,0.5,1.9,1c8.8,5.5,13.6,7.1,16.3,5.4c1.3-0.8,1.5-1.1,2.4-3.7c1.7-5.1,3.8-7.2,3.9-3.8
		c0.4,16.2,2.6,23.1,6.8,21c1-0.5,3.8-3.2,3.8-3.6c0-0.1,0.3-0.6,0.6-1c0.7-0.9,3.6-6.7,3.7-7.4c0-0.2,0.2-0.7,0.3-1.1
		c0.3-0.9,1-3.1,1.5-5.3c0.6-2.5,0.5-9.9-0.1-11.8c-1.2-3.3-2.7-6.1-5.4-9.8c-0.8-1.1-1.4-2-1.4-2c0-0.1-0.6-1-1.4-2.2
		c-2.6-3.8-2.9-6.2-1.5-11.3c0.3-1.2,0.7-2.5,0.8-2.9c0.1-0.4,0.5-1.5,0.8-2.4s0.6-1.7,0.6-1.8s0.2-0.6,0.4-1.1
		c0.2-0.4,0.6-1.3,0.8-1.9c1.5-3.5,2.5-5.6,2.8-6c0.2-0.2,0.3-0.5,0.3-0.6c0-0.2,1.7-2.7,1.9-2.8c0.1,0,0.2-0.2,0.2-0.4
		c0-0.5,1-1.3,1.5-1.2s3,3.4,3.1,4.2c0,0.1,0.1,0.3,0.3,0.5c0.4,0.6,4.1,8.1,4.1,8.3c0,0.1,0.3,0.8,0.7,1.7c2,4.3,2.7,7.8,2.8,14.1
		c0.1,3.3,1.3,7.1,4.2,12.6c1.1,2.2,2.3,1.3,2.7-1.9c1.2-9.9,0.8-15-1.3-19.7l-0.7-1.6l1.8-0.1l1.8-0.1l1.1-2c0.6-1.1,1.4-2.5,1.8-3
		c1.6-1.9,2.9-3.4,3-3.5c2.5-2.1,4.1-11.6,2.8-17c-0.2-0.9-0.4-2-0.4-2.5s-0.1-1.3-0.3-1.7c-0.1-0.4-0.3-1.3-0.4-1.9
		c-0.1-0.6-0.2-1.2-0.3-1.4c-0.1-0.1-0.3-0.9-0.4-1.7c-0.3-1.8-1.2-3.4-2.6-4.9c-3.3-3.5-3.6-4.3-2.7-7.7c1.7-6.3,0.7-11.3-2.3-12
		l-0.7-0.1l0.9-1.7c0.9-1.7,1.2-3.8,0.7-4.2c-0.1-0.1-0.3-0.5-0.4-0.8c-0.2-0.8-3.3-3.9-4.4-4.5c-0.4-0.2-0.7-0.5-0.7-0.6
		s-0.1-0.3-0.3-0.3c-0.2,0-0.7-0.3-1.1-0.7c-0.4-0.4-1.2-1-1.7-1.4c-3.1-2.2-3.4-3.4-1-5.5c4.8-4.4,5.4-5.3,5.2-7.7
		c-0.2-1.7-0.4-2.2-3.4-6.6l-2-2.9v-4c0-4.5-0.3-5.9-1.2-6.1c-0.7-0.2-2.5,0.2-2.9,0.6c-1.7,1.7-4.8-1.4-6.4-6.6
		c-1-3.3-1.7-4.1-4.6-5.4c-3.1-1.4-4.7-2.7-7.2-5.6C352.2,424.2,350.1,422.8,348.8,424.3 M366.1,427.8c-0.9,0.9,0,6.1,1.2,7.5
		c0.9,1,2.2,0,2.6-2C370.5,430.4,367.6,426.3,366.1,427.8 M286.3,447.2c-3.4,3.1-2.6,9.3,1.2,9.3c2.7,0,4.3-2.2,3.7-4.9
		C290.1,447,288.3,445.3,286.3,447.2 M324.3,449.2c-1.4,0.6-2.1,3.1-0.9,3.5c0.2,0.1,0.3,0.3,0.3,0.5c0,0.5,2.4,3,3.5,3.6
		c2.1,1.1,3.5-1.1,2.5-4C328.7,449.3,326.9,448.1,324.3,449.2 M58.7,500.9c-1.3,1.6-0.8,8.7,0.8,11.1c1.6,2.3,4.1-2.4,3.3-6.2
		c-0.5-2.2-0.5-2.4-1.1-3.4C60.6,500.6,59.5,500,58.7,500.9 M264.3,529.8c-1.6,0.3-2.1,2.8-0.8,4.2c0.4,0.4,0.7,0.8,0.7,1
		c0,0.9,2.5,1.2,3.8,0.4C272.3,532.8,269.7,528.8,264.3,529.8 M367.5,540.8c-2.3,1-2.8,4.8-1,6.9c0.1,0.2,0.2,0.4,0.1,0.4
		c-0.1,0.1,0.2,0.8,0.7,1.5c0.4,0.8,0.8,1.5,0.8,1.6c0,0.6,1.3,0.9,2,0.5c0.8-0.5,0.9-2.6,0.2-6.6c-0.5-3.3-0.7-3.8-1.3-4.2
		C368.4,540.4,368.4,540.4,367.5,540.8 M114.4,544.6c-3.1,0.8-3.5,2.3-0.8,4c2.2,1.4,3.2,1,3.2-1
		C116.8,545.7,115.7,544.3,114.4,544.6 M236.6,559.5c-1.6,0.8-5.8,4-5.9,4.6c-0.2,0.8,0.2,1.6,1.3,2.8c0.6,0.7,1.1,1.5,1.2,1.8
		c1.4,5.4,7.1,7.2,10.8,3.5c1.1-1.2,1.1-1,3.4-6.2c1.1-2.5,1-3.2-0.9-3.9c-1.4-0.5-2.1-0.9-3.2-1.5
		C240.8,559.1,238.4,558.7,236.6,559.5 M187.1,575.8c-0.5,0.6-0.5,4.6,0,5.2c0.6,0.8,1.9,0.4,2.5-0.6
		C190.9,578,188.6,573.9,187.1,575.8 M204.8,588.7c-2.3,0.7-3.7,2.8-3.7,5.6c0,2.2,1,3.1,2.6,2.2c1.4-0.7,5-1.2,6.6-0.8
		c0.8,0.2,1.6,0.3,1.7,0.3c0.1,0,0.8,0.5,1.5,1.3c1.7,1.7,2.1,1.7,3.7,0c2.5-2.6,1.5-4.9-2.8-7C210.9,588.6,207.2,588,204.8,588.7
		 M231.3,588.6c-1.3,1.3,1.3,4.2,3.5,3.8c2.1-0.4,1.6-3-0.8-3.3c-0.1,0-0.5-0.2-0.8-0.4C232.6,588.2,231.7,588.2,231.3,588.6
		 M175.1,621.1c-0.6,0.5-1.6,1.4-2.3,2c-1.6,1.5-2.7,2.3-4,3c-3.9,2-5,3.4-4.2,5.7c0.9,2.7,1.7,2.9,4.2,1.3c0.4-0.3,1-0.7,1.3-0.8
		c3.3-2,6.8-4.4,7.8-5.4c0.2-0.2,0.7-0.6,0.9-0.8c1.5-1.1,2-2.6,1.4-3.8C178.9,620,177,619.6,175.1,621.1"/>
	<path id="path1" class="st2" d="M232.7,244.1c0.5,0.5,0.9,0.9,1,0.9s-0.3-0.4-0.7-0.9c-0.5-0.5-0.9-0.9-1-0.9
		S232.2,243.6,232.7,244.1 M379.8,430c0,0.5,0.1,0.7,0.1,0.4c0.1-0.3,0.1-0.8,0-1C379.9,429.2,379.8,429.4,379.8,430 M32.9,584.3
		c0,1,0,1.3,0.1,0.8s0.1-1.3,0-1.7C32.9,582.9,32.9,583.4,32.9,584.3 M119.2,629.2c0.4,0.1,1,0.1,1.4,0s0.1-0.1-0.7-0.1
		C119.2,629.1,118.9,629.1,119.2,629.2"/>
	<path id="path2" class="st2" d="M232.7,244.1c0.5,0.5,0.9,0.9,1,0.9s-0.3-0.4-0.7-0.9c-0.5-0.5-0.9-0.9-1-0.9
		S232.2,243.6,232.7,244.1 M379.8,430c0,0.5,0.1,0.7,0.1,0.4c0.1-0.3,0.1-0.8,0-1C379.9,429.2,379.8,429.4,379.8,430 M32.9,584.3
		c0,1,0,1.3,0.1,0.8s0.1-1.3,0-1.7C32.9,582.9,32.9,583.4,32.9,584.3 M119.2,629.2c0.4,0.1,1,0.1,1.4,0s0.1-0.1-0.7-0.1
		C119.2,629.1,118.9,629.1,119.2,629.2"/>
	<path id="path3" class="st2" d="M232.7,244.1c0.5,0.5,0.9,0.9,1,0.9s-0.3-0.4-0.7-0.9c-0.5-0.5-0.9-0.9-1-0.9
		S232.2,243.6,232.7,244.1 M379.8,430c0,0.5,0.1,0.7,0.1,0.4c0.1-0.3,0.1-0.8,0-1C379.9,429.2,379.8,429.4,379.8,430 M32.9,584.3
		c0,1,0,1.3,0.1,0.8s0.1-1.3,0-1.7C32.9,582.9,32.9,583.4,32.9,584.3 M119.2,629.2c0.4,0.1,1,0.1,1.4,0s0.1-0.1-0.7-0.1
		C119.2,629.1,118.9,629.1,119.2,629.2"/>
	<path id="path4" class="st2" d="M232.7,244.1c0.5,0.5,0.9,0.9,1,0.9s-0.3-0.4-0.7-0.9c-0.5-0.5-0.9-0.9-1-0.9
		S232.2,243.6,232.7,244.1 M379.8,430c0,0.5,0.1,0.7,0.1,0.4c0.1-0.3,0.1-0.8,0-1C379.9,429.2,379.8,429.4,379.8,430 M32.9,584.3
		c0,1,0,1.3,0.1,0.8s0.1-1.3,0-1.7C32.9,582.9,32.9,583.4,32.9,584.3 M119.2,629.2c0.4,0.1,1,0.1,1.4,0s0.1-0.1-0.7-0.1
		C119.2,629.1,118.9,629.1,119.2,629.2"/>
</g>
</svg>
