<svg id="svg" version="1.1" xmlns="http://www.w3.org/2000/svg" xmlns:xlink="http://www.w3.org/1999/xlink" width="400" height="283.125" viewBox="0, 0, 400,283.125"><g id="svgg"><path id="path0" d="M266.653 0.250 C 265.232 0.500,262.571 1.697,262.759 2.002 C 262.832 2.120,262.381 2.302,261.758 2.408 C 261.134 2.513,260.623 2.704,260.623 2.833 C 260.623 2.961,260.400 3.030,260.127 2.986 C 259.855 2.942,259.393 3.030,259.102 3.181 C 258.710 3.384,258.627 3.367,258.782 3.116 C 258.938 2.864,258.856 2.849,258.462 3.059 C 258.170 3.214,257.103 3.424,256.091 3.526 C 253.042 3.832,252.467 4.224,252.248 6.151 C 252.209 6.495,251.974 7.184,251.726 7.681 C 251.228 8.680,251.128 9.163,251.558 8.499 C 251.726 8.239,251.834 8.206,251.837 8.414 C 251.839 8.601,251.667 8.856,251.454 8.980 C 251.241 9.105,250.639 10.099,250.116 11.190 C 249.593 12.280,248.880 13.428,248.530 13.739 C 246.753 15.324,246.229 15.693,244.913 16.286 C 242.937 17.178,242.234 17.375,241.006 17.384 C 240.421 17.388,239.943 17.462,239.943 17.548 C 239.943 17.635,239.549 17.694,239.066 17.679 C 238.584 17.665,237.660 17.819,237.012 18.021 C 233.607 19.084,229.838 19.830,227.170 19.968 C 219.254 20.378,215.581 20.705,215.581 21.000 C 215.581 21.135,215.230 21.247,214.802 21.248 C 214.056 21.250,212.230 21.653,211.331 22.015 C 211.098 22.109,210.826 22.171,210.728 22.153 C 210.362 22.084,208.318 24.283,207.224 25.923 C 206.601 26.856,205.862 27.791,205.583 27.999 C 205.304 28.207,204.754 28.887,204.361 29.510 C 203.967 30.133,203.244 30.855,202.753 31.115 C 202.262 31.374,201.482 31.969,201.021 32.436 C 200.559 32.904,200.290 33.095,200.423 32.861 C 200.595 32.557,200.503 32.577,200.097 32.932 C 199.501 33.454,198.822 33.572,198.466 33.215 C 198.349 33.098,198.168 32.998,198.064 32.992 C 197.132 32.939,195.760 31.827,195.181 30.655 C 194.475 29.226,193.612 28.288,192.225 27.442 C 191.749 27.152,191.487 26.913,191.643 26.911 C 191.799 26.908,191.161 26.414,190.227 25.812 C 188.355 24.608,187.838 24.074,187.308 22.805 C 186.947 21.938,185.483 20.794,184.525 20.630 C 184.233 20.579,183.921 20.439,183.831 20.319 C 183.742 20.198,182.799 19.784,181.737 19.398 L 179.805 18.697 173.968 19.417 C 170.757 19.812,167.886 20.234,167.588 20.355 C 166.864 20.647,163.889 20.223,163.097 19.714 C 161.988 19.002,159.055 18.607,156.085 18.771 L 153.281 18.925 152.704 17.947 C 151.704 16.251,149.031 15.660,142.068 15.594 C 137.815 15.554,136.268 15.364,136.074 14.857 C 135.998 14.659,135.243 14.216,134.398 13.872 C 133.266 13.413,132.476 12.805,131.407 11.571 C 130.608 10.649,129.895 9.954,129.823 10.026 C 129.751 10.098,129.304 9.715,128.829 9.175 C 127.206 7.326,123.390 8.820,122.784 11.542 C 122.428 13.140,122.323 13.329,121.580 13.697 C 121.163 13.904,120.120 14.098,119.263 14.128 C 116.683 14.219,116.231 14.382,116.049 15.291 C 115.960 15.738,115.722 16.236,115.521 16.399 C 115.320 16.561,114.482 17.272,113.659 17.979 C 112.836 18.685,112.056 19.263,111.925 19.263 C 111.419 19.263,108.174 22.799,108.033 23.505 C 107.921 24.061,107.521 24.424,106.467 24.924 C 105.688 25.294,104.679 25.944,104.225 26.368 C 103.771 26.792,103.397 27.056,103.395 26.955 C 103.393 26.854,103.272 26.958,103.128 27.186 C 102.816 27.680,99.846 27.655,99.242 27.154 C 98.962 26.921,98.866 26.941,98.863 27.232 C 98.860 27.472,98.779 27.510,98.650 27.330 C 98.315 26.862,95.745 27.000,95.369 27.506 C 94.767 28.317,93.638 28.860,92.144 29.056 C 91.329 29.163,90.730 29.360,90.813 29.494 C 90.896 29.629,90.788 29.671,90.572 29.588 C 90.343 29.500,89.686 29.973,88.996 30.721 C 88.345 31.428,87.718 32.036,87.603 32.073 C 87.179 32.210,86.148 33.998,85.556 35.623 C 85.005 37.134,84.802 37.371,83.430 38.114 C 82.595 38.565,81.974 39.034,82.050 39.156 C 82.125 39.277,82.020 39.378,81.816 39.379 C 81.265 39.384,77.664 42.163,77.291 42.872 C 77.114 43.209,76.872 43.549,76.753 43.627 C 76.634 43.706,76.503 45.044,76.462 46.602 L 76.386 49.433 73.983 51.771 C 72.662 53.056,71.674 54.108,71.788 54.108 C 71.902 54.108,71.806 54.297,71.575 54.527 C 71.345 54.758,70.937 55.555,70.671 56.298 C 69.030 60.869,65.516 66.878,63.920 67.841 C 61.825 69.105,60.880 70.563,61.457 71.641 C 62.189 73.009,61.750 75.010,60.399 76.465 C 58.853 78.130,58.357 78.939,58.357 79.793 C 58.357 80.812,57.839 82.153,57.445 82.153 C 57.305 82.153,57.270 82.281,57.367 82.438 C 57.464 82.595,57.338 82.802,57.087 82.899 C 56.836 82.995,56.286 83.713,55.865 84.494 C 54.853 86.370,54.580 86.825,54.153 87.339 C 53.631 87.968,53.499 89.060,53.788 90.347 C 54.023 91.392,53.985 91.516,53.296 91.953 C 52.885 92.214,52.147 92.844,51.655 93.353 C 50.651 94.394,50.259 94.554,48.442 94.663 C 46.763 94.765,46.135 95.414,45.337 97.875 C 44.983 98.966,44.508 100.070,44.281 100.328 C 43.490 101.229,42.998 103.835,43.422 104.879 C 44.139 106.649,43.935 107.183,42.393 107.563 C 40.871 107.939,40.433 108.382,39.932 110.057 C 39.746 110.680,39.524 111.381,39.440 111.615 C 39.356 111.848,39.314 112.155,39.347 112.297 C 39.380 112.439,39.276 112.635,39.116 112.734 C 38.955 112.833,38.786 113.164,38.738 113.468 C 38.597 114.378,38.305 114.661,36.742 115.400 C 34.619 116.405,34.016 116.501,32.578 116.066 C 30.290 115.373,23.944 115.314,22.754 115.974 C 22.314 116.217,21.747 116.494,21.493 116.589 C 20.968 116.786,20.397 117.890,20.397 118.710 C 20.397 119.014,20.293 119.263,20.165 119.263 C 20.038 119.263,19.643 119.781,19.288 120.414 C 18.259 122.244,16.474 122.687,14.379 121.632 C 13.640 121.260,12.970 120.957,12.891 120.959 C 12.812 120.961,12.485 120.700,12.163 120.378 C 11.452 119.668,10.000 119.865,9.375 120.758 C 9.003 121.290,8.790 121.313,6.117 121.112 C 2.651 120.853,1.652 120.871,1.438 121.197 C 1.348 121.333,0.973 121.604,0.604 121.799 C -0.326 122.289,-0.104 123.949,1.197 126.226 C 1.738 127.173,2.267 128.294,2.373 128.716 C 2.479 129.139,2.679 129.415,2.816 129.330 C 2.954 129.245,3.035 129.389,2.997 129.651 C 2.911 130.236,3.999 132.215,4.875 133.067 C 5.502 133.677,6.755 134.680,10.340 137.446 C 14.599 140.731,16.714 143.723,16.714 146.464 C 16.714 146.751,16.899 147.170,17.125 147.396 C 17.352 147.623,17.464 147.881,17.375 147.969 C 16.893 148.452,18.808 148.446,19.786 147.962 L 20.878 147.422 20.631 148.428 C 19.310 153.812,19.358 159.062,20.737 160.068 C 20.852 160.153,20.632 160.561,20.247 160.977 C 19.556 161.722,19.280 163.173,19.830 163.173 C 19.986 163.173,20.081 163.279,20.042 163.408 C 19.954 163.701,22.725 166.446,23.017 166.355 C 23.134 166.319,23.229 166.459,23.229 166.667 C 23.229 166.876,23.750 167.513,24.386 168.084 C 25.022 168.655,25.442 169.122,25.321 169.122 C 25.199 169.122,26.216 170.205,27.579 171.530 C 28.943 172.854,30.213 173.938,30.401 173.938 C 30.590 173.938,30.983 174.256,31.276 174.646 C 31.568 175.035,31.993 175.354,32.219 175.354 C 32.445 175.354,32.954 175.609,33.350 175.921 C 33.747 176.232,34.328 176.487,34.643 176.487 C 35.285 176.487,37.140 177.792,37.036 178.171 C 36.964 178.434,39.208 180.170,39.619 180.170 C 39.756 180.170,40.210 180.439,40.628 180.769 C 41.047 181.098,41.461 181.297,41.547 181.210 C 41.634 181.123,42.167 181.300,42.732 181.603 C 43.297 181.905,43.952 182.156,44.188 182.159 C 46.315 182.190,49.728 185.466,48.454 186.253 C 48.305 186.345,48.255 186.608,48.343 186.836 C 48.431 187.065,48.358 187.252,48.181 187.252 C 48.004 187.252,47.524 188.025,47.114 188.970 C 46.473 190.449,46.184 190.781,45.033 191.365 C 42.122 192.840,42.911 195.832,46.742 197.844 C 50.592 199.866,50.489 200.524,46.284 200.775 C 43.644 200.932,41.930 201.584,42.353 202.269 C 42.435 202.402,42.387 202.582,42.246 202.669 C 41.846 202.916,41.945 205.736,42.377 206.426 C 43.601 208.380,44.346 208.735,48.244 209.220 C 50.189 209.462,51.666 210.348,51.781 211.341 C 51.968 212.965,52.730 214.398,53.766 215.075 C 55.529 216.229,55.367 216.199,62.110 216.591 C 63.785 216.689,65.156 216.884,65.156 217.024 C 65.156 217.165,65.347 217.280,65.581 217.280 C 65.814 217.280,66.006 217.408,66.006 217.564 C 66.006 217.720,66.165 217.847,66.360 217.847 C 66.555 217.847,67.272 218.357,67.954 218.980 C 68.636 219.603,69.088 220.113,68.959 220.113 C 68.692 220.113,69.330 220.809,69.632 220.846 C 70.385 220.939,70.921 221.521,71.583 222.962 C 72.000 223.871,72.446 224.551,72.573 224.472 C 72.700 224.394,72.805 224.432,72.805 224.558 C 72.805 224.684,73.124 225.158,73.513 225.611 C 73.902 226.063,74.221 226.549,74.221 226.690 C 74.221 226.830,74.335 226.875,74.475 226.789 C 74.614 226.703,74.801 226.823,74.891 227.055 C 75.305 228.135,78.470 227.254,78.470 226.059 C 78.470 225.905,78.605 225.779,78.770 225.779 C 78.935 225.779,79.000 225.665,78.914 225.525 C 78.827 225.386,78.920 225.209,79.119 225.133 C 79.318 225.056,79.787 224.399,80.161 223.672 C 80.535 222.945,81.130 222.038,81.484 221.656 C 81.837 221.275,82.063 220.963,81.987 220.963 C 81.910 220.963,81.978 220.804,82.138 220.609 C 83.464 218.990,83.874 218.414,83.698 218.414 C 83.585 218.414,83.861 218.129,84.310 217.781 C 84.760 217.433,85.342 216.954,85.604 216.718 C 86.301 216.090,88.361 215.097,89.518 214.831 C 90.431 214.621,91.111 215.051,91.918 216.351 C 93.027 218.137,94.793 219.560,95.286 219.067 C 95.386 218.967,95.467 219.026,95.467 219.197 C 95.467 219.511,96.542 219.997,96.976 219.879 C 97.104 219.844,97.129 219.947,97.030 220.106 C 96.931 220.266,96.985 220.413,97.150 220.432 C 98.748 220.621,101.835 222.622,101.322 223.136 C 101.041 223.416,99.222 223.288,98.575 222.942 C 98.262 222.774,97.880 222.714,97.728 222.808 C 97.575 222.902,97.450 222.830,97.450 222.648 C 97.450 221.987,95.372 222.669,94.622 223.575 C 93.120 225.391,92.883 225.605,92.272 225.691 C 90.274 225.972,89.238 226.370,89.198 226.872 C 89.116 227.894,89.294 229.902,89.491 230.169 C 89.606 230.325,89.877 231.027,90.094 231.728 C 91.160 235.179,93.826 238.777,95.680 239.269 C 96.030 239.362,96.317 239.537,96.317 239.658 C 96.317 239.778,96.565 239.942,96.867 240.021 C 97.253 240.122,97.557 240.659,97.887 241.825 C 98.145 242.737,98.559 243.644,98.807 243.839 C 99.055 244.033,99.138 244.198,98.992 244.205 C 98.845 244.212,99.222 244.480,99.830 244.800 C 100.438 245.121,101.195 245.625,101.512 245.921 C 101.830 246.217,102.251 246.459,102.447 246.459 C 102.644 246.459,102.907 246.622,103.031 246.821 C 103.326 247.292,105.254 248.721,106.516 249.403 C 107.061 249.699,107.762 250.158,108.074 250.424 C 108.385 250.691,109.162 251.150,109.800 251.446 C 111.434 252.203,111.699 252.909,110.865 254.286 C 110.500 254.889,110.201 255.284,110.200 255.164 C 110.199 255.044,109.688 255.206,109.065 255.524 C 108.442 255.842,107.932 256.020,107.932 255.920 C 107.932 255.820,107.773 255.864,107.578 256.019 C 107.383 256.174,106.746 256.454,106.161 256.642 C 105.577 256.830,105.099 257.166,105.099 257.387 C 105.099 257.609,104.964 257.790,104.799 257.790 C 104.634 257.790,104.578 257.918,104.674 258.074 C 104.771 258.229,104.729 258.357,104.583 258.357 C 102.741 258.357,103.627 267.396,105.515 267.870 C 105.910 267.969,106.232 268.171,106.232 268.319 C 106.232 268.467,106.360 268.510,106.516 268.414 C 106.671 268.317,106.799 268.381,106.799 268.555 C 106.799 268.729,106.926 268.793,107.082 268.697 C 107.238 268.601,107.365 268.632,107.365 268.766 C 107.365 269.747,113.331 270.458,116.714 269.881 C 118.907 269.506,119.084 269.473,120.680 269.133 C 121.537 268.950,122.429 268.725,122.663 268.633 C 122.897 268.541,123.407 268.470,123.796 268.476 C 124.186 268.483,124.588 268.356,124.690 268.194 C 125.036 267.646,130.736 267.773,131.366 268.343 C 131.668 268.615,132.077 268.839,132.275 268.839 C 132.712 268.839,135.514 270.310,135.647 270.609 C 135.699 270.726,135.922 270.822,136.143 270.822 C 136.363 270.822,136.544 270.933,136.544 271.070 C 136.544 271.374,140.793 271.313,141.296 271.002 C 141.695 270.756,143.343 271.034,143.343 271.348 C 143.343 271.610,146.491 272.942,148.426 273.497 C 149.274 273.740,150.039 274.044,150.126 274.170 C 150.212 274.297,151.558 274.755,153.116 275.188 C 157.559 276.423,158.761 276.824,159.065 277.174 C 160.278 278.569,161.998 279.073,164.524 278.774 C 169.385 278.198,171.955 277.705,171.955 277.349 C 171.955 277.221,172.401 277.033,172.946 276.931 C 173.492 276.829,173.938 276.623,173.938 276.474 C 173.938 276.326,174.033 276.226,174.150 276.253 C 174.447 276.323,175.985 275.576,176.439 275.142 C 176.647 274.944,176.939 274.858,177.089 274.951 C 177.239 275.044,177.548 274.966,177.774 274.777 C 178.001 274.589,178.187 274.497,178.187 274.573 C 178.187 274.649,178.693 274.619,179.312 274.506 C 179.931 274.392,180.379 274.395,180.307 274.511 C 180.182 274.714,181.215 275.165,181.657 275.101 C 181.774 275.085,181.870 275.190,181.870 275.336 C 181.870 275.481,182.316 275.762,182.861 275.959 C 183.407 276.156,183.853 276.411,183.853 276.525 C 183.853 276.639,184.134 276.822,184.477 276.930 C 184.820 277.039,185.274 277.302,185.486 277.514 C 185.887 277.914,191.919 278.068,191.674 277.671 C 191.609 277.565,192.850 277.490,194.432 277.504 C 196.107 277.518,197.479 277.400,197.717 277.221 C 198.026 276.987,198.074 276.998,197.913 277.266 C 197.770 277.504,197.894 277.620,198.291 277.620 C 198.615 277.620,199.593 277.871,200.463 278.176 C 201.965 278.704,202.832 278.836,207.051 279.180 C 209.081 279.345,209.450 279.509,211.777 281.281 C 214.685 283.496,215.173 283.591,219.122 282.714 C 219.901 282.541,220.857 282.341,221.246 282.270 C 224.308 281.709,226.912 280.845,226.912 280.391 C 226.912 280.251,227.035 280.212,227.185 280.305 C 227.335 280.398,227.940 280.169,228.531 279.797 C 229.121 279.425,230.217 279.029,230.967 278.917 C 232.674 278.662,233.932 277.912,234.844 276.605 C 235.726 275.342,237.333 273.654,237.653 273.654 C 237.785 273.654,238.254 273.176,238.694 272.592 C 239.135 272.008,239.596 271.487,239.719 271.435 C 239.842 271.383,239.943 271.213,239.943 271.057 C 239.943 270.901,240.385 270.382,240.925 269.904 C 241.465 269.426,241.840 268.927,241.758 268.795 C 241.676 268.663,241.808 268.555,242.051 268.555 C 242.294 268.555,242.493 268.428,242.493 268.272 C 242.493 268.116,242.631 267.989,242.800 267.989 C 242.969 267.989,243.554 267.511,244.101 266.926 C 248.641 262.075,249.826 261.100,252.266 260.212 C 253.045 259.928,253.874 259.538,254.108 259.345 C 254.482 259.037,256.154 258.394,256.723 258.340 C 256.837 258.329,257.320 258.209,257.796 258.072 C 258.273 257.935,259.518 257.740,260.564 257.639 C 263.197 257.384,266.869 256.891,269.122 256.492 C 269.667 256.396,270.273 256.308,270.467 256.298 C 270.662 256.288,270.822 256.190,270.822 256.081 C 270.822 255.971,271.300 255.808,271.884 255.718 C 275.648 255.139,279.320 253.797,279.320 253.000 C 279.320 252.790,282.200 251.749,283.711 251.413 C 285.568 250.999,290.049 250.704,290.221 250.983 C 290.298 251.107,291.095 251.310,291.993 251.434 C 292.891 251.557,293.690 251.675,293.768 251.696 C 293.846 251.717,294.600 251.837,295.443 251.962 C 296.908 252.180,297.101 252.316,299.756 254.997 C 301.285 256.541,302.634 257.817,302.755 257.833 C 302.876 257.849,303.132 257.923,303.324 257.997 C 303.594 258.100,310.832 257.955,313.953 257.783 C 314.227 257.768,315.051 258.340,315.786 259.053 C 317.305 260.530,318.625 261.001,320.608 260.773 C 322.538 260.551,324.932 259.998,325.093 259.738 C 325.169 259.615,325.418 259.587,325.646 259.674 C 325.875 259.762,326.062 259.693,326.062 259.520 C 326.062 258.861,326.539 259.251,326.977 260.269 C 327.715 261.984,328.304 263.456,328.311 263.606 C 328.333 264.079,329.394 265.693,330.163 266.421 C 332.595 268.728,333.472 269.199,338.244 270.757 C 341.454 271.805,342.585 272.093,344.759 272.412 C 345.149 272.469,346.551 272.703,347.875 272.931 C 349.200 273.160,350.538 273.362,350.850 273.379 C 356.362 273.689,356.482 273.603,356.740 269.117 C 356.943 265.602,357.094 264.767,357.692 263.855 C 357.938 263.479,358.073 262.917,357.991 262.606 C 357.910 262.294,357.945 262.040,358.070 262.040 C 358.532 262.040,359.280 258.074,359.101 256.570 C 358.632 252.611,358.356 249.119,358.265 245.983 C 358.190 243.407,358.049 242.355,357.705 241.831 C 357.452 241.445,357.161 240.309,357.058 239.308 L 356.872 237.488 358.110 236.218 C 360.142 234.134,361.465 232.610,361.542 232.264 C 361.582 232.085,361.970 231.541,362.404 231.054 C 362.838 230.568,363.267 229.883,363.356 229.533 C 363.445 229.182,363.627 228.895,363.760 228.895 C 364.113 228.895,365.440 226.860,365.268 226.582 C 365.188 226.452,365.242 226.346,365.388 226.346 C 365.534 226.346,365.812 225.963,366.006 225.496 C 366.199 225.028,366.448 224.646,366.559 224.646 C 366.879 224.646,368.136 221.931,368.034 221.459 C 368.009 221.342,368.111 221.246,368.261 221.246 C 368.411 221.246,368.673 220.727,368.844 220.092 C 369.332 218.281,368.447 217.632,366.715 218.531 C 365.863 218.973,362.536 222.587,362.698 222.894 C 362.754 223.001,362.577 223.298,362.306 223.556 C 361.842 223.996,361.805 223.965,361.697 223.043 C 361.634 222.503,361.686 221.998,361.811 221.921 C 361.937 221.843,362.040 221.420,362.040 220.981 C 362.040 220.042,362.412 219.684,363.669 219.415 C 364.703 219.194,366.937 217.468,366.630 217.127 C 366.520 217.006,366.581 216.993,366.765 217.098 C 366.949 217.204,367.272 217.044,367.483 216.743 C 367.693 216.443,368.330 215.976,368.897 215.705 C 370.188 215.090,370.373 214.424,369.581 213.245 C 368.526 211.674,367.353 211.805,365.287 213.722 C 364.358 214.584,363.500 215.291,363.381 215.293 C 362.890 215.303,363.305 213.629,363.827 213.493 C 364.122 213.416,364.279 213.217,364.176 213.050 C 364.073 212.884,364.133 212.748,364.309 212.748 C 364.485 212.748,365.210 212.334,365.919 211.827 C 366.629 211.321,367.545 210.705,367.954 210.458 C 369.656 209.430,368.825 204.321,366.690 202.692 C 365.508 201.791,365.383 200.508,366.355 199.273 C 366.702 198.831,366.798 198.580,366.567 198.715 C 366.336 198.850,366.556 198.561,367.056 198.072 C 367.894 197.255,369.790 196.230,370.027 196.467 C 370.082 196.522,370.730 196.599,371.466 196.637 L 372.804 196.706 372.255 197.291 C 371.953 197.612,371.707 197.939,371.708 198.017 C 371.710 198.095,371.565 198.541,371.386 199.008 C 371.035 199.927,371.431 204.689,371.897 205.155 C 372.030 205.288,372.764 205.461,373.529 205.540 C 375.423 205.735,375.623 206.037,374.534 207.054 C 374.035 207.521,373.571 207.914,373.504 207.929 C 370.997 208.487,367.799 211.311,368.947 211.953 C 369.198 212.093,369.882 212.648,370.466 213.185 C 371.911 214.512,371.566 214.647,374.871 211.467 C 377.056 209.364,378.119 208.595,379.196 208.337 C 379.654 208.227,380.156 208.038,380.312 207.917 C 380.467 207.796,381.169 207.618,381.870 207.522 C 382.571 207.426,383.463 207.290,383.853 207.220 C 384.942 207.023,386.125 206.843,387.671 206.638 C 388.446 206.536,389.338 206.413,389.654 206.367 C 389.969 206.320,390.863 206.197,391.640 206.093 C 392.417 205.990,393.118 205.819,393.198 205.715 C 393.278 205.610,393.598 205.533,393.909 205.543 C 394.221 205.553,394.685 205.461,394.940 205.337 C 395.279 205.173,395.446 205.270,395.557 205.695 C 396.042 207.550,397.763 205.471,397.922 202.838 C 398.090 200.062,398.238 198.751,398.530 197.450 C 398.687 196.749,398.899 194.582,399.001 192.635 C 399.102 190.687,399.376 187.921,399.610 186.488 C 400.072 183.658,399.992 183.253,398.694 181.857 C 397.925 181.031,398.363 179.887,399.449 179.887 C 399.752 179.887,400.000 179.695,400.000 179.462 C 400.000 179.228,399.819 179.037,399.598 179.037 C 399.205 179.037,398.946 178.286,398.719 176.498 C 398.403 174.001,398.215 173.210,397.715 172.276 C 397.413 171.714,397.167 171.373,397.167 171.517 C 397.167 171.660,396.895 171.486,396.563 171.129 C 395.941 170.462,392.624 168.839,391.883 168.839 C 391.655 168.839,391.538 168.725,391.623 168.587 C 391.709 168.449,391.430 168.262,391.003 168.172 C 390.576 168.082,389.079 167.751,387.677 167.437 C 384.931 166.821,380.453 166.647,380.453 167.156 C 380.453 167.321,380.337 167.384,380.195 167.296 C 379.910 167.120,378.192 168.009,378.189 168.334 C 378.188 168.446,377.996 168.464,377.762 168.374 C 377.528 168.285,377.337 168.351,377.337 168.523 C 377.337 168.694,376.647 169.223,375.804 169.699 C 374.962 170.174,374.198 170.757,374.107 170.994 C 374.016 171.230,373.812 171.344,373.654 171.246 C 373.496 171.149,373.291 171.268,373.197 171.512 C 373.104 171.755,372.846 171.955,372.624 171.955 C 372.402 171.955,372.147 172.146,372.057 172.380 C 371.967 172.613,371.769 172.805,371.615 172.805 C 371.328 172.805,371.104 172.963,368.013 175.361 C 367.014 176.136,366.081 176.771,365.940 176.771 C 365.648 176.771,363.749 175.422,363.297 174.893 C 362.620 174.103,361.640 174.163,360.639 175.057 C 360.107 175.532,359.790 175.923,359.935 175.925 C 360.080 175.927,360.036 176.032,359.838 176.158 C 359.469 176.392,359.297 176.948,359.011 178.824 C 358.878 179.695,358.728 179.892,358.178 179.918 C 357.809 179.935,357.284 179.960,357.011 179.973 C 356.039 180.020,353.088 179.575,351.416 179.129 C 350.482 178.880,349.271 178.577,348.725 178.457 C 348.180 178.336,346.650 177.832,345.326 177.337 C 344.001 176.842,342.790 176.413,342.635 176.383 C 341.738 176.213,340.374 173.696,340.043 171.600 C 339.706 169.457,338.797 168.381,337.140 168.161 C 335.746 167.976,335.704 167.942,335.400 166.776 C 334.760 164.313,334.388 163.566,333.210 162.381 L 332.001 161.165 332.998 160.749 C 334.035 160.315,334.360 159.970,333.499 160.216 C 333.226 160.294,333.283 160.209,333.626 160.029 C 334.961 159.324,334.737 154.207,333.197 150.262 C 332.640 148.831,332.410 147.593,332.152 144.618 C 332.071 143.683,331.921 142.344,331.818 141.643 C 331.715 140.942,331.653 140.272,331.680 140.154 C 331.707 140.036,331.609 139.398,331.461 138.737 C 330.744 135.526,330.748 135.605,331.014 129.745 C 331.088 128.109,331.152 125.472,331.155 123.886 L 331.161 121.001 332.622 119.502 C 334.028 118.058,334.089 117.929,334.278 115.998 C 334.390 114.862,334.692 113.661,334.975 113.229 C 335.251 112.808,335.366 112.463,335.231 112.460 C 335.096 112.458,335.113 112.362,335.269 112.248 C 335.814 111.847,336.490 110.258,336.228 109.996 C 335.649 109.417,335.148 105.233,335.085 100.455 C 335.021 95.523,334.564 93.065,333.642 92.679 C 333.514 92.625,333.014 91.796,332.532 90.837 C 332.050 89.878,331.576 89.030,331.479 88.952 C 330.792 88.399,329.671 85.248,329.313 82.863 C 329.088 81.360,328.720 79.725,328.495 79.230 C 328.271 78.734,328.001 77.899,327.895 77.375 C 327.688 76.351,325.240 73.654,324.517 73.654 C 324.295 73.654,323.547 73.113,322.856 72.450 C 322.165 71.788,321.074 70.752,320.432 70.147 C 319.789 69.543,319.263 68.874,319.263 68.660 C 319.263 68.447,319.136 68.272,318.980 68.272 C 318.824 68.272,318.697 68.109,318.697 67.910 C 318.697 67.711,318.474 67.352,318.201 67.113 C 317.928 66.874,317.387 66.247,316.997 65.719 C 316.608 65.191,316.098 64.551,315.864 64.297 C 315.630 64.042,315.397 63.654,315.346 63.435 C 315.294 63.216,315.166 62.972,315.062 62.892 C 314.957 62.813,314.698 62.411,314.486 61.999 C 313.810 60.684,310.527 57.507,309.845 57.507 C 309.552 57.507,307.947 55.690,307.291 54.616 C 306.741 53.716,306.568 53.028,306.537 51.612 C 306.525 51.097,306.400 50.746,306.259 50.834 C 306.117 50.921,306.072 50.724,306.158 50.396 C 306.243 50.069,306.193 49.718,306.046 49.617 C 305.898 49.516,305.570 48.985,305.315 48.438 C 304.815 47.362,304.132 46.674,302.496 45.600 C 301.921 45.222,301.505 44.860,301.571 44.794 C 301.637 44.728,301.374 44.381,300.987 44.022 C 300.600 43.663,300.283 43.236,300.283 43.073 C 300.283 42.910,300.160 42.776,300.009 42.776 C 299.858 42.776,299.387 42.067,298.963 41.201 C 298.538 40.334,297.903 39.314,297.551 38.934 C 297.199 38.554,297.026 38.244,297.167 38.244 C 297.308 38.244,297.098 37.893,296.700 37.465 C 296.302 37.036,295.795 36.335,295.573 35.907 C 295.351 35.478,295.038 35.127,294.877 35.127 C 294.716 35.127,294.648 35.024,294.726 34.897 C 294.805 34.771,294.557 34.305,294.177 33.862 C 293.796 33.419,293.484 32.815,293.484 32.520 C 293.484 32.225,293.311 31.639,293.098 31.218 C 292.886 30.797,292.373 29.242,291.959 27.762 C 291.545 26.282,291.027 24.688,290.807 24.221 C 289.739 21.943,289.293 20.669,288.973 18.980 C 288.531 16.651,288.216 15.864,287.725 15.864 C 287.512 15.864,287.035 15.471,286.667 14.990 C 286.299 14.509,285.652 13.937,285.231 13.719 C 283.934 13.049,283.170 11.687,283.113 9.946 C 283.065 8.478,282.991 8.333,281.743 7.243 C 281.018 6.609,280.272 5.786,280.085 5.413 C 279.898 5.040,279.307 4.501,278.773 4.217 C 278.238 3.932,277.365 3.217,276.833 2.628 C 276.301 2.040,275.953 1.749,276.060 1.983 C 276.166 2.217,276.019 2.139,275.733 1.810 C 274.444 0.328,270.280 -0.387,266.653 0.250 " stroke="none" fill="#bcbcbc" fill-rule="evenodd"></path><path id="path1" d="" stroke="none" fill="#c0bcbc" fill-rule="evenodd"></path><path id="path2" d="" stroke="none" fill="#c0bcbc" fill-rule="evenodd"></path><path id="path3" d="" stroke="none" fill="#c0bcbc" fill-rule="evenodd"></path><path id="path4" d="" stroke="none" fill="#c0bcbc" fill-rule="evenodd"></path></g></svg>