<?xml version="1.0" encoding="utf-8"?>
<!-- Generator: Adobe Illustrator 25.0.0, SVG Export Plug-In . SVG Version: 6.00 Build 0)  -->
<svg version="1.1" xmlns="http://www.w3.org/2000/svg" xmlns:xlink="http://www.w3.org/1999/xlink" x="0px" y="0px"
	 viewBox="0 0 512 512" style="enable-background:new 0 0 512 512;" xml:space="preserve">
<style type="text/css">
	.st0{fill:#FFFFFF;}
	.st1{display:none;}
</style>
<g id="Layer_6">
	
		<image style="overflow:visible;" width="840" height="359" xlink:href="E0BA5C91.jpg"  transform="matrix(0.6095 0 0 0.5891 0 150.2605)">
	</image>
</g>
<g id="Layer_2">
	<path class="st0" d="M32.6,227.1l-2.1-1.2l-1.5-0.5c0,0-0.4,0.9-0.7,0.8c-0.3,0-2.8-0.8-2.8-0.8h-2.2l-1.3,0.8l-3.9,2l-2.4,1
		l-3.7,1.4l-3.7,1l-3.5-0.5l-0.6,0.5l1.7,3.2c0,0,2,1.3,2.3,1.3c0.3,0,2.9,0,2.9,0l1.5-2.4c0,0,2.2-1.8,2.9-1.8s4.8-1,4.8-1
		s4.1-0.1,4.4,0c0.3,0.1,1.2,0,1.5,0.5c0.3,0.5,0.3,3.1,0.2,3.4c-0.1,0.3-1.6,2-1.8,2.3s-1.2,1.4-0.7,1.5s3.2,0,3.2,0l4-3.6l4.3-2.9
		c0,0,7-0.9,7.5-0.9s3.7,0.9,3.7,0.9l1.1-2.6l2.3-3.9v-4.1l1.5-2.5l5.2-0.4h4.3h4.4l2.5-2.8c0,0,4,2.2,4.3,2.2s4.2-1.3,4.2-1.3
		l3.3-1l2-5.1c0,0,2.2-0.7,3-0.6s2,0,2,0l2.3-2.9l3-3.6c0,0,3.1-1.5,3.5-1.6c0.4-0.1,4.9-2.2,4.9-2.2l2.5-1.7l1.8-2l0.6-2.6h7.1h7.2
		h9.4c0,0,6.6,0.6,7.1,0.6s5,0.8,5,0.8s5.4-1,5.9-0.9c0.5,0.1,4.3,1.5,4.6,1.8c0.4,0.3,6.2,2.2,6.2,2.2l0.9,2.3c0,0,0.3,1.8,0,2.3
		c-0.3,0.5-1.8,1.8-1.8,1.8l-2.7,1.5l-5.3,0.8l-7.7,0.1l-4.9-0.5l-1.3,1.4c0,0,1.5,1.5,2.6,1.8c1,0.3,5.8,2.6,5.8,2.6l3,2.3l2.6,2.7
		c0,0,1.3,1,1.7,1.2c0.4,0.1,3.7,0.6,4.1,0.6c0.4,0,4.1-1,4.1-1s6.6,0.3,7.5,0.4c0.9,0.1,3.4,2.1,4,2.5c0.6,0.4,1.3,1.7,2.2,2.1
		c0.9,0.4,4,0.1,4.9-0.6c0.9-0.8,1.3-0.5,1.7-1.8c0.4-1.3,0.5-2.2,0.3-3.4c-0.3-1.2-0.8-2.8-0.8-2.8s0.5,0.9,1.9,3s1.8,3.6,2.6,4.9
		c0.8,1.3,2.3,2.7,2.8,2.8c0.5,0.1,5.7,0.9,5.7,0.9s3.9-0.3,4.8-0.4c1-0.1,2.5-0.4,4.3-0.4c1.7,0,2.2-0.1,4.3,0s4.1,0.3,4.9,0
		c0.9-0.3,1.6-0.8,1.8-1.1c0.2-0.3,0.4-0.5,0.5-1c0.1-0.5-0.2-1.2-1.1-1.6c-0.9-0.5-2-1.6-2-1.6s-0.5-0.9,0.5-0.8
		c1,0.1,1.1-0.4,2.1,0.6c1.1,1,1.4,1.2,1.7,1.8c0.4,0.7,0.4,0.9,0.7,2c0.3,1.2,0.4,1.9,0.7,2.4c0.3,0.5-0.1,0.5,0.8,1.1
		c0.9,0.6,0.9,1.3,2.2,1.9c1.4,0.7,1.9,1.4,2.9,1.9c1,0.6,0.6,0.8,2.2,1.5c1.6,0.8,3.7,2.1,4,2.2c0.3,0.1,1.7,0.9,2.9,1.2
		c1.2,0.3,1.6,0.6,2.8,1c1.2,0.4,2.1,0.9,3.2,1.6c1,0.7,1.7,1.3,2.5,1.7c0.8,0.4,1,0.7,1.9,1.2c0.9,0.5,1.4,0.8,2.1,1.2
		c0.8,0.4,1.2,0.9,1.2,0.5s-1.2-1.3-1.2-1.3s-0.4-0.3,0.4-0.3c0.8,0,1.2,0.1,2.5,0.5c1.4,0.4,1.2,0.9,3.5,1.3c2.3,0.3-1.7-1.2,0-0.8
		c1.7,0.5,1.7,0.6,3.9,1.2c2.1,0.6,3.2,0.6,4.6,1.2c1.5,0.6,1.7,0.6,3.1,1.2c1.4,0.6,2.8,1.2,4.1,1.6c1.3,0.4,2.6,0.9,3.7,1
		s2.5,0.3,3,0.3c0.6,0.1,4.2-0.7,4.4-0.8c0.1-0.1-0.1-0.3,1.1-0.5c1.1-0.3,2-0.6,3.9-0.7c1.8-0.1,3.3-0.5,4-0.4
		c0.8,0.1,1.5,0.1,2.2,0.3c0.8,0.2,1.1,0.5,1.4,0.2c0.4-0.3-0.2-0.9,1-1.3s2.5-0.6,3.2-0.5c0.6,0.1,1,0,1.6,0.2
		c0.6,0.2,1.1,0.4,1.2,0.7s0.2,0.6,0.1,0.9c-0.1,0.3-0.3,0.4-0.5,0.6c-0.2,0.3-0.4,0.4-0.7,0.5s-1,0.1-1.3,0.2
		c-0.3,0.1-0.5,0-0.4,0.3s-0.5,0.3,0.3,0.5c0.7,0.3,1.1,0.4,1.7,0.4c0.6,0.1,0.6,0.1,1.6,0.1s1.7-0.3,2.1-0.1s0.5-0.2,0.9,0.6
		c0.5,0.8,0.6,1,1.1,1.5c0.5,0.5,1.2,3.9,1.2,4.4c0,0.5-1.3,1.8,0,5.6s1.5,4.6,2.1,6.7c0.5,2.1,1.3,3.4,2.1,4.6s1.3,1.8,2.3,2.6
		c1,0.8,0.3,0.5,2.3,1.8c2.1,1.3,3.4,1.8,4.4,2.6s5.7,4.9,5.7,4.9s-1.8,0,0,1.5c1.8,1.5,1,1.8,3.1,2.6s2.3-0.8,5.2,0
		s3.4,0.4,5.2,0.2c1.8-0.2,3.6,1.3,4.9,0.3c1.3-1,1,0.7,2.3,0.4c1.3-0.3,3.1-0.9,4.9,0c1.8,0.9,1.5-0.7,4.6,0
		c3.1,0.7,3.4-0.1,5.2,0.3c1.8,0.4,2.6-0.4,4.1,0c1.5,0.4,1-0.7,2.6,0.1s1.3,0.5,2.3,2.1c1,1.5,0,3.1,0,3.1s-0.4,0.8,0.5,1.8
		s-0.7,1,2.1,2.1s2.1,1.4,2.1,1.4s0.5,0,0.8,0.5c0.3,0.5,0.4,0.5,0.4,1.2c0,0.7,0.3,0.8,0,1.6c-0.3,0.8-0.3,0.8-0.8,1.5
		c-0.5,0.8-0.5,0.8-0.8,1.3c-0.3,0.5-0.8,0.8-1.3,1.4c-0.5,0.6-0.6,0.6-1.4,1.3c-0.8,0.6-0.8,0.7-1.4,1.2c-0.6,0.5,0.6-0.1-2.6,1.2
		s-3,1-3.9,1.6c-1,0.6-4.8,2.3-4.8,2.3s0,0.4-1.7,1.9c-1.7,1.5-2.7,1.8-3.6,2.7c-0.9,0.9-1.2,0.4-2.5,2.1c-1.3,1.7-1.7,1.9-2.5,3.4
		c-0.8,1.4-1.3-0.3-1.8,2.2c-0.5,2.5,0.6,3.4,0.6,3.4s0.4,0.3,3.1,0c2.7-0.3,5.3-1.2,6.8-1.3c1.5-0.1,3.2-0.8,4.8-0.6
		c1.5,0.1,1.9,0.6,2.3,0.6s2.1-0.6,2.1-0.6V328c0,0,1.9-0.1,3.1,0.1s2.6,0.8,4,0.9c1.4,0.1,3.5,0.4,4.8,0.4s2.3,0.4,3.2-0.1
		c0.9-0.5,8.3-2.7,8.6-2.7c0.4,0,0.8-0.3,2.7-0.3c1.9,0,1.9,0.1,5.3,0.1c3.4,0,6.1,0,7.1-0.3s3.6-0.6,4.3-0.8
		c0.6-0.1,2.5-0.4,2.5-0.4s2.1-0.8,3.4-0.8s3.2-0.5,5,0.3c1.8,0.8,3.2,0.9,4.8,1.3c1.5,0.4,3.1,0.3,4,0.4s2.5-0.4,3.7-0.5
		c1.3-0.1,2.1-0.6,3.6-0.4c1.5,0.3,2.8,0.1,3.9,0.9s3.1,1.7,4.4,2.2c1.3,0.5,1.2,0.8,2.8,0.9s3.2,0,4.4,0.1c1.2,0.1,1.4,0.3,3.6,0.1
		c2.2-0.1,3.4-0.4,4.6-0.5s3.2-0.3,3.2-0.3l0.9-0.5v-0.7c0,0,0.1-0.5,0.2-0.6s0.1-0.5,0.2-0.7s0.1-0.4,0.2-0.7
		c0.1-0.4,0.2-1.2,0.5-1.7c0.3-0.5,0.5-1.5,0.9-1.5c0.3-0.1,0.6-0.3,1.1,0.1c0.5,0.4,0.9,0.4,0.7,1c-0.2,0.6-0.5,0.8-0.9,1.5
		c-0.5,0.7-0.8,1-1,1.4c-0.3,0.4-0.6,0.4-0.8,0.8s-0.2,0.3-0.2,0.8c0.1,0.5-0.1,0.8,0.2,0.9s0.3,0.1,1.2,0.1s1-0.1,2.4-0.1
		c1.3,0,2.5,0,3.5-0.1c1-0.1,3.4-3,3.7-3.4c0.3-0.4,0.3-0.9,2.5-1.7c2.2-0.8,3.1-2.5,5-2.5s3.7-0.2,4.1-0.3c0.4-0.1,0.3-0.1,1.5-0.1
		s1.1,0,2.4,0c1.3,0,2,0.1,3.4,0.1c1.5,0,1.4,0,2.6-0.1s1.6-0.1,2.6-0.2c1,0,1.5-0.1,2.2-0.2s1.4-0.4,2-0.5s3.6-0.6,3.6-0.6
		s1-0.1,1.2-0.8c0.2-0.7-0.5-1.4,0.3-1.8c0.7-0.5,1-0.4,2-1c1-0.6,2.1-1.5,1.9-2.1c-0.2-0.6-1.3-1.9-1.7-2.4
		c-0.4-0.5-0.3-2.3-1.5-1.7c-1.2,0.6-1.4,0.9-3.2,0.8c-1.8-0.1-3.3,0.3-5.1-1c-1.8-1.2-0.5-0.2-3.2-2.1c-2.7-1.9-3.4-2.1-4-3
		c-0.6-0.9-0.6-0.9-1.4-1.8s-0.7-1.2-1.4-1.5c-0.6-0.3-0.4,0-2.3-1.2c-1.9-1.2-2.8-1.5-3-1.7c-0.3-0.3-0.4,0-0.3-1.4
		c0.1-1.4,0.1-1.9-0.3-2.6c-0.4-0.7-0.1-0.9-1.4-1.1c-1.4-0.2-1.7,0-2.8-0.1c-1-0.1-0.5,0.5-2.3-0.2c-1.8-0.7-3-3.3-5.9-3.1
		c-2.8,0.2-4.5,0.2-5.7,0.2c-1.2,0-2.3,0.3-5.5-0.2c-3.2-0.5-2-0.4-2.6-0.3c-0.7,0-1.5-0.3-2.9-0.8c-1.5-0.4-2.2-0.7-3.1-0.8
		s-1.1,1-1.1,1s-1.6,0.8-2.2,1.1c-0.6,0.3-0.8,0.6-1.9,0.5s-1.9,0-0.4-1.3c1.5-1.3,1.2-1.7,0.6-1.8c-0.6-0.1-2.6,0-3.7,0.1
		s-1.4-0.6-1.9,0.6c-0.5,1.2-0.6,1.5-1.7,1.7c-1,0.2-1.9,0.2-2.6-0.1c-0.6-0.3-1.4-1.2-1.9-2c-0.5-0.8-1-1.6-0.5-2.6
		c0.6-1,0.1-1.7,1.8-1.9s2.2-0.8,3.2-0.4c1,0.4,1.2,0.5,2.9,0.8c1.7,0.3,3.4,1,3,0.3c-0.5-0.6-0.8-1.4-2.1-1.5s-2.1,0.1-2.5-0.5
		c-0.5-0.6-1.4-0.6-0.4-1.4s1.9-1.6,2.5-2.7c0.6-1.1,1-1.9,1-2.8s-0.1-1.4-0.7-1.9c-0.6-0.5-0.4-0.8-1.7-1.2
		c-1.3-0.5-2.3-1.3-3.1-1.2s-2.4,0.1-3.7,0.1c-1.3,0-2.8-0.2-5.6,0c-2.8,0.2-5.5,1-5.6,1c-0.1,0,0.9,0.7-1.6-0.6
		c-2.5-1.3-3.2-1.8-4.8-3c-1.5-1.1-3-2.2-3.6-2.6s-1-0.4-2.4-0.9c-1.4-0.5-1.6-0.6-4.5-1.3c-2.9-0.6-4.5-1.6-4.7-0.1
		c-0.2,1.5,0.3,2.3-0.3,2.8s-1.1,1.1-2.3,0.7c-1.3-0.4-1.2-0.8-1.2-0.8s0.1-0.4-0.1-0.8s-1-0.3-1.7-0.8c-0.8-0.4-1.2-1.1-2.8-1.5
		c-1.6-0.4-4-0.7-1.7-0.7s2.7,0.3,4.5,0.7c1.9,0.5,3.3,1.4,3.4,1.4c0.1,0,0.9-1.1,0.3-1.4c-0.6-0.3-1.5-1-2.8-1.7
		c-1.4-0.6-1.2-0.5-2.7-1.2s-1.5-1.1-2.9-1.5c-1.4-0.5,1.4-0.3,0.6-0.6c-0.8-0.3-2.4-1.1-4.8-1.4c-2.4-0.3-4.1-0.7-7.2-2.9
		c-3.1-2.2-3.9-2.5-4.6-3.7c-0.8-1.2-1.3-2-2-2.8c-0.8-0.8-1.6-2.4-1.8-1.1s-3.8-2.6-3.8-2.6s-1.8-1.5-2.5-2s-2.9-1.8-3.3-1.9
		c-0.4-0.1-2.3,2.7-2.3,2.9c0,0.1-0.7,0.4,0.2,1.1c1,0.6,2.1,1.4,3.8,2c1.7,0.7,2.8,1.4,4.2,1.9c1.4,0.6,2.1,0.8,2.8,1.4
		c0.6,0.6,1.5,1.7,1.1,2.6c-0.4,0.9,0,2.1-1.4,2.2c-1.4,0.1-3.2,0.3-3.4-0.6c-0.2-0.9,0.5-3.1-0.1-3.7c-0.6-0.6-1.1-1.5-2.4-1.4
		s-1.7,1-2.6,0s-0.8-1.6-2-2.4s-2.1-1.6-2.8-2.1c-0.7-0.5-0.8-0.8-2-1.7s-2.1-1.5-3.2-1.8c-1.1-0.3-1.3-0.8-2.5-1
		c-1.2-0.2-2.7-0.3-3.4-0.7s-1.4-0.4-2.4-1.5c-1-1.1-1.6-1.5-2.4-2.9c-0.8-1.4-0.9-1.9-1.2-2.2c-0.2-0.3-1.5-0.8-1.5-0.8
		s0.7-0.1,2.3-0.6c1.6-0.5,2.8-0.6,1.5-1.1s-2.9-0.8-3.1-0.8s-0.8,0.6-1.1,0.9c-0.3,0.3-1.1,0.8-1.4,1.1c-0.2,0.3-1,0.8-1.2,1.1
		c-0.2,0.3-1.4,0-1.4-0.4c0-0.5-0.5-1.9-0.5-1.9c-0.5-0.2-0.6,0-1.6-1.4c-1.1-1.4-1.5-2-2.4-2.8c-0.9-0.8-2.2-1.3-3.5-2.5
		c-1.3-1.3-1.8-2.6-2.5-2.2c-0.7,0.4-2.2,1.4-2.8,1.4c-0.6,0-2.8-0.7-3.7-1.2s-1.9-0.4-2.7-1.4s-1.7-2.3-1.9-2.8s-0.7-1.3-1.6-1.5
		c-1-0.3-2.4-0.5-3.4-0.8c-1-0.3-1.8,0.9-3.5-1.3c-1.6-2.1-1.6-2.1-2.5-2.6s-2.5-1.4-2.5-1.4s-0.5-0.4-0.5,0.8s-0.2,1.9-0.2,2.5
		s1,1.5,0,0.6s-1.5-1.4-1.8-2s-0.8-1.5-1.4-2c-0.6-0.6-2.5-1-3-0.9c-0.5,0.1-4.1-0.1-4.1-0.1s-2.2,0.3-4,0.6
		c-1.7,0.3-2.1,0.7-4.7,0.4s-4.1-0.7-5.9-1.1s-3.2-0.6-4.6-1.5c-1.5-0.9-3.7-1.2-4.6-2.2c-1-1.1-0.7-1.8-0.7-1.8s0,0.3-1.2-0.3
		s-2.4-1.7-2.9-2.3c-0.5-0.6-0.9-1.2-1.6-2.3s-1-1.5-1.4-2.5s-0.6-1.3-1.2-2.3s-1.3-2.3-1.3-2.3s-0.8-0.4-1.4,0
		c-0.6,0.4,1.7,2.1-1.9-0.2c-3.6-2.3-4.8-3.1-5.2-3.3c-0.4-0.3-2.6-1.4-3.4-1.7c-0.8-0.3-2.5-0.5-3.2-1.3c-0.8-0.8-1.7-2.6-2.5-3
		s-3.7-0.5-4.4,0c-0.6,0.5-1.9,1.8-3.1,2.1c-1.2,0.3-3.7,0.5-3.7,0.5s-1.4-1.2-1-1.7c0.4-0.5,2.2-0.8,3.2-1.2s1.5-0.9,1.2-1.5
		s-0.9-1.5-2.7-0.6c-1.8,0.9-2.5,0.8-3.1,1.5c-0.6,0.8-2.5,1.5-2.5,1.5s-2.6-0.8-3.2-1.2c-0.6-0.4-4.8-2.3-4.8-2.3s-0.5-0.4-1-0.9
		s-3.1-2.3-3.1-2.3h-2.1h-3.4c0,0-0.8,0.9-1.8,1s-3.7,0.3-3.7,0.3s-1,0-2.1,0.3c-1,0.3-5.4-0.1-5.4-0.1s-0.8-1.5-1.2-1.4
		s-2.1-0.4-2.3,0.6c-0.3,1-0.4,1.8-0.4,2.2c0,0.4-2.1,0.4-2.5,0.1c-0.4-0.3-1.2-0.4-1.5-1.2c-0.4-0.8-1.8-2.6-1.8-2.6l-0.6-0.9
		l-0.3-0.2l-0.2-0.4c0,0-0.4-0.2-0.6-0.2s-0.6,0-0.8,0c-0.2,0.1-0.6,0-0.9,0.2s-1.1,0.8-1.5,0.9c-0.4,0.1-1.2,0.3-1.7,0.4
		c-0.6,0.1-1.1,0.1-1.9,0.4c-0.8,0.3-1,0.4-1.5,0.7s-1.3,0.6-1.5,0.8c-0.2,0.2-0.3,0.4-0.5,0.4c-0.2,0-0.9,0.2-1-0.3
		c0-0.5,0-1.5-0.2-2.1c-0.2-0.6-1.2-1.6-1.3-1.7c-0.1-0.1,0.1-0.3-0.6-0.4c-0.7,0-2.4,0.1-4.1,0c-1.7-0.1-3.2-0.2-5.2-0.4
		s-2.5,0-3.8-0.3c-1.3-0.3-1.7-0.7-3-1.1c-1.4-0.3-1.4-0.5-2.7-0.6c-1.3-0.1-2.5-0.2-3.7-0.2c-1.2,0-1.3,0-3,0s-3,0.4-4.4,0.5
		s-2.2,0-3.2,0.1c-1,0-1.5,0.1-2.2,0.3c-0.7,0.2-1.6,0.6-2.6,0.8s-4.5,3.9-4.5,3.9s-0.1-0.1-2.5,0.6c-2.3,0.8-4.9,1.7-5.7,1.8
		c-0.8,0.1-3.7,0-4.3,0s-2.2-0.3-3.1-0.1c-0.9,0.1-3.1,0.3-4.6,0.5c-1.5,0.3-2.8,0.4-3.9,0.6c-1,0.3-2.6,0.4-3.1,0.4
		s-3.1,0.6-3.1,0.6l-0.9,1.7l-1.4-0.4l-1.9-0.9c0,0-1.2-0.1-1.9,0.1c-0.8,0.3-3,1.2-3.5,1.4c-0.5,0.3-1.7,0.3-2.5,1
		c-0.8,0.8-1.3,1.4-1.7,2.2c-0.4,0.8,0.5,0.5-0.4,0.8c-0.9,0.3-1.5,0.5-1.9,0.5s-2.1,0.1-2.8,0c-0.8-0.1-1.5-1.7-2.6-0.1
		c-1,1.5-1.4,1.9-2.8,2.8c-1.4,0.9-2.6,1.2-3.2,1.4s-2.3,0.1-3.2,0.4c-0.9,0.3-2.7,0.3-3.5,0.5c-0.8,0.3-2.1,0.4-3,1.2
		c-0.9,0.8-1.2,0.6-2.5,1.5s-2.7,1.5-3.5,2.1s-2.1,1-2.6,1.4c-0.5,0.4-2.2,0.6-2.8,1s-1,0.3-1.5,1c-0.5,0.8-0.8,1.3-1,1.7
		c-0.3,0.4-0.5,1-0.5,1l0.9,1.4c0,0-0.5,0.5-1.4,1.2c-0.9,0.7-3,1.5-3.3,1.8c-0.3,0.3-0.7,0.4-1.5,1.5c-0.9,1.1-2.9,4.9-2.9,4.9
		s-0.8,1-0.9,1.7c-0.1,0.8-0.8,0.9-0.4,2.3c0.4,1.5,0.8,2.2,1.2,2.9c0.4,0.7,0.1,0.8,0.9,1.6c0.8,0.9,1.5,1.5,2.2,2.2
		s1.2,1.2,1.6,1.6s0.4,0.6,0.6,1c0.2,0.4,0.4,1.8,0.4,1.8l-0.5,0.4L32.6,227.1z"/>
</g>
<g id="Layer_3">
	<path class="st0" d="M113.7,239.7c0,0-0.5,1.7-0.5,2.2s-0.2,1.5,0.2,2.1s0.8,1,1.5,1.9s1,0.9,0.8,1.6c-0.2,0.8-0.2,0.8-1.3,1.5
		c-1.1,0.8-3,1.2-3.4,1.4c-0.4,0.2-1.5,0.5-2.5,1c-1.1,0.5-1.6,0.3-3.6,1.1c-1.9,0.8-2.4,1.2-3.6,1.4c-1.2,0.2-2.4,0.4-3.8,0
		c-1.4-0.4-2-0.4-3.3-0.6c-1.3-0.2-2.7-0.9-3-1c-0.3-0.1-1.9-2.3-2.4-2.4s-1.2-0.4-1.3-0.9c-0.1-0.6-0.5-2.1-0.5-2.1s0.1-0.2,1.3,0
		c1.2,0.2,0.9,0.8,2.7,1.5c1.8,0.7,3,0.9,3.8,0.7c0.8-0.2,1.2-0.3,1.5-1.1c0.3-0.8,0.4-1.9,0-2.4c-0.4-0.5-1.6-1.6-1.8-1.9
		c-0.2-0.3-0.9-2.7-0.9-2.7s-0.8-1.4-1.3-1.8s-1.1-1.3-1.1-1.3s-0.2-0.9,0.8-1.8c1-1,0.8-1.5,2.8-2.5s3.4-1.8,3.9-1.9
		s2.7-0.9,2.7-0.9s1-1,2,0s1.9,1,2.9,1.5c1,0.5,1.6,0.8,2.4,1.5c0.8,0.7,1.2,0.9,1.6,1.5s0.6,0.5,1.3,1.1
		C112.4,236.7,113.7,239.7,113.7,239.7z"/>
	<path class="st0" d="M357.5,238.3c0,0-0.1-0.1-1-0.8s-1.8-1-2.7-1.7c-0.9-0.7-1-1-2.1-2s-1.7-1.4-2.1-1.9c-0.4-0.6-0.3-1-0.8-1.3
		c-0.5-0.3-0.8-0.9-1.4-0.1c-0.6,0.8-0.6,1.4,0,2c0.6,0.6,1.4,1.2,1.9,1.7c0.6,0.5,1,1,1.5,1.6c0.5,0.6,0.8,0.8,1.6,1.5
		c0.7,0.6,1,1,1.5,1.2c0.5,0.3,1.5,0.6,1.5,0.6L357.5,238.3z"/>
	<path class="st0" d="M345.4,227.1c-0.2,0.8-0.2,1.3-1,1.7c-0.8,0.5-1,0.5-2.1,0.7s-2.5,0.3-3.4,0.2s1.5-1.3,1.2-1.3
		c-0.3,0-1,0.1-1.7,0s-0.7-0.2-1.4-0.3c-0.7-0.1-1.3-0.3-1.8-0.4c-0.5-0.1-1.4,0-1.5-0.3c-0.1-0.3,0.1-0.6-0.5-1.5
		c-0.6-0.8-1.9-1.4-2.3-2.1c-0.4-0.7-0.3-1.6-0.8-2.7c-0.5-1.1-1.6-1.9-2.2-2.4c-0.6-0.5-1.1-0.6-1.7-1c-0.6-0.4-1.3-0.8-1.2-1.3
		s0.9-1,1-1.3c0.1-0.3-1.3-1-1.4-1.7c-0.1-0.7-1.2-1.7,0-1.5c1.2,0.3,1-0.1,3.3,1.1c2.3,1.2,2.5,1.2,3.3,1.8
		c0.8,0.6,0.1-0.6,1.6,0.8c1.5,1.5,1.4,1,2.2,2.4s1.1,1.4,1.5,2.3c0.4,0.9,0.5,1.4,1,1.7c0.6,0.4,1.3,0.5,2.1,0.8
		c0.8,0.4,1.3,0.5,2.3,0.7c1,0.2,1.8,0.3,2.3,0.6c0.5,0.3,0.8,0.3,0.9,0.7S345.4,227.1,345.4,227.1z"/>
	<path class="st0" d="M324.4,210.6c0,0,0.7-1.1,0-2c-0.7-0.9-1.9-2-2.2-2.2c-0.3-0.2,0.3-0.5-1.4-0.7c-1.6-0.2-3-0.2-4.5-0.5
		c-1.5-0.3-1.4,0.3-2-0.5c-0.6-0.8-1-1-1.4-1.5c-0.5-0.5-0.8-1.2-1.6-1.7s-0.4-1.4-2.8-0.8c-2.4,0.6-2.6,0.8-3.4,1
		c-0.8,0.3-1.6,0.4-2.5,0.1c-0.9-0.3-1.1-0.6-2.3-0.9c-1.2-0.3-1.7-0.8-2.8-1c-1.1-0.2-2.3-0.5-2.6,0.2c-0.3,0.6-0.6,1-0.3,1.6
		c0.3,0.6,0.1,0.9,0.9,1.2c0.8,0.3,1.3,0.4,2.4,0.8c1.1,0.4,1,0.8,2.6,1c1.7,0.3,2.1,0.6,4.5,0.4c2.5-0.2,3.1-0.7,4.6,0
		c1.4,0.7,2.3,1.2,3.1,1.9c0.8,0.7,1.4,1,2.1,1.8c0.7,0.8,0.6,1,1.3,1.7c0.6,0.7,1.2,1.3,2.1,1.3s1.5-0.1,2.3,0
		c0.7,0.1,0.8-0.1,1.4,0c0.6,0.1,0.7,0.1,1.1,0c0.4-0.1,0.7-0.2,0.9-0.3C323.9,211.5,324.4,210.6,324.4,210.6z"/>
</g>
<g id="Layer_4" class="st1">
	
		<image style="display:inline;overflow:visible;" width="615" height="368" xlink:href="E0BA5C93.jpg"  transform="matrix(1 0 0 1 -51.5 72)">
	</image>
</g>
<g id="Layer_5">
	<path class="st0" d="M276.5,283.9c-0.3-0.2-0.1-0.2-0.3-0.2s-0.6,0-0.6,0l-0.4-0.2c0,0-0.3-0.2-0.3,0s-0.4,0.3,0,0.5
		c0.4,0.2,0.4,0.2,0.6,0.3c0.2,0.1,0.4-0.1,0.5,0c0.2,0.1,0.4,0,0.4,0l0.1,0V283.9z"/>
	<path class="st0" d="M276.8,283.9C276.8,283.9,276.8,283.9,276.8,283.9c0.1,0.1,0.1,0.1,0.2,0c0.2-0.1,0.2-0.4,0.4-0.2
		c0.3,0.2,0.5,0.4,0.6,0.5c0.1,0.1,0.4,0.2,0.6,0.3c0.2,0.1,0.3,0.1,0.6,0.4c0.3,0.2,0.6,0.5,0.6,0.7c0,0.2,0,0.4,0,0.4
		s-0.3-0.1-0.5-0.2c-0.2-0.1-0.7-0.4-0.7-0.6s-0.3-0.5-0.3-0.5c0-0.1-0.2,0.1-0.3,0.2c-0.1,0.1-0.5-0.1-0.5-0.1
		c-0.1-0.1-0.3-0.2-0.4-0.3C277,284.2,276.8,283.9,276.8,283.9z"/>
	<path class="st0" d="M281.5,287.1c0,0,0-0.1,0.4-0.1s0.4-0.1,0.7,0.1s0.2-0.1,0.5,0.2s0.4,0.5,0.6,0.6c0.1,0.1,0.3,0.1,0.5,0.5
		s0.4,0.4,0.5,0.6c0.1,0.2,0.2,0.6,0.4,0.6s0.3,0.2,1,0.5c0.7,0.3,0.7,0.3,1,0.4s0.4,0.2,0.9,0.4c0.5,0.2,1,0.5,1.2,0.6
		c0.2,0.1,0.4,0.2,0.3,0.4c-0.1,0.2,0,0.4-0.3,0.6c-0.2,0.1-0.6,0.2-0.8,0.1c-0.2-0.1-0.7-0.2-0.9-0.5c-0.3-0.2-0.6-0.3-0.7-0.6
		c-0.1-0.3-0.1-0.4-0.1-0.6c-0.1-0.2-0.5-0.3-0.5-0.3l-0.7-0.3l-0.3-0.2c0,0-0.1-0.1-0.1-0.2c-0.1-0.1,0.1,0-0.2-0.1
		c-0.3-0.1-0.6,0.1-0.6-0.2s-0.2-0.5-0.2-0.6c0-0.1-0.1-0.3-0.1-0.3h-0.2c0,0-0.1-0.5-0.3-0.6c-0.2,0-0.3-0.1-0.5,0
		c-0.2,0.1-0.6,0.3-0.6,0.1c0-0.1-0.1-0.2-0.3-0.3c-0.2-0.1-0.3,0-0.4-0.2c-0.1-0.2-0.2-0.3-0.2-0.4
		C281.4,287.2,281.5,287.1,281.5,287.1z"/>
	<path class="st0" d="M290.2,292.7c0,0-0.6,0.2-0.6,0.3c0,0.1,0.1,0.6,0.1,0.6s0.1-0.1,0.3,0s0.5,0.3,0.7,0.4c0.2,0.1,0.3,0,0.3,0
		s-0.2-0.2-0.2-0.3c-0.1-0.1-0.3-0.2-0.4-0.2c-0.1,0-0.4,0.2-0.3,0c0.2-0.2,0.3-0.2,0.7-0.2s0.6,0.1,0.7,0.2c0.1,0,0.2-0.1,0.3,0
		c0.1,0.1,0.3,0.1,0.2,0.2c0,0.1-0.1,0.2-0.3,0.4c-0.2,0.2-0.1,0.3-0.3,0.3s-0.6-0.1-0.9-0.2c-0.2-0.1-0.5-0.2-0.8-0.2
		c-0.3-0.1-0.5-0.2-0.5-0.2l-0.1-0.3c0.1-0.2,0.1-0.2,0.2-0.3c0.1-0.2-0.1-0.5-0.1-0.5L290.2,292.7z"/>
	<path class="st0" d="M307,302.1c0,0-0.3-0.1-0.6-0.2c-0.3-0.1-0.7-0.3-0.8-0.4c-0.1-0.1-0.2-0.2-0.4-0.4c-0.2-0.2-0.4-0.5-0.4-0.5
		s-0.1-0.1-0.2-0.2c-0.1-0.1-0.3-0.3-0.5-0.4c-0.2-0.1-0.6-0.3-0.8-0.3s-0.4-0.1-0.8-0.3c-0.4-0.1-0.9-0.2-1-0.3
		c-0.1,0-0.7-0.1-0.7-0.1s-0.4,0-0.2-0.1s0.4-0.2,0.7-0.2c0.3,0,0.4-0.1,0.6,0c0.3,0.1,0.3,0.2,0.5,0.3c0.2,0.1,0.4,0.2,0.6,0.2
		s0.6,0.1,0.7,0.1s0-0.1,0.3,0.2s0.4,0.3,0.5,0.4c0.1,0.1,0,0.1,0.2,0.3c0.2,0.3,0.4,0.4,0.7,0.6s0.4,0.4,0.6,0.5
		c0.2,0.1,0.2,0.2,0.4,0.2s0.4,0.1,0.5,0c0-0.1,0-0.4-0.2-0.5c-0.2-0.1-0.7-0.3-0.8-0.4c-0.2-0.1-0.4-0.1-0.5-0.3
		c-0.1-0.2-0.2-0.5-0.2-0.6c0-0.1,0.1-0.1,0.1-0.4s0.1-0.3,0-0.4c-0.1-0.1-0.2-0.5-0.2-0.7c-0.1-0.2-0.1-0.3-0.1-0.4
		c0-0.1,0-0.4,0-0.4l0.1-0.3c0,0,0-0.1,0.2-0.2c0.2-0.1,0.3-0.2,0.3-0.2l0.2,0.1v0.3c0.2-0.1,0.5-0.4,0.5-0.4s0.1-0.2,0.1,0
		c0.1,0.3-0.4,0.7-0.4,0.7l0,0.2c0,0,0.1,0.1,0.1,0.2c0,0.1-0.1,0.2-0.1,0.3c-0.1,0.1-0.3,0.1-0.2,0.3c0.1,0.2,0.3,0.3,0.3,0.3
		s0.1,0,0.1,0.2c0,0.2-0.1,0.2-0.1,0.4c0,0.2,0,0.3,0.1,0.4c0.1,0.1,0.1,0.2,0.1,0.3c0.1,0.1,0.1,0.1,0.2,0.2
		c0.1,0.1,0.2,0.1,0.4,0.2c0.1,0.1,0.1-0.2,0.3,0.2c0.2,0.5,0.2,0.5,0.2,0.6C307.2,301.5,307,302.1,307,302.1z"/>
	<path class="st0" d="M305.7,296.3c0,0,0.4-0.5,0.5-0.7s0.1-0.7,0.1-0.7s-0.2-0.3-0.5,0c-0.3,0.3-0.6,0.6-0.7,0.6
		c-0.1,0-0.6,0.1-0.7,0.1c-0.1,0-0.7-0.2-1-0.1c-0.3,0.1-0.7,0.1-0.7,0c0-0.1-0.1-0.4-0.1-0.6s-0.2-0.6-0.2-0.6s-0.3-0.2-0.3,0
		s-0.2,0.2,0,0.7c0.2,0.5,0.4,0.8,0.4,0.9c0.1,0.1,0.3-0.1,0.1,0.1c-0.2,0.2-0.6,0.3-0.6,0.3s-0.5,0-0.6,0c-0.1,0-0.5,0-0.5,0
		s-0.5,0.2,0,0.3s0.8,0.1,1.2,0.1c0.3,0,0.6,0.2,0.8,0c0.2-0.2,0.3-0.4,0.4-0.5c0,0,0.3-0.2,0.6-0.2c0.3,0.1,0.6,0,0.8,0
		s0.4,0,0.4,0L305.7,296.3z"/>
	<path class="st0" d="M300.1,298.1c0,0,0.1-0.2-0.5-0.2s-0.7-0.1-1.2-0.1c-0.5,0-0.8,0-1,0c-0.3,0-0.4,0-0.7,0s-0.5-0.2-0.6,0
		s-0.2,0.3,0.2,0.3c0.3,0,0.6,0.1,0.9,0s0.3-0.1,0.6,0c0.3,0.1,0.7,0.1,0.8,0.2c0.1,0,0.4,0,0.7,0c0.3,0,0.5,0.1,0.5,0.1
		s0.2-0.1,0.2,0C300,298.4,300.1,298.1,300.1,298.1z"/>
	<path class="st0" d="M295.9,296.2c-0.1,0.1,0.1,0-0.2,0.1c-0.3,0.1-0.7,0.2-0.7,0.2s-0.2,0-0.1,0.2c0.1,0.2,0.1,0.4,0.2,0.4
		c0.1,0.1,0.1,0.2,0.3,0.2c0.2,0,0.2,0,0.2,0s-0.2-0.2-0.2-0.3c-0.1-0.1,0-0.3,0.1-0.3c0.1,0,0.4-0.2,0.4-0.2V296.2z"/>
	<path class="st0" d="M294.8,296.1c0,0,0.1-0.3,0-0.3c-0.1,0,0-0.4-0.3-0.3c-0.3,0.1-0.5,0.2-0.5,0.2s-0.3-0.2-0.3-0.3
		c0-0.2-0.3-0.4-0.3-0.5c0-0.1-0.2-0.2-0.2-0.3c0-0.2,0.2-0.3,0-0.3s-0.4,0-0.6-0.1c-0.2-0.1-0.3-0.1-0.4,0c-0.1,0.1,0,0.6,0.3,0.6
		c0.3,0.1,0.6-0.1,0.7,0.1c0.1,0.2,0.1,0.4,0.1,0.6c0.1,0.2,0.1,0.3,0.3,0.4c0.2,0.1,0.4,0.1,0.4,0.2c0.1,0.1,0.1,0,0.3,0.1
		c0.1,0.1,0.2,0.1,0.3,0.1C294.5,296.4,294.8,296.1,294.8,296.1z"/>
	<path class="st0" d="M298.3,295.6c0,0-0.1-0.4-0.1-0.5c0-0.2,0.1-0.4,0.1-0.4s-0.2-0.3-0.3-0.3c-0.1,0-0.3,0-0.4,0.3
		c-0.1,0.3-0.1,0.3-0.1,0.3l-0.3-0.1c0,0-0.2-0.1-0.1,0.2c0.1,0.2,0.3,0.2,0.5,0.5c0.2,0.3,0,0.3,0.2,0.3
		C298.2,295.8,298.3,295.6,298.3,295.6z"/>
	<path class="st0" d="M298.8,292.9l-0.3-0.5c-0.1-0.1-0.3,0-0.3,0l-0.2,0.2c0,0,0.3-0.1,0.3,0.1s0,0.3,0,0.3l0.3,0.2l0.2-0.1
		L298.8,292.9z"/>
	<path class="st0" d="M296.3,284.3c0,0-0.4-0.3-0.4-0.3c-0.1,0.1-0.1-0.2-0.3-0.1c-0.1,0.1-0.2-0.1-0.3,0.2c0,0.3,0,0.4,0.3,0.5
		c0.3,0.1,0.6,0.1,0.6,0.1L296.3,284.3z"/>
	<path class="st0" d="M311,294.3c-0.1,0.1-0.2,0.1-0.4,0.2c-0.2,0.1-0.3,0.2-0.4,0.2c-0.1,0-0.3-0.1-0.3-0.1l-0.3-0.2
		c0,0-0.1,0-0.1,0.1s-0.1,0.2-0.1,0.2c0,0,0.1,0.1,0.1,0.1s0,0,0.1,0.1c0.1,0.1,0.2,0.1,0.4,0.1s0.2,0.1,0.3,0.1s0.8-0.4,0.8-0.4
		C311,294.7,311,294.3,311,294.3z"/>
	<path class="st0" d="M309.4,295.5c0,0-0.1-0.2-0.1-0.3c0-0.1,0.1-0.1,0-0.2c-0.1-0.1-0.1-0.2-0.2-0.2c-0.1,0.1-0.1,0-0.1,0.2
		c0,0.1,0.2,0.3,0.2,0.3C309.2,295.3,309.3,295.4,309.4,295.5C309.4,295.5,309.4,295.5,309.4,295.5z"/>
	<path class="st0" d="M310.1,293.8c-0.1,0.1-0.3,0.2-0.3,0.2c-0.1,0-0.3,0-0.3-0.1c0-0.1-0.1,0,0-0.1c0.1-0.1,0.2-0.1,0.2-0.1
		s0.1,0.1,0.1,0c0-0.1-0.1-0.2,0-0.2s0.1-0.2,0.2-0.1C310,293.6,310.1,293.8,310.1,293.8z"/>
	<path class="st0" d="M309.3,292.8c0,0-0.1-0.2-0.2-0.2s-0.1-0.1-0.2-0.1c-0.1,0-0.3,0.1-0.1,0.2c0.1,0.1,0.3,0.1,0.3,0.2
		c0.1,0.1,0.2,0.2,0.2,0.2V292.8z"/>
</g>
</svg>
