<svg id="svg" version="1.1" xmlns="http://www.w3.org/2000/svg" xmlns:xlink="http://www.w3.org/1999/xlink" width="400" height="464.51612903225805" viewBox="0, 0, 400,464.51612903225805"><g id="svgg"><path id="path0" d="M365.383 0.427 C 365.238 0.662,364.887 0.765,364.603 0.657 C 364.320 0.548,363.708 0.813,363.244 1.245 C 362.352 2.076,362.110 3.200,362.824 3.200 C 363.057 3.200,363.124 3.400,362.972 3.645 C 362.821 3.889,362.946 4.247,363.249 4.439 C 363.648 4.691,363.662 4.789,363.300 4.794 C 363.025 4.797,362.800 5.171,362.800 5.624 C 362.800 6.077,362.620 6.336,362.400 6.200 C 362.180 6.064,362.000 6.143,362.000 6.376 C 362.000 6.609,361.577 6.800,361.060 6.800 C 358.603 6.800,356.343 8.710,358.100 9.302 C 358.498 9.436,358.499 9.592,358.103 10.072 C 357.830 10.403,357.696 10.763,357.805 10.872 C 358.102 11.169,358.479 14.387,358.423 16.144 C 358.396 16.992,358.572 17.925,358.813 18.216 C 359.055 18.507,359.357 19.792,359.486 21.072 C 359.615 22.353,359.907 23.521,360.134 23.670 C 360.406 23.846,360.351 24.182,359.974 24.646 C 359.496 25.235,359.494 25.297,359.962 25.015 C 360.379 24.764,360.435 24.820,360.179 25.235 C 359.989 25.542,359.809 26.334,359.778 26.996 C 359.748 27.658,359.595 29.218,359.438 30.462 C 359.251 31.941,359.301 32.815,359.583 32.989 C 359.819 33.136,359.921 33.404,359.809 33.585 C 359.697 33.766,359.846 34.609,360.141 35.457 C 360.724 37.136,360.683 39.577,360.066 39.960 C 359.854 40.092,359.548 42.225,359.388 44.700 C 359.228 47.175,358.940 49.200,358.749 49.200 C 358.557 49.200,358.400 49.992,358.400 50.961 C 358.400 52.558,358.288 52.761,357.200 53.140 C 356.083 53.529,356.000 53.696,356.000 55.553 C 356.000 56.650,355.824 58.010,355.610 58.574 C 355.275 59.456,355.331 59.607,356.010 59.650 C 357.331 59.734,357.521 59.786,357.867 60.164 C 358.057 60.372,358.005 60.417,357.745 60.269 C 357.487 60.121,357.162 60.395,356.993 60.904 C 356.241 63.162,356.056 75.285,356.770 75.523 C 357.007 75.602,357.200 76.112,357.200 76.657 C 357.200 77.215,357.026 77.539,356.800 77.400 C 356.580 77.264,356.400 77.433,356.400 77.776 C 356.400 78.119,356.150 78.400,355.845 78.400 C 355.081 78.400,354.203 82.680,354.816 83.419 C 355.465 84.201,355.349 88.015,354.625 89.681 C 354.462 90.055,354.463 90.578,354.626 90.843 C 354.815 91.147,354.754 91.219,354.462 91.038 C 354.139 90.838,354.000 91.300,354.000 92.576 C 354.000 93.822,353.842 94.368,353.500 94.300 C 353.138 94.228,353.000 94.973,353.000 97.000 C 353.000 98.908,352.829 99.909,352.463 100.141 C 351.537 100.728,350.800 103.083,350.800 105.456 C 350.800 106.777,350.575 108.003,350.266 108.369 C 349.972 108.716,349.485 109.630,349.183 110.400 C 348.881 111.170,348.401 112.038,348.117 112.329 C 346.828 113.647,348.110 119.683,349.421 118.467 C 349.579 118.320,349.504 118.593,349.254 119.074 C 348.639 120.257,348.670 123.473,349.300 123.767 C 349.700 123.953,349.700 124.047,349.300 124.233 C 349.025 124.362,348.800 124.797,348.800 125.201 C 348.800 126.424,348.365 127.162,347.777 126.936 C 347.471 126.818,346.933 127.010,346.582 127.361 C 346.230 127.713,346.082 128.000,346.251 128.000 C 346.421 128.000,346.344 128.216,346.080 128.480 C 345.556 129.004,345.401 134.230,345.900 134.538 C 346.065 134.641,346.198 135.686,346.196 136.862 C 346.194 138.038,346.324 139.098,346.486 139.217 C 346.647 139.337,346.813 140.379,346.854 141.533 C 346.895 142.687,347.079 143.725,347.264 143.840 C 347.741 144.134,347.683 146.800,347.200 146.800 C 346.712 146.800,346.849 147.689,347.400 148.094 C 347.635 148.267,347.553 148.393,347.200 148.400 C 346.837 148.407,346.762 148.528,347.011 148.706 C 349.165 150.246,347.318 159.109,345.125 157.754 C 344.946 157.643,344.800 157.923,344.800 158.376 C 344.800 158.829,344.939 159.200,345.109 159.200 C 345.544 159.200,346.225 162.379,346.073 163.700 C 346.004 164.305,345.708 164.800,345.416 164.800 C 344.828 164.800,344.400 165.657,344.400 166.833 C 344.400 167.255,344.220 167.600,344.000 167.600 C 343.780 167.600,343.600 167.855,343.600 168.167 C 343.600 168.478,343.436 168.793,343.234 168.867 C 343.033 168.940,342.756 170.614,342.617 172.587 C 342.479 174.560,342.179 176.289,341.952 176.429 C 341.725 176.570,341.435 177.476,341.307 178.442 C 341.156 179.585,340.747 180.485,340.138 181.013 C 339.622 181.460,339.200 182.045,339.200 182.313 C 339.200 182.581,339.020 182.800,338.800 182.800 C 338.580 182.800,338.400 183.166,338.400 183.613 C 338.400 184.059,338.129 184.529,337.798 184.656 C 337.378 184.817,337.216 185.399,337.261 186.588 C 337.310 187.874,337.069 188.626,336.272 189.670 C 335.589 190.565,335.226 191.534,335.239 192.425 C 335.275 194.963,334.049 197.924,333.182 197.389 C 332.964 197.254,332.800 197.837,332.800 198.753 C 332.800 199.633,332.609 200.471,332.376 200.615 C 332.143 200.759,331.983 201.264,332.021 201.738 C 332.058 202.212,332.069 202.825,332.044 203.100 C 331.991 203.706,330.800 203.777,330.800 203.175 C 330.800 202.936,330.230 202.804,329.500 202.875 C 328.722 202.950,328.240 203.201,328.300 203.500 C 328.355 203.775,328.230 204.000,328.022 204.000 C 327.540 204.000,327.510 211.097,327.991 211.394 C 328.720 211.845,329.542 214.050,329.302 214.911 C 328.668 217.186,329.061 221.240,330.163 223.800 C 330.542 224.680,330.956 225.940,331.082 226.600 C 331.209 227.260,331.474 228.115,331.670 228.500 C 331.906 228.961,331.877 229.200,331.585 229.200 C 331.341 229.200,331.210 229.515,331.294 229.900 C 331.377 230.285,331.120 231.381,330.722 232.336 C 330.323 233.291,330.097 234.234,330.220 234.432 C 330.342 234.629,330.195 234.696,329.895 234.581 C 328.987 234.233,327.103 236.265,327.417 237.254 C 327.571 237.737,327.491 238.220,327.232 238.380 C 326.983 238.534,326.725 239.637,326.659 240.830 C 326.594 242.024,326.329 243.393,326.070 243.874 C 325.812 244.354,325.600 245.083,325.600 245.494 C 325.600 245.904,325.404 246.436,325.165 246.675 C 324.418 247.422,324.621 251.043,325.499 252.635 C 325.752 253.095,325.859 253.853,325.737 254.321 C 325.605 254.826,325.776 255.433,326.157 255.814 C 326.857 256.514,327.052 257.803,326.396 257.398 C 325.165 256.637,324.400 257.638,324.400 260.013 C 324.400 261.989,324.266 262.444,323.572 262.815 C 322.904 263.173,322.763 263.586,322.847 264.946 C 322.904 265.873,322.818 266.847,322.657 267.108 C 322.495 267.370,322.525 267.902,322.723 268.292 C 323.141 269.115,323.120 271.813,322.692 272.241 C 322.531 272.402,322.400 272.786,322.400 273.095 C 322.400 273.404,322.130 273.927,321.800 274.257 C 320.009 276.048,321.340 278.542,324.200 278.755 C 325.080 278.821,326.004 279.042,326.253 279.247 C 326.719 279.631,329.160 279.605,329.125 279.217 C 328.944 277.225,329.259 276.400,330.200 276.400 C 331.304 276.400,331.712 274.305,330.700 273.833 C 330.300 273.647,330.300 273.553,330.700 273.367 C 331.560 272.966,331.321 270.492,330.394 270.198 C 329.951 270.057,329.692 269.775,329.818 269.571 C 329.944 269.367,329.846 269.200,329.600 269.200 C 329.354 269.200,329.276 269.001,329.426 268.757 C 329.617 268.449,329.779 268.443,329.962 268.739 C 330.107 268.972,330.588 269.136,331.033 269.103 C 331.931 269.035,332.230 267.759,331.542 266.930 C 331.238 266.564,331.300 266.243,331.760 265.783 C 332.554 264.989,332.573 263.742,331.814 262.287 C 331.423 261.536,331.391 261.262,331.717 261.446 C 332.067 261.643,332.062 261.569,331.700 261.179 C 330.783 260.191,331.129 259.600,332.624 259.600 C 333.407 259.600,333.965 259.465,333.866 259.300 C 333.629 258.909,334.640 257.974,334.957 258.291 C 335.091 258.424,335.200 258.053,335.200 257.467 C 335.200 256.880,335.369 256.400,335.576 256.400 C 336.379 256.400,336.381 257.213,335.580 258.749 C 334.620 260.591,334.969 261.855,336.499 262.072 C 337.424 262.203,337.597 263.000,336.700 263.000 C 335.879 263.000,335.200 263.877,335.200 264.938 C 335.200 265.485,335.425 266.009,335.700 266.102 C 336.094 266.234,336.088 266.406,335.672 266.910 C 335.326 267.329,335.176 268.465,335.239 270.188 C 335.297 271.790,335.151 273.009,334.867 273.293 C 334.610 273.550,334.400 274.354,334.400 275.080 C 334.400 275.942,334.207 276.400,333.843 276.400 C 332.979 276.400,332.817 277.305,333.041 280.879 C 333.155 282.695,333.120 284.054,332.965 283.898 C 332.809 283.742,332.334 284.015,331.910 284.504 C 330.830 285.749,331.019 289.574,332.197 290.286 C 332.987 290.764,332.986 290.772,332.126 290.786 C 331.426 290.797,331.287 290.990,331.427 291.757 C 331.536 292.363,331.380 292.799,331.000 292.945 C 330.261 293.228,329.200 292.856,329.200 292.314 C 329.200 292.085,328.766 292.022,328.190 292.167 C 327.268 292.398,327.223 292.352,327.670 291.636 C 327.940 291.205,328.304 290.941,328.480 291.049 C 328.656 291.158,328.800 290.877,328.800 290.424 C 328.800 289.971,328.575 289.586,328.300 289.568 C 328.025 289.551,328.295 289.356,328.900 289.135 C 329.995 288.735,330.643 285.600,329.631 285.600 C 329.428 285.600,329.057 284.979,328.806 284.219 C 328.280 282.625,327.441 282.244,325.328 282.640 C 322.822 283.110,322.018 284.926,323.931 285.795 C 324.947 286.256,325.043 286.901,324.200 287.600 C 323.870 287.874,323.600 288.610,323.600 289.236 C 323.600 290.084,323.447 290.316,323.000 290.145 C 322.670 290.018,322.400 290.114,322.400 290.357 C 322.400 290.601,322.055 290.800,321.633 290.800 C 320.296 290.800,319.600 291.258,319.594 292.143 C 319.589 292.772,319.497 292.857,319.246 292.461 C 319.058 292.164,318.566 291.986,318.152 292.064 C 316.993 292.284,316.856 295.388,317.978 295.988 C 318.528 296.283,318.800 296.291,318.800 296.014 C 318.800 295.786,318.980 295.600,319.200 295.600 C 319.420 295.600,319.555 295.760,319.500 295.956 C 319.445 296.153,319.776 296.648,320.235 297.056 C 321.596 298.269,321.731 300.096,320.584 301.786 C 319.532 303.336,319.357 304.000,320.000 304.000 C 320.886 304.000,320.369 305.521,319.400 305.764 C 318.754 305.926,318.400 306.296,318.400 306.808 C 318.400 307.243,318.226 307.600,318.013 307.600 C 317.799 307.600,317.720 307.847,317.836 308.148 C 318.072 308.763,317.104 309.285,315.600 309.354 C 314.713 309.395,314.597 309.580,314.572 311.000 C 314.521 313.985,314.045 315.417,312.795 316.340 C 312.138 316.826,311.600 317.489,311.600 317.812 C 311.600 318.135,311.268 318.400,310.862 318.400 C 310.456 318.400,309.781 318.791,309.362 319.269 C 308.872 319.828,308.814 320.021,309.200 319.810 C 309.688 319.544,309.706 319.583,309.300 320.021 C 307.781 321.658,309.606 325.977,311.824 325.994 C 313.491 326.006,315.108 323.546,313.939 322.776 C 313.753 322.653,313.843 322.220,314.140 321.814 C 314.650 321.117,314.722 321.145,315.408 322.306 C 315.909 323.153,316.553 323.615,317.479 323.788 C 318.218 323.927,318.730 324.189,318.618 324.372 C 318.505 324.554,318.943 324.809,319.590 324.938 C 320.712 325.162,320.747 325.232,320.338 326.405 C 319.983 327.423,320.031 327.772,320.617 328.418 C 321.023 328.868,321.128 329.200,320.862 329.200 C 320.608 329.200,320.400 329.481,320.400 329.824 C 320.400 330.167,320.220 330.336,320.000 330.200 C 319.774 330.060,319.600 330.388,319.600 330.953 C 319.600 331.503,319.407 332.072,319.172 332.217 C 318.937 332.363,318.604 332.859,318.434 333.321 C 318.170 334.034,317.829 334.147,316.162 334.078 C 313.672 333.974,312.629 334.690,312.961 336.272 C 313.234 337.568,312.920 338.145,311.840 338.331 C 310.326 338.593,309.896 339.492,310.079 342.018 C 310.197 343.649,310.106 344.400,309.790 344.400 C 309.007 344.400,309.183 352.242,309.985 353.087 C 310.582 353.715,310.576 353.824,309.916 354.484 C 308.966 355.434,309.012 355.864,310.179 356.945 C 311.354 358.034,311.780 359.878,311.030 360.628 C 310.736 360.921,310.373 361.040,310.223 360.890 C 310.074 360.741,309.993 361.649,310.044 362.909 L 310.137 365.200 311.468 365.200 C 312.201 365.200,312.800 365.380,312.800 365.600 C 312.800 365.820,312.620 366.000,312.400 366.000 C 312.180 366.000,312.000 366.821,312.000 367.824 C 312.000 368.937,311.844 369.551,311.600 369.400 C 311.349 369.245,311.174 370.279,311.130 372.176 C 311.091 373.839,311.029 375.743,310.990 376.406 C 310.903 377.896,311.535 378.815,312.708 378.903 C 313.198 378.940,313.603 379.157,313.606 379.385 C 313.609 379.613,313.784 379.530,313.995 379.200 C 314.556 378.320,315.766 379.197,315.933 380.604 C 316.006 381.222,316.336 382.141,316.667 382.646 C 317.437 383.821,317.127 384.303,315.718 384.128 C 313.764 383.885,313.249 384.697,313.118 388.231 C 313.004 391.279,313.033 391.395,313.865 391.281 C 314.340 391.215,314.863 391.378,315.026 391.643 C 315.227 391.968,315.154 392.019,314.799 391.799 C 314.408 391.558,314.332 391.695,314.499 392.337 C 314.623 392.811,314.573 393.293,314.387 393.408 C 313.933 393.689,314.202 394.926,314.973 396.102 C 315.319 396.631,315.491 397.176,315.354 397.313 C 315.049 397.617,316.177 398.800,316.771 398.800 C 317.007 398.800,317.200 399.145,317.200 399.567 C 317.200 401.081,317.658 401.600,318.996 401.600 C 320.402 401.600,320.742 401.045,320.834 398.600 C 320.879 397.433,320.888 397.427,321.175 398.400 C 321.338 398.950,321.680 399.355,321.935 399.300 C 322.191 399.245,322.406 399.605,322.413 400.100 C 322.430 401.242,323.711 402.800,324.634 402.800 C 325.261 402.800,325.242 402.903,324.470 403.726 C 323.991 404.235,323.605 404.820,323.612 405.026 C 323.631 405.656,325.953 408.000,326.557 408.000 C 326.928 408.000,327.053 408.277,326.916 408.800 C 326.685 409.683,326.194 409.838,325.776 409.162 C 325.627 408.921,324.897 408.795,324.153 408.881 C 323.409 408.968,322.800 408.894,322.800 408.716 C 322.800 407.408,319.507 405.373,318.186 405.865 C 317.453 406.138,317.594 407.871,318.409 408.608 C 318.844 409.002,319.200 409.553,319.200 409.833 C 319.200 410.528,320.380 411.659,320.821 411.387 C 321.016 411.266,321.292 411.626,321.433 412.187 C 321.594 412.830,322.060 413.300,322.694 413.459 C 323.544 413.673,323.599 413.769,323.050 414.076 C 322.016 414.654,322.223 416.340,323.363 416.626 C 324.916 417.016,326.112 416.142,325.909 414.764 C 325.698 413.322,326.070 413.300,327.603 414.666 C 329.097 415.997,329.111 416.400,327.664 416.400 C 326.697 416.400,326.451 416.633,326.009 417.973 C 325.473 419.598,325.979 420.800,327.200 420.800 C 327.896 420.800,328.600 421.705,328.600 422.600 C 328.600 423.179,328.870 423.402,329.574 423.409 C 330.706 423.418,331.527 425.364,330.624 425.900 C 327.786 427.582,330.281 429.363,335.165 429.141 C 338.505 428.989,339.419 429.621,337.963 431.077 C 337.647 431.393,337.662 431.768,338.017 432.432 C 338.960 434.195,339.280 434.340,340.683 433.644 C 341.921 433.029,342.113 432.687,342.107 431.100 C 342.105 430.715,342.401 430.400,342.765 430.400 C 343.452 430.400,343.572 431.562,343.021 432.867 C 342.708 433.610,342.903 435.823,343.377 436.900 C 343.604 437.415,344.154 437.600,345.460 437.600 C 347.697 437.600,348.249 438.113,348.066 440.026 C 347.918 441.583,349.937 443.473,350.601 442.399 C 351.024 441.715,352.000 441.963,352.000 442.754 C 352.000 443.592,353.350 444.622,354.986 445.032 C 355.575 445.180,356.267 445.638,356.524 446.050 C 357.092 446.959,357.731 447.006,358.408 446.190 C 358.686 445.855,358.994 445.660,359.091 445.757 C 359.430 446.097,360.800 444.617,360.800 443.911 C 360.800 443.520,360.944 443.200,361.120 443.200 C 361.296 443.200,361.366 443.830,361.276 444.600 C 361.149 445.688,361.256 446.000,361.756 446.000 C 362.110 446.000,362.400 446.177,362.400 446.392 C 362.400 446.608,362.837 446.894,363.371 447.028 C 363.905 447.163,364.444 447.537,364.568 447.861 C 364.693 448.186,364.956 448.351,365.155 448.228 C 365.353 448.106,365.636 448.488,365.784 449.078 C 366.331 451.260,371.168 452.346,371.225 450.300 L 371.251 449.400 371.612 450.300 C 372.014 451.300,374.187 451.599,374.517 450.700 C 374.663 450.300,374.806 450.300,375.230 450.700 C 375.522 450.975,376.076 451.200,376.463 451.200 C 376.872 451.200,377.602 451.944,378.209 452.980 C 379.151 454.586,379.348 454.724,380.226 454.390 C 381.142 454.042,381.200 454.102,381.200 455.410 C 381.200 456.694,381.294 456.800,382.424 456.800 C 383.137 456.800,383.544 456.967,383.400 457.200 C 383.070 457.733,384.247 457.710,385.269 457.163 C 385.860 456.847,386.207 456.847,386.523 457.163 C 387.843 458.483,389.299 457.386,388.760 455.477 C 388.585 454.859,388.535 454.113,388.649 453.818 C 388.762 453.522,388.662 453.162,388.427 453.017 C 388.192 452.872,388.000 452.403,388.000 451.976 C 388.000 451.549,387.820 451.200,387.600 451.200 C 387.380 451.200,387.200 450.919,387.200 450.575 C 387.200 450.219,386.898 449.980,386.500 450.021 C 385.222 450.151,384.800 450.006,384.800 449.435 C 384.800 449.125,384.575 448.918,384.300 448.975 C 382.981 449.250,382.400 449.765,382.400 450.658 C 382.400 451.598,382.374 451.607,381.647 450.916 C 380.931 450.236,380.190 447.964,380.470 447.307 C 380.632 446.926,384.453 447.167,385.000 447.592 C 385.907 448.299,391.456 448.487,392.111 447.832 C 392.573 447.370,392.779 447.336,392.901 447.703 C 393.023 448.068,393.442 447.996,394.494 447.429 C 395.446 446.916,395.845 446.462,395.693 446.065 C 395.544 445.678,395.628 445.570,395.932 445.758 C 396.683 446.222,396.471 445.243,395.624 444.334 C 394.668 443.308,393.111 443.576,392.535 444.867 C 392.267 445.468,392.047 445.599,391.847 445.276 C 391.685 445.014,391.743 444.800,391.976 444.800 C 392.209 444.800,392.400 444.175,392.400 443.410 C 392.400 442.005,391.037 440.800,389.448 440.800 C 389.123 440.800,388.590 440.532,388.263 440.205 C 387.781 439.724,386.543 439.629,381.734 439.705 L 375.800 439.800 375.800 422.205 L 375.800 404.611 374.619 404.045 C 373.578 403.546,373.301 403.557,372.286 404.139 C 371.653 404.503,370.895 404.800,370.602 404.800 C 370.085 404.800,368.000 401.511,368.000 400.697 C 368.000 400.151,371.233 400.606,371.602 401.204 C 371.760 401.459,372.004 401.653,372.145 401.634 C 373.555 401.445,375.256 401.713,375.743 402.200 C 376.823 403.280,377.600 402.940,377.600 401.387 C 377.600 399.935,377.286 399.640,375.539 399.454 C 375.004 399.397,374.349 399.216,374.083 399.051 C 373.817 398.887,373.600 398.852,373.600 398.972 C 373.600 399.093,373.248 398.891,372.817 398.522 C 371.949 397.779,371.389 397.606,368.900 397.317 C 367.965 397.208,367.200 396.958,367.200 396.760 C 367.200 396.562,367.065 396.428,366.900 396.462 C 366.735 396.496,365.931 396.226,365.113 395.862 C 364.295 395.498,363.440 395.200,363.213 395.200 C 362.986 395.200,362.800 395.062,362.800 394.893 C 362.800 394.725,361.720 394.587,360.400 394.587 C 359.080 394.587,358.000 394.738,358.000 394.922 C 358.000 395.556,346.012 395.069,345.611 394.419 C 345.414 394.100,345.330 393.713,345.424 393.561 C 345.518 393.409,345.301 393.171,344.940 393.032 C 344.580 392.894,344.386 392.680,344.510 392.557 C 344.778 392.289,343.569 390.800,343.083 390.800 C 342.112 390.800,341.493 389.547,341.998 388.603 C 342.277 388.083,342.416 387.195,342.308 386.629 C 342.199 386.063,342.266 385.600,342.455 385.600 C 343.031 385.600,342.840 384.131,342.195 383.596 C 341.777 383.249,341.714 382.945,341.992 382.610 C 342.212 382.344,342.275 382.008,342.130 381.863 C 341.985 381.718,342.077 381.600,342.333 381.600 C 342.620 381.600,342.800 380.905,342.800 379.800 C 342.800 378.810,342.651 378.000,342.469 378.000 C 342.287 378.000,342.217 377.467,342.313 376.815 C 342.570 375.057,341.677 374.400,339.029 374.400 C 337.803 374.400,336.800 374.580,336.800 374.800 C 336.800 375.020,336.359 375.200,335.820 375.200 C 335.281 375.200,334.656 375.515,334.432 375.900 C 333.980 376.676,333.988 376.687,333.791 375.000 C 333.360 371.303,333.016 370.141,332.098 369.281 C 331.421 368.647,331.187 368.094,331.342 367.501 C 331.465 367.029,331.369 366.404,331.128 366.113 C 330.801 365.719,330.870 365.386,331.398 364.803 C 331.975 364.164,332.027 363.816,331.678 362.910 C 330.444 359.708,330.687 358.665,332.762 358.261 C 334.706 357.882,335.234 357.342,334.794 356.183 C 334.560 355.570,334.578 355.137,334.843 354.974 C 335.069 354.834,335.161 354.477,335.048 354.180 C 334.832 353.619,336.170 352.960,337.140 353.148 C 337.437 353.206,337.578 353.089,337.454 352.887 C 337.329 352.685,337.641 352.299,338.146 352.029 C 339.390 351.363,340.588 349.342,339.902 349.066 C 339.503 348.905,339.503 348.857,339.900 348.832 C 340.175 348.814,340.400 348.609,340.400 348.376 C 340.400 348.143,340.220 348.064,340.000 348.200 C 339.404 348.568,339.512 346.423,340.117 345.871 C 340.401 345.612,340.986 345.200,341.417 344.957 C 343.021 344.049,342.466 338.720,340.721 338.263 C 340.064 338.092,340.011 337.927,340.389 337.221 C 340.635 336.761,340.728 336.207,340.595 335.992 C 340.462 335.776,340.678 335.597,341.076 335.594 C 341.625 335.589,341.671 335.506,341.266 335.250 C 340.837 334.978,340.858 334.863,341.370 334.667 C 341.721 334.532,341.986 334.282,341.960 334.111 C 341.849 333.372,342.537 332.000,343.020 332.000 C 343.309 332.000,343.655 331.656,343.789 331.236 C 343.922 330.815,344.491 330.170,345.053 329.802 C 346.097 329.118,346.209 327.801,345.471 324.880 C 345.308 324.235,345.442 323.882,345.919 323.700 C 347.558 323.072,349.128 317.600,347.669 317.600 C 347.487 317.600,347.415 317.081,347.508 316.447 C 347.601 315.813,347.494 315.182,347.271 315.044 C 346.802 314.754,347.834 312.400,348.429 312.400 C 349.190 312.400,348.764 310.506,347.800 309.600 C 346.637 308.507,346.497 307.272,347.500 306.951 C 350.087 306.124,351.200 304.702,351.200 302.220 C 351.200 301.224,351.021 300.800,350.600 300.800 C 350.270 300.800,350.000 300.530,350.000 300.200 C 350.000 299.870,349.820 299.600,349.600 299.600 C 349.380 299.600,349.200 299.340,349.200 299.023 C 349.200 298.705,348.795 298.145,348.300 297.779 C 347.417 297.125,347.430 297.117,348.982 297.344 C 350.742 297.602,352.000 296.844,352.000 295.525 C 352.000 295.113,352.270 294.671,352.600 294.545 C 353.989 294.012,352.712 290.800,351.111 290.800 C 350.720 290.800,350.400 290.620,350.400 290.400 C 350.400 290.180,349.961 290.000,349.424 290.000 C 348.887 290.000,348.336 290.180,348.200 290.400 C 346.992 292.355,346.342 289.286,347.464 286.922 C 347.959 285.879,348.030 285.253,347.743 284.462 C 347.497 283.782,347.497 282.936,347.743 282.109 C 348.097 280.925,348.016 280.718,346.764 279.615 L 345.400 278.413 346.440 278.406 C 347.343 278.401,347.471 278.242,347.410 277.200 C 347.270 274.808,347.195 274.401,346.900 274.454 C 346.735 274.483,346.015 274.370,345.300 274.204 L 344.000 273.900 344.000 270.374 C 344.000 268.434,344.180 266.736,344.400 266.600 C 344.620 266.464,344.800 266.083,344.800 265.753 C 344.800 265.423,344.657 265.241,344.483 265.349 C 344.309 265.456,344.140 265.197,344.108 264.772 C 344.061 264.153,344.312 264.000,345.376 264.000 C 347.428 264.000,347.795 263.261,347.212 260.297 C 346.942 258.924,346.514 257.670,346.261 257.512 C 345.913 257.295,345.914 257.040,346.263 256.476 C 346.549 256.014,346.590 255.513,346.369 255.164 C 345.872 254.378,345.914 252.732,346.487 250.591 C 346.870 249.160,346.870 248.603,346.487 247.991 C 345.704 246.736,346.243 243.801,347.500 242.471 C 348.221 241.709,348.147 239.600,347.400 239.600 C 347.070 239.600,346.800 239.414,346.800 239.187 C 346.800 238.961,347.070 238.671,347.400 238.545 C 347.730 238.418,348.000 237.989,348.000 237.591 C 348.000 237.192,348.225 236.775,348.500 236.664 C 348.856 236.519,348.873 236.366,348.560 236.130 C 347.812 235.570,347.619 233.600,348.311 233.600 C 349.157 233.600,349.972 232.395,349.987 231.124 C 349.994 230.532,350.161 229.947,350.359 229.825 C 350.833 229.532,350.790 225.200,350.313 225.200 C 349.435 225.200,351.209 224.034,352.443 223.801 C 355.377 223.244,357.081 220.155,355.200 218.800 C 354.760 218.483,354.400 217.849,354.400 217.392 C 354.400 216.934,354.175 216.318,353.900 216.021 C 353.497 215.587,353.505 215.542,353.943 215.791 C 354.746 216.248,354.250 213.270,353.237 211.552 C 352.681 210.610,352.550 210.008,352.811 209.596 C 353.312 208.804,353.304 206.512,352.800 206.200 C 352.580 206.064,352.400 205.593,352.400 205.153 C 352.400 204.698,352.580 204.464,352.818 204.611 C 353.089 204.779,353.202 204.284,353.139 203.209 C 353.085 202.296,352.896 201.460,352.720 201.351 C 352.305 201.094,352.302 199.600,352.717 199.600 C 352.892 199.600,353.207 199.015,353.417 198.300 C 353.710 197.306,354.012 197.011,354.700 197.048 C 355.195 197.074,355.600 196.939,355.600 196.748 C 355.600 196.557,355.851 196.400,356.157 196.400 C 356.752 196.400,357.200 195.565,357.200 194.455 C 357.200 194.067,357.715 193.581,358.400 193.322 C 359.519 192.900,359.600 192.731,359.600 190.811 C 359.600 189.455,359.746 188.843,360.027 189.017 C 360.492 189.304,360.394 187.947,359.924 187.591 C 359.447 187.231,359.436 181.948,359.912 181.655 C 360.154 181.505,360.336 180.846,360.318 180.189 C 360.246 177.667,362.533 172.587,363.905 172.223 C 364.835 171.975,365.259 166.800,364.348 166.800 C 364.157 166.800,364.000 166.350,364.000 165.800 C 364.000 165.250,364.191 164.800,364.424 164.800 C 364.657 164.800,364.756 164.652,364.644 164.471 C 364.532 164.291,364.691 163.661,364.996 163.073 C 366.040 161.060,365.443 159.200,363.751 159.200 C 362.774 159.200,362.298 157.437,363.193 157.133 C 363.961 156.873,363.930 154.244,363.147 153.246 C 362.736 152.721,362.400 152.046,362.400 151.746 C 362.400 151.446,362.220 151.200,362.000 151.200 C 361.780 151.200,361.600 150.905,361.600 150.544 C 361.600 150.183,361.326 149.688,360.990 149.442 C 360.352 148.976,360.556 146.400,361.231 146.400 C 361.414 146.400,361.256 145.860,360.881 145.199 C 360.507 144.539,359.981 144.081,359.713 144.182 C 359.002 144.449,358.552 143.664,358.450 141.976 C 358.417 141.430,358.231 141.254,357.900 141.453 C 357.531 141.675,357.538 141.584,357.924 141.106 C 358.213 140.751,358.402 140.221,358.346 139.930 C 358.079 138.555,358.978 137.362,360.130 137.563 C 360.311 137.594,360.345 137.435,360.206 137.210 C 360.067 136.984,360.118 136.800,360.319 136.800 C 360.521 136.800,360.686 135.774,360.686 134.519 C 360.686 133.157,360.871 132.176,361.145 132.085 C 361.398 132.001,361.501 131.763,361.374 131.557 C 361.247 131.352,361.785 130.915,362.571 130.586 C 363.357 130.258,364.000 129.722,364.000 129.395 C 364.000 129.068,364.145 128.800,364.322 128.800 C 364.499 128.800,364.686 128.080,364.738 127.200 C 364.790 126.320,364.671 125.600,364.473 125.600 C 364.276 125.600,364.013 124.120,363.889 122.311 C 363.765 120.501,363.476 118.959,363.246 118.882 C 362.675 118.692,363.627 117.200,364.320 117.200 C 364.610 117.200,364.736 117.020,364.600 116.800 C 364.464 116.580,364.633 116.400,364.976 116.400 C 365.586 116.400,365.644 116.110,365.801 112.297 C 365.826 111.690,366.061 110.979,366.323 110.717 C 366.586 110.454,366.800 109.950,366.800 109.596 C 366.800 109.242,367.361 108.378,368.047 107.676 C 368.734 106.974,369.162 106.400,368.998 106.400 C 368.835 106.400,368.924 106.132,369.196 105.804 C 369.468 105.477,369.841 105.302,370.025 105.416 C 370.561 105.747,371.199 104.184,371.206 102.526 C 371.211 101.394,371.312 101.155,371.600 101.600 C 371.945 102.133,371.989 102.133,371.996 101.600 C 372.001 101.270,372.266 100.499,372.586 99.887 C 372.905 99.275,372.996 98.879,372.788 99.008 C 372.580 99.136,372.812 98.610,373.305 97.838 C 373.862 96.964,374.524 96.427,375.059 96.417 C 377.723 96.364,379.766 93.923,378.616 92.168 C 378.267 91.636,378.083 91.200,378.207 91.200 C 378.331 91.200,377.975 90.707,377.416 90.104 C 376.327 88.930,376.086 87.441,376.900 86.920 C 377.900 86.280,378.568 85.151,378.113 84.870 C 377.873 84.721,377.567 83.617,377.433 82.415 C 377.300 81.213,377.012 80.052,376.795 79.835 C 376.091 79.131,376.376 77.418,377.378 76.337 C 378.247 75.400,378.642 73.600,377.979 73.600 C 376.453 73.600,376.964 69.872,378.592 69.131 C 379.146 68.878,379.600 68.523,379.600 68.341 C 379.600 68.158,380.320 67.894,381.200 67.754 C 382.080 67.613,382.800 67.341,382.800 67.149 C 382.800 66.957,383.070 66.800,383.400 66.800 C 383.730 66.800,384.000 66.620,384.000 66.400 C 384.000 66.180,384.315 65.992,384.700 65.983 C 385.651 65.960,388.227 64.558,388.089 64.138 C 387.951 63.715,389.288 57.872,389.586 57.600 C 389.941 57.275,390.800 54.604,390.800 53.824 C 390.800 53.429,390.215 52.590,389.500 51.959 C 388.180 50.795,387.600 50.540,387.600 51.123 C 387.600 51.301,387.016 51.405,386.301 51.356 C 385.587 51.306,384.777 51.453,384.501 51.682 C 383.637 52.399,382.867 51.321,382.867 49.394 C 382.867 48.425,382.721 47.399,382.543 47.116 C 382.365 46.832,382.276 46.258,382.345 45.840 C 382.513 44.826,381.593 43.162,381.040 43.478 C 380.798 43.616,380.714 43.600,380.853 43.444 C 380.993 43.288,380.935 42.494,380.725 41.680 C 380.515 40.866,380.298 39.480,380.242 38.600 C 380.119 36.661,379.731 35.713,378.521 34.404 C 378.014 33.856,377.600 33.271,377.600 33.104 C 377.600 32.937,377.330 32.800,377.000 32.800 C 376.242 32.800,376.228 32.240,376.972 31.623 C 378.001 30.769,377.123 28.824,375.700 28.806 C 375.396 28.802,375.200 28.250,375.200 27.400 C 375.200 26.422,375.381 26.000,375.800 26.000 C 376.177 26.000,376.400 25.620,376.400 24.976 C 376.400 24.396,376.573 24.060,376.800 24.200 C 377.020 24.336,377.200 24.177,377.200 23.847 C 377.200 23.517,377.042 23.149,376.848 23.030 C 376.107 22.572,376.104 21.203,376.841 20.353 C 377.819 19.225,377.805 18.189,376.803 17.487 C 376.364 17.180,376.139 16.781,376.303 16.600 C 376.466 16.419,376.395 16.389,376.144 16.532 C 375.580 16.854,373.200 14.487,373.200 13.604 C 373.200 13.250,373.019 12.779,372.799 12.559 C 372.429 12.189,372.138 10.239,372.040 7.476 C 372.012 6.690,371.850 6.443,371.500 6.653 C 371.155 6.860,371.169 6.745,371.545 6.282 C 372.248 5.415,371.853 4.400,370.813 4.400 C 370.366 4.400,370.000 4.209,370.000 3.976 C 370.000 3.743,369.858 3.640,369.685 3.748 C 369.512 3.855,369.330 3.467,369.282 2.886 C 369.234 2.304,368.926 1.678,368.597 1.495 C 368.269 1.311,368.000 0.899,368.000 0.580 C 368.000 -0.105,365.792 -0.234,365.383 0.427 M0.000 95.624 C 0.000 97.171,0.066 97.273,0.900 97.014 C 1.395 96.861,2.215 96.637,2.722 96.517 C 4.522 96.090,3.741 94.225,1.700 94.077 L 0.000 93.954 0.000 95.624 M317.723 279.682 C 316.513 280.261,316.296 281.069,317.099 282.007 C 317.800 282.826,319.600 283.108,319.600 282.400 C 319.600 282.180,319.870 282.000,320.200 282.000 C 320.827 282.000,320.999 280.921,320.494 280.154 C 320.032 279.452,318.683 279.222,317.723 279.682 M314.500 295.465 C 313.971 295.678,313.836 297.106,314.243 298.167 C 314.763 299.524,317.096 298.971,317.061 297.500 C 317.015 295.598,316.057 294.837,314.500 295.465 M330.000 299.624 C 330.000 300.447,330.151 300.754,330.462 300.562 C 330.750 300.384,330.815 300.452,330.634 300.745 C 330.475 301.002,330.177 301.109,329.972 300.983 C 329.768 300.856,329.600 301.153,329.600 301.643 C 329.600 303.042,329.336 302.381,329.064 300.300 C 328.865 298.777,328.933 298.400,329.408 298.400 C 329.802 298.400,330.000 298.810,330.000 299.624 M317.352 373.142 C 317.177 374.014,317.298 374.356,317.862 374.585 C 318.564 374.871,318.561 374.901,317.800 375.193 C 316.647 375.635,316.400 375.349,316.400 373.576 C 316.400 372.454,316.570 372.000,316.990 372.000 C 317.426 372.000,317.520 372.299,317.352 373.142 M322.400 386.613 C 322.400 387.499,322.623 388.111,323.000 388.255 C 323.330 388.382,323.600 388.783,323.600 389.147 C 323.600 389.967,322.234 390.865,321.446 390.562 C 320.800 390.314,319.850 391.697,320.314 392.212 C 320.471 392.386,320.398 392.413,320.152 392.272 C 319.905 392.132,319.597 391.487,319.468 390.840 C 319.192 389.458,318.032 388.948,316.715 389.630 C 315.804 390.102,315.803 390.100,316.595 389.326 C 317.032 388.898,317.752 388.580,318.195 388.619 C 318.638 388.659,319.225 388.513,319.500 388.296 C 319.775 388.080,320.000 388.020,320.000 388.165 C 320.000 388.310,320.360 388.235,320.800 388.000 C 321.324 387.720,321.600 387.162,321.600 386.386 C 321.600 385.734,321.780 385.200,322.000 385.200 C 322.220 385.200,322.400 385.836,322.400 386.613 M364.643 405.433 C 364.509 405.781,364.400 406.192,364.400 406.348 C 364.400 406.503,363.847 406.672,363.171 406.723 C 362.495 406.775,362.044 406.652,362.169 406.450 C 362.293 406.249,362.081 405.950,361.698 405.787 C 361.097 405.531,361.140 405.447,362.000 405.185 C 363.817 404.631,364.911 404.733,364.643 405.433 M357.447 408.000 C 357.210 407.536,357.260 407.543,357.670 408.035 C 357.962 408.384,358.470 408.775,358.800 408.904 C 359.312 409.103,359.307 409.141,358.764 409.168 C 358.040 409.204,357.200 410.800,357.200 412.139 C 357.200 412.634,356.975 413.282,356.700 413.579 C 356.294 414.016,356.312 414.058,356.800 413.800 C 357.261 413.556,357.295 413.597,356.946 413.976 C 356.452 414.511,357.402 417.600,358.061 417.600 C 358.819 417.600,358.335 418.354,357.500 418.472 C 357.005 418.542,356.422 419.005,356.205 419.500 C 355.279 421.612,354.233 419.986,354.351 416.617 C 354.389 415.527,354.570 414.537,354.752 414.417 C 355.173 414.142,356.134 410.145,355.882 409.719 C 355.392 408.889,356.394 407.498,357.081 408.054 C 357.659 408.523,357.710 408.515,357.447 408.000 M350.013 410.579 C 349.501 411.408,348.815 412.000,348.367 412.000 C 347.945 412.000,347.270 412.315,346.867 412.700 C 345.798 413.720,345.247 413.715,345.500 412.686 C 345.784 411.532,346.597 410.799,348.786 409.720 C 350.969 408.644,351.137 408.761,350.013 410.579 M367.600 417.200 C 367.600 417.420,367.375 417.603,367.100 417.606 C 366.767 417.610,366.800 417.742,367.200 418.000 C 367.710 418.330,367.693 418.389,367.086 418.394 C 366.693 418.397,365.967 418.665,365.472 418.989 C 364.978 419.313,364.192 419.637,363.726 419.708 C 363.259 419.779,362.635 420.016,362.339 420.235 C 362.043 420.454,361.305 420.881,360.700 421.184 C 359.881 421.594,359.600 422.030,359.600 422.891 C 359.600 423.527,359.465 423.964,359.300 423.862 C 358.638 423.453,359.023 419.073,359.730 418.969 C 360.100 418.915,360.302 419.034,360.178 419.235 C 360.054 419.436,360.143 419.600,360.376 419.600 C 360.609 419.600,360.800 419.420,360.800 419.200 C 360.800 418.980,361.057 418.800,361.371 418.800 C 361.686 418.800,362.188 418.575,362.488 418.300 C 363.981 416.932,367.600 416.153,367.600 417.200 M353.194 425.900 C 353.189 426.693,353.089 426.844,352.834 426.442 C 352.640 426.135,352.193 425.994,351.840 426.129 C 351.442 426.282,351.200 426.164,351.200 425.817 C 351.200 425.335,351.742 425.026,352.900 424.846 C 353.065 424.821,353.197 425.295,353.194 425.900 M348.800 431.600 C 348.800 431.820,348.451 432.000,348.024 432.000 C 347.597 432.000,347.136 431.820,347.000 431.600 C 346.860 431.373,347.196 431.200,347.776 431.200 C 348.339 431.200,348.800 431.380,348.800 431.600 M371.200 447.600 C 371.200 447.820,370.840 448.000,370.400 448.000 C 369.960 448.000,369.600 447.820,369.600 447.600 C 369.600 447.380,369.960 447.200,370.400 447.200 C 370.840 447.200,371.200 447.380,371.200 447.600 M383.600 453.896 C 383.600 454.173,383.150 454.400,382.600 454.400 C 381.978 454.400,381.600 454.173,381.600 453.800 C 381.600 453.470,381.791 453.200,382.024 453.200 C 382.257 453.200,382.328 453.007,382.182 452.770 C 382.036 452.534,382.295 452.578,382.758 452.867 C 383.221 453.156,383.600 453.619,383.600 453.896 " stroke="none" fill="#ececec" fill-rule="evenodd"></path><path id="path1" d="M357.600 11.824 C 357.600 12.387,357.763 12.746,357.962 12.623 C 358.162 12.500,358.231 12.039,358.116 11.600 C 357.828 10.499,357.600 10.598,357.600 11.824 M359.690 24.581 C 359.782 25.685,360.092 25.583,360.274 24.390 C 360.341 23.955,360.218 23.600,360.002 23.600 C 359.786 23.600,359.645 24.041,359.690 24.581 M378.281 34.161 C 378.677 34.689,379.057 35.067,379.128 35.000 C 379.338 34.799,378.234 33.200,377.885 33.200 C 377.708 33.200,377.886 33.632,378.281 34.161 M383.520 51.680 C 383.893 52.053,384.107 52.053,384.480 51.680 C 384.853 51.307,384.747 51.200,384.000 51.200 C 383.253 51.200,383.147 51.307,383.520 51.680 M356.542 60.648 C 356.511 61.168,356.646 61.495,356.842 61.374 C 357.039 61.252,357.200 60.883,357.200 60.553 C 357.200 60.186,357.394 60.065,357.700 60.241 C 357.975 60.399,358.060 60.374,357.888 60.186 C 357.262 59.497,356.599 59.724,356.542 60.648 M373.099 98.215 C 372.562 98.934,372.516 99.219,372.899 99.440 C 373.175 99.599,373.265 99.579,373.099 99.397 C 372.934 99.214,373.098 98.734,373.463 98.330 C 373.829 97.926,374.055 97.524,373.964 97.437 C 373.874 97.350,373.485 97.700,373.099 98.215 M359.429 137.409 C 359.005 137.729,358.735 138.068,358.829 138.161 C 358.923 138.255,359.425 137.987,359.944 137.566 C 361.038 136.679,360.579 136.539,359.429 137.409 M346.006 139.500 C 346.024 140.377,346.788 140.959,346.794 140.100 C 346.797 139.605,346.620 139.200,346.400 139.200 C 346.180 139.200,346.003 139.335,346.006 139.500 M352.680 209.736 C 352.567 210.031,352.635 210.526,352.831 210.836 C 353.091 211.247,353.189 211.101,353.194 210.300 C 353.201 209.106,353.004 208.890,352.680 209.736 M346.446 250.667 C 346.421 250.924,346.284 251.464,346.141 251.867 C 345.940 252.436,345.994 252.497,346.379 252.142 C 346.652 251.891,346.789 251.351,346.684 250.942 C 346.579 250.534,346.472 250.410,346.446 250.667 M344.112 264.825 C 344.166 265.540,344.234 265.568,344.627 265.031 C 344.875 264.691,345.196 264.530,345.340 264.673 C 345.483 264.816,345.600 264.723,345.600 264.467 C 345.600 264.210,345.251 264.000,344.825 264.000 C 344.288 264.000,344.069 264.254,344.112 264.825 M329.838 269.539 C 329.710 269.746,329.899 270.029,330.260 270.168 C 331.144 270.507,331.350 270.223,330.645 269.638 C 330.303 269.354,329.977 269.314,329.838 269.539 M316.900 279.465 C 316.625 279.576,316.403 279.967,316.406 280.333 C 316.410 280.746,316.524 280.834,316.706 280.566 C 316.868 280.327,317.360 279.927,317.800 279.678 C 318.619 279.214,317.928 279.050,316.900 279.465 M330.836 292.369 C 330.526 292.565,329.986 292.639,329.636 292.533 C 329.099 292.370,329.104 292.407,329.666 292.770 C 330.368 293.225,331.600 292.962,331.600 292.357 C 331.600 291.920,331.545 291.920,330.836 292.369 M320.000 301.800 C 319.717 302.141,319.576 302.509,319.686 302.619 C 319.796 302.729,320.117 302.541,320.400 302.200 C 320.683 301.859,320.824 301.491,320.714 301.381 C 320.604 301.271,320.283 301.459,320.000 301.800 M347.067 307.067 C 346.571 307.563,346.796 308.699,347.500 309.251 C 348.130 309.745,348.147 309.732,347.667 309.119 C 347.367 308.736,347.248 308.080,347.394 307.619 C 347.659 306.784,347.544 306.589,347.067 307.067 M346.000 327.576 C 346.000 328.029,346.180 328.400,346.400 328.400 C 346.620 328.400,346.800 328.141,346.800 327.824 C 346.800 327.507,346.620 327.136,346.400 327.000 C 346.180 326.864,346.000 327.123,346.000 327.576 M330.800 365.487 C 330.800 365.743,330.987 366.069,331.216 366.210 C 331.445 366.352,331.527 366.857,331.397 367.334 C 331.191 368.094,331.215 368.114,331.602 367.498 C 331.938 366.962,331.895 366.585,331.421 365.909 C 331.080 365.421,330.800 365.231,330.800 365.487 M333.234 372.000 C 333.246 372.330,333.411 372.960,333.600 373.400 L 333.944 374.200 333.966 373.400 C 333.978 372.960,333.813 372.330,333.600 372.000 C 333.255 371.467,333.215 371.467,333.234 372.000 M320.100 390.665 C 319.825 390.776,319.600 391.111,319.600 391.410 C 319.600 391.708,319.825 392.082,320.100 392.241 C 320.375 392.399,320.471 392.386,320.314 392.212 C 320.157 392.037,320.208 391.558,320.428 391.147 C 320.648 390.736,320.777 390.414,320.714 390.432 C 320.651 390.449,320.375 390.554,320.100 390.665 M313.052 391.586 C 313.393 391.927,315.167 391.870,314.953 391.524 C 314.847 391.353,314.328 391.248,313.799 391.292 C 313.271 391.336,312.934 391.468,313.052 391.586 M359.700 394.676 C 360.085 394.776,360.715 394.776,361.100 394.676 C 361.485 394.575,361.170 394.493,360.400 394.493 C 359.630 394.493,359.315 394.575,359.700 394.676 M322.678 401.977 C 322.796 402.430,323.052 402.800,323.247 402.800 C 323.786 402.800,323.668 402.154,323.031 401.626 C 322.565 401.239,322.502 401.302,322.678 401.977 M349.978 409.898 C 349.074 411.701,349.087 411.879,350.020 410.483 C 350.504 409.759,350.817 409.083,350.715 408.982 C 350.613 408.880,350.281 409.292,349.978 409.898 M356.749 412.300 C 356.551 413.465,356.544 414.389,356.736 414.198 C 357.043 413.890,357.282 412.000,357.014 412.000 C 356.896 412.000,356.777 412.135,356.749 412.300 M329.776 428.613 C 330.204 428.936,330.744 429.194,330.976 429.187 C 331.209 429.180,331.051 428.910,330.624 428.587 C 330.196 428.264,329.656 428.006,329.424 428.013 C 329.191 428.020,329.349 428.290,329.776 428.613 M377.205 451.800 C 377.205 452.020,377.563 452.740,378.000 453.400 C 378.437 454.060,378.795 454.420,378.795 454.200 C 378.795 453.980,378.437 453.260,378.000 452.600 C 377.563 451.940,377.205 451.580,377.205 451.800 M380.100 454.412 C 379.002 454.854,378.939 455.200,379.957 455.200 C 380.374 455.200,380.818 454.930,380.945 454.600 C 381.071 454.270,381.136 454.011,381.087 454.025 C 381.039 454.039,380.595 454.213,380.100 454.412 M385.200 457.202 C 384.738 457.502,384.847 457.573,385.671 457.511 C 386.260 457.467,386.655 457.288,386.548 457.115 C 386.292 456.702,385.934 456.725,385.200 457.202 " stroke="none" fill="#f0ecec" fill-rule="evenodd"></path><path id="path2" d="M357.600 11.824 C 357.600 12.387,357.763 12.746,357.962 12.623 C 358.162 12.500,358.231 12.039,358.116 11.600 C 357.828 10.499,357.600 10.598,357.600 11.824 M359.690 24.581 C 359.782 25.685,360.092 25.583,360.274 24.390 C 360.341 23.955,360.218 23.600,360.002 23.600 C 359.786 23.600,359.645 24.041,359.690 24.581 M378.281 34.161 C 378.677 34.689,379.057 35.067,379.128 35.000 C 379.338 34.799,378.234 33.200,377.885 33.200 C 377.708 33.200,377.886 33.632,378.281 34.161 M383.520 51.680 C 383.893 52.053,384.107 52.053,384.480 51.680 C 384.853 51.307,384.747 51.200,384.000 51.200 C 383.253 51.200,383.147 51.307,383.520 51.680 M356.542 60.648 C 356.511 61.168,356.646 61.495,356.842 61.374 C 357.039 61.252,357.200 60.883,357.200 60.553 C 357.200 60.186,357.394 60.065,357.700 60.241 C 357.975 60.399,358.060 60.374,357.888 60.186 C 357.262 59.497,356.599 59.724,356.542 60.648 M373.099 98.215 C 372.562 98.934,372.516 99.219,372.899 99.440 C 373.175 99.599,373.265 99.579,373.099 99.397 C 372.934 99.214,373.098 98.734,373.463 98.330 C 373.829 97.926,374.055 97.524,373.964 97.437 C 373.874 97.350,373.485 97.700,373.099 98.215 M359.429 137.409 C 359.005 137.729,358.735 138.068,358.829 138.161 C 358.923 138.255,359.425 137.987,359.944 137.566 C 361.038 136.679,360.579 136.539,359.429 137.409 M346.006 139.500 C 346.024 140.377,346.788 140.959,346.794 140.100 C 346.797 139.605,346.620 139.200,346.400 139.200 C 346.180 139.200,346.003 139.335,346.006 139.500 M352.680 209.736 C 352.567 210.031,352.635 210.526,352.831 210.836 C 353.091 211.247,353.189 211.101,353.194 210.300 C 353.201 209.106,353.004 208.890,352.680 209.736 M346.446 250.667 C 346.421 250.924,346.284 251.464,346.141 251.867 C 345.940 252.436,345.994 252.497,346.379 252.142 C 346.652 251.891,346.789 251.351,346.684 250.942 C 346.579 250.534,346.472 250.410,346.446 250.667 M344.112 264.825 C 344.166 265.540,344.234 265.568,344.627 265.031 C 344.875 264.691,345.196 264.530,345.340 264.673 C 345.483 264.816,345.600 264.723,345.600 264.467 C 345.600 264.210,345.251 264.000,344.825 264.000 C 344.288 264.000,344.069 264.254,344.112 264.825 M329.838 269.539 C 329.710 269.746,329.899 270.029,330.260 270.168 C 331.144 270.507,331.350 270.223,330.645 269.638 C 330.303 269.354,329.977 269.314,329.838 269.539 M316.900 279.465 C 316.625 279.576,316.403 279.967,316.406 280.333 C 316.410 280.746,316.524 280.834,316.706 280.566 C 316.868 280.327,317.360 279.927,317.800 279.678 C 318.619 279.214,317.928 279.050,316.900 279.465 M330.836 292.369 C 330.526 292.565,329.986 292.639,329.636 292.533 C 329.099 292.370,329.104 292.407,329.666 292.770 C 330.368 293.225,331.600 292.962,331.600 292.357 C 331.600 291.920,331.545 291.920,330.836 292.369 M320.000 301.800 C 319.717 302.141,319.576 302.509,319.686 302.619 C 319.796 302.729,320.117 302.541,320.400 302.200 C 320.683 301.859,320.824 301.491,320.714 301.381 C 320.604 301.271,320.283 301.459,320.000 301.800 M347.067 307.067 C 346.571 307.563,346.796 308.699,347.500 309.251 C 348.130 309.745,348.147 309.732,347.667 309.119 C 347.367 308.736,347.248 308.080,347.394 307.619 C 347.659 306.784,347.544 306.589,347.067 307.067 M346.000 327.576 C 346.000 328.029,346.180 328.400,346.400 328.400 C 346.620 328.400,346.800 328.141,346.800 327.824 C 346.800 327.507,346.620 327.136,346.400 327.000 C 346.180 326.864,346.000 327.123,346.000 327.576 M330.800 365.487 C 330.800 365.743,330.987 366.069,331.216 366.210 C 331.445 366.352,331.527 366.857,331.397 367.334 C 331.191 368.094,331.215 368.114,331.602 367.498 C 331.938 366.962,331.895 366.585,331.421 365.909 C 331.080 365.421,330.800 365.231,330.800 365.487 M333.234 372.000 C 333.246 372.330,333.411 372.960,333.600 373.400 L 333.944 374.200 333.966 373.400 C 333.978 372.960,333.813 372.330,333.600 372.000 C 333.255 371.467,333.215 371.467,333.234 372.000 M320.100 390.665 C 319.825 390.776,319.600 391.111,319.600 391.410 C 319.600 391.708,319.825 392.082,320.100 392.241 C 320.375 392.399,320.471 392.386,320.314 392.212 C 320.157 392.037,320.208 391.558,320.428 391.147 C 320.648 390.736,320.777 390.414,320.714 390.432 C 320.651 390.449,320.375 390.554,320.100 390.665 M313.052 391.586 C 313.393 391.927,315.167 391.870,314.953 391.524 C 314.847 391.353,314.328 391.248,313.799 391.292 C 313.271 391.336,312.934 391.468,313.052 391.586 M359.700 394.676 C 360.085 394.776,360.715 394.776,361.100 394.676 C 361.485 394.575,361.170 394.493,360.400 394.493 C 359.630 394.493,359.315 394.575,359.700 394.676 M322.678 401.977 C 322.796 402.430,323.052 402.800,323.247 402.800 C 323.786 402.800,323.668 402.154,323.031 401.626 C 322.565 401.239,322.502 401.302,322.678 401.977 M349.978 409.898 C 349.074 411.701,349.087 411.879,350.020 410.483 C 350.504 409.759,350.817 409.083,350.715 408.982 C 350.613 408.880,350.281 409.292,349.978 409.898 M356.749 412.300 C 356.551 413.465,356.544 414.389,356.736 414.198 C 357.043 413.890,357.282 412.000,357.014 412.000 C 356.896 412.000,356.777 412.135,356.749 412.300 M329.776 428.613 C 330.204 428.936,330.744 429.194,330.976 429.187 C 331.209 429.180,331.051 428.910,330.624 428.587 C 330.196 428.264,329.656 428.006,329.424 428.013 C 329.191 428.020,329.349 428.290,329.776 428.613 M377.205 451.800 C 377.205 452.020,377.563 452.740,378.000 453.400 C 378.437 454.060,378.795 454.420,378.795 454.200 C 378.795 453.980,378.437 453.260,378.000 452.600 C 377.563 451.940,377.205 451.580,377.205 451.800 M380.100 454.412 C 379.002 454.854,378.939 455.200,379.957 455.200 C 380.374 455.200,380.818 454.930,380.945 454.600 C 381.071 454.270,381.136 454.011,381.087 454.025 C 381.039 454.039,380.595 454.213,380.100 454.412 M385.200 457.202 C 384.738 457.502,384.847 457.573,385.671 457.511 C 386.260 457.467,386.655 457.288,386.548 457.115 C 386.292 456.702,385.934 456.725,385.200 457.202 " stroke="none" fill="#f0ecec" fill-rule="evenodd"></path><path id="path3" d="M357.600 11.824 C 357.600 12.387,357.763 12.746,357.962 12.623 C 358.162 12.500,358.231 12.039,358.116 11.600 C 357.828 10.499,357.600 10.598,357.600 11.824 M359.690 24.581 C 359.782 25.685,360.092 25.583,360.274 24.390 C 360.341 23.955,360.218 23.600,360.002 23.600 C 359.786 23.600,359.645 24.041,359.690 24.581 M378.281 34.161 C 378.677 34.689,379.057 35.067,379.128 35.000 C 379.338 34.799,378.234 33.200,377.885 33.200 C 377.708 33.200,377.886 33.632,378.281 34.161 M383.520 51.680 C 383.893 52.053,384.107 52.053,384.480 51.680 C 384.853 51.307,384.747 51.200,384.000 51.200 C 383.253 51.200,383.147 51.307,383.520 51.680 M356.542 60.648 C 356.511 61.168,356.646 61.495,356.842 61.374 C 357.039 61.252,357.200 60.883,357.200 60.553 C 357.200 60.186,357.394 60.065,357.700 60.241 C 357.975 60.399,358.060 60.374,357.888 60.186 C 357.262 59.497,356.599 59.724,356.542 60.648 M373.099 98.215 C 372.562 98.934,372.516 99.219,372.899 99.440 C 373.175 99.599,373.265 99.579,373.099 99.397 C 372.934 99.214,373.098 98.734,373.463 98.330 C 373.829 97.926,374.055 97.524,373.964 97.437 C 373.874 97.350,373.485 97.700,373.099 98.215 M359.429 137.409 C 359.005 137.729,358.735 138.068,358.829 138.161 C 358.923 138.255,359.425 137.987,359.944 137.566 C 361.038 136.679,360.579 136.539,359.429 137.409 M346.006 139.500 C 346.024 140.377,346.788 140.959,346.794 140.100 C 346.797 139.605,346.620 139.200,346.400 139.200 C 346.180 139.200,346.003 139.335,346.006 139.500 M352.680 209.736 C 352.567 210.031,352.635 210.526,352.831 210.836 C 353.091 211.247,353.189 211.101,353.194 210.300 C 353.201 209.106,353.004 208.890,352.680 209.736 M346.446 250.667 C 346.421 250.924,346.284 251.464,346.141 251.867 C 345.940 252.436,345.994 252.497,346.379 252.142 C 346.652 251.891,346.789 251.351,346.684 250.942 C 346.579 250.534,346.472 250.410,346.446 250.667 M344.112 264.825 C 344.166 265.540,344.234 265.568,344.627 265.031 C 344.875 264.691,345.196 264.530,345.340 264.673 C 345.483 264.816,345.600 264.723,345.600 264.467 C 345.600 264.210,345.251 264.000,344.825 264.000 C 344.288 264.000,344.069 264.254,344.112 264.825 M329.838 269.539 C 329.710 269.746,329.899 270.029,330.260 270.168 C 331.144 270.507,331.350 270.223,330.645 269.638 C 330.303 269.354,329.977 269.314,329.838 269.539 M316.900 279.465 C 316.625 279.576,316.403 279.967,316.406 280.333 C 316.410 280.746,316.524 280.834,316.706 280.566 C 316.868 280.327,317.360 279.927,317.800 279.678 C 318.619 279.214,317.928 279.050,316.900 279.465 M330.836 292.369 C 330.526 292.565,329.986 292.639,329.636 292.533 C 329.099 292.370,329.104 292.407,329.666 292.770 C 330.368 293.225,331.600 292.962,331.600 292.357 C 331.600 291.920,331.545 291.920,330.836 292.369 M320.000 301.800 C 319.717 302.141,319.576 302.509,319.686 302.619 C 319.796 302.729,320.117 302.541,320.400 302.200 C 320.683 301.859,320.824 301.491,320.714 301.381 C 320.604 301.271,320.283 301.459,320.000 301.800 M347.067 307.067 C 346.571 307.563,346.796 308.699,347.500 309.251 C 348.130 309.745,348.147 309.732,347.667 309.119 C 347.367 308.736,347.248 308.080,347.394 307.619 C 347.659 306.784,347.544 306.589,347.067 307.067 M346.000 327.576 C 346.000 328.029,346.180 328.400,346.400 328.400 C 346.620 328.400,346.800 328.141,346.800 327.824 C 346.800 327.507,346.620 327.136,346.400 327.000 C 346.180 326.864,346.000 327.123,346.000 327.576 M330.800 365.487 C 330.800 365.743,330.987 366.069,331.216 366.210 C 331.445 366.352,331.527 366.857,331.397 367.334 C 331.191 368.094,331.215 368.114,331.602 367.498 C 331.938 366.962,331.895 366.585,331.421 365.909 C 331.080 365.421,330.800 365.231,330.800 365.487 M333.234 372.000 C 333.246 372.330,333.411 372.960,333.600 373.400 L 333.944 374.200 333.966 373.400 C 333.978 372.960,333.813 372.330,333.600 372.000 C 333.255 371.467,333.215 371.467,333.234 372.000 M320.100 390.665 C 319.825 390.776,319.600 391.111,319.600 391.410 C 319.600 391.708,319.825 392.082,320.100 392.241 C 320.375 392.399,320.471 392.386,320.314 392.212 C 320.157 392.037,320.208 391.558,320.428 391.147 C 320.648 390.736,320.777 390.414,320.714 390.432 C 320.651 390.449,320.375 390.554,320.100 390.665 M313.052 391.586 C 313.393 391.927,315.167 391.870,314.953 391.524 C 314.847 391.353,314.328 391.248,313.799 391.292 C 313.271 391.336,312.934 391.468,313.052 391.586 M359.700 394.676 C 360.085 394.776,360.715 394.776,361.100 394.676 C 361.485 394.575,361.170 394.493,360.400 394.493 C 359.630 394.493,359.315 394.575,359.700 394.676 M322.678 401.977 C 322.796 402.430,323.052 402.800,323.247 402.800 C 323.786 402.800,323.668 402.154,323.031 401.626 C 322.565 401.239,322.502 401.302,322.678 401.977 M349.978 409.898 C 349.074 411.701,349.087 411.879,350.020 410.483 C 350.504 409.759,350.817 409.083,350.715 408.982 C 350.613 408.880,350.281 409.292,349.978 409.898 M356.749 412.300 C 356.551 413.465,356.544 414.389,356.736 414.198 C 357.043 413.890,357.282 412.000,357.014 412.000 C 356.896 412.000,356.777 412.135,356.749 412.300 M329.776 428.613 C 330.204 428.936,330.744 429.194,330.976 429.187 C 331.209 429.180,331.051 428.910,330.624 428.587 C 330.196 428.264,329.656 428.006,329.424 428.013 C 329.191 428.020,329.349 428.290,329.776 428.613 M377.205 451.800 C 377.205 452.020,377.563 452.740,378.000 453.400 C 378.437 454.060,378.795 454.420,378.795 454.200 C 378.795 453.980,378.437 453.260,378.000 452.600 C 377.563 451.940,377.205 451.580,377.205 451.800 M380.100 454.412 C 379.002 454.854,378.939 455.200,379.957 455.200 C 380.374 455.200,380.818 454.930,380.945 454.600 C 381.071 454.270,381.136 454.011,381.087 454.025 C 381.039 454.039,380.595 454.213,380.100 454.412 M385.200 457.202 C 384.738 457.502,384.847 457.573,385.671 457.511 C 386.260 457.467,386.655 457.288,386.548 457.115 C 386.292 456.702,385.934 456.725,385.200 457.202 " stroke="none" fill="#f0ecec" fill-rule="evenodd"></path><path id="path4" d="M357.600 11.824 C 357.600 12.387,357.763 12.746,357.962 12.623 C 358.162 12.500,358.231 12.039,358.116 11.600 C 357.828 10.499,357.600 10.598,357.600 11.824 M359.690 24.581 C 359.782 25.685,360.092 25.583,360.274 24.390 C 360.341 23.955,360.218 23.600,360.002 23.600 C 359.786 23.600,359.645 24.041,359.690 24.581 M378.281 34.161 C 378.677 34.689,379.057 35.067,379.128 35.000 C 379.338 34.799,378.234 33.200,377.885 33.200 C 377.708 33.200,377.886 33.632,378.281 34.161 M383.520 51.680 C 383.893 52.053,384.107 52.053,384.480 51.680 C 384.853 51.307,384.747 51.200,384.000 51.200 C 383.253 51.200,383.147 51.307,383.520 51.680 M356.542 60.648 C 356.511 61.168,356.646 61.495,356.842 61.374 C 357.039 61.252,357.200 60.883,357.200 60.553 C 357.200 60.186,357.394 60.065,357.700 60.241 C 357.975 60.399,358.060 60.374,357.888 60.186 C 357.262 59.497,356.599 59.724,356.542 60.648 M373.099 98.215 C 372.562 98.934,372.516 99.219,372.899 99.440 C 373.175 99.599,373.265 99.579,373.099 99.397 C 372.934 99.214,373.098 98.734,373.463 98.330 C 373.829 97.926,374.055 97.524,373.964 97.437 C 373.874 97.350,373.485 97.700,373.099 98.215 M359.429 137.409 C 359.005 137.729,358.735 138.068,358.829 138.161 C 358.923 138.255,359.425 137.987,359.944 137.566 C 361.038 136.679,360.579 136.539,359.429 137.409 M346.006 139.500 C 346.024 140.377,346.788 140.959,346.794 140.100 C 346.797 139.605,346.620 139.200,346.400 139.200 C 346.180 139.200,346.003 139.335,346.006 139.500 M352.680 209.736 C 352.567 210.031,352.635 210.526,352.831 210.836 C 353.091 211.247,353.189 211.101,353.194 210.300 C 353.201 209.106,353.004 208.890,352.680 209.736 M346.446 250.667 C 346.421 250.924,346.284 251.464,346.141 251.867 C 345.940 252.436,345.994 252.497,346.379 252.142 C 346.652 251.891,346.789 251.351,346.684 250.942 C 346.579 250.534,346.472 250.410,346.446 250.667 M344.112 264.825 C 344.166 265.540,344.234 265.568,344.627 265.031 C 344.875 264.691,345.196 264.530,345.340 264.673 C 345.483 264.816,345.600 264.723,345.600 264.467 C 345.600 264.210,345.251 264.000,344.825 264.000 C 344.288 264.000,344.069 264.254,344.112 264.825 M329.838 269.539 C 329.710 269.746,329.899 270.029,330.260 270.168 C 331.144 270.507,331.350 270.223,330.645 269.638 C 330.303 269.354,329.977 269.314,329.838 269.539 M316.900 279.465 C 316.625 279.576,316.403 279.967,316.406 280.333 C 316.410 280.746,316.524 280.834,316.706 280.566 C 316.868 280.327,317.360 279.927,317.800 279.678 C 318.619 279.214,317.928 279.050,316.900 279.465 M330.836 292.369 C 330.526 292.565,329.986 292.639,329.636 292.533 C 329.099 292.370,329.104 292.407,329.666 292.770 C 330.368 293.225,331.600 292.962,331.600 292.357 C 331.600 291.920,331.545 291.920,330.836 292.369 M320.000 301.800 C 319.717 302.141,319.576 302.509,319.686 302.619 C 319.796 302.729,320.117 302.541,320.400 302.200 C 320.683 301.859,320.824 301.491,320.714 301.381 C 320.604 301.271,320.283 301.459,320.000 301.800 M347.067 307.067 C 346.571 307.563,346.796 308.699,347.500 309.251 C 348.130 309.745,348.147 309.732,347.667 309.119 C 347.367 308.736,347.248 308.080,347.394 307.619 C 347.659 306.784,347.544 306.589,347.067 307.067 M346.000 327.576 C 346.000 328.029,346.180 328.400,346.400 328.400 C 346.620 328.400,346.800 328.141,346.800 327.824 C 346.800 327.507,346.620 327.136,346.400 327.000 C 346.180 326.864,346.000 327.123,346.000 327.576 M330.800 365.487 C 330.800 365.743,330.987 366.069,331.216 366.210 C 331.445 366.352,331.527 366.857,331.397 367.334 C 331.191 368.094,331.215 368.114,331.602 367.498 C 331.938 366.962,331.895 366.585,331.421 365.909 C 331.080 365.421,330.800 365.231,330.800 365.487 M333.234 372.000 C 333.246 372.330,333.411 372.960,333.600 373.400 L 333.944 374.200 333.966 373.400 C 333.978 372.960,333.813 372.330,333.600 372.000 C 333.255 371.467,333.215 371.467,333.234 372.000 M320.100 390.665 C 319.825 390.776,319.600 391.111,319.600 391.410 C 319.600 391.708,319.825 392.082,320.100 392.241 C 320.375 392.399,320.471 392.386,320.314 392.212 C 320.157 392.037,320.208 391.558,320.428 391.147 C 320.648 390.736,320.777 390.414,320.714 390.432 C 320.651 390.449,320.375 390.554,320.100 390.665 M313.052 391.586 C 313.393 391.927,315.167 391.870,314.953 391.524 C 314.847 391.353,314.328 391.248,313.799 391.292 C 313.271 391.336,312.934 391.468,313.052 391.586 M359.700 394.676 C 360.085 394.776,360.715 394.776,361.100 394.676 C 361.485 394.575,361.170 394.493,360.400 394.493 C 359.630 394.493,359.315 394.575,359.700 394.676 M322.678 401.977 C 322.796 402.430,323.052 402.800,323.247 402.800 C 323.786 402.800,323.668 402.154,323.031 401.626 C 322.565 401.239,322.502 401.302,322.678 401.977 M349.978 409.898 C 349.074 411.701,349.087 411.879,350.020 410.483 C 350.504 409.759,350.817 409.083,350.715 408.982 C 350.613 408.880,350.281 409.292,349.978 409.898 M356.749 412.300 C 356.551 413.465,356.544 414.389,356.736 414.198 C 357.043 413.890,357.282 412.000,357.014 412.000 C 356.896 412.000,356.777 412.135,356.749 412.300 M329.776 428.613 C 330.204 428.936,330.744 429.194,330.976 429.187 C 331.209 429.180,331.051 428.910,330.624 428.587 C 330.196 428.264,329.656 428.006,329.424 428.013 C 329.191 428.020,329.349 428.290,329.776 428.613 M377.205 451.800 C 377.205 452.020,377.563 452.740,378.000 453.400 C 378.437 454.060,378.795 454.420,378.795 454.200 C 378.795 453.980,378.437 453.260,378.000 452.600 C 377.563 451.940,377.205 451.580,377.205 451.800 M380.100 454.412 C 379.002 454.854,378.939 455.200,379.957 455.200 C 380.374 455.200,380.818 454.930,380.945 454.600 C 381.071 454.270,381.136 454.011,381.087 454.025 C 381.039 454.039,380.595 454.213,380.100 454.412 M385.200 457.202 C 384.738 457.502,384.847 457.573,385.671 457.511 C 386.260 457.467,386.655 457.288,386.548 457.115 C 386.292 456.702,385.934 456.725,385.200 457.202 " stroke="none" fill="#f0ecec" fill-rule="evenodd"></path></g></svg>