<?xml version="1.0" encoding="utf-8"?>
<!-- Generator: Adobe Illustrator 28.2.0, SVG Export Plug-In . SVG Version: 6.00 Build 0)  -->
<svg version="1.1" id="Layer_1" xmlns="http://www.w3.org/2000/svg" xmlns:xlink="http://www.w3.org/1999/xlink" x="0px" y="0px"
	 viewBox="0 0 512 512" style="enable-background:new 0 0 512 512;" xml:space="preserve">
<style type="text/css">
	.st0{display:none;}
	.st1{fill-rule:evenodd;clip-rule:evenodd;fill:#FFFFFF;}
</style>
<g id="Layer_4" class="st0">
</g>
<g id="svgg">
	<path id="path0" class="st1" d="M341.03,75.33c-1.79,0.26-5.24,1.79-4.99,2.3c0.13,0.13-0.51,0.38-1.28,0.51
		c-0.77,0.13-1.41,0.38-1.41,0.51c0,0.13-0.26,0.26-0.64,0.26s-0.9,0-1.28,0.26c-0.51,0.26-0.64,0.26-0.38-0.13
		c0.26-0.38,0.13-0.38-0.38-0.13c-0.38,0.26-1.79,0.51-3.07,0.64c-3.84,0.38-4.6,0.9-4.86,3.32c0,0.38-0.38,1.28-0.64,1.92
		c-0.64,1.28-0.77,1.92-0.26,1.02c0.26-0.38,0.38-0.38,0.38-0.13s-0.26,0.51-0.51,0.77c-0.26,0.13-1.02,1.41-1.66,2.81
		c-0.64,1.41-1.53,2.81-2.05,3.2c-2.3,2.05-2.94,2.56-4.6,3.2c-2.56,1.15-3.45,1.41-4.99,1.41c-0.77,0-1.41,0.13-1.41,0.26
		c0,0.13-0.51,0.13-1.15,0.13c-0.64,0-1.79,0.13-2.69,0.38c-4.35,1.41-9.21,2.3-12.53,2.43c-10.1,0.51-14.83,0.9-14.83,1.28
		c0,0.13-0.51,0.26-1.02,0.26c-0.9,0-3.32,0.51-4.48,1.02c-0.26,0.13-0.64,0.26-0.77,0.13c-0.51-0.13-3.07,2.69-4.48,4.86
		c-0.77,1.15-1.79,2.43-2.05,2.69c-0.38,0.26-1.02,1.15-1.53,1.92c-0.51,0.77-1.41,1.66-2.05,2.05c-0.64,0.38-1.66,1.15-2.17,1.66
		c-0.64,0.64-0.9,0.9-0.77,0.51c0.26-0.38,0.13-0.38-0.38,0.13c-0.77,0.64-1.66,0.77-2.05,0.38c-0.13-0.13-0.38-0.26-0.51-0.26
		c-1.15-0.13-2.94-1.53-3.71-2.94c-0.9-1.79-2.05-3.07-3.84-4.09c-0.64-0.38-0.9-0.64-0.77-0.64c0.26,0-0.64-0.64-1.79-1.41
		c-2.43-1.53-3.07-2.17-3.71-3.84c-0.51-1.15-2.3-2.56-3.58-2.81c-0.38-0.13-0.77-0.26-0.9-0.38c-0.13-0.13-1.28-0.64-2.69-1.15
		l-2.43-0.9l-7.42,0.9c-4.09,0.51-7.8,1.02-8.18,1.15c-0.9,0.38-4.73-0.13-5.75-0.77c-1.41-0.9-5.11-1.41-8.95-1.15l-3.58,0.26
		l-0.77-1.28c-1.28-2.17-4.73-2.94-13.55-3.07c-5.5,0-7.42-0.26-7.67-0.9c-0.13-0.26-1.02-0.77-2.17-1.28
		c-1.41-0.64-2.43-1.41-3.84-2.94c-1.02-1.15-1.92-2.05-2.05-1.92c-0.13,0.13-0.64-0.38-1.28-1.15c-2.05-2.3-6.91-0.51-7.67,3.07
		c-0.51,2.05-0.64,2.3-1.53,2.81c-0.51,0.26-1.92,0.51-2.94,0.51c-3.32,0.13-3.84,0.38-4.09,1.53c-0.13,0.51-0.38,1.15-0.64,1.41
		c-0.26,0.26-1.28,1.15-2.43,2.05c-1.02,0.9-2.05,1.66-2.17,1.66c-0.64,0-4.86,4.48-4.99,5.37c-0.13,0.77-0.64,1.15-2.05,1.79
		c-1.02,0.51-2.3,1.28-2.81,1.79c-0.64,0.51-1.02,0.9-1.02,0.77c0-0.13-0.13,0-0.38,0.26c-0.38,0.64-4.22,0.64-4.99,0
		c-0.38-0.26-0.51-0.26-0.51,0.13c0,0.26-0.13,0.38-0.26,0.13c-0.38-0.64-3.71-0.38-4.22,0.26c-0.77,1.02-2.17,1.79-4.09,1.92
		c-1.02,0.13-1.79,0.38-1.66,0.51c0.13,0.13,0,0.26-0.26,0.13c-0.26-0.13-1.15,0.51-2.05,1.41c-0.9,0.9-1.66,1.66-1.79,1.79
		c-0.51,0.13-1.92,2.43-2.56,4.48c-0.77,1.92-1.02,2.17-2.69,3.2c-1.02,0.64-1.92,1.15-1.79,1.28c0.13,0.13,0,0.26-0.26,0.26
		c-0.77,0-5.37,3.58-5.75,4.48c-0.26,0.38-0.51,0.9-0.64,1.02c-0.13,0.13-0.26,1.79-0.38,3.84l-0.13,3.58l-3.07,2.94
		c-1.66,1.66-2.94,2.94-2.81,2.94c0.13,0,0,0.26-0.26,0.51s-0.77,1.28-1.15,2.3c-2.05,5.88-6.65,13.55-8.7,14.71
		c-2.69,1.66-3.84,3.45-3.2,4.86c0.9,1.79,0.38,4.35-1.41,6.14c-1.92,2.17-2.56,3.2-2.56,4.22c0,1.28-0.64,3.07-1.15,3.07
		c-0.13,0-0.26,0.13-0.13,0.38c0.13,0.26,0,0.51-0.38,0.64c-0.38,0.13-1.02,1.02-1.53,2.05c-1.28,2.43-1.66,2.94-2.17,3.58
		c-0.64,0.77-0.9,2.17-0.51,3.84c0.26,1.28,0.26,1.53-0.64,2.05c-0.51,0.38-1.41,1.15-2.05,1.79c-1.28,1.28-1.79,1.53-4.09,1.66
		c-2.17,0.13-2.94,1.02-3.96,4.09c-0.51,1.41-1.02,2.81-1.41,3.2c-1.02,1.15-1.66,4.48-1.15,5.88c0.9,2.3,0.64,2.94-1.28,3.45
		c-1.92,0.51-2.56,1.02-3.2,3.2c-0.26,0.77-0.51,1.66-0.64,2.05c-0.13,0.26-0.13,0.64-0.13,0.9c0,0.13-0.13,0.38-0.26,0.51
		c-0.26,0.13-0.38,0.51-0.51,0.9c-0.13,1.15-0.51,1.53-2.56,2.43c-2.69,1.28-3.45,1.41-5.37,0.9c-2.94-0.9-11-1.02-12.53-0.13
		c-0.51,0.26-1.28,0.64-1.66,0.77c-0.64,0.26-1.41,1.66-1.41,2.69c0,0.38-0.13,0.77-0.26,0.77s-0.64,0.64-1.15,1.53
		c-1.28,2.3-3.58,2.94-6.27,1.53c-0.9-0.51-1.79-0.9-1.92-0.9s-0.51-0.38-0.9-0.77c-0.9-0.9-2.81-0.64-3.58,0.51
		c-0.51,0.64-0.77,0.77-4.22,0.51c-4.48-0.38-5.75-0.26-6.01,0.13c-0.13,0.13-0.64,0.51-1.02,0.77c-1.15,0.64-0.9,2.69,0.77,5.63
		c0.64,1.15,1.41,2.69,1.53,3.2c0.13,0.51,0.38,0.9,0.51,0.77c0.13-0.13,0.26,0.13,0.26,0.38c-0.13,0.77,1.28,3.32,2.43,4.35
		c0.77,0.77,2.43,2.05,7.03,5.63c5.5,4.22,8.18,8.06,8.18,11.51c0,0.38,0.26,0.9,0.51,1.15c0.26,0.26,0.38,0.64,0.26,0.77
		c-0.64,0.64,1.79,0.64,3.07,0l1.41-0.64l-0.26,1.28c-1.66,6.91-1.66,13.55,0.13,14.83c0.13,0.13-0.13,0.64-0.64,1.15
		c-0.9,0.9-1.28,2.81-0.51,2.81c0.26,0,0.38,0.13,0.26,0.26c-0.13,0.38,3.45,3.84,3.84,3.71c0.13,0,0.26,0.13,0.26,0.38
		s0.64,1.02,1.53,1.79c0.77,0.77,1.41,1.28,1.15,1.28c-0.13,0,1.15,1.41,2.94,3.07c1.79,1.66,3.32,3.07,3.58,3.07
		c0.26,0,0.77,0.38,1.15,0.9c0.38,0.51,0.9,0.9,1.15,0.9c0.26,0,0.9,0.38,1.41,0.77c0.51,0.38,1.28,0.77,1.66,0.77
		c0.77,0,3.2,1.66,3.07,2.17c-0.13,0.38,2.81,2.56,3.32,2.56c0.13,0,0.77,0.38,1.28,0.77c0.51,0.38,1.02,0.64,1.15,0.51
		c0.13-0.13,0.77,0.13,1.53,0.51c0.77,0.38,1.53,0.77,1.92,0.77c2.69,0,7.03,4.22,5.5,5.24c-0.13,0.13-0.26,0.51-0.13,0.77
		c0.13,0.26,0,0.51-0.26,0.51c-0.26,0-0.9,1.02-1.41,2.17c-0.77,1.92-1.15,2.3-2.69,3.07c-3.71,1.92-2.69,5.75,2.17,8.31
		c4.86,2.56,4.73,3.45-0.64,3.71c-3.32,0.26-5.63,1.02-4.99,1.92c0.13,0.13,0,0.38-0.13,0.51c-0.51,0.26-0.38,3.96,0.13,4.86
		c1.53,2.56,2.56,2.94,7.54,3.58c2.43,0.26,4.35,1.41,4.48,2.69c0.26,2.05,1.15,3.96,2.56,4.73c2.3,1.53,2.05,1.41,10.61,1.92
		c2.17,0.13,3.84,0.38,3.84,0.51c0,0.13,0.26,0.38,0.51,0.38c0.26,0,0.51,0.13,0.51,0.38c0,0.26,0.26,0.38,0.51,0.38
		c0.26,0,1.15,0.64,2.05,1.41c0.9,0.77,1.41,1.41,1.28,1.41c-0.38,0,0.51,0.9,0.9,0.9c1.02,0.13,1.66,0.9,2.56,2.69
		c0.51,1.15,1.15,2.05,1.28,1.92c0.13-0.13,0.26,0,0.26,0.13s0.38,0.77,0.9,1.41c0.51,0.64,0.9,1.15,0.9,1.41
		c0,0.13,0.13,0.26,0.38,0.13c0.13-0.13,0.38,0,0.51,0.38c0.51,1.41,4.6,0.26,4.6-1.28c0-0.26,0.13-0.38,0.38-0.38
		c0.26,0,0.26-0.13,0.13-0.38c-0.13-0.13,0-0.38,0.26-0.51c0.26-0.13,0.9-0.9,1.28-1.92c0.51-0.9,1.28-2.05,1.66-2.56
		c0.51-0.51,0.77-0.9,0.64-0.9c-0.13,0,0-0.26,0.26-0.51c1.66-2.05,2.17-2.81,2.05-2.81c-0.13,0,0.26-0.38,0.77-0.77
		c0.64-0.38,1.28-1.02,1.66-1.41c0.9-0.77,3.58-2.05,4.99-2.43c1.15-0.26,2.05,0.26,3.07,1.92c1.41,2.3,3.71,4.09,4.35,3.45
		c0.13-0.13,0.26,0,0.26,0.13c0,0.38,1.41,1.02,1.92,0.9c0.13,0,0.26,0.13,0.13,0.26c-0.13,0.26,0,0.38,0.13,0.38
		c2.05,0.26,6.01,2.81,5.37,3.45c-0.38,0.38-2.69,0.26-3.45-0.26c-0.38-0.26-0.9-0.26-1.02-0.13c-0.26,0.13-0.38,0-0.38-0.26
		c0-0.9-2.69,0-3.58,1.15c-1.92,2.3-2.17,2.56-3.07,2.69c-2.56,0.38-3.84,0.9-3.96,1.53c-0.13,1.28,0.13,3.84,0.38,4.22
		c0.13,0.26,0.51,1.15,0.77,2.05c1.41,4.48,4.73,8.95,7.16,9.59c0.51,0.13,0.77,0.38,0.77,0.51s0.26,0.38,0.77,0.51
		c0.51,0.13,0.9,0.77,1.28,2.3c0.38,1.15,0.9,2.3,1.15,2.56c0.26,0.26,0.38,0.51,0.26,0.51c-0.13,0,0.26,0.38,1.02,0.77
		c0.77,0.38,1.79,1.02,2.17,1.41c0.38,0.38,0.9,0.64,1.15,0.64c0.26,0,0.64,0.26,0.77,0.51c0.38,0.64,2.81,2.43,4.48,3.32
		c0.64,0.38,1.53,1.02,2.05,1.28c0.38,0.38,1.41,0.9,2.17,1.28c2.05,1.02,2.43,1.92,1.41,3.58c-0.51,0.77-0.9,1.28-0.9,1.15
		c0-0.13-0.64,0-1.41,0.51c-0.77,0.51-1.41,0.64-1.41,0.51c0-0.13-0.26-0.13-0.51,0.13c-0.26,0.26-1.02,0.51-1.79,0.77
		c-0.77,0.26-1.41,0.64-1.41,0.9c0,0.26-0.13,0.51-0.38,0.51s-0.26,0.13-0.13,0.38c0.13,0.26,0.13,0.38-0.13,0.38
		c-2.3,0-1.28,11.51,1.15,12.15c0.51,0.13,0.9,0.38,0.9,0.51s0.13,0.26,0.38,0.13c0.26-0.13,0.38,0,0.38,0.13
		c0,0.26,0.13,0.26,0.38,0.13c0.26-0.13,0.38-0.13,0.38,0.13c0,1.28,7.67,2.17,11.89,1.41c2.81-0.51,3.07-0.51,5.11-0.9
		c1.15-0.26,2.17-0.51,2.56-0.64c0.26-0.13,0.9-0.26,1.41-0.26c0.51,0,1.02-0.13,1.15-0.38c0.38-0.64,7.67-0.51,8.57,0.13
		c0.38,0.38,0.9,0.64,1.15,0.64c0.51,0,4.09,1.92,4.35,2.3c0.13,0.13,0.38,0.26,0.64,0.26c0.26,0,0.51,0.13,0.51,0.26
		c0,0.38,5.37,0.26,6.14-0.13c0.51-0.26,2.56,0,2.56,0.38s3.96,2.05,6.52,2.69c1.02,0.26,2.05,0.64,2.17,0.9
		c0.13,0.13,1.79,0.77,3.84,1.28c5.63,1.53,7.16,2.05,7.54,2.56c1.53,1.79,3.71,2.43,7.03,2.05c6.27-0.77,9.46-1.41,9.46-1.79
		c0-0.13,0.51-0.38,1.28-0.51c0.64-0.13,1.28-0.38,1.28-0.64c0-0.13,0.13-0.26,0.26-0.26c0.38,0.13,2.3-0.9,2.94-1.41
		c0.26-0.26,0.64-0.38,0.9-0.26c0.13,0.13,0.64,0,0.9-0.26c0.26-0.26,0.51-0.38,0.51-0.26s0.64,0,1.41-0.13
		c0.77-0.13,1.41-0.13,1.28,0c-0.13,0.26,1.15,0.9,1.66,0.77c0.13,0,0.26,0.13,0.26,0.26c0,0.13,0.51,0.51,1.28,0.77
		c0.64,0.26,1.28,0.64,1.28,0.77s0.38,0.38,0.77,0.51c0.38,0.13,1.02,0.51,1.28,0.77c0.51,0.51,8.18,0.77,7.93,0.26
		c-0.13-0.13,1.53-0.26,3.58-0.26c2.17,0,3.84-0.13,4.22-0.38c0.38-0.26,0.51-0.26,0.26,0c-0.13,0.26,0,0.51,0.51,0.51
		c0.38,0,1.66,0.38,2.81,0.77c1.92,0.64,3.07,0.9,8.44,1.28c2.56,0.26,3.07,0.38,6.01,2.69c3.71,2.81,4.35,2.94,9.33,1.79
		c1.02-0.26,2.17-0.51,2.69-0.51c3.96-0.77,7.29-1.79,7.29-2.43c0-0.13,0.13-0.26,0.38-0.13c0.26,0.13,1.02-0.13,1.66-0.64
		c0.77-0.51,2.17-1.02,3.07-1.15c2.17-0.38,3.84-1.28,4.99-2.94s3.2-3.84,3.58-3.84c0.13,0,0.77-0.64,1.28-1.41s1.15-1.41,1.28-1.53
		s0.26-0.26,0.26-0.51c0-0.26,0.51-0.9,1.28-1.53c0.64-0.64,1.15-1.28,1.02-1.41c-0.13-0.13,0-0.26,0.38-0.26s0.51-0.13,0.51-0.38
		c0-0.26,0.13-0.38,0.38-0.38c0.26,0,1.02-0.64,1.66-1.41c5.75-6.27,7.29-7.42,10.49-8.57c1.02-0.38,2.05-0.9,2.3-1.15
		c0.51-0.38,2.56-1.28,3.32-1.28c0.13,0,0.77-0.13,1.41-0.38c0.64-0.13,2.17-0.38,3.58-0.51c3.32-0.38,8.06-0.9,11-1.41
		c0.64-0.13,1.53-0.26,1.66-0.26c0.26,0,0.51-0.13,0.51-0.26c0-0.13,0.64-0.38,1.41-0.51c4.86-0.77,9.46-2.43,9.46-3.45
		c0-0.26,3.71-1.66,5.63-2.05c2.43-0.51,8.06-0.9,8.31-0.51c0.13,0.13,1.15,0.38,2.3,0.64c1.15,0.13,2.17,0.26,2.3,0.38
		s1.02,0.13,2.17,0.38c1.92,0.26,2.17,0.51,5.5,3.84c1.92,1.92,3.71,3.58,3.84,3.58s0.51,0.13,0.77,0.26
		c0.38,0.13,9.59,0,13.55-0.26c0.38,0,1.41,0.77,2.3,1.66c1.92,1.92,3.58,2.43,6.14,2.17c2.43-0.26,5.5-1.02,5.75-1.28
		c0.13-0.13,0.38-0.26,0.77-0.13c0.26,0.13,0.51,0,0.51-0.26c0-0.9,0.64-0.38,1.15,0.9c0.9,2.17,1.66,4.09,1.66,4.22
		c0,0.64,1.41,2.69,2.43,3.58c3.07,2.94,4.22,3.58,10.36,5.5c4.09,1.28,5.5,1.66,8.31,2.17c0.51,0.13,2.3,0.38,3.96,0.64
		c1.66,0.26,3.45,0.51,3.84,0.51c7.03,0.38,7.16,0.26,7.54-5.5c0.26-4.48,0.51-5.63,1.28-6.78c0.26-0.51,0.51-1.15,0.38-1.53
		c-0.13-0.38,0-0.77,0.13-0.77c0.64,0,1.53-5.11,1.28-7.03c-0.64-5.11-0.9-9.59-1.02-13.55c-0.13-3.32-0.26-4.6-0.77-5.37
		c-0.38-0.51-0.64-1.92-0.77-3.2l-0.26-2.3l1.53-1.66c2.56-2.69,4.35-4.6,4.35-5.11c0-0.26,0.51-0.9,1.15-1.53
		c0.51-0.64,1.15-1.53,1.28-1.92c0.13-0.51,0.38-0.77,0.51-0.77c0.51,0,2.17-2.56,1.92-2.94c-0.13-0.13,0-0.26,0.13-0.26
		c0.13,0,0.51-0.51,0.77-1.02c0.26-0.64,0.51-1.15,0.77-1.15c0.38,0,2.05-3.45,1.92-4.09c0-0.13,0.13-0.26,0.26-0.26
		c0.26,0,0.51-0.64,0.77-1.53c0.64-2.3-0.51-3.2-2.69-2.05c-1.15,0.51-5.37,5.24-5.11,5.63c0.13,0.13-0.13,0.51-0.51,0.9
		c-0.64,0.51-0.64,0.51-0.77-0.64c-0.13-0.64,0-1.28,0.13-1.41c0.13-0.13,0.26-0.64,0.26-1.15c0-1.15,0.51-1.66,2.05-2.05
		c1.28-0.26,4.22-2.43,3.84-2.94c-0.13-0.13,0-0.13,0.13,0c0.26,0.13,0.64-0.13,0.9-0.51c0.26-0.38,1.02-1.02,1.79-1.28
		c1.66-0.77,1.92-1.66,0.9-3.2c-1.41-2.05-2.81-1.79-5.5,0.64c-1.15,1.15-2.3,2.05-2.43,2.05c-0.64,0-0.13-2.17,0.51-2.3
		c0.38-0.13,0.64-0.38,0.38-0.51c-0.13-0.26,0-0.38,0.13-0.38c0.13,0,1.15-0.51,2.05-1.15c0.9-0.64,2.05-1.41,2.56-1.79
		c2.17-1.28,1.15-7.8-1.66-9.97c-1.53-1.15-1.66-2.81-0.38-4.35c0.38-0.51,0.51-0.9,0.26-0.77c-0.26,0.13,0-0.26,0.64-0.77
		c1.02-1.02,3.45-2.3,3.84-2.05c0.13,0.13,0.9,0.13,1.79,0.26l1.66,0.13l-0.64,0.77c-0.38,0.38-0.64,0.77-0.64,0.9
		c0,0.13-0.13,0.64-0.38,1.28c-0.51,1.15,0,7.29,0.64,7.8c0.13,0.13,1.15,0.38,2.05,0.51c2.43,0.26,2.69,0.64,1.28,1.92
		c-0.64,0.64-1.28,1.15-1.28,1.15c-3.2,0.77-7.29,4.35-5.88,5.11c0.38,0.13,1.15,0.9,1.92,1.53c1.79,1.66,1.41,1.92,5.63-2.17
		c2.81-2.69,4.09-3.71,5.5-3.96c0.64-0.13,1.28-0.38,1.41-0.51c0.26-0.13,1.15-0.38,2.05-0.51c0.9-0.13,2.05-0.26,2.56-0.38
		c1.41-0.26,2.94-0.51,4.86-0.77c1.02-0.13,2.17-0.26,2.56-0.38c0.38,0,1.53-0.26,2.56-0.38c1.02-0.13,1.92-0.38,2.05-0.51
		c0.13-0.13,0.51-0.26,0.9-0.26c0.38,0,1.02-0.13,1.28-0.26c0.38-0.26,0.64-0.13,0.77,0.51c0.64,2.43,2.81-0.26,3.07-3.71
		c0.26-3.58,0.38-5.24,0.77-6.91c0.26-0.9,0.51-3.71,0.64-6.14c0.13-2.43,0.51-6.01,0.77-7.8c0.64-3.58,0.51-4.09-1.15-5.88
		c-1.02-1.02-0.38-2.56,1.02-2.56c0.38,0,0.77-0.26,0.77-0.51c0-0.26-0.26-0.51-0.51-0.51c-0.51,0-0.9-1.02-1.15-3.2
		c-0.38-3.2-0.64-4.22-1.28-5.37c-0.38-0.77-0.64-1.15-0.64-1.02c0,0.13-0.38,0-0.77-0.51c-0.77-0.9-4.99-2.94-6.01-2.94
		c-0.26,0-0.38-0.13-0.38-0.38c0.13-0.13-0.26-0.38-0.77-0.51s-2.43-0.51-4.22-0.9c-3.45-0.77-9.21-1.02-9.21-0.38
		c0,0.26-0.13,0.26-0.38,0.13c-0.38-0.26-2.56,0.9-2.56,1.28c0,0.13-0.26,0.13-0.51,0c-0.26-0.13-0.51,0-0.51,0.13
		c0,0.26-0.9,0.9-1.92,1.53c-1.02,0.64-2.05,1.41-2.17,1.66c-0.13,0.26-0.38,0.51-0.64,0.38c-0.26-0.13-0.51,0-0.64,0.38
		c-0.13,0.26-0.51,0.51-0.77,0.51s-0.64,0.26-0.77,0.51c-0.13,0.26-0.38,0.51-0.51,0.51c-0.38,0-0.64,0.26-4.6,3.32
		c-1.28,1.02-2.43,1.79-2.69,1.79c-0.38,0-2.81-1.66-3.32-2.43c-0.9-1.02-2.17-0.9-3.45,0.26c-0.64,0.64-1.02,1.15-0.9,1.15
		c0.13,0,0.13,0.13-0.13,0.26c-0.51,0.26-0.64,1.02-1.02,3.45c-0.13,1.15-0.38,1.41-1.02,1.41c-0.51,0-1.15,0-1.53,0.13
		c-1.28,0-4.99-0.51-7.16-1.02c-1.15-0.26-2.69-0.77-3.45-0.9c-0.64-0.13-2.69-0.77-4.35-1.41s-3.2-1.15-3.45-1.28
		c-1.15-0.26-2.94-3.45-3.32-6.14c-0.38-2.69-1.53-4.09-3.71-4.35c-1.79-0.26-1.79-0.26-2.17-1.79c-0.77-3.2-1.28-4.09-2.81-5.63
		l-1.53-1.53l1.28-0.51c1.28-0.51,1.79-1.02,0.64-0.64c-0.38,0.13-0.26,0,0.13-0.26c1.66-0.9,1.41-7.42-0.51-12.53
		c-0.77-1.79-1.02-3.45-1.28-7.16c-0.13-1.15-0.26-2.94-0.38-3.84c-0.13-0.9-0.26-1.79-0.13-1.92c0-0.13-0.13-1.02-0.26-1.79
		c-0.9-4.09-0.9-3.96-0.51-11.51c0.13-2.05,0.13-5.5,0.13-7.54v-3.71l1.92-1.92c1.79-1.79,1.92-2.05,2.17-4.48
		c0.13-1.41,0.51-2.94,0.9-3.58c0.38-0.51,0.51-1.02,0.38-1.02c-0.13,0-0.13-0.13,0-0.26c0.64-0.51,1.53-2.56,1.28-2.94
		c-0.77-0.77-1.41-6.14-1.41-12.15c-0.13-6.27-0.64-9.46-1.79-9.97c-0.13-0.13-0.77-1.15-1.41-2.3c-0.64-1.28-1.28-2.3-1.41-2.43
		c-0.9-0.77-2.3-4.73-2.81-7.8c-0.26-1.92-0.77-3.96-1.02-4.6c-0.26-0.64-0.64-1.66-0.77-2.43c-0.26-1.28-3.45-4.73-4.35-4.73
		c-0.26,0-1.28-0.64-2.17-1.53s-2.3-2.17-3.07-2.94s-1.53-1.66-1.53-1.92s-0.13-0.51-0.38-0.51c-0.26,0-0.38-0.26-0.38-0.51
		s-0.26-0.77-0.64-1.02c-0.38-0.26-1.02-1.15-1.53-1.79c-0.51-0.64-1.15-1.53-1.41-1.79c-0.26-0.38-0.64-0.77-0.64-1.15
		c-0.13-0.26-0.26-0.64-0.38-0.64c-0.13-0.13-0.51-0.64-0.77-1.15c-0.9-1.66-5.11-5.75-5.88-5.75c-0.38,0-2.43-2.3-3.32-3.71
		c-0.64-1.15-0.9-2.05-1.02-3.84c0-0.64-0.13-1.15-0.38-1.02c-0.13,0.13-0.26-0.13-0.13-0.51c0.13-0.38,0-0.9-0.13-1.02
		s-0.64-0.77-0.9-1.53c-0.64-1.41-1.53-2.3-3.58-3.58c-0.77-0.51-1.28-0.9-1.15-1.02c0.13-0.13-0.26-0.51-0.77-1.02
		c-0.51-0.51-0.9-1.02-0.9-1.15c0-0.26-0.13-0.38-0.38-0.38c-0.26,0-0.77-0.9-1.28-2.05c-0.51-1.15-1.41-2.43-1.79-2.94
		c-0.51-0.51-0.64-0.9-0.51-0.9c0.13,0-0.13-0.51-0.64-1.02c-0.51-0.51-1.15-1.41-1.41-2.05c-0.26-0.51-0.64-1.02-0.9-1.02
		s-0.26-0.13-0.26-0.26c0.13-0.13-0.26-0.77-0.64-1.28c-0.51-0.51-0.9-1.28-0.9-1.66c0-0.38-0.26-1.15-0.51-1.66
		c-0.26-0.51-0.9-2.56-1.41-4.48s-1.15-3.96-1.53-4.48c-1.41-2.94-1.92-4.6-2.3-6.65c-0.51-2.94-1.02-3.96-1.53-3.96
		c-0.26,0-0.9-0.51-1.41-1.15s-1.28-1.41-1.79-1.66c-1.66-0.9-2.69-2.56-2.69-4.86c0-1.92-0.13-2.05-1.79-3.45
		c-0.9-0.77-1.92-1.92-2.17-2.3c-0.26-0.51-1.02-1.15-1.66-1.53c-0.64-0.38-1.79-1.28-2.43-2.05c-0.64-0.77-1.15-1.15-1.02-0.77
		c0.13,0.26,0,0.26-0.38-0.26C350.88,75.46,345.64,74.56,341.03,75.33"/>
	<path id="path1" class="st1" d="M0,75.07"/>
	<path id="path2" class="st1" d="M0,75.07"/>
	<path id="path3" class="st1" d="M0,75.07"/>
	<path id="path4" class="st1" d="M0,75.07"/>
</g>
</svg>
