<?xml version="1.0" encoding="utf-8"?>
<!-- Generator: Adobe Illustrator 26.0.1, SVG Export Plug-In . SVG Version: 6.00 Build 0)  -->
<svg version="1.1" xmlns="http://www.w3.org/2000/svg" xmlns:xlink="http://www.w3.org/1999/xlink" x="0px" y="0px"
	 viewBox="0 0 512 512" style="enable-background:new 0 0 512 512;" xml:space="preserve">
<style type="text/css">
	.st0{display:none;}
	.st1{fill:#FFFFFF;stroke:#000000;stroke-miterlimit:10;}
</style>
<g id="Layer_1" class="st0">
</g>
<g id="Layer_2">
	<path class="st1" d="M237.7,127.7h5.7l3.3-2.2l-1.7-3.4l7.4-4.3h8.7l5.1-5.3h7.2l15.6-7.8l5.4-5l9,11.5V99.8l6.6,8.4
		c0,0,6-0.6,6,0.3c0,0.9-1.2,5.3-1.2,5.3l15.6,10.9l5.4-3.4l4.2,6.5l12,3.1l2.7,9.6l10.8,8.4l2.7,7.1v7.4l16.5,4.7l5.4,7.8
		l26.6-14.3l19.1,9.3l9,2.2l13.5-0.9l1.8,3.7l-4.5,11.8l10.5,2.2l14.4,13l-1.5,16.1l-8.4,13.3l2.7,12.7l-7.5,17.7l14.7-3.7l3.9,6.2
		c0,0,4.5-0.9,4.5,0c0,0.9-4.2,8.4-4.2,8.4l2.7,9.6l4.8,12.4c0,0,5.1,0.3,6,2.5c0.9,2.2-1.8,6.8-1.8,6.8l4.4,5.6l1.6,13l3,10.9
		l-2.4,10.5l-4.8,9l-13.8,5l-12,16.4l-8.4,10.2v13.6h-22.4l-11.4-8.1l-15,8.1l-8.1,13h-12c0,0-13.5-1.9-14.7-2.5
		c-1.2-0.6-15-20.5-15-20.5l-12.9-12.4l-13.5-9.3l-11.7-13.6l-20.3-2.2c0,0-15.9-3.7-16.5-4.7s-6.6-12.1-6.6-12.1l-5.4-11.8
		l-4.8-8.4l-2.4,3.4l-9.3,3.1l-5.7,3.7l-1.8,9.3l-9.5,4l-11.2-5.9c0,0-6.3,10.2-9,7.8c-2.7-2.5-9.3-11.2-9.3-11.2l-16.2-0.6l-3-5
		c0,0-10.8,7.4-12.3,6.8c-1.5-0.6-18.2-7.1-18.2-7.1l-9,3.1v4l-5.1,3.1l-3.3-3.1l-1.5-5V321l-5.1-1.6l-3.3,5.3l-11.7-0.9l-4.2,2.8
		l-8.1-5.6h-12.6l-12.6-3.7l-12.3,1.6c0,0-4.2,5.6-5.1,5.6s-9,2.8-9,2.8l-5.7,5.3l-9.3-0.6l-7.5,4.7l-8.7,9l-6.9,5.6v8.4l-4.2,2.5
		l-7.5,0.9l-1.7-4.5l-3.8-13.2L7.2,338l1-18.1c0,0,0.6-10.2,0.3-10.7s-1.3-8.4-1.3-8.4l4-7.9c0,0,0.9-6.7,0.9-7.4
		c0-0.8,0-20.8,0-20.8l10-7.9l6.9-7.3l5.4-6.8c0,0,3-4.5,2.8-5.4c-0.1-0.9,0.3-15.5,0.3-15.5v-14.2l6.4-13.4l7.9-13.5l4.2-10.4
		l6.3-4.8l12.1-2.5l7.9-0.5l34.5-19.1l0.9,3.4l3.3,17.8l4.6,6.8l7.8,6.5l9.3,9.6l7.5,7.1l5.8,1.4l2.2,7.9l2.7,10.9l-1.6,4.3l4.8,7.3
		l4.8,5l4.2,2.8l2.8,2.2l8.7,9.2l5.1,2.5l10.9-0.6l7.9-3.1l22.1-18.8l14.2-21.2l-3.4-22.5L237.7,127.7z"/>
</g>
</svg>
