<svg id="svg" version="1.1" xmlns="http://www.w3.org/2000/svg" xmlns:xlink="http://www.w3.org/1999/xlink" width="400" height="426.3256061817213" viewBox="0, 0, 400,426.3256061817213"><g id="svgg"><path id="path0" d="M113.638 2.704 C 113.200 2.957,112.955 3.198,112.737 3.588 C 112.584 3.863,112.500 3.852,111.715 3.454 C 110.664 2.921,110.583 2.920,109.815 3.435 C 109.474 3.663,108.756 4.080,108.219 4.361 C 107.681 4.642,107.024 5.019,106.758 5.199 C 106.178 5.591,105.129 5.396,104.621 4.803 C 103.744 3.778,101.471 4.976,102.137 6.113 C 102.307 6.404,102.339 7.452,102.181 7.550 C 102.095 7.603,101.576 7.478,101.028 7.273 C 98.867 6.464,94.616 7.297,94.182 8.615 C 93.866 9.571,93.430 9.940,92.471 10.062 C 91.425 10.194,91.159 10.486,91.159 11.502 C 91.159 12.643,89.623 14.208,87.856 14.864 C 87.670 14.934,87.212 15.190,86.840 15.434 L 86.162 15.877 86.270 16.957 C 86.443 18.703,86.484 18.887,87.260 21.368 L 87.634 22.568 90.362 22.568 L 93.090 22.568 93.976 23.412 C 94.462 23.876,95.293 24.662,95.821 25.158 C 96.349 25.654,97.041 26.462,97.359 26.953 C 97.981 27.912,98.074 27.933,99.640 27.449 C 99.962 27.349,100.072 27.420,100.239 27.835 C 100.656 28.868,100.744 29.074,101.182 30.031 C 101.955 31.719,103.270 32.697,104.768 32.697 C 105.932 32.697,105.498 34.171,103.856 35.795 C 103.107 36.535,102.877 36.642,101.705 36.787 C 100.424 36.946,99.991 37.269,99.776 38.225 C 99.645 38.807,98.901 39.501,98.090 39.797 C 96.459 40.392,96.285 40.516,96.381 41.018 C 96.431 41.279,96.524 41.932,96.588 42.470 C 96.652 43.008,96.821 43.887,96.962 44.425 C 97.159 45.175,97.193 45.995,97.104 47.950 C 96.994 50.384,97.006 50.512,97.362 50.844 C 97.676 51.137,97.734 51.400,97.734 52.524 C 97.734 53.627,97.798 53.925,98.102 54.250 C 98.526 54.702,98.462 55.466,97.954 56.026 C 97.691 56.317,97.637 56.824,97.589 59.488 C 97.525 63.072,97.546 63.212,98.259 63.909 C 98.775 64.414,99.339 64.640,101.926 65.381 C 103.211 65.749,103.786 66.119,105.611 67.754 C 106.967 68.968,107.536 69.248,108.943 69.391 C 110.318 69.531,110.480 69.610,110.590 70.195 C 110.950 72.111,111.656 73.212,112.525 73.212 C 112.658 73.212,112.844 73.285,112.936 73.374 C 113.029 73.464,114.305 73.936,115.771 74.424 C 118.573 75.356,119.414 75.688,119.413 75.861 C 119.398 77.354,118.663 78.069,117.281 77.934 C 115.555 77.765,114.653 78.098,113.519 79.325 C 112.611 80.307,112.587 80.320,111.595 80.320 C 110.594 80.320,109.818 80.765,109.818 81.338 C 109.818 81.446,109.758 81.561,109.685 81.593 C 109.611 81.626,109.358 82.072,109.121 82.586 C 108.885 83.099,108.625 83.518,108.544 83.518 C 108.198 83.518,108.660 85.497,109.083 85.829 C 110.076 86.607,110.090 89.016,109.107 89.916 C 108.444 90.523,108.239 91.558,108.668 92.126 C 108.812 92.316,108.929 92.532,108.929 92.606 C 108.929 92.821,107.674 93.982,107.321 94.094 C 106.887 94.232,106.280 95.302,106.072 96.297 C 105.978 96.745,105.880 97.200,105.854 97.307 C 105.676 98.045,102.354 101.484,101.190 102.136 C 100.939 102.277,100.869 102.617,100.820 103.945 C 100.723 106.524,100.271 107.176,98.342 107.517 C 95.671 107.991,94.287 108.697,93.522 109.977 C 93.209 110.502,92.964 110.980,92.979 111.041 C 93.002 111.136,92.772 112.499,92.498 113.887 C 92.207 115.358,91.853 115.958,90.139 117.878 C 89.607 118.474,88.847 119.523,88.449 120.209 C 86.138 124.197,85.269 124.922,82.455 125.217 L 81.429 125.324 80.853 126.411 C 80.131 127.773,79.740 128.203,78.819 128.649 C 78.091 129.002,78.086 129.011,77.662 130.791 C 77.238 132.573,76.297 133.807,75.365 133.807 C 75.256 133.807,75.167 133.890,75.167 133.990 C 75.167 134.091,75.027 134.227,74.856 134.292 C 74.480 134.436,74.377 134.511,73.517 135.263 C 73.129 135.602,72.806 136.068,72.754 136.364 C 72.704 136.647,72.553 137.140,72.419 137.460 C 72.286 137.781,72.211 138.078,72.254 138.121 C 72.746 138.613,69.262 139.103,64.860 139.161 C 63.462 139.179,61.847 139.527,60.793 140.037 C 60.046 140.398,58.406 140.280,58.504 139.872 C 58.671 139.171,58.199 135.853,57.887 135.541 C 57.115 134.769,53.449 135.548,51.432 136.912 C 50.587 137.483,49.766 138.390,49.016 139.582 C 46.694 143.273,46.174 143.858,43.789 145.459 C 39.919 148.059,39.122 149.747,40.105 153.265 C 40.978 156.392,41.488 156.806,45.580 157.707 C 49.137 158.489,49.318 158.770,47.956 161.403 C 46.449 164.318,46.523 164.094,46.604 165.479 C 46.681 166.807,47.004 167.887,47.494 168.459 C 47.648 168.639,47.866 168.958,47.979 169.169 C 48.198 169.580,48.587 170.087,49.089 170.618 C 49.260 170.798,49.402 171.006,49.404 171.080 C 49.427 171.861,50.242 172.141,52.732 172.224 L 54.376 172.278 54.376 173.712 C 54.376 175.518,54.705 176.628,55.814 178.562 C 56.829 180.333,57.037 180.968,57.045 182.319 C 57.053 183.882,57.303 184.644,58.009 185.254 C 58.782 185.922,58.835 186.562,58.187 187.411 C 57.763 187.967,57.669 189.922,58.038 190.523 C 58.078 190.589,57.845 190.730,57.520 190.837 C 57.194 190.945,56.587 191.391,56.169 191.829 C 55.752 192.267,55.301 192.625,55.168 192.625 C 54.638 192.625,54.033 192.199,53.937 191.757 C 53.882 191.502,53.789 191.093,53.731 190.849 C 53.673 190.604,53.586 190.148,53.538 189.835 C 53.410 189.004,51.747 189.195,50.510 190.182 C 50.387 190.280,49.708 190.378,49.000 190.399 C 46.805 190.465,45.994 190.892,45.361 192.315 C 45.107 192.885,45.188 192.875,43.481 192.549 C 41.783 192.224,40.029 191.403,39.058 190.479 C 38.200 189.664,37.943 189.675,36.034 190.614 C 34.962 191.141,34.558 191.133,33.738 190.565 C 33.141 190.151,32.915 190.106,31.540 190.121 C 30.009 190.137,29.598 190.034,29.066 189.503 C 28.733 189.169,28.072 189.271,27.225 189.786 L 26.655 190.132 26.655 191.799 C 26.655 194.530,25.122 195.215,22.201 193.791 C 20.957 193.184,19.297 194.225,19.101 195.735 C 18.805 198.015,18.734 198.274,18.261 198.791 C 17.506 199.616,18.447 200.977,19.772 200.977 C 20.293 200.977,20.659 201.088,20.891 201.315 C 21.548 201.959,22.428 203.096,22.787 203.768 C 23.550 205.191,25.346 207.967,25.855 208.510 C 26.673 209.381,28.414 210.751,28.705 210.751 C 28.848 210.751,28.965 210.815,28.965 210.893 C 28.965 211.209,33.868 213.499,35.147 213.779 C 35.607 213.880,36.321 214.089,36.732 214.244 C 38.082 214.751,39.748 214.252,40.330 213.165 C 40.567 212.722,40.634 212.705,42.212 212.705 C 44.013 212.705,44.791 212.476,45.477 211.744 C 45.913 211.278,46.954 211.097,47.171 211.448 C 47.226 211.538,47.510 211.664,47.801 211.728 C 48.760 211.939,48.447 212.836,46.780 214.654 C 46.463 214.999,46.203 215.347,46.203 215.426 C 46.202 215.505,46.130 215.525,46.043 215.471 C 45.955 215.417,45.838 215.492,45.782 215.639 C 45.701 215.848,45.329 215.904,44.019 215.904 C 42.382 215.904,41.115 216.254,40.779 216.798 C 40.342 217.504,38.830 217.919,36.645 217.933 C 35.410 217.941,34.407 218.025,34.334 218.125 C 33.892 218.743,32.519 219.004,32.519 218.470 C 32.519 218.329,32.456 218.214,32.380 218.214 C 32.304 218.214,32.142 217.994,32.021 217.725 C 31.362 216.262,31.306 216.214,30.415 216.348 C 27.832 216.735,27.073 218.422,28.100 221.490 C 28.295 222.069,28.609 222.761,28.798 223.027 C 28.988 223.293,29.143 223.564,29.143 223.628 C 29.143 223.765,30.968 225.550,33.690 228.076 C 37.639 231.740,37.964 232.155,39.691 235.734 C 40.697 237.818,41.465 238.773,43.181 240.076 C 43.621 240.411,44.020 240.726,44.069 240.777 C 44.118 240.829,44.578 241.151,45.091 241.493 C 45.604 241.835,46.023 242.215,46.024 242.337 C 46.024 242.459,46.104 242.559,46.202 242.559 C 46.299 242.559,46.379 242.694,46.379 242.859 C 46.379 243.319,47.088 244.249,47.605 244.469 C 48.593 244.889,49.409 245.208,49.448 245.191 C 49.587 245.128,51.055 245.681,52.045 246.167 C 52.617 246.449,53.234 246.343,54.059 245.822 C 55.031 245.208,55.502 245.055,55.839 245.244 C 56.568 245.652,58.204 245.535,60.373 244.921 C 60.984 244.748,61.484 244.546,61.484 244.471 C 61.484 244.397,61.570 244.336,61.675 244.336 C 61.780 244.336,62.106 244.096,62.400 243.803 C 62.693 243.510,63.001 243.270,63.084 243.270 C 63.167 243.270,63.363 243.142,63.520 242.985 C 63.693 242.812,64.343 242.636,65.176 242.537 C 66.776 242.346,67.424 242.117,68.119 241.498 C 68.717 240.966,69.911 240.450,70.577 240.436 C 71.030 240.427,71.312 239.976,71.510 238.950 C 71.704 237.945,72.108 237.147,72.635 236.730 C 74.614 235.161,74.908 234.368,74.097 232.780 C 73.754 232.106,73.669 231.008,73.960 231.008 C 74.037 231.008,74.087 230.948,74.072 230.875 C 74.056 230.802,74.143 230.502,74.265 230.209 C 74.537 229.554,74.400 228.339,74.023 228.063 C 73.544 227.712,74.327 225.314,75.151 224.611 C 75.209 224.562,75.390 224.283,75.554 223.989 C 75.823 223.510,75.953 223.451,76.843 223.403 L 77.833 223.350 77.612 223.847 C 77.339 224.465,77.178 224.635,76.472 225.049 C 75.978 225.339,75.920 225.455,75.983 226.017 C 76.123 227.269,76.260 227.553,77.065 228.262 C 77.995 229.082,77.937 229.506,76.825 230.033 C 75.643 230.594,76.713 232.430,78.221 232.430 L 79.245 232.430 79.142 233.008 C 78.905 234.335,77.780 236.247,76.986 236.672 C 76.500 236.932,76.890 238.860,77.960 241.493 C 78.019 241.639,78.082 241.799,78.099 241.848 C 78.116 241.897,78.177 242.057,78.235 242.203 C 78.294 242.350,78.519 242.990,78.737 243.625 C 78.955 244.260,79.200 244.856,79.282 244.949 C 79.364 245.042,79.431 245.221,79.431 245.348 C 79.431 245.475,79.671 246.087,79.964 246.707 C 80.670 248.200,80.559 248.678,79.156 250.200 C 78.190 251.247,78.002 251.811,77.898 253.983 C 77.781 256.420,77.636 256.928,76.849 257.645 C 76.028 258.391,76.105 259.774,77.027 260.862 C 77.660 261.609,77.849 262.897,77.824 266.308 C 77.810 268.150,77.842 269.858,77.894 270.102 C 77.947 270.347,78.018 270.678,78.052 270.839 C 78.086 271.001,78.228 271.269,78.366 271.436 C 78.555 271.664,78.606 272.194,78.570 273.561 C 78.512 275.768,78.985 278.613,79.738 280.586 C 79.794 280.733,79.865 280.978,79.896 281.130 C 79.927 281.283,80.198 282.002,80.499 282.729 C 80.800 283.457,81.288 284.771,81.583 285.651 C 81.878 286.530,82.181 287.370,82.255 287.517 C 82.397 287.796,82.377 288.645,82.173 290.929 L 82.051 292.297 82.763 293.001 C 83.550 293.781,83.490 293.468,83.805 298.445 C 83.867 299.422,83.941 300.542,83.970 300.933 C 83.999 301.324,84.069 302.323,84.126 303.154 C 84.351 306.414,84.437 307.060,84.755 307.891 C 84.936 308.364,85.192 309.029,85.323 309.369 C 85.544 309.940,86.166 311.189,88.160 315.061 C 89.251 317.181,89.703 318.383,89.797 319.414 C 89.946 321.059,90.272 321.949,90.958 322.582 C 92.187 323.715,92.404 324.059,92.768 325.446 C 93.082 326.645,93.238 326.935,93.917 327.567 C 94.440 328.055,94.840 328.654,95.118 329.365 C 95.453 330.225,95.617 330.441,95.967 330.481 C 97.262 330.629,97.233 330.592,97.102 331.924 L 96.982 333.139 97.687 333.536 C 98.539 334.014,99.502 337.133,99.163 338.314 C 99.051 338.703,99.061 339.053,99.194 339.372 C 99.302 339.634,99.378 339.909,99.362 339.982 C 99.347 340.056,99.414 340.116,99.511 340.116 C 99.609 340.116,99.689 340.193,99.689 340.288 C 99.689 340.383,100.033 341.043,100.453 341.754 C 101.109 342.864,101.423 343.461,101.554 343.847 C 101.571 343.896,101.689 344.176,101.816 344.469 C 101.975 344.834,102.058 346.040,102.080 348.290 C 102.117 352.214,102.289 352.976,103.916 356.464 C 106.095 361.130,106.160 361.295,106.346 362.594 C 106.402 362.985,106.496 363.585,106.555 363.927 C 106.685 364.681,107.861 367.303,108.070 367.303 C 108.151 367.303,108.219 367.409,108.219 367.539 C 108.219 367.913,108.925 368.455,110.173 369.036 C 111.279 369.552,112.051 370.265,113.396 372.014 C 113.620 372.306,113.847 372.586,113.899 372.634 C 113.952 372.683,114.205 373.043,114.462 373.434 C 114.898 374.097,115.056 374.592,115.256 375.922 C 115.425 377.042,115.525 377.228,116.478 378.205 C 117.018 378.757,117.459 379.353,117.459 379.529 C 117.459 379.705,117.528 379.925,117.612 380.018 C 117.806 380.232,118.366 382.369,118.796 384.540 C 118.867 384.899,119.507 387.398,119.842 388.627 C 120.102 389.579,121.882 393.296,122.128 393.399 C 122.707 393.642,123.139 394.347,122.924 394.700 C 122.354 395.639,122.294 395.822,122.367 396.408 C 122.410 396.752,122.887 397.888,123.427 398.932 C 124.451 400.912,124.478 401.015,124.650 403.690 C 124.765 405.487,124.870 405.870,125.520 406.879 C 125.832 407.363,125.989 407.927,126.079 408.885 C 126.260 410.808,126.282 410.888,126.734 411.218 C 127.846 412.032,127.979 412.233,128.104 413.297 C 128.259 414.609,128.564 415.075,129.639 415.637 C 130.106 415.882,130.814 416.438,131.214 416.873 C 133.361 419.211,133.781 419.547,134.557 419.547 C 134.961 419.547,135.771 420.412,137.695 422.898 C 138.292 423.668,138.303 423.673,139.159 423.559 C 140.165 423.426,140.769 423.724,141.208 424.573 L 141.483 425.105 143.287 425.004 C 145.133 424.901,146.375 424.551,147.035 423.949 C 147.224 423.776,147.432 423.634,147.496 423.634 C 147.561 423.634,147.780 423.489,147.985 423.312 C 148.189 423.135,148.567 422.835,148.826 422.646 C 149.084 422.456,149.469 422.152,149.681 421.969 C 150.642 421.142,153.066 420.080,153.995 420.080 C 154.215 420.080,154.556 418.557,154.377 418.378 C 154.329 418.331,154.358 417.931,154.440 417.490 C 154.523 417.050,154.638 416.312,154.696 415.852 C 154.822 414.862,155.960 411.379,156.260 411.065 C 156.376 410.945,156.868 410.767,157.355 410.671 C 157.842 410.574,158.441 410.446,158.685 410.385 C 159.876 410.087,161.805 409.741,163.572 409.507 C 164.647 409.365,165.806 409.210,166.148 409.162 C 166.490 409.115,167.120 409.073,167.547 409.069 L 168.324 409.063 168.237 408.031 C 168.134 406.811,167.938 406.430,166.808 405.245 C 165.452 403.823,165.983 402.527,169.285 399.197 C 169.788 398.690,170.313 398.043,170.451 397.760 C 170.708 397.232,170.710 397.130,170.494 395.703 C 170.376 394.923,170.406 394.831,170.968 394.242 C 171.638 393.541,171.323 393.583,177.671 393.335 C 180.883 393.210,181.221 392.863,180.056 390.889 C 179.669 390.233,179.643 389.345,179.970 387.961 C 180.088 387.464,180.089 386.948,179.975 386.450 C 179.880 386.035,179.773 385.555,179.738 385.384 C 179.702 385.212,179.620 384.986,179.555 384.881 C 179.398 384.625,179.441 382.477,179.640 380.726 C 179.779 379.498,179.759 379.250,179.490 378.860 C 178.340 377.194,178.247 376.281,179.114 375.179 C 179.473 374.723,179.590 374.052,179.352 373.814 C 179.284 373.746,179.207 373.593,179.181 373.473 C 179.155 373.354,179.046 372.897,178.939 372.458 C 178.733 371.615,178.864 369.969,179.137 369.969 C 179.226 369.969,179.298 369.865,179.298 369.738 C 179.298 369.444,180.695 367.534,181.338 366.948 C 182.954 365.475,183.745 363.603,183.365 362.145 C 183.090 361.089,183.090 361.089,183.521 360.775 C 186.977 358.262,188.919 352.371,187.051 350.067 C 186.932 349.920,186.725 349.580,186.590 349.311 C 186.456 349.043,186.271 348.823,186.179 348.823 C 186.017 348.823,186.132 345.925,186.335 344.886 C 186.385 344.626,186.342 344.362,186.239 344.298 C 186.135 344.234,186.051 344.018,186.051 343.819 C 186.051 343.460,185.879 343.013,185.056 341.237 C 184.821 340.730,184.629 340.231,184.629 340.127 C 184.629 340.023,184.549 339.938,184.451 339.938 C 184.354 339.938,184.274 339.828,184.274 339.693 C 184.274 339.558,184.154 339.349,184.007 339.227 C 183.524 338.826,183.925 336.928,184.607 336.384 C 184.958 336.104,185.182 335.305,185.085 334.679 C 184.786 332.745,184.566 331.806,183.998 330.045 C 182.661 325.897,182.399 323.679,183.162 322.946 C 183.455 322.665,184.256 321.595,184.943 320.569 C 186.949 317.571,188.276 316.502,190.338 316.222 C 191.157 316.111,192.625 317.094,192.625 317.752 C 192.625 318.024,194.153 317.770,194.931 317.369 C 196.074 316.779,196.852 315.858,197.922 313.831 C 198.364 312.992,198.710 312.284,198.690 312.258 C 198.670 312.232,198.823 311.832,199.030 311.370 C 199.238 310.907,199.437 310.386,199.472 310.211 C 199.950 307.890,201.745 307.197,203.062 308.825 C 203.950 309.923,212.089 307.613,213.772 305.786 C 214.332 305.178,215.858 304.589,216.140 304.871 C 216.178 304.909,216.221 304.079,216.235 303.026 C 216.250 301.972,216.281 300.833,216.305 300.493 C 216.347 299.898,216.314 299.863,215.415 299.538 C 214.431 299.182,214.349 299.031,214.702 298.231 C 214.995 297.571,215.312 297.331,216.206 297.094 C 216.946 296.899,217.297 296.606,219.212 294.591 C 219.975 293.787,220.230 293.628,220.811 293.594 C 221.191 293.572,221.741 293.507,222.035 293.451 C 222.702 293.321,225.144 292.125,225.144 291.928 C 225.144 291.847,225.245 291.781,225.368 291.781 C 225.491 291.781,225.990 291.423,226.478 290.985 C 226.966 290.546,227.426 290.186,227.499 290.185 C 227.572 290.183,227.632 290.062,227.632 289.916 C 227.632 289.769,227.699 289.649,227.782 289.649 C 227.942 289.649,228.401 288.371,228.453 287.783 C 228.486 287.403,228.843 285.414,228.931 285.118 C 229.182 284.276,230.132 283.182,231.275 282.419 C 231.993 281.940,234.207 280.762,234.207 280.860 C 234.207 280.902,234.667 280.686,235.229 280.379 C 235.791 280.072,236.530 279.669,236.873 279.483 C 237.660 279.055,238.893 277.912,239.804 276.766 C 240.192 276.277,240.577 275.797,240.658 275.700 C 241.264 274.973,243.439 271.746,243.443 271.568 C 243.445 271.446,243.513 271.346,243.592 271.346 C 243.672 271.346,243.917 271.046,244.136 270.680 C 244.627 269.860,245.373 268.812,245.556 268.686 C 245.631 268.634,245.959 268.192,246.285 267.703 C 246.992 266.646,249.771 263.791,250.699 263.170 C 251.060 262.928,251.395 262.684,251.444 262.627 C 251.493 262.570,251.797 262.369,252.120 262.182 C 253.111 261.605,252.844 260.225,251.638 259.693 L 250.942 259.386 251.226 258.791 C 251.461 258.298,251.608 258.196,252.084 258.196 C 252.400 258.196,252.785 258.148,252.940 258.088 C 253.145 258.010,253.225 258.093,253.235 258.399 C 253.287 259.906,254.465 260.593,255.803 259.895 C 256.093 259.744,256.389 259.620,256.461 259.619 C 256.532 259.618,257.105 259.303,257.733 258.919 C 259.400 257.898,262.128 256.775,262.939 256.775 C 264.533 256.775,267.802 254.478,269.896 251.888 C 270.954 250.580,271.120 250.376,271.479 249.947 C 271.601 249.802,271.749 249.379,271.808 249.008 C 271.866 248.637,271.942 248.289,271.975 248.234 C 272.009 248.180,272.054 247.700,272.075 247.168 C 272.116 246.116,272.429 245.509,273.414 244.569 L 274.008 244.002 274.039 242.052 L 274.069 240.102 273.108 239.095 C 272.579 238.541,272.077 237.966,271.994 237.818 C 271.005 236.061,277.146 231.566,280.764 231.399 C 283.315 231.280,283.808 230.850,285.739 227.055 C 286.824 224.922,287.216 225.030,287.618 227.572 C 287.745 228.374,288.123 228.619,288.824 228.353 C 289.033 228.274,289.525 228.160,289.916 228.100 C 291.637 227.836,292.045 227.658,292.776 226.857 C 293.559 225.998,293.769 225.971,295.214 226.545 C 296.617 227.102,298.219 226.561,298.385 225.472 C 298.539 224.462,298.364 222.458,298.018 221.279 C 297.924 220.962,297.892 220.702,297.946 220.702 C 298.000 220.702,297.945 220.582,297.823 220.435 C 297.702 220.289,297.650 220.169,297.708 220.169 C 297.767 220.169,297.729 219.949,297.625 219.680 C 297.521 219.411,297.412 219.072,297.382 218.925 C 297.352 218.778,297.065 217.899,296.744 216.970 C 296.193 215.376,296.160 215.139,296.147 212.705 C 296.140 211.288,296.062 210.016,295.973 209.879 C 295.723 209.489,295.828 208.424,296.152 208.066 C 296.379 207.816,296.424 207.519,296.350 206.746 C 296.235 205.532,295.980 205.302,294.563 205.136 L 293.523 205.015 293.627 203.204 L 293.731 201.394 292.823 200.618 C 292.324 200.192,291.811 199.738,291.684 199.610 C 291.556 199.483,291.366 199.378,291.261 199.378 C 291.156 199.378,291.071 199.312,291.071 199.230 C 291.071 199.149,290.870 198.975,290.624 198.844 C 290.112 198.570,290.134 198.386,290.854 196.922 C 291.110 196.402,291.463 195.899,291.639 195.805 C 291.815 195.711,291.959 195.523,291.959 195.388 C 291.959 195.253,292.059 195.110,292.181 195.069 C 292.563 194.942,292.250 189.463,291.837 189.060 C 291.758 188.982,291.213 188.871,290.626 188.813 C 287.897 188.543,287.240 188.354,286.154 187.526 C 285.430 186.974,284.948 186.211,284.499 184.906 L 284.154 183.904 284.600 183.516 C 284.845 183.303,285.502 182.959,286.059 182.751 C 287.139 182.349,287.089 182.421,287.597 180.531 C 288.088 178.702,288.892 178.211,292.226 177.703 C 294.458 177.362,294.711 177.112,294.608 175.346 C 294.545 174.266,294.142 173.661,293.265 173.325 C 292.466 173.020,292.410 172.944,291.966 171.568 C 291.809 171.080,291.603 170.682,291.509 170.684 C 291.414 170.686,290.758 170.751,290.050 170.828 L 288.762 170.968 286.851 169.404 C 285.800 168.545,284.857 167.760,284.756 167.661 C 284.413 167.324,283.760 166.326,283.883 166.326 C 283.951 166.326,283.906 166.205,283.783 166.057 C 283.451 165.657,283.698 164.284,284.227 163.590 C 284.473 163.268,284.673 162.920,284.673 162.816 C 284.673 162.277,286.880 161.208,287.428 161.481 C 287.975 161.754,289.277 163.022,289.748 163.739 C 290.237 164.486,291.564 163.930,292.021 162.788 C 292.276 162.149,292.480 162.002,293.617 161.634 C 293.835 161.563,294.120 161.708,294.486 162.073 C 294.785 162.372,295.704 163.137,296.528 163.773 C 297.352 164.409,298.176 165.080,298.359 165.263 C 298.895 165.799,300.817 165.416,301.620 164.613 C 302.610 163.623,303.434 164.271,303.341 165.968 C 303.217 168.252,303.250 168.734,303.571 169.406 C 303.922 170.143,303.860 170.799,303.393 171.266 C 302.641 172.017,303.416 175.153,304.392 175.311 C 305.175 175.438,308.982 176.249,309.462 176.392 C 309.658 176.450,310.968 176.537,312.374 176.585 L 314.930 176.673 315.363 176.120 C 315.887 175.450,316.207 175.433,317.404 176.011 C 318.572 176.574,319.198 176.569,320.893 175.984 C 322.838 175.313,324.816 175.444,325.544 176.292 C 325.937 176.749,329.176 176.231,329.807 175.610 C 330.298 175.126,332.747 175.088,333.718 175.549 C 335.126 176.216,335.233 176.402,334.603 177.078 C 334.268 177.438,334.233 177.778,334.489 178.187 C 334.565 178.310,334.569 178.410,334.498 178.410 C 334.426 178.410,334.539 178.593,334.750 178.817 C 335.157 179.250,335.101 179.822,334.520 181.164 C 334.393 181.457,334.145 182.064,333.969 182.512 C 333.669 183.276,333.586 183.346,332.624 183.631 C 331.507 183.963,331.354 184.236,331.354 185.898 C 331.354 186.636,331.461 186.559,329.009 187.581 C 327.837 188.069,323.570 190.423,323.298 190.732 C 323.284 190.747,323.228 191.080,323.173 191.470 C 323.117 191.861,322.820 192.901,322.513 193.781 C 321.550 196.534,321.721 198.280,323.140 200.178 C 323.932 201.237,324.480 202.573,324.649 203.860 C 325.015 206.646,324.770 206.442,327.232 206.022 C 327.737 205.936,327.768 205.965,327.810 206.573 C 327.916 208.082,329.608 208.555,331.155 207.508 C 332.639 206.504,332.804 205.932,332.301 203.554 C 331.888 201.607,331.891 201.591,332.847 200.577 C 333.870 199.491,333.879 199.466,334.056 197.290 C 334.185 195.696,336.702 196.601,337.024 198.357 C 337.100 198.772,337.172 199.151,337.184 199.200 C 337.333 199.814,337.697 201.451,337.706 201.544 C 337.712 201.612,338.029 202.077,338.411 202.579 L 339.106 203.490 338.919 206.010 C 338.710 208.818,338.754 208.998,339.938 210.129 C 340.863 211.013,341.140 211.628,341.258 213.061 C 341.318 213.794,341.411 214.913,341.465 215.549 C 341.518 216.184,341.591 217.064,341.626 217.503 C 341.661 217.943,341.749 219.023,341.822 219.902 C 341.895 220.782,341.967 221.741,341.982 222.035 C 342.051 223.383,342.079 223.460,342.608 223.761 C 343.007 223.988,343.257 224.023,343.585 223.899 C 343.827 223.807,344.025 223.784,344.025 223.848 C 344.025 223.912,344.254 223.708,344.533 223.395 C 345.082 222.780,345.298 222.783,346.206 223.411 C 347.177 224.084,349.178 223.005,349.178 221.808 C 349.178 221.718,349.313 221.374,349.479 221.043 C 350.184 219.629,350.514 215.761,350.168 212.972 C 349.895 210.769,349.754 210.140,349.052 207.968 C 348.473 206.180,348.628 205.772,350.011 205.440 C 350.481 205.327,351.216 205.136,351.644 205.016 L 352.421 204.798 352.283 201.510 C 352.037 195.678,352.090 193.291,352.512 191.115 L 352.650 190.404 353.802 190.384 C 354.435 190.373,355.393 190.437,355.931 190.526 C 358.600 190.970,360.455 190.804,361.238 190.050 C 361.396 189.899,361.535 189.103,361.631 187.800 C 361.769 185.937,361.822 185.524,362.053 184.540 C 362.201 183.910,362.600 182.900,362.800 182.651 C 362.907 182.517,363.048 182.234,363.113 182.022 C 363.178 181.810,363.653 180.931,364.169 180.068 C 364.983 178.706,365.273 178.085,365.981 176.188 C 366.538 174.694,366.551 172.520,366.005 171.974 C 364.545 170.514,364.428 170.305,364.635 169.535 C 364.814 168.870,366.012 167.392,366.372 167.392 C 367.267 167.392,368.940 164.216,369.601 161.262 C 369.710 160.773,369.847 160.173,369.904 159.929 C 370.447 157.598,370.016 153.619,369.063 152.166 C 368.233 150.902,368.691 150.050,370.528 149.436 C 372.088 148.915,372.501 148.600,373.024 147.532 C 373.631 146.293,374.204 145.643,376.116 144.025 C 377.970 142.456,379.008 141.287,379.501 140.213 C 379.974 139.182,379.995 139.164,381.061 138.877 C 382.456 138.501,382.935 138.323,384.491 137.601 C 385.197 137.274,385.856 137.006,385.957 137.006 C 386.057 137.006,386.139 136.926,386.139 136.828 C 386.139 136.625,387.027 136.580,387.030 136.784 C 387.048 137.719,390.273 139.753,391.510 139.609 C 393.847 139.337,393.538 137.203,390.757 134.399 C 389.023 132.651,388.983 131.710,390.608 130.922 C 391.439 130.519,391.791 130.189,392.652 129.006 C 393.224 128.220,393.916 127.282,394.190 126.923 C 394.751 126.189,394.728 125.753,394.080 124.844 C 393.742 124.371,393.697 124.101,393.736 122.760 L 393.780 121.220 392.581 120.928 C 391.921 120.767,391.102 120.563,390.760 120.473 C 389.740 120.207,388.890 120.273,388.401 120.657 C 387.741 121.176,387.460 121.105,386.575 120.195 C 386.132 119.739,385.674 119.418,385.541 119.469 C 385.409 119.519,384.573 119.618,383.683 119.687 L 382.064 119.814 382.217 119.303 C 382.526 118.270,382.742 117.887,383.437 117.138 C 384.148 116.373,384.311 115.352,383.826 114.705 C 383.753 114.607,383.638 114.272,383.572 113.960 C 383.359 112.967,381.465 110.707,380.845 110.706 C 380.599 110.706,380.715 109.522,380.990 109.222 C 381.497 108.669,380.531 107.508,379.564 107.508 C 378.827 107.508,378.304 107.102,377.873 106.193 C 376.763 103.855,372.427 106.088,369.467 110.523 C 368.735 111.621,368.671 111.670,368.046 111.623 C 366.022 111.470,364.300 111.050,363.039 110.403 C 362.794 110.278,362.494 110.175,362.372 110.174 C 362.250 110.174,362.150 110.111,362.150 110.035 C 362.150 109.958,361.930 109.800,361.661 109.682 C 361.393 109.564,360.820 109.267,360.390 109.021 C 359.191 108.337,358.957 108.392,357.376 109.729 C 356.953 110.086,355.084 112.213,354.420 113.093 C 354.225 113.352,353.910 113.720,353.720 113.912 C 353.531 114.104,353.451 114.262,353.543 114.263 C 353.634 114.265,353.618 114.325,353.506 114.396 C 353.187 114.600,351.567 117.297,351.331 118.014 C 351.133 118.619,351.063 118.666,350.193 118.780 C 349.243 118.904,347.818 119.326,347.494 119.579 C 347.394 119.657,346.764 119.775,346.093 119.841 C 343.625 120.083,341.812 121.790,341.923 123.767 C 341.988 124.930,341.936 125.015,340.960 125.347 C 340.446 125.522,339.907 125.711,339.760 125.767 C 339.614 125.823,339.454 125.880,339.405 125.893 C 338.646 126.098,338.178 126.456,336.797 127.882 C 335.121 129.614,334.886 130.255,335.723 130.810 C 335.957 130.965,335.543 132.197,335.090 132.694 C 334.680 133.143,334.165 133.268,332.386 133.350 C 330.535 133.434,329.880 133.604,328.123 134.455 C 326.070 135.449,325.566 135.387,324.676 134.030 C 324.292 133.445,323.386 133.318,322.658 133.748 C 322.529 133.825,322.622 137.466,322.771 138.161 C 323.177 140.055,323.974 140.492,328.454 141.281 C 329.573 141.478,329.772 142.024,329.290 143.579 C 329.074 144.280,329.035 145.413,329.222 145.600 C 329.290 145.668,329.364 145.847,329.386 145.999 C 329.408 146.150,329.483 146.408,329.552 146.571 C 330.012 147.655,329.698 147.930,328.198 147.758 C 326.964 147.617,325.733 148.027,325.346 148.708 C 324.992 149.331,324.441 149.440,321.635 149.444 C 319.163 149.447,318.444 149.627,317.657 150.437 C 316.308 151.826,313.741 151.536,311.435 149.736 C 310.428 148.950,309.824 149.092,306.881 150.806 C 306.529 151.011,305.800 151.209,305.216 151.257 C 304.288 151.334,304.120 151.412,303.622 151.996 C 303.044 152.674,303.080 152.667,301.669 152.361 C 300.946 152.204,299.434 151.411,298.750 150.830 C 298.429 150.557,298.099 150.333,298.016 150.333 C 297.800 150.333,296.575 150.830,295.988 151.157 C 295.431 151.466,291.721 149.231,291.293 148.329 C 290.714 147.107,290.667 146.790,290.894 145.666 C 291.226 144.022,291.234 143.828,290.991 143.374 C 289.926 141.381,289.974 141.553,290.246 140.716 C 291.071 138.176,291.231 136.629,290.725 136.090 C 290.510 135.861,290.160 135.449,289.947 135.174 C 289.734 134.900,289.411 134.500,289.229 134.286 C 289.046 134.072,288.780 133.720,288.636 133.504 C 288.249 132.924,286.799 133.265,285.473 134.246 C 284.638 134.865,283.822 135.165,282.116 135.483 C 279.577 135.955,279.543 136.006,280.474 137.895 C 280.803 138.563,281.053 139.296,281.030 139.524 C 281.006 139.752,280.977 140.070,280.964 140.231 C 280.952 140.392,280.642 140.825,280.275 141.192 L 279.609 141.859 279.654 143.386 C 279.678 144.226,279.728 145.306,279.765 145.787 C 279.810 146.379,279.726 146.894,279.502 147.386 C 278.970 148.557,279.055 149.541,279.762 150.404 C 280.091 150.805,280.375 151.213,280.393 151.311 C 280.411 151.408,280.528 151.648,280.653 151.844 C 281.307 152.868,281.571 155.646,281.226 157.862 L 281.091 158.728 280.350 158.600 C 279.203 158.402,278.222 158.371,277.832 158.520 C 277.506 158.645,275.539 159.116,274.543 159.307 C 274.312 159.352,273.428 159.441,272.578 159.505 L 271.031 159.621 269.723 158.576 C 269.003 158.002,268.363 157.461,268.300 157.374 C 268.134 157.143,266.615 157.709,265.991 158.233 C 265.232 158.872,261.820 158.929,261.390 158.309 C 260.452 156.961,260.596 157.026,258.851 157.150 C 257.425 157.251,257.197 157.224,256.650 156.886 C 255.988 156.477,254.456 156.489,254.318 156.904 C 254.232 157.160,252.642 155.446,252.205 154.627 C 251.806 153.879,250.168 153.853,248.790 154.571 C 247.974 154.997,247.106 154.929,246.024 154.355 C 245.829 154.251,245.629 154.157,245.580 154.145 C 245.442 154.112,244.702 153.794,243.536 153.266 C 242.950 153.000,242.190 152.666,241.848 152.524 C 241.506 152.381,241.026 152.169,240.782 152.052 C 240.345 151.842,239.784 150.932,239.666 150.241 C 239.332 148.279,238.773 147.135,238.135 147.107 C 235.386 146.989,235.316 146.966,234.101 145.808 C 232.613 144.389,230.942 144.257,228.895 145.397 C 227.938 145.929,227.906 145.934,226.097 145.813 L 224.266 145.690 223.519 146.408 C 223.012 146.895,222.653 147.102,222.403 147.053 C 222.201 147.014,221.315 146.851,220.435 146.693 C 219.556 146.534,218.591 146.329,218.290 146.236 C 217.990 146.144,217.614 146.068,217.453 146.068 C 217.002 146.068,216.290 145.185,215.974 144.233 L 215.687 143.371 214.418 143.471 C 213.721 143.525,212.929 143.614,212.659 143.668 C 211.909 143.818,210.662 143.039,209.433 141.653 C 208.587 140.700,207.836 140.499,205.562 140.622 C 203.370 140.740,202.639 140.610,202.467 140.074 C 202.219 139.299,201.977 139.016,201.322 138.732 C 200.935 138.564,200.518 138.427,200.394 138.427 C 199.929 138.427,199.354 137.837,198.856 136.849 C 198.241 135.632,198.080 135.488,197.166 135.348 C 196.636 135.266,196.297 135.053,195.785 134.479 C 194.606 133.157,194.231 132.801,194.003 132.784 C 193.880 132.775,193.341 132.678,192.803 132.569 C 192.266 132.461,191.706 132.348,191.559 132.320 C 189.667 131.953,188.737 131.302,187.286 129.330 C 186.582 128.372,186.013 128.266,185.544 129.006 C 185.147 129.630,185.004 129.701,184.462 129.545 C 183.943 129.397,182.912 128.890,182.602 128.632 C 182.126 128.235,181.614 127.835,181.293 127.610 C 180.818 127.277,180.958 126.759,182.240 124.123 C 183.341 121.857,183.356 121.777,183.117 119.291 C 183.035 118.429,183.070 118.324,183.650 117.691 C 184.225 117.065,184.272 116.928,184.278 115.860 C 184.286 114.540,184.357 114.429,186.224 112.839 C 186.855 112.301,187.534 111.716,187.733 111.537 C 187.932 111.359,188.324 111.039,188.605 110.827 C 188.886 110.614,189.261 110.305,189.438 110.141 C 189.614 109.976,189.984 109.698,190.259 109.523 C 190.534 109.348,190.824 109.103,190.902 108.978 C 190.980 108.854,191.125 108.752,191.225 108.752 C 191.421 108.752,192.633 107.888,192.845 107.598 C 193.008 107.374,192.810 106.213,192.585 106.066 C 192.493 106.007,192.437 105.887,192.461 105.800 C 192.540 105.508,191.301 105.021,190.479 105.020 C 189.587 105.020,189.468 104.896,189.030 103.510 C 188.839 102.907,188.724 102.792,188.272 102.755 C 184.415 102.436,182.977 101.713,182.738 99.973 C 182.598 98.954,182.130 98.480,179.893 97.095 C 176.453 94.966,175.681 94.684,174.457 95.111 C 173.444 95.464,172.280 94.507,170.628 91.962 C 170.183 91.276,169.752 90.689,169.672 90.656 C 169.591 90.623,169.525 90.499,169.525 90.379 C 169.525 90.259,169.377 90.002,169.197 89.808 C 169.016 89.614,168.753 89.220,168.613 88.931 C 168.350 88.389,168.355 88.390,166.889 88.517 C 166.564 88.545,166.118 88.735,165.898 88.939 C 164.945 89.822,164.037 88.957,164.727 87.823 C 165.326 86.842,165.033 85.385,164.105 84.725 C 164.007 84.655,163.901 83.600,163.868 82.379 L 163.810 80.160 163.232 79.819 C 162.914 79.632,162.639 79.368,162.621 79.233 C 162.401 77.564,162.374 77.493,161.792 77.094 C 161.151 76.655,161.076 76.433,160.895 74.427 C 160.583 70.992,163.064 71.596,163.754 75.122 C 163.839 75.557,163.984 75.729,164.341 75.816 C 164.602 75.880,164.871 76.016,164.938 76.120 C 165.479 76.949,167.505 75.807,168.947 73.860 C 169.167 73.563,169.348 73.396,169.350 73.488 C 169.351 73.581,169.419 73.550,169.501 73.421 C 169.594 73.276,170.251 73.132,171.225 73.043 C 172.536 72.923,172.846 72.835,173.073 72.518 C 173.223 72.309,173.573 71.840,173.851 71.475 C 174.332 70.846,174.352 70.751,174.237 69.580 C 174.089 68.060,173.371 66.568,172.266 65.481 C 171.620 64.845,171.596 64.221,172.172 63.031 C 173.034 61.252,172.367 60.658,168.650 59.893 C 166.473 59.445,166.592 59.503,166.221 58.721 C 165.646 57.509,166.142 55.518,167.251 54.585 C 167.914 54.026,167.839 53.045,167.058 52.066 C 166.397 51.237,166.132 50.717,166.053 50.093 C 165.981 49.530,166.069 49.521,167.500 49.955 C 167.803 50.046,168.203 50.152,168.388 50.189 C 168.573 50.227,168.950 50.344,169.225 50.451 C 171.550 51.350,173.339 49.761,173.887 46.309 C 174.150 44.655,174.706 44.022,176.089 43.798 C 177.074 43.640,177.275 43.440,177.539 42.357 C 177.847 41.096,177.954 40.956,178.799 40.713 C 180.018 40.362,181.063 39.949,181.040 39.828 C 181.028 39.766,181.079 39.556,181.152 39.360 C 181.536 38.340,181.658 37.869,182.412 34.474 C 182.782 32.808,182.927 32.389,183.687 30.784 C 184.575 28.908,183.896 26.571,182.084 25.273 C 181.012 24.504,180.107 23.946,179.879 23.913 C 179.753 23.894,179.555 23.784,179.438 23.668 C 179.322 23.551,179.101 23.456,178.947 23.456 C 178.793 23.456,178.509 23.351,178.316 23.222 C 178.123 23.093,177.566 22.844,177.077 22.667 C 175.886 22.238,173.844 20.965,173.088 20.182 C 172.751 19.833,172.383 19.547,172.269 19.547 C 172.028 19.547,170.011 20.597,169.880 20.791 C 169.831 20.864,169.366 21.144,168.846 21.415 L 167.900 21.907 166.415 21.616 C 164.495 21.238,164.387 21.244,163.848 21.751 C 163.411 22.162,161.589 22.745,160.742 22.745 C 159.395 22.745,157.745 23.757,156.665 25.244 C 156.055 26.085,154.754 26.572,151.227 27.280 C 149.344 27.659,148.829 27.457,148.090 26.052 C 147.827 25.553,147.363 24.666,147.059 24.082 C 146.368 22.755,144.877 22.171,143.496 22.686 C 141.263 23.520,139.862 22.537,139.496 19.881 C 139.205 17.773,138.821 17.199,137.434 16.795 C 136.597 16.552,136.426 16.419,136.004 15.679 C 135.252 14.362,135.078 14.216,134.256 14.216 C 133.394 14.216,132.030 13.789,131.142 13.241 C 130.800 13.030,130.377 12.805,130.203 12.740 C 130.029 12.676,129.646 12.089,129.353 11.436 C 128.782 10.163,128.611 9.979,127.471 9.413 C 126.346 8.855,125.852 8.252,124.897 6.273 C 123.288 2.937,121.902 2.237,119.147 3.370 C 118.952 3.451,118.416 3.650,117.957 3.813 L 117.122 4.110 116.091 3.453 C 115.524 3.093,115.033 2.728,115.001 2.643 C 114.916 2.422,114.059 2.461,113.638 2.704 " stroke="none" fill="#ececec" fill-rule="evenodd"></path><path id="path1" d="M328.610 147.790 C 328.781 147.835,329.060 147.835,329.231 147.790 C 329.402 147.745,329.263 147.709,328.920 147.709 C 328.578 147.709,328.438 147.745,328.610 147.790 M281.348 155.398 C 281.349 155.886,281.384 156.065,281.425 155.795 C 281.466 155.525,281.464 155.125,281.422 154.906 C 281.380 154.688,281.347 154.909,281.348 155.398 " stroke="none" fill="#f0ecec" fill-rule="evenodd"></path><path id="path2" d="M328.610 147.790 C 328.781 147.835,329.060 147.835,329.231 147.790 C 329.402 147.745,329.263 147.709,328.920 147.709 C 328.578 147.709,328.438 147.745,328.610 147.790 M281.348 155.398 C 281.349 155.886,281.384 156.065,281.425 155.795 C 281.466 155.525,281.464 155.125,281.422 154.906 C 281.380 154.688,281.347 154.909,281.348 155.398 " stroke="none" fill="#f0ecec" fill-rule="evenodd"></path><path id="path3" d="M328.610 147.790 C 328.781 147.835,329.060 147.835,329.231 147.790 C 329.402 147.745,329.263 147.709,328.920 147.709 C 328.578 147.709,328.438 147.745,328.610 147.790 M281.348 155.398 C 281.349 155.886,281.384 156.065,281.425 155.795 C 281.466 155.525,281.464 155.125,281.422 154.906 C 281.380 154.688,281.347 154.909,281.348 155.398 " stroke="none" fill="#f0ecec" fill-rule="evenodd"></path><path id="path4" d="M328.610 147.790 C 328.781 147.835,329.060 147.835,329.231 147.790 C 329.402 147.745,329.263 147.709,328.920 147.709 C 328.578 147.709,328.438 147.745,328.610 147.790 M281.348 155.398 C 281.349 155.886,281.384 156.065,281.425 155.795 C 281.466 155.525,281.464 155.125,281.422 154.906 C 281.380 154.688,281.347 154.909,281.348 155.398 " stroke="none" fill="#f0ecec" fill-rule="evenodd"></path></g></svg>