<?xml version="1.0" encoding="utf-8"?>
<!-- Generator: Adobe Illustrator 26.0.1, SVG Export Plug-In . SVG Version: 6.00 Build 0)  -->
<svg version="1.1" xmlns="http://www.w3.org/2000/svg" xmlns:xlink="http://www.w3.org/1999/xlink" x="0px" y="0px"
	 viewBox="0 0 512 512" style="enable-background:new 0 0 512 512;" xml:space="preserve">
<style type="text/css">
	.st0{display:none;}
	.st1{fill:#FFFFFF;}
</style>
<g id="Layer_2_00000108277873548318753550000016967882818708185986_" class="st0">
	
		<image style="display:inline;overflow:visible;" width="775" height="614" xlink:href="FF29853E.jpg"  transform="matrix(0.8436 0 0 0.8436 -70.9137 -3)">
	</image>
</g>
<g id="Layer_3">
	<path class="st1" d="M472,154.3l-5,135.1l5,2.7l5.8,3.1l6.2,4.3l6.6,8.5l5,12.8l4.3,15.9v16.6l-2.3,10.8l-4.3,12.4l-7.7,10.5
		l-7.7,7l-10.8,5.4l-10.5,1.9l-10.1-2.7l-10.5-2.7l-8.1-4.6l-3.9,1.9l-5.4,2.3l2.7,19.7l0.4,25.5h-71.2l-3.9,11.6l-65.8-16.3
		l-1.5,10.8l-39.1-1.5l-39.9-14.7l2.3-11.6l-80.1-9.7v10.1L88,428l-8.1-12l7-8.1L40,366.4l-5.4,8.9L0,358.3l35.7-23.2l11.2,7.7
		l36.4-37.5l-7-9.7l3.5-8.5l24-22.1l13.5,2.3l15.5-53l-7.7-1.5v-17l15.5-9.7l11.2,7l39.5-38.7l-11.6-10.8l7-26.3l32.9-3.9
		c0,0,2.3,0.8,3.5,0s5,10.8,5,10.8l21.8-6.2c0,0,22.7-11.2,23.9-11.2s17.4,1.2,18.6,0c1.2-1.2,27.5-5,27.5-5s-3.5-9.7-2.3-10.1
		c1.2-0.4,64.3-23.2,65-22.1c0.8,1.2,13.9,58.5,13.9,58.5L472,154.3z"/>
</g>
</svg>
