<?xml version="1.0" encoding="utf-8"?>
<!-- Generator: Adobe Illustrator 26.0.1, SVG Export Plug-In . SVG Version: 6.00 Build 0)  -->
<svg version="1.1" xmlns="http://www.w3.org/2000/svg" xmlns:xlink="http://www.w3.org/1999/xlink" x="0px" y="0px"
	 viewBox="0 0 512 512" style="enable-background:new 0 0 512 512;" xml:space="preserve">
<style type="text/css">
	.st0{display:none;}
	.st1{fill:#FFFFFF;stroke:#000000;stroke-miterlimit:10;}
</style>
<g id="Layer_2_00000079443709303632637890000005150704094324403595_" class="st0">
	
		<image style="display:inline;overflow:visible;" width="1300" height="823" xlink:href="../../../../../../../Downloads/Screenshot 2023-12-22 124122.png"  transform="matrix(0.4218 0 0 0.4218 -27 92)">
	</image>
</g>
<g id="Layer_3">
	<path class="st1" d="M507.2,284.3v9.1h2.7v6.5l-2.7,3.8h-6.1h-4.6l-3.8,1.5l-2.7-1.9v1.9l-3.8-1.9v9.5l-5.7,3h-3v2.7l-3,3.4
		l-14.5,6.1l-2.7,6.1l-2.3,10.7l-3,9.1c0,0,1.5,4.6,0,4.6c-1.5,0-11.8,0-11.8,0l-4.2,10.7l-7.6,1.5l-5.3,8h-4.2l-6.1,3.4h-6.9
		l-6.1-1.5l-13-4.2l-8.4,1.9v3.8l-2.3,3.8l-9.9,19.1l-4.2-10.7l-7.2-0.4l-10.3-5.3l-8-5.7l-6.9,1.1l-5.7,7.6l-6.5-0.8l-16.8-1.5
		l-8.8-6.5l-3-1.9l-7.2-4.6l-9.1,2.3l-16-8.4c0,0-5.5-3-5.2-3.8s-12.3-5.3-12.3-5.3v4.6l-3,0.4l-2.3,1.5l-2.7-5.3l-4.6-0.8l-4.2-1.1
		l-2.7,0.4l-1.9,5.3v6.9v6.1L215,383l4.2,5.3h-7.6l-5.7-2.7v3.4l-3.8,4.6l-3.4,5.3l-1.9,6.1v5.3l-7.2-6.1l-7.6,3l-5.3-5.7l-3,5.3
		l-2.7,5.3l-7.2-2.3l-14.9-3.4l-2.7-3.8l2.7-1.1l-2.7-5.3l-10.3-5.3l-7.6-3.8v-3.8l-3-5l-5.3-4.2h-1.4c0,0-1.5-2.8-1.7-3.1
		c-0.1-0.3-3-3-3-3s-1.6-3-1.7-3c-0.1,0-5.1-0.6-5.2-0.4c0,0.2-0.7,5.1-0.9,4.7c-0.2-0.4-3.1-3.6-3.1-3.6l-3.9-2.3v-4.8
		c0,0-0.4-4.1-1.3-4.5s-7.2-7.4-7.2-7.4s-1.7,3.8-4.4,2.3c-2.7-1.5-5.1-2.7-5.1-2.7l-1-5.1l-3.4-3.2l-2.5-6.3l-5.9-6.5L62,322
		l-1.7-1.3l-1.5,2.5l-8.2-1.3l-2.5-7l-5.9-8.4l-2.7-6.7l-4.2-4.8v-2.5v-2.3l-2.7-1v-4v-1l-1.3-2.7l-7.2-2.9l-1.5-5.3
		c0,0,5.7-2.5,5.9-3.4c0.2-1,0.4-6.1,0.4-6.1H30l0.2-3.2l4.2-4.6l-6.5-4l2.7-3.6l-4-2.9l-1.5,1.5l-0.4-1.5l-3.2-2.7l-4.4-2.7
		l-2.3-2.9h-1.3v-1.1l-1.3-1.3l-2.4-1.5l-2.1-0.9c0,0-1-3.1-0.8-3.4c0.2-0.3,2.1-4.6,2.1-4.6l-2.1-3.4l-3.5-3.7c0,0-3.3-1.3-3.3-1.5
		c0-0.2,2.2-2.5,2.2-2.5l-0.7-5l3.8-1l1.8,3.2l1.4,3l3.9,0.2l-0.7,2.3l1.5,1.7l2.2,3l0.8,1l1.1-1.5l0.9-4.1h2.3l-0.6-3.7l3-3.4
		l2.6-3l5.9-2.1l0.4-5.5l10.5-2.1l3.2,2.1l6.1-5.1h3.2l1.5-2.1L57,195l6.3,4.6l6.3-3.4l1.9-10.1h5.3c1,0.4,6.7,0,6.7,0l1.9-3.2
		l3-5.9c0,0,1.5-0.4,3.4,0c1.9,0.4,2.7-4.6,2.7-4.6l2.3-5l5,9.1l5-5.7l2.7-7.6l8-3.8h13.3h3.4l2.7-4.6v-2.3l5.7-2.3h6.9l9.1-5.3
		l3-6.1l3.4,3.4l6.5-3.4l1.5-3.4l-5.3-3v-3.4h-4.2l0.8-5.3l1.5-1.9h1.9l2.3,3l8-0.4l7.6,1.5l0.4,6.5l-2.3,6.5l6.9-3.8l0.4,6.1
		l12.2,5.7c0,0-2.3-6.1,0-6.1c2.3,0,13,2.3,13,2.3l3.4-8.8l-0.8-5l-5.3-4.2c0,0,6.9-1.9,8.4-1.5c1.5,0.4,5.7,2.3,5.7,2.3l5,0.4
		l1.9,3.8l3,2.3l-0.8-6.1c0,0,4.6,6.5,4.6,8s-3.3,5.7-2.1,6.1s9.6,11,9.6,11l7.5-0.9l8.6,2.8l6.1,3.2c0,0,3.9,1.2,4.4,1.2
		c0.5,0,4.7-2.9,5.5-1.7s3.7,11.1,3.7,11.1l7.5-3.6l3.5,6.6l-3,4.3l5.2-0.9l3-4.6l8.8,0.3c0,0,12.4-3.4,13.9-1.1
		c1.5,2.3,6.3,10.1,6.3,10.1l-19.3,15.5l6.7,6.7l3.5,0.2l3,8l3-1l5.5,6.3l2.4,4.1l4,6c0,0-0.4,2.3-0.3,2.7c0.1,0.4,6.1,7,6.1,7
		l4.7-1l4.2-3l3.4-5.7l4-3.4l6.9-1.1l0.5-2.2l3,3.7l1-1.7c0,0-1.7-5.1-1.4-5.4c0.3-0.3,1-4.1,0.6-4.3c-0.4-0.2-5.2-2.5-5.4-2.8
		c-0.2-0.3-4.4-9.3-4.4-9.3l0.7-4.6l5.7,2.4c0,0,3.2,1.2,4,1c0.8-0.2,11.1,3.2,11.8,4c0.8,0.8,12.8,8.2,12.8,8.2l2.5,3.2l4.8,2.7
		l4-1.5l6.5,0.8l3.6,0.2l3.8-3.6l0.6-2.7l3.8,1.9l-0.2,5.7l3.2,4.2l-7.8,5l-4.8,3.6l-0.6,1.5l5.9,2.9l3.4,1l2.7,7.8l4,3.8
		c0,0,3.6,2.5,4.2,2.5s5.3,0,5.3,0l4.6-3l3.2,0.2v-2.9l-4.4-1.3l1.9-1.5l2.1-0.2l4.6,4.6l0.4,3.6l2.7,1l3.2-2.1l2.5,2.5l2.7,1.1
		l2.5,3l3.4,3.7l2.6-2.2c0,0-2-2.5-1.7-2.4s5.7,1.4,6,1.6c0.3,0.2,2.9,2,2.9,2l3.8,1.4c0,0,2.5,1.5,2.7,1.2s-0.3-2.7-0.1-2.7
		s2.1,0,2.3,0.3s0.1,3.2,0.1,3.2l1.4,2.8l0.3,2.4l-1.4,2.3l1.3,2.9l2.5,7.4l1.3,3.2l3.4,0.6l2.9,2l2.7,0.6l2.7,0.2L507.2,284.3z"/>
</g>
</svg>
