<?xml version="1.0" encoding="utf-8"?>
<!-- Generator: Adobe Illustrator 25.0.0, SVG Export Plug-In . SVG Version: 6.00 Build 0)  -->
<svg version="1.1" id="svg" xmlns="http://www.w3.org/2000/svg" xmlns:xlink="http://www.w3.org/1999/xlink" x="0px" y="0px"
	 viewBox="0 0 400 351.6" style="enable-background:new 0 0 400 351.6;" xml:space="preserve">
<style type="text/css">
	.st0{fill-rule:evenodd;clip-rule:evenodd;fill:#FFFFFF;}
</style>
<g id="svgg">
	<path id="path0" class="st0" d="M248.5,18.6c0,0.5,1.3,1.8,1.5,1.6c0.1-0.1,0.5,0.5,0.9,1.3c0.8,1.8,2.2,3.3,4.1,4.2
		c1.7,0.9,1.5,1.5-0.5,1.5c-1.3,0-1.6-0.1-1.6-0.7c-0.1-2.2-2-2.6-4.2-0.9c-1.4,1.1-2.2,1.3-2.9,0.6c-0.3-0.3-0.7-0.3-1.2-0.1
		c-0.4,0.2-1.4,0.3-2.1,0.3c-1.3,0-1.3,0-1.3,1.2c-0.1,2.3-0.2,2.8-1,3.4c-1.4,0.9-1,2,1.9,4.9c2.8,2.8,3,3.3,2.1,4.9
		c-0.5,1-0.5,1.1,0.4,1.8c0.5,0.4,0.9,0.9,0.9,1.1c0,0.6-1.4,2.6-1.8,2.4c-0.2-0.1-0.3-0.1-0.3,0.1c0,0.2-0.5,0.4-1,0.6
		c-0.6,0.1-1.4,0.5-1.8,0.9c-1.7,1.5-7.4,5.6-7.7,5.6c-1.1,0,0.8-2.9,2.1-3.2c0.3-0.1,0.8-0.4,1.1-0.6c0.3-0.3,0.9-0.8,1.3-1.1
		c1.3-0.9,1.2-2.2-0.3-2.5c-0.7-0.1-1.3-0.1-1.3,0.1c-0.2,0.4-1.8,0.4-1.8,0c0-0.2,0.7-0.7,1.5-1.1c5.1-2.6,6.1-4.4,3.9-6.7
		c-0.9-0.9-1.6-1.9-1.6-2.3c0-0.3-0.5-0.9-1.1-1.3c-0.9-0.6-1.2-1-1.2-2.1c-0.1-1,0-1.3,0.3-1.1c0.7,0.4,0-1.2-1-2.6
		c-0.9-1.2-2.2-2-2.6-1.5c-0.7,1-2.4,1.8-3.5,1.8s-1.4,0.2-2.1,1.2c-0.4,0.7-1,1.5-1.2,1.7c-0.5,0.5,0.7,2,1.5,1.7
		c0.2-0.1,0.9,0.3,1.4,0.8c1.3,1.1,1.6,1.1,1.1,0c-0.2-0.5-0.3-1.3-0.3-1.8c0-1.3,1.2-1.1,1.7,0.3c0.2,0.6,0.6,1.7,0.9,2.3
		c0.7,1.5,0.6,2.6-0.1,4.1c-0.5,1.1-1.4,1.5-1,0.4c0.7-1.8-2.3-4.8-4.9-4.9c-1.4-0.1-2.4-1.5-1.6-2.5c0.2-0.2,0.4-0.9,0.5-1.5
		s0.4-1.1,0.6-0.9c0.2,0.1,0.3,0,0.3-0.1c0-0.7-1-0.7-1.6,0c-0.3,0.4-1.2,1-1.8,1.4c-1.4,0.8-1.5,1.9-0.5,3.2c1.4,1.8,0.6,3.9-1.5,4
		c-1.5,0.1-1.7-0.4-0.4-0.9c0.5-0.2,0.9-0.5,0.9-0.7s-0.4-0.3-0.9-0.1c-0.7,0.2-0.9,0.1-0.9-0.5c0-0.8-1-2.3-1-1.6
		c0,0.3-0.3,0.4-0.7,0.3c-0.4-0.1-0.7,0-0.7,0.2s-0.4,0.1-0.8-0.2c-0.7-0.4-0.9-0.4-1.2,0c-0.2,0.3-0.8,0.5-1.2,0.5
		c-0.8,0-0.8-0.1,1.3-1.6c1.3-0.9,1.3-1,0.7-1.5c-1.1-0.8-2.1-0.6-2.6,0.5c-0.7,1.4-1.8,2.5-2.4,2.6c-0.9,0-4.1,2-4.7,3
		c-0.6,1-0.8,1.1-1.6,0.6c-0.4-0.2-0.4-0.5-0.1-1c0.2-0.4,0.3-0.8,0.1-0.9c-0.2-0.1-0.4,0-0.4,0.2c-0.1,0.4-3.5,0.8-3.5,0.4
		c0-0.1-0.3-0.2-0.6-0.3c-0.3,0-1.1-0.2-1.8-0.3c-1.1-0.2-1.2-0.2-1.5,0.8c-0.2,0.6-0.5,1.1-0.7,1.1s-0.2,0.2-0.1,0.3s0,0.7-0.3,1.2
		c-0.5,0.8-0.5,2.9,0,3.7c0.1,0.2,0,0.9-0.2,1.6c-0.5,1.6-1.7,1.8-1.7,0.4c0-1.1-0.5-1.1-1.5,0c-0.7,0.8-1.3,1.1-2.4,1.2
		c-0.1,0-0.2,0.3,0,0.6c0.1,0.3,0,0.7-0.2,1s-0.3,0.6-0.1,0.7c0.2,0.2-1.7-0.1-2-0.4c-0.1-0.1-0.4,0.1-0.7,0.4
		c-0.5,0.5-0.5,0.6,0,0.9c0.3,0.2,1.3,0.9,2.2,1.7s1.9,1.5,2.3,1.6c0.6,0.2,0.6,0.3,0.3,0.7c-0.2,0.3-0.6,0.4-0.7,0.3
		c-0.2-0.1-0.3,0-0.3,0.2c0,0.5-1.3,0.5-2.5-0.2c-1.3-0.7-1.6-0.2-0.8,1.3c1.2,2.3,3.6,3.7,4,2.2c0.1-0.5,0.5-0.7,1.5-0.8
		c1.2-0.1,1.3,0,1.2,0.6c-0.1,0.4,0,0.6,0.1,0.5c0.2-0.1,0.3,0.1,0.3,0.5c0,0.8-1.6,1.1-1.9,0.3c-0.2-0.5-1.3,0.7-1.3,1.5
		c0,0.6,1.3,1.9,1.7,1.6c0.5-0.3,1.3,0.4,0.9,0.9c-0.4,0.4-2.6-0.1-3.6-0.8c-0.3-0.3-0.6-0.2-0.9,0c-0.6,0.6-3.6,0.5-4.1-0.1
		c-0.4-0.5-0.6-0.4-1.5,0.4c-0.6,0.5-1.3,0.8-1.6,0.7c-0.4-0.1-0.6,0-0.6,0.5c0,0.4,0.2,0.7,0.4,0.7c0.3,0,1,0.3,1.6,0.7
		c0.6,0.4,1.4,0.7,1.7,0.7c0.8,0,4.2,2.8,4,3.2c-0.4,0.7-1.6,0.3-2.5-0.9c-0.9-1.2-1.1-1.2-3-1.2c-2.2,0-2.5,0.4-0.7,1.1
		c1.6,0.6,0.3,0.9-3.4,0.7l-3.7-0.2l-2.8,1.5c-1.5,0.8-3,1.8-3.2,2.2c-0.8,1.5-1.3,1.9-2.3,1.7c-1.1-0.2-1.3,0.3-0.4,1.4
		c0.3,0.4,0.5,1,0.4,1.3s0.2,0.6,0.8,0.7s1,0.3,1,0.5c0,0.1,0.4,0.3,1,0.3c1.6,0.1,2.9,0.8,3.3,1.7c0.3,0.8,0.5,0.9,2.6,0.9
		c1.2,0,2.7,0.2,3.2,0.4c0.8,0.3,1,0.3,1.3-0.2c0.2-0.3,0.8-0.5,1.4-0.5c0.6,0,1.4-0.2,1.7-0.4c0.5-0.3,0.8-0.2,1.4,0.7
		c1,1.4,1.2,1.3,1.7-0.2c0.5-1.6,1.7-2.3,1.9-1.1c0.1,0.6,0.5,0.8,1,0.8c0.6,0,0.8,0.2,0.8,1c0,0.7-0.2,1-0.4,1s-0.4,0.1-0.4,0.3
		c0,0.2-0.2,0.4-0.4,0.4c-0.6,0-2.4,1.6-2.4,2.1c0,0.6,1.1-0.1,3.2-1.9c1-0.9,2.1-1.7,2.6-1.8c0.5-0.1,1.2-0.7,1.6-1.2
		c0.8-1,2.7-1.5,2.4-0.6c-0.4,1.1,1,1.8,2.2,1.1c1.2-0.6,1.6-0.7,3.7-1c0.6-0.1,1.3-0.2,1.5-0.4c0.2-0.1,0.4-0.1,0.4,0
		c0,0.2,0.2-0.1,0.5-0.5c1-1.5,1.9-0.6,1.2,1.2c-0.2,0.6-0.4,1.2-0.4,1.3c0.1,0.5-1,0.7-1.4,0.3c-0.7-0.7-1.4-0.5-1.2,0.5
		c0.2,0.8,0,1-1.4,1.9c-0.9,0.6-1.5,1.1-1.2,1.1c0.2,0,0.4,0.4,0.4,0.8c0,0.8-2.4,2.6-2.9,2.1c-0.1-0.1-0.2,0.1-0.1,0.4
		c0.1,0.7,1,1.1,2.4,1.2c1.1,0,1.1,0.9,0,0.9c-0.4,0-1.3,0.4-2,0.9c-1.2,0.8-3.6,1.4-5.8,1.6c-0.5,0-1.4,0.3-2.1,0.6
		c-2.2,1-2.7,1.1-3.3,0.5c-0.3-0.3-0.6-0.8-0.6-1s-0.2,0.3-0.5,1.1c-0.3,0.9-0.4,1.7-0.3,1.8c0.1,0.2-0.5,0.6-1.2,1
		c-0.8,0.4-1.4,0.6-1.4,0.5s-0.1-0.1-0.3,0.1c-0.4,0.6-5.7,3.3-6.1,3.1c-0.2-0.1-0.3-0.1-0.3,0.1s-0.4,0.5-1,0.7
		c-2.7,1.2-1.2,2.1,3.7,2.3c2.5,0.1,3.4,0.3,3.9,0.7c0.9,0.9,0.1,1.6-1.4,1c-0.6-0.2-1.3-0.3-1.6-0.1c-0.4,0.2-0.4,0.3,0.2,0.5
		c0.4,0.1,0.8,0.4,0.8,0.6s0.5,0.2,1.1,0.1c0.7-0.1,1.1-0.1,1.1,0.2c0,0.2,0.1,0.4,0.2,0.2c0.3-0.3,2.2,0.9,2.2,1.4
		c0,0.4-2,0.3-2.3-0.2c-0.1-0.2-0.6-0.2-1.2,0c-0.6,0.2-1.1,0.2-1.2,0.1c-0.1-0.1-0.2,0-0.2,0.2c0,0.3-0.2,0.3-0.9,0
		c-0.8-0.3-1-0.3-1.8,0.4c-1.1,1-1.2,1.8-0.2,1.5c0.9-0.2,2.4,0.7,2.9,1.8c0.2,0.5,0.5,0.8,0.7,0.7c0.5-0.3,2.1,0.5,2.1,1.1
		c0,0.4-0.2,0.5-0.9,0.4c-0.5-0.1-1.3,0-1.8,0.2c-0.8,0.4-1,0.3-1.7-0.6c-0.4-0.5-1.3-1.2-1.9-1.5c-0.8-0.3-1.3-0.8-1.6-1.7
		c-0.4-1.3-0.7-1.4-3.4-1.7c-0.8-0.1-1.4,0-1.3,0.2c0.3,0.4-0.8,0.4-1.6,0c-0.4-0.2-1.1-0.2-2.2,0.2c-2.1,0.7-4.4,0.4-7-0.9
		c-1.5-0.8-2.2-0.9-2.7-0.7c-0.4,0.2-0.7,0.2-0.8,0c-0.9-1.4-6.3,0.3-6.1,1.9c0.2,1.5-1.8,4.1-2.6,3.4c-0.2-0.1-0.2-0.1,0,0.2
		c0.1,0.2,0,0.6-0.4,0.8c-0.6,0.3-0.7,0.9-0.8,3c0,0.6-0.1,0.6-0.8-0.3c-0.4-0.6-1.1-1.3-1.4-1.6c-2.9-2.4-2.9-2.4-2.1-3
		c0.6-0.5,0.6-0.6,0.2-0.9c-0.3-0.2-0.5-0.9-0.5-1.5c0-1-0.1-1.2-1-1.2s-1.5-0.3-1.5-0.8c-0.3-2-3.6-3-5.9-1.7
		c-1.4,0.8-1.8,0.9-3,0.6c-0.7-0.2-1.7-0.3-2.2-0.4c-1.1,0-2.8-0.8-2.8-1.2c0-0.2-0.4-0.1-0.9,0c-1.2,0.4-2,0.4-1.7,0
		c0.1-0.2-0.1-0.2-0.7,0c-1.3,0.5-6.2,0.5-6.2,0c0-0.2-0.6-0.3-1.8-0.2c-1.5,0.2-2.1,0.1-3.5-0.6c-1.3-0.7-1.9-0.8-3.1-0.6
		c-0.8,0.1-1.7,0.2-1.8,0.1c-0.2-0.1-0.3,0-0.3,0.2s-0.2,0.4-0.5,0.4c-0.4,0-0.4,0.2,0,1.1c0.3,0.6,0.8,1.1,1.2,1.1
		c0.4,0,0.8,0.2,0.9,0.4c0.1,0.2,0.5,0.3,0.7,0.2c0.3-0.1,0.5,0,0.5,0.2s-0.2,0.3-0.4,0.3c-0.6,0-0.4,1,0.4,1.4
		c1.4,0.8,0.6,1-1.1,0.3c-2.2-0.9-2.9-0.9-3.6,0c-0.7,0.8-1,2.1-0.5,2.3c0.6,0.4,0.4,1-0.3,0.7c-0.3-0.1-0.5-0.1-0.4,0
		c0.3,0.3-1.4,1.9-2,1.9c-0.3,0-0.5-0.2-0.6-0.4c-0.1-0.2-0.8-0.5-1.7-0.6c-1.3-0.2-1.6-0.4-1.7-1.1c-0.2-1.1,1.9-0.8,2.8,0.4
		c0.3,0.5,3.1-2.5,3.1-3.3c0-0.4-0.2-0.7-0.5-0.7s-0.4,0.2-0.3,0.4c0.2,0.3,0.1,0.3-0.4,0.1c-0.4-0.2-1.1-0.3-1.7-0.4
		c-1.7-0.1-1.8-0.1-2.6-0.9c-0.4-0.4-0.7-1-0.6-1.2c0.1-0.3-0.1-0.5-0.5-0.5s-0.7,0.2-0.9,0.5c-0.1,0.3-0.9,0.9-1.7,1.3
		c-1.6,0.8-2.8,1.9-2.5,2.2c0.1,0.1-0.1,0.6-0.4,1.1c-0.8,1.1-0.7,1.3,0.2,1.3c1.3,0,1.4,0.4,0.5,1.6c-0.5,0.6-0.9,1.7-1.1,2.4
		c-0.1,0.7-0.5,1.5-0.7,1.8c-1.5,1.6-1.6,4.8,0,4.8c0.5,0,0.9,0.2,0.9,0.4c0,0.6,1,0.4,1.2-0.3c0.2-0.4,0-0.8-0.5-1.1
		c-0.9-0.6-0.9-1,0-1.2s0.9-1.2,0.1-2.1c-0.8-0.8,0.1-1.7,1.7-1.7c0.5,0,1-0.1,0.9-0.3c-0.1-0.7,0.1-1.1,0.6-1.1
		c0.4,0,0.5-0.2,0.3-0.9c-0.5-2.2,1-2.1,3.7,0.1c1.1,0.9,1.1,1,0.5,1.4c-0.5,0.4-0.6,0.6-0.2,1.2s0.3,0.7-0.1,0.9
		c-0.6,0.2,0.5,1.5,2.1,2.5c0.8,0.5,0.1,1.3-1,1c-0.3-0.1-0.7,0-0.8,0.2c-0.1,0.2-0.7,0.3-1.2,0.2c-1.3-0.3-1.3,0.2-0.1,1.9
		c1.6,2.2,3.5,1.5,5.3-2c0.3-0.5,0.7-0.8,1.3-0.8c1.1,0,1.4,0.5,0.7,1.1c-0.3,0.2-0.5,0.7-0.5,0.9s-0.2,0.5-0.4,0.5
		s-0.3,0.3-0.2,0.7c0.1,0.4,0,0.9-0.3,1.1s-0.5,0.3-0.5,0.2c0-0.1-0.2,0-0.5,0.3s-0.5,0.7-0.5,0.9c0,0.2-0.2,0.4-0.4,0.5
		c-0.3,0.1-0.3,0.3-0.1,0.5c0.2,0.2,0.6,0.8,0.9,1.3c0.4,0.7,0.8,1.1,1.5,1.2c0.9,0.1,1,0.3,1.1,2.1c0,0.8,0.5,1.1,1.5,1.1
		s2.6,1.7,1.9,2.1c-0.3,0.2-0.4,0.6-0.3,1c0.1,0.6,0,0.7-0.5,0.7s-0.7-0.2-0.7-0.8c0-1.2-2.9-2.8-4.3-2.4c-0.5,0.2-1.1,0.2-1.2,0.1
		c-0.1-0.1-0.2,0.5-0.2,1.4s-0.1,1.6-0.3,1.6c-0.4,0-1.2,2.1-0.9,2.5c0.1,0.2-0.1,0.3-0.4,0.3c-0.4,0-0.2,0.4,0.7,1.1
		c0.8,0.7,1.5,0.9,1.7,0.8c0.2-0.2,0.9-0.4,1.4-0.6c0.6-0.1,2.4-0.9,4-1.7l3-1.4l3,0.4c1.6,0.2,4,0.3,5.3,0.2
		c2.3-0.1,3.3,0.7,1.9,1.6c-0.2,0.2-0.2,0.4,0.1,0.7c0.3,0.4,0.2,0.7-0.8,1.6c-0.7,0.6-1,1.1-0.8,1.2c0.3,0.1,0.3,0.3,0,0.7
		c-0.5,0.6-0.3,1.5,0.2,1.2c0.1-0.1,0.6,0.1,1.1,0.5l0.9,0.6l-1,0.2c-0.5,0.1-1.4,0.1-1.9,0s-0.8-0.1-0.7,0c0.2,0.2-1.1,0.5-2.8,0.8
		c-4.5,0.7-4.8,0.7-5.6,0.1c-0.7-0.4-0.9-0.4-1.7,0.1c-0.5,0.3-1.2,0.5-1.5,0.4s-0.8,0-1.1,0.2c-0.3,0.2-0.5,0.3-0.5,0.1
		s-0.2-0.1-0.5,0.2c-0.3,0.2-1,0.4-1.5,0.3c-0.9-0.1-1,0-1,1.3c0,0.8-0.3,2-0.7,2.8c-0.5,1-0.6,1.7-0.4,2.4c0.1,0.6,0.2,1.1,0.1,1.3
		s0,0.3,0.2,0.3s0.4,0.3,0.4,0.6c0,0.4,0.9,1.1,2.7,2c3.3,1.7,3.1,1.5,2.8,1.8c-0.1,0.1-0.8,0-1.6-0.2c-1.2-0.4-1.6-0.3-2.8,0.3
		c-1.1,0.5-2.1,0.7-5.2,0.7c-2.1,0-3.8,0.1-3.8,0.2c0,0.5,1,1.2,2.4,1.8c1.7,0.8,1.8,1,0.5,1.9l-0.9,0.7l-0.5-0.9
		c-1-1.6-5.7-1.9-5.7-0.4c0,0.9-1.1,1.3-1.6,0.5c-0.1-0.2-0.3-0.3-0.5-0.2c-0.1,0.1-0.9,0.2-1.7,0.3c-0.8,0-1.4,0.2-1.4,0.5
		c0.1,0.4,0.9,0.5,1.7,0.2c0.8-0.4,1.6,0.2,2.1,1.5c0.8,1.9,2.6,3.1,4.7,3.1c0.9,0,1.5,0.5,1,0.8c-0.2,0.1-0.8,0-1.4-0.1
		c-1.4-0.4-1.4,0-0.1,1c1,0.7,1,0.7,0.3,1.2c-0.8,0.6-2.3,0.8-2.3,0.2c0-0.2-0.3-0.3-0.6-0.2c-0.3,0.1-1,0.2-1.5,0.3
		s-1.2,0.7-1.5,1.3l-0.7,1.1l1-0.2c0.7-0.1,1.1,0,1.4,0.4c0.3,0.5,0.7,0.5,2.3,0.2c1.8-0.4,4.2,0.8,4.9,2.5c0.2,0.5,2.7,0.3,3.9-0.3
		c1-0.5,1.3-1.1,1.1-2c-0.1-0.6,0.8-1.3,1.7-1.3c0.5,0,1.3-0.1,1.8-0.2l0.9-0.2l-0.8,0.7c-0.5,0.4-0.7,1-0.6,1.3
		c0.2,0.6,1.1,0.7,1.5,0.2c0.5-0.7,2.7-1.5,3.1-1.1c0.3,0.3,0.2,0.5-0.4,0.6c-1.1,0.3-1,1.1,0.2,1.2c1.3,0.2-1.4,2-3.1,2.1
		c-1.3,0.1-2,0.6-2,1.5c0,0.3-0.2,0.6-0.3,0.6c-0.2,0-0.2,0.4,0,1s0.5,1,0.8,0.9c1.7-0.5,2.7-0.5,2.7,0.1c0,0.3,0.1,0.5,0.2,0.4
		s0.5-0.1,0.9,0.2c0.8,0.4,2.7,0.6,2.7,0.3c0-0.1,0.4-0.4,0.8-0.5c1.2-0.4,1.9-1.1,3.1-3.1c1.4-2.4,2.9-3.6,3.7-2.8
		c0.6,0.6,0.1,2.5-0.5,2.1c-0.1-0.1-0.2,0.3,0,0.8c0.1,0.5,0.5,1.1,0.9,1.3c1.3,0.8,2.5-2.2,1.2-3c-0.7-0.5,0.2-1,1.8-1
		c1.7,0,1.7,0.1-0.1,1.2c-0.6,0.3-0.5,0.5,0.6,1.2c1.3,0.9,1.3,0.9,0.6,1.7c-0.5,0.7-0.7,0.8-1.2,0.4c-0.4-0.4-0.6-0.4-0.6,0
		c0,0.3-0.3,0.4-0.7,0.3c-0.7-0.2-1,0.6-0.3,1c0.4,0.2,0.2,2.5-0.2,4.4c-0.2,0.7-0.1,1,0.5,1.3c0.8,0.4,1,0.2,1.8-2.7
		c0.3-1.1,0.6-1.5,1.1-1.5c0.9,0,1.2,1,0.5,1.8c-1.7,1.9,4.7,4.3,7.2,2.6c0.4-0.3,0.8-0.4,1-0.3c0.1,0.1,0.2,0,0.2-0.2
		s0.2-0.3,0.4-0.2s0.4,0,0.4-0.2c0-0.3,1-0.4,2.9-0.4c1.6,0,4.7-0.1,6.9-0.2c2.2-0.1,5.3-0.2,6.8-0.2s2.7-0.2,2.7-0.3
		c0-0.2,0.2-0.2,0.5-0.1c0.3,0.1,0.5,0.1,0.5-0.1c0-0.5,2-0.8,4.4-0.5c2.7,0.3,2.8,0.4,1,1.4c-0.7,0.4-1.3,0.9-1.2,1.2
		c0.1,0.5-1.6,1.2-2.3,1c-0.3-0.1-0.4,0-0.4,0.2c0.1,0.3,1.3,0.5,3.5,0.6l3.4,0.2l-1.4,1.5c-0.8,0.8-1.2,1.5-1,1.6s0.5,0.6,0.7,1.3
		c0.4,1.5-0.5,1.6-2.2,0.1c-0.7-0.6-1.2-0.9-1.2-0.7s-0.5,0.3-1.3,0.2l-1.3-0.2l1.1,0.6c0.6,0.3,1.1,0.7,1.1,0.9
		c0,0.5-1.4,0.3-2-0.3c-1-1-4.7-0.7-4.7,0.4c0,0.2,0.1,0.3,0.2,0.2c0.4-0.4,2.3,0.5,2.6,1.2c0.5,0.9,0.2,1.1-1.2,0.7
		c-1-0.3-1.3-0.2-1.4,0.2c-0.1,0.3-0.4,0.4-0.6,0.3c-0.2-0.1-0.4-0.1-0.4,0.1c0,0.6-1.8,0.9-2.2,0.3c-0.2-0.3-0.3-0.3-0.3-0.2
		c0,0.2-0.7-0.3-1.6-1c-3-2.4-4-2.1-5.9,1.6c-0.4,0.7-1.1,1.6-1.6,2c-1,0.8-3.6,4.6-3.6,5.5c0,0.6-1.3,2.2-3.4,4.4
		c-1.8,1.8-1.6,1.9,2.4,2c3.9,0.1,3.9,1.3-0.2,3.9c-0.5,0.3-0.9,0.9-0.9,1.2c0,0.9-1.6,3.6-2.6,4.5c-0.6,0.5-0.8,1-0.7,1.4
		c0.4,1.2-1.3,4.1-2.2,3.7c-0.2-0.1-0.4,0-0.4,0.2s-0.7,0.2-1.6,0.1c-0.9-0.1-1.7-0.1-1.8,0.1c-0.1,0.2-0.7,0.5-1.2,0.7
		c-0.6,0.3-1,0.7-1,1.2s-0.4,1.1-1,1.5s-3.3,2.4-6,4.6c-2.8,2.1-5.1,3.9-5.3,3.9c-0.2,0-0.4,0.1-0.6,0.1c-0.1,0-0.4,0.1-0.5,0.1
		c-0.4,0-4.4,2-4.7,2.4c-0.1,0.2,0.1,0.4,0.4,0.6c0.3,0.1,0.7,0,0.8-0.2c0.2-0.3,0.8-0.3,1.7-0.2c0.8,0.1,1.4,0.1,1.3-0.1
		c-0.1-0.1,0.9-0.4,2.2-0.5c3.3-0.3,3.4-0.3,4.4-1c0.5-0.3,1.2-0.5,1.9-0.4c0.7,0.1,0.9,0.1,0.8-0.2c-0.4-0.7,0.2-1.5,1.7-1.9
		c1.4-0.4,3.9-1.2,6-2l1-0.4l-0.8-0.8c-1.1-1.1-1-1.3,0.6-1.2c1.2,0.1,1.3,0.2,1.5,1.2c0.1,0.9,0.4,1.1,1.2,1.2
		c0.6,0.1,1.5,0.5,2.1,1c1,0.8,1.2,0.9,4.2,0.7c3.9-0.2,4.1-0.2,4.7-0.7c0.2-0.2,0.6-0.2,0.8-0.1c0.2,0.1,0.4,0.1,0.4-0.2
		s0.2-0.3,0.4-0.2s0.4,0,0.4-0.2s0.2-0.4,0.4-0.4c0.9,0,0.3,1.5-0.9,2c-1.5,0.7-1.6,1.1-0.3,1.4c0.6,0.2,1.3,0,2.2-0.7
		c0.7-0.5,1.8-0.9,2.4-0.9c3.9,0,8.8-3.7,11.1-8.4c0.4-0.8,0.9-1.5,1-1.5c0.2,0,0.2-0.1,0.1-0.3c-0.2-0.4,1.5-1.8,2-1.6
		c0.2,0.1,0.3,0,0.3-0.2s0.4-0.4,0.9-0.4c1,0,1.1,0.4,0.3,1.2c-0.5,0.5-0.5,0.6,0,0.6c0.7,0,1.2,3.1,0.5,3.5c-0.8,0.5,0.1,1,2.1,1.2
		c1,0.1,1.8,0,1.8-0.2s0.6-0.3,1.2-0.3c0.7,0,1.2,0.1,1.2,0.3c0,0.1,0.4,0.3,1,0.3c1.2,0,3.1,0.9,3,1.4c-0.1,0.3-0.9,0.5-4.5,0.7
		c-1,0.1-2,0.2-2.4,0.4c-0.3,0.2-1.3,0.2-2,0.1c-0.8-0.1-1.4,0-1.4,0.1c0,0.2-0.2,0.3-0.5,0.3s-0.8,0.5-1.1,1
		c-0.4,0.7-0.7,1-1.1,0.8c-0.3-0.1-0.5,0-0.5,0.2c0,0.6-1.7,0.5-2.7-0.2c-0.6-0.4-0.9-0.4-0.9-0.1c0,0.2-0.2,0.3-0.5,0.2
		s-0.5-0.1-0.5,0.1c0,0.4-4.5,1.5-4.9,1.3c-0.2-0.1-0.3,0-0.3,0.2s-0.2,0.4-0.4,0.4s-0.8,0.3-1.3,0.6c-1.4,1-2.6,1.2-9.2,1.2
		c-2.7,0-4.8,0.2-4.8,0.3c0,0.8-7.4,1.1-7.7,0.3c-0.1-0.2-0.4-0.2-0.7-0.1c-0.3,0.1-0.6,0-0.8-0.2c-0.4-0.6-3.4,0.6-3.9,1.4
		c-0.7,1.4-1.1,4.1-0.5,4.3c0.3,0.1,0.7,0.2,1,0.3c1.2,0.4,1.4,1.6,0.2,1.6c-0.6,0-1.1-0.1-1.1-0.3c0-0.8-2.6-0.2-3.8,1
		c-1.7,1.6-6,3.2-8,3c-1.1-0.1-1.2-0.1-0.7,0.2c0.5,0.3,0.3,0.3-1.1,0.4c-1.6,0-2.6,0.5-2.6,1.2c0,0.4,3.1,1.7,4.1,1.7
		c0.5,0,0.8,0.2,0.7,0.3c-0.1,0.2,0,0.3,0.3,0.2c0.6-0.2,1.9,0.9,1.3,1.2c-0.2,0.2-0.3,0.9-0.1,2.1c0.3,2,0.2,2.8-0.4,2.8
		c-0.2,0-0.3,0.2-0.3,0.5s-0.2,0.6-0.5,0.7c-1.1,0.4-1,1.3,0.2,1.1c0.8-0.2,1.5,0,2.3,0.5c0.6,0.4,1.6,0.7,2.1,0.7s1.3,0.2,1.6,0.5
		c0.9,0.7-3,1.1-4.3,0.5c-0.8-0.4-1-0.3-1.5,0.5c-0.7,1-4.7,1.2-6.1,0.3c-0.2-0.1-1-0.4-1.8-0.7c-1.6-0.5-1.7-0.6-2-3.3
		c-0.2-1.5-0.3-1.7-1.1-1.7c-1,0-1.1,0.2-0.3,1.1c0.3,0.4,0.4,0.6,0.2,0.6c-0.2,0-0.3,0.2-0.2,0.5c0.2,0.6-1.2,2.4-1.6,2.2
		c-0.2-0.1-0.3,0-0.3,0.1c0,0.5-2.1,1.1-4,1.3c-1.4,0.1-1.6,0-1.6-0.6c0-0.4,0.1-0.7,0.3-0.7c0.1,0,0.3-0.5,0.3-1.2
		c0.1-1.3-0.5-1.8-1.7-1.3c-0.4,0.2-1,0.2-1.2,0.1s-0.4,0-0.4,0.2s-0.3,0.4-0.6,0.3c-0.3,0-1.1,0.1-1.6,0.3
		c-0.5,0.2-1.1,0.4-1.3,0.4s-0.9,0.6-1.6,1.4c-1,1.1-1.6,1.4-2.5,1.4c-1.3,0-1.6,0.4-1.3,2c0.3,1.9-0.4,2.7-1.7,2.1
		c-0.6-0.3-1-0.8-1-1c0-0.4-0.2-0.4-1.1,0s-1.1,0.7-1.1,1.3c0,0.6-0.2,1-0.8,1.2c-0.8,0.4-0.9,0.6-0.2,2.3c0.2,0.4,0.4,0.9,0.5,1.2
		c0.4,1.1,1.9,1.6,3.1,0.9c0.6-0.3,1.2-0.5,1.3-0.4c0.3,0.3,1.2-0.7,1.2-1.2c0-0.3,0.4-0.4,1.3-0.2c3.3,0.6,4.2,0.6,3.3,0.1
		c-0.7-0.4-0.8-0.5-0.2-0.7c0.9-0.3,1.9-0.3,1.9,0.1c0,0.6,1.4,0.8,2,0.4c0.4-0.4,0.7-0.3,1.3,0.3c0.8,0.7,0.9,0.8,3,0.2
		c4-1,5.4-1.3,8-1.4c1.4-0.1,2.4,0.1,2.9,0.4c1.1,0.7,1.3,0.6,1-0.4c-0.2-0.9-0.2-0.9,2.2-0.8c1.3,0,3.9-0.1,5.7-0.2l3.3-0.2
		l-0.8,0.7c-0.5,0.4-0.7,0.8-0.4,0.9c0.9,0.5,0.3,1-1,0.8c-0.8-0.1-1.4,0-1.4,0.1c0,0.5-3.1,0.4-4.1-0.2c-0.8-0.5-0.9-0.5-0.9,0.2
		c0,0.4-0.2,0.7-0.3,0.7c-0.2,0-0.3,0.2-0.1,0.5c0.1,0.3-0.1,1-0.4,1.6s-0.5,1.3-0.4,1.4c0.1,0.2-0.3,0.3-0.9,0.3
		c-0.8,0-1.2-0.2-1.4-0.8c-0.3-0.7-0.3-0.7-0.8,0.4c-0.5,1.3-3.1,2.6-4.4,2.3c-0.4-0.1-0.8,0-0.9,0.2s-1,0.4-2,0.4s-1.8,0.2-1.8,0.3
		c0,0.1-0.7,0.4-1.6,0.7c-0.9,0.3-1.6,0.6-1.6,0.7c0,0.4-2.8,1.5-3.3,1.3c-0.3-0.1-0.5-0.1-0.5,0.1s-0.3,0.4-0.6,0.4
		c-0.4,0-0.4,0.1-0.2,0.2c0.7,0.3,0.5,1-0.4,1.5l-0.9,0.4l0.7,1.2c0.4,0.7,0.9,1.2,1,1.2c0.5,0,0.7,1.1,0.3,1.6
		c-0.2,0.3-0.7,0.5-1.1,0.5c-1.2,0-5.7,1.5-6.1,2.1c-0.8,1.2-0.4,2.3,0.8,2.5c1.3,0.2,2.3,1.2,1.6,1.7c-0.4,0.2-0.4,2,0,2.4
		c0.2,0.2,3.9-2.4,4.8-3.5c1.7-2,4.7-0.1,4.3,2.7c-0.1,0.8-1.1,1.7-1.5,1.4c-0.2-0.1-0.3,0-0.3,0.1c0,0.2,1.1,0.7,2.4,1.3
		c1.3,0.5,2.5,1.1,2.6,1.3c0.3,0.6,2-0.1,3.7-1.4c1.4-1.1,1.7-1.2,2.6-0.9c0.6,0.2,1,0.2,1,0s0.2-0.3,0.4-0.3c0.2,0,0.9-0.4,1.7-0.9
		c0.7-0.5,1.9-1,2.6-1.1s1.5-0.5,1.7-0.7c0.6-0.8,1.7-0.6,1.6,0.2c-0.1,0.4-0.1,0.7,0,0.7c0.5,0,2.2-1.1,2.4-1.6
		c0.1-0.3,0.6-0.5,1.3-0.5c0.6,0,1.4-0.2,1.9-0.5c1.2-0.8,7.6-3,8.6-3c0.5,0,1.4-0.1,1.9-0.2c2.4-0.6,0.8,0.8-2.1,1.9
		c-1.7,0.6-3.4,1.3-3.7,1.5s-1.1,0.3-1.7,0.3c-0.7,0-1.2,0.2-1.4,0.7c-0.2,0.4-0.6,0.7-0.8,0.7c-1.1,0-2.8,2.4-2,2.9
		c1.3,0.8,0.8,1.1-1.5,0.9c-1.5-0.1-2.2,0-2.1,0.3c0.1,0.5-0.8,1.3-1.7,1.4c-0.5,0-0.7-0.1-0.5-0.6c0.1-0.3-0.1-0.7-0.3-0.8
		c-0.3-0.1-0.5,0-0.5,0.2s-0.2,0.3-0.5,0.3c-0.6,0-4.4,2.5-4.5,2.9c0,0.1,0.5,0.3,1.1,0.3c2.9,0-1,3.2-4.2,3.4
		c-2.8,0.2-3.1,0.3-2.6,1c0.2,0.3,0.6,0.5,0.8,0.4c0.2,0,0.4,0.1,0.5,0.4s0,0.4-0.2,0.3s-0.3,0.1-0.2,0.6c0.2,0.9-0.1,1-2.5,1.5
		c-1.5,0.3-2.6,1.2-2.6,2.1c0,0.7,0.2,0.7,1.3-0.2c0.5-0.4,1-0.6,1.2-0.5s0.9,0,1.5-0.2c1-0.3,1.4-0.3,2.2,0.1
		c1,0.5,2.4,0.2,2.9-0.6c0.1-0.2,0.7-0.3,1.3-0.4c0.6,0,1.1-0.2,1.1-0.3c0-0.1,0.2-0.3,0.5-0.3s0.8-0.4,1.2-1c0.7-1,3.3-2.1,4-1.6
		c0.2,0.1,0.6,0,0.9-0.2c0.3-0.3,1.1-0.4,2.1-0.2c0.9,0.1,1.6,0.1,1.7-0.1s0.9-0.4,1.9-0.4c1-0.1,1.8-0.2,2-0.4
		c0.1-0.1,1.2-0.4,2.5-0.5c1.8-0.2,2.8-0.5,4.5-1.6c1.2-0.7,2.4-1.2,2.6-1.1s0.3,0.1,0.1-0.2c-0.1-0.2-0.1-0.4,0.1-0.4
		s0.3-0.5,0.2-1.2c-0.1-0.9-0.1-1.2,0.4-1.4c0.8-0.3,1.2,0,1.2,1c0,1.1,1.6,2,3.2,1.7c1.5-0.3,1.9,0.3,1.1,1.8
		c-0.6,1.2-3,2.3-3.9,1.8c-0.2-0.1-0.4-0.1-0.4,0.1s-1,0.6-2.1,0.9c-1.2,0.3-2.2,0.8-2.3,1c-0.3,0.4-6.1,3.2-6.7,3.2
		c-0.2,0-0.4,0.1-0.4,0.3c0,0.1-0.6,0.4-1.4,0.7c-0.8,0.2-1.5,0.7-1.6,0.9c-0.1,0.3-0.9,0.9-1.7,1.4l-1.5,0.9h1.4
		c1.4,0,3.8-0.9,9.8-3.7c2.8-1.3,3.9-1.5,4.7-1c0.6,0.4,0.1,0.8-1.7,1.5c-0.7,0.3-1.9,1.1-2.8,2c-1.8,1.7-3.2,2.5-5,2.8
		c-0.7,0.1-2,0.8-2.8,1.5c-1.8,1.5-2.7,2-3.1,1.7c-0.2-0.1-0.4,0.1-0.5,0.3c-0.1,0.3,0,0.6,0.3,0.7c0.4,0.1,0.5,0.5,0.3,1
		c-0.3,1.1,0.6,1.8,1.2,1.1c0.5-0.6,1.3-0.7,1.5-0.2s3.8-1.3,3.6-1.8c-0.2-0.4,3-3.1,3.6-3.1c0.5,0,1.2,1.2,0.9,1.5
		c-0.1,0.1,0.3,0.2,0.9,0.2s1.2-0.2,1.3-0.4c0.1-0.2,0.7-0.4,1.2-0.4c0.7,0,1.1-0.3,1.5-0.9c0.4-0.7,0.7-0.9,1.3-0.8
		c0.4,0.1,0.8,0,0.8-0.2s0.5-0.3,1.1-0.1c0.6,0.1,1.1,0.1,1.1-0.1s0.5-0.4,1.1-0.6c0.6-0.1,0.9-0.3,0.7-0.4c-0.6-0.2-0.5-1,0.1-1.3
		c0.9-0.3,2.7,0.8,2.5,1.5c-0.8,2.8-0.1,3.9,1.3,2.1c0.7-0.9,2.2-1.7,3.1-1.7c0.2,0-0.3,0.6-1.1,1.4l-1.5,1.4l0.8,1.1l0.8,1.1
		l1.1-0.7c3-1.9,4.1-2.1,3.6-0.8c-0.1,0.4,0,0.5,0.5,0.3c0.4-0.1,0.7-0.1,0.7,0.1c0,0.6,1.4,0,1.8-0.7c0.2-0.4,0.6-0.7,1-0.7
		c0.5,0,0.6-0.2,0.5-0.6c-0.1-0.5,0.2-0.7,1.7-1s2-0.5,2.6-1.5c0.7-1.1,1.7-1.5,2.1-0.9c0.1,0.2,0.6,0.2,1.2,0.1
		c0.5-0.1,1.4-0.2,1.9-0.2s1-0.2,1-0.3c0-0.9,3.6,0.3,4,1.2c0.1,0.3,0.3,0.4,0.6,0c0.3-0.2,1-0.5,1.5-0.5c0.8-0.1,1.2-0.5,2-1.7
		l0.9-1.6l2.9,0.1c1.7,0.1,3.1,0.3,3.4,0.5c0.8,0.8,3.3,0.3,3.4-0.7c0.2-3.1,0.2-3-0.9-3c-1.2,0-2.4-0.6-2.4-1.1
		c0-0.3,0.5-0.3,1.5-0.1c2.3,0.4,6.7,0.5,7.2,0.1c0.8-0.6,2.4-0.1,3.1,1c0.8,1.3,1.4,1.2,0.8-0.1c-0.4-0.9,0.4-3.1,1.4-4
		c0.7-0.6-0.1-1.2-1.1-0.9c-0.3,0.1-0.8,0.1-1.1-0.1c-0.5-0.3,2.4-0.8,3.2-0.6c0.2,0.1,0.5,0.5,0.6,0.9c0.4,1.5,1.3,1,1.1-0.6
		c-0.2-1.1-0.1-1.3,0.3-1.1c0.3,0.1,0.5,0.4,0.5,0.5c0,0.2,0.1,0.2,0.3,0.1s0.4,0,0.5,0.2c0.1,0.3,0.4,0.2,1.1-0.2
		c0.5-0.3,1.1-0.5,1.3-0.4s0.4,0.1,0.4-0.1s0.5-0.4,1.2-0.6c1.4-0.3,4.5-3.4,4.2-4.2c-0.1-0.3,0-0.9,0.3-1.3c0.7-1.2,0.7-1.6,0-1.6
		c-0.4,0-0.6-0.2-0.5-0.7c0-0.6-0.2-0.8-0.7-0.8c-1.4,0-1.6-0.4-0.9-1.9c0.5-1,0.5-1.3,0.2-1.2c-0.3,0.1-0.9,0-1.4-0.3
		s-1.3-0.4-1.8-0.3s-0.8,0.1-0.8-0.2c0-0.2-0.1-0.3-0.3-0.2c-0.2,0.1-0.6-0.1-1-0.4c-0.6-0.5-0.6-0.5-0.1-0.4c0.3,0.1,0.6,0,0.6-0.2
		s0.9-0.3,2.6-0.3c1.4,0.1,2.5,0,2.5-0.1c-0.1-0.1,0.4-0.3,1-0.4s1.2,0,1.3,0.1c0.1,0.2,0.7,0.3,1.5,0.3s1.4,0.1,1.4,0.3
		c0,0.3,1.7,0.3,2,0c0.9-0.9,1.5,0.2,0.6,1.2c-0.5,0.6-0.5,0.6,0.2,1c0.4,0.2,0.7,0.5,0.7,0.7c0,0.4-2,1.5-2.2,1.2
		c-0.1-0.1-0.4,0.2-0.6,0.7c-0.2,0.5-0.6,1-0.9,1.1c-2.4,0.9,5.1,1.2,8.1,0.3c2-0.6,3.5-0.9,4.7-0.9c0.8,0,1.1-0.8,0.4-1.2
		c-0.9-0.5,3.1-2.9,4.1-2.5c0.2,0.1,0.5,0,0.7-0.2c0.1-0.2,0.5-0.3,0.9-0.2c0.4,0.1,0.7,0,0.7-0.1c0-0.2,0.3-0.3,0.7-0.3
		c0.6,0,1.1-0.7,0.4-0.7c-0.8,0-1.5-1.8-0.9-2c1.4-0.5,2.9-2.3,2.9-3.5c0-1.3,1-1.7,1.3-0.5c0.4,1.7,6.4,2.1,6.9,0.4
		c0.2-0.6,0.4-1.2,0.6-1.2c0.1,0,1.1-0.1,2.1-0.1c3.8-0.3,5.5-1.2,5.2-2.8c-0.2-1-0.1-1.2,0.9-1.6c1.7-0.8,1.6-2.3-0.3-2.6
		c-0.8-0.1-1.4-0.4-1.4-0.6s-0.4-0.3-0.9-0.1c-1.2,0.3-1.4-0.2-0.4-1.2c1-0.9,2.2-1.2,2.5-0.5c0.3,0.8,1.2,0.9,1.7,0.3
		c0.3-0.4,0.9-0.6,1.9-0.6c0.8,0,1.4-0.1,1.4-0.2c0-0.4,3.7-1.7,5.6-1.9c1.1-0.1,2.7-0.3,3.7-0.4c2.4-0.2,6.5-0.2,7.7,0.1
		c0.8,0.2,1.2,0,2-0.8c0.6-0.6,1.3-1,1.6-1c1.7-0.1,1.8-0.2,1.6-0.7c-0.2-0.4,0.1-0.5,0.8-0.5c1.4,0,1.6,0.3,1,1.2
		c-0.9,1.2-0.6,1.5,1.7,1.5c2.3,0,2.7-0.2,4.9-2.5c1.2-1.3,1.3-1.6,0.1-1.6c-1,0-1.1-0.6-0.3-1.7c0.5-0.7,0.5-0.9-0.2-2
		c-0.4-0.7-0.6-1.5-0.5-1.7c0.1-0.3,0-0.6-0.2-0.8c-0.5-0.3-0.5-1.6,0-1.6c0.4,0,1.2,1.8,0.9,2c-0.1,0.1,0.6,0.9,1.6,1.8
		c2.9,2.7,3.5,5.3,1.6,6.9c-0.7,0.5-1.2,1.1-1.2,1.3c0,0.6,1,0.3,1.6-0.5c0.4-0.4,1.6-1.2,2.7-1.7c1.1-0.6,2.2-1.3,2.6-1.6
		c0.7-0.7,0.8-3,0-3c-0.6,0-0.7-1.2-0.1-1.6c0.2-0.1,0.5,0,0.7,0.2c0.2,0.3,0.4,0.4,0.6,0.1c0.3-0.4,1.7-1.2,2-1.2
		c0.7,0,0,1.5-0.9,1.9c-1.9,1-1.3,1.4,1.6,1.1c2.7-0.2,6.8,0.3,6.8,0.9c0,0.2,0.2,0.2,0.4,0.1c0.2-0.1,0.8,0.1,1.4,0.5
		c1.2,0.9,1.9,0.9,3.9,0.2c0.8-0.3,1.8-0.5,2.2-0.4c0.3,0.1,0.6,0,0.6-0.2s0.3-0.3,0.7-0.2c0.4,0.1,0.7,0,0.7-0.2s0.2-0.1,0.4,0.2
		c0.5,0.9,2.5,0.8,3.6-0.1s2.5-0.5,1.5,0.4c-0.8,0.7-0.7,1.1,0.3,1.1s1.7-0.7,2.8-2.9l0.8-1.6l-1.3-1c-0.7-0.6-1.7-1.6-2.1-2.2
		c-0.6-0.9-0.9-1.1-1.4-0.9c-0.4,0.1-0.7,0-0.9-0.3c-0.1-0.3-0.7-0.7-1.2-0.9c-1-0.3-1.4-1.1-0.6-1.1c0.2,0-0.3-0.8-1.2-1.7
		c-1.4-1.5-1.5-1.7-1-2.1c0.8-0.6,1.2-0.6,1.2,0.2c0,0.5,0.3,0.6,2.2,0.6c1.2,0,2.5,0.1,2.9,0.2c0.6,0.2,0.7,0,0.9-1.8
		c0.2-2.3,0.9-3.4,3.3-5.8c2-2,3.4-3.6,4.7-5.6c0.5-0.8,1-1.5,1.2-1.5c0.4-0.2,0.3-4.2-0.1-4.5c-0.2-0.1-0.3-0.5-0.2-0.9
		c0.1-0.4,0.1-0.7-0.1-0.7c-1.2,0-0.3-3.5,1.4-5.9c1-1.3,1.7-2.6,1.7-2.8s0.3-0.7,0.6-1c0.5-0.5,0.5-0.7,0.1-1.1
		c-1-1.2,1.2-6,3.6-7.8c0.6-0.5,1.2-1.2,1.2-1.5s0.6-1.7,1.4-3.1c0.8-1.3,1.5-2.7,1.7-3.1c0.1-0.4,0.4-0.6,0.8-0.5
		c1.1,0.4,0.5-0.9-1.1-2.4s-2.1-4.6-0.9-5c0.8-0.3,0.1-5.4-1.2-7.6c-0.7-1.4-1.2-2.7-1.2-3.3c0.1-0.6-0.2-1.3-0.7-1.9
		c-1-1.1-1.4-3.3-0.9-5.1c0.4-1.4,0.2-1.6-1.8-2.1c-1.4-0.3-4.7-3.3-4.7-4.4c-0.1-1,3.1-3.3,4.2-3.1c0.3,0.1,0.7,0,0.7-0.2
		c0.1-0.2,0.8,0.1,1.6,0.8c1.5,1.2,2.4,1.3,2.8,0.2c0.3-0.8-0.5-1.2-2.1-1.2c-0.8,0-1.3-0.1-1.1-0.4c0.1-0.2,0-0.4-0.2-0.4
		s-0.3-0.1-0.2-0.3c0.1-0.2,0-0.8-0.3-1.3s-0.4-1.1-0.3-1.2c0.1-0.1-0.2-0.4-0.6-0.5c-3.5-1.1-3.9-2.2-0.7-2.2
		c1.2,0,1.8-0.2,2.1-0.7c0.2-0.3,0.6-0.8,0.7-1c0.2-0.2,0.2-0.6,0.2-0.8c-0.1-0.2,0.1-0.8,0.5-1.2c1.5-1.6,0.4-5.6-1.5-5.6
		c-0.3,0-0.5-0.2-0.5-0.4s-0.2-0.3-0.4-0.1c-0.5,0.3-2-0.7-2.6-1.9c-0.3-0.6-1-1.3-1.5-1.6c-2.2-1.3-3.6-10.3-2-12.2
		c0.6-0.6,0.5-0.7-0.3-1.5c-0.9-0.9-1.1-2.1-0.5-3.5c0.4-0.9-0.2-1.3-2.5-1.6c-5-0.7-6-2.3-4.9-7.6c0.2-1,0.7-2,1.5-2.7
		c0.3-0.3,0.4-0.6,0.2-0.6c-0.2,0-0.4-0.2-0.4-0.5c0-0.4,0.3-0.5,1.3-0.3c1.7,0.2,3.6,0.8,3.6,1.1c0,0.1,0.7,0.3,1.6,0.3
		c0.9,0.1,2.3,0.5,3.1,1c1.8,1,2.2,0.9,3.9-1l1.1-1.2l-0.9-0.8c-0.5-0.4-1.3-0.9-1.8-1s-1.1-0.5-1.4-0.9s-1-0.9-1.6-1.2
		c-1.1-0.6-4.4-3.1-4.9-3.8c-0.2-0.2-0.4-0.2-0.6,0.1c-0.3,0.5-2.5,0.5-3.1,0c-0.7-0.5-1.2,0.1-1.2,1.5s-0.7,2.4-1.4,2
		c-0.2-0.1-0.4-0.1-0.4,0.1c0,0.5-2.7,0.5-3,0c-0.3-0.6-2.3-0.4-4.8,0.4c-2.6,0.8-3.3,0.9-3,0.4c0.4-0.6-0.4-0.4-1.4,0.4
		c-1.8,1.4-4.5-0.8-3.8-3c0.2-0.7,0.3-1.6,0.2-2c-0.1-0.5,0-1,0.4-1.4c1.7-1.9,1-3.7-1.9-5.3l-1.3-0.7l-0.8,0.8l-0.8,0.8l-1.8-1
		c-2-1.1-3.9-3.2-3.6-4.2c0.1-0.3,0-0.5-0.2-0.4s-0.3-0.1-0.3-0.5s-0.4-0.8-1.2-1.1c-1.4-0.5-1.5-0.8-0.5-1.4c0.8-0.5,1-2.2,0.3-2.2
		c-0.2,0-0.3-0.1-0.2-0.2c0.2-0.2,0-0.6-1.7-2.4c-0.6-0.6-1.4-1.7-1.9-2.3c-0.5-0.6-1-1.1-1.2-1.1s-0.7-0.3-1.3-0.7
		c-0.5-0.4-1.4-0.8-1.9-0.9s-0.9-0.4-0.9-0.6c0-1.5-2.7,0.2-5,3.1c-0.8,1-1.6,1.8-1.7,1.7c-0.2-0.1-0.3,0-0.3,0.3
		c0,0.5-0.8,1-1.8,1.1c-0.3,0-0.7,0.1-1,0.1c-0.2,0-0.4,0.4-0.4,0.9s-0.2,1.1-0.5,1.5c-0.5,0.7-0.1,1.5,0.7,1.6
		c0.1,0,0.2,0.3,0.2,0.7c-0.1,0.4,0.3,0.8,1,1.2c0.8,0.4,1,0.7,0.9,1.2c-0.1,0.3-0.2,0.9-0.2,1.3c0,0.7-2.1,2-3,1.8
		c-1.5-0.3-3.6,1.8-2.9,2.7c0.3,0.4,0.3,0.6,0,0.9c-0.2,0.2-0.4,0.8-0.4,1.2c0,0.8-1.2,1.9-2,1.9c-0.5,0-0.6-1.2-0.1-2.2
		c0.3-0.6,0.3-0.7-0.4-0.6c-1.4,0.2-1.9,1.2-1.2,2.3c0.9,1.4-1,2-2.6,0.7c-0.2-0.2-0.7-0.2-1-0.1c-0.6,0.2-1.9-1-1.9-1.8
		c0-0.5-1.4-0.6-1.4-0.1c0,0.8-3.6,2.2-4.5,1.9c-0.5-0.2-2-0.5-3.2-0.8c-2.3-0.4-2.7-0.7-3.4-2c-1.1-1.9-4.8-3.4-8.8-3.4
		c-2.1,0-4-0.2-4.3-0.4c-0.7-0.5-1.5-2.7-1.3-3.7c0.4-1.9-2.1-4.5-3.4-3.7c-0.6,0.3-2.1-1-3.3-2.9c-0.9-1.4-1.4-1.9-2-1.9
		c-1.2,0-3.2-1.4-4.8-3.3c-0.8-0.9-1.7-1.9-2.1-2.2c-2.6-1.8-2.2-3.9,0.6-4.1c0.8,0,1.4-0.2,1.4-0.3c0-0.1,0.4-0.3,0.8-0.4
		c0.4-0.1,1.7-1.3,2.9-2.7c1.7-2,2.2-2.5,2.8-2.3c4.9,1.4,7.2,1.1,11.1-1.9c1.5-1.2,2.9-2.1,3.2-2.1c0.2,0,0.4-0.2,0.4-0.4
		c0-0.2,0.2-0.3,0.4-0.2c0.6,0.2,1.3-0.6,1.3-1.3c0-0.7-0.2-0.7-1.7-0.2c-1.1,0.4-3.1-0.4-4-1.6c-0.2-0.3-0.3-0.2-0.5,0.1
		c-0.3,0.7-1.7,0.5-2.5-0.4c-0.4-0.5-1.2-1-1.8-1.1c-0.9-0.2-1.1-0.4-1-1.2c0-0.6-0.2-1.3-0.5-1.7c-0.6-0.7-0.6-0.7,0.5-0.9
		c0.6-0.1,1.7-0.8,2.5-1.4l1.5-1.2l1.3,0.8c3.7,2.2,4.2,2.2,7.2,0.1c2.2-1.5,4.4-2.1,4.4-1.2c0,0.2,0.2,0.4,0.5,0.4s0.5-0.1,0.5-0.3
		c0-0.2,0.5-0.3,1.1-0.3s1.1,0.2,1.1,0.3c0,0.5,1.1,0.3,1.1-0.1c0-0.2,0-1.2,0-2.1c-0.1-1.6,0-1.8,2.4-4.2c2.9-3,4-5,3.9-7.1
		c-0.1-1.9,0.3-3,1.1-3.2c0.4-0.1,0.7-0.4,0.7-0.7s0.2-0.5,0.3-0.5c0.2,0,0.2-0.3-0.1-0.9c-1-2.3,2.6-6.5,5.2-6
		c0.9,0.2,1.2,0.1,1-0.1c-0.1-0.2,0-0.4,0.3-0.4c0.9,0,3.2-2.1,3.9-3.5c1.1-2.3,4.3-5.5,5.3-5.3c0.5,0.1,0.9,0,0.9-0.1
		c0-0.2,0.2-0.3,0.4-0.3c0.2,0,1.6-0.8,3-1.8c2.4-1.6,3.1-1.9,4.2-1.8c0.2,0,0.4-0.1,0.4-0.4c0-0.2,0.3-0.3,0.9-0.2
		c0.5,0.1,0.8,0,0.7-0.1c-0.1-0.1,0.2-0.3,0.5-0.4c0.5-0.1,0.7-0.5,0.7-1.2c0-1.3-0.4-2-1.2-1.7c-0.5,0.2-2.7-0.5-2.7-0.9
		c0-0.1-0.7-0.2-1.6-0.3c-0.9-0.1-1.8-0.2-2-0.3c-0.2-0.1-0.7-0.3-1-0.3c-1.5-0.2-3.6-1.7-5-3.6c-1.7-2.1-3-3-5.6-3.4
		c-0.8-0.1-1.6-0.3-1.7-0.4c-0.2-0.1-0.7-0.2-1.2-0.3c-0.4,0-1.3-0.4-2-0.8C249.6,18.3,248.5,18.1,248.5,18.6 M180.4,49.3
		c-0.1,0.2-0.1,0.3,0.1,0.3c0.2,0-0.1,0.2-0.5,0.5c-1.6,1.1-0.3,2.9,1.9,2.5c1.8-0.3,2.3-0.8,1.8-1.8
		C183.2,49.9,180.8,48.7,180.4,49.3 M184.3,69.3c0.1,0.2,0.5,0.3,0.7,0.2c0.3-0.1,0.5,0,0.5,0.4c0,0.5-0.3,0.5-1.3,0.4
		c-1.5-0.2-1.7-0.4-1.4-0.9C183.2,68.8,184,68.8,184.3,69.3 M90.6,129.8c0,0.7-3.5,1.9-4.1,1.4c-0.7-0.6-3.3-0.7-3.3-0.1
		c0,1.1-1.4,1.9-3,1.7c-1.3-0.2-1.5-0.1-1.5,0.3c0,0.3,0.3,0.5,0.8,0.5c1.3,0,3,0.4,2.9,0.7c-0.1,0.1,0.3,0.2,0.9,0.1
		c0.7-0.1,1,0,0.9,0.2s0.2,0.3,0.8,0.3c0.6,0,1-0.2,1-0.3c0-0.2,0.6-0.2,1.2-0.1c0.7,0.1,1.2,0.1,1-0.1c-0.3-0.4,2-0.4,2.6,0
		c0.3,0.2,0.5,1,0.5,2.2v1.9l1.2,0.1c0.8,0.1,1.7,0.5,2.6,1.3c2,1.8,3,1.3,3.1-1.6c0-0.8,0.2-1.4,0.3-1.4c0.3,0,0.2-1.1-0.1-1.7
		c-0.2-0.3-0.5-0.3-1-0.1c-0.9,0.5-1-0.9-0.1-2c0.6-0.9,0.4-1.9-0.6-2.9C96,129.4,90.6,129.1,90.6,129.8 M107.3,163.3
		c0.1,0.2,0.2,0.4,0.1,0.5c-0.2,0.2-1.3-0.2-1.3-0.6C106.1,162.8,107,162.8,107.3,163.3 M112,163.3c1,1-0.4,1.3-3.1,0.8l-1.2-0.2
		l1.2-0.4C110.5,162.8,111.4,162.8,112,163.3 M88.4,165.9c0.4,0.1,1.1,0.1,1.6,0c0.4-0.1,0.1-0.2-0.8-0.2S87.9,165.9,88.4,165.9
		 M112.1,190.1c-1.8,0.9,0.1,4.2,1.9,3.5c1.8-0.8,2.1-1.8,0.8-2.9C113.7,189.5,113.3,189.5,112.1,190.1 M106.1,200.9
		c0,0.2,0.4,0.5,0.9,0.8c0.5,0.2,0.9,0.5,0.9,0.7s0.2,0.2,0.3,0.1c0.2-0.1,0.9,0.1,1.7,0.4c0.7,0.3,1.4,0.6,1.5,0.7
		c0.5,0.2,1.7,0.6,2.4,0.9c1.1,0.5,1.8-0.2,0.9-0.9c-0.4-0.3-0.6-0.6-0.4-0.8c0.1-0.2,0.1-0.5,0-0.7c-0.3-0.5-3.9-1.6-3.9-1.1
		c0,0.4-1.3,0.4-1.6,0C108.4,200.4,106.1,200.4,106.1,200.9 M72.4,298c-2.9,1.7-3.5,2.5-1.6,2.4c0.8-0.1,1.5-0.2,1.5-0.3
		c0-0.1,0.6-0.3,1.4-0.4c1.3-0.2,3.6-1.7,3.2-2.1C76.1,296.8,74.1,297,72.4,298 M101.8,319.8c0,0.1-0.6,0.3-1.2,0.5
		c-1.3,0.2-1.7,1.3-0.5,1.3c0.4,0,0.7,0.2,0.7,0.4c0,0.3,0.1,0.3,0.5,0c0.3-0.2,1.1-0.4,1.7-0.5c0.7,0,1.1-0.2,1-0.4
		c-0.1-0.2,0.3-0.2,1-0.1s1,0.1,0.8,0s-0.5-0.5-0.6-0.8C105.1,319.6,101.8,319.3,101.8,319.8"/>
	<path id="path1" class="st0" d="M248,17.9c-0.1,0.2,0.2,0.4,0.7,0.4s1-0.2,1.1-0.4c0.1-0.2-0.2-0.4-0.7-0.4
		C248.6,17.6,248.1,17.7,248,17.9 M250.6,22.8c0,0.2,0.3,0.6,0.8,1l0.8,0.7l-0.6-1C250.9,22.5,250.6,22.3,250.6,22.8 M248.8,24.5
		c-0.4,0.4-0.2,0.8,0.3,0.6c0.3-0.1,0.5-0.3,0.5-0.5C249.6,24.2,249.1,24.2,248.8,24.5 M253.5,25.6c-0.6,0.3-0.5,1.1,0.1,1.3
		c0.3,0.1,0.7,0.1,0.8,0c0.1-0.1,0-0.2-0.2-0.2c-0.3,0-0.4-0.3-0.2-0.7c0.1-0.4,0.2-0.7,0.1-0.7C254,25.4,253.8,25.5,253.5,25.6
		 M224.8,30.6c-0.1,0.2,0,0.4,0.2,0.4c0.3,0,0.2,0.2-0.2,0.5c-0.5,0.4-0.6,0.5-0.1,0.5c0.3,0,0.6-0.2,0.8-0.5
		C225.7,30.7,225.1,30,224.8,30.6 M238.7,32c0,0.6,0.1,1.1,0.3,1.1s0.3-0.5,0.3-1.1c0-0.6-0.2-1.1-0.3-1.1S238.7,31.4,238.7,32
		 M274.8,32.1c-0.8,0.6-0.8,0.9,0.1,0.7c0.4-0.1,0.7-0.4,0.7-0.7C275.6,31.6,275.6,31.6,274.8,32.1 M229.4,32.2
		c-0.1,0.1-0.2,0.5-0.2,0.8c0,0.5,0,0.5,0.3,0c0.3-0.4,0.3-0.4,0.3,0c0,0.3,0.1,0.4,0.2,0.3c0.1-0.1,0.1-0.5-0.1-0.8
		C229.8,32.2,229.6,32.1,229.4,32.2 M223.9,33c0,0.2,0.2,0.4,0.5,0.5s0.5,0,0.5-0.3s-0.2-0.5-0.5-0.5S223.9,32.9,223.9,33 M220.8,37
		c0.1,0.3,0,0.7-0.2,1c-0.3,0.3-0.3,0.4,0,0.4c0.8,0,1.1-0.9,0.5-1.4C220.7,36.5,220.6,36.5,220.8,37 M231.2,37.7
		c-0.1,0.4-0.3,1.1-0.5,1.5c-0.3,0.6-0.2,0.6,0.3,0.2c0.3-0.3,0.5-0.6,0.4-0.8c-0.1-0.1,0-0.3,0.2-0.3s0.4-0.3,0.4-0.7
		C232,36.7,231.4,36.7,231.2,37.7 M242.2,37.2c0,0.1,0.3,0.5,0.7,0.7c0.7,0.4,0.7,0.4,0.3-0.3C242.7,36.9,242.2,36.7,242.2,37.2
		 M203.5,38.5c0,0.3,0.3,0.6,0.6,0.6s0.5-0.2,0.4-0.4C204.3,38,203.5,37.9,203.5,38.5 M260.8,39.1c-1.1,1.2-1.3,1.5-0.6,1.2
		c0.5-0.2,2.2-2.3,1.8-2.3C262,38,261.4,38.5,260.8,39.1 M249.4,48.2c-0.7,0.7-0.7,0.8,0.1,0.4c0.9-0.4,1.4-1.1,0.9-1.1
		C250.2,47.5,249.7,47.8,249.4,48.2 M237.6,48.8c-0.5,0.3-0.9,0.9-1,1.1c0,0.3,0.2,0.2,0.5-0.3c0.3-0.4,0.8-0.8,1-0.8
		s0.6-0.2,0.7-0.4C239.2,48,238.6,48.1,237.6,48.8 M178.5,51.4c0,0.6,0.2,1.1,0.4,1.1s0.4-0.5,0.4-1.1s-0.2-1.1-0.4-1.1
		C178.7,50.3,178.5,50.8,178.5,51.4 M233.6,51.5c-0.6,0.8-0.8,1.2-0.5,1.2s0.6-0.4,0.8-0.8c0.2-0.5,0.6-0.8,1.1-0.7
		c0.4,0.1,0.5,0,0.3-0.2s-0.4-0.4-0.6-0.6C234.7,50.4,234.1,50.8,233.6,51.5 M185.2,50.9c0,0.1,0.6,0.7,1.3,1.3l1.3,1l-1.2-1.3
		C185.4,50.6,185.2,50.5,185.2,50.9 M189.2,59.7c0.3,0.1,0.6,0.3,0.6,0.5s0.2,0.2,0.4,0.1c0.6-0.4,0.4-0.7-0.6-0.8
		C189,59.5,188.8,59.6,189.2,59.7 M184.5,62.4c0.3,0.3,0.8,0.6,1.2,0.6c0.7,0,0.7,0,0-0.2c-0.4-0.1-0.9-0.4-1.2-0.6
		C184,61.8,184,61.8,184.5,62.4 M190,62.6c-0.2,0.4,1.8,1,2.2,0.6c0.1-0.1-0.1-0.2-0.5-0.2s-0.9-0.2-1.1-0.4
		C190.3,62.3,190.1,62.3,190,62.6 M181.2,63.2c-0.4,0.4-0.2,0.8,0.3,0.6c0.3-0.1,0.5-0.3,0.5-0.5C182,62.9,181.6,62.9,181.2,63.2
		 M180.6,67.3c0,0.1,1,0.3,2.3,0.3c2,0,2.3,0.1,2.9,0.9c0.6,1,1.7,1.2,1.3,0.4c-0.1-0.3-0.4-0.5-0.6-0.5c-0.2,0-0.7-0.3-1-0.6
		C184.8,67.1,180.6,66.7,180.6,67.3 M180.3,68.2c0,0.2-1.3,0.4-2.9,0.5l-2.9,0.1l3.5,0.1c3.1,0.1,3.4,0,3-0.5
		C180.5,67.8,180.3,67.8,180.3,68.2 M170.4,70.7c0,0.2-0.2,0.3-0.4,0.2c-0.2-0.1-0.4,0-0.4,0.2c0,0.4,0.4,0.5,1,0.1
		c0.3-0.2,0.4-0.4,0.1-0.5C170.6,70.4,170.4,70.5,170.4,70.7 M167.8,73.2c-0.6,0.5-0.6,0.7-0.1,0.7c0.3,0,0.7-0.3,0.8-0.6
		C168.8,72.5,168.6,72.5,167.8,73.2 M217.6,74.8c0,0.6,1,1.7,1,1c0-0.3-0.2-0.6-0.4-0.6s-0.1-0.2,0.3-0.3c0.7-0.3,0.7-0.3-0.1-0.3
		C217.9,74.6,217.6,74.7,217.6,74.8 M165.7,76.9c-0.3,0.3-0.3,1.5,0,1.5c0.1,0,0.3-0.4,0.3-0.9s0-0.9,0-0.9
		C166,76.7,165.9,76.8,165.7,76.9 M171.3,80.1c0.3,0.3,0.7,0.5,0.8,0.3c0.1-0.1,0-0.4-0.3-0.6C171,79.3,170.7,79.5,171.3,80.1
		 M225,80c0,0.1,0.4,0.4,0.9,0.7c0.5,0.3,0.9,0.4,0.9,0.3s-0.4-0.5-0.9-0.7C225.4,80.1,225,79.9,225,80 M193.3,80.7
		c-0.7,0.8-0.2,1,0.5,0.2c0.4-0.4,0.5-0.7,0.3-0.7S193.5,80.4,193.3,80.7 M229,80.5c0.4,0.2,0.8,0.7,0.9,1.3c0.2,1,0.2,0.9,0.3-0.3
		c0-1.2,0-1.3-0.9-1.3C228.4,80.3,228.4,80.3,229,80.5 M188.7,81.2c0.3,0.2,0.4,0.6,0.3,0.9c-0.1,0.4-0.1,0.5,0.3,0.3
		c0.7-0.3,0.5-1.3-0.4-1.4C188.4,80.9,188.3,81,188.7,81.2 M172.5,81.6c0,0.2,1.1,0.4,2.5,0.4c1.6,0,2.4-0.1,2.3-0.4
		c-0.1-0.2-1.2-0.4-2.5-0.4C173.5,81.3,172.5,81.4,172.5,81.6 M203.5,81.6c0,0.2,0.2,0.4,0.5,0.4s0.5-0.2,0.5-0.4
		c0-0.2-0.2-0.4-0.5-0.4C203.7,81.3,203.5,81.4,203.5,81.6 M179.8,81.9c-0.1,0.2-0.4,0.3-0.5,0.2c-0.2-0.1-0.4,0-0.5,0.2
		s0.1,0.4,0.5,0.4c0.7,0,1.3-0.6,1-0.9C180.1,81.6,179.9,81.7,179.8,81.9 M184.2,82.3c0.2,0.4,0.6,0.7,0.8,0.7s0.1-0.3-0.2-0.7
		c-0.4-0.4-0.7-0.7-0.8-0.7C183.8,81.6,183.9,81.9,184.2,82.3 M186,84.1c-0.4,0.4-0.7,0.8-0.6,0.9c0.1,0.1,0.5-0.2,1-0.6
		c0.4-0.4,0.7-0.8,0.6-0.9S186.4,83.7,186,84.1 M199.5,84.6c-0.1,0.3-0.1,0.5,0.2,0.4c0.5-0.2,0.8-1,0.4-1
		C199.9,84.1,199.6,84.3,199.5,84.6 M196.1,89c0,0.4,0.2,0.7,0.4,0.7s0.4-0.2,0.4-0.5s-0.2-0.6-0.4-0.7
		C196.3,88.4,196.1,88.6,196.1,89 M210.6,89.7c-0.4,0.7-0.4,0.7,0.3,0.3c0.4-0.2,0.7-0.5,0.7-0.7C211.6,88.8,211.1,89,210.6,89.7
		 M203.5,95.7c0,0.2,0.3,0.5,0.7,0.7c0.7,0.4,0.7,0.3,0.3-0.3C204,95.3,203.5,95.1,203.5,95.7 M178.5,99.2c0,0.2-0.3,0.4-0.7,0.6
		c-0.4,0.1-0.7,0.3-0.6,0.4c0.2,0.2,2-0.6,2-1c0-0.2-0.2-0.3-0.4-0.3C178.7,98.9,178.5,99,178.5,99.2 M264,102
		c-0.3,0.2-0.4,0.4-0.2,0.6c0.1,0.1,0.4,0.1,0.7-0.2C265,101.9,264.7,101.6,264,102 M133.3,105.6c-0.4,0.6-0.1,0.6,1.1,0.1l1.1-0.5
		h-0.9C134,105.2,133.4,105.4,133.3,105.6 M119.4,105.9c-0.8,0.3-0.8,0.3,0.3,0.3c0.6,0,1.1-0.1,1.1-0.3
		C120.8,105.5,120.7,105.5,119.4,105.9 M259.4,106.3c-0.3,0.6-0.3,0.7,0,0.6c0.2-0.1,0.4-0.3,0.4-0.4c0-0.2,0.2-0.4,0.4-0.6
		c0.3-0.2,0.3-0.3,0-0.3C260,105.5,259.6,105.9,259.4,106.3 M106.1,108.2c0,0.2-0.1,0.7-0.3,1c-0.2,0.4-0.1,0.5,0.2,0.4
		c0.2-0.1,0.4-0.1,0.4,0.2c0,0.2,0.1,0.4,0.2,0.3s0-0.6-0.1-1.2C106.3,108.3,106.1,108,106.1,108.2 M98.3,109.1
		c0,0.2,0.2,0.3,0.4,0.2c0.2-0.1,0.6,0,0.9,0.2c0.5,0.4,0.5,0.4,0.4-0.1C99.8,108.8,98.3,108.5,98.3,109.1 M141.3,108.9
		c0.1,0.9,0.6,1.7,0.7,0.9c0-0.4-0.1-0.9-0.3-1C141.4,108.8,141.2,108.8,141.3,108.9 M176.1,109.2c-0.2,0.3-0.4,0.6-0.3,0.7
		c0.1,0.1,0.4-0.1,0.6-0.4c0.2-0.3,0.4-0.6,0.3-0.7C176.6,108.8,176.3,108.9,176.1,109.2 M260.3,109.4c-0.1,0.2-0.1,0.6,0.2,0.8
		c0.3,0.3,0.4,0.2,0.4-0.4C260.8,109,260.7,108.8,260.3,109.4 M101.7,109.7c-0.2,0.4,0.3,0.8,0.6,0.5c0.3-0.3,0.3-0.8-0.1-0.8
		C102,109.4,101.8,109.6,101.7,109.7 M175,111.7c0,0.4,1,1.2,1.2,1c0.1-0.1,0-0.4-0.3-0.7C175.4,111.5,175,111.4,175,111.7 M96,113
		c-0.2,0.3-0.1,0.3,0.2,0.2c0.2-0.1,0.6-0.1,0.8,0c0.3,0.2,0.2,0.3-0.1,0.5c-0.3,0.2-0.1,0.3,0.8,0.3c0.7,0,1-0.1,0.7-0.2
		s-0.7-0.4-1-0.7C96.7,112.5,96.3,112.4,96,113 M177.1,112.9c0,0.2,0.3,0.6,0.8,1l0.8,0.7l-0.6-1
		C177.4,112.5,177.1,112.4,177.1,112.9 M287.7,115.5c-0.6,0.8-0.9,1.6-0.4,1c0.3-0.3,0.7-0.7,1-1c0.3-0.2,0.3-0.4,0.1-0.4
		C288.2,115,287.9,115.2,287.7,115.5 M96.6,115.8c0.3,0.3,0.5,0.7,0.4,0.9c-0.1,0.2,0,0.4,0.2,0.4c0.6,0,0.2-1.1-0.5-1.5
		C96.1,115.4,96.1,115.4,96.6,115.8 M144.6,116.3c0.3,0.5,0.7,0.8,0.7,0.7c0.2-0.2-0.7-1.6-1-1.6
		C144.2,115.4,144.3,115.8,144.6,116.3 M291.5,116.5c0.1,0.2,0.5,0.7,1,1l0.9,0.5l-0.9-1C291.6,116,291.3,115.9,291.5,116.5
		 M96.2,117.5c0,0.6,0.9,1.6,1.2,1.3c0.1-0.1-0.2-0.5-0.5-1C96.4,117.2,96.2,117.1,96.2,117.5 M244.5,119.5
		c-0.4,0.4-0.2,0.8,0.3,0.6c0.3-0.1,0.5-0.3,0.5-0.5C245.4,119.2,244.9,119.2,244.5,119.5 M86.9,119.8c-0.5,0.5-0.2,3.9,0.3,4.3
		c0.3,0.3,0.5,0.3,0.5,0.1c0-0.2-0.2-0.5-0.4-0.6c-0.2-0.2-0.3-1-0.2-2.1c0.1-1,0.1-1.9,0.1-1.9S87.1,119.7,86.9,119.8 M308.8,122.5
		c-0.2,0.2-0.4,0.6-0.4,0.8c0,0.2,0.2,0.1,0.5-0.3c0.3-0.5,0.7-0.6,1.3-0.4c0.6,0.2,0.7,0.1,0.3-0.1
		C309.8,122,309.3,122,308.8,122.5 M95.2,124c0,0.6,1,1.9,1.9,2.3c0.6,0.3,0.6,0.2-0.2-0.4c-0.5-0.5-1.1-1.1-1.3-1.5
		C95.3,124,95.2,123.8,95.2,124 M100.5,125.2c-0.4,0.7-0.4,0.7,0.3,0.3c0.4-0.2,0.7-0.6,0.7-0.7
		C101.5,124.3,100.9,124.5,100.5,125.2 M308.1,125.4c-0.2,0.5-0.3,0.9-0.1,0.9c0.3,0,0.9-1.4,0.6-1.6
		C308.6,124.6,308.3,125,308.1,125.4 M294.8,127c-0.1,0.2,0,0.4,0.3,0.4s0.6-0.2,0.7-0.4c0.1-0.2,0-0.4-0.3-0.4
		C295.2,126.6,294.9,126.8,294.8,127 M323.5,129.5c0.4,0.7,1,1,1,0.4c0-0.1-0.3-0.5-0.7-0.7C323.2,128.8,323.1,128.8,323.5,129.5
		 M89.1,130c-0.3,0.3-0.6,0.4-0.7,0.3c-0.1-0.1-0.2,0-0.2,0.2c0,0.6,0.5,0.5,1.4-0.3c0.4-0.4,0.6-0.7,0.4-0.7
		C89.7,129.5,89.3,129.7,89.1,130 M311.2,130.9c0,0.2,0.3,0.4,0.7,0.4c0.4,0,0.6-0.2,0.5-0.4s-0.4-0.4-0.7-0.4
		C311.4,130.5,311.2,130.7,311.2,130.9 M100.8,131.2c0,0.2,0,0.4,0.1,0.4s0.6,0.1,1.2,0.3c0.7,0.2,1.1,0.2,1.1,0s-0.4-0.3-0.9-0.3
		s-0.9-0.2-0.9-0.4s-0.2-0.4-0.4-0.4C100.9,130.9,100.8,131,100.8,131.2 M319.2,133.5c0.5,0.3,1,0.5,1.2,0.5s0-0.2-0.5-0.5
		s-1-0.5-1.2-0.5C318.5,133,318.8,133.2,319.2,133.5 M309,140c0.2,0.4,0.5,0.7,0.7,0.7c0.6,0,0.4-0.5-0.4-1
		C308.7,139.3,308.7,139.3,309,140 M97.5,141c-0.1,0.2-0.5,0.3-0.7,0.2c-0.3-0.1-0.5,0-0.5,0.2s0.4,0.4,0.8,0.4s1.2,0.4,1.6,0.9
		c0.5,0.5,1.1,0.9,1.4,0.9c0.4,0,0.3-0.1-0.2-0.3c-0.4-0.2-1.1-0.8-1.5-1.4C98,141.1,97.6,140.8,97.5,141 M316.2,151.6
		c0,0.7,0.1,1,0.2,0.6c0.1-0.3,0.1-0.9,0-1.2C316.2,150.7,316.2,150.9,316.2,151.6 M319.6,160.8c0,0.1,0.2,0.7,0.4,1.1
		c0.4,0.9,1,1.2,1,0.5c0-0.2-0.1-0.4-0.3-0.4s-0.5-0.4-0.7-0.8C319.8,161,319.6,160.7,319.6,160.8 M102.2,162c0,0.3,0.5,0.5,1.2,0.6
		c1.5,0.2,1.5,0.1,0.2-0.6C102.3,161.4,102.2,161.3,102.2,162 M84.2,167.4c0.4,0.1,1.1,0.1,1.4,0s0-0.2-0.8-0.2
		S83.7,167.3,84.2,167.4 M82.2,168.3c0.1,0.5,0.3,0.7,1,0.7c0.8,0,0.9,0,0.1-0.1c-0.5-0.1-0.9-0.4-1-0.7
		C82.2,167.8,82.2,167.8,82.2,168.3 M85.7,169.7c0.4,0.9,1,1.2,1,0.5c0-0.2-0.2-0.4-0.4-0.4c-0.2,0-0.4-0.2-0.4-0.5
		s-0.2-0.5-0.3-0.5C85.4,168.9,85.5,169.2,85.7,169.7 M325.4,170.7c-0.8,1.2-0.7,1.6,0.2,0.5c0.4-0.5,0.7-1,0.6-1.1
		C326.1,170,325.7,170.2,325.4,170.7 M86.4,171.4c0.1,0.2,0.3,0.5,0.6,0.6c0.3,0.1,0.3-0.1,0.2-0.4
		C86.9,170.9,86.2,170.8,86.4,171.4 M88.8,173.1c0,0.2,0.4,0.3,1,0.3c0.9,0,0.9-0.1,0.3-0.3C89.1,172.7,88.8,172.7,88.8,173.1
		 M323.7,178.7c0.2,0.8,0.8,0.9,0.8,0.2c0-0.3-0.2-0.6-0.5-0.7C323.7,178.1,323.6,178.3,323.7,178.7 M83.9,178.8
		c0,0.4,0.3,0.6,1,0.6s0.8-0.1,0.3-0.2c-0.4-0.1-0.8-0.4-1-0.6C84,178.3,83.9,178.4,83.9,178.8 M323.5,181.7
		c0.2,0.3,0.6,0.5,0.8,0.5c0.2,0,0.2-0.2-0.1-0.5c-0.2-0.3-0.6-0.5-0.8-0.5C323.2,181.2,323.2,181.4,323.5,181.7 M118.3,183.5
		c-0.1,0.1-0.2,0.5-0.2,0.8c0,0.5,0.1,0.5,0.3,0.1c0.2-0.3,0.5-0.4,0.7-0.2c0.3,0.2,0.4,0.1,0.3-0.2
		C119.2,183.4,118.6,183.2,118.3,183.5 M112.1,184.2c-0.5,0.6-0.6,0.9-0.1,0.9c0.3,0,0.9-1.1,0.7-1.2
		C112.6,183.7,112.4,183.9,112.1,184.2 M320.4,186.8c0.1,0.3,0.4,0.5,0.6,0.6c0.3,0.1,0.4,0,0.3-0.3s-0.4-0.5-0.6-0.6
		C320.4,186.4,320.3,186.6,320.4,186.8 M109.1,187.1c-0.3,0.1-0.6,0.3-0.6,0.5c0,0.4,0.4,0.4,1,0C110.2,187.1,110,186.9,109.1,187.1
		 M114.5,189.6c0,0.2,0.3,0.5,0.7,0.7c0.6,0.3,0.7,0.3,0.5-0.1C115.5,189.6,114.5,189.1,114.5,189.6 M110.9,189.9
		c-0.4,0.4-0.2,0.8,0.3,0.6c0.3-0.1,0.5-0.3,0.5-0.5C111.7,189.6,111.2,189.5,110.9,189.9 M155.3,190.8c0,0.3,0.3,0.4,1,0.3
		c0.9-0.2,0.9-0.2,0.3-0.5C155.5,190.2,155.3,190.3,155.3,190.8 M119.4,191.6c0,0.3,0.1,0.5,0.3,0.4c0.2-0.1,0.7,0.2,1.1,0.7
		s1,0.9,1.2,0.9s-0.2-0.6-0.8-1.2C119.9,190.9,119.4,190.7,119.4,191.6 M153.4,192.6c-0.1,0.3,0,0.5,0.3,0.5s0.5-0.2,0.5-0.5
		s-0.1-0.5-0.3-0.5C153.8,192.1,153.5,192.3,153.4,192.6 M112,193.8c0.7,0.7,1.8,0.9,1.8,0.4c0-0.2-0.3-0.4-0.7-0.4
		c-0.4,0-0.8-0.2-0.9-0.4s-0.4-0.4-0.5-0.4S111.6,193.5,112,193.8 M327,199.7c0,0.2,0.3,0.7,0.7,1.2s0.7,0.7,0.7,0.5
		c0-0.1-0.3-0.7-0.7-1.2C327.3,199.8,327,199.5,327,199.7 M140.6,200.5c0.5,0.4,1,0.7,1.2,0.7c0.4,0-1.3-1.4-1.7-1.4
		C139.9,199.8,140.1,200.1,140.6,200.5 M110.9,200.6c0.3,0.3,0.5,0.3,0.8,0s0.2-0.4-0.4-0.4S110.6,200.3,110.9,200.6 M136.3,200.9
		c-0.3,0.2-0.4,0.4-0.2,0.6c0.1,0.1,0.4,0.1,0.7-0.2C137.3,200.8,137,200.5,136.3,200.9 M114.3,205.1c-0.1,0.2,0.1,0.4,0.5,0.4
		s0.7-0.2,0.7-0.4s-0.2-0.4-0.5-0.4C114.8,204.7,114.4,204.9,114.3,205.1 M126.9,217.7c0.3,0.1,0.9,0.1,1.2,0s0.1-0.2-0.6-0.2
		C126.8,217.5,126.6,217.6,126.9,217.7 M126.5,225.2c-0.2,0.4-0.4,0.8-0.3,0.9c0.1,0.1,0.4-0.2,0.6-0.6
		C127.3,224.5,127.1,224.3,126.5,225.2 M114.5,235.9c-0.4,0.5-0.4,0.5,0.1,0.4c0.3-0.1,0.7-0.3,0.8-0.6
		C115.7,235.2,115.1,235.3,114.5,235.9 M155.3,235.9c0,0.4,0.1,0.9,0.3,1c0.4,0.3,0.4-0.1,0-1.1
		C155.4,235.2,155.4,235.2,155.3,235.9 M149.5,237.4l-0.6,1l0.8-0.8c0.4-0.4,0.7-0.9,0.6-1C150.2,236.5,149.8,236.8,149.5,237.4
		 M146,241.2c-0.3,0.5-1,1.1-1.5,1.2c-0.5,0.2-0.9,0.5-0.9,0.8c0,0.4,0.1,0.4,0.3,0c0.2-0.3,0.4-0.4,0.6-0.4
		c0.4,0.1,2.4-2.1,2.1-2.4C146.7,240.3,146.3,240.7,146,241.2 M150.7,241.3c0,0.3,1.4,0.9,1.6,0.6c0.1-0.1-0.3-0.3-0.7-0.5
		C151.1,241.2,150.7,241.2,150.7,241.3 M98.4,246.3c-0.7,0.7-0.5,1.7,0.4,1.6c0.6,0,0.6-0.1,0.2-0.2c-0.7-0.2-0.8-0.5-0.2-1.1
		c0.2-0.2,0.3-0.5,0.2-0.6C98.9,246,98.6,246.1,98.4,246.3 M114,246.8c-0.8,1.3-0.7,1.5,0.3,0.5c0.9-0.8,1.1-1.4,0.6-1.4
		C114.7,245.9,114.3,246.3,114,246.8 M104.5,247c-0.1,0.2,0.1,0.4,0.5,0.4s0.7-0.2,0.7-0.4s-0.2-0.4-0.5-0.4S104.6,246.8,104.5,247
		 M113.1,251.9c0,0.6,0.1,1.1,0.3,1.1c0.2,0,0.2-0.5,0.1-1.1s-0.2-1.1-0.3-1.1C113.1,250.8,113.1,251.3,113.1,251.9 M114.9,253
		c0.1,0.3,0.4,0.5,0.6,0.6c0.3,0.1,0.4,0,0.3-0.3s-0.4-0.5-0.6-0.6C115,252.6,114.8,252.7,114.9,253 M313.4,255.1l-1,1.1l1.1-0.8
		c0.6-0.4,1.1-0.9,1.1-1.1C314.7,253.8,314.5,253.9,313.4,255.1 M309.1,261.9c0,1,0.1,1.3,0.2,0.8s0.1-1.3,0-1.8
		C309.2,260.5,309.1,260.9,309.1,261.9 M103.6,264.4c0,1.1,0.2,1.2,0.5,0.2c0.1-0.4,0-0.8-0.1-0.9
		C103.7,263.5,103.6,263.9,103.6,264.4 M90.9,266.6c0,0.2,0.5,0.2,1.1,0.2c0.7-0.1,1.2,0,1.4,0.3c0.3,0.4,0.3,0.4,0.2,0
		C93.5,266.4,90.9,266,90.9,266.6 M309.5,270c0.5,0.6,1,0.9,1.2,0.8c0.1-0.1-0.3-0.6-1-1l-1.2-0.8L309.5,270 M90.8,270.3
		c-0.6,0.5-0.8,0.9-0.3,0.9c0.1,0,0.5-0.3,0.7-0.7C91.7,269.7,91.7,269.7,90.8,270.3 M283.9,272.7l-0.7,0.7l0.8-0.4
		c0.8-0.4,1.4-1.1,0.9-1.1C284.7,272,284.3,272.3,283.9,272.7 M273.2,272.9c0,0.2,0.3,0.3,0.7,0.3c0.4,0,0.6-0.1,0.5-0.3
		C274.1,272.6,273.2,272.5,273.2,272.9 M284.6,275.1c-0.1,0.2,0.1,0.4,0.5,0.4s0.7-0.2,0.7-0.4c0-0.2-0.2-0.4-0.5-0.4
		C285,274.8,284.7,274.9,284.6,275.1 M306.2,275.6c-0.3,0.4-0.3,0.6,0.1,1c0.5,0.5,0.5,0.4,0.7-0.3
		C307.4,275,307.1,274.6,306.2,275.6 M265.4,278.7c0.2,0.3,0.2,0.7,0.1,0.9c-0.1,0.2,0,0.1,0.4-0.2c0.8-0.6,0.8-1.4-0.1-1.3
		C265.3,278.1,265.2,278.2,265.4,278.7 M271.9,279.9c-0.4,0.5-0.6,0.9-0.5,0.9c0.4,0,1.6-1.4,1.4-1.6
		C272.7,279.1,272.3,279.4,271.9,279.9 M262,280.2c-0.4,0.5-0.7,0.8-0.5,0.8s0.6-0.4,1.1-0.9s0.7-0.9,0.5-0.8S262.4,279.8,262,280.2
		 M98,280.2c0.1,0.1,0.7,0.2,1.4,0.4c0.9,0.2,1.1,0.1,0.7-0.1C99.6,280.1,97.6,279.9,98,280.2 M82.2,282.3c0.4,0.5,0.9,0.9,1.1,0.9
		s0-0.4-0.5-0.9s-1-0.9-1.1-0.9C81.6,281.4,81.8,281.8,82.2,282.3 M95.5,284.8c-0.2,0.5-0.4,1-0.3,1.1s0.3-0.2,0.4-0.6
		s0.5-0.7,0.8-0.7s0.4-0.2,0.3-0.4C96.4,283.7,96,283.9,95.5,284.8 M235.2,284.3c-0.2,0.2-0.4,0.7-0.4,1c0,0.5,0.1,0.5,0.2,0
		c0.1-0.3,0.5-0.7,0.8-1c0.3-0.2,0.4-0.4,0.2-0.4C235.8,283.9,235.5,284.1,235.2,284.3 M236.1,292.7c-0.1,0.2-0.4,0.3-0.6,0.2
		c-0.2-0.1-0.3,0-0.3,0.2c0,0.5,0.4,0.5,1,0c0.3-0.2,0.4-0.4,0.3-0.5S236.2,292.5,236.1,292.7 M221.5,294.2c-0.5,0.5-0.6,1-0.1,1
		c0.2,0,0.4-0.3,0.5-0.7C222.1,293.6,222.1,293.6,221.5,294.2 M228.3,296.2c-0.1,0.2,0.1,0.4,0.5,0.4s0.7-0.2,0.7-0.4
		c0-0.2-0.2-0.4-0.5-0.4C228.7,295.9,228.4,296,228.3,296.2 M76.6,298.3c-0.9,1.2-0.9,1.3,0.4,0.6c0.6-0.3,0.8-0.6,0.6-1.1
		C77.4,297.3,77.3,297.4,76.6,298.3 M69.7,299c-0.3,0.4-0.6,0.6-0.7,0.5s-0.2,0.2-0.2,0.7s0.2,0.9,0.4,0.9s0.3-0.2,0.2-0.5
		s0-0.6,0.1-0.7c0.4-0.2,1.1-1.6,0.9-1.6C70.3,298.3,70,298.6,69.7,299 M80.2,304c-0.4,0.4-0.6,0.8-0.5,0.9s0.5-0.1,0.8-0.5
		c0.4-0.4,0.6-0.8,0.5-0.9C80.9,303.3,80.5,303.6,80.2,304 M109.8,303.7c-0.2,0.5,0,0.5,1.1,0.5c1,0,1.1-0.1,0.4-0.2
		c-0.5-0.1-1-0.3-1.1-0.5C110.1,303.3,109.9,303.4,109.8,303.7 M71.4,304c0.1,0.2,0.6,0.4,1,0.3c0.6,0,0.7-0.1,0.2-0.3
		C71.9,303.5,71.1,303.5,71.4,304 M198.5,304.7c-0.1,0.4,0,0.7,0.1,0.7c0.2,0,0.3-0.1,0.3-0.1s0.1-0.4,0.2-0.7
		c0.1-0.3,0.1-0.6-0.1-0.6S198.6,304.3,198.5,304.7 M107.3,305.9c-1,1-0.7,1.2,0.5,0.2c0.4-0.4,0.6-0.7,0.4-0.7
		C108,305.4,107.6,305.6,107.3,305.9 M76.9,306.8c-0.7,0.7-0.9,1-0.6,1c0.1,0,0.6-0.4,1.1-0.9s0.8-0.9,0.6-0.9
		S77.3,306.4,76.9,306.8 M100.4,309.8c0,0.1,0.4,0.5,0.8,0.9c0.8,0.6,0.8,0.6,0.7-0.3C101.8,309.7,100.4,309.1,100.4,309.8
		 M194.2,311.4c-0.6,0.5-0.9,1-0.7,1c0.4,0,2.1-1.7,1.8-1.9C195.3,310.5,194.8,310.9,194.2,311.4 M121.3,311.4
		c-0.1,0.2-0.1,0.3,0.2,0.1c0.3-0.2,0.4,0.1,0.4,0.6s0.2,0.9,0.4,0.9c0.2,0,0.4-0.4,0.4-0.8C122.6,311.4,121.7,310.8,121.3,311.4
		 M182.3,316.6c-0.3,0.2-0.6,0.5-0.6,0.7s0.2,0.1,0.5-0.2c0.4-0.4,0.9-0.5,1.7-0.4c0.9,0.1,1,0.1,0.4-0.2
		C183.4,316.2,183,316.2,182.3,316.6 M100.2,319.4c-0.4,0.2-0.8,0.5-0.8,0.7c0,0.3,1-0.2,2.1-0.9C101.7,319,100.9,319.1,100.2,319.4
		 M170.9,320c0.8,0.1,1,0.3,0.8,0.8c-0.1,0.4,0.1,0.8,0.5,1c0.4,0.3,0.7,0.3,0.7,0.1c0-0.2-0.1-0.4-0.3-0.4c-0.5,0,0-1.4,0.6-1.5
		c0.3-0.1-0.3-0.1-1.4-0.1C170.8,319.9,170.4,320,170.9,320 M179.6,320.7c0,0.5,1,1.7,1.2,1.5c0.1-0.1-0.1-0.5-0.5-1
		C179.9,320.8,179.6,320.6,179.6,320.7 M107.3,323.5c-0.3,0.9-0.3,0.9,0.3,0.4c0.6-0.6,0.7-0.9,0.2-0.9
		C107.7,323,107.4,323.2,107.3,323.5 M86,324c-0.5,0.4-0.7,0.8-0.6,0.9s0.6-0.2,1.1-0.7C87.5,323.1,87.2,323,86,324 M171.5,324.1
		c0,0.5,0.1,1,0.3,1c0.4,0,0.4-0.3,0-1.2C171.6,323.2,171.5,323.2,171.5,324.1 M167.4,324.4c0.3,0.4,0.9,0.8,1.3,0.9
		c0.8,0.1,0.7,0.1-0.3-0.8C167.1,323.4,166.7,323.4,167.4,324.4 M103.7,326c-1.4,0.6-0.3,1.2,1.9,1.1l2.4-0.1l-2-0.1
		c-1.9-0.1-2.6-0.5-1.6-0.9c0.2-0.1,0.3-0.2,0.1-0.2C104.3,325.8,103.9,325.9,103.7,326 M156.1,327.5c0.2,0.4,0.6,0.7,0.7,0.7
		s0.1-0.3-0.2-0.7c-0.2-0.4-0.6-0.7-0.7-0.7C155.8,326.8,155.8,327.1,156.1,327.5 M157.6,327.4c-0.3,0.3-0.3,0.8,0.1,0.8
		c0.2,0,0.4-0.2,0.5-0.5C158.5,327.2,158.1,327,157.6,327.4 M137.4,331.6c0.2,0.5,0.5,0.9,0.7,0.9s0-0.4-0.3-0.9s-0.6-0.9-0.7-0.9
		C137.1,330.7,137.2,331.1,137.4,331.6 M103.9,331.6c0,0.4,0.3,0.9,0.7,1.2c0.4,0.3,0.7,0.4,0.7,0.2c0-0.2-0.2-0.5-0.5-0.6
		s-0.5-0.4-0.4-0.7c0.1-0.3,0-0.6-0.2-0.7C104.1,331.1,103.9,331.3,103.9,331.6 M140.4,331.7c-0.9,0.4-0.9,0.6-0.4,0.7
		c0.4,0.1,0.9-0.1,1.2-0.4C141.9,331.2,141.6,331.1,140.4,331.7 M112.5,331.8c-0.6,0.7-0.8,1.7-0.4,1.7s1.2-1.7,0.9-2
		C112.9,331.4,112.7,331.6,112.5,331.8"/>
	<path id="path2" class="st0" d="M265,36.8c-1.3,0.7-1.2,1,0.1,0.3c0.6-0.3,1.1-0.6,1.1-0.7C266.1,36.2,266.1,36.2,265,36.8
		 M195,38.4c-0.5,0.9-0.7,1.9-0.4,1.5c0.1-0.1,0.2-0.3,0.2-0.5c0-0.1,0.2-0.6,0.5-1c0.2-0.4,0.4-0.8,0.3-0.8
		C195.5,37.6,195.2,38,195,38.4 M166.1,77.9c0.1,0.3,0.4,0.5,0.7,0.5c0.7,0,0.6-0.3-0.2-0.7C166,77.4,165.9,77.5,166.1,77.9
		 M184.5,93.6c0,0.4,0,0.7,0.1,0.6s0.3-0.4,0.6-0.8c0.4-0.5,0.4-0.6-0.1-0.6C184.7,92.9,184.5,93.2,184.5,93.6 M210.9,102.4
		c0,0.2,0.3,0.4,0.7,0.4s0.7-0.2,0.7-0.4c0-0.2-0.3-0.4-0.7-0.4C211.2,102,210.9,102.2,210.9,102.4 M117,105.9
		c0,0.2,0.4,0.4,0.9,0.4s0.9-0.2,0.9-0.4c0-0.2-0.4-0.4-0.9-0.4C117.4,105.5,117,105.7,117,105.9 M109.3,139.9
		c0.3,0.1,0.9,0.1,1.2,0c0.3-0.1,0.1-0.2-0.6-0.2S109,139.8,109.3,139.9 M109.7,163.6c-0.6,0.3-0.6,0.3,0.2,0.3
		c0.5,0,1.1-0.1,1.4-0.3C112,163.1,110.8,163.1,109.7,163.6 M144.8,191.4c-0.7,0.2-0.8,0.3-0.2,0.3c0.4,0,0.9-0.1,1.2-0.3
		C146.4,191,146,191,144.8,191.4 M152.1,195c0.2,0.2,1.5,0.2,3.1,0.2l2.8-0.1l-3.1-0.2C153.2,194.8,151.9,194.8,152.1,195
		 M124.6,228.5c0.1,0.5,0.3,0.8,0.5,0.7s0.2-0.5-0.1-0.9C124.5,227.4,124.4,227.4,124.6,228.5 M154.8,230.7
		c-0.1,0.1,0.2,0.3,0.7,0.3s0.8-0.1,0.8-0.3s-0.3-0.3-0.7-0.3C155.3,230.4,154.9,230.5,154.8,230.7 M160.8,236.8
		c-0.1,0.2,0.1,0.4,0.5,0.4s0.7-0.2,0.7-0.4s-0.2-0.4-0.5-0.4C161.2,236.4,160.9,236.6,160.8,236.8 M113.7,252.3
		c0.2,0.2,0.7,0.3,1.2,0.2c0.7-0.1,0.7-0.2-0.3-0.3C113.9,252.1,113.5,252.1,113.7,252.3 M99.7,257.5c0,0.2,0.2,0.4,0.5,0.4
		s0.6-0.2,0.7-0.4c0.1-0.2-0.1-0.4-0.5-0.4C100,257.2,99.7,257.3,99.7,257.5 M304.9,263.4c0.5,0.1,1.4,0.1,1.9,0s0.1-0.1-1-0.1
		C304.8,263.2,304.4,263.3,304.9,263.4 M100.3,272.9c0.4,0.1,1.1,0.1,1.4,0s0-0.2-0.8-0.2C100.2,272.7,99.9,272.8,100.3,272.9
		 M282.9,274c-0.3,0.4-0.6,1-0.6,1.5c0,0.8,0,0.8,0.3-0.1c0.2-0.5,0.5-1.2,0.7-1.5C284,273.1,283.6,273.2,282.9,274 M104.8,279.7
		c-1,0.2-1,0.3-0.2,0.3c0.5,0,1.1-0.1,1.4-0.3C106.6,279.3,106.3,279.3,104.8,279.7 M97.8,280.8c0.1,0.4,0,0.6-0.4,0.8
		c-0.6,0.1-0.6,0.2,0,0.2c0.8,0.1,1.2-0.6,0.7-1.1C97.7,280.3,97.6,280.3,97.8,280.8 M267.4,281c0.4,0.1,1.1,0.1,1.4,0
		s0-0.2-0.8-0.2C267.3,280.8,267,280.9,267.4,281 M73.2,282c-0.1,0.3-0.1,0.5,0,0.5s0.4-0.2,0.7-0.5c0.5-0.5,0.5-0.5,0-0.5
		C73.6,281.4,73.3,281.7,73.2,282 M101.8,281.8c0,0.2,0.6,0.4,1.2,0.4c0.7,0,1.2-0.2,1.2-0.4c0-0.2-0.6-0.4-1.2-0.4
		S101.8,281.6,101.8,281.8 M80,282.1c0,0.2,0.2,0.4,0.5,0.4s0.5-0.2,0.5-0.4c0-0.2-0.2-0.4-0.5-0.4C80.3,281.8,80,281.9,80,282.1
		 M188.3,300.2c-0.1,0.3,0.4,0.4,1.9,0.3c1.1-0.1,2.1-0.3,2.1-0.4C192.2,299.5,188.5,299.7,188.3,300.2 M196.1,300.1
		c0,0.2,0.6,0.4,1.3,0.4s1.2-0.1,1-0.4c-0.1-0.2-0.7-0.4-1.3-0.4S196.1,299.9,196.1,300.1 M104.9,305.3c-0.1,0.2,0.3,0.2,0.9,0.1
		s1-0.2,1-0.3C106.8,304.9,105,305,104.9,305.3 M202.4,307.1c0,0.2,0.2,0.4,0.5,0.4s0.5-0.2,0.5-0.4c0-0.2-0.2-0.4-0.5-0.4
		C202.7,306.8,202.4,306.9,202.4,307.1 M105.2,309.6c0.3,0.4,1.2,0.4,1.9,0c0.4-0.3,0.2-0.3-0.8-0.3
		C105.5,309.2,105,309.4,105.2,309.6 M95.1,314.2c0,0.4,1.1,0.4,1.8,0c0.4-0.3,0.3-0.3-0.6-0.3C95.7,313.8,95.1,314,95.1,314.2
		 M89.5,317c0,0.2,0.9,0.4,1.9,0.4c1.1,0,1.9-0.2,1.9-0.4c0-0.2-0.9-0.4-1.9-0.4S89.5,316.8,89.5,317"/>
	<path id="path3" class="st0" d="M235.5,33.3c0,0.4,1,1.3,1.2,1.1c0.1-0.1-0.2-0.4-0.5-0.8C235.8,33.2,235.5,33.1,235.5,33.3
		 M226.5,34.5c0.4,0.7,1.6,1.1,1.4,0.5c-0.1-0.3-0.3-0.4-0.5-0.3s-0.3,0-0.3-0.2s-0.2-0.4-0.4-0.4S226.4,34.3,226.5,34.5 M241.5,36
		c0.2,0.6,0.5,0.8,0.6,0.6s-0.1-0.7-0.5-1C241.1,35,241.1,35.1,241.5,36 M237.6,43.9l-0.9,0.9l1-0.7c0.5-0.4,1-0.8,1-0.9
		C238.7,42.7,238.5,42.9,237.6,43.9 M236.4,45.7c-0.3,0.4,0.1,0.4,1.1,0c0.7-0.3,0.7-0.3-0.1-0.3C237,45.4,236.5,45.5,236.4,45.7
		 M238.2,48.9c-0.4,0.2-0.8,0.2-1,0.1c-0.1-0.1-0.2,0.1,0,0.5c0.1,0.4,0.3,0.5,0.4,0.2c0.1-0.2,0.4-0.4,0.6-0.4
		c0.3,0,0.6-0.2,0.7-0.4C239.1,48.5,239.1,48.5,238.2,48.9 M183.1,49.6c0,0.2,0.2,0.5,0.5,0.7c0.4,0.3,0.5,0.3,0.3-0.3
		C183.7,49.3,183.1,48.9,183.1,49.6 M186.6,51.9c0.7,0.7,1.3,1.2,1.4,1.2s-0.4-0.6-1-1.2c-0.7-0.7-1.3-1.2-1.4-1.2
		S186,51.2,186.6,51.9 M233,51.9c-0.7,0.8-0.7,1.5,0,1.3c0.4-0.2,0.4-0.3,0.1-0.4c-0.3-0.1-0.3-0.3,0.2-0.8c0.3-0.4,0.5-0.7,0.4-0.7
		S233.3,51.6,233,51.9 M184.3,62.5c0.7,0.8,1.8,1,2.1,0.5c0.1-0.2-0.1-0.2-0.5-0.1c-0.4,0.1-1-0.1-1.5-0.5l-0.8-0.7L184.3,62.5
		 M182,67.1c0.4,0.1,1.1,0.1,1.6,0c0.4-0.1,0.1-0.2-0.8-0.2C181.9,66.9,181.5,67,182,67.1 M239.1,69c0,0.6,0.2,1.5,0.3,2
		c0.2,0.6,0.3,0.3,0.2-1.1c0-1.1-0.2-2-0.3-2C239.2,67.9,239,68.4,239.1,69 M208.3,92c-0.6,0.5-0.8,0.9-0.3,0.9
		c0.1,0,0.5-0.3,0.7-0.7C209.2,91.3,209.2,91.3,208.3,92 M178.5,105.2c0,0.4,0.4,0.4,1.1,0c0.4-0.3,0.4-0.3-0.3-0.3
		C178.9,104.8,178.5,105,178.5,105.2 M111.7,105.6c0,0.2,0.4,0.3,0.9,0.3s0.9-0.1,0.9-0.1s-0.4-0.2-0.9-0.3
		C112.1,105.4,111.7,105.4,111.7,105.6 M103.4,109.1c0.1,0.2,0.5,0.4,0.7,0.4c0.3,0,0.4-0.2,0.3-0.4c-0.1-0.2-0.5-0.4-0.7-0.4
		C103.4,108.7,103.3,108.9,103.4,109.1 M101,111.5c-0.1,0.2-0.1,0.4,0.1,0.4s0.5,0.4,0.7,0.8c0.4,0.8,0.4,0.8,0.2-0.1
		C101.7,111.5,101.3,111,101,111.5 M100.4,113.9l-0.9,0.9l1-0.6c0.5-0.3,1-0.7,1-0.9C101.5,112.8,101.4,112.8,100.4,113.9
		 M292,121.6c-0.6,0.9-0.5,1.5,0.2,1.5c0.3,0,0.2-0.1-0.1-0.3c-0.4-0.3-0.4-0.4,0.1-1.1c0.4-0.4,0.6-0.8,0.5-0.9
		C292.7,120.8,292.4,121.1,292,121.6 M101.5,123.8c0,0.3,0.1,0.8,0.3,1.2c0.2,0.4,0.3,0.5,0.3,0.2s-0.1-0.8-0.3-1.2
		S101.5,123.5,101.5,123.8 M85.1,130.1c-1,0.2-1.5,0.8-0.5,0.6c0.4-0.1,0.9-0.2,1-0.3s0.4,0.1,0.7,0.4c0.4,0.5,0.5,0.5,0.1-0.2
		c-0.2-0.4-0.4-0.8-0.5-0.8C85.9,129.9,85.5,130,85.1,130.1 M323.1,132.4l-0.9,1.1l1.1-1c1.2-1.1,1.3-1.3,0.9-1.2
		C324.1,131.2,323.6,131.8,323.1,132.4 M106.8,148.6c-0.3,0.4-0.3,0.5,0.3,0.3c0.4-0.1,0.7-0.3,0.7-0.5
		C107.8,147.9,107.2,148,106.8,148.6 M323.5,164.5c0,0.1,0.5,0.4,1.1,0.7c0.8,0.4,1,0.4,0.7,0.1
		C324.9,164.8,323.5,164.2,323.5,164.5 M86.5,175.8c0.1,0.1,0.6,0.2,1.1,0.3s0.8,0,0.7-0.1s-0.6-0.2-1.1-0.3
		C86.7,175.6,86.4,175.7,86.5,175.8 M92.5,180.9c0,0.2,0.4,0.5,0.9,0.7s0.7,0.2,0.6-0.1c-0.1-0.2-0.4-0.3-0.7-0.3
		C93,181.2,92.7,181,92.5,180.9C92.5,180.6,92.4,180.6,92.5,180.9 M117.3,181.7c-0.1,0.7,0.9,1.3,1.2,0.6c0.2-0.4,0.1-0.5-0.3-0.4
		c-0.3,0.1-0.6,0-0.7-0.2C117.4,181.5,117.4,181.5,117.3,181.7 M119.6,190.7c-0.3,0.4-0.5,0.9-0.4,1.1c0.1,0.4,0.2,0.4,0.2,0
		c0-0.3,0.3-0.7,0.6-0.9c0.3-0.2,0.5-0.5,0.4-0.7C120.3,190.1,120,190.3,119.6,190.7 M145.9,191.3c-0.3,0.2,0,0.3,0.8,0.3
		c0.7,0,1.1-0.1,1-0.3C147.5,190.9,146.5,191,145.9,191.3 M115.8,192.2c-0.7,1.1-0.8,1.7-0.1,0.8c0.4-0.6,0.6-0.6,1.1-0.2
		c0.5,0.4,0.6,0.4,0.2,0c-0.2-0.3-0.5-0.7-0.5-1C116.4,191.4,116.2,191.6,115.8,192.2 M138.8,191.7c-0.4,0.3-0.2,0.3,0.5,0.1
		c1.3-0.3,1.6-0.5,0.7-0.5C139.6,191.4,139.1,191.5,138.8,191.7 M114.9,203.5c0.5,0.6,1,0.7,1,0.2c0-0.2-0.3-0.4-0.7-0.5
		C114.6,203.1,114.5,203.1,114.9,203.5 M130.1,210.3c-0.1,0.3-0.3,1-0.5,1.5c-0.3,0.7-0.3,0.8,0.2,0.4c0.3-0.2,0.6-0.9,0.7-1.5
		C130.6,209.6,130.4,209.3,130.1,210.3 M155.8,235.3c-0.1,0.4-0.1,0.9,0.1,1.2c0.2,0.4,0.3,0.2,0.3-0.7
		C156.2,234.5,156.1,234.4,155.8,235.3 M109.9,254.1l-0.8,1.1l1.1-1c1.2-1.1,1.3-1.3,0.8-1.3C110.9,252.9,110.4,253.5,109.9,254.1
		 M302.2,262.2c-0.5,0.4-0.5,0.5-0.2,0.8c0.3,0.2,0.4,0.1,0.2-0.1c-0.1-0.2,0-0.4,0.3-0.4s0.5-0.2,0.5-0.4
		C303.1,261.6,303,261.6,302.2,262.2 M309,269.9c0.5,0.6,2.5,2.1,2.5,1.9c0-0.1-0.7-0.7-1.5-1.3C309.2,269.9,308.7,269.6,309,269.9
		 M266.3,278.8c-0.1,0.3-0.3,0.5-0.5,0.4s-0.3,0.1-0.3,0.3c0,0.4,0.2,0.3,0.8-0.3c0.9-0.8,1-1,0.5-1
		C266.7,278.3,266.5,278.5,266.3,278.8 M106.2,279.6c-0.3,0.2-0.2,0.4,0.3,0.7c0.4,0.3,0.7,0.3,0.7,0.1c0-0.2-0.2-0.4-0.4-0.4
		c-0.2,0-0.1-0.2,0.3-0.3c0.5-0.2,0.5-0.3,0.2-0.3C106.8,279.3,106.4,279.5,106.2,279.6 M276.5,280.8l-1,1.1l1.1-1
		c1.1-1,1.3-1.3,1-1.3C277.6,279.7,277,280.2,276.5,280.8 M232.9,293.4c0.4,0.2,0.9,0.3,1.2,0.3s0.3-0.1-0.2-0.3
		c-0.4-0.2-0.9-0.3-1.2-0.3C232.4,293.1,232.4,293.2,232.9,293.4 M219.5,297.6c-0.4,0.4-0.9,0.7-1.1,0.7c-0.7,0-0.6,0.6,0.2,1.1
		c0.5,0.3,0.7,0.3,0.7,0c0-0.2-0.2-0.4-0.5-0.4s-0.1-0.4,0.6-1c0.6-0.6,1.1-1,0.9-1.1C220.2,296.9,219.9,297.2,219.5,297.6
		 M200.7,300.2c-0.3,0.3-0.3,0.6,0,0.7c0.2,0.1,0.5,0,0.6-0.3C201.6,299.8,201.2,299.6,200.7,300.2 M203.5,307.1
		c0,0.2,0.2,0.4,0.5,0.4s0.5-0.2,0.5-0.4c0-0.2-0.2-0.4-0.5-0.4C203.7,306.8,203.5,306.9,203.5,307.1 M124,314c0.5,0.6,1,0.7,1,0.2
		c0-0.2-0.3-0.4-0.7-0.5C123.7,313.5,123.7,313.6,124,314 M170,320.2c0.2,0.2,0.7,0.3,1.2,0.2c0.7-0.1,0.7-0.2-0.3-0.3
		C170.2,320,169.8,320,170,320.2 M97.8,321.2c-0.6,0.6-0.6,0.7,0.1,0.5c0.4-0.1,0.7-0.4,0.7-0.7C98.7,320.4,98.6,320.4,97.8,321.2
		 M115.2,325.4c-1.1,1.1-1.3,1.3-0.5,0.8c1.1-0.8,2.5-2.1,2.3-2.3C116.8,323.9,116.1,324.5,115.2,325.4 M169,324.7
		c-0.4,0.3-0.4,0.3,0.3,0.3c0.4,0,0.8-0.2,0.8-0.3C170.1,324.3,169.7,324.3,169,324.7"/>
	<path id="path4" class="st0" d="M248.2,19.1c0,0.3,0.2,0.7,0.5,0.8c0.8,0.3,0.9,0,0.1-0.7C248.2,18.6,248.2,18.6,248.2,19.1
		 M250.6,18.9c0,0.2,2.5,1.3,2.7,1.1c0.1-0.1-0.5-0.4-1.3-0.7C251.3,18.9,250.6,18.8,250.6,18.9 M261.2,23.9c0.9,1.2,1,1.3,0.8,0.4
		c-0.1-0.3-0.5-0.8-0.9-1.1C260.5,22.9,260.5,22.9,261.2,23.9 M262.8,25.7c0.2,0.3,1.8,1.2,3.2,1.7c1.4,0.5,0.8,0.1-1.4-1
		C263.5,25.9,262.7,25.6,262.8,25.7 M240.7,26.3c-0.1,0.1,0,0.9,0.1,1.7l0.2,1.4l0.1-1.5c0-1.3,0.1-1.4,0.8-1.3s0.7,0.1,0.1-0.2
		C241.1,26,240.9,26,240.7,26.3 M255.7,26.4c0.1,0.4,0,0.6-0.4,0.8c-0.6,0.1-0.6,0.2,0,0.2c0.8,0.1,1.2-0.6,0.6-1.1
		C255.6,25.9,255.5,26,255.7,26.4 M233.8,28c0.5,0.5,0.9,0.9,1,0.9c0.3,0-1.2-1.7-1.5-1.7C233.1,27.1,233.3,27.5,233.8,28
		 M223.3,29.6c-0.8,1.1-0.8,1.4,0,0.6c0.5-0.5,0.9-0.9,0.9-1C224.3,29,223.6,29.2,223.3,29.6 M214.2,34l-1.1,0.9l1.1-0.6
		c0.6-0.4,1.1-0.8,1.1-0.9C215.5,33,215.4,33,214.2,34 M235.5,33.9c0.7,0.8,1.8,1.4,1.8,1c0-0.2-0.2-0.4-0.4-0.4s-0.7-0.3-1.1-0.6
		C235,33.3,235,33.3,235.5,33.9 M226.9,34.2c0.4,0.2,0.9,0.6,1.2,0.8s0.2,0-0.3-0.4s-1-0.8-1.2-0.8S226.5,34,226.9,34.2 M220.4,36.8
		c0,0.3-0.4,0.7-0.9,0.9c-0.9,0.3-1.2,1.1-0.5,1.1c0.2,0,0.3-0.2,0.2-0.4s0.1-0.4,0.5-0.4s0.8-0.4,1.1-0.9c0.2-0.5,0.3-0.9,0.1-0.9
		C220.5,36.2,220.4,36.5,220.4,36.8 M206.2,37c-0.3,0.2-0.9,0.9-1.4,1.5l-0.8,1.1l0.8-0.9c0.4-0.5,1.1-1.2,1.5-1.5
		C207.3,36.5,207.2,36.4,206.2,37 M202.1,37.5l-0.9,0.5l0.9-0.2c1-0.3,1.2-0.4,1-0.6C203,37.1,202.6,37.2,202.1,37.5 M261.5,38.1
		c-0.5,0.4-0.6,0.6-0.3,0.4c0.3-0.2,0.9-0.6,1.4-0.8c0.6-0.2,0.7-0.4,0.3-0.4C262.6,37.3,261.9,37.6,261.5,38.1 M244.1,39.9
		c-0.2,0.8-0.2,1.5-0.1,1.4c0.3-0.2,0.8-2.6,0.6-2.8C244.5,38.4,244.3,39.1,244.1,39.9 M235.3,45c-1,0.5-1,0.7-0.6,1.1
		c0.3,0.3,0.6,0.4,0.8,0.2c0.1-0.1,0-0.3-0.3-0.4c-0.3-0.1-0.1-0.4,0.7-0.8c0.7-0.4,1-0.6,0.9-0.6C236.6,44.4,235.9,44.6,235.3,45
		 M255.5,45.2c-0.5,0.5-0.8,0.9-0.7,0.9c0.2,0,0.7-0.4,1.1-0.9C257,44.1,256.7,44.1,255.5,45.2 M192.6,46.1c0,0.6,0.1,1,0.4,0.9
		c0.2-0.1,0.4-0.5,0.4-0.9s-0.2-0.8-0.4-0.9C192.7,45.1,192.6,45.4,192.6,46.1 M240.2,47.7c-0.1,0.3-0.4,0.5-0.7,0.5
		s-0.5,0.2-0.5,0.4c0,0.5,0.2,0.4,1.3-0.5c0.5-0.5,0.8-0.9,0.5-0.9C240.6,47.1,240.3,47.4,240.2,47.7 M247.4,50.8
		c-0.3,0.7-0.3,1.1,0,1.7c0.4,0.8,0.4,0.8,0.2-0.2c-0.1-0.5,0-1.3,0.2-1.7s0.3-0.7,0.2-0.7C247.9,50,247.6,50.3,247.4,50.8
		 M244.6,61c-0.3,0.7-0.5,1.2-0.4,1.2c0.2,0,1.3-2.2,1.1-2.3C245.2,59.9,244.9,60.4,244.6,61 M182.8,62.6c-0.5,0.4-0.8,0.8-0.7,0.9
		c0.1,0.1,0.5-0.1,0.8-0.5c0.6-0.7,0.7-0.7,1.4-0.1c0.7,0.6,0.7,0.6,0.1-0.2c-0.4-0.4-0.7-0.8-0.7-0.8
		C183.6,61.9,183.2,62.2,182.8,62.6 M187,63c-0.4,0.3-0.4,0.3,0.2,0.3c0.4,0,0.9-0.2,1-0.3C188.5,62.5,187.7,62.5,187,63 M241.5,65
		c-1.2,1.3-1.9,2.2-1.6,1.9c0.8-0.4,4.2-3.9,4-4.1C243.8,62.7,242.7,63.7,241.5,65 M180,64.4c-0.7,0.7-0.5,1,0.5,1
		c0.5,0,1.3,0.2,1.7,0.5s0.9,0.5,1.1,0.5s-0.1-0.3-0.8-0.7c-0.6-0.4-1.4-0.7-1.7-0.7c-0.4,0-0.5-0.2-0.4-0.5
		C180.7,63.9,180.6,63.9,180,64.4 M187.5,68.9c0.7,0.8,0.7,0.8-0.2,0.8c-0.7,0-0.7,0.1-0.2,0.2c1.1,0.3,1.4-0.4,0.5-1.2l-0.8-0.7
		L187.5,68.9 M182,68.9c0.3,0.2,0.3,0.4,0.2,0.5c-0.2,0.1-0.1,0.1,0.1,0.1c0.2-0.1,0.5,0.1,0.6,0.3c0.1,0.3,0.2,0.3,0.2,0
		c0-0.2,0.3-0.4,0.5-0.4c0.3,0,0.4,0.2,0.3,0.5c-0.2,0.4,0,0.5,0.8,0.5c0.9,0,0.9-0.1,0.2-0.3c-0.4-0.1-0.8-0.4-0.8-0.6
		s-0.3-0.4-0.7-0.4s-0.8-0.1-0.9-0.3c-0.1-0.1-0.4-0.3-0.6-0.2C181.7,68.6,181.7,68.7,182,68.9 M173.4,69.5
		c-0.6,0.3-0.8,0.5-0.5,0.5s0.9-0.2,1.2-0.5C175,68.8,174.8,68.8,173.4,69.5 M176.5,69.2c0.9,0.1,2.4,0.1,3.3,0
		c0.9-0.1,0.2-0.1-1.7-0.1S175.6,69.1,176.5,69.2 M220.7,72.8l-1.2,1.1l1.2-0.8c0.7-0.5,1.3-0.9,1.4-0.9c0.1,0,0.1-0.2-0.1-0.3
		C222,71.8,221.3,72.2,220.7,72.8 M230.4,72.7l-1.1,0.9l1.1-0.6c0.6-0.3,1.1-0.7,1.1-0.9C231.6,71.6,231.6,71.7,230.4,72.7
		 M223.2,72.8c0.5,0.4,1,0.7,1.2,0.7c0.4,0-0.3-0.5-1.4-1.1C222.6,72.2,222.6,72.3,223.2,72.8 M204.2,79.1c-0.4,0.6-0.4,0.6,0.1,0.1
		c0.9-0.7,1.1-0.3,0.6,1.1c-0.3,0.8-0.3,1,0,0.8c0.5-0.5,0.6-2.3,0.1-2.5C204.8,78.5,204.4,78.7,204.2,79.1 M172,80.2
		c0.3,0.6,0.6,1.1,0.7,1.1c0.3,0-0.3-1.4-0.7-1.8C171.6,79.2,171.6,79.3,172,80.2 M193.4,80.3c-0.7,0.8-0.7,0.8,0,0.2
		c0.4-0.3,1.1-0.7,1.6-0.7l0.9-0.2H195C194.5,79.5,193.8,79.8,193.4,80.3 M187.7,80.4c0,0.6,0.2,0.7,1,0.7c0.6,0,0.9-0.2,0.8-0.3
		c-0.1-0.2-0.5-0.2-0.8-0.1c-0.4,0.1-0.7,0-0.8-0.4C187.8,79.8,187.7,79.9,187.7,80.4 M189.2,82.7c-0.1,0.2-0.1,0.3,0.1,0.3
		s-0.1,0.4-0.6,1l-0.9,1l1.1-1c0.6-0.5,1.3-1,1.5-1s0.4-0.1,0.4-0.3C190.8,82.3,189.5,82.3,189.2,82.7 M188,82.9
		c-0.3,0.1-0.8,0.6-1.2,1.1l-0.7,1l0.9-0.8c0.5-0.4,1.1-0.8,1.3-0.8s0.4-0.2,0.4-0.4c0-0.2,0-0.3-0.1-0.3
		C188.6,82.7,188.3,82.8,188,82.9 M211.6,88.1c-0.5,0.5-0.6,0.9-0.4,0.9c0.2,0,0.6-0.3,0.9-0.6c0.3-0.4,0.7-0.7,1-0.9
		c0.5-0.2,0.4-0.2,0-0.2C212.7,87.3,212,87.6,211.6,88.1 M197.6,90c0.3,0.4,2.7,0.8,2.7,0.4c0-0.2-0.4-0.3-0.9-0.3s-1.1-0.1-1.5-0.2
		C197.6,89.7,197.5,89.7,197.6,90 M184.7,94.1c-0.1,0.3-0.2,0.9-0.2,1.2c0,0.4,0.1,0.3,0.4-0.3c0.2-0.5,0.3-1,0.2-1.2
		C185,93.6,184.9,93.7,184.7,94.1 M203.6,96.3c0.3,0.5,2.3,2,2.3,1.7c0-0.1-0.6-0.6-1.3-1.1C204,96.4,203.5,96.1,203.6,96.3
		 M207.7,100.8c0,0.1,0.4,0.4,0.9,0.7c0.6,0.4,0.9,0.4,0.8,0.2C209.3,101.3,207.7,100.4,207.7,100.8 M278.1,103.9
		c0.3,0.2,0.7,0.8,0.9,1.1c0.3,0.5,0.4,0.6,0.4,0.1c0-0.6-1-1.7-1.6-1.7C277.7,103.4,277.8,103.6,278.1,103.9 M173.5,104.2
		c0.1,0.2,1.5,0.3,3.1,0.2c3.3,0,3-0.2-0.7-0.4C174.4,104,173.4,104.1,173.5,104.2 M180.5,104.5c0.6,0.2,1.3,0.6,1.6,0.8
		c0.5,0.3,0.5,0.3,0-0.2c-0.3-0.3-1-0.7-1.6-0.8l-1.1-0.2L180.5,104.5 M115.2,105.9c0,0.2,0.4,0.4,0.9,0.4s0.9-0.2,0.9-0.4
		c0-0.2-0.4-0.4-0.9-0.4S115.2,105.7,115.2,105.9 M92.8,107.9c-0.6,0.3-1.1,0.7-1.1,0.8c0,0.4,2-0.6,2.3-1.1
		c0.1-0.2,0.2-0.3,0.1-0.3S93.4,107.6,92.8,107.9 M218.3,107.7c0.5,0.2,1.1,0.6,1.3,0.9s0.4,0.4,0.4,0.2c0-0.5-1.4-1.5-2.1-1.5
		C217.6,107.3,217.8,107.5,218.3,107.7 M151.6,107.9c-0.2,0.1,0.3,0.3,1.2,0.3c1.1,0,1.4-0.1,0.9-0.2
		C152.8,107.6,152.1,107.6,151.6,107.9 M156.4,107.9c-0.4,0.1-0.8,0.3-0.8,0.5s0.3,0.3,0.6,0.1c0.3-0.1,0.8-0.3,1-0.3
		s0.3-0.1,0.2-0.3c-0.1-0.2-0.2-0.3-0.2-0.2C157.3,107.7,156.9,107.8,156.4,107.9 M97.3,109.4c0,0.2,0.2,0.4,0.5,0.4
		s0.5-0.2,0.5-0.4c0-0.2-0.2-0.4-0.5-0.4C97.5,109.1,97.3,109.2,97.3,109.4 M163,110.4c0.4,0.1,1.1,0.1,1.6,0
		c0.4-0.1,0.1-0.2-0.8-0.2S162.5,110.3,163,110.4 M262.4,110.8c0.1,0.2,0.1,0.7-0.1,1.1c-0.3,0.5-0.3,0.9,0,1.3
		c0.3,0.5,0.4,0.5,0.3-0.3c0-0.5,0.1-1.1,0.2-1.5c0.1-0.3,0.1-0.7-0.2-0.8C262.3,110.5,262.2,110.5,262.4,110.8 M177.3,111.1
		c0.1,0.2,0.5,0.4,1,0.5c0.8,0.2,0.8,0.2,0.1-0.3C177.6,110.8,177,110.6,177.3,111.1 M141.5,111.8c0.3,0.2,0.4,0.5,0.2,0.8
		s-0.1,0.4,0.1,0.2c0.6-0.4,0.5-1.3-0.2-1.3C141.2,111.5,141.2,111.6,141.5,111.8 M89.2,113.6c0,0.4,1,0.8,1.4,0.5
		c0.2-0.1,0.2-0.3,0.1-0.5C90.5,113.2,89.2,113.2,89.2,113.6 M180.2,114.6c-0.1,0.1,0.4,0.3,1.1,0.3c1,0,1.1,0,0.6-0.2
		C181,114.3,180.4,114.3,180.2,114.6 M257.9,114.9c-0.9,0.4-0.9,0.5-0.2,0.3c0.5-0.1,1-0.4,1.2-0.5
		C259.3,114.2,259.1,114.3,257.9,114.9 M93.6,115.5c0.1,0.3,0.4,0.6,0.6,0.6c0.5,0,0.2-0.8-0.4-1C93.5,115,93.5,115.2,93.6,115.5
		 M230,115.6c0.4,0.3,0.8,0.4,0.9,0.3c0.2-0.2-0.7-0.8-1.2-0.8C229.5,115.1,229.7,115.3,230,115.6 M88.5,117.9
		c-0.2,0.6-0.3,1.2-0.3,1.3c0.1,0.1,0.3-0.4,0.5-1s0.3-1.2,0.3-1.3C89,116.8,88.7,117.3,88.5,117.9 M256.1,117.5
		c-0.1,0.2-0.1,0.4,0.2,0.4c0.2,0,0.3,0.2,0.1,0.4c-0.2,0.4-0.2,0.4,0.2,0c0.3-0.3,0.4-0.5,0.1-0.8
		C256.5,117.2,256.3,117.2,256.1,117.5 M254,119.6c-0.1,0.4-0.2,0.8-0.1,0.9c0.1,0.1,0.3-0.2,0.4-0.6s0.2-0.8,0.1-0.9
		C254.3,118.9,254.1,119.2,254,119.6 M256,119.2c-0.1,0.6-1.1,1.7-1.8,1.9c-0.4,0.2-0.4,0.2,0,0.2c0.9,0,2.2-1.2,2-1.9
		C256.1,119,256,118.9,256,119.2 M98.7,121.4c0,0.2,0.3,0.4,0.6,0.4c0.4,0,0.4,0.1,0.2,0.2c-0.2,0.1-0.4,0.3-0.4,0.5
		s0.2,0.2,0.5,0.1c0.7-0.3,0.7-0.7-0.2-1.2C98.9,121.1,98.7,121.1,98.7,121.4 M250.1,121.7c0.4,0.3,2.6,0.9,2.2,0.6
		c-0.1-0.1-0.7-0.4-1.4-0.6C250.3,121.5,250,121.5,250.1,121.7 M101.8,122.8c-0.3,0.5-0.3,0.7,0,0.7c0.2,0,0.4-0.3,0.4-0.6
		c0-0.4,0.3-0.5,1-0.4c0.6,0.1,1,0,0.9-0.1C103.7,121.8,102.2,122.1,101.8,122.8 M102.3,125.1c0.1,0.4,0,0.8-0.3,0.9
		c-0.2,0.1-0.3,0.2-0.2,0.4C102.2,126.9,102.7,125.7,102.3,125.1C102.2,124.4,102.2,124.4,102.3,125.1 M302.9,126.2
		c0.6,0.1,1.3,0.3,1.6,0.6c0.5,0.4,0.5,0.3,0-0.2c-0.3-0.4-0.9-0.6-1.6-0.6l-1.1,0.1L302.9,126.2 M292.4,127.4
		c1.2,1.1,2,1.3,2.3,0.7c0.1-0.2-0.1-0.2-0.4-0.2c-0.4,0.1-1-0.2-1.5-0.7s-1-0.9-1.2-0.9C291.4,126.3,291.8,126.8,292.4,127.4
		 M321.7,128.9c0.7,0.3,1.3,0.4,1.4,0.4c0.3-0.2-0.2-0.5-1.4-0.6l-1.2-0.2L321.7,128.9 M81.6,132.4c-0.6,0.3-0.8,0.5-0.5,0.5
		s0.9-0.2,1.2-0.5C83.2,131.8,83,131.8,81.6,132.4 M105.7,134.5c0,0.2,0.2,0.5,0.5,0.8s0.6,0.7,0.7,0.9s0.3,0.3,0.5,0.2
		c0.2-0.2-0.1-0.7-0.7-1.2S105.7,134.4,105.7,134.5 M98.6,135.2c0.2,0.2,0.3,0.6,0.2,0.9c-0.1,0.5-0.1,0.5,0.2,0.1
		c0.2-0.3,0.5-0.6,0.8-0.7c0.3-0.2,0.1-0.3-0.5-0.4C98.6,134.9,98.4,134.9,98.6,135.2 M104,135.5c0.1,0.1,0.6,0.4,1.2,0.7l1.1,0.6
		l-0.8-0.7c-0.5-0.4-1-0.7-1.2-0.7C104,135.4,103.9,135.5,104,135.5 M99.8,137.2c0,0.7,0.1,1,0.2,0.6c0.1-0.3,0.1-0.9,0-1.2
		C99.9,136.2,99.8,136.5,99.8,137.2 M308,137.6c0,0.7,0.1,1.4,0.3,1.7c0.2,0.3,0.3,0,0.1-1.1C308.2,136.3,308,136,308,137.6
		 M98.3,138.8c0,0.6-0.2,1.3-0.5,1.5c-0.4,0.4-0.3,0.4,0.3,0.1c0.8-0.4,1.4-1.4,1-1.7c-0.1-0.1-0.2,0-0.2,0.3s-0.2,0.1-0.3-0.4
		C98.4,137.8,98.4,137.8,98.3,138.8 M91.3,138.7c0,0.2,0.4,0.3,0.9,0.3s0.9-0.1,0.9-0.1c0-0.1-0.4-0.2-0.9-0.3
		C91.7,138.4,91.3,138.5,91.3,138.7 M108.2,139.9c-0.5,0.3-0.6,0.4-0.2,0.3c0.4-0.2,1.9-0.2,3.3-0.2c3.2,0.1,3.2-0.1,0-0.4
		C109.6,139.4,108.8,139.4,108.2,139.9 M117,139.8c0.1,0.1,0.6,0.2,1.2,0.4c0.8,0.2,0.9,0.1,0.5-0.1
		C118.2,139.7,116.6,139.5,117,139.8 M99,156.8c0,0.4,0.2,0.9,0.4,1.2c0.3,0.4,0.3,0.2,0.1-0.5C99.2,156.1,99,155.9,99,156.8
		 M108.9,163.4l-1.2,0.5l1.6,0.3c0.9,0.1,2,0.2,2.5,0.1c0.5-0.1,0.1-0.2-0.9-0.2l-1.8-0.1l1.4-0.5c1.1-0.4,1.2-0.5,0.5-0.5
		C110.5,162.9,109.5,163.1,108.9,163.4 M321.3,163.9c0.5,0.4,1,0.7,1.2,0.7c0.4,0,0.4,0-1-0.8l-1.1-0.6L321.3,163.9 M95.2,163.8
		c0.3,0.1,0.9,0.1,1.2,0c0.3-0.1,0.1-0.2-0.6-0.2C95.2,163.7,94.9,163.7,95.2,163.8 M87.8,166.7c0,0.4,0.1,0.5,0.3,0.2
		c0.1-0.2,0.9-0.5,1.7-0.6c1.4-0.1,1.4-0.1-0.3-0.2C88,166.1,87.8,166.2,87.8,166.7 M325.8,168.3c0,0.8,0.1,1.3,0.3,1.1
		c0.1-0.2,0.3-0.7,0.3-1.1c0-0.4-0.1-0.9-0.3-1.1C325.9,167,325.8,167.5,325.8,168.3 M84.3,167.7c0.3,0.1,0.9,0.1,1.2,0
		c0.3-0.1,0.1-0.2-0.6-0.2C84.3,167.5,84,167.6,84.3,167.7 M86.5,167.8c0.1,0.2,0.6,0.3,1,0.3c0.7,0,0.7,0,0.1-0.3
		C86.6,167.4,86.3,167.4,86.5,167.8 M91.6,173.6c0,0.3,0.2,0.5,0.4,0.5c0.2-0.1,0.4-0.3,0.4-0.5s-0.2-0.4-0.4-0.5
		S91.6,173.3,91.6,173.6 M319.6,174.6c-0.3,0.4-0.3,0.6,0,0.8c0.3,0.1,0.3,0.1,0.2,0c-0.1-0.2,0-0.5,0.4-0.7
		c0.3-0.3,0.4-0.5,0.2-0.5C320.2,174.1,319.8,174.4,319.6,174.6 M84.5,178.2c-0.8,0.8,0.8,1.2,1.9,0.5c0.4-0.2,0.2-0.3-0.7-0.1
		c-0.9,0.2-1.1,0.1-0.9-0.2C85,178,84.8,177.9,84.5,178.2 M99.4,178.4c-0.2,0.2-0.4,0.6-0.4,0.8s0.2,0.1,0.5-0.3
		c0.3-0.4,0.7-0.6,1.2-0.5c0.4,0.1,0.8,0.1,0.9,0C101.9,178,99.9,178,99.4,178.4 M101.8,180.4c0,0.5,0.4,0.6,1.2,0.2
		c0.8-0.3,0.7-0.7-0.3-0.7C102.2,179.9,101.8,180.1,101.8,180.4 M113.8,181.6l-1.2,1l1.1-0.5c1.1-0.5,1.7-1.1,1.4-1.4
		C115.1,180.6,114.5,181,113.8,181.6 M105.1,181.6c-0.4,0.2-0.8,0.5-0.8,0.7s0.4,0,0.9-0.3C106.5,181.2,106.4,181,105.1,181.6
		 M117.3,184.8c-0.5,0.6-0.7,0.7-1.3,0.3c-0.4-0.3-0.8-0.3-0.9-0.1c-0.5,0.8,1.6,0.8,2.4,0.1c0.4-0.4,0.7-0.8,0.6-0.9
		C117.9,184.1,117.6,184.4,117.3,184.8 M105.7,187.6c0.6,0.7,1.3,0.8,1.7,0.2c0.1-0.2,0.1-0.3-0.2-0.2c-0.3,0.1-0.8,0-1.2-0.2
		C105.2,187.1,105.2,187.1,105.7,187.6 M112.1,189.5c-0.2,0.1-0.4,0.3-0.4,0.5s0.3,0.2,0.7-0.1c0.4-0.2,1-0.3,1.2-0.2
		c0.3,0.1,0.5,0,0.5-0.1C114.1,189.3,112.9,189.2,112.1,189.5 M324.4,190.9c-0.4,0.4-0.3,2.6,0.1,2.6c0.2,0,0.4-0.6,0.4-1.4
		C324.9,190.6,324.8,190.5,324.4,190.9 M143.3,191.4c-0.7,0.2-0.7,0.3-0.2,0.3c0.4,0,1.1-0.1,1.6-0.3c0.7-0.2,0.7-0.3,0.2-0.3
		C144.5,191.1,143.8,191.2,143.3,191.4 M116.6,191.8c0,0.7,0.9,1.6,1.3,1.2c0.1-0.1,0-0.2-0.2-0.2s-0.6-0.4-0.7-0.8
		C116.8,191.5,116.6,191.4,116.6,191.8 M136.3,191.7c-1.2,0.4,0.1,0.4,1.6,0c0.9-0.2,1-0.3,0.2-0.3
		C137.6,191.5,136.8,191.6,136.3,191.7 M130,192c0,0.2,0.5,0.2,1.1,0.1c0.6-0.1,1.1-0.2,1.1-0.3s-0.5-0.1-1.1-0.1
		C130.4,191.7,130,191.9,130,192 M124.1,193.7c0.5,0.1,1.3,0.1,1.8,0c0.4-0.1,0-0.1-1-0.1S123.6,193.7,124.1,193.7 M152.1,194.6
		c0.2,0.2,1.5,0.2,3.1,0.2l2.8-0.1l-3.1-0.2C153.2,194.4,151.9,194.5,152.1,194.6 M157.2,195.7c-0.4,0.3-0.6,0.6-0.5,0.7
		c0.1,0.1,0.5-0.1,0.8-0.5C158.3,195.1,158.2,195,157.2,195.7 M154.8,199.1c0.3,0.5,1.6,1.1,1.6,0.8c0-0.2-0.4-0.5-0.9-0.7
		S154.7,199,154.8,199.1 M109,200.9c-0.1,0.2,0.1,0.4,0.5,0.4s0.7-0.2,0.7-0.4s-0.2-0.4-0.5-0.4C109.5,200.5,109.2,200.7,109,200.9
		 M148.6,200.7c0,0.2,0.2,0.7,0.5,1c0.3,0.4,0.5,0.5,0.5,0.3s-0.2-0.7-0.5-1C148.9,200.7,148.6,200.5,148.6,200.7 M141.2,201.3
		c0,0.1,0.5,0.5,1.1,1c0.7,0.5,1,0.6,0.6,0.2C142.6,201.9,141.2,201.1,141.2,201.3 M144.2,203c-0.4,0.2-0.5,0.3-0.2,0.3
		s0.8-0.1,1.2-0.3s0.5-0.3,0.2-0.3C145.2,202.7,144.6,202.8,144.2,203 M328.6,205.6c0,0.9,0.1,1.6,0.3,1.6c0.3,0,0.3-2.2,0-2.7
		C328.7,204.3,328.6,204.8,328.6,205.6 M130.5,210.2c-0.1,0.3-0.1,0.8-0.1,1.1c0.1,0.4,0.2,0.2,0.3-0.5
		C130.9,209.6,130.8,209.3,130.5,210.2 M127.4,214.9l-1,1.3l1.2-1.1c0.7-0.6,1.1-1.2,1-1.3C128.5,213.7,127.9,214.2,127.4,214.9
		 M329.2,217c-0.9,2-0.9,2.1-0.4,1.5c0.5-0.5,1.4-2.8,1.1-2.8C329.9,215.7,329.5,216.2,329.2,217 M125.4,216.3
		c0,0.6,0.9,1.1,2.1,1.1l1.2-0.1l-1.4-0.2c-0.8-0.1-1.4-0.4-1.3-0.7c0-0.2-0.1-0.4-0.3-0.4C125.6,216,125.4,216.1,125.4,216.3
		 M128.3,222.6c0,0.4-0.2,0.8-0.3,0.9c-0.1,0.1-0.6,0.8-1,1.6c-1,2-0.4,1.6,0.7-0.5c0.5-0.9,0.9-1.9,0.8-2.2
		C128.4,222,128.3,222.1,128.3,222.6 M322.9,226.2c-0.4,0.6-1.3,3.3-1,3.1c0.3-0.3,1.5-3.4,1.3-3.4
		C323.2,225.9,323.1,226,322.9,226.2 M321.6,230c-0.3,0.3-0.3,1.4,0.1,1.7c0.2,0.1,0.3-0.3,0.3-0.9c0-0.6,0-1-0.1-1
		C321.8,229.7,321.7,229.8,321.6,230 M152.9,231.7l-1,0.9l1.1-0.8c0.6-0.4,1.1-0.8,1.1-0.9C154.2,230.6,153.9,230.8,152.9,231.7
		 M156.1,232.7c0,0.4,0.1,1.1,0.3,1.6c0.2,0.7,0.3,0.7,0.3,0.2c0-0.4-0.1-1.1-0.3-1.6C156.1,232.2,156.1,232.2,156.1,232.7
		 M119.4,238.8c0,0.2,0.3,0.6,0.7,0.9c0.4,0.3,0.6,0.8,0.5,1s-0.1,0.3,0.2,0.1c0.3-0.2,0.3-0.5,0.1-1.1c-0.3-0.7-0.2-0.9,0.5-1
		c0.5-0.1,0.2-0.2-0.5-0.2C120,238.5,119.4,238.7,119.4,238.8 M146.3,240.3c-0.8,0.8-1.7,1.6-2.1,1.7c-0.4,0.2-0.5,0.3-0.2,0.3
		c0.6,0,4.1-3,3.8-3.3C147.8,239,147.1,239.5,146.3,240.3 M124,241.2c0.3,0.1,0.8,0.4,1.2,0.8c0.7,0.6,0.7,0.6,0-0.2
		c-0.4-0.4-0.9-0.8-1.2-0.8C123.6,241,123.5,241.1,124,241.2 M128.7,243c0.5,0.1,1.4,0.1,1.9,0s0.1-0.1-1-0.1
		C128.6,242.8,128.1,242.9,128.7,243 M134.9,244.6c0,0.1,0.5,0.3,1.1,0.3s1.1-0.1,1.1-0.3c0-0.1-0.5-0.3-1.1-0.3
		C135.4,244.3,134.9,244.4,134.9,244.6 M101.7,245c-0.9,0.4-0.9,0.5-0.2,0.3c0.5-0.1,1-0.4,1.2-0.5
		C103.1,244.4,102.9,244.4,101.7,245 M133.4,245.5c-0.1,0.2,0.7,0.2,1.8,0.1c2.8-0.2,3.1-0.4,0.5-0.4
		C134.5,245.2,133.5,245.3,133.4,245.5 M119.8,246.3c0,0.2,1.1,0.4,2.5,0.4s2.5-0.2,2.5-0.4s-1.1-0.4-2.5-0.4
		C120.8,245.9,119.8,246.1,119.8,246.3 M113.6,248.7c-0.1,0.4-0.2,0.8-0.1,0.9c0.1,0.1,0.3-0.2,0.4-0.6c0.1-0.4,0.2-0.8,0.1-0.9
		S113.7,248.3,113.6,248.7 M301.5,262.3c-0.3,0.3,1.8,2.6,2.4,2.6c0.2,0-0.1-0.4-0.6-0.8c-0.5-0.5-0.8-1-0.7-1.1
		c0.1-0.1,0-0.2-0.3-0.1s-0.5-0.1-0.4-0.3C302,262,301.9,262,301.5,262.3 M304.4,263c0.6,0.1,1.6,0.1,2.1,0s0-0.1-1.1-0.1
		C304.2,262.9,303.8,263,304.4,263 M272,269c0.2,0.1,0.4,0.3,0.4,0.5s-0.2,0.2-0.4,0.1c-0.2-0.1-0.3-0.1-0.2,0.2
		c0.1,0.3,0.4,0.4,0.6,0.4s0.4,0.1,0.4,0.3c0,0.2,0.1,0.3,0.2,0.2c0.3-0.3-0.5-2-1-2C271.7,268.8,271.7,268.9,272,269 M91.4,270.5
		l-0.8,1.3l0.9-1c0.5-0.5,0.9-1.1,0.9-1.3C92.3,268.9,92.2,269.1,91.4,270.5 M103.1,269.9c-0.6,0.3-0.5,0.3,0.3,0.1
		c0.5-0.1,1.4,0,2,0.4c0.6,0.3,1.1,0.5,1.1,0.4c0-0.2-2-1.3-2.4-1.2C103.9,269.5,103.4,269.7,103.1,269.9 M77.8,270.6
		c-0.5,0.4-0.6,0.6-0.3,0.4s0.7-0.4,1-0.4c0.2,0,0.5-0.2,0.6-0.4C79.5,269.5,78.7,269.8,77.8,270.6 M102.5,272.7
		c-0.5,0.2-1.5,0.3-2.3,0.2c-1.1-0.1-1.3-0.1-0.8,0.2c0.8,0.4,3.3,0.2,3.9-0.4C103.8,272.2,103.7,272.2,102.5,272.7 M74.4,273
		c-1.2,0.3-1.2,0.3-0.2,0.3c0.6,0,1.3-0.1,1.6-0.3C76.4,272.6,76.2,272.6,74.4,273 M307.2,275.1c0.3,0.2,0.4,0.5,0.2,0.8
		c-0.2,0.4-0.2,0.4,0.3,0c0.6-0.5,0.3-1.1-0.7-1.1C306.9,274.8,307,274.9,307.2,275.1 M302.4,275.3c0,1,2.8,1.7,3.3,0.9
		c0.1-0.2-0.4-0.2-1.1-0.1c-0.9,0.1-1.4,0-1.7-0.5C302.6,275.3,302.4,275.1,302.4,275.3 M293.2,275.7c0,0.2,0.4,0.5,0.9,0.7
		s0.8,0.3,0.7,0.1C294.5,276,293.2,275.4,293.2,275.7 M68.3,276.2c-0.5,0.2-1,0.6-1,0.9c0,0.5,0.1,0.5,0.3,0.1
		c0.2-0.3,0.8-0.7,1.3-0.9C70.2,275.8,69.7,275.7,68.3,276.2 M309.4,276.4c-0.3,0.3-0.8,0.5-1.4,0.4c-0.5-0.1-1,0-1,0.1
		c0,0.5,2.2,0.3,2.9-0.2c0.4-0.3,0.5-0.6,0.3-0.7C310,275.9,309.6,276.1,309.4,276.4 M296.2,276.9c-1,0.2-1,0.3-0.2,0.3
		c0.5,0,1.1-0.1,1.4-0.3C298,276.5,297.7,276.5,296.2,276.9 M102.7,279.7l-1.1,0.3h1.1c0.6,0,1.5-0.1,2.1-0.3l1.1-0.3h-1.1
		C104.2,279.4,103.3,279.5,102.7,279.7 M276.6,280.2c-0.3,0.3-0.8,0.7-1.2,0.9c-0.5,0.2-0.6,0.3-0.2,0.3c0.3,0,0.9-0.4,1.4-0.9
		s0.7-0.9,0.6-0.9C277.2,279.7,276.9,279.9,276.6,280.2 M254.2,280.6c0.3,0.1,0.9,0.1,1.2,0s0.1-0.2-0.6-0.2
		C254.2,280.5,253.9,280.5,254.2,280.6 M267.4,280.6c0.6,0.1,1.6,0.1,2.1,0s0-0.1-1.1-0.1C267.2,280.5,266.8,280.6,267.4,280.6
		 M77.3,281c-0.4,0.2-0.4,0.3,0.1,0.5c0.3,0.1,0.6,0,0.7-0.3C78.3,280.7,78,280.6,77.3,281 M66.9,282.1c0.1,0.7,0.5,1.1,1.1,1.4
		c0.9,0.4,0.9,0.4,0.1-0.2c-0.4-0.3-0.8-0.9-0.8-1.2c0-0.4-0.1-0.7-0.3-0.8C66.9,281.2,66.8,281.6,66.9,282.1 M239.8,283.6
		c-0.4,0.2-0.8,0.4-0.8,0.5c0,0.2,2.5-0.5,2.8-0.7C242.1,283.1,240.6,283.2,239.8,283.6 M219.7,297.1c-0.5,0.5-1,0.9-1.3,0.9
		c-0.2,0-0.5,0.2-0.7,0.3c-0.1,0.2,0,0.3,0.4,0.1c0.8-0.3,3.1-2.2,2.6-2.2C220.6,296.2,220.1,296.6,219.7,297.1 M72.6,297.6
		l-0.8,0.7l1.1-0.6c1.4-0.8,1.4-0.8,1-0.8C73.6,296.9,73,297.2,72.6,297.6 M79.4,297.5c0.1,0.6-0.1,0.9-0.8,1.1
		c-0.8,0.3-0.8,0.3-0.2,0.4c1.1,0,1.7-0.8,1.2-1.6C79.3,296.8,79.3,296.8,79.4,297.5 M117.7,301.2c-0.4,0.3-0.2,0.3,0.5,0.1
		c1.3-0.3,1.6-0.5,0.7-0.5C118.5,300.8,118,301,117.7,301.2 M191.3,301.4c0.1,0.2,0.6,0.4,1,0.5c0.8,0.2,0.8,0.2,0.1-0.3
		C191.7,301.1,191,301,191.3,301.4 M74.2,304.1c0.4,0.3,0.5,0.7,0.4,0.9c-0.1,0.2-0.1,0.4,0.1,0.4s0.4-0.2,0.4-0.5
		c0-0.6-0.7-1.3-1.2-1.3C73.7,303.6,73.8,303.8,74.2,304.1 M109.8,304.6c-0.1,0.1,0.5,0.2,1.2,0.1c0.8-0.1,1.4-0.2,1.4-0.3
		C112.4,304.2,110,304.3,109.8,304.6 M104.9,304.9c-0.1,0.2,0.4,0.2,1,0.1c0.7-0.1,1.2-0.2,1.2-0.3
		C107.1,304.5,105,304.7,104.9,304.9 M107.4,306.4c-1,1-1.1,1.6-0.1,0.7c0.5-0.5,0.9-1,0.8-1.1C108.1,305.9,107.7,306.1,107.4,306.4
		 M74.3,306.5c-0.2,0.5,0.4,1.7,0.8,1.7c0.2,0,0.3-0.2,0.3-0.4c0-0.2-0.2-0.3-0.4-0.2c-0.3,0.2-0.5-0.2-0.4-1.1c0-0.2,0-0.4-0.1-0.4
		C74.5,306.1,74.4,306.3,74.3,306.5 M197.9,307.1c0,0.2,1,0.4,2.3,0.4s2.3-0.2,2.3-0.4c0-0.2-1-0.4-2.3-0.4
		C198.9,306.8,197.9,306.9,197.9,307.1 M194.9,308.6c-0.1,0.4-0.1,0.8,0,0.9s0,0.5-0.2,0.9c-0.3,0.6-0.3,0.7,0,0.4
		c0.2-0.2,0.5-1,0.5-1.7C195.4,307.7,195.2,307.5,194.9,308.6 M91.6,309.1c-0.4,0.6-0.4,0.6,0.1,0.2c0.3-0.3,1-0.4,1.6-0.3
		c0.8,0.2,0.9,0.1,0.3-0.1C92.5,308.4,92.1,308.5,91.6,309.1 M126.9,313.8c0.1,0.3,0,0.8-0.2,1.1c-0.2,0.3-0.2,0.6-0.1,0.6
		c0.5,0,0.8-1.3,0.5-1.8C126.8,313.3,126.8,313.4,126.9,313.8 M96.3,315c-0.4,0.2-0.9,0.7-1.2,1c-0.3,0.5-0.1,0.4,0.8-0.3
		c1-0.8,1.7-1.4,1.2-1.2C97.1,314.6,96.7,314.8,96.3,315 M116.9,315.8c-1.3,0.7-1.2,1,0.1,0.3c0.6-0.3,1.1-0.6,1.1-0.7
		C118,315.2,118,315.2,116.9,315.8 M89,317.9c0.1,0.3,0.2,0.6,0.2,0.7s0.2,0.1,0.4,0.1c0.3,0,0.3-0.1,0-0.5
		c-0.2-0.3-0.3-0.6-0.2-0.7c0.1-0.1,0-0.2-0.2-0.2C88.9,317.3,88.8,317.6,89,317.9 M107.1,318c0,0.4,0.4,0.4,1.1,0
		c0.4-0.3,0.4-0.3-0.3-0.3C107.5,317.7,107.1,317.8,107.1,318 M180.8,318.9c-0.1,0.3-0.1,0.9,0.1,1.3c0.3,0.6,0.3,0.6,0.3-0.5
		C181.2,318.3,181.1,318.1,180.8,318.9 M99.9,319.1c-0.4,0.2-0.9,0.6-1.2,0.9c-0.5,0.6-0.5,0.6,0.2,0c0.4-0.3,0.9-0.6,1.1-0.6
		s0.5-0.2,0.6-0.4C100.8,318.7,100.8,318.7,99.9,319.1 M169.2,319.4c1.5,0.4,2.8,0.4,1.6,0c-0.5-0.2-1.3-0.3-1.8-0.3
		C168.2,319.2,168.3,319.2,169.2,319.4 M177,319.4c-0.1,0.2,0.3,0.2,0.9,0.1c0.9-0.1,1.3,0,2,0.9c0.5,0.6,0.7,0.8,0.6,0.5
		C179.7,319.3,177.6,318.4,177,319.4 M119.8,322.1c0.6,0.4,0.7,0.5,0.3,0.5c-0.3,0-0.7,0.2-0.8,0.4c-0.2,0.4,0.8,0.1,1.5-0.5
		c0.6-0.4-0.1-0.9-1.2-0.9C119,321.6,119,321.6,119.8,322.1 M89.3,322.6c-0.6,0.3-0.6,0.3,0.2,0.2c0.5-0.1,1.4,0,1.9,0.2
		c0.6,0.2,0.9,0.2,0.6,0C91.6,322.4,90.1,322.2,89.3,322.6 M115.7,322.9c-0.8,0.4-1.3,0.7-1.2,0.7c0.3,0,2.8-1,2.8-1.2
		C117.3,322.2,117.3,322.2,115.7,322.9 M86.4,323.5c-0.7,0.5-1,0.9-0.9,0.9c0.4,0,2.6-1.7,2.2-1.7C87.6,322.6,87,323,86.4,323.5
		 M115.7,325.4c-0.8,0.8-1.4,1.4-1.2,1.4c0.1,0,0.9-0.6,1.6-1.4C117.8,323.6,117.6,323.6,115.7,325.4 M105.3,325.9l-1.2,0.8l1.7,0.1
		c1.6,0.1,5.4-1,4.5-1.3c-0.2-0.1-0.9,0.1-1.4,0.4c-0.6,0.3-1.7,0.5-2.6,0.5h-1.5l1-0.5c0.5-0.3,1-0.6,1-0.7
		C106.8,325,106.7,325,105.3,325.9 M128.4,326.4c0.6,0.3,1.2,0.7,1.3,1c0.2,0.3,0.3,0.3,0.3,0c0-0.4-1.8-1.5-2.4-1.5
		C127.5,325.8,127.8,326,128.4,326.4 M153.3,326c0.3,0.1,0.9,0.1,1.2,0s0.1-0.2-0.6-0.2C153.2,325.8,152.9,325.9,153.3,326
		 M150.7,326.5c-0.4,0.3-0.2,0.3,0.5,0.1c1.3-0.3,1.6-0.5,0.7-0.5C151.6,326.1,151,326.3,150.7,326.5 M108.5,329.1
		c-0.2,0.3-0.7,0.5-0.9,0.5c-0.3,0-0.5,0.2-0.5,0.4c0,0.6,0.5,0.4,1.4-0.5c0.5-0.5,0.7-0.9,0.6-0.9S108.8,328.8,108.5,329.1
		 M143.3,328.9l-1.2,0.3h1.1c0.6,0,1.2-0.1,1.3-0.3c0.1-0.2,0.2-0.3,0.1-0.3C144.6,328.7,144,328.8,143.3,328.9 M132.4,332.6
		c0,0.7,0.9,0.8,1.3,0.1c0.1-0.2,0.1-0.3,0-0.2c-0.2,0.1-0.5,0.1-0.8-0.1C132.5,332.1,132.4,332.1,132.4,332.6"/>
</g>
</svg>
