<svg id="svg" version="1.1" xmlns="http://www.w3.org/2000/svg" xmlns:xlink="http://www.w3.org/1999/xlink" width="400" height="307.8125" viewBox="0, 0, 400,307.8125"><g id="svgg"><path id="path0" d="M289.215 1.175 L 286.051 2.309 282.648 6.467 C 280.776 8.753,278.511 11.524,277.615 12.625 C 276.718 13.726,275.553 15.112,275.026 15.704 C 274.498 16.297,274.065 16.876,274.062 16.991 C 274.059 17.106,273.884 17.391,273.672 17.623 C 273.460 17.856,272.891 18.479,272.406 19.007 C 271.571 19.917,271.548 20.013,271.976 20.838 C 272.225 21.317,272.946 22.712,273.579 23.939 L 274.729 26.168 273.709 27.480 C 273.148 28.201,272.442 29.015,272.141 29.289 C 271.840 29.563,271.594 29.881,271.594 29.996 C 271.594 30.681,270.103 31.756,269.557 31.464 C 269.237 31.293,267.905 30.782,266.595 30.328 L 264.214 29.503 259.975 30.222 L 255.735 30.942 253.455 33.177 C 252.201 34.406,251.053 35.412,250.905 35.412 C 250.626 35.412,250.635 37.495,250.916 38.014 C 251.003 38.175,251.104 38.590,251.140 38.937 C 251.176 39.285,251.344 40.331,251.513 41.263 C 251.736 42.494,251.724 43.016,251.469 43.175 C 250.847 43.564,249.018 45.088,248.186 45.913 L 247.377 46.714 246.594 46.067 C 246.163 45.711,245.490 45.157,245.099 44.837 C 244.707 44.517,243.420 43.443,242.238 42.451 C 241.057 41.458,239.916 40.647,239.703 40.647 C 239.297 40.647,229.305 44.342,227.714 45.081 C 227.206 45.317,225.889 45.823,224.788 46.205 C 223.687 46.588,222.655 47.018,222.494 47.161 C 222.333 47.304,221.980 47.421,221.708 47.421 C 221.395 47.421,221.012 47.984,220.661 48.961 C 220.357 49.808,219.994 50.500,219.856 50.500 C 219.718 50.500,218.564 51.116,217.292 51.868 C 215.328 53.029,214.924 53.168,214.611 52.791 C 214.409 52.548,214.052 52.348,213.819 52.348 C 213.586 52.348,213.394 52.244,213.393 52.117 C 213.392 51.990,212.139 51.056,210.609 50.042 C 207.976 48.297,207.802 48.114,207.370 46.626 C 206.719 44.388,206.497 44.213,203.161 43.308 C 199.341 42.271,199.415 42.267,196.998 43.724 C 194.758 45.075,194.483 45.071,192.764 43.663 C 191.500 42.628,191.558 42.673,189.376 41.065 C 188.445 40.378,187.336 39.456,186.913 39.015 C 186.174 38.246,186.038 38.220,183.526 38.369 C 174.352 38.913,165.050 38.965,165.050 38.473 C 165.050 38.263,163.723 37.776,163.048 37.738 C 162.879 37.729,162.671 37.633,162.587 37.525 C 162.435 37.332,159.859 36.372,153.880 34.281 C 150.242 33.009,150.470 32.886,149.654 36.570 C 149.289 38.219,148.931 39.785,148.858 40.048 C 148.734 40.497,146.292 40.939,139.338 41.773 C 133.377 42.488,132.408 42.801,128.264 45.355 C 127.932 45.560,127.126 46.047,126.474 46.437 L 125.288 47.146 125.343 49.362 C 125.402 51.736,125.134 53.272,124.660 53.272 C 124.499 53.272,124.453 53.410,124.557 53.580 C 124.662 53.749,124.601 53.888,124.422 53.888 C 124.242 53.888,124.095 54.070,124.095 54.292 C 124.095 54.514,123.506 55.865,122.785 57.294 C 120.419 61.985,119.820 63.553,119.618 65.589 C 119.299 68.811,119.268 68.902,117.974 70.436 C 115.866 72.936,110.313 77.989,109.932 77.753 C 109.139 77.263,107.077 77.383,106.935 77.929 C 106.849 78.255,106.672 78.522,106.541 78.522 C 106.410 78.522,106.217 78.862,106.112 79.278 C 106.008 79.695,105.625 80.538,105.262 81.154 L 104.602 82.273 102.175 82.058 C 99.848 81.852,99.236 81.949,97.152 82.855 C 96.813 83.002,95.289 83.542,93.764 84.055 C 92.240 84.569,90.716 85.113,90.377 85.264 C 88.807 85.966,86.845 86.508,85.296 86.668 C 77.354 87.491,77.628 87.321,78.514 90.882 L 79.124 93.333 77.428 97.552 C 75.558 102.202,75.889 101.850,71.901 103.415 C 71.055 103.747,69.392 104.456,68.206 104.989 C 67.021 105.523,65.407 106.246,64.621 106.597 C 63.136 107.259,62.452 107.249,59.722 106.529 C 58.364 106.171,58.237 106.200,55.774 107.429 C 54.375 108.128,53.163 108.699,53.081 108.699 C 52.998 108.699,52.960 107.797,52.996 106.695 C 53.032 105.592,53.005 104.637,52.935 104.571 C 52.866 104.505,51.909 103.919,50.808 103.268 C 49.707 102.617,48.580 101.945,48.304 101.774 C 44.813 99.616,44.991 99.686,43.756 99.999 C 41.513 100.569,38.062 99.881,37.187 98.691 C 37.036 98.486,36.958 98.486,36.952 98.691 C 36.946 98.875,36.851 98.865,36.716 98.666 C 36.489 98.332,33.014 96.154,30.858 94.996 C 30.228 94.657,29.211 94.069,28.599 93.687 C 27.019 92.703,26.962 92.736,25.658 95.381 C 25.010 96.694,24.411 97.837,24.326 97.921 C 24.242 98.006,23.363 99.643,22.373 101.559 L 20.573 105.042 20.358 108.995 C 20.208 111.737,20.004 113.114,19.694 113.489 C 19.447 113.785,19.282 114.077,19.326 114.137 C 19.370 114.196,19.184 114.764,18.913 115.398 C 18.641 116.032,18.384 116.690,18.341 116.859 C 18.298 117.028,18.103 117.557,17.907 118.034 C 17.712 118.511,17.552 119.072,17.552 119.281 C 17.552 119.490,17.429 119.793,17.278 119.954 C 17.127 120.115,16.688 121.126,16.302 122.201 C 15.510 124.405,15.319 124.558,9.084 127.991 C 7.513 128.856,7.558 129.282,9.545 132.379 C 11.381 135.242,11.354 135.044,9.978 135.499 C 8.374 136.028,4.144 138.761,3.387 139.757 C 3.303 139.868,2.730 140.296,2.114 140.708 C 0.794 141.591,0.838 141.341,0.275 151.071 C -0.174 158.841,-0.374 158.192,2.979 159.877 C 9.282 163.046,10.129 163.545,9.957 163.993 C 9.864 164.236,9.691 164.434,9.573 164.434 C 9.455 164.434,8.604 165.428,7.682 166.643 C 6.759 167.857,5.861 169.001,5.686 169.183 C 5.510 169.366,4.956 170.069,4.454 170.747 C 3.952 171.424,3.390 172.117,3.206 172.286 C 3.022 172.456,2.217 173.445,1.417 174.484 L -0.036 176.374 1.183 182.490 C 2.621 189.707,3.825 196.322,4.287 199.538 C 5.633 208.924,5.600 208.026,4.718 211.244 C 3.963 213.997,3.652 222.734,4.148 227.252 C 4.194 227.675,4.250 228.940,4.272 230.062 C 4.311 232.099,4.312 232.102,5.312 232.333 C 5.862 232.461,6.451 232.606,6.620 232.656 C 6.984 232.764,10.715 233.853,13.558 234.681 C 14.664 235.003,15.841 235.325,16.175 235.396 C 16.780 235.525,20.540 236.636,26.251 238.374 C 28.074 238.929,29.253 239.447,29.253 239.695 C 29.253 239.918,29.946 242.247,30.794 244.870 C 32.215 249.268,32.311 249.755,32.034 251.147 C 31.499 253.836,31.282 254.264,29.373 256.401 C 28.338 257.559,27.091 258.984,26.602 259.568 C 25.682 260.667,24.903 261.528,23.371 263.141 C 22.880 263.658,22.479 264.181,22.479 264.303 C 22.479 264.425,21.493 265.556,20.289 266.814 C 19.085 268.073,17.802 269.490,17.439 269.963 C 17.075 270.437,16.224 271.378,15.548 272.055 C 14.510 273.096,12.687 275.135,10.069 278.184 C 9.764 278.539,8.586 279.853,7.451 281.104 C 6.317 282.355,5.178 283.696,4.920 284.084 C 4.662 284.472,3.934 285.348,3.303 286.031 C 1.830 287.623,1.846 287.710,3.772 288.508 C 4.661 288.877,5.666 289.293,6.005 289.433 C 6.773 289.751,9.000 290.609,10.624 291.213 C 11.301 291.465,12.284 291.852,12.808 292.074 C 13.333 292.296,15.273 293.057,17.119 293.766 C 23.420 296.184,26.020 297.210,26.555 297.489 C 26.849 297.642,27.226 297.768,27.392 297.768 C 27.559 297.768,28.427 298.097,29.321 298.500 C 30.215 298.903,31.501 299.417,32.179 299.642 C 32.856 299.867,33.549 300.143,33.718 300.254 C 33.888 300.366,34.769 300.700,35.678 300.996 C 36.586 301.293,37.694 301.726,38.141 301.959 C 38.588 302.192,39.094 302.384,39.266 302.385 C 39.439 302.386,41.794 303.297,44.501 304.410 L 49.423 306.434 55.273 306.099 C 58.491 305.914,62.232 305.694,63.587 305.610 C 67.753 305.351,78.589 304.837,80.216 304.820 C 81.930 304.802,82.499 304.907,90.344 306.682 C 97.402 308.280,97.564 308.277,100.185 306.519 C 103.451 304.328,108.454 303.753,119.789 304.268 C 126.967 304.595,128.139 304.582,129.489 304.167 C 130.333 303.907,131.578 303.537,132.256 303.345 C 132.933 303.154,137.229 301.885,141.801 300.525 C 152.164 297.444,153.775 296.971,155.504 296.501 C 156.266 296.294,157.022 296.009,157.182 295.868 C 157.343 295.727,157.766 295.612,158.123 295.612 C 158.827 295.612,162.061 294.110,162.227 293.706 C 162.284 293.569,162.470 293.457,162.640 293.457 C 163.653 293.457,165.831 291.249,165.121 290.942 C 164.991 290.885,164.301 290.141,163.588 289.288 L 162.292 287.736 163.977 283.141 L 165.663 278.545 165.036 275.300 C 164.691 273.516,164.332 271.570,164.239 270.978 C 164.145 270.385,164.049 269.831,164.025 269.746 C 164.001 269.661,164.731 266.950,165.648 263.721 L 167.315 257.849 170.029 257.141 C 172.518 256.492,172.797 256.341,173.404 255.314 C 174.365 253.691,175.641 251.756,175.869 251.578 C 175.977 251.493,176.449 250.731,176.917 249.885 C 177.385 249.038,177.921 248.246,178.107 248.126 C 179.184 247.428,179.697 247.033,180.425 246.343 C 182.688 244.199,183.259 244.195,185.307 246.312 C 186.425 247.467,187.460 248.007,188.761 248.114 C 191.520 248.340,192.565 248.450,193.475 248.611 C 194.111 248.724,194.890 248.581,195.683 248.206 C 196.357 247.887,197.016 247.693,197.146 247.773 C 197.276 247.853,197.383 247.773,197.383 247.593 C 197.383 247.414,197.634 247.267,197.941 247.267 C 198.248 247.267,199.114 246.962,199.865 246.589 C 200.617 246.216,201.301 245.902,201.386 245.892 C 201.547 245.873,203.254 245.233,204.311 244.794 C 204.650 244.654,205.446 244.380,206.082 244.185 C 207.457 243.765,207.526 243.329,206.390 242.266 C 205.924 241.831,205.218 241.088,204.820 240.616 L 204.098 239.758 204.820 239.230 C 205.218 238.939,205.836 238.446,206.195 238.135 C 206.553 237.823,207.308 237.221,207.872 236.798 C 211.968 233.725,212.945 232.956,213.036 232.736 C 213.092 232.599,213.339 232.487,213.584 232.487 C 213.829 232.487,214.110 232.279,214.207 232.025 C 214.305 231.771,214.543 231.562,214.737 231.560 C 214.930 231.559,215.574 231.106,216.166 230.554 C 216.860 229.909,217.628 229.514,218.322 229.448 C 218.915 229.392,219.469 229.255,219.554 229.145 C 219.638 229.035,220.054 228.926,220.477 228.902 C 221.249 228.858,222.294 228.683,224.018 228.309 C 224.527 228.199,225.219 228.073,225.558 228.028 C 225.897 227.983,226.174 227.913,226.174 227.872 C 226.174 227.831,227.179 227.775,228.406 227.749 C 229.634 227.722,230.639 227.798,230.639 227.917 C 230.639 228.037,231.021 228.123,231.487 228.110 C 233.032 228.066,233.547 228.472,235.577 231.339 L 237.591 234.180 239.735 234.110 C 243.648 233.981,243.544 234.038,246.136 230.556 C 247.426 228.824,248.649 227.211,248.854 226.974 C 249.059 226.736,249.709 225.835,250.298 224.972 C 250.888 224.109,251.465 223.333,251.582 223.249 C 252.391 222.661,252.374 221.587,251.439 214.074 C 250.650 207.730,250.544 206.224,250.870 205.953 C 251.090 205.771,251.270 205.484,251.270 205.315 C 251.270 205.147,251.721 204.367,252.271 203.582 C 252.821 202.798,253.410 201.934,253.580 201.663 C 253.749 201.392,254.260 200.611,254.715 199.929 C 255.505 198.744,255.565 198.185,255.051 196.767 C 254.593 195.501,254.740 194.898,255.757 193.881 C 256.785 192.853,256.992 192.047,256.896 189.453 C 256.888 189.242,256.995 189.069,257.134 189.069 C 257.273 189.069,257.467 188.826,257.564 188.530 C 257.661 188.233,258.431 187.229,259.274 186.297 C 260.118 185.366,260.810 184.513,260.812 184.403 C 260.827 183.682,265.740 183.379,267.357 184.000 C 267.600 184.093,268.504 183.644,269.365 183.001 C 270.226 182.358,271.235 181.624,271.606 181.370 C 271.978 181.116,272.819 180.527,273.475 180.062 C 274.131 179.596,274.744 179.215,274.837 179.215 C 274.930 179.215,275.174 179.074,275.379 178.902 C 276.540 177.926,279.977 175.520,280.209 175.520 C 281.023 175.520,280.852 173.700,279.938 172.639 C 279.667 172.325,279.463 171.978,279.484 171.869 C 279.540 171.572,279.297 170.925,278.424 169.053 C 277.990 168.122,277.601 167.166,277.560 166.928 C 277.519 166.691,277.326 166.399,277.130 166.278 C 276.935 166.158,276.771 165.936,276.765 165.785 C 276.718 164.563,275.395 163.088,269.177 157.321 C 268.142 156.362,267.878 155.926,268.018 155.407 C 268.117 155.037,268.200 154.428,268.202 154.054 L 268.206 153.373 276.905 153.555 C 284.964 153.724,285.820 153.691,288.530 153.099 C 290.139 152.747,292.286 152.318,293.303 152.146 C 295.939 151.698,296.816 151.533,298.383 151.188 C 299.912 150.852,301.120 150.635,301.663 150.600 C 301.865 150.587,302.113 149.748,302.238 148.653 C 302.359 147.594,302.499 146.507,302.550 146.236 C 302.760 145.102,303.091 142.382,303.072 141.945 C 303.048 141.409,301.418 138.911,299.607 136.637 C 298.091 134.734,298.076 134.875,299.914 133.782 L 301.444 132.871 301.285 131.013 C 301.136 129.276,301.182 129.102,301.987 128.358 C 302.461 127.921,304.373 126.109,306.236 124.332 C 308.099 122.555,310.264 120.526,311.047 119.823 C 313.252 117.844,315.071 110.602,314.101 107.662 C 313.692 106.422,313.883 105.506,314.741 104.585 C 315.562 103.704,315.523 103.548,313.484 99.510 C 311.918 96.409,311.567 95.394,311.089 92.600 C 310.494 89.113,310.229 88.647,306.888 85.199 C 306.360 84.654,305.407 83.572,304.772 82.794 L 303.616 81.381 304.543 80.182 C 305.053 79.523,305.731 78.637,306.051 78.214 C 306.370 77.791,307.235 76.695,307.973 75.779 C 311.113 71.882,312.596 69.994,313.244 69.067 C 313.974 68.024,314.353 67.985,316.362 68.748 C 317.119 69.035,317.312 68.998,317.676 68.492 C 318.425 67.449,318.874 66.989,319.759 66.359 C 320.234 66.020,320.780 65.599,320.973 65.424 C 321.166 65.248,322.190 64.501,323.249 63.762 C 324.307 63.024,325.173 62.326,325.173 62.211 C 325.173 61.390,329.626 59.092,333.302 58.018 C 336.718 57.018,337.449 56.689,338.532 55.659 C 339.754 54.496,341.405 53.887,344.727 53.373 C 345.235 53.294,346.413 53.028,347.344 52.780 C 348.904 52.365,355.565 51.833,366.744 51.230 C 374.252 50.825,376.597 50.888,377.944 51.533 C 379.298 52.182,380.404 51.913,380.740 50.853 C 380.947 50.203,382.685 49.210,385.681 48.032 C 386.697 47.632,387.614 47.181,387.717 47.029 C 387.821 46.877,387.959 46.785,388.025 46.824 C 388.293 46.984,389.530 46.434,389.530 46.155 C 389.530 45.990,389.704 45.877,389.915 45.904 C 391.925 46.165,392.178 45.263,390.783 42.802 C 389.320 40.220,389.265 39.830,390.300 39.359 C 390.724 39.166,391.070 38.892,391.070 38.750 C 391.070 38.607,391.206 38.491,391.372 38.491 C 391.663 38.491,395.067 36.422,395.381 36.054 C 395.955 35.382,397.078 35.104,398.471 35.288 C 400.308 35.532,400.472 35.106,399.154 33.511 C 397.043 30.955,397.700 31.167,391.167 30.929 L 385.259 30.714 381.246 32.909 C 379.038 34.116,377.137 35.104,377.021 35.104 C 376.905 35.104,376.346 35.457,375.780 35.889 C 375.213 36.321,374.750 36.577,374.750 36.458 C 374.750 36.338,374.507 36.448,374.211 36.703 C 373.317 37.471,372.711 37.553,370.800 37.163 L 368.972 36.790 370.167 34.813 C 371.462 32.673,371.565 32.353,370.978 32.293 C 370.766 32.272,370.246 32.217,369.823 32.171 C 364.943 31.643,360.021 31.678,358.874 32.249 C 352.931 35.202,348.704 37.370,348.576 37.529 C 348.284 37.894,347.043 38.491,346.578 38.491 C 346.322 38.491,346.112 38.606,346.112 38.746 C 346.112 38.887,345.451 39.312,344.642 39.691 C 343.313 40.313,343.038 40.636,341.793 43.036 C 341.036 44.497,340.208 45.796,339.954 45.922 C 339.700 46.048,338.661 46.522,337.644 46.974 C 336.628 47.427,335.126 48.129,334.306 48.535 C 333.485 48.940,331.892 49.633,330.764 50.075 C 329.637 50.517,328.368 51.207,327.945 51.608 C 327.521 52.010,325.789 53.457,324.095 54.823 C 322.402 56.190,320.422 57.821,319.695 58.447 C 318.474 59.498,318.252 59.575,316.770 59.467 C 315.887 59.403,314.899 59.334,314.572 59.313 C 313.930 59.273,313.559 58.634,309.395 50.405 L 306.932 45.538 308.846 31.845 C 310.656 18.901,310.825 16.941,310.088 17.396 C 309.919 17.501,309.121 17.634,308.316 17.693 C 307.510 17.751,306.034 17.897,305.036 18.017 L 303.220 18.236 303.392 17.355 C 304.976 9.266,305.063 8.079,304.090 7.905 C 303.926 7.876,303.303 7.403,302.704 6.853 C 302.106 6.303,301.513 5.853,301.386 5.852 C 301.259 5.851,300.883 5.579,300.551 5.247 C 300.220 4.916,298.938 3.916,297.703 3.026 C 296.468 2.137,295.356 1.265,295.232 1.089 C 295.107 0.914,295.003 0.879,295.001 1.013 C 294.998 1.146,294.693 0.973,294.322 0.628 C 293.425 -0.208,292.925 -0.155,289.215 1.175 " stroke="none" fill="#ececec" fill-rule="evenodd"></path><path id="path1" d="M344.881 39.261 C 344.457 39.503,344.249 39.701,344.419 39.701 C 344.588 39.701,345.073 39.503,345.497 39.261 C 345.920 39.019,346.128 38.821,345.958 38.821 C 345.789 38.821,345.304 39.019,344.881 39.261 M332.564 49.115 C 332.140 49.357,331.932 49.555,332.102 49.555 C 332.271 49.555,332.756 49.357,333.179 49.115 C 333.603 48.873,333.811 48.675,333.641 48.675 C 333.472 48.675,332.987 48.873,332.564 49.115 M317.978 68.129 L 317.424 69.130 318.058 68.360 C 318.621 67.678,318.871 67.129,318.619 67.129 C 318.571 67.129,318.282 67.579,317.978 68.129 M115.924 72.440 L 114.396 74.057 116.012 72.529 C 117.515 71.109,117.770 70.824,117.540 70.824 C 117.492 70.824,116.764 71.551,115.924 72.440 M302.445 127.803 C 302.074 128.148,301.771 128.518,301.771 128.626 C 301.771 128.734,302.117 128.496,302.540 128.099 C 303.262 127.420,303.442 127.175,303.214 127.175 C 303.162 127.175,302.815 127.457,302.445 127.803 M271.828 153.567 C 272.211 153.640,272.765 153.637,273.060 153.560 C 273.354 153.483,273.041 153.423,272.363 153.426 C 271.686 153.430,271.445 153.493,271.828 153.567 M252.278 221.702 C 252.304 222.045,252.434 222.325,252.567 222.325 C 252.908 222.325,252.871 221.475,252.521 221.259 C 252.361 221.160,252.252 221.360,252.278 221.702 M17.185 269.977 C 16.642 270.609,16.235 271.286,16.398 271.286 C 16.461 271.286,16.820 270.870,17.195 270.362 C 17.938 269.358,17.931 269.108,17.185 269.977 " stroke="none" fill="#f0ecec" fill-rule="evenodd"></path><path id="path2" d="M344.881 39.261 C 344.457 39.503,344.249 39.701,344.419 39.701 C 344.588 39.701,345.073 39.503,345.497 39.261 C 345.920 39.019,346.128 38.821,345.958 38.821 C 345.789 38.821,345.304 39.019,344.881 39.261 M332.564 49.115 C 332.140 49.357,331.932 49.555,332.102 49.555 C 332.271 49.555,332.756 49.357,333.179 49.115 C 333.603 48.873,333.811 48.675,333.641 48.675 C 333.472 48.675,332.987 48.873,332.564 49.115 M317.978 68.129 L 317.424 69.130 318.058 68.360 C 318.621 67.678,318.871 67.129,318.619 67.129 C 318.571 67.129,318.282 67.579,317.978 68.129 M115.924 72.440 L 114.396 74.057 116.012 72.529 C 117.515 71.109,117.770 70.824,117.540 70.824 C 117.492 70.824,116.764 71.551,115.924 72.440 M302.445 127.803 C 302.074 128.148,301.771 128.518,301.771 128.626 C 301.771 128.734,302.117 128.496,302.540 128.099 C 303.262 127.420,303.442 127.175,303.214 127.175 C 303.162 127.175,302.815 127.457,302.445 127.803 M271.828 153.567 C 272.211 153.640,272.765 153.637,273.060 153.560 C 273.354 153.483,273.041 153.423,272.363 153.426 C 271.686 153.430,271.445 153.493,271.828 153.567 M252.278 221.702 C 252.304 222.045,252.434 222.325,252.567 222.325 C 252.908 222.325,252.871 221.475,252.521 221.259 C 252.361 221.160,252.252 221.360,252.278 221.702 M17.185 269.977 C 16.642 270.609,16.235 271.286,16.398 271.286 C 16.461 271.286,16.820 270.870,17.195 270.362 C 17.938 269.358,17.931 269.108,17.185 269.977 " stroke="none" fill="#f0ecec" fill-rule="evenodd"></path><path id="path3" d="M344.881 39.261 C 344.457 39.503,344.249 39.701,344.419 39.701 C 344.588 39.701,345.073 39.503,345.497 39.261 C 345.920 39.019,346.128 38.821,345.958 38.821 C 345.789 38.821,345.304 39.019,344.881 39.261 M332.564 49.115 C 332.140 49.357,331.932 49.555,332.102 49.555 C 332.271 49.555,332.756 49.357,333.179 49.115 C 333.603 48.873,333.811 48.675,333.641 48.675 C 333.472 48.675,332.987 48.873,332.564 49.115 M317.978 68.129 L 317.424 69.130 318.058 68.360 C 318.621 67.678,318.871 67.129,318.619 67.129 C 318.571 67.129,318.282 67.579,317.978 68.129 M115.924 72.440 L 114.396 74.057 116.012 72.529 C 117.515 71.109,117.770 70.824,117.540 70.824 C 117.492 70.824,116.764 71.551,115.924 72.440 M302.445 127.803 C 302.074 128.148,301.771 128.518,301.771 128.626 C 301.771 128.734,302.117 128.496,302.540 128.099 C 303.262 127.420,303.442 127.175,303.214 127.175 C 303.162 127.175,302.815 127.457,302.445 127.803 M271.828 153.567 C 272.211 153.640,272.765 153.637,273.060 153.560 C 273.354 153.483,273.041 153.423,272.363 153.426 C 271.686 153.430,271.445 153.493,271.828 153.567 M252.278 221.702 C 252.304 222.045,252.434 222.325,252.567 222.325 C 252.908 222.325,252.871 221.475,252.521 221.259 C 252.361 221.160,252.252 221.360,252.278 221.702 M17.185 269.977 C 16.642 270.609,16.235 271.286,16.398 271.286 C 16.461 271.286,16.820 270.870,17.195 270.362 C 17.938 269.358,17.931 269.108,17.185 269.977 " stroke="none" fill="#f0ecec" fill-rule="evenodd"></path><path id="path4" d="M344.881 39.261 C 344.457 39.503,344.249 39.701,344.419 39.701 C 344.588 39.701,345.073 39.503,345.497 39.261 C 345.920 39.019,346.128 38.821,345.958 38.821 C 345.789 38.821,345.304 39.019,344.881 39.261 M332.564 49.115 C 332.140 49.357,331.932 49.555,332.102 49.555 C 332.271 49.555,332.756 49.357,333.179 49.115 C 333.603 48.873,333.811 48.675,333.641 48.675 C 333.472 48.675,332.987 48.873,332.564 49.115 M317.978 68.129 L 317.424 69.130 318.058 68.360 C 318.621 67.678,318.871 67.129,318.619 67.129 C 318.571 67.129,318.282 67.579,317.978 68.129 M115.924 72.440 L 114.396 74.057 116.012 72.529 C 117.515 71.109,117.770 70.824,117.540 70.824 C 117.492 70.824,116.764 71.551,115.924 72.440 M302.445 127.803 C 302.074 128.148,301.771 128.518,301.771 128.626 C 301.771 128.734,302.117 128.496,302.540 128.099 C 303.262 127.420,303.442 127.175,303.214 127.175 C 303.162 127.175,302.815 127.457,302.445 127.803 M271.828 153.567 C 272.211 153.640,272.765 153.637,273.060 153.560 C 273.354 153.483,273.041 153.423,272.363 153.426 C 271.686 153.430,271.445 153.493,271.828 153.567 M252.278 221.702 C 252.304 222.045,252.434 222.325,252.567 222.325 C 252.908 222.325,252.871 221.475,252.521 221.259 C 252.361 221.160,252.252 221.360,252.278 221.702 M17.185 269.977 C 16.642 270.609,16.235 271.286,16.398 271.286 C 16.461 271.286,16.820 270.870,17.195 270.362 C 17.938 269.358,17.931 269.108,17.185 269.977 " stroke="none" fill="#f0ecec" fill-rule="evenodd"></path></g></svg>