<?xml version="1.0" encoding="utf-8"?>
<!-- Generator: Adobe Illustrator 26.0.1, SVG Export Plug-In . SVG Version: 6.00 Build 0)  -->
<svg version="1.1" xmlns="http://www.w3.org/2000/svg" xmlns:xlink="http://www.w3.org/1999/xlink" x="0px" y="0px"
	 viewBox="0 0 512 512" style="enable-background:new 0 0 512 512;" xml:space="preserve">
<style type="text/css">
	.st0{display:none;}
	.st1{fill:#FFFFFF;}
</style>
<g id="Layer_2_00000041259074970901583210000002078366269017081266_" class="st0">
	
		<image style="display:inline;overflow:visible;" width="847" height="859" xlink:href="D82ADB6.jpg"  transform="matrix(0.6221 0 0 0.6221 -7.4688 -11.2015)">
	</image>
</g>
<g id="Layer_3">
	<path class="st1" d="M31.3,187.8l3.3,4.8l7.2,3.3l9.9,3.7l3.5,1l2.9,3.5h7.5l2.5-4.6l6.2-0.6l13.4-22.1l60.8,6.8l4.1-8.7l3.9-1.4
		l14.1-15.1l13-21.5l9.3-1.2l8.5-9.5l3.5-2.1l1.7-5.4l12-7l12.6-8.9l16.1-12l12-5.6l4.8-4.3l1-1.5h1l5.8-4.3l12.8-5.2l6.6-4.6
		l7.7-2.1l11-4.3l7.9,1.7l7.5-1.7l12.8-7l4.1-3.5l8.3,1.7l13.5-17h7.4l2.1,3.3l3.5-4.3l5.2-3.3l3.1,2.7l4.5-7.7l-1.4-3.3l3.9-1.7
		l7.7-3.7l-7.5-4.3l2.3-4.1l6.2,1.5l2.1-4.1l4.1,4.8l1.2-2.9l4.1-1.9v5.2L429,9l6,31.5l-10.5,2.1l-3.7,9.5l-6.2,5.2l0.4,7l3.5,10.6
		l1.5,11.6l3.1,12.6l-4.8,6l-5.8,3.9l-10.6,1.4l1.2,5.6l1.7,8.7l-0.2,7.5l1.4,12.6l5.8,7.5l-9.9,23.4l23.6,38.3l9.5,30.8l3.3,18.2
		l-7,7l1.9,2.9c0,0-5.2,6.4-5.8,5.8c-0.6-0.6-3.7-2.3-3.7-2.3L412,295.1l-6.2,2.3l-2.9,10.8l-8.5,15.1l-1.7,8.5l-0.4,12l-0.4,3.7
		l-4.6,3.1h-7.7l-11,2.7l-7.7,7l-3.7,4.3l-2.9,8.5l-4.5,2.1l0.4,6.8l4.1,7.9l0.8,7.4l-1.2,18.2l4.8,1.4l3.3,2.1l-0.6,3.5l-3.5,2.1
		l-5,5.4l-4.3,14.7l-9.7,11.6l-5.2,23l-1.5,7.9l-18.2-3.3l-19.9-0.6l-11.2,0.8l-6,3.1l-6.8-3.9l-7.2,3.9l-3.5-2.1l-3.3,3.1l-5.6,1.7
		l-6.8,1.5l-1.9,7l-8.3-3.9l-7.2,3.9h-7.9l-5.4-1.5l-10.1-6l-7.2-9.1l-1.4-7.7l-6.4-6.8l2.5-5.6l-0.8-6.4l-6.4-5.4l-7-3.1l-6-8.5
		l-6.8-0.8l-10.8,8.1l1.2,4.6l-3.1-1.4c0,0-2.3,3.3-2.9,3.1c-0.6-0.2-3.5-2.9-3.5-2.9l-6.2,6.4l-8.9,1l-7.7-7.5h-11.8l-7.4,6
		l-5.8,6.8l-17.6,4.6l-9.7-0.4l-8.3-2.5l-3.1,1.2l-1.9-1.9l-2.7-3.3l-9.7-4.8l4.8-8.9l2.9-8.9l6.8-9.7l2.9-7.9l-16.3-56.7l3.5-14.3
		l3.7-8.5l13.9-12.8l4.8-8.3l1-6.6l-1-6.2l-5-10.8l-5.8-9.9l2.1-6.4l-2.5-4.1l-5.6-6l-10.1-6.8l-7-8.3l-4.1-10.1l-1.4-12.2l1.7-11
		l-4.1-7.9l-1-8.3v-6.4l2.1-2.7l-0.2-3.7L31.3,187.8z"/>
</g>
</svg>
