<?xml version="1.0" encoding="utf-8"?>
<!-- Generator: Adobe Illustrator 26.0.1, SVG Export Plug-In . SVG Version: 6.00 Build 0)  -->
<svg version="1.1" xmlns="http://www.w3.org/2000/svg" xmlns:xlink="http://www.w3.org/1999/xlink" x="0px" y="0px"
	 viewBox="0 0 512 512" style="enable-background:new 0 0 512 512;" xml:space="preserve">
<style type="text/css">
	.st0{display:none;}
	.st1{fill:#FFFFFF;stroke:#000000;stroke-miterlimit:10;}
</style>
<g id="Layer_1" class="st0">
</g>
<g id="Layer_2">
	<path class="st1" d="M252.9,503.5l-5.7-13.3l2.8-10.9l-13.7-36.5l-21.3-55.5l-3.8-3.3v-14.7l-5.7-7.6l-2.8-19.9l-14.4-38.1
		l-7.9-24.8l5.4-7.1l6.2-4.3l-0.5-10.7l7.3-9.2l15.2-12.8L205,226l21.3-35.7l10.6-30.5c0,0,10.6-28.9,10.6-29.4s-0.5-13.1-0.5-13.1
		l6.8-17.5l2.4-30.3l2.8-9l6.6,2.1l8.5-5.4V25.6h9.5l9.8-2.7l9.5,5.2l8.8,1.6l10.7-6.8l3.5-11.2L327.9,0l11.9,5.8l-5.7,27L333,50.6
		c0,0,2.7,19.4,2.7,19.9s-4.3,6.5-4.3,6.5l0.2,6.3l-4.6,4.4l-0.2,15l-0.2,17.4l-9.5-2.7l-8.7-14.4l-12,0.4l-9.2-4.4l-9.8,5.4
		l-5.6,6.2l-4.4,12.4l-3.3,9.1l-1.3,10.8l-6,8l7.1,10.4l-1.1,11.5l-6.2,8.8l2.3,11.4l5.1,4.2l8.3-4l7,6l-0.6,8.8l-16.9,12.6l-7,31.4
		l5.3,8.1l55.4-18.5l-6.2,28.4l5.2,22.8l-17.1,45l-11.9,32.2l-3.3,16.8l2.8,7.6l-6.9,18.3l3.8,14.9l-8.5,14.7l-2.6,22.5l-6.2,20.9
		l-4.7,10.4L252.9,503.5z"/>
</g>
</svg>
