<?xml version="1.0" encoding="utf-8"?>
<!-- Generator: Adobe Illustrator 25.0.0, SVG Export Plug-In . SVG Version: 6.00 Build 0)  -->
<svg version="1.1" id="svg" xmlns="http://www.w3.org/2000/svg" xmlns:xlink="http://www.w3.org/1999/xlink" x="0px" y="0px"
	 viewBox="0 0 400 424.7" style="enable-background:new 0 0 400 424.7;" xml:space="preserve">
<style type="text/css">
	.st0{fill-rule:evenodd;clip-rule:evenodd;fill:#FFFFFF;}
</style>
<g id="svgg">
	<path id="path0" class="st0" d="M306.9,4.3c-0.5,0.9-0.4,2,0.1,2.2c0.2,0.1,0.5,0.5,0.5,0.9c0.1,0.9,1,2.3,1.6,2.3s1-1.1,0.7-2.1
		c-0.2-0.7-0.2-0.7,1.5-0.5l1.7,0.2l-0.9-1c-0.5-0.5-1-1.3-1.2-1.7C310.2,3.5,307.4,3.3,306.9,4.3 M316.7,5.5
		c-0.8,0.8-0.5,1.8,0.4,1.1c0.3-0.2,1.3-0.3,2.6-0.2c1.5,0.1,2.2,0,2.2-0.2C321.9,5,317.7,4.5,316.7,5.5 M296.5,10.1
		c-0.3,0.3-5.5,1.1-7.4,1.1c-1.1,0-3.5,0.2-5.2,0.3c-2.3,0.2-3.4,0.1-3.8-0.1c-0.4-0.3-0.7-0.3-1.3,0c-1.2,0.6-1,1.1,0.3,0.9
		c1.4-0.2,1.5,0.2,0.1,1c-1,0.5-1,0.7-0.9,2.2c0.1,1.1,0,1.7-0.4,2c-0.6,0.5,0.1,2.5,0.9,2.5c0.3,0,0.4-0.1,0.3-0.3
		c-0.1-0.2,0.1-0.3,0.5-0.3c0.8,0,1.3-0.5,1.9-1.7c0.3-0.8,0.6-0.9,2.5-1.1c6.2-0.6,7.8-1,7.5-1.8c-0.1-0.3,0.2-0.6,0.9-0.9
		c0.6-0.2,1.6-0.7,2.3-1s1.9-0.5,2.7-0.5c1.7,0,2.8-0.6,2.4-1.5c-0.2-0.4-0.5-0.5-1.1-0.4c-0.5,0.1-0.8,0-0.8-0.1
		C297.9,10,296.8,9.9,296.5,10.1 M234.4,17.3c-2.3,2.7-2.9,5.7-1.1,5.7c0.2,0,0.7,0.3,1.1,0.7c0.4,0.4,1.1,0.7,1.5,0.7
		s0.9,0.2,0.9,0.4c0.1,0.2,0.5,0.1,1.3-0.3c0.6-0.4,1.4-0.7,1.7-0.7s1.1-0.5,1.8-1c1.1-1,1.3-1,2.9-0.8c1,0.1,2.4,0.3,3.3,0.4
		c1,0.1,2.4,0,4-0.5c1.4-0.4,2.9-0.7,3.5-0.8c0.6-0.1,1.6-0.5,2.4-0.9c1.1-0.6,2-0.7,4.4-0.7c3,0,3,0,3-0.8c0-1.9-2.6-2.2-9.5-1.2
		c-1.1,0.2-5.1,0.4-8.8,0.5l-6.8,0.2l-1.1-1C237.3,15.5,235.9,15.6,234.4,17.3 M332.5,16.3c-0.3,0.2-1.9,0.5-3.5,0.7
		c-1.7,0.2-3.2,0.6-3.5,0.8c-0.6,0.5-3.7,1.5-4.6,1.5c-0.4,0-0.9,0.3-1.2,0.7c-0.3,0.4-1,0.7-1.4,0.7s-1.5,0.3-2.3,0.7
		c-1.3,0.6-1.6,0.7-1.8,0.2c-0.3-0.4-0.4-0.4-0.7,0c-0.3,0.3-0.9,0.5-1.9,0.4c-0.9-0.1-2.2,0.2-3.5,0.6c-1.1,0.4-2.6,0.8-3.4,0.8
		c-0.7,0-1.7,0.2-2.1,0.4c-0.4,0.2-1.1,0.4-1.6,0.4c-1.8,0-4.9,1.4-5.4,2.4c-0.5,1.1-0.8,1.1-1.4,0.4c-1.6-2-4.9-3.2-6.4-2.4
		c-0.4,0.2-1.2,0.4-1.8,0.3c-2.5-0.2-4.1,3-2,4c0.7,0.3,0.7,0.3,0,0.2c-0.7-0.1-0.8,0-0.7,1.3c0.1,1.8,0.6,2.1,2.8,2.1
		c1.1,0,1.5,0.1,1.5,0.5c0,0.3,0.2,0.5,0.4,0.6c0.2,0.1,0,0.2-0.6,0.2s-1.2-0.2-1.5-0.4c-0.3-0.3-0.5-0.3-0.6,0s-0.4,0.3-1.1,0
		c-0.8-0.3-1.1-0.3-1.3,0.1c-0.3,0.4-0.3,0.4-0.3-0.2c0-0.4-0.1-0.8-0.3-0.9c-0.1-0.1-0.3-0.7-0.3-1.3s-0.1-1.5-0.1-2.1
		c-0.2-2.2,0-3.1,0.7-3.3c0.5-0.2,0.6-0.3,0.4-0.6c-0.2-0.2-0.9-0.1-2.2,0.4c-1.4,0.6-2,0.7-2.5,0.4c-0.9-0.5-3.3-0.5-3.5,0.1
		c-0.1,0.3-0.3,0.3-0.9,0s-1.1-0.3-2-0.1c-0.6,0.2-1.7,0.3-2.3,0.3c-0.6,0-1.4,0.2-1.8,0.5s-1.6,0.6-2.7,0.7s-2.5,0.5-3.1,0.8
		c-1.5,0.8-3.8,0.8-4.6,0c-0.7-0.7-1.2-0.6-1.2,0.3c0,0.4-0.6,0.9-1.5,1.3c-0.8,0.4-1.6,0.9-1.9,1.2c-0.6,0.7-3.6,2.2-4.4,2.2
		c-0.4,0-1.1,0.3-1.6,0.6s-2.2,1.3-3.9,2.2c-1.6,0.9-3.3,1.8-3.7,2c-0.4,0.3-1.1,0.5-1.6,0.5s-1.4,0.3-2,0.7s-1.3,0.7-1.5,0.7
		c-0.4,0-3.4,1.8-4.9,3c-0.5,0.4-1.5,1.7-2.3,2.8c-1,1.5-1.8,2.3-2.8,2.8c-0.8,0.4-1.7,1.1-2.2,1.5c-0.4,0.5-0.9,0.8-1.1,0.8
		c-0.9,0-4.9,5.1-4.4,5.6c0.1,0.1-0.1,0.5-0.5,0.9s-0.6,1-0.6,1.3s-0.1,0.6-0.3,0.6c-0.6,0-1.2,2-0.8,2.8c0.3,0.6,0.3,0.9,0,1.4
		c-0.2,0.4-0.4,1.6-0.4,2.6c0,2.5-0.5,3.7-1.8,4c-0.8,0.2-0.9,0.3-0.8,0.9c0.4,1.4-2.2,4.2-3.8,4.2c-0.4,0-0.7,0.1-0.7,0.3
		c0,0.2-2.3,1.1-3,1.1c-0.2,0-0.7,0.4-1.3,0.9c-0.5,0.5-1.8,1.6-2.8,2.5s-3.2,3-5,4.7c-1.7,1.7-3.8,3.6-4.7,4.3
		c-0.8,0.7-2.3,2-3.3,2.9s-2.2,2-2.8,2.3c-0.5,0.3-0.9,0.7-0.9,0.8c0,0.1-0.4,0.3-0.8,0.3s-0.8,0.2-0.8,0.3c0,0.2-0.4,0.3-0.9,0.3
		s-1.1,0.1-1.4,0.3c-0.3,0.2-0.7,0.2-1.1-0.1c-0.4-0.3-0.8-0.3-1.5,0c-0.5,0.2-1.1,0.4-1.5,0.4c-0.7,0-2,1.3-2,1.9
		c0,0.7-1.1,2.1-1.7,2.1c-0.3,0-1,0.4-1.5,0.8c-2.2,1.9-3,2-4.5,1c-0.8-0.5-1.8-1.1-2.3-1.3c-2.6-1.1-5.2-5.9-3.5-6.5
		c0.2,0,0.3-0.7,0.3-1.4c0-0.7-0.1-1.3-0.2-1.2c-0.1,0-0.4,0.1-0.6,0.1c-0.2,0-0.3,0.3-0.3,0.7c0,0.5-0.2,0.6-0.5,0.5
		s-0.5-0.4-0.4-0.7c0.1-0.4-0.4-0.5-2.2-0.5c-3.6-0.1-3.7,0.3-4.5,9.3c-0.2,2.3-0.5,4.3-1,5.3c-0.4,0.9-0.8,2.5-0.9,3.5
		c-0.1,1-0.5,2.3-0.7,2.9c-0.3,0.6-0.4,1.1-0.3,1.1c0.1,0,0,0.2-0.2,0.5s-0.3,0.5-0.2,0.5s0.1,0.2-0.1,0.4c-0.2,0.2-0.3,0.8-0.2,1.2
		c0.1,0.5,0,0.7-0.3,0.7c-0.4,0-0.5,0.3-0.5,1c0,0.6-0.3,1.6-0.7,2.3c-0.4,0.7-0.7,1.6-0.7,1.9s-0.3,1.5-0.6,2.5
		c-0.4,1.1-0.7,3.3-0.8,5.3c-0.1,1.9-0.3,4.6-0.5,6s-0.4,3.6-0.5,4.8c-0.1,1.3-0.4,2.5-0.5,2.7c-0.2,0.2-0.3,1.2-0.4,2.1
		c0,0.9-0.1,1.7-0.2,1.7c-0.1,0-0.2,0.5-0.3,1.1c0,0.6-0.3,2.7-0.6,4.8c-0.3,2-0.6,4.3-0.7,5.1c-0.1,0.8-0.3,1.4-0.5,1.4
		s-0.2,0.1-0.1,0.3c0.1,0.2,0,0.3-0.2,0.3s-0.3,0.2-0.2,0.3c0.1,0.2,0,0.3-0.2,0.3s-0.3,0.1-0.2,0.3s0,0.3-0.2,0.3s-0.3,0.1-0.2,0.3
		s0.1,0.3-0.1,0.3c-0.3,0-1.1,2.5-1,3.2c0.1,0.4,0.1,0.4,1.2,0c0.5-0.2,0.6-0.2,0.3,0.2c-0.2,0.2-0.9,0.4-1.4,0.4
		c-1.1,0-1.3,0.5-0.7,2.1c0.2,0.5,0.2,1.1,0,1.4c-0.3,0.6-1.2,3.5-1.6,5.2c-0.3,1.4-3.8,9.5-4.5,10.6c-0.3,0.5-0.6,1-0.6,1.1
		c0,0.7-3.8,8.4-5.6,11.3c-0.8,1.2-1.4,2.4-1.4,2.5s-0.2,0.5-0.5,0.7c-0.5,0.5-1.5,2.2-2.7,4.5c-0.4,0.7-1.9,2.9-3.4,4.9
		c-1.5,1.9-3,3.9-3.3,4.4s-0.7,0.8-0.9,0.7c-0.2-0.1-0.4,0-0.5,0.3s-0.3,0.4-0.5,0.3c-0.2-0.1-0.3,0-0.3,0.3c0,0.7-1,1.9-1.6,1.9
		c-0.2,0-0.4,0.3-0.4,0.6s-0.3,0.7-0.6,0.8c-0.3,0.1-0.9,0.7-1.2,1.4c-0.3,0.7-1.1,1.7-1.7,2.2c-1.9,1.6-7.8,8.6-7.8,9.1
		c0,0.3-0.2,0.5-0.3,0.5c-0.2,0-0.3,0.2-0.3,0.5s-0.1,0.5-0.3,0.5c-0.1,0-0.9,0.5-1.6,1.1c-1.1,1-1.4,1.1-1.8,0.7
		c-0.8-0.7-4-1.2-4.6-0.7c-0.3,0.2-0.9,0.5-1.3,0.6c-0.5,0.1-1,0.4-1.2,0.8c-0.2,0.4-0.5,0.9-0.7,1.2c-0.6,0.8-0.6,1.9,0,2.6
		c0.6,0.7,0.6,0.7,0,1.5c-0.7,0.7-2.8,4.3-2.8,4.7c0,0.1,0.4,0.2,0.8,0.2s0.9,0.1,1,0.3s0.6,0.2,1.2-0.2c1.4-0.7,3.9-1.1,3.5-0.5
		c-0.2,0.3-0.3,0.6-0.3,0.8s-0.5,1-1.1,1.8s-1,1.6-1,1.7c0,0.3,2.6,4,3,4.3c0.7,0.5,0.7,2.1,0,2.5c-0.4,0.3-0.7,0.7-0.7,1
		c0,1.4-2.7,0.5-3.4-1.1c-0.5-1.2-1-1.4-1.9-0.4c-0.4,0.4-0.7,0.5-0.8,0.3c-0.1-0.2-2.3,0.4-5.1,1.4c-2.8,0.9-5.2,1.7-5.5,1.7
		c-1.1,0-1.6,2.4-0.9,4.8c0.5,1.7-0.3,3.3-2,3.9c-0.8,0.3-1.3,0.8-1.6,1.5l-0.4,1.1l-2.1-0.2c-1.7-0.1-2.3,0-3,0.4
		c-0.5,0.3-1.6,0.6-2.6,0.8S58,273,58,273.1c0,0.2-0.1,0.2-0.2,0.1c-0.3-0.3-2.2,0.8-1.9,1.2c0.1,0.2,0.1,0.3-0.1,0.1
		c-0.6-0.3-1.4,1.9-1.4,3.8c0,2.2,1.2,4.5,2.3,4.7c0.7,0.1,0.8,0.3,0.8,1.4c0,1.4-0.7,2.7-1.1,2c-0.2-0.6-0.8-0.5-0.8,0.1
		c0,0.3-0.3,0.9-0.8,1.3c-1.6,1.6-1.7,1.8-1.1,2.3c2.1,1.5-3.5,5.2-5.6,3.7c-1.1-0.8-5.6-0.8-5.6,0c0,0.3-0.2,0.5-0.6,0.4
		c-0.3-0.1-1.4,0.5-2.4,1.1s-2.2,1.4-2.7,1.6s-1.5,0.9-2.3,1.5s-1.6,1.2-1.8,1.2c-0.7,0-1.8,1.8-1.8,2.9c0,1.3,0.6,2.9,1.1,2.7
		c0.2-0.1,0.6,0.2,1,0.6c0.3,0.4,0.9,0.9,1.3,1s0.7,0.4,0.7,0.7s0.3,0.5,0.7,0.6c0.7,0.1,1.1,0.6,2.2,3.3c0.7,1.5,1.8,2.9,2.7,3.1
		c0.7,0.2,2,1.6,2,2.1c0,0.6,3.2,0.7,3.4,0.1c0.1-0.3,0.2-0.3,0.7,0c0.9,0.7,2.9,0.4,3.4-0.5c0.9-2,7.2,1.5,7.2,4
		c0,0.4,0.3,0.9,0.6,1.1c0.7,0.5,2.2,0.6,1.9,0.1c-0.3-0.4-0.1-0.4,1.1,0.1s2.4,1.7,2.4,2.2c0,0.2,0.1,0.3,0.3,0.2
		c0.2-0.1,0.8,0.2,1.4,0.6c1.1,0.8,2.8,1.1,3.2,0.5c0.1-0.2,0.6-0.3,1-0.3s1-0.2,1.2-0.5c0.3-0.4,0.7-0.5,1.5-0.3
		c2.3,0.5,2.3,0.4,2.8-1.2c0.2-0.9,0.6-1.6,0.8-1.6c0.2,0,0.3-0.3,0.3-0.7c0-0.4,0.2-0.7,0.3-0.7c0.2,0,0.3-0.9,0.3-2
		c0-1.8,0.1-2,0.6-1.7c0.4,0.2,0.9,0.2,1.5-0.2c0.5-0.3,0.9-0.4,0.9-0.2c0,0.1,0.4-0.1,0.8-0.5l0.8-0.8l0.8,0.8
		c0.5,0.4,0.8,1,0.8,1.2c0,0.7,0.8,1.4,1.6,1.4c0.4,0,0.9,0.3,1.2,0.7c0.3,0.4,1,0.7,1.4,0.7c0.7,0,0.8,0.1,0.7,1.1
		c-0.1,1,0,1.1,1.1,1.4c0.6,0.2,2.1,0.8,3.2,1.3s2.4,1,2.8,1s0.9,0.2,0.9,0.5c0.2,0.6,1.6,0.5,4-0.5c1.5-0.6,2.2-0.8,2.3-0.5
		c0.1,0.2,0.5,0.4,0.8,0.4c1.2,0,2.2,1,2.5,2.7s-0.1,1.6,5.5,1.1c3-0.2,3.5,0.1,3.6,2.1c0,1.1,0.8,1.6,1.1,0.7
		c0.1-0.3,0.3-0.3,0.6,0c0.7,0.5,4.5,0.6,4.8,0.1c0.1-0.2,0.7-0.6,1.4-0.9c1.5-0.6,1.5-1.6-0.2-3.8c-2.4-3.2-3.1-5.3-1.8-5.3
		c0.8,0,0.6-2.8-0.2-3.4c-0.7-0.4-0.7-0.5,0.4-1c2.5-1.3,4.3-2,5-2c0.4,0,1-0.3,1.4-0.6c0.6-0.6,5.6-1.5,6.5-1.2
		c0.5,0.2,0.4,1.2-0.4,2.9c-0.4,1-0.5,1.8-0.3,3.1c0.4,3,0.5,3.1,3.3,1.9c1.5-0.7,4.9-0.4,6.6,0.5c0.8,0.4,1.7,0.4,2.7-0.1
		s1-0.6,0.6-2.1c-0.3-1-0.3-1,1.2-1.4c1.1-0.3,1.5-0.6,1.5-1s0.2-0.8,0.5-1.1c0.3-0.2,1.9-1.8,3.5-3.4c2.6-2.6,3-2.9,3.2-2.2
		c0.1,0.4,0.5,0.7,0.9,0.7c1.4,0,2.9,0.8,2.9,1.5s0.8,1.3,1.3,1c0.6-0.3-0.1,3-0.7,3.7c-0.6,0.7-0.7,0.9-0.1,3.6
		c0.2,1,0.2,1-0.6,0.4c-0.5-0.3-1.2-0.5-1.5-0.5s-0.6-0.1-0.5-0.3c0.3-0.5-0.9-0.4-2,0.1c-0.7,0.3-0.8,0.6-0.8,1.5
		c0,1.1,0.9,2.1,1.5,1.6c0.1-0.1,0.2,0,0.2,0.2c0,0.3,0.4,0.4,1.8,0.2c4.3-0.6,4.6-0.6,4.6-0.2c0,0.2,0.4,0.4,0.8,0.4
		s0.8-0.1,0.8-0.3c0-0.7,2.2-0.3,2.9,0.4c0.4,0.4,0.6,0.9,0.5,1s0,0.2,0.2,0.2s0.3,0.1,0.2,0.3c-0.3,0.5,0.1,1.3,0.7,1.3
		c0.3,0,0.5-0.1,0.5-0.3c0-0.2,0.2-0.3,0.5-0.3s1.2-1.1,2.1-2.4c1.2-1.8,2-2.6,3.3-3.3c0.9-0.5,1.8-1.1,1.9-1.4
		c0.1-0.2,0.4-0.9,0.7-1.5c0.4-0.8,0.4-1.1,0.1-1.4c-0.8-0.7,0.6-3,1.8-3.1c0.2,0,0.4,0.1,0.4,0.2c-0.2,0.9,0.5,1.4,2,1.4h1.6l1.1,3
		l1.1,3l-1.4,2.8l-1.4,2.8l1.1,1.3c2.1,2.3,2.6,3,3.1,4c0.3,0.5,0.7,1.2,1,1.4c0.4,0.4,0.5,1,0.5,2.8c-0.1,2.5,0,2.6,2,3.1
		c0.8,0.2,1.3,0.1,1.7-0.3c1.7-1.5,3.7-1.3,6.2,0.8c0.2,0.1,0,1.4-0.3,2.7c-0.7,3.1-0.6,3.7,1,3.5c0.7-0.1,1.3-0.2,1.4-0.3
		s1,0,2.1,0.3c3.5,0.8,6.1,0.3,6.1-1.2c0-0.3,1.3-0.3,2.3,0.1c0.3,0.1,1.4,0.4,2.5,0.8l2,0.6l1.2-1.3c0.7-0.7,1.7-1.5,2.4-1.7
		s1.6-0.8,2-1.4c1-1.2,3-0.9,3.3,0.5c0.1,0.4,1,1.3,1.9,2l1.7,1.2l-0.1,2.1c-0.2,4,0.1,4.7,2.3,5.4c1,0.3,2.7,0.9,3.6,1.4
		c1,0.4,1.9,0.8,2.1,0.8c0.3,0,0.9,0.9,1,1.5s1.1,1.6,1.3,1.2c0.1-0.2,0.4-0.3,0.7-0.1c0.7,0.5,5.8,0.4,6.2-0.1
		c0.3-0.3,0.5-0.3,0.9,0c0.3,0.2,0.5,0.3,0.5,0.2c0-0.1,0.4,0,1,0.2c1.1,0.4,1.2,0.8,0.5,1.5s-0.6,1.1,0,1.1c0.4,0,0.5,0.2,0.4,1
		c-0.1,0.9,0,1,0.6,1c0.4,0,0.7-0.1,0.6-0.3c-0.1-0.2,0.2-0.3,0.6-0.3c0.5,0,0.9-0.1,0.9-0.3c0-0.2,0.3-0.3,0.7-0.3
		c0.4,0,0.7-0.2,0.7-0.5c0-0.8,1.1-0.4,1.3,0.5c0.1,0.5,0.6,1,1.1,1.3c0.9,0.4,0.9,0.5,0.2,0.9c-0.4,0.3-0.7,0.7-0.7,0.9
		c0,0.2-0.4,0.6-0.9,0.8c-2.4,1-3,3.3-0.9,3.7c0.5,0.1,0.9,0.2,0.9,0.3c-0.3,1.1-0.7,1.7-0.9,1.4c-0.1-0.2-0.7-0.4-1.2-0.4
		c-1.1,0-1.7,1.8-0.7,2.3c0.3,0.2,0.4,0.3,0.2,0.3c-0.5,0-0.8,1.2-0.4,1.6c0.6,0.6-0.2,1.2-1,0.8c-1.1-0.6-2.1,0.9-1.7,2.6
		c0,0.2-0.2,0.8-0.4,1.2c-0.7,1-0.6,1.5,0.2,1.7c0.6,0.1,0.7,0.3,0.5,1c-0.1,0.4-0.2,1.2-0.2,1.8c0,0.7-0.3,1.4-0.9,2.1
		c-1.8,2-2.2,2.5-2.8,3.6c-0.9,1.7-0.8,2.4,0.4,2.4c0.5,0,1-0.1,1-0.3c0-0.2,0.3-0.3,0.7-0.3s0.7,0.2,0.7,0.5s-0.3,0.6-0.7,0.7
		s-0.7,0.5-0.7,1.1c0,0.5-0.5,1.4-1,2c-1,1.2-1.3,2-0.6,2c0.9,0-0.2,0.5-1.5,0.6c-1.3,0.2-1.4,0.3-1.5,1.3c-0.1,1.2-1.2,2.5-3.2,3.6
		c-1.5,0.9-1.8,1.5-1.8,4.2c0,1.9,0.7,4,1.4,4c0.2,0,0.3,0.1,0.1,0.2c-0.4,0.4,0.5,1.1,1.3,1.1c0.5,0,0.7,0.1,0.6,0.3
		c-0.1,0.2,0.2,0.3,0.8,0.3c1.2,0,1.5,0.4,1,1.3c-0.3,0.5-0.3,0.9,0,2c0.4,1.2,0.3,1.5-0.4,2.9c-1.1,2.1-0.5,2.8,1.6,1.8
		c0.7-0.3,1-0.3,1.6,0c1.1,0.6,2,0.3,2.1-0.5c0.1-0.4,0.5-1.1,0.9-1.6s0.8-1.1,0.8-1.2s0.3-0.3,0.7-0.3c0.5,0,0.7,0.2,0.5,0.7
		c-0.1,0.4,0,0.7,0.1,0.7s0.2,0.1,0.1,0.3s0,0.3,0.2,0.3s0.3,0.1,0.2,0.3c-0.3,0.5,0.3,0.4,0.8-0.1c0.2-0.2,0.4-0.3,0.4-0.1
		c0,1.3,2.6,2.2,3.9,1.3c0.3-0.2,0.4-0.1,0.4,0.2c0,1,0.8,1,1.6,0c1.2-1.4,2.9-1.8,2.6-0.7c-0.3,1,1.2,1.9,2,1.2
		c0.4-0.3,0.5-0.3,0.8,0c0.2,0.4,0.5,0.3,1.5-0.3c1.5-0.9,2.7-0.9,4.4,0c1.2,0.6,1.5,0.7,2.2,0.4c0.4-0.2,1.1-0.4,1.4-0.5
		c1.4-0.2,1.6-3.1,0.3-4.1c-0.6-0.5-1.2-0.8-1.4-0.8c-0.7,0.1-1.2-0.1-1-0.5c0.1-0.3-0.2-0.6-0.6-0.8c-0.8-0.4-1.1-1.2-0.5-1.5
		c0.2-0.1,0.7,0,1.1,0.3c1.1,0.8,1.5,0.6,2.2-0.8c0.4-0.7,0.8-1.4,1-1.4c0.2-0.1,0-0.8-0.4-1.6c-0.8-1.7-0.6-2.4,1.1-2.8
		c0.6-0.2,1.4-0.5,1.6-0.7c0.3-0.3,0.4-0.3,0.3,0c-0.1,0.2,0.1,0.5,0.5,0.6c1.3,0.3,1.5,0.2,1.3-0.8c-0.1-0.6,0-1,0.2-1
		c0.7,0,1.5-2.2,1.1-2.9c-0.2-0.4-0.5-0.7-0.7-0.7c-0.6,0-0.7-1.7-0.2-2.4c0.3-0.3,0.5-0.6,0.3-0.6c-0.1,0,0-0.2,0.3-0.5
		c1.2-1.2,0.2-2.3-1.8-2.2c-1.1,0.1-1.3,0-1.4-0.7c-0.1-0.6-0.3-0.8-1.2-0.8c-0.6,0-1.1-0.1-1.1-0.2s-0.2-0.3-0.5-0.3
		s-0.5-0.3-0.5-1c0-0.5-0.2-1.2-0.5-1.5c-0.4-0.4-0.4-0.5-0.1-0.7c0.5-0.2,1.3-3.5,1-3.9c-0.3-0.5-4.1-0.4-5,0.2
		c-0.7,0.5-0.8,0.5-1-0.1c-0.4-1.2-3.9-0.6-5.1,0.9c-0.3,0.4-0.5,0.4-0.8,0.2c-0.3-0.3-0.2-0.5,0.3-1c0.9-0.8,0.9-2.8,0-3.1
		c-0.4-0.1-0.7-0.4-0.7-0.6s-0.3-0.7-0.7-1c-0.5-0.4-0.7-1-0.7-1.9c0-0.8-0.3-1.8-0.7-2.5l-0.7-1.2l1.3,0.1c1,0.1,1.3,0,1.3-0.4
		c0-0.3,0.2-0.5,0.4-0.4c0.2,0,0.4-0.1,0.4-0.2c0-0.8,1,0.2,2,2c0.8,1.6,1.2,1.9,1.5,1.6s0.5-0.3,0.7,0c0.5,0.9,2.5-1.6,2.5-3.2
		c0-0.5,1-2.6,1.4-2.8c0.2-0.1,0.3-0.3,0.3-0.4c-0.1-0.6,0-0.9,0.3-0.9c0.2,0,1-0.5,1.7-1c0.8-0.6,1.6-1,1.9-1
		c0.6,0,1.6-0.9,2.1-2.1c0.2-0.4,0.7-0.8,1.1-0.8c0.8,0,1.8-0.8,1.6-1.2c-0.4-0.6,0.2-1.6,1-1.6c0.9,0,2.5-0.7,2.5-1.1
		c0-0.1,0.4-0.2,0.8-0.2s0.9-0.1,1-0.3s0.6-0.3,1.1-0.3c0.8,0,2.1-1.7,1.7-2.1c-0.1-0.1-0.7-0.5-1.3-0.9l-1.2-0.8l1.6-0.8
		c1.9-0.9,1.9-1,0.9-1.9c-1.1-1-4.3,0-6,1.9c-0.4,0.5-1,0.7-1.8,0.7c-0.6,0-1.1-0.1-1-0.2s0-0.4-0.3-0.6c-0.9-0.7-0.9-6.2,0-6.2
		c1.1,0,1.1-0.3,0.3-1.9c-0.4-0.8-0.7-1.4-0.6-1.4c0.9,0.1,1.4-0.1,1.4-0.6c0-0.3,0.8-1.3,1.7-2.2s1.7-1.8,1.7-2.1
		c0-0.2,0.3-0.8,0.7-1.2c0.7-0.8,2.6-4.4,2.6-5.1c0-1.2,0.9-2.2,1.9-2.2c0.7,0,1-0.1,0.9-0.4c-0.1-0.2,0.6-1.1,1.6-2.1l1.9-1.7
		l-0.5-1.6c-0.3-0.9-0.7-1.8-0.9-2.1c-0.3-0.3-0.2-0.6,0.4-1.1c0.8-0.7,0.7-1.4-0.4-1.4c-0.6,0-0.9-0.6-0.6-1.5
		c0.2-0.7,0.4-2.4,0.3-3.3c0-0.5,0.2-1.1,0.5-1.4c0.4-0.3,0.5-0.5,0.2-1.1c-0.2-0.5-0.3-0.8,0-0.9c0.6-0.4,0.4-2.5-0.4-3.9
		c-0.5-1-0.6-1.5-0.4-2.1c0.2-0.5,0.2-0.8-0.1-1.1c-0.3-0.2-0.5-1-0.5-1.7c0-1.4-1-2.7-2-2.7c-0.8,0-1.1-0.5-1.8-2.8
		c-0.5-1.6-0.9-2.1-1.9-2.8c-0.7-0.5-1.6-1.5-2-2.2c-0.4-0.9-1.1-1.5-1.9-1.9c-1.4-0.7-1.9-2.6-0.8-3c0.3-0.1,0.5-0.5,0.5-0.8
		c0-0.4,0.3-1.3,0.6-2.1c0.8-1.8,0.4-2.7-1.3-3.1c-0.6-0.1-1-0.4-1-0.6s-0.3-0.3-0.8-0.2c-2.4,0.3-5.3-1.9-4.2-3.2
		c0.3-0.4,0.3-0.6,0-0.9c-0.7-0.7-0.5-1.9,0.3-1.9c0.4,0,0.7-0.2,0.7-0.7c0-0.4-0.1-0.7-0.3-0.7s-0.3-0.3-0.3-0.7
		c0-0.4-0.2-0.7-0.4-0.7c-0.2,0-0.9-0.4-1.5-0.9s-1.1-0.7-1.1-0.6c0,0.2-0.1,0.1-0.3-0.2c-0.2-0.3-0.9-0.5-2.3-0.4
		c-2.6,0.1-2.9-1-0.4-1.9c1.6-0.7,2.4-2.4,1.3-3.1c-0.3-0.2-0.2-0.4,0.1-0.7c0.5-0.6,0.2-1.2-0.5-1.2c-0.3,0-0.5-0.3-0.5-0.9
		c0-1-1.3-2.7-2.1-2.8c-0.3,0-0.2-0.2,0.2-0.5c0.6-0.5,0.6-0.5,0.1-0.8c-1.1-0.6-0.2-1.4,1.6-1.3c1.7,0.1,3.3-0.4,4.3-1.4
		c0.5-0.5,0.7-0.6,0.9-0.2c0.2,0.4,0.4,0.3,0.8-0.3c0.3-0.4,0.8-0.8,1.2-0.8c0.5,0,0.6-0.2,0.5-0.8c-0.3-1.2,0.4-1.4,1.3-0.4
		c0.7,0.9,2.8,1.5,7,2l1.6,0.2v-1.8c0-1-0.1-1.8-0.3-1.8c-0.6,0-1.6-1.2-2.3-2.7l-0.7-1.6l0.9-0.5c1-0.5,1.8-0.4,3.6,0.5
		c0.9,0.5,1.1,0.6,0.5,0.6c-1.2,0-1.2,0.5,0.1,1.6c0.6,0.6,1.1,1.1,0.9,1.2c-0.2,0.2,0.7,0.3,1.3,0.2c0.1,0,0.2,0.1,0.2,0.3
		c0,0.3,1.9,0,2.6-0.4c0.2-0.1,0.4-0.1,0.4,0.1c0,0.5,1.4,0.5,1.9,0c0.4-0.4,2.8,0.5,2.7,0.9c-0.2,1.1,0.5,2.5,1.2,2.2
		c1.6-0.5,2.3-0.6,3-0.2c0.4,0.2,1,0.4,1.3,0.5s0.6,0.5,0.6,1c0,0.7,0.2,0.8,1.2,1c0.7,0.1,1.7,0.3,2.3,0.4c1.2,0.2,1.5-0.5,0.7-1.9
		c-0.3-0.5-0.2-0.8,0-1.1c0.4-0.5-0.6-1.8-1.4-1.8c-0.2,0-0.3-0.4-0.3-0.8c0-1,1.8-0.6,2.6,0.6c0.4,0.5,0.7,0.6,1.6,0.5
		c0.7-0.1,1.2,0,1.4,0.2c0.6,0.9,1.8,1.3,2.4,0.8c0.3-0.3,1-0.6,1.5-0.7c0.5-0.1,0.9-0.5,0.9-0.7c0-0.6,1.3-1.8,2-1.8
		c0.3,0,0.9-0.3,1.3-0.7s1.1-0.7,1.5-0.7s0.9-0.1,0.9-0.2c0.1-0.2,1.1-0.8,3.7-1.9c0.7-0.3,1.6-0.5,2-0.5c0.5,0,0.9-0.2,1-0.5
		c0.7-1.9,4.1-2,5.7-0.2c1.4,1.5,1.9,1.7,2.8,0.8c0.3-0.3,1-0.8,1.6-1.1c0.5-0.3,1-0.8,1.1-1.1s0.4-0.6,0.7-0.6c1,0,2.7-3.2,2.7-5
		v-1.5l1.4-0.2c1.5-0.2,2.4-1.4,1.7-2.2c-0.2-0.2-0.4-0.9-0.4-1.5c0-0.8-0.2-1.2-0.8-1.4c-0.4-0.2-1-0.5-1.2-0.8s-0.6-0.4-0.7-0.3
		c-0.2,0.1-0.4,0-0.5-0.3s-0.3-0.4-0.5-0.3c-0.2,0.1-0.3,0.1-0.3-0.1c0-0.2-0.5-0.6-1-0.9c-0.6-0.3-1.2-1-1.3-1.4
		c-0.4-1-3.5-2.5-5.3-2.5c-1.3,0-2.1-1.8-1-2.5c0.2-0.1,0.3-0.5,0.3-0.9c0-0.5,0.2-0.6,0.8-0.6c1.4,0,4.1-1.7,4-2.6
		c-0.1-0.4,0.1-1.1,0.4-1.5s0.6-1.3,0.7-1.9l0.2-1.1h3.7h3.7l1.1-1.2c0.6-0.6,1.2-1.4,1.2-1.6c0.1-2.4,1.6-5.2,2.8-5.2
		c0.2,0,0.4-0.3,0.5-0.6c0.2-0.7,1.1-1,2.9-1c1.3,0,1.6-0.2,1.8-1.4c0.1-0.4,0.4-1,0.7-1.3c0.3-0.3,0.4-0.6,0.3-0.6
		s-0.1-0.2,0.2-0.5c0.2-0.3,0.4-0.9,0.3-1.4c-0.2-1.5,0.7-2,3.1-1.8c4.2,0.3,5.4-1.3,3.2-4.2c-0.8-1-1.3-2-1.3-2.5s-0.1-0.8-0.3-0.8
		c-0.8,0-0.1-3.9,1-5.2c0.3-0.4,0.8-1.3,1-2.2c0.2-0.8,0.7-2,1.1-2.5c0.9-1.5,0.8-5-0.1-6.8c-0.4-0.7-0.7-1.6-0.7-2
		c0-0.6-0.2-0.7-1.1-0.6c-1.1,0.1-1.2,0-2-1.5c-0.5-0.9-1.2-2.2-1.5-2.8c-0.4-0.6-0.6-1.6-0.6-2.1s-0.1-0.9-0.3-0.9
		c-0.2,0-0.4-0.4-0.4-0.9c-0.3-2.1-2.1-1.8-2.9,0.5c-0.9,2.4-2,3.2-3.8,2.8c-3.5-0.8-6-1.8-5.9-2.4c0.1-0.5-0.3-0.6-4.2-0.6
		c-4.7,0-5-0.1-8.8-2.7c-0.6-0.4-1.1-0.8-1.2-0.8c0,0,0.1-1.2,0.3-2.6c0.3-2.5,0.3-2.6-0.4-3.8c-1.5-2.3-1.7-3.1-0.7-2.7
		c1.4,0.5,1.8,0.4,2.3-0.9c0.5-1.3,0.6-1.3,2.7-0.6c1.1,0.4,1.4-0.8,0.4-1.6c-0.4-0.4-1.4-1.2-2.1-1.8l-1.3-1.1l0.4-2.3
		c0.4-2.1,0.4-2.4-0.2-3c-0.6-0.7-0.6-0.7,0.1-0.9c0.4-0.1,1-0.6,1.2-1.2c0.4-0.7,0.7-1,1.5-1c0.5,0,1.1-0.1,1.2-0.3
		c0.3-0.5,3.3-0.4,3.8,0.1c0.3,0.3,0.5,0.3,1.1,0c0.4-0.2,1.4-0.4,2.3-0.4s1.8-0.2,2-0.4c0.3-0.3,0.4-0.3,0.4,0
		c0,0.2,0.5,0.4,1.1,0.4c1.7,0,2.6,0.4,2.4,0.9c-0.2,0.6,5.1,0.7,5.7,0.1c0.3-0.3,0.5-0.3,0.9,0c0.3,0.2,0.6,0.4,0.8,0.3
		c0.2-0.1,1.1,0.1,2.2,0.4c3.7,0.9,3.7,0.8,4.2-17.8l0.2-9l1-1.6c0.8-1.4,0.9-1.8,0.6-2.6c-0.4-1,0-2.2,1.3-3.6
		c0.3-0.3,0.9-1.4,1.5-2.5c0.5-1.1,1.1-2,1.2-2.1c0.7-0.7,4-6.4,4.2-7.3c0.1-0.3,0.4-1.8,0.8-3.3s0.7-3,0.7-3.3s0.2-1,0.5-1.5
		c0.7-1.3,0.6-2.2-0.2-5.2c-0.5-1.9-0.7-3.6-0.7-7.1c0-4.7-0.3-5.9-1.7-5.9c-0.4,0-0.4-2.6,0.1-2.8c0.2-0.1,0.3-0.7,0.3-1.3
		c0-2.1,1.1-3.8,2.4-3.8c0.7,0,0.8-0.5,0-1c-0.4-0.2-0.6-0.9-0.6-3.1c0-2.5-0.3-4.6-0.7-6c-0.1-0.4-0.3-0.4-0.8,0.2l-0.6,0.7
		l-1.3-0.7c-0.7-0.4-1.7-0.7-2.2-0.7s-1-0.2-1.1-0.3c-0.1-0.2-0.9-0.3-1.7-0.3c-2.4,0-5.3-3.4-3.4-4.1c0.3-0.1,0.3-0.3,0-1
		c-0.4-0.8-0.3-1,0.3-1.6c1.5-1.5,0.6-3-1.1-1.7c-1.2,0.9-4.6,0.9-5.6,0c-0.4-0.4-0.9-0.7-1.2-0.7c-0.3,0-1.1-0.3-1.8-0.7
		s-1.5-0.6-1.7-0.5c-0.5,0.3-1.7-0.2-1.7-0.8c0-0.3-0.3-0.7-0.6-0.9c-3.1-1.6-3.7-2.2-3.7-4.2c0-1-0.2-2-0.3-2.1
		c-0.2-0.1-0.3-0.9-0.3-1.8c0-2-0.2-2.7-0.9-2.7c-0.4,0-0.5-0.3-0.3-1.2c0.1-0.7,0.3-1.8,0.4-2.4c0.2-1,0-1.3-1.2-2.5
		c-1.3-1.2-1.6-1.4-3.9-1.6c-0.2,0-0.4-0.2-0.4-0.3c0-0.6-1.3-0.2-1.8,0.5c-0.3,0.4-0.5,0.6-0.5,0.4c0-0.4-1.9-1.1-3.1-1.1
		c-0.5,0-1-0.1-1.1-0.3C333.5,15.9,333.2,15.9,332.5,16.3 M271.1,18.2c-0.4,0.4-0.2,2.4,0.2,2.5c0.9,0.3,1.6-0.4,1.6-1.6
		C272.9,18,271.8,17.5,271.1,18.2 M224.4,19.6c-0.4,0.2-1.1,0.3-1.6,0.3c-0.9,0-4.3,1-5.7,1.7c-0.4,0.2-1.5,0.6-2.5,1
		s-3.3,1.2-5.1,1.8c-1.8,0.7-3.8,1.2-4.6,1.2c-0.7,0-1.4,0.1-1.5,0.3c-0.1,0.2-0.4,0.2-0.7,0.1c-0.2-0.1-1.1,0-1.9,0.2
		c-0.8,0.2-1.8,0.4-2.1,0.5c-2,0.3-4.8,2.3-4.5,3.2c0,0.1-0.2,0.3-0.4,0.5c-0.3,0.1-0.5,0.3-0.5,0.5s-0.4,0.8-0.8,1.4
		c-1,1.3-1,1.6,0,2.7c1,1.1,2.9,1.2,3.6,0.2c0.2-0.3,0.7-0.7,1.1-0.8c0.4-0.1,0.7-0.3,0.7-0.5c0-0.6,0.5-0.9,1.5-0.9
		c0.5,0,1.3-0.3,1.6-0.6c0.7-0.6,2.7-0.9,2.7-0.4c0,0.5,0.9,0.3,1.6-0.4c0.4-0.4,1.1-0.6,1.7-0.5c0.6,0,1-0.1,1.2-0.4
		c0.1-0.3,0.5-0.5,0.8-0.5s1.1-0.5,1.8-1.2c1.7-1.7,2.9-2.1,6.5-2.1c3.2,0,5.2-0.6,3.8-1.2c-0.7-0.3-0.5-0.8,0.4-0.8
		c0.3,0,0.8-0.3,1.1-0.7c0.4-0.5,1-0.7,1.9-0.7c1.1,0,1.5-0.2,2.3-1c0.9-0.9,0.9-1,0.9-0.3c0,0.4,0.2,0.8,0.4,0.9
		c0.7,0.2,0.5-2.1-0.2-2.6C226.1,19.4,225.4,19.2,224.4,19.6 M182.6,41.5c-0.8,0.5-1.6,0.8-1.9,0.8c-0.7,0-5.4,3.2-7.4,5
		c-1,0.9-2,1.7-2.2,1.7s-0.9,0.5-1.5,1.1s-2,1.5-3.2,2.1l-2,1l0.1,1.7c0.1,1.6,0.2,1.7,1.1,1.8c0.8,0.1,0.9,0,0.6-0.4
		c-0.6-0.7-0.2-0.9,2.2-0.9c2.3,0,3.9-0.6,4.3-1.7c0.1-0.4,0.3-0.6,0.4-0.6c0.5,0.2,3.1-2,3.7-3.2c0.9-1.6,0.9-1.7,0-1.5
		c-0.4,0.1-0.7,0-0.7-0.2c0-0.5,0.6-1.5,0.7-1.1c0,0.2,0.3,0.1,0.6-0.2s0.6-0.4,0.7-0.4c0.1,0,0.2,0.1,0.3,0c0.1,0,0.3-0.1,0.4-0.1
		c1.9-0.4,4.6-1.8,4.9-2.3c0.1-0.3,0.6-0.5,1.4-0.5c1.1,0,2.5-0.9,2.5-1.6c0-0.3-2.4-1.4-3.1-1.4C184.2,40.6,183.4,41,182.6,41.5
		 M188.7,42.9c-1,1.1-1,2.3,0.1,1.8c0.3-0.1,1-0.3,1.4-0.4c1-0.2,2.7-1.7,2.5-2.1C192.2,41.5,189.7,42,188.7,42.9 M199.3,49.5
		c0.1,0.3,0.2,0.6,0.2,0.7c0,0.4,2.3,0.1,2.5-0.4c0.3-0.8,0.3-0.8-1.3-0.8C199.4,49,199.2,49.1,199.3,49.5 M163.9,59.7
		c0,0.2-0.2,0.6-0.5,0.9c-0.3,0.3-0.5,0.4-0.5,0.3c0-0.7-1.2,1-2.2,2.9c-0.6,1.2-1.5,2.6-2,3c-0.5,0.4-1.3,1.6-1.9,2.7
		c-0.5,1.1-1.3,2.4-1.8,2.9c-0.7,0.8-1.4,2.4-1.7,3.9c-0.1,0.3-0.1,0.6-0.2,0.6c0,0-0.1,0.2-0.1,0.3c0,0.1-0.2,0.5-0.3,0.8
		s-0.3,0.8-0.3,1s-0.3,1.1-0.5,1.9c-0.4,1.4-0.3,4.2,0.2,6.9c0.2,1.2,0.4,1.1-4.4,1.7l-1.8,0.2v1.2c0,0.8,0.2,1.4,0.6,1.8
		c0.8,0.7,0.8,0.7,2.1-0.4c0.6-0.5,1.6-1.2,2.4-1.6c0.7-0.3,1.3-0.7,1.3-0.9c0-0.2,0.2-0.3,0.5-0.3s1-0.3,1.6-0.7
		c0.6-0.4,1.4-0.7,1.8-0.7c0.4,0,0.8-0.2,0.8-0.3c0-0.2,0.3-0.3,0.7-0.3s0.7-0.1,0.7-0.3c0-0.2,0.3-0.4,0.8-0.4
		c0.5-0.1,0.8-0.4,0.9-0.9c0.2-1.5,1.7-3,2.9-3c1.1,0,3.2-1.7,3.2-2.6c0-0.2,0.4-0.8,0.8-1.3c0.5-0.5,0.8-1.2,0.8-1.7s0.2-0.8,0.7-1
		c1-0.3,1.3-1.6,1.3-5.1c0-1.7,0.2-3.5,0.4-3.8c0.4-0.7-0.7-3-1.8-3.9c-0.3-0.2-0.4-0.6-0.3-0.9c0.2-0.5-0.4-1.7-1.3-2.8
		C165.7,59.3,163.9,59,163.9,59.7 M212.4,75c0.5,0.9,0.5,1,0,1c-1,0-1.8-0.8-1.5-1.4C211.4,73.7,211.8,73.8,212.4,75 M210.9,77.4
		c0.4,0.8,0.7,1.8,0.7,2.3c0,0.7,0.2,0.9,0.7,0.9c0.6,0,0.7,0.2,0.7,1.3c0,1,0.1,1.4,0.7,1.5c0.7,0.2,1,2.3,0.3,2.7
		c-0.4,0.2-0.4,2.4,0,3c0.1,0.2,0.2,0.8,0.3,1.3c0.1,0.6,0.3,1.2,0.4,1.4c0.2,0.3,0.2,0.4,0,0.4s-0.4,0.4-0.4,1s-0.3,1.3-0.7,1.7
		c-0.7,0.7-0.7,0.7,0,1.8c1,1.8,0.8,3.6-0.5,3.9c-1.7,0.4-3.7,2.8-3.2,3.7c0.2,0.4,0.4,1,0.3,1.2c-0.1,0.3,0.2,0.5,0.6,0.6
		c0.4,0.1,0.8,0.3,0.8,0.4c0,0.2,0.2,0.3,0.4,0.3s0.9,0.6,1.5,1.3c1.1,1.3,5.4,2.1,5.4,1c0-0.2,0.2-0.2,0.6,0
		c0.4,0.2,1.1,0.3,1.6,0.3c0.6,0,1.1,0.2,1.2,0.3c0.3,0.5,2.7,1.7,3.4,1.7c0.4,0,0.7,0.2,0.8,0.5c0.5,1.2,2.7,0.1,4.1-2
		c0.4-0.7,0.7-0.8,1.5-0.7c0.6,0.1,1.3,0,2.1-0.5c1.3-0.8,1.8-0.6,1.8,0.6c0,0.8,0.1,0.8,2.2,0.8c2.3,0,3.1,0.7,1.2,1.1
		c-0.6,0.1-1.3,0.3-1.6,0.3c-0.3,0.1-0.7,0.2-0.8,0.2s-0.2,0.2-0.2,0.4c0,0.2-0.7,1.5-1.5,2.9c-2,3.3-2.2,3.7-3,4.9
		c-1.4,2.2-2.4,17.8-1.1,17.8c0.6,0,2.4,2,2.7,2.9c0.1,0.4,0.4,0.7,0.5,0.7c0.2,0,0.3,0.2,0.3,0.4s0.5,1,1.1,1.7l1.1,1.2h7.9h7.9
		v1.8c0,1.8,0,1.8-0.8,1.6c-0.4-0.1-0.9,0-1,0.2c-0.9,1.4-12.8-1.2-14.8-3.3c-0.7-0.7-0.8-0.7-1.3-0.3s-4.9,1.9-5.7,1.9
		c-0.4,0-2,1.3-3.8,3.1c-0.7,0.7-1.4,1.2-1.6,1.2s-0.6,0.4-1,0.8c-0.5,0.7-1,0.8-2.2,0.8c-2,0-2.6,0.3-2.6,1.1
		c0,0.4-0.4,1.2-0.8,1.7l-0.8,1l0.5-1.9c0.3-1.1,0.8-2,1.1-2.1s1-0.5,1.5-1l1-0.8l-0.8-1.9c-1-2.5-2.3-4.8-2.9-5.3
		c-0.3-0.2-0.5-0.5-0.5-0.6c0-0.3-1.1-2.7-1.4-2.8c-0.1-0.1-0.3-0.3-0.3-0.5c0-0.5-5.6-6.1-5.9-5.8c-0.1,0.1-0.4,0-0.7-0.3
		s-0.6-0.4-0.8-0.3c-0.2,0.1-0.3,0-0.3-0.2s-0.1-0.3-0.3-0.2s-0.4,0-0.4-0.2c-0.1-0.2-0.7-0.4-1.4-0.4c-1.3,0-1.3-0.2-0.3-1.4
		c0.5-0.5,0.4-0.7-0.2-1.4c-0.6-0.6-0.7-1.2-0.7-2.8c0-1.6-0.1-2.1-0.6-2.2c-0.3-0.1-1.1-0.5-1.8-0.9c-0.6-0.4-1.8-0.7-2.6-0.7
		s-1.4-0.2-1.4-0.3c0-1-2.4-0.3-3,0.8c-1.3,2.3-6.1,0.3-5.5-2.2c0.2-0.7,0-0.9-0.7-1.3c-1-0.5-0.9-1.7,0.2-8.7
		c0.2-1.1,0.1-1.7-0.2-2.2c-0.7-1-3.1-5.7-3.1-6.2c0-0.2-0.3-0.7-0.7-1.1c-0.4-0.3-0.6-0.7-0.5-0.9c0.1-0.2,0-0.3-0.2-0.3
		s-0.3-0.2-0.2-0.3c0.1-0.2,0-0.3-0.2-0.3s-0.3-0.2-0.2-0.3c0.1-0.2,0-0.3-0.2-0.3s-0.3-0.1-0.2-0.3c0.1-0.2,0-0.5-0.3-0.7
		c-0.8-0.8,0-2.2,2.1-3.7c0.4-0.3,1.2-1,1.9-1.6s2-1.7,2.9-2.5c0.9-0.7,2.8-2.5,4.2-3.9s2.8-2.6,3-2.6s2-1.6,3.9-3.5
		c2.4-2.4,3.7-3.5,4.3-3.5c0.4,0,1.1-0.2,1.4-0.4c0.5-0.3,0.8-0.2,1.2,0.1c0.3,0.2,0.6,0.3,0.7,0.1c0.2-0.3,1.3-1,1.6-1.1
		C210.1,76,210.5,76.6,210.9,77.4 M203.5,133.7c0,0.2-0.2,0.3-0.4,0.2c-0.2,0-0.4,0.1-0.5,0.3c-0.2,0.6,2.2,0.5,2.7-0.1
		c1.1-1.5,9.5,5.1,9.5,7.5c0,0.3,1.6,3,2,3.3s2.3,4.4,2.3,4.8c0,0.2,0.2,0.5,0.4,0.6s-0.3,0.5-1.1,0.9c-1.5,0.8-2.3,2.6-2.9,6.2
		c-0.2,1.2,0.3,1.5,0.9,0.5c0.3-0.5,0.3-0.4,0.3,0.5s-0.1,1.1-1.1,1.4c-0.7,0.2-1.2,0.6-1.5,1.2c-0.3,0.6-0.7,0.9-1.2,0.9
		c-0.4,0-0.8,0.2-0.8,0.4s-0.3,0.6-0.6,0.8c-2,1.4-3.1,2.1-3.4,2.1c-0.2,0-0.5,0.2-0.7,0.5s-1.5,1.1-2.8,1.9
		c-1.3,0.8-2.5,1.6-2.7,1.9c-0.1,0.2-0.4,0.4-0.6,0.4s-0.9,0.4-1.5,0.8s-1.3,0.8-1.5,0.8s-0.3,0.1-0.2,0.2c0.1,0.1-1,1-2.5,1.9
		s-3.2,2-3.8,2.5c-2.2,1.9-3,2.4-3.5,2.4c-0.7,0-0.6,1.2,0.3,2.1c0.8,0.9,1,3.1,0.3,3.9c-0.3,0.3-0.3,0.5,0.2,0.9
		c0.8,0.6,0.4,0.9-0.9,0.9c-0.8,0-1.1-0.2-1.3-0.7c-0.2-0.7-0.4-0.7-3-0.6c-2.5,0.1-2.8,0.1-2.8-0.5c0-0.7-1.3-1.3-2.1-0.9
		c-0.8,0.4-0.9,0.4-0.9-0.7c0-0.8-0.2-1-1.2-1.4c-1.3-0.5-1.4-0.7-0.6-1.4c0.5-0.5,0.6-0.5,0.9,0c0.5,0.7,1.9,0,1.9-0.9
		c0-0.3,0.3-0.7,0.7-0.9c0.5-0.3,0.6-0.6,0.5-1.1c-0.3-0.9,1.9-3.1,2.8-2.9c0.5,0.1,0.7,0,0.7-0.3s0.3-1,0.8-1.6
		c1.2-1.7,1.3-2.2,0.4-2.2c-0.4,0-0.9-0.2-1-0.4s-0.4-0.3-0.7-0.2s-0.6-0.1-0.7-0.3c-0.2-0.6,0.5-3.1,0.9-3.1s0.4-1.3-0.1-1.5
		c-0.6-0.4-0.4-1.5,0.3-1.5c0.3,0,0.8-0.4,1.1-0.9s0.6-1,0.8-1.2s0.2-0.5-0.1-0.9c-0.2-0.4-0.4-0.8-0.4-1s-0.3-0.6-0.6-0.9
		s-0.8-1.3-1-2.1s-0.6-1.8-0.7-2.1c-0.2-0.3-0.5-0.9-0.6-1.2c-0.2-0.4-0.5-1-0.7-1.3c-0.2-0.4-0.3-1-0.3-1.3c0-0.4-0.1-0.7-0.3-0.7
		s-0.3-0.2-0.3-0.4s-0.1-1-0.3-1.8c-0.5-3-0.5-5.5-0.1-5.5c0.2,0,0.3-0.1,0.2-0.3c-0.4-0.7,1.8-1.2,2.3-0.4c0.6,0.9,1,0.9,1.2,0
		c0.1-0.5,0.5-0.7,1.2-0.7c0.6,0,1.2,0.3,1.6,0.7c0.3,0.4,0.8,0.7,1,0.7s0.7,0.4,1,0.8c0.8,1.3,2.5,1.1,4.1-0.3
		c0.9-0.8,1.6-1.2,2.3-1.2s1-0.2,1-0.5s0.3-0.6,0.7-0.7c0.4-0.1,0.7-0.4,0.7-0.6c0-0.2,0.4-0.5,0.8-0.6c0.5-0.1,0.8-0.4,0.8-0.9
		c0-0.4,0.2-0.7,0.4-0.7s0.3-0.5,0.3-1.3c-0.1-1.6,0.5-2.4,1.8-2.3c0.6,0,1.1-0.1,1.2-0.3C202.9,132.9,203.5,133.1,203.5,133.7
		 M243.2,146.1c0,0.7,1.7,2.5,1.9,2c0.1-0.2,0.4-0.4,0.7-0.4c0.7,0,1-0.9,0.5-1.5C245.7,145.5,243.2,145.4,243.2,146.1 M253.2,150.4
		c0.7,1.4,0.2,1.7-0.8,0.4c-0.8-1.1-0.9-1.2-0.3-1.2C252.5,149.6,252.9,150,253.2,150.4 M253.7,164.7c-0.3,0.6-0.5,1-0.5,0.7
		c0-0.5,0.7-2.1,0.9-2C254.2,163.5,254,164,253.7,164.7 M186.6,166.5c0.1,0.5,0,0.8-0.1,0.8c-0.2,0-0.2,0.1-0.1,0.3
		c0.1,0.2,0,0.4-0.2,0.5c-0.3,0.1-0.3,0.2,0,0.6c0.4,0.4,0.7,0.3,1.8-0.3c0.8-0.4,1.6-0.7,1.8-0.7s0.4-0.3,0.3-0.7
		c-0.1-0.7-0.3-0.8-1.2-0.3c-0.5,0.3-0.7,0.2-1-0.3C187.3,165.3,186.4,165.4,186.6,166.5 M250.6,170.4c-0.5,0.6-1.4,1.7-1.9,2.3
		c-0.6,0.7-1.2,1.2-1.4,1.2s-0.7,0.3-1,0.6s-1.2,0.9-1.8,1.2c-0.7,0.3-1.2,0.7-1.2,0.9c0,0.5-0.9,1.3-1.6,1.3
		c-0.3,0-1.6,0.6-2.8,1.3s-2.4,1.3-2.7,1.3s-0.8,0.3-1.1,0.6c-0.4,0.4-0.8,0.6-1.5,0.4c-0.8-0.2-0.9-0.1-0.4,0.4
		c0.4,0.5,0.4,0.6,0.1,0.7c-0.2,0.1-0.4,0.3-0.4,0.5c0,0.5-1.5,2.2-2,2.2c-0.2,0-0.3,0.2-0.2,0.3c0.1,0.2,0,0.3-0.1,0.3
		c-0.2,0-0.8,0.4-1.2,1c-1.2,1.3-1.5,1.3-1.4-0.3c0.1-0.9,0-1.3-0.3-1.3c-0.2,0-0.5-0.5-0.6-1c-0.3-1.4,1.4-3,2.9-2.8s4-0.6,4.1-1.4
		c0.4-2.4,7.6-6.8,10.2-6.2c1.3,0.3,4.4-1.4,4.5-2.4c0-0.2,0.4-0.7,0.8-1.1c0.4-0.4,1-1.2,1.2-1.8c0.4-1,0.5-1,0.6-0.3
		C251.5,169,251.2,169.8,250.6,170.4 M196.4,186.7c0.3,0.2,1.1,0.3,2,0.3c0.8-0.1,1.5,0,1.5,0.1s0.3,0.3,0.8,0.4
		c0.4,0.1,1.1,0.5,1.6,1c0.5,0.4,1.3,0.9,1.8,1.1c1.2,0.4,1.6,1.4,0.5,1.4c-0.8,0-2.7-1-3.7-2c-0.5-0.5-0.8-0.6-1.1-0.3
		c-0.2,0.2-1.2,0.4-2.3,0.4c-1.2,0-2.4,0.2-3.2,0.6c-1.9,0.9-4.8-0.8-3.4-2.1C192,186.5,195.5,185.9,196.4,186.7 M208,192.8
		c1.1,1,2.1,1.8,2.2,1.8c0.1,0,0.3,0.2,0.3,0.3c0,0.5-1.9,0.4-2.3-0.2c-0.2-0.3-0.7-0.5-1.1-0.5c-1.4,0-2.6-1.4-2.2-2.4
		C205.5,190.6,205.8,190.7,208,192.8 M225.7,195.6c-0.1,0.2-0.8,0.3-1.4,0.3c-1,0-1.1-0.1-0.6-0.3
		C224.6,195.2,225.9,195.2,225.7,195.6 M92.9,259.5c0.7,0.9,1.1,1.1,2,1.2c0.6,0,1,0.1,0.9,0.2c-0.3,0.3,0.5,1.1,1.1,1.1
		c0.3,0,0.6-0.2,0.6-0.4c0-0.9,1.9-0.1,2.8,1.3c0.8,1.1,1.1,1.4,1.9,1.4c0.5,0,1,0.1,1,0.3c0,0.2,0.4,0.3,0.8,0.3
		c0.5,0,0.8,0.1,0.8,0.3s0.3,0.6,0.7,1.1c0.4,0.4,0.7,1,0.7,1.4c0,0.7,1.6,2.3,2.4,2.3c0.9,0,1.1,0.7,0.3,1.2
		c-0.9,0.6-0.9,1.4,0,1.8c0.4,0.2,1,0.6,1.4,1c0.3,0.4,0.8,0.7,1,0.7s0.6,0.2,0.8,0.5c0.6,0.7,4.1,0.7,5.5,0
		c1.1-0.5,1.2-0.5,2.9,0.4c4,2.2,4.4,2.4,6.4,2.5c2.7,0.3,3.9,0.6,4.9,1.3c0.5,0.4,1.2,0.6,1.7,0.5c2.8-0.7,5.2-1.3,5.6-1.6
		c0.3-0.2,0.8-0.3,1.1-0.3s0.6-0.2,0.7-0.4c0.1-0.2,0.7-0.4,1.5-0.4c1.5,0,1.5,0.1-0.2,1c-0.7,0.4-1.7,1-2.1,1.4
		c-0.5,0.4-1.9,0.9-3.7,1.3c-1.6,0.3-3.6,0.7-4.4,0.9c-2,0.4-3.7,0.1-5.1-0.9c-1.5-1.1-3.2-1.1-4.8,0.1c-0.9,0.7-1.1,0.7-0.6,0.2
		c0.9-1,0.5-3.1-0.6-3.1c-0.4,0-0.9,0.1-1,0.3c-0.6,0.9-5.7,0.4-6.6-0.7c-0.5-0.6-1.1-1-1.4-1c-0.9,0-2.6-1.2-2.5-1.6
		c0-0.2-0.3-0.6-0.8-0.8c-0.6-0.3-0.8-0.6-0.7-1c0.1-0.4-0.1-0.7-0.5-0.9c-0.3-0.1-1.7-1.2-2.9-2.5c-1.3-1.2-2.5-2.2-2.8-2.2
		c-0.6,0-2.3-0.8-3.1-1.6c-1-0.8-2.2-1.5-2.4-1.3c-0.2,0.2-3.4-1.4-3.4-1.8c0-0.2-0.4-0.4-1-0.5s-1-0.5-1.1-0.9s-0.5-0.8-0.9-0.9
		c-0.9-0.2-0.9-1.1,0.1-1.4c0.5-0.2,0.8-0.5,0.8-0.7C90.9,257.9,92.1,258.4,92.9,259.5 M83.2,264.3c0.9,0,1.2,0.2,1.9,1.6
		c0.5,0.9,1,1.6,1.2,1.7c0.4,0.2,0.3,1.4-0.1,1.4c-0.9,0-0.3,2.9,0.8,4.2c0.6,0.7,1.1,1.4,1,1.6s0.1,0.6,0.4,1.1s0.5,1.1,0.5,1.5
		c0,0.5,0.2,0.7,0.8,0.7c0.4,0,0.9,0.1,1,0.3s1.2,0.3,2.5,0.3s2.6,0.1,2.9,0.3c0.3,0.2,1,0.5,1.5,0.7c2.2,0.8,1.4,2.3-1.3,2.3
		c-1.2,0-2,0.2-2.5,0.6c-0.8,0.6-1.8,0.3-4.5-1.5c-0.4-0.2-1.3-0.5-2.1-0.5c-1.2,0-1.4-0.1-1.4-0.7c0-1-0.9-2.5-1.8-3.1
		c-0.6-0.4-0.8-0.9-0.8-1.5c0-1.2-0.6-1.7-1.6-1.5c-0.5,0.1-1.3-0.1-1.9-0.3c-1-0.5-1-0.5-0.2-0.5s2-0.7,2-1.1s-2.9-0.2-3.1,0.2
		c-0.1,0.3-0.5,0.4-1,0.3s-0.9,0-1.1,0.2c-0.2,0.3-0.5,0.2-1-0.3c-0.6-0.6-0.9-0.7-1.4-0.4c-1.1,0.6-4.7,0.5-4.7-0.2
		c0-0.3,0.2-0.5,0.5-0.4c0.6,0.2,1.3-0.5,0.9-0.9c-0.1-0.1,0.1-0.1,0.5,0.1s0.8,0.5,0.9,0.7s0.5,0.3,0.9,0.3c0.8,0,0.9-1,0-1.8
		c-0.8-0.7-0.3-2.6,0.5-2.3c0.7,0.3,2.1-0.8,2.1-1.6c0-0.5,0.2-0.7,0.7-0.5c0.4,0.1,0.8,0,0.9-0.1c0.1-0.2,0.4-0.3,0.7-0.3
		c0.4,0,0.4,0.1-0.2,0.8c-0.4,0.4-0.7,0.9-0.7,1.1s-0.3,0.5-0.7,0.6c-0.4,0.1-0.7,0.5-0.7,0.9c0,0.9,1.2,0.8,2.6-0.1
		c0.9-0.5,1.4-0.6,2.5-0.5l1.4,0.2l-1.1-1.2c-0.6-0.7-1.4-1.2-1.7-1.2c-0.3,0,0-0.4,0.6-1c0.8-0.7,1.3-0.9,1.7-0.7
		C81.9,264.2,82.6,264.3,83.2,264.3 M83.4,270.2c-0.8,0.6-0.9,1.1-0.3,1.8c0.2,0.3,0.7,1.2,1,2.2c0.3,0.9,0.6,1.7,0.7,1.8
		c0.2,0.2,1.8-0.6,1.8-1c0-0.2-0.4-0.8-0.8-1.4c-0.5-0.5-0.9-1.6-1-2.3C84.4,269.7,84.2,269.5,83.4,270.2 M77.9,273.8
		c0,0.1-0.4,0.1-0.8,0.1c-0.5,0-0.8-0.1-0.8-0.3c0-0.2,0.4-0.2,0.8-0.1C77.5,273.6,77.9,273.8,77.9,273.8 M67.6,279.5
		c0.3,0.1,0.4,0.5,0.3,1c-0.1,0.7,0,0.8,1,1.2c0.7,0.2,1.2,0.5,1.2,0.7s0.3,0.2,0.8,0.1c1.1-0.3,1.6,0.2,1.8,1.8
		c0.1,0.8,0.3,1.3,0.5,1.2c0.3-0.2,0.4,0.4,0.4,2.3c0,1.1,0.9,1.5,3.5,1.7c0.8,0.1,1.6,0.4,2.3,1.1c1.2,1.1,6.3,1.7,6.3,0.7
		c0-0.2,0.3-0.3,0.7-0.3c0.4,0,1.1-0.3,1.6-0.7c0.5-0.4,1-0.5,1.1-0.4c0.3,0.6,2.1-0.4,2.6-1.4c0.4-1,1-1.2,1-0.4
		c0,0.3,0.4,0.8,0.8,1.2c0.4,0.4,1,1.2,1.3,1.8c0.6,1.1,0.6,1.1,3.1,1.1c1.8,0,2.4,0.1,2.1,0.3c-0.3,0.2-1.2,0.3-2.1,0.3
		s-1.9,0.2-2.2,0.4c-0.5,0.3-0.8,0.2-1.7-0.5c-1.8-1.5-3.5-1.5-6.3-0.1c-1.3,0.7-2.5,1.1-2.7,1s-0.8,0.1-1.4,0.4
		c-1.8,1-1.6,3.7,0.3,3.7c0.8,0,2.2,1.2,2.7,2.4c0.2,0.5,0.6,0.9,0.8,0.9c0.7,0,1.9,1.4,1.9,2.2c0,1.4,1.7,2.2,4.7,2.2
		c1.5,0,2.7,0.1,2.7,0.3s0.3,0.3,0.7,0.3c0.4,0,0.7-0.2,0.7-0.3c0-0.1,0.4-0.1,0.8,0.1c0.7,0.3,0.8,0.6,0.8,1.6
		c0,1.1,0.1,1.3,1.1,1.6c2.4,0.9,2.9,1.5,2.9,4.2c0,1.3,0.1,2.9,0.3,3.5c0.3,1.1-0.6,1.7-1.1,0.7c-0.4-0.6-3.1-0.4-4.3,0.3
		c-1.3,0.7-2.5,0.9-2.5,0.3c0-0.2-0.2-0.3-0.4-0.3c-0.8,0-3.2-2-3.4-2.8c-0.1-0.5-0.4-0.8-0.7-0.8c-0.6,0-1.8-1.7-1.6-2.2
		c0.1-0.2,0-0.5-0.2-0.6s-0.3-0.4-0.1-0.7c0.1-0.3,0-0.7-0.2-1s-0.3-0.7-0.2-1c0.1-0.3,0-0.5-0.4-0.5c-0.3,0-1.1-0.7-1.8-1.5
		c-1.2-1.4-1.7-1.6-4.3-2c-0.1,0-0.3-0.1-0.5-0.3c-0.1-0.1-0.5-0.2-0.9-0.2c-0.3,0-0.7-0.2-0.8-0.5c-0.2-0.4-0.3-0.5-0.9,0
		c-0.9,0.6-1.9,0.1-1.7-0.8c0.1-0.4,0-0.7-0.2-0.7s-0.3-0.2-0.3-0.5c0-0.6-2.5-0.7-2.8-0.2c-0.4,0.7-2.6,0.4-2.2-0.3
		c0.2-0.4,0.6-0.7,0.9-0.7s0.8-0.2,1-0.4c0.4-0.4,0.6-2.9,0.2-2.9s-1.9-2.4-1.8-2.9c0.2-0.7-0.6-1.4-1.5-1.4c-0.4,0-0.8-0.1-0.8-0.3
		c0-0.4-1.5-0.4-2.3,0c-0.4,0.2-0.7,0.2-0.8,0c-0.3-0.5-1.9-0.4-3,0.3c-0.7,0.5-1.2,0.5-1.6,0.3c-0.6-0.4-2.3,0.1-3.2,1
		c-0.5,0.4-0.6,0.4-0.9,0c-0.2-0.2-1-0.7-1.7-0.9c-1.5-0.5-2.1-2.3-0.7-2.3c0.4,0,0.7-0.1,0.7-0.3c0-0.2,0.2-0.3,0.5-0.3
		s0.5-0.1,0.5-0.3c0-0.2,0.3-0.4,0.8-0.4c0.9-0.1,1.1-1.6,0.3-1.9c-0.3-0.1-0.4,0-0.3,0.4c0.1,0.3,0.1,0.5-0.1,0.5s-0.3-0.5-0.3-1
		c0-0.6,0.1-1,0.3-1c0.4,0,1.4-1,1.4-1.4c0-0.2-0.2-0.3-0.5-0.3s-0.5-0.2-0.5-0.5c0-0.8,1.7-1.9,2.8-1.9c1,0,2.7-1,2.3-1.4
		c-0.3-0.3,1-0.6,2.2-0.7c0.8,0,1-0.1,0.9-0.6C66.9,279.2,66.9,279.2,67.6,279.5 M120.7,280.9c1.3,2.1-3.3,6.4-6.4,6.1
		c-0.4,0-0.8,0.1-0.9,0.3s-0.8,0.4-1.5,0.4s-1.4,0.1-1.5,0.3c-0.1,0.2-0.5,0.3-0.8,0.3s-0.8,0.3-1,0.7c-0.2,0.4-0.5,0.6-0.6,0.4
		c-0.2-0.3-1-0.5-4.1-1c-1-0.2-1.2-0.3-1.2-1c0-0.4-0.2-0.9-0.4-1c-0.2-0.1-0.5-0.6-0.7-1s-0.6-0.8-0.9-0.8c-0.5,0-0.6-0.3-0.7-1.3
		c-0.1-1.3,0-1.3,0.9-1.3c0.5,0,1,0.1,1,0.3s0.3,0.3,0.8,0.3c1,0,1.9,0.7,1.9,1.4c0,1.6,5.2,3,6.9,1.7c0.4-0.3,1.2-0.5,2-0.5
		c0.7,0,1.8-0.2,2.3-0.5s1.2-0.5,1.4-0.5c0.6,0,2.3-2.5,2-3.2C118.9,280.6,120.3,280.4,120.7,280.9 M98,283.1c0.8,0,0.5,1.5-0.2,1.6
		c-0.5,0.1-0.8,0.3-0.7,0.7c0.1,0.7,0.1,0.7-1,0.3c-0.7-0.3-0.9-0.2-1.2,0.4c-0.3,0.9-1.4,1.8-1.4,1.3c0-0.2,0.2-0.4,0.3-0.4
		c0.4,0,0.4-2.2,0-2.5c-0.5-0.3,0.7-1.1,1.8-1.1c0.5,0,1-0.2,1.1-0.3c0.1-0.2,0.4-0.2,0.6-0.1C97.5,283,97.9,283.1,98,283.1
		 M101.8,288.2c-0.3,0.3-1.2-0.3-1-0.6c0.1-0.2,0.4-0.2,0.7,0.1C101.7,287.9,101.8,288.1,101.8,288.2 M51.2,296.4
		c0.2,0.2,0.3,0.6,0.3,0.8c0,0.3,0.5,0.7,1.1,1c1.3,0.6,2.3,1.4,2.1,1.7c-0.2,0.3-1.5,0-2.1-0.6c-0.3-0.3-1-0.8-1.6-1.3
		c-0.8-0.6-1.1-1.1-1.1-1.8c0-1,0.8-1.6,0.9-0.7C50.9,295.9,51.1,296.3,51.2,296.4 M63.7,301c0.1,0.2,0.6,0.3,1.1,0.3
		c0.6,0,0.8,0.1,0.4,0.3c-0.3,0.2-1,0.1-1.7-0.1c-1.6-0.5-2-0.9-0.9-0.9C63.1,300.6,63.6,300.8,63.7,301 M60.4,301.5
		c-0.4,0.3-0.8,0.5-0.9,0.5s-0.3,0.3-0.4,0.6c-0.1,0.4-0.7,1.2-1.3,1.8l-1.1,1.2l-0.8-1.1c-0.9-1.1-1.6-3-0.9-2.3
		c0.3,0.3,0.5,0.3,0.9,0c0.5-0.4,0.5-0.3,0.1,0.1c-0.3,0.4-0.3,0.7,0,1.4c0.5,1.1,0.8,1.1,1.2,0.2c0.2-0.4,0.6-0.7,0.8-0.7
		c0.3,0,0.5-0.2,0.5-0.3c0-0.5,1.6-2,2.1-2C60.9,301,60.8,301.2,60.4,301.5 M53.8,314.5c-0.3,0.6-0.5,0.7-0.7,0.5
		c-0.3-0.3-0.2-0.5,0.3-0.8C54.2,313.5,54.2,313.5,53.8,314.5 M36.2,322c-0.6,0.3-1.6,0.6-2.2,0.6c-0.6,0-1.2,0.2-1.3,0.4
		c-0.1,0.2-0.9,0.3-1.8,0.3c-1.2,0-1.8,0.2-2.6,0.9c-0.5,0.5-1.3,0.8-1.6,0.7c-0.3-0.1-0.7,0-0.9,0.3c-0.2,0.2-0.6,0.4-0.9,0.2
		c-0.4-0.2-0.5,0-0.3,0.8c0.1,0.5,0.3,1.6,0.4,2.5c0.1,0.8,0.3,1.6,0.5,1.8c0.6,0.6,0.3,1.4-1,2.7c-1.5,1.5-1.6,1.7-0.6,2.7
		c0.4,0.4,0.5,0.8,0.3,0.8c-0.6,0-0.5,0.6,0.3,1.7c0.6,0.8,0.6,1.1,0.3,1.5c-0.5,0.6,0.1,1.5,0.9,1.5c0.2,0,0.5,0.3,0.6,0.7
		c0.1,0.4,0.4,0.7,0.7,0.7c0.2,0,0.5,0.3,0.6,0.7c0.1,0.5,0.4,0.7,1,0.6s0.8,0,0.8,0.7c0,1.3,2.6,1.7,7.7,1.2
		c2.8-0.3,2.8-0.3,2.3-3.3c-0.6-3.2-0.6-3.5-0.1-3c0.4,0.4,1.9,0.6,1.9,0.1c0-0.7,1.6-1,2.3-0.4c1,0.8,1.8,0.2,1.5-0.9
		c-0.3-1,0.4-1.3,1.2-0.6c0.4,0.3,0.6,0.5,0.6,0.3s0.2,0,0.5,0.4c0.7,1,3.1,1.7,3.5,1.1c0.2-0.4,0.4-0.3,1.1,0.3
		c0.4,0.4,1.1,0.7,1.4,0.7s0.7,0.3,0.8,0.7c0.1,0.5,0.5,0.7,1.2,0.7c0.6,0,1.2,0.1,1.3,0.2s1,0.3,1.9,0.3c1.3,0.1,1.8,0.2,2.2,0.8
		c0.3,0.4,0.8,0.7,1.2,0.7c0.9,0,2.1,0.8,1.6,1.1c-0.4,0.3-0.5,5.5-0.1,6c0.7,0.8,7.1,0.7,7.8-0.2c0.6-0.7,1.5-0.9,1.5-0.3
		c0,0.2-0.2,0.3-0.5,0.3c-0.7,0-1,0.9-0.5,1.5c1,1.2,4.5,0.3,4.2-1.1c-0.2-0.8,0.4-1.1,0.7-0.3c0.1,0.3,0.6,0.5,1,0.5
		c0.5,0,0.7-0.1,0.6-0.3c-0.1-0.2,0.2-0.3,0.7-0.3c0.6,0,0.9-0.2,1.1-0.7c0.1-0.4,0.5-0.7,0.8-0.7s0.8-0.3,1-0.7
		c0.2-0.4,0.6-0.7,0.8-0.7c0.2,0,0.4-0.2,0.4-0.3c0-0.5,1.7-1.1,2.1-0.7c1.2,0.9,3.5,0.4,5-1c0.8-0.7,2.2-1.7,3-2.2
		c0.9-0.5,1.8-1,2-1.1c0.2-0.2,0.7-0.6,1.2-1s1.2-1,1.7-1.4s1.7-1.8,2.7-3c1-1.3,2.6-3.1,3.4-4c1.8-1.9,1.7-1.8,0.9-2.8
		c-0.4-0.4-0.7-0.9-0.7-1.1s-0.5-0.9-1.2-1.5c-1.2-1.2-2.8-1.6-2.8-0.7c0,0.5-0.7,0.9-1.9,0.9c-0.6,0-0.8,0.2-0.8,0.8
		c0,1-0.3,1-1.2,0.3c-0.7-0.6-3.1-0.7-3.1-0.2s-0.6,0.4-1.2-0.3c-0.6-0.7-2-1-1.6-0.4c0.3,0.5-1.1,0.1-2-0.5
		c-0.4-0.3-0.7-0.7-0.6-0.8c0.1-0.2-0.1-0.4-0.4-0.6c-0.4-0.2-0.6-0.8-0.6-1.5s-0.2-1.2-0.4-1.2c-0.2,0-0.6-0.3-0.8-0.7
		c-0.2-0.4-0.7-0.7-1.3-0.7c-0.5,0-1.1-0.1-1.2-0.3c-0.3-0.5-2.2-0.4-2.2,0.2c0,0.3-0.3,0.8-0.7,1.2c-0.6,0.6-0.7,1.1-0.6,2.2
		c0.1,1.7-0.3,2-2.9,2.5c-0.6,0.1-1.6,0.6-2.3,1c-0.7,0.4-1.3,0.8-1.5,0.8s-0.3,0.1-0.3,0.3c0,0.2-0.3,0.3-0.6,0.3
		c-0.3,0-0.7,0.3-0.8,0.7c-0.2,0.8-3,1-3.4,0.3c-0.1-0.2-0.7-0.3-1.2-0.2c-0.6,0.1-1,0-1-0.3c0-0.2-0.3-0.4-0.6-0.4
		c-0.4,0-0.7-0.1-0.9-0.3c-0.6-0.9-2.5-0.4-2.5,0.7c0,0.6-0.1,0.9-0.3,0.8c-0.2-0.1-0.2-0.6-0.1-1c0.2-0.8,0.2-0.8-1.8-0.8
		c-1.1,0-2-0.1-2-0.2c0.1-0.3-1.2-1.8-1.6-1.8c-0.2,0-0.5-0.3-0.7-0.8c-0.3-0.6-0.6-0.7-1.4-0.6c-0.6,0.1-1.4-0.1-1.9-0.5
		c-0.5-0.3-1.1-0.5-1.3-0.4c-0.3,0.1-1-0.1-1.8-0.4s-1.9-0.9-2.6-1.2c-0.7-0.3-1.6-0.8-2-1.1c-0.4-0.3-1.2-0.8-1.8-1
		c-0.6-0.3-1.1-0.6-1.1-0.7C41.5,321,37.4,321.4,36.2,322"/>
	<path id="path4" class="st0" d="M290.3,11.2c0.3,0.1,0.8,0.1,1.2,0c0.3-0.1,0.1-0.2-0.6-0.2S290,11.1,290.3,11.2 M278.2,12.4
		c0,0.1,0.5,0.2,1,0.3s1,0,1-0.1c0-0.2-0.5-0.3-1-0.3S278.2,12.4,278.2,12.4 M296.1,12.5c0.4,0.1,1.1,0.1,1.5,0s0.1-0.1-0.8-0.1
		C296,12.4,295.7,12.5,296.1,12.5 M241.4,22.8c-0.5,0.5-0.8,0.8-0.6,0.8s0.6-0.4,1.1-0.8C242.9,21.7,242.6,21.7,241.4,22.8
		 M347.3,31.8c0,1.1,0.1,1.5,0.1,0.9c0.1-0.6,0.1-1.5,0-2C347.4,30.2,347.3,30.7,347.3,31.8 M194.2,85.5l-1.8,1.9L194.2,85.5
		c1.1-0.9,2-1.8,2-1.8C196.2,83.5,195.9,83.8,194.2,85.5 M154.8,91.9c0.6,0.1,1.6,0.1,2.2,0c0.6-0.1,0.1-0.1-1.1-0.1
		C154.7,91.7,154.2,91.8,154.8,91.9 M365.4,111.7c-0.3,0.6-0.5,1.1-0.4,1.2s0.4-0.4,0.7-1C366.3,110.4,366.1,110.2,365.4,111.7
		 M230.7,131c0,3.8,0,5.3,0.1,3.4c0.1-1.9,0.1-5,0-6.8S230.7,127.2,230.7,131 M212.4,138.3c0.7,0.7,1.4,1.3,1.5,1.3
		s-0.4-0.6-1.1-1.3s-1.4-1.3-1.5-1.3C211.1,137,211.7,137.6,212.4,138.3 M192.8,142.5c-0.7,0.6-1.1,1.2-1,1.2s0.8-0.5,1.4-1.2
		C194.7,141,194.4,141,192.8,142.5 M249,171.6c0,0.1-0.4,0.6-0.9,1.1s-0.9,1-0.8,1.1c0.2,0.2,1.2-0.8,2.1-1.9
		c0.3-0.4,0.3-0.5-0.1-0.5C249.1,171.4,248.9,171.5,249,171.6 M235.9,178.2l-1.8,1.9L235.9,178.2c1.9-1.6,2.2-1.9,1.9-1.9
		C237.7,176.3,236.9,177.2,235.9,178.2 M189.3,182.8c0,0.9,0.1,1.3,0.1,0.7c0.1-0.5,0.1-1.3,0-1.7
		C189.4,181.5,189.3,181.9,189.3,182.8 M183.4,184.9c0.6,0.1,1.6,0.1,2.2,0c0.6-0.1,0.1-0.1-1.1-0.1
		C183.3,184.7,182.9,184.8,183.4,184.9 M227.9,187.1c-0.1,1.4,0.2,1.6,1.1,0.5l0.6-0.8l-0.7,0.6c-0.7,0.6-0.7,0.6-0.9-0.5l-0.1-1.1
		L227.9,187.1 M209.4,195l-1,0.3h1.1c0.6,0,1.1-0.1,1.1-0.3s0-0.3-0.1-0.3S209.9,194.8,209.4,195 M337.9,220.4
		c-0.2,0.5-0.4,1.1-0.3,1.4c0.1,0.5,0.2,0.4,0.2-0.3c0-0.5,0.2-0.9,0.4-1c0.2-0.1,0.3-0.3,0.2-0.6
		C338.4,219.7,338.2,219.9,337.9,220.4 M106,223.4l-1,1.1l1.1-1c1-0.9,1.2-1.2,1-1.2C107,222.3,106.6,222.8,106,223.4 M99.2,230.9
		l-1.1,1.2L99.2,230.9c1.3-1,1.5-1.3,1.2-1.3C100.4,229.6,99.8,230.2,99.2,230.9 M286.1,253.3c0.6,0.6,1.1,1.1,1.2,1
		s-0.4-0.6-1.1-1.1l-1.2-1L286.1,253.3 M318.3,253.3c-0.2,0.2-0.6,0.4-1,0.5c-0.6,0.2-0.6,0.2,0,0.2c0.4,0,0.9-0.2,1.1-0.5
		C319,252.9,318.9,252.8,318.3,253.3 M266.4,264.3c0.4,0.5,0.8,1.3,0.9,1.8l0.1,1v-1c0-0.7-0.2-1.2-0.9-1.8l-0.9-0.8L266.4,264.3
		 M79.7,273.5c0.5,0.3,1.3,0.5,1.7,0.4c0.5-0.1,0.5-0.1-0.2-0.2c-0.5,0-1-0.2-1.1-0.4c-0.1-0.2-0.5-0.3-0.8-0.3
		C78.9,273,79.1,273.2,79.7,273.5 M76.2,273.7c0,0.2,0.4,0.3,0.8,0.3c0.5,0,0.8-0.1,0.8-0.1s-0.4-0.2-0.8-0.3S76.2,273.5,76.2,273.7
		 M266.1,273.9c0.6,0.1,1.5,0.1,2,0s0-0.1-1.1-0.1C265.9,273.7,265.5,273.8,266.1,273.9 M113.6,275.9c0.5,0.1,1.3,0.1,1.8,0
		s0.1-0.1-0.9-0.1C113.5,275.7,113.1,275.8,113.6,275.9 M112.5,285.5c0.4,0.1,1,0.1,1.3,0s0-0.1-0.8-0.1
		C112.3,285.4,112,285.5,112.5,285.5 M58.2,287.6c0,0.5,0.1,1,0.3,1c0.2,0,0.2-0.5,0.1-1c-0.1-0.6-0.2-1-0.3-1
		S58.2,287.1,58.2,287.6 M278.3,292.8c0,0.7,0.1,1,0.2,0.6s0.1-1,0-1.3S278.3,292.1,278.3,292.8 M50.3,295.2
		c-0.2,0.1-0.4,0.6-0.4,1.2c0,1,0,1.1,0.2,0.1c0.1-0.9,0.2-0.9,0.6-0.3c0.4,0.5,0.4,0.5,0.3-0.3c-0.1-0.5-0.2-0.9-0.2-0.9
		C50.7,295,50.5,295.1,50.3,295.2 M289.3,307.3c0,0.6,0.1,0.9,0.2,0.6s0.1-0.8,0-1.2C289.3,306.4,289.3,306.7,289.3,307.3
		 M180.3,314c0.1,0.4,0.6,0.5,1.9,0.5h1.8l-1.7-0.1c-0.9-0.1-1.8-0.3-1.9-0.5C180.2,313.6,180.2,313.6,180.3,314 M80.7,315.4
		l-0.6,0.8l0.8-0.6c0.7-0.6,0.8-0.6,1.7,0.2l0.9,0.8l-0.8-0.9C81.6,314.4,81.5,314.4,80.7,315.4 M51.3,315.9c0.3,0.1,0.8,0.1,1.2,0
		c0.3-0.1,0.1-0.2-0.6-0.2C51.2,315.7,51,315.8,51.3,315.9 M177.9,317c-0.2,0.4-0.4,0.8-0.4,1.1c0,0.2,0.2,0,0.5-0.5
		C178.6,316.4,178.5,316,177.9,317 M57.6,320.3c0,0.6,0.1,0.9,0.2,0.6s0.1-0.8,0-1.2C57.7,319.4,57.6,319.7,57.6,320.3 M27.2,324.5
		c-0.5,0.2-0.6,0.4-0.3,0.4c0.6,0,1.6-0.6,1.3-0.8C28.1,324.1,27.7,324.3,27.2,324.5 M71.1,324.2c-0.1,0.1,0.3,0.2,0.8,0.1
		s1-0.2,1-0.3C72.9,323.8,71.2,324,71.1,324.2 M291,324.3c0.1,0.4-0.1,0.7-0.5,1.1c-0.4,0.3-0.7,0.6-0.6,0.7s0.5-0.2,1-0.7
		c0.6-0.7,0.7-0.9,0.4-1.2C290.9,323.9,290.9,323.9,291,324.3 M79.6,326.1c0,0.9,0.1,1.3,0.1,0.7c0.1-0.5,0.1-1.3,0-1.7
		C79.7,324.8,79.6,325.2,79.6,326.1 M53,326.9c0.3,0.1,0.8,0.1,1.2,0c0.3-0.1,0.1-0.2-0.6-0.2C52.9,326.7,52.6,326.8,53,326.9
		 M100.3,327.1c-0.1,0.3-0.1,0.6,0,0.7s0.2,0,0.2-0.3s0.4-0.6,0.9-0.7l0.9-0.1l-0.9-0.1C100.9,326.7,100.4,326.8,100.3,327.1
		 M188.6,335.1c0,1.3,0.1,1.8,0.1,1.1c0.1-0.7,0.1-1.7,0-2.3C188.7,333.3,188.6,333.8,188.6,335.1 M286.3,334.5
		c0.3,0.1,0.8,0.1,1.2,0c0.3-0.1,0.1-0.2-0.6-0.2C286.2,334.4,286,334.4,286.3,334.5 M91.7,344.9c-0.2,0.1-0.7,0.7-1.2,1.2
		c-0.7,0.9-0.7,0.9,0.4-0.2c1.1-1,1.4-1.4,1.2-1.3C92.1,344.6,91.9,344.8,91.7,344.9 M228,346.5c0,1.1,0.1,1.5,0.1,0.9
		c0.1-0.6,0.1-1.5,0-2S228,345.4,228,346.5 M31.6,346.2c0.5,0.1,1.3,0.1,1.7,0s0-0.1-0.9-0.1C31.4,346.1,31.1,346.1,31.6,346.2
		 M285.2,354.4c0.1,0,0.6,0.5,1.1,0.9l1,0.8l-0.8-0.9c-0.4-0.5-1-0.9-1.1-0.9S285.2,354.3,285.2,354.4 M258.3,376.5
		c0.3,0.1,0.8,0.1,1.2,0c0.3-0.1,0.1-0.2-0.6-0.2C258.2,376.4,258,376.4,258.3,376.5 M261.1,386.6c-0.6,0.7-0.1,1.4,0.6,0.7
		c0.3-0.3,0.2-0.3-0.3-0.1c-0.7,0.2-0.7,0.2,0-0.5c0.3-0.4,0.6-0.7,0.5-0.7C261.7,386,261.4,386.3,261.1,386.6 M276.1,395.2
		c0.4,0.1,1,0.1,1.3,0s0-0.1-0.8-0.1C276,395.1,275.7,395.1,276.1,395.2 M242.3,397.2c0.3,0.1,0.8,0.1,1.2,0
		c0.3-0.1,0.1-0.2-0.6-0.2C242.2,397,242,397.1,242.3,397.2 M240.3,400.1c-1,1.1-0.9,1.4,0.1,0.3c0.5-0.5,0.8-0.9,0.7-1
		C241,399.4,240.7,399.6,240.3,400.1"/>
</g>
</svg>
