<svg id="svg" version="1.1" xmlns="http://www.w3.org/2000/svg" xmlns:xlink="http://www.w3.org/1999/xlink" width="400" height="300" viewBox="0, 0, 400,300"><g id="svgg"><path id="path0" d="M227.592 23.192 C 226.678 24.249,227.276 27.607,228.379 27.607 C 228.532 27.607,228.657 27.809,228.657 28.057 C 228.657 28.307,228.924 28.507,229.257 28.507 C 229.587 28.507,229.857 28.620,229.857 28.759 C 229.857 28.898,230.195 29.165,230.608 29.353 C 231.177 29.612,231.358 29.609,231.358 29.341 C 231.358 29.073,231.445 29.075,231.718 29.347 C 233.253 30.883,234.838 29.122,233.782 27.053 C 233.439 26.381,233.158 25.645,233.158 25.418 C 233.158 24.990,231.946 23.832,230.817 23.181 C 229.993 22.706,228.007 22.713,227.592 23.192 M236.967 29.762 C 236.292 30.008,236.143 30.226,236.217 30.863 C 236.344 31.959,240.060 32.305,240.060 31.222 C 240.060 30.883,239.863 30.608,239.620 30.608 C 239.379 30.608,239.036 30.338,238.860 30.008 C 238.505 29.345,238.214 29.307,236.967 29.762 M62.566 31.805 C 62.306 32.627,62.610 33.008,63.526 33.008 C 64.297 33.008,65.089 32.295,65.107 31.583 C 65.124 30.903,62.788 31.108,62.566 31.805 M161.290 37.273 C 160.795 37.447,160.216 37.728,160.002 37.897 C 159.734 38.109,159.507 38.097,159.267 37.857 C 158.804 37.394,156.784 37.413,156.285 37.884 C 156.067 38.091,155.686 38.260,155.439 38.260 C 154.867 38.260,154.648 40.369,155.156 40.981 C 155.450 41.335,155.371 41.410,154.704 41.410 C 153.060 41.410,152.653 42.524,153.668 44.244 C 154.407 45.496,155.322 45.643,156.176 44.646 C 156.545 44.214,156.788 44.109,156.867 44.346 C 157.088 45.008,158.374 44.738,159.059 43.886 C 159.482 43.359,159.770 43.196,159.856 43.436 C 159.930 43.642,160.440 43.811,160.990 43.811 C 161.540 43.811,162.046 43.978,162.114 44.183 C 162.298 44.732,167.324 44.764,167.777 44.219 C 168.225 43.679,169.434 43.697,169.645 44.247 C 169.830 44.727,171.122 44.622,171.292 44.114 C 171.347 43.947,171.592 43.811,171.836 43.811 C 172.079 43.811,172.195 43.676,172.093 43.511 C 171.991 43.346,172.043 43.211,172.209 43.211 C 172.375 43.211,172.688 42.839,172.904 42.386 C 173.250 41.663,173.493 41.549,174.869 41.470 C 177.808 41.300,178.053 37.509,175.125 37.509 C 174.253 37.509,173.832 38.018,174.310 38.496 C 174.776 38.962,174.726 39.310,174.194 39.310 C 173.946 39.310,173.743 39.167,173.743 38.992 C 173.743 38.817,173.607 38.759,173.440 38.862 C 173.272 38.965,172.712 38.838,172.193 38.580 C 171.675 38.321,170.739 38.110,170.114 38.110 C 169.489 38.110,168.894 37.974,168.792 37.809 C 168.690 37.644,167.339 37.509,165.774 37.509 C 164.085 37.509,162.941 37.388,162.941 37.209 C 162.941 36.841,162.468 36.859,161.290 37.273 M184.282 45.686 C 184.127 46.223,183.988 46.476,183.973 46.250 C 183.933 45.636,183.046 46.438,183.046 47.089 C 183.046 47.918,183.692 48.312,185.053 48.312 C 186.632 48.312,187.547 47.612,187.547 46.403 C 187.547 44.550,184.785 43.944,184.282 45.686 M242.426 48.013 C 242.160 48.169,241.518 48.329,241.001 48.368 C 240.448 48.410,240.060 48.606,240.060 48.844 C 240.060 49.066,239.925 49.164,239.760 49.062 C 239.595 48.960,239.460 49.016,239.460 49.186 C 239.460 49.356,239.021 49.609,238.485 49.748 C 236.919 50.154,237.293 52.213,238.933 52.213 C 239.532 52.213,240.633 53.299,240.650 53.907 C 240.684 55.063,242.397 56.114,244.249 56.114 C 245.405 56.114,246.027 56.226,245.911 56.414 C 245.649 56.838,246.467 56.788,246.902 56.354 C 247.182 56.074,247.262 56.074,247.262 56.354 C 247.262 56.785,247.969 56.823,248.691 56.432 C 248.978 56.277,249.584 56.072,250.038 55.976 C 251.795 55.606,250.999 49.812,249.191 49.812 C 248.932 49.812,248.523 49.616,248.282 49.375 C 248.041 49.135,247.646 49.014,247.403 49.107 C 247.160 49.200,246.962 49.153,246.962 49.002 C 246.962 48.173,243.460 47.409,242.426 48.013 M258.265 52.413 C 257.789 52.888,258.073 54.775,258.676 55.151 C 259.508 55.671,259.149 56.114,257.897 56.114 C 257.162 56.114,256.864 56.249,256.864 56.582 C 256.864 56.839,256.743 56.975,256.596 56.884 C 256.448 56.792,256.254 56.908,256.164 57.141 C 256.075 57.374,256.196 57.639,256.433 57.730 C 256.670 57.821,256.864 58.102,256.864 58.355 C 256.864 58.736,257.366 58.816,259.790 58.821 C 262.231 58.827,262.840 58.925,263.466 59.415 C 263.878 59.738,264.398 60.005,264.621 60.008 C 264.843 60.012,265.404 60.420,265.866 60.915 C 266.329 61.410,266.923 61.815,267.187 61.815 C 267.451 61.815,267.667 61.950,267.667 62.116 C 267.667 62.281,267.869 62.416,268.117 62.416 C 268.365 62.416,268.567 62.551,268.567 62.716 C 268.567 62.881,268.837 63.016,269.167 63.016 C 269.497 63.016,269.767 63.130,269.767 63.270 C 269.767 63.410,270.308 63.768,270.968 64.066 C 271.628 64.364,272.168 64.689,272.168 64.789 C 272.168 64.888,272.573 65.149,273.068 65.368 C 273.563 65.587,273.970 65.992,273.971 66.267 C 273.973 66.786,275.214 67.517,276.092 67.517 C 276.369 67.517,276.763 67.718,276.967 67.964 C 277.170 68.209,277.453 68.339,277.595 68.251 C 277.737 68.164,279.050 69.279,280.513 70.730 C 283.483 73.675,284.001 74.119,284.471 74.119 C 284.650 74.119,285.086 74.389,285.440 74.719 C 285.795 75.049,286.456 75.319,286.911 75.319 C 287.365 75.319,287.820 75.454,287.922 75.619 C 288.024 75.784,288.776 75.919,289.594 75.919 C 291.160 75.919,291.936 76.235,293.095 77.344 C 293.483 77.716,293.997 78.020,294.237 78.020 C 294.477 78.020,294.674 78.197,294.674 78.413 C 294.674 78.629,294.910 79.068,295.199 79.388 C 295.488 79.708,295.994 80.493,296.324 81.133 C 296.991 82.426,299.537 85.221,300.048 85.221 C 300.228 85.221,300.375 85.424,300.375 85.671 C 300.375 85.919,300.510 86.122,300.675 86.122 C 300.840 86.122,300.975 86.392,300.975 86.722 C 300.975 87.052,301.110 87.322,301.275 87.322 C 301.440 87.322,301.575 87.524,301.575 87.772 C 301.575 88.020,301.710 88.222,301.875 88.222 C 302.041 88.222,302.176 88.481,302.176 88.798 C 302.176 89.448,303.107 91.218,303.451 91.221 C 303.575 91.222,303.676 91.493,303.676 91.823 C 303.676 92.153,303.811 92.423,303.976 92.423 C 304.156 92.423,304.276 93.623,304.276 95.424 C 304.276 97.224,304.156 98.425,303.976 98.425 C 303.811 98.425,303.676 98.830,303.676 99.325 C 303.676 99.820,303.811 100.225,303.976 100.225 C 304.141 100.225,304.276 100.765,304.276 101.425 C 304.276 102.086,304.411 102.626,304.576 102.626 C 304.741 102.626,304.876 102.954,304.876 103.354 C 304.876 104.118,305.155 104.487,306.477 105.473 C 306.917 105.801,307.277 106.320,307.277 106.626 C 307.277 106.932,307.547 107.254,307.877 107.340 C 308.207 107.426,308.477 107.595,308.477 107.716 C 308.477 107.837,308.729 108.226,309.037 108.581 C 309.613 109.245,310.578 109.462,310.578 108.927 C 310.578 108.762,310.820 108.627,311.115 108.627 C 311.465 108.627,311.944 108.052,312.488 106.977 C 312.948 106.069,313.449 105.326,313.601 105.326 C 313.754 105.326,313.878 105.118,313.878 104.864 C 313.878 104.609,314.149 104.111,314.479 103.757 C 315.203 102.979,315.259 101.522,314.592 100.785 C 314.137 100.282,314.177 100.177,315.192 99.191 C 316.962 97.472,316.696 92.723,314.830 92.723 C 314.637 92.723,314.479 92.453,314.479 92.123 C 314.479 91.793,314.344 91.523,314.179 91.523 C 314.014 91.523,313.878 91.318,313.878 91.067 C 313.878 90.817,313.406 90.153,312.828 89.592 C 312.162 88.945,311.778 88.289,311.778 87.797 C 311.778 87.214,311.624 87.022,311.160 87.022 C 310.820 87.022,310.626 87.157,310.728 87.322 C 310.990 87.746,310.172 87.696,309.737 87.262 C 309.539 87.064,309.377 86.654,309.377 86.351 C 309.377 84.919,307.876 83.842,307.043 84.675 C 306.719 84.999,305.478 84.625,304.876 84.021 C 304.473 83.617,303.318 83.121,302.780 83.121 C 302.289 83.121,302.176 82.923,302.176 82.071 C 302.176 81.493,302.073 81.020,301.949 81.020 C 301.824 81.020,301.538 80.605,301.313 80.097 C 300.880 79.119,299.766 78.474,299.427 79.006 C 299.188 79.381,298.611 78.831,297.999 77.644 C 297.765 77.191,297.461 76.819,297.324 76.819 C 297.186 76.819,297.074 76.642,297.074 76.425 C 297.074 76.046,294.932 74.719,294.322 74.719 C 293.945 74.719,291.673 72.366,291.673 71.976 C 291.673 71.142,289.415 69.017,288.530 69.017 C 287.917 69.017,287.438 68.782,287.079 68.305 C 286.656 67.741,286.250 67.587,285.133 67.566 C 284.097 67.546,283.588 67.376,283.223 66.928 C 282.949 66.592,282.539 66.317,282.312 66.317 C 282.085 66.317,281.661 65.911,281.368 65.416 C 281.076 64.921,280.623 64.516,280.363 64.516 C 280.103 64.516,279.672 64.276,279.405 63.982 C 279.138 63.688,278.312 63.193,277.569 62.881 C 276.827 62.569,275.864 61.932,275.429 61.465 C 274.894 60.889,274.343 60.615,273.722 60.615 C 273.217 60.615,272.720 60.480,272.618 60.315 C 272.516 60.150,271.782 60.015,270.987 60.015 C 269.502 60.015,269.014 59.711,268.821 58.665 C 268.748 58.270,268.070 57.764,266.838 57.186 C 265.809 56.703,264.966 56.129,264.966 55.911 C 264.966 55.670,264.613 55.514,264.066 55.514 C 263.571 55.514,263.166 55.402,263.166 55.265 C 263.166 55.127,262.833 54.837,262.426 54.619 C 262.019 54.401,261.751 54.118,261.830 53.990 C 261.909 53.862,261.668 53.660,261.295 53.542 C 260.921 53.424,260.397 53.077,260.130 52.770 C 259.649 52.218,258.650 52.027,258.265 52.413 M17.867 53.051 C 17.778 53.140,17.704 73.918,17.704 99.225 C 17.704 129.699,17.603 145.236,17.404 145.236 C 17.239 145.236,17.104 145.627,17.104 146.104 C 17.104 146.609,16.911 147.047,16.643 147.150 C 16.289 147.285,16.210 147.677,16.301 148.832 C 16.366 149.660,16.313 150.338,16.182 150.338 C 16.051 150.338,15.861 150.601,15.759 150.922 C 15.657 151.244,15.310 151.591,14.988 151.693 C 14.341 151.898,14.099 155.215,14.704 155.589 C 14.869 155.691,15.004 156.096,15.004 156.489 C 15.004 156.882,15.128 157.281,15.281 157.375 C 15.433 157.469,15.646 157.950,15.755 158.443 C 15.863 158.936,16.143 159.340,16.378 159.340 C 16.612 159.340,16.804 159.475,16.804 159.640 C 16.804 159.805,17.007 159.940,17.254 159.940 C 17.651 159.940,17.704 163.189,17.704 187.377 C 17.704 213.515,17.730 214.821,18.244 214.984 C 18.540 215.078,19.294 215.695,19.919 216.355 C 21.049 217.547,24.606 218.230,24.606 217.254 C 24.606 217.089,24.783 216.954,25.000 216.954 C 25.216 216.954,25.683 216.684,26.037 216.354 C 27.016 215.443,28.632 215.565,30.008 216.654 C 31.166 217.572,36.084 218.104,35.559 217.254 C 35.444 217.068,36.000 216.954,37.024 216.954 C 37.932 216.954,38.758 217.089,38.860 217.254 C 39.101 217.644,41.019 217.644,41.260 217.254 C 41.362 217.089,41.832 216.954,42.303 216.954 C 42.775 216.954,43.206 216.823,43.261 216.663 C 43.406 216.242,49.611 216.201,49.751 216.620 C 49.812 216.804,50.248 216.954,50.720 216.954 C 51.192 216.954,51.661 217.089,51.763 217.254 C 51.865 217.419,52.417 217.554,52.990 217.554 C 53.805 217.554,54.233 217.783,54.954 218.605 C 55.461 219.182,56.065 219.655,56.295 219.655 C 56.526 219.655,56.714 219.790,56.714 219.955 C 56.714 220.740,59.704 220.255,61.350 219.202 C 62.256 218.622,63.170 218.183,63.381 218.226 C 63.593 218.269,63.732 218.136,63.691 217.929 C 63.650 217.723,63.814 217.554,64.057 217.554 C 64.620 217.554,66.615 216.438,67.211 215.790 C 67.752 215.201,70.029 214.075,71.193 213.822 C 71.647 213.723,72.018 213.510,72.018 213.348 C 72.018 213.186,72.423 213.053,72.918 213.053 C 73.413 213.053,73.818 212.918,73.818 212.753 C 73.818 212.588,74.460 212.450,75.244 212.446 C 77.208 212.437,79.272 210.585,78.347 209.660 C 78.167 209.480,78.020 208.424,78.020 207.313 C 78.020 205.919,77.880 205.155,77.569 204.844 C 77.322 204.597,77.119 204.270,77.119 204.119 C 77.119 203.968,76.849 203.600,76.519 203.301 C 76.189 203.002,75.919 202.486,75.919 202.154 C 75.919 201.822,75.851 201.618,75.769 201.701 C 75.686 201.783,74.919 201.198,74.065 200.400 C 73.211 199.603,72.401 198.950,72.265 198.950 C 72.129 198.950,72.018 198.815,72.018 198.650 C 72.018 198.485,72.229 198.350,72.486 198.350 C 72.743 198.350,72.870 198.485,72.768 198.650 C 72.666 198.815,72.793 198.950,73.051 198.950 C 73.308 198.950,73.518 199.059,73.518 199.192 C 73.518 199.325,74.055 199.671,74.710 199.960 C 75.366 200.249,76.277 200.883,76.735 201.368 C 77.193 201.854,77.804 202.251,78.094 202.251 C 78.383 202.251,78.620 202.386,78.620 202.551 C 78.620 202.716,78.809 202.851,79.041 202.851 C 79.702 202.851,81.913 204.120,81.740 204.400 C 81.655 204.538,81.781 204.651,82.021 204.651 C 82.260 204.651,82.534 204.854,82.629 205.101 C 83.076 206.266,84.321 205.160,84.321 203.599 C 84.321 202.706,84.030 202.359,82.498 201.422 C 81.374 200.735,79.820 199.396,79.820 199.114 C 79.820 199.024,80.563 198.950,81.470 198.950 C 82.921 198.950,83.121 198.877,83.121 198.350 C 83.121 197.883,83.321 197.749,84.021 197.749 C 84.839 197.749,84.920 197.660,84.912 196.774 C 84.900 195.571,84.312 194.749,83.463 194.749 C 83.089 194.749,82.821 194.559,82.821 194.294 C 82.821 193.550,81.125 193.841,80.687 194.661 C 80.265 195.449,77.894 195.650,76.834 194.988 C 76.377 194.703,76.095 194.714,75.487 195.039 C 74.568 195.531,74.490 196.401,75.319 196.919 C 76.085 197.397,76.086 197.749,75.321 197.749 C 74.993 197.749,74.555 197.479,74.349 197.149 C 74.069 196.702,73.649 196.549,72.696 196.549 C 71.618 196.549,71.418 196.643,71.418 197.149 C 71.418 197.514,71.618 197.749,71.928 197.749 C 72.334 197.749,72.362 197.825,72.066 198.122 C 71.828 198.360,71.616 198.387,71.480 198.197 C 71.083 197.641,69.929 197.149,69.021 197.149 C 68.524 197.149,68.117 197.014,68.117 196.849 C 68.117 196.684,67.577 196.549,66.917 196.549 C 66.257 196.549,65.716 196.448,65.715 196.324 C 65.715 196.200,64.974 195.761,64.069 195.349 C 62.606 194.682,61.679 193.848,62.400 193.848 C 62.546 193.848,62.711 193.985,62.767 194.152 C 62.822 194.318,63.172 194.513,63.543 194.585 C 63.914 194.656,64.387 194.823,64.592 194.954 C 65.462 195.512,67.023 195.891,67.481 195.655 C 67.748 195.518,69.014 195.163,70.293 194.867 C 71.572 194.571,72.618 194.220,72.618 194.088 C 72.618 193.956,73.350 193.848,74.244 193.848 C 75.138 193.848,75.914 193.719,75.969 193.561 C 76.024 193.402,77.774 193.254,79.895 193.229 L 83.721 193.184 83.721 192.316 C 83.721 191.648,83.859 191.448,84.321 191.448 C 84.807 191.448,84.921 191.248,84.921 190.398 C 84.921 189.820,85.072 189.347,85.256 189.347 C 85.444 189.347,85.522 189.083,85.434 188.747 C 85.288 188.187,85.425 188.147,87.514 188.147 C 89.499 188.147,89.834 188.063,90.500 187.397 C 90.913 186.984,91.379 186.647,91.537 186.647 C 91.917 186.647,91.906 185.533,91.523 185.296 C 91.358 185.194,91.223 184.849,91.223 184.528 C 91.223 184.208,91.113 183.946,90.978 183.946 C 90.644 183.946,89.422 181.731,89.422 181.125 C 89.422 180.857,89.259 180.375,89.059 180.055 C 88.507 179.172,88.929 179.046,90.146 179.730 C 90.748 180.068,91.482 180.345,91.776 180.345 C 92.070 180.345,93.011 180.683,93.866 181.095 C 94.721 181.508,95.684 181.845,96.005 181.845 C 96.326 181.845,96.671 181.978,96.771 182.141 C 96.872 182.303,97.275 182.410,97.668 182.377 C 98.060 182.345,98.316 182.212,98.235 182.082 C 98.155 181.952,98.435 181.845,98.857 181.845 C 99.698 181.845,100.026 180.257,99.250 179.944 C 99.044 179.860,99.169 179.782,99.530 179.769 C 99.929 179.754,100.257 179.973,100.370 180.330 C 100.584 181.004,101.287 181.295,102.252 181.109 C 102.753 181.013,102.926 181.121,102.926 181.531 C 102.926 182.106,103.485 182.446,104.433 182.446 C 105.161 182.446,105.415 182.003,105.071 181.333 C 104.920 181.037,104.618 180.390,104.400 179.895 C 104.182 179.400,103.950 178.884,103.884 178.748 C 103.817 178.612,104.047 178.678,104.395 178.895 C 104.901 179.211,105.145 179.215,105.622 178.917 C 105.950 178.712,106.749 178.545,107.398 178.545 C 108.070 178.545,108.635 178.383,108.711 178.170 C 108.804 177.909,109.070 178.001,109.581 178.470 C 110.080 178.928,110.695 179.146,111.497 179.149 C 112.147 179.152,112.543 179.253,112.377 179.374 C 112.211 179.496,112.029 180.000,111.973 180.495 C 111.916 180.990,111.966 181.301,112.085 181.185 C 112.203 181.069,112.496 181.170,112.735 181.410 C 112.975 181.649,113.499 181.845,113.900 181.845 C 114.301 181.845,114.629 181.980,114.629 182.146 C 114.629 182.315,115.473 182.446,116.561 182.446 C 117.624 182.446,118.578 182.581,118.680 182.746 C 118.782 182.911,119.465 183.046,120.198 183.046 C 120.931 183.046,121.530 183.181,121.530 183.346 C 121.530 183.511,122.076 183.646,122.743 183.646 C 123.913 183.646,125.553 184.483,126.121 185.371 C 126.283 185.625,127.215 185.746,128.987 185.746 C 130.508 185.746,131.753 185.886,131.945 186.079 C 132.129 186.262,132.896 186.362,133.656 186.302 C 134.414 186.242,135.034 186.304,135.034 186.441 C 135.034 186.851,135.859 187.547,136.345 187.547 C 136.595 187.547,136.882 187.682,136.984 187.847 C 137.086 188.012,137.972 188.147,138.952 188.147 C 139.933 188.147,140.735 188.266,140.735 188.411 C 140.735 188.556,141.139 188.842,141.633 189.046 C 142.309 189.326,142.612 189.719,142.857 190.628 C 143.221 191.980,143.486 192.298,144.786 192.948 C 146.082 193.596,146.437 194.007,146.437 194.860 C 146.437 195.274,146.572 195.697,146.737 195.799 C 146.902 195.901,147.037 196.372,147.037 196.845 C 147.037 197.319,147.233 197.903,147.473 198.142 C 147.712 198.382,147.825 198.662,147.723 198.764 C 147.620 198.866,147.762 198.950,148.037 198.950 C 148.337 198.950,148.537 199.190,148.537 199.550 C 148.537 199.880,148.672 200.150,148.837 200.150 C 149.002 200.150,149.137 200.295,149.137 200.472 C 149.137 200.868,149.633 201.374,150.713 202.080 C 151.167 202.377,151.538 202.775,151.538 202.964 C 151.538 203.153,151.875 203.562,152.288 203.872 C 152.731 204.205,153.038 204.736,153.038 205.171 C 153.038 205.649,153.244 205.961,153.623 206.060 C 154.132 206.194,154.202 206.467,154.171 208.208 C 154.124 210.804,154.958 212.453,156.318 212.453 C 156.660 212.453,156.939 212.588,156.939 212.753 C 156.939 212.918,157.540 213.053,158.274 213.053 C 159.285 213.053,159.807 213.237,160.426 213.811 C 160.876 214.227,161.558 214.647,161.942 214.743 C 162.589 214.906,162.641 215.072,162.641 216.987 C 162.641 219.044,162.645 219.055,163.468 219.055 C 164.313 219.055,164.359 219.120,165.315 221.621 C 165.869 223.070,167.043 224.156,168.054 224.156 C 168.543 224.156,168.943 224.257,168.945 224.381 C 168.949 224.773,170.522 225.356,171.574 225.356 C 172.131 225.356,172.745 225.529,172.940 225.740 C 173.646 226.505,174.644 228.041,174.644 228.363 C 174.644 228.544,174.750 228.627,174.881 228.546 C 175.011 228.466,175.382 228.795,175.706 229.278 C 176.029 229.761,176.395 230.156,176.519 230.157 C 176.643 230.157,176.744 230.360,176.744 230.608 C 176.744 230.855,176.879 231.058,177.044 231.058 C 177.209 231.058,177.344 231.604,177.344 232.272 C 177.344 233.125,177.545 233.692,178.020 234.181 C 178.391 234.563,178.893 235.165,179.136 235.517 C 179.379 235.870,179.851 236.163,180.186 236.169 C 181.086 236.183,182.385 237.465,182.497 238.450 C 182.622 239.537,183.784 239.842,184.093 238.869 C 184.324 238.141,185.075 238.170,185.782 238.935 C 186.049 239.224,186.674 239.460,187.172 239.460 C 187.825 239.460,188.121 239.627,188.234 240.060 C 188.359 240.539,188.643 240.660,189.637 240.660 C 190.391 240.660,190.810 240.542,190.698 240.360 C 190.584 240.177,191.045 240.060,191.880 240.060 C 192.633 240.060,193.248 239.925,193.248 239.760 C 193.248 239.595,193.788 239.460,194.449 239.460 C 195.109 239.460,195.649 239.595,195.649 239.760 C 195.649 239.925,195.957 240.060,196.333 240.060 C 196.709 240.060,197.211 240.330,197.449 240.660 C 197.687 240.990,198.190 241.260,198.566 241.260 C 198.942 241.260,199.250 241.395,199.250 241.560 C 199.250 241.951,200.359 241.951,200.600 241.560 C 200.704 241.393,202.104 241.260,203.769 241.260 C 205.557 241.260,206.752 241.140,206.752 240.960 C 206.752 240.186,207.325 240.775,207.408 241.635 C 207.501 242.605,207.512 242.611,209.302 242.702 C 210.293 242.752,211.231 242.921,211.388 243.077 C 211.545 243.233,211.916 243.361,212.213 243.361 C 212.510 243.361,212.753 243.496,212.753 243.661 C 212.753 243.826,213.091 243.961,213.503 243.961 C 213.916 243.961,214.254 243.826,214.254 243.661 C 214.254 243.496,214.516 243.361,214.836 243.361 C 215.156 243.361,215.502 243.226,215.604 243.061 C 215.898 242.585,217.291 242.722,218.712 243.367 C 219.432 243.694,220.343 243.961,220.738 243.961 C 221.133 243.961,221.455 244.096,221.455 244.261 C 221.455 244.426,221.860 244.561,222.356 244.561 C 222.851 244.561,223.256 244.426,223.256 244.261 C 223.256 243.746,224.003 243.933,224.456 244.561 C 224.694 244.891,225.061 245.161,225.273 245.161 C 225.484 245.161,225.656 245.296,225.656 245.461 C 225.656 245.853,228.265 245.853,228.507 245.461 C 228.609 245.296,229.697 245.161,230.925 245.161 C 232.214 245.161,233.158 245.288,233.158 245.461 C 233.158 245.626,233.428 245.761,233.758 245.761 C 234.089 245.761,234.359 245.896,234.359 246.062 C 234.359 246.227,234.564 246.362,234.816 246.362 C 235.068 246.362,235.397 246.685,235.547 247.080 C 235.844 247.861,235.648 249.062,235.224 249.062 C 234.790 249.062,234.922 249.913,235.453 250.533 C 235.725 250.850,236.137 251.037,236.370 250.948 C 236.821 250.775,238.860 251.744,238.860 252.131 C 238.860 252.259,239.122 252.363,239.442 252.363 C 239.762 252.363,240.108 252.498,240.210 252.663 C 240.312 252.828,240.666 252.963,240.996 252.963 C 241.370 252.963,241.516 253.092,241.383 253.307 C 241.234 253.548,241.402 253.593,241.944 253.457 C 242.450 253.330,242.873 253.419,243.168 253.713 C 243.716 254.262,244.915 254.290,246.314 253.788 C 247.151 253.488,247.385 253.488,247.486 253.788 C 247.649 254.275,248.667 254.275,248.864 253.788 C 248.982 253.498,249.082 253.507,249.306 253.827 C 249.608 254.258,250.263 254.051,250.263 253.524 C 250.263 252.930,251.134 252.363,252.046 252.363 C 252.555 252.363,253.206 252.243,253.492 252.095 C 254.381 251.639,255.801 251.057,256.081 251.034 C 256.746 250.981,256.988 249.997,256.477 249.431 C 256.195 249.120,255.964 248.688,255.964 248.472 C 255.964 247.927,255.047 247.283,254.256 247.271 C 253.895 247.266,253.515 247.127,253.413 246.962 C 253.311 246.797,253.024 246.662,252.774 246.662 C 252.524 246.662,252.118 246.459,251.870 246.212 C 251.623 245.964,251.092 245.761,250.691 245.761 C 250.290 245.761,249.962 245.645,249.962 245.503 C 249.962 245.360,249.625 245.281,249.212 245.326 C 248.727 245.379,248.462 245.259,248.462 244.985 C 248.462 244.483,251.310 244.371,251.613 244.861 C 251.715 245.026,252.803 245.161,254.031 245.161 C 255.320 245.161,256.264 245.034,256.264 244.861 C 256.264 244.696,256.467 244.561,256.714 244.561 C 256.962 244.561,257.164 244.426,257.164 244.261 C 257.164 244.096,257.426 243.961,257.747 243.961 C 258.067 243.961,258.413 243.826,258.515 243.661 C 258.617 243.496,259.006 243.361,259.380 243.361 C 260.581 243.361,261.495 242.105,260.756 241.472 C 260.427 241.191,260.052 240.960,259.921 240.960 C 259.489 240.960,258.069 241.707,258.067 241.935 C 258.060 242.595,254.205 242.156,254.109 241.485 C 254.019 240.850,253.854 240.805,251.315 240.722 C 249.831 240.674,248.487 240.505,248.329 240.347 C 248.171 240.189,247.694 240.060,247.268 240.060 C 246.838 240.060,246.302 239.793,246.062 239.460 C 245.824 239.130,245.398 238.860,245.115 238.860 C 244.833 238.860,244.516 238.590,244.411 238.260 C 244.215 237.640,242.761 237.376,242.761 237.959 C 242.761 238.125,242.558 238.260,242.311 238.260 C 242.063 238.260,241.860 238.125,241.860 237.959 C 241.860 237.794,241.084 237.655,240.135 237.650 C 238.448 237.641,237.359 237.190,237.359 236.501 C 237.359 236.313,237.089 236.159,236.759 236.159 C 236.420 236.159,236.159 235.959,236.159 235.700 C 236.159 235.447,235.484 234.586,234.659 233.787 C 232.782 231.968,232.813 231.292,234.756 231.630 C 234.892 231.653,234.918 231.534,234.813 231.365 C 234.692 231.169,235.229 231.058,236.291 231.058 C 237.209 231.058,237.959 230.923,237.959 230.758 C 237.959 230.593,238.203 230.458,238.500 230.458 C 239.726 230.458,240.655 229.739,240.658 228.789 C 240.662 227.295,239.722 226.557,237.815 226.557 C 236.924 226.557,236.111 226.422,236.009 226.257 C 235.907 226.092,235.291 225.956,234.641 225.956 C 233.972 225.956,233.458 225.811,233.458 225.622 C 233.458 225.404,233.121 225.359,232.483 225.492 C 230.342 225.939,228.957 226.015,228.957 225.687 C 228.957 225.491,228.355 225.356,227.482 225.356 C 226.670 225.356,225.961 225.255,225.906 225.131 C 225.702 224.671,223.169 223.556,222.327 223.556 C 221.848 223.556,221.455 223.437,221.455 223.291 C 221.455 223.145,221.185 222.955,220.855 222.869 C 220.466 222.767,220.255 222.459,220.255 221.994 C 220.255 221.599,220.086 221.104,219.880 220.894 C 219.579 220.588,219.638 220.403,220.180 219.961 C 220.551 219.657,220.855 219.086,220.855 218.691 C 220.855 217.710,221.519 216.359,222.002 216.356 C 223.058 216.350,223.585 214.829,222.945 213.634 C 222.731 213.234,222.731 213.053,222.945 213.053 C 223.379 213.053,223.333 212.188,222.875 211.729 C 222.155 211.010,221.193 210.653,219.975 210.653 C 219.304 210.653,218.755 210.518,218.755 210.353 C 218.755 209.721,217.302 210.092,216.401 210.953 C 215.538 211.778,215.284 211.853,213.356 211.853 C 212.199 211.853,211.253 211.955,211.253 212.080 C 211.253 212.346,209.821 213.014,208.809 213.219 C 207.066 213.572,204.051 212.256,204.051 211.143 C 204.051 210.873,203.916 210.653,203.751 210.653 C 203.586 210.653,203.451 210.045,203.451 209.302 C 203.451 208.560,203.316 207.952,203.151 207.952 C 202.986 207.952,202.851 207.682,202.851 207.352 C 202.851 207.022,202.716 206.752,202.551 206.752 C 202.386 206.752,202.251 206.077,202.251 205.251 C 202.251 204.426,202.131 203.751,201.985 203.751 C 201.840 203.751,201.650 203.482,201.564 203.152 C 201.478 202.823,201.158 202.459,200.854 202.344 C 200.549 202.229,200.122 201.958,199.904 201.743 C 199.686 201.527,199.146 201.273,198.704 201.177 C 196.844 200.775,195.587 199.550,196.280 198.815 C 196.643 198.430,196.621 196.943,196.241 196.234 C 196.071 195.917,195.885 195.020,195.827 194.240 C 195.768 193.460,195.569 192.772,195.385 192.710 C 195.200 192.649,195.049 192.204,195.049 191.723 C 195.049 191.242,194.914 190.848,194.749 190.848 C 194.584 190.848,194.449 190.443,194.449 189.947 C 194.449 189.452,194.314 189.047,194.149 189.047 C 193.983 189.047,193.848 188.575,193.848 187.997 C 193.848 187.147,193.734 186.947,193.248 186.947 C 192.918 186.947,192.648 187.082,192.648 187.247 C 192.648 187.670,190.742 187.621,190.308 187.187 C 190.110 186.989,189.947 186.584,189.947 186.287 C 189.947 185.989,189.752 185.746,189.513 185.746 C 189.274 185.746,188.714 185.409,188.269 184.996 C 187.582 184.360,187.170 184.246,185.553 184.246 C 184.050 184.246,183.646 184.150,183.646 183.792 C 183.646 183.542,183.527 183.103,183.381 182.817 C 183.235 182.530,182.942 181.924,182.730 181.470 C 182.422 180.813,182.141 180.645,181.345 180.645 C 180.402 180.645,180.345 180.585,180.345 179.595 C 180.345 178.628,180.274 178.545,179.445 178.545 C 178.664 178.545,178.544 178.435,178.539 177.719 C 178.535 177.029,178.168 176.649,176.291 175.394 C 175.057 174.569,174.046 173.792,174.045 173.668 C 174.044 173.545,173.781 173.443,173.461 173.443 C 173.141 173.443,172.795 173.308,172.693 173.143 C 172.591 172.978,172.111 172.843,171.625 172.843 C 170.943 172.843,170.743 172.707,170.743 172.243 C 170.743 171.913,170.608 171.643,170.443 171.643 C 170.278 171.643,170.143 171.111,170.143 170.460 C 170.143 169.810,170.008 169.194,169.842 169.092 C 169.677 168.990,169.542 168.333,169.542 167.631 C 169.542 166.561,169.397 166.247,168.642 165.689 C 167.852 165.105,167.742 164.841,167.742 163.532 C 167.742 162.141,167.691 162.041,166.992 162.041 C 166.492 162.041,166.242 161.874,166.242 161.540 C 166.242 161.265,166.154 161.128,166.046 161.236 C 165.549 161.733,165.060 160.247,165.051 158.215 L 165.041 156.039 166.242 156.039 C 166.902 156.039,167.442 155.904,167.442 155.739 C 167.442 155.574,167.839 155.439,168.324 155.439 C 168.810 155.439,169.290 155.574,169.392 155.739 C 169.501 155.914,171.196 156.039,173.461 156.039 C 175.850 156.039,177.344 156.154,177.344 156.339 C 177.344 156.504,177.809 156.639,178.377 156.639 C 178.945 156.639,179.493 156.504,179.595 156.339 C 179.697 156.174,180.102 156.039,180.495 156.039 C 180.888 156.039,181.293 155.904,181.395 155.739 C 181.497 155.574,182.586 155.439,183.814 155.439 C 185.102 155.439,186.047 155.312,186.047 155.139 C 186.047 154.974,186.220 154.839,186.431 154.839 C 187.058 154.839,187.702 152.200,187.321 151.191 C 187.132 150.689,187.112 150.271,187.273 150.171 C 187.646 149.941,187.622 147.937,187.247 147.937 C 187.082 147.937,186.947 147.675,186.947 147.355 C 186.947 147.034,186.812 146.689,186.647 146.587 C 186.482 146.485,186.347 146.160,186.347 145.865 C 186.347 145.234,185.381 144.036,184.872 144.036 C 184.359 144.036,183.046 142.643,183.046 142.099 C 183.046 141.844,182.742 141.332,182.371 140.960 C 181.999 140.589,181.695 140.197,181.695 140.089 C 181.695 139.347,177.172 135.634,176.267 135.634 C 175.724 135.634,175.196 135.499,175.094 135.334 C 174.992 135.169,174.182 135.034,173.293 135.034 C 172.405 135.034,171.595 135.169,171.493 135.334 C 171.391 135.499,170.640 135.634,169.825 135.634 C 169.009 135.634,168.342 135.499,168.342 135.334 C 168.342 135.169,167.836 135.029,167.217 135.024 C 165.887 135.013,165.297 134.611,164.793 133.375 C 164.444 132.517,164.331 132.466,162.782 132.474 C 161.879 132.479,161.138 132.348,161.135 132.183 C 161.129 131.861,158.520 130.533,157.893 130.533 C 157.685 130.533,157.224 130.263,156.870 129.932 C 156.516 129.602,156.049 129.332,155.832 129.332 C 155.616 129.332,155.439 129.188,155.439 129.011 C 155.439 128.559,154.660 127.832,154.177 127.832 C 153.954 127.832,153.541 127.562,153.258 127.232 C 152.905 126.820,152.373 126.632,151.559 126.632 C 150.906 126.632,150.290 126.497,150.188 126.332 C 150.086 126.167,149.200 126.032,148.219 126.032 C 147.239 126.032,146.436 125.930,146.434 125.806 C 146.431 125.454,144.899 124.831,144.036 124.831 C 143.607 124.831,143.128 124.712,142.971 124.567 C 142.369 124.011,139.235 123.210,139.235 123.613 C 139.235 124.093,138.036 124.181,137.778 123.720 C 137.556 123.323,137.499 123.329,137.331 123.769 C 137.191 124.131,136.951 124.213,136.475 124.062 C 135.546 123.767,134.774 122.967,135.261 122.805 C 135.469 122.736,135.634 122.187,135.634 121.565 C 135.634 120.428,136.202 118.836,136.609 118.832 C 136.733 118.831,136.834 117.277,136.834 115.379 C 136.834 113.278,136.717 111.928,136.534 111.928 C 136.369 111.928,136.234 111.725,136.234 111.478 C 136.234 111.230,136.369 111.028,136.534 111.028 C 136.699 111.028,136.834 110.410,136.834 109.656 C 136.834 108.284,136.352 107.427,135.579 107.427 C 134.878 107.427,131.669 104.120,130.871 102.574 C 130.644 102.135,130.195 101.707,129.873 101.623 C 129.551 101.539,129.215 101.190,129.125 100.847 C 129.036 100.505,128.869 100.225,128.756 100.225 C 128.642 100.225,127.708 99.415,126.681 98.425 C 124.819 96.631,123.141 96.017,122.581 96.924 C 122.479 97.089,121.998 97.224,121.513 97.224 C 121.027 97.224,120.630 97.089,120.630 96.924 C 120.630 96.759,120.225 96.624,119.730 96.624 C 119.235 96.624,118.829 96.523,118.828 96.399 C 118.828 96.275,118.422 95.743,117.928 95.215 C 117.434 94.688,117.029 94.104,117.029 93.918 C 117.029 93.490,116.273 92.723,115.850 92.723 C 115.674 92.723,115.529 92.588,115.529 92.423 C 115.529 92.258,115.210 92.123,114.820 92.123 C 114.224 92.123,114.135 92.003,114.257 91.362 C 114.422 90.498,113.630 89.422,112.828 89.422 C 112.549 89.422,112.077 89.152,111.778 88.822 C 111.394 88.397,110.854 88.222,109.931 88.222 C 109.214 88.222,108.627 88.087,108.627 87.922 C 108.627 87.757,108.164 87.622,107.597 87.622 C 106.463 87.622,106.311 87.380,106.186 85.371 C 106.087 83.802,105.377 83.121,103.839 83.121 C 103.171 83.121,102.626 82.986,102.626 82.821 C 102.626 82.177,98.683 82.464,98.512 83.121 C 98.399 83.549,98.102 83.721,97.472 83.721 C 96.900 83.721,96.661 83.603,96.795 83.387 C 97.138 82.833,96.274 82.530,94.335 82.525 C 93.071 82.522,92.380 82.380,92.123 82.071 C 91.918 81.823,91.852 81.620,91.977 81.620 C 92.284 81.620,90.963 80.651,89.979 80.153 C 89.542 79.933,88.897 79.362,88.544 78.886 C 88.088 78.269,87.647 78.020,87.013 78.020 C 86.430 78.020,86.122 77.867,86.122 77.580 C 86.122 77.095,85.292 76.551,84.609 76.589 C 83.567 76.647,83.244 76.467,82.869 75.619 C 82.650 75.124,82.337 74.719,82.174 74.719 C 81.856 74.719,81.020 73.973,81.020 73.690 C 81.020 73.596,81.423 73.518,81.915 73.518 C 83.181 73.518,83.538 72.190,82.489 71.383 C 81.581 70.685,79.820 70.621,79.820 71.286 C 79.820 71.543,79.685 71.670,79.520 71.568 C 78.898 71.183,79.249 72.605,79.887 73.051 L 80.554 73.518 79.754 73.518 C 79.315 73.518,78.872 73.383,78.770 73.218 C 78.668 73.053,77.864 72.918,76.984 72.918 C 75.845 72.918,75.334 72.790,75.212 72.473 C 75.101 72.184,74.736 72.063,74.177 72.128 C 73.701 72.183,73.063 72.046,72.758 71.823 C 72.392 71.556,71.309 71.418,69.578 71.418 C 68.134 71.418,66.869 71.283,66.767 71.118 C 66.665 70.953,66.260 70.818,65.866 70.818 C 65.473 70.818,65.077 70.698,64.987 70.551 C 64.896 70.404,64.348 70.201,63.769 70.101 C 63.190 70.000,62.243 69.835,61.665 69.735 C 61.088 69.634,60.615 69.431,60.615 69.284 C 60.615 69.138,60.143 69.017,59.565 69.017 C 58.987 69.017,58.515 68.882,58.515 68.717 C 58.515 68.552,58.126 68.417,57.651 68.417 C 57.176 68.417,56.634 68.231,56.445 68.004 C 56.257 67.777,55.494 67.421,54.750 67.213 C 54.006 67.005,53.326 66.718,53.238 66.575 C 53.150 66.433,52.756 66.317,52.363 66.317 C 51.970 66.317,51.565 66.182,51.463 66.017 C 51.361 65.851,50.880 65.716,50.395 65.716 C 49.910 65.716,49.512 65.581,49.512 65.416 C 49.512 65.251,49.107 65.116,48.612 65.116 C 48.117 65.116,47.712 64.981,47.712 64.816 C 47.712 64.651,47.176 64.516,46.521 64.516 C 45.616 64.516,45.369 64.414,45.494 64.090 C 45.885 63.071,43.855 61.815,41.816 61.815 C 40.110 61.815,39.910 61.752,39.910 61.215 C 39.910 60.749,39.710 60.615,39.010 60.615 C 38.515 60.615,38.110 60.480,38.110 60.315 C 38.110 60.150,37.839 60.015,37.509 60.015 C 37.179 60.015,36.909 59.880,36.909 59.715 C 36.909 59.550,36.572 59.415,36.159 59.415 C 35.746 59.415,35.409 59.280,35.409 59.115 C 35.409 58.950,35.139 58.815,34.809 58.815 C 34.475 58.815,34.209 58.615,34.209 58.365 C 34.209 58.117,34.004 57.914,33.754 57.914 C 33.026 57.914,30.908 57.190,30.908 56.941 C 30.908 56.816,30.646 56.714,30.325 56.714 C 30.005 56.714,29.659 56.579,29.557 56.414 C 29.455 56.249,29.063 56.114,28.686 56.114 C 28.309 56.114,27.756 55.844,27.457 55.514 C 27.158 55.184,26.732 54.914,26.510 54.914 C 26.288 54.914,26.107 54.779,26.107 54.614 C 26.107 54.449,25.783 54.314,25.388 54.314 C 24.993 54.314,24.600 54.129,24.513 53.904 C 24.303 53.355,18.329 52.589,17.867 53.051 M286.938 53.280 C 286.529 53.567,286.272 54.061,286.272 54.558 C 286.272 55.045,286.031 55.520,285.671 55.744 C 284.832 56.268,284.770 60.220,285.596 60.533 C 286.408 60.840,286.872 61.411,286.872 62.104 C 286.872 63.299,288.458 64.488,289.461 64.045 C 289.935 63.836,290.200 63.654,290.051 63.640 C 289.902 63.627,290.017 63.353,290.308 63.032 C 291.028 62.236,290.385 60.615,289.349 60.615 C 288.717 60.615,288.672 60.488,288.672 58.690 C 288.672 57.431,288.542 56.712,288.297 56.612 C 288.012 56.496,288.027 56.387,288.358 56.157 C 288.597 55.990,288.894 55.916,289.018 55.992 C 289.403 56.230,289.679 54.000,289.310 53.631 C 289.124 53.445,288.972 53.397,288.972 53.525 C 288.972 53.652,288.760 53.544,288.501 53.285 C 287.915 52.699,287.769 52.699,286.938 53.280 M259.737 60.879 C 259.648 61.024,259.100 61.368,258.519 61.643 C 257.494 62.129,257.039 63.318,257.718 63.737 C 258.100 63.973,260.175 63.575,260.004 63.298 C 259.922 63.165,260.228 63.230,260.685 63.443 C 262.383 64.232,264.203 63.905,264.310 62.791 C 264.389 61.975,264.303 61.815,263.785 61.815 C 263.444 61.815,263.166 61.680,263.166 61.515 C 263.166 61.350,262.896 61.215,262.566 61.215 C 262.236 61.215,261.965 61.080,261.965 60.915 C 261.965 60.546,259.963 60.513,259.737 60.879 M300.900 64.326 C 298.924 65.856,302.007 70.354,304.402 69.435 C 304.930 69.232,305.112 66.017,304.595 66.017 C 304.441 66.017,304.272 65.578,304.220 65.041 C 304.113 63.930,301.999 63.475,300.900 64.326 M93.523 67.717 C 92.687 68.553,93.353 70.218,94.524 70.218 C 95.657 70.218,95.724 70.168,95.724 69.317 C 95.724 68.822,95.589 68.417,95.424 68.417 C 95.259 68.417,95.124 68.215,95.124 67.967 C 95.124 67.513,93.916 67.324,93.523 67.717 M349.887 69.017 C 349.887 69.363,350.088 69.617,350.359 69.617 C 350.921 69.617,351.387 70.074,351.964 71.193 C 352.198 71.647,352.502 72.018,352.639 72.018 C 352.776 72.018,352.888 72.222,352.888 72.472 C 352.888 73.517,354.263 75.319,355.060 75.319 C 355.682 75.319,355.680 73.354,355.057 72.953 C 354.899 72.851,354.675 72.465,354.559 72.095 C 354.444 71.724,354.184 71.252,353.982 71.045 C 353.781 70.837,353.378 70.161,353.088 69.542 C 352.453 68.189,349.887 67.768,349.887 69.017 M318.690 72.598 C 318.519 72.918,318.380 73.390,318.380 73.649 C 318.380 73.966,318.100 74.119,317.514 74.119 C 316.878 74.119,316.604 74.291,316.479 74.771 C 316.262 75.599,316.462 75.919,317.197 75.919 C 317.517 75.919,317.779 76.054,317.779 76.219 C 317.779 76.384,318.121 76.519,318.539 76.519 C 319.436 76.519,319.820 75.771,319.327 74.983 C 318.788 74.119,318.892 74.028,320.180 74.234 L 321.380 74.426 321.380 73.222 C 321.380 71.808,319.364 71.340,318.690 72.598 M106.227 76.199 C 106.227 77.026,106.320 77.119,107.147 77.119 C 108.446 77.119,108.359 75.524,107.052 75.374 C 106.310 75.289,106.227 75.372,106.227 76.199 M328.732 87.922 C 328.630 88.087,328.214 88.222,327.808 88.222 C 327.313 88.222,326.957 88.467,326.731 88.963 C 326.546 89.370,326.287 89.638,326.156 89.557 C 326.026 89.476,325.985 89.774,326.066 90.220 C 326.242 91.191,327.211 92.104,327.920 91.967 C 328.202 91.913,328.601 91.859,328.807 91.846 C 329.041 91.832,329.182 91.371,329.182 90.623 C 329.182 89.397,329.403 89.163,329.996 89.756 C 330.527 90.286,330.983 89.777,330.983 88.654 C 330.983 87.603,329.273 87.047,328.732 87.922 M116.429 89.885 C 116.429 91.744,119.066 93.072,119.384 91.373 C 119.446 91.043,119.685 90.664,119.915 90.532 C 120.839 90.000,119.436 88.842,117.854 88.832 L 116.429 88.822 116.429 89.885 M298.875 90.840 C 298.396 91.022,297.887 91.728,297.787 92.350 C 297.754 92.557,297.841 92.656,297.979 92.570 C 298.118 92.484,298.275 92.720,298.328 93.094 C 298.442 93.895,300.276 94.261,300.714 93.571 C 301.656 92.086,300.422 90.255,298.875 90.840 M291.419 91.483 C 291.063 91.791,290.773 92.196,290.773 92.383 C 290.773 92.570,290.435 92.723,290.023 92.723 C 289.610 92.723,289.272 92.579,289.272 92.403 C 289.272 92.227,288.901 92.126,288.447 92.178 C 287.593 92.276,286.940 94.524,287.766 94.524 C 287.978 94.524,287.958 94.672,287.709 94.939 C 287.357 95.318,286.229 95.318,285.617 94.940 C 285.482 94.857,285.371 94.514,285.371 94.178 C 285.371 93.820,285.123 93.502,284.771 93.410 C 284.441 93.324,284.171 93.134,284.171 92.988 C 284.171 92.842,283.293 92.723,282.221 92.723 C 281.056 92.723,280.270 92.596,280.270 92.407 C 280.270 92.208,279.386 92.113,277.869 92.150 L 275.469 92.208 275.469 94.566 C 275.469 95.938,275.594 96.924,275.769 96.924 C 275.934 96.924,276.069 97.174,276.069 97.480 C 276.069 97.785,276.474 98.459,276.969 98.978 C 277.623 99.662,277.869 100.211,277.869 100.985 C 277.869 101.570,278.135 102.416,278.459 102.863 C 278.909 103.483,279.062 104.226,279.103 106.002 C 279.133 107.281,279.273 108.327,279.414 108.327 C 279.774 108.327,279.732 109.062,279.322 109.963 C 278.914 110.858,278.434 110.918,277.253 110.220 C 276.446 109.743,276.359 109.743,275.832 110.220 C 275.180 110.810,274.667 110.873,274.503 110.381 C 274.274 109.694,271.892 109.897,271.401 110.645 C 271.155 111.020,270.746 111.328,270.493 111.328 C 270.240 111.328,270.116 111.463,270.218 111.628 C 270.320 111.793,270.147 111.928,269.833 111.928 C 269.520 111.928,268.764 112.468,268.153 113.128 C 267.542 113.788,266.913 114.329,266.755 114.329 C 266.596 114.329,266.467 114.516,266.467 114.746 C 266.467 114.976,266.129 115.248,265.716 115.352 C 265.304 115.456,264.966 115.740,264.966 115.985 C 264.966 116.229,264.847 116.429,264.701 116.429 C 264.555 116.429,264.354 116.665,264.254 116.954 C 263.394 119.442,263.174 120.348,263.170 121.435 C 263.167 122.398,263.034 122.732,262.601 122.869 C 262.291 122.968,261.717 123.327,261.326 123.667 C 260.713 124.200,260.602 124.219,260.517 123.804 C 260.464 123.540,260.295 123.401,260.142 123.495 C 259.990 123.589,259.865 123.539,259.865 123.384 C 259.865 123.228,259.587 123.028,259.248 122.939 C 258.507 122.746,256.869 123.611,256.866 124.198 C 256.860 125.574,255.054 125.718,254.065 124.422 C 253.370 123.510,252.989 123.323,250.900 122.863 C 250.673 122.814,250.268 122.883,250.000 123.017 C 249.732 123.151,249.145 123.433,248.695 123.642 C 248.246 123.852,247.385 124.476,246.782 125.028 C 245.691 126.027,244.764 126.302,244.411 125.731 C 244.309 125.566,243.968 125.431,243.654 125.431 C 243.005 125.431,242.333 124.395,242.574 123.767 C 242.662 123.538,242.609 123.272,242.456 123.178 C 240.699 122.092,240.789 116.429,242.563 116.429 C 244.053 116.429,245.088 113.998,244.012 113.025 C 243.259 112.343,239.460 112.304,239.460 112.978 C 239.460 113.226,239.325 113.428,239.160 113.428 C 238.995 113.428,238.860 114.077,238.860 114.869 C 238.860 115.661,238.703 116.465,238.512 116.656 C 238.249 116.920,238.258 117.116,238.549 117.467 C 238.989 117.996,238.514 118.830,237.773 118.830 C 237.545 118.830,237.359 119.055,237.359 119.330 C 237.359 119.605,237.271 119.742,237.164 119.634 C 236.946 119.417,236.159 120.783,236.159 121.378 C 236.159 121.586,236.360 121.924,236.606 122.128 C 236.852 122.332,236.987 122.604,236.908 122.733 C 236.828 122.862,236.972 123.048,237.227 123.146 C 238.422 123.605,236.734 124.812,234.884 124.822 C 233.935 124.827,233.158 124.966,233.158 125.131 C 233.158 125.296,233.014 125.431,232.837 125.431 C 232.421 125.431,231.658 124.668,231.658 124.252 C 231.658 123.794,231.176 123.855,230.651 124.381 C 230.403 124.629,229.954 124.833,229.654 124.836 C 228.885 124.842,226.745 125.616,226.643 125.925 C 226.596 126.066,225.664 126.136,224.572 126.079 C 223.193 126.008,222.648 126.077,222.789 126.304 C 222.924 126.522,222.534 126.632,221.623 126.632 C 220.871 126.632,220.255 126.497,220.255 126.332 C 220.255 126.167,220.053 126.032,219.805 126.032 C 219.557 126.032,219.355 125.921,219.355 125.786 C 219.355 125.650,218.685 125.358,217.867 125.135 C 217.049 124.912,216.320 124.576,216.249 124.389 C 216.038 123.839,213.573 123.121,213.425 123.565 C 213.358 123.766,213.011 123.936,212.653 123.942 C 212.296 123.948,211.611 124.273,211.131 124.665 C 210.233 125.399,209.384 125.275,208.770 124.319 C 208.344 123.657,205.498 123.948,204.685 124.736 C 203.820 125.577,203.451 125.618,203.451 124.874 C 203.451 124.512,202.950 124.058,202.026 123.580 L 200.600 122.844 199.475 123.440 C 198.856 123.768,198.350 124.215,198.350 124.434 C 198.350 124.652,198.215 124.831,198.050 124.831 C 197.884 124.831,197.749 125.260,197.749 125.785 C 197.749 126.310,197.587 127.188,197.389 127.736 C 196.594 129.935,198.824 132.933,201.256 132.933 C 201.662 132.933,202.182 133.102,202.412 133.308 C 203.675 134.441,204.268 134.568,204.871 133.833 C 205.153 133.489,205.297 133.470,205.483 133.750 C 205.617 133.952,206.261 134.228,206.914 134.364 C 207.568 134.499,208.119 134.773,208.140 134.972 C 208.160 135.171,208.194 135.536,208.215 135.784 C 208.258 136.308,209.752 136.418,209.752 135.897 C 209.752 135.665,209.892 135.676,210.203 135.934 C 210.450 136.139,210.653 136.561,210.653 136.871 C 210.653 137.270,210.869 137.434,211.394 137.434 C 212.284 137.434,213.990 138.353,215.098 139.428 C 215.541 139.859,215.726 140.112,215.508 139.992 C 215.207 139.826,215.135 140.017,215.207 140.779 C 215.301 141.755,216.954 142.584,216.954 141.655 C 216.954 141.479,217.372 141.335,217.883 141.335 C 218.559 141.335,218.854 141.172,218.968 140.735 C 219.085 140.286,219.377 140.135,220.126 140.135 C 220.677 140.135,221.475 139.977,221.899 139.783 C 222.490 139.514,222.755 139.514,223.024 139.783 C 223.217 139.977,223.760 140.135,224.230 140.135 C 225.078 140.135,226.460 141.201,226.625 141.983 C 226.670 142.196,227.004 142.616,227.368 142.914 C 227.732 143.213,227.959 143.641,227.873 143.865 C 227.507 144.820,229.443 145.236,234.255 145.236 C 237.125 145.236,238.860 145.349,238.860 145.536 C 238.860 145.701,239.189 145.836,239.592 145.836 C 239.995 145.836,240.408 145.701,240.510 145.536 C 240.612 145.371,241.160 145.236,241.728 145.236 C 242.296 145.236,242.761 145.101,242.761 144.936 C 242.761 144.546,243.870 144.546,244.111 144.936 C 244.608 145.740,249.488 145.273,251.029 144.275 C 251.845 143.747,252.584 143.308,252.670 143.300 C 252.757 143.292,253.153 142.982,253.552 142.611 C 254.316 141.899,254.504 141.836,255.589 141.924 C 255.960 141.954,256.264 141.834,256.264 141.657 C 256.264 141.480,256.716 141.335,257.268 141.335 C 258.472 141.335,259.265 140.568,259.265 139.402 C 259.265 138.592,259.287 138.580,259.975 139.031 C 260.498 139.374,260.772 139.408,261.020 139.160 C 261.205 138.975,262.135 138.796,263.086 138.762 C 264.038 138.728,264.985 138.686,265.191 138.668 C 265.398 138.650,265.566 138.365,265.566 138.035 C 265.566 137.634,265.766 137.434,266.167 137.434 C 266.497 137.434,266.767 137.299,266.767 137.134 C 266.767 136.969,267.177 136.834,267.679 136.834 C 268.345 136.834,268.892 136.522,269.704 135.678 C 270.317 135.042,271.192 134.431,271.651 134.320 C 272.715 134.062,273.598 133.177,273.852 132.116 C 274.128 130.964,274.527 130.533,275.319 130.533 C 275.691 130.533,276.162 130.332,276.366 130.086 C 276.570 129.840,276.857 129.713,277.003 129.803 C 277.150 129.894,277.269 129.576,277.269 129.096 C 277.269 128.215,276.716 127.535,275.619 127.067 C 275.106 126.848,275.166 126.795,276.032 126.699 C 276.590 126.638,277.190 126.733,277.367 126.910 C 277.774 127.316,279.670 127.334,279.670 126.932 C 279.670 126.322,281.718 126.595,281.920 127.232 C 282.182 128.055,284.319 128.055,285.371 127.232 C 285.784 126.909,286.560 126.642,287.097 126.638 C 287.633 126.635,288.072 126.487,288.072 126.310 C 288.072 125.932,288.968 124.972,288.982 125.335 C 288.987 125.470,289.156 125.375,289.357 125.124 C 289.558 124.872,289.982 124.669,290.298 124.673 C 291.572 124.690,292.570 120.748,291.598 119.538 C 290.685 118.402,289.343 117.029,289.146 117.029 C 288.574 117.029,288.072 116.049,288.072 114.932 C 288.072 114.183,287.953 113.766,287.772 113.878 C 287.607 113.980,287.472 113.853,287.472 113.596 C 287.472 113.203,287.960 113.128,290.532 113.128 C 293.747 113.128,295.874 112.319,295.874 111.097 C 295.874 110.850,296.125 110.430,296.431 110.163 C 297.963 108.828,299.113 102.879,297.974 102.176 C 297.809 102.074,297.674 101.323,297.674 100.507 C 297.674 99.692,297.809 99.025,297.974 99.025 C 298.140 99.025,298.275 98.732,298.275 98.373 C 298.275 98.015,298.496 97.477,298.766 97.179 C 299.573 96.287,298.807 95.684,296.950 95.747 C 296.111 95.776,294.951 95.627,294.374 95.416 C 293.796 95.205,293.121 94.959,292.873 94.868 C 292.616 94.774,292.841 94.656,293.398 94.594 C 293.935 94.535,294.389 94.325,294.407 94.130 C 294.616 91.890,292.802 90.283,291.419 91.483 M339.599 96.810 C 339.204 97.205,339.379 97.977,340.105 99.045 C 340.603 99.778,340.776 100.360,340.667 100.932 C 340.553 101.526,340.685 101.924,341.135 102.343 C 341.886 103.043,343.286 103.130,343.286 102.476 C 343.286 102.228,343.421 102.026,343.586 102.026 C 344.642 102.026,343.387 99.552,342.092 99.081 C 341.502 98.867,341.347 98.600,341.342 97.793 C 341.335 96.787,340.239 96.170,339.599 96.810 M138.777 101.549 C 136.399 104.029,137.193 107.427,140.150 107.427 C 140.802 107.427,141.335 107.301,141.335 107.147 C 141.335 106.993,141.605 106.781,141.935 106.677 C 142.356 106.543,142.536 106.223,142.536 105.606 C 142.536 105.122,142.671 104.726,142.836 104.726 C 143.001 104.726,143.136 104.186,143.136 103.526 C 143.136 102.866,143.001 102.326,142.836 102.326 C 142.671 102.326,142.533 102.157,142.530 101.950 C 142.506 100.197,140.299 99.961,138.777 101.549 M225.348 104.054 C 224.883 104.610,224.685 106.006,225.109 105.744 C 225.245 105.660,225.356 105.734,225.356 105.909 C 225.356 106.084,225.821 106.227,226.389 106.227 C 226.957 106.227,227.505 106.362,227.607 106.527 C 227.873 106.957,229.236 105.896,229.248 105.251 C 229.275 103.768,226.341 102.867,225.348 104.054 M145.611 107.276 C 144.813 108.182,145.664 109.827,146.930 109.827 C 147.396 109.827,148.537 108.762,148.537 108.327 C 148.537 107.212,146.357 106.429,145.611 107.276 M217.136 109.102 C 216.458 110.870,217.855 112.061,219.121 110.794 C 220.088 109.828,219.650 108.627,218.331 108.627 C 217.685 108.627,217.253 108.799,217.136 109.102 M266.576 109.676 C 266.481 109.922,266.297 110.058,266.167 109.977 C 265.844 109.778,265.546 110.625,265.751 111.160 C 266.090 112.044,268.267 112.998,268.267 112.263 C 268.267 112.117,268.537 111.927,268.867 111.841 C 269.637 111.640,269.667 110.402,268.919 109.724 C 268.235 109.105,266.806 109.076,266.576 109.676 M350.448 113.387 C 349.482 114.403,348.907 116.939,349.713 116.630 C 350.146 116.464,350.182 116.626,350.008 117.935 C 349.870 118.975,349.915 119.430,350.155 119.430 C 350.356 119.430,350.444 119.734,350.367 120.162 C 350.291 120.577,350.419 121.049,350.661 121.249 C 350.896 121.444,351.088 121.857,351.088 122.167 C 351.088 122.477,351.223 122.731,351.388 122.731 C 351.553 122.731,351.688 123.136,351.688 123.631 C 351.688 124.391,351.805 124.531,352.438 124.531 C 352.851 124.531,353.188 124.375,353.188 124.185 C 353.188 123.995,353.456 124.147,353.782 124.524 C 354.109 124.901,354.303 125.326,354.215 125.470 C 354.126 125.614,354.297 125.736,354.596 125.741 C 355.108 125.749,355.109 125.767,354.614 126.056 C 354.207 126.293,354.089 126.763,354.089 128.147 C 354.089 129.137,353.955 129.932,353.788 129.932 C 353.623 129.932,353.488 130.608,353.488 131.433 C 353.488 132.570,353.598 132.933,353.941 132.933 C 354.301 132.933,354.368 133.241,354.268 134.434 C 354.199 135.259,354.266 135.934,354.416 135.934 C 354.566 135.934,354.689 136.137,354.689 136.384 C 354.689 136.632,354.837 136.834,355.018 136.834 C 355.199 136.834,355.976 137.514,356.744 138.345 C 357.511 139.175,358.473 140.021,358.880 140.224 C 359.299 140.433,359.740 141.013,359.898 141.564 C 360.051 142.098,360.292 142.536,360.434 142.536 C 360.575 142.536,360.690 142.746,360.690 143.003 C 360.690 143.261,360.825 143.388,360.990 143.286 C 361.155 143.184,361.291 143.210,361.292 143.343 C 361.295 143.706,363.052 144.636,363.735 144.636 C 365.324 144.636,366.392 145.764,366.392 147.441 C 366.392 149.072,366.165 149.737,365.609 149.737 C 365.002 149.737,365.086 151.223,365.727 151.803 C 366.634 152.624,368.580 155.139,368.309 155.139 C 368.168 155.139,368.550 155.476,369.157 155.889 C 369.764 156.302,370.388 156.639,370.545 156.639 C 370.701 156.639,370.893 156.808,370.973 157.014 C 371.159 157.499,373.484 158.740,374.204 158.740 C 374.509 158.740,374.842 158.875,374.944 159.040 C 375.492 159.926,379.494 159.368,380.428 158.275 C 381.304 157.249,382.431 156.975,383.084 157.628 C 383.978 158.521,385.596 156.829,385.596 155.002 C 385.596 154.252,385.478 153.638,385.334 153.638 C 385.050 153.638,384.713 152.362,384.517 150.548 C 384.440 149.830,384.117 149.150,383.645 148.713 C 383.233 148.331,382.896 147.797,382.896 147.527 C 382.896 147.258,382.761 147.037,382.596 147.037 C 382.431 147.037,382.296 146.782,382.296 146.471 C 382.296 146.117,381.895 145.715,381.229 145.399 C 380.642 145.120,380.013 144.565,379.830 144.164 C 379.648 143.764,379.273 143.436,378.997 143.436 C 378.485 143.436,377.897 142.539,377.735 141.511 C 377.603 140.672,375.994 140.631,375.994 141.467 C 375.994 142.042,375.973 142.039,375.527 141.402 C 375.047 140.716,374.194 140.490,374.194 141.049 C 374.194 141.221,373.856 141.025,373.443 140.612 C 373.031 140.200,372.693 139.654,372.693 139.398 C 372.693 139.143,372.558 138.935,372.393 138.935 C 372.228 138.935,372.093 138.538,372.093 138.052 C 372.093 137.178,369.818 134.434,369.094 134.434 C 368.928 134.434,368.792 134.299,368.792 134.134 C 368.792 133.968,368.556 133.833,368.267 133.831 C 367.615 133.829,366.392 132.085,366.392 131.158 C 366.392 130.560,366.075 130.045,364.587 128.220 C 364.424 128.020,364.291 127.657,364.291 127.412 C 364.291 127.167,364.156 126.884,363.991 126.782 C 363.826 126.680,363.691 126.334,363.691 126.014 C 363.691 125.483,363.465 125.431,361.140 125.431 C 359.640 125.431,358.590 125.308,358.590 125.131 C 358.590 124.966,358.320 124.831,357.989 124.831 C 357.659 124.831,357.389 124.678,357.389 124.491 C 357.389 123.995,355.827 122.731,355.214 122.731 C 354.507 122.731,354.438 119.890,355.139 119.621 C 355.863 119.343,355.688 117.756,354.839 116.906 C 354.255 116.323,354.089 115.849,354.089 114.771 C 354.089 112.420,352.090 111.660,350.448 113.387 M167.142 117.329 C 167.142 117.494,166.893 117.629,166.588 117.629 C 164.606 117.629,164.420 120.935,166.317 122.444 C 167.018 123.002,167.637 123.565,167.692 123.695 C 167.747 123.825,168.591 123.931,169.567 123.931 C 171.340 123.931,171.343 123.930,171.343 123.031 C 171.343 122.450,171.495 122.131,171.772 122.131 C 172.291 122.131,172.213 120.570,171.686 120.394 C 171.497 120.332,171.343 119.893,171.343 119.420 C 171.343 118.256,169.750 117.029,168.239 117.029 C 167.635 117.029,167.142 117.164,167.142 117.329 M179.061 119.433 C 178.013 120.657,178.711 122.100,180.360 122.121 C 181.346 122.133,181.845 121.619,181.845 120.592 C 181.845 118.973,180.083 118.240,179.061 119.433 M191.448 122.999 C 191.448 124.901,192.451 125.443,193.803 124.271 C 194.458 123.702,194.697 122.431,194.149 122.431 C 193.983 122.431,193.848 122.228,193.848 121.980 C 193.848 121.655,193.515 121.530,192.648 121.530 L 191.448 121.530 191.448 122.999 M184.100 124.307 C 183.774 124.489,183.646 125.065,183.646 126.344 C 183.646 128.176,183.808 128.508,185.648 130.432 C 186.007 130.807,186.387 131.388,186.494 131.723 C 186.638 132.177,186.945 132.333,187.698 132.333 C 188.619 132.333,188.718 132.420,188.803 133.308 C 188.892 134.232,188.961 134.283,190.098 134.276 C 190.758 134.271,191.287 134.136,191.273 133.976 C 191.259 133.815,191.563 133.056,191.948 132.290 C 192.849 130.496,192.902 128.198,192.062 127.363 C 191.025 126.333,190.583 126.032,190.110 126.032 C 189.856 126.032,189.647 125.896,189.647 125.731 C 189.647 125.566,189.266 125.431,188.799 125.431 C 188.281 125.431,187.675 125.137,187.242 124.676 C 186.515 123.902,185.116 123.738,184.100 124.307 M263.642 197.472 C 262.392 198.958,262.552 201.050,263.916 201.050 C 263.998 201.050,264.467 201.050,264.956 201.050 L 265.846 201.050 265.241 202.077 C 264.907 202.641,264.439 203.265,264.200 203.464 C 263.263 204.242,264.084 206.152,265.356 206.152 C 265.668 206.152,265.785 206.315,265.676 206.599 C 265.572 206.869,265.725 207.128,266.060 207.252 C 266.366 207.366,266.718 207.603,266.842 207.780 C 266.993 207.997,267.163 207.955,267.362 207.652 C 267.766 207.036,267.741 206.046,267.311 205.615 C 266.901 205.206,266.957 202.545,267.384 202.116 C 267.760 201.737,267.747 199.935,267.367 199.700 C 267.202 199.598,267.067 198.847,267.067 198.032 L 267.067 196.549 265.743 196.549 C 264.633 196.549,264.294 196.698,263.642 197.472 M78.020 198.050 C 78.020 198.429,77.406 198.429,76.819 198.050 C 76.468 197.823,76.551 197.758,77.194 197.754 C 77.648 197.752,78.020 197.884,78.020 198.050 M86.272 198.650 C 85.799 199.414,86.408 200.492,87.257 200.394 C 88.455 200.256,88.470 198.546,87.275 198.407 C 86.837 198.357,86.385 198.466,86.272 198.650 M297.974 209.752 C 297.974 209.917,297.834 210.053,297.662 210.053 C 296.904 210.053,296.551 210.782,296.864 211.699 C 297.543 213.682,298.650 214.589,299.066 213.503 C 299.163 213.252,299.609 213.053,300.075 213.053 C 300.541 213.053,300.987 213.252,301.084 213.503 C 301.179 213.751,301.476 213.953,301.744 213.953 C 302.012 213.953,302.574 214.224,302.994 214.554 C 303.414 214.884,303.604 215.154,303.416 215.154 C 302.858 215.154,303.019 216.652,303.601 216.868 C 303.890 216.975,304.329 217.284,304.576 217.554 C 305.264 218.306,306.011 218.477,306.494 217.994 C 306.823 217.665,306.959 217.650,307.054 217.932 C 307.141 218.190,307.977 218.305,309.777 218.305 L 312.375 218.305 312.377 217.361 C 312.377 216.824,312.562 216.348,312.805 216.255 C 313.337 216.050,313.085 214.888,312.371 214.254 C 312.092 214.006,311.769 213.502,311.653 213.134 C 311.536 212.766,311.348 212.479,311.235 212.495 C 310.281 212.631,309.379 212.312,308.568 211.551 C 307.624 210.667,307.558 210.653,304.339 210.653 C 301.449 210.653,301.005 210.583,300.525 210.053 C 299.959 209.427,297.974 209.193,297.974 209.752 M243.061 215.994 C 243.061 216.170,242.799 216.397,242.479 216.498 C 242.160 216.600,241.722 217.081,241.506 217.569 C 241.290 218.056,241.041 218.455,240.952 218.455 C 240.864 218.455,240.795 218.896,240.801 219.436 C 240.809 220.293,241.794 222.056,242.265 222.056 C 242.358 222.056,242.760 222.359,243.158 222.731 C 245.114 224.551,245.499 224.756,246.972 224.756 L 248.432 224.756 248.536 223.031 C 248.628 221.497,248.666 221.409,248.880 222.238 C 249.012 222.751,249.455 223.560,249.863 224.035 L 250.606 224.900 249.834 225.564 C 248.558 226.661,248.773 227.757,250.263 227.757 C 250.923 227.757,251.463 227.622,251.463 227.457 C 251.463 227.292,251.665 227.157,251.913 227.157 C 252.161 227.157,252.363 227.286,252.363 227.443 C 252.363 227.601,252.836 227.818,253.413 227.927 C 253.991 228.035,254.464 228.241,254.464 228.385 C 254.464 228.528,255.004 228.593,255.664 228.530 L 256.864 228.414 256.864 229.895 C 256.864 231.034,256.986 231.420,257.389 231.565 C 258.448 231.945,259.828 233.761,259.923 234.899 C 259.995 235.763,260.223 236.131,260.979 236.605 C 261.780 237.107,261.944 237.399,261.954 238.335 C 261.965 239.443,261.984 239.460,263.148 239.460 C 263.799 239.460,264.414 239.595,264.516 239.760 C 264.618 239.925,265.166 240.060,265.734 240.060 C 266.302 240.060,266.767 240.195,266.767 240.360 C 266.767 240.525,266.907 240.660,267.079 240.660 C 267.251 240.660,267.682 240.930,268.036 241.260 C 268.963 242.124,269.467 242.018,269.467 240.960 C 269.467 240.465,269.602 240.060,269.767 240.060 C 269.932 240.060,270.068 239.804,270.068 239.492 C 270.068 239.180,270.239 238.858,270.449 238.777 C 270.659 238.697,270.863 238.250,270.901 237.783 C 270.940 237.317,271.105 236.801,271.270 236.637 C 271.730 236.177,271.625 234.662,271.120 234.468 C 270.873 234.373,270.746 234.175,270.837 234.027 C 270.928 233.879,270.354 233.759,269.560 233.759 C 267.990 233.759,266.467 234.711,266.467 235.691 C 266.467 236.018,266.277 236.165,265.941 236.099 C 265.591 236.029,265.448 235.771,265.511 235.324 C 265.611 234.609,264.967 233.763,264.313 233.752 C 264.094 233.748,263.443 233.198,262.866 232.530 C 262.288 231.862,261.377 231.107,260.840 230.852 C 259.478 230.206,259.925 228.657,261.473 228.657 C 261.754 228.657,262.062 228.455,262.157 228.207 C 262.377 227.633,262.856 227.631,263.283 228.202 C 263.983 229.138,264.966 228.423,264.966 226.977 C 264.966 225.493,264.360 225.133,262.399 225.451 C 261.403 225.612,261.024 225.024,261.440 223.965 C 261.482 223.860,261.205 223.660,260.826 223.520 C 260.447 223.379,260.002 222.877,259.837 222.403 C 259.325 220.934,258.260 220.623,256.084 221.304 C 255.670 221.434,255.268 221.316,254.913 220.962 C 254.257 220.306,253.045 219.655,252.479 219.655 C 252.250 219.655,252.063 219.520,252.063 219.355 C 252.063 218.793,250.095 219.037,249.399 219.685 C 248.617 220.413,248.687 220.458,248.189 218.905 C 247.605 217.084,243.061 214.505,243.061 215.994 M283.871 242.783 C 283.871 243.201,284.034 243.373,284.368 243.308 C 285.091 243.167,285.158 242.161,284.445 242.161 C 284.064 242.161,283.871 242.370,283.871 242.783 M284.321 244.261 C 284.070 244.667,284.409 245.161,284.939 245.161 C 285.177 245.161,285.371 244.891,285.371 244.561 C 285.371 243.940,284.647 243.733,284.321 244.261 M289.572 245.911 C 289.572 246.212,289.872 246.362,290.473 246.362 C 291.073 246.362,291.373 246.212,291.373 245.911 C 291.373 245.611,291.073 245.461,290.473 245.461 C 289.872 245.461,289.572 245.611,289.572 245.911 M257.464 250.833 C 257.464 252.813,257.338 252.688,259.715 253.079 C 260.210 253.160,261.001 253.321,261.472 253.436 C 262.062 253.580,262.409 253.516,262.585 253.232 C 262.789 252.902,262.917 252.894,263.213 253.191 C 264.245 254.223,265.566 253.265,265.566 251.484 L 265.566 250.263 263.603 250.263 C 261.899 250.263,261.651 250.193,261.727 249.737 C 261.803 249.285,261.516 249.199,259.640 249.114 L 257.464 249.015 257.464 250.833 M300.575 251.363 C 299.908 252.030,301.576 253.563,302.970 253.563 C 303.523 253.563,303.976 253.698,303.976 253.863 C 303.976 254.348,308.826 254.221,309.489 253.719 C 310.232 253.156,309.935 251.763,309.072 251.763 C 308.745 251.763,308.477 251.628,308.477 251.463 C 308.477 251.298,307.877 251.163,307.144 251.163 C 306.412 251.163,305.728 251.298,305.626 251.463 C 305.524 251.628,304.984 251.763,304.426 251.763 C 303.868 251.763,303.328 251.628,303.226 251.463 C 303.020 251.129,300.889 251.049,300.575 251.363 M314.479 266.116 C 314.479 266.739,314.698 267.078,315.304 267.391 C 316.435 267.974,316.597 268.267,316.396 269.366 C 316.214 270.359,317.210 272.168,317.938 272.168 C 318.304 272.168,318.980 273.421,318.980 274.101 C 318.980 274.688,319.870 274.943,320.073 274.414 C 320.360 273.666,320.780 273.917,320.780 274.837 C 320.780 275.778,321.207 276.069,322.587 276.069 C 323.059 276.069,323.529 276.204,323.631 276.369 C 323.733 276.534,324.146 276.669,324.549 276.669 C 324.952 276.669,325.281 276.804,325.281 276.969 C 325.281 277.414,331.021 277.337,331.601 276.885 C 332.243 276.385,332.562 275.469,332.095 275.469 C 331.892 275.469,331.458 275.112,331.130 274.676 C 330.441 273.759,328.326 272.768,327.057 272.768 C 326.575 272.768,326.182 272.633,326.182 272.468 C 326.182 272.303,325.979 272.168,325.731 272.168 C 325.484 272.168,325.281 272.033,325.281 271.868 C 325.281 271.703,325.038 271.568,324.741 271.568 C 324.070 271.568,322.586 270.897,322.583 270.593 C 322.582 270.469,322.311 270.368,321.980 270.368 C 321.650 270.368,321.380 270.233,321.380 270.068 C 321.380 269.902,321.125 269.767,320.812 269.767 C 320.500 269.767,320.166 269.564,320.070 269.315 C 319.975 269.065,319.792 268.879,319.663 268.900 C 319.535 268.921,319.126 268.922,318.755 268.903 C 318.014 268.864,317.803 268.267,318.530 268.267 C 319.782 268.267,318.668 265.899,317.404 265.876 C 317.116 265.871,316.879 265.731,316.879 265.566 C 316.879 265.401,316.339 265.266,315.679 265.266 C 314.561 265.266,314.479 265.325,314.479 266.116 M338.012 268.657 C 336.555 269.139,335.815 271.568,337.125 271.568 C 337.378 271.568,337.584 271.703,337.584 271.868 C 337.584 272.325,341.996 272.254,342.211 271.793 C 342.351 271.493,342.421 271.493,342.561 271.793 C 342.821 272.350,344.022 272.247,344.590 271.619 C 345.144 271.007,345.244 270.368,344.786 270.368 C 344.621 270.368,344.486 270.052,344.486 269.666 C 344.486 268.377,340.661 267.781,338.012 268.657 " stroke="none" fill="#848484" fill-rule="evenodd"></path><path id="path1" d="M342.086 283.292 C 342.086 283.708,341.322 284.471,340.907 284.471 C 340.714 284.471,340.585 285.191,340.585 286.272 C 340.585 287.672,340.685 288.072,341.035 288.072 C 341.283 288.072,341.485 288.217,341.485 288.394 C 341.485 289.065,342.389 289.572,343.586 289.572 C 344.783 289.572,345.686 289.065,345.686 288.394 C 345.686 288.217,345.889 288.072,346.137 288.072 C 346.487 288.072,346.587 287.672,346.587 286.272 C 346.587 285.191,346.458 284.471,346.265 284.471 C 345.850 284.471,345.086 283.708,345.086 283.292 C 345.086 283.106,344.453 282.971,343.586 282.971 C 342.719 282.971,342.086 283.106,342.086 283.292 M347.787 284.321 C 347.787 285.064,347.922 285.671,348.087 285.671 C 348.252 285.671,348.387 286.077,348.387 286.572 C 348.387 287.067,348.522 287.472,348.687 287.472 C 348.852 287.472,348.987 287.752,348.987 288.093 C 348.987 290.022,351.643 289.927,351.678 287.997 C 351.692 287.249,352.288 287.343,352.288 288.093 C 352.288 289.320,352.913 289.539,356.451 289.548 L 359.790 289.557 359.790 287.915 C 359.790 286.654,359.895 286.272,360.240 286.272 C 360.586 286.272,360.690 286.655,360.690 287.922 L 360.690 289.572 363.241 289.572 C 365.591 289.572,365.791 289.619,365.791 290.173 C 365.791 290.639,365.991 290.773,366.692 290.773 C 367.392 290.773,367.592 290.639,367.592 290.173 C 367.592 289.715,367.792 289.572,368.432 289.572 C 368.894 289.572,369.440 289.405,369.645 289.200 C 369.939 288.906,370.066 288.905,370.245 289.196 C 370.545 289.680,375.143 289.657,375.492 289.169 C 375.676 288.911,375.778 288.918,375.892 289.197 C 376.064 289.622,378.395 289.721,378.395 289.304 C 378.395 288.807,379.274 288.694,379.715 289.135 C 380.250 289.670,382.179 289.714,382.421 289.197 C 382.561 288.897,382.631 288.897,382.771 289.197 C 382.884 289.440,383.624 289.572,384.871 289.572 L 386.797 289.572 386.797 287.922 C 386.797 287.014,386.932 286.272,387.097 286.272 C 387.262 286.272,387.397 287.014,387.397 287.922 L 387.397 289.572 388.447 289.572 L 389.497 289.572 389.497 287.450 C 389.497 286.012,389.359 285.190,389.069 284.900 C 388.498 284.329,383.034 284.283,382.771 284.846 C 382.631 285.146,382.561 285.146,382.421 284.846 C 382.214 284.403,379.895 284.334,379.895 284.771 C 379.895 284.936,379.557 285.071,379.145 285.071 C 378.732 285.071,378.395 284.936,378.395 284.771 C 378.395 284.311,376.307 284.415,375.823 284.900 C 375.587 285.136,375.394 285.811,375.394 286.400 C 375.394 287.284,375.285 287.472,374.772 287.472 C 373.848 287.472,373.293 286.748,373.293 285.543 L 373.293 284.471 371.818 284.471 C 370.931 284.471,370.273 284.621,370.168 284.846 C 370.028 285.146,369.957 285.146,369.817 284.846 C 369.692 284.577,368.639 284.471,366.092 284.471 C 363.544 284.471,362.491 284.577,362.366 284.846 C 362.226 285.146,362.156 285.146,362.016 284.846 C 361.894 284.585,360.987 284.471,359.040 284.471 C 357.093 284.471,356.186 284.585,356.064 284.846 C 355.924 285.146,355.854 285.146,355.714 284.846 C 355.613 284.629,354.980 284.471,354.214 284.471 C 353.000 284.471,352.888 284.408,352.888 283.721 C 352.888 283.087,352.748 282.971,351.988 282.971 C 351.159 282.971,351.088 283.054,351.088 284.021 C 351.088 284.941,350.995 285.071,350.338 285.071 C 349.680 285.071,349.587 284.941,349.587 284.021 C 349.587 283.054,349.516 282.971,348.687 282.971 C 347.820 282.971,347.787 283.021,347.787 284.321 M368.192 286.872 C 368.192 287.202,368.057 287.472,367.892 287.472 C 367.727 287.472,367.592 287.202,367.592 286.872 C 367.592 286.542,367.727 286.272,367.892 286.272 C 368.057 286.272,368.192 286.542,368.192 286.872 M381.095 286.872 C 381.095 287.202,380.960 287.472,380.795 287.472 C 380.630 287.472,380.495 287.202,380.495 286.872 C 380.495 286.542,380.630 286.272,380.795 286.272 C 380.960 286.272,381.095 286.542,381.095 286.872 " stroke="none" fill="#040404" fill-rule="evenodd"></path><path id="path2" d="" stroke="none" fill="#648844" fill-rule="evenodd"></path><path id="path3" d="" stroke="none" fill="#648844" fill-rule="evenodd"></path><path id="path4" d="" stroke="none" fill="#648844" fill-rule="evenodd"></path></g></svg>