<?xml version="1.0" encoding="utf-8"?>
<!-- Generator: Adobe Illustrator 26.0.1, SVG Export Plug-In . SVG Version: 6.00 Build 0)  -->
<svg version="1.1" xmlns="http://www.w3.org/2000/svg" xmlns:xlink="http://www.w3.org/1999/xlink" x="0px" y="0px"
	 viewBox="0 0 512 512" style="enable-background:new 0 0 512 512;" xml:space="preserve">
<style type="text/css">
	.st0{display:none;}
	.st1{fill:#FFFFFF;stroke:#000000;stroke-miterlimit:10;}
</style>
<g id="Layer_1" class="st0">
</g>
<g id="Layer_2">
	<path class="st1" d="M193.1,495.4l7.8-1.7l3.9-5.6v-8.2l5.2-4.3l3.3-1.4l3.7-7.2l7-5.4v-3.3l5.9-8.8l9.6-5.3c0,0,7.2,1.6,7.5,1.6
		s8.8-2.3,8.8-2.3l5.3,2.8l6.9-2.8l7.7,1l5.4-1.5l3.7,2.6l6.8-1.6c0,0,11.3,1.7,12,1.7c0.8,0,14.2-11.1,14.2-11.1l1.1-14l4.4-2.5
		l-1.8-5.9l-4.4-2.9l-6-3.1l-7.2-7l-8.2-4.2l-4.6-5.4l-4.7-6.5l-4.9-7.7c0,0-1-2-1.4-2s-7.4,0.7-7.4,0.7l-2.4-4c0,0-6.2-0.2-6.5,0
		c-0.3,0.2-4.8-2.2-4.8-2.2l-5.5-2.7l-1.2-7.3l8.1-3.6l0.5-6.4l4.9-2l-2-2.7l-0.5-3.5l0.1-3.5l1.6-1.5l-0.2-3.1c0,0,2.4-0.8,2.4-1.1
		c0-0.3,0.5-2.5,0.1-2.5c-0.4,0-3,0-3,0l-2.2-1.3l-0.3-8.6l3.4-3.5l3.1-4.8h4.3l1.1-1.8l3.6-0.7l4.8-2.3l4-1.4l2-4.2l0.5-3.6l8.6-8
		h4.9c0,0,2.8,1.7,3.1,1.7c0.3,0,8.5-0.4,8.5-0.4l1.1-3.1h2.2l2.6,2.4l2.6-1.6l1.1-3.1l3.5-1.1l3,0.7l5.4-6.3l5.7-2.1l3.1-0.4v-4.6
		l-1.3-1.3l0.2-4.6l9.6-4.1l4-1.7l5-3.7l4.7-4.4l6.1-2l4.6-2.8l2.1-5.8l1.7-5.7l2.6-2.8l2.1-3.1c0,0,2.8,0.9,3.1,0.9
		c0.3,0,3.9-1.4,3.9-1.4l3.6-4l1.2-1.8v-1.4l7-0.8l4.7-4.6h9.1l2.8-4.8v-9.2l-1.6-2.2l-0.2-8l0.8-11.4l3-8.3l2.9-5.2l-1.3-2.6
		l-4.7-3l-4.4-4.4l-2.1-3.6l1.6-6.8l4.3-10.2l3-6.9h6.1l2.1-7.4l1.5-6.5l2.7,0.4l1.7,1.6v-4.4l1.5-5.1l4.1-6.4l5.9-4.6h4.7l1.3-8
		l4-0.8l1.8-1.5c0,0,3.3,1,3.5,0.4c0.2-0.5,1.1-4.1,1.1-4.1l2.3-4.1l3.7-3.6l4.1-1l3.8,1.2c0,0,3.9-1.3,3.9,1.7s0,3.8,0,3.8l2.5-0.8
		l2.3-1.7l-2.7-3c0,0,1-4.7,1-5s-3.6-3.9-3.6-3.9l-4.2-2.9l0.2-4l-2.6-7.7l-0.3-3.9c0,0-1.6-0.4-1.7,0c-0.1,0.4,0.7,5.4,0.7,5.4
		l-4.1,0.7l-2.3-2.6l1.6-2.6c0,0-2.9-0.4-3.3-0.5c-0.3-0.1-4.3-3.5-4.3-3.5l-3.4-4.3l-3.7-4.6l0.8-8.6l1.6-6l-5.5-1.4l-6.7-1
		l3.9-5.4c0,0-0.5-1-0.9-1.1c-0.3-0.1-3.7,0-3.7,0l-2.8,1l-5.6-0.5l-0.3-2.4l-2.2,2.7l-2.1,3.7l-3,1.7l-3.1,15.9l-0.7,9.8l-1.4,5.2
		c0,0-1.5,8.1-1.5,8.5c0,0.3-0.9,6.8-0.9,6.8l-4,0.2l-3.8-0.3l-1.5-2.8l-1.1,9.3l-2.2,0.4l-2.5-1.4c0,0-2.9-3.8-3.4-3.9
		s-2.9-2.3-2.9-2.3l-2.8-0.1l-1.3,2.2l-2-2.3l-0.5,4.3l-2,2.3l-3.4-0.2l-2.1,3.5l-0.9,5.4l-0.5,6.6l-4.2,4.8c0,0-5.3,2-5.6,2
		c-0.3,0-1.4-1.2-2.2-0.3c-0.8,0.9-4.2,5.7-4.2,5.7s-3.9,3.3-3.9,3.7s-1.6,4.7-1.6,4.7l-12.2-5.1l-5,3.7c0,0-4.6-2.3-4.9-1.7
		c-0.3,0.5-1.5,3.3-1.8,3.3c-0.3,0-6.5-1.1-7.2-1.4c-0.7-0.3-12.5-1.2-12.5-1.2l-17.5,1l-0.7,1.7l4.6,3.9l0.4,14l13.7,19.5l-2.1,7.5
		L313,153l0.5,5.2l-9.6,6.1l-1.5-2.1c0,0-4.3-0.4-4-0.4c0.3,0,0.1-3.7,0.1-3.7l-2.5,0.7l-3.6-2.9c0,0-0.9,2.8-1.3,2.8
		s-2.6-1.3-2.6-1.3l-1.2,3.1l-3.6-0.3l-12,1.1l-6.3-3c0,0-2.4-3.6-2.7-3.4c-0.3,0.2-6.7,1.4-6.7,1.4s-14.1-3.4-14.8-3.4
		c-0.7,0-7.2-8.7-7.2-8.7l-2.4-8.2l-3.3-7.2l-5.9-3.3l-4.3-0.7l-3.9,4.1l-2.8,4.1l-6.3-4.6l1.5,4.6l-5.2,3.3l-5,2.8l-0.7,6.5
		l-2.8,13.4v7.8l-3.5-2c0,0-8.2,5.6-8.2,7.2s-5.2,12.8-5.2,12.8l-10.4,5.2l-1.1,6.1l-4.3,5.4l-1.5,4.3l-4.8,1.7l-6.5,1.7l-6.3,1.3
		c0,0-3.7-1.3-3.9-0.7c-0.2,0.7-5.9,6.1-5.9,6.1l2.6,4.3l-1.6,1.5l-7.9-1.1l-10.8,11.3h-10.2L87.3,243v6.9l-10.4-1.7l-10.6,10.4
		l-2.2,4.8l-8.2,3.9l-17.3,18l2.2,4.1l-1.1,5.2l-8.9,5l-2,6.9l-2.8,3.9l-0.9,4.8l2.9-4.4l2-2.7l5.5-0.7l-0.4-5.1l4.6,1.5l2.8,1.2
		l4.5,2.9l7.1,1.4l3,6.1l2.4,5l2.3,5.5l-0.8,3.6l8-5.8l1.2-5.7V317l5.3,1l2.3,1.9l2.4,4.6l7.2,1.3l4.9,6.5l9.5-3.9
		c0,0,3-0.5,3.1-0.2c0.1,0.3,0.2,6.5,0.2,6.5l5.1-1.4l6.3-3.4c0,0,1.4,0.4,1.4,0.7c-0.1,0.3-6.4,12.7-6.4,12.7l0.7,4.4l8.3,3.5
		l-8.2,11.3c0,0-4.8,8.8-4.9,9.4s-1.4,4.2-1.8,6.6s-10,17.1-10,17.1l0.4,8.2l9.1,6.7l5.6-0.2l10-3.5l-8.5,6.1l-4.3,5l-6.1-1.7
		L96,416l-1.1,6.3L86,423l-0.4,9.3l-8.5,12.4v10.8l-12.4,9.1l8.2,1.3l6.3-2.4c0,0,7.2,2.6,7.8,2.8c0.7,0.2,10.2,0.4,10.2,0.4
		l3.5-1.1l0.2,4.1l-4.8,2l-2.6,2.2l-3.3,5.2l-4.3,1.5l8.2,5.6l7.4-1.3l3.9-2.6l2.8,2.2l-2.2,5.4l8.2-3.3l3-4.3h5.9l-0.9,4.1
		l-11.7,8.9v7.2l11.1-7.4l7.4,0.4l7.8-17.8l-4.4,0.4l-4.9-1.5l-1-2.6l-0.2-2.3l12.2-0.7l1.9,3.4c0,0,4.7,5.5,4.9,5.8
		c0.2,0.2,5,9.5,5,9.5l8.1-0.1l5.6,7l3.3-0.7l0.6-6.7l6.5-1.9l3.9,0.1l3.6-1.1c0,0,2.8,0.6,2.9,0.3L193.1,495.4z"/>
	<path class="st1" d="M78.6,330.4l-2,1.7c0,0-2.3,3.2-2.2,3.6c0.1,0.4,0.6,2,0.8,2c0.2-0.1,2.4-2.1,2.4-2.1l2.8-0.7l0.4-2.6
		L78.6,330.4z"/>
	<polygon class="st1" points="73.9,425.2 77.6,428.3 77.1,429.2 71.8,428.8 	"/>
</g>
</svg>
