<?xml version="1.0" encoding="utf-8"?>
<!-- Generator: Adobe Illustrator 26.0.1, SVG Export Plug-In . SVG Version: 6.00 Build 0)  -->
<svg version="1.1" xmlns="http://www.w3.org/2000/svg" xmlns:xlink="http://www.w3.org/1999/xlink" x="0px" y="0px"
	 viewBox="0 0 512 512" style="enable-background:new 0 0 512 512;" xml:space="preserve">
<style type="text/css">
	.st0{display:none;}
	.st1{fill:#FFFFFF;stroke:#000000;stroke-miterlimit:10;}
</style>
<g id="Layer_1" class="st0">
</g>
<g id="Layer_2">
	<path class="st1" d="M498.35,122.02l-8.76,9.88l-9.79,1.12l-20.61-5.5h-41.91l-10.74-1.29l-14-13.14l-8.93-3.44l-8.93,4.81
		L352,102.78h-10.99l-4.12-5.5h-3.44l-4.12,6.18l-2.32-3.26h-2.92l0.26,5.91l-8.76-0.58V94.54l-3.01-2.92h-2.32l-1.46,1.98
		l2.66,7.82v3.44l-7.56-1.37l-5.5-4.81l-3.44-1.37l2.75,14.77l-2.75,1.2l-4.35,3.44l-1.32,1.72l-7.56-0.34l-4.64-2.06l-5.84-0.69
		l-3.09-2.4l-2.06-0.86v1.37l1.72,3.26l-1.03,2.92l-1.55,0.52l-3.95-3.78h-6.36l-2.92,2.23l-3.26-1.55l-1.72-2.58l-3.26-4.12
		l-4.29-2.75l-0.86,4.47l1.72,9.62l-3.44,3.52l-5.41-3.22l-5.02,0.39l1.16,4.25l-1.16,0.26l-6.31-3.35l-2.83,2.19l-2.06,0.64
		l-3.48-3.22l-4.9-1.67l-2.83,0.52l-1.55,2.06v3.35l-3.09,2.71l-4.51,2.32l-3.99,1.8l3.09,5.93l-3.09,0.77h-2.83l-3.22-3.99
		l-3.99-1.42l-2.58,1.55l-1.16,1.67l2.45,2.71l1.29,3.09l1.93,1.67l0.26,2.83l-1.42,1.55h-8.5l-2.06,2.19l-2.83,0.77l-3.22-1.03
		l-4.77-2.06l-3.86,1.67l-2.83,3.86l-2.06,2.83l-5.93-1.42l-6.18,4.25l-4.25-1.42l-2.58,4.38l3.74,16.88l-6.96,2.58v7.34l-2.45,2.45
		l-2.19,1.42l-1.29-3.48l-4.38-1.16l-1.29,1.16l-7.21-3.74c0,0-4.25-0.64-4.51,0.52c-0.26,1.16-2.45,3.74-2.45,3.74l2.45,4.64
		l1.42,3.74c0,0,2.83,0.64,3.09,0c0.26-0.64,5.41,0.29,5.41,0.29l24.35-2.09l0.52,2.96l-3.99,2.96h-8.12l-0.64,4.51l7.86,11.59
		l1.42,3.35l-1.8,1.93l-3.99-4.38l-1.67,1.29l0.52,1.16l1.29,2.71l-1.55,1.67c0,0-0.13,1.93,0.26,1.93c0.39,0,14.69-0.9,14.69-0.9
		l8.89,0.9l-0.77,2.32l-6.18,1.55l-1.16,2.58h-7.86l-0.13,1.29l2.19,2.71l-6.7,2.45l1.42,9.4l1.93,4.51l-3.09,2.96l1.8,1.93
		l1.93,0.9l2.19-2.71l0.13,2.71l3.22,3.61l0.9,2.19h4.9l-0.13,11.08l6.7,17.65l5.8-3.35l4.51,5.8h5.41l2.32,2.71l1.42-1.8l2.96,2.96
		l1.67,4.64l1.03,1.8l3.22,1.67l6.7-3.74l6.05-2.19l0.13-5.28l2.19-4.9l-0.64-5.54l8.24,0.13l5.54,0.39l6.7,3.61l2.83,7.86
		l-1.55,3.22h-3.22l-4.51,5.41l-0.26,6.7l-0.26,4.25l1.42,9.92l-1.8,10.56l-7.6,20.48l-0.52,3.82l3.99,0.94l3.26-2.4l-1.67-2.79
		l-0.47-2.06l3.09-1.93l3.26-0.94l2.36-2.83l3.35-1.59l2.58,2.1l2.96-1.33l3.35,0.69l3.31-1.8l1.2-3.61c0,0,4.94-0.26,4.98-0.09
		s2.36,1.93,2.36,1.93l8.2-5.32l5.58-0.9l3.13-5.75l5.07-4.42l8.24,0.34l0.64,4.25l4.72,9.49l0.9-5.54l-3.52-4.94l2.19-3.01
		c0,0,2.53-0.13,2.83,0.34s5.02,7.39,5.02,7.39l6.96,1.63c0,0,0.39,4.9,0.26,4.98s8.72,1.63,8.72,1.63l5.93,7.21l3.61,3.09
		l3.09-3.35l6.31,5.28l1.67,4.9l4.12-0.9l1.93,2.45l8.37-1.93l4.38,1.93l-1.16,9.4l-1.16,3.09l7.99,2.19l4.77,5.02l1.29,4.64
		l1.46,4.08l2.4,1.2l-0.17,6.53l2.75,2.58l4.81,2.4h7.21l4.64,0.69l0.52,6.18l4.47,1.72l2.58-3.09l0.34,3.78l2.58-4.29
		c0,0,2.06-1.89,2.75-2.23c0.69-0.34,4.64-2.92,4.64-2.92l2.06-2.06c0,0,1.37,1.89,1.89,1.89c0.52,0,5.84-0.86,5.84-0.86l0.69-4.64
		l4.81-2.06l2.06-0.86l1.37,5.32c0,0,3.61-2.4,4.29-2.4s3.78,4.81,3.78,4.81s3.09,2.4,4.12,2.92c1.03,0.52,11.85,1.55,11.85,1.55
		l6.01,4.98l-1.89-6.87l4.29-5.32l2.4-3.09l-2.75-4.81l4.12-6.7l3.09-2.4l1.55,1.37l2.92-2.58l0.52,3.09l0.69-4.47l-1.72-4.64
		l0.34-4.81l2.4,0.34l1.55-7.04l7.04-0.34l3.78,0.86l2.06-2.4l1.89,3.78l3.26-1.55l1.89-5.84l-6.53-1.55l-1.37-2.06l-1.72-3.26
		l-2.58-3.61l-0.34-4.29l-3.78-5.67l-2.06-1.37l2.4-7.39l-6.18-4.47l-3.44-9.45l-2.58-8.24l-1.89-14.26l-0.86-8.07l-4.64-2.92
		l-2.58-1.37l-2.75,1.72l-4.96-4.11l1.01-4.31l0.17-6.87l-1.2-6.53l-0.72-9.53l-3.66-9.08L423.8,239l-14-16.15l1.12-9.88l8.67-10.05
		l17.09-7.47c0,0,21.81-3.01,23.19-2.83c1.37,0.17,12.88,3.18,12.88,3.18l3.35-11.85l1.46-3.26l0.26-4.9l4.9-8.5l2.4-7.64l6.01-9.28
		l12.37-1.89l6.36-10.65v-4.29L498.35,122.02z"/>
	<path class="st1" d="M17.57,206.62l2.83,1.8l3.35,1.03l3.61,3.86l3.44,1.29l4.64-1.63l4.98-0.86l3.09-0.17l3.52,2.66l2.06,2.75
		c0,0,1.03,3.69,1.03,4.38c0,0.69-0.43,5.32,0,6.36s1.37,3.86,1.37,3.86s1.8,3.52,1.89,3.78s-0.6,2.75-0.6,2.75l0.61,3.18l2.14,0.94
		c0,0,2.4,1.03,3.09,1.12c0.69,0.09,5.07-0.94,5.5-0.94c0.43,0,2.83-2.15,3.26-2.32c0.43-0.17,2.15-3.78,2.15-3.78l1.98-4.47
		l1.29-3.95l0.6-1.29l4.47,3.78l4.64-2.15l2.32-1.03l-0.94-3.26l2.92-1.37l4.04-3.01l2.92-0.17l2.4,1.2l1.89,1.8l1.8-1.8l-2.32-3.26
		l-0.52-2.58l-1.89-3.95l0.17-1.2l1.55,0.52l0.09-1.55c0,0-0.17-1.2-0.69-1.2s-4.04,0-4.29-0.09c-0.26-0.09-1.72-2.4-1.72-2.4
		l-1.29-1.63l-0.26-5.58h-4.72l-1.98-3.01h-7.56l-1.2-1.12l-2.4-0.34l-1.55-1.2l-0.09-8.33l-2.66-1.63h-6.1l-0.34,7.9l-1.98,0.43
		l-5.75,1.72l-1.29,3.35l-2.32,5.93c0,0-2.92,1.89-3.18,2.06c-0.26,0.17-3.69,0.94-3.69,0.94l-8.07-0.34l-3.01,0.86l-6.27-0.26
		l-2.49-0.52h-3.09l-1.37,1.46V206.62z"/>
	<path class="st1" d="M16.18,361.92l3.09-1.35c0,0,6.83-6.63,7.28-6.63c0.45,0,2.96-1.67,2.96-1.67l-1.1-4.7l1.42-2.51l1.55-5.02
		l1.42-4.19l1.61-3.99v-9.47l5.15-5.09l5.73-1.03l3.61-1.93l3.09-2.45l3.03,2.51l2.83-2.51l3.22,0.9l3.8-1.22l3.03,4.32l5.15,0.52
		l-0.45-3.93l-2.77-2.77l-0.13-2.96c0,0,4.51,0.58,4.96,0.77c0.45,0.19,5.6,0.71,5.6,0.71l0.9-3.54l3.93-2l3.09-1.35l1.42-5.02
		l1.67-0.97l0.52-4.38l0.45-0.39l4.9,3.67l-0.52-2.77l0.52-1.67l2.32,1.03l1.16-2.51l-1.67-1.67l2.58-1.74l4.57-3.86v-5.09
		l4.44,4.96h2.32l0.39-1.55c0,0,3.86,0.06,4.06,0.19c0.19,0.13,2.06,2.13,2.06,2.13v-2.58l-1.48-3.16l-6.25-4.32l-3.35-0.84
		l-2.25-0.84l-0.39-3.41l0.13-2.58h-3.54l-2.83-1.48l-3.41-2.77l-2.71-2.77l-2.38-1.61l-3.99-1.03l-4.38-0.58l-4.57,0.39
		c0,0-2.13,0.97-2.13,1.55c0,0.58-1.55,4.7-1.55,4.7l-3.86-2.64l-4.51,2.45l-2.9-2.77l-3.29-5.28c0,0-2.58-1.55-2.64-1.16
		s-2.19,6.57-2.71,6.76s-4.06,3.03-4.06,3.03l-13.33,1.42l0.9,8.95l-1.42,2.83l-3.03,0.13l-0.39-6.57c0,0-2.38-0.39-2.45-0.19
		c-0.06,0.19-1.1,4.06-1.35,4.32c-0.26,0.26-5.35,3.86-5.35,3.86l-0.45,9.21l-2.83,0.9l-2.96-6.38l-2.19-5.99l-2.45-1.55
		c0,0-4.06,0.58-4.44,0.71c-0.39,0.13-3.61,1.87-3.61,1.87v2.71l6.57,9.92c0,0,1.42,3.29,1.61,3.41c0.19,0.13,1.1,1.8,1.16,2
		s0.45,1.74,0.45,1.74l-0.32,0.97l-5.15,0.26c0,0,1.22,2.71,1.22,2.96c0,0.26,0.77,3.35,0.45,3.41s-2.45-0.84-2.45-0.84l-2.9-2.45
		c0,0-1.16,2.64-0.97,2.96s0.26,1.93,0.26,1.93s-2.58-0.32-2.71-0.13s0,3.29,0,3.29l3.61,3.99l3.22,1.8l3.16,0.58l2.19-0.19
		l1.1,0.97l1.48,2.38l2.62,5.94l3.37,0.3l3.64,3.07l4.92,0.15c0,0,0.5,1.75-0.13,3.29c-0.52,1.26-1.55,2.69-1.55,2.71
		c0.06,0.19-0.13,1.35-0.13,1.35l-2.13,1.8L27,338.53l-2.77-0.45l-2.45-2.45l-0.84,1.8c0,0-1.42,3.67-1.48,4.06
		c-0.06,0.39-2.64,7.54-2.64,7.54l-2.96,3.8l-0.84,1.74c0,0,0.58,3.67,0.97,3.86S16.18,361.92,16.18,361.92z"/>
	<path class="st1" d="M122.78,269.16c0.19,0,3.16-3.29,3.16-3.29v-5.15l-2.83-2.51l-2-2.21l1.74-3.65l-2.58-2.19l-5.73-2.83l-4.64-2
		l-4.7,1.42l-0.52,6.44l-4.44,1.16l-0.39,2.32c0,0,3.54,2.83,4.06,3.09c0.52,0.26,5.99,4.64,6.18,4.9c0.19,0.26,2.25,3.48,2.25,3.48
		l3.74-3.67l2,2.32h3.16L122.78,269.16z"/>
</g>
</svg>
