<?xml version="1.0" encoding="utf-8"?>
<!-- Generator: Adobe Illustrator 26.0.1, SVG Export Plug-In . SVG Version: 6.00 Build 0)  -->
<svg version="1.1" xmlns="http://www.w3.org/2000/svg" xmlns:xlink="http://www.w3.org/1999/xlink" x="0px" y="0px"
	 viewBox="0 0 512 512" style="enable-background:new 0 0 512 512;" xml:space="preserve">
<style type="text/css">
	.st0{display:none;}
	.st1{fill:#FFFFFF;stroke:#000000;stroke-miterlimit:10;}
</style>
<g id="Layer_1" class="st0">
</g>
<g id="Layer_2">
	<path class="st1" d="M12.7,192.5l2.9-7.6l2.5,3.1l4.1,2.6l3.7,1.1L29,191l1.9,2.5l0.5,3.1l3.6-0.6l3.3,1.6l-1.4,1.7l1.4,1.7
		l-0.6,3.8l-1.7,1.2l0.5,3l3.2,3.8l2.3-3.5l4.3-3l4.2-0.5l3.5,4c0,0,2.7-0.1,3-0.2s2.3-2.6,2.3-2.6l0.5-3.6l3-4.5c0,0-0.5-1.6,0-1.4
		c0.5,0.3,5.1,2.6,5.1,2.6l2.5,1.2l2.3,5.6l5.3,3.9l7.1,5.1l4.2,4.8c0,0,3.9,6.1,4.2,6.9c0.3,0.7,3.4,5.6,3.4,5.6v3.2l0.8,4.6
		l1.2,5.5l-2.4,5.5l-1.3,5.2l-0.7,3.1l2.5,6l-0.1,15.9l8.3,7.1l4.2,7.4c0,0,8.1,17.4,8.3,17.7s0.9,5.2,0.9,5.2l-4.3,0.5l-2.6-2.6
		l-2.7,0.5l-3.1-1.1l-3.6,1.2l-1,3.1h-2.9l-1.6-2.3l-5-5.1l-10.5-5.8l-3.2-1.8l-7.6-6l-6.7-2.3l-5.8-5.1l-5.9-4.6l-6.1-2.8l-1.2-2.9
		l-4.4-0.4l4.8-6.9l-4.7-5.6l-6.6-7.2l-5.1-5.3l1.8-3.2l-4.2-4.2l-1.4-4.4l2.4-5.3l-1.6-4.8l-3.9-5.5l-2.1-4.1l1.4-2.1l-5.2-2.5
		l-1.4-4.5l4.2,1.4l1.5-6.1l-1.6-5.5l-1.2-7.8l-2.2-2.7L12.7,192.5z"/>
	<path class="st1" d="M253.4,302.3l-3.2,3.4l1.6,4c0,0,1.4,0.1,1.6,0.5c0.3,0.4,1,5.1,1,5.1l3.9,3.2l2.5,2c0,0,2.8,3.4,3.5,3.9
		c0.7,0.5,5,5.1,5,5.1l4.2,2.1l2,1.4l6.3-1.4l3.4-2.8l8-1.1c0,0,5.1,2.3,5.5,2.3c0.4,0,0.6-0.8,0.6-0.8l1.2,1.9l3.2-2.3l3.5,1.4
		l3.4-3.3l4.4-0.6l1.3-4.2l1.6-2l-1-1.4l4.5-2.2l2.4-0.3c0,0,1.9-1.1,2.3-1.1s5.3,0.7,5.3,0.7l1,0.2l3.4-0.7l2.3,0.5l-1.7,3.2
		l3.3-0.1l1.5,0.9l5.1,1.2l0.6,1.4l4.2-0.3c0,0,0.7,1.8,1.1,1.8c0.4,0,5.4-2.3,5.4-2.3v-1.4l3.8-1.7l4.3-0.5l1.1,1.5
		c0,0,3.4-3.1,4.7-2.9c1.3,0.2,5.1,2.1,5.1,2.1l0.5-3.8l2.1-0.7v-4.7l1-1.6l2.2,0.1l1.9-1.9l-0.5-1.5l-1.5-1.3l-0.4-1.7l-2.5-0.7
		l1.7-1.8l2.3-1.3l2.5-0.7v-1.3h1.3l6-4.3l-1.7-1.7H390v-1.4v-1.6l1.7-1.6l-1.6-1.1l1.2-1.8l1-1.2l1.5-1.5l1.1-1.2l2.3,1.3l3.6-0.6
		l0.8-3.2l-1.3-1.8l1.3-5.6h2.1l-0.5-2.4l-1.3-3.6l1.8-4.3l-1.7-1.8l2.1-1.2l0.5-4.8l1.9-1.3l2-1l1.3-3l5.1,1.6l2.3-1.6h3h2.7
		l1.4,1.2l2.6-1.8l2,1.3l3.1-0.7l1.8,0.5l3.2-0.2l3.2,0.5l4.1-0.6l5.4,4.6h2.3c0,0,0.5,1.2,0.8,1.2s6.5-0.5,6.5-0.5l-4-2.3l-1.3,1.1
		l-0.8-3c0,0-0.9-2.1-0.3-2.2c0.6-0.1,8.2,5.1,8.2,5.1l8.2-2l8.2-3.2l0.6-2.5l-3.9-1.4l-4.8-2.7l-3.1-4.6l2-3c0,0,4.2,0,4.5,0
		c0.3,0,4.9,1,4.9,1s4.7-0.3,5.3-0.4c0.6-0.1,9.1-3.6,9.3-3.9c0.2-0.3,2.4-3.9,2.4-3.9l-1-4.2c0,0-4.5-0.3-4.8,0
		c-0.3,0.3-5.3-1.7-5.3-1.7l-5.6-4.5l-4.3-2.3c0,0-2.9-1.4-3.2-1.4s-2.8,0.9-2.8,0.9l-1.6,2.1c0,0-1,0.3-1.4,0.3s-4,0.4-4,0.4
		l0.1-3.6l5.2-0.5c0,0-1.3-2.7-1.6-2.7c-0.4,0-3.4-0.2-4.3,0c-0.9,0.2-2.8,1.4-3.1,1.5s-4.6,0.2-4.6,0.2H452l2.5-2.2l-0.5-2.1
		l-1.2-2.9l2.5-2l0.5-3.4l-0.9-2.1l-2.8-3.2c0,0-0.9-0.8-1.5-0.5s-1.6,1.2-1.6,1.2s-2.5-0.6-3-1.3s-2.4-2.5-2.4-2.8
		c0-0.3-0.1-3.8-0.1-3.8s-0.5-3-0.9-3c-0.4,0-2.9,1.1-2.9,1.1l-2.1,5.1l-0.4,2.1l-1.3,2.2l-2.9,0.1c0,0-1.4-0.4-1.4-1
		c0-0.6,1.3-4.4,1.3-4.4l-0.2-4.5c0,0-2.9,1.2-3.2,3.3c-0.4,2.2-3.2,5.9-3.3,6.3c-0.1,0.5-5.2,6.5-5.2,6.5l-5.6,6.9l-6.4,11.8
		l-8.5,0.4l-4.3,7.4l2.3,10l-6.1-1l2.8,10.6l-2.1,3.7l-3.2-1.5l-2-11.8l-2.4,2c0,0-3,0.9-3,1.4c0,0.5,1.5,12.8,1.5,12.8l-3.2,4.3
		l-3.9-0.5l-5.1-5.8c0,0-1.7,0.4-1.7-0.2c0-0.6-0.5-3.7-0.5-3.7l-2-2l-3.9-1.5l-2.1,1.1l-3.3,11.2l-5.5,5.3l-5.8,6.2l-5.4,6.5
		l-3.7,6l-4.3,2.5l-11.6,2.5l-16.3,3.1l-7.9,3.9l-2.7-2.4l-1.8,4.2l0.3,3.5l2,2.4l6.6-0.5c0,0,1.7,2.6,1.2,2.7c-0.5,0.1-8.9-2-8.9-2
		l-1.4-0.8l-0.7,3.1l3.9,1.4l-3.6,1.4l9.7,2l-7.4-0.1l-3,0.7l-1.6,6.3l-0.2,2.7l4.1,2.2l-1.7,0.7l-3.3-1.8l-1.4,1.5v3.4l6.1,1.9
		l5.6,1.9l-1.7,0.8l-5.5-1.4l-3.2-1.7l-3.1-2.3l-4.4-0.7l-4.5-1.2l-4.7-1.8l-1.4-2.2l-3.5,1l-4.8-1.3l-3.7-0.4l-3.4-1.7l-1.7-1.4
		L253.4,302.3z"/>
</g>
</svg>
