<?xml version="1.0" encoding="utf-8"?>
<svg viewBox="0 0 500 500" xmlns="http://www.w3.org/2000/svg">
  <g id="svgg" transform="matrix(0.742866, 0, 0, 0.742866, 96.170769, 6.760427)" style="">
    <path id="path0" d="M 121.255 0.418 C 121.15 0.691 121.064 1.266 121.064 1.696 C 121.064 3.075 120.38 3.674 118.546 3.903 C 115.771 4.25 115.182 5.57 116.003 9.596 C 116.531 12.183 116.472 17.577 115.878 20.853 C 115.719 21.73 115.522 23.135 115.439 23.978 C 115.357 24.821 115.161 26.255 115.002 27.165 C 114.413 30.572 114.101 32.631 113.942 34.176 C 113.851 35.053 113.647 36.226 113.489 36.784 C 113.329 37.341 113.138 39.99 113.062 42.67 C 112.922 47.624 113.07 49.012 114.291 54.162 C 114.536 55.198 114.865 56.632 115.022 57.349 C 115.357 58.885 116.016 61.548 116.565 63.576 C 116.962 65.042 117.914 69.323 118.433 71.976 C 118.592 72.789 118.658 76.159 118.584 79.652 C 118.351 90.597 118.422 98.264 118.77 99.927 C 118.955 100.803 119.202 102.107 119.32 102.823 C 119.439 103.541 119.697 104.779 119.893 105.575 C 120.388 107.575 120.957 110.197 121.307 112.092 C 121.469 112.969 121.823 114.716 122.093 115.975 C 123.031 120.358 122.596 123.712 121.093 123.673 C 120.841 123.667 119.031 122.98 118.023 122.508 C 115.17 121.171 108.602 114.82 105.739 110.63 C 103.462 107.297 102.39 106.944 100.662 108.963 C 99.293 110.562 98.938 111.968 99.176 114.844 C 99.281 116.118 99.431 118.269 99.509 119.623 C 99.805 124.75 100.643 127.087 102.852 128.949 C 104.652 130.468 105.341 131.985 105.85 135.553 C 105.953 136.271 106.151 137.509 106.292 138.305 C 106.434 139.102 106.763 141.122 107.025 142.795 C 108.028 149.217 109.138 153.547 110.383 155.894 C 110.698 156.486 110.937 157.008 110.913 157.052 C 110.891 157.097 111.031 157.523 111.225 158.001 C 111.42 158.48 111.707 159.196 111.866 159.594 C 112.024 159.992 112.254 160.523 112.378 160.774 C 112.764 161.55 114.04 164.894 114.415 166.111 C 114.612 166.748 114.914 167.661 115.087 168.139 C 115.26 168.617 115.427 169.176 115.458 169.381 C 115.524 169.828 115.975 171.8 116.598 174.366 C 116.85 175.402 117.099 176.51 117.152 176.829 C 117.587 179.452 119.614 183.337 121.481 185.125 C 122.771 186.361 124.539 185.226 124.539 183.163 L 124.539 182.345 L 125.266 183.071 C 126.172 183.977 126.85 185.818 128.011 190.52 C 130.045 198.764 131.477 200.906 135.596 201.87 C 139.47 202.776 141.356 201.048 140.909 197.001 C 140.582 194.047 140.324 192.756 139.055 187.723 C 138.033 183.666 137.703 183.768 143.436 186.37 C 144.35 186.785 145.133 187.09 145.174 187.046 C 145.215 187.004 145.673 187.27 146.191 187.639 C 146.709 188.007 147.133 188.215 147.133 188.099 C 147.133 187.985 147.361 188.086 147.639 188.325 C 147.918 188.565 148.342 188.851 148.581 188.961 C 151.221 190.178 155.009 193.434 155.695 195.076 C 156.566 197.159 156.539 197.2 150.474 203.305 C 142.463 211.369 142.337 211.577 142.385 216.655 C 142.424 220.652 144.505 231.56 145.353 232.205 C 147.122 233.551 150.432 230.472 149.928 227.949 C 149.716 226.894 149.845 226.886 152.113 227.807 C 154.213 228.66 154.69 229.119 155.7 231.253 C 156.49 232.921 157.983 234.324 158.967 234.324 C 159.283 234.324 159.912 234.629 160.362 235 C 163.141 237.298 170.416 241.275 171.839 241.275 C 173.347 241.275 175.627 239.375 176.837 237.11 C 179.237 232.616 179.917 231.599 181.596 229.979 C 183.009 228.615 183.866 227.951 184.211 227.951 C 184.368 227.951 184.497 227.83 184.497 227.683 C 184.497 227.535 184.888 227.209 185.366 226.959 C 185.843 226.708 186.631 226.295 187.114 226.042 L 187.994 225.581 L 192.777 228.794 C 195.407 230.561 197.683 232.007 197.835 232.007 C 197.987 232.007 198.111 232.108 198.111 232.234 C 198.111 232.359 198.469 232.675 198.907 232.936 C 201.092 234.242 207.032 239.848 213.423 246.634 C 214.982 248.289 218.319 252.771 218.554 253.525 C 218.664 253.877 218.841 254.229 218.948 254.309 C 219.054 254.388 219.437 255.301 219.797 256.336 C 221.79 262.068 224.366 264.194 226.714 262.047 C 228.149 260.731 227.398 254.059 225.51 251.365 C 225.256 251.002 225.048 250.484 225.048 250.214 C 225.048 249.944 224.936 249.679 224.802 249.626 C 224.484 249.502 222.285 244.862 222.03 243.78 C 221.864 243.075 220.92 241.458 220.398 240.985 C 220.056 240.676 219.271 238.706 218.549 236.351 C 216.854 230.819 215.95 228.08 215.596 227.396 C 215.122 226.483 215.058 226.507 216.938 226.92 C 221.032 227.821 224.691 231.052 230.66 239.041 C 232.47 241.465 234.871 244.295 235.994 245.33 C 238.167 247.333 238.183 247.347 239.965 248.67 C 240.602 249.143 241.265 249.66 241.439 249.819 C 241.614 249.979 242.195 250.435 242.733 250.833 C 248.643 255.211 250.717 259.355 250.586 266.52 C 250.581 266.784 250.829 267.228 251.136 267.506 C 251.444 267.784 251.695 267.918 251.695 267.803 C 251.695 267.688 252.054 267.841 252.491 268.142 C 252.93 268.445 254.136 269.103 255.171 269.606 C 256.207 270.108 257.966 271.103 259.082 271.814 C 260.196 272.526 261.778 273.506 262.595 273.993 C 263.414 274.48 264.244 275.073 264.441 275.311 C 264.639 275.549 264.984 275.743 265.209 275.743 C 265.433 275.743 265.685 275.922 265.769 276.141 C 265.853 276.361 266.37 276.781 266.919 277.076 C 267.467 277.371 267.916 277.703 267.916 277.814 C 267.916 278.246 269.858 278.658 270.588 278.38 C 271.365 278.085 275.775 275.212 276.038 274.83 C 276.124 274.705 276.744 274.408 277.415 274.172 L 278.634 273.741 L 278.229 274.525 C 278.005 274.956 276.906 276.454 275.786 277.853 C 273.023 281.306 272.709 283.611 274.595 286.586 C 275.063 287.324 275.447 288.055 275.447 288.209 C 275.447 288.362 275.577 288.488 275.736 288.488 C 275.896 288.488 276.026 288.683 276.026 288.922 C 276.026 289.161 276.125 289.356 276.246 289.356 C 276.367 289.356 277.03 290.064 277.72 290.928 C 280.491 294.4 283.115 295.122 284.24 292.72 C 285.88 289.224 285.874 279.461 284.23 273.724 C 283.98 272.852 283.747 272.005 283.711 271.842 C 283.635 271.497 283.108 270.129 282.646 269.081 C 280.272 263.691 276.212 261.725 271.899 263.878 C 270.983 264.335 270.228 264.618 270.22 264.505 C 269.602 254.015 267.713 250.459 258.849 243.087 C 257.661 242.099 258.262 239.537 259.681 239.537 C 259.91 239.537 260.095 239.424 260.095 239.286 C 260.095 238.983 263.474 237.804 266.413 237.081 C 267.978 236.696 269.146 236.603 270.892 236.722 C 273.448 236.897 274.288 236.656 274.288 235.75 C 274.288 235.004 272.268 232.262 271.016 231.308 C 269.927 230.478 266.757 228.735 266.757 228.966 C 266.757 229.049 266.333 228.942 265.816 228.726 C 265.298 228.511 263.897 228.112 262.701 227.84 C 257.43 226.636 255.121 225.652 253.433 223.89 C 253.353 223.807 252.515 223.089 251.569 222.296 C 250.623 221.503 249.53 220.562 249.138 220.203 C 244.769 216.207 242.967 219.801 245.905 226.654 C 246.198 227.339 246.501 228.294 246.577 228.778 C 246.654 229.261 246.871 230.129 247.061 230.706 C 248.243 234.285 244.183 236.723 241.907 233.801 C 240.941 232.562 239.296 228.767 238.368 225.634 C 237.492 222.676 236.666 220.192 236.364 219.604 C 236.226 219.337 235.885 218.563 235.605 217.886 C 235.326 217.209 234.987 216.655 234.851 216.655 C 234.717 216.655 234.606 216.475 234.606 216.253 C 234.606 215.773 231.051 212.178 229.908 211.502 C 229.465 211.241 229.103 210.925 229.103 210.8 C 229.103 210.674 228.989 210.573 228.851 210.573 C 228.713 210.573 227.703 210.057 226.606 209.426 C 217.476 204.176 208.098 206.894 207.948 214.836 C 207.942 215.212 207.698 215.057 207.051 214.266 C 205.47 212.328 203.614 213.021 203.614 215.546 C 203.614 216.957 204.101 218.007 206.148 221.002 C 207.617 223.152 207.654 223.559 206.483 224.704 C 205.253 225.907 201.176 226.321 200.549 225.306 C 200.463 225.168 200.166 225.054 199.888 225.054 C 198.913 225.054 193.942 221.467 191.544 219.033 C 188.058 215.496 183.201 205.482 181.047 197.393 C 180.241 194.364 180.711 191.243 182.067 190.625 C 182.448 190.452 182.761 190.144 182.763 189.941 C 182.765 189.738 182.841 189.298 182.932 188.961 C 183.04 188.557 182.867 188.101 182.42 187.617 C 180.784 185.842 179.909 184.814 178.486 182.99 C 177.65 181.918 176.967 180.975 176.967 180.896 C 176.967 180.815 176.54 180.063 176.018 179.224 C 170.726 170.705 167.999 158.822 169.842 152.307 C 170.486 150.028 170.883 145.7 170.891 140.851 C 170.901 135.256 171.452 129.558 172.02 129.187 C 172.147 129.104 172.466 128.617 172.729 128.103 C 173.171 127.242 174.093 126.239 176.335 124.185 C 176.813 123.747 177.266 123.389 177.341 123.389 C 177.417 123.389 178.863 122.542 180.554 121.506 C 182.246 120.471 183.692 119.623 183.769 119.623 C 184.089 119.623 188.366 116.401 189.963 114.957 L 191.688 113.395 L 192.023 111.078 C 192.411 108.388 193.112 104.822 193.514 103.488 C 193.668 102.977 193.84 102.325 193.895 102.04 C 193.952 101.754 194.728 99.044 195.62 96.017 C 196.513 92.99 197.377 90.057 197.541 89.5 C 198.374 86.657 199.231 79.045 199.256 74.265 C 199.271 71.549 198.959 71.062 197.106 70.912 C 195.816 70.806 195.823 70.823 195.246 67.052 C 195.075 65.937 194.872 64.717 194.796 64.342 C 194.595 63.36 193.057 61.395 190.073 58.305 C 189.555 57.769 189.131 57.274 189.131 57.205 C 189.131 57.137 188.634 56.587 188.026 55.984 C 186.024 53.995 184.281 51.723 183.631 50.253 C 183.279 49.455 182.872 48.544 182.727 48.225 C 179.637 41.445 179.593 30.205 182.625 21.721 C 183.986 17.91 183.73 14.242 181.825 10.282 C 178.715 3.811 176.39 4.074 172.888 11.295 C 170.885 15.424 170.088 16.343 168.903 15.891 C 168.478 15.729 167.448 15.41 166.611 15.183 C 165.775 14.956 164.367 14.575 163.484 14.336 C 161.129 13.7 158.429 13.999 158.429 14.897 C 158.429 15.062 157.989 14.547 157.452 13.753 C 156.465 12.294 153.352 9.316 151.761 8.308 C 151.287 8.008 150.898 7.645 150.898 7.5 C 150.898 7.357 150.754 7.239 150.577 7.239 C 150.401 7.239 149.782 6.867 149.202 6.41 C 148.621 5.954 147.755 5.365 147.277 5.099 C 146.799 4.834 146.017 4.378 145.539 4.087 C 142.87 2.457 141.63 1.77 141.63 1.922 C 141.63 2.015 141.317 1.888 140.936 1.639 C 139.848 0.926 136.989 0.574 131.346 0.457 C 128.479 0.398 125.079 0.253 123.79 0.134 C 121.721 -0.055 121.424 -0.022 121.255 0.418 M 187.614 171.983 C 183.55 173.467 183.513 175.646 187.4 184.794 C 191.479 194.394 196.464 191.462 194.465 180.639 C 194.226 179.339 193.957 177.886 193.869 177.407 C 193.101 173.247 190.45 170.947 187.614 171.983 M 200.432 183.55 C 198.547 184.336 198.995 187.068 201.127 187.779 C 202.934 188.381 204.38 185.767 203.075 184.261 C 202.507 183.606 201.164 183.244 200.432 183.55 M 194.146 213.897 C 192.931 214.756 195.256 218.141 198.049 219.581 C 198.481 219.803 198.9 220.058 198.979 220.146 C 200.116 221.406 202.274 221.878 202.759 220.973 C 203.981 218.69 196.296 212.376 194.146 213.897 M 278.455 221.072 C 277.281 223.614 277.062 233.009 278.096 236.447 C 279.107 239.807 282.139 245.746 283.049 246.151 C 283.169 246.204 283.267 246.432 283.267 246.658 C 283.267 246.883 283.453 247.068 283.681 247.068 C 284.213 247.068 284.428 246.845 287.131 243.503 C 288.188 242.196 290.302 237.573 290.178 236.841 C 290.145 236.651 290.219 235.764 290.342 234.87 C 291.132 229.112 287.879 223.234 282.384 220.485 C 279.3 218.944 279.448 218.922 278.455 221.072 M 125.147 229.956 C 123.062 231.276 130.47 239.491 132.792 238.432 C 134.038 237.865 133.707 235.535 132.071 233.361 C 130.115 230.761 126.603 229.034 125.147 229.956 M 140.18 245.279 C 136.574 246.292 134.595 248.039 135.2 249.675 C 135.319 249.997 138.288 253.158 141.796 256.702 C 145.305 260.245 148.498 263.6 148.891 264.157 C 150.085 265.85 151.259 268.632 152.799 273.426 C 153.836 276.654 154.946 279.563 155.311 280.016 C 155.471 280.215 155.525 280.378 155.429 280.378 C 155.28 280.378 156.838 283.009 158.493 285.549 C 158.767 285.971 159.257 286.771 159.579 287.329 C 160.345 288.649 164.194 294.731 165.903 297.322 C 167.019 299.012 168.26 300.687 170.023 302.886 C 170.178 303.078 170.304 303.289 170.304 303.356 C 170.304 303.679 172.654 305.975 174.037 307.005 C 178.63 310.421 181.139 308.953 183.158 301.667 C 183.555 300.233 184.352 297.756 184.928 296.163 C 186.717 291.225 186.895 290.477 186.903 287.897 C 186.909 285.85 186.766 285.048 186.075 283.262 C 185.615 282.074 185.23 281.037 185.218 280.957 C 185.207 280.878 185.047 280.356 184.865 279.798 C 184.682 279.241 184.314 277.025 184.046 274.874 C 183.305 268.916 181.29 262.74 179.41 260.661 C 179.181 260.409 178.993 260.106 178.993 259.989 C 178.993 259.49 175.037 254.692 172.758 252.427 C 171.501 251.178 168.556 249.431 166.105 248.479 C 164.338 247.793 160.053 246.488 159.567 246.488 C 159.255 246.488 158.251 246.303 157.338 246.074 C 152.122 244.771 143.425 244.367 140.18 245.279 M 196.356 245.011 C 192.374 246.298 191.019 251.281 193.79 254.437 C 194.254 254.967 194.634 255.714 194.634 256.099 C 194.634 256.792 196.517 258.944 197.124 258.944 C 197.284 258.944 197.567 259.095 197.753 259.282 C 199.305 260.833 202.72 260.458 204.654 258.524 C 205.905 257.273 206.749 252.904 206.177 250.635 C 205.314 247.207 199.629 243.952 196.356 245.011 M 274.93 257.479 C 272.537 258.161 272.543 258.12 274.639 259.368 C 277.715 261.202 279.212 261.062 279.212 258.944 C 279.212 257.086 277.889 256.633 274.93 257.479 M 238.68 264.999 C 237.896 266.101 238.297 269.95 239.197 269.95 C 239.303 269.95 239.557 270.33 239.762 270.795 C 240.234 271.86 244.98 276.869 247.333 278.784 C 248.311 279.581 249.595 280.66 250.187 281.182 C 252.486 283.214 254.932 281.575 253.165 279.186 C 252.834 278.74 252.565 278.293 252.565 278.193 C 252.565 277.489 247.126 270.029 245.174 268.055 C 241.37 264.208 239.778 263.458 238.68 264.999 M 206.39 287.52 C 204.271 288.667 203.366 290.513 203.752 292.899 C 204.073 294.881 204.04 297.061 203.626 301.087 C 202.989 307.279 203.094 308.547 204.527 311.877 C 205.32 313.721 205.522 313.976 206.187 313.973 C 207.608 313.964 207.834 313.553 208.092 310.501 C 208.179 309.465 208.441 307.119 208.672 305.287 C 209.6 297.954 210.035 294.597 210.381 292.109 C 211.017 287.54 209.524 285.823 206.39 287.52 M 266.215 287.938 C 264.695 288.53 265.97 293.783 268.295 296.504 C 272.188 301.063 274.395 300.847 273.11 296.031 C 271.713 290.797 268.515 287.041 266.215 287.938 M 251.266 290.893 C 250.579 291.506 250.562 291.604 250.825 293.557 C 250.974 294.671 251.175 297.605 251.272 300.074 C 251.448 304.576 251.774 306.301 252.883 308.6 C 253.456 309.788 253.666 313.108 253.17 313.108 C 252.247 313.108 250.532 320.696 251.11 322.217 C 251.696 323.759 253.507 323.017 254.889 320.667 C 255.461 319.697 257.004 317.351 257.196 317.163 C 257.403 316.959 258.033 315.943 258.272 315.425 C 258.872 314.126 262.263 310.79 262.984 310.79 C 264.179 310.79 265.793 312.238 268.436 315.685 C 269.122 316.578 269.84 317.503 270.034 317.742 C 270.227 317.981 270.84 318.76 271.396 319.473 C 271.951 320.186 272.568 320.945 272.767 321.159 C 272.967 321.374 273.129 321.655 273.129 321.785 C 273.129 322.323 276.284 325.082 278.321 326.325 C 279.528 327.061 281.569 328.372 282.855 329.238 C 286.361 331.598 287.194 331.137 287.445 326.693 C 287.619 323.625 286.572 319.724 285.149 318.145 C 284.99 317.967 284.469 317.324 283.991 316.714 C 282.385 314.665 264.313 296.691 262.639 295.476 C 260.267 293.757 254.207 290.702 252.489 290.359 C 252.209 290.303 251.659 290.544 251.266 290.893 M 313.39 292.3 C 312.673 292.446 311.37 292.789 310.494 293.062 C 308.529 293.673 305.189 293.651 301.844 293.009 C 296.259 291.935 292.287 292.694 291.796 294.93 C 291.6 295.821 292.14 298.525 292.565 298.788 C 292.709 298.876 292.825 299.19 292.825 299.485 C 292.825 299.78 293.138 300.651 293.521 301.423 C 293.903 302.194 294.522 303.452 294.896 304.218 C 295.271 304.983 295.753 305.961 295.968 306.39 C 296.48 307.413 298.388 310.605 298.599 310.79 C 298.689 310.87 299.195 311.554 299.723 312.312 C 301.659 315.088 304.749 317.993 308.505 320.568 C 309.484 321.24 309.9 321.745 310.046 322.44 C 310.235 323.339 311.312 324.429 315.563 328.024 C 316.907 329.159 319.665 330.733 321.188 331.23 L 322.565 331.682 L 322.2 333.039 C 321.235 336.633 319.605 340.045 318.855 340.045 C 317.352 340.045 317.227 341.764 318.621 343.268 C 319.269 343.964 320.06 344.893 320.379 345.331 L 320.961 346.127 L 320.289 346.138 C 319.34 346.153 318.653 346.594 316.271 348.725 C 313.083 351.576 312.995 351.63 311.551 351.63 C 310.829 351.63 310.157 351.501 310.06 351.342 C 309.961 351.182 309.699 351.052 309.478 351.052 C 308.253 351.052 303.606 346.825 301.449 343.751 C 297.685 338.383 296.319 346.645 299.21 357.296 C 299.553 358.561 299.861 359.727 299.894 359.886 C 300.214 361.447 303.22 368.8 303.603 368.961 C 303.729 369.015 303.832 369.21 303.832 369.395 C 303.832 369.882 306.138 373.209 306.735 373.581 C 307.684 374.174 308.345 373.693 308.87 372.029 C 309.537 369.911 310.233 370.042 312.794 372.776 C 317.096 377.363 317.948 379.818 318.173 388.271 C 318.267 391.777 318.393 394.839 318.456 395.078 C 318.517 395.317 318.651 396.36 318.751 397.395 C 319.09 400.9 319.478 402.34 320.987 405.722 C 321.418 406.689 323.535 409.482 324.454 410.296 C 326.091 411.748 327.815 413.036 328.12 413.036 C 328.303 413.036 328.452 413.167 328.452 413.326 C 328.452 413.735 330.292 413.687 330.711 413.268 C 331.189 412.791 331.147 411.455 330.59 409.404 C 329.201 404.282 329.067 403.048 329.929 403.304 C 335.674 405.008 340.062 402.024 338.813 397.262 C 338.341 395.462 336.489 390.588 335.344 388.127 C 333.929 385.088 332.932 383.048 332.796 382.913 C 332.717 382.833 332.345 382.141 331.97 381.374 C 331.596 380.607 330.791 379.126 330.181 378.082 C 328.809 375.734 328.553 374.263 328.157 366.403 C 327.862 360.548 327.453 357.641 326.739 356.31 C 325.86 354.672 328.806 356.64 332.595 360.222 C 334.847 362.352 335.769 362.886 336.352 362.401 C 336.566 362.225 337.45 361.896 338.316 361.672 C 339.844 361.276 340.162 361.289 343.994 361.901 C 344.787 362.028 346.69 362.63 347.348 362.963 C 347.624 363.103 347.971 363.217 348.119 363.217 C 348.265 363.217 349.36 363.673 350.551 364.231 C 353.485 365.605 354.52 365.457 354.52 363.664 C 354.52 363.266 353.234 361.023 352.769 360.61 C 352.68 360.531 352.228 359.944 351.765 359.307 C 350.488 357.549 349.562 356.598 348.361 355.81 C 347.29 355.107 347.278 355.079 347.702 354.262 C 348.783 352.169 348.5 349.844 346.568 344.969 C 345.644 342.639 344.055 339.396 343.52 338.748 C 343.385 338.585 342.719 337.018 342.038 335.265 L 340.8 332.08 L 340.607 324.549 C 340.436 317.893 340.34 316.789 339.774 315.042 C 339.062 312.845 339.051 312.88 340.891 311.127 L 341.904 310.16 L 340.773 309.152 C 339.335 307.874 337.859 307.026 335.062 305.875 C 332.238 304.714 332.246 304.727 331.885 301.33 C 331.343 296.23 329.763 294.782 322.804 293.007 C 318.835 291.994 315.945 291.777 313.39 292.3 M 222.586 295.611 C 219.638 297.801 219.627 297.754 224.034 301.694 C 225.787 303.261 227.546 304.888 227.944 305.311 C 231.708 309.309 234.165 301.449 230.569 296.91 C 228.342 294.098 225.29 293.601 222.586 295.611 M 123.938 304.769 C 122.258 309.259 123.44 313.508 127.032 315.892 C 131.055 318.563 142.611 320.853 143.665 319.188 C 144.286 318.205 143.308 314.382 142.068 312.94 C 141.668 312.475 141.34 312.011 141.34 311.91 C 141.34 311.808 140.916 311.512 140.398 311.25 C 139.88 310.989 139.261 310.655 139.022 310.511 C 138.783 310.366 137.61 309.901 136.415 309.477 C 135.221 309.053 133.832 308.524 133.33 308.301 C 132.828 308.077 132.274 307.894 132.1 307.894 C 131.925 307.894 131.781 307.772 131.781 307.624 C 131.781 307.476 131.553 307.279 131.274 307.187 C 130.996 307.095 129.79 306.114 128.595 305.007 C 125.627 302.254 124.892 302.217 123.938 304.769 M 204.688 322.539 C 203.125 324.103 201.144 329.431 201.762 330.411 C 201.924 330.668 202.707 331.099 203.501 331.37 C 209.543 333.423 210.877 336.545 210.365 347.429 C 210.123 352.577 210.086 357.254 210.254 361.624 C 210.367 364.572 210.165 367.534 209.69 369.879 C 208.805 374.257 208.665 378.73 209.295 382.478 C 209.376 382.956 209.467 385.838 209.499 388.882 C 209.562 394.816 209.691 395.368 211.029 395.368 C 213.03 395.368 215.289 393.882 219.529 389.779 C 222.682 386.727 224.81 384.94 225.295 384.94 C 225.478 384.94 225.628 384.838 225.628 384.713 C 225.628 384.588 226.826 384.243 228.291 383.946 C 232.212 383.155 236.558 380.545 238.516 377.81 C 238.835 377.365 239.324 376.766 239.603 376.481 C 239.881 376.195 240.109 375.809 240.109 375.622 C 240.109 375.436 240.282 375.077 240.494 374.826 C 241.043 374.172 241.557 372.195 241.562 370.714 C 241.569 368.331 241.627 368.268 246.336 365.664 C 252.346 362.339 254.103 360.131 253.324 356.881 C 253.071 355.826 252.793 353.463 252.706 351.63 C 252.248 342.022 250.979 340.277 246.482 343.077 L 244.888 344.07 L 244.53 342.999 C 243.011 338.459 237.325 336.222 234.896 339.209 C 234.595 339.58 231.5 341.204 231.095 341.204 C 230.585 341.204 229.069 339.631 226.211 336.135 C 223.375 332.665 220.982 330.427 219.159 329.538 C 215.699 327.853 213.841 327.053 212.958 326.871 C 212.442 326.764 211.943 326.551 211.847 326.397 C 211.753 326.244 211.195 325.814 210.606 325.444 C 210.018 325.072 208.918 324.167 208.162 323.431 C 206.387 321.706 205.698 321.53 204.688 322.539 M 126.932 322.601 C 124.391 323.578 124.632 325.005 128.01 328.993 C 129.135 330.322 130.251 331.785 130.487 332.243 C 131.613 334.419 133.327 333.821 133.466 331.204 C 133.564 329.363 133.396 328.624 131.974 324.621 L 131.073 322.087 L 129.617 322.108 C 128.815 322.12 127.608 322.342 126.932 322.601 M 299.566 333.142 C 298.43 333.451 297.928 334.295 298.156 335.514 C 298.251 336.015 298.339 336.555 298.353 336.714 C 298.367 336.874 298.487 337.135 298.619 337.294 C 298.751 337.453 299.133 338.277 299.466 339.123 C 302.361 346.468 308.066 348.276 308.014 341.832 C 307.967 335.986 304.024 331.93 299.566 333.142 M 124.329 344.636 C 121.763 345.384 122.027 347.66 124.815 348.832 C 126.636 349.598 127.987 348.128 127.399 346.022 C 127.007 344.614 125.985 344.153 124.329 344.636 M 112.234 349.306 C 111.511 350.705 110.96 354.277 110.906 357.926 C 110.835 362.663 110.73 363.217 109.896 363.217 C 108.256 363.217 108.186 364.397 109.631 367.707 C 109.84 368.184 110.416 369.619 110.912 370.892 C 111.407 372.167 111.921 373.47 112.053 373.789 C 113.206 376.562 113.178 377.359 111.96 376.431 C 111.412 376.013 110.869 375.672 110.752 375.672 C 110.635 375.672 109.67 374.76 108.61 373.644 C 106.562 371.493 106.232 371.344 105.172 372.086 C 104.318 372.684 104.391 373.101 106.457 379.34 C 108.417 385.26 108.423 387.692 106.49 392.26 C 106.235 392.859 106.022 393.413 106.015 393.49 C 105.926 394.481 104.326 394.992 104.103 394.1 C 103.696 392.478 102.049 392.578 100.934 394.293 C 100.615 394.784 99.768 395.491 99.051 395.867 C 96.459 397.223 96.394 397.365 95.923 402.754 L 95.72 405.071 L 93.771 405.216 C 90.957 405.425 90.546 405.856 90.719 408.418 C 90.798 409.58 90.745 410.342 90.591 410.248 C 89.673 409.68 88.632 410.833 86.935 414.294 C 85.985 416.232 84.6 419.053 83.856 420.567 C 82.128 424.085 80.613 426.774 79.442 428.404 C 77.228 431.484 75.816 433.579 74.798 435.295 C 74.197 436.306 73.487 437.479 73.217 437.901 C 72.949 438.324 72.208 439.583 71.572 440.697 C 70.271 442.977 67.96 446.27 66.591 447.794 C 66.091 448.351 65.596 448.938 65.494 449.098 C 65.277 449.433 62.861 450.292 61.429 450.541 C 59.848 450.817 57.342 452.661 57.342 453.549 C 57.342 453.703 57.239 453.871 57.113 453.924 C 56.831 454.044 55.024 456.979 55.024 457.317 C 55.024 457.453 53.613 458.811 51.89 460.335 C 46.452 465.143 43.722 468.633 40.63 474.731 C 40.024 475.926 39.43 476.948 39.311 477.001 C 39.191 477.054 39.093 477.32 39.093 477.594 C 39.093 477.868 38.989 478.215 38.862 478.367 C 38.648 478.62 37.354 481.879 36.509 484.289 C 34.989 488.624 34.637 494.882 35.885 495.344 C 36.523 495.581 36.906 495.279 40.085 492.028 C 42.01 490.061 44.431 487.746 45.466 486.883 C 46.501 486.021 47.623 485.052 47.96 484.73 C 48.295 484.408 48.834 483.95 49.157 483.711 C 49.479 483.472 50.312 482.797 51.008 482.212 C 51.704 481.627 53.233 480.352 54.409 479.38 C 57.633 476.711 61.779 472.751 63.661 470.545 C 64.866 469.132 67.795 465.093 68.243 464.228 C 68.872 463.011 69.58 462.23 76.053 455.622 C 79.255 452.352 82.497 449.025 83.258 448.228 C 86.267 445.075 90.387 439.264 90.806 437.582 C 90.916 437.141 91.113 436.716 91.246 436.633 C 91.378 436.551 91.571 435.868 91.674 435.115 C 91.777 434.362 91.91 433.429 91.971 433.04 C 92.096 432.234 91.575 429.868 91.153 429.329 C 90.946 429.065 91.03 428.967 91.463 428.967 C 92.812 428.967 93.413 426.99 92.665 425.022 C 92.499 424.584 92.336 423.37 92.303 422.324 C 92.188 418.646 94.041 417.425 101.742 416.105 C 106.221 415.338 107.915 413.735 109.3 408.956 C 109.557 408.065 109.768 407.123 109.768 406.862 C 109.768 404.38 111.599 402.486 115.459 400.972 C 119.114 399.539 122.745 396.773 123.577 394.788 C 125.066 391.234 124.852 389.219 122.484 384.55 C 121.826 383.251 121.188 382.059 121.066 381.899 C 118.375 378.388 116.776 372.771 117.119 368.035 C 117.587 361.576 117.67 355.738 117.314 354.342 C 117.117 353.568 116.906 352.684 116.844 352.377 C 116.783 352.07 116.6 351.685 116.437 351.522 C 116.273 351.359 116.14 351.048 116.14 350.83 C 116.14 348.861 113.081 347.668 112.234 349.306 M 286.478 356.62 C 284.345 358.802 281.814 367.636 280.776 376.525 C 280.693 377.233 280.57 377.902 280.502 378.011 C 280.434 378.122 280.302 378.715 280.211 379.331 C 280.118 379.947 279.907 380.972 279.742 381.609 C 279.576 382.245 279.402 382.962 279.355 383.201 C 279.163 384.184 277.261 389.554 276.329 391.747 C 275.729 393.157 274.431 396.387 274.408 396.522 C 274.396 396.604 274.23 397.062 274.041 397.54 C 273.281 399.47 272.761 400.763 272.47 401.451 C 272.302 401.849 272.124 402.305 272.074 402.464 C 272.024 402.624 271.518 404.058 270.948 405.65 C 268.737 411.832 268.328 413.818 268.087 419.533 C 267.931 423.243 267.702 425.381 266.89 430.705 C 265.475 439.983 265.475 439.991 266.361 440.946 C 268.384 443.128 274.288 438.627 274.288 434.902 C 274.288 434.643 274.419 434.188 274.578 433.89 C 274.882 433.323 275.728 429.207 276.305 425.492 C 278.094 413.985 279.224 410.603 282.112 408.112 C 284.356 406.177 288.663 398.787 290.299 394.064 L 291.202 391.458 L 291.178 384.437 C 291.163 380.146 290.973 375.754 290.689 373.141 C 289.56 362.73 289.341 360.35 289.346 358.555 C 289.352 355.647 288.193 354.865 286.478 356.62 M 274.723 356.472 C 271.747 357.188 269.713 365.16 272.296 365.98 C 272.953 366.189 274.867 365.611 274.867 365.205 C 274.867 365.049 274.977 364.989 275.113 365.073 C 275.749 365.466 278.725 362.451 279.37 360.759 C 280.523 357.741 278.232 355.627 274.723 356.472 M 253.578 368.205 C 252.94 368.553 252.376 368.941 252.323 369.069 C 252.269 369.195 252.114 369.299 251.976 369.299 C 250.589 369.299 248.426 373.243 248.084 376.396 C 247.761 379.368 247.727 379.691 247.517 381.754 C 247.412 382.789 247.171 384.093 246.982 384.651 C 246.642 385.652 246.512 385.904 244.97 388.552 C 244.298 389.706 243.8 391.235 243.74 392.326 C 243.705 392.975 244.443 396.558 245.171 399.279 C 247.638 408.48 245.724 412.8 238.372 414.623 C 231.046 416.441 229.823 417.542 229.832 422.305 C 229.842 426.485 232.877 434.945 235.346 437.673 C 235.576 437.928 235.764 438.244 235.764 438.376 C 235.764 438.507 236.09 439.042 236.488 439.565 C 236.887 440.087 237.213 440.593 237.213 440.691 C 237.213 442.247 240.444 444.625 245.323 446.661 C 247.505 447.571 248.812 448.416 249.828 449.574 C 250.69 450.556 250.957 451.24 251.846 454.746 C 252.903 458.919 253.165 459.574 254.234 460.717 C 259.729 466.594 270.091 456.869 267.486 448.28 C 267.084 446.954 266.071 444.824 263.794 440.513 C 261.816 436.768 260.905 432.256 260.996 426.65 C 261.076 421.633 262.284 412.717 263.586 407.533 C 263.726 406.976 264.108 405.346 264.434 403.912 C 265.58 398.883 267.542 392.885 269.362 388.851 C 271.813 383.415 272.264 376.079 270.298 373.61 C 268.274 371.067 264.942 368.431 263.752 368.431 C 263.557 368.431 263.234 368.267 263.036 368.069 C 262.319 367.352 254.945 367.458 253.578 368.205 M 235.91 380.828 C 231.825 383.37 230.626 396.526 234.48 396.526 C 236.347 396.526 241.464 388.789 241.701 385.609 C 241.955 382.167 238.432 379.258 235.91 380.828 M 300.491 383.234 C 300.166 384.259 300.627 386.862 301.231 387.407 C 302.65 388.692 305.668 385.878 304.737 384.139 C 303.938 382.645 300.885 381.994 300.491 383.234 M 132.121 385.698 C 130.016 386.617 127.312 390.065 126.951 392.291 C 126.586 394.541 129.389 394.995 131.636 393.05 C 132.373 392.413 132.902 391.892 132.814 391.892 C 132.374 391.892 133.996 390.439 134.784 390.128 C 136.182 389.576 136.706 388.994 136.695 388.009 C 136.674 385.842 134.409 384.699 132.121 385.698 M 350.992 395.052 C 349.179 396.98 348.995 397.591 348.709 402.618 C 348.526 405.843 348.307 407.498 347.968 408.208 C 347.391 409.42 347.57 410.024 348.646 410.501 C 350.412 411.283 351.071 412.218 351.331 414.31 C 351.542 416.015 351.865 416.761 352.784 417.671 C 352.865 417.751 353.102 418.305 353.31 418.903 C 353.705 420.033 353.638 420.563 352.871 422.367 C 351.999 424.422 353.618 425.553 355.63 424.296 C 355.975 424.08 356.258 423.739 356.258 423.538 C 356.258 423.338 356.376 423.174 356.52 423.174 C 357.46 423.174 357.974 417.021 357.283 414.047 C 357.061 413.093 356.891 412.312 356.906 412.312 C 356.958 412.312 355.92 409.11 355.686 408.547 C 354.231 405.059 353.83 402.089 354.355 398.699 C 355.092 393.943 353.579 392.303 350.992 395.052 M 289.494 399.483 C 287.343 400.717 288.168 404.363 290.336 403.203 C 291.857 402.389 292.315 399.665 290.991 399.309 C 290.18 399.092 290.176 399.093 289.494 399.483 M 300.646 407.368 C 298.913 407.752 296.944 408.718 295.577 409.853 C 293.945 411.208 289.64 415.602 289.64 415.912 C 289.64 416.083 289.542 416.223 289.422 416.224 C 289.302 416.225 288.881 416.715 288.484 417.31 C 288.087 417.907 287.682 418.46 287.585 418.539 C 287.175 418.876 285.626 421.99 285.158 423.416 C 284.503 425.417 284.692 427.715 285.619 429.016 C 286.021 429.58 286.359 430.577 286.46 431.492 L 286.628 433.022 L 285.722 433.022 C 283.406 433.022 281.991 437.467 284.082 438.173 C 285.212 438.553 287.178 437.807 288.105 436.644 C 288.84 435.722 288.887 435.707 289.82 436.097 C 291.566 436.827 294.942 436.487 298.763 435.197 C 301.439 434.295 307.903 431.632 308.38 431.236 C 308.586 431.064 308.756 430.998 308.756 431.088 C 308.756 431.178 309.506 430.918 310.422 430.511 C 311.338 430.103 312.711 429.583 313.476 429.354 C 315.154 428.85 315.481 428.211 315.097 426.19 C 314.255 421.769 313.876 419.984 313.503 418.685 C 313.275 417.888 313.087 417.171 313.084 417.092 C 313.004 414.446 309.727 409.34 307.332 408.129 C 305.185 407.044 303.147 406.811 300.646 407.368 M 334.154 410.371 C 333.24 411.38 334.344 413.391 337.717 416.858 C 341.998 421.259 343.418 416.237 339.193 411.638 C 337.843 410.17 334.986 409.45 334.154 410.371 M 368.843 415.771 C 367.699 417.516 367.077 424.636 367.9 426.564 C 368.955 429.035 372.191 429.773 374.121 427.983 C 374.569 427.568 375.013 427.229 375.109 427.229 C 375.204 427.229 375.449 426.538 375.65 425.693 C 376.835 420.759 371.074 412.364 368.843 415.771 M 346.455 424.776 C 345.514 425.973 345.313 430.186 345.957 435.194 C 346.194 437.037 348.297 444.264 349.455 447.214 C 349.674 447.773 350.274 449.532 350.789 451.125 C 351.303 452.719 351.824 454.282 351.946 454.601 C 352.653 456.453 353.444 460.689 353.258 461.632 C 352.947 463.21 351.392 463.891 348.687 463.635 C 345.561 463.337 344.981 463.087 342.724 461.059 C 340.901 459.422 340.141 459.665 339.375 462.131 C 338.812 463.942 338.085 467.125 338.033 468.007 C 337.999 468.577 331.766 464.487 331.397 463.653 C 331.344 463.533 331.132 463.435 330.926 463.435 C 330.719 463.435 330.389 463.24 330.19 463.001 C 329.075 461.658 326.553 462.786 325.865 464.934 C 325.532 465.977 325.479 466.535 325.13 472.703 C 325.034 474.376 324.899 476.266 324.829 476.904 C 324.759 477.541 324.634 479.181 324.551 480.548 C 324.239 485.696 321.86 487.339 318.338 484.838 C 314.201 481.901 313.423 481.625 311.508 482.418 C 309.566 483.221 308.361 484.699 307.738 487.041 C 307.611 487.52 307.464 488.041 307.411 488.2 C 307.248 488.697 306.49 493.618 306.295 495.441 C 305.719 500.868 304.414 502.498 300.066 503.226 C 296.989 503.741 294.606 504.648 293.387 505.767 C 292.979 506.142 292.002 506.966 291.215 507.6 C 290.428 508.234 289.653 508.9 289.494 509.082 C 289.099 509.531 285.943 511.806 285.715 511.806 C 285.528 511.806 286.953 510.394 289.519 508.035 C 293.088 504.756 293.6 501.772 291.81 494.717 C 291.532 493.618 290.93 491.772 290.616 491.052 C 290.398 490.55 290.218 490.026 290.218 489.887 C 290.218 489.184 288.193 484.978 287.185 483.591 C 285.131 480.763 283.188 480.211 281.044 481.847 C 280.155 482.525 280.062 482.542 279.918 482.062 C 278.347 476.833 272.871 474.098 272.827 478.52 C 272.793 481.981 271.092 483.7 266.354 485.059 C 264.95 485.462 263.625 485.976 262.212 486.666 C 260.999 487.258 259.322 489.202 258.953 490.443 C 258.751 491.122 258.454 492.002 258.293 492.4 C 257.999 493.125 257.286 496.125 257.02 497.758 C 256.524 500.797 254.997 503.491 253.198 504.497 C 251.952 505.194 248.759 506.304 248.012 506.301 C 247.728 506.3 246.649 506.49 245.612 506.723 C 244.577 506.957 242.817 507.295 241.703 507.475 C 238.911 507.925 236.052 508.619 235.186 509.057 C 234.787 509.257 233.961 509.665 233.349 509.962 C 228.301 512.417 226.077 517.794 225.941 527.881 C 225.896 531.212 225.784 532.545 225.167 537.084 C 225.085 537.684 224.835 538.696 224.609 539.332 C 224.386 539.969 224.21 540.558 224.22 540.642 C 224.238 540.789 224.012 541.431 223.157 543.668 C 222.944 544.225 222.43 545.593 222.016 546.709 C 221.602 547.824 221.141 548.956 220.992 549.225 C 216.287 557.708 224.198 568.181 231.301 562.875 C 233.134 561.507 233.979 558.995 235.037 551.778 C 235.814 546.479 236.073 545.056 236.513 543.668 C 236.74 542.951 236.926 542.135 236.925 541.853 C 236.924 541.572 237.045 541.116 237.192 540.84 C 237.34 540.563 237.747 539.708 238.098 538.939 C 238.447 538.171 239.152 537.128 239.663 536.622 C 240.845 535.453 241.616 533.982 242.576 531.068 C 246.486 519.207 249.989 519.553 252.835 532.082 C 253.179 533.594 253.539 535.159 253.636 535.557 C 254.289 538.258 256.628 538.943 257.074 536.565 C 257.337 535.159 257.683 535.062 258.705 536.105 C 259.189 536.601 259.475 537.005 259.341 537.005 C 259.207 537.005 259.389 537.21 259.745 537.46 C 261.342 538.577 262.167 537.608 262.706 533.984 C 263.066 531.558 263.785 529.004 264.286 528.375 C 265.355 527.029 265.718 526.823 266.101 527.346 C 266.625 528.064 266.573 531.362 266.023 532.201 C 264.823 534.032 265.109 535.847 266.597 535.847 C 266.969 535.847 267.906 536.297 268.68 536.848 C 277.522 543.14 280.428 543.262 277.454 537.219 C 276.1 534.47 275.925 531.662 277.074 531.157 C 277.532 530.955 277.974 530.719 278.054 530.633 C 278.133 530.546 278.539 530.259 278.955 529.995 C 280.074 529.284 280.281 526.656 279.385 524.539 C 278.712 522.947 283.33 520.479 284.452 521.831 C 284.635 522.052 284.933 522.235 285.113 522.236 C 285.292 522.238 285.903 522.677 286.469 523.215 C 287.564 524.254 290.977 526.715 293.083 527.984 C 295.245 529.287 298.179 531.303 298.281 531.553 C 298.334 531.685 298.495 531.792 298.639 531.792 C 299.239 531.792 303.832 536.219 303.832 536.798 C 303.832 536.967 304.014 537.311 304.238 537.563 C 304.581 537.949 306.328 542.491 306.392 543.163 C 306.404 543.283 306.498 543.832 306.601 544.382 C 306.926 546.117 304.911 551.844 303.378 553.537 C 303.15 553.79 302.963 554.213 302.963 554.48 C 302.963 554.746 302.833 554.964 302.673 554.964 C 302.514 554.964 302.384 555.088 302.384 555.241 C 302.384 555.393 302.024 556.142 301.583 556.906 C 299.449 560.609 299.034 565.804 300.397 571.763 C 300.562 572.48 300.748 573.328 300.811 573.646 C 300.876 573.965 301.114 575.073 301.34 576.108 C 301.567 577.144 301.961 578.951 302.216 580.123 C 302.471 581.296 302.736 582.348 302.806 582.46 C 302.876 582.574 302.993 582.982 303.067 583.37 C 303.249 584.32 303.875 586.867 304.06 587.404 C 304.142 587.644 304.241 587.969 304.282 588.129 C 304.611 589.455 305.482 591.552 306.178 592.695 C 306.64 593.454 307.018 594.152 307.018 594.246 C 307.018 594.992 312.791 601.211 314.324 602.116 C 314.766 602.377 315.129 602.686 315.129 602.802 C 315.129 602.918 315.779 603.378 316.577 603.825 C 317.373 604.272 318.025 604.736 318.025 604.856 C 318.025 604.975 318.22 605.072 318.459 605.072 C 318.698 605.072 318.894 605.188 318.894 605.328 C 318.894 605.469 319.122 605.664 319.4 605.759 C 319.68 605.856 320.298 606.196 320.776 606.515 C 321.254 606.834 321.939 607.247 322.297 607.433 C 322.655 607.62 322.949 607.882 322.949 608.016 C 322.949 608.15 323.082 608.259 323.245 608.259 C 323.409 608.259 324.354 608.766 325.345 609.383 C 334.994 615.403 340.283 617.14 343.24 615.261 C 344.632 614.376 344.861 614.012 345.83 611.155 C 347.743 605.519 350.039 603.312 350.125 607.028 C 350.533 624.756 353.023 632.39 357.618 629.995 C 358.678 629.443 361.762 626.527 361.762 626.078 C 361.762 625.974 362.073 625.474 362.454 624.967 C 363.176 624.006 366.397 617.583 366.496 616.904 C 366.528 616.689 366.696 616.123 366.869 615.645 C 367.245 614.605 367.924 612.257 368.562 609.789 C 369.258 607.097 369.156 598.971 368.399 596.819 C 367.126 593.195 365.43 590.131 362.428 586.031 C 361.584 584.877 360.892 583.882 360.892 583.817 C 360.892 583.753 360.198 582.675 359.35 581.422 C 356.551 577.288 356.194 574.571 357.718 569.011 C 358.068 567.737 358.462 566.303 358.592 565.826 C 358.724 565.348 359.11 564.175 359.451 563.218 C 359.792 562.263 360.103 561.35 360.144 561.191 C 360.184 561.032 360.387 560.51 360.596 560.033 C 360.804 559.555 361.201 558.642 361.477 558.005 C 363.135 554.189 364.231 551.866 364.565 551.465 C 364.776 551.213 364.948 550.927 364.948 550.828 C 364.948 550.555 366.774 547.881 367.036 547.771 C 367.162 547.717 367.265 547.519 367.265 547.328 C 367.265 546.811 368.401 545.938 368.939 546.041 C 369.533 546.156 372.176 549.737 372.319 550.619 C 372.332 550.698 372.466 550.959 372.617 551.198 C 373.034 551.857 377.113 560.107 377.113 560.29 C 377.113 560.378 377.457 561.204 377.879 562.124 C 380.047 566.865 380.787 570.646 380.897 577.553 C 380.954 581.182 382.335 585.377 385.453 591.4 C 386.679 593.766 387.951 592.871 388.364 589.353 C 389.635 578.539 389.268 572.932 386.951 567.794 L 386.14 565.995 L 388.071 565.91 L 390.003 565.826 L 391.161 563.584 C 391.798 562.35 392.711 560.868 393.188 560.291 C 394.955 558.154 396.317 556.553 396.488 556.412 C 399.273 554.124 400.997 543.657 399.566 537.729 C 399.336 536.774 399.143 535.522 399.136 534.949 C 399.131 534.375 399.004 533.528 398.854 533.066 C 398.704 532.604 398.511 531.665 398.425 530.978 C 398.339 530.291 398.198 529.614 398.112 529.474 C 398.025 529.333 397.818 528.483 397.652 527.585 C 397.287 525.608 396.366 523.89 394.762 522.197 C 391.093 518.322 390.81 517.505 391.818 513.713 C 393.665 506.756 392.595 501.274 389.258 500.608 L 388.452 500.446 L 389.444 498.608 C 390.426 496.788 390.808 494.402 390.179 494.013 C 390.038 493.925 389.835 493.51 389.73 493.091 C 389.517 492.244 386.149 488.829 384.877 488.171 C 384.43 487.94 384.064 487.624 384.064 487.469 C 384.064 487.314 383.902 487.185 383.702 487.185 C 383.504 487.184 382.95 486.821 382.471 486.38 C 381.993 485.937 381.161 485.264 380.621 484.884 C 377.195 482.473 376.944 481.143 379.479 478.827 C 384.74 474.021 385.388 473.056 385.145 470.381 C 384.979 468.545 384.674 467.95 381.458 463.176 L 379.285 459.951 L 379.254 455.523 C 379.22 450.64 378.907 449.102 377.897 448.849 C 377.133 448.659 375.142 449.07 374.702 449.509 C 372.801 451.411 369.486 447.997 367.691 442.291 C 366.552 438.67 365.782 437.752 362.684 436.321 C 359.261 434.739 357.486 433.347 354.79 430.134 C 350.157 424.612 347.783 423.086 346.455 424.776 M 365.366 428.59 C 364.397 429.558 365.357 435.295 366.735 436.775 C 367.772 437.887 369.155 436.81 369.564 434.566 C 370.146 431.384 367.02 426.935 365.366 428.59 M 277.885 449.782 C 274.162 453.173 275.04 459.959 279.202 459.959 C 282.138 459.959 283.943 457.544 283.252 454.542 C 282.105 449.56 280.091 447.774 277.885 449.782 M 319.598 451.997 C 318.068 452.669 317.341 455.435 318.585 455.85 C 318.755 455.906 318.894 456.134 318.894 456.356 C 318.894 456.945 321.51 459.592 322.744 460.255 C 325.01 461.468 326.543 459.059 325.533 455.875 C 324.33 452.084 322.348 450.79 319.598 451.997 M 28.409 508.726 C 26.977 510.452 27.575 518.263 29.338 520.874 C 31.066 523.43 33.838 518.29 32.981 514.117 C 32.48 511.675 32.412 511.474 31.724 510.383 C 30.444 508.355 29.223 507.744 28.409 508.726 M 253.826 540.392 C 252.042 540.741 251.527 543.466 252.953 545.004 C 253.377 545.461 253.723 545.93 253.723 546.047 C 253.723 547.065 256.412 547.354 257.838 546.49 C 262.569 543.626 259.686 539.246 253.826 540.392 M 366.951 552.453 C 364.483 553.57 363.878 557.696 365.837 560.057 C 365.983 560.232 366.032 560.446 365.946 560.532 C 365.861 560.616 366.188 561.36 366.673 562.182 C 367.158 563.005 367.555 563.781 367.555 563.906 C 367.555 564.569 368.981 564.892 369.732 564.401 C 370.606 563.828 370.69 561.57 370.002 557.136 C 369.448 553.566 369.263 552.949 368.61 552.491 C 367.915 552.004 367.942 552.005 366.951 552.453 M 89.492 556.624 C 86.048 557.554 85.707 559.175 88.567 561.01 C 90.929 562.526 92.1 562.159 92.098 559.902 C 92.096 557.799 90.867 556.252 89.492 556.624 M 223.455 572.933 C 221.716 573.769 217.103 577.343 216.987 577.945 C 216.811 578.862 217.187 579.691 218.386 581.032 C 219.027 581.749 219.631 582.639 219.73 583.01 C 221.29 588.899 227.561 590.941 231.565 586.864 C 232.806 585.599 232.726 585.746 235.295 580.084 C 236.532 577.359 236.351 576.575 234.316 575.838 C 232.836 575.301 231.988 574.9 230.767 574.155 C 227.969 572.451 225.365 572.016 223.455 572.933 M 169.121 590.766 C 168.558 591.444 168.562 595.825 169.126 596.505 C 169.815 597.335 171.18 596.984 171.833 595.811 C 173.276 593.218 170.843 588.689 169.121 590.766 M 188.589 604.934 C 186.043 605.714 184.514 608.007 184.504 611.063 C 184.494 613.493 185.602 614.431 187.368 613.486 C 188.866 612.685 192.843 612.208 194.6 612.62 C 195.495 612.83 196.325 612.978 196.444 612.948 C 196.563 612.918 197.325 613.546 198.138 614.342 C 199.991 616.155 200.472 616.155 202.219 614.343 C 204.914 611.546 203.863 608.948 199.125 606.692 C 195.203 604.826 191.151 604.15 188.589 604.934 M 217.575 604.841 C 216.104 606.311 219 609.458 221.408 609.006 C 223.763 608.564 223.116 605.77 220.559 605.342 C 220.399 605.316 220.012 605.114 219.698 604.894 C 218.994 604.402 218.038 604.377 217.575 604.841 M 155.95 640.485 C 155.303 641.001 154.176 641.987 153.444 642.675 C 151.733 644.284 150.462 645.231 149.015 645.973 C 144.723 648.177 143.581 649.725 144.413 652.212 C 145.409 655.188 146.253 655.44 149.02 653.589 C 149.497 653.27 150.146 652.852 150.465 652.66 C 154.083 650.474 157.953 647.806 159.016 646.764 C 159.269 646.516 159.734 646.125 160.048 645.896 C 161.69 644.694 162.273 643.089 161.542 641.782 C 160.126 639.247 158.09 638.776 155.95 640.485" stroke="none" fill="#ececec" fill-rule="evenodd" style=""/>
    <path id="path1" d="M 219.1 227.149 C 219.609 227.674 220.087 228.104 220.162 228.104 C 220.237 228.104 219.882 227.674 219.372 227.149 C 218.863 226.623 218.385 226.194 218.31 226.194 C 218.235 226.194 218.591 226.623 219.1 227.149 M 380.424 430.969 C 380.427 431.569 380.482 431.782 380.548 431.443 C 380.613 431.104 380.61 430.612 380.542 430.352 C 380.474 430.091 380.42 430.368 380.424 430.969 M 0.09 600.136 C 0.091 601.187 0.14 601.583 0.199 601.017 C 0.258 600.451 0.257 599.592 0.197 599.107 C 0.137 598.623 0.088 599.086 0.09 600.136 M 94.748 649.309 C 95.16 649.371 95.836 649.371 96.248 649.309 C 96.661 649.246 96.323 649.195 95.498 649.195 C 94.673 649.195 94.335 649.246 94.748 649.309" stroke="none" fill="#f0ecec" fill-rule="evenodd"/>
    <path id="path2" d="M 219.1 227.149 C 219.609 227.674 220.087 228.104 220.162 228.104 C 220.237 228.104 219.882 227.674 219.372 227.149 C 218.863 226.623 218.385 226.194 218.31 226.194 C 218.235 226.194 218.591 226.623 219.1 227.149 M 380.424 430.969 C 380.427 431.569 380.482 431.782 380.548 431.443 C 380.613 431.104 380.61 430.612 380.542 430.352 C 380.474 430.091 380.42 430.368 380.424 430.969 M 0.09 600.136 C 0.091 601.187 0.14 601.583 0.199 601.017 C 0.258 600.451 0.257 599.592 0.197 599.107 C 0.137 598.623 0.088 599.086 0.09 600.136 M 94.748 649.309 C 95.16 649.371 95.836 649.371 96.248 649.309 C 96.661 649.246 96.323 649.195 95.498 649.195 C 94.673 649.195 94.335 649.246 94.748 649.309" stroke="none" fill="#f0ecec" fill-rule="evenodd"/>
    <path id="path3" d="M 219.1 227.149 C 219.609 227.674 220.087 228.104 220.162 228.104 C 220.237 228.104 219.882 227.674 219.372 227.149 C 218.863 226.623 218.385 226.194 218.31 226.194 C 218.235 226.194 218.591 226.623 219.1 227.149 M 380.424 430.969 C 380.427 431.569 380.482 431.782 380.548 431.443 C 380.613 431.104 380.61 430.612 380.542 430.352 C 380.474 430.091 380.42 430.368 380.424 430.969 M 0.09 600.136 C 0.091 601.187 0.14 601.583 0.199 601.017 C 0.258 600.451 0.257 599.592 0.197 599.107 C 0.137 598.623 0.088 599.086 0.09 600.136 M 94.748 649.309 C 95.16 649.371 95.836 649.371 96.248 649.309 C 96.661 649.246 96.323 649.195 95.498 649.195 C 94.673 649.195 94.335 649.246 94.748 649.309" stroke="none" fill="#f0ecec" fill-rule="evenodd"/>
    <path id="path4" d="M 219.1 227.149 C 219.609 227.674 220.087 228.104 220.162 228.104 C 220.237 228.104 219.882 227.674 219.372 227.149 C 218.863 226.623 218.385 226.194 218.31 226.194 C 218.235 226.194 218.591 226.623 219.1 227.149 M 380.424 430.969 C 380.427 431.569 380.482 431.782 380.548 431.443 C 380.613 431.104 380.61 430.612 380.542 430.352 C 380.474 430.091 380.42 430.368 380.424 430.969 M 0.09 600.136 C 0.091 601.187 0.14 601.583 0.199 601.017 C 0.258 600.451 0.257 599.592 0.197 599.107 C 0.137 598.623 0.088 599.086 0.09 600.136 M 94.748 649.309 C 95.16 649.371 95.836 649.371 96.248 649.309 C 96.661 649.246 96.323 649.195 95.498 649.195 C 94.673 649.195 94.335 649.246 94.748 649.309" stroke="none" fill="#f0ecec" fill-rule="evenodd"/>
  </g>
</svg>