<?xml version="1.0" encoding="utf-8"?>
<!-- Generator: Adobe Illustrator 26.0.1, SVG Export Plug-In . SVG Version: 6.00 Build 0)  -->
<svg version="1.1" id="Layer_1" xmlns="http://www.w3.org/2000/svg" xmlns:xlink="http://www.w3.org/1999/xlink" x="0px" y="0px"
	 viewBox="0 0 512 512" style="enable-background:new 0 0 512 512;" xml:space="preserve">
<style type="text/css">
	.st0{fill:#FFFFFF;stroke:#000000;stroke-miterlimit:10;}
</style>
<path class="st0" d="M184.72,129.82"/>
<path class="st0" d="M195.63,133.26c0,0,3.35-0.39,3.78-0.22c0.43,0.17,1.26,1.17,1.57,1.3c0.3,0.13,5.09,1.04,5.09,1.04
	s4.3-0.3,4.43-0.39s1.35-1.48,1.52-1.74c0.17-0.26,0.48-3.26,0.57-3.43c0.09-0.17,0.83-2.22,1.3-2.7c0.48-0.48,2.56-3.48,2.87-3.74
	c0.3-0.26,3.13-1.83,3.13-1.83s2.39-0.91,2.74-1c0.35-0.09,5.56-4.13,5.56-4.13s1.96-4.48,2.09-4.65c0.13-0.17,3.13-3.13,3.13-3.13
	l5.13-3.52c0,0,5.56-1.04,6.26-1.04s8.35,0.7,8.35,0.7s2.78,1.91,2.96,2.43s0.17,1.57,1.57,1.74c1.39,0.17,1.74,0.17,3.13-0.17
	s4-3.65,4-3.65l6.26-4.17l5.39-3.13c0,0,5.91-1.22,6.43-1.22c0.52,0,6.43,1.04,6.43,1.04l2.96-1.04v-7.13l4-5.56l4.7-4.35
	c0,0,0.87-0.87,2.09-0.87c1.22,0,4.52,1.22,4.52,1.22s5.74,1.04,6.61,1.22c0.87,0.17,3.48,3.13,3.48,3.13s5.74,0.35,6.61,0
	s6.78-0.17,6.78-0.17l2.96-1.74l4.52,0.7c0,0,3.13,0.7,3.65,0.7c0.52,0,4.52-0.35,5.04-0.35s6.09,2.43,6.09,2.43l4.35,3.13
	l0.87,6.26l-5.04,0.35l-4,6.78c0,0-5.39,2.26-5.39,2.78c0,0.52,0,5.74,0.52,5.74s5.22,0.52,5.22,0.52l2.43,0.87
	c0,0,2.61-4.35,2.78-3.83c0.17,0.52,5.04,0.7,5.04,0.7l2.09-3.65l3.48,1.57l3.48-4.87l1.57-6.78l1.57-3.65c0,0,7.3-0.17,8.35,0.7
	c1.04,0.87,2.96,5.91,2.96,5.91l3.83-2.61l-2.09,4.35l4.52-0.7l1.39,2.61l4.35,0.87l-2.96,3.13l-2.43,4l0.7,3.13l4.7-1.04l3.83,1.39
	l4-3.65l1.91,1.57v2.78l-1.74,2.26l4.17-1.57l1.04,1.04c0,0-1.22,1.57-1.74,2.26c-0.52,0.7-2.43,3.48-2.43,3.48v2.96l-4.87-4
	l-0.35,2.61l1.22,4l6.61-0.35c0,0,2.61,1.57,2.96,2.43c0.35,0.87,3.48,2.09,3.48,2.09l1.74-2.61l1.39,3.65l3.13,0.17l2.61,1.91
	c0,0,2.61,1.57,3.48,1.74c0.87,0.17,3.65,0.7,4.17,0c0.52-0.7,4.17-2.61,4.17-2.61s6.96-0.17,7.48-0.35c0.52-0.17,4.7-1.22,4.7-1.22
	l2.96-3.3l3.83-2.26l1.22,2.26l-5.04,5.22l-4.7,2.61l-3.65,5.56l-6.26,5.74h-3.65l-1.91,2.26v1.74l-3.13,2.09l-8.69,2.78l-3.3,2.78
	l-4.87,2.78l-5.22,1.04l-6.78,0.7l-0.52,3.48h4.35l-11.48,6.26l2.26-4.87l-3.83-0.87c0,0,2.96-3.13,3.48-3.3
	c0.52-0.17,5.74-3.65,5.74-3.65l6.78,0.17l4.7-2.78l4.87-5.56l-3.48-2.09l-1.91-3.3l4-2.61c0,0-4.7-1.74-5.56-1.74
	s-5.39,3.13-5.39,3.13l-5.74,1.22l-1.74,3.65l-4.7-0.52l-7.13-3.13l-4.52-1.22l-3.65-4.7l-1.39,7.13l2.61,3.48l-3.48,5.22l-1.91,4
	l-3.48,1.91l0.7,4.17c0,0-1.39-0.17-1.39-0.87s-2.26-4-2.26-4s-5.04,3.83-5.56,4c-0.52,0.17-5.56,0.35-5.56,0.35l-3.13-5.04
	l-4.17,4.35l-1.04,6.09l3.48,3.83l-4.7,0.87l-5.74-2.61l-3.48,4.7c0,0,0.17,3.13-0.52,3.13c-0.7,0-5.91,0-6.43,0
	c-0.52,0-6.09,0-6.09,0l-4.52,1.22l1.74,3.3l3.65,2.26l10.69,2.26l7.56,5.74l3.39,5.48l4.96,3.91l1.57,6.26l-1.3,7.04l4.17,2.87
	l3.39-6l2.35-8.09l5.74-4.96l5.22-2.35l0.52-4.7l6.52,2.35c0,0-0.78,2.87,1.04,2.61c1.83-0.26,10.17-1.83,10.17-1.83l8.61,1.83
	l1.57,3.13l-2.87,6l0.78,4.17l4.43,5.48c0,0,3.13,0.26,3.39-0.78c0.26-1.04,0.78-5.48,0.78-5.48l2.87-3.13l3.39-3.13l-1.83-9.65
	l-0.78-5.74l-2.35-2.87l0.26-2.35l6.26-5.48c0,0,0,2.09,1.04,1.57c1.04-0.52,4.96-3.91,4.96-3.91l6.52,1.3l2.09-3.13l1.3-7.55
	l2.35-4.45l6.26-5.22l4.7-2.35l4.7,6l5.48-1.3l-2.35,8.61c0,0-3.39,1.83-2.61,1.83c0.78,0,8.43-0.52,8.43-0.52l1.74-5.74v-5.74
	l3.13-3.13l2.61,6.52l2.61,3.39l-1.3,3.91l-6.52,2.61l-1.04,7.04l1.57,6.78l-3.13,5.74l-1.57,3.13c0,0,2.35,2.87,3.65,1.04
	c1.3-1.83,4.96-4.17,4.96-4.17l3.39,9.91c0,0,4.43-0.26,4.7-1.3c0.26-1.04,1.3-9.13,1.3-9.13v-5.22v-1.3l4.17-5.74l1.83-6.26l6,3.65
	v6.78l-1.83,6.78l5.48,3.65l10.17,1.57l7.04-2.87l6.78,6v5.48c0,0-5.22,0.78-3.39,1.83c1.83,1.04,6.78,6.52,6.78,6.52v4.17
	l-6.52-3.65l-5.48-2.61c0,0-4.17,2.61-4.96,3.91c-0.78,1.3-8.35,6.26-8.61,7.56c-0.26,1.3-1.3,6.78-1.3,6.78s-5.22,1.04-4.17,1.83
	c1.04,0.78,8.87,2.09,8.87,2.09l3.65,5.22l5.48,2.61l0.26,5.48l1.57,3.13l-2.35,3.39c0,0,1.83,3.91,1.83,4.7s0.52,3.39,0.52,3.39
	s-3.39,2.09-3.65,0c-0.26-2.09-3.13-8.61-3.13-8.61h-4.96l-2.09,3.39l2.35,4.17l1.04,1.97l-3.39,5.59l-2.61,4.96
	c0,0-4.43-0.78-5.22,0c-0.78,0.78-2.87,1.04-3.13,2.61s-2.35,2.35-2.35,3.91s1.04,9.13,1.04,9.13s-4.17,2.87-4.43,1.57
	s-0.78-5.48-1.04-7.04s-0.52-5.22-0.52-5.22l-2.09-3.91c0,0-1.83,4.17-3.13,4.17s-4.17-1.04-4.17-1.04l-3.65-4.96
	c0,0-0.52-1.57-1.57-2.61s-4.96-4.17-4.96-4.17l-0.78-4.17l2.87-3.13l-2.09-4.7l-2.35,5.74l-5.04-3.65l-2.43-1.57
	c0,0-2.52-0.09-2.78,0.09c-0.26,0.17-1.48,2.43-0.96,3.13c0.52,0.7,2.78,4.17,3.04,4.35s0,3.48,0,3.74s-0.35,0.96,1.04,2.09
	c1.39,1.13,3.3,2.26,3.74,2.78c0.43,0.52,2.52,2.09,2.52,2.09l-1.39,4.61c0,0-1.13,3.83-1.22,4.17s-2,1.83-2,1.83l-6.52-2
	c0,0-3.04,2-3.3,2s-1.83-3.22-2.87-3.83c-1.04-0.61-2.09-2.52-1.91-3.48s0.7-7.13,0.87-7.65c0.17-0.52-1.13-3.83-1.13-4.09
	s-1.65-4.52-1.65-4.52s2.35-3.91,2.7-4.78c0.35-0.87,1.13-3.13,1.74-3.48c0.61-0.35,3.39-0.35,4.26-0.26
	c0.87,0.09,4.78-2.17,4.87-2.43c0.09-0.26-0.78-5.91-0.78-5.91l-0.17-4.26l4.09-0.78c0,0-1.04-2.17-1.74-2.17
	c-0.7,0-3.91-0.87-4.78-0.17c-0.87,0.7-3.65,3.74-4.17,3.91c-0.52,0.17-3.13,0.43-2.7,2.43s1.48,4.26,1.22,4.35
	s-4.61-0.96-4.87-0.96s-3.91-0.78-4-1.13c-0.09-0.35-2.35-3.91-2.61-3.83s-3.83,1.13-3.83,1.13l-1.65-4.26l-3.48-2.61l-3.48,1.39
	l-3.74,3.39c0,0,1.04,6,0.78,6.52c-0.26,0.52-2.87,0.52-3,1.43c-0.13,0.91-2.09,3.52-1.96,4.17c0.13,0.65,0.39,1.96,0.65,2.74
	c0.26,0.78-0.39,3.13-0.39,3.13s-1.17,1.43-1.04,2.09c0.13,0.65,1.17,3.65,1.17,3.65l3.13,4.96c0,0,1.43,2.22,1.57,2.74
	c0.13,0.52,0.52,3.13,0.13,3.26c-0.39,0.13-3.39,0.39-3.65,0c-0.26-0.39-2.09-4.43-2.09-4.43l-5.22,0.26c0,0,1.96-2.22,2.48-2.74
	c0.52-0.52,1.83-1.96,1.83-3.26c0-1.3-1.17-3.78-1.17-3.78l-1.57-3.13c0,0-2.09,0.13-2.74,1.7s-3.13,2.22-3.13,2.87
	s-1.04,3.39-1.17,4.04s-1.83,0.65-2.35,1.57c-0.52,0.91-4.04,4.56-4.04,4.56s-1.57,2.74-1.17,3c0.39,0.26,4.3-0.26,5.09-0.39
	c0.78-0.13,3.52-0.65,4.96-0.39c1.43,0.26,3.78,1.96,4.7,2.87c0.91,0.91-2.87,3.65-2.87,3.65s-0.91,3.26-0.39,4.04
	c0.52,0.78,1.43,3.26,1.83,3.78s1.43,1.7,1.7,2.22c0.26,0.52,2.35,6.26,2.48,6.78c0.13,0.52,0.52,3.78,0.65,4.56
	c0.13,0.78,2.48,2.09,3,2.22c0.52,0.13,2.22,1.57,2.22,1.57h4.96c0,0-0.26-1.04,1.17,0c1.43,1.04,4.56,3.65,5.22,4.43
	c0.65,0.78,2.74,1.57,2.61,2.35c-0.13,0.78-1.57,0.91-1.3,2.48c0.26,1.57,0.91,4.56,0.91,4.56s0,1.96,2.35,0.52
	c2.35-1.43,4.7-4.43,4.7-4.43s1.17,0.78,2.61,2.61c1.43,1.83,3.13,3,4.56,4.43c1.43,1.43,1.17,3.78,1.17,3.78s-0.78,0.13-1.3,2.09
	c-0.52,1.96,0,2.61-0.91,3.52c-0.91,0.91-6.65,2.61-6.65,2.61s0.13,3.39-0.52,3s-4.43-3.39-4.43-3.39s-2.48-1.57-3.39-1.04
	c-0.91,0.52-4.04,1.57-4.04,1.57l0.91,2.9c0,0,0.65-1.66,1.17,0c0.52,1.66,1.7,5.45,1.7,5.45s1.57,0.52,2.48,1.43
	c0.91,0.91,1.83,0.26,1.83,1.57s-2.48,2.74-2.35,3.39c0.13,0.65,2.22,1.96,3.26,0.52c1.04-1.43,1.96-5.22,2.87-4.56
	s1.7,2.74,1.7,4.56s0.91,4.7,0.91,4.7s0.91-1.7,1.7,0c0.78,1.7,0,3.52-1.83,4.43s-4.3,3-4.96,1.57c-0.65-1.43-1.3-4.83-3.52-6.13
	s-9.26-1.3-9.26-1.3s-2.09,4.17-2.74,4.83s-3.52,1.7-3.52,1.7s-2.09-0.91-2.22-3.26c-0.13-2.35-0.39-4.17-1.17-4.83
	c-0.78-0.65-3.13-2.61-3.13-2.61s-1.3-0.52-1.43-1.3c-0.13-0.78,0.26-3.39,0.78-4.96c0.52-1.57,0.39-3.39,0.91-4.7
	c0.52-1.3,0.65-2.35,1.96-3.26c1.3-0.91,2.87-0.78,1.57-1.96c-1.3-1.17-2.87-2.22-3-2.74c-0.13-0.52-0.26-3.26-0.26-3.26l-3.52-2.61
	c0,0-1.83-1.7-2.35-1.43c-0.52,0.26-4.04,1.43-4.7,2.09s-2.48,2.22-3.78,3.78c-1.3,1.57-4.3,3.26-5.09,3.91
	c-0.78,0.65-1.43,1.43-2.35,1.57c-0.91,0.13-4.56-0.52-4.56-0.52s-1.43-3.52-1.04-4.56c0.39-1.04,0.13-4.04,0.13-4.04l-3-1.43
	l-4.43-1.3c0,0-2.87-0.91-3.52-1.83c-0.65-0.91-5.48-5.61-6.52-6.91s-3.13-3.65-5.22-5.09c-2.09-1.43-3.78-2.87-6.26-3.78
	s-5.87-2.22-6.26-2.22s-3.52-0.52-5.61,1.83c-2.09,2.35-6.91,3.26-6.91,6.91c0,3.65,1.04,8.74,0.78,10.3c-0.26,1.57-1.7,3-3,3.65
	s-6.13,0.91-6.91,1.17c-0.78,0.26-3.87-1.35-3.87-1.35s-0.52-8.87-0.7-9.91s-6.78-12.17-6.78-12.17l-8.52-8.69l-2.26,10.78
	c0,0,1.28,4.87-1.1,4.35s-7.77-3.83-7.77-3.83l-8-0.17c0,0-5.56-5.74-6.09-5.91c-0.52-0.17-6.43-3.13-8.69-2.43
	c-2.26,0.7-8.69,2.09-8.69,2.09l-7.13-1.39c0,0-0.17-4.7,0-5.56c0.17-0.87,0.7-8.35-0.17-8.69s-5.39-3.3-5.39-3.3l-0.7-8.17
	l-15.65,8.17c0,0-10.43,6.26-10.43,7.65s1.39,17.27,2.09,19.24s-4.17,10.32-4.17,10.32l-14.26-3.83l-9.74,1.39l-7.3,4.52
	c0,0,1.39,10.43,2.78,12.52c1.39,2.09,2.09,7.3,2.09,9.04s0.7,15.65,0.7,15.65l-9.39-3.48c0,0-12.17-2.09-11.82-0.7
	c0.35,1.39,10.09,15.65,10.09,15.65l-10.09,9.39c0,0-4.17,4.17-2.08,5.56s16.35,6.96,16.35,6.96s2.09,8-0.35,8.69
	c-2.43,0.7-18.78,4.87-19.82,5.22c-1.04,0.35-11.13-0.7-10.78-3.48c0.35-2.78-0.01-16-0.01-16s-0.69-10.78-5.9-8
	s-18.78,11.82-20.17,12.52c-1.39,0.7-9.74,1.74-11.13,3.13c-1.39,1.39-8,3.83-9.04,4.17c-1.04,0.35-7.65,4.52-6.61,4.87
	c1.04,0.35,10.09,2.85,10.09,2.85s0.35,4.8-2.43,5.15c-2.78,0.35-4.52-1.04-5.91,0s-9.04,1.51-9.74,0.06s-4.52-4.58-4.87-5.62
	s-5.91-7.3-5.91-7.3s-3.13-2.09-6.96,0.35c-3.83,2.43-7.65,1.74-8.69,6.61c-1.04,4.87-2.09,6.26-6.26,10.43s-16,6.96-16,6.96
	s-4.17-1.39-4.17-2.43s-0.35-3.48,0-8.35c0.35-4.87-6.26-7.65-5.56-9.74c0.7-2.09,1.39-9.04,2.43-10.09
	c1.04-1.04,3.13-3.13,5.56-2.09c2.43,1.04,1.74,2.78,3.48-1.04c1.74-3.83,7.3-12.87,7.3-12.87l-9.04-8l8.35-4.87
	c0,0,4.52,1.39,6.61-0.7c2.09-2.09,11.13-10.78,11.13-10.78l9.04-2.43l5.22-10.43l8-1.39c0,0-1.39,3.48,5.22,4.17
	c6.61,0.7,17.04,4.87,17.04,4.87s4.87-5.22,5.56-6.26s-1.39-6.96-5.22-7.65c-3.83-0.7-14.61-3.13-14.61-3.13l-15.3-0.7
	c0,0-1.74,2.43-1.74-3.13s-3.48-10.43,2.09-13.22s31.3-3.36,31.3-3.36s12.52-3.59,15.3-2.2c2.78,1.39,5.91,5.91,5.91,5.91
	l-18.08,2.78c0,0-1.39,0.35-2.43,4.52s-1.04,6.96-1.04,6.96s8.35,3.13,11.82,2.78c3.48-0.35,6.96,0,9.74-1.39
	c2.78-1.39,4.52-2.09,9.39-3.83c4.87-1.74,8-3.13,8-3.13s3.83-2.43,4.52-3.83s1.74-3.83,2.43-4.87s1.39-0.81,4.17-3.71
	s2.09-2.55,7.3-4.98s6.96-3.13,9.04-3.83c2.09-0.7,5.22-1.74,6.61-1.74c1.39,0,5.56,0.35,8-2.43c2.43-2.78,5.91-6.96,7.3-8
	s3.13-2.09,5.22-3.48c2.09-1.39,4.87-2.78,8.35-3.83c3.48-1.04,14.26-3.83,15.3-4.52c1.04-0.7,5.91-2.78,7.65-3.48
	c1.74-0.7-3.77-10.09-3.77-10.09s-6.67-0.35-10.14,1.04s-10.09,4.17-13.56,5.22c-3.48,1.04-11.82,2.78-15.3,2.09
	c-3.48-0.7-12.17-4.52-13.56-4.52s-9.74-1.04-12.87-1.74c-3.13-0.7-10.43-5.56-11.48-7.65c-1.04-2.09-4.87-5.56-4.87-5.56
	l-8.35-2.78c0,0-1.39,5.91-2.09,6.96c-0.7,1.04-3.13,2.43-5.56,2.43c-2.43,0-9.39-3.48-10.43,0.35c-1.04,3.83-4.87,12.17-4.87,12.17
	s-8.69-4.17-10.09-4.87c-1.39-0.7-7.3-3.83-8.35-3.83c-1.04,0-2.43-0.7-2.78-2.78c-0.35-2.09-3.13-7.3-1.74-9.39
	s2.78-3.13,2.78-5.56c0-2.43-4.17-2.09-5.22-5.91s-2.43-7.3-2.43-7.3s1.39-2.78-2.43-4.17c-3.83-1.39-3.83-1.39-3.83-1.39
	l7.65-10.43c0,0,4.52-3.48,7.65-3.83c3.13-0.35,9.39-0.7,12.17-2.78c2.78-2.09,8-7.3,9.39-8.35c1.39-1.04,1.39-8,3.48-9.39
	c2.09-1.39,2.09-3.13,9.39-5.56c7.3-2.43,13.22-7.65,13.22-7.65s3.13-6.96,3.83-8.35c0.7-1.39,3.83-6.26,5.22-7.3
	c1.39-1.04,7.65-9.04,7.65-9.04s1.39-4.87,4.52-3.48s4.87,4.17,7.3,5.91c2.43,1.74,3.48,4.52,5.91,2.78
	c2.43-1.74,5.22-4.17,5.56-5.56c0.35-1.39,1.74-4.17,2.09-5.56c0.35-1.39,0.7-5.91,0.7-5.91v-3.13L195.63,133.26z"/>
<path class="st0" d="M262.71,344.23c1.83-1.04,22.95-9.13,22.95-9.13l8.35-10.96l9.91-7.04l-11.22,15.65l13.04,5.74l14.61,3.65
	l6.26-8.87l10.17-3.65l12,2.09l6,4.17l10.43,4.96l7.56,8.61l1.57,5.48c0,0,6.52-1.57,7.56,0s4.7,8.09,4.7,8.09l-6,9.91
	c0,0-1.04,3.65-1.3,4.96s3.13,13.56,3.13,13.56s0.52,2.35,0.52,3.13c0,0.78,3.91,8.09,3.65,9.39s2.87,6,2.35,7.04
	c-0.52,1.04-1.3,2.61-2.87,2.61s-7.3-1.83-8.61-2.87s-4.43-4.17-5.22-5.74c-0.78-1.57-5.74-12.26-5.74-13.3
	c0-1.04,2.61-3.91,1.3-7.3c-1.3-3.39-2.61-8.61-4.96-9.13c-2.35-0.52-9.13,0-9.13,0l5.74,7.83l4.7,4.43c0,0-6.52,1.83-7.3,2.09
	c-0.78,0.26-3.65,0.78-4.43,3.39c-0.78,2.61-2.09,3.13-1.83,5.48c0.26,2.35,3.39,8.87,4.96,9.91s2.35,4.96,2.35,7.56
	c0,2.61-1.83,5.48-3.65,4.96c-1.83-0.52-6-1.3-6-3.91s1.83-13.04,0-14.35c-1.83-1.3-2.35-3.91-4.96-2.87c-2.61,1.04-6,6-6,6
	s-3.39,1.04-2.61-2.87c0.78-3.91,0.52-9.39,0.52-12.78c0-3.39-0.78-6.78-1.57-8.35c-0.78-1.57-0.52-4.17-3.39-3.39
	c-2.87,0.78-2.55,0.52-4.4,1.83s-2.12,2.87-1.86,1.3s-1.04-9.39-1.04-9.39s-2.61,1.83-3.39,2.61c-0.78,0.78-7.56,1.83-7.56,3.13
	s-0.26,4.7,0,6.78c0.26,2.09,0.26,5.22,0.26,5.22s-3.65-3.91-3.91-5.74c-0.26-1.83-0.78-6.78-2.61-9.65
	c-1.83-2.87,0.78-4.96-1.83-2.87c-2.61,2.09-4.17,3.65-3.91,7.04c0.26,3.39,0.26,7.83,0.26,7.83l-3.39-2.35l-4.96-3.65l-3.54-3.13
	l7.19-1.04c0,0,3.13-0.26,1.04-1.57c-2.09-1.3-11.48-2.09-11.48-2.09s-2.87,0-4.17-0.78s-2.61-1.04-3.65-3.91
	c-1.04-2.87-2.35-5.22-2.35-5.22s-0.26-0.78-1.3-2.61s-2.61-4.7-3.39-6.26c-0.78-1.57-1.16-3.39-1.16-3.39l-3.54-2.35L262.71,344.23
	z"/>
<path class="st0" d="M269.12,392.75c0,0,0.37,1.04,2.46,3.65c2.09,2.61,4.96,5.48,7.56,5.74s4.7,1.83,4.7,1.83s0.52,4.43,0,5.22
	c-0.52,0.78-6.78,1.83-6.78,1.83s2.03,0.52,7.01,1.04c4.98,0.52,6.55,0.52,7.33,2.09c0.78,1.57,4.17,2.35,0,4.43
	c-4.17,2.09-7.04,3.13-6,4.17s0.26-0.26,1.04,1.04c0.78,1.3,3.39,6.26,3.39,6.26l-1.45,1.3l-8.09-3.13c0,0-1.46,4.43,0,6.52
	c1.46,2.09-4.28,0-4.28,0s-8.87,2.61-8.87,1.83c0-0.78-2.87-1.04-2.09-4.43c0.78-3.39,1.6-7.04,4.06-9.39s4.1-1.7,1.16-5.48
	c-1.83-2.35-1.79-8.09-1.16-9.91c0.63-1.83,0.41-3.39,0-4.43c-0.41-1.04-1.2-2.09-4.2-2.35c-2.99-0.26-4.82-4.17-5.6-1.04
	c-0.78,3.13-2.35,9.99-2.35,9.99s-2.09,2.94-2.35,0c-0.26-2.94-3.13-3.72-1.3-7.64c1.83-3.91,1.57-3.91,3.91-6.52
	c2.35-2.61,4.43-2.35,1.57-6.26s-4.43-4.43-3.13-5.48c1.3-1.04,9.13-1.3,9.13-1.3L269.12,392.75z"/>
</svg>
