<?xml version="1.0" encoding="utf-8"?>
<!-- Generator: Adobe Illustrator 26.0.1, SVG Export Plug-In . SVG Version: 6.00 Build 0)  -->
<svg version="1.1" id="Layer_2" xmlns="http://www.w3.org/2000/svg" xmlns:xlink="http://www.w3.org/1999/xlink" x="0px" y="0px"
	 viewBox="0 0 512 512" style="enable-background:new 0 0 512 512;" xml:space="preserve">
<style type="text/css">
	.st0{fill:#FFFFFF;stroke:#000000;stroke-miterlimit:10;}
</style>
<path class="st0" d="M21.05,124.47l1.29-1.66l9.05,0.83v-2.31l1.29-1.66l0.92-1.66v-2.22l-1.11-3.32l0.37-3.32l4.25-3.51l4.8-3.69
	l5.36-3.14l4.06-1.48l4.06-6.46l5.91-4.25l10.9,0.92l11.63-8.68h2.4l2.95,1.11l4.62-2.22l2.03-1.11v-2.95l2.95-2.22l1.66-1.29
	l8.86-1.11l5.36,1.11l3.14,3.69l21.24-0.37l4.43,2.59l4.8,1.11l2.59,1.11l3.51,2.95l6.83-3.69l9.42,1.66l9.42-7.2
	c0,0,5.17,0.37,3.88,6.09l0.54,3.82l0.38,2.94l2.56,2.01l2.77,1.52l3.67-1.94l4.5-2.84l-0.83-3.25c0,0-1.87-1.59,0.21-1.66
	c0,0,6.51,0.07,6.72,0.07s4.29-1.52,4.29-1.52s7.27-0.28,7.96,0.07c0.69,0.35,10.25,6.44,10.6,6.65c0.35,0.21,14.27-4.78,14.27-4.78
	l6.44-0.62v7.06c0,0,2.91-3.74,3.46-2.63c0,0,6.79,0.69,7.48,0.69c0.69,0,9.42,0.83,9.42,0.83l3.05,7.34l9.42,4.89l11.36-5.86
	c0,0,0.28-1.66,1.11-1.25c0.83,0.42,11.22,5.54,11.22,5.54l12.46-3.88v-6.51l3.6-6.92l5.54-0.42l0.55-4.29l5.82,0.42l4.57-2.35
	l2.22,0.55l0.97-3.88l3.19-1.11v6.23l5.12,4.29l0.83,10.11l8.17,7.48l2.08,11.77l7.62,2.22l5.12-2.49l5.82,6.79
	c0,0,8.17-1.66,8.59-1.52s5.4,1.8,5.82,1.8s4.29-2.77,4.29-2.77l5.12,3.46l7.2-1.38l0.83,8.03l13.02,7.76l1.11,5.82l16.34,9.69
	c0,0,4.99,8.03,5.54,8.31s7.06,3.32,7.06,3.32l6.23,14.27l4.15,3.6h3.6l1.94,4.43l6.09,1.66l4.71,2.77h9.14v16.34l-7.48,8.86
	l2.77,6.65l-0.55,12.25l-9.69,5.76l9.97,3.6l8.59-2.22l14.96,5.54v3.88l-7.48,3.05l-1.38,6.37l-3.05,1.66l0.83,4.99l-10.53,3.32
	h-5.26l-2.77,1.66l-13.3-1.66l-6.92,5.82l2.22,5.54l-3.88,2.22v9.69h-8.31l-4.99,6.37l-6.37-1.38l-8.86,2.77l-12.19,19.11
	l1.11,32.13l-12.46,17.73l1.38,7.76l-7.48,9.69l1.94,3.88h10.25l0.51,6l8.17,5.96c0,0-3.88,3.83-3.55,3.97
	c0.32,0.14,3.69,7.62,3.69,7.62l-6.97-1.06l-4.39,4.8c0,0-3.55-1.38-3.69-1.38s-4.8,0.14-4.8,0.14l-3.79-4.29l4.66-4.02l-0.6-2.63
	l3.09-1.2l-1.99-4.39l-4.94-6.92l-6.83,2.63l-16.94,3.92l-1.94,2.22l-1.66,5.82l-8.86,8.45l-0.97,1.66l-8.73-4.57l-7.62,1.25
	l-5.68,3.32l-2.91,4.15l3.88,7.76l3.88,2.63l-3.12,0.62l-0.9,3.39l-0.69,1.45l-4.99-0.28l-1.18,4.99h-4.15l-0.21-6.92l-4.92,2.49
	l-14.27,10.04l-8.73,3.74l-7.96-7.06l-4.43-0.55l-1.52-2.08l-15.79,6.23l-7.48-7.06l-2.77,3.6l-3.46-1.52l-4.29,2.77l1.66,4.85
	l-2.91,0.83l-4.43-4.99l-13.57-0.97l-6.79-5.26l2.4-13.3l-4.06-12.56l-12.56-14.03l-7.02-1.11l-6.65-6.65l-9.97-1.85l1.48-2.95
	l-5.91-3.32l1.85-2.95l-14.03-4.8l-3.69,6.28l-7.02-9.97l-2.95-11.82l2.22-6.28l-1.48-4.06l4.06-6.65v-12.19l11.45-9.6l-1.11-11.08
	l-1.85,0.18l1.29-3.14l-0.83-3.32l-2.49-0.28c0,0-2.4,0.37-2.4-0.09c0-0.46-0.18-2.77-0.18-2.77l-2.86,0.83l1.2-3.05l-3.51-4.15
	l-4.15-2.49l-3.32,1.66l-0.55-3.97l-2.59-9.42l-5.08,0.65l-4.43,0.74l-12.93-0.55l-14.4,0.09l-5.63,3.69l-4.99-0.28l-0.28-6.09
	l-9.97-1.38l-8.03-3.6l-8.03-4.15L67.68,256h-6.37h-4.15l-11.08-16.2l-9.14,8.31l1.45-3.32l1.73-3.39l-2.15-2.91l-3.46-3.74
	l-2.22-1.87c0,0,0.14-4.29,0.42-4.36c0.28-0.07,2.29-2.63,2.29-2.63l0.97-3.32c0,0,0.83-2.84,0.69-3.32s-0.69-4.64-0.69-4.64
	l-1.32-3.81l-1.78-7.09c0,0-2.03-4.8-2.4-5.36c-0.37-0.55-3.51-7.94-3.51-7.94l-0.37-4.8l-0.92-0.8l-0.55,19.08l-2.03,8.68
	l-0.18,11.26l-2.59,4.99l-1.66,7.94l-5.54,5.36v-1.66l3.51-12l4.25-10.34l0.92-6.46l0.74-7.39l0.55-6.46l-0.18-8.13v-4.86
	l-0.74-5.48l-0.55-5.72l-0.92-4.25l-1.85-4.43l0.37-5.72l0.18-5.91l0.37-26.96"/>
</svg>
