<?xml version="1.0" encoding="utf-8"?>
<!-- Generator: Adobe Illustrator 28.2.0, SVG Export Plug-In . SVG Version: 6.00 Build 0)  -->
<svg version="1.1" id="Layer_2" xmlns="http://www.w3.org/2000/svg" xmlns:xlink="http://www.w3.org/1999/xlink" x="0px" y="0px"
	 viewBox="0 0 512 512" style="enable-background:new 0 0 512 512;" xml:space="preserve">
<style type="text/css">
	.st0{fill:#FFFFFF;stroke:#000000;stroke-miterlimit:10;}
</style>
<path class="st0" d="M38.48,233.3l1.97-1.51l0.57-1.68c0,0,0.57-0.29,1.29-0.38c0.72-0.1,1.2-0.14,1.53-0.38
	c0.34-0.24,1.01-2.44,1.01-2.44l0.48-2.44l1.01-0.96c0,0,0.19,0.19,1.24-0.43c1.05-0.62,1.1-0.72,1.96-1.24
	c0.86-0.53,1.34-1.39,1.39-1.72c0.05-0.34-0.38-0.62,0-1.01c0.38-0.38,0.53-1.01,0.62-1.2s-0.05-1.05,0-1.39s0.03-1.39,0.03-1.39
	s-0.46-1.1-0.42-1.34s0.57-0.91,0.81-1.1c0.24-0.19,0.1-2.06-0.43-2.35s-1.44-0.77-1.77-0.86s-1.39-0.14-1.48,0
	c-0.1,0.14,0,0.62-0.43,0.43s-1.87-1.29-1.87-1.29L45.29,208c0,0-0.48-0.29-0.91-0.48s-2.06-1.53-2.11-1.72s-0.57-0.57-0.67-1.48
	s-0.1-0.86-0.1-1.34s-0.14-1.01-0.14-1.01h-1.5c0,0,0-0.59,0-1.48c0-0.89,0-1.79,0-1.79l-0.26-0.77l-1.13-1.15l-1.55-1.4l-1.02-1.4
	l-1.79-2.04l-0.89-0.89l-1.66-1.79c0,0-2.68-1.91-3.32-1.66c-0.64,0.26-2.68-0.02-2.68-0.02c0-0.74,0-1.25,0-1.25l-0.89-1.4
	L22,183.9l-2.94-1.66l-1.4-1.15c0,0-2.17,0.64-2.17,0c0-0.64-0.38-2.04-0.77-3.32s-1.91-3.32-2.42-4.47
	c-0.51-1.15-0.89-1.79-0.89-2.17c0-0.38-0.77-2.17-0.77-3.45c0-1.28-0.13-2.3,0-2.81c0.13-0.51,0.27-1.66-0.06-2.3s0-2.04,0-2.04
	s-0.84-1.15-1.6-1.79c-0.77-0.64-1.91-1.53-2.3-2.04c-0.38-0.51-0.89-1.91-1.15-2.55c-0.26-0.64-1.28-1.79-1.66-2.3
	c-0.38-0.51-0.77-1.91-0.89-2.68s-0.89-2.68-0.89-3.32c0-0.64-0.38-1.53-0.64-2.42s-0.77-0.64-0.77-2.17s-0.48-3.48,0-3.96
	s1.15-1.05,1.72-1.53s1.63-1.53,1.63-1.91s-0.29-2.01,0-3.25c0.29-1.24,0.48-2.3,0.48-3.06c0-0.77,0-2.3,0.1-2.58
	c0.1-0.29,0.1-2.3,0.1-2.3v-2.3v-1.53c0,0,1.05,0.77,1.53,0s0.96-1.24,1.34-1.34c0.38-0.1,4.4,0,4.4,0l1.24-1.15
	c0,0,1.91,0.19,1.91,0c0-0.19,0.1-1.15,0.1-1.15l-0.29-0.57l-0.38-1.05h2.78c0,0,0.77-0.67,1.05-0.77c0.29-0.1,0.57,0.19,1.24,0
	c0.67-0.19,1.24-0.02,1.24-0.02s0.38-1.8,0.38-2.18c0-0.38-0.1-0.86-0.1-1.34c0-0.48,0-2.49,0-2.49s0-1.82,0.1-2.11
	c0.1-0.29,0.38-1.53,0.38-1.53s0,0.19-0.19-0.48c-0.19-0.67-0.48-1.72-0.48-1.72s-0.57-0.96,0.19-1.05c0.77-0.1,1.53-1.05,1.63-1.44
	c0.1-0.38,0.77-2.01,0.77-2.01s0.29-0.96,0.67-0.96c0.38,0,1.91,0.29,2.87,0.67c0.96,0.38,3.54,1.05,3.54,1.05s0.38,0.1,0.86,0.48
	c0.48,0.38,1.05,0.86,1.34,1.15c0.29,0.29,1.82,1.24,2.2,1.63s0.77,0.86,0.77,0.86s0.29,0.48,0.77,0.96
	c0.48,0.48,1.34,0.96,1.63,1.15c0.29,0.19,2.39,0.67,2.39,0.67s1.15,0.48,1.44,0.96c0.29,0.48,0.67,0.67,1.15,1.34
	c0.48,0.67,0.96,0.86,1.34,1.24c0.38,0.38,1.05,0.77,1.82,0.86c0.77,0.1,3.06,0,3.73,0.1c0.67,0.1,1.47-0.1,2.03,0.1
	c0.56,0.19,2.09,0.86,2.09,0.86s0.67,0,0.77,0.48c0.1,0.48,1.53,2.3,1.53,2.3l-3.35,5.84c0,0-3.64,0-3.92,0.19
	c-0.29,0.19-1.91,1.15-1.91,1.15l-3.54,1.05c0,0-1.24,0.57-1.53,1.72c-0.29,1.15-0.96,4.21-1.05,4.59c-0.1,0.38-0.1,0.19-0.38,1.53
	c-0.29,1.34-0.38,1.82-0.67,2.49c-0.29,0.67-0.57,1.05-0.67,1.44c-0.1,0.38-0.19,0.86-0.1,1.53s0.38,1.34,0.67,1.82
	c0.29,0.48,0.86,1.24,1.24,1.63s1.63,1.34,2.01,1.63c0.38,0.29,0.77,0.29,2.11,0.67s2.97,1.15,4.21,1.34
	c1.24,0.19,4.31,0.67,4.31,0.67l1.82,1.05l6.51-0.38l11.1-4.69l4.12-0.67h8.23l6.03,0.48l3.45,1.63l2.3,2.2l2.3,0.57l2.11,0.48
	l3.45,0.77l5.55-1.05l3.54,0.38l1.24,2.01c0,0,7.75,2.78,8.23,2.97c0.48,0.19,5.26,1.72,5.26,1.72l5.93,0.96l2.58,1.63l3.73,1.05
	l2.49,0.86l4.02,1.24l2.68,0.67l8.81-1.15l3.83,0.38l4.31-5.07l5.65-1.18l3.64-1.98l3.51,1.08l6.19,1.72l6.51,5.81l4.4-0.13
	l2.23-2.04c0,0,2.11-0.26,2.36-0.26s3.64,0.32,3.64,0.32s1.4-0.13,1.72-0.19s2.62-0.64,3.25-0.77c0.64-0.13,3.13-0.38,3.45-0.38
	c0.32,0,0.19,0,1.72,0.19c1.53,0.19,2.11,0.13,3.57,1.15c1.47,1.02,1.85,1.53,2.36,1.85c0.51,0.32,2.36,1.28,2.74,1.21
	s2.49-0.64,3.13-0.7c0.64-0.06,3.64-1.21,3.64-1.21s1.02-0.06,2.17,0.45c1.15,0.51,3.38,1.34,3.76,1.6
	c0.38,0.26,1.66,0.96,2.04,1.21c0.38,0.26,0.83,1.15,1.34,1.47c0.51,0.32,1.08,0.64,1.6,0.96c0.51,0.32,0.7,0.7,1.4,1.28
	c0.7,0.57,0.96,1.02,1.79,1.21c0.83,0.19,1.53,0.51,2.55,0.51c1.02,0,1.98,0.13,3,0.06c1.02-0.06,2.49-0.32,2.94-0.64
	s1.08-1.15,1.72-1.34c0.64-0.19,2.17-0.57,2.49-0.57s0.96,0,1.6,0c0.64,0,1.79,0,2.55-0.13s1.85-0.32,2.17-0.64
	c0.32-0.32,0.7-0.83,1.53-1.28s2.68-1.34,3.19-1.79s1.66-1.47,1.66-1.47l1.79-0.64c0,0,1.53-0.13,2.04-0.13
	c0.51,0,1.15-0.13,1.15-0.13s0.38,0.13,0.89-0.13c0.51-0.26,0.77-0.38,1.15-0.51s3.06-1.02,3.06-1.02l1.02-1.15
	c0,0,1.28-2.17,1.66-2.55s1.28-0.89,2.04-1.28c0.77-0.38,2.17-1.4,2.17-1.4s-0.26-0.13,0.51-1.02c0.77-0.89,1.53-1.79,1.53-1.79
	l0.64-1.15c0,0-0.89-0.77,0-1.53c0.89-0.77,1.4-1.15,1.91-1.66c0.51-0.51,1.4-1.4,1.4-1.4s-1.02,0.13,0-0.77
	c1.02-0.89,1.28-1.15,1.79-1.79c0.51-0.64,1.15-1.15,1.15-1.15l1.4-0.77l1.15-0.64c0,0,0.77,0,1.4-0.38
	c0.64-0.38,2.17-1.15,2.17-1.15l0.77-1.02v-0.64l1.28-2.17l1.28-1.91c0,0,0.51-1.4,0.89-1.66s1.02-1.02,1.02-1.02s0.13,0,0.89-0.13
	c0.77-0.13,2.17-0.13,2.17-0.13s1.53,0,1.91,0c0.38,0,1.15-0.38,1.15-0.38c1.02-0.26,3.06-1.15,3.06-1.15l2.94-1.79
	c0,0,0.89-0.51,1.28-0.77c0.38-0.26,2.42-1.4,2.42-1.4s0.64-0.13,1.79-0.38c1.15-0.26,2.68-0.38,2.68-0.38l4.34-0.89l2.3,0.51
	c1.02,0,3.19-1.02,3.57-1.15s2.55-0.89,2.55-0.89l2.42-0.13c0,0,1.02,0.13,1.53,0.13s2.3,0,2.3,0s1.79,0,2.94-0.38
	c1.15-0.38,2.42-0.64,2.42-0.64s2.17-0.89,2.81-1.02c0.64-0.13,2.68-0.51,2.68-0.51l2.17,0.13l1.15-0.26l2.17-1.15l1.4-1.02
	l2.3-1.02c0,0,1.4-0.51,1.91-0.89c0.51-0.38,2.17-1.91,2.17-1.91l0.64-0.26c0,0-0.26,0.13,1.53,0c1.79-0.13,3.19,0,3.57-0.13
	c0.38-0.13,2.68-0.51,3.19-0.64c0.51-0.13,0.26-0.13,2.81-0.13s3.19,0.13,4.34,0.13s5.49,0.89,5.49,0.89s4.36,1.36,4.43,1.36
	c0.07,0,0.62,0.19,0.91,0.19c0.29,0,0.98,0,1.48-0.17c0.5-0.17,1.1-0.38,1.44-0.48c0.34-0.1,1.1-0.19,1.1-0.19s0.36,0.24,0.45,0.48
	c0.1,0.24,0.14,0.43,0.36,0.91c0.22,0.48,0.43,1.17,0.5,1.39c0.07,0.22,0.14,0.55,0.34,0.98c0.19,0.43,0.6,0.86,0.74,1.08
	c0.14,0.22,0.31,0.72,0.31,0.72s0.26,0.53,0.65,0.6c0.38,0.07,1.22,0.41,1.53,0.48c0.31,0.07,1.15,0.31,1.34,0.41
	s0.89,0.43,1.01,0.5c0.12,0.07,3.64,5.14,3.64,5.14l4.53-0.77c0,0,2.42-0.06,3.19,0.06s1.79,0.32,2.68,0.51
	c0.89,0.19,2.23,0.32,2.74,0.45s2.49-0.06,2.81-0.06s0.83-0.06,1.08-0.06s0.7-0.26,0.96-0.57s1.08-1.79,1.15-1.98s0.7-1.4,0.7-1.4
	l1.02,1.08l1.02,0.7c0,0,0.7,0.45,0.83,0.96c0.13,0.51,0.45,1.47,0.7,2.17c0.26,0.7,0.64,1.72,1.08,2.68s0.89,1.72,1.02,1.91
	c0.13,0.19,0.45,0.83,0.83,0.83s1.6,0.06,1.79,0.06s6.89-1.21,6.89-1.21l3.96-1.79c0,0,0.64-0.64,1.28-1.15
	c0.64-0.51,2.68-1.79,2.68-1.79l1.53,2.68l2.17,6.89l1.91,8.3l19.97,10.88l10.21,0.48l5.3,1.85l1.08,0.19l11.93-0.51
	c0,0-0.19,2.33,0,2.49c0.19,0.16,0.19,1.66,0.19,1.88c0,0.22-0.26,0.96-0.45,1.28s-0.45,0.51-0.57,0.83
	c-0.13,0.32-0.41,0.54-0.29,1.05c0.13,0.51,0.22,0.83,0.38,1.24c0.16,0.41,0.19,0.61,0.26,1.18c0.06,0.57,0.13,1.5,0.13,1.5
	l0.54,0.61c0,0-0.32,1.15-0.45,1.6c-0.13,0.45-0.13,0.81-0.26,1.17s-0.26,0.36-0.32,0.62s-0.38,0.32,0.06,1.28
	c0.45,0.96,0.45,1.53,0.96,2.11s0.57,0.57,0.83,1.28c0.26,0.7,0.57,1.21,0.64,1.72c0.06,0.51,0.06,1.15,0,2.23
	c-0.06,1.08-0.26,1.66-0.96,2.87c-0.7,1.21-1.4,2.11-2.17,3.19s-1.72,3.51-2.11,4.47c-0.38,0.96-5.04,5.04-5.23,5.62
	c-0.19,0.57-0.57,1.72-0.57,1.72s0.19,0.64-2.04-0.45c-2.23-1.08-4.79-2.36-5.36-2.68c-0.57-0.32-2.74-0.89-3.45-1.4
	s-2.68-0.89-3.32-1.6s-0.06,1.28-0.51,1.6s-3.32,1.53-4.08,1.66s-3.76-0.13-4.47,0s-0.96-0.7-3.19,0.51s-0.89-0.64-3.45,2.36
	c-2.55,3-0.96,2.68-1.34,3.06s-1.91,2.3-2.68,3.45c-0.77,1.15-1.53,2.04-2.3,3.51c-0.77,1.47-1.34,2.42-1.47,3.38
	c-0.13,0.96,0.7,1.4,0.51,1.66s-0.45,0.45-1.28,0.89c-0.83,0.45-2.68,0.77-3.64,1.15s-2.62,0.83-2.87,1.02s-0.96,0.64-1.28,0.64
	s-1.21-0.45-2.04-0.32s-2.23-0.06-3.51,0.38c-1.28,0.45-2.11,0.45-2.74,0.64c-0.64,0.19-2.36,0.38-2.36,0.38s-0.89,0.45,1.4,0.51
	c2.3,0.06,5.17,0.64,6.7,0.89s3.45,0.7,4.02,0.89s1.98,0.45,1.98,0.45s0.13,0.64-0.26,1.4c-0.38,0.77-0.83,0.89-0.89,1.98
	c-0.06,1.08,1.12-0.03,1.12-0.03s-0.57,0.19-0.96,1.72s-0.19,1.24-0.67,2.58c-0.48,1.34-0.77,2.2-1.05,2.87
	c-0.29,0.67-0.38,1.15-0.57,1.63c-0.19,0.48-1.34,2.49-1.34,3.25c0,0.77-0.38,2.25-0.38,3.8s0,2.99,0.19,3.76s0.67,2.2,0.77,3.45
	c0.1,1.24-0.19,2.97,0.19,4.5s0.38,2.39,0.38,3.16s-0.48,1.72-0.57,2.58c-0.1,0.86-0.1,3.45-0.1,3.45s0.29,1.44,0.19,1.91
	c-0.1,0.48-0.29,1.91-0.29,3.64s-0.29,2.3-0.1,3.45c0.19,1.15,0.57,1.82,0.57,2.39s0.57,0.67-0.38,1.15
	c-0.96,0.48-3.64,0.77-3.92,0.67s-1.34-0.29-2.11-0.48c-0.77-0.19-3.06-0.96-3.06-0.96s-1.72-0.77-2.68,0.1
	c-0.96,0.86-1.05,0.42-1.82,1.36s-1.24,1.03-1.44,1.7c-0.19,0.67-0.19,2.11-0.19,2.49s-0.1,1.05-0.48,1.24
	c-0.38,0.19-0.96-0.19-1.63,0.57c-0.67,0.77-1.24,0.57-1.82,1.44c-0.57,0.86-2.01,2.11-2.3,2.49s-0.96-1.15-0.67,1.05
	c0.29,2.2,0.29,2.2,0.29,2.2s-0.86,0.67-1.24,0.77c-0.38,0.1-3.73,0-3.73,0s-1.72,0.77-2.11,1.15s-2.68,1.72-2.68,1.72l-0.19,0.48
	l-0.86,1.05l-1.24,0.67h-0.57c0,0,0.29,0.48,0.48,0.77c0.19,0.29,0.67,0.48,0,1.44c-0.67,0.96-1.24,0.77-2.01,1.72
	s-1.44,1.63-1.53,1.91c-0.1,0.29-0.48,0.67-0.19,0.86c0.29,0.19,1.63,0.57,2.2,0.67c0.57,0.1,1.44-0.29,2.01,0
	c0.57,0.29,1.05,1.34,1.05,1.34c1.44,0.19,5.07-1.05,5.07-1.05s0.38-1.53,1.34-1.34c0.96,0.19,3.83,2.34,4.12,2.41
	c0.29,0.08,0.19-0.98,1.15,1.13c0.96,2.11,0.67,2.39,1.53,2.49c0.86,0.1,2.78,0,2.78,0s1.05,0.67,1.34,1.91
	c0.29,1.24,0.96,4.98,0.96,4.98s0.67,0.86,0.96,1.24c0.29,0.38,2.58,0.19,3.25,0.77s0.67,0.57,0.67,0.57l0.29,1.44l0.1,2.39
	c0,0-0.48,0.1-0.96,0.77c-0.48,0.67-0.86,1.34-0.96,2.01c-0.1,0.67-0.57,0.96-0.29,1.91c0.29,0.96,0.57,1.15,1.34,2.11
	c0.77,0.96,2.87,3.06,3.73,3.73c0.86,0.67,1.72,1.15,2.68,2.39s1.44,1.91,1.91,2.78c0.48,0.86,1.53,2.11,2.01,2.68
	c0.48,0.57,1.63,1.72,2.11,2.49c0.48,0.77,1.15,1.44,1.44,2.01c0.29,0.57,0.57,1.05,1.05,1.82c0.48,0.77,1.91,1.63,1.91,1.63
	s1.15,0.48,1.34,0.77c0.19,0.29,0.57,1.53,0.86,2.11c0.29,0.57,0.48,1.91,0.67,2.49s0.38,1.91,0.38,1.91s-0.29-0.38-1.24,0
	c-0.96,0.38-2.78,0.57-2.78,0.57s-0.77-0.38-1.15,0s-2.87,0.86-2.87,0.86s-1.05-0.57-1.24-0.86c-0.19-0.29-2.01-2.68-2.01-2.68
	s-0.57-1.72-1.15-0.77s-1.24,1.72-1.53,2.11c-0.29,0.38-0.86,0.57-0.86,1.05s0.1,0.67-0.29,2.01s-0.1,2.3-1.15,2.3
	s-4.4-0.57-4.59-0.96c-0.19-0.38-1.34-1.44-2.11-1.82c-0.77-0.38-1.15-1.15-2.3-0.67c-1.15,0.48-2.11,0.67-2.11,0.67
	s-0.77-0.19-1.05,0.48c-0.29,0.67-0.29,0.67-0.29,0.67s-1.15,0-1.63,0c-0.48,0-2.01,0.29-2.01,0.29s-0.86-0.48-0.96,0.19
	c-0.1,0.67-0.48,0.48-0.86,1.15c-0.38,0.67-1.34,0.38-1.34,0.38s-0.57-0.83-0.77,0.06s-0.67,1.28-0.67,1.66s0.29,0.77,0,1.15
	c-0.29,0.38-0.29,0.38-0.29,0.38s-0.86-0.38-1.44-1.05s-2.3-1.24-2.68-2.2c-0.38-0.96-0.29-1.91-0.96-1.82
	c-0.67,0.1-1.91,0.77-2.58,0s-2.01-2.2-2.39-2.39s-1.53-1.15-1.72-1.44c-0.19-0.29-0.77-1.15-0.96-1.53
	c-0.19-0.38-1.82-0.19-1.82-0.19l-2.3-5.65c0,0-0.86,0.57-1.34,0.19c-0.48-0.38-2.87-2.39-2.87-2.39l-0.96-1.05l-1.05-0.48
	l-2.11-0.19l-0.57-0.48c0,0-2.11,0.29-2.49,0.77c-0.38,0.48-1.44,1.24-1.44,1.24l-0.57,0.96l-1.72,0.19l-2.58-0.48l-2.39-0.77
	l-3.45-1.15l-2.11,0.48c0,0-0.77,0-1.24,0.67c-0.48,0.67-1.05,1.44-1.34,2.11c-0.29,0.67-0.38,0.96-0.86,1.53s-0.96,0.96-0.96,0.96
	s-0.67-0.1-1.05,0.67c-0.38,0.77-0.57,0.86-0.86,1.53c-0.29,0.67-0.57,1.63-0.57,1.63s0,0.38-1.05,0.48c-1.05,0.1-2.49-0.1-2.78,0.1
	s-0.57,0.29-1.15,0.67s-1.15,0.48-1.72,0.67c-0.57,0.19-2.11,0.48-2.11,0.48s-0.96,0-1.24,0.38s-0.86,0.86-0.86,0.86l-1.82-1.72
	l-1.34-0.86c0,0-1.15,0.77-1.63,1.24c-0.48,0.48-1.15,0.86-1.34,1.24s-0.19,0.48-0.67,0.86s-1.34,0.96-2.39,0.38
	s-3.45-1.53-3.73-1.53c-0.29,0-0.96-0.77-1.34-0.38s-0.57,1.05-0.86,0.86c-0.29-0.19-2.58-1.34-2.58-1.34s-0.77,1.05-0.86,1.91
	c-0.1,0.86-1.82,3.83-1.82,3.83c-0.57,1.15-1.24,2.3-1.24,2.68s-0.38,0.86-0.19,1.63c0.19,0.77,0.48,1.15,0.57,1.44
	c0.1,0.29-0.1,0.29,0,0.86c0.1,0.57,0.57,0.57,0.29,0.96c-0.29,0.38-1.34,0.96-1.53,1.34c-0.19,0.38-0.48,1.24-0.48,1.24l-1.15,1.82
	l-13.5,0.67l-3.54,5.98l1.53,4.64c0,0-0.38,0.77-0.72,0.77s-1.34-0.33-1.82-0.24c-0.48,0.1-1.58-0.05-1.96-0.05
	s-1.82-0.48-2.01-0.53s-1.1-0.86-1.24-1.01c-0.14-0.14-1.05-1.01-1.24-1.2c-0.19-0.19-1.1-1.15-1.53-0.62
	c-0.43,0.53-1.2,1.2-1.2,1.2l-1.68-0.67c0,0-1.1-0.57-1.34-0.48c-0.24,0.1-2.01,0.57-2.2,0.72c-0.19,0.14-0.81,0-1.29,0.62
	c-0.48,0.62-0.77,0.96-1.05,1.44s-0.1,0.96-0.62,0.81c-0.53-0.14-1.87-0.48-2.01-0.43c-0.14,0.05-0.53,0.05-1.15,1.01
	c-0.62,0.96-1.1,1.77-1.05,2.01c0.05,0.24,0.05,0.24,0.05,0.24s0.62,3.02,0.81,3.97c0.19,0.96,0.19,1.72,0.77,2.11
	c0.57,0.38,3.06,1.72,3.06,1.72s-0.19,1.15,0.96,0c1.15-1.15,0-0.77,1.15-1.15c1.15-0.38,1.34,2.11,1.34,2.87s0,1.72,0.38,2.3
	s0.57,1.53,0.77,2.3c0.19,0.77,0.38,1.15-0.38,1.72c-0.77,0.57-0.77,1.91-0.38,2.49c0.38,0.57,0,1.72-0.19,2.49
	s-0.38,1.72-0.38,1.72s-0.38,0.19,1.15,1.91c1.53,1.72,1.91,2.49,1.91,2.49s-1.34,1.53-1.91,1.91c-0.57,0.38-1.15,0.96-1.15,2.11
	c0,1.15-0.77,2.87-0.77,2.87s0.19,0.38-0.38,0.96s-1.91,1.53-1.91,1.53h-2.68h-3.25c0,0-0.57-1.34-1.53,0
	c-0.96,1.34-2.68,3.06-2.68,3.06s-0.96,0.57-1.72,0.96s-2.11-0.38-2.68,0c-0.57,0.38-2.68-0.35-4.21,0.11
	c-1.53,0.46-3.06,0.31-3.06,0s-0.57-2.41-0.57-2.41s-1.34-1.34-2.49-0.19c-1.15,1.15-2.68,2.89-2.68,2.89h-3.06
	c0,0-1.34-1.51-1.72,0s-1.34,2.28-1.34,2.28l-3.25-1.15l-4.4-0.57c0,0-0.38,0-1.34,0s-3.83-0.38-3.83-0.38s0,0.57-0.38,1.34
	s-1.34-0.19-1.91,0.77c-0.57,0.96-4.21-0.38-4.98,0c-0.77,0.38-4.02-0.64-4.4,0.35c-0.38,0.99-1.15,1.18-2.11,2.52
	c-0.96,1.34-0.19,0.77-2.49,1.72c-2.3,0.96-7.47,0.38-7.47,0.38s-1.15-3.83-2.49-4.21c-1.34-0.38-6.51-1.34-6.89-1.91
	c-0.38-0.57-3.25-3.64-3.25-3.64s-1.91-0.19-2.49-0.38s-2.3-1.91-3.83-2.3s-4.79-2.11-4.79-2.11l-5.36-2.49
	c-3.83,1.34-5.74,0.57-5.74,0.57s-0.19,1.53-0.96,2.87c-0.77,1.34-0.38,2.3-2.3,1.91s-5.55-2.68-6.32-4.02
	c-0.77-1.34-2.68-3.06-3.45-3.64c-0.77-0.57-2.87-0.96-3.06-1.53s-2.87-4.4-2.87-4.4s-1.72-1.34-2.3-2.49
	c-0.57-1.15-1.34-1.91-2.11-2.68c-0.77-0.77-0.96-1.34-1.91-1.53c-0.96-0.19-3.45-0.77-5.17-0.19c-1.72,0.57-0.96,0.77-3.06,1.15
	s-2.87,0-3.64,0.19s-3.83,1.34-3.83,1.34s-0.38-1.34-0.96-1.53c-0.57-0.19-1.15-0.38-1.72-0.96c-0.57-0.57-1.72-1.91-2.3-2.3
	c-0.57-0.38,0-1.15-1.53-0.57c-1.53,0.57-2.3,0.96-3.06,1.72c-0.77,0.77-1.34,0.38-2.3,1.72c-0.96,1.34,0,2.3-0.96,1.34
	c-0.96-0.96-0.38-2.3-2.49-2.3s-2.87-0.96-3.64-0.19c-0.77,0.77-1.72,1.53-1.91,2.87c-0.19,1.34-0.38,2.3-0.38,2.87
	s1.53,0.77-0.96,2.11c-2.49,1.34-4.21,2.3-4.21,2.3s-2.11-1.34-2.68-1.15c-0.57,0.19-0.19,1.15-2.3,0.57
	c-2.11-0.57-4.02-1.72-4.02-1.72c-1.53,1.72-1.91,1.91-3.25,2.68c-1.34,0.77,0.57-0.77-3.06,1.34c-3.64,2.11-5.36,1.72-5.36,2.49
	c0,0.77,0.96,2.68-2.87,2.3s-4.79-0.96-5.93-0.96c-1.15,0-4.02-1.15-4.79,0.57c-0.77,1.72,1.34,4.59-2.49,1.72
	c-3.83-2.87-5.36-4.02-7.27-3.64c-1.91,0.38-5.36,0.38-5.36,0.38s-3.06-0.96-3.64-0.38c-0.57,0.57-2.87,0.57-4.02,1.15
	c-1.15,0.57-3.83,0-4.98,1.72c-1.15,1.72-2.49,2.49-3.06,4.21c-0.57,1.72-0.57,3.45-1.53,3.45s-2.87-1.15-5.55-0.57
	s-5.36,0.96-6.32,0.77s-5.17-1.34-5.17-1.34l-2.87-0.96c0,0-1.72-0.38-0.96-2.3c0.77-1.91,0.77-4.79,1.15-5.74
	c0.38-0.96,0.38-1.15,0.38-2.49s-0.57-2.3,0-3.64c0.57-1.34,0.77-4.02,0.77-5.55c0-1.53,0.38-2.68,0.57-4.02
	c0.19-1.34-0.38-2.49-0.38-2.49c-1.34-0.96-2.3-1.91-2.3-2.87s0-2.3,0-2.3s-0.57-0.38,0.96-1.15c1.53-0.77,1.08-1.53,1.08-1.53
	s1.28,0,2.3-2.55s1.02-5.23,1.02-5.23s0.38-2.04,0.38-2.55s0.38-1.02-0.77-1.79c-1.15-0.77-2.17-1.15-2.68-2.94
	c-0.51-1.79,0.64-2.17-2.17-6.76s-5.23-7.15-5.74-8.17s-1.28-3.06-1.15-4.47c0.13-1.4,0.13-3.7,0.13-4.34
	c0-0.64,1.91-1.66-0.38-1.53s-6.76-1.4-7.66-1.91s-4.59-2.42-5.62-2.94s-2.81-1.02-4.47-1.79c-1.66-0.77-5.36-1.91-6.64-3.06
	c-1.28-1.15-3.06-2.42-3.83-4.34c-0.77-1.91-1.15-2.04-1.91-3.32c-0.77-1.28-2.68-4.34-3.06-4.98c-0.38-0.64-1.15-0.51-2.04-2.04
	c-0.89-1.53-2.42-3.83-2.68-4.72c-0.26-0.89-0.77-2.81-1.28-3.96c-0.51-1.15-2.98-2.17-1.49-1.91s2.89,0.89,4.04,0.26
	s1.53-1.91,3.06-2.81c1.53-0.89,1.53-2.42,1.53-2.42s0.38-1.53,0.64-1.91s-0.26,0.13,1.53-0.89s3.19-3.19,3.83-4.21
	c0.64-1.02-0.26-1.15-0.38-1.79c-0.13-0.64,0.51-4.08,0.51-4.08s0.38-1.15,0-1.53s-1.28-1.28-1.91-2.3c-0.64-1.02-2.04-2.3-2.04-2.3
	s-2.3-1.4-2.68-2.04c-0.38-0.64-1.53-1.28-1.66-1.79c-0.13-0.51,0.13-1.91,0.38-2.55s0.26-0.77,0.26-2.3c0-1.53-0.13-2.17,0-3.32
	c0.13-1.15,0.77-2.94,1.02-3.7c0.26-0.77-0.13-0.89,0-1.4s0.77-0.64,1.66-2.04c0.89-1.4,1.79-2.29,0.89-3.18
	c-0.89-0.9-1.4-2.05-1.79-2.43s-1.02-1.15-1.4-2.3c-0.38-1.15-1.02-1.66-1.02-2.55c0-0.89-0.38-1.4,0.64-2.42
	c1.02-1.02,1.66-1.4,2.55-2.42c0.89-1.02,1.91-1.91,2.42-2.04s1.53,0.26,2.17-0.13s-0.64-2.42,0.64-0.38s0.77,4.34,1.91,2.17
	s0.54-3.89,0.69-3.89c0.14,0-0.19-0.57,1.29,0.24s2.68,0.05,2.68,0.05s-0.19,0.62,0.77,0.96c0.96,0.34,2.58,0.96,3.16,1.01
	c0.57,0.05,2.01,0.1,2.01,0.1s0.81-0.72,2.25-1.29c1.44-0.57,3.54-1.72,3.54-1.91s-0.57-1.77-0.53-2.01
	c0.05-0.24,0.48-1.05,0.57-1.63c0.1-0.57,0.05-1.05,0.1-1.24c0.05-0.19,0.48-0.62,0.67-0.81s0.38-0.86,0.34-1.24
	c-0.05-0.38-0.29-1.29-0.24-1.44c0.05-0.14-0.1-0.43,0.62-0.72c0.72-0.29,1.29-0.53,1.58-0.62C37.06,234.04,38.48,233.3,38.48,233.3
	z"/>
</svg>
