<?xml version="1.0" encoding="utf-8"?>
<!-- Generator: Adobe Illustrator 26.0.1, SVG Export Plug-In . SVG Version: 6.00 Build 0)  -->
<svg version="1.1" xmlns="http://www.w3.org/2000/svg" xmlns:xlink="http://www.w3.org/1999/xlink" x="0px" y="0px"
	 viewBox="0 0 512 512" style="enable-background:new 0 0 512 512;" xml:space="preserve">
<style type="text/css">
	.st0{display:none;}
	.st1{fill:#FFFFFF;}
</style>
<g id="Layer_3" class="st0">
	
		<image style="display:inline;overflow:visible;" width="664" height="837" xlink:href="7E62F3A8.jpg"  transform="matrix(0.6117 0 0 0.6117 52.9128 0)">
	</image>
</g>
<g id="Layer_2">
	<path class="st1" d="M254.6,60.2l-2.1,0.5L252,60l1-2.1l0.4-2.1h1.6l2.5,2c0,0,0.8,0.6,0.6,0.9s-1.1,0.8-1.5,0.9
		S254.6,60.2,254.6,60.2z"/>
	<path class="st1" d="M253.8,41.1c0,0-2,0.6-2.2,0.6c-0.2-0.1-1-0.8-1.5-1.5c-0.5-0.7-1.3-3.9-1.3-3.9l0.3-2.9l0.5-5.4l1-4.8
		l-0.4-3.5h-2.2l-1.4-0.5l0.4-2.2c0,0,1.5-3.2,1.8-3.5c0.3-0.3,2.6-2.5,2.6-2.5l1.7,0.4l4.2,3.9v2.5l4.9,0.8l1.2,1.8l-1.6,6.8
		c0,0-2.8,5.7-3,5.9c-0.2,0.2-1.4,3.5-1.4,3.5l-2.4,0.8l-0.7,1.9L253.8,41.1z"/>
	<path class="st1" d="M262.7,15.7l0.2-3v-1.4c0,0-1.4-0.6-1.5-0.7c-0.2-0.1-1-0.7-1-1c0-0.3-0.4-0.7,0.5-1c0.9-0.4,1.3-0.4,2-0.6
		c0.7-0.3,1.2-0.8,1.3-1.3s0.2-0.6,0.1-0.8c-0.1-0.2-0.7-0.5-0.7-0.5l-2.4-0.2c0,0-0.7-0.7-0.9-1c-0.2-0.2-0.5-0.8-0.7-0.5
		c-0.2,0.3-0.5,0.6-0.5,1c-0.1,0.4-0.3,0.6-0.4,1.1c-0.1,0.6-0.3,0.5-0.2,1.2s0.3,1.3,0.1,1.5c-0.2,0.2-0.5,0.6-0.8,0.7
		c-0.3,0.1-1,0.1-1.3,0.5s-0.5,0.8-0.4,1c0,0.2,0.6,0.6,0.6,0.6s-0.5,0.1,0.4,0.1c0.9,0,1.7,0,2.4,0c0.7,0,1.1-0.3,1.3,0
		c0.2,0.3,0.4,0.4,0.6,0.9c0.2,0.4,0.4,0.7,0.4,1.1c0,0.4-0.1,0.7-0.3,1.1c-0.2,0.4-0.4,0.5-0.4,0.9c-0.1,0.4,0,0.7,0.2,0.8
		C261.3,16.2,262.7,15.7,262.7,15.7z"/>
	<path class="st1" d="M374.1,286.1c0,0-0.3,1.5-0.5,1.9c-0.2,0.3-1.1,1.5-1.5,2.3c-0.5,0.7-0.6,0.7-1.3,2c-0.6,1.3-1,2.1-1.4,2.6
		c-0.4,0.5,0,2.3,0,2.3l-1.1,0.9c0,0-1.5,0.3-1.7,0.3c-0.3,0.1-2.1,1.4-2.1,1.4s-0.5,0.6-1,1.4c-0.6,0.8-0.6,0.6-0.8,1.4
		c-0.2,0.7-0.5,1-0.5,2.5c-0.1,1.5-0.5,3.2-0.6,3.8c-0.1,0.6,0.1,1.7,0,2c-0.1,0.3,1.1,0.5,1.1,0.5s2.5-2.2,2.7-2.6
		c0.2-0.4,0.3-1,1.2-1.7c1-0.7,1.3-1,1.9-1.7c0.6-0.7,0.8-1,1-1.7c0.2-0.7,0.1-0.3,0.4-1.5c0.3-1.2,0.3-1.4,0.9-2.2
		c0.6-0.8-1.4-0.3,0.8-1.2c2.1-0.9,1.9-0.5,2.7-1.2c0.8-0.6,1.2-0.8,1.5-1.5c0.4-0.8,0.5-1.6,0.5-1.8s0.1-0.4,0-1.2s0.7-0.7,0-1.5
		c-0.7-0.8-0.5-0.6-0.9-1.2c-0.3-0.6-0.4-1-0.6-1.4s-0.2-0.5-0.2-1S374.1,286.1,374.1,286.1z"/>
	<path class="st1" d="M243.8,436.7c0,0-1,1.1-1.1,1.4c-0.1,0.2-0.4,0.9-0.4,1.1c0,0.1-0.3,0.4,0.2,0.4c0.5,0,1.4-0.3,1.8-0.3
		c0.4,0,1.4,0.1,1.4,0.1s0.1-0.5,0.1-0.6s0-0.5-0.2-0.7c-0.2-0.1-0.5-0.4-0.7-0.5c-0.2-0.1-0.5-0.2-0.6-0.3S243.8,436.7,243.8,436.7
		z"/>
	<path class="st1" d="M241,437.6c0,0.1,0.1,0.4-0.2,0.6c-0.3,0.2-0.4,0.2-0.4,0.2s-0.1,0,0-0.2c0.1-0.2,0.2-0.5,0.3-0.5
		S241,437.6,241,437.6z"/>
</g>
<g id="Layer_4">
	<path class="st1" d="M110.4,479.8l-13.4-30.5l-3.3-1.2l1.4-2l-4.2-10.7L60,367.1c0,0,7.4-2.6,7.5-2.6c0.1,0,128.8-45.6,128.8-45.6
		l30.6-97.9L206,187.3l0.6-20.5l16.1-25.8l-3.9-15.7l9.6-5l7.9,1.2l7-2.4l-3.7-7.5l-4.6,1c0,0-4.1-2-4-2.2c0.1-0.2,3.2-4,3.2-4
		l-0.4-4.9c0,0-1.5-3.2-1.7-3.7c-0.2-0.5-1.2-3.3-1.2-3.3l2.7-3.5l-1.2-0.6l2-2.1c0,0-0.3-3.2-0.5-3.6c-0.1-0.5-0.2-3.9-0.2-3.9
		v-3.2l0.6-2.2l4-1.8c0,0,2,0.2,2.6,0s2.6,0,2.6,0l0.8,2.8l-0.5,2c0,0-1.8-0.2-2.1,0c-0.3,0.2-0.5,0.6-0.5,0.6l1.1,2.4l2.5,3l1.7,1
		l2.7-0.8l1.5-1.4l0.5-2.5V80l3.1-0.6l1.5-2.3l1.4-1.2l-0.8-1.4l0.8-0.8l1.4-0.1c0,0,1,0.1,0.8,0.6c-0.2,0.5,0.8,4.6,0.8,4.6
		l2.2,3.7l1.5,3.9l2.9,4.8c0,0,3.7,6.8,3.9,7c0.2,0.2,1.1,1,1.7,1c0.6,0,1.4-0.5,1.7,0.6c0.3,1.2-0.3,0.8,0,2
		c0.3,1.2,0.5,2.2,0.8,2.6c0.3,0.4,2.3,2.8,2.5,3.1c0.1,0.3,4.5,5,4.8,5.5c0.3,0.6,3.9,5.2,4.1,5.5c0.3,0.3,7,6.2,7,6.2l8.2,3.1
		l8.7,3.6l5.5,1.8l7.1,1.5l5,2l6.6-0.2l5.4,1.1l7.9,3.2l8.6,0.5l5.4,3c0,0,6.1,2.5,6.2,3s1.9,4.8,1.9,4.8l3.5,2.9l2.8,4.8l2.3,3.7
		c0,0,2.1,5.4,2.3,5.6c0.1,0.3,5.4,5,5.5,5.2c0.2,0.2,2.3,3,2.5,3.5s1.9,4.8,1.9,4.8l6.1,5.3l4.1,3.5l3.7,1.7l5,0.8l3.7,1.4l2.5,2.7
		l0.8,3l-1.2,8.1l-1.8,3.4c0,0-2.1,2.8-2.4,3.3c-0.3,0.5-2.8,3.8-2.8,3.8s-0.3,3.8-0.4,4c-0.1,0.2-4.1,6.1-4.3,6.3
		c-0.2,0.2-2.5,2.8-2.5,3c0,0.2-1.9,6.3-1.9,6.3l-2.3,5l-2.1,3.1l-1.4,2l-3.1,1.6l-8.3,4.8l-3.6,3.7l-3.5,4.5l-4.1,3.2
		c0,0-3.4,6.8-3.5,7.1c-0.1,0.3-1,7.3-1.1,7.5s-1.7,3.7-1.9,3.7s-2.7,0.8-2.9,1c-0.2,0.3-1.9,3.5-2,3.7c-0.1,0.3-2.1,4.5-2.1,4.5
		s-0.5,3.4-0.8,3.7c-0.4,0.3-2.8,2.2-2.8,2.2l-4.6,0.1c0,0-2.6,0-2.8-0.1c-0.2-0.1-1.2-0.6-1.2-0.6l-1.4-1.2c0,0,0.5-3,0.8-3.4
		c0.3-0.3,0.7-3.1,0.7-3.1l-0.4-2.8c0,0-1.8-0.1-2.2-0.1s-3.7,0.8-3.7,0.8s-2.3,2.1-2.4,2.5c-0.1,0.4-2,3.6-2,3.6l-3.2,2.2l-0.8,4
		l-4.8,3.9c0,0-0.3,3.2-0.5,3.7c-0.2,0.6-2.1,6.3-2.1,6.3l0.1,4c0,0-1.4,3.7-1.6,3.9s-2.1,8.1-2.1,8.1v5.7l-0.1,4.1l2.6,4.3
		c0,0-0.6,5.7-0.6,6s0.6,4.5,0.6,4.7s1.9,3.9,1.9,3.9l1.4,3.9l-0.4,2l-3.1,2.1l-6.5,0.6l-9.3,0.3l-5.9,1.2c0,0-5.1,0.8-5.5,1
		c-0.5,0.1-8.4,2.2-8.4,2.2l-3.7,2l-5.1,3.5l-1,1.4l-0.4,1.1c0,0-1,1-1.4,1.3c-0.3,0.3-3.9,3.3-3.9,3.3l-0.1,1.5l0.4,4.2
		c0,0-0.5,3.5-0.6,3.6c-0.1,0.1-1,3.2-1,3.4c0,0.2-0.7,3-0.8,3.1s-1.2,2.1-1.2,2.1l-0.7,3.6c0,0-0.6,1.2-0.9,1.3
		c-0.3,0.1-2.3,1-2.5,1.1c-0.1,0.1-1.6,0.9-2,1.5c-0.4,0.7-1,1.8-1,1.8l-1.4,3.5l-0.8,1.5c0,0-2.1-0.3-2.4-0.4
		c-0.3-0.1-2.2-0.5-2.2-0.5l-1.9-0.5l-6.9,0.6l-5.6,1.2l-3.5,0.5h-4.7l-4.6,0.4l-4.4,1.2l-3,0l-2.1,1.5c0,0-0.7,0.9-0.8,1.1
		s-1.2,0.6-1.2,0.6l-0.5,2.9l-0.1,1.4l-1,1.7l-1.3,0.9l-2,0.6l-2.1,1.3l-1,2l-0.4,1.5c0,0,0,2,0,2.1c0,0.1,0.8,1.9,0.8,1.9
		s0.3,1.2,0.8,1.6c0.5,0.5,1,1.6,1,1.6l-0.1,2.2l-0.7,3c0,0-0.5,2.4-0.6,2.8c-0.1,0.3-0.4,0.3-1.1,1.2c-0.7,0.9-2.1,1.9-2.3,2.1
		c-0.2,0.2-1.9,1.7-2.2,1.9c-0.2,0.1-2.2,1.2-2.4,1.6c-0.2,0.4-1.5,2.4-1.7,2.6s-2.5,1.2-2.7,1.3c-0.1,0.1-4.4,1.4-4.4,1.4l-3.4,0.8
		l-2.9-0.1l-1.7-1.5l-1.2-1.6c0,0-2.8-0.1-3-0.1c-0.2,0-5.5-0.3-5.5-0.3h-5.9c0,0-6,0-6.3,0c-0.3,0-4.8,1.1-4.9,1.2
		c-0.1,0.1-5.4,2-5.4,2l-0.9,1.9l-0.4,1.5l-2.3,0h-2.9H141c0,0-1.7,0.7-1.8,0.9c-0.1,0.2-1.2,3-1.2,3L135,474l-4.4,0.4
		c0,0-4.2,0-4.4,0c-0.2,0-3.8,0.6-3.8,0.6l-3.4,1.1l-1.9,1l-1.4,0.9l-1.3,0.6l-2,1.1H110.4z"/>
</g>
</svg>
