<?xml version="1.0" encoding="utf-8"?>
<!-- Generator: Adobe Illustrator 26.0.1, SVG Export Plug-In . SVG Version: 6.00 Build 0)  -->
<svg version="1.1" xmlns="http://www.w3.org/2000/svg" xmlns:xlink="http://www.w3.org/1999/xlink" x="0px" y="0px"
	 viewBox="0 0 512 512" style="enable-background:new 0 0 512 512;" xml:space="preserve">
<style type="text/css">
	.st0{display:none;}
	.st1{fill:#FFFFFF;}
</style>
<g id="Layer_2" class="st0">
	
		<image style="display:inline;overflow:visible;" width="960" height="895" xlink:href="145BCF6F.jpg"  transform="matrix(0.5333 0 0 0.5333 0 15.9455)">
	</image>
</g>
<g id="Layer_3">
	<path class="st1" d="M413.3,490.8v-2.3l-6.6-5.4v-8.9l-5.8-6.3l-10.1,1.7l-3.2-5.4l-3.5-0.9c0,0-0.6-2.1-1.2-2.3
		c-0.5-0.3-2.8-1.2-2.8-1.2l-0.9-3l-6.5-4.3l-1.9-0.9l-3.4-3.9l-4.9-0.8l0.9-2.7l-3-2.3l-0.6-4.3l-4.1-2.5l-1.7,2.6l-7-2.6l-3.6,1.5
		l3.6,3.4l-4.3-0.1l-8.1-4.8l-2.5,0.9l-3-1.9l-4.1-4l-9-4l-9.5-3.2h-11.2h-2.1l-0.6,2.7l6.8,2.7l8.6-0.3c0,0,8.1,4.3,8.8,4.1
		s6.3,2.3,6.3,2.3l2.8,2.7c0,0-0.9,2.6-0.5,2.7c0.4,0.1,22.8,7.4,22.8,7.4l10.6,1.2l4.6,4.4l7.6,5.7l4.3,1.5l0.1,3.4l7.7,3.1
		l4.4,2.2l3,5.2l6.5,6.3l9.9,5l5.4,5.5l0.4,0.8"/>
</g>
<g id="Layer_4">
	<polygon class="st1" points="357.4,453.1 361.2,456.5 363.2,458.5 364.1,458.2 364.6,456.6 362.9,455.2 360.6,454 359.2,454 	"/>
	<path class="st1" d="M367.5,459.2c0,0.1,0,0.7-0.2,0.7c-0.2,0-0.4,0-0.4,0l0.2-0.7H367.5z"/>
	<path class="st1" d="M369,460.2l-0.1,1.2c0,0-0.1,0.3-0.2,0.3c-0.1,0-0.3-0.4-0.3-0.4v-0.6L369,460.2z"/>
	<path class="st1" d="M367.1,461.5v0.3l-0.4,0.2l-0.1-0.2c0,0-0.1-0.2,0-0.2C366.7,461.5,367.1,461.5,367.1,461.5z"/>
	<path class="st1" d="M348.8,459.2c0,0-7.9-1.8-8-2s-4.8-0.3-4.8-0.3l-3.4-2.1l-5.5-1.5h-3.9l-5.9-2.1l2.6-2.3l4,0.7c0,0,6.9,2,7,2
		s4.7,1.3,4.7,1.3l2.1,1.4l2.9,0.8l1.9,0.6l4.1,0.8l3.4,2.7l0.3,0.7L348.8,459.2z"/>
	<path class="st1" d="M284.9,452.2c0,0-1.3-0.1-1.5,0c-0.3,0.1-3.4,0-3.4,0l-1.2-1h-2.2l-1.1,0.7l0.1,1.7l0.9,1.5h7.9L284.9,452.2z"
		/>
	<path class="st1" d="M305.9,435.5c0,0-5.1,0-5.3,0s-6.1,0-6.1,0l-4.1-1.7c0,0-3.7,0.9-4,0.9c-0.3,0-4.8,1.8-4.8,1.8h-3l-3.7-0.5
		h-4.1l-5.2-1.6l-2,0.1l-1-0.7l2.4-2c0,0,2-1.5,2-1.7s-0.5-1.5-0.7-1.5c-0.2,0-3.7-1.8-3.7-1.8s6.5,1.5,6.8,1.7
		c0.3,0.2,9.2,1.9,9.2,1.9l8.2-1.4l3.8-0.3l5.4,1.3l6.3,1.2l3.2,3.2L305.9,435.5z"/>
	<path class="st1" d="M267.5,415l-1.8,0.1c0,0-0.4,0.4-0.5,0.4s-1.5-0.1-1.5-0.1s-1.3,0-1.3,0c0,0,1,0.8,1,0.8l2.6,0.4l1.4-0.8V415z
		"/>
	<path class="st1" d="M228.4,418.1c-0.1,0-2.7,0.1-2.8,0.2c-0.1,0.1-2.8,0.2-3.1,0.1s-2.5-1.2-2.5-1.2s-2.3,0.6-2.4,0.7
		c-0.1,0.1-1.8,0.8-1.8,0.8s-1.9-0.1-2,0.1c-0.1,0.2,0.7,1.1,0.7,1.1s1.5,0.8,1.5,0.9c0,0.1-0.3,1.7-0.3,1.7l0.6,0.8l-0.4,0.8
		l-1.3,0.2l-0.4,0.5h2.1l1.8-0.1l2.2-1c0,0,3.4,0.3,3.4,0.3c0.1,0,2-0.8,2-0.8l1.4,0.3l0.6-1.3l-0.2-1.1l1-0.8c0,0,0.5-0.4,0.5-0.5
		C229,419.5,228.4,418.1,228.4,418.1z"/>
	<polygon class="st1" points="305,412 299.8,412.8 288,412.8 282,413.2 278.4,412 272.7,411.4 266,411.8 262.2,412.3 259.1,411.8 
		256,410.6 252.5,409.3 249,407.8 246.9,407.8 239.8,405.3 244.2,403.8 247.2,403.5 249.5,403.5 255.2,405.3 256.6,402.9 
		251.6,401.2 254.1,400.5 256.6,402.3 262.4,402 265.9,407.4 273.8,408.2 279.8,407.7 285.6,408.5 291.7,409.6 296.9,410.3 
		302.7,410.4 	"/>
	<path class="st1" d="M282.1,389.8c-0.1,0.3-1.7,3.9-1.7,3.9l-1.9,1.5c0,0-3.6,0.2-4,0.3s-7,0.9-7.2,0.9c-0.2,0-2,0.9-2.2,0.9
		c-0.2,0-5.1,0-5.1,0h-1.3c0,0-1.1-1.2-1.5-1.2c-0.4,0-3.5-0.2-3.5-0.2l-3.1-1l-3.8-2.3l-2.4-1.2l-0.8-1.1l0.9-1.6l1.5-1.2l0-1.7
		l-1.1-0.8l-0.4-1.5l1.5-0.6c0,0,9.5,0.3,9.6,0.3s3.2,0.7,3.2,0.7l6,1l3,0.7c0,0,0.5,0,0.7,0.3s0.6,1.7,0.6,1.7l5.6,0l1.8,0.9
		l2.8,0.6L282.1,389.8z"/>
	<polygon class="st1" points="239.7,387.4 237.9,384.2 235.7,384 233.5,382.4 230.9,380.3 226.6,379.5 225.7,379.8 226.4,382.5 
		231,384.3 234.8,386.6 239.3,388.9 	"/>
	<path class="st1" d="M222.2,376.8c0,0-0.3,0.6-0.3,0.7s-1.7,0-1.8,0s-1.2,0-1.2,0l-0.3-0.7l1-0.2h2.1L222.2,376.8z"/>
	<path class="st1" d="M179.2,351.2c0.1,0,2.5,0.9,2.6,1c0.1,0.1,1.1,0.8,1.2,1.1c0.1,0.3,0.4,0.8,0.2,0.8c-0.2,0-2.7-0.6-2.7-0.6
		l-1.5-1.2L179.2,351.2z"/>
	<path class="st1" d="M185.9,349.6c0,0-1.5-0.9-1.6-1c-0.1-0.1-1.2-1.2-1.2-1.3c0-0.1-0.5-1.5-0.5-1.5c0,0,0.4-0.8,0.6-0.7
		c0.1,0.1,1.9,2.6,1.9,2.6c0,0,0.9,1.5,0.9,1.5V349.6z"/>
	<path class="st1" d="M197.2,348.5c0,0,0.2,0.2,0.1,0.3c0,0.1-0.6,0.4-0.6,0.4h-0.2c0,0,0-0.3,0.1-0.3S197.2,348.5,197.2,348.5z"/>
	<path class="st1" d="M194.6,348l-0.1,0.2l-0.2-0.1l-0.1-0.3c0,0,0.2,0,0.2,0C194.5,347.7,194.6,348,194.6,348z"/>
	<path class="st1" d="M196,347.3l-0.4-0.6c0,0-0.7-0.2-0.7-0.2s-0.1-0.4-0.2-0.4c0,0-0.5,0.1-0.4,0.3c0.1,0.2,0.2,0.4,0.4,0.5
		c0.2,0.1,0.8,0.5,0.8,0.5H196z"/>
	<path class="st1" d="M148.6,327c0.1,0.1,1.6,1,1.6,1s1.3,1.1,1.5,1.3c0.2,0.2,3.4,2.8,3.4,2.8s0.2-1.1,0-1.3
		c-0.2-0.2-1.3-1.7-1.3-1.7l-0.5-1.4l-1.4-0.3l-2.1-0.2L148.6,327z"/>
	<path class="st1" d="M157.4,338.1l-3.7-3.1c0,0-3.1-3-3.2-3c-0.1,0-3.6-3.2-3.6-3.3c-0.1-0.1-1.5-1.4-1.5-1.4l-0.7,0.3
		c0,0,0.6,1.3,0.7,1.4s2.2,2.9,2.2,2.9l2.3,1.1l1.3,1.3l2.9,2.2l2.1,1.4L157.4,338.1z"/>
	<path class="st1" d="M145.1,327v-2.7c0,0-0.4-0.9-0.6-1c-0.1,0-2.5-1.5-2.5-1.5l-2.8-2c0,0-5.7-6-5.9-6.1c-0.2-0.1-2.7-2.4-2.8-2.8
		s-2.3-5-2.3-5l-0.7-2.2l-3.2-1.4l-1.3-0.5l-0.8-1.8l-2.1-1.7l-3.1-3.2l-1.3-2.1l0.6,3l0.6,2.1l4,3.9l2.2,2l1.6,1.8l2.3,2.7l2.1,2.4
		c0,0,1.9,3.6,2.1,3.8s2.5,4.2,2.5,4.2l1.1,1.9l2.3,1.3l4.2,2l2.4,1.8l1,0.9H145.1z"/>
	<path class="st1" d="M163,323.6l-8.8-8.5l-4.7-3.4h-1.3l0.4,2.1c0,0,4.6,5,4.7,5.2c0.1,0.2,3.3,3.5,3.3,3.7
		c0.1,0.2,1.2,1.2,1.2,1.2h2l1.5,0.8l1.7,0.5h0.5L163,323.6z"/>
	<path class="st1" d="M134.5,305.5c0,0,2.2,1.4,2.2,1.6s0.8,2.2,0.8,2.2s1.3,0.9,1.4,1s1.5,2.6,1.5,2.6s0.2,0.9,0,0.8
		s-1.5-1.2-1.5-1.2l-2-2.3l-1.6-1.7l-1.2-1.4l-0.4-0.9l0.3-0.7L134.5,305.5z"/>
	<path class="st1" d="M147.3,309.8l-1.8-2.6l-2-1.4l-2.4-2.7l-2.6-1.9c0,0-1.7-1-1.7-1.1c-0.1-0.1-1.8-2.1-1.8-2.1l-1.2-1.2h-0.9
		c0,0,0.3,1.2,0.5,1.4c0.2,0.2,1.4,1.2,1.5,1.4c0.1,0.2,1.7,3,1.7,3l2.3,2.7l2.2,2l1.7,1.5l2.8,0.6L147.3,309.8z"/>
	<path class="st1" d="M129,296.9c0,0-1.4-1.5-1.5-1.7c-0.2-0.2-1.1-1.3-1.2-1.5c-0.1-0.2-1.6-1.8-1.6-1.8l-1-0.8
		c0,0-0.6-0.2-0.4,0.2s1.2,2.2,1.2,2.2s0.7,1.1,0.7,1.2s0.5,1.4,0.5,1.4l0.1,0.6l1.6,0.4L129,296.9z"/>
	<path class="st1" d="M117.4,288.9l-3.3-3l-2-2c0,0-0.7-0.1-0.7,0c0,0.1,0.1,1.6,0.6,2.3c0.5,0.7,1.6,1.6,1.8,1.8s2.7,1.7,2.7,1.7
		h0.8V288.9z"/>
	<path class="st1" d="M107.2,280.6c0.3,0.3,1,0.8,1.1,1.1c0.1,0.2,0.4,0.8,0.4,1.1s-0.1,1-0.3,1c-0.2,0-1.3-0.2-1.5-0.5
		c-0.2-0.2-0.8-1.4-0.8-1.5S107.2,280.6,107.2,280.6z"/>
	<polygon class="st1" points="134.1,277.5 130.6,276.7 129.4,276.9 130.3,279.2 131,280.5 133.4,279 134.8,278.3 	"/>
	<path class="st1" d="M139.5,279.3c0,0,0.3-1.6,0-1.8c-0.3-0.2-1-1.4-1-1.4s-0.7-1,0-0.8c0.7,0.2,2.5,1.4,3.1,1.7s2.9,1.7,3,1.7
		s1.5-0.7,1.5-0.7l-0.6-1.6l-0.6-0.6l1.8-0.1v-1.8c0,0-0.8-0.6-1.2-0.8s-2.3-1.3-2.4-1.4c-0.1-0.1-2.3-2.1-2.3-2.1s-1.1-1.8-1.2-1.9
		c-0.1-0.1-2.3-2.9-2.4-3.1c-0.1-0.2-2.2-2.6-2.4-2.6c-0.2,0-2.5-1.5-2.5-1.5s-0.8-0.8-0.9-0.7s-1,1.8-1,2.1c0,0.4,0,0.5-0.2,0.5
		c-0.2-0.1-1.5-1.1-1.6-1.4c-0.1-0.3-1.9-2.9-1.9-2.9l-4.4-4.4c0,0-0.6-1.1-0.4-1.1s1.5,0.5,1.8,0.8c0.4,0.3,1.4,1,1.7,1.3
		s1.7,0.9,2.2,1.2c0.5,0.3,1,0.6,1.6,0.7c0.6,0.1,2.1,0.3,2.1,0.3s-0.1-1.5-0.4-1.6c-0.3-0.2-0.3-0.2-0.8-0.4
		c-0.5-0.2-3.5-1.5-3.7-1.5c-0.2-0.1-1.6-0.8-1.7-1c-0.1-0.1-0.6-1.4-0.7-1.8s-0.5-1.7-0.5-1.7s-1-2-1.2-2.1
		c-0.2-0.1-1.7-1.4-1.9-1.5c-0.2-0.1-1.2-0.9-1.5-0.8c-0.3,0.2-1.6,0.4-1.7,0.6c-0.1,0.2-0.5-0.2-0.2,0.6c0.3,0.8,0.7,2.1,1.1,2.7
		s-1.2,0.2-1.2-0.1c0-0.2-1.6-2.3-1.7-2.6c-0.1-0.3-0.9-2-1.1-2.3c-0.2-0.3-1.8-1.8-1.8-1.8l-2.6-3.3l-3-2.9l-1.1-0.4
		c0,0,0.2,1.8,1,2.5c0.8,0.7,3.4,4.6,3.4,4.6l3.5,4.6l2.4,3.1l1.6,1.8c0,0,0.5,1.5,0.7,1.8c0.2,0.3,1.6,1.9,1.6,2.2
		c0,0.2-1.8,2.2-1.8,2.2l3,2.2c0,0,1.7,1,2,1.1s3.3,2.5,3.3,2.5s1.6,1.3,1.7,1.5c0.1,0.2,0.9,1.3,0.9,1.3l0.9,1.4l2.4,0.7
		c0,0,0.2,0.1,0.7,0s1.5,0.4,2.1,0.8c0.6,0.4,1.8,1.1,1.9,1.3s-0.7,1.5-1.1,1.7s-1.1-0.2-1.2,0.7c-0.1,0.9,0.4,2.2,0.8,2.9
		c0.4,0.7,1.1,1.8,1.2,2.1c0.1,0.3,1.7,1.5,1.7,1.5L139.5,279.3z"/>
	<path class="st1" d="M111.2,266.6c0,0.5-0.2,0.3,0,1.6s-0.3,1.9-0.1,2.6s0.7,3.7,0.7,3.7l-3.8-1.7c0,0-1.2-1.5-0.7-2
		c0.5-0.5,1.3-2.1,1.3-2.1l0.7-2.1l0.5-0.7L111.2,266.6z"/>
	<path class="st1" d="M101.8,266.8c0.2,0.4,1.3,2.6,1.3,3.1s0.2,1.5,0,1.5c-0.2,0-1-0.7-1.3-1.1s-1-1.5-1-1.7s-0.2-1.3-0.4-1.7
		c-0.2-0.4-0.2-0.4-0.2-0.4L101.8,266.8z"/>
	<path class="st1" d="M99.2,268c-0.1,0-0.4,0.2-0.3,0.3s0.3,0.2,0.3,0.2c0.1,0,0.2-0.3,0.2-0.3C99.4,268.1,99.2,268,99.2,268z"/>
	<path class="st1" d="M112.5,233l-0.5-0.9l-1.5-0.4l-2-2.5v-1.4c0,0-1.1-0.7-1.3-0.7c-0.1,0-2.8-0.3-3.1-0.4
		c-0.3-0.1-3.6-1.5-3.8-1.6s-1.7-1.6-1.7-1.6s0.1-0.9,0.5-0.9c0.4,0,3.2,0.1,3.4,0s0.7-1.6,0.4-2s-1.1-1.6-1.5-1.9
		c-0.4-0.3-0.9-1-0.9-1s2.7,0.2,2.9,0c0.2-0.2,0.8-0.4,0.8-0.4l1.9-0.4c0,0,0.4,0.8,0.3,1.6c-0.1,0.8-0.4,1.2,0,2.1s0.8,2,1.5,2.5
		c0.7,0.5,1,0.4,1.6,1s1,0.6,2.1,1.8c1.1,1.2,2.4,3,2.6,3.4s1.2,2,1.2,2s-1.3,0-1.7,0.1c-0.4,0-0.9,0.1-0.9,0.1L112.5,233z"/>
	<path class="st1" d="M108.3,214.3c0.1,0.2,0.3,0.1,0.2,0.4c-0.1,0.4-0.4,0.6-0.5,0.5c-0.1,0,0-1,0-1H108.3L108.3,214.3z"/>
	<path class="st1" d="M107.1,212.5c0,0.2,0.3,0.5,0.4,0.6s-0.6,0.7-0.5,0.8c0,0.1,0.2,0.4,0.1,0.5c0,0.1-0.2,0.3-0.3,0.3
		c-0.1,0-0.6-0.1-0.6-0.1s0-0.7,0.1-0.7c0.1,0,0.7-0.2,0.7-0.2l-0.2-0.7c0,0,0-0.4,0.1-0.4S107.1,212.5,107.1,212.5z"/>
	<path class="st1" d="M106.1,211.5c0,0,0,0.7,0,0.9c0,0.2-0.1,0.5-0.2,0.3c-0.1-0.2-0.2-0.7-0.2-0.8c0-0.1,0-0.7,0-0.7L106.1,211.5z
		"/>
	<path class="st1" d="M110.1,215.7c0,0,0.5,0.2,0.7,0.4c0.2,0.2,0.3,0.1,0.3,0.4s0,0.5,0.1,0.7c0.1,0.2,0.4,0.5,0.4,0.5l0.5-0.1
		l0.2,0.8c0,0,0,0.3,0.5,0.1s0.9-0.6,0.5-0.7c-0.4-0.1-0.8-0.3-1-0.4c-0.2-0.1-0.6-0.3-0.6-0.5c0-0.3-0.1-0.6-0.2-0.6
		c0,0-0.1,0.1-0.1-0.1c-0.1-0.2-0.4-0.7-0.4-0.7S110.1,215.7,110.1,215.7z"/>
	<path class="st1" d="M112.9,215.9c0,0,0.1,0.4,0.2,0.5s0.4,0.2,0.5,0.2c0.1,0,0.3,0,0.3,0s0-0.6-0.1-0.6S112.9,215.9,112.9,215.9z"
		/>
	<path class="st1" d="M112.5,211c-0.1,0-0.4-0.8-0.6-1s-1.1-0.8-1.3-1c-0.2-0.2-1.2-1.6-1.2-1.6s-0.8-0.9-0.9-0.7
		c-0.1,0.3-0.2,0.5-0.2,1.1c0.1,0.7,0,1,0.4,1.3c0.4,0.3,1.1,0.6,1.5,0.8c0.4,0.2,1,0.6,1.2,0.8c0.2,0.1,0.5,0.3,0.5,0.3H112.5z"/>
	<path class="st1" d="M107,205.4c0,0-0.1-0.3,0-0.7s-0.7-1.3,0-1.1s2.6,0.5,3.4,0.5s1.3,0.1,1.3,0s0.8-1.7,0.8-1.7s-0.3-1-0.6-1.4
		s-0.8-1.2-1.2-1.3s-0.8-0.2-1.1-0.7s-1.1-1-1.3-1.3c-0.2-0.2-0.9-0.8-1.2-1.3c-0.2-0.5-0.6-0.7-0.7-1.2c-0.1-0.5-0.3-1.2-0.4-1.5
		c-0.1-0.3-0.3-0.8-0.6-1.2s-0.5-1.1-0.7-1.2c-0.2,0-0.5-0.1-1-0.3c-0.5-0.2-1.5-0.4-1.9-0.5c-0.3-0.1-0.7-0.3-0.7-0.3l-0.7-0.7
		c0,0-0.7-0.8-0.7-1.2c0-0.4-0.2,0.1,0-0.7c0.2-0.8,0.2-1.5,0.2-1.5s0-0.6,0.1-1.2c0.1-0.6,0.5-0.9,0.2-1.6
		c-0.3-0.7-0.5-1.5-0.6-1.6c-0.1,0-0.8-0.6-1.1-0.6c-0.3,0-0.8,0-1.4,0s-1.5-0.4-1.6-0.5c-0.2-0.1-0.6-0.7,0-1.2c0.6-0.5,1-0.8,1-1
		c0-0.2-0.3-0.5-0.6-0.9c-0.4-0.4-0.9-0.5-1.3-1.2c-0.5-0.7-0.7-0.8-0.9-1.6c-0.2-0.8-0.5-1.7-0.6-2.1c-0.1-0.3,0.3-0.9-0.4-0.6
		s-1.5,0.3-1.9,0.5c-0.4,0.2-0.3,0.3-0.6,0.5s-0.9-0.1-1.2-0.3c-0.2-0.2-0.9-0.9-0.9-0.4s0.1,1.4,0.4,1.7s0.3-0.2,0.6,0.7
		c0.4,0.9,0.3,0.7,0.5,1.2s0.7,0.8,0.7,1.7c0,0.8-0.1,1.5-0.1,1.7c0,0.2,0.1,0.4-0.3,0.8c-0.3,0.4-0.5,0.2-0.8,0.9
		c-0.3,0.7-1.4,2.2-1.4,2.3c0,0.2,0.1,0.7,0,0.8c-0.1,0.1-1.3,1.3-1.3,1.3s-0.3-0.4-0.5-0.4s-1-0.4-1.2-0.3
		c-0.2,0.1-0.6,0.6-0.7,0.7c-0.1,0.2-0.1,0.3-0.5,0.8c-0.4,0.5-1,0.7-1.2,1.1s-0.9,1.3-1,1.5c-0.1,0.3-0.1,1-0.1,1.2
		c0,0.2-0.4,0.2-0.2,0.8s0.7,1.5,1.3,1.7c0.6,0.2,0.8,0.6,1.6,0.8c0.8,0.2,0.9,1,1,1.4c0.1,0.3,0.1,0.9,1,1.3c0.8,0.3,3.2,1,4.2,1
		s3-0.2,3.2-0.2c0.2,0,1.7,0,1.7,0s0.5,1,0.5,1.2c0,0.2-0.1,1.3-0.1,1.9s0,1.1,0,1.2c0.1,0.1-0.7,0.1,0.7,0.5s1.8,0.6,2.6,0.9
		c0.7,0.3,1.1-0.2,1.2-0.3c0.1-0.1,0.6-0.2,1,0c0.4,0.2,0.7,0.2,0.8,0.8c0.1,0.6,0.4,1.1,0.4,1.2c0.1,0.1,0.7,1,1.3,1
		c0.6,0,2.3,0,2.3,0L107,205.4z"/>
	<path class="st1" d="M66.8,238.4c-0.2,0.4-0.2,0.5-0.3,1.2c0,0.7-0.6,1.1,0.5,2.2c1,1.1,1.9,2,1.9,2s-2.7-0.9-2.8-1
		c-0.2-0.2-0.4-0.2-1-0.6c-0.6-0.4-1.5,0.2-1-1.1c0.5-1.3,1.1-2.7,1.4-3c0.3-0.3,0.4-0.7,0.9-0.6s1.1,0.4,1.1,0.4L66.8,238.4z"/>
	<path class="st1" d="M87.4,258.4c0.5-0.2,1.4-0.6,1.2-1.4c-0.2-0.8-0.2-1-0.6-1.5c-0.4-0.5-0.5-1-1.3-1.4c-0.9-0.4-2-1.1-2.5-1.2
		c-0.5,0-1.6-0.5-1.6,0s0.4,0.9,0.8,1.4c0.4,0.5,1,0.9,1.7,1.8c0.7,1,1.3,1.9,1.5,2C86.8,258.3,87.4,258.4,87.4,258.4z"/>
	<path class="st1" d="M83.6,251.3c0,0-1.3-0.8-1.6-1.3s-0.9-0.9-1.2-1.5c-0.3-0.6-0.5-1.4-0.6-1.5c-0.1-0.1-0.5-0.2-1.1-0.9
		c-0.6-0.7-0.9-0.8-1-1.5s0-1.3,0-1.3s-0.3,1.4-0.5,1.8s-0.2,0-0.5,0.7c-0.3,0.7-0.1,0.3-0.6,1.1c-0.5,0.8-0.6,0.6-0.8,1.1
		s-0.5,0.6-0.4,0.7c0.2,0.1,0,0.5,1,0c1.1-0.5,1.5-0.6,1.9-0.7c0.5-0.1,1.1,0.1,1.3,0.4c0.2,0.3,0.3,0,0.8,0.8
		c0.5,0.9,0.5,0.9,0.8,1.2C81.6,250.7,83.6,251.3,83.6,251.3z"/>
	<path class="st1" d="M77.6,242.9c0.2-1.2,0.3-2.7,0.3-3.4s0.2-4.1,0.2-4.1c0.6,0.9,0.6,0.8,1.4,2.6c0.8,1.8,1.9,2.6,2.7,3.6
		s1.5,2,2.2,2.2c0.7,0.2,0.9,1.2,2,0.5c1.1-0.6,2.2-2.6,2.2-3s-0.3-1.3-1.7-2.9c-1.4-1.6-2.3-3-2.5-3.6c-0.2-0.6-1.3-2.2-1.5-3.3
		c-0.2-1-0.7-1.2,0-2.1c0.7-0.9,1.2-1.7,1.4-2.4c0.1-0.7,1-0.5-0.3-2.1s-2.3-1.9-2.5-2.4c-0.2-0.5,1.2,0.7,1.3-0.4
		c0.1-1.1,0.2-1.7,0.1-2.7c-0.1-1-0.6-1.3-0.6-2.1s-0.5-1.1-0.5-2.4s-0.6-2.4-0.2-3.5c0.4-1.1,0.2-1.6,0.7-2.7s0.9-2.4,1-2.9
		s0.5-2.2,0.4-2.4c0-0.2,0.1-0.4-0.6-1.4c-0.6-0.9-0.3-0.7-0.3-0.7s-1.2-1-1.8-0.9s-1.3,0.9-1.6,0.2c-0.3-0.8-0.7-1.5-0.8-2.1
		c-0.1-0.6-0.3,0.1-0.5-1.6c-0.3-1.7-1.5-2.4-1.5-2.7c-0.1-0.3-0.4-1.1-0.6-1.9s-0.8-2.9-0.8-2.9s-0.5-1.7-0.5-1.9
		c0-0.1-0.3-0.9,0-2.2s0.3-2,0.4-2.9s-0.6-1.6-1.1-2.1c-0.4-0.5-0.5-1.8-1.5-1c-1.1,0.8-0.8,0.2-1.4,1c-0.6,0.8-1,0.6-1.3,1.4
		c-0.3,0.8-0.7,0.4-0.7,1.6c0,1.2,0,1.8,0,2.1s-1.2-0.2-1.2-0.2s-0.5,0.4-0.2,0.9c0.4,0.6,1.5,1.1,2.2,2c0.6,0.9,0.5,0.6,0.9,1.3
		c0.4,0.7,1,1.2,1.2,1.3c0.1,0.1,1.5,1,1.5,1s0.5,0,0.5,0.2c0.1,0.2,0.1,0.8,0.1,0.8s0.5,1.7,0.5,1.8c-0.1,0.1-0.1-0.3-0.1,0.7
		s-0.1,1.3-0.1,1.6c0,0.3-0.1,0.5,0.2,0.9s0.3,0.5,0.7,0.7c0.4,0.2,1.2,0.3,1.5,0.6c0.3,0.3,0.4,0.5,0.4,0.9c0,0.4-0.1,0.6,0.2,1.2
		c0.4,0.6,1,1.2,1,1.2s0.3,0.4,0.4,0.6c0.1,0.2,0.7,0.4,0.5,0.7c-0.1,0.3-0.2,1.1-0.3,1.3c-0.1,0.2-0.4,0.3-0.4,0.4s0,0.6,0,0.9
		s0.3,0.6,0.2,1.5c-0.1,0.9-0.4,1.5-0.5,1.5c-0.1,0.1-0.3,0.2-0.5,0.2c-0.2,0-1.1,0.1-1.7-0.1c-0.6-0.2-2.8-0.3-3.1-1.2
		s-0.3-0.8-0.8-1.9s-0.7-1.5-0.7-1.5s-0.9,2.2-0.7,2.5c0.2,0.4,0.3-0.1,0.3,0.7c0,0.8-0.1,0.5,0.2,1.5c0.3,1,0.9,3.1,0.9,3.1
		s-0.1-1.1-0.1,0.5c0,1.6-0.3,2.2-0.2,3c0.1,0.8,0.1,1.5,0.5,1.9c0.3,0.5,0.4,0.6,1,1.4c0.5,0.8,0.5,0.9,1,1.5s1.6,1.9,1.6,2
		c0,0.2,0.2,0.1,0.3,1.1c0,1,0,1.1,0.1,1.8c0.1,0.7,0,0.7,0.2,1.1c0.1,0.4,0.4,0.8,0.5,1c0.1,0.2,0.6,0.1,0.6,0.9
		c0,0.8-0.1,1.2-0.1,1.9c0,0.7-0.1,1.1-0.2,1.5c-0.1,0.4,1.1,1.5,1.1,1.5s-1,0.5-1.2,0.4c-0.2-0.2-0.9-0.5-1.3-0.9
		c-0.4-0.4-0.9-1-1.4-0.8c-0.4,0.1-0.1-0.5-0.7,0.2c-0.6,0.7-1,0.7-0.8,1.4c0.2,0.7-0.1,1.4,0.2,2.3c0.3,0.9,0.2,1.1,0.6,1.8
		c0.4,0.7,0.6,1,0.9,1.6c0.3,0.6,0.5,1.3,0.8,1.9c0.4,0.6,0.8,1.6,0.9,1.6c0.2,0,0.5,0.2,0.5,0.2L77.6,242.9z"/>
</g>
<g id="Layer_5">
	<path class="st1" d="M436.8,205.2h-3.6l1.5,1.9c0,0-1,2.4-0.7,2.6c0.3,0.2,7.1,5.3,7.1,5.3h13.5l-1.6-3.7l-0.5-1.9l1.3-1.8l3.4,0.1
		l0.5,1.7l1.9-1.2l4.2-3.4l2.6-1l-1.5-3l-2,0.9h-4l-1.7-0.6l2.5-2.2l1.6-3.3l0-4.5c0,0-1.2-4.1-1.4-4.4c-0.2-0.3-0.2-2-0.2-2
		l0.7-2.4l1.3,0.2l3.3,1.3l2.3-2.7l2.3-3l-2.8-1.5l1.1-1.4l3.1,1.6l2.5,1.7l3.9,0.1l-0.4-3.8l1.9-0.4l1.1,2.9l4,1.4l4.2,0.4v-2.4
		l1.7-1.1l-1.5-3c0,0-0.3-1.1-0.7-1.1s-4.4-0.2-4.5-0.2c-0.1,0-6.8-0.8-7.1-1c-0.2-0.1-1.7-0.5-1.7-0.5l0.5-3.7c0,0-2.5,0.3-3.1,0.5
		c-0.6,0.2-1.5,0.8-1.5,1c0.1,0.1,1.6,1.4,1.6,1.4l-3.3-1.4c0,0-3.5-1.9-3.7-2c-0.1,0-2.6-1.3-2.6-1.3l-0.7-2.9l-0.7-1.8l-3-0.9
		l-2.7-1.1l-2-1.2l-1.5-2l-0.3-1.3c0,0,2-1.3,2.3-1.4c0.3-0.1,1.8-1.5,1.8-1.5s-1.8-2.2-1.9-2.3c-0.1-0.1-0.4-1.5-0.5-1.7
		c0-0.2-0.6-2.8-0.6-2.8l1.1-1.9l1.7-0.7l2.4,0.7l2.5,0l1.3-1.2v-0.9c0,0-0.3-1.4-0.6-1.5c-0.3-0.1-0.6-0.5-1.3-0.7
		c-0.6-0.2-2.1-0.8-2.1-0.8s-0.9,0.2-1.1,0c-0.2-0.2-0.6-1.5-0.6-1.5l-0.8-1.1c0,0,0.7-0.2-0.8,0.5c-1.5,0.8-2.7,1.3-2.7,1.3
		l-2.2,0.5c0,0-1-0.3-1.2-0.7c-0.1-0.3-2.8-2.6-2.8-2.6l-0.8-2.2l1.8-2.5l2.8-1.6l-0.1-3l1.4-2.5l-3.8-3.8l4.7-6.5l-3.8-0.4
		c0,0-2.4,1.5-2.5,1.3c-0.1-0.1-1.5-3.6-1.5-3.6l4.3-2.6l-3.9-2.4l-2.5,0.8l0.1-5.9l3.1-1.2l-2.1-3.3l2.3-1.6l-0.9-0.6l-2.5,1.4
		l-3.3-0.7l-0.8,3.6l-2.4-0.2l-2.4-1.5l-2.5-2.1l-2.8,0l-1.5,0.1l-0.8,2.6l-1.1,0.3l0.9,1.9l-2.4,0.4l-0.5,1.4l0.6,1.7l-1.9,1.8
		l-3.1,1.6l-0.3,1.6l-4.3,1.9l-1.6-1.6l-0.9,3l-2,1.3l-0.3,2.8l-4.2-0.8l-2.6-3.5l-3.2,3.5c0,0-3.1-2.2-3.3-2.2s-3.2,0.5-3.3,0.2
		c0-0.2-2.1-2.7-2.1-2.7l-4.6,0.2l-2.7-0.7l-2.7,1.3c0,0-0.9,1-1.2,0.8c-0.3-0.2-4.4-2.2-4.5-2.2c-0.1,0-4.1-1-4.1-1l-4.2,0.9
		l-3.1,1.2l-2.1,1.5l-2.6-4.7l-4.7-0.4l-1.6-1c0,0-0.1-1-0.5-1.1c-0.4,0-4.5-0.5-4.7-0.5c-0.2,0-2.2-0.6-2.2-0.6l-1.4-3.6l-1.5-3.7
		l-3.8-3c0,0-2.8-1.3-2.9-1.4c-0.1,0-5.5,0-5.5,0l-3.9-1.5l-0.9,2.1l-3-0.8l-2.8-0.9l2.3-1.7v-3.3c0,0-1.8,1.5-2,1.3
		s-1.6-1.8-1.6-1.8s-2.2,3.1-2.2,2.8c0-0.3-1.2-3.3-1.2-3.3l-2.7-1.3l1.9-2.3l-1.2-0.8h-0.2l0.5-2.4l-2-1c0,0-0.2-1.8-0.5-1.8
		c-0.3,0-2.9-0.3-2.9-0.3l1.4-2.1l-1.8-1l-1.9-2.2c0,0,0.1-2.4,0-2.6c-0.1-0.2-2-1.3-2-1.3l0.5-0.8c0,0-2.2-0.1-2.3-0.2
		c-0.1-0.1-0.7-1.4-0.7-1.4l-2.4-1.3l-1.8-0.6l-1.8-1.2l-1.6-1.6l-2.6-0.4l-1.3-0.7l-0.3-1.1l-2.9-0.7l-1.9-1.5l-1.5-2l-1.4-1.6
		l-0.4-2.4l-0.2-2.1l-0.7-2.9l-1.4-1.2c0,0-0.6-1-1.2-1.2c-0.6-0.2-2-0.7-2.1-0.8c-0.1-0.1-1.6-1-1.6-1H270l-1.2-1.5l-1.6,0.2
		l-1.8-2l-1.5-2.6l-1.3-2.4l-1.4-1.2c0,0-3.1-0.9-3.2-1c-0.1,0-4-0.4-4-0.4h-2.4l-1.6-1.1c0,0-0.8-1.5-0.9-1.7s-1.5-1.6-1.6-1.7
		s-1.5-0.7-1.5-0.7l-2.2-0.4l-2.1-1.2l-1-1c0,0-1.1-1-1.4-0.9c-0.2,0.1-1.2,0.9-1.5,1.1c-0.3,0.2-1.5,0.5-1.5,0.5s0.4,0.1-0.2,0.5
		c-0.6,0.4-3.5,1.2-3.5,1.2l-1.8,0.9l-1.5,2.3l-1.2,1.5l1.4,3.2l0.9,3.1l2.5,3.3l0.2,1.4l-0.7,0.9l-2.7,0.2l-2-1.4l-2.1,1.1
		l-2.8,0.6L222,36l-1.9-1.4l-4.6,0.9l-2.1,1.2c0,0,0.3,2.7,0.5,2.9c0.1,0.2-0.5,2.2-0.5,2.2l-2.8,1.5l-0.4,2l-2.3,0.4l-1.9-0.1
		l-0.8,1l-2.7,1.5c0,0-5.6,1.1-5.8,1.3c-0.1,0.2-5.7,2.2-5.7,2.2l0.2,2.9l-1.3,2.5l-2.6-0.4l-3-1.1l-3.4,0l-1.4,1.3
		c0,0,0.2,2.1,0,2.3c-0.2,0.2-2.1,2.8-2.1,2.8l-2.1,2.5l0.6,3.5l1.5,3.2l8.6,5.9l-2.3,7.1l0,3.7l0.3,1.9v2.1l-1.9,1.5c0,0,0,2,0,2.2
		c0,0.2,0.2,1.6,0.4,2.1c0.2,0.4,1.4,2.5,1.4,2.5l-3,1.4l-2.5,1.7l-3.5-2.7l-1.5-0.3l-1,0.7l-1.5-0.7c0,0-1.8,2-1.5,2.2
		c0.2,0.1,0.8,1.2,0.6,1.2c-0.2,0-1.7-0.2-1.7-0.5s-0.2-1.3-0.2-1.3h-1.4l-0.8,1.1c0,0-1.5,1.3-1.3,1.5c0.1,0.2,0.5,1.4,0.5,1.4
		l-3,0.5l-4.3,1.1l-6,4.1l-3.6,3.1c0,0-0.6,0.8-0.4,1c0.1,0.1,1.5,0.8,1.5,0.8l-0.4,1.2l1.1-0.2l1.4,1.5l1.2,0.7l0.9-2l2.3-1.8
		l0.5,1.8l-1.2,2.7l3.3-1.4l0.7,3.6l0.3,2l-3,0l-1-0.3c0,0-1.5,0.5-1.6,0.6c-0.1,0-2.8,1-2.8,1l0.6,1.2l-1.3,1.4l-1.2,0.6
		c0,0,2.2,4,2.2,4.3s0.4,3.7,0.4,3.7s4.2,3.3,4.2,3.6c0,0.2,1.9,2.4,1.9,2.4s-3.8,3.4-4,3.4c-0.2,0-4.1-1.4-4.1-1.4
		s-3.5,0.5-3.6,0.9s-0.7,2.5-0.7,2.5s-1.4,0.7-1.5,0.7s-1.5-0.7-1.5-0.7s-1.1,1.2-1.2,1.3c-0.1,0-2.9-0.8-2.9-0.8l-3-2.7
		c0,0-1.3-1.1-1.3-1.3c0-0.2,0-1.9,0-1.9l-2.2-1.4l-0.7,0.1l-1,0.5l-1.5-0.1l-1.6-1l-2.5-0.2l-1.5-1.5l-2.2-1.9c0,0-0.8,3.1-0.8,3.5
		s-0.7,2.7-0.7,2.7l-3.9,1c0,0-3.6,0.9-3.6,0.5c0-0.4-1.6-3.8-1.6-3.8l-2.7-3l-2.8-0.7l-3.1,0l0.3-4.2l-1.6-2.7l-2.3-1.5
		c0,0-2.4-1.5-2.5-1.6c-0.1,0-1.5-1.6-1.5-1.6v-4.1l-1.8-0.9l-1.7,4.1l-2.1,2.2l-3.1,1.3l0.6,4l-1.3,3.9l-3.3,2.7l-8.9,4.7l-3-1.4
		l-2.4,0l-2.6-2.6c0,0-1.6,2-1.6,2.3c0,0.3-0.4,2.2-0.4,2.2l-4.8-0.6l-4.4-0.7l-3.9-1.5c0,0-2.8-2.3-2.9-2.3s-3-0.5-3-0.5l-0.3,2.9
		c0,0,0.8,2.5,0.8,2.7s-1.3,2.9-1.3,2.9l-4.2-0.8l-2.5,1.7l-2.2,0.8c0,0-3.7-1.2-3.7-1.4c0-0.2-2.4-3.4-2.4-3.4s-3.8,1.5-3.9,1.5
		c-0.1,0-5.3,1.9-5.3,1.9l-4.1-2.7l-5.7-2.4l-2.4-1.3L5.4,142l0.3,1.8l-0.1,3.4L5.4,150c0,0,0.9,1.9,1.2,2c0.3,0.1,1.1,4.6,1.1,4.6
		l0.8,3.8l3.4,2l-1.3,2L9,166.2c0,0,1.4,3,1.8,3.2c0.4,0.3,1.6,1.5,1.7,1.7c0.1,0.2,0.7,3.3,0.7,3.3l-0.6,3.3c0,0,1,2.4,1,2.7
		c0,0.3-0.2,1.1-0.2,1.1l-1.1,0.3l2.9,0.9L20,183l-6,0.8l-0.4,0.8l0,0.7c0,0,0.7,1.8,1.3,2.1c0.6,0.3,1,0.8,1,0.8l0.5,1.6l0,1.2
		c0,0,0.7,0.7,1.3,0.9c0.5,0.2,2,0.8,2,0.8s0.8,0.5,1,1.3s0.4,1.2,0.6,1.7c0.1,0.5,0.4,1.3,0.4,1.3s0.2,0.6,0.4,0.9
		c0.2,0.3,1,0.9,2,1.5s2.3,1.8,2.5,2.2c0.2,0.4,0.8,0.9,1,1.9s1.5,5.3,1.5,5.3s1.3,4.1,1.3,4.4c0,0.2,0.9,3,1,3.6
		c0.1,0.6,2.9,4.5,3.2,4.5c0.3-0.1,4.2-0.4,4-0.4c-0.1,0-1.1-2.4-1.1-2.4l2.5,1.9l2.8,0.9h1.7l-0.6-2.5c0,0-0.2-1.9-0.2-2.3
		s-0.2-2.7-0.2-2.7l0.6-1.6c0,0,2-1.9,2.3-2c0.3,0,1.6-1.4,1.6-1.4l0.7-2.8l1.2-2.5c0,0,1.1-1.5,0.9-1.6c-0.2-0.1-0.9-0.9-1.3-1.4
		s-0.9-1.1-0.9-1.5c0-0.4-0.4-1,0-1.5c0.3-0.5,1.2-1.1,1.2-1.1s0.4-0.3,1,0.7c0.6,1,1.3,2.5,1.3,2.5s-0.1,0.1,0.3,1
		c0.5,0.9,0.5,1.4,1.4,2s1.7,1.2,2.2,1.2c0.5,0,1.9,0.1,2,0c0.1-0.1,0.6-0.2,0.6-1.4c0-1.2,0-5.7,0-5.7s-0.5-1.4-0.4-2.2
		c0.1-0.8,0-2.4,0.1-3.3c0.2-0.9,0-1.9,0.6-2.5s1.4-1.2,1.4-1.2s1.5-1.6,1.8-2.4s0.4-2.4,0.6-2.9c0.2-0.5,2.9-2.7,2.9-2.9
		c0-0.2,0-2.8,0.1-3.3c0.1-0.5,1.1-5.4,1.1-5.4l1.6-4.9l2-5.3l2.6-2.7l5.2,1.1l1.5,1.5c0,0,5.5,2,5.7,2.1s2.8,1.3,2.8,1.3
		s1.9,0.8,2.2,1.1c0.3,0.3,3,3.7,3,3.8c0,0.1,1,2.6,1,2.8c0,0.2,1.2,1.9,1.6,2.4c0.4,0.4,3.8,2.7,3.9,2.9c0.1,0.2,3,3,3.2,3.1
		c0.1,0.1,4.2,2.9,4.4,3c0.2,0.1,4.9,2,4.9,2s2.3,2.2,2.4,2.4c0.1,0.2,1.4,3.6,1.4,3.9c0,0.3,0.2,2.6,0.2,2.9s0.1,3,0.6,4.1
		s1.7,2.7,1.9,3.2c0.2,0.5,1.5,2.1,1.9,3.2c0.4,1.1-0.3,3.1-0.5,3.4c-0.1,0.3-1.9,4.4-1.9,4.4l-0.8,4.8l-0.4,4.3
		c0,0,1.1,5.9,1.1,6.9s0,0.7,0.1,2.5c0.1,1.8,1.1,5.4,1.2,5.6c0.1,0.2,1.7,3.9,1.9,4.2c0.2,0.3,3.4,4.5,3.7,5s1.9,2.8,3,3.9
		c1.1,1.1,3,2.4,5,4.5s1.8,1.7,3.1,3.2c1.4,1.5,4.5,4.6,4.5,4.6s4.4,3.7,4.5,3.9s4.2,4,4.2,4l2.8,3.6c0,0,14.4,9,14.7,9.1
		c0.3,0.2,3.1,1.8,3.1,1.8l0.1,3.2c0,0,2.2,1.7,2.8,2.2c0.6,0.5,2.3,1.5,2.5,1.8c0.2,0.3,1.1,4.2,1.1,4.2s0.1,1-0.1,1
		c-0.2,0-3-3.8-3.4-3.8c-0.3,0-2.5,0.3-2.5,0.3l-2.7-1c0,0-2.1-2.5-2-2.8c0.1-0.2,3.6-1.9,3.7-2s-0.1-2.4-0.4-2.4
		c-0.3,0-3.5-0.8-3.5-0.8s-5.9-0.6-6-0.7c-0.1-0.1-2.7-1.5-2.9-1.6s-3.1-2.5-3.4-2.5c-0.2,0-3.1-1.7-3.3-1.8
		c-0.1-0.1-2.3-1.9-2.3-1.9l0.8,3.7c0,0,1.5,2.7,1.6,3.2c0,0.5-0.2,3.2-0.5,3c-0.3-0.2-2-2.9-2.3-3c-0.3-0.1-2.3-1.7-2.3-1.7
		s-1.2-0.3-1.3,0.6c0,0.9-1.2,3-1.2,3l-3.2-0.6l-1.7-1.3l-1.3,1l1.8,2l2,2.1v3.1l0.6,3.2l1.6,2.3l3,3.4l1.5,3.5c0,0,4.7,3.3,4.8,3.7
		s1,3.2,1,3.2s3.7,0.8,4.1,1.3c0.4,0.4,1.4,3,1.5,3.1c0,0.1,3.2,4.9,3.2,4.9l3.7,3.1l9.6,6.1l3.3,3.1l2.1,1.7c0,0-4.5-0.4-4.6-0.4
		s-2.4-0.2-2.4-0.2s-0.8,0.3-0.7,0.6s3.2,3.1,3.2,3.1s1.8,2.1,2,2.1c0.2,0,2.7,1.1,2.7,1.1l0.5-2.9c0,0,1,0.5,1.5,1
		c0.5,0.5,3,2.3,3,2.3l2.5,0.7l3.2,0.6l3.4,2.4l2.5,0.7c0,0,0.1-0.2,0.3-0.5c0.3-0.5,0.7-1.2,0.7-1.4c0-0.3-0.1-1.6-0.1-1.6
		s-0.5-1.6-0.5-1.8c0-0.1,0-1.3-0.2-1.5c-0.2-0.2-1.2-1.7-1.2-1.7V333l1.4,0.5l1.3,2c0,0,0.5,1.2,0.5,1.5c0,0.3-0.3,3.1-0.3,3.1
		l-0.6,2.3c0,0-1.6,3.6-1.5,3.6c0.1,0,1.2,0.9,1.3,0.9c0.1,0,3.7,3.6,3.7,3.6l4.3,3.1l-1.3,0.4l-3.2,1.3c0,0-0.7,2.4-0.4,2.8
		c0.3,0.3,1.4,4,1.5,4.2c0,0.1,3.3,4,3.4,4.2c0.1,0.1,0.5,1.5,0.5,1.5l2,1.5l3.7,3l5.2,0.3l3.7-1.1l0.9-0.7l-2.1-1.5
		c0,0,1-1.4,1.4-1.5c0.4,0,4.3-0.1,4.3-0.1l4.1-0.8l-0.2,2.1l-2.9,1l-1.6,0.7c0,0,0.8,0.5,1.5,0.4c0.8-0.1,5.5,0,5.5,0l4.2,0.1
		c0,0,0.4-1.2,0.2-1.2c-0.2,0-5.1-1.9-5.1-1.9s-1.4-1.7-1.1-1.7c0.2,0,2.2-0.9,2.2-0.9l1.8-0.9l3.4-1c0,0,2.7,0.9,3,1
		c0.2,0.1,2.3,0.6,2.5,1.1c0.2,0.5-0.6,3.2-0.6,3.2s-0.8,0.3,0.1,0.3c0.9,0,6.5-0.4,6.5-0.4s4,2.2,4.2,2.3c0.1,0.1,6.1,5.5,6.1,5.5
		l5.1-0.8l2.6,2.6c0,0,10.5,2.1,10.9,2.2c0.3,0,6.3,3.5,6.8,4c0.5,0.4,4.6,6.8,4.7,6.9s3.8,5.7,4,6c0.2,0.2,7.1,6.1,7.1,6.1l7,4.4
		c0,0,7.2,3.7,7.3,3.8c0.1,0.1,4.3,4.5,4.3,4.5l3.2,4.8c0,0,1,2,1.2,1.8c0.2-0.2,2.7-1.3,2.7-1.3l2.6,5.1l2.7,3.3l4.6,2.2
		c0,0,4.3-0.8,4.5-0.7c0.2,0,6.8-2.9,6.8-2.9l-1.5-4.1l-3.2-6.5l-3.6-3.6l-3.9-2.8c0,0-2.3-1.7-3.1-2.2c-0.9-0.5-4.5-2.4-4.5-2.4
		s-2.3-1.5-2.5-1.6c-0.2-0.1-1.2-0.9-1.2-0.9l-0.5-3.7l-0.7-2.4l-3.3-0.9l-2.7-0.8L316,393l-2.2-4.4c0,0-3.3-8.3-3.2-8.6
		c0.1-0.3,2.5-6.5,2.5-6.5l-4.5-3.7l-5.8-0.3l-2.9-2.2c0,0-3.7-3-4-3.1s-4.5-3.5-4.7-3.7c-0.2-0.2-3.4-3.3-3.4-3.3s-2.6-4-2.8-4.1
		c-0.1-0.1-2.9-4-2.9-4l-8.3-9.7c0,0-3.9,0.1-4.1-0.3c-0.2-0.4-3-4.6-3-4.9s-0.4-4.9-0.4-4.9l-3.2-1.8l-3.8-3.9l-2.5-3.3l-3.5-1.2
		l-1.6-3.2l-2.7-5.5l-4.2-0.5c0,0-1.3-0.3-0.9-1.2c0.4-0.8,0.3-3.3,0.2-3.4c-0.1-0.1-1.4-2.2-1.8-2.1s-2.6,0.6-2.6,0.6
		s-1.9-1.4-2-1.6c-0.1-0.2-1.3-1.5-1.5-1.6c-0.3-0.2-2.7-1.5-2.7-1.5s-0.4-2.7-0.6-3.1c-0.2-0.4-2.8-3.4-2.8-3.4l-3.6-2.8l-3.5-0.6
		l2.8-2.5l-0.8-2.5c0,0-2-3.9-1.7-4.3c0.3-0.4,1.6-4,1.8-4.4c0.1-0.4,1.5-2.1,1.1-2.5c-0.4-0.3-2.8-1.9-2.8-1.9l-2.2-1.1l-3-0.9
		l0.6-1.8l3.8,0.1l-1.9-3.2c0,0-1.3-1.4-1.2-1.8c0.1-0.5,0.5-3.9,0.5-3.9l-1-2.9l-1.8-1.9l-1.5-0.8l-3.1-1.3c0,0-1.4-1.2-1.7-1.8
		c-0.3-0.6-0.8-1.9-0.8-1.9l0.6-2.1l1.8-1.2l-0.2-3.6l-1-1.6c0,0-1.4-1.2-1.7-1.3c-0.3-0.1-3.5-1.7-3.5-1.7l-0.4-3.5
		c0,0-1-1.3-1.2-1.3s-2.4,0.2-2.4,0.2l-1.2-2.1l-1.3-1.5l-0.8,1.1l-2.4,0l-0.9,1.9h-1.1c0,0-6-7.7-6-7.8c0-0.1-1.8-4.6-1.8-4.6
		l3.7-1.5l0.5-1.4l-2.2-2.9l-1.3-3l-0.3-5.6l0.6-1.7l2.4-0.4l0.8-3.4l-2.5-4.5l-1-2.8l2.6-2.4c0,0-0.3-1.6-0.1-1.8
		c0.2-0.2,1.5-1.7,1.5-1.7l-0.2-3.2c0,0-1.5-2.7-1.5-2.9s1.1-2.7,1.1-2.7l2.7-2.8l1.8-1.3l2.9,0l2.5-0.7c0,0,0.5,0.1,0.6,0.2
		c0.1,0.1,0.5,1.7,0.5,1.7l3.4-1.3l3-0.8l1.6,1.8l0.7,3.5c0,0,1.8,2.9,1.9,3c0.1,0.1,2.9,2.2,2.9,2.2l0.5,3.6c0,0,4.5,3,4.7,3
		c0.2,0.1,2.4,1.8,2.3,2c0,0.1,0.8,3.8,1.3,4.2c0.5,0.4,3.2,1.8,3.4,1.6c0.2-0.1,2-0.7,2.3-0.5c0.3,0.2,2.4,1.5,2.6,1.5
		c0.2,0,3.7,0.2,3.9,0c0.1-0.2,1.3-2.7,1.5-3.1c0.2-0.5,0.3-1.9,0.6-2c0.3-0.1,1.8-3,1.8-3.2c0-0.1,0.4-2.5,0.4-2.8c0-0.3,0-2,0-2
		l5.2-3.1l1.9-2.6c0,0-0.6-1.9,0-2.2c0.6-0.3,1.4-3.7,1.4-3.7l7.6-0.9c0,0,4.3,2.1,4.5,2.2s4.2,1.1,4.2,1.1l4.8-0.4l4.2,1.7l3-0.7
		l-0.8-2.5c0,0,2.4,0.6,2.5,0.4s0.3-1.3,0.3-1.6c0-0.3,1-3.5,1-3.5l2,0.1l2.7-1.6c0,0,0.7,1.2,0.7,1.6s-0.4,1.9-0.4,1.9
		s-0.5,0.8,0,0.9c0.5,0.1,2.1,0.9,2.1,0.4s-0.1-1.4-0.1-1.7c0-0.3,0.6-2,0.7-1.6c0.1,0.4,0.7,2.7,0.7,2.7l0.6,1.3l1.1-1.5
		c0,0,0.4-0.8,0.9-0.3c0.4,0.4-0.2,3.3,0,3c0.3-0.2,1.4-1.3,1.8-0.9s1.7,2.5,1.7,2.5s4.8,3.3,5.4,3.6c0.5,0.2,4.9,2.5,5.7,2.4
		c0.7,0,3.9-0.5,3.9-0.5l2.1-3.6c0,0,2.5,1.3,2.7,1.3s6,4,6.2,4s2.5,0.5,2.8,0.2c0.3-0.2,2.7-2.9,2.7-2.9s0.4,3.9,0.6,3.7
		c0.2-0.2,3-1.1,3-0.9c0,0.1-0.7,2.7-0.7,2.7s2.8,0.7,3.1,0.6s2.6-2.3,2.6-2.3l0.8,2c0,0,2.7-0.3,2.9-0.3s2.2,0,2.3-0.1
		c0.1-0.1,3.6-1.6,3.6-1.6l2.9,1.7c0,0,11.2,8.3,11.6,8.3s4-1.6,4.4-1.8c0.3-0.2,2.9-2.6,2.9-2.9c0-0.3,0-2,0-2l0-0.9l2-0.9l1.3-2.2
		l1.9-1.6l2.5,0.5c0,0-0.3,1.9,0.2,1.8c0.5,0,2.3-1.6,3.1-1.2c0.8,0.4,1.9,1.5,1.9,1.5s-0.9,1.5-1,1.6c-0.1,0.1-0.6,0.6,0.1,1.1
		s3,2.4,3,2.4l4.4,0.3l2.7-0.7l0.7-4c0,0,1.6-1.5,1.8-1.6c0.2-0.1,1.5-0.8,2.3-0.3s1.5,0.9,1.5,0.9l0.2,1.1l1.8,0.8l0.8,2
		c0,0,6.9-1.2,7.1-1.1s5.4,3.6,5.4,3.6s0.2,0.9,0.6,1s3.4,0.3,3.7,0.3c0.2,0,1.3,0.3,1.4,0c0-0.3,0.3-0.9,0.1-1.2
		c-0.1-0.3-0.2-1.1-0.2-1.1l0.5-0.3c0,0,1.1,0.5,1.2,0.8s0.5,1.2,0.5,1.2l0.3-1.9c0,0,0.5-0.7,0.7-0.7c0.1,0,1.6,0.6,1.6,0.6
		l0.6,0.7l1.6-1.2c0,0,0.3,0.1,0.2,0.6c-0.1,0.4-0.7,0.8-0.6,1.2c0,0.4,0,1.3,0.3,1.4s0.8,0.4,1.1,0.4c0.3,0,2.2,0,2.2-0.1
		c0-0.1-0.5-2-0.5-2l0.5-1.5c0,0,0.7,0.4,0.9,0.8c0.1,0.4,0.6,1.6,0.6,1.6s-0.9,0.5-0.8,0.8c0.1,0.2,1.3,1.5,1.3,1.5
		s1.2,1.9,1.5,1.9c0.2,0,3.3,1.5,3.3,1.7s-1.4,1.5-1.1,1.9c0.3,0.5,3,1.4,3,1.4s1.8-0.7,1.8-0.3c0,0.3-0.3,2.8-0.3,2.8l0.4,1.5
		L436.8,205.2z"/>
	<path class="st1" d="M129,426.8"/>
</g>
</svg>
