<svg id="svg" version="1.1" xmlns="http://www.w3.org/2000/svg" xmlns:xlink="http://www.w3.org/1999/xlink" width="400" height="579" viewBox="0, 0, 400,579"><g id="svgg"><path id="path0" d="M358.000 2.272 C 358.000 3.588,359.988 4.630,360.607 3.638 C 361.134 2.795,361.124 2.770,360.167 2.530 C 359.708 2.415,359.333 2.098,359.333 1.827 C 359.333 1.555,359.033 1.333,358.667 1.333 C 358.158 1.333,358.000 1.556,358.000 2.272 M193.501 3.861 C 193.024 4.109,192.246 4.615,191.773 4.988 C 190.195 6.229,188.768 6.388,185.719 5.660 C 181.069 4.549,179.796 5.690,183.884 7.305 C 185.182 7.818,186.179 8.885,186.456 10.056 C 186.743 11.274,189.734 14.472,191.968 15.951 C 194.469 17.606,194.781 18.664,193.510 21.175 C 192.376 23.417,192.401 26.300,193.569 27.784 C 194.966 29.560,192.604 32.333,189.695 32.333 L 188.059 32.333 187.829 33.750 C 187.703 34.529,187.024 36.967,186.320 39.167 C 185.617 41.367,184.945 43.767,184.829 44.500 C 183.733 51.379,164.654 72.085,151.420 80.759 C 146.623 83.902,134.858 88.316,116.083 94.015 L 112.667 95.052 112.667 96.622 C 112.667 97.953,112.565 98.199,112.000 98.242 C 111.423 98.285,111.331 98.081,111.316 96.729 L 111.299 95.167 107.288 99.333 C 101.909 104.920,100.936 106.357,101.196 108.330 C 101.366 109.625,101.286 109.931,100.614 110.534 C 99.043 111.944,97.482 111.576,97.272 109.746 C 96.902 106.536,94.721 110.285,93.860 115.613 C 93.308 119.022,91.898 122.552,90.345 124.411 C 89.457 125.473,89.259 126.061,88.991 128.416 C 88.818 129.934,88.231 132.400,87.685 133.894 C 87.140 135.389,86.522 137.937,86.311 139.556 C 86.101 141.175,85.720 143.203,85.464 144.063 C 84.802 146.291,84.874 147.008,86.000 149.387 C 87.185 151.892,87.351 154.000,86.363 154.000 C 85.871 154.000,85.673 153.676,85.496 152.583 C 84.378 145.668,79.713 146.017,77.702 153.167 C 76.786 156.424,73.974 158.384,70.351 158.291 C 67.077 158.207,66.825 158.293,66.567 159.576 C 66.287 160.971,64.907 162.819,64.055 162.942 C 63.309 163.049,63.313 163.026,64.316 161.248 C 65.662 158.864,65.636 157.931,64.194 156.832 C 62.372 155.442,59.152 148.974,58.726 145.846 C 58.340 143.017,55.093 141.686,51.315 142.808 C 49.046 143.482,49.407 143.559,46.944 141.872 C 45.770 141.069,43.315 139.664,41.488 138.750 L 38.167 137.088 35.882 139.023 C 30.396 143.667,27.715 142.479,29.408 136.152 C 30.038 133.794,27.679 130.768,25.937 131.701 C 25.576 131.893,25.030 131.951,24.724 131.829 C 23.333 131.275,30.263 126.333,32.431 126.333 C 33.807 126.333,35.227 125.388,35.911 124.015 C 36.756 122.319,36.761 115.869,35.919 114.679 C 35.599 114.227,35.240 113.127,35.122 112.234 C 35.004 111.341,34.728 110.541,34.509 110.457 C 34.030 110.274,29.198 111.558,27.935 112.205 C 24.366 114.032,11.333 127.319,11.333 129.130 C 11.333 130.025,10.745 130.667,9.925 130.667 C 7.559 130.667,3.000 138.591,3.000 142.704 C 3.000 143.484,2.754 145.001,2.452 146.074 C 1.766 148.521,1.657 148.295,6.437 154.327 L 10.262 159.154 8.467 161.094 C 5.644 164.143,5.654 165.726,8.508 167.574 C 12.035 169.857,17.000 176.908,17.000 179.635 C 17.000 181.603,12.969 185.657,11.000 185.670 C 9.087 185.682,8.000 186.981,8.000 189.257 C 8.000 191.524,8.652 192.378,11.591 193.959 C 13.044 194.741,15.561 196.433,17.186 197.719 C 22.512 201.936,25.333 202.096,25.333 198.183 C 25.333 197.403,25.846 197.564,26.261 198.474 C 26.580 199.175,26.521 199.352,25.814 199.815 C 23.956 201.033,24.997 202.077,31.500 205.510 C 40.092 210.046,42.682 212.024,45.024 215.833 C 46.986 219.027,47.210 219.290,50.064 221.773 C 51.292 222.842,52.339 224.039,52.396 224.440 C 52.607 225.920,53.845 225.517,56.229 223.191 C 57.633 221.822,58.588 221.121,58.785 221.318 C 59.368 221.901,57.344 224.329,55.387 225.394 C 54.812 225.708,54.262 226.335,54.141 226.816 C 53.919 227.700,54.018 227.898,55.801 230.144 C 56.503 231.029,56.885 232.035,57.196 233.823 C 57.657 236.475,58.869 239.375,60.041 240.634 C 60.580 241.213,60.758 241.788,60.718 242.828 C 60.673 244.016,60.862 244.467,61.921 245.702 C 62.611 246.508,63.426 247.712,63.731 248.378 C 64.572 250.215,66.166 251.848,67.921 252.671 C 70.695 253.973,76.333 260.411,76.333 262.277 C 76.333 262.710,76.628 263.478,76.988 263.984 C 77.349 264.490,77.744 265.563,77.867 266.368 C 78.122 268.038,78.512 268.666,79.291 268.667 C 80.893 268.668,82.282 270.976,82.666 274.273 C 83.212 278.971,86.025 283.907,86.832 281.583 C 88.286 277.398,89.096 276.333,90.823 276.333 C 91.354 276.333,90.887 277.611,90.250 277.902 C 89.510 278.239,86.000 284.175,86.000 285.090 C 86.000 285.338,86.672 286.282,87.494 287.188 C 89.239 289.109,90.667 291.745,90.667 293.044 C 90.667 294.378,91.223 295.630,92.519 297.212 C 93.150 297.982,93.667 298.832,93.667 299.100 C 93.667 299.842,95.267 303.933,96.159 305.470 C 97.028 306.968,98.381 310.416,98.917 312.500 C 99.756 315.762,106.020 328.759,108.203 331.767 C 109.815 333.989,110.600 334.330,111.093 333.023 C 111.337 332.379,111.713 332.000,112.109 332.000 C 112.572 332.000,112.678 332.154,112.511 332.583 C 112.386 332.904,112.128 333.933,111.939 334.869 L 111.594 336.572 113.332 339.203 C 114.288 340.650,115.279 341.953,115.535 342.100 C 115.791 342.247,116.000 342.669,116.000 343.038 C 116.000 343.787,116.539 344.920,117.219 345.600 C 117.465 345.846,117.668 346.749,117.669 347.607 C 117.671 349.658,118.216 351.550,118.876 351.804 C 119.545 352.060,119.263 353.886,118.315 355.441 C 117.325 357.064,117.393 357.143,121.712 359.393 C 125.869 361.558,128.330 363.539,129.401 365.583 C 130.115 366.946,130.841 366.952,132.229 365.606 C 133.343 364.527,134.214 364.509,133.240 365.586 C 131.510 367.497,131.731 371.091,133.589 371.271 C 134.271 371.337,134.667 371.557,134.667 371.869 C 134.667 372.140,134.479 372.327,134.250 372.283 C 132.655 371.976,131.951 373.107,132.867 374.504 C 133.190 374.998,133.499 376.521,133.653 378.379 C 133.914 381.525,134.323 382.333,135.656 382.333 C 136.572 382.333,137.809 383.372,137.284 383.701 C 136.594 384.133,137.553 385.612,139.310 386.825 C 141.921 388.628,143.916 390.840,144.556 392.642 C 145.252 394.603,145.576 394.768,145.745 393.250 C 145.848 392.330,145.910 392.263,146.157 392.806 C 146.355 393.241,146.270 393.756,145.891 394.416 C 145.136 395.731,145.157 395.838,146.556 397.742 C 147.228 398.658,148.246 400.328,148.818 401.454 C 149.446 402.687,150.277 403.765,150.912 404.167 C 152.176 404.966,153.848 407.926,154.345 410.242 C 154.598 411.423,155.141 412.428,156.185 413.652 C 157.000 414.607,157.667 415.579,157.667 415.813 C 157.667 417.365,161.171 420.462,161.861 419.519 C 162.519 418.619,163.009 419.766,162.574 421.186 C 162.294 422.098,162.357 422.485,162.952 423.493 C 164.471 426.067,162.887 436.592,160.897 437.147 C 160.679 437.207,159.862 437.430,159.083 437.642 C 157.357 438.111,157.235 438.854,158.777 439.498 C 160.376 440.166,160.558 440.535,160.759 443.500 C 160.978 446.722,161.153 447.216,162.165 447.470 C 163.548 447.817,164.977 449.595,165.561 451.695 C 165.957 453.120,166.590 454.228,167.875 455.745 C 168.848 456.894,170.210 458.866,170.903 460.128 C 173.109 464.149,175.343 466.127,180.464 468.592 C 182.893 469.761,183.927 470.565,184.818 471.976 C 185.248 472.657,186.440 474.177,187.467 475.355 C 188.493 476.532,189.333 477.660,189.333 477.863 C 189.333 478.533,190.538 479.333,191.547 479.333 C 192.943 479.333,193.790 480.262,195.502 483.672 C 197.193 487.038,198.002 487.752,198.814 486.594 C 199.360 485.814,199.386 485.864,199.462 487.833 C 199.497 488.767,199.602 488.845,201.034 489.010 C 201.877 489.107,202.872 489.407,203.245 489.677 C 206.405 491.966,207.540 492.642,210.320 493.896 C 212.069 494.685,213.777 495.331,214.115 495.332 C 214.864 495.334,216.319 496.314,218.382 498.207 C 219.454 499.191,220.530 499.801,221.882 500.190 C 225.564 501.252,231.000 504.429,231.000 505.519 C 231.000 505.802,231.563 506.269,232.250 506.556 C 232.938 506.843,234.022 507.537,234.661 508.097 C 236.898 510.060,245.358 513.559,249.773 514.347 C 251.344 514.627,252.467 515.136,254.500 516.488 C 258.378 519.067,264.376 521.928,267.077 522.488 C 267.578 522.591,268.498 523.125,269.122 523.673 C 270.579 524.952,272.306 525.667,273.940 525.667 C 274.659 525.667,275.890 526.015,276.709 526.451 C 277.520 526.882,278.872 527.338,279.713 527.465 C 281.940 527.798,284.568 529.519,286.260 531.750 C 287.060 532.804,287.928 533.667,288.189 533.667 C 288.451 533.667,289.228 534.173,289.916 534.793 C 290.604 535.412,292.441 536.622,293.998 537.482 C 296.865 539.065,298.486 540.175,300.000 541.593 C 300.946 542.479,302.772 543.333,303.718 543.333 C 304.069 543.333,305.096 543.708,306.000 544.167 C 307.031 544.689,308.205 545.000,309.147 545.000 C 310.447 545.000,310.715 545.124,311.133 545.917 C 311.399 546.421,312.244 547.508,313.011 548.333 C 314.865 550.327,315.275 551.386,315.671 555.213 C 315.990 558.285,316.347 559.333,317.076 559.333 C 317.256 559.333,317.849 559.708,318.394 560.167 C 319.501 561.098,320.162 561.178,322.055 560.611 C 323.698 560.118,324.338 560.571,323.564 561.677 C 322.820 562.739,323.169 563.241,325.459 564.396 C 327.919 565.636,330.684 567.712,333.863 570.707 C 335.163 571.931,336.813 573.238,337.530 573.612 C 338.247 573.986,339.423 574.826,340.144 575.479 C 340.865 576.132,341.682 576.667,341.959 576.667 C 342.237 576.667,343.029 577.058,343.719 577.536 C 346.941 579.769,357.684 577.881,361.370 574.434 C 364.611 571.402,365.033 569.776,363.962 564.447 C 363.674 563.013,363.643 561.809,363.858 560.456 C 364.192 558.363,364.377 558.187,367.167 557.322 C 369.896 556.476,374.131 553.089,374.551 551.415 C 375.027 549.520,373.163 548.105,369.727 547.753 C 367.477 547.523,365.549 546.793,365.860 546.290 C 365.982 546.093,366.500 546.017,367.012 546.119 C 367.806 546.278,368.115 546.096,369.114 544.876 C 369.758 544.090,371.489 542.634,372.959 541.640 C 374.430 540.646,375.824 539.458,376.056 539.000 C 376.289 538.542,377.084 537.567,377.823 536.833 C 378.562 536.100,380.007 534.222,381.034 532.661 C 383.117 529.495,384.910 527.735,386.344 527.448 C 387.849 527.147,388.231 526.419,388.420 523.494 C 388.539 521.652,388.871 520.161,389.487 518.697 C 390.508 516.272,390.425 515.362,389.070 514.106 C 388.573 513.646,388.167 513.096,388.167 512.885 C 388.167 512.673,387.829 512.452,387.417 512.393 C 387.004 512.335,386.667 512.084,386.667 511.836 C 386.667 511.587,385.654 510.357,384.417 509.101 C 382.043 506.693,381.291 505.387,378.982 499.667 C 377.117 495.046,376.987 493.817,378.152 491.828 C 378.648 490.981,378.977 490.088,378.883 489.842 C 378.789 489.597,379.023 489.119,379.404 488.781 C 379.785 488.443,380.385 487.523,380.737 486.736 C 381.089 485.950,382.046 484.485,382.864 483.481 C 384.087 481.978,384.290 481.542,384.009 481.017 C 383.577 480.209,381.895 479.000,381.203 479.000 C 378.411 479.000,376.939 468.693,379.427 466.560 C 380.160 465.931,380.869 464.900,381.171 464.023 C 381.733 462.392,382.536 461.229,385.332 458.000 C 388.080 454.826,388.637 453.912,389.004 451.977 C 389.417 449.803,389.656 449.516,391.485 449.004 C 393.658 448.396,393.557 446.224,391.230 443.490 C 389.623 441.602,389.353 440.971,389.020 438.313 C 388.842 436.902,388.492 435.692,388.150 435.315 C 387.275 434.348,387.711 432.739,389.794 429.243 C 390.803 427.551,391.799 425.417,392.008 424.500 C 392.217 423.583,392.676 421.848,393.027 420.643 C 393.757 418.143,393.827 417.138,393.295 416.809 C 393.043 416.654,392.994 415.849,393.144 414.332 C 393.327 412.471,393.276 412.049,392.849 411.886 C 392.096 411.597,392.200 409.817,393.013 409.059 C 393.388 408.710,393.784 407.842,393.894 407.129 C 394.114 405.709,394.872 404.042,396.164 402.140 C 396.624 401.462,397.001 400.590,397.002 400.203 C 397.003 399.817,397.373 398.900,397.825 398.167 C 399.395 395.618,398.254 392.505,391.634 381.277 C 391.102 380.375,390.667 379.582,390.667 379.515 C 390.667 379.448,390.069 378.339,389.339 377.050 C 388.608 375.761,387.693 374.135,387.305 373.436 C 378.250 357.139,372.374 347.497,371.285 347.151 C 370.960 347.048,370.008 347.197,369.169 347.482 C 367.193 348.153,366.708 348.133,365.500 347.333 C 363.541 346.036,359.051 346.482,355.138 348.361 C 354.022 348.897,352.236 349.497,351.169 349.694 C 350.102 349.892,348.886 350.278,348.466 350.553 C 347.759 351.016,347.486 350.954,344.670 349.686 C 343.001 348.934,340.909 348.164,340.022 347.974 L 338.410 347.628 338.142 336.397 C 337.994 330.220,337.846 325.054,337.812 324.917 C 337.778 324.779,337.731 323.443,337.708 321.948 C 337.668 319.336,337.643 319.252,337.057 319.782 C 336.262 320.502,335.367 319.189,335.928 318.125 C 336.109 317.781,336.365 316.675,336.496 315.667 C 336.632 314.630,337.006 313.540,337.357 313.157 C 338.817 311.566,340.671 300.333,339.473 300.333 C 338.905 300.333,333.101 304.681,330.527 307.035 C 328.892 308.531,326.342 310.539,324.860 311.499 C 323.379 312.458,321.867 313.579,321.500 313.991 C 319.233 316.534,317.435 316.879,303.833 317.384 C 289.211 317.926,288.266 317.753,289.082 314.681 C 289.825 311.883,289.786 311.539,288.555 310.066 C 287.912 309.297,287.281 308.180,287.153 307.584 C 286.300 303.634,282.519 300.162,280.148 301.153 C 279.003 301.631,278.840 301.623,277.874 301.043 C 277.302 300.700,276.185 300.321,275.393 300.201 C 274.601 300.082,273.593 299.749,273.152 299.460 C 272.533 299.054,270.821 298.872,265.584 298.654 C 255.216 298.224,255.191 298.181,261.410 291.234 C 263.609 288.777,264.333 287.737,264.333 287.036 C 264.333 285.700,262.960 283.291,261.847 282.674 C 261.248 282.342,260.323 281.116,259.352 279.367 C 258.192 277.278,257.518 276.438,256.638 275.987 C 255.129 275.213,252.760 272.639,252.104 271.063 C 251.823 270.387,250.340 268.532,248.809 266.941 C 247.278 265.351,245.954 263.701,245.867 263.275 C 245.380 260.895,245.241 260.455,244.826 259.995 C 244.576 259.717,244.207 258.757,244.006 257.862 C 243.612 256.102,242.921 254.951,240.939 252.757 C 239.583 251.256,239.396 250.347,240.167 249.000 C 240.948 247.633,240.810 246.108,239.885 245.876 C 238.075 245.422,229.956 237.425,229.419 235.569 L 229.053 234.304 230.361 235.485 C 231.983 236.951,232.205 236.953,232.809 235.507 C 233.362 234.182,234.537 233.378,237.786 232.099 C 240.638 230.977,240.649 230.940,239.135 227.835 L 237.888 225.278 238.443 223.722 C 238.748 222.867,239.095 221.417,239.213 220.500 C 239.861 215.479,244.748 211.484,254.920 207.658 C 256.417 207.095,259.333 204.254,259.333 203.359 C 259.333 202.419,258.240 200.300,257.047 198.926 C 255.080 196.661,254.791 194.248,256.050 190.585 C 256.806 188.383,258.777 185.000,259.304 185.000 C 259.793 185.000,262.510 180.711,263.420 178.500 C 264.406 176.108,264.488 175.775,265.338 170.805 C 266.035 166.727,266.878 164.362,268.100 163.059 C 269.081 162.011,272.715 160.000,273.626 160.000 C 274.059 160.000,274.992 159.343,275.927 158.380 C 276.792 157.489,278.121 156.445,278.881 156.059 C 280.297 155.338,281.937 153.844,283.233 152.092 C 283.756 151.387,284.620 150.885,286.233 150.351 C 289.262 149.347,292.995 147.327,295.599 145.280 C 297.957 143.427,300.058 142.352,301.342 142.341 C 301.806 142.337,302.481 142.131,302.842 141.883 C 303.848 141.194,304.883 141.027,309.540 140.800 C 312.705 140.646,314.228 140.420,315.333 139.940 C 316.158 139.582,319.083 138.914,321.833 138.455 C 327.709 137.475,328.170 137.289,329.445 135.390 C 331.687 132.049,334.334 131.153,341.166 131.424 C 346.353 131.629,350.282 132.814,350.323 134.186 C 350.354 135.220,351.316 135.784,353.499 136.047 C 354.744 136.196,356.110 136.547,356.536 136.826 C 358.918 138.387,359.310 135.991,357.161 133.000 C 356.569 132.175,355.780 130.900,355.410 130.167 C 354.652 128.669,347.972 122.000,347.228 122.000 C 346.964 122.000,346.210 122.225,345.551 122.500 C 344.043 123.130,339.309 123.140,337.561 122.517 C 334.530 121.436,334.180 119.741,336.466 117.220 C 337.270 116.333,338.014 115.208,338.118 114.720 C 338.222 114.232,338.840 113.279,339.491 112.601 C 340.142 111.923,340.955 110.723,341.297 109.934 C 341.640 109.145,342.331 108.125,342.833 107.667 C 343.336 107.208,344.016 106.215,344.344 105.459 C 344.672 104.703,345.479 103.378,346.137 102.516 C 346.796 101.653,348.238 99.175,349.342 97.009 C 350.447 94.842,351.816 92.492,352.385 91.785 C 355.300 88.165,356.443 82.882,353.767 85.396 L 352.990 86.126 351.745 84.916 C 350.397 83.606,349.136 83.003,347.728 82.995 C 346.203 82.986,345.885 82.569,346.657 81.588 C 347.618 80.366,347.577 80.333,345.101 80.333 C 343.231 80.333,342.663 80.191,341.597 79.452 C 340.451 78.657,340.268 78.620,339.746 79.072 C 338.076 80.516,336.810 79.937,336.494 77.584 C 336.208 75.458,335.875 75.000,334.615 75.000 C 334.064 75.000,333.564 74.786,333.455 74.504 C 332.990 73.292,328.500 73.109,326.722 74.229 C 326.032 74.663,325.878 74.659,325.362 74.193 C 324.396 73.319,323.180 73.572,321.334 75.031 L 319.608 76.395 318.866 75.697 C 317.486 74.401,315.333 75.296,315.333 77.167 C 315.333 78.334,314.821 78.209,313.294 76.667 C 311.781 75.139,311.286 75.032,310.573 76.083 L 310.064 76.833 309.699 75.895 C 309.498 75.379,309.331 74.479,309.328 73.895 C 309.321 72.486,309.044 72.130,307.735 71.845 C 307.131 71.714,306.345 71.293,305.988 70.910 L 305.338 70.213 304.498 71.002 C 303.850 71.611,303.567 71.701,303.262 71.396 C 302.484 70.618,301.597 71.033,299.208 73.295 C 295.771 76.547,293.804 77.375,293.208 75.821 C 292.877 74.959,292.354 75.296,291.628 76.841 C 290.617 78.992,289.444 79.870,288.602 79.108 C 288.011 78.573,287.916 78.573,287.018 79.103 C 285.692 79.886,282.858 79.858,282.053 79.053 C 281.686 78.686,280.712 78.354,279.636 78.229 C 278.354 78.080,277.701 77.824,277.376 77.343 C 276.687 76.324,274.419 76.597,273.577 77.800 C 273.406 78.043,273.089 77.892,272.637 77.352 C 272.005 76.597,271.878 76.569,270.894 76.973 C 267.425 78.397,265.707 78.484,264.570 77.292 C 264.242 76.948,263.557 76.667,263.047 76.667 C 262.474 76.667,261.844 76.349,261.396 75.833 C 260.997 75.375,260.325 75.000,259.902 75.000 C 258.931 75.000,258.333 74.412,258.333 73.457 C 258.333 72.714,257.687 71.840,256.958 71.597 C 256.360 71.398,257.233 69.100,258.577 67.336 C 259.707 65.852,259.711 65.833,259.025 65.378 C 258.194 64.826,258.118 63.456,258.859 62.398 C 260.312 60.323,255.413 56.468,253.436 58.131 C 252.512 58.909,252.444 58.920,252.082 58.341 C 251.869 58.000,251.104 57.630,250.346 57.502 C 249.523 57.363,248.858 57.024,248.651 56.637 C 248.463 56.286,248.005 56.000,247.633 56.000 C 245.701 56.000,244.955 53.967,246.344 52.488 C 247.320 51.450,247.338 48.864,246.376 47.968 C 245.986 47.605,245.667 46.946,245.667 46.504 C 245.667 46.062,245.292 45.296,244.833 44.802 C 244.375 44.307,243.998 43.587,243.995 43.201 C 243.984 41.667,242.562 40.840,240.475 41.153 C 238.715 41.417,238.143 41.141,235.500 38.756 C 234.400 37.763,233.085 36.868,232.577 36.766 C 231.818 36.614,231.590 36.323,231.288 35.124 C 230.870 33.464,230.045 33.180,229.189 34.402 C 228.698 35.103,228.654 35.109,228.232 34.533 C 227.955 34.155,226.995 33.787,225.659 33.548 C 223.618 33.183,223.518 33.119,223.301 32.059 C 223.176 31.450,222.743 30.643,222.338 30.266 C 221.516 29.501,221.593 28.003,222.504 26.996 C 223.291 26.126,223.094 25.767,221.706 25.545 C 220.295 25.319,220.013 24.836,220.005 22.635 C 220.002 21.898,219.763 21.222,219.384 20.880 C 219.046 20.573,218.593 19.736,218.379 19.020 C 218.067 17.980,217.789 17.673,217.000 17.500 C 216.456 17.381,215.033 16.396,213.836 15.311 C 212.639 14.227,211.144 13.124,210.513 12.860 C 209.693 12.518,209.067 11.851,208.317 10.522 C 207.032 8.246,206.647 8.016,204.497 8.238 C 202.882 8.404,202.722 8.346,201.220 7.047 C 197.962 4.226,195.085 3.039,193.501 3.861 M1.556 457.556 C 1.213 457.898,1.292 462.935,1.644 463.152 C 2.114 463.443,2.360 462.833,2.477 461.084 C 2.659 458.365,2.263 456.848,1.556 457.556 M361.182 484.949 C 360.655 485.465,360.647 485.439,361.047 484.546 C 361.282 484.021,361.535 483.773,361.609 483.995 C 361.683 484.217,361.491 484.647,361.182 484.949 " stroke="none" fill="#ececec" fill-rule="evenodd"></path><path id="path1" d="M70.333 254.438 C 70.333 254.495,70.821 254.983,71.417 255.521 L 72.500 256.500 71.521 255.417 C 70.608 254.407,70.333 254.180,70.333 254.438 " stroke="none" fill="#f0ecec" fill-rule="evenodd"></path><path id="path2" d="M70.333 254.438 C 70.333 254.495,70.821 254.983,71.417 255.521 L 72.500 256.500 71.521 255.417 C 70.608 254.407,70.333 254.180,70.333 254.438 " stroke="none" fill="#f0ecec" fill-rule="evenodd"></path><path id="path3" d="M70.333 254.438 C 70.333 254.495,70.821 254.983,71.417 255.521 L 72.500 256.500 71.521 255.417 C 70.608 254.407,70.333 254.180,70.333 254.438 " stroke="none" fill="#f0ecec" fill-rule="evenodd"></path><path id="path4" d="M70.333 254.438 C 70.333 254.495,70.821 254.983,71.417 255.521 L 72.500 256.500 71.521 255.417 C 70.608 254.407,70.333 254.180,70.333 254.438 " stroke="none" fill="#f0ecec" fill-rule="evenodd"></path></g></svg>