<svg id="svg" version="1.1" xmlns="http://www.w3.org/2000/svg" xmlns:xlink="http://www.w3.org/1999/xlink" width="400" height="500" viewBox="0, 0, 400,500"><g id="svgg"><path id="path0" d="M357.818 33.724 C 357.173 34.583,356.482 34.765,353.318 34.911 C 353.052 34.923,352.928 35.083,353.041 35.267 C 353.155 35.450,352.954 35.600,352.595 35.600 C 351.832 35.600,350.725 36.592,351.086 36.952 C 351.222 37.089,351.123 37.200,350.867 37.200 C 350.610 37.200,350.400 37.650,350.400 38.200 C 350.400 38.750,350.226 39.200,350.013 39.200 C 349.799 39.200,349.715 39.436,349.826 39.723 C 349.936 40.011,349.664 40.664,349.222 41.175 C 348.779 41.686,348.531 42.288,348.670 42.513 C 348.816 42.749,348.727 42.802,348.462 42.638 C 348.185 42.467,348.000 42.613,348.000 43.000 C 348.000 43.356,347.820 43.536,347.600 43.400 C 347.380 43.264,347.200 43.343,347.200 43.576 C 347.200 43.809,346.750 44.000,346.200 44.000 C 345.650 44.000,345.200 44.180,345.200 44.400 C 345.200 44.620,344.930 44.800,344.600 44.800 C 344.270 44.800,344.000 44.980,344.000 45.200 C 344.000 45.420,343.634 45.600,343.187 45.600 C 342.741 45.600,342.276 45.859,342.154 46.175 C 342.033 46.491,341.697 46.659,341.407 46.547 C 341.118 46.436,340.762 46.538,340.617 46.773 C 340.472 47.008,339.823 47.200,339.176 47.200 C 338.529 47.200,338.000 47.380,338.000 47.600 C 338.000 47.820,337.655 48.000,337.233 48.000 C 336.812 48.000,336.400 48.200,336.318 48.445 C 336.225 48.726,335.033 48.873,333.085 48.844 C 331.257 48.816,330.000 48.961,330.000 49.199 C 330.000 49.419,329.719 49.600,329.376 49.600 C 329.033 49.600,328.854 49.763,328.977 49.963 C 329.347 50.562,324.784 50.666,323.945 50.077 C 323.329 49.645,323.064 49.650,322.414 50.106 C 321.981 50.409,320.991 50.606,320.214 50.545 C 319.436 50.484,318.800 50.606,318.800 50.817 C 318.800 51.028,318.483 51.200,318.095 51.200 C 317.707 51.200,317.212 51.579,316.995 52.041 C 316.778 52.504,316.060 53.179,315.400 53.541 C 314.740 53.904,314.140 54.335,314.067 54.500 C 313.993 54.665,312.913 54.806,311.667 54.813 C 310.366 54.820,309.086 55.063,308.664 55.383 C 308.260 55.689,307.580 55.873,307.154 55.791 C 306.727 55.709,306.484 55.812,306.613 56.021 C 306.743 56.232,306.231 56.400,305.457 56.400 C 304.692 56.400,303.976 56.625,303.865 56.900 C 303.716 57.269,303.655 57.256,303.632 56.851 C 303.607 56.421,303.476 56.405,303.029 56.776 C 302.715 57.036,301.723 57.259,300.824 57.272 C 299.925 57.284,299.091 57.453,298.971 57.647 C 298.669 58.135,296.400 58.093,296.400 57.600 C 296.400 57.380,295.950 57.200,295.400 57.200 C 294.850 57.200,294.400 57.020,294.400 56.800 C 294.400 56.580,293.875 56.400,293.233 56.400 C 292.592 56.400,291.997 56.190,291.911 55.933 C 291.716 55.347,283.632 55.408,283.040 56.000 C 282.820 56.220,281.776 56.400,280.720 56.400 C 279.664 56.400,278.800 56.580,278.800 56.800 C 278.800 57.020,278.480 57.200,278.088 57.200 C 277.697 57.200,277.117 57.560,276.800 58.000 C 276.456 58.477,275.765 58.800,275.088 58.800 C 274.433 58.800,274.057 58.969,274.200 59.200 C 274.336 59.420,274.248 59.600,274.005 59.600 C 273.761 59.600,273.165 60.022,272.681 60.539 C 271.966 61.300,271.441 61.461,269.900 61.394 C 268.615 61.337,268.000 61.470,268.000 61.803 C 268.000 62.175,267.532 62.209,266.102 61.942 C 265.058 61.747,264.156 61.731,264.098 61.907 C 264.039 62.082,262.716 62.154,261.158 62.066 C 259.393 61.966,257.980 62.089,257.412 62.394 C 256.381 62.945,255.615 62.659,253.200 60.816 C 251.754 59.714,248.824 59.200,247.880 59.883 C 247.616 60.074,246.899 60.282,246.287 60.345 C 245.675 60.409,244.698 60.708,244.116 61.010 C 243.534 61.312,242.909 61.468,242.729 61.356 C 242.548 61.244,242.400 61.304,242.400 61.489 C 242.400 61.839,240.031 62.946,239.489 62.848 C 239.318 62.818,239.073 63.064,238.946 63.396 C 238.819 63.728,238.389 64.000,237.991 64.000 C 237.571 64.000,237.044 64.505,236.736 65.200 C 236.444 65.860,235.968 66.400,235.679 66.400 C 235.389 66.400,235.240 66.542,235.348 66.715 C 235.455 66.888,235.074 67.069,234.501 67.116 C 233.929 67.164,233.177 67.451,232.830 67.754 C 232.484 68.057,231.795 68.429,231.300 68.580 C 230.805 68.730,230.400 69.095,230.400 69.390 C 230.400 69.741,230.104 69.848,229.537 69.700 C 229.045 69.571,228.775 69.636,228.909 69.852 C 229.037 70.060,228.570 70.482,227.871 70.791 C 226.502 71.394,225.600 72.142,225.600 72.675 C 225.600 72.858,225.015 73.006,224.300 73.004 C 223.472 73.001,223.036 73.181,223.100 73.500 C 223.155 73.775,222.930 74.000,222.600 74.000 C 222.270 74.000,222.000 74.180,222.000 74.400 C 222.000 74.620,221.100 74.800,220.000 74.800 C 218.900 74.800,218.000 74.980,218.000 75.200 C 218.000 75.420,217.561 75.600,217.024 75.600 C 216.487 75.600,215.936 75.780,215.800 76.000 C 215.664 76.220,214.633 76.400,213.510 76.400 C 212.386 76.400,211.578 76.289,211.714 76.152 C 212.024 75.842,211.015 74.800,210.405 74.800 C 210.156 74.800,210.064 74.620,210.200 74.400 C 210.336 74.180,210.154 74.000,209.795 74.000 C 209.436 74.000,208.858 73.715,208.510 73.367 C 207.840 72.697,205.135 72.895,204.867 73.633 C 204.793 73.835,204.018 74.000,203.143 74.000 C 202.031 74.000,201.640 73.859,201.842 73.532 C 202.036 73.217,201.913 73.148,201.466 73.319 C 201.100 73.460,200.800 73.406,200.800 73.200 C 200.800 72.994,200.504 72.939,200.142 73.078 C 199.776 73.218,199.288 73.077,199.042 72.760 C 198.481 72.036,196.447 71.124,196.004 71.397 C 195.819 71.512,195.604 71.412,195.526 71.177 C 195.174 70.122,192.229 70.280,191.095 71.415 C 190.493 72.017,190.000 72.367,190.000 72.193 C 190.000 72.018,189.651 72.192,189.225 72.577 C 188.799 72.963,188.278 73.172,188.067 73.041 C 187.856 72.911,187.581 73.074,187.454 73.402 C 187.328 73.731,186.948 74.000,186.609 74.000 C 186.270 74.000,185.428 74.540,184.737 75.200 C 184.046 75.860,183.159 76.400,182.764 76.400 C 182.370 76.400,181.936 76.580,181.800 76.800 C 181.664 77.020,180.528 77.206,179.276 77.213 C 176.829 77.226,175.604 77.836,175.594 79.044 C 175.589 79.679,175.525 79.704,175.200 79.200 C 174.914 78.757,174.811 78.738,174.806 79.129 C 174.803 79.419,174.530 79.927,174.200 80.257 C 173.870 80.587,173.600 80.757,173.600 80.635 C 173.600 80.513,172.971 80.767,172.203 81.199 C 171.434 81.630,170.338 82.068,169.768 82.172 C 168.512 82.399,167.526 83.156,167.834 83.655 C 167.958 83.856,167.911 83.994,167.730 83.963 C 166.445 83.739,165.600 84.072,165.600 84.800 C 165.600 85.559,165.333 85.600,160.424 85.600 C 157.404 85.600,155.144 85.767,155.000 86.000 C 154.864 86.220,153.673 86.400,152.353 86.400 C 151.033 86.400,150.041 86.257,150.149 86.083 C 150.452 85.592,147.972 85.526,147.389 86.009 C 147.029 86.308,146.792 86.311,146.612 86.019 C 146.469 85.789,146.024 85.600,145.622 85.600 C 144.496 85.600,143.078 84.735,141.221 82.914 C 140.238 81.950,139.289 81.345,138.959 81.471 C 138.548 81.629,138.467 81.492,138.665 80.975 C 138.879 80.416,138.790 80.318,138.253 80.524 C 137.769 80.710,137.038 80.259,135.773 78.994 C 134.786 78.007,133.786 77.200,133.550 77.200 C 133.314 77.200,132.617 76.660,132.000 76.000 C 131.383 75.340,130.737 74.800,130.563 74.800 C 130.389 74.800,129.527 74.035,128.648 73.100 C 127.769 72.165,127.204 71.670,127.393 72.000 C 127.609 72.376,127.413 72.315,126.869 71.838 C 126.391 71.419,126.000 70.879,126.000 70.638 C 125.999 69.996,124.164 67.969,123.860 68.274 C 123.717 68.417,123.600 68.233,123.600 67.867 C 123.600 67.500,123.420 67.200,123.200 67.200 C 122.980 67.200,122.800 66.919,122.800 66.576 C 122.800 66.233,122.620 66.064,122.400 66.200 C 122.180 66.336,122.000 66.077,122.000 65.624 C 122.000 65.171,121.820 64.800,121.600 64.800 C 121.380 64.800,121.200 64.564,121.200 64.275 C 121.200 63.987,120.827 63.351,120.371 62.861 C 119.915 62.372,119.484 61.483,119.412 60.886 C 119.341 60.289,119.068 59.850,118.807 59.911 C 118.545 59.973,118.236 59.660,118.120 59.216 C 118.004 58.772,117.786 58.485,117.635 58.579 C 117.484 58.672,117.316 58.100,117.263 57.309 C 117.210 56.517,117.073 55.718,116.959 55.534 C 116.846 55.350,117.033 55.200,117.376 55.200 C 117.719 55.200,118.000 55.039,118.000 54.843 C 118.000 54.396,117.003 54.000,115.878 54.000 L 115.022 54.000 115.911 53.377 C 116.813 52.746,117.130 51.600,116.402 51.600 C 116.170 51.600,116.099 51.003,116.232 50.165 C 116.429 48.928,116.359 48.749,115.730 48.869 C 115.329 48.946,114.942 49.414,114.871 49.910 C 114.791 50.477,114.568 50.707,114.271 50.529 C 113.936 50.328,113.941 50.421,114.290 50.853 C 114.676 51.329,114.677 51.563,114.294 51.946 C 113.911 52.329,113.934 52.514,114.403 52.811 C 114.862 53.100,114.745 53.189,113.900 53.194 C 112.882 53.200,112.800 53.080,112.800 51.600 C 112.800 50.720,112.755 49.989,112.700 49.975 C 110.908 49.529,109.053 49.649,108.622 50.237 C 108.347 50.614,107.951 50.817,107.744 50.689 C 107.536 50.560,107.339 50.818,107.305 51.261 C 107.272 51.705,106.875 52.388,106.422 52.781 C 105.970 53.173,105.600 53.788,105.600 54.147 C 105.600 54.506,105.420 54.800,105.200 54.800 C 104.980 54.800,104.800 55.070,104.800 55.400 C 104.800 55.730,104.620 56.000,104.400 56.000 C 104.180 56.000,104.000 56.255,104.000 56.567 C 104.000 56.878,103.833 57.193,103.630 57.267 C 103.426 57.340,103.201 57.669,103.130 57.999 C 103.058 58.328,102.730 58.836,102.400 59.128 C 101.867 59.600,101.867 59.631,102.400 59.400 C 102.756 59.246,102.702 59.383,102.270 59.737 C 101.868 60.065,101.502 60.573,101.457 60.866 C 101.382 61.358,100.537 62.513,99.300 63.816 C 99.025 64.106,98.800 64.626,98.800 64.971 C 98.800 65.317,98.601 65.600,98.357 65.600 C 98.114 65.600,98.021 65.877,98.150 66.215 C 98.285 66.565,98.131 66.928,97.793 67.058 C 97.467 67.183,97.200 67.444,97.200 67.638 C 97.200 67.972,96.402 69.055,95.300 70.216 C 95.025 70.506,94.800 71.043,94.800 71.409 C 94.800 71.775,94.440 72.169,94.000 72.284 C 93.560 72.399,93.200 72.644,93.200 72.828 C 93.200 73.013,92.795 73.585,92.300 74.100 C 91.805 74.615,91.344 75.287,91.275 75.593 C 91.206 75.899,90.794 76.458,90.359 76.836 C 89.779 77.339,89.705 77.578,90.084 77.730 C 90.368 77.844,90.223 77.951,89.762 77.968 C 88.592 78.012,88.348 82.254,89.490 82.686 C 90.298 82.992,91.417 84.000,90.949 84.000 C 90.779 84.000,90.842 84.202,91.089 84.449 C 91.336 84.696,91.442 85.146,91.326 85.449 C 91.201 85.773,91.374 86.000,91.745 86.000 C 92.096 86.000,92.287 86.229,92.176 86.518 C 92.067 86.803,92.245 87.793,92.571 88.718 C 92.897 89.643,93.037 90.405,92.882 90.412 C 92.727 90.419,92.915 90.608,93.300 90.832 C 93.685 91.056,94.000 91.506,94.000 91.830 C 94.000 92.433,96.475 95.080,98.554 96.700 C 99.189 97.195,99.566 97.600,99.392 97.600 C 99.218 97.600,99.379 97.935,99.750 98.345 C 100.121 98.755,100.505 99.507,100.603 100.016 C 100.701 100.525,100.981 101.065,101.225 101.215 C 101.469 101.366,101.627 101.559,101.575 101.645 C 101.366 101.996,102.084 103.600,102.451 103.600 C 102.669 103.600,102.736 103.780,102.600 104.000 C 102.453 104.239,102.939 104.400,103.805 104.400 C 104.604 104.400,105.508 104.625,105.815 104.900 C 107.203 106.145,107.604 106.410,107.653 106.116 C 107.727 105.682,108.392 109.377,108.659 111.700 C 108.834 113.225,109.028 113.600,109.639 113.600 C 110.057 113.600,110.400 113.780,110.400 114.000 C 110.400 114.220,110.580 114.400,110.800 114.400 C 111.468 114.400,112.668 115.819,112.950 116.942 C 113.096 117.524,113.392 118.000,113.608 118.000 C 113.823 118.000,114.000 118.278,114.000 118.618 C 114.000 118.958,114.450 119.686,115.000 120.236 C 115.550 120.786,116.000 121.041,116.000 120.803 C 116.000 120.564,116.394 120.736,116.875 121.184 C 117.513 121.779,118.291 122.000,119.742 122.000 C 120.837 122.000,121.624 122.109,121.491 122.242 C 121.215 122.518,122.979 124.400,123.514 124.400 C 123.707 124.400,124.104 124.847,124.396 125.393 C 124.689 125.940,125.259 126.492,125.664 126.620 C 126.069 126.749,126.400 127.009,126.400 127.198 C 126.400 127.773,129.865 131.200,130.452 131.206 C 130.881 131.211,130.870 131.296,130.400 131.600 C 129.904 131.920,129.941 131.989,130.612 131.994 C 131.129 131.998,131.577 132.402,131.842 133.107 C 132.149 133.919,132.566 134.239,133.408 134.309 C 134.039 134.361,134.672 134.592,134.814 134.822 C 134.956 135.053,135.596 135.309,136.236 135.393 C 136.876 135.477,137.490 135.579,137.600 135.620 C 137.710 135.661,137.935 135.673,138.100 135.647 C 138.265 135.621,138.400 135.799,138.400 136.043 C 138.400 136.286,138.670 136.382,139.000 136.255 C 139.330 136.129,139.600 136.210,139.600 136.436 C 139.600 136.662,139.780 136.736,140.000 136.600 C 140.220 136.464,140.400 136.543,140.400 136.776 C 140.400 137.009,140.910 137.200,141.533 137.200 C 142.157 137.200,142.793 137.327,142.948 137.482 C 143.103 137.637,143.718 137.828,144.315 137.906 C 144.912 137.985,145.460 138.218,145.533 138.425 C 145.607 138.631,146.091 138.800,146.610 138.800 C 147.128 138.800,147.654 138.964,147.778 139.165 C 147.902 139.365,148.463 139.479,149.026 139.417 C 149.588 139.355,150.262 139.513,150.524 139.767 C 151.143 140.368,153.983 141.200,155.413 141.200 C 156.029 141.200,156.410 141.323,156.260 141.473 C 155.932 141.801,158.180 142.800,159.246 142.800 C 159.661 142.800,160.000 142.980,160.000 143.200 C 160.000 143.420,160.540 143.600,161.200 143.600 C 161.860 143.600,162.400 143.780,162.400 144.000 C 162.400 144.220,162.900 144.400,163.511 144.400 C 164.122 144.400,165.007 144.670,165.478 145.000 C 165.950 145.330,166.596 145.500,166.916 145.377 C 167.235 145.254,167.604 145.434,167.736 145.777 C 167.890 146.178,168.478 146.400,169.387 146.400 C 170.164 146.400,170.800 146.599,170.800 146.843 C 170.800 147.086,171.053 147.189,171.361 147.070 C 171.670 146.952,172.255 147.107,172.661 147.415 C 173.068 147.723,173.895 147.980,174.500 147.987 C 175.105 147.994,175.600 148.191,175.600 148.424 C 175.600 148.657,175.748 148.756,175.929 148.644 C 176.109 148.532,176.780 148.712,177.419 149.044 C 178.058 149.375,178.911 149.560,179.315 149.454 C 179.719 149.349,180.133 149.480,180.235 149.747 C 180.337 150.013,181.001 150.275,181.710 150.328 C 182.420 150.382,183.060 150.600,183.133 150.813 C 183.207 151.026,183.792 151.200,184.433 151.200 C 185.075 151.200,185.600 151.380,185.600 151.600 C 185.600 151.820,186.320 152.000,187.200 152.000 C 188.080 152.000,188.800 152.180,188.800 152.400 C 188.800 152.620,189.149 152.800,189.576 152.800 C 190.003 152.800,190.464 152.980,190.600 153.200 C 190.736 153.420,191.377 153.600,192.024 153.600 C 192.671 153.600,193.200 153.780,193.200 154.000 C 193.200 154.220,193.740 154.400,194.400 154.400 C 195.060 154.400,195.600 154.567,195.600 154.772 C 195.600 154.976,196.635 155.443,197.900 155.809 C 199.165 156.176,200.380 156.615,200.600 156.786 C 200.820 156.957,201.314 157.046,201.698 156.984 C 202.083 156.922,202.493 157.027,202.611 157.218 C 202.729 157.409,203.072 157.471,203.372 157.355 C 203.673 157.240,204.038 157.338,204.183 157.573 C 204.328 157.808,204.807 158.000,205.247 158.000 C 205.750 158.000,205.941 158.172,205.762 158.462 C 205.589 158.741,205.652 158.815,205.921 158.649 C 206.165 158.498,207.025 158.650,207.831 158.987 C 208.638 159.324,209.646 159.600,210.072 159.600 C 210.562 159.600,210.741 159.772,210.558 160.068 C 210.368 160.375,210.481 160.455,210.885 160.300 C 211.223 160.170,211.993 160.319,212.596 160.632 C 213.198 160.944,214.121 161.200,214.646 161.200 C 215.171 161.200,215.600 161.380,215.600 161.600 C 215.600 161.820,216.125 162.000,216.767 162.000 C 217.408 162.000,218.024 162.225,218.135 162.500 C 218.270 162.835,218.347 162.848,218.368 162.538 C 218.404 162.013,220.391 162.760,220.397 163.300 C 220.399 163.465,220.929 163.600,221.576 163.600 C 222.223 163.600,222.864 163.780,223.000 164.000 C 223.136 164.220,223.699 164.400,224.252 164.400 C 224.805 164.400,225.519 164.662,225.840 164.983 C 226.161 165.304,226.659 165.475,226.947 165.365 C 227.236 165.254,227.703 165.442,227.985 165.782 C 228.267 166.122,228.926 166.400,229.449 166.400 C 229.972 166.400,230.400 166.601,230.400 166.847 C 230.400 167.094,230.751 167.201,231.185 167.088 C 231.617 166.975,232.179 167.134,232.434 167.441 C 232.816 167.902,235.594 168.000,248.236 168.000 C 261.680 168.000,263.547 168.074,263.346 168.598 C 263.219 168.926,262.979 169.111,262.812 169.007 C 262.364 168.731,261.146 170.207,261.499 170.597 C 261.665 170.779,261.563 170.791,261.273 170.624 C 260.719 170.304,259.520 171.546,259.856 172.091 C 259.958 172.256,259.731 172.272,259.351 172.126 C 258.824 171.924,258.721 172.018,258.916 172.526 C 259.074 172.937,258.986 173.154,258.686 173.095 C 258.419 173.043,258.245 173.225,258.300 173.500 C 258.355 173.775,258.130 174.000,257.800 174.000 C 257.470 174.000,257.200 174.276,257.200 174.613 C 257.200 174.949,256.885 175.342,256.500 175.485 C 255.499 175.856,254.371 177.230,254.670 177.713 C 254.813 177.945,254.728 178.003,254.473 177.845 C 254.226 177.692,253.613 178.040,253.112 178.618 C 252.610 179.197,251.357 180.536,250.327 181.595 C 249.297 182.654,248.532 183.598,248.626 183.693 C 248.721 183.788,248.349 184.106,247.799 184.400 C 247.250 184.694,246.800 185.081,246.800 185.259 C 246.800 185.646,232.991 199.600,232.608 199.600 C 232.060 199.600,231.343 200.628,231.520 201.159 C 231.621 201.463,231.545 201.628,231.352 201.526 C 230.967 201.324,229.008 203.155,228.918 203.800 C 228.887 204.020,228.545 204.380,228.157 204.600 C 227.015 205.249,224.833 207.499,225.093 207.760 C 225.225 207.892,225.003 208.000,224.600 208.000 C 224.197 208.000,223.978 208.111,224.114 208.248 C 224.419 208.552,223.645 209.352,222.700 209.710 C 222.315 209.856,222.000 210.251,222.000 210.587 C 222.000 210.924,221.820 211.200,221.600 211.200 C 221.380 211.200,221.245 211.417,221.300 211.682 C 221.355 211.947,221.220 212.178,221.000 212.196 C 220.172 212.263,218.787 213.255,219.012 213.620 C 219.142 213.829,218.967 214.000,218.624 214.000 C 218.281 214.000,218.000 214.139,218.000 214.309 C 218.000 214.479,217.174 215.514,216.165 216.609 C 215.156 217.704,213.642 219.365,212.801 220.300 C 211.961 221.235,211.082 222.000,210.849 222.000 C 210.616 222.000,210.541 222.301,210.682 222.669 C 210.881 223.189,210.779 223.277,210.225 223.065 C 209.693 222.861,209.570 222.945,209.743 223.395 C 209.871 223.728,209.803 224.000,209.594 224.000 C 209.090 224.000,201.392 231.713,201.509 232.100 C 201.559 232.265,201.463 232.355,201.295 232.300 C 200.864 232.159,194.010 239.077,194.297 239.364 C 194.427 239.494,194.264 239.600,193.934 239.600 C 193.605 239.600,193.098 240.044,192.807 240.586 C 192.517 241.129,192.114 241.471,191.913 241.346 C 191.711 241.221,191.447 241.498,191.326 241.960 C 191.206 242.422,190.847 242.800,190.530 242.800 C 190.212 242.800,190.064 242.980,190.200 243.200 C 190.336 243.420,190.276 243.600,190.066 243.600 C 189.414 243.600,187.200 245.887,187.200 246.560 C 187.200 246.939,186.864 247.200,186.376 247.200 C 185.923 247.200,185.664 247.380,185.800 247.600 C 185.936 247.820,185.767 248.000,185.424 248.000 C 185.081 248.000,184.800 248.204,184.800 248.453 C 184.800 248.703,184.305 249.332,183.700 249.852 C 183.095 250.372,182.592 251.023,182.582 251.299 C 182.572 251.574,182.347 251.755,182.082 251.700 C 181.817 251.645,181.621 251.735,181.647 251.900 C 181.776 252.715,181.545 253.200,181.027 253.200 C 180.712 253.200,180.340 253.560,180.200 254.000 C 180.060 254.440,179.797 254.800,179.614 254.800 C 179.104 254.800,173.394 260.504,173.082 261.325 C 172.930 261.724,172.656 261.958,172.473 261.845 C 172.095 261.611,168.000 265.820,168.000 266.442 C 168.000 266.665,167.820 266.736,167.600 266.600 C 167.380 266.464,167.200 266.644,167.200 267.000 C 167.200 267.356,167.053 267.556,166.873 267.445 C 166.693 267.334,166.293 267.593,165.985 268.021 C 165.357 268.892,163.380 269.081,163.065 268.300 C 162.904 267.900,162.857 267.900,162.832 268.300 C 162.814 268.575,162.609 268.800,162.376 268.800 C 162.143 268.800,162.060 268.626,162.192 268.413 C 162.343 268.169,159.359 268.011,154.116 267.986 C 145.141 267.942,144.161 267.894,143.741 267.475 C 143.319 267.053,132.211 267.149,131.780 267.579 C 131.571 267.787,130.646 268.001,129.724 268.055 C 128.802 268.109,128.138 268.299,128.247 268.477 C 128.357 268.655,127.817 268.800,127.047 268.800 C 126.277 268.800,125.536 268.980,125.400 269.200 C 125.264 269.420,124.555 269.600,123.825 269.600 C 123.095 269.600,122.263 269.883,121.977 270.228 C 121.684 270.580,121.114 270.766,120.676 270.652 C 120.246 270.539,119.644 270.699,119.336 271.007 C 119.029 271.314,118.512 271.464,118.188 271.340 C 117.865 271.216,117.600 271.314,117.600 271.557 C 117.600 271.801,116.989 272.000,116.243 272.000 C 115.381 272.000,114.798 272.228,114.646 272.625 C 114.514 272.969,114.256 273.159,114.074 273.046 C 113.892 272.933,113.240 273.102,112.626 273.420 C 112.011 273.739,111.259 274.000,110.954 274.000 C 110.649 274.000,110.400 274.180,110.400 274.400 C 110.400 274.620,110.029 274.800,109.576 274.800 C 109.123 274.800,108.864 274.980,109.000 275.200 C 109.136 275.420,108.972 275.600,108.636 275.600 C 107.809 275.600,105.142 277.127,104.546 277.941 C 104.282 278.303,103.932 278.465,103.769 278.302 C 103.605 278.139,103.220 278.364,102.913 278.803 C 102.606 279.241,101.994 279.600,101.554 279.600 C 101.113 279.600,100.864 279.780,101.000 280.000 C 101.136 280.220,101.037 280.400,100.781 280.400 C 100.524 280.400,100.416 280.664,100.540 280.987 C 100.664 281.310,100.608 281.671,100.417 281.790 C 100.225 281.908,99.992 281.779,99.899 281.502 C 99.806 281.226,99.712 281.626,99.689 282.392 C 99.667 283.158,99.457 283.848,99.224 283.925 C 98.991 284.003,98.800 284.412,98.800 284.833 C 98.800 285.255,98.632 285.600,98.427 285.600 C 98.222 285.600,97.946 285.939,97.815 286.352 C 97.497 287.354,96.220 288.800,95.653 288.800 C 95.404 288.800,95.200 288.980,95.200 289.200 C 95.200 289.420,94.945 289.600,94.633 289.600 C 94.322 289.600,94.000 289.799,93.919 290.042 C 93.832 290.303,92.812 290.473,91.443 290.457 C 89.894 290.438,88.916 290.626,88.525 291.018 C 88.201 291.342,87.770 291.505,87.568 291.380 C 87.365 291.255,87.200 291.314,87.200 291.511 C 87.200 291.708,86.077 291.909,84.705 291.959 C 83.038 292.019,81.952 292.273,81.436 292.724 C 80.997 293.108,80.800 293.165,80.981 292.857 C 81.229 292.436,81.091 292.381,80.368 292.610 C 79.855 292.773,77.145 292.899,74.345 292.891 C 69.448 292.876,69.228 292.912,68.543 293.824 C 68.034 294.502,67.742 294.634,67.521 294.286 C 67.311 293.955,67.210 294.032,67.206 294.529 C 67.199 295.347,66.295 296.400,65.600 296.400 C 65.053 296.400,64.000 297.393,64.000 297.910 C 64.000 298.400,62.794 300.800,62.547 300.800 C 62.440 300.800,62.481 300.592,62.638 300.338 C 62.815 300.052,62.748 299.985,62.462 300.162 C 62.208 300.319,62.000 300.753,62.000 301.127 C 62.000 301.501,61.633 302.037,61.184 302.317 C 60.736 302.597,60.477 303.002,60.610 303.216 C 60.742 303.430,60.570 303.713,60.228 303.845 C 59.885 303.976,59.693 304.226,59.800 304.400 C 59.907 304.574,59.715 304.824,59.372 304.955 C 59.030 305.087,58.842 305.344,58.955 305.528 C 59.068 305.711,58.540 306.447,57.781 307.163 C 57.021 307.879,56.400 308.821,56.400 309.256 C 56.400 309.691,56.241 309.949,56.046 309.829 C 55.852 309.709,55.467 310.154,55.192 310.820 C 54.916 311.485,54.072 312.648,53.316 313.404 C 52.559 314.161,52.054 314.964,52.194 315.190 C 52.333 315.415,52.210 315.600,51.920 315.600 C 51.262 315.600,50.289 317.098,50.610 317.616 C 50.740 317.827,50.567 318.000,50.224 318.000 C 49.881 318.000,49.600 318.236,49.600 318.525 C 49.600 318.813,49.240 319.436,48.800 319.908 C 48.360 320.380,48.000 321.035,48.000 321.363 C 48.000 321.692,47.773 322.104,47.496 322.280 C 47.219 322.456,46.468 323.410,45.827 324.400 C 45.186 325.390,44.108 326.723,43.431 327.361 C 42.754 328.000,42.243 328.668,42.295 328.845 C 42.347 329.022,41.762 329.465,40.995 329.829 C 40.228 330.193,39.600 330.729,39.600 331.019 C 39.600 331.309,39.240 331.660,38.800 331.800 C 38.360 331.940,38.000 332.249,38.000 332.487 C 38.000 332.954,32.952 338.000,32.484 338.000 C 32.085 338.000,32.150 436.022,32.549 437.000 C 32.782 437.571,32.762 437.641,32.480 437.245 C 32.018 436.596,32.066 442.336,32.529 443.086 C 32.685 443.338,32.611 443.670,32.364 443.822 C 32.046 444.019,32.073 444.200,32.457 444.444 C 32.791 444.656,32.824 444.790,32.541 444.794 C 32.248 444.798,32.097 445.585,32.122 446.973 C 32.146 448.237,32.322 449.048,32.543 448.912 C 32.775 448.768,32.787 448.896,32.572 449.238 C 32.092 450.007,32.044 460.800,32.522 460.800 C 32.729 460.800,32.665 461.080,32.381 461.423 C 32.097 461.765,32.037 461.990,32.247 461.923 C 32.706 461.776,34.800 463.789,34.800 464.377 C 34.800 464.762,35.540 465.793,36.681 466.997 C 36.945 467.276,37.055 467.612,36.924 467.743 C 36.793 467.874,36.981 468.095,37.343 468.233 C 37.704 468.372,38.000 468.736,38.000 469.043 C 38.000 469.349,38.141 469.600,38.314 469.600 C 38.486 469.600,38.949 470.145,39.343 470.811 C 39.736 471.477,40.495 472.459,41.029 472.993 C 41.563 473.527,42.000 474.170,42.000 474.421 C 42.000 474.673,42.559 475.401,43.242 476.040 C 43.926 476.678,44.377 477.200,44.246 477.200 C 44.019 477.200,44.224 477.473,46.300 479.934 C 46.794 480.520,47.199 481.255,47.200 481.567 C 47.200 481.878,47.317 482.017,47.459 481.874 C 47.791 481.543,49.200 483.149,49.200 483.858 C 49.200 484.152,49.748 484.917,50.418 485.557 C 51.352 486.449,51.579 486.946,51.392 487.690 C 51.066 488.988,52.271 490.131,52.859 489.081 C 53.068 488.706,53.501 488.400,53.820 488.400 C 54.139 488.400,54.400 488.040,54.400 487.600 C 54.400 487.120,54.667 486.800,55.067 486.800 C 55.433 486.800,55.629 486.695,55.501 486.567 C 55.305 486.372,56.360 484.485,57.494 483.000 C 57.662 482.780,58.055 482.105,58.368 481.500 C 58.680 480.895,59.095 480.400,59.291 480.400 C 59.487 480.400,59.536 480.220,59.400 480.000 C 59.264 479.780,59.433 479.600,59.776 479.600 C 60.119 479.600,60.401 479.285,60.401 478.900 C 60.402 478.515,60.762 477.611,61.201 476.890 C 61.641 476.170,62.000 475.315,62.000 474.990 C 62.000 474.666,62.334 474.400,62.742 474.400 C 63.702 474.400,65.693 472.003,65.463 471.122 C 65.344 470.663,65.562 470.405,66.139 470.322 C 67.127 470.181,67.531 468.856,66.739 468.354 C 66.232 468.033,67.097 467.786,68.121 467.960 C 68.642 468.048,69.600 466.911,69.600 466.205 C 69.600 465.846,69.420 465.664,69.200 465.800 C 68.980 465.936,68.800 465.857,68.800 465.624 C 68.800 465.391,69.340 465.200,70.000 465.200 C 70.818 465.200,71.200 465.002,71.200 464.579 C 71.200 464.238,72.535 462.636,74.167 461.020 C 75.822 459.381,77.192 457.666,77.267 457.141 C 77.340 456.623,77.670 456.198,78.000 456.196 C 78.415 456.194,78.600 455.773,78.600 454.831 C 78.600 454.082,78.826 453.393,79.102 453.300 C 79.379 453.208,79.503 452.967,79.379 452.766 C 79.255 452.565,79.389 452.400,79.679 452.400 C 79.968 452.400,80.444 451.859,80.737 451.198 C 81.030 450.536,81.434 450.097,81.635 450.221 C 81.836 450.346,82.000 450.257,82.000 450.024 C 82.000 449.791,82.360 449.600,82.800 449.600 C 83.240 449.600,83.579 449.465,83.553 449.300 C 83.297 447.681,83.638 447.200,85.044 447.200 C 86.458 447.200,86.484 447.172,86.324 445.800 C 86.234 445.030,86.317 444.400,86.509 444.400 C 86.997 444.400,88.000 443.343,88.000 442.829 C 88.000 442.593,88.172 442.400,88.383 442.400 C 88.901 442.400,93.600 437.614,93.600 437.086 C 93.600 436.855,93.711 436.778,93.848 436.914 C 94.151 437.218,95.200 436.221,95.200 435.629 C 95.200 435.393,95.481 435.200,95.824 435.200 C 96.167 435.200,96.336 435.020,96.200 434.800 C 96.064 434.580,96.149 434.400,96.390 434.400 C 96.843 434.400,99.600 431.811,99.600 431.385 C 99.600 431.252,99.870 430.873,100.200 430.543 C 100.530 430.213,100.800 430.053,100.800 430.187 C 100.800 430.322,101.050 430.199,101.356 429.916 C 101.758 429.542,101.786 429.319,101.456 429.106 C 101.163 428.918,101.246 428.810,101.686 428.806 C 102.063 428.803,102.580 428.411,102.834 427.936 C 103.088 427.461,103.725 426.676,104.248 426.190 C 104.772 425.705,105.200 425.202,105.200 425.072 C 105.200 424.685,107.206 422.800,107.618 422.800 C 107.978 422.800,108.165 422.206,108.037 421.470 C 108.006 421.289,108.160 421.252,108.379 421.387 C 108.599 421.523,109.098 421.246,109.489 420.772 C 109.880 420.298,110.425 419.674,110.700 419.384 C 110.975 419.094,111.200 418.697,111.200 418.501 C 111.200 418.305,111.605 417.772,112.100 417.316 C 112.595 416.860,113.794 415.658,114.765 414.644 C 115.736 413.630,116.691 412.800,116.888 412.800 C 117.086 412.800,117.136 412.620,117.000 412.400 C 116.864 412.180,116.991 412.000,117.281 412.000 C 117.572 412.000,118.154 411.543,118.574 410.983 C 118.993 410.424,119.574 410.058,119.864 410.169 C 120.153 410.280,120.371 410.243,120.348 410.086 C 120.228 409.281,120.476 408.873,121.200 408.684 C 121.640 408.569,122.000 408.209,122.000 407.884 C 122.000 407.559,122.315 407.179,122.700 407.040 C 124.258 406.477,125.393 405.580,125.281 405.001 C 125.216 404.663,125.396 404.435,125.681 404.494 C 125.966 404.552,126.155 404.375,126.100 404.100 C 126.045 403.825,126.371 403.600,126.824 403.600 C 127.277 403.600,127.536 403.420,127.400 403.200 C 127.264 402.980,127.457 402.800,127.829 402.800 C 128.202 402.800,128.797 402.484,129.153 402.097 C 129.509 401.711,130.289 401.144,130.886 400.837 C 131.484 400.530,131.878 400.127,131.763 399.940 C 131.647 399.753,131.833 399.600,132.176 399.600 C 132.519 399.600,132.755 399.375,132.700 399.100 C 132.645 398.825,132.825 398.645,133.100 398.700 C 133.375 398.755,133.600 398.633,133.600 398.428 C 133.600 398.223,133.967 397.998,134.416 397.928 C 134.865 397.858,135.253 397.620,135.279 397.400 C 135.304 397.180,136.107 396.391,137.063 395.646 C 138.018 394.902,138.800 394.036,138.800 393.723 C 138.800 393.409,138.935 393.235,139.100 393.334 C 139.491 393.571,140.426 392.560,140.109 392.243 C 139.976 392.109,140.039 392.000,140.250 392.000 C 140.461 392.000,141.346 391.367,142.217 390.594 C 143.087 389.821,144.274 388.768,144.854 388.255 C 145.434 387.741,146.210 387.205,146.579 387.063 C 146.949 386.922,147.151 386.644,147.028 386.445 C 146.906 386.247,147.225 385.980,147.738 385.851 C 148.251 385.723,149.285 384.985,150.035 384.213 C 150.786 383.440,151.675 382.807,152.012 382.804 C 152.348 382.802,152.883 382.440,153.200 382.000 C 153.517 381.560,154.107 381.200,154.512 381.200 C 154.916 381.200,155.136 381.020,155.000 380.800 C 154.864 380.580,154.900 380.400,155.080 380.400 C 155.261 380.400,155.882 379.961,156.461 379.424 C 157.040 378.887,157.623 378.557,157.757 378.690 C 157.891 378.824,158.000 378.723,158.000 378.467 C 158.000 378.210,158.289 378.000,158.642 378.000 C 158.996 378.000,159.639 377.550,160.071 377.000 C 160.504 376.450,161.115 376.000,161.429 376.000 C 161.743 376.000,162.000 375.809,162.000 375.576 C 162.000 375.343,162.161 375.252,162.358 375.374 C 162.555 375.496,162.819 375.326,162.946 374.998 C 163.072 374.669,163.451 374.400,163.787 374.400 C 164.124 374.400,164.400 374.220,164.400 374.000 C 164.400 373.780,164.880 373.600,165.467 373.600 C 166.053 373.600,166.422 373.489,166.286 373.352 C 165.871 372.938,167.086 372.000,168.038 372.000 C 168.530 372.000,168.823 371.890,168.688 371.755 C 168.418 371.485,171.909 369.604,172.686 369.602 C 173.411 369.599,176.000 368.300,176.000 367.938 C 176.000 367.766,176.270 367.729,176.600 367.855 C 176.930 367.982,177.200 367.886,177.200 367.643 C 177.200 367.399,177.448 367.200,177.751 367.200 C 178.054 367.200,178.521 366.936,178.789 366.613 C 179.057 366.290,179.394 366.049,179.538 366.077 C 180.140 366.196,181.842 365.218,182.388 364.439 C 182.712 363.978,183.297 363.600,183.688 363.600 C 184.080 363.600,184.400 363.420,184.400 363.200 C 184.400 362.980,184.760 362.800,185.200 362.800 C 185.640 362.800,186.000 362.620,186.000 362.400 C 186.000 362.180,186.360 362.000,186.800 362.000 C 187.240 362.000,187.600 361.820,187.600 361.600 C 187.600 361.380,187.870 361.200,188.200 361.200 C 188.530 361.200,188.800 361.020,188.800 360.800 C 188.800 360.580,189.036 360.400,189.325 360.400 C 189.613 360.400,190.205 360.085,190.640 359.700 C 191.075 359.315,191.694 358.940,192.016 358.868 C 192.337 358.795,192.746 358.476,192.925 358.159 C 193.103 357.842,193.419 357.688,193.627 357.817 C 193.835 357.946,194.113 357.770,194.245 357.428 C 194.376 357.085,194.630 356.895,194.810 357.006 C 194.989 357.117,195.407 356.936,195.739 356.604 C 196.071 356.272,196.536 356.000,196.771 356.000 C 197.007 356.000,197.200 355.820,197.200 355.600 C 197.200 355.380,197.470 355.200,197.800 355.200 C 198.130 355.200,198.400 355.020,198.400 354.800 C 198.400 354.580,198.670 354.400,199.000 354.400 C 199.330 354.400,199.600 354.232,199.600 354.027 C 199.600 353.822,199.960 353.540,200.400 353.400 C 200.840 353.260,201.200 352.888,201.200 352.573 C 201.200 352.258,201.456 352.000,201.768 352.000 C 202.417 352.000,206.011 348.545,205.694 348.227 C 205.579 348.112,205.780 347.906,206.140 347.768 C 206.501 347.629,206.740 347.400,206.672 347.258 C 206.432 346.756,208.344 345.200,209.200 345.200 C 209.420 345.200,209.600 344.919,209.600 344.576 C 209.600 344.233,209.780 344.064,210.000 344.200 C 210.220 344.336,210.400 344.193,210.400 343.883 C 210.400 343.573,210.926 342.768,211.569 342.095 C 212.212 341.422,212.632 340.766,212.503 340.636 C 212.373 340.506,212.792 340.386,213.433 340.368 C 214.075 340.351,214.367 340.244,214.083 340.129 C 213.495 339.893,215.082 338.336,216.900 337.366 C 217.505 337.044,218.000 336.600,218.000 336.381 C 218.000 336.162,218.450 335.778,219.000 335.527 C 219.550 335.277,220.000 334.800,220.000 334.469 C 220.000 334.138,220.118 333.985,220.263 334.130 C 220.656 334.522,221.632 333.576,221.334 333.093 C 221.184 332.851,221.270 332.796,221.538 332.962 C 221.792 333.119,222.000 333.091,222.000 332.900 C 222.000 332.710,222.716 332.024,223.591 331.377 C 224.465 330.730,225.185 329.885,225.191 329.500 C 225.197 329.045,225.516 328.798,226.100 328.794 C 226.828 328.789,226.885 328.714,226.400 328.400 C 225.821 328.026,225.902 327.970,227.200 327.854 C 227.530 327.824,227.773 327.473,227.740 327.073 C 227.700 326.589,227.874 326.420,228.261 326.568 C 228.600 326.698,228.735 326.618,228.585 326.376 C 228.444 326.148,228.795 325.496,229.365 324.926 C 229.934 324.357,230.400 323.725,230.400 323.522 C 230.400 323.319,230.608 323.281,230.862 323.438 C 231.139 323.610,231.215 323.548,231.052 323.285 C 230.903 323.043,231.403 322.223,232.164 321.463 C 232.924 320.702,233.439 319.972,233.307 319.840 C 233.175 319.708,233.288 319.600,233.559 319.600 C 234.137 319.600,238.400 315.365,238.400 314.791 C 238.400 314.576,238.670 314.400,239.000 314.400 C 239.549 314.400,239.784 313.912,239.637 313.070 C 239.606 312.889,239.765 312.855,239.990 312.994 C 240.216 313.133,240.400 312.956,240.400 312.600 C 240.400 312.244,240.580 312.064,240.800 312.200 C 241.020 312.336,241.200 312.167,241.200 311.824 C 241.200 311.461,241.544 311.200,242.024 311.200 C 242.477 311.200,242.738 311.023,242.604 310.806 C 242.470 310.589,243.081 309.749,243.962 308.939 C 244.843 308.129,245.472 307.316,245.359 307.133 C 245.245 306.950,245.478 306.796,245.876 306.792 C 246.274 306.787,247.230 306.060,248.000 305.175 C 248.770 304.291,250.345 302.589,251.500 301.393 C 252.655 300.196,253.600 298.944,253.600 298.609 C 253.600 298.274,253.931 298.000,254.336 298.000 C 254.740 298.000,255.277 297.550,255.527 297.000 C 255.778 296.450,256.278 296.000,256.638 296.000 C 257.069 296.000,257.230 295.757,257.107 295.288 C 256.877 294.407,257.689 293.600,258.807 293.600 C 259.269 293.600,259.545 293.435,259.420 293.232 C 259.295 293.030,259.464 292.593,259.796 292.261 C 260.128 291.929,260.400 291.471,260.400 291.243 C 260.400 291.015,260.760 290.635,261.200 290.400 C 261.640 290.165,262.000 289.745,262.000 289.467 C 262.000 289.189,262.979 288.081,264.176 287.004 C 265.372 285.927,266.262 284.900,266.152 284.723 C 266.043 284.545,266.200 284.400,266.502 284.400 C 266.804 284.400,267.295 283.778,267.593 283.018 C 267.898 282.240,268.324 281.744,268.568 281.882 C 268.805 282.018,268.871 281.986,268.714 281.812 C 268.557 281.637,268.646 281.113,268.912 280.647 C 269.178 280.181,269.399 279.577,269.402 279.303 C 269.406 279.030,269.587 278.778,269.804 278.743 C 270.394 278.648,271.173 277.497,271.187 276.700 C 271.194 276.315,271.391 276.000,271.624 276.000 C 271.857 276.000,271.945 275.835,271.820 275.632 C 271.695 275.430,271.864 274.993,272.196 274.661 C 272.528 274.329,272.800 273.774,272.800 273.429 C 272.800 273.083,272.980 272.800,273.200 272.800 C 273.420 272.800,273.600 272.440,273.600 272.000 C 273.600 271.560,273.780 271.200,274.000 271.200 C 274.220 271.200,274.400 270.924,274.400 270.587 C 274.400 270.251,274.663 269.874,274.985 269.750 C 275.564 269.528,276.241 268.105,276.069 267.470 C 276.020 267.289,276.152 267.247,276.361 267.376 C 276.571 267.506,276.858 267.246,277.000 266.800 C 277.142 266.354,277.425 266.092,277.629 266.218 C 277.833 266.344,278.000 266.167,278.000 265.824 C 278.000 265.481,278.180 265.200,278.400 265.200 C 278.620 265.200,278.800 264.930,278.800 264.600 C 278.800 264.270,278.980 264.000,279.200 264.000 C 279.420 264.000,279.600 263.740,279.600 263.423 C 279.600 263.105,279.948 262.602,280.373 262.304 C 280.798 262.006,281.203 261.505,281.273 261.189 C 281.343 260.874,282.030 259.962,282.800 259.162 C 284.355 257.549,285.012 256.639,285.591 255.300 C 285.805 254.805,286.165 254.400,286.390 254.400 C 286.616 254.400,286.800 254.155,286.800 253.856 C 286.800 253.557,287.239 252.982,287.776 252.579 C 288.313 252.176,288.662 251.701,288.552 251.523 C 288.443 251.345,288.633 251.200,288.976 251.200 C 289.333 251.200,289.600 250.858,289.600 250.400 C 289.600 249.960,289.742 249.600,289.915 249.600 C 290.088 249.600,290.256 249.257,290.287 248.837 C 290.339 248.144,290.965 247.192,292.281 245.803 C 292.545 245.524,292.676 245.209,292.571 245.105 C 292.466 245.000,292.655 244.686,292.990 244.408 C 293.326 244.130,293.600 243.669,293.600 243.384 C 293.600 243.100,293.735 242.807,293.900 242.733 C 294.431 242.497,296.000 240.051,296.000 239.459 C 296.000 239.144,296.281 238.778,296.625 238.646 C 296.969 238.514,297.136 238.220,296.996 237.993 C 296.855 237.766,296.954 237.630,297.216 237.690 C 297.477 237.751,297.765 237.358,297.855 236.817 C 297.946 236.277,298.205 235.720,298.431 235.581 C 298.657 235.441,298.788 235.073,298.721 234.763 C 298.655 234.454,298.825 234.245,299.100 234.300 C 299.375 234.355,299.600 234.029,299.600 233.576 C 299.600 233.123,299.780 232.864,300.000 233.000 C 300.220 233.136,300.400 232.887,300.400 232.447 C 300.400 232.007,300.580 231.536,300.800 231.400 C 301.020 231.264,301.200 230.703,301.200 230.153 C 301.200 229.588,301.374 229.260,301.600 229.400 C 301.820 229.536,302.000 229.277,302.000 228.824 C 302.000 228.371,302.180 228.000,302.400 228.000 C 302.620 228.000,302.800 227.460,302.800 226.800 C 302.800 226.140,302.980 225.600,303.200 225.600 C 303.431 225.600,303.600 224.333,303.600 222.600 C 303.600 220.867,303.769 219.600,304.000 219.600 C 304.220 219.600,304.400 218.970,304.400 218.200 C 304.400 217.199,304.578 216.800,305.024 216.800 C 305.367 216.800,305.546 216.636,305.422 216.436 C 305.298 216.235,305.626 215.200,306.150 214.136 C 306.674 213.071,307.414 211.242,307.793 210.071 C 308.173 208.901,308.733 207.847,309.039 207.730 C 309.345 207.612,309.499 207.360,309.381 207.169 C 309.168 206.824,310.134 205.077,311.094 204.072 C 311.372 203.782,311.708 203.108,311.842 202.575 C 311.976 202.042,312.246 201.705,312.443 201.826 C 312.639 201.948,312.800 201.677,312.800 201.224 C 312.800 200.771,312.980 200.400,313.200 200.400 C 313.420 200.400,313.600 200.090,313.600 199.710 C 313.600 199.331,314.263 198.431,315.073 197.710 C 315.883 196.990,316.338 196.400,316.085 196.400 C 315.832 196.400,315.728 196.131,315.854 195.802 C 315.981 195.474,316.213 195.284,316.371 195.382 C 316.764 195.625,318.074 194.043,317.820 193.632 C 317.707 193.450,318.062 192.965,318.608 192.555 C 319.153 192.146,319.600 191.583,319.600 191.305 C 319.600 191.027,319.780 190.800,320.000 190.800 C 320.220 190.800,320.355 190.640,320.300 190.444 C 320.245 190.247,320.617 189.721,321.126 189.274 C 321.636 188.827,322.041 188.357,322.026 188.230 C 321.926 187.350,322.041 186.708,322.260 186.927 C 322.615 187.282,323.572 185.965,323.587 185.100 C 323.594 184.715,323.780 184.400,324.000 184.400 C 324.220 184.400,324.400 184.106,324.400 183.747 C 324.400 183.388,324.788 182.758,325.261 182.347 C 325.735 181.936,325.902 181.600,325.633 181.600 C 325.305 181.600,325.351 181.392,325.771 180.971 C 326.117 180.626,326.400 180.069,326.400 179.733 C 326.400 179.398,326.772 178.601,327.227 177.962 C 327.682 177.323,327.907 176.797,327.727 176.794 C 327.547 176.791,327.662 176.622,327.982 176.419 C 328.786 175.911,329.006 173.654,328.278 173.375 C 327.833 173.204,327.784 172.770,328.047 171.358 C 328.350 169.737,329.158 167.727,329.188 168.518 C 329.201 168.872,331.200 166.972,331.200 166.605 C 331.200 166.207,333.952 163.600,334.373 163.600 C 334.592 163.600,335.363 163.090,336.086 162.467 C 336.809 161.845,337.692 161.229,338.050 161.099 C 338.407 160.970,338.819 160.264,338.965 159.532 C 339.589 156.393,339.709 156.000,340.045 156.000 C 340.240 156.000,340.400 155.680,340.400 155.288 C 340.400 154.897,340.760 154.317,341.200 154.000 C 341.640 153.683,342.000 153.222,342.000 152.975 C 342.000 152.729,342.732 151.781,343.626 150.868 C 344.828 149.642,345.290 148.816,345.394 147.705 C 345.566 145.873,346.249 144.000,346.745 144.000 C 347.105 144.000,347.548 142.400,347.760 140.337 C 347.820 139.752,348.179 138.964,348.557 138.585 C 348.936 138.207,349.160 137.672,349.055 137.398 C 348.945 137.113,349.150 136.921,349.532 136.950 C 349.899 136.977,350.155 136.775,350.100 136.500 C 350.045 136.225,350.191 136.000,350.424 136.000 C 351.080 136.000,355.995 130.804,356.042 130.060 C 356.066 129.697,356.056 128.942,356.021 128.381 C 355.986 127.821,356.327 126.893,356.778 126.318 C 357.230 125.744,357.600 125.077,357.600 124.837 C 357.600 124.597,357.960 124.400,358.400 124.400 C 358.840 124.400,359.200 124.228,359.200 124.018 C 359.200 123.808,359.650 123.186,360.200 122.636 C 360.750 122.086,361.200 121.358,361.200 121.018 C 361.200 120.678,361.389 120.400,361.620 120.400 C 361.868 120.400,362.003 119.593,361.949 118.420 C 361.900 117.331,361.711 116.532,361.529 116.644 C 361.154 116.876,361.056 116.098,361.173 113.800 C 361.217 112.920,361.422 112.140,361.627 112.067 C 361.832 111.993,362.000 110.498,362.000 108.743 C 362.000 106.718,362.146 105.643,362.400 105.800 C 362.633 105.944,362.800 105.537,362.800 104.824 C 362.800 104.151,362.980 103.600,363.200 103.600 C 363.420 103.600,363.600 103.000,363.600 102.267 C 363.600 101.533,363.725 100.808,363.878 100.655 C 364.311 100.223,364.371 99.200,363.965 99.200 C 363.764 99.200,363.600 98.390,363.600 97.400 C 363.600 96.410,363.780 95.600,364.000 95.600 C 364.220 95.600,364.400 95.409,364.400 95.176 C 364.400 94.943,364.235 94.855,364.034 94.979 C 363.832 95.104,363.877 94.636,364.134 93.940 C 364.499 92.949,364.492 92.638,364.100 92.504 C 362.999 92.128,364.045 89.600,365.301 89.600 C 365.639 89.600,366.017 89.333,366.142 89.007 C 366.272 88.669,366.635 88.515,366.985 88.650 C 367.323 88.779,367.600 88.686,367.600 88.443 C 367.600 88.199,368.230 88.000,369.000 88.000 C 369.872 88.000,370.362 87.820,370.300 87.524 C 370.134 86.734,374.397 87.042,374.998 87.864 C 376.534 89.966,381.142 88.366,381.186 85.716 C 381.213 84.025,378.362 82.304,377.298 83.369 C 377.191 83.476,376.465 83.129,375.685 82.599 C 374.905 82.069,374.089 81.745,373.871 81.879 C 373.654 82.014,373.596 81.930,373.742 81.694 C 373.888 81.458,373.737 80.994,373.406 80.663 C 373.075 80.332,372.753 79.733,372.691 79.331 C 372.628 78.929,372.449 78.396,372.293 78.146 C 372.138 77.897,371.963 75.962,371.905 73.847 C 371.847 71.732,371.665 70.001,371.500 70.000 C 371.040 70.000,371.144 67.682,371.616 67.390 C 371.845 67.248,371.931 66.813,371.807 66.423 C 371.683 66.030,371.854 65.487,372.191 65.207 C 372.526 64.929,372.800 64.375,372.800 63.975 C 372.800 63.575,372.980 63.136,373.200 63.000 C 373.420 62.864,373.600 62.393,373.600 61.953 C 373.600 61.513,373.420 61.264,373.200 61.400 C 372.980 61.536,372.800 61.476,372.800 61.267 C 372.800 61.058,372.307 60.763,371.704 60.612 C 369.853 60.147,369.643 56.773,371.245 53.264 C 371.771 52.111,371.908 51.371,371.652 51.063 C 371.227 50.551,372.083 49.017,372.540 49.473 C 372.683 49.616,372.800 49.343,372.800 48.867 C 372.800 48.390,372.980 48.000,373.200 48.000 C 373.420 48.000,373.600 47.719,373.600 47.376 C 373.600 47.033,373.780 46.864,374.000 47.000 C 374.220 47.136,374.400 46.967,374.400 46.624 C 374.400 46.281,374.651 46.000,374.957 46.000 C 375.623 46.000,375.993 45.152,376.255 43.022 C 376.362 42.154,376.561 41.264,376.697 41.043 C 377.609 39.568,376.953 38.200,375.275 38.077 C 374.354 38.009,373.600 37.784,373.600 37.577 C 373.600 37.370,373.240 37.200,372.800 37.200 C 372.360 37.200,372.000 37.020,372.000 36.800 C 372.000 36.279,369.879 36.281,369.358 36.802 C 369.088 37.072,368.672 36.940,368.095 36.402 C 367.621 35.961,366.967 35.600,366.640 35.600 C 366.314 35.600,365.954 35.450,365.841 35.266 C 365.727 35.083,364.862 34.902,363.917 34.865 C 362.973 34.828,362.140 34.619,362.067 34.399 C 361.993 34.180,361.668 34.000,361.343 34.000 C 361.018 34.000,360.852 33.839,360.974 33.642 C 361.222 33.241,360.305 32.800,359.223 32.800 C 358.832 32.800,358.200 33.216,357.818 33.724 M372.050 82.400 C 372.078 82.620,372.100 83.070,372.100 83.400 C 372.100 84.633,371.978 84.799,371.100 84.768 C 370.605 84.751,370.425 84.646,370.700 84.535 C 370.975 84.424,371.200 83.808,371.200 83.167 C 371.200 82.108,371.931 81.449,372.050 82.400 " stroke="none" fill="#ececec" fill-rule="evenodd"></path><path id="path1" d="M111.839 49.138 C 111.700 49.361,111.782 49.665,112.020 49.812 C 112.635 50.193,113.032 49.672,112.518 49.158 C 112.231 48.871,112.007 48.864,111.839 49.138 M114.277 49.100 C 113.915 49.736,114.065 52.007,114.453 51.767 C 114.673 51.631,114.768 51.434,114.663 51.330 C 114.559 51.225,114.624 50.613,114.809 49.970 C 115.107 48.929,114.727 48.308,114.277 49.100 M116.000 51.151 C 116.000 51.398,116.167 51.600,116.371 51.600 C 116.575 51.600,116.824 51.915,116.924 52.300 C 117.079 52.891,117.114 52.898,117.154 52.349 C 117.179 51.991,116.930 51.474,116.600 51.200 C 116.185 50.856,116.000 50.841,116.000 51.151 M315.700 52.888 C 315.205 53.127,314.800 53.479,314.800 53.670 C 314.800 53.862,315.250 53.724,315.800 53.363 C 317.267 52.402,317.216 52.157,315.700 52.888 M115.600 53.600 C 115.111 53.916,115.161 53.989,115.867 53.994 C 116.344 53.997,117.021 54.110,117.372 54.245 C 117.838 54.424,117.943 54.316,117.762 53.845 C 117.485 53.124,116.508 53.013,115.600 53.600 M287.400 55.200 C 287.105 55.678,287.889 55.678,289.000 55.200 C 289.714 54.893,289.685 54.853,288.724 54.828 C 288.132 54.813,287.536 54.980,287.400 55.200 M102.094 58.996 C 102.255 59.175,102.076 59.549,101.694 59.828 C 101.313 60.107,101.091 60.416,101.201 60.516 C 101.310 60.615,101.727 60.378,102.127 59.989 C 102.702 59.430,102.744 59.217,102.327 58.976 C 102.037 58.809,101.932 58.818,102.094 58.996 M246.400 59.965 C 246.400 60.371,247.423 60.311,247.855 59.878 C 248.008 59.725,247.743 59.600,247.267 59.600 C 246.790 59.600,246.400 59.764,246.400 59.965 M119.413 61.200 C 119.755 62.395,119.921 62.613,120.241 62.293 C 120.373 62.160,120.177 61.635,119.804 61.126 L 119.126 60.200 119.413 61.200 M372.100 60.676 C 372.485 60.776,372.800 61.036,372.800 61.253 C 372.800 61.470,372.983 61.534,373.207 61.396 C 373.842 61.003,373.247 60.395,372.276 60.446 C 371.600 60.482,371.559 60.534,372.100 60.676 M263.200 61.800 C 263.200 62.130,263.361 62.400,263.557 62.400 C 263.754 62.400,264.018 62.130,264.145 61.800 C 264.285 61.435,264.145 61.200,263.787 61.200 C 263.464 61.200,263.200 61.470,263.200 61.800 M125.801 70.281 C 126.139 70.960,126.669 71.725,126.977 71.981 C 127.980 72.814,127.230 70.968,126.155 69.957 L 125.184 69.046 125.801 70.281 M364.093 90.400 C 363.818 90.840,363.731 91.200,363.900 91.200 C 364.069 91.200,364.432 90.840,364.707 90.400 C 364.982 89.960,365.069 89.600,364.900 89.600 C 364.731 89.600,364.368 89.960,364.093 90.400 M97.839 96.556 C 97.961 96.876,98.344 97.246,98.688 97.378 C 99.663 97.752,99.614 97.469,98.568 96.687 C 97.851 96.150,97.670 96.118,97.839 96.556 M361.715 117.348 C 361.982 117.923,362.335 118.395,362.500 118.397 C 363.046 118.403,362.812 117.735,362.015 117.013 C 361.247 116.318,361.240 116.326,361.715 117.348 M128.030 129.882 C 128.564 130.477,129.196 131.181,129.435 131.446 C 129.710 131.750,130.078 131.796,130.435 131.570 C 130.897 131.277,130.878 131.211,130.327 131.206 C 129.957 131.203,129.270 130.660,128.800 130.000 C 128.330 129.340,127.746 128.800,127.503 128.800 C 127.260 128.800,127.497 129.287,128.030 129.882 M130.400 132.304 C 130.400 132.471,130.740 132.820,131.156 133.080 C 131.813 133.490,131.886 133.450,131.710 132.776 C 131.519 132.047,130.400 131.644,130.400 132.304 M154.800 141.600 C 154.800 141.820,155.059 142.000,155.376 142.000 C 155.693 142.000,156.064 141.820,156.200 141.600 C 156.336 141.380,156.077 141.200,155.624 141.200 C 155.171 141.200,154.800 141.380,154.800 141.600 M343.055 151.455 C 342.468 152.041,342.070 152.603,342.170 152.703 C 342.270 152.803,342.832 152.405,343.418 151.818 C 344.005 151.232,344.403 150.670,344.303 150.570 C 344.203 150.470,343.641 150.868,343.055 151.455 M336.600 162.000 C 336.202 162.440,335.994 162.800,336.138 162.800 C 336.282 162.800,336.760 162.440,337.200 162.000 C 337.640 161.560,337.848 161.200,337.662 161.200 C 337.476 161.200,336.998 161.560,336.600 162.000 M250.886 180.513 C 249.739 181.674,248.800 182.762,248.800 182.929 C 248.800 183.198,250.428 181.600,252.599 179.201 C 254.070 177.576,252.908 178.466,250.886 180.513 M324.900 182.623 C 324.311 183.263,324.262 183.600,324.757 183.600 C 325.098 183.600,325.737 182.396,325.509 182.183 C 325.449 182.127,325.175 182.325,324.900 182.623 M247.660 183.868 C 246.934 184.653,247.225 184.864,248.125 184.206 C 248.522 183.915,248.702 183.588,248.524 183.480 C 248.346 183.372,247.957 183.547,247.660 183.868 M245.400 186.264 C 243.503 188.549,243.348 189.174,245.156 187.249 C 246.060 186.287,246.800 185.342,246.800 185.149 C 246.800 184.620,246.696 184.703,245.400 186.264 M321.891 187.575 C 321.751 188.111,321.857 188.276,322.245 188.127 C 322.875 187.886,322.972 187.354,322.445 187.028 C 322.250 186.908,322.001 187.154,321.891 187.575 M309.699 205.991 C 309.012 207.090,309.074 207.383,309.832 206.625 C 310.180 206.277,310.404 205.813,310.331 205.592 C 310.257 205.372,309.973 205.551,309.699 205.991 M220.571 211.689 C 219.927 212.393,219.670 212.767,220.000 212.519 C 220.330 212.271,220.735 212.053,220.900 212.034 C 221.065 212.015,221.185 211.885,221.166 211.745 C 221.147 211.604,221.367 211.344,221.654 211.166 C 221.942 210.989,222.079 210.746,221.959 210.626 C 221.840 210.506,221.215 210.985,220.571 211.689 M212.443 220.041 C 211.477 221.118,210.815 222.000,210.972 222.000 C 211.129 222.000,211.469 221.764,211.729 221.476 C 211.988 221.188,212.820 220.288,213.578 219.476 C 214.337 218.664,214.787 218.018,214.578 218.041 C 214.370 218.063,213.410 218.963,212.443 220.041 M182.109 251.100 C 181.962 251.485,181.435 252.123,180.936 252.517 C 180.438 252.912,179.639 253.783,179.162 254.454 L 178.293 255.673 179.151 255.138 C 179.623 254.843,180.109 254.287,180.231 253.901 C 180.354 253.515,180.668 253.200,180.931 253.200 C 181.429 253.200,182.500 251.763,182.645 250.900 C 182.769 250.161,182.416 250.293,182.109 251.100 M286.938 253.417 C 286.578 254.355,286.967 254.466,287.519 253.582 C 287.828 253.087,287.854 252.800,287.591 252.800 C 287.362 252.800,287.068 253.078,286.938 253.417 M172.504 261.019 C 172.189 261.361,172.153 261.648,172.407 261.804 C 172.626 261.940,172.917 261.762,173.052 261.408 C 173.383 260.547,173.114 260.357,172.504 261.019 M102.230 278.852 C 101.807 279.263,101.649 279.600,101.881 279.600 C 102.343 279.600,103.409 278.465,103.157 278.242 C 103.071 278.166,102.654 278.440,102.230 278.852 M264.167 287.020 C 263.305 287.800,262.960 288.267,263.400 288.056 C 264.186 287.680,266.334 285.600,265.936 285.600 C 265.825 285.600,265.028 286.239,264.167 287.020 M257.304 294.194 C 256.541 295.061,257.299 295.196,258.170 294.349 C 258.735 293.800,258.788 293.604,258.370 293.615 C 258.056 293.624,257.577 293.884,257.304 294.194 M62.217 299.972 C 61.944 300.414,62.575 300.892,62.944 300.522 C 63.325 300.142,63.254 299.600,62.824 299.600 C 62.617 299.600,62.344 299.768,62.217 299.972 M250.029 302.654 C 249.092 303.845,248.909 304.701,249.758 303.916 C 250.065 303.632,250.234 303.265,250.134 303.100 C 250.035 302.935,250.124 302.800,250.334 302.800 C 250.543 302.800,250.818 302.530,250.945 302.200 C 251.287 301.308,250.960 301.470,250.029 302.654 M247.513 305.800 C 246.920 306.350,246.146 306.800,245.794 306.800 C 245.441 306.800,245.255 306.966,245.380 307.168 C 245.505 307.370,245.128 307.913,244.543 308.374 C 243.957 308.834,243.556 309.289,243.651 309.384 C 243.746 309.479,244.988 308.493,246.412 307.193 C 247.835 305.893,248.908 304.823,248.796 304.815 C 248.684 304.807,248.107 305.250,247.513 305.800 M228.293 326.000 C 227.916 326.440,227.746 326.800,227.915 326.800 C 228.084 326.800,228.530 326.440,228.907 326.000 C 229.284 325.560,229.454 325.200,229.285 325.200 C 229.116 325.200,228.670 325.560,228.293 326.000 M220.000 334.536 C 220.000 334.830,219.527 335.287,218.948 335.551 C 218.370 335.814,217.994 336.128,218.114 336.247 C 218.463 336.596,220.400 335.161,220.400 334.554 C 220.400 334.249,220.310 334.000,220.200 334.000 C 220.090 334.000,220.000 334.241,220.000 334.536 M215.754 338.091 C 214.113 339.359,213.488 340.000,213.893 340.000 C 214.086 340.000,214.931 339.370,215.772 338.600 C 217.498 337.019,217.489 336.751,215.754 338.091 M32.169 347.400 C 32.170 352.020,32.228 353.855,32.299 351.478 C 32.370 349.101,32.369 345.321,32.298 343.078 C 32.227 340.835,32.169 342.780,32.169 347.400 M198.400 354.733 C 198.400 354.990,198.130 355.200,197.800 355.200 C 197.470 355.200,197.200 355.367,197.200 355.571 C 197.200 355.775,196.885 356.024,196.500 356.124 C 196.006 356.253,195.977 356.318,196.400 356.345 C 197.195 356.394,199.070 354.936,198.694 354.561 C 198.532 354.399,198.400 354.477,198.400 354.733 M32.093 357.600 C 32.093 358.370,32.175 358.685,32.276 358.300 C 32.376 357.915,32.376 357.285,32.276 356.900 C 32.175 356.515,32.093 356.830,32.093 357.600 M148.000 385.648 C 147.230 386.061,146.895 386.399,147.256 386.399 C 147.616 386.400,148.336 386.046,148.856 385.613 C 150.000 384.660,149.831 384.667,148.000 385.648 M32.134 389.200 C 32.134 390.850,32.205 391.525,32.291 390.700 C 32.378 389.875,32.378 388.525,32.291 387.700 C 32.205 386.875,32.134 387.550,32.134 389.200 M137.400 395.435 L 136.200 396.466 137.500 395.606 C 138.215 395.133,138.800 394.668,138.800 394.573 C 138.800 394.273,138.631 394.378,137.400 395.435 M32.101 404.200 C 32.105 405.080,32.187 405.393,32.283 404.895 C 32.379 404.398,32.375 403.678,32.275 403.295 C 32.175 402.913,32.096 403.320,32.101 404.200 M126.100 404.100 C 126.155 404.375,125.975 404.555,125.700 404.500 C 125.425 404.445,125.200 404.580,125.200 404.800 C 125.200 405.342,125.736 405.304,126.320 404.720 C 126.904 404.136,126.942 403.600,126.400 403.600 C 126.180 403.600,126.045 403.825,126.100 404.100 M119.700 409.784 C 119.205 410.279,118.800 410.814,118.800 410.973 C 118.800 411.346,121.149 409.496,121.178 409.100 C 121.216 408.581,120.633 408.851,119.700 409.784 M111.680 417.680 C 111.116 418.244,111.053 418.800,111.553 418.800 C 111.748 418.800,112.001 418.440,112.116 418.000 C 112.360 417.066,112.322 417.038,111.680 417.680 M32.093 423.600 C 32.093 424.370,32.175 424.685,32.276 424.300 C 32.376 423.915,32.376 423.285,32.276 422.900 C 32.175 422.515,32.093 422.830,32.093 423.600 M103.429 427.029 C 102.736 427.721,102.643 428.000,103.104 428.000 C 103.271 428.000,103.632 427.640,103.907 427.200 C 104.506 426.241,104.293 426.164,103.429 427.029 M32.006 435.033 C 32.009 435.895,32.170 436.849,32.363 437.154 C 32.578 437.493,32.632 436.949,32.504 435.754 C 32.242 433.317,31.998 432.964,32.006 435.033 M96.200 434.800 C 96.336 435.020,96.167 435.200,95.824 435.200 C 95.481 435.200,95.200 435.380,95.200 435.600 C 95.200 436.142,95.736 436.104,96.320 435.520 C 96.913 434.927,96.940 434.400,96.376 434.400 C 96.143 434.400,96.064 434.580,96.200 434.800 M92.200 438.800 C 91.802 439.240,91.678 439.600,91.924 439.600 C 92.170 439.600,92.565 439.240,92.800 438.800 C 93.035 438.360,93.160 438.000,93.076 438.000 C 92.992 438.000,92.598 438.360,92.200 438.800 M78.622 453.564 C 78.333 454.032,78.776 455.200,79.243 455.200 C 79.439 455.200,79.600 454.750,79.600 454.200 C 79.600 453.212,79.058 452.859,78.622 453.564 M77.467 456.267 C 77.054 456.679,77.152 458.077,77.575 457.816 C 77.781 457.688,77.922 457.228,77.889 456.792 C 77.822 455.897,77.829 455.905,77.467 456.267 M32.013 461.100 C 32.034 461.608,33.200 462.982,33.200 462.500 C 33.200 462.251,33.017 461.934,32.793 461.796 C 32.570 461.658,32.491 461.377,32.617 461.172 C 32.744 460.968,32.657 460.800,32.424 460.800 C 32.191 460.800,32.006 460.935,32.013 461.100 M68.800 465.513 C 68.800 465.979,70.722 466.050,71.004 465.594 C 71.143 465.368,70.725 465.200,70.024 465.200 C 69.351 465.200,68.800 465.341,68.800 465.513 M67.000 468.000 C 66.296 468.302,66.335 468.347,67.324 468.372 C 67.976 468.388,68.344 468.232,68.200 468.000 C 68.064 467.780,67.918 467.613,67.876 467.628 C 67.834 467.644,67.440 467.811,67.000 468.000 M52.984 488.827 C 52.528 489.564,53.132 489.725,53.810 489.048 C 54.369 488.488,54.375 488.400,53.852 488.400 C 53.519 488.400,53.129 488.592,52.984 488.827 " stroke="none" fill="#f0ecec" fill-rule="evenodd"></path><path id="path2" d="M111.839 49.138 C 111.700 49.361,111.782 49.665,112.020 49.812 C 112.635 50.193,113.032 49.672,112.518 49.158 C 112.231 48.871,112.007 48.864,111.839 49.138 M114.277 49.100 C 113.915 49.736,114.065 52.007,114.453 51.767 C 114.673 51.631,114.768 51.434,114.663 51.330 C 114.559 51.225,114.624 50.613,114.809 49.970 C 115.107 48.929,114.727 48.308,114.277 49.100 M116.000 51.151 C 116.000 51.398,116.167 51.600,116.371 51.600 C 116.575 51.600,116.824 51.915,116.924 52.300 C 117.079 52.891,117.114 52.898,117.154 52.349 C 117.179 51.991,116.930 51.474,116.600 51.200 C 116.185 50.856,116.000 50.841,116.000 51.151 M315.700 52.888 C 315.205 53.127,314.800 53.479,314.800 53.670 C 314.800 53.862,315.250 53.724,315.800 53.363 C 317.267 52.402,317.216 52.157,315.700 52.888 M115.600 53.600 C 115.111 53.916,115.161 53.989,115.867 53.994 C 116.344 53.997,117.021 54.110,117.372 54.245 C 117.838 54.424,117.943 54.316,117.762 53.845 C 117.485 53.124,116.508 53.013,115.600 53.600 M287.400 55.200 C 287.105 55.678,287.889 55.678,289.000 55.200 C 289.714 54.893,289.685 54.853,288.724 54.828 C 288.132 54.813,287.536 54.980,287.400 55.200 M102.094 58.996 C 102.255 59.175,102.076 59.549,101.694 59.828 C 101.313 60.107,101.091 60.416,101.201 60.516 C 101.310 60.615,101.727 60.378,102.127 59.989 C 102.702 59.430,102.744 59.217,102.327 58.976 C 102.037 58.809,101.932 58.818,102.094 58.996 M246.400 59.965 C 246.400 60.371,247.423 60.311,247.855 59.878 C 248.008 59.725,247.743 59.600,247.267 59.600 C 246.790 59.600,246.400 59.764,246.400 59.965 M119.413 61.200 C 119.755 62.395,119.921 62.613,120.241 62.293 C 120.373 62.160,120.177 61.635,119.804 61.126 L 119.126 60.200 119.413 61.200 M372.100 60.676 C 372.485 60.776,372.800 61.036,372.800 61.253 C 372.800 61.470,372.983 61.534,373.207 61.396 C 373.842 61.003,373.247 60.395,372.276 60.446 C 371.600 60.482,371.559 60.534,372.100 60.676 M263.200 61.800 C 263.200 62.130,263.361 62.400,263.557 62.400 C 263.754 62.400,264.018 62.130,264.145 61.800 C 264.285 61.435,264.145 61.200,263.787 61.200 C 263.464 61.200,263.200 61.470,263.200 61.800 M125.801 70.281 C 126.139 70.960,126.669 71.725,126.977 71.981 C 127.980 72.814,127.230 70.968,126.155 69.957 L 125.184 69.046 125.801 70.281 M364.093 90.400 C 363.818 90.840,363.731 91.200,363.900 91.200 C 364.069 91.200,364.432 90.840,364.707 90.400 C 364.982 89.960,365.069 89.600,364.900 89.600 C 364.731 89.600,364.368 89.960,364.093 90.400 M97.839 96.556 C 97.961 96.876,98.344 97.246,98.688 97.378 C 99.663 97.752,99.614 97.469,98.568 96.687 C 97.851 96.150,97.670 96.118,97.839 96.556 M361.715 117.348 C 361.982 117.923,362.335 118.395,362.500 118.397 C 363.046 118.403,362.812 117.735,362.015 117.013 C 361.247 116.318,361.240 116.326,361.715 117.348 M128.030 129.882 C 128.564 130.477,129.196 131.181,129.435 131.446 C 129.710 131.750,130.078 131.796,130.435 131.570 C 130.897 131.277,130.878 131.211,130.327 131.206 C 129.957 131.203,129.270 130.660,128.800 130.000 C 128.330 129.340,127.746 128.800,127.503 128.800 C 127.260 128.800,127.497 129.287,128.030 129.882 M130.400 132.304 C 130.400 132.471,130.740 132.820,131.156 133.080 C 131.813 133.490,131.886 133.450,131.710 132.776 C 131.519 132.047,130.400 131.644,130.400 132.304 M154.800 141.600 C 154.800 141.820,155.059 142.000,155.376 142.000 C 155.693 142.000,156.064 141.820,156.200 141.600 C 156.336 141.380,156.077 141.200,155.624 141.200 C 155.171 141.200,154.800 141.380,154.800 141.600 M343.055 151.455 C 342.468 152.041,342.070 152.603,342.170 152.703 C 342.270 152.803,342.832 152.405,343.418 151.818 C 344.005 151.232,344.403 150.670,344.303 150.570 C 344.203 150.470,343.641 150.868,343.055 151.455 M336.600 162.000 C 336.202 162.440,335.994 162.800,336.138 162.800 C 336.282 162.800,336.760 162.440,337.200 162.000 C 337.640 161.560,337.848 161.200,337.662 161.200 C 337.476 161.200,336.998 161.560,336.600 162.000 M250.886 180.513 C 249.739 181.674,248.800 182.762,248.800 182.929 C 248.800 183.198,250.428 181.600,252.599 179.201 C 254.070 177.576,252.908 178.466,250.886 180.513 M324.900 182.623 C 324.311 183.263,324.262 183.600,324.757 183.600 C 325.098 183.600,325.737 182.396,325.509 182.183 C 325.449 182.127,325.175 182.325,324.900 182.623 M247.660 183.868 C 246.934 184.653,247.225 184.864,248.125 184.206 C 248.522 183.915,248.702 183.588,248.524 183.480 C 248.346 183.372,247.957 183.547,247.660 183.868 M245.400 186.264 C 243.503 188.549,243.348 189.174,245.156 187.249 C 246.060 186.287,246.800 185.342,246.800 185.149 C 246.800 184.620,246.696 184.703,245.400 186.264 M321.891 187.575 C 321.751 188.111,321.857 188.276,322.245 188.127 C 322.875 187.886,322.972 187.354,322.445 187.028 C 322.250 186.908,322.001 187.154,321.891 187.575 M309.699 205.991 C 309.012 207.090,309.074 207.383,309.832 206.625 C 310.180 206.277,310.404 205.813,310.331 205.592 C 310.257 205.372,309.973 205.551,309.699 205.991 M220.571 211.689 C 219.927 212.393,219.670 212.767,220.000 212.519 C 220.330 212.271,220.735 212.053,220.900 212.034 C 221.065 212.015,221.185 211.885,221.166 211.745 C 221.147 211.604,221.367 211.344,221.654 211.166 C 221.942 210.989,222.079 210.746,221.959 210.626 C 221.840 210.506,221.215 210.985,220.571 211.689 M212.443 220.041 C 211.477 221.118,210.815 222.000,210.972 222.000 C 211.129 222.000,211.469 221.764,211.729 221.476 C 211.988 221.188,212.820 220.288,213.578 219.476 C 214.337 218.664,214.787 218.018,214.578 218.041 C 214.370 218.063,213.410 218.963,212.443 220.041 M182.109 251.100 C 181.962 251.485,181.435 252.123,180.936 252.517 C 180.438 252.912,179.639 253.783,179.162 254.454 L 178.293 255.673 179.151 255.138 C 179.623 254.843,180.109 254.287,180.231 253.901 C 180.354 253.515,180.668 253.200,180.931 253.200 C 181.429 253.200,182.500 251.763,182.645 250.900 C 182.769 250.161,182.416 250.293,182.109 251.100 M286.938 253.417 C 286.578 254.355,286.967 254.466,287.519 253.582 C 287.828 253.087,287.854 252.800,287.591 252.800 C 287.362 252.800,287.068 253.078,286.938 253.417 M172.504 261.019 C 172.189 261.361,172.153 261.648,172.407 261.804 C 172.626 261.940,172.917 261.762,173.052 261.408 C 173.383 260.547,173.114 260.357,172.504 261.019 M102.230 278.852 C 101.807 279.263,101.649 279.600,101.881 279.600 C 102.343 279.600,103.409 278.465,103.157 278.242 C 103.071 278.166,102.654 278.440,102.230 278.852 M264.167 287.020 C 263.305 287.800,262.960 288.267,263.400 288.056 C 264.186 287.680,266.334 285.600,265.936 285.600 C 265.825 285.600,265.028 286.239,264.167 287.020 M257.304 294.194 C 256.541 295.061,257.299 295.196,258.170 294.349 C 258.735 293.800,258.788 293.604,258.370 293.615 C 258.056 293.624,257.577 293.884,257.304 294.194 M62.217 299.972 C 61.944 300.414,62.575 300.892,62.944 300.522 C 63.325 300.142,63.254 299.600,62.824 299.600 C 62.617 299.600,62.344 299.768,62.217 299.972 M250.029 302.654 C 249.092 303.845,248.909 304.701,249.758 303.916 C 250.065 303.632,250.234 303.265,250.134 303.100 C 250.035 302.935,250.124 302.800,250.334 302.800 C 250.543 302.800,250.818 302.530,250.945 302.200 C 251.287 301.308,250.960 301.470,250.029 302.654 M247.513 305.800 C 246.920 306.350,246.146 306.800,245.794 306.800 C 245.441 306.800,245.255 306.966,245.380 307.168 C 245.505 307.370,245.128 307.913,244.543 308.374 C 243.957 308.834,243.556 309.289,243.651 309.384 C 243.746 309.479,244.988 308.493,246.412 307.193 C 247.835 305.893,248.908 304.823,248.796 304.815 C 248.684 304.807,248.107 305.250,247.513 305.800 M228.293 326.000 C 227.916 326.440,227.746 326.800,227.915 326.800 C 228.084 326.800,228.530 326.440,228.907 326.000 C 229.284 325.560,229.454 325.200,229.285 325.200 C 229.116 325.200,228.670 325.560,228.293 326.000 M220.000 334.536 C 220.000 334.830,219.527 335.287,218.948 335.551 C 218.370 335.814,217.994 336.128,218.114 336.247 C 218.463 336.596,220.400 335.161,220.400 334.554 C 220.400 334.249,220.310 334.000,220.200 334.000 C 220.090 334.000,220.000 334.241,220.000 334.536 M215.754 338.091 C 214.113 339.359,213.488 340.000,213.893 340.000 C 214.086 340.000,214.931 339.370,215.772 338.600 C 217.498 337.019,217.489 336.751,215.754 338.091 M32.169 347.400 C 32.170 352.020,32.228 353.855,32.299 351.478 C 32.370 349.101,32.369 345.321,32.298 343.078 C 32.227 340.835,32.169 342.780,32.169 347.400 M198.400 354.733 C 198.400 354.990,198.130 355.200,197.800 355.200 C 197.470 355.200,197.200 355.367,197.200 355.571 C 197.200 355.775,196.885 356.024,196.500 356.124 C 196.006 356.253,195.977 356.318,196.400 356.345 C 197.195 356.394,199.070 354.936,198.694 354.561 C 198.532 354.399,198.400 354.477,198.400 354.733 M32.093 357.600 C 32.093 358.370,32.175 358.685,32.276 358.300 C 32.376 357.915,32.376 357.285,32.276 356.900 C 32.175 356.515,32.093 356.830,32.093 357.600 M148.000 385.648 C 147.230 386.061,146.895 386.399,147.256 386.399 C 147.616 386.400,148.336 386.046,148.856 385.613 C 150.000 384.660,149.831 384.667,148.000 385.648 M32.134 389.200 C 32.134 390.850,32.205 391.525,32.291 390.700 C 32.378 389.875,32.378 388.525,32.291 387.700 C 32.205 386.875,32.134 387.550,32.134 389.200 M137.400 395.435 L 136.200 396.466 137.500 395.606 C 138.215 395.133,138.800 394.668,138.800 394.573 C 138.800 394.273,138.631 394.378,137.400 395.435 M32.101 404.200 C 32.105 405.080,32.187 405.393,32.283 404.895 C 32.379 404.398,32.375 403.678,32.275 403.295 C 32.175 402.913,32.096 403.320,32.101 404.200 M126.100 404.100 C 126.155 404.375,125.975 404.555,125.700 404.500 C 125.425 404.445,125.200 404.580,125.200 404.800 C 125.200 405.342,125.736 405.304,126.320 404.720 C 126.904 404.136,126.942 403.600,126.400 403.600 C 126.180 403.600,126.045 403.825,126.100 404.100 M119.700 409.784 C 119.205 410.279,118.800 410.814,118.800 410.973 C 118.800 411.346,121.149 409.496,121.178 409.100 C 121.216 408.581,120.633 408.851,119.700 409.784 M111.680 417.680 C 111.116 418.244,111.053 418.800,111.553 418.800 C 111.748 418.800,112.001 418.440,112.116 418.000 C 112.360 417.066,112.322 417.038,111.680 417.680 M32.093 423.600 C 32.093 424.370,32.175 424.685,32.276 424.300 C 32.376 423.915,32.376 423.285,32.276 422.900 C 32.175 422.515,32.093 422.830,32.093 423.600 M103.429 427.029 C 102.736 427.721,102.643 428.000,103.104 428.000 C 103.271 428.000,103.632 427.640,103.907 427.200 C 104.506 426.241,104.293 426.164,103.429 427.029 M32.006 435.033 C 32.009 435.895,32.170 436.849,32.363 437.154 C 32.578 437.493,32.632 436.949,32.504 435.754 C 32.242 433.317,31.998 432.964,32.006 435.033 M96.200 434.800 C 96.336 435.020,96.167 435.200,95.824 435.200 C 95.481 435.200,95.200 435.380,95.200 435.600 C 95.200 436.142,95.736 436.104,96.320 435.520 C 96.913 434.927,96.940 434.400,96.376 434.400 C 96.143 434.400,96.064 434.580,96.200 434.800 M92.200 438.800 C 91.802 439.240,91.678 439.600,91.924 439.600 C 92.170 439.600,92.565 439.240,92.800 438.800 C 93.035 438.360,93.160 438.000,93.076 438.000 C 92.992 438.000,92.598 438.360,92.200 438.800 M78.622 453.564 C 78.333 454.032,78.776 455.200,79.243 455.200 C 79.439 455.200,79.600 454.750,79.600 454.200 C 79.600 453.212,79.058 452.859,78.622 453.564 M77.467 456.267 C 77.054 456.679,77.152 458.077,77.575 457.816 C 77.781 457.688,77.922 457.228,77.889 456.792 C 77.822 455.897,77.829 455.905,77.467 456.267 M32.013 461.100 C 32.034 461.608,33.200 462.982,33.200 462.500 C 33.200 462.251,33.017 461.934,32.793 461.796 C 32.570 461.658,32.491 461.377,32.617 461.172 C 32.744 460.968,32.657 460.800,32.424 460.800 C 32.191 460.800,32.006 460.935,32.013 461.100 M68.800 465.513 C 68.800 465.979,70.722 466.050,71.004 465.594 C 71.143 465.368,70.725 465.200,70.024 465.200 C 69.351 465.200,68.800 465.341,68.800 465.513 M67.000 468.000 C 66.296 468.302,66.335 468.347,67.324 468.372 C 67.976 468.388,68.344 468.232,68.200 468.000 C 68.064 467.780,67.918 467.613,67.876 467.628 C 67.834 467.644,67.440 467.811,67.000 468.000 M52.984 488.827 C 52.528 489.564,53.132 489.725,53.810 489.048 C 54.369 488.488,54.375 488.400,53.852 488.400 C 53.519 488.400,53.129 488.592,52.984 488.827 " stroke="none" fill="#f0ecec" fill-rule="evenodd"></path><path id="path3" d="M111.839 49.138 C 111.700 49.361,111.782 49.665,112.020 49.812 C 112.635 50.193,113.032 49.672,112.518 49.158 C 112.231 48.871,112.007 48.864,111.839 49.138 M114.277 49.100 C 113.915 49.736,114.065 52.007,114.453 51.767 C 114.673 51.631,114.768 51.434,114.663 51.330 C 114.559 51.225,114.624 50.613,114.809 49.970 C 115.107 48.929,114.727 48.308,114.277 49.100 M116.000 51.151 C 116.000 51.398,116.167 51.600,116.371 51.600 C 116.575 51.600,116.824 51.915,116.924 52.300 C 117.079 52.891,117.114 52.898,117.154 52.349 C 117.179 51.991,116.930 51.474,116.600 51.200 C 116.185 50.856,116.000 50.841,116.000 51.151 M315.700 52.888 C 315.205 53.127,314.800 53.479,314.800 53.670 C 314.800 53.862,315.250 53.724,315.800 53.363 C 317.267 52.402,317.216 52.157,315.700 52.888 M115.600 53.600 C 115.111 53.916,115.161 53.989,115.867 53.994 C 116.344 53.997,117.021 54.110,117.372 54.245 C 117.838 54.424,117.943 54.316,117.762 53.845 C 117.485 53.124,116.508 53.013,115.600 53.600 M287.400 55.200 C 287.105 55.678,287.889 55.678,289.000 55.200 C 289.714 54.893,289.685 54.853,288.724 54.828 C 288.132 54.813,287.536 54.980,287.400 55.200 M102.094 58.996 C 102.255 59.175,102.076 59.549,101.694 59.828 C 101.313 60.107,101.091 60.416,101.201 60.516 C 101.310 60.615,101.727 60.378,102.127 59.989 C 102.702 59.430,102.744 59.217,102.327 58.976 C 102.037 58.809,101.932 58.818,102.094 58.996 M246.400 59.965 C 246.400 60.371,247.423 60.311,247.855 59.878 C 248.008 59.725,247.743 59.600,247.267 59.600 C 246.790 59.600,246.400 59.764,246.400 59.965 M119.413 61.200 C 119.755 62.395,119.921 62.613,120.241 62.293 C 120.373 62.160,120.177 61.635,119.804 61.126 L 119.126 60.200 119.413 61.200 M372.100 60.676 C 372.485 60.776,372.800 61.036,372.800 61.253 C 372.800 61.470,372.983 61.534,373.207 61.396 C 373.842 61.003,373.247 60.395,372.276 60.446 C 371.600 60.482,371.559 60.534,372.100 60.676 M263.200 61.800 C 263.200 62.130,263.361 62.400,263.557 62.400 C 263.754 62.400,264.018 62.130,264.145 61.800 C 264.285 61.435,264.145 61.200,263.787 61.200 C 263.464 61.200,263.200 61.470,263.200 61.800 M125.801 70.281 C 126.139 70.960,126.669 71.725,126.977 71.981 C 127.980 72.814,127.230 70.968,126.155 69.957 L 125.184 69.046 125.801 70.281 M364.093 90.400 C 363.818 90.840,363.731 91.200,363.900 91.200 C 364.069 91.200,364.432 90.840,364.707 90.400 C 364.982 89.960,365.069 89.600,364.900 89.600 C 364.731 89.600,364.368 89.960,364.093 90.400 M97.839 96.556 C 97.961 96.876,98.344 97.246,98.688 97.378 C 99.663 97.752,99.614 97.469,98.568 96.687 C 97.851 96.150,97.670 96.118,97.839 96.556 M361.715 117.348 C 361.982 117.923,362.335 118.395,362.500 118.397 C 363.046 118.403,362.812 117.735,362.015 117.013 C 361.247 116.318,361.240 116.326,361.715 117.348 M128.030 129.882 C 128.564 130.477,129.196 131.181,129.435 131.446 C 129.710 131.750,130.078 131.796,130.435 131.570 C 130.897 131.277,130.878 131.211,130.327 131.206 C 129.957 131.203,129.270 130.660,128.800 130.000 C 128.330 129.340,127.746 128.800,127.503 128.800 C 127.260 128.800,127.497 129.287,128.030 129.882 M130.400 132.304 C 130.400 132.471,130.740 132.820,131.156 133.080 C 131.813 133.490,131.886 133.450,131.710 132.776 C 131.519 132.047,130.400 131.644,130.400 132.304 M154.800 141.600 C 154.800 141.820,155.059 142.000,155.376 142.000 C 155.693 142.000,156.064 141.820,156.200 141.600 C 156.336 141.380,156.077 141.200,155.624 141.200 C 155.171 141.200,154.800 141.380,154.800 141.600 M343.055 151.455 C 342.468 152.041,342.070 152.603,342.170 152.703 C 342.270 152.803,342.832 152.405,343.418 151.818 C 344.005 151.232,344.403 150.670,344.303 150.570 C 344.203 150.470,343.641 150.868,343.055 151.455 M336.600 162.000 C 336.202 162.440,335.994 162.800,336.138 162.800 C 336.282 162.800,336.760 162.440,337.200 162.000 C 337.640 161.560,337.848 161.200,337.662 161.200 C 337.476 161.200,336.998 161.560,336.600 162.000 M250.886 180.513 C 249.739 181.674,248.800 182.762,248.800 182.929 C 248.800 183.198,250.428 181.600,252.599 179.201 C 254.070 177.576,252.908 178.466,250.886 180.513 M324.900 182.623 C 324.311 183.263,324.262 183.600,324.757 183.600 C 325.098 183.600,325.737 182.396,325.509 182.183 C 325.449 182.127,325.175 182.325,324.900 182.623 M247.660 183.868 C 246.934 184.653,247.225 184.864,248.125 184.206 C 248.522 183.915,248.702 183.588,248.524 183.480 C 248.346 183.372,247.957 183.547,247.660 183.868 M245.400 186.264 C 243.503 188.549,243.348 189.174,245.156 187.249 C 246.060 186.287,246.800 185.342,246.800 185.149 C 246.800 184.620,246.696 184.703,245.400 186.264 M321.891 187.575 C 321.751 188.111,321.857 188.276,322.245 188.127 C 322.875 187.886,322.972 187.354,322.445 187.028 C 322.250 186.908,322.001 187.154,321.891 187.575 M309.699 205.991 C 309.012 207.090,309.074 207.383,309.832 206.625 C 310.180 206.277,310.404 205.813,310.331 205.592 C 310.257 205.372,309.973 205.551,309.699 205.991 M220.571 211.689 C 219.927 212.393,219.670 212.767,220.000 212.519 C 220.330 212.271,220.735 212.053,220.900 212.034 C 221.065 212.015,221.185 211.885,221.166 211.745 C 221.147 211.604,221.367 211.344,221.654 211.166 C 221.942 210.989,222.079 210.746,221.959 210.626 C 221.840 210.506,221.215 210.985,220.571 211.689 M212.443 220.041 C 211.477 221.118,210.815 222.000,210.972 222.000 C 211.129 222.000,211.469 221.764,211.729 221.476 C 211.988 221.188,212.820 220.288,213.578 219.476 C 214.337 218.664,214.787 218.018,214.578 218.041 C 214.370 218.063,213.410 218.963,212.443 220.041 M182.109 251.100 C 181.962 251.485,181.435 252.123,180.936 252.517 C 180.438 252.912,179.639 253.783,179.162 254.454 L 178.293 255.673 179.151 255.138 C 179.623 254.843,180.109 254.287,180.231 253.901 C 180.354 253.515,180.668 253.200,180.931 253.200 C 181.429 253.200,182.500 251.763,182.645 250.900 C 182.769 250.161,182.416 250.293,182.109 251.100 M286.938 253.417 C 286.578 254.355,286.967 254.466,287.519 253.582 C 287.828 253.087,287.854 252.800,287.591 252.800 C 287.362 252.800,287.068 253.078,286.938 253.417 M172.504 261.019 C 172.189 261.361,172.153 261.648,172.407 261.804 C 172.626 261.940,172.917 261.762,173.052 261.408 C 173.383 260.547,173.114 260.357,172.504 261.019 M102.230 278.852 C 101.807 279.263,101.649 279.600,101.881 279.600 C 102.343 279.600,103.409 278.465,103.157 278.242 C 103.071 278.166,102.654 278.440,102.230 278.852 M264.167 287.020 C 263.305 287.800,262.960 288.267,263.400 288.056 C 264.186 287.680,266.334 285.600,265.936 285.600 C 265.825 285.600,265.028 286.239,264.167 287.020 M257.304 294.194 C 256.541 295.061,257.299 295.196,258.170 294.349 C 258.735 293.800,258.788 293.604,258.370 293.615 C 258.056 293.624,257.577 293.884,257.304 294.194 M62.217 299.972 C 61.944 300.414,62.575 300.892,62.944 300.522 C 63.325 300.142,63.254 299.600,62.824 299.600 C 62.617 299.600,62.344 299.768,62.217 299.972 M250.029 302.654 C 249.092 303.845,248.909 304.701,249.758 303.916 C 250.065 303.632,250.234 303.265,250.134 303.100 C 250.035 302.935,250.124 302.800,250.334 302.800 C 250.543 302.800,250.818 302.530,250.945 302.200 C 251.287 301.308,250.960 301.470,250.029 302.654 M247.513 305.800 C 246.920 306.350,246.146 306.800,245.794 306.800 C 245.441 306.800,245.255 306.966,245.380 307.168 C 245.505 307.370,245.128 307.913,244.543 308.374 C 243.957 308.834,243.556 309.289,243.651 309.384 C 243.746 309.479,244.988 308.493,246.412 307.193 C 247.835 305.893,248.908 304.823,248.796 304.815 C 248.684 304.807,248.107 305.250,247.513 305.800 M228.293 326.000 C 227.916 326.440,227.746 326.800,227.915 326.800 C 228.084 326.800,228.530 326.440,228.907 326.000 C 229.284 325.560,229.454 325.200,229.285 325.200 C 229.116 325.200,228.670 325.560,228.293 326.000 M220.000 334.536 C 220.000 334.830,219.527 335.287,218.948 335.551 C 218.370 335.814,217.994 336.128,218.114 336.247 C 218.463 336.596,220.400 335.161,220.400 334.554 C 220.400 334.249,220.310 334.000,220.200 334.000 C 220.090 334.000,220.000 334.241,220.000 334.536 M215.754 338.091 C 214.113 339.359,213.488 340.000,213.893 340.000 C 214.086 340.000,214.931 339.370,215.772 338.600 C 217.498 337.019,217.489 336.751,215.754 338.091 M32.169 347.400 C 32.170 352.020,32.228 353.855,32.299 351.478 C 32.370 349.101,32.369 345.321,32.298 343.078 C 32.227 340.835,32.169 342.780,32.169 347.400 M198.400 354.733 C 198.400 354.990,198.130 355.200,197.800 355.200 C 197.470 355.200,197.200 355.367,197.200 355.571 C 197.200 355.775,196.885 356.024,196.500 356.124 C 196.006 356.253,195.977 356.318,196.400 356.345 C 197.195 356.394,199.070 354.936,198.694 354.561 C 198.532 354.399,198.400 354.477,198.400 354.733 M32.093 357.600 C 32.093 358.370,32.175 358.685,32.276 358.300 C 32.376 357.915,32.376 357.285,32.276 356.900 C 32.175 356.515,32.093 356.830,32.093 357.600 M148.000 385.648 C 147.230 386.061,146.895 386.399,147.256 386.399 C 147.616 386.400,148.336 386.046,148.856 385.613 C 150.000 384.660,149.831 384.667,148.000 385.648 M32.134 389.200 C 32.134 390.850,32.205 391.525,32.291 390.700 C 32.378 389.875,32.378 388.525,32.291 387.700 C 32.205 386.875,32.134 387.550,32.134 389.200 M137.400 395.435 L 136.200 396.466 137.500 395.606 C 138.215 395.133,138.800 394.668,138.800 394.573 C 138.800 394.273,138.631 394.378,137.400 395.435 M32.101 404.200 C 32.105 405.080,32.187 405.393,32.283 404.895 C 32.379 404.398,32.375 403.678,32.275 403.295 C 32.175 402.913,32.096 403.320,32.101 404.200 M126.100 404.100 C 126.155 404.375,125.975 404.555,125.700 404.500 C 125.425 404.445,125.200 404.580,125.200 404.800 C 125.200 405.342,125.736 405.304,126.320 404.720 C 126.904 404.136,126.942 403.600,126.400 403.600 C 126.180 403.600,126.045 403.825,126.100 404.100 M119.700 409.784 C 119.205 410.279,118.800 410.814,118.800 410.973 C 118.800 411.346,121.149 409.496,121.178 409.100 C 121.216 408.581,120.633 408.851,119.700 409.784 M111.680 417.680 C 111.116 418.244,111.053 418.800,111.553 418.800 C 111.748 418.800,112.001 418.440,112.116 418.000 C 112.360 417.066,112.322 417.038,111.680 417.680 M32.093 423.600 C 32.093 424.370,32.175 424.685,32.276 424.300 C 32.376 423.915,32.376 423.285,32.276 422.900 C 32.175 422.515,32.093 422.830,32.093 423.600 M103.429 427.029 C 102.736 427.721,102.643 428.000,103.104 428.000 C 103.271 428.000,103.632 427.640,103.907 427.200 C 104.506 426.241,104.293 426.164,103.429 427.029 M32.006 435.033 C 32.009 435.895,32.170 436.849,32.363 437.154 C 32.578 437.493,32.632 436.949,32.504 435.754 C 32.242 433.317,31.998 432.964,32.006 435.033 M96.200 434.800 C 96.336 435.020,96.167 435.200,95.824 435.200 C 95.481 435.200,95.200 435.380,95.200 435.600 C 95.200 436.142,95.736 436.104,96.320 435.520 C 96.913 434.927,96.940 434.400,96.376 434.400 C 96.143 434.400,96.064 434.580,96.200 434.800 M92.200 438.800 C 91.802 439.240,91.678 439.600,91.924 439.600 C 92.170 439.600,92.565 439.240,92.800 438.800 C 93.035 438.360,93.160 438.000,93.076 438.000 C 92.992 438.000,92.598 438.360,92.200 438.800 M78.622 453.564 C 78.333 454.032,78.776 455.200,79.243 455.200 C 79.439 455.200,79.600 454.750,79.600 454.200 C 79.600 453.212,79.058 452.859,78.622 453.564 M77.467 456.267 C 77.054 456.679,77.152 458.077,77.575 457.816 C 77.781 457.688,77.922 457.228,77.889 456.792 C 77.822 455.897,77.829 455.905,77.467 456.267 M32.013 461.100 C 32.034 461.608,33.200 462.982,33.200 462.500 C 33.200 462.251,33.017 461.934,32.793 461.796 C 32.570 461.658,32.491 461.377,32.617 461.172 C 32.744 460.968,32.657 460.800,32.424 460.800 C 32.191 460.800,32.006 460.935,32.013 461.100 M68.800 465.513 C 68.800 465.979,70.722 466.050,71.004 465.594 C 71.143 465.368,70.725 465.200,70.024 465.200 C 69.351 465.200,68.800 465.341,68.800 465.513 M67.000 468.000 C 66.296 468.302,66.335 468.347,67.324 468.372 C 67.976 468.388,68.344 468.232,68.200 468.000 C 68.064 467.780,67.918 467.613,67.876 467.628 C 67.834 467.644,67.440 467.811,67.000 468.000 M52.984 488.827 C 52.528 489.564,53.132 489.725,53.810 489.048 C 54.369 488.488,54.375 488.400,53.852 488.400 C 53.519 488.400,53.129 488.592,52.984 488.827 " stroke="none" fill="#f0ecec" fill-rule="evenodd"></path><path id="path4" d="M111.839 49.138 C 111.700 49.361,111.782 49.665,112.020 49.812 C 112.635 50.193,113.032 49.672,112.518 49.158 C 112.231 48.871,112.007 48.864,111.839 49.138 M114.277 49.100 C 113.915 49.736,114.065 52.007,114.453 51.767 C 114.673 51.631,114.768 51.434,114.663 51.330 C 114.559 51.225,114.624 50.613,114.809 49.970 C 115.107 48.929,114.727 48.308,114.277 49.100 M116.000 51.151 C 116.000 51.398,116.167 51.600,116.371 51.600 C 116.575 51.600,116.824 51.915,116.924 52.300 C 117.079 52.891,117.114 52.898,117.154 52.349 C 117.179 51.991,116.930 51.474,116.600 51.200 C 116.185 50.856,116.000 50.841,116.000 51.151 M315.700 52.888 C 315.205 53.127,314.800 53.479,314.800 53.670 C 314.800 53.862,315.250 53.724,315.800 53.363 C 317.267 52.402,317.216 52.157,315.700 52.888 M115.600 53.600 C 115.111 53.916,115.161 53.989,115.867 53.994 C 116.344 53.997,117.021 54.110,117.372 54.245 C 117.838 54.424,117.943 54.316,117.762 53.845 C 117.485 53.124,116.508 53.013,115.600 53.600 M287.400 55.200 C 287.105 55.678,287.889 55.678,289.000 55.200 C 289.714 54.893,289.685 54.853,288.724 54.828 C 288.132 54.813,287.536 54.980,287.400 55.200 M102.094 58.996 C 102.255 59.175,102.076 59.549,101.694 59.828 C 101.313 60.107,101.091 60.416,101.201 60.516 C 101.310 60.615,101.727 60.378,102.127 59.989 C 102.702 59.430,102.744 59.217,102.327 58.976 C 102.037 58.809,101.932 58.818,102.094 58.996 M246.400 59.965 C 246.400 60.371,247.423 60.311,247.855 59.878 C 248.008 59.725,247.743 59.600,247.267 59.600 C 246.790 59.600,246.400 59.764,246.400 59.965 M119.413 61.200 C 119.755 62.395,119.921 62.613,120.241 62.293 C 120.373 62.160,120.177 61.635,119.804 61.126 L 119.126 60.200 119.413 61.200 M372.100 60.676 C 372.485 60.776,372.800 61.036,372.800 61.253 C 372.800 61.470,372.983 61.534,373.207 61.396 C 373.842 61.003,373.247 60.395,372.276 60.446 C 371.600 60.482,371.559 60.534,372.100 60.676 M263.200 61.800 C 263.200 62.130,263.361 62.400,263.557 62.400 C 263.754 62.400,264.018 62.130,264.145 61.800 C 264.285 61.435,264.145 61.200,263.787 61.200 C 263.464 61.200,263.200 61.470,263.200 61.800 M125.801 70.281 C 126.139 70.960,126.669 71.725,126.977 71.981 C 127.980 72.814,127.230 70.968,126.155 69.957 L 125.184 69.046 125.801 70.281 M364.093 90.400 C 363.818 90.840,363.731 91.200,363.900 91.200 C 364.069 91.200,364.432 90.840,364.707 90.400 C 364.982 89.960,365.069 89.600,364.900 89.600 C 364.731 89.600,364.368 89.960,364.093 90.400 M97.839 96.556 C 97.961 96.876,98.344 97.246,98.688 97.378 C 99.663 97.752,99.614 97.469,98.568 96.687 C 97.851 96.150,97.670 96.118,97.839 96.556 M361.715 117.348 C 361.982 117.923,362.335 118.395,362.500 118.397 C 363.046 118.403,362.812 117.735,362.015 117.013 C 361.247 116.318,361.240 116.326,361.715 117.348 M128.030 129.882 C 128.564 130.477,129.196 131.181,129.435 131.446 C 129.710 131.750,130.078 131.796,130.435 131.570 C 130.897 131.277,130.878 131.211,130.327 131.206 C 129.957 131.203,129.270 130.660,128.800 130.000 C 128.330 129.340,127.746 128.800,127.503 128.800 C 127.260 128.800,127.497 129.287,128.030 129.882 M130.400 132.304 C 130.400 132.471,130.740 132.820,131.156 133.080 C 131.813 133.490,131.886 133.450,131.710 132.776 C 131.519 132.047,130.400 131.644,130.400 132.304 M154.800 141.600 C 154.800 141.820,155.059 142.000,155.376 142.000 C 155.693 142.000,156.064 141.820,156.200 141.600 C 156.336 141.380,156.077 141.200,155.624 141.200 C 155.171 141.200,154.800 141.380,154.800 141.600 M343.055 151.455 C 342.468 152.041,342.070 152.603,342.170 152.703 C 342.270 152.803,342.832 152.405,343.418 151.818 C 344.005 151.232,344.403 150.670,344.303 150.570 C 344.203 150.470,343.641 150.868,343.055 151.455 M336.600 162.000 C 336.202 162.440,335.994 162.800,336.138 162.800 C 336.282 162.800,336.760 162.440,337.200 162.000 C 337.640 161.560,337.848 161.200,337.662 161.200 C 337.476 161.200,336.998 161.560,336.600 162.000 M250.886 180.513 C 249.739 181.674,248.800 182.762,248.800 182.929 C 248.800 183.198,250.428 181.600,252.599 179.201 C 254.070 177.576,252.908 178.466,250.886 180.513 M324.900 182.623 C 324.311 183.263,324.262 183.600,324.757 183.600 C 325.098 183.600,325.737 182.396,325.509 182.183 C 325.449 182.127,325.175 182.325,324.900 182.623 M247.660 183.868 C 246.934 184.653,247.225 184.864,248.125 184.206 C 248.522 183.915,248.702 183.588,248.524 183.480 C 248.346 183.372,247.957 183.547,247.660 183.868 M245.400 186.264 C 243.503 188.549,243.348 189.174,245.156 187.249 C 246.060 186.287,246.800 185.342,246.800 185.149 C 246.800 184.620,246.696 184.703,245.400 186.264 M321.891 187.575 C 321.751 188.111,321.857 188.276,322.245 188.127 C 322.875 187.886,322.972 187.354,322.445 187.028 C 322.250 186.908,322.001 187.154,321.891 187.575 M309.699 205.991 C 309.012 207.090,309.074 207.383,309.832 206.625 C 310.180 206.277,310.404 205.813,310.331 205.592 C 310.257 205.372,309.973 205.551,309.699 205.991 M220.571 211.689 C 219.927 212.393,219.670 212.767,220.000 212.519 C 220.330 212.271,220.735 212.053,220.900 212.034 C 221.065 212.015,221.185 211.885,221.166 211.745 C 221.147 211.604,221.367 211.344,221.654 211.166 C 221.942 210.989,222.079 210.746,221.959 210.626 C 221.840 210.506,221.215 210.985,220.571 211.689 M212.443 220.041 C 211.477 221.118,210.815 222.000,210.972 222.000 C 211.129 222.000,211.469 221.764,211.729 221.476 C 211.988 221.188,212.820 220.288,213.578 219.476 C 214.337 218.664,214.787 218.018,214.578 218.041 C 214.370 218.063,213.410 218.963,212.443 220.041 M182.109 251.100 C 181.962 251.485,181.435 252.123,180.936 252.517 C 180.438 252.912,179.639 253.783,179.162 254.454 L 178.293 255.673 179.151 255.138 C 179.623 254.843,180.109 254.287,180.231 253.901 C 180.354 253.515,180.668 253.200,180.931 253.200 C 181.429 253.200,182.500 251.763,182.645 250.900 C 182.769 250.161,182.416 250.293,182.109 251.100 M286.938 253.417 C 286.578 254.355,286.967 254.466,287.519 253.582 C 287.828 253.087,287.854 252.800,287.591 252.800 C 287.362 252.800,287.068 253.078,286.938 253.417 M172.504 261.019 C 172.189 261.361,172.153 261.648,172.407 261.804 C 172.626 261.940,172.917 261.762,173.052 261.408 C 173.383 260.547,173.114 260.357,172.504 261.019 M102.230 278.852 C 101.807 279.263,101.649 279.600,101.881 279.600 C 102.343 279.600,103.409 278.465,103.157 278.242 C 103.071 278.166,102.654 278.440,102.230 278.852 M264.167 287.020 C 263.305 287.800,262.960 288.267,263.400 288.056 C 264.186 287.680,266.334 285.600,265.936 285.600 C 265.825 285.600,265.028 286.239,264.167 287.020 M257.304 294.194 C 256.541 295.061,257.299 295.196,258.170 294.349 C 258.735 293.800,258.788 293.604,258.370 293.615 C 258.056 293.624,257.577 293.884,257.304 294.194 M62.217 299.972 C 61.944 300.414,62.575 300.892,62.944 300.522 C 63.325 300.142,63.254 299.600,62.824 299.600 C 62.617 299.600,62.344 299.768,62.217 299.972 M250.029 302.654 C 249.092 303.845,248.909 304.701,249.758 303.916 C 250.065 303.632,250.234 303.265,250.134 303.100 C 250.035 302.935,250.124 302.800,250.334 302.800 C 250.543 302.800,250.818 302.530,250.945 302.200 C 251.287 301.308,250.960 301.470,250.029 302.654 M247.513 305.800 C 246.920 306.350,246.146 306.800,245.794 306.800 C 245.441 306.800,245.255 306.966,245.380 307.168 C 245.505 307.370,245.128 307.913,244.543 308.374 C 243.957 308.834,243.556 309.289,243.651 309.384 C 243.746 309.479,244.988 308.493,246.412 307.193 C 247.835 305.893,248.908 304.823,248.796 304.815 C 248.684 304.807,248.107 305.250,247.513 305.800 M228.293 326.000 C 227.916 326.440,227.746 326.800,227.915 326.800 C 228.084 326.800,228.530 326.440,228.907 326.000 C 229.284 325.560,229.454 325.200,229.285 325.200 C 229.116 325.200,228.670 325.560,228.293 326.000 M220.000 334.536 C 220.000 334.830,219.527 335.287,218.948 335.551 C 218.370 335.814,217.994 336.128,218.114 336.247 C 218.463 336.596,220.400 335.161,220.400 334.554 C 220.400 334.249,220.310 334.000,220.200 334.000 C 220.090 334.000,220.000 334.241,220.000 334.536 M215.754 338.091 C 214.113 339.359,213.488 340.000,213.893 340.000 C 214.086 340.000,214.931 339.370,215.772 338.600 C 217.498 337.019,217.489 336.751,215.754 338.091 M32.169 347.400 C 32.170 352.020,32.228 353.855,32.299 351.478 C 32.370 349.101,32.369 345.321,32.298 343.078 C 32.227 340.835,32.169 342.780,32.169 347.400 M198.400 354.733 C 198.400 354.990,198.130 355.200,197.800 355.200 C 197.470 355.200,197.200 355.367,197.200 355.571 C 197.200 355.775,196.885 356.024,196.500 356.124 C 196.006 356.253,195.977 356.318,196.400 356.345 C 197.195 356.394,199.070 354.936,198.694 354.561 C 198.532 354.399,198.400 354.477,198.400 354.733 M32.093 357.600 C 32.093 358.370,32.175 358.685,32.276 358.300 C 32.376 357.915,32.376 357.285,32.276 356.900 C 32.175 356.515,32.093 356.830,32.093 357.600 M148.000 385.648 C 147.230 386.061,146.895 386.399,147.256 386.399 C 147.616 386.400,148.336 386.046,148.856 385.613 C 150.000 384.660,149.831 384.667,148.000 385.648 M32.134 389.200 C 32.134 390.850,32.205 391.525,32.291 390.700 C 32.378 389.875,32.378 388.525,32.291 387.700 C 32.205 386.875,32.134 387.550,32.134 389.200 M137.400 395.435 L 136.200 396.466 137.500 395.606 C 138.215 395.133,138.800 394.668,138.800 394.573 C 138.800 394.273,138.631 394.378,137.400 395.435 M32.101 404.200 C 32.105 405.080,32.187 405.393,32.283 404.895 C 32.379 404.398,32.375 403.678,32.275 403.295 C 32.175 402.913,32.096 403.320,32.101 404.200 M126.100 404.100 C 126.155 404.375,125.975 404.555,125.700 404.500 C 125.425 404.445,125.200 404.580,125.200 404.800 C 125.200 405.342,125.736 405.304,126.320 404.720 C 126.904 404.136,126.942 403.600,126.400 403.600 C 126.180 403.600,126.045 403.825,126.100 404.100 M119.700 409.784 C 119.205 410.279,118.800 410.814,118.800 410.973 C 118.800 411.346,121.149 409.496,121.178 409.100 C 121.216 408.581,120.633 408.851,119.700 409.784 M111.680 417.680 C 111.116 418.244,111.053 418.800,111.553 418.800 C 111.748 418.800,112.001 418.440,112.116 418.000 C 112.360 417.066,112.322 417.038,111.680 417.680 M32.093 423.600 C 32.093 424.370,32.175 424.685,32.276 424.300 C 32.376 423.915,32.376 423.285,32.276 422.900 C 32.175 422.515,32.093 422.830,32.093 423.600 M103.429 427.029 C 102.736 427.721,102.643 428.000,103.104 428.000 C 103.271 428.000,103.632 427.640,103.907 427.200 C 104.506 426.241,104.293 426.164,103.429 427.029 M32.006 435.033 C 32.009 435.895,32.170 436.849,32.363 437.154 C 32.578 437.493,32.632 436.949,32.504 435.754 C 32.242 433.317,31.998 432.964,32.006 435.033 M96.200 434.800 C 96.336 435.020,96.167 435.200,95.824 435.200 C 95.481 435.200,95.200 435.380,95.200 435.600 C 95.200 436.142,95.736 436.104,96.320 435.520 C 96.913 434.927,96.940 434.400,96.376 434.400 C 96.143 434.400,96.064 434.580,96.200 434.800 M92.200 438.800 C 91.802 439.240,91.678 439.600,91.924 439.600 C 92.170 439.600,92.565 439.240,92.800 438.800 C 93.035 438.360,93.160 438.000,93.076 438.000 C 92.992 438.000,92.598 438.360,92.200 438.800 M78.622 453.564 C 78.333 454.032,78.776 455.200,79.243 455.200 C 79.439 455.200,79.600 454.750,79.600 454.200 C 79.600 453.212,79.058 452.859,78.622 453.564 M77.467 456.267 C 77.054 456.679,77.152 458.077,77.575 457.816 C 77.781 457.688,77.922 457.228,77.889 456.792 C 77.822 455.897,77.829 455.905,77.467 456.267 M32.013 461.100 C 32.034 461.608,33.200 462.982,33.200 462.500 C 33.200 462.251,33.017 461.934,32.793 461.796 C 32.570 461.658,32.491 461.377,32.617 461.172 C 32.744 460.968,32.657 460.800,32.424 460.800 C 32.191 460.800,32.006 460.935,32.013 461.100 M68.800 465.513 C 68.800 465.979,70.722 466.050,71.004 465.594 C 71.143 465.368,70.725 465.200,70.024 465.200 C 69.351 465.200,68.800 465.341,68.800 465.513 M67.000 468.000 C 66.296 468.302,66.335 468.347,67.324 468.372 C 67.976 468.388,68.344 468.232,68.200 468.000 C 68.064 467.780,67.918 467.613,67.876 467.628 C 67.834 467.644,67.440 467.811,67.000 468.000 M52.984 488.827 C 52.528 489.564,53.132 489.725,53.810 489.048 C 54.369 488.488,54.375 488.400,53.852 488.400 C 53.519 488.400,53.129 488.592,52.984 488.827 " stroke="none" fill="#f0ecec" fill-rule="evenodd"></path></g></svg>