<?xml version="1.0" encoding="utf-8"?>
<!-- Generator: Adobe Illustrator 26.0.1, SVG Export Plug-In . SVG Version: 6.00 Build 0)  -->
<svg version="1.1" xmlns="http://www.w3.org/2000/svg" xmlns:xlink="http://www.w3.org/1999/xlink" x="0px" y="0px"
	 viewBox="0 0 512 512" style="enable-background:new 0 0 512 512;" xml:space="preserve">
<style type="text/css">
	.st0{display:none;}
	.st1{fill:#FFFFFF;}
</style>
<g id="Layer_3" class="st0">
	
		<image style="display:inline;overflow:visible;" width="1119" height="897" xlink:href="2E195F3B.jpg"  transform="matrix(0.4749 0 0 0.4749 0 32.2251)">
	</image>
</g>
<g id="Layer_2">
	<path class="st1" d="M123.3,401.1v-4.6v-1.9l-1.6-2v-3.1l-0.8-0.7l-1.4-7l-2.6-4.5v-3.3l-2.9-1.4l-1.4-2.3l1.2-2.5l-1.7-1.2
		l-0.6-3.1l-2-3.7l0.6-4.4l1.2-1.9l-0.3-3.4L106,349l-1.1-1.9L102,346l-0.9-1.7l-3.6-1.2l-4.2-0.7l-0.8-4.5l1.9-2.6l2.2-4.2
		l-2.1-2.3c0,0,1.3-2.3,1.2-2.6c-0.1-0.3-1.1-5.3-1.1-5.3l-1.3-2l-0.9,0.8l-1.4-2.3h-2.5l-2.3-1.6h-1.6l-1.4,2H82l-3.1,2.4l-2.9-0.5
		l-1,0.1l-0.8,0.3l-1.4,2.2l-2.1,0.2l-0.6,1.7l-4,2.6l-0.5,1.5l-0.9-1.1l-1.5-0.3l-1.2-2.3c0,0-3.9-2.3-4.2-2.2
		c-0.3,0.1-3.6,0.3-3.6,0.3l-1.5-2.3l-1.2,0.5l-1.8-2.3l1-3.8h-5.5l-1.2,1.3l-0.8,1.6c0,0-3.9-0.1-4-0.5c-0.1-0.4,0-2.4,0-2.4l0-1.9
		l1-1.8l-1.5-1.6l2.1-1.8l-3.8-3.9l-2.7-5.4l-4.5-3.8h-1.6l-0.7,1.3l-1.1,0.2l-0.6,1.6l-1.6,1.8l-4.7,2.5l-3.7-0.5v-1.3l-1.8-1
		l-0.6,1.9l-10.4,2.4l3.3,2.3l0.8,1.9l-0.1,1.8l1.1,0.5L8,312.3l0.4,2.2l3.3,1.4l1.8-1.4l-0.2,2.3l2,1.3l1.5,2.8
		c0,0-0.1,1.4,0.1,1.8c0.2,0.5,0.6,1.1,0.6,1.1l-1,0.5l3.3,2.7c0,0,0.4,2.2,0.1,2.1s-1.1-0.1-1.1-0.1l1.6,1.5l-1.5,1.2l3.8,1.3
		l-1.4,2.8l2.3,1.1l3.7,1.8l1.3,1.7l0.5,0.4c0,0,0.3,0.5,0.6,0.9c0.3,0.4,0.3,1.2,0.3,1.2s1.6,0.9,1.9,1.1s-0.7,1.7-0.4,1.9
		c0.3,0.2,1.8,0.7,1.8,0.7l0.4,2.4l1.7,0.8l-0.6,1.7l1.5,0.3l0.3,1.7l0.5,0.3l0.1,6l2.1-1.4l0.6,0.9l0.1,1l3.1-0.5l0.9,1.5l2.7,1
		l1.5,0.6l2.8-1l7.8,9.9l0.7,3.7l2.5,1.5l1.3-0.2l-0.8,4.3l0.8,2.4l4,1.2l4.6,2.5l3.3-1.1l0.9,1.7c0,0,0.8-0.1,1.1,0.3
		s0.4,1.8,0.4,1.8l2.5-0.9l1.3,0.3l4-0.1l2.6,1.6l3.6,0.4l1.5,0.5l0.6-0.6l0.2,2.2c0,0,1.6,0.1,2.2,0.3c0.6,0.2,2.9,0,2.9,0l2.9,3.2
		l3.2-1.2l3.4,0.9c0,0,5.1,1.7,5.3,1.5s2.3-2.6,2.6-2.4c0.3,0.2,1.9,1.5,1.9,1.5l2.6,1.7L123.3,401.1z"/>
</g>
<g id="Layer_4">
	<path class="st1" d="M44.5,156.9c0,0.3,0,1,0,1.3c0,0.3,0.5,1.4,0.6,1.5c0,0.1-0.4,0-0.4,0s-1-0.3-1.2-0.4c-0.1-0.1-1-0.6-1-0.6
		l-1-0.4l-0.7-0.9v-0.9c0,0,0.9-0.4,1.2-0.4c0.3,0,1.2,0.2,1.2,0.2l0.8,0.5H44.5z"/>
	<path class="st1" d="M28.5,149.7c0,0.4-0.2,1.7-0.3,1.9s-0.7,1.3-0.7,1.3s-1.1,0.4-1.2,0.4c-0.1,0-1.3-0.5-1.3-0.5s-0.1-1-0.3-1.3
		s-0.7-1-0.9-1.1c-0.2-0.2-1.2-0.9-1.2-0.9s-0.1-1,0-1.1c0.1-0.2,2.3-1.5,2.3-1.5h1.5c0,0,1,1.4,1.1,1.7
		C27.6,148.8,28.5,149.7,28.5,149.7z"/>
	<path class="st1" d="M21.9,293.3c0,0.1-0.1,1.2-0.1,1.4c0,0.2-0.1,0.7-0.1,0.8s-0.2,0.9-0.2,0.9s-0.9-0.6-1-0.6
		c-0.1,0-0.6-0.5-0.8-0.7c-0.2-0.2-0.8-1.2-0.8-1.2s-0.6-0.6-0.3-0.6c0.3,0,1.1-0.1,1.3-0.1s1.7,0.1,1.9,0.1
		C21.9,293.3,21.9,293.3,21.9,293.3z"/>
	<path class="st1" d="M486.9,221.7l-1.4-1.6l-0.4-1.3l-0.7-1l1.1-1.1c0,0,1,0.3,1.1,0.6c0.1,0.4,0.3,1.3,0.3,1.4
		c0,0,0.2,1.5,0.2,1.6s0.2,1.1,0.2,1.1L486.9,221.7z"/>
	<path class="st1" d="M426.4,271.3c0,0.1,0.5,1,0.5,1s-0.3,0.3-0.5,0.3c-0.2,0-0.4,0-0.5-0.2c-0.1-0.1-0.1-0.2,0-0.4
		S426.4,271.3,426.4,271.3z"/>
	<path class="st1" d="M385.5,379.6c0,0.4-1,1.6-1.1,1.8c-0.1,0.2-4,5.3-4,5.3s0.5,0.4,0.8,0.5s3.3-0.9,3.3-0.9l1.3-1.9L385.5,379.6z
		"/>
</g>
<g id="Layer_5">
	<path class="st1" d="M334.2,59.6v3.7l-2,1.4l-0.4,2.9l-3.2,4.2l-4.6,5.4l-3.4,5.5l-1.1,2.8l-2.1,3.7l-8.5,4l-5.6,5.8H299l-4.2,0.2
		l-2.2,1.5c0,0-2.4-1.2-2.5-1c0,0.2-1.5,3.2-1.5,3.4c0,0.2,0.4,2.4,0.4,2.4l-2.4,1.7l-2.3,0.7v2.7v1l-0.4,0.9v1.7v0.9h-1.1l-0.4,1.5
		l-1.8-0.5l-0.9,0.8c0,0,0.1,1.1,0.2,1.2c0.1,0.1,1,3,1,3h-1.5L276,123l-1.2,1.2l1.6,2l-0.8,4.1l-0.8,1.4l-3.6,0.7h-4.5l-0.9,3.2
		h-3.2h-1.8l-0.3-2.2c0,0-1.5,0.2-1.5-0.2c-0.1-0.4-0.6-1.6-0.6-1.6l-1.9,0c0,0-2.7,0.1-2.8,0s-2.2-1.7-2.2-1.7s-1.1,1.2-1,1.3
		c0.1,0.1,0,1,0,1l-3,0.3l-1,2c0,0-1.3,0.3-1.5,0.1c-0.2-0.1-2-2.2-2-2.2l-1.5-1.2c0,0,0.5-4.2,0.3-4.2c-0.1,0-2-0.3-2-0.3l-1.2,0.6
		l-2.4-1.1l-3.5,0.4l-3.6-1.1l-3.4-2.7c0,0-1.8-0.7-1.9-1c-0.1-0.3-2.2-3-2.5-3.1c-0.2-0.1-1-0.3-1-0.3s0.4-1.9,0.4-2.1
		c0-0.1-0.4-4.2-0.4-4.2l-3.8-0.9l0.7-1.2l-0.4-0.8l1.5-2.3l0.5-0.8l-2.9-0.2c0,0-0.3-2-0.5-2.1c-0.1,0-0.7-0.4-0.7-0.4s0-1.3,0-1.4
		c0-0.1-0.1-0.1-1.1-0.6s-2.6-1.8-2.6-1.8s-0.2-0.3,0-0.7c0.2-0.4,1.3-1.8,1.2-1.9s-0.2-0.9-1-1.3c-0.7-0.4-1-0.5-1.6-1.3
		s-1.1-1.5-1.5-1.8s-0.6-2.3-0.6-2.3l-0.4-1.2l-1.1,0.6l-2.1,0.6c0,0-0.4,1.2-0.4,1.5c0,0.3,0,1.3,0,1.3s-1.8-0.4-2.1-0.5
		c-0.3-0.1-0.9-0.1-0.9-0.1l-1.2,0.3v-1.5c-0.3-0.2-1.4-0.9-1.4-0.9l-0.3-0.7l-0.7-0.8l0.6-1.7l0.6-2.3l-0.3-1.8
		c0,0-1.7-0.2-2.2-0.5c-0.5-0.3-0.9-0.6-1.2-0.7c-0.2-0.1-1.2-0.7-1.5-1.2c-0.3-0.5-1.2-1.5-1.2-1.5s-0.8,0.2-0.9,0
		c-0.1-0.1,1-4,1-4s-1.3-1.5-1.6-1.7c-0.3-0.1-1.1-0.5-1.1-0.5l-1.4,0.4l-1,0.8c0,0-0.3-0.3-0.9-0.6c-0.5-0.3-0.8-0.9-1.1-1.2
		s-1.2-1-1.4-1.1c-0.2-0.1-0.6-2-0.6-2s-1.6,0.4-1.8,0.2c-0.1-0.2-0.5-1.3-0.7-1.5c-0.2-0.2-1.4-1.1-1.5-1.4s0.3,0.1-0.2-0.3
		s-0.9-1.6-0.9-1.6l1.5-1.1c0,0-1-0.6-1.2-1.2c-0.2-0.6-0.7-2.4-0.7-2.4l-0.4-2.2l-2.2,1.3c0,0-1,0-1.1,0.1
		c-0.1,0.1-0.5,0.3-0.5,0.5c0,0.2,0.9,2.1,0.9,2.1l-3.7-0.2l-1.3-0.8l-1.2,0.4l-0.6,0.9l-1.7-1.2l-1.4,2.5l-1.8,1.1l-1.3-0.3
		l-1.3-1.5c0,0-0.6-1.1-0.5-1.7c0.1-0.7,0-3,0-3l-1.1-0.8v-1l-0.6-0.5l-1.4-0.8c0,0-1.2-0.2-1.3,0s0.3,0-0.1,0.2
		c-0.4,0.2-0.7,0.3-1.1,0.2c-0.3-0.1-0.6-0.2-1.1-0.5s-0.9-0.6-1.4-0.9s-1.5-0.8-2.1-1.4C148,52,148,52,148,52l-1.4,2.1v1.8
		l-0.4,3.1l-1.9,2.2l-3.3,2.6c0,0-3,1.9-3,2.1c0,0.1-1.2,1.9-1.2,1.9l-3.8,0.8c0,0-1.3,1.5-1.5,1.5s-2.6-1.5-2.6-1.5l-1.3,3.2
		l-0.8,2l0.3,4l1.6,3.5l-0.1,1.6l-0.5,1.2c0,0,0.6,1.2,0.6,1.3c0,0.1,0.5,1.8,0.7,1.9c0.2,0,1.6,0.7,1.8,0.7c0.2,0,0.2,0,0.2,0
		s0.7-1.3,0.8-1.6c0.1-0.3,1.4-1.3,1.4-1.3s0.5,0,0.6,0.2s0.6,1.2,0.7,1.5c0.1,0.4,1.2,1.3,1.2,1.3s0.2,0.2,1-0.1
		c0.8-0.4,2-0.4,2.3-0.1c0.3,0.3,0.8,1.3,0.5,1.9c-0.3,0.6-1.4,0.9-1.9,1.3c-0.5,0.4-0.7-0.1-0.8,0.7s0.1,2.6,0.1,2.6l0.6,1.5
		l1.6,1.5c0,0,0,1.5,0,1.7c0,0.2-0.1,1,0.8,1.5c1,0.5,2.9,1.3,2.9,1.3l3.8,1.8c0,0,1.1,0,1.2,0.9c0.1,0.9,0.3,1.7,0.5,1.8
		c0.1,0.1,0.1,0.2,0.8,0.5s0.9,0.7,1.4,0.8s1.9,0.2,2.1,0.3c0.2,0.1,0-0.4,1.3,0.7c1.3,1.1,1.9,1.4,1.9,1.4s0,0,0.5,0.2
		c0.5,0.1,3.1,1,3.1,1s0.5,0.3,1.3,0.6c0.8,0.3,1.7,0.5,2.1,0.9c0.4,0.4,1.3,1.3,1.3,1.3s0.1-0.2,0.6-0.5s0.6-0.4,1,0.2
		c0.4,0.6,0.2-0.1,0.4,0.6s0.7,0.7,0,1.1c-0.6,0.3-1.5,0.6-1.6,0.8c0,0.2,0.1,0.4,1.2,1.1c1.1,0.6,2.3,1.3,2.7,1.7
		c0.3,0.5,1.3,1.2,1.3,1.2c0.4,2.1,0.5,2.5,0.5,2.7s1,0.7,1.5,0.8c0.5,0.1,1.6,0.3,1.6,0.3s-0.6,1.1-0.6,1.3c0,0.1-0.7,0.8-1,1.2
		c-0.2,0.4-0.6,0.6-0.7,2c0,1.4,0.1,1.7-0.2,2.1c-0.3,0.4-0.8,0.7-1,0.7c-0.2,0-0.4,0-1.1,0.4s-2,0.3-2,1.5s-0.1,2-0.1,2.7
		c0,0.7-0.1,1.9,0,2.8s0.3,1.8,0.4,2.7s0,2-0.2,2.4c-0.2,0.4-0.2,0.6-0.7,0.9c-0.5,0.2-1,0.7-1.4,0.9c-0.4,0.2-0.8,0.9-1.7,0.6
		c-0.9-0.3-2.4-1.5-3-1.6c-0.6-0.1-2.8,0.1-2.8,0.3c0,0.2-3.9,6-4.1,6s-2.7-1-2.9-1.4c-0.1-0.4-1.3-3.6-1.3-3.6s-4.9,0-5.1,0
		c-0.1,0-2.1-0.4-2.1-0.4l-1.3-3.2l-6.6-6.2l-3.6,0.4l-1.2-1.1c0,0-2.5-0.2-2.7-0.4c-0.2-0.2-1.7-1-1.7-1c-0.7,0-3.1-0.3-3.3,0
		c-0.2,0.3-0.9,1.2-1,1.9c-0.1,0.8-2.2,1.9-2.2,1.9s-0.2,0-0.6-0.3c-0.4-0.2-1.3-1-1.3-1s-1.7-0.7-2.3-0.6c-0.6,0.1-6.1,1-6.1,1
		l-4.3-0.7c0,0-3.5-1.7-3.7-2.2c-0.2-0.5,0.8-0.9-0.8-1c-1.5-0.1-4.5-0.3-5.3-0.7s-4.6-2.6-4.7-2.9c0-0.2-4.9-5.9-4.9-5.9l3.3-5.7
		l1,0.4l0.8-0.9c0,0,0.1-0.5-0.4-0.8c-0.6-0.3-3-1-3-1l-2.3,0.9l-1.5-0.2l-1.9-1.8l-6.3-0.2v-1l-0.3-1.4l-1.4-1.5
		c0,0-1.4-0.7-2.2-1.1c-0.8-0.4-2.4-1.2-2.8-1.4c-0.4-0.3-2.5-2.5-2.8-2.7c-0.3-0.2-1-0.5-1-0.5s-1.1,0.5-1.4,1.1
		c-0.3,0.6-0.9,1-0.9,1s-0.1,0.5-0.8,0.6c-0.7,0.1-1.7,0.6-2,0.5s-1.1-0.3-1.4-0.4c-0.3-0.1-0.8-1.4-1-1.6c-0.2-0.2-0.1-0.5-0.6-0.6
		c-0.5-0.2-1.2-0.6-1.4-0.6c-0.2-0.1-2.7-0.6-2.7-0.6c-0.4-0.3-2.3-0.7-2.3-0.7l-0.5,0.6c0,0-1.2-0.5-1.5-0.4
		c-0.3,0.1-1.8,0.1-2,0.9c-0.2,0.8,0,2.1,0,2.1L44,108c0,0-1.6,0.6-1.8,0.8c-0.2,0.2-2.5,1.4-2.5,1.4l-2.5,1.3l-1,1.7l-0.5,2.4
		c0,0-0.7,0.6-1.3,1c-0.6,0.4-1.7,1.1-1.7,1.1s-1,0.2-1.5,0.6s-2.1,1.9-2.3,2.3c-0.2,0.4-0.4,1-0.7,1.2c-0.3,0.2-2,1.2-2,1.2
		s-0.6,0.2,0,0.5c0.6,0.3-0.3,0.9-0.3,0.9l2,2l0.7,0.6v1.3l0.9,0.5l-0.4,1.7l-0.1,1l-0.7,0.9l-1.2,0.5l-0.5,1.4c0,0-0.6,0.3,0,0.3
		c0.6,0.1,1.6-1,1.9-0.9c0.3,0.1,0.6,0.9,0.6,0.9s0.2,1.1,0.6,1.3c0.4,0.2,1.4,0.6,1.6,0.6s-0.6,0.3,0.2,0c0.8-0.3,0.9-0.5,2.1-1.4
		c1.2-0.8,1.9-1.4,1.9-1.4c0.4,0.5,0.7,0.8,1.1,1.2c0.4,0.5,1,1.3,1,1.3l0.3,0.4l1,1.8c0,0,0.8,0.2,1.2,0.4c0.4,0.2,1.5,0.8,1.5,0.8
		l0.6,1.1c0,0-0.2,1.5-0.3,1.7c-0.1,0.3-1.7,1.2-1.9,1.2c-0.2,0-2.5-0.7-2.5-0.7s1,1.5,0.5,1.4s-3.8,0.1-3.8,0.1l-1-0.5l-0.8,1.7
		l-1.4,0.1l-0.2,1.2l-0.1,2.7c0,0-1.1,1.2-0.8,1.2c0.3,0,2.1,0.5,2.6,0.4c0.5-0.1,1.6-0.8,1.9-0.6s0.5,1.3,0.5,1.3s0.8-1,0.8-1.2
		c0.1-0.3,0.1-3.7,0.1-3.7l2.1,1.1c0,0,1,0.5,1,0.6c0.1,0.2-0.7,1.5-0.7,1.5l0.4,1.4l1.2,0.3c0,0,0.2,0.1,0.5,0
		c0.3-0.1,1.6,0.6,1.8,0.6c0.2,0.1,0.2,0.3,0.8,0.6c0.6,0.3,1.1,0.5,1.3,0.8c0.1,0.3-1.4-0.1-1.3,0c0.2,0.1,0.6-0.1,1,0.5
		s0.6,1.2,0.8,1.4c0.2,0.2,1.1,0.2,1.5,0.6c0.5,0.4,0.5,0.4,0.5,0.4l0.1-2l1.2-1l1.2-0.3l1.1,2.3c0,0,1,1.3,1.2,1
		c0.2-0.3,3.2,0,3.2,0l0.5,0.7l1.7-0.3l1.8-0.9c0,0-0.6-1.3-0.2-1.3c0.5-0.1,4.2,0.7,4.2,0.7l-2,1.8l-1.1,0.6l1.7,3.6l3.2-0.4
		c0,0,2.1,2.5,2.1,2.7c-0.1,0.3-0.8,2-0.8,2h2.6c0,0,1.6,2.3,2.1,2.3s1.5,0.7,1.5,0.7s1-0.8,1.2,0c0.1,0.8,0.1,2.1,0.1,2.1l1.6-0.9
		l1.4,0.9l0.3,0.6c0,0-0.1,0.5,0.1,0.9c0.2,0.5,0.3,1,0.3,1.4c0.1,0.5-0.5,2.2-0.5,2.2l-3.5,5.6l-1.6,1.9l-3.9,0.8l-1.2,1.4h-2.5
		l-1.7,1.2c0,0-1,0-1,0.3c0,0.3,0.1,1.4,0.1,1.4l-1.5-0.3l0.1,1.5l0.4,0.6c0,0-0.5,1.1-0.6,1.1c-0.2,0-1.6-0.7-1.6-0.7l-0.6,1l0.4,1
		l-0.2,1.9l-0.6,1.4h-0.4c0,0,0.5,1.2,0.6,1.4c0.2,0.2,1.9,2.1,1.9,2.1l-0.6,1.7l1,1.1c0,0,2.6,0.6,2.8,0.6c0.2,0,1.8,0.8,1.8,0.8
		l1.2,1.6l-2.7,1.9l0.6,1.5l-1,0.3l0.6,2.2l0.6,1.4l0.1,0.5c0,0,0.3,1.1,0.6,1.2s4.8,2.9,4.8,2.9l-0.7,1.1c0,0,0.7,0.8,1,0.8
		c0.3,0.1,1.1,0.7,1.2,0.9c0.1,0.2,1.1,1,1.1,1l1.5,0.7c0,0,0.3-0.4,0.8,0s2.2,0.5,2.2,0.5l1.4,2.1l1.7,1l1,1.6l0.7,1.9
		c0,0,3.2,0.6,3.4,0.5c0.2-0.1,2.4,1.1,2.4,1.1l2.7,1.5l0.3-0.7c0,0,2.7,1.6,2.9,1.9c0.2,0.3,1.5,1.7,1.5,1.7h2.7l4.1,1.4l1.2,0.9
		h3.5c0,0,1,1.4,1.2,1.4s1.2,1,1.2,1.2c0,0.2-0.2,1.7-0.2,1.7h-1.5c0,0-0.8,0.3-0.6,0.5c0.2,0.2,2.3,1.9,2.3,1.9s1.6,1.4,1.6,2
		s-0.5,3.7-0.5,3.7s-0.4,0.5-0.3,0.7c0.1,0.2,0.5,1.2,0.5,1.2l-1.6,2.8c0,0-0.1,1.1,0.1,1.5c0.2,0.4,1.2,2,0.8,1.8
		c-0.5-0.2-1.6-0.5-2.1-0.4c-0.5,0.1-2.1,0.8-2.1,0.8s-2,1-2,1.2c0,0.2,0.5,2.5,0.5,2.5l0.1,2.3l-0.6,1.6c0,0-0.5,0.9-0.5,1.2
		s-1.2,1.5-1.2,1.5l-2.1,1.4l-0.8,2.3c0,0-2.3-1.8-2.6-1.9s-2.1-2.6-2.1-2.6l-1.5,1.5l-0.6-0.7l-1.9-1l-2.6,0.4l-2.8-0.4l-0.8,0.6
		l-2.5,0.5l-2.8,0.6c0,0-0.2,1.5-0.2,1.7c0,0.3,0.8,2,0.8,2l0.7,1.4h2.7c0,0,1,0.6,1.2,0.6s3.2,0.6,3.2,0.6l2.1,1.4l3,0.3l2.3,0.6
		l0.8,1.5l-0.5,2.4c0,0-0.6-0.3-0.1,0.5s2.3,5.4,2.3,5.4l0.6,3.1c0,0,3.5,1,3.8,1.2c0.3,0.2,1.3,1.8,2,2.1c0.7,0.3,4.2,1.9,4.2,1.9
		l3-0.6l2,3.5l1.9,0.8l1.2,1.7c0,0-0.1,0.5,0,0.6c0.1,0.2,2,2.4,2,2.4l0.9,1.2l-1.1,1.4l1.2,1.5l1.6-1.7l1.2,0.3l1.3,2.3
		c0,0,2.1,1,2.6,1.5c0.5,0.5,1.5,0.2,1.7,0.8c0.3,0.6,0.2,1.4,0.2,1.4s-0.6,1-0.6,1.3s0.8,1.8,0.8,1.8l-0.5,2.6l2.3-2.5l5-0.5
		c0,0,3.7-2.5,4.1-2.5s3.6-1.7,4.5-1.3c0.8,0.4,2.3,1.2,2.3,1.2l0.3,1.5c0,0,0.5,0.8,0.8,0.3c0.4-0.5,1.6-2.5,1.6-2.5l0.4,2.3
		l0.5,1.5c0,0-1.1,2.3-0.9,2.4s0.7,1.1,1.2,1s2.5-0.8,2.5-0.8s0.6,0.3,0.9,0.3c0.3,0,2.6-1,2.6-1l4.1,0.8l1.8,1.2
		c0,0,0.8,1.4,0.9,1.6c0.1,0.2,0.3,1.4,0.3,1.4s-1.2,0.5-1.5,0c-0.3-0.5-1-0.6-1-0.6l-1.4,1.5l-1.7,1h-0.5l0.2,2.3
		c0,0,2.3,2.3,2.5,2.5c0.2,0.2,1,1.7,0.6,1.6c-0.4-0.1-2.5-1.3-2.5-1.3l-1.6-0.5l-1.9,0.7l-0.8,2c0,0-1.7,0.5-1.9,0.5
		c-0.2,0-3.6,0-3.6,0s-0.9,0.2-0.9,0.5s-0.3,1.4-0.3,1.4s-1.4,0.5-1.1,0.9c0.3,0.4,0.7,2,0.8,2.4c0.1,0.4,1.7,3.8,1.7,3.8
		s1.7,1.7,1.8,1.9c0.1,0.3,2.1,1.7,2.1,1.7s1.9,0.5,2.1,0.6s2.1,0,2.1,0l2.8,2.3c0,0,0.6,1.2,0.5,1.3c-0.2,0.1-1.1,0.5-1.1,0.5
		l2.1,4.3c0,0,1.2,0.5,1.5,0.6c0.4,0.2,2.5,2.1,2.5,2.1s4.8,0.4,4.5,0.5s-2.6,1.5-2.8,1.5c-0.2-0.1-3.2,0-3.2,0l-0.5,1.2l1.1,0.5
		l0.3,0.1c0,0-1.7,0.3-1.7,0.6s-0.7,2.1-0.9,2.4c-0.2,0.3-1.5,1.7-1.5,1.7s-1-3.2-1.2-3.4s-1.4-2-1.4-2s-0.7,1-0.5,1.7
		c0.3,0.7,0.8,1.8,0.8,1.8l-2-1c0,0-1.2-0.8-1.6-0.8c-0.4,0-1.2-0.4-1.6-0.3c-0.5,0.1-1.4-0.1-1.7,0.1s0.8,2.9,0.8,2.9
		s-0.2,0.6,0.2,1s1.2,0.6,1.2,0.6s0.6,1.3,0.8,1.3c0.2,0,1.9-0.5,2.3-0.3s0.8,1.3,0.8,1.3h-1.8l1.2,0.6l0.3,1.8l1,1l1.4,0.6l0.1,1.7
		l0.1,1.4l-1.3,0.6l2.4,1l-0.6,2.3l0.8,2.3l-0.3,1.4h-1.6l-0.1,1.9l0.3,2.5l-1.7,0.9l0.1,3c0,0,2.5,2.5,2.5,2.8
		c0.1,0.3-1.1,2.6-1.1,2.6s0.4,1.5,1,1.2c0.6-0.3,3.4-2.1,3.5-2.3c0.2-0.3,2.6-4,2.6-4l2.3-1.8l1.2-1.7l1.1-1.6l2.4-1.9l-0.3-2.3
		c0,0,1.4-0.9,1.6-0.8c0.3,0.1,1.6,0.7,1.6,0.7l2.1-1.5l1.8-5.2c0,0,1.7-1,2.3-1.2s2-1.4,2.3-1.5c0.3-0.1,1.4-2.5,1.4-2.5l0.3-1.5
		l1.4-0.8l2-2.5c0,0,3.5,0.2,3.8,0.4c0.3,0.2,1,1.4,1.5,1.7c0.6,0.3,1.9,0.3,1.9,0.3s4.5-1.9,5.2-2.7c0.6-0.8,3.3-4.4,3.2-4.6
		s-0.7-2.3-0.7-2.6c0-0.3,1.2-3,1.2-3l1.4,0.8c0,0,0.7-1.7,1.4-2.3c0.6-0.6,2.6-2.1,3.7-2.6c1.2-0.6,2.6-1.7,2.6-1.7l3-0.8l2.9-1.7
		l2.8-2l2.7-2.4l1,0.1l3.7-6.5l1.5-1.7c0,0,0.5-1.9,0.8-2c0.4-0.1,2.8-2.1,3.4-1.9s3.5-0.8,3.5-0.8l2.5,0.1l1.8-1.5l3.2-0.4l3.8-4.7
		l1.4,0.1l0.2,0.5l1.7-2.1c0,0,2.3-1.3,2.6-1.4c0.3-0.1,3-2.5,3-2.5l2.3-0.5l3.3-1.7l3.2-2.7l1.5-1.4l5-2.3c0,0,0.8,0.1,1.4,0.5
		c0.5,0.4,0.4,1.1,1.2,0.8c0.8-0.3,0.7-0.4,1.7-0.8c1-0.4,1.9-1.2,1.9-1.2s-0.5-0.1,0.7-0.5c1.2-0.5,2-1.4,2.1-1.5
		c0.1-0.2,0.5-1.4,0.7-1.4c0.2,0,4.6,1.5,4.6,1.5s9.4,11.4,9.5,11.6c0.2,0.3,8.8,9.9,8.8,9.9s6.8,8,7.1,8.2c0.3,0.2,3,4.8,3,5
		c0.1,0.2-0.9,2-0.9,2l-3.2,0.6l-4.6,2.1l-0.5,0.8l-4.4,0.7l-2.2,2.1l-3.2,1.6l-1.7,1.9c0,0-0.5,2-0.3,2.5c0.2,0.5,0.5,1.9,0.6,2.2
		s1.4,1.7,1.5,2.1c0.1,0.5-0.9,0.7-0.9,0.7l1.5,1l0.7,1.5c0,0,2.1,0.9,2.5,1c0.4,0.1,1.7,0.7,1.9,0.9c0.2,0.2,0.9,1.3,0.8,1.5
		s-0.1,1.5-0.1,1.5s1,1.5,1.5,1.7c0.5,0.2,0.8,0.1,1.9,0.5c1.1,0.5,3.2,1.5,3.2,1.5s-0.3,1.4-0.1,1.6c0.2,0.3,0.8,0.3,1.3,1
		c0.5,0.6,2.1,4.6,2.1,4.8c0,0.3-1.9,2.8-1.9,2.8l-1.6,3.9c0,0-2.8,1.1-3,1.2c-0.2,0.1-2.9,1.2-2.9,1.2s-2.2,0.6-2.4,0.6
		s-4.2,0.4-4.2,0.4l-1.6,0.8l-4.3,0.1c0,0,0,3.4-0.3,3.3c-0.3-0.1-3.9,1.1-3.9,1.1l-1.9-0.8c0,0-0.7,2.1-0.3,2.9
		c0.5,0.8,1,4.9,1.3,5.2c0.3,0.3,3.2,3.7,3.2,3.7s1.5-0.6,1.7,0s0.5,1.4,0.9,1.7c0.5,0.3,1,0,1,0.5c0.1,0.5,0.3,1.5,0.3,1.5l4.6,1.2
		h2.8l0.9,2.2l3.5,1.5l0.6,1.5h0.5l-0.7,2.6l-0.1,2.5c0,0,1.5,1.2,1.7,1.2s1.7,0.6,1.8,0.8s0.9,3.2,0.9,3.2s1.1,1.3,1.3,1.4
		s4,1.5,4,1.5s1-1,1.4-1c0.4,0,2,0.2,2.3-0.1c0.3-0.3,2.5-1.5,2.5-1.5l2.6,1.2c0,0-0.1,3.7-0.3,3.7c-0.2,0,1.9,2.2,1.9,2.2h1.9
		l0.6,2.8l1.6,3.2l3,1.9c0,0,0.9,2,1.2,2.1c0.3,0.1,1.5,1.6,1.5,1.6v2.5l1.5,1.6l3.4,1.7h2.3l5-2.3c0,0,1.5-0.7,1.7-0.8
		s4.9-3.4,4.9-3.4s3-0.3,3.2-0.2c0.3,0.1,2.3,1.7,2.3,1.7s0.9-0.8,0.9-1c0-0.1,0-4.7,0-4.7l-0.9-2.4c0-0.8-0.1-6.9-0.1-6.9l-0.4-4.7
		l0.6-4.5c0,0,0.1-1.3,0.1-1.4c0-0.1-0.4,0.4-0.4-1.3c0-1.7,0.3-1.7,0-3.1c-0.3-1.4-0.8-2.2-0.9-2.9s-0.2-0.8-0.8-2.6
		c-0.6-1.8-1-3-1.1-3.5c-0.1-0.5-0.6-4.2-0.5-4.5s1.5-2.9,1.5-2.9s1.1,0,1.4-0.2s4.1-4,4.1-4s0.9-2.9,1-3.1s1.5-5.1,1.5-5.4
		c0-0.3-0.5-6.5-0.5-6.5l-1-1.9c0,0,0.6-2.2,0.7-2.6c0-0.4,0.8-3.7,0.8-3.7s0-2.1,0-2.3c0-0.2,1.1-1,1.4-1.5
		c0.2-0.5,1.3-3.5,1.3-3.5l2.7-1.4l0.6-1.5l-1-1.6l-0.5-0.7c0,0-1,0-1.2,0.1c-0.1,0.2-0.4,0.7-0.6,1.1c-0.2,0.4-1.1,0.9-1.1,0.9
		s-0.3-0.3-0.9,0.3c-0.6,0.7-1,0.7-1.2,1.2c-0.2,0.5-0.9,1.3-0.9,1.3l-1.2-0.9l-2.2-0.1l-1-1.5c0,0,0.9-0.6,1.4-0.9
		c0.5-0.3,7.6-4,7.6-4l-0.9-2.7l1.5-1.6l0.9-0.1l3.2,2.8c0,0,0.8,0.5,0.7,1.1c0,0.5,0,2.9,0,2.9l1.8,1.3l-0.8,2.1l0.8,1.3
		c0,0,1-0.2,1,0.2c0,0.4,0.5,2.4,0.5,2.4l1.1,1.4l1.7,1l1.5,0.2l2.3,0.3l0.8-0.5v-1.4l0.9-1.4l0.7-1.8l0.9-0.3l0.7,0.2
		c0,0,0.2-0.1,0.4,0.9s-0.1,1.2,0,1.7s-0.1,0.6,0,1c0.1,0.3,0.3,0.7,0.3,0.7h0.4c0,0,0.6-0.4,0.6-0.7c0-0.2,0-1.5,0-1.5l0.3-1.3
		l1-2.8l-0.5-6.1l-0.1-0.6l0.6-0.5v-4.5l0.8-0.6v-1v-1.9c0,0-0.6-0.4,0-0.6c0.6-0.2,1.6-1.1,1.6-1.1s0.9-0.5,1.1-0.6
		c0.1-0.1,0.6-0.6,0.8-0.6c0.2,0,1.4,0.1,1.6,0.3c0.2,0.1,0.7,0.3,0.8,0.5c0.1,0.2,0.6,1,0.6,1s-0.2,0.7-0.4,1.1
		c-0.1,0.3-0.5,1-0.5,1s0.5,0.3,0.7,0.3s0.9,0,0.9,0l1.5-0.7l2.4-0.9l1.8,0.2l-0.5-2.3c0,0,0.1-1.5,0.2-1.7c0.1-0.1,0.3-1.2,0.3-1.2
		s-0.2-1-0.6-1.2s-1-0.4-1.3-0.8s-0.7-1.3-0.7-2c0-0.7,0-1.1,0-1.1s0.3-0.7-0.7-0.9c-1-0.2-0.8,0.1-1.6-0.4
		c-0.8-0.5-1.1-0.5-1.6-1.1c-0.6-0.5-0.7-0.7-1-1.3c-0.3-0.6-1.6-3-1.6-3l-1-2.5l-0.2-2c0,0,0.5-1.5,0.6-1.6s1.9-3.7,2-3.9
		c0-0.2,0.8-3.3,0.8-3.3l0.8-3.4l1.3-2.7l2.6-2.3c0,0,1-1.3,1.3-1.3c0.3,0,2.1-0.6,2.1-0.6l1.2-0.5l-0.3-1.2c0,0-0.4-0.7-0.8-1.9
		c-0.4-1.2-0.5-0.8-0.8-1.7s-0.2-0.9-0.6-1.7c-0.3-0.8-0.3-4.4-0.3-4.4l0.7-1.5l0.4-1.8l0.4-1.9c0,0,0.7-1.1,1.3-1.4
		c0.5-0.2,2.3-1.1,2.3-1.1s-1.4-1.6-1.4-1.7c0-0.1-0.7-2.1-0.7-2.1L407,281l-0.2-1.9c0,0-0.3-0.6-0.3-1.2c0-0.5,0.3-1.6,0.3-1.6
		l1.6-1.3l1.5-0.9c0,0,0.4-0.8,0.7-0.9s1.4-0.7,1.4-0.7l0.2-0.6c0,0-0.1-0.9-0.4-1.1c-0.3-0.1-0.4-0.3-0.8-0.6
		c-0.4-0.3-1.2-1.3-1.2-1.3s-0.5-1.7-0.7-2.1c-0.2-0.4-1.7-1.5-1.7-2c0-0.6-0.1-2.1-0.1-2.4c0-0.3,0.1-1.5,0.4-1.9
		c0.3-0.4,1.1-1.3,1.4-1.5s2-0.8,2.2-1c0.2-0.2,1-1.2,1-1.4c0-0.2,0.4-0.9,0-1.9c-0.4-1-1.1-1.5-1-2.5c0-1.1,2-2.7,2-2.7l1.8-0.7
		l2.5-1l3.3-1.5l3-0.7l2.1-0.8c0,0,0.8-1,1.2-1.3c0.3-0.2,2.1-2.6,2.1-2.6l5.1-0.4c0,0,0.5-0.4,1.5-0.3c1,0.1,4.3,0.3,4.3,0.3
		l2.4-3.1l0.8-1.6l0.7-2.9l-0.6-1.1l0.1-1c0,0,0.5-0.8,0.7-0.8s1.7-0.6,1.7-0.6l0.5,0l1.1,0.1l1.8,0.3l0.7,0.5l2.5,1.2
		c0,0,0.3,0.3,0.5,1s0.5,1.2,0.5,1.2s2.6,0.7,3.5,0.4c0.9-0.3,5.1-2.9,5.1-2.9l5.1-0.8c0,0,3.8,0.3,4,0.3s6.5,1.3,6.5,1.3l2.9,1.6
		c0,0,3.4,2.2,3.7,2.5c0.2,0.2,1.9,0.9,2,1c0.1,0.1,1.8,3.1,1.8,3.3c0,0.2,0.3,1.5,0.3,1.5s1-1.7,0.7-2.2c-0.2-0.5-1.3-3-1.3-3.1
		c0-0.2,0.2-2.6,0.3-2.8c0-0.1,0.5-2.6,0.5-2.6l-0.1-2.2l-2.3-3.3c0,0-1.5-0.5-1.9-0.9c-0.3-0.3-2.3-2.9-2.3-2.9l-1.8-1.9
		c0,0-1.2-0.9-1.4-1.2c-0.2-0.3-1.3-3.1-1.3-3.1l0.1-1.7c0,0,1.6-0.6,1.7-1c0.1-0.3,1.6-0.6,0.1-0.8s-0.8-0.8-3.2,0.4
		c-2.4,1.2-4.8,1-4.8,1l-3.3-0.6l-2.8-1.9l-0.9-1.8c0,0,0.2-0.7,0-1.1s-2.1-1.8-2.1-2c0-0.2-0.8-1.8-1.1-1.7s-0.4,0-1.8,0.3
		c-1.5,0.3-4.3-0.3-4.3-0.3l-3.2,1.5h-2.8l-2.7,0.9l-3.9,0.1l-1.2,0.3l-0.8,0.3l-2-0.8l-4-0.7l-2.2,0.1l-3.3-3.1
		c0,0-1.2-1.6-1.6-1.6c-0.4,0-4.7,0.7-4.7,0.7s-2.6-0.1-2.8-0.8s-2.3-3-2.4-3.2c-0.1-0.2-1.7-1.9-1.7-2.1c0-0.1-1.5-3-1.5-3
		s-0.1-2.1-0.1-2.2s0.3-3.2,0.3-3.2l0.4-3l1.7-1.1l-1-4l-3-2.4c0,0-1.1-1-2-0.9c-0.9,0.1-5.3-1-5.3-1l-1.7-2.9c0,0-1.4-1.7-1.6-1.9
		c-0.2-0.2-2.3-1.5-2.8-2.2c-0.5-0.7-2.2-2.2-2.2-2.2l-1-1.9l-1.7-2.7l-2-1.3l-2.3-2.1l-1.9-2.7l-0.7-2.2c0,0-0.8-3.4-0.8-3.6
		c0-0.1-1.6-2.4-1.8-3c-0.2-0.5-0.3-4.1-0.3-4.1l-0.4-2.7L383,136c0,0-0.8-4.5-0.7-4.6s0-4.6,0-4.6l-1.7-3.3c0,0-1.9-4.5-1.9-4.6
		c0-0.2-2.1-3.9-2.4-4.5c-0.3-0.6-3.1-5-3.1-5s-3.9-6-4-6.1c0-0.1-2.7-3.4-2.7-3.4l-5.2-6.2c0,0-3.5-5-3.7-5.3
		c-0.1-0.2-4.6-6-4.7-6.3c-0.1-0.3-2.8-4.8-2.8-4.8l-1.9-2.8l-2.5-3.2l-2.5-3.3l-3-2.5l-3-2.9L334.2,59.6z"/>
</g>
<g id="Layer_6">
	<path class="st1" d="M403.1,347c-0.1,0-2,0.4-2,0.4l-1,0.7c0,0-0.5,0-0.4,0.1c0.1,0.1,1.4,0.9,1.6,1s0.9,0.4,1.1,0.5
		c0.1,0.1,0.8,0.8,0.9,0.8c0.2,0.1,1,0.5,1.1,0.6c0.1,0,1.6,0.6,1.7,0.6s1.2,0.4,1.2,0.2c0-0.2-0.3-0.9-0.4-1s-0.4-0.5-0.5-0.8
		c-0.1-0.3-0.7-1.1-0.7-1.1l0-0.4l-0.8-0.7l-0.9-0.1l-0.6-0.4L403.1,347z"/>
</g>
</svg>
