<?xml version="1.0" encoding="utf-8"?>
<!-- Generator: Adobe Illustrator 25.0.0, SVG Export Plug-In . SVG Version: 6.00 Build 0)  -->
<svg version="1.1" id="Layer_1" xmlns="http://www.w3.org/2000/svg" xmlns:xlink="http://www.w3.org/1999/xlink" x="0px" y="0px"
	 viewBox="0 0 512 512" style="enable-background:new 0 0 512 512;" xml:space="preserve">
<style type="text/css">
	.st0{display:none;}
	.st1{fill:#FFFFFF;}
	.st2{fill-rule:evenodd;clip-rule:evenodd;fill:#F9F9F9;}
</style>
<g id="Layer_4" class="st0">
	
		<image style="display:inline;overflow:visible;enable-background:new    ;" width="914" height="764" xlink:href="39BBF3F4.jpg"  transform="matrix(0.5619 0 0 0.5619 -1.3284 41.3612)">
	</image>
</g>
<g id="Layer_5">
	<path class="st1" d="M307.1,77.4l0.4,0.2l0.1-0.2l0.7,0.4l0.1,0.1h0.4v-0.1l0,0l0.1,0.1h0.1V78c0,0.1,0.1,0.2,0.1,0.2l0.3,0.5
		l0.2-0.1l0.1,0.1h0.1l0.1-0.1l0.4-0.1l0,0h0.1l0.2,0.3l0.2-0.1l0.1-0.1l0.2-0.1v-0.2h0.1v-0.2H311v-0.2c0,0,0-0.1,0.1-0.1
		s0.1-0.1,0.1-0.1l-0.2-0.1h-0.2l-0.2-0.1l0.2-0.2l0.2-0.2h0.2l0.1,0.2l0.1,0.1l0.1,0.2l0.3-0.1l-0.1-0.4l-0.3,0.1l-0.1-0.3l0.1-0.2
		l-0.1-0.4v-0.1l0.2-0.1v0.1l-0.4,0.1l0.1,0.3l-0.4,0.1l-0.1-0.2h-0.3v-0.1h0.3l0,0h-0.2l-0.1-0.3h-0.1v-0.2v-0.1h0.5h0.2v-0.1
		l-0.1-0.2h0.1l0.1,0.4l0.1-0.1l-0.1-0.3H311l-0.1-0.3l-0.3,0.1h-0.2v-0.2l0.1-0.1l-0.1-0.1l-0.3,0.5v0.1l0.1,0.2h-0.1l-0.1-0.1
		h-0.2h-0.1c0,0,0,0,0,0.1s0,0.1,0,0.1h-0.1h-0.1v0.1h-0.2l0,0l0.2,0.4l-0.1,0.1l-0.1,0.1l-0.1,0.1l-0.2-0.3l0.1-0.1l-0.1-0.3h-0.1
		v-0.1h0.1l-0.1-0.3l0.3-0.2l-0.3-0.2h-0.1l-0.1,0.1l-0.1-0.1h-0.1l-0.1-0.3h0.2v-0.1l-0.3-0.1l0.3-0.1c0,0,0.1,0,0.1,0.1l0.2,0.3
		l0.2-0.1l-0.2-0.3h-0.2l-0.1-0.3l-0.3,0.3h-0.2l-0.2-0.2l-0.2,0.2v0.1h0.1l0.1,0.1l0.1-0.1l0.2,0.1v0.1h-0.1l0.1,0.3v0.1l0.1,0.2
		v0.1h-0.1l-0.2,0.2l-0.2,0.2l0.3,0.1v0.1l-0.1,0.1l0.1,0.1l0.1,0.1l-0.2,0.3l0.2,0.3v0.1l-0.1,0.1H308h-0.1v0.1l-0.1,0.1h-0.1
		l-0.1-0.1L307.1,77.4L307.1,77.4z"/>
	<path class="st1" d="M311.3,74.7l-0.1-0.3l0.1-0.1l0.1,0.1h0.1v-0.2l0.4-0.1v-0.3l0.3-0.1l0.1,0.1v0.1c0,0-0.3,0.1-0.3,0.2
		c0,0,0,0.1,0.1,0.1s0.3,0,0.3,0s0.1-0.1,0.2-0.1v-0.3v-0.1c0,0,0.5-0.1,0.5-0.2l0.2-0.1l-0.1-0.1v-0.1c0,0,0.1-0.1,0.2-0.1h0.1
		l-0.2-0.2v-0.3l-0.4,0.1L313,73h0.1v0.1v0.1l0,0H313l-0.2,0.1l-0.1,0.1l-0.1-0.1h-0.1l0,0l-0.5,0.1c0,0,0-0.1-0.1-0.1h-0.3
		c0,0,0.1,0.1,0,0.1s-0.5,0-0.5,0v0.1H311l0,0l-0.7,0.1l0.3,0.5h0.4l-0.1,0.1l0,0h0.1l0.4-0.1v0.1v0.1h0.1L311.3,74.7L311.3,74.7z"
		/>
	<path class="st1" d="M312.9,75.1l-0.1-0.3l0.1-0.1l-0.1-0.2h-0.3v0.1h-0.3v0.1v0.1v0.1V75l-0.3,0.1l0,0h0.3V75h0.1c0,0,0.1,0,0.2,0
		h0.1v0.1C312.6,75.1,312.9,75.1,312.9,75.1z"/>
	<path class="st1" d="M311.7,76.6c0,0-0.1,0.1-0.1,0l-0.1-0.4l0.2-0.1V76h0.2l-0.1,0.2v0.1L311.7,76.6L311.7,76.6z"/>
	<path class="st1" d="M310.3,74.1l-0.4,0.2l-0.1-0.1l0.1-0.1l-0.1-0.1l0,0l0.3-0.2L310.3,74.1z"/>
	<polygon class="st1" points="309.9,73.6 309.7,73.8 309.5,73.6 309.7,73.4 	"/>
	<path class="st1" d="M309.3,73.7l0.2,0.2l-0.1,0.1l-0.2-0.2L309.3,73.7L309.3,73.7z"/>
	<path class="st1" d="M312.1,72.7l-0.4,0.1v-0.1l0,0l0.3-0.1L312.1,72.7z"/>
	<polygon class="st1" points="312.8,72.5 312.8,72.3 312.9,72.3 312.9,72.1 312.7,72.2 312.7,72.5 	"/>
	<path class="st1" d="M311.6,72.1h-0.3V72C311.4,72,311.5,72,311.6,72.1C311.5,72,311.6,72.1,311.6,72.1z"/>
	<path class="st1" d="M311.2,75.2C311.2,75.2,311.2,75.1,311.2,75.2c0.1,0,0.2,0.1,0.2,0.1v0.1l0.1,0.3h-0.1L311.2,75.2L311.2,75.2z
		"/>
	<polygon class="st1" points="311.5,74.8 311.7,74.7 311.6,74.6 311.4,74.7 	"/>
</g>
<g id="svgg">
	<path id="path0" class="st2" d="M219.2,68.3c-0.1,0.1-0.4,0.5-0.6,0.7c-0.6,0.6-1.1,0.9-2.2,1.4c-0.6,0.2-1.3,0.5-1.5,0.6
		c-1.7,0.8-2.9,1.1-7.3,1.2c-4.4,0.1-5.8,0.4-6.4,0.9c-1.2,1.2-1.5,6.2-0.5,8c0.7,1.4,0.6,2.2-0.5,3.4c-0.9,1.2-1.1,1.3-1.7,4.1
		c-0.5,2.4-0.4,3.9,0.2,5.2c0.7,1.5,0.2,1.9-2.7,2.2c-5.4,0.6-6.8,0.9-9.4,2.5c-0.5,0.2-0.9,0.6-1.3,0.7c-0.2,0.1-0.5,0.4-0.6,0.4
		c0,0.1-0.6,0.5-1.3,0.8c-0.7,0.4-1.8,0.9-2.2,1.4c-0.6,0.4-1.3,0.9-1.8,1.2c-1.8,0.9-1.9,1.3-2.9,6c-0.4,1.4-0.6,2.1-1.1,2.9
		c-1.3,2.1-1.5,3.9-1.1,6c0.8,3.7,0.4,5.1-1.7,5.4c-0.8,0.1-1.2,0.2-2,0.6c-0.1,0.1-0.5,0.1-0.6,0.1s-0.6,0.2-0.9,0.5
		c-0.4,0.2-0.7,0.4-0.7,0.4c-0.2,0-2.1,1.2-2.5,1.7c-1.1,1.1-1.9,4.6-1.5,6.2c0.1,0.6,1.1,1.8,1.2,1.7c0.7-0.1,2.2,1.7,2.6,2.9
		c0.4,1.4,0.2,2-0.6,2.7c-0.4,0.4-0.7,0.7-0.8,1.1c-0.1,0.5-1.1,1.4-1.3,1.4c-0.9,0-1.3,2.1-0.6,3.2c0.8,1.2,0.6,1.7-1.1,2.8
		c-0.4,0.2-0.5,0.5-0.5,0.8c0,1.2-1.4,2.4-3.4,2.8c-0.2,0-0.8,0.2-1.5,0.5c-0.6,0.2-1.7,0.5-2.2,0.5c-1.3,0.1-2.4,0.4-2.4,0.6
		c0,0.1-0.1,0.1-0.1,0c-0.1,0-0.4,0.2-0.7,0.7l-0.6,0.7l0.1,1.3c0,0.7,0.1,2.2,0.2,3.5c0.1,1.8,0.2,2.4,0.4,2.6
		c0.1,0.1,0.2,0.4,0.2,0.5s0.7,0.9,1.7,1.8c2,1.9,1.9,1.9,2.7,2.4c0.9,0.5,1.1,0.7,1.1,2.1c0.1,2.4-0.7,3.9-2.5,4.6
		c-0.4,0.1-0.7,0.4-0.7,0.5s-0.1,0.1-0.2,0.1c-0.1,0-0.5,0.2-0.8,0.6c-1.1,0.9-1.7,1.2-2.8,1.3c-1.8,0.2-2.2,0.9-2.5,4
		c-0.1,1.2-0.5,1.7-0.9,1.7c-0.1,0-0.4-0.1-0.6-0.1c-0.1,0-0.5-0.1-0.6-0.4c-1.4-1.3-1.7-1.3-2.6-1.1c-0.7,0.2-1.2,0.7-1.3,1.3
		c0,0.2-0.1,0.5-0.1,0.6c-0.1,0.2-1.8,0-1.9-0.2c-0.1-0.1-0.2-0.2-0.4-0.2c-0.1,0-0.4-0.1-0.5-0.1c-0.9-0.5-2.1,0.2-2.1,1.3
		c0,0.6-0.1,0.8-0.5,1.2s-0.5,0.6-0.5,1.8c0,0.8-0.2,1.8-0.4,2.2l-0.4,0.9l0.4,1.3c0.2,1.2,0.4,1.4,0.1,1.7c-0.2,0.2-0.2,0.5,0,1.2
		l0.2,0.8l-0.5,0.7c-0.2,0.4-0.7,0.8-0.9,0.8c-1.5,0.7-2.2,2-2.6,5.2c0,0.4-0.1,1.2-0.2,1.9c-0.2,1.9-0.2,2.5,0.1,2.7
		s-0.4,1.1-0.8,1.1c-0.4,0-2.1,1.3-3.2,2.4c-0.7,0.7-1.7,1.5-2.1,1.9c-0.5,0.4-0.9,0.7-0.9,0.7s-0.2,0.2-0.5,0.5
		c-1.9,1.4-2.1,3.9-0.2,4.2c0.5,0.1,1.1,0.5,1.5,0.9c1.3,1.1,3.3,2,5,2.4c2.1,0.4,4.6,1.7,5.9,2.9c0.6,0.6,1.1,1.1,1.2,1.1
		c0.2,0,1.2,0.9,1.2,1.2s-0.1,0.2-0.7,0.2c-1.5,0-1.7,1.4-0.1,1.9c0.8,0.2,1.2,0.8,0.5,0.7s-1.3,0.2-1.5,0.7
		c-0.1,0.4-0.5,0.5-0.5,0.1c0-0.9-1.3-1.4-1.8-0.5s-1.4,0.8-2-0.4c-0.7-1.2-2.9-1.2-3.7,0c-0.7,0.9-0.4,2.6,0.5,2.6
		c0.2,0,0.1,1.5-0.1,2.5c-0.2,0.6,0.1,1.5,0.7,1.8c1.2,0.6,0.5,1.4-1.4,1.5c-1.7,0.1-2.2,0.4-2.4,1.2c-0.2,1.2,0.1,1.5,1.5,1.5
		c1.5,0,2.5,0.5,2.5,1.3c0,0.5-0.2,0.6-0.8,0.1c-1.8-1.3-3.1,0.9-1.8,3.2c0.6,1.2,0.6,1.2-0.9,0.7s-2.1,0.1-2,2.4
		c0,1.2,0.5,2.5,1.2,3.1c0.2,0.1,0.6,1.2,0.5,1.3c0,0.1,0,0.1,0.1,0.1s0.1,0.1,0.1,0.1c0,0.1,0,0.4,0.1,0.7c0.2,0.7,0.2,0.7,0,0.7
		c-1.4,0-0.8,4.1,0.7,4.8c0.7,0.2,0.7,0.5,0.4,1.1c-0.8,1.7-0.2,9.5,0.7,9.5c0.1,0,0.1,0.1,0.1,0.2c0,1.5,2.7,2,5.1,0.9
		c0.1-0.1,0.8-0.4,1.4-0.6l1.2-0.5l0.7,0.4c0.4,0.2,0.8,0.6,1.1,0.7c0.7,0.7,1.9,0.2,2.1-0.8c0.1-0.8,0.8-1.2,1.3-0.7
		s0.8,1.5,0.6,1.9c-0.4,0.8-0.1,1.8,0.4,2.2c0.9,0.8,1.9,2.2,1.9,2.8c0,1.1,0.2,1.7,0.9,2.5c0.8,0.9,1.4,2.2,1.8,4.5
		c0.2,1.4,0.7,2.1,1.7,2.8c0.4,0.2,0.6,0.6,0.6,0.7c0,0.4,1.1,2.4,1.5,2.9c0.2,0.2,0.6,0.7,0.7,0.9c0.2,0.2,0.6,0.8,0.9,1.4
		c0.6,0.8,0.7,1.1,1.2,1.2c0.6,0.1,1.7,2.5,1.7,3.4c0,0.1-1.1,0.7-1.5,0.8c-0.4,0-0.7,0.9-0.7,2c0,0.9-0.4,3.2-0.6,3.5
		c-0.8,1.5,0.2,3.4,1.7,2.9c1.4-0.4,1.4-0.4,2,0.4c1.4,1.8,3.5,1.9,5.8,0.1c0.7-0.5,1.3-0.9,1.4-0.9s0.5-0.1,0.7-0.4
		c1.5-1.1,2.2-0.9,3.7,0.5c1.1,1.1,1.5,2,1.4,2.9c-0.1,0.8,0.1,1.5,0.9,2c0.6,0.4,0.7,0.5,2,1.7c1.1,0.9,1.2,1.2,0.7,1.8
		c-0.4,0.5-2.2,2.4-2.4,2.4s-1.2,1.2-1.7,1.9c-0.2,0.4-0.6,0.8-0.9,1.2c-0.2,0.4-0.5,0.7-0.5,0.8s0,0.2-0.1,0.2s-0.2,0.2-0.4,0.5
		c-0.1,0.2-0.2,0.5-0.1,0.5c0,0,0,0.1-0.1,0.2s-0.1,0.4-0.1,0.6c0.1,0.2,0,0.5-0.2,0.8c-0.9,1.7-1.3,2.7-1.3,4.8
		c0,3.1,0.2,3.4,3.3,3.5c0.6,0,1.3,0.1,1.5,0.2s0.5,0.1,0.5,0.1s0.2,0.1,0.5,0.4c0.2,0.2,0.5,0.5,0.6,0.5s0.4,0.1,0.5,0.4
		c0.4,0.2,0.7,0.4,2.2,0.6c0.4,0,1.4,0.4,2.5,0.8s2.2,0.7,2.6,0.8c1.9,0.4,1.9,2.8,0.1,6.5c-0.5,0.9-0.5,3.3,0,5.4
		c0.6,2.6,0.6,2.4-0.2,3.2c-1.2,1.1-1.5,1.2-2,0.6c-0.9-1.2-2.5-1.1-3.8,0.5c-1.7,1.9-1.8,2-0.8,2.8c0.8,0.7,0.7,0.8-0.4,1.5
		c-1.8,1.1-2.4,3.1-1.9,6.8c0.2,2.1-0.2,2.6-2.2,2.9c-1.2,0.1-1.5,0.2-2.4,0.9c-0.4,0.4-1.2,0.9-1.7,1.3c-1.8,1.2-3.5,2.8-3.7,3.4
		c-0.2,0.7,0,2.4,0.4,2.8c0.2,0.2,0.4,0.6,0.4,0.6c0,0.1,0.4,0.5,0.7,0.8c1.4,1.4,3.8,1.4,4.2,0c0.2-0.9,1.1-1.3,2-0.8
		c1.4,0.7,1.9,3.1,0.5,3.1c-0.5,0-1.4,0.5-1.4,0.7c0,0.6,0.1,0.9,0.8,1.5c1.4,1.4,0.8,2.9-1.3,3.4c-0.6,0.1-1.5,1.4-1.5,2.2
		c0,0.7-0.1,0.8-1.2,0.9c-0.9,0.1-2.7,0.9-3.7,1.5c-0.7,0.5-0.8,1.2-0.4,1.9c1.4,2-3.8,5-6.1,3.4c-0.8-0.6-2.2-0.6-3.3,0
		c-0.2,0.1-0.9,0.4-1.5,0.5c-2.7,0.6-2.9,1.4-0.7,3.4c0.6,0.5,0.9,0.9,1.2,1.5c0.7,1.9,2.1,2.4,3.4,1.2c1.3-1.2,3.9-1.8,4.6-1.1
		c0.8,0.8,1.7,4.8,1.1,5.7c-1.3,1.9-1.9,4-1.4,5.1s1.4,2.1,2.2,2.4c1.3,0.5,1.8,0.9,2,1.9c0.2,1.2,0.4,1.3,1.2,1.5
		c1.1,0.4,2.9,1.9,2.9,2.6c0,0.1,0.1,0.4,1.1,1.5c0.1,0.2,0.6,0.6,1.1,0.8l0.8,0.5l1.7-0.1c2.9-0.2,3.3-0.2,4.6,0.5
		c2,1.1,3.5,0.8,5-0.8c1.4-1.7,2.8-1.7,5.9-0.2c2.2,1.1,3.4,1.3,6.7,1.2c1.5,0,2.9,0,3.2,0c0.4,0.1,0.8,0.1,1.1,0.2
		c0.7,0.1,2,0.7,2.5,1.2c0.4,0.4,0.6,0.5,2.4,0.9c1.3,0.4,1.7,1.2,0.6,1.4c-1.8,0.6-2,2.1-0.5,2.6c1.1,0.4,1.8,0.9,1.9,1.4
		c0.1,1.4-0.5,2.2-1.5,2.2c-1.3,0-1.4,0.4-0.2,2.1c0.4,0.6,0.8,1.4,0.8,1.8c0.1,0.4,0.4,1.1,0.6,1.8c0.2,0.6,0.4,1.3,0.5,1.7
		c0.1,0.8,1.1,1.3,1.3,0.7c0.5-1.5,2.7-1.8,2.7-0.2c0,1.1,0,1.3-0.5,1.8c-0.4,0.5-0.5,0.5-0.8,0.2c-1.1-0.6-2.5,1.5-1.8,2.8
		c0.6,1.2,2.7,1.3,3.7,0.1c0.1-0.1,0.2-0.2,0.4-0.2s1.7-1.4,2-1.9c0.5-0.7,1.4-0.4,2.6,0.8c0.7,0.8,1.3,1.1,1.7,1.1
		c0.6-0.1,2.6-0.7,3.4-1.1c1.2-0.5,2.2-0.4,2.2,0.1c0,0.1-0.2,0.2-0.5,0.2c-0.9,0.2-1.1,0.5-1.1,1.7c0,1.4,0.1,1.5,1.4,1.4
		c1.5-0.1,2.6-0.1,3.8,0.1c1.2,0.1,1.1,0.2,1.3-1.1c0-0.2,0.5-1.1,0.8-2c0.5-0.8,0.8-2,0.9-2.5c0.6-3.2,2.6-4,7.7-3.3
		c1.9,0.2,2.4,0.5,2.7,1.5c0.2,0.7,1.3,2.2,1.5,2.2c0,0,0.4,0.2,0.6,0.5c2,1.9,3.5,2.6,4.7,2.1c0.7-0.2,0.7-0.7,0.4-3.1
		c-0.5-3.1-0.5-4.4-0.1-5.4c0.1-0.4,0.2-0.6,0.1-0.6c0,0,0-0.1,0.1-0.2s0.1-0.2,0.1-0.4c0,0,0.1-0.2,0.5-0.4c0.6-0.2,0.8-0.2,3.3,0
		c1.1,0.1,1.4,0.1,1.5-0.1c0.4-0.5,0.9-1.7,1.2-2.4c0.2-0.8,1.1-2.9,1.3-3.3c0.1-0.1,0.1-0.7,0.2-1.3c0.2-3.5,0.2-4,0.7-4.1
		c0.4-0.1,1.5,0.7,1.5,0.9c0,0.1,0.9,0.7,1.2,0.7c0.1,0,0.5-0.1,0.7-0.2c0.7-0.4,0.8-0.2,0.6,0.7c-0.7,1.9,0.2,2.4,1.8,1.2
		c0.4-0.4,0.7-0.6,0.8-0.6c0,0,0.5-0.5,1.1-0.9l0.9-0.9h1.1c2.1,0,2.4-0.5,0.9-1.8c-0.5-0.5-1.1-1.1-1.3-1.3
		c-1.1-0.9-0.5-2.8,0.9-3.1c1.1-0.2,1.5-0.4,1.7-0.5c0.1-0.1,0.2-0.2,0.4-0.2s0.5-0.2,0.8-0.4c1.1-0.7,2.7-0.7,4.2-0.2
		c0.5,0.1,1.1,0.4,1.3,0.5c0.2,0.1,2.2,0.1,4.5,0.1h4l0.5-0.5c1.1-1.1,1.2-1.1,3.8-1.2c2,0,2.5,0,3.1,0.2c1.1,0.5,2.2-0.4,2.2-1.7
		c0-0.2,0.2-0.2,0.8-0.2c0.5,0,1.2,0.6,1.3,1.1c0.2,0.6,0.7,0.8,1.8,0.6l0.8-0.1l0.8,0.8c0.8,0.8,2.4,1.4,4.4,1.8
		c2.5,0.5,3.3,1.2,2.9,2.7c-0.2,0.9-0.1,1.2,0.5,1.5c0.7,0.5,1.7,1.7,1.7,2c0,0.1,0.7,0.7,1.5,1.2c0.7,0.5,0.9,1.2,1.1,2.8v1.4
		l0.7,0.6c0.6,0.6,1.8,1.1,2.7,1.3c0.4,0.1,0.9-0.2,1.4-0.8c0.7-0.8,1.8-0.5,1.8,0.6c0,0.7,0.6,0.8,0.9,0.2c0.1-0.2,0.4-0.4,0.6-0.2
		c0.4,0.1,1.7,1.2,1.5,1.2c0,0,0,0.1,0.1,0.4c0.1,0.2,0.2,0.6,0.4,0.9c0.1,0.4,0.1,0.7,0.2,0.8c0.1,0.1,0.2,0.5,0.4,0.8
		c0.6,1.2,0.9,1.4,2.5,0.8c0.8-0.2,1.4-0.2,1.7,0.1c0.1,0.2,2.8,1.1,3.9,1.2s1.5,0.4,2.5,1.2c0.4,0.4,0.8,0.7,1.1,0.7
		c0.2,0.1,0.4,0.2,0.4,0.2c0,0.2,1.5,0.8,1.8,0.7c0.6-0.2,0.7-1.3,0.4-2.9c-0.2-0.9-0.4-3.3-0.4-5.5c0-0.9,0.1-2.8,0.4-4
		c0.4-1.9,0.2-3.2-0.4-4.5c-0.6-1.4-0.6-1.5-0.2-2.9c0.4-1.2,0.4-4.1,0-5.2c-0.1-0.4-0.4-1.1-0.5-1.8c-0.4-1.3-0.8-3.2-0.8-3.9
		c0-0.2-0.2-0.6-0.4-0.8c-0.1-0.2-0.4-0.5-0.5-0.6s-0.4-0.5-0.5-0.8c-0.2-0.4-0.4-0.9-0.5-1.7c-0.1-1.7,0-2,0.9-3.1
		c0.5-0.5,0.8-0.9,0.8-0.9s0.1-0.2,0.2-0.4c0.1-0.1,0.7-0.9,1.3-1.7c0.6-0.8,1.7-2,2.4-2.7c2.5-2.5,2.7-2.9,2.7-5.5
		c0-1.3-0.1-1.7-1.1-2.1c-0.6-0.4-1.5-1.1-1.5-1.2c0-0.5-1.1-1.2-2.5-1.7c-3.1-1.1-4-2.7-2.5-4.4c0.4-0.5,0.7-0.9,0.8-1.3
		c0-0.2,0.1-0.5,0.2-0.6c0.5-0.4,2.9,0.1,3.5,0.6c0.1,0.1,0.2,0.1,0.2,0s0.2,0,0.5,0.2c0.8,0.6,2,0.2,2.5-0.9
		c0.4-0.9,0.2-1.3-1.1-2.2c-2.4-1.9-2.4-4.5-0.1-6.7c1.3-1.3,2.1-1.7,3.4-1.5c1.4,0.1,1.8-0.1,2.4-1.2c0.8-1.7,1.7-2.6,3.4-4.5
		c2.2-2.4,2.4-2.5,3.2-3.1s1.4-1.5,1.4-2.4c0-0.5,0.5-1.9,1.7-5.2c0.5-1.2,0.8-2.2,0.8-2.4c0-0.1,0.2-0.6,0.4-0.9
		c0.2-0.4,0.4-0.8,0.4-0.9c0-0.2,0.2-0.8,0.6-1.7c0.2-0.6,0.7-1.8,0.9-2.8c0.1-0.5,0.4-1.1,0.5-1.3c0.6-1.4,0.8-3.8,0.5-4.1
		c-0.1-0.1-0.9-0.2-2-0.4c-2.1-0.1-2.2-0.2-2.5-1.4c-0.2-1.3,0.4-2.5,1.7-3.8c0.4-0.4,0.5-0.5,1.5-0.9c0.6-0.4,2-1.8,2.5-2.5
		c0.7-1.1,1.1-1.7,2.1-3.5c0.1-0.4,0.5-0.7,0.6-1.1c0.2-0.2,0.4-0.5,0.4-0.6s0.1-0.2,0.4-0.5c0.1-0.2,0.5-0.6,0.7-0.8
		c0.2-0.2,0.6-0.5,0.7-0.5c0.2,0,0.7-0.2,1.2-0.5c0.4-0.2,0.8-0.5,0.9-0.5s0.4-0.1,0.4-0.2c0.1-0.1,0.5-0.4,0.8-0.5
		c2-1.1,5.7-3.3,6.2-3.8c0.1-0.1,0.4-0.2,0.5-0.4c0.2-0.2,0.7-0.7,2-2.4c0.2-0.4,0.6-0.7,0.7-0.9c0.1-0.2,0.2-0.4,0.2-0.4
		c0-0.4,1.7-1.3,2.2-1.3c1.3,0,1.7-1.4,0.7-3.1c-0.4-0.7-0.5-1.5-0.1-1.5c2.6-0.1,3.7-0.7,3.7-2c0-0.6-0.7-1.7-1.3-1.9
		c-1.5-0.7-2.2-1.2-2.5-1.5c-0.5-0.9-0.5-1.2-0.5-1.5c0-0.2,0-2.4,0.1-4.7l0.1-4.4l0.5-0.7c0.2-0.4,0.6-0.7,0.7-0.8
		c0.1-0.1,0.5-0.4,0.8-0.7s0.8-0.7,1.1-0.8c2-1.1,2.7-3.7,1.5-5.9c-0.2-0.5-0.5-0.9-0.5-1.1s-0.1-0.4-0.2-0.5s-0.5-0.5-0.7-0.7
		l-0.5-0.6l0.4-0.5c0.2-0.2,0.7-0.8,1.2-1.3s0.8-0.9,0.8-1.1c0-0.1,0-0.4,0-0.5c0.2-1.1-0.4-1.9-1.8-2.7c-0.5-0.2-0.8-0.5-0.9-0.6
		s-0.4-0.2-0.7-0.5c-0.4-0.2-0.6-0.5-0.6-0.6c-0.1-0.2,1.4-1.2,1.9-1.2c0.1,0,0.5-0.2,0.7-0.5c0.2-0.2,0.6-0.5,0.6-0.5
		c0.6,0,3.2-3.8,3.2-4.7c0-0.1,0.4-0.5,0.7-0.8c1.1-1.1,1.1-1.5,0.1-2.7c-0.5-0.5-0.8-1.1-0.9-1.2c-0.9-1.5-3.4-0.2-3.7,1.9
		c-0.2,1.5-0.9,2.4-2.1,2.2c-0.5,0-0.6-0.1-1.8-2.5c-1.1-1.9-1.8-2.5-3.8-2.5c-2.1,0-2.1,0-2.8-1.4c-0.8-1.5-0.9-1.7-3.3-2.8
		c-1.5-0.8-2.1-0.5-4.4,2.1c-0.6,0.7-1.2,1.4-1.4,1.5c-0.7,0.7-1.9,1.1-4.8,1.2c-3.1,0.1-3.2,0.1-3.2-0.4c0-0.7-1.5-1.5-3.7-1.9
		c-0.4-0.1-0.9-0.2-1.3-0.5c-0.4-0.1-0.8-0.4-1.1-0.5c-0.5-0.2-2.5-0.8-2.9-0.8c-0.6-0.1-1.7-0.7-2.4-1.4c-0.8-0.7-1.9-2-1.9-2.1
		s-0.1-0.2-0.2-0.5c-0.4-0.4-1.1-2-1.2-2.7c-0.1-0.4-0.5-0.9-1.4-1.8c-0.7-0.7-1.5-1.5-1.8-1.9c-0.4-0.4-0.8-0.8-1.1-0.9
		c-0.2-0.1-0.6-0.6-0.8-0.9c-0.1-0.4-0.4-0.7-0.5-0.9s-0.2-0.5-0.2-0.6c-0.2-1.3-1.4-1.9-4.5-2.1c-3.1-0.2-3.8,0-5,1.2
		c-0.9,0.9-1.1,1.3-2.2,4.7c-0.4,1.2-0.6,1.3-1.9,1.1c-2.2-0.4-2.2-0.5-2.2-5c0.1-3.7,0.1-3.7-0.8-4.5c-0.5-0.5-1.3-2.1-1.7-3.3
		c-0.6-2.4-1.9-3.2-4.6-3.2c-1.9,0-2.1-0.1-2.2-1.2c-0.2-1.1-0.5-1.4-1.3-1.8c-0.6-0.4-1.1-0.8-1.1-1.3c0-1.1-1.9-1.3-3.4-0.5
		c-1.1,0.6-1.1,0.6-2.2-0.6c-4-3.8-5.5-5.7-5.5-6.8c0-1.5-0.6-2-2-1.7c-1.2,0.2-1.3,0.2-2.1-0.9c-0.5-0.6-0.9-1.2-1.1-1.4
		c-0.1-0.1-0.5-0.7-0.6-1.1c-0.2-0.5-0.5-0.9-0.5-1.1c-0.9-1.8-1.1-2.1-0.7-2.2c2.5-0.6,1.3-6.2-1.4-6.6c-0.4,0-0.9-0.2-1.3-0.5
		l-0.6-0.4l0.6-0.2c0.9-0.5,1.9-2.2,1.5-3.1c-0.2-0.6-0.2-0.8-0.2-2.6c0-1.7,0-1.9-0.4-2.5c-0.2-0.4-0.4-0.6-0.2-0.6
		c0.1,0,0-0.1-0.2-0.4c-0.2-0.2-0.5-0.4-0.7-0.4c-0.5,0-1.3-0.7-1.3-1.1c0-0.4,0.8-1.2,1.5-1.5c1.1-0.6,0.4-1.4-1.2-1.7
		c-1.5-0.1-2.6-0.5-3.3-1.1c-1.3-1.2-2.9-0.4-2.7,1.4c0.1,1.1-0.1,1.4-0.6,0.9c-0.8-0.6-1.1-1.4-1.4-4.5c-0.5-5.7-0.8-6.4-2.7-5.8
		c-2.4,0.8-2.4,3.3-0.1,5.9c0.8,0.8,0.8,1.3,0.1,2c-0.9,0.9-2.8,0.4-3.1-0.9c0-0.2-0.1-0.6-0.2-0.8s-0.1-0.7-0.1-1.1
		c0-0.9-0.2-1.7-0.7-1.8c-0.7-0.2-1.2-0.7-1.2-1.2c0-0.2-0.4-1.2-0.6-2.1c-0.2-0.9-0.6-1.9-0.6-2.2c-0.1-0.6,0.4-2.2,1.1-3.7
		c0.2-0.6,0.7-1.3,0.8-1.7c0.6-1.2,0.1-1.7-1.7-1.9c-2.9-0.2-4.1-0.8-4.8-2.2c-0.6-1.2-0.8-1.4-2.1-1.5c-0.7-0.1-1.2-0.2-1.4-0.4
		c-0.1-0.1-0.4-0.4-0.5-0.4c-0.4-0.1-0.9-1.2-0.9-1.8c0-0.8,0.2-0.8,1.4,0c1.5,1.2,1.8,1.2,1.9-0.8c0.1-0.7,0.2-1.7,0.4-2
		c0.6-1.5,0-2.6-1.3-2.6c-2.1,0-3.7-1.8-2.7-3.2c0.5-0.7,1.4-1.5,2.2-2c0.9-0.6,1.1-0.9,0.6-1.7c-0.5-0.7-0.8-0.8-2.5-1.4
		c-0.9-0.4-1.9-0.8-1.9-1.2c0-0.1-0.1-0.4-0.4-0.6c-0.4-0.6-0.4-2.4,0.1-3.2c0.7-1.3,0.7-3.8,0.1-4.2c-0.1,0-0.4-0.4-0.6-0.8
		c-0.5-0.8-0.7-1.1-1.9-2.2c-1.2-1.2-1.2-1.4-0.7-2.7c0.5-1.1,0.5-2.1,0.2-2.4c-0.2-0.1-0.8,0.1-0.8,0.4c0,0.1-0.2,0.5-0.5,0.7
		c-0.6,0.7-0.9,0.6-1.7-0.5c-0.9-1.3-0.2-3.7,0.8-2.8c1.1,0.7,1.7,0.2,1.5-1.1c-0.2-1.7-0.2-1.4,0.6-1.8c1.1-0.4,1.8-1.3,1.4-2.2
		c-0.2-0.7-1.1-0.6-2.2,0.4c-0.7,0.6-0.9,0.7-1.2,0.1c-0.2-0.5,0-1.4,0.4-1.9c1.3-1.9,1.8-3.5,1.1-4.6c-0.7-1.2,0-2.2,1.8-2.6
		c0.9-0.2,1.2-0.2,1.5-0.6c0.6-0.5,0.5-1.2-0.4-2.1c-0.9-1.1-1.2-1.7-1.1-2.5l0.1-0.7h0.9c1.4,0,1.5,0,1.8-0.4
		c0.4-0.5,0.2-0.9-0.5-1.3c-0.9-0.5-0.9-1.8-0.1-3.1c0.6-0.8,0.1-1.8-0.8-1.8c-1.9,0-1.2-3.2,0.9-4.2c0.6-0.4,0.8-0.6,1.2-1.7
		c0.6-1.8,0.2-2.4-1.5-2.2l-1.2,0.1l-1.2-1.4c-1.3-1.5-1.9-1.9-2.7-1.9c-2.1,0-1.8-3.4,0.7-5.1c1.5-1.1,1.7-2.1,0.1-3.8
		c-1.2-1.2-1.3-1.8-0.6-3.1c0.5-0.8,0.5-1.5,0.2-2c-0.2-0.4-2-1.7-2.5-1.7c-0.4-0.1-1.4-0.7-2-1.2c-0.8-0.7-1.1-0.7-2-0.5
		c-0.5,0.1-1.1,0.2-1.3,0.1c-0.2,0-0.6-0.1-0.7-0.1c-0.2,0-0.7-0.4-1.3-0.6c-1.2-0.7-2.4-0.8-2.9-0.2c-0.6,0.6-0.8,1.4-0.5,2.5
		c0.4,1.3,0.2,4.1-0.1,5.4c-0.1,0.4-0.6,0.4-1.2,0c-0.6-0.4-0.8-0.2-1.7,0.2c-2.4,1.5-2.2,1.5-6.4,0c-1.8-0.7-5-2.6-5-2.9
		c0-0.1,0-0.1-0.1-0.1c-0.1,0.1-0.7-0.6-0.8-0.9c0-0.1-0.2-0.8-0.4-1.4c-0.1-0.6-0.4-1.4-0.4-1.9C222.3,70.2,220.7,66.7,219.2,68.3"
		/>
	<path id="path1" class="st2" d="M165,133.6c0.1,0.1,0.2,0.4,0.5,0.5c0.1,0.1,0.1,0-0.1-0.2C164.9,133.4,164.8,133.2,165,133.6
		 M173.3,312.9l-0.6,0.6L173.3,312.9c0.6-0.5,0.7-0.6,0.6-0.6C173.9,312.3,173.6,312.6,173.3,312.9"/>
	<path id="path2" class="st2" d="M165,133.6c0.1,0.1,0.2,0.4,0.5,0.5c0.1,0.1,0.1,0-0.1-0.2C164.9,133.4,164.8,133.2,165,133.6
		 M173.3,312.9l-0.6,0.6L173.3,312.9c0.6-0.5,0.7-0.6,0.6-0.6C173.9,312.3,173.6,312.6,173.3,312.9"/>
	<path id="path3" class="st2" d="M165,133.6c0.1,0.1,0.2,0.4,0.5,0.5c0.1,0.1,0.1,0-0.1-0.2C164.9,133.4,164.8,133.2,165,133.6
		 M173.3,312.9l-0.6,0.6L173.3,312.9c0.6-0.5,0.7-0.6,0.6-0.6C173.9,312.3,173.6,312.6,173.3,312.9"/>
	<path id="path4" class="st2" d="M165,133.6c0.1,0.1,0.2,0.4,0.5,0.5c0.1,0.1,0.1,0-0.1-0.2C164.9,133.4,164.8,133.2,165,133.6
		 M173.3,312.9l-0.6,0.6L173.3,312.9c0.6-0.5,0.7-0.6,0.6-0.6C173.9,312.3,173.6,312.6,173.3,312.9"/>
</g>
</svg>
