<svg xmlns="http://www.w3.org/2000/svg" viewBox="0 0 512 512" style="enable-background:new 0 0 512 512" xml:space="preserve"><style>.st0{display:none}.st2{fill:none;stroke:#fff;stroke-miterlimit:10}</style><path class="st2" d="M186.9 168.74a44.2 44.2 0 0 0 .62 13.89c1.82 8.83 5.89 14.68 8.09 17.83 11.54 16.58 32.46 24.68 37.22 26.44l1.24-2.07 3.73-5.7 5.39-5.91 7.98-7.26 6.12-5.49s6.22-7.78 6.43-8.09c.21-.31 1.66-3.73 1.66-3.73l.93-2.49.41-2.18V173.2l-.73-2.49.1-1.97-29.17-1.8h-13.49l-36.53 1.8z" id="Layer_4"/><g id="Layer_2"><path class="st2" d="M295.73 191.32c.63-5.94 2.33-14.76 7.2-24.3 1.12-2.18 6.15-11.75 16.43-20.92 7.18-6.42 13.76-9.81 15.75-10.8 8.22-4.09 15.29-5.55 18.23-6.07 12.77-2.27 22.87-.1 28.35 1.12 5.99 1.34 15.2 3.51 24.98 10.35 8.31 5.82 13.07 12.25 16.43 16.88 3.37 4.63 7.36 10.23 9.9 18.68a53.411 53.411 0 0 1 2.25 15.52v2.25l29.92 1.58v8.55l-169.44-12.84zM370.54 212.7c.05 1.73.38 4.89 2.14 8.32 2.11 4.12 5.08 6.32 5.85 6.86 1.58 1.12 5.77 3.7 11.48 3.38 6.23-.36 10.21-3.95 11.81-5.4 1.22-1.1 5.78-5.33 6.63-11.79.08-.57.11-1.05.12-1.37h-38.03zM320.1 211.95c.07 1.24.27 3.06.9 5.18.63 2.12 2.15 7.19 6.98 10.57 3.67 2.57 7.42 2.88 9.07 3 4.82.34 8.51-1.25 10.58-2.18 1.43-.63 3.23-1.44 4.95-2.92 4.72-4.07 5.41-10.31 5.55-12.68v-.98H320.1zM283.35 128.1c-.68-5.71-2.66-16.01-9.45-26.78-9.07-14.39-21.22-20.93-24.3-22.5-19.24-9.82-37.54-6.05-42.53-4.95-5.88 1.3-20.72 4.81-32.85 18.45-13.11 14.74-14.42 31.62-14.62 36.68l-27.23 2.02v7.65l150.98-10.57zM297.75 241.8c-.23 4.84-.19 11.4.9 19.05 1.01 7.06 2.6 12.88 3.6 15.9 1.02 3.09 5.4 15.3 24.15 31.95 9.1 8.08 24.52 19.82 47.25 28.95 1.02-1.87 2.62-4.62 4.8-7.8 6.38-9.3 11.63-13.23 22.95-23.7 17.22-15.93 20.73-21.32 22.35-24 3.63-6 5.7-11.5 6.9-15.3l-1.2-25.05-39.9-2.85h-51.3l-40.5 2.85zM219.75 144.75c-.54 7.39-5.46 13.63-12.23 15.6-6.55 1.91-13.11-.69-17.1-4.8-4.08-4.2-4.79-9.24-4.95-10.95l34.28.15zM264.45 144.98c-1.2 8.7-7.54 15.24-14.85 16.05-8.26.92-14.14-5.88-14.62-6.45-3.34-3.98-4.02-8.35-4.2-10.2l33.68-.3v.9zM254.7 259.95c-1.89-13.18-5.62-23.42-8.7-30.3-1.83-4.09-4.49-9.96-9.45-16.8-2.76-3.81-8.5-11.04-17.55-17.85-15.68-11.79-31.41-14.85-37.95-16.05-16.93-3.1-30.51-.83-36 .3-7.54 1.55-25.46 6.21-42.45 21-10.12 8.81-15.81 17.64-17.85 21-10.02 16.46-12.2 32.3-12.75 40.8l-39 2.55.6 11.55 221.1-16.2zM157.91 287.51c-1.01 12.76-10.46 22.85-21.94 24.3-9.54 1.21-19.07-3.72-23.96-11.48-3.12-4.94-3.64-9.9-3.71-12.49l49.61-.33zM223.95 287.7c-.99 13.26-11.19 23.55-23.1 24.45-10.94.83-20.52-6.48-24.45-14.85-1.8-3.84-2.19-7.43-2.25-9.75l49.8.15zM78.6 325.2c-.8 7.15-1.21 17.77 1.35 30.15 3.95 19.16 12.79 31.86 17.55 38.7 25.05 35.99 70.45 53.57 80.77 57.38l2.7-4.5 8.1-12.38 11.7-12.82 17.33-15.75 13.27-11.93s13.5-16.88 13.95-17.55 3.6-8.1 3.6-8.1l2.02-5.4.9-4.73V334.87l-1.58-5.4.23-4.27-63.3-3.9H157.9l-79.3 3.9z"/></g></svg>