<svg xmlns="http://www.w3.org/2000/svg" width="400" height="435.897"><g fill-rule="evenodd"><path d="M223.426 23.558c-.122.197.057.465.397.596.354.135.514.068.374-.159-.134-.217-.057-.395.172-.395.229 0 .531.461.673 1.024.141.563.467.943.724.844.585-.224 1.602.515 1.937 1.407.165.442.019.736-.425.854-.624.164-.623.182.015.225.636.042.704.91.819 10.346l.124 10.3.032-12c.022-8.471-.101-12.086-.419-12.294-.313-.205-.29-.296.075-.3.288-.003.412-.186.276-.406-.307-.496-4.471-.533-4.774-.042m3.455.628c.102-.102.186.084.186.414 0 .33-.15.6-.334.6-.183 0-.336-.225-.339-.5-.004-.333-.136-.3-.394.1-.213.33-.391.48-.394.333-.003-.147-.123-.573-.267-.947-.221-.576-.137-.613.548-.247.444.238.891.349.994.247M156.4 51.391c0 4.017 4.359 5.459 9.699 3.209l1.898-.8.002-2.5.001-2.5h-11.6v2.591m82.152-1.503c.1.612.197 1.76.215 2.551.059 2.559 4.933 3.843 8.552 2.253l1.52-.667-.12-2.513L248.6 49l-5.115-.112-5.116-.112.183 1.112m-92.138 4.886c-1.442 2.694-.347 4.426 2.799 4.426h2.719l.134-2.601.134-2.601-2.686.001c-2.246.001-2.754.128-3.1.775m106.943-.141c.134.348.243 1.526.243 2.619v1.986l2.5-.119 2.5-.119.119-2.5.119-2.5h-2.862c-2.445 0-2.826.092-2.619.633M136.43 59.181c-.23.143-.374 1.319-.323 2.638l.093 2.381 2.7.118 2.7.119v-2.591c0-2.371.076-2.604.9-2.754.495-.09-.575-.164-2.377-.165-1.802-.002-3.464.113-3.693.254m125.87-.091c.787.145.9.409.9 2.112 0 2.59.591 4.11 1.5 3.858.385-.106 1.555-.309 2.6-.451l1.9-.258v-2.549c0-2.999.065-2.958-4.6-2.911-1.76.018-2.795.107-2.3.199m-136.433 5.177c-.147.146-.267 1.316-.267 2.6V69.2h-2.357c-2.694 0-2.843.169-2.843 3.233V74.4h-4.721l-.282 2.425c-.155 1.333-.217 2.469-.139 2.525.963.683 5.205 2.201 5.661 2.026.617-.237.711-.425 1.591-3.166.421-1.312.76-1.662 1.944-2 1.877-.537 2.639-1.212 2.946-2.61.314-1.429.807-1.825 2.7-2.166.825-.149 1.5-.43 1.5-.625s.36-.469.8-.609c.705-.224.8-.605.8-3.227V64h-3.533c-1.944 0-3.654.12-3.8.267m145.646 2.618c.21 3.105.587 3.661 3.455 5.102.671.337 1.403.982 1.626 1.433 1.502 3.033 2.921 4.107 5.614 4.246l2.594.134-.001-3.667c-.001-4.939.002-4.933-2.844-4.933H279.6v-1.967c0-3.254.029-3.233-4.384-3.233h-3.899l.196 2.885m13.074 14.042c-.507 2.704-.12 3.93 1.397 4.423 1.503.489 1.898 1.293 1.99 4.05.029.88.401 2.32.826 3.2.425.88.779 1.825.786 2.1.015.544 1.359.633 3.714.243l1.5-.248v-4.901c0-5.533.102-5.377-3.5-5.389l-1.7-.005v-4.8h-2.382c-2.38 0-2.382.001-2.631 1.327M201.156 101.5c-.025.825-.014 1.891.024 2.369.049.618-.197.92-.855 1.045-.509.098.155.187 1.475.2 1.32.013 2.175-.068 1.9-.179-.321-.129-.5-1.049-.5-2.568 0-2.996-1.957-3.826-2.044-.867m-9.476 2.58c-.612.612-.622 3.572-.016 4.901.432.947.657 1.019 3.2 1.019h2.736v-2.538c0-3.181-.609-3.862-3.451-3.862-1.094 0-2.205.216-2.469.48m16.163 5.353c-.488 1.27-.271 20.379.237 20.887.264.264 1.489.48 2.721.48h2.242l.884-2.746c1.1-3.415.945-8.386-.559-17.954l-.204-1.3h-2.539c-1.947 0-2.596.148-2.782.633m-106.546.857-1.304.161.104 22.875.103 22.874h5.196l.922-2.324c.917-2.312.918-2.34.248-5.8-.37-1.912-.784-6.159-.92-9.439-.225-5.451-.311-5.972-1.006-6.073-.418-.061-.895-.329-1.059-.595-.209-.338-.359-.255-.494.273-.169.658-.2.666-.241.058-.053-.807-.691-.939-.963-.2-.102.275-.306.046-.454-.509-.149-.556-.092-1.456.125-2 .279-.699.403-.784.421-.291.028.788.822.979.831.2.004-.333.136-.3.394.1s.39.433.394.1c.003-.275.456-.5 1.006-.5.991 0 1-.033.999-3.5 0-1.925.21-5.002.466-6.838.454-3.246.371-4.178-.726-8.162-.196-.71-.981-.79-4.042-.41m90.47 27.128c-1.015 2.428-.624 4.584 1.033 5.695.77.517 1.647 1.422 1.949 2.013.884 1.731 2.068 2.818 3.61 3.315 1.949.627 2.441 1.079 2.441 2.245 0 .652.272 1.06.8 1.198.44.115.8.368.8.563 0 .194.864.353 1.92.353 2.318 0 2.88.484 2.88 2.48v1.52l2.3-.006c1.265-.003 2.535-.155 2.822-.337.696-.442.496-5.035-.222-5.107-.275-.028-1.391-.072-2.481-.1l-1.981-.05-.119-2.5-.119-2.5-2.481-.119-2.482-.118-.118-2.482L202.2 141l-2.281-.119-2.28-.12-.12-2.28-.119-2.281-2.512-.119-2.513-.12-.608 1.457m105.454 5.68c-1.528.105-2.33.366-2.686.873-.279.399-1.144 1.027-1.921 1.396-1.382.655-1.414.724-1.414 3.018 0 1.501-.181 2.424-.5 2.557-.275.115 1.66.175 4.3.134l4.8-.076.114-4.1c.063-2.255-.027-4.067-.2-4.026-.173.041-1.295.141-2.493.224m-84.24 5.966.072 1.936 2.164.124c2.16.124 2.657-.143.776-.416-1.645-.239-2.854-1.084-2.621-1.832.115-.372.058-.917-.127-1.212-.205-.326-.308.222-.264 1.4m2.551 9.883c.19 3.682.954 4.331 4.914 4.172 1.661-.067 2.897-.287 2.824-.503-.071-.212.199-.514.6-.672.645-.254.651-.291.049-.316-.552-.023-.703-.501-.8-2.528l-.119-2.5-3.8-.114-3.8-.114.132 2.575m9.382 3.51c.064.847.529.988.805.243.135-.366.381-.313.919.2.403.385.53.7.281.7s-.512-.162-.586-.361c-.073-.198-.397-.074-.72.277-.517.56-.515.609.017.405.703-.27 1.71.387 2.073 1.354.167.447.024.723-.425.816-.546.114-.511.187.179.377.814.223.853.111.782-2.217l-.075-2.451-1.653-.043c-1.378-.037-1.643.08-1.597.7m-119.429 2.191c-.157.157-.285 1.785-.285 3.619v3.333H110.343l.448-2.155c.442-2.133.255-4.046-.439-4.475-.593-.366-4.56-.628-4.867-.322m4.998 14.552.117 2.6 2.441.129 2.441.129.072-2.594.071-2.595-2.629-.134-2.63-.135.117 2.6m147.237 5.367c-1.601 3.157-1.155 3.962 2.446 4.411 2.397.3 3.434 1.179 3.434 2.911 0 .837.171.908 2.1.876 2.719-.045 6.689-.634 4.8-.712l-1.3-.053v-4.8H264V182l-2.5.021-2.5.02-1.28 2.526m-142.466 1.677c-.029 1.124.062 2.887.203 3.917l.256 1.873 2.636-.117 2.635-.117.332-1.988c.535-3.204.044-3.812-3.08-3.812-2.358 0-2.595-.078-2.754-.9-.095-.495-.198.02-.228 1.144m158.352 6.456c.018.877.782 1.459.788.6.003-.495-.174-.9-.394-.9-.22 0-.397.135-.394.3m3.902 4.726c-1.419 1.418 1.121 7.374 3.144 7.374.988 0 2.148 1.354 2.148 2.507 0 1.598 1.783 2.693 4.382 2.693h2.418v-7.6h-4.8v-2.12c0-1.166-.216-2.336-.48-2.6-.482-.482-6.365-.702-6.812-.254m-151.732 2.692c-.116.302-.158 2.064-.093 3.915l.117 3.367 2.5.119 2.5.119v2.338c0 2.826-.004 2.824 4.958 2.824h3.693l-.153-2.5c-.161-2.628-1.573-4.588-3.979-5.523-.484-.189-1.16-.883-1.502-1.543-1.487-2.876-7.273-5.117-8.041-3.116m15.924 12.538c-.32.135-.5 1.063-.5 2.577v2.367h4.8l.005 1.7c.012 3.477.039 3.5 4.042 3.5h3.553v-2.419c0-3.116-1.148-4.349-4.067-4.368-1.837-.013-1.875-.04-2.431-1.713l-.565-1.7-2.169-.077c-1.192-.043-2.393.017-2.668.133m152.197.644c.218.275.496.77.618 1.1.126.342.235.127.253-.5.022-.761-.168-1.1-.617-1.1-.463 0-.536.143-.254.5m-.233 5.719c-.716 1.571-.559 3.794.412 5.85l.884 1.87 2.521.13 2.521.131-.001-4.5L300 218h-2.936c-2.758 0-2.964.062-3.4 1.019m-137.109 6.878c.045 1.878.064 1.904 1.445 2.01 1.306.1 1.349.067.641-.487-.417-.327-.883-.518-1.035-.424-.151.094-.244-.364-.205-1.017.039-.653-.146-1.367-.41-1.587-.364-.302-.47.064-.436 1.505m6.645.796c-1.644.302-1.812.676-1.6 3.573l.2 2.734 3.8.114 3.8.114-.133-2.594c-.183-3.553-1.947-4.699-6.067-3.941m136.247 1.917c-.355.355-.736 1.083-.846 1.618l-.398 1.93c-.108.527.072 1.72.4 2.65.328.931.597 2.111.597 2.623 0 2.27.713 2.896 3.46 3.037l2.561.132-.111-6.2-.11-6.2-2.454-.118c-1.842-.088-2.614.043-3.099.528M200.8 252.388c-.99.405-2.115.838-2.5.962-.572.184-.7.702-.7 2.837v2.613h4.8l.005 1.7c.011 3.315.171 3.5 3.028 3.5 2.882 0 3.1-.202 3.496-3.244.279-2.144-.11-2.852-2.12-3.859-.948-.475-1.506-1.103-1.75-1.97-.198-.701-.832-1.724-1.409-2.275l-1.05-1.001-1.8.737M100.183 254.1c-.105.275-.145 8.33-.087 17.9l.104 17.4h5.08l.774-2c.724-1.871.769-3.023.694-17.9l-.081-15.9h-3.146c-2.148 0-3.207.159-3.338.5m204.493 1.028c-.824 2.058-.913 35.666-.101 38.011l.506 1.461h5.119l.111-19.6c.131-23.232.36-21.4-2.675-21.4-2.349 0-2.349 0-2.96 1.528m-114.862 7.97c-3.732.23-3.575-.262-3.274 10.302.4 14.011.747 20.193 1.121 19.962.186-.115.339.001.339.257 0 .257.258.367.574.246.316-.121.662-.005.77.257.139.342.316.307.619-.122.378-.533.429-.533.459 0 .023.404.146.339.378-.2.294-.684.348-.699.372-.1.015.385.201.7.412.7.212 0 .445 1.575.518 3.5.073 1.925.171-5.185.216-15.8.045-10.615.037-19.266-.018-19.224-.055.041-1.174.141-2.486.222m17.98 6.602c-.122.495-.171 3.96-.108 7.7l.114 6.8 2.68.118 2.68.118.414-1.54c.871-3.233.929-4.303.451-8.24-.711-5.851-.714-5.856-3.609-5.856-2.157 0-2.423.091-2.622.9m.303 35.563c-.519.519-.724 7.681-.254 8.904.31.81 5.294.93 5.531.133.082-.275.4-1.32.707-2.322.508-1.658.484-2.056-.261-4.4L213 305l-2.203-.117c-1.368-.073-2.391.071-2.7.38m-13.764 12.736c.093 1.968.288 2.801.654 2.801.287 0 1.037.269 1.667.598 1.56.813 5.79.764 8.382-.098l2.106-.7.129-2.701.129-2.701h-13.2l.133 2.801M120.459 342.7c.072 3.29.081 3.3 2.968 3.3H126v-5.2h-5.583l.042 1.9m163.941.587c0 2.469-.277 2.697-3.3 2.708-1.361.004-1.503.107-1.531 1.105-.089 3.226-.422 3.643-3.014 3.779l-2.286.121-.446 1.6c-.433 1.551-.516 1.612-2.717 2-1.25.22-2.495.625-2.769.9-.273.275-.731.5-1.017.5-.374 0-.52.736-.52 2.615v2.615l3.7-.115 3.7-.115.119-2.5.119-2.5h5.162v-4.8h2.376c1.307 0 2.481-.169 2.609-.376.332-.537.409-9.163.085-9.487-.148-.149-.27.729-.27 1.95m-158.658 6.508c.032.548.309 1.092.615 1.21.928.356.979-.106.131-1.184l-.803-1.021.057.995m5.558.87c-.327.132-.5 1.089-.5 2.768V356h5.2v5.2l3.9.001 3.9.001-.13-2.514c-.152-2.921-1.473-4.288-4.146-4.288-1.614 0-2.018-.373-2.703-2.5l-.483-1.5-2.269.032c-1.248.017-2.494.122-2.769.233m17.3 9.997-1.7.361c-.762.163-.899.451-.895 1.885.012 3.455.053 3.492 3.942 3.493l3.453.001-.135-2.624c-.165-3.192-1.161-3.857-4.665-3.116m109.614.638c-.088.275-.253 1.357-.367 2.405-.113 1.047-.315 2.082-.45 2.3-.154.248 1.025.395 3.179.395H264v-2.557c0-2.944-.112-3.043-3.445-3.043-1.392 0-2.238.181-2.341.5m-99.885 4.161c-1.606.28-1.984 1.016-1.85 3.605l.121 2.334 5.2.075c2.86.041 4.975-.019 4.7-.133-.318-.133-.5-1.047-.5-2.511 0-2.945-2.873-4.207-7.671-3.37m89.271-.023c-2.227.817-2.4 1.045-2.4 3.15 0 1.128-.222 2.274-.494 2.546-.391.391.499.47 4.3.38l4.794-.114.118-2.476c.102-2.113.005-2.537-.657-2.892-.929-.497-4.814-.904-5.661-.594m-69.3 5.625c-1.461.606-1.5.677-1.5 2.7 0 2.632.431 3.037 3.238 3.037h2.277l1.006-2.5c1.497-3.722-.596-5.072-5.021-3.237m48.8.145c-1.095.675-1.012 5.185.1 5.476.774.202.8.545.799 10.463V397.4l-2.192.102c-1.991.094-2.349.261-3.923 1.835-1.039 1.039-2.264 1.839-3.058 1.998-2.164.433-25.382.231-31.226-.271l-5.4-.464-.117 3.166c-.084 2.259.031 3.26.4 3.496.284.181 10.687.286 23.117.234l22.6-.096.105-15.3.105-15.3h4.79v-2.557c0-1.965-.147-2.614-.634-2.801-1.315-.504-4.787-.653-5.466-.234" fill="#414141"/><path d="M39.1 2.676c-.567.148-.7.632-.7 2.553V7.6h-2.357c-3.004 0-2.843-.577-2.843 10.2 0 10.77-.158 10.2 2.824 10.2h2.338l.119 2.5.119 2.5 2.488.119 2.488.119.112 5.081.112 5.081 2.481.119 2.482.118.118 2.482L49 48.6l2.481.119 2.482.118.118 2.482.119 2.481 2.263.119 2.263.119.276 2.381.277 2.381h4.697l.112 5.1.112 5.1 2.481.119 2.482.118.118 2.482.119 2.481 2.481.119 2.482.118.118 2.482.119 2.481 2.5.119 2.5.119V84.4h5.2v10.4h4.8v1.967c0 3.064.149 3.233 2.843 3.233H94.8v2.357c0 2.694.169 2.843 3.233 2.843H100v4.8h2.446c6.463 0 6.354-.412 6.492 24.737.127 23.162.304 21.563-2.412 21.734-.619.038.128.173 1.661.3 2.727.224 2.812.265 3.888 1.871 2.156 3.218 2.672 12.463.725 13.001-.734.204-.455.288 1.046.317 3.746.073 5.953 3.545 5.076 7.982-.435 2.202-.254 2.458 1.741 2.458 1.378 0 3.177 1.921 3.733 3.985.403 1.497 2.439 4.015 3.246 4.015.145 0 .748.99 1.34 2.2.592 1.21 1.262 2.2 1.488 2.2.407 0 7.528 7.173 7.533 7.587.002.19 1.04.9 3.321 2.272.965.579 3.076 2.875 3.076 3.344 0 .195 1.053.738 2.34 1.207 1.858.678 2.537 1.174 3.3 2.411.741 1.203 1.415 1.711 2.96 2.231 1.858.626 3.266 1.793 5.441 4.509.529.66 1.388 1.058 2.753 1.274 2.039.322 3.366 1.227 4.168 2.844.284.571 1.137 1.133 2.248 1.48 2.677.835 3.562 1.308 5.114 2.729l1.411 1.292-.544 1.71c-.298.941-.779 2.065-1.067 2.499-.303.456-.524 1.933-.524 3.5v2.711h-5.2v5.2h-5.2v4.8h-1.967c-3.064 0-3.233.149-3.233 2.843v2.357H109v33.536l-.938.998c-.516.549-1.371 1.107-1.9 1.24-.91.228-.96.397-.922 3.134.044 3.185.431 5.149.873 4.432 1.143-1.849 5.18.324 5.905 3.177.179.706.598 2.132.931 3.17l.605 1.888-1.251 1.412c-1.216 1.375-1.33 1.413-4.177 1.413H105.2v7.162l-2.5.119-2.5.119-.119 2.481-.118 2.482-2.482.118L95 320.6l-.119 2.5-.119 2.5h-2.338c-2.645 0-2.824.192-2.824 3.033v1.767h-1.767c-2.841 0-3.033.179-3.033 2.824v2.338l-2.5.119-2.5.119-.119 2.481-.118 2.482-2.482.118L74.6 341l-.112 5.1-.112 5.1H69.2v4.8h-1.826c-2.864 0-3.374.453-3.374 2.994v2.166l-2.3.12-2.3.12-.356 2.5-.356 2.5H54v5.2h-5.2v5.2h-5.2v5.2h-5.2v10h-2.357c-2.694 0-2.843.169-2.843 3.233v1.967h-4.8v5.2h-5.2v5.2h-5.214l.107 10.1.107 10.1 2.481.119 2.482.118.118 2.482L23.4 433h20l.119-2.481.118-2.482 2.482-.118 2.481-.119.119-2.481.118-2.482 2.482-.118 2.481-.119.119-2.5.119-2.5H58.8v-5.2H64v-4.762l2.5-.119 2.5-.119.112-5.081.112-5.081 2.488-.119L74.2 397l.119-2.481.118-2.482 2.482-.118 2.481-.119.119-2.481.118-2.482 2.482-.118 2.481-.119.119-2.5.119-2.5H89.6v-4.762l2.5-.119 2.5-.119.119-2.481.118-2.482 2.482-.118 2.481-.119.112-5.081.112-5.081 2.488-.119L105 361l.119-2.5.119-2.5h5.162v-4.8h4.8v-5.162l2.5-.119 2.5-.119.207-2.6c.509-6.383 5.981-8.253 8.781-3 .689 1.293 1.549 2.246 2.432 2.695.751.382 1.785 1.405 2.297 2.272.71 1.202 1.456 1.794 3.144 2.494 1.72.713 2.381 1.245 2.963 2.387.628 1.23 1.141 1.602 3.146 2.279 2.578.87 2.779 1.003 5.405 3.573 1.332 1.303 2.044 1.7 3.053 1.7 1.493 0 3.972.799 3.972 1.28 0 .176.225.322.5.325.275.003 1.242.694 2.149 1.537 1.514 1.406 1.892 1.553 4.6 1.788 3.472.301 7.431 1.401 9.951 2.765l1.8.974v5.368l1.177-.118c.942-.095 1.241-.369 1.5-1.373.607-2.361 4.102-3.218 7.245-1.777 3.059 1.403 3.473 3.51 3.476 17.698l.002 11.467 2.02.433c3.004.644 28.031.586 28.868-.067.555-.433.664-2.124.818-12.7.104-7.11.352-12.625.595-13.219 1.762-4.302 11.157-5.461 12.63-1.557.482 1.276 4.222 1.864 4.303.676.019-.275.007-1.415-.026-2.533-.093-3.174 5.567-6.167 11.663-6.167 1.832 0 3.012-.544 4.053-1.867.898-1.141 4.56-2.933 5.996-2.933 1.452 0 2.906-.732 3.464-1.744.721-1.307 3.237-2.885 5.543-3.476 1.633-.419 2.178-.77 2.571-1.656.273-.618.633-1.124.8-1.124.166 0 .302-.25.302-.557 0-.306.675-.841 1.5-1.189 2.016-.85 2.611-1.392 3.415-3.11.409-.874 1.055-1.55 1.618-1.691 1.485-.373 2.983-1.761 3.26-3.02.16-.728.838-1.561 1.83-2.249l1.577-1.093 1.582 1.096c1.746 1.21 2.241 2.826 1.957 6.391-.121 1.526-.031 1.822.558 1.822.568 0 .703.351.703 1.826 0 2.864.453 3.374 2.994 3.374h2.166l.12 2.3.12 2.3 2.5.119 2.5.119v5.162h5.176l.112 5.1.112 5.1 2.481.119 2.482.118.118 2.482.119 2.481 2.263.119 2.263.119.276 2.381.277 2.381h4.683l.119 2.5.119 2.5 2.488.119 2.488.119.112 5.081.112 5.081 2.5.119 2.5.119v2.338c0 2.671.175 2.824 3.214 2.824h1.948l.119 2.5.119 2.5 2.5.119 2.5.119v4.762h4.8l.005 4.3c.008 6.132-.007 6.1 2.823 6.1h2.334l.119 2.5.119 2.5 2.5.119 2.5.119v2.338c0 2.991-.639 2.824 10.833 2.824h9.567v-5.162l2.5-.119 2.5-.119.107-10.1.107-10.1H376.8v-5.2h-5.2V392h-4.8v-2.12c0-1.166-.216-2.336-.48-2.6-.264-.264-1.434-.48-2.6-.48h-2.12V382h-5.2v-5.2h-5.176l-.112-5.1-.112-5.1-2.481-.119-2.482-.118-.118-2.482-.119-2.481-2.3-.12-2.3-.12v-2.19c0-2.479-.596-2.97-3.606-2.97h-1.554l-.12-2.3-.12-2.3-2.488-.119-2.488-.119-.112-5.081L330.6 341l-2.481-.119-2.482-.118-.118-2.482-.119-2.481-2.5-.119-2.5-.119v-2.338c0-2.673-.173-2.824-3.233-2.824H315.2v-4.8h-4.8v-4.567c0-5.934.049-5.833-2.843-5.833-2.178 0-2.357-.068-2.357-.9 0-.859-.113-.891-2.5-.695-6.154.506-7.618-4.273-3.686-12.032l.999-1.973h2.207c1.914 0 2.254.119 2.568.9.262.652.368.004.387-2.351l.025-3.252-1.254-.519c-2.616-1.084-2.71-1.791-2.713-20.345-.003-18.523.033-18.8 2.553-19.853 1.388-.58 1.414-.632 1.402-2.885-.009-1.754-.108-2.13-.42-1.595-.716 1.23-5.568.898-5.568-.381 0-.328-.329-1.073-.73-1.657-.748-1.087-1.76-5.776-2.473-11.453-.359-2.863-.527-3.29-1.629-4.153-1.496-1.171-3.009-4.363-3.334-7.033-.239-1.974-1.438-3.823-2.477-3.823-.277 0-.617-.36-.757-.8-.14-.44-.414-.8-.609-.8s-.469-.675-.608-1.5c-.429-2.542-.535-2.719-2.664-4.451-2.171-1.766-3.919-3.996-3.919-5 0-.326-.806-.995-1.791-1.487-.985-.492-2.611-1.81-3.614-2.928-2.956-3.296-3.106-3.434-3.765-3.443-1.48-.02-3.903-1.52-4.402-2.724-.407-.982-1.007-1.421-2.933-2.151-2.048-.774-2.52-1.143-3.058-2.386-.462-1.066-.948-1.532-1.769-1.696-.622-.125-1.792-.514-2.6-.864-5.588-2.427-6.097-4.282-1.868-6.807 2.718-1.621 3.501-1.874 6.6-2.122l3-.241.119-2.481.118-2.482 2.482-.118L269 176.6l.112-5.1.112-5.1h5.176v-4.762l2.5-.119 2.5-.119.119-2.481.118-2.482 2.482-.118 2.481-.119.119-2.5c.104-2.172.222-2.5.9-2.5.695 0 .781-.288.781-2.605 0-3.166.396-3.883 3.117-5.64 1.164-.752 2.469-1.964 2.899-2.693 1.031-1.747 2.087-2.248 4.984-2.366 2.133-.087 2.414-.196 2.525-.978.112-.784.398-.894 2.6-1L305 135.8l.112-5.081.112-5.081 2.488-.119 2.488-.119.119-2.5.119-2.5h4.762v-5.2h5.2V110h5.2v-4.762l2.5-.119 2.5-.119.119-2.481.118-2.482 2.482-.118 2.481-.119.112-5.081.112-5.081 2.488-.119L341 89.4l.119-2.5.119-2.5H346v-4.762l2.5-.119 2.5-.119.119-2.481.118-2.482 2.482-.118 2.481-.119.119-2.481.118-2.482 2.482-.118L361.4 69l.119-2.481.118-2.482 2.482-.118 2.481-.119.119-2.5.119-2.5h4.762v-10h5.2v-5.162l2.5-.119 2.5-.119.119-2.481.118-2.482 2.482-.118L387 38.2v-20l-2.481-.119-2.482-.118-.118-2.482L381.8 13h-20l-.119 2.481-.118 2.482-2.482.118-2.481.119-.119 2.481-.118 2.482-2.482.118-2.481.119-.119 2.263-.119 2.263-2.343.272c-2.576.299-2.803.579-2.814 3.482L346 33.16l-2.3.12-2.3.12-.112 5.1-.112 5.1H336v5.2h-5.2V54h-5.2v4.8h-2.12c-2.65 0-3.08.43-3.08 3.08V64H315.693l-.278 2.6-.279 2.6H310.4v10.4h-5.2v4.8l-1.7.005c-3.269.011-3.5.197-3.5 2.823v2.334l-2.5.119-2.5.119-.212 3.246c-.223 3.434-.698 4.415-3.68 7.605l-1.17 1.251-.917-.917c-1.154-1.154-2.621-4.148-2.621-5.349 0-1.536-1.648-6.436-2.164-6.436-.903 0-2.515-2.187-3.033-4.114-.384-1.427-.883-2.18-1.959-2.955-1.243-.896-2.728-2.596-4.244-4.857-.763-1.138-4.002-4.07-4.5-4.072-.275-.001-.5-.164-.5-.362 0-.199-.612-.722-1.361-1.164-.748-.441-1.603-1.307-1.9-1.923-.385-.801-1.038-1.264-2.292-1.626-3.589-1.037-5.647-2.733-5.647-4.652 0-.553-.414-.678-2.3-.689-2.867-.018-6.674-.903-7.519-1.748-.351-.351-.793-.638-.983-.638-.189 0-.453-.344-.587-.764-.293-.923-2.096-1.373-8.879-2.214-5.874-.729-9.541-2.068-10.167-3.714-.212-.559-.695-.92-1.255-.94-4.514-.156-4.966-.26-6.133-1.409L219.8 50.2l-.12-13.5-.12-13.5h-31.549l-.106 13.1-.105 13.1-1.6-.039c-.88-.022-2.77-.186-4.2-.366-2.346-.295-2.549-.265-2.078.307 1.04 1.261.454 4.739-.922 5.476-1.856.995-6.703 2.422-8.228 2.424-3.127.003-11.366 1.634-11.972 2.37-2.821 3.424-11.812 4.45-12.52 1.428-.103-.44-.208.294-.234 1.63-.063 3.333-1.74 4.802-6.346 5.56-.935.154-1.7.411-1.7.572 0 .892-4.028 4.414-5.581 4.879-1.448.435-1.827.778-2.445 2.219-.573 1.338-1.154 1.919-2.698 2.701-1.486.754-2.023 1.273-2.193 2.124-.124.619-.598 1.556-1.054 2.082-.456.525-.829 1.108-.829 1.294 0 .187-.339.339-.753.339-.417 0-.847.357-.963.8-.258.988-1.35 1.051-1.653.096-.123-.387-.626-.882-1.118-1.1-1.833-.812-3.291-3.725-3.452-6.896l-.148-2.9H110.4v-4.567c0-5.934.049-5.833-2.843-5.833H105.2v-2.357c0-2.694-.169-2.843-3.233-2.843H100V54h-5.2v-5.2h-5.2V38.4h-4.8v-2.12c0-2.647-.431-3.08-3.06-3.08h-2.1l-.12-2.3-.12-2.3-2.5-.356-2.5-.356V23.2h-5.176l-.112-5.1L69 13l-2.481-.119-2.482-.118-.118-2.482L63.8 7.8l-2.5-.119-2.5-.119V5.228c0-2.083-.097-2.361-.9-2.576-1.028-.275-17.736-.254-18.8.024m166.311 94.261c3.101.591 4.675 1.691 5.141 3.589.183.747.71 1.317 1.562 1.689 4.049 1.772 4.686 3.99 4.686 16.318 0 10.391-.083 10.741-2.797 11.866l-1.224.507.11 5.647.111 5.647 5.2.254c2.86.14 10.96.276 18 .302 14.018.051 14.459.122 15.741 2.53.949 1.78-2.696 5.093-5.622 5.11-2.085.012-2.719.816-2.719 3.449v2.517l-2.5.119-2.5.119-.119 2.5-.119 2.5h-2.338c-2.645 0-2.824.192-2.824 3.033v1.767h-2.262c-2.166 0-2.234.031-1.6.731 1.019 1.126.922 5.102-.138 5.669-.931.498-2.4-.093-2.4-.966 0-.563-.889-.966-4.2-1.901-1.63-.461-2.147-.836-2.792-2.029-.68-1.255-1.177-1.587-3.5-2.334-1.489-.479-2.708-.997-2.708-1.153 0-.155-.409-.501-.91-.769-.5-.267-1.259-1.007-1.686-1.643-.856-1.272-2.153-2.005-3.551-2.005-1.088 0-3.453-2.003-3.453-2.925 0-.684-1.902-1.875-2.993-1.875-.768 0-3.407-2.561-3.407-3.306 0-.293-.675-.771-1.5-1.061-1.327-.467-6.5-5.276-6.5-6.043 0-.147-.253-.79-.563-1.429-.309-.638-.688-2.119-.841-3.289-.165-1.262-.511-2.218-.848-2.347-4.026-1.545-4.733-25.06-.875-29.125.866-.913 1.52-2.004 1.523-2.54.01-2.155 2.755-5.655 4.442-5.663.309-.001.986-.625 1.504-1.386 1.042-1.53 1.633-1.8 4.858-2.22 3.344-.435 3.593-.43 6.611.146M115.293 183.2c0 .77.082 1.085.183.7.1-.385.1-1.015 0-1.4-.101-.385-.183-.07-.183.7m88.827 66.248c1.813.918 2.669 1.751 3.264 3.175.293.702 1.016 1.446 1.667 1.717 1.316.548 2.949 3.125 2.949 4.655 0 .674.537 1.563 1.535 2.542 2.489 2.439 2.969 4.361 3.167 12.688l.172 7.226-1.036 1.231c-.57.677-1.489 1.345-2.044 1.484l-1.007.253.106 10.272c.106 10.189.114 10.275.981 10.491 4.349 1.084 4.146 11.498-.267 13.71-.76.381-1.699 1.312-2.087 2.068-1.526 2.974-2.404 3.239-10.72 3.233-9.458-.006-10.662-.546-11.4-5.112-.339-2.101-.563-2.554-1.473-2.987-3.466-1.652-3.908-4.939-4.194-31.223-.277-25.416-.54-24.306 5.822-24.52 2.073-.07 2.591-.221 2.742-.801.149-.57.682-.738 2.645-.832l2.458-.118.2-3c.237-3.555.981-4.885 3.355-5.999 2.006-.941 1.642-.924 3.165-.153" fill="#fcfcfc"/><path d="M182.607 23.526c-.11.11 0 .442.245.737.34.409.302.537-.157.537-.523 0-.612 1.6-.667 11.988l-.065 11.988 1.119.287c.615.158 1.928.298 2.918.312l1.8.025.105-13.121.106-13.122-2.602.085c-1.431.046-2.692.174-2.802.284M219.68 36.7l.12 13.5 1.177 1.159c1.167 1.149 1.619 1.253 6.133 1.409.56.02 1.043.381 1.255.94.626 1.646 4.293 2.985 10.167 3.714 6.783.841 8.586 1.291 8.879 2.214.134.42.398.764.587.764.19 0 .632.287.983.638.845.845 4.652 1.73 7.519 1.748 1.886.011 2.3.136 2.3.689 0 1.919 2.058 3.615 5.647 4.652 1.254.362 1.907.825 2.292 1.626.297.616 1.152 1.482 1.9 1.923.749.442 1.361.965 1.361 1.164 0 .198.225.361.5.362.498.002 3.737 2.934 4.5 4.072 1.516 2.261 3.001 3.961 4.244 4.857 1.076.775 1.575 1.528 1.959 2.955.518 1.927 2.13 4.114 3.033 4.114.516 0 2.164 4.9 2.164 6.436 0 1.201 1.467 4.195 2.621 5.349l.917.917 1.17-1.251c4.301-4.601 4.503-6.446.392-3.573-1.045.73-1.9 1.14-1.9.911 0-.23-.297-.871-.661-1.425-.82-1.252-2.535-6.087-2.537-7.153-.001-.434-.767-1.448-1.702-2.253l-1.7-1.463v-6.093l-1.675-.001c-1.903-.001-2.927-.798-5.529-4.301-.858-1.155-1.729-2.1-1.935-2.1-1.204 0-4.619-3.684-4.738-5.111L269 66.6l-2.59-.121c-4.142-.195-5.313-1.316-5.141-4.924l.131-2.757-1.129.001c-.62.001-1.393.266-1.718.59-.839.84-3.658 1.518-5.147 1.238-2.195-.411-2.574-.962-2.695-3.924-.129-3.139-.687-3.465-2.62-1.532-2.101 2.1-7.165 1.892-12.091-.498l-1.8-.873.009-2.277c.008-1.952-.107-2.308-.8-2.495-1.736-.466-4.811-.202-6.383.549-5.432 2.593-5.426 2.608-5.426-13.377v-13h-2.04l.12 13.5M173.7 49.065c-.318.128-.5 1.033-.5 2.489v2.287l-1.811.879c-.996.484-2.301.882-2.9.885-.599.003-2.259.374-3.689.826-3.843 1.212-7.229.597-8.009-1.455-.76-1.997-1.591-1.174-1.591 1.575 0 2.785-.332 3.313-2.561 4.067-1.445.489-4.688-.176-5.811-1.192-.383-.347-1.39-.623-2.259-.62-.863.003-1.379.138-1.146.3 1.079.75.658 5.182-.576 6.06-1.729 1.232-5.682.852-6.567-.63-.966-1.617-1.681-.556-1.546 2.294.156 3.299-.099 3.719-3.41 5.613-1.171.67-2.326 1.61-2.568 2.088-.54 1.07-2.585 2.961-3.524 3.259-.383.121-1.08.991-1.551 1.934-1.909 3.821-3.232 4.147-6.381 1.571-.935-.765-1.694-1.235-1.687-1.043.028.737 2.255 3.567 3.103 3.944.49.218.992.713 1.115 1.1.303.955 1.395.892 1.653-.096.116-.443.546-.8.963-.8.414 0 .753-.152.753-.339 0-.186.373-.769.829-1.294.456-.526.93-1.463 1.054-2.082.17-.851.707-1.37 2.193-2.124 1.544-.782 2.125-1.363 2.698-2.701.618-1.441.997-1.784 2.445-2.219 1.553-.465 5.581-3.987 5.581-4.879 0-.161.765-.418 1.7-.572 4.606-.758 6.283-2.227 6.346-5.56.026-1.336.131-2.07.234-1.63.708 3.022 9.699 1.996 12.52-1.428.606-.736 8.845-2.367 11.972-2.37 1.525-.002 6.372-1.429 8.228-2.424 1.333-.714 1.964-4.217.973-5.41-.461-.557-5.091-.78-6.273-.303m25.1 47.726c-3.225.42-3.816.69-4.858 2.22-.518.761-1.195 1.385-1.504 1.386-1.687.008-4.432 3.508-4.442 5.663-.003.536-.657 1.627-1.523 2.54-3.858 4.065-3.151 27.58.875 29.125.337.129.683 1.085.848 2.347.153 1.17.532 2.651.841 3.289.31.639.563 1.282.563 1.429 0 .767 5.173 5.576 6.5 6.043.825.29 1.5.768 1.5 1.061 0 .745 2.639 3.306 3.407 3.306 1.091 0 2.993 1.191 2.993 1.875 0 .922 2.365 2.925 3.453 2.925 1.398 0 2.695.733 3.551 2.005.427.636 1.186 1.376 1.686 1.643.501.268.91.614.91.769 0 .156 1.219.674 2.708 1.153 2.323.747 2.82 1.079 3.5 2.334.645 1.193 1.162 1.568 2.792 2.029 3.311.935 4.2 1.338 4.2 1.901 0 .873 1.469 1.464 2.4.966.66-.353.8-.838.8-2.765 0-2.911-.679-3.713-2.326-2.747-.968.568-3.202.916-4.921.768-.356-.031-1.123-.776-1.706-1.656-.808-1.221-1.318-1.6-2.157-1.6-.605 0-1.997-.587-3.095-1.304l-1.995-1.304-.118-2.896c-.13-3.226-.202-3.315-1.517-1.896-1.872 2.02-5.76 1.14-6.699-1.515-.139-.394-1.17-1.14-2.29-1.66-2.135-.989-3.973-2.464-3.981-3.195-.002-.236-.755-.79-1.673-1.23-1.704-.817-2.155-1.234-5.292-4.894-3.052-3.559-3.323-5.875-.963-8.234.859-.859 1.133-1.513 1.133-2.703 0-1.708.061-1.675-3.021-1.615-2.86.055-3.132-.811-3.127-9.954.005-9.039.186-9.471 3.93-9.359l2.218.067v-1.554c0-1.281-.139-1.554-.79-1.554-.994 0-2.01-1.891-2.01-3.742 0-1.809 2.072-4.258 3.604-4.258.581 0 1.403-.362 1.826-.805.424-.443 1.104-1.149 1.513-1.57 1.383-1.424 8.001-1.5 10.134-.116.267.173.559 1.625.664 3.3.104 1.645.204 3.139.224 3.32.019.18.273.09.563-.2.35-.351 1.288-.483 2.788-.393l2.26.137 1.054 2.227c1.03 2.177 1.055 2.421 1.112 10.886l.058 8.658-1.119 1.698-1.119 1.698 1.195-.618c2.387-1.234 2.443-1.503 2.443-11.724 0-12.289-.64-14.512-4.686-16.283-.852-.372-1.379-.942-1.562-1.689-.466-1.898-2.04-2.998-5.141-3.589-3.018-.576-3.267-.581-6.611-.146m-93.2 13.855c0 .16.256.575.569.923 1.087 1.206 1.642 3.724 1.374 6.231-.466 4.363-.326 25.016.2 29.505.573 4.882.169 7.019-1.583 8.398-.812.638-.96 1.106-.961 3.026l-.001 2.271 2.501-.128c2.459-.127 2.514-.106 3.297 1.2 1.864 3.113 1.866 7.583.003 9.129-.33.273-.599 1.105-.599 1.848v1.351h2.571c3.934 0 5.491 3.233 3.174 6.589-1.409 2.04-.769 3.011 1.983 3.011 2.136 0 2.651.142 3.325.917 1.319 1.517 1.524 1.997 1.74 4.083.199 1.923.268 2.019 1.807 2.506l1.6.507-.122 2.093c-.067 1.152-.179 2.274-.249 2.494-.418 1.317-.502 1.276 2.77 1.35 2.327.053 5.021 1.822 5.612 3.685.135.426 1.313 1.498 2.617 2.384 1.305.886 2.372 1.784 2.372 1.996 0 .212.259.385.576.385.726 0 .931.335 1.224 2 .322 1.83.425 1.937 2.114 2.203l2.686.425c.81.129 1.582.707 2.377 1.781.647.875 1.37 1.591 1.606 1.591 2.579 0 5.477 3.215 5.289 5.867-.172 2.418.37 3.074 1.801 2.18 2.56-1.598 5.607-1.027 6.426 1.206.132.36 1.469 1.127 2.971 1.706 3.803 1.465 4.53 2.332 4.53 5.397 0 3.452 1.101 2.961 2.388-1.066l.547-1.71-1.411-1.292c-1.552-1.421-2.437-1.894-5.114-2.729-1.111-.347-1.964-.909-2.248-1.48-.802-1.617-2.129-2.522-4.168-2.844-1.365-.216-2.224-.614-2.753-1.274-2.175-2.716-3.583-3.883-5.441-4.509-1.545-.52-2.219-1.028-2.96-2.231-.763-1.237-1.442-1.733-3.3-2.411-1.287-.469-2.34-1.012-2.34-1.207 0-.469-2.111-2.765-3.076-3.344-2.281-1.372-3.319-2.082-3.321-2.272-.005-.414-7.126-7.587-7.533-7.587-.226 0-.896-.99-1.488-2.2-.592-1.21-1.195-2.2-1.34-2.2-.807 0-2.843-2.518-3.246-4.015-.556-2.064-2.355-3.985-3.733-3.985-1.995 0-2.176-.256-1.741-2.458.877-4.437-1.33-7.909-5.076-7.982-1.501-.029-1.78-.113-1.046-.317 1.947-.538 1.431-9.783-.725-13.001-1.076-1.606-1.161-1.647-3.888-1.871-1.533-.127-2.28-.262-1.661-.3 2.716-.171 2.539 1.428 2.412-21.734-.075-13.709-.262-21.271-.543-21.949-.397-.959-2.795-2.796-2.795-2.142m190.8 27.262c-1.969.164-3.078.819-3.984 2.354-.43.729-1.735 1.941-2.899 2.693-2.721 1.757-3.117 2.474-3.117 5.64 0 2.512.036 2.605 1 2.605.959 0 1-.102 1.007-2.5.007-2.682.321-3.194 2.993-4.885.66-.418 1.74-1.342 2.4-2.054 1.125-1.213 2.575-1.644 5.9-1.751.165-.006.3-.505.299-1.11-.001-1.179-.318-1.266-3.599-.992m-83.517 5.292c.151 1.29 2.904 1.482 22.234 1.551 12.713.045 13.774.103 14.504.783.997.928.371 1.586-2.542 2.674-1.731.646-3.079 1.826-3.079 2.695 0 .179.348.139.774-.089.425-.228 1.1-.416 1.5-.418 2.965-.016 6.624-3.315 5.667-5.11-1.282-2.408-1.722-2.479-15.741-2.526-7.04-.024-15.193-.16-18.117-.302l-5.318-.258.118 1m44.517 39.285c-.66.232-1.427.602-1.704.821-.278.22-1.082.709-1.788 1.087-3.955 2.122-3.266 4.22 2.16 6.577.808.35 1.978.739 2.6.864.821.164 1.307.63 1.769 1.696.538 1.243 1.01 1.612 3.058 2.386 1.926.73 2.526 1.169 2.933 2.151.499 1.204 2.922 2.704 4.402 2.724.659.009.809.147 3.765 3.443 1.003 1.118 2.629 2.436 3.614 2.928.985.492 1.791 1.161 1.791 1.487 0 1.004 1.748 3.234 3.919 5 2.129 1.732 2.235 1.909 2.664 4.451.139.825.413 1.5.608 1.5s.469.36.609.8c.14.44.48.8.757.8 1.039 0 2.238 1.849 2.477 3.823.325 2.67 1.838 5.862 3.334 7.033 1.102.863 1.27 1.29 1.629 4.153.713 5.677 1.725 10.366 2.473 11.453.401.584.73 1.329.73 1.657 0 .792.861 1.081 3.219 1.081 2.264 0 2.781-.584 2.781-3.141 0-2.548-.136-2.674-2.719-2.528-2.089.119-2.356.042-2.768-.8-.795-1.625-2.009-6.027-2.519-9.131-.583-3.55-1.171-5.139-1.997-5.401-.96-.305-2.067-2.559-3.212-6.544-.551-1.921-1.079-3.009-1.515-3.128-1.995-.544-2.18-1.801-1.029-6.98.233-1.048.223-1.053-2.576-1.211-3.036-.172-4.075-.848-5.48-3.566-.338-.653-1.402-1.678-2.365-2.278-2.913-1.817-3.51-2.872-3.354-5.926.134-2.617.132-2.622-.866-2.394-5.236 1.199-6.4 1.052-6.4-.807 0-1.074-.75-1.57-3.007-1.99-1.682-.312-3.393-1.229-3.393-1.818 0-.702-1.764-2.357-2.512-2.357-1.007 0-2.991-.961-4.488-2.175l-1.2-.973 2.588-2.626c1.424-1.444 2.504-2.612 2.4-2.594-.103.017-.728.221-1.388.453m-56.455 67.121c-.91.427-2.025 1.36-2.477 2.075-.991 1.564-.795 1.95.434.853 2.648-2.365 4.329-2.438 6.11-.266.653.797 2.133 2.421 3.288 3.608 2.993 3.077 3.038 8.124.071 8.124-.547 0-.758.262-.725.9.035.677.092.727.23.2.15-.573.639-.7 2.7-.7h2.517l.918 2.5c1.872 5.093 1.978 13.79.198 16.124-1.355 1.777.107 1.467 1.633-.346l1.032-1.227-.172-7.226c-.198-8.327-.678-10.249-3.167-12.688-.998-.979-1.535-1.868-1.535-2.542 0-1.53-1.633-4.107-2.949-4.655-.651-.271-1.374-1.015-1.667-1.717-.595-1.424-1.451-2.257-3.264-3.175-1.523-.771-1.157-.789-3.175.158m-92.961 4.261c-.009.183-.002 7.177.015 15.541.032 15.958-.118 17.534-1.846 19.444-1.058 1.169.792.471 1.913-.722l.934-.994v-16.634c0-12.952-.111-16.672-.5-16.802-.275-.092-.507-.017-.516.167m195.701.336c-2.404 1.044-2.455 1.455-2.452 19.784.003 18.248.098 19.04 2.443 20.252l1.176.609-1.045-1.874-1.046-1.873-.109-16.45c-.116-17.519-.06-18.126 1.837-20.146.987-1.05.949-1.064-.804-.302M189 260.429c-5.867.561-5.543-.942-5.267 24.442.286 26.284.728 29.571 4.194 31.223.91.433 1.134.886 1.473 2.987.738 4.566 1.942 5.106 11.4 5.112 8.316.006 9.194-.259 10.72-3.233.388-.756 1.327-1.687 2.087-2.068 4.167-2.088 4.588-13.692.497-13.692-.699 0-.639.25.396 1.651 2.142 2.9.444 10.349-2.36 10.349-1.096 0-2.056.924-2.404 2.315-1.2 4.779-18.56 4.899-17.911.124.078-.572.266-2.884.419-5.139l.278-4.1-1.561-.042a35.233 35.233 0 0 0-2.602.024c-2.064.131-2.695-5.974-3.022-29.224l-.244-17.358 1.087-1c.926-.852 1.466-.999 3.653-.992 2.344.007 2.567-.066 2.567-.834 0-.462-.225-.826-.5-.807-.275.018-1.58.136-2.9.262M105.24 301.7l-.04 6.3h2.926c2.847 0 2.961-.038 4.177-1.413l1.251-1.412-.605-1.888a66.683 66.683 0 0 1-.931-3.17c-.725-2.853-4.762-5.026-5.905-3.177-.169.274-.388.059-.556-.544-.153-.548-.295 1.839-.317 5.304m193.774-.127c-3.904 7.704-2.465 12.531 3.586 12.027 3.644-.304 3.639-1.865-.005-1.674-3.431.181-4.441-.846-3.536-3.594.674-2.047 1.184-2.326 4.037-2.204 1.922.082 2.104-.154 2.104-2.735 0-3.211-.457-3.793-2.983-3.793h-2.204l-.999 1.973M109.9 304.375c1.755.087.056.825-1.9.825-2.23 0-2.809-.258-2.121-.945.153-.154 1.008-.195 1.9-.092a52.84 52.84 0 0 0 2.121.212m13.9 33.285c-1.508.777-2.971 2.169-2.991 2.843-.005.167.306.136.691-.069 3.815-2.035 6.5-1.357 6.5 1.641 0 1.376 1.265 2.725 2.556 2.725.741 0 1.146.404 1.8 1.795.744 1.584 1.032 1.826 2.444 2.051.88.141 1.6.413 1.6.605s.246.349.546.349c.3 0 1.044.72 1.654 1.6.61.88 1.266 1.6 1.459 1.6 2.794 0 5.941 3.129 5.941 5.907 0 2.17.028 2.231.623 1.382.972-1.387 5.355-1.29 7.455.165 1.493 1.034 1.522 1.104 1.522 3.6 0 2.636.427 3.201 1.246 1.646 1.048-1.991 5.429-2.156 9.793-.37l2.761 1.13.119 2.689.118 2.688 2.482-.118 2.481-.119v-5.135l-1.8-.973c-2.523-1.362-6.483-2.462-9.951-2.762-2.708-.235-3.086-.382-4.6-1.788-.907-.843-1.874-1.534-2.149-1.537-.275-.003-.5-.149-.5-.325 0-.481-2.479-1.28-3.972-1.28-1.009 0-1.721-.397-3.053-1.7-2.626-2.57-2.827-2.703-5.405-3.573-2.005-.677-2.518-1.049-3.146-2.279-.582-1.142-1.243-1.674-2.963-2.387-1.688-.7-2.434-1.292-3.144-2.494-.512-.867-1.546-1.89-2.297-2.272-.881-.448-1.742-1.402-2.426-2.684-1.671-3.135-3.022-3.774-5.394-2.551m159.316.189c-.884.629-1.575 1.507-1.726 2.195-.274 1.249-1.776 2.637-3.257 3.009-.563.141-1.209.817-1.618 1.691-.804 1.718-1.399 2.26-3.415 3.11-.825.348-1.5.883-1.5 1.189 0 .307-.136.557-.302.557-.167 0-.527.506-.8 1.124-.393.886-.938 1.237-2.571 1.656-2.306.591-4.822 2.169-5.543 3.476-.558 1.012-2.012 1.744-3.464 1.744-1.436 0-5.098 1.792-5.996 2.933-1.041 1.323-2.221 1.867-4.053 1.867-2.624 0-8.587 1.743-10.217 2.986-1.449 1.105-1.477 1.177-1.408 3.671l.07 2.543h4.284v-2.609c0-2.469.059-2.632 1.1-3.061.605-.25 1.832-.786 2.726-1.192 2.781-1.262 6.382-1.028 7.817.508 1.07 1.146 2.447 1.155 2.297.016-.385-2.91.093-4.297 1.8-5.229 2.21-1.207 5.213-1.026 6.354.384.932 1.151 1.027 1.022 1.346-1.837.325-2.91 3.235-5.685 6.072-5.791.158-.006.709-.694 1.225-1.53.65-1.055 1.445-1.703 2.6-2.118 1.311-.472 1.861-.981 2.597-2.407.685-1.324 1.403-2.035 2.687-2.659 1.351-.657 1.962-1.29 2.666-2.763 1.702-3.564 3.712-2.562 3.714 1.85.001 2.37.082 2.638.8 2.638 1.983 0 1.219-6.462-.941-7.958-1.823-1.264-1.557-1.265-3.344.007m-104.105 30.376c-1.491.778-1.368.629-1.812 2.18l-.377 1.314.894-.84c.94-.883 3.474-2.079 4.405-2.079.3 0 1.236.596 2.079 1.325l1.533 1.325-.529 1.791c-.354 1.197-.97 2.118-1.856 2.775l-1.326.984-.011 11.09-.011 11.09 1.198-.24c.658-.131 3.043.062 5.3.43 3.377.551 6.448.648 17.376.55l13.274-.12 1.226-1.175 1.226-1.175.005-11.025.004-11.025 1.096-2.186c.991-1.977 1.316-2.273 3.415-3.107l2.32-.923 2.38.962c2.539 1.025 2.604 1.02 1.966-.173-1.318-2.463-8.497-2.447-11.065.025-1.716 1.651-1.83 2.507-2.015 15.202-.154 10.576-.263 12.267-.818 12.7-.837.653-25.864.711-28.868.067l-2.02-.433-.002-11.467c-.003-14.188-.417-16.295-3.476-17.698-2.026-.929-3.912-.978-5.511-.144" fill="#9c9c9c"/><path d="M222 36.104c0 14.907-.227 14.091 3.711 13.377l2.289-.415V38.533c0-9.755-.052-10.535-.7-10.558-.536-.02-.49-.11.2-.387.495-.199.9-.469.9-.599s-.18-.125-.4.011c-.22.136-.4-.014-.4-.334 0-.602-1.062-1.244-1.855-1.122-.25.039-.568-.383-.707-.937s-.44-1.007-.669-1.007c-.229 0-.306.178-.172.395.14.227-.02.294-.374.159-.34-.131-.519-.399-.397-.596.122-.197-.149-.358-.602-.358-.815 0-.824.143-.824 12.904m3.339-11.918c.144.374.264.8.267.947.003.147.181-.003.394-.333.258-.4.39-.433.394-.1.003.275.156.5.339.5.184 0 .334-.27.334-.6 0-.33-.084-.516-.186-.414-.103.102-.55-.009-.994-.247-.685-.366-.769-.329-.548.247m-57.34 27.09-.002 2.524-1.898.781c-2.6 1.07-5.923 1.265-7.912.463l-1.587-.64.929.785c1.886 1.596 7.265 1.279 12.068-.709l1.643-.68-.137-2.4-.136-2.4-1.484-.124-1.483-.124-.001 2.524m67.968-2.311c-.933.926.208 4.992 1.572 5.607 4.056 1.829 8.819 1.911 10.642.183.722-.683.615-.677-1.397.088-3.804 1.445-7.947.147-8.034-2.517-.028-.839-.095-1.706-.15-1.926a7.883 7.883 0 0 1-.15-1c-.045-.545-2.024-.891-2.483-.435m-83.7 5.302c-.147.146-.267 1.316-.267 2.6V59.2l-2.5.03-2.5.031 1.4.539c3.763 1.449 5.6.385 5.6-3.246 0-2.495-.658-3.363-1.733-2.287m99.48 2.233c.334 3.65 1.32 4.348 4.883 3.451 2.618-.66 2.442-.969-.467-.817l-2.563.134v-2.001c0-2.54-.286-3.267-1.284-3.267-.736 0-.78.192-.569 2.5M141.6 61.8v2.6l-2.5.012c-1.894.009-2.33.111-1.8.42.385.224 1.735.354 3 .288l2.3-.12.2-2.901c.177-2.572.121-2.9-.5-2.9-.595.001-.7.392-.7 2.601m120.4-.009c0 2.325.103 2.658 1.005 3.249 1.165.763 5.098.626 5.909-.207.472-.485-2.147-.343-4.214.227-.912.253-1.5-1.27-1.5-3.886 0-1.488-.148-1.974-.6-1.974-.472 0-.6.555-.6 2.591m-128.8 5.182c0 2.622-.095 3.003-.8 3.227-.44.14-.8.414-.8.609s-.675.476-1.5.625c-1.893.341-2.386.737-2.7 2.166-.307 1.398-1.069 2.073-2.946 2.61-1.184.338-1.523.688-1.944 2-.88 2.743-.974 2.929-1.599 3.169-.336.129-1.578-.209-2.761-.75-2.74-1.255-2.726-1.022.043.749 2.112 1.351 3.407 1.512 3.407.422 0-.283.263-.615.584-.738.321-.124.737-.818.925-1.543.22-.85.83-1.631 1.716-2.196 2.551-1.628 3.575-2.58 3.575-3.324 0-.495.697-1.084 2.1-1.776 3.384-1.67 3.959-2.505 3.859-5.602-.129-3.967-1.159-3.654-1.159.352m136.737-.306c.128 2.489 1.43 4.933 2.628 4.933.557 0 4.235 3.348 4.235 3.855 0 1.564 2.904 3.304 5.437 3.258 3.333-.061 3.216-.869-.15-1.032-2.533-.122-4.012-1.27-5.493-4.261-.223-.451-.955-1.096-1.626-1.433-2.804-1.409-3.297-2.077-3.401-4.619-.119-2.904-.272-3.368-1.11-3.369-.557-.001-.636.403-.52 2.668M284.065 80.3c-1.3 2.508-.85 4.919 1.165 6.23.761.495 1.271 1.478 1.956 3.77.51 1.705 1.306 3.935 1.77 4.955l.843 1.854 1.401-.723a36.61 36.61 0 0 1 2.4-1.13c.764-.31.409-.351-1.5-.174-1.977.183-2.503.116-2.514-.325-.007-.306-.361-1.277-.786-2.157-.425-.88-.797-2.32-.826-3.2-.092-2.753-.488-3.561-1.99-4.058l-1.384-.459.032-2.641c.034-2.848-.013-3.01-.567-1.942m-84.837 19.032c-1.296.343-1.948.79-2.431 1.668-.553 1.008-.969 1.236-2.593 1.426-2.511.292-4.297 2.173-3.925 4.133.28 1.475 1.295 3.6 1.583 3.312.112-.111.008-.566-.23-1.01-.581-1.086-.55-4.183.048-4.781.832-.832 4.345-.596 5.363.36 1.249 1.174 4.241.754 4.136-.579-.234-2.974.001-3.861 1.021-3.861.954 0 1 .11 1 2.357 0 2.528.256 2.843 2.313 2.843.814 0 .94-.107.567-.48-.264-.264-.48-1.429-.48-2.59 0-3.106-1.954-3.964-6.372-2.798m8.435 8.668c0 .99.091 1.575.202 1.3.132-.327 1.086-.5 2.75-.5h2.549l.204 1.3c1.341 8.532 1.647 14.789.836 17.09-.731 2.07-.517 2.575.367.867 1.29-2.495.744-15.435-.825-19.543l-.679-1.776-2.534.131c-1.441.074-2.607-.042-2.702-.269-.092-.22-.168.41-.168 1.4m-101.815 4.7c.933 3.064-.13 16.5-1.305 16.5-.519 0-.946.225-.949.5-.004.333-.136.3-.394-.1s-.39-.433-.394-.1c-.009.779-.803.588-.831-.2-.018-.493-.142-.408-.421.291-.217.544-.274 1.444-.125 2 .148.555.352.784.454.509.265-.722.829-.614 1.041.2.155.591.191.576.236-.1.038-.589.14-.661.386-.273.184.289.676.576 1.094.637.695.101.781.622 1.006 6.073.136 3.28.548 7.518.916 9.417.647 3.34.643 3.524-.117 5.525-.571 1.501-.632 1.942-.223 1.603 1.168-.97 1.383-3.193.885-9.179-.565-6.807-.65-20.26-.169-26.803.285-3.868.236-4.839-.305-6.1-.748-1.742-1.275-2.011-.785-.4M192 115.6c0 .44-.135.779-.3.753-.165-.026-1.229-.026-2.365 0l-2.065.047-.3 1.7c-.333 1.878-.305 5.882.061 8.772l.236 1.871 1.667-.104c.916-.057 1.891.068 2.166.278.341.26.513.206.54-.168.022-.302.184-.099.36.451.186.582.337-2.219.36-6.7.022-4.235-.05-7.7-.16-7.7s-.2.36-.2.8m-.31 20.9c-1.858 2.279-1.508 5.25.919 7.813.982 1.038 1.788 2.031 1.789 2.206.003.475 2.124 2.254 2.705 2.268.276.007 1.566 1.093 2.865 2.413 1.679 1.705 2.663 2.4 3.398 2.4.982 0 2.634 1.215 2.634 1.938 0 1.391 1.837 2.4 3.721 2.043 3.133-.595 3.27-1.018.273-.849l-2.794.158v-1.565c0-2.042-.551-2.525-2.88-2.525-1.056 0-1.92-.159-1.92-.353 0-.195-.36-.448-.8-.563-.528-.138-.8-.546-.8-1.198 0-1.166-.492-1.618-2.441-2.245-1.542-.497-2.726-1.584-3.61-3.315-.302-.591-1.179-1.496-1.949-2.013-1.652-1.108-2.048-3.266-1.042-5.675.631-1.509.612-1.772-.068-.938m104.441 4.69c-.726.12-1.63.672-2.113 1.29-.465.594-1.739 1.659-2.831 2.367l-1.987 1.288v2.532c0 2.513.147 2.759 1.367 2.29.477-.183.633-.818.633-2.581 0-2.29.03-2.352 1.436-3.02.789-.374 1.643-1.013 1.896-1.418.341-.546.946-.738 2.332-.738 2.443 0 3.136-.298 3.136-1.347 0-.924-1.129-1.117-3.869-.663m-83.178 4.995c.084.668.281 1.575.437 2.015.229.642.2.682-.146.2-.313-.436-.433-.458-.438-.081-.028 2.408 1.435 2.63 17.558 2.658l13.363.023.454-1.345c.583-1.729 1.603-2.455 3.453-2.455 1.374 0 2.288-.744 1.672-1.361-.132-.131-7.094-.25-15.473-.264-8.378-.013-16.538-.155-18.133-.315l-2.9-.291.153 1.216m1.365 12.504c.19 3.725.997 4.55 5.582 5.711 1.138.288 1.7.649 1.7 1.09 0 1.548 1.502 2.425 3.518 2.054 2.778-.512 3.26-.757 2.282-1.159-.648-.266-.672-.334-.124-.357.372-.015.805-.236.962-.49.177-.286.11-.353-.176-.176-.268.165-.462.042-.462-.296 0-.633-1.079-1.246-1.941-1.102-.455.075-.455-.004 0-.498.298-.323.601-.425.674-.227.074.199.337.361.586.361.249 0 .122-.315-.281-.7-.538-.513-.784-.566-.919-.2-.198.533-.951.706-.872.2.139-.878-.127-1.204-.833-1.02-.432.113-.747.412-.7.663.057.301-.924.498-2.868.576-3.932.157-4.758-.524-4.928-4.068-.086-1.788-.279-2.474-.718-2.558-.488-.093-.578.318-.482 2.196M105.2 163.5c0 1.053.082 1.099 1.937 1.068 3.614-.06 4.509 1.064 3.703 4.654-.503 2.236-.265 2.49.537.572 1.712-4.097.084-7.394-3.651-7.394-2.489 0-2.526.016-2.526 1.1m5.28 12.428c.101.529.666.697 2.66.792l2.532.12-.136 2.161c-.156 2.481.237 2.408.81-.15.633-2.83.423-3.015-3.87-3.403-1.833-.166-2.106-.1-1.996.48m147.92 6.727c0 .214-.638 1.085-1.417 1.936-2.395 2.614-1.452 4.376 2.932 5.48.964.242 1.855.731 1.979 1.085.766 2.189 5.174 3.422 7.306 2.044.736-.476.497-.509-2.9-.408-2.596.077-2.7.043-2.7-.867 0-1.768-1.022-2.645-3.434-2.947-3.544-.442-4.095-1.331-2.537-4.091.673-1.192 1.122-2.27.997-2.394-.124-.125-.226-.052-.226.162M115.6 185.4c0 .472.557.6 2.609.6 3.197 0 3.679.615 3.077 3.928-.424 2.332.404 3.12.864.822.837-4.183-.521-5.95-4.569-5.95-1.494 0-1.981.147-1.981.6m155.403 7.395c-.137.221.012.298.336.173.319-.122.694-.038.833.187.14.226.547.297.906.16.448-.172.559-.098.353.235-.165.267-.122.702.096.968.218.265.479.932.58 1.482.158.856.192.815.239-.281.109-2.569-2.274-4.653-3.343-2.924m5.331 7.104c.149 3.031.566 3.689 3.504 5.546.969.613 1.762 1.359 1.762 1.658 0 1.763 3.303 4.118 5.674 4.047 3.36-.101 3.276-1.15-.092-1.15-2.599 0-4.382-1.095-4.382-2.693 0-1.153-1.16-2.507-2.148-2.507-1.79 0-3.025-1.929-3.144-4.913-.083-2.071-.245-2.685-.708-2.687-.487-.001-.575.505-.466 2.699m-150.467-1.232c-.785.785-.052 1.138 2.478 1.194 2.991.067 4.124.766 5.474 3.376.343.662.928 1.313 1.302 1.445 2.314.823 4.079 2.948 4.079 4.912 0 2.225.288 3.206.943 3.206.303 0 .439-.909.402-2.7l-.054-2.7-2.721-2.084c-1.496-1.146-2.878-2.366-3.072-2.712-1.816-3.246-7.146-5.622-8.831-3.937m16.233 12.945c-1.59.64-.968.988 1.763.988h2.662l.571 1.7c.561 1.672.601 1.7 2.437 1.713 2.919.019 4.067 1.252 4.067 4.368 0 2.72.774 3.377.846.719.026-.935.071-1.97.101-2.3.094-1.025-.929-2.297-2.266-2.82-3.08-1.203-3.833-1.697-4.299-2.823-.776-1.875-3.368-2.555-5.882-1.545m147.5 4.168c0 2.605.096 3.022.7 3.033 1.353.024 1.979.955 2.279 3.388.404 3.266 2.047 6.198 3.474 6.199 1.261 0 1.534.745 1.54 4.2.004 2.239 1.143 7.248 2.116 9.3.369.779.734.9 2.725.9 1.457 0 2.379.183 2.517.5.119.275.179-.22.133-1.1l-.084-1.6-2.444-.118c-2.621-.126-3.356-.794-3.356-3.051 0-.512-.269-1.692-.597-2.623-.328-.93-.508-2.123-.4-2.65l.398-1.93c.11-.535.487-1.259.838-1.61 1.165-1.164.398-1.818-2.132-1.818h-2.318l-.898-1.9c-1.229-2.601-1.002-6.9.365-6.9.469 0 .092-4.012-.426-4.53-.238-.238-1.332-.495-2.431-.571l-1.999-.139v3.02m-131.97 6.971c-1.197.334-1.45.968-.652 1.631.467.388.507.686.174 1.308-.337.629-.32.737.076.493.372-.23.43-.112.219.439-.159.415-.166.63-.016.48.151-.151.656-.068 1.122.183 1.152.622 2.605.647 3.097.054.816-.983 4.474-1.095 5.979-.183 1.275.773 1.385 1.004 1.571 3.306.271 3.357 1.033 3.491 1.014.179-.017-3.033-1.074-4.239-4.134-4.713-1.927-.299-3.28-1.267-3.28-2.347 0-1.131-2.6-1.548-5.17-.83m42.81 29.265c-.967.439-1.669.888-1.559.998.11.11.991-.154 1.958-.587l1.759-.787 1.051 1.007c.578.553 1.212 1.579 1.41 2.28.244.867.802 1.495 1.75 1.97 2.354 1.179 2.908 3.595 1.49 6.503-.387.795-.385.795.45-.006 1.797-1.723 1.135-6.994-.878-6.994-.502 0-2.27-2.074-2.271-2.664-.001-1.84-2.823-2.78-5.16-1.72m-93.676 2.417c-.019.312-.007 7.407.027 15.767.055 13.229-.022 15.4-.588 16.743-.819 1.944-.497 2.381.437.594.654-1.251.965-32.866.329-33.501-.093-.093-.185.086-.205.397m197.766.067c-1.392 2.191-1.656 4.257-1.273 9.979.211 3.147.329 10.491.263 16.321-.107 9.483-.046 10.748.586 12 .388.77.572 1.04.409.6-.601-1.622-.521-36.612.087-38.068.559-1.337.521-1.767-.072-.832m-118.162 8.8c-.843.88-.857 1.081-.613 8.9.137 4.4.349 12.68.472 18.4.122 5.72.407 11.615.633 13.1l.412 2.7h1.964c1.08 0 2.092-.013 2.248-.03.157-.016.426.299.599.7.172.402.204-2.24.07-5.87-.134-3.63-.404-6.66-.599-6.733-.194-.074-.367-.434-.382-.8-.023-.532-.098-.505-.372.133-.232.539-.355.604-.378.2-.03-.533-.081-.533-.459 0-.303.429-.48.464-.619.122-.108-.262-.454-.378-.77-.257s-.574.011-.574-.246c0-.256-.152-.372-.338-.257-.368.227-.727-6.137-1.13-20.045-.302-10.371-.379-10.117 3.093-10.117 1.28 0 2.439-.18 2.575-.4.572-.925-4.917-.454-5.832.5m21.27 4.3c.014 1.21.116 1.975.227 1.7.397-.984 4.894-.646 5.31.4.818 2.058 1.372 9.058.884 11.171-.607 2.631-.34 2.891.557.542.867-2.268.627-7.304-.558-11.741-.952-3.566-.684-3.309-3.516-3.386-1.288-.035-2.474-.249-2.636-.475-.162-.226-.282.579-.268 1.789m5.992 39.3c.017.275.253 1.114.524 1.865.401 1.108.388 1.709-.069 3.2-.309 1.009-.629 2.06-.711 2.335-.099.334-1.017.5-2.761.5-1.803 0-2.625-.155-2.653-.5-.106-1.331-.685 1.794-.723 3.9l-.043 2.4-2.132.7c-2.624.862-6.848.911-8.408.098-.63-.329-1.387-.598-1.681-.598-.384 0-.57-.768-.655-2.696-.178-4.058-1.523-4.266-1.507-.233l.011 2.729 1.785.9c4.871 2.457 14.193.8 14.193-2.522 0-2.015.416-2.416 2.888-2.784 2.834-.422 4.397-4.902 2.932-8.407-.584-1.398-1.046-1.812-.99-.887m90.97.7c-.136.22-1.231.4-2.434.4-2.001 0-2.22.09-2.592 1.069-.687 1.805-.27 2.131 2.726 2.131h2.726l.087-2c.086-1.984-.037-2.37-.513-1.6m-180.955 32.432c-2.539.499-2.505.768.097.768h2.275l-.087 4.191c-.106 5.149.517 6.243 3.402 5.97.917-.087 2.864-.263 4.326-.392l2.659-.234.493 1.533c.697 2.161 1.095 2.532 2.714 2.532 2.641 0 4.023 1.393 4.159 4.192.087 1.792.275 2.43.74 2.518.516.099.608-.299.534-2.327-.106-2.881-.612-3.593-3.277-4.601-2.602-.984-3.68-1.747-3.68-2.605 0-1.004-1.512-1.977-3.07-1.977-2.223 0-3.273-.725-3.409-2.355-.101-1.204-.288-1.465-1.121-1.564-2.578-.305-3.094-.8-3.289-3.147-.159-1.921-.74-3.029-1.511-2.884l-1.955.382m160.05.433c-.272.272-.495 1.079-.495 1.792 0 1.489-1.165 2.543-2.809 2.543-1.336 0-1.991.684-1.991 2.08 0 1.423-1.278 2.716-2.7 2.733-1.163.013-2.5.803-2.5 1.477 0 .966-1.763 2.522-3.321 2.932-3.41.896-4.273 1.84-4.276 4.678-.002 1.957.127 2.5.597 2.5.472 0 .6-.556.6-2.6 0-1.867.147-2.6.52-2.6.286 0 .744-.225 1.017-.5.274-.275 1.519-.68 2.769-.9 2.201-.388 2.284-.449 2.717-2l.446-1.6 2.286-.121c2.592-.136 2.925-.553 3.014-3.779.028-.998.17-1.101 1.531-1.105 3.023-.011 3.3-.239 3.3-2.708 0-2.789.353-2.554.511.34.083 1.516.295 2.202.704 2.281.485.094.551-.387.385-2.797-.209-3.038-1.002-3.949-2.305-2.646M147.5 360.229c-1.537.834-1.411.883 1.2.468 3.697-.587 4.434-.107 4.58 2.982.088 1.849.278 2.543.72 2.628 1.242.238.542-4.951-.796-5.904-1.351-.962-4.097-1.046-5.704-.174m110.3.217c-1.091.671-1.218.976-1.4 3.347-.294 3.827 1.033 3.747 1.447-.088.335-3.095.235-3.013 3.428-2.833 2.476.14 2.706.099 1.695-.3-2.198-.868-3.899-.909-5.17-.126m-98.324 4.125c-2.554.687-3.435 1.517-1.024.966 1.89-.432 4.986-.176 6.564.543.879.4.984.694.984 2.741 0 2.276.314 2.779 1.733 2.779 1.107 0 .658-5.11-.488-5.544-2.095-.794-5.677-2.055-5.76-2.029-.047.015-.951.26-2.009.544m86.924.481c-3.256 1.475-3.198 1.424-3.24 2.916a49.88 49.88 0 0 1-.138 2.532c-.071.794.084 1.1.56 1.1 1.139 0 1.618-.892 1.618-3.012 0-2.944 4.545-4.437 7.952-2.614.52.278.836.33.703.115-.951-1.538-5.08-2.112-7.455-1.037m-66.405 4.986c-1.182.416-2.34.947-2.572 1.18-.233.233.246.144 1.064-.197 4.217-1.761 6.332-.412 4.891 3.118-.692 1.696-.786 2.199-.34 1.829 1.762-1.462 2.4-5.076.962-5.452-.44-.115-.8-.349-.8-.52 0-.691-1.168-.675-3.205.042m46.675.549c-.841.296-1.562.601-1.601.676-.039.075-.443.677-.896 1.337-2.03 2.954-2.173 3.939-2.173 14.933v10.317l-1.1 1.026c-.605.565-1.493 1.228-1.974 1.475-1.179.606-26.572.622-28.529.018-2.627-.811-8.437-1.074-8.303-.377.18.939 8.888 1.53 23.156 1.572 14.363.042 14.365.042 16.634-2.227 1.574-1.574 1.932-1.741 3.923-1.835l2.192-.102v-10.253c.001-9.918-.025-10.261-.799-10.463-1.231-.322-1.185-4.85.056-5.514.795-.425 3.62-.285 5.449.27.382.116.245-.046-.305-.36-1.548-.883-4.021-1.096-5.73-.493" fill="#6c6c6c"/><path d="M221.694 36.1c-.113 15.758-.189 15.501 4.127 14.031 2.276-.775 1.885-1.139-.619-.576-3.302.742-3.176 1.261-3.302-13.548L221.789 23l-.095 13.1M171.09 51.3l.166 2.5-1.728.682c-4.708 1.859-9.004 2.303-11.243 1.161-1.608-.82-2.053-.427-.585.517 1.653 1.061 4.276 1.161 7.1.271 1.43-.452 3.09-.823 3.689-.826.599-.003 1.904-.401 2.9-.885l1.811-.879v-2.287c0-1.456.182-2.361.5-2.489.275-.111-.237-.216-1.138-.233l-1.639-.032.167 2.5m62.52-2.242c.457.124.607.738.6 2.454l-.01 2.288 1.8.873c4.589 2.226 9.859 2.59 11.718.809.507-.485.642-.683.302-.439-2.014 1.439-6.73 1.221-10.514-.486-1.456-.656-2.006-2.589-1.553-5.457.026-.165-.628-.279-1.453-.254-.825.026-1.226.121-.89.212M154 56.554c0 3.698-1.648 4.64-5.646 3.23-.96-.339-1.55-.42-1.31-.18 1.475 1.475 5.742 1.501 7.495.046.912-.756.965-5.65.061-5.65-.471 0-.6.55-.6 2.554m96.625-2.195c-.827 1.338.328 5.346 1.707 5.922 1.488.622 4.164.454 5.268-.33.497-.353.473-.385-.135-.188-4.299 1.396-5.717.263-5.838-4.663-.026-1.072-.555-1.463-1.002-.741M142.998 59.7c-.098.275-.227 1.58-.288 2.9l-.11 2.4-2.29.12c-1.259.065-2.654-.076-3.1-.314-.445-.239-.81-.276-.81-.083 0 .442 2.736 1.277 4.185 1.277 2.352 0 3.422-1.353 3.343-4.227-.065-2.358-.492-3.309-.93-2.073M261.2 61.78c0 3.414 1.217 4.511 5.21 4.699l2.59.121.123 1.489c.119 1.427 3.534 5.111 4.738 5.111.206 0 1.077.945 1.935 2.1 2.602 3.503 3.626 4.3 5.529 4.301l1.675.001v6.093l1.7 1.463c.935.805 1.701 1.819 1.702 2.253.002 1.066 1.717 5.901 2.537 7.153.364.554.661 1.188.661 1.408 0 .221.842-.167 1.871-.862 2.051-1.384 1.726-2.066-.37-.775l-1.301.8-.843-1.867c-.464-1.028-1.261-3.263-1.771-4.968-.685-2.292-1.195-3.275-1.956-3.77-2.116-1.377-2.504-4.004-.955-6.465.793-1.258.503-1.432-2.252-1.354-2.301.064-5.223-1.757-5.223-3.256 0-.507-3.678-3.855-4.235-3.855-1.222 0-2.565-2.497-2.565-4.769 0-1.337-.069-2.431-.154-2.431-.085 0-.67.269-1.3.598-3.588 1.871-6.546.415-6.546-3.221 0-1.451-.175-2.577-.4-2.577-.225 0-.4 1.127-.4 2.58m-126.864 5.026c.161 2.861-.473 3.758-3.836 5.417-1.403.692-2.1 1.281-2.1 1.776 0 .744-1.024 1.696-3.575 3.324-.886.565-1.496 1.346-1.716 2.196-.188.725-.604 1.419-.925 1.543-.321.123-.584.455-.584.738 0 1.155-1.341.933-3.724-.614l-2.476-1.608 1.8 1.587c3.11 2.743 4.551 2.422 6.481-1.441.471-.943 1.168-1.813 1.551-1.934.935-.297 2.983-2.187 3.517-3.247.238-.471 1.292-1.35 2.342-1.954 3.435-1.975 3.709-2.378 3.709-5.459 0-1.501-.135-2.73-.3-2.731-.165 0-.239 1.083-.164 2.407m64.371 31.951c-1.421.231-1.893.543-3.677 2.429-.423.448-1.245.814-1.826.814-1.532 0-3.604 2.449-3.604 4.258 0 1.495.973 3.742 1.621 3.742.229 0 .164-.469-.154-1.1-1.711-3.403-.424-6.059 3.137-6.474 1.624-.19 2.04-.418 2.593-1.426 1.041-1.894 5.312-2.784 7.623-1.59 1.084.561 1.18.785 1.18 2.751 0 2.059.794 3.578 1.501 2.872.466-.467.113-5.176-.414-5.516-1.555-1.003-4.668-1.3-7.98-.76m9.688 6.776c-1.652.558-.212 1.457 2.138 1.336l2.534-.131.7 1.831c.385 1.007.843 2.686 1.019 3.731l.32 1.9.047-2.125c.034-1.516-.243-2.737-.965-4.263l-1.012-2.139-2.193-.137c-1.207-.075-2.371-.076-2.588-.003M106.266 112.4c.822 1.752.934 1.885.934 1.111 0-.342-.358-1.047-.796-1.567l-.796-.944.658 1.4m81.365.794c-1.465.969-2.093 14.292-.834 17.685l.549 1.479 2.527-.046c2.45-.044 2.526-.077 2.487-1.079-.046-1.189-.66-3.308-.72-2.484-.027.374-.199.428-.54.168-.275-.21-1.25-.335-2.166-.278l-1.667.104-.236-1.871c-.366-2.89-.394-6.894-.061-8.772l.3-1.7 2.065-.047c1.136-.026 2.181-.033 2.323-.014.339.043.861-2.754.569-3.046-.288-.287-4.184-.371-4.596-.099M107.2 117c0 1.503.079 2.654.176 2.558.296-.297.378-4.737.092-5.023-.147-.148-.268.962-.268 2.465m108.16 4c.001 3.3.062 4.597.138 2.882.075-1.715.074-4.415-.001-6-.076-1.585-.138-.182-.137 3.118m-108.701 2.06c-.326 3.851-.252 14.244.128 17.94.182 1.771.31-1.573.35-9.1.065-12.283-.033-14.102-.478-8.84m107.719 5.238c-.904 1.803-.891 1.981.042.585.484-.724.797-1.4.695-1.501-.102-.102-.434.31-.737.916m-23.496 8.688c-1.908 2.427-1.549 4.542 1.348 7.92 3.137 3.66 3.588 4.077 5.292 4.894.918.44 1.671.994 1.673 1.23.008.731 1.846 2.206 3.981 3.195 1.12.52 2.151 1.266 2.29 1.66.927 2.621 6.934 3.727 6.934 1.277 0-.225-.168-.305-.373-.179-2.226 1.376-6.027.465-6.027-1.445 0-.723-1.652-1.938-2.634-1.938-.735 0-1.719-.695-3.398-2.4-1.299-1.32-2.589-2.406-2.865-2.413-.581-.014-2.702-1.793-2.705-2.268-.001-.175-.807-1.168-1.789-2.206-2.427-2.563-2.777-5.534-.919-7.813.225-.275.309-.5.188-.5s-.569.444-.996.986m105.518 3.332c-.979.082-1.761.511-2.6 1.427-.66.721-1.74 1.652-2.4 2.07-2.672 1.691-2.986 2.203-2.993 4.885-.004 1.405.168 2.5.393 2.5s.4-1.13.4-2.59c0-2.493.047-2.614 1.243-3.232.684-.354 2.042-1.442 3.018-2.418 1.629-1.629 1.962-1.785 4.032-1.893 1.316-.069 2.325-.32 2.419-.602.105-.317-.229-.446-.976-.374-.625.06-1.766.162-2.536.227m-189.056 8.346c.052 4.506-.012 4.957-.871 6.12-.791 1.073-.815 1.186-.159.777 1.655-1.034 2.06-3.934 1.307-9.361-.28-2.019-.324-1.628-.277 2.464m105.587-4.064c.229.694 4.818.905 20.702.953 8.489.026 15.541.155 15.673.286.623.624-.3 1.361-1.704 1.361-1.714 0-2.998.905-3.404 2.4-.268.985-.263.988.344.162.339-.46 1.48-1.16 2.537-1.554 2.913-1.088 3.539-1.746 2.542-2.674-.73-.68-1.773-.736-14.304-.768-7.434-.018-15.542-.153-18.017-.3-2.94-.174-4.455-.127-4.369.134m.751 14.661.118 2.931 1.995 1.304c1.098.717 2.49 1.304 3.095 1.304.834 0 1.347.376 2.131 1.56.568.859 1.352 1.644 1.743 1.747.964.252 4.382-.293 4.865-.776.228-.228-.569-.192-1.919.087-2.515.519-4.11-.208-4.11-1.872 0-.507-.496-.842-1.7-1.149-4.601-1.175-5.5-2.033-5.5-5.249 0-1.265-.188-2.417-.418-2.559-.281-.173-.379.708-.3 2.672m-108.215 1.806c-.894.893-.148 1.333 2.259 1.333 3.837 0 5.467 3.569 3.495 7.651-.542 1.121-.603 1.466-.201 1.133 1.836-1.525 1.831-6.021-.011-9.084-.765-1.273-4.59-1.986-5.542-1.033M110.4 174.8c0 .22.045.411.1.425.055.014 1 .111 2.1.217 4.514.432 4.636.635 3.225 5.358-.286.958-.274.966.283.2 1.088-1.496 1.229-4.318.277-5.529-.876-1.113-5.985-1.686-5.985-.671m145.586 10.227-2.186 2.227 1.2.972c1.498 1.213 3.482 2.174 4.488 2.174.748 0 2.512 1.655 2.512 2.357 0 .589 1.711 1.506 3.393 1.818 2.257.42 3.007.916 3.007 1.99 0 1.541.773 1.863 3.43 1.428a140.88 140.88 0 0 1 2.46-.391c.226-.006-.444-2.655-.781-3.084-.208-.266-.243-.701-.078-.968.206-.333.095-.407-.353-.235-.359.137-.766.066-.906-.16-.139-.225-.514-.309-.833-.187-.319.123-.484.067-.367-.123.117-.19-.23-.345-.772-.345s-.9.139-.795.308c.311.503-.92.792-3.368.792-2.35 0-3.531-.697-4.143-2.444-.124-.354-1.015-.843-1.979-1.085-3.335-.84-5.907-3.715-3.933-4.394.356-.123 2.582-2.877 2.325-2.877-.074 0-1.118 1.002-2.321 2.227M115.6 184.4c0 .22.892.4 1.981.4 2.428 0 3.79.58 4.375 1.863.83 1.821.36 5.337-.713 5.337-.495 0-.667.404-.7 1.642-.029 1.113.076 1.468.324 1.1.246-.364.308-.124.189.73-.207 1.487-.027 1.583 2.944 1.551l2.2-.023.2-2.493.2-2.494-1.6-.506c-1.539-.488-1.608-.584-1.807-2.507-.216-2.086-.421-2.566-1.74-4.083-.847-.974-5.853-1.416-5.853-.517m9.999 13.735c0 .319.815.423 2.603.331l2.603-.134 1.771 1.822c.974 1.002 1.929 2.105 2.122 2.45.194.346 1.59 1.573 3.104 2.727l2.752 2.098-.106 2.278c-.121 2.609.191 3.467.904 2.49 1.263-1.727 5.574-1.198 6.527.8.626 1.312 1.309 1.774 4.436 2.998 1.762.69 2.27 1.758 2.143 4.505-.078 1.684.034 2.3.418 2.3 1.102-.001.843-4.645-.324-5.812-1.073-1.073-3.631-2.588-4.369-2.588-.236 0-.959-.716-1.606-1.591-.833-1.125-1.557-1.652-2.477-1.8-.715-.115-1.924-.306-2.686-.424-1.584-.247-1.693-.366-2.014-2.185-.293-1.665-.498-2-1.224-2-.317 0-.576-.173-.576-.385 0-.212-1.067-1.11-2.372-1.996-1.304-.886-2.482-1.958-2.617-2.384-.582-1.834-3.287-3.633-5.512-3.666-1.155-.016-2.414-.091-2.799-.164-.385-.074-.7.075-.701.33m150.015 1.965c.017 2.863.651 3.894 3.475 5.647.928.577 1.963 1.58 2.299 2.229 1.412 2.731 2.436 3.388 5.54 3.557 1.58.087 2.736.016 2.57-.156-.166-.173-1.254-.275-2.418-.228-2.15.087-5.474-2.354-5.483-4.026-.001-.287-.676-.963-1.5-1.5-3.315-2.164-3.697-2.732-3.697-5.498 0-1.417-.176-2.525-.4-2.525-.226 0-.394 1.09-.386 2.5m13.486 14.2c-.679 2.944-.678 3.507.008 4.319.38.451.996.936 1.369 1.079.42.161.994 1.365 1.515 3.18 1.138 3.961 2.246 6.217 3.205 6.521.826.262 1.414 1.851 1.997 5.401.51 3.104 1.724 7.506 2.519 9.131.412.842.679.919 2.772.8 1.296-.073 2.39.045 2.484.269.268.639.257-.868-.012-1.567-.182-.475-.813-.633-2.532-.633-1.982 0-2.347-.121-2.716-.9-.973-2.052-2.112-7.061-2.116-9.3-.006-3.455-.279-4.2-1.54-4.2-1.427-.001-3.07-2.933-3.474-6.199-.299-2.424-.926-3.363-2.261-3.388-.569-.011-.703-.498-.8-2.913-.095-2.341-.176-2.65-.418-1.6m-129.471 7.335c-2.517.494-3.123 1.245-.741.918 2.409-.33 3.912.051 3.912.993 0 1.113 1.331 2.08 3.28 2.382 3.016.468 4.12 1.694 4.12 4.575 0 1.589.173 2.488.5 2.597.364.121.5-.506.5-2.31 0-3.103-.716-3.961-4.53-5.431-1.502-.579-2.839-1.346-2.971-1.706-.21-.573-2.009-2.526-2.22-2.409-.043.024-.876.2-1.85.391m41.334 29.562c-.9.422-1.848 1.023-2.106 1.334-.263.317.356.149 1.404-.382 2.422-1.226 5.337-.36 5.339 1.587.001.59 1.769 2.664 2.271 2.664 1.887 0 2.676 5.091 1.065 6.871-.805.89-.045.981.835.1 1.547-1.546.851-5.105-1.471-7.526a249.314 249.314 0 0 1-3.582-3.817c-1.702-1.869-1.594-1.845-3.755-.831m-94.017 2.715c.106.172.241 7.575.3 16.452.059 8.877.243 15.801.41 15.388.635-1.578.339-32.152-.311-32.152-.326 0-.505.14-.399.312m196.179 2.771c-.887 2.339-.647 33.631.273 35.569.87 1.833 1.091 1.7.405-.243-.447-1.268-.517-3.554-.342-11.3.12-5.34.036-12.489-.187-15.887-.347-5.287-.316-6.4.211-7.717.338-.846.525-1.628.415-1.738-.11-.11-.459.482-.775 1.316M187.4 261.978c-2.423.992-2.355.358-2.073 19.298.247 16.54.655 23.775 1.547 27.39l.411 1.665 2.557.02 2.558.019-.028-1.285c-.032-1.448-.46-2.759-.888-2.715-.156.017-1.168.03-2.248.03h-1.964l-.412-2.7c-.226-1.485-.511-7.38-.633-13.1-.123-5.72-.335-14-.472-18.4-.304-9.74-.286-9.782 4.161-9.828 1.87-.02 2.441-.132 1.884-.372-1.016-.436-3.359-.448-4.4-.022m20.6 3.356c0 .828.193.937 1.7.959 3.563.052 3.437-.006 3.949 1.807.264.935.716 2.78 1.003 4.1l.523 2.4-.114-2.6c-.064-1.464-.519-3.693-1.041-5.1l-.927-2.5h-2.547c-2.401 0-2.546.053-2.546.934m7.258 12.466c-.043 1.369-.417 3.173-.871 4.2-.788 1.782-.788 1.79-.006.8.904-1.146 1.353-3.477 1.117-5.8-.13-1.269-.179-1.103-.24.8m-108.964 10.303-.706 1.297.806-.944c.686-.804 1.052-1.662.706-1.653-.055.001-.418.586-.806 1.3m-.415 16.152c-.688.687-.109.945 2.121.945 1.956 0 3.655-.738 1.9-.825a52.84 52.84 0 0 1-2.121-.212c-.892-.103-1.747-.062-1.9.092m198.968 1.545c-.026.22-.812.367-1.747.328-2.857-.122-3.367.156-4.041 2.204-.911 2.768.08 3.749 3.627 3.591 3.428-.152 3.192-.723-.299-.723-3.088 0-3.504-.315-2.813-2.131.371-.977.593-1.069 2.567-1.069 2.315 0 3.268-.61 2.938-1.881-.102-.395-.207-.539-.232-.319m-90.763.803c.156.242.46.88.675 1.419.247.618.4.737.416.322.014-.36-.29-.999-.675-1.419-.385-.419-.572-.565-.416-.322m1.209 3.797c0 .77.082 1.085.183.7.1-.385.1-1.015 0-1.4-.101-.385-.183-.07-.183.7m-.993 3.524c-.68 1.926-.758 1.994-2.6 2.268-2.484.37-2.9.769-2.9 2.786 0 3.322-9.322 4.979-14.193 2.522l-1.785-.9-.023-2.8c-.027-3.256-.614-2.835-.902.647-.178 2.149-.134 2.277 1 2.947 5.381 3.179 15.863 2.009 16.839-1.879.346-1.381 1.306-2.315 2.38-2.315 1.518 0 3.38-2.836 3.019-4.599-.074-.364-.45.232-.835 1.323m-90.1 25.498-1.2.585 1.434-.168c2.04-.238 2.47.194 2.677 2.695.195 2.347.711 2.842 3.289 3.147.833.099 1.02.36 1.121 1.564.136 1.63 1.186 2.355 3.409 2.355 1.558 0 3.07.973 3.07 1.977 0 .858 1.078 1.621 3.68 2.605 2.608.987 3.247 1.812 3.227 4.167-.025 2.881.317 3.21 2.225 2.138 3.844-2.161 7.16-.72 7.349 3.195.17 3.504 1.119 3.678 1.119.206 0-2.535-.026-2.597-1.522-3.634-2.1-1.455-6.483-1.552-7.455-.165-.595.849-.623.788-.623-1.382 0-2.778-3.147-5.907-5.941-5.907-.193 0-.849-.72-1.459-1.6-.61-.88-1.354-1.6-1.654-1.6-.3 0-.546-.157-.546-.349 0-.192-.72-.464-1.6-.605-1.412-.225-1.7-.467-2.444-2.051-.654-1.391-1.059-1.795-1.8-1.795-1.291 0-2.556-1.349-2.556-2.725 0-.711-.413-1.521-1.122-2.2-1.294-1.24-1.125-1.211-2.678-.453m159.491.278c-.224.275-.686 1.172-1.026 1.994-.457 1.102-1.089 1.722-2.408 2.363-1.322.642-2.033 1.341-2.723 2.677-.736 1.426-1.286 1.935-2.597 2.407-1.155.415-1.95 1.063-2.6 2.118-.516.836-1.067 1.524-1.225 1.53-.737.028-4.606 2.034-5.174 2.683-.755.863-1.399 5.728-.758 5.728.248 0 .421-1.023.423-2.5.003-2.838.866-3.782 4.276-4.678 1.558-.41 3.321-1.966 3.321-2.932 0-.674 1.337-1.464 2.5-1.477 1.422-.017 2.7-1.31 2.7-2.733 0-1.396.655-2.08 1.991-2.08 1.637 0 2.745-1.024 2.885-2.666.301-3.532 2.724-2.795 2.724.83 0 1.424.142 2.677.316 2.784.568.351.32-5.182-.265-5.887-.651-.783-1.79-.861-2.36-.161m-26.587 20.394c-1.373.831-1.501 1.063-1.55 2.806-.065 2.29-.077 2.358-.507 3.038-.249.393-.139.5.406.397.607-.116.784-.609.947-2.645.302-3.778 2.408-4.699 7-3.062.757.27.763.247.12-.437-1.094-1.163-4.568-1.215-6.416-.097m-99.675 4.535c-.851.85-.792 1.086.147.584.427-.229 1.462-.577 2.3-.774l1.524-.359-1.671-.04c-1.032-.025-1.912.2-2.3.589m6.571.221c4.775 1.756 4.319 1.319 4.256 4.074-.047 2.079.056 2.485.663 2.603.644.124.707-.143.6-2.564l-.119-2.703-2.761-1.13c-1.518-.622-3.228-1.121-3.8-1.109-.763.015-.455.235 1.161.829m81.4-.109c-.88.407-2.095.943-2.7 1.191-1.392.571-1.77 5.856-.4 5.592.692-.133.749-.364.85-3.456.053-1.611.025-1.586 3.31-3.027 1.828-.802 4.191-.818 5.686-.039 1.562.815 1.844.73.71-.215-1.269-1.058-5.217-1.082-7.456-.046m-65.7 4.848c-2.345 1.065-2.133 1.304.372.422 1.968-.694 3.128-.699 3.128-.015 0 .171.36.405.8.52 1.482.387.986 3.235-.95 5.461l-.85.978 1.236-.978c.76-.6 1.441-1.661 1.767-2.752l.53-1.775-1.533-1.325c-1.773-1.532-2.194-1.582-4.5-.536m46.3.544c-1.956.796-2.322 1.139-3.295 3.081l-1.096 2.186-.004 11.025-.005 11.025-1.226 1.175-1.226 1.175-13.408.115c-10.665.092-14.137-.01-16.974-.5-4.146-.715-5.821-.773-6.166-.215-.155.25.697.402 2.276.405 1.388.002 3.514.27 4.724.595 1.727.463 5.024.592 15.326.595 13.822.005 13.924-.007 15.974-1.919l1.1-1.026.022-10.425c.02-8.966.12-10.649.715-12.025 1.829-4.23 3.133-5.234 6.663-5.131l2 .058-1.4-.533c-1.774-.676-1.438-.704-4 .339" fill="#848484"/></g></svg>